  0
SECTION
  2
BLOCKS
  0
ENDSEC
  0
SECTION
  2
ENTITIES
  0
LINE
  8
0
 10
0.0313873
 20
-5.37401
 11
0.0522614
 21
-5.37225
  0
LINE
  8
0
 10
0.0522614
 20
-5.37225
 11
0.0730286
 21
-5.36963
  0
LINE
  8
0
 10
0.0730286
 20
-5.36963
 11
0.093689
 21
-5.36613
  0
LINE
  8
0
 10
0.093689
 20
-5.36613
 11
0.114166
 21
-5.36179
  0
LINE
  8
0
 10
0.114166
 20
-5.36179
 11
0.134445
 21
-5.35657
  0
LINE
  8
0
 10
0.134445
 20
-5.35657
 11
0.154495
 21
-5.35052
  0
LINE
  8
0
 10
0.154495
 20
-5.35052
 11
0.174286
 21
-5.34363
  0
LINE
  8
0
 10
0.174286
 20
-5.34363
 11
0.193756
 21
-5.33592
  0
LINE
  8
0
 10
0.193756
 20
-5.33592
 11
0.212875
 21
-5.32741
  0
LINE
  8
0
 10
0.212875
 20
-5.32741
 11
0.231644
 21
-5.3181
  0
LINE
  8
0
 10
0.231644
 20
-5.3181
 11
1.21614
 21
-4.82628
  0
LINE
  8
0
 10
1.21614
 20
-4.82628
 11
1.3125
 21
-4.77332
  0
LINE
  8
0
 10
1.3125
 20
-4.77332
 11
1.40654
 21
-4.71635
  0
LINE
  8
0
 10
1.40654
 20
-4.71635
 11
1.49811
 21
-4.6555
  0
LINE
  8
0
 10
1.49811
 20
-4.6555
 11
1.58707
 21
-4.59088
  0
LINE
  8
0
 10
1.58707
 20
-4.59088
 11
1.67323
 21
-4.52258
  0
LINE
  8
0
 10
1.67323
 20
-4.52258
 11
1.75645
 21
-4.45074
  0
LINE
  8
0
 10
1.75645
 20
-4.45074
 11
1.83661
 21
-4.37549
  0
LINE
  8
0
 10
1.83661
 20
-4.37549
 11
1.91353
 21
-4.29694
  0
LINE
  8
0
 10
1.91353
 20
-4.29694
 11
1.98711
 21
-4.21523
  0
LINE
  8
0
 10
1.98711
 20
-4.21523
 11
2.05719
 21
-4.13051
  0
LINE
  8
0
 10
2.05719
 20
-4.13051
 11
2.12366
 21
-4.04292
  0
LINE
  8
0
 10
2.12366
 20
-4.04292
 11
2.18642
 21
-3.95265
  0
LINE
  8
0
 10
2.18642
 20
-3.95265
 11
2.24533
 21
-3.85982
  0
LINE
  8
0
 10
2.24533
 20
-3.85982
 11
2.30029
 21
-3.7646
  0
LINE
  8
0
 10
2.30029
 20
-3.7646
 11
2.35124
 21
-3.66716
  0
LINE
  8
0
 10
2.35124
 20
-3.66716
 11
2.39806
 21
-3.56767
  0
LINE
  8
0
 10
2.39806
 20
-3.56767
 11
2.44066
 21
-3.46632
  0
LINE
  8
0
 10
2.44066
 20
-3.46632
 11
2.47897
 21
-3.36327
  0
LINE
  8
0
 10
2.47897
 20
-3.36327
 11
2.51295
 21
-3.2587
  0
LINE
  8
0
 10
2.51295
 20
-3.2587
 11
2.54253
 21
-3.1528
  0
LINE
  8
0
 10
2.54253
 20
-3.1528
 11
2.56763
 21
-3.04576
  0
LINE
  8
0
 10
2.56763
 20
-3.04576
 11
2.58823
 21
-2.93776
  0
LINE
  8
0
 10
2.58823
 20
-2.93776
 11
2.60429
 21
-2.82899
  0
LINE
  8
0
 10
2.60429
 20
-2.82899
 11
2.61578
 21
-2.71965
  0
LINE
  8
0
 10
2.61578
 20
-2.71965
 11
2.6227
 21
-2.60991
  0
LINE
  8
0
 10
2.6227
 20
-2.60991
 11
2.625
 21
-2.5
  0
LINE
  8
0
 10
2.625
 20
-2.5
 11
2.625
 21
0.399994
  0
LINE
  8
0
 10
2.625
 20
0.399994
 11
-2.625
 21
0.399994
  0
LINE
  8
0
 10
-2.625
 20
0.399994
 11
-2.625
 21
-2.5
  0
LINE
  8
0
 10
-2.625
 20
-2.5
 11
-2.6227
 21
-2.60991
  0
LINE
  8
0
 10
-2.6227
 20
-2.60991
 11
-2.61578
 21
-2.71965
  0
LINE
  8
0
 10
-2.61578
 20
-2.71965
 11
-2.60429
 21
-2.82899
  0
LINE
  8
0
 10
-2.60429
 20
-2.82899
 11
-2.58823
 21
-2.93776
  0
LINE
  8
0
 10
-2.58823
 20
-2.93776
 11
-2.56763
 21
-3.04576
  0
LINE
  8
0
 10
-2.56763
 20
-3.04576
 11
-2.54253
 21
-3.1528
  0
LINE
  8
0
 10
-2.54253
 20
-3.1528
 11
-2.51295
 21
-3.2587
  0
LINE
  8
0
 10
-2.51295
 20
-3.2587
 11
-2.47897
 21
-3.36327
  0
LINE
  8
0
 10
-2.47897
 20
-3.36327
 11
-2.44066
 21
-3.46632
  0
LINE
  8
0
 10
-2.44066
 20
-3.46632
 11
-2.39806
 21
-3.56767
  0
LINE
  8
0
 10
-2.39806
 20
-3.56767
 11
-2.35124
 21
-3.66716
  0
LINE
  8
0
 10
-2.35124
 20
-3.66716
 11
-2.30029
 21
-3.7646
  0
LINE
  8
0
 10
-2.30029
 20
-3.7646
 11
-2.24533
 21
-3.85982
  0
LINE
  8
0
 10
-2.24533
 20
-3.85982
 11
-2.18642
 21
-3.95265
  0
LINE
  8
0
 10
-2.18642
 20
-3.95265
 11
-2.12366
 21
-4.04292
  0
LINE
  8
0
 10
-2.12366
 20
-4.04292
 11
-2.05719
 21
-4.13051
  0
LINE
  8
0
 10
-2.05719
 20
-4.13051
 11
-1.98711
 21
-4.21523
  0
LINE
  8
0
 10
-1.98711
 20
-4.21523
 11
-1.91353
 21
-4.29694
  0
LINE
  8
0
 10
-1.91353
 20
-4.29694
 11
-1.83661
 21
-4.37549
  0
LINE
  8
0
 10
-1.83661
 20
-4.37549
 11
-1.75645
 21
-4.45074
  0
LINE
  8
0
 10
-1.75645
 20
-4.45074
 11
-1.67323
 21
-4.52258
  0
LINE
  8
0
 10
-1.67323
 20
-4.52258
 11
-1.58707
 21
-4.59088
  0
LINE
  8
0
 10
-1.58707
 20
-4.59088
 11
-1.49811
 21
-4.6555
  0
LINE
  8
0
 10
-1.49811
 20
-4.6555
 11
-1.40654
 21
-4.71635
  0
LINE
  8
0
 10
-1.40654
 20
-4.71635
 11
-1.3125
 21
-4.77332
  0
LINE
  8
0
 10
-1.3125
 20
-4.77332
 11
-1.21614
 21
-4.82628
  0
LINE
  8
0
 10
-1.21614
 20
-4.82628
 11
-0.231644
 21
-5.3181
  0
LINE
  8
0
 10
-0.231644
 20
-5.3181
 11
-0.212875
 21
-5.32741
  0
LINE
  8
0
 10
-0.212875
 20
-5.32741
 11
-0.193756
 21
-5.33592
  0
LINE
  8
0
 10
-0.193756
 20
-5.33592
 11
-0.174286
 21
-5.34363
  0
LINE
  8
0
 10
-0.174286
 20
-5.34363
 11
-0.154495
 21
-5.35052
  0
LINE
  8
0
 10
-0.154495
 20
-5.35052
 11
-0.134445
 21
-5.35657
  0
LINE
  8
0
 10
-0.134445
 20
-5.35657
 11
-0.114166
 21
-5.36179
  0
LINE
  8
0
 10
-0.114166
 20
-5.36179
 11
-0.093689
 21
-5.36613
  0
LINE
  8
0
 10
-0.093689
 20
-5.36613
 11
-0.0730286
 21
-5.36963
  0
LINE
  8
0
 10
-0.0730286
 20
-5.36963
 11
-0.0522614
 21
-5.37225
  0
LINE
  8
0
 10
-0.0522614
 20
-5.37225
 11
-0.0313873
 21
-5.37401
  0
LINE
  8
0
 10
-0.0313873
 20
-5.37401
 11
-0.0104675
 21
-5.37488
  0
LINE
  8
0
 10
-0.0104675
 20
-5.37488
 11
0.0104675
 21
-5.37488
  0
LINE
  8
0
 10
0.0104675
 20
-5.37488
 11
0.0313873
 21
-5.37401
  0
LINE
  8
0
 10
-2.47089
 20
-0.395584
 11
-2.47426
 21
-0.395386
  0
LINE
  8
0
 10
-2.47426
 20
-0.395386
 11
-2.47763
 21
-0.39502
  0
LINE
  8
0
 10
-2.47763
 20
-0.39502
 11
-2.48097
 21
-0.394531
  0
LINE
  8
0
 10
-2.48097
 20
-0.394531
 11
-2.4843
 21
-0.393906
  0
LINE
  8
0
 10
-2.4843
 20
-0.393906
 11
-2.48758
 21
-0.393127
  0
LINE
  8
0
 10
-2.48758
 20
-0.393127
 11
-2.49084
 21
-0.392212
  0
LINE
  8
0
 10
-2.49084
 20
-0.392212
 11
-2.49405
 21
-0.391174
  0
LINE
  8
0
 10
-2.49405
 20
-0.391174
 11
-2.49722
 21
-0.389999
  0
LINE
  8
0
 10
-2.49722
 20
-0.389999
 11
-2.50034
 21
-0.388687
  0
LINE
  8
0
 10
-2.50034
 20
-0.388687
 11
-2.5034
 21
-0.387238
  0
LINE
  8
0
 10
-2.5034
 20
-0.387238
 11
-2.50639
 21
-0.385681
  0
LINE
  8
0
 10
-2.50639
 20
-0.385681
 11
-2.50932
 21
-0.383987
  0
LINE
  8
0
 10
-2.50932
 20
-0.383987
 11
-2.51218
 21
-0.382172
  0
LINE
  8
0
 10
-2.51218
 20
-0.382172
 11
-2.51495
 21
-0.380249
  0
LINE
  8
0
 10
-2.51495
 20
-0.380249
 11
-2.51764
 21
-0.378204
  0
LINE
  8
0
 10
-2.51764
 20
-0.378204
 11
-2.52025
 21
-0.376053
  0
LINE
  8
0
 10
-2.52025
 20
-0.376053
 11
-2.52277
 21
-0.373795
  0
LINE
  8
0
 10
-2.52277
 20
-0.373795
 11
-2.52518
 21
-0.371429
  0
LINE
  8
0
 10
-2.52518
 20
-0.371429
 11
-2.5275
 21
-0.368958
  0
LINE
  8
0
 10
-2.5275
 20
-0.368958
 11
-2.52969
 21
-0.366394
  0
LINE
  8
0
 10
-2.52969
 20
-0.366394
 11
-2.5318
 21
-0.363754
  0
LINE
  8
0
 10
-2.5318
 20
-0.363754
 11
-2.53378
 21
-0.361008
  0
LINE
  8
0
 10
-2.53378
 20
-0.361008
 11
-2.53566
 21
-0.3582
  0
LINE
  8
0
 10
-2.53566
 20
-0.3582
 11
-2.53741
 21
-0.355301
  0
LINE
  8
0
 10
-2.53741
 20
-0.355301
 11
-2.53903
 21
-0.352341
  0
LINE
  8
0
 10
-2.53903
 20
-0.352341
 11
-2.54054
 21
-0.349319
  0
LINE
  8
0
 10
-2.54054
 20
-0.349319
 11
-2.54192
 21
-0.346222
  0
LINE
  8
0
 10
-2.54192
 20
-0.346222
 11
-2.54315
 21
-0.343079
  0
LINE
  8
0
 10
-2.54315
 20
-0.343079
 11
-2.54427
 21
-0.33989
  0
LINE
  8
0
 10
-2.54427
 20
-0.33989
 11
-2.54524
 21
-0.336655
  0
LINE
  8
0
 10
-2.54524
 20
-0.336655
 11
-2.54608
 21
-0.333389
  0
LINE
  8
0
 10
-2.54608
 20
-0.333389
 11
-2.5468
 21
-0.330078
  0
LINE
  8
0
 10
-2.5468
 20
-0.330078
 11
-2.54735
 21
-0.326736
  0
LINE
  8
0
 10
-2.54735
 20
-0.326736
 11
-2.54778
 21
-0.323395
  0
LINE
  8
0
 10
-2.54778
 20
-0.323395
 11
-2.54807
 21
-0.320023
  0
LINE
  8
0
 10
-2.54807
 20
-0.320023
 11
-2.5482
 21
-0.31665
  0
LINE
  8
0
 10
-2.5482
 20
-0.31665
 11
-2.5482
 21
-0.313263
  0
LINE
  8
0
 10
-2.5482
 20
-0.313263
 11
-2.54807
 21
-0.309891
  0
LINE
  8
0
 10
-2.54807
 20
-0.309891
 11
-2.54778
 21
-0.306519
  0
LINE
  8
0
 10
-2.54778
 20
-0.306519
 11
-2.54735
 21
-0.303162
  0
LINE
  8
0
 10
-2.54735
 20
-0.303162
 11
-2.5468
 21
-0.299835
  0
LINE
  8
0
 10
-2.5468
 20
-0.299835
 11
-2.54608
 21
-0.296524
  0
LINE
  8
0
 10
-2.54608
 20
-0.296524
 11
-2.54524
 21
-0.293243
  0
LINE
  8
0
 10
-2.54524
 20
-0.293243
 11
-2.54427
 21
-0.290009
  0
LINE
  8
0
 10
-2.54427
 20
-0.290009
 11
-2.54315
 21
-0.286819
  0
LINE
  8
0
 10
-2.54315
 20
-0.286819
 11
-2.54192
 21
-0.283676
  0
LINE
  8
0
 10
-2.54192
 20
-0.283676
 11
-2.54054
 21
-0.280594
  0
LINE
  8
0
 10
-2.54054
 20
-0.280594
 11
-2.53903
 21
-0.277557
  0
LINE
  8
0
 10
-2.53903
 20
-0.277557
 11
-2.53741
 21
-0.274597
  0
LINE
  8
0
 10
-2.53741
 20
-0.274597
 11
-2.53566
 21
-0.271713
  0
LINE
  8
0
 10
-2.53566
 20
-0.271713
 11
-2.53378
 21
-0.26889
  0
LINE
  8
0
 10
-2.53378
 20
-0.26889
 11
-2.5318
 21
-0.266159
  0
LINE
  8
0
 10
-2.5318
 20
-0.266159
 11
-2.52969
 21
-0.263504
  0
LINE
  8
0
 10
-2.52969
 20
-0.263504
 11
-2.5275
 21
-0.260956
  0
LINE
  8
0
 10
-2.5275
 20
-0.260956
 11
-2.52518
 21
-0.258484
  0
LINE
  8
0
 10
-2.52518
 20
-0.258484
 11
-2.52277
 21
-0.256119
  0
LINE
  8
0
 10
-2.52277
 20
-0.256119
 11
-2.52025
 21
-0.25386
  0
LINE
  8
0
 10
-2.52025
 20
-0.25386
 11
-2.51764
 21
-0.251709
  0
LINE
  8
0
 10
-2.51764
 20
-0.251709
 11
-2.51495
 21
-0.249664
  0
LINE
  8
0
 10
-2.51495
 20
-0.249664
 11
-2.51218
 21
-0.247726
  0
LINE
  8
0
 10
-2.51218
 20
-0.247726
 11
-2.50932
 21
-0.245926
  0
LINE
  8
0
 10
-2.50932
 20
-0.245926
 11
-2.50639
 21
-0.244232
  0
LINE
  8
0
 10
-2.50639
 20
-0.244232
 11
-2.5034
 21
-0.242661
  0
LINE
  8
0
 10
-2.5034
 20
-0.242661
 11
-2.50034
 21
-0.241226
  0
LINE
  8
0
 10
-2.50034
 20
-0.241226
 11
-2.49722
 21
-0.239914
  0
LINE
  8
0
 10
-2.49722
 20
-0.239914
 11
-2.49405
 21
-0.238739
  0
LINE
  8
0
 10
-2.49405
 20
-0.238739
 11
-2.49084
 21
-0.237686
  0
LINE
  8
0
 10
-2.49084
 20
-0.237686
 11
-2.48758
 21
-0.236786
  0
LINE
  8
0
 10
-2.48758
 20
-0.236786
 11
-2.4843
 21
-0.236008
  0
LINE
  8
0
 10
-2.4843
 20
-0.236008
 11
-2.48097
 21
-0.235382
  0
LINE
  8
0
 10
-2.48097
 20
-0.235382
 11
-2.47763
 21
-0.234879
  0
LINE
  8
0
 10
-2.47763
 20
-0.234879
 11
-2.47426
 21
-0.234528
  0
LINE
  8
0
 10
-2.47426
 20
-0.234528
 11
-2.47089
 21
-0.234314
  0
LINE
  8
0
 10
-2.47089
 20
-0.234314
 11
-2.46751
 21
-0.234238
  0
LINE
  8
0
 10
-2.46751
 20
-0.234238
 11
-2.46413
 21
-0.234314
  0
LINE
  8
0
 10
-2.46413
 20
-0.234314
 11
-2.46075
 21
-0.234528
  0
LINE
  8
0
 10
-2.46075
 20
-0.234528
 11
-2.4574
 21
-0.234879
  0
LINE
  8
0
 10
-2.4574
 20
-0.234879
 11
-2.45406
 21
-0.235382
  0
LINE
  8
0
 10
-2.45406
 20
-0.235382
 11
-2.45073
 21
-0.236008
  0
LINE
  8
0
 10
-2.45073
 20
-0.236008
 11
-2.44745
 21
-0.236786
  0
LINE
  8
0
 10
-2.44745
 20
-0.236786
 11
-2.44418
 21
-0.237686
  0
LINE
  8
0
 10
-2.44418
 20
-0.237686
 11
-2.44096
 21
-0.238739
  0
LINE
  8
0
 10
-2.44096
 20
-0.238739
 11
-2.43781
 21
-0.239914
  0
LINE
  8
0
 10
-2.43781
 20
-0.239914
 11
-2.43469
 21
-0.241226
  0
LINE
  8
0
 10
-2.43469
 20
-0.241226
 11
-2.43163
 21
-0.242661
  0
LINE
  8
0
 10
-2.43163
 20
-0.242661
 11
-2.42863
 21
-0.244232
  0
LINE
  8
0
 10
-2.42863
 20
-0.244232
 11
-2.4257
 21
-0.245926
  0
LINE
  8
0
 10
-2.4257
 20
-0.245926
 11
-2.42285
 21
-0.247726
  0
LINE
  8
0
 10
-2.42285
 20
-0.247726
 11
-2.42007
 21
-0.249664
  0
LINE
  8
0
 10
-2.42007
 20
-0.249664
 11
-2.41737
 21
-0.251709
  0
LINE
  8
0
 10
-2.41737
 20
-0.251709
 11
-2.41478
 21
-0.25386
  0
LINE
  8
0
 10
-2.41478
 20
-0.25386
 11
-2.41226
 21
-0.256119
  0
LINE
  8
0
 10
-2.41226
 20
-0.256119
 11
-2.40985
 21
-0.258484
  0
LINE
  8
0
 10
-2.40985
 20
-0.258484
 11
-2.40753
 21
-0.260956
  0
LINE
  8
0
 10
-2.40753
 20
-0.260956
 11
-2.40532
 21
-0.263504
  0
LINE
  8
0
 10
-2.40532
 20
-0.263504
 11
-2.40323
 21
-0.266159
  0
LINE
  8
0
 10
-2.40323
 20
-0.266159
 11
-2.40125
 21
-0.26889
  0
LINE
  8
0
 10
-2.40125
 20
-0.26889
 11
-2.39937
 21
-0.271713
  0
LINE
  8
0
 10
-2.39937
 20
-0.271713
 11
-2.39761
 21
-0.274597
  0
LINE
  8
0
 10
-2.39761
 20
-0.274597
 11
-2.396
 21
-0.277557
  0
LINE
  8
0
 10
-2.396
 20
-0.277557
 11
-2.39449
 21
-0.280594
  0
LINE
  8
0
 10
-2.39449
 20
-0.280594
 11
-2.39311
 21
-0.283676
  0
LINE
  8
0
 10
-2.39311
 20
-0.283676
 11
-2.39186
 21
-0.286819
  0
LINE
  8
0
 10
-2.39186
 20
-0.286819
 11
-2.39075
 21
-0.290009
  0
LINE
  8
0
 10
-2.39075
 20
-0.290009
 11
-2.38977
 21
-0.293243
  0
LINE
  8
0
 10
-2.38977
 20
-0.293243
 11
-2.38893
 21
-0.296524
  0
LINE
  8
0
 10
-2.38893
 20
-0.296524
 11
-2.38823
 21
-0.299835
  0
LINE
  8
0
 10
-2.38823
 20
-0.299835
 11
-2.38766
 21
-0.303162
  0
LINE
  8
0
 10
-2.38766
 20
-0.303162
 11
-2.38725
 21
-0.306519
  0
LINE
  8
0
 10
-2.38725
 20
-0.306519
 11
-2.38696
 21
-0.309891
  0
LINE
  8
0
 10
-2.38696
 20
-0.309891
 11
-2.38683
 21
-0.313263
  0
LINE
  8
0
 10
-2.38683
 20
-0.313263
 11
-2.38683
 21
-0.31665
  0
LINE
  8
0
 10
-2.38683
 20
-0.31665
 11
-2.38696
 21
-0.320023
  0
LINE
  8
0
 10
-2.38696
 20
-0.320023
 11
-2.38725
 21
-0.323395
  0
LINE
  8
0
 10
-2.38725
 20
-0.323395
 11
-2.38766
 21
-0.326736
  0
LINE
  8
0
 10
-2.38766
 20
-0.326736
 11
-2.38823
 21
-0.330078
  0
LINE
  8
0
 10
-2.38823
 20
-0.330078
 11
-2.38893
 21
-0.333389
  0
LINE
  8
0
 10
-2.38893
 20
-0.333389
 11
-2.38977
 21
-0.336655
  0
LINE
  8
0
 10
-2.38977
 20
-0.336655
 11
-2.39075
 21
-0.33989
  0
LINE
  8
0
 10
-2.39075
 20
-0.33989
 11
-2.39186
 21
-0.343079
  0
LINE
  8
0
 10
-2.39186
 20
-0.343079
 11
-2.39311
 21
-0.346222
  0
LINE
  8
0
 10
-2.39311
 20
-0.346222
 11
-2.39449
 21
-0.349319
  0
LINE
  8
0
 10
-2.39449
 20
-0.349319
 11
-2.396
 21
-0.352341
  0
LINE
  8
0
 10
-2.396
 20
-0.352341
 11
-2.39761
 21
-0.355301
  0
LINE
  8
0
 10
-2.39761
 20
-0.355301
 11
-2.39937
 21
-0.3582
  0
LINE
  8
0
 10
-2.39937
 20
-0.3582
 11
-2.40125
 21
-0.361008
  0
LINE
  8
0
 10
-2.40125
 20
-0.361008
 11
-2.40323
 21
-0.363754
  0
LINE
  8
0
 10
-2.40323
 20
-0.363754
 11
-2.40532
 21
-0.366394
  0
LINE
  8
0
 10
-2.40532
 20
-0.366394
 11
-2.40753
 21
-0.368958
  0
LINE
  8
0
 10
-2.40753
 20
-0.368958
 11
-2.40985
 21
-0.371429
  0
LINE
  8
0
 10
-2.40985
 20
-0.371429
 11
-2.41226
 21
-0.373795
  0
LINE
  8
0
 10
-2.41226
 20
-0.373795
 11
-2.41478
 21
-0.376053
  0
LINE
  8
0
 10
-2.41478
 20
-0.376053
 11
-2.41737
 21
-0.378204
  0
LINE
  8
0
 10
-2.41737
 20
-0.378204
 11
-2.42007
 21
-0.380249
  0
LINE
  8
0
 10
-2.42007
 20
-0.380249
 11
-2.42285
 21
-0.382172
  0
LINE
  8
0
 10
-2.42285
 20
-0.382172
 11
-2.4257
 21
-0.383987
  0
LINE
  8
0
 10
-2.4257
 20
-0.383987
 11
-2.42863
 21
-0.385681
  0
LINE
  8
0
 10
-2.42863
 20
-0.385681
 11
-2.43163
 21
-0.387238
  0
LINE
  8
0
 10
-2.43163
 20
-0.387238
 11
-2.43469
 21
-0.388687
  0
LINE
  8
0
 10
-2.43469
 20
-0.388687
 11
-2.43781
 21
-0.389999
  0
LINE
  8
0
 10
-2.43781
 20
-0.389999
 11
-2.44096
 21
-0.391174
  0
LINE
  8
0
 10
-2.44096
 20
-0.391174
 11
-2.44418
 21
-0.392212
  0
LINE
  8
0
 10
-2.44418
 20
-0.392212
 11
-2.44745
 21
-0.393127
  0
LINE
  8
0
 10
-2.44745
 20
-0.393127
 11
-2.45073
 21
-0.393906
  0
LINE
  8
0
 10
-2.45073
 20
-0.393906
 11
-2.45406
 21
-0.394531
  0
LINE
  8
0
 10
-2.45406
 20
-0.394531
 11
-2.4574
 21
-0.39502
  0
LINE
  8
0
 10
-2.4574
 20
-0.39502
 11
-2.46075
 21
-0.395386
  0
LINE
  8
0
 10
-2.46075
 20
-0.395386
 11
-2.46413
 21
-0.395584
  0
LINE
  8
0
 10
-2.46413
 20
-0.395584
 11
-2.46751
 21
-0.39566
  0
LINE
  8
0
 10
-2.46751
 20
-0.39566
 11
-2.47089
 21
-0.395584
  0
LINE
  8
0
 10
2.46413
 20
-0.395584
 11
2.46075
 21
-0.395386
  0
LINE
  8
0
 10
2.46075
 20
-0.395386
 11
2.4574
 21
-0.39502
  0
LINE
  8
0
 10
2.4574
 20
-0.39502
 11
2.45406
 21
-0.394531
  0
LINE
  8
0
 10
2.45406
 20
-0.394531
 11
2.45073
 21
-0.393906
  0
LINE
  8
0
 10
2.45073
 20
-0.393906
 11
2.44745
 21
-0.393127
  0
LINE
  8
0
 10
2.44745
 20
-0.393127
 11
2.44418
 21
-0.392212
  0
LINE
  8
0
 10
2.44418
 20
-0.392212
 11
2.44096
 21
-0.391174
  0
LINE
  8
0
 10
2.44096
 20
-0.391174
 11
2.43781
 21
-0.389999
  0
LINE
  8
0
 10
2.43781
 20
-0.389999
 11
2.43469
 21
-0.388687
  0
LINE
  8
0
 10
2.43469
 20
-0.388687
 11
2.43163
 21
-0.387238
  0
LINE
  8
0
 10
2.43163
 20
-0.387238
 11
2.42863
 21
-0.385681
  0
LINE
  8
0
 10
2.42863
 20
-0.385681
 11
2.4257
 21
-0.383987
  0
LINE
  8
0
 10
2.4257
 20
-0.383987
 11
2.42285
 21
-0.382172
  0
LINE
  8
0
 10
2.42285
 20
-0.382172
 11
2.42007
 21
-0.380249
  0
LINE
  8
0
 10
2.42007
 20
-0.380249
 11
2.41737
 21
-0.378204
  0
LINE
  8
0
 10
2.41737
 20
-0.378204
 11
2.41478
 21
-0.376053
  0
LINE
  8
0
 10
2.41478
 20
-0.376053
 11
2.41226
 21
-0.373795
  0
LINE
  8
0
 10
2.41226
 20
-0.373795
 11
2.40985
 21
-0.371429
  0
LINE
  8
0
 10
2.40985
 20
-0.371429
 11
2.40753
 21
-0.368958
  0
LINE
  8
0
 10
2.40753
 20
-0.368958
 11
2.40532
 21
-0.366394
  0
LINE
  8
0
 10
2.40532
 20
-0.366394
 11
2.40323
 21
-0.363754
  0
LINE
  8
0
 10
2.40323
 20
-0.363754
 11
2.40125
 21
-0.361008
  0
LINE
  8
0
 10
2.40125
 20
-0.361008
 11
2.39937
 21
-0.3582
  0
LINE
  8
0
 10
2.39937
 20
-0.3582
 11
2.39761
 21
-0.355301
  0
LINE
  8
0
 10
2.39761
 20
-0.355301
 11
2.396
 21
-0.352341
  0
LINE
  8
0
 10
2.396
 20
-0.352341
 11
2.39449
 21
-0.349319
  0
LINE
  8
0
 10
2.39449
 20
-0.349319
 11
2.39311
 21
-0.346222
  0
LINE
  8
0
 10
2.39311
 20
-0.346222
 11
2.39186
 21
-0.343079
  0
LINE
  8
0
 10
2.39186
 20
-0.343079
 11
2.39075
 21
-0.33989
  0
LINE
  8
0
 10
2.39075
 20
-0.33989
 11
2.38977
 21
-0.336655
  0
LINE
  8
0
 10
2.38977
 20
-0.336655
 11
2.38893
 21
-0.333389
  0
LINE
  8
0
 10
2.38893
 20
-0.333389
 11
2.38823
 21
-0.330078
  0
LINE
  8
0
 10
2.38823
 20
-0.330078
 11
2.38766
 21
-0.326736
  0
LINE
  8
0
 10
2.38766
 20
-0.326736
 11
2.38725
 21
-0.323395
  0
LINE
  8
0
 10
2.38725
 20
-0.323395
 11
2.38696
 21
-0.320023
  0
LINE
  8
0
 10
2.38696
 20
-0.320023
 11
2.38683
 21
-0.31665
  0
LINE
  8
0
 10
2.38683
 20
-0.31665
 11
2.38683
 21
-0.313263
  0
LINE
  8
0
 10
2.38683
 20
-0.313263
 11
2.38696
 21
-0.309891
  0
LINE
  8
0
 10
2.38696
 20
-0.309891
 11
2.38725
 21
-0.306519
  0
LINE
  8
0
 10
2.38725
 20
-0.306519
 11
2.38766
 21
-0.303162
  0
LINE
  8
0
 10
2.38766
 20
-0.303162
 11
2.38823
 21
-0.299835
  0
LINE
  8
0
 10
2.38823
 20
-0.299835
 11
2.38893
 21
-0.296524
  0
LINE
  8
0
 10
2.38893
 20
-0.296524
 11
2.38977
 21
-0.293243
  0
LINE
  8
0
 10
2.38977
 20
-0.293243
 11
2.39075
 21
-0.290009
  0
LINE
  8
0
 10
2.39075
 20
-0.290009
 11
2.39186
 21
-0.286819
  0
LINE
  8
0
 10
2.39186
 20
-0.286819
 11
2.39311
 21
-0.283676
  0
LINE
  8
0
 10
2.39311
 20
-0.283676
 11
2.39449
 21
-0.280594
  0
LINE
  8
0
 10
2.39449
 20
-0.280594
 11
2.396
 21
-0.277557
  0
LINE
  8
0
 10
2.396
 20
-0.277557
 11
2.39761
 21
-0.274597
  0
LINE
  8
0
 10
2.39761
 20
-0.274597
 11
2.39937
 21
-0.271713
  0
LINE
  8
0
 10
2.39937
 20
-0.271713
 11
2.40125
 21
-0.26889
  0
LINE
  8
0
 10
2.40125
 20
-0.26889
 11
2.40323
 21
-0.266159
  0
LINE
  8
0
 10
2.40323
 20
-0.266159
 11
2.40532
 21
-0.263504
  0
LINE
  8
0
 10
2.40532
 20
-0.263504
 11
2.40753
 21
-0.260956
  0
LINE
  8
0
 10
2.40753
 20
-0.260956
 11
2.40985
 21
-0.258484
  0
LINE
  8
0
 10
2.40985
 20
-0.258484
 11
2.41226
 21
-0.256119
  0
LINE
  8
0
 10
2.41226
 20
-0.256119
 11
2.41478
 21
-0.25386
  0
LINE
  8
0
 10
2.41478
 20
-0.25386
 11
2.41737
 21
-0.251709
  0
LINE
  8
0
 10
2.41737
 20
-0.251709
 11
2.42007
 21
-0.249664
  0
LINE
  8
0
 10
2.42007
 20
-0.249664
 11
2.42285
 21
-0.247726
  0
LINE
  8
0
 10
2.42285
 20
-0.247726
 11
2.4257
 21
-0.245926
  0
LINE
  8
0
 10
2.4257
 20
-0.245926
 11
2.42863
 21
-0.244232
  0
LINE
  8
0
 10
2.42863
 20
-0.244232
 11
2.43163
 21
-0.242661
  0
LINE
  8
0
 10
2.43163
 20
-0.242661
 11
2.43469
 21
-0.241226
  0
LINE
  8
0
 10
2.43469
 20
-0.241226
 11
2.43781
 21
-0.239914
  0
LINE
  8
0
 10
2.43781
 20
-0.239914
 11
2.44096
 21
-0.238739
  0
LINE
  8
0
 10
2.44096
 20
-0.238739
 11
2.44418
 21
-0.237686
  0
LINE
  8
0
 10
2.44418
 20
-0.237686
 11
2.44745
 21
-0.236786
  0
LINE
  8
0
 10
2.44745
 20
-0.236786
 11
2.45073
 21
-0.236008
  0
LINE
  8
0
 10
2.45073
 20
-0.236008
 11
2.45406
 21
-0.235382
  0
LINE
  8
0
 10
2.45406
 20
-0.235382
 11
2.4574
 21
-0.234879
  0
LINE
  8
0
 10
2.4574
 20
-0.234879
 11
2.46075
 21
-0.234528
  0
LINE
  8
0
 10
2.46075
 20
-0.234528
 11
2.46413
 21
-0.234314
  0
LINE
  8
0
 10
2.46413
 20
-0.234314
 11
2.46751
 21
-0.234238
  0
LINE
  8
0
 10
2.46751
 20
-0.234238
 11
2.47089
 21
-0.234314
  0
LINE
  8
0
 10
2.47089
 20
-0.234314
 11
2.47426
 21
-0.234528
  0
LINE
  8
0
 10
2.47426
 20
-0.234528
 11
2.47763
 21
-0.234879
  0
LINE
  8
0
 10
2.47763
 20
-0.234879
 11
2.48097
 21
-0.235382
  0
LINE
  8
0
 10
2.48097
 20
-0.235382
 11
2.4843
 21
-0.236008
  0
LINE
  8
0
 10
2.4843
 20
-0.236008
 11
2.48758
 21
-0.236786
  0
LINE
  8
0
 10
2.48758
 20
-0.236786
 11
2.49084
 21
-0.237686
  0
LINE
  8
0
 10
2.49084
 20
-0.237686
 11
2.49405
 21
-0.238739
  0
LINE
  8
0
 10
2.49405
 20
-0.238739
 11
2.49722
 21
-0.239914
  0
LINE
  8
0
 10
2.49722
 20
-0.239914
 11
2.50034
 21
-0.241226
  0
LINE
  8
0
 10
2.50034
 20
-0.241226
 11
2.5034
 21
-0.242661
  0
LINE
  8
0
 10
2.5034
 20
-0.242661
 11
2.50639
 21
-0.244232
  0
LINE
  8
0
 10
2.50639
 20
-0.244232
 11
2.50932
 21
-0.245926
  0
LINE
  8
0
 10
2.50932
 20
-0.245926
 11
2.51218
 21
-0.247726
  0
LINE
  8
0
 10
2.51218
 20
-0.247726
 11
2.51495
 21
-0.249664
  0
LINE
  8
0
 10
2.51495
 20
-0.249664
 11
2.51764
 21
-0.251709
  0
LINE
  8
0
 10
2.51764
 20
-0.251709
 11
2.52025
 21
-0.25386
  0
LINE
  8
0
 10
2.52025
 20
-0.25386
 11
2.52277
 21
-0.256119
  0
LINE
  8
0
 10
2.52277
 20
-0.256119
 11
2.52518
 21
-0.258484
  0
LINE
  8
0
 10
2.52518
 20
-0.258484
 11
2.5275
 21
-0.260956
  0
LINE
  8
0
 10
2.5275
 20
-0.260956
 11
2.52969
 21
-0.263504
  0
LINE
  8
0
 10
2.52969
 20
-0.263504
 11
2.5318
 21
-0.266159
  0
LINE
  8
0
 10
2.5318
 20
-0.266159
 11
2.53378
 21
-0.26889
  0
LINE
  8
0
 10
2.53378
 20
-0.26889
 11
2.53566
 21
-0.271713
  0
LINE
  8
0
 10
2.53566
 20
-0.271713
 11
2.53741
 21
-0.274597
  0
LINE
  8
0
 10
2.53741
 20
-0.274597
 11
2.53903
 21
-0.277557
  0
LINE
  8
0
 10
2.53903
 20
-0.277557
 11
2.54054
 21
-0.280594
  0
LINE
  8
0
 10
2.54054
 20
-0.280594
 11
2.54192
 21
-0.283676
  0
LINE
  8
0
 10
2.54192
 20
-0.283676
 11
2.54315
 21
-0.286819
  0
LINE
  8
0
 10
2.54315
 20
-0.286819
 11
2.54427
 21
-0.290009
  0
LINE
  8
0
 10
2.54427
 20
-0.290009
 11
2.54524
 21
-0.293243
  0
LINE
  8
0
 10
2.54524
 20
-0.293243
 11
2.54608
 21
-0.296524
  0
LINE
  8
0
 10
2.54608
 20
-0.296524
 11
2.5468
 21
-0.299835
  0
LINE
  8
0
 10
2.5468
 20
-0.299835
 11
2.54735
 21
-0.303162
  0
LINE
  8
0
 10
2.54735
 20
-0.303162
 11
2.54778
 21
-0.306519
  0
LINE
  8
0
 10
2.54778
 20
-0.306519
 11
2.54807
 21
-0.309891
  0
LINE
  8
0
 10
2.54807
 20
-0.309891
 11
2.5482
 21
-0.313263
  0
LINE
  8
0
 10
2.5482
 20
-0.313263
 11
2.5482
 21
-0.31665
  0
LINE
  8
0
 10
2.5482
 20
-0.31665
 11
2.54807
 21
-0.320023
  0
LINE
  8
0
 10
2.54807
 20
-0.320023
 11
2.54778
 21
-0.323395
  0
LINE
  8
0
 10
2.54778
 20
-0.323395
 11
2.54735
 21
-0.326736
  0
LINE
  8
0
 10
2.54735
 20
-0.326736
 11
2.5468
 21
-0.330078
  0
LINE
  8
0
 10
2.5468
 20
-0.330078
 11
2.54608
 21
-0.333389
  0
LINE
  8
0
 10
2.54608
 20
-0.333389
 11
2.54524
 21
-0.336655
  0
LINE
  8
0
 10
2.54524
 20
-0.336655
 11
2.54427
 21
-0.33989
  0
LINE
  8
0
 10
2.54427
 20
-0.33989
 11
2.54315
 21
-0.343079
  0
LINE
  8
0
 10
2.54315
 20
-0.343079
 11
2.54192
 21
-0.346222
  0
LINE
  8
0
 10
2.54192
 20
-0.346222
 11
2.54054
 21
-0.349319
  0
LINE
  8
0
 10
2.54054
 20
-0.349319
 11
2.53903
 21
-0.352341
  0
LINE
  8
0
 10
2.53903
 20
-0.352341
 11
2.53741
 21
-0.355301
  0
LINE
  8
0
 10
2.53741
 20
-0.355301
 11
2.53566
 21
-0.3582
  0
LINE
  8
0
 10
2.53566
 20
-0.3582
 11
2.53378
 21
-0.361008
  0
LINE
  8
0
 10
2.53378
 20
-0.361008
 11
2.5318
 21
-0.363754
  0
LINE
  8
0
 10
2.5318
 20
-0.363754
 11
2.52969
 21
-0.366394
  0
LINE
  8
0
 10
2.52969
 20
-0.366394
 11
2.5275
 21
-0.368958
  0
LINE
  8
0
 10
2.5275
 20
-0.368958
 11
2.52518
 21
-0.371429
  0
LINE
  8
0
 10
2.52518
 20
-0.371429
 11
2.52277
 21
-0.373795
  0
LINE
  8
0
 10
2.52277
 20
-0.373795
 11
2.52025
 21
-0.376053
  0
LINE
  8
0
 10
2.52025
 20
-0.376053
 11
2.51764
 21
-0.378204
  0
LINE
  8
0
 10
2.51764
 20
-0.378204
 11
2.51495
 21
-0.380249
  0
LINE
  8
0
 10
2.51495
 20
-0.380249
 11
2.51218
 21
-0.382172
  0
LINE
  8
0
 10
2.51218
 20
-0.382172
 11
2.50932
 21
-0.383987
  0
LINE
  8
0
 10
2.50932
 20
-0.383987
 11
2.50639
 21
-0.385681
  0
LINE
  8
0
 10
2.50639
 20
-0.385681
 11
2.5034
 21
-0.387238
  0
LINE
  8
0
 10
2.5034
 20
-0.387238
 11
2.50034
 21
-0.388687
  0
LINE
  8
0
 10
2.50034
 20
-0.388687
 11
2.49722
 21
-0.389999
  0
LINE
  8
0
 10
2.49722
 20
-0.389999
 11
2.49405
 21
-0.391174
  0
LINE
  8
0
 10
2.49405
 20
-0.391174
 11
2.49084
 21
-0.392212
  0
LINE
  8
0
 10
2.49084
 20
-0.392212
 11
2.48758
 21
-0.393127
  0
LINE
  8
0
 10
2.48758
 20
-0.393127
 11
2.4843
 21
-0.393906
  0
LINE
  8
0
 10
2.4843
 20
-0.393906
 11
2.48097
 21
-0.394531
  0
LINE
  8
0
 10
2.48097
 20
-0.394531
 11
2.47763
 21
-0.39502
  0
LINE
  8
0
 10
2.47763
 20
-0.39502
 11
2.47426
 21
-0.395386
  0
LINE
  8
0
 10
2.47426
 20
-0.395386
 11
2.47089
 21
-0.395584
  0
LINE
  8
0
 10
2.47089
 20
-0.395584
 11
2.46751
 21
-0.39566
  0
LINE
  8
0
 10
2.46751
 20
-0.39566
 11
2.46413
 21
-0.395584
  0
LINE
  8
0
 10
-0.00167847
 20
-0.624969
 11
-0.00506592
 21
-0.624832
  0
LINE
  8
0
 10
-0.00506592
 20
-0.624832
 11
-0.00842285
 21
-0.624557
  0
LINE
  8
0
 10
-0.00842285
 20
-0.624557
 11
-0.0117798
 21
-0.62413
  0
LINE
  8
0
 10
-0.0117798
 20
-0.62413
 11
-0.0151215
 21
-0.623566
  0
LINE
  8
0
 10
-0.0151215
 20
-0.623566
 11
-0.0184174
 21
-0.622864
  0
LINE
  8
0
 10
-0.0184174
 20
-0.622864
 11
-0.021698
 21
-0.622025
  0
LINE
  8
0
 10
-0.021698
 20
-0.622025
 11
-0.0249329
 21
-0.621048
  0
LINE
  8
0
 10
-0.0249329
 20
-0.621048
 11
-0.0281219
 21
-0.619934
  0
LINE
  8
0
 10
-0.0281219
 20
-0.619934
 11
-0.0312653
 21
-0.618683
  0
LINE
  8
0
 10
-0.0312653
 20
-0.618683
 11
-0.0343628
 21
-0.61731
  0
LINE
  8
0
 10
-0.0343628
 20
-0.61731
 11
-0.037384
 21
-0.615814
  0
LINE
  8
0
 10
-0.037384
 20
-0.615814
 11
-0.0403442
 21
-0.614182
  0
LINE
  8
0
 10
-0.0403442
 20
-0.614182
 11
-0.0432434
 21
-0.612427
  0
LINE
  8
0
 10
-0.0432434
 20
-0.612427
 11
-0.046051
 21
-0.610565
  0
LINE
  8
0
 10
-0.046051
 20
-0.610565
 11
-0.0487823
 21
-0.608566
  0
LINE
  8
0
 10
-0.0487823
 20
-0.608566
 11
-0.0514374
 21
-0.606476
  0
LINE
  8
0
 10
-0.0514374
 20
-0.606476
 11
-0.0540009
 21
-0.604263
  0
LINE
  8
0
 10
-0.0540009
 20
-0.604263
 11
-0.0564575
 21
-0.601944
  0
LINE
  8
0
 10
-0.0564575
 20
-0.601944
 11
-0.0588226
 21
-0.599533
  0
LINE
  8
0
 10
-0.0588226
 20
-0.599533
 11
-0.0610962
 21
-0.597015
  0
LINE
  8
0
 10
-0.0610962
 20
-0.597015
 11
-0.0632477
 21
-0.594421
  0
LINE
  8
0
 10
-0.0632477
 20
-0.594421
 11
-0.0652924
 21
-0.591721
  0
LINE
  8
0
 10
-0.0652924
 20
-0.591721
 11
-0.067215
 21
-0.588943
  0
LINE
  8
0
 10
-0.067215
 20
-0.588943
 11
-0.0690308
 21
-0.58609
  0
LINE
  8
0
 10
-0.0690308
 20
-0.58609
 11
-0.0707245
 21
-0.58316
  0
LINE
  8
0
 10
-0.0707245
 20
-0.58316
 11
-0.0722809
 21
-0.58017
  0
LINE
  8
0
 10
-0.0722809
 20
-0.58017
 11
-0.0737305
 21
-0.577118
  0
LINE
  8
0
 10
-0.0737305
 20
-0.577118
 11
-0.0750275
 21
-0.57399
  0
LINE
  8
0
 10
-0.0750275
 20
-0.57399
 11
-0.0762177
 21
-0.570831
  0
LINE
  8
0
 10
-0.0762177
 20
-0.570831
 11
-0.0772552
 21
-0.567612
  0
LINE
  8
0
 10
-0.0772552
 20
-0.567612
 11
-0.0781708
 21
-0.564362
  0
LINE
  8
0
 10
-0.0781708
 20
-0.564362
 11
-0.0789337
 21
-0.561066
  0
LINE
  8
0
 10
-0.0789337
 20
-0.561066
 11
-0.0795746
 21
-0.557739
  0
LINE
  8
0
 10
-0.0795746
 20
-0.557739
 11
-0.0800629
 21
-0.554398
  0
LINE
  8
0
 10
-0.0800629
 20
-0.554398
 11
-0.0804138
 21
-0.551041
  0
LINE
  8
0
 10
-0.0804138
 20
-0.551041
 11
-0.0806274
 21
-0.547668
  0
LINE
  8
0
 10
-0.0806274
 20
-0.547668
 11
-0.0807037
 21
-0.544281
  0
LINE
  8
0
 10
-0.0807037
 20
-0.544281
 11
-0.0806274
 21
-0.540909
  0
LINE
  8
0
 10
-0.0806274
 20
-0.540909
 11
-0.0804138
 21
-0.537537
  0
LINE
  8
0
 10
-0.0804138
 20
-0.537537
 11
-0.0800629
 21
-0.534164
  0
LINE
  8
0
 10
-0.0800629
 20
-0.534164
 11
-0.0795746
 21
-0.530823
  0
LINE
  8
0
 10
-0.0795746
 20
-0.530823
 11
-0.0789337
 21
-0.527496
  0
LINE
  8
0
 10
-0.0789337
 20
-0.527496
 11
-0.0781708
 21
-0.524216
  0
LINE
  8
0
 10
-0.0781708
 20
-0.524216
 11
-0.0772552
 21
-0.52095
  0
LINE
  8
0
 10
-0.0772552
 20
-0.52095
 11
-0.0762177
 21
-0.517746
  0
LINE
  8
0
 10
-0.0762177
 20
-0.517746
 11
-0.0750275
 21
-0.514572
  0
LINE
  8
0
 10
-0.0750275
 20
-0.514572
 11
-0.0737305
 21
-0.511459
  0
LINE
  8
0
 10
-0.0737305
 20
-0.511459
 11
-0.0722809
 21
-0.508392
  0
LINE
  8
0
 10
-0.0722809
 20
-0.508392
 11
-0.0707245
 21
-0.505402
  0
LINE
  8
0
 10
-0.0707245
 20
-0.505402
 11
-0.0690308
 21
-0.502472
  0
LINE
  8
0
 10
-0.0690308
 20
-0.502472
 11
-0.067215
 21
-0.499619
  0
LINE
  8
0
 10
-0.067215
 20
-0.499619
 11
-0.0652924
 21
-0.496841
  0
LINE
  8
0
 10
-0.0652924
 20
-0.496841
 11
-0.0632477
 21
-0.494156
  0
LINE
  8
0
 10
-0.0632477
 20
-0.494156
 11
-0.0610962
 21
-0.491547
  0
LINE
  8
0
 10
-0.0610962
 20
-0.491547
 11
-0.0588226
 21
-0.489029
  0
LINE
  8
0
 10
-0.0588226
 20
-0.489029
 11
-0.0564575
 21
-0.486618
  0
LINE
  8
0
 10
-0.0564575
 20
-0.486618
 11
-0.0540009
 21
-0.484299
  0
LINE
  8
0
 10
-0.0540009
 20
-0.484299
 11
-0.0514374
 21
-0.482101
  0
LINE
  8
0
 10
-0.0514374
 20
-0.482101
 11
-0.0487823
 21
-0.479996
  0
LINE
  8
0
 10
-0.0487823
 20
-0.479996
 11
-0.046051
 21
-0.478012
  0
LINE
  8
0
 10
-0.046051
 20
-0.478012
 11
-0.0432434
 21
-0.476135
  0
LINE
  8
0
 10
-0.0432434
 20
-0.476135
 11
-0.0403442
 21
-0.47438
  0
LINE
  8
0
 10
-0.0403442
 20
-0.47438
 11
-0.037384
 21
-0.472763
  0
LINE
  8
0
 10
-0.037384
 20
-0.472763
 11
-0.0343628
 21
-0.471252
  0
LINE
  8
0
 10
-0.0343628
 20
-0.471252
 11
-0.0312653
 21
-0.469879
  0
LINE
  8
0
 10
-0.0312653
 20
-0.469879
 11
-0.0281219
 21
-0.468643
  0
LINE
  8
0
 10
-0.0281219
 20
-0.468643
 11
-0.0249329
 21
-0.467529
  0
LINE
  8
0
 10
-0.0249329
 20
-0.467529
 11
-0.021698
 21
-0.466553
  0
LINE
  8
0
 10
-0.021698
 20
-0.466553
 11
-0.0184174
 21
-0.465714
  0
LINE
  8
0
 10
-0.0184174
 20
-0.465714
 11
-0.0151215
 21
-0.465012
  0
LINE
  8
0
 10
-0.0151215
 20
-0.465012
 11
-0.0117798
 21
-0.464447
  0
LINE
  8
0
 10
-0.0117798
 20
-0.464447
 11
-0.00842285
 21
-0.46402
  0
LINE
  8
0
 10
-0.00842285
 20
-0.46402
 11
-0.00506592
 21
-0.46373
  0
LINE
  8
0
 10
-0.00506592
 20
-0.46373
 11
-0.00167847
 21
-0.463593
  0
LINE
  8
0
 10
-0.00167847
 20
-0.463593
 11
0.00167847
 21
-0.463593
  0
LINE
  8
0
 10
0.00167847
 20
-0.463593
 11
0.00506592
 21
-0.46373
  0
LINE
  8
0
 10
0.00506592
 20
-0.46373
 11
0.00842285
 21
-0.46402
  0
LINE
  8
0
 10
0.00842285
 20
-0.46402
 11
0.0117798
 21
-0.464447
  0
LINE
  8
0
 10
0.0117798
 20
-0.464447
 11
0.0151215
 21
-0.465012
  0
LINE
  8
0
 10
0.0151215
 20
-0.465012
 11
0.0184174
 21
-0.465714
  0
LINE
  8
0
 10
0.0184174
 20
-0.465714
 11
0.021698
 21
-0.466553
  0
LINE
  8
0
 10
0.021698
 20
-0.466553
 11
0.0249329
 21
-0.467529
  0
LINE
  8
0
 10
0.0249329
 20
-0.467529
 11
0.0281219
 21
-0.468643
  0
LINE
  8
0
 10
0.0281219
 20
-0.468643
 11
0.0312653
 21
-0.469879
  0
LINE
  8
0
 10
0.0312653
 20
-0.469879
 11
0.0343628
 21
-0.471252
  0
LINE
  8
0
 10
0.0343628
 20
-0.471252
 11
0.037384
 21
-0.472763
  0
LINE
  8
0
 10
0.037384
 20
-0.472763
 11
0.0403442
 21
-0.47438
  0
LINE
  8
0
 10
0.0403442
 20
-0.47438
 11
0.0432434
 21
-0.476135
  0
LINE
  8
0
 10
0.0432434
 20
-0.476135
 11
0.046051
 21
-0.478012
  0
LINE
  8
0
 10
0.046051
 20
-0.478012
 11
0.0487823
 21
-0.479996
  0
LINE
  8
0
 10
0.0487823
 20
-0.479996
 11
0.0514374
 21
-0.482101
  0
LINE
  8
0
 10
0.0514374
 20
-0.482101
 11
0.0540009
 21
-0.484299
  0
LINE
  8
0
 10
0.0540009
 20
-0.484299
 11
0.0564575
 21
-0.486618
  0
LINE
  8
0
 10
0.0564575
 20
-0.486618
 11
0.0588226
 21
-0.489029
  0
LINE
  8
0
 10
0.0588226
 20
-0.489029
 11
0.0610962
 21
-0.491547
  0
LINE
  8
0
 10
0.0610962
 20
-0.491547
 11
0.0632477
 21
-0.494156
  0
LINE
  8
0
 10
0.0632477
 20
-0.494156
 11
0.0652924
 21
-0.496841
  0
LINE
  8
0
 10
0.0652924
 20
-0.496841
 11
0.067215
 21
-0.499619
  0
LINE
  8
0
 10
0.067215
 20
-0.499619
 11
0.0690308
 21
-0.502472
  0
LINE
  8
0
 10
0.0690308
 20
-0.502472
 11
0.0707245
 21
-0.505402
  0
LINE
  8
0
 10
0.0707245
 20
-0.505402
 11
0.0722809
 21
-0.508392
  0
LINE
  8
0
 10
0.0722809
 20
-0.508392
 11
0.0737305
 21
-0.511459
  0
LINE
  8
0
 10
0.0737305
 20
-0.511459
 11
0.0750275
 21
-0.514572
  0
LINE
  8
0
 10
0.0750275
 20
-0.514572
 11
0.0762177
 21
-0.517746
  0
LINE
  8
0
 10
0.0762177
 20
-0.517746
 11
0.0772552
 21
-0.52095
  0
LINE
  8
0
 10
0.0772552
 20
-0.52095
 11
0.0781708
 21
-0.524216
  0
LINE
  8
0
 10
0.0781708
 20
-0.524216
 11
0.0789337
 21
-0.527496
  0
LINE
  8
0
 10
0.0789337
 20
-0.527496
 11
0.0795746
 21
-0.530823
  0
LINE
  8
0
 10
0.0795746
 20
-0.530823
 11
0.0800629
 21
-0.534164
  0
LINE
  8
0
 10
0.0800629
 20
-0.534164
 11
0.0804138
 21
-0.537537
  0
LINE
  8
0
 10
0.0804138
 20
-0.537537
 11
0.0806274
 21
-0.540909
  0
LINE
  8
0
 10
0.0806274
 20
-0.540909
 11
0.0807037
 21
-0.544281
  0
LINE
  8
0
 10
0.0807037
 20
-0.544281
 11
0.0806274
 21
-0.547668
  0
LINE
  8
0
 10
0.0806274
 20
-0.547668
 11
0.0804138
 21
-0.551041
  0
LINE
  8
0
 10
0.0804138
 20
-0.551041
 11
0.0800629
 21
-0.554398
  0
LINE
  8
0
 10
0.0800629
 20
-0.554398
 11
0.0795746
 21
-0.557739
  0
LINE
  8
0
 10
0.0795746
 20
-0.557739
 11
0.0789337
 21
-0.561066
  0
LINE
  8
0
 10
0.0789337
 20
-0.561066
 11
0.0781708
 21
-0.564362
  0
LINE
  8
0
 10
0.0781708
 20
-0.564362
 11
0.0772552
 21
-0.567612
  0
LINE
  8
0
 10
0.0772552
 20
-0.567612
 11
0.0762177
 21
-0.570831
  0
LINE
  8
0
 10
0.0762177
 20
-0.570831
 11
0.0750275
 21
-0.57399
  0
LINE
  8
0
 10
0.0750275
 20
-0.57399
 11
0.0737305
 21
-0.577118
  0
LINE
  8
0
 10
0.0737305
 20
-0.577118
 11
0.0722809
 21
-0.58017
  0
LINE
  8
0
 10
0.0722809
 20
-0.58017
 11
0.0707245
 21
-0.58316
  0
LINE
  8
0
 10
0.0707245
 20
-0.58316
 11
0.0690308
 21
-0.58609
  0
LINE
  8
0
 10
0.0690308
 20
-0.58609
 11
0.067215
 21
-0.588943
  0
LINE
  8
0
 10
0.067215
 20
-0.588943
 11
0.0652924
 21
-0.591721
  0
LINE
  8
0
 10
0.0652924
 20
-0.591721
 11
0.0632477
 21
-0.594421
  0
LINE
  8
0
 10
0.0632477
 20
-0.594421
 11
0.0610962
 21
-0.597015
  0
LINE
  8
0
 10
0.0610962
 20
-0.597015
 11
0.0588226
 21
-0.599533
  0
LINE
  8
0
 10
0.0588226
 20
-0.599533
 11
0.0564575
 21
-0.601944
  0
LINE
  8
0
 10
0.0564575
 20
-0.601944
 11
0.0540009
 21
-0.604263
  0
LINE
  8
0
 10
0.0540009
 20
-0.604263
 11
0.0514374
 21
-0.606476
  0
LINE
  8
0
 10
0.0514374
 20
-0.606476
 11
0.0487823
 21
-0.608566
  0
LINE
  8
0
 10
0.0487823
 20
-0.608566
 11
0.046051
 21
-0.610565
  0
LINE
  8
0
 10
0.046051
 20
-0.610565
 11
0.0432434
 21
-0.612427
  0
LINE
  8
0
 10
0.0432434
 20
-0.612427
 11
0.0403442
 21
-0.614182
  0
LINE
  8
0
 10
0.0403442
 20
-0.614182
 11
0.037384
 21
-0.615814
  0
LINE
  8
0
 10
0.037384
 20
-0.615814
 11
0.0343628
 21
-0.61731
  0
LINE
  8
0
 10
0.0343628
 20
-0.61731
 11
0.0312653
 21
-0.618683
  0
LINE
  8
0
 10
0.0312653
 20
-0.618683
 11
0.0281219
 21
-0.619934
  0
LINE
  8
0
 10
0.0281219
 20
-0.619934
 11
0.0249329
 21
-0.621048
  0
LINE
  8
0
 10
0.0249329
 20
-0.621048
 11
0.021698
 21
-0.622025
  0
LINE
  8
0
 10
0.021698
 20
-0.622025
 11
0.0184174
 21
-0.622864
  0
LINE
  8
0
 10
0.0184174
 20
-0.622864
 11
0.0151215
 21
-0.623566
  0
LINE
  8
0
 10
0.0151215
 20
-0.623566
 11
0.0117798
 21
-0.62413
  0
LINE
  8
0
 10
0.0117798
 20
-0.62413
 11
0.00842285
 21
-0.624557
  0
LINE
  8
0
 10
0.00842285
 20
-0.624557
 11
0.00506592
 21
-0.624832
  0
LINE
  8
0
 10
0.00506592
 20
-0.624832
 11
0.00167847
 21
-0.624969
  0
LINE
  8
0
 10
0.00167847
 20
-0.624969
 11
-0.00167847
 21
-0.624969
  0
LINE
  8
0
 10
-2.47089
 20
-1.02551
 11
-2.47426
 21
-1.0253
  0
LINE
  8
0
 10
-2.47426
 20
-1.0253
 11
-2.47763
 21
-1.02495
  0
LINE
  8
0
 10
-2.47763
 20
-1.02495
 11
-2.48097
 21
-1.02446
  0
LINE
  8
0
 10
-2.48097
 20
-1.02446
 11
-2.4843
 21
-1.02382
  0
LINE
  8
0
 10
-2.4843
 20
-1.02382
 11
-2.48758
 21
-1.02304
  0
LINE
  8
0
 10
-2.48758
 20
-1.02304
 11
-2.49084
 21
-1.02214
  0
LINE
  8
0
 10
-2.49084
 20
-1.02214
 11
-2.49405
 21
-1.02109
  0
LINE
  8
0
 10
-2.49405
 20
-1.02109
 11
-2.49722
 21
-1.01991
  0
LINE
  8
0
 10
-2.49722
 20
-1.01991
 11
-2.50034
 21
-1.0186
  0
LINE
  8
0
 10
-2.50034
 20
-1.0186
 11
-2.5034
 21
-1.01717
  0
LINE
  8
0
 10
-2.5034
 20
-1.01717
 11
-2.50639
 21
-1.01559
  0
LINE
  8
0
 10
-2.50639
 20
-1.01559
 11
-2.50932
 21
-1.01392
  0
LINE
  8
0
 10
-2.50932
 20
-1.01392
 11
-2.51218
 21
-1.0121
  0
LINE
  8
0
 10
-2.51218
 20
-1.0121
 11
-2.51495
 21
-1.01016
  0
LINE
  8
0
 10
-2.51495
 20
-1.01016
 11
-2.51764
 21
-1.00812
  0
LINE
  8
0
 10
-2.51764
 20
-1.00812
 11
-2.52025
 21
-1.00597
  0
LINE
  8
0
 10
-2.52025
 20
-1.00597
 11
-2.52277
 21
-1.00371
  0
LINE
  8
0
 10
-2.52277
 20
-1.00371
 11
-2.52518
 21
-1.00134
  0
LINE
  8
0
 10
-2.52518
 20
-1.00134
 11
-2.5275
 21
-0.998886
  0
LINE
  8
0
 10
-2.5275
 20
-0.998886
 11
-2.52969
 21
-0.996323
  0
LINE
  8
0
 10
-2.52969
 20
-0.996323
 11
-2.5318
 21
-0.993668
  0
LINE
  8
0
 10
-2.5318
 20
-0.993668
 11
-2.53378
 21
-0.990936
  0
LINE
  8
0
 10
-2.53378
 20
-0.990936
 11
-2.53566
 21
-0.988113
  0
LINE
  8
0
 10
-2.53566
 20
-0.988113
 11
-2.53741
 21
-0.985229
  0
LINE
  8
0
 10
-2.53741
 20
-0.985229
 11
-2.53903
 21
-0.982269
  0
LINE
  8
0
 10
-2.53903
 20
-0.982269
 11
-2.54054
 21
-0.979233
  0
LINE
  8
0
 10
-2.54054
 20
-0.979233
 11
-2.54192
 21
-0.976151
  0
LINE
  8
0
 10
-2.54192
 20
-0.976151
 11
-2.54315
 21
-0.973007
  0
LINE
  8
0
 10
-2.54315
 20
-0.973007
 11
-2.54427
 21
-0.969818
  0
LINE
  8
0
 10
-2.54427
 20
-0.969818
 11
-2.54524
 21
-0.966583
  0
LINE
  8
0
 10
-2.54524
 20
-0.966583
 11
-2.54608
 21
-0.963303
  0
LINE
  8
0
 10
-2.54608
 20
-0.963303
 11
-2.5468
 21
-0.959991
  0
LINE
  8
0
 10
-2.5468
 20
-0.959991
 11
-2.54735
 21
-0.956665
  0
LINE
  8
0
 10
-2.54735
 20
-0.956665
 11
-2.54778
 21
-0.953308
  0
LINE
  8
0
 10
-2.54778
 20
-0.953308
 11
-2.54807
 21
-0.949936
  0
LINE
  8
0
 10
-2.54807
 20
-0.949936
 11
-2.5482
 21
-0.946564
  0
LINE
  8
0
 10
-2.5482
 20
-0.946564
 11
-2.5482
 21
-0.943176
  0
LINE
  8
0
 10
-2.5482
 20
-0.943176
 11
-2.54807
 21
-0.939804
  0
LINE
  8
0
 10
-2.54807
 20
-0.939804
 11
-2.54778
 21
-0.936432
  0
LINE
  8
0
 10
-2.54778
 20
-0.936432
 11
-2.54735
 21
-0.93309
  0
LINE
  8
0
 10
-2.54735
 20
-0.93309
 11
-2.5468
 21
-0.929749
  0
LINE
  8
0
 10
-2.5468
 20
-0.929749
 11
-2.54608
 21
-0.926437
  0
LINE
  8
0
 10
-2.54608
 20
-0.926437
 11
-2.54524
 21
-0.923172
  0
LINE
  8
0
 10
-2.54524
 20
-0.923172
 11
-2.54427
 21
-0.919937
  0
LINE
  8
0
 10
-2.54427
 20
-0.919937
 11
-2.54315
 21
-0.916748
  0
LINE
  8
0
 10
-2.54315
 20
-0.916748
 11
-2.54192
 21
-0.913605
  0
LINE
  8
0
 10
-2.54192
 20
-0.913605
 11
-2.54054
 21
-0.910507
  0
LINE
  8
0
 10
-2.54054
 20
-0.910507
 11
-2.53903
 21
-0.907486
  0
LINE
  8
0
 10
-2.53903
 20
-0.907486
 11
-2.53741
 21
-0.904526
  0
LINE
  8
0
 10
-2.53741
 20
-0.904526
 11
-2.53566
 21
-0.901627
  0
LINE
  8
0
 10
-2.53566
 20
-0.901627
 11
-2.53378
 21
-0.898819
  0
LINE
  8
0
 10
-2.53378
 20
-0.898819
 11
-2.5318
 21
-0.896072
  0
LINE
  8
0
 10
-2.5318
 20
-0.896072
 11
-2.52969
 21
-0.893433
  0
LINE
  8
0
 10
-2.52969
 20
-0.893433
 11
-2.5275
 21
-0.890869
  0
LINE
  8
0
 10
-2.5275
 20
-0.890869
 11
-2.52518
 21
-0.888412
  0
LINE
  8
0
 10
-2.52518
 20
-0.888412
 11
-2.52277
 21
-0.886047
  0
LINE
  8
0
 10
-2.52277
 20
-0.886047
 11
-2.52025
 21
-0.883774
  0
LINE
  8
0
 10
-2.52025
 20
-0.883774
 11
-2.51764
 21
-0.881622
  0
LINE
  8
0
 10
-2.51764
 20
-0.881622
 11
-2.51495
 21
-0.879578
  0
LINE
  8
0
 10
-2.51495
 20
-0.879578
 11
-2.51218
 21
-0.877655
  0
LINE
  8
0
 10
-2.51218
 20
-0.877655
 11
-2.50932
 21
-0.875839
  0
LINE
  8
0
 10
-2.50932
 20
-0.875839
 11
-2.50639
 21
-0.874146
  0
LINE
  8
0
 10
-2.50639
 20
-0.874146
 11
-2.5034
 21
-0.872589
  0
LINE
  8
0
 10
-2.5034
 20
-0.872589
 11
-2.50034
 21
-0.87114
  0
LINE
  8
0
 10
-2.50034
 20
-0.87114
 11
-2.49722
 21
-0.869827
  0
LINE
  8
0
 10
-2.49722
 20
-0.869827
 11
-2.49405
 21
-0.868652
  0
LINE
  8
0
 10
-2.49405
 20
-0.868652
 11
-2.49084
 21
-0.867615
  0
LINE
  8
0
 10
-2.49084
 20
-0.867615
 11
-2.48758
 21
-0.866699
  0
LINE
  8
0
 10
-2.48758
 20
-0.866699
 11
-2.4843
 21
-0.865936
  0
LINE
  8
0
 10
-2.4843
 20
-0.865936
 11
-2.48097
 21
-0.865295
  0
LINE
  8
0
 10
-2.48097
 20
-0.865295
 11
-2.47763
 21
-0.864807
  0
LINE
  8
0
 10
-2.47763
 20
-0.864807
 11
-2.47426
 21
-0.864441
  0
LINE
  8
0
 10
-2.47426
 20
-0.864441
 11
-2.47089
 21
-0.864243
  0
LINE
  8
0
 10
-2.47089
 20
-0.864243
 11
-2.46751
 21
-0.864166
  0
LINE
  8
0
 10
-2.46751
 20
-0.864166
 11
-2.46413
 21
-0.864243
  0
LINE
  8
0
 10
-2.46413
 20
-0.864243
 11
-2.46075
 21
-0.864441
  0
LINE
  8
0
 10
-2.46075
 20
-0.864441
 11
-2.4574
 21
-0.864807
  0
LINE
  8
0
 10
-2.4574
 20
-0.864807
 11
-2.45406
 21
-0.865295
  0
LINE
  8
0
 10
-2.45406
 20
-0.865295
 11
-2.45073
 21
-0.865936
  0
LINE
  8
0
 10
-2.45073
 20
-0.865936
 11
-2.44745
 21
-0.866699
  0
LINE
  8
0
 10
-2.44745
 20
-0.866699
 11
-2.44418
 21
-0.867615
  0
LINE
  8
0
 10
-2.44418
 20
-0.867615
 11
-2.44096
 21
-0.868652
  0
LINE
  8
0
 10
-2.44096
 20
-0.868652
 11
-2.43781
 21
-0.869827
  0
LINE
  8
0
 10
-2.43781
 20
-0.869827
 11
-2.43469
 21
-0.87114
  0
LINE
  8
0
 10
-2.43469
 20
-0.87114
 11
-2.43163
 21
-0.872589
  0
LINE
  8
0
 10
-2.43163
 20
-0.872589
 11
-2.42863
 21
-0.874146
  0
LINE
  8
0
 10
-2.42863
 20
-0.874146
 11
-2.4257
 21
-0.875839
  0
LINE
  8
0
 10
-2.4257
 20
-0.875839
 11
-2.42285
 21
-0.877655
  0
LINE
  8
0
 10
-2.42285
 20
-0.877655
 11
-2.42007
 21
-0.879578
  0
LINE
  8
0
 10
-2.42007
 20
-0.879578
 11
-2.41737
 21
-0.881622
  0
LINE
  8
0
 10
-2.41737
 20
-0.881622
 11
-2.41478
 21
-0.883774
  0
LINE
  8
0
 10
-2.41478
 20
-0.883774
 11
-2.41226
 21
-0.886047
  0
LINE
  8
0
 10
-2.41226
 20
-0.886047
 11
-2.40985
 21
-0.888412
  0
LINE
  8
0
 10
-2.40985
 20
-0.888412
 11
-2.40753
 21
-0.890869
  0
LINE
  8
0
 10
-2.40753
 20
-0.890869
 11
-2.40532
 21
-0.893433
  0
LINE
  8
0
 10
-2.40532
 20
-0.893433
 11
-2.40323
 21
-0.896072
  0
LINE
  8
0
 10
-2.40323
 20
-0.896072
 11
-2.40125
 21
-0.898819
  0
LINE
  8
0
 10
-2.40125
 20
-0.898819
 11
-2.39937
 21
-0.901627
  0
LINE
  8
0
 10
-2.39937
 20
-0.901627
 11
-2.39761
 21
-0.904526
  0
LINE
  8
0
 10
-2.39761
 20
-0.904526
 11
-2.396
 21
-0.907486
  0
LINE
  8
0
 10
-2.396
 20
-0.907486
 11
-2.39449
 21
-0.910507
  0
LINE
  8
0
 10
-2.39449
 20
-0.910507
 11
-2.39311
 21
-0.913605
  0
LINE
  8
0
 10
-2.39311
 20
-0.913605
 11
-2.39186
 21
-0.916748
  0
LINE
  8
0
 10
-2.39186
 20
-0.916748
 11
-2.39075
 21
-0.919937
  0
LINE
  8
0
 10
-2.39075
 20
-0.919937
 11
-2.38977
 21
-0.923172
  0
LINE
  8
0
 10
-2.38977
 20
-0.923172
 11
-2.38893
 21
-0.926437
  0
LINE
  8
0
 10
-2.38893
 20
-0.926437
 11
-2.38823
 21
-0.929749
  0
LINE
  8
0
 10
-2.38823
 20
-0.929749
 11
-2.38766
 21
-0.93309
  0
LINE
  8
0
 10
-2.38766
 20
-0.93309
 11
-2.38725
 21
-0.936432
  0
LINE
  8
0
 10
-2.38725
 20
-0.936432
 11
-2.38696
 21
-0.939804
  0
LINE
  8
0
 10
-2.38696
 20
-0.939804
 11
-2.38683
 21
-0.943176
  0
LINE
  8
0
 10
-2.38683
 20
-0.943176
 11
-2.38683
 21
-0.946564
  0
LINE
  8
0
 10
-2.38683
 20
-0.946564
 11
-2.38696
 21
-0.949936
  0
LINE
  8
0
 10
-2.38696
 20
-0.949936
 11
-2.38725
 21
-0.953308
  0
LINE
  8
0
 10
-2.38725
 20
-0.953308
 11
-2.38766
 21
-0.956665
  0
LINE
  8
0
 10
-2.38766
 20
-0.956665
 11
-2.38823
 21
-0.959991
  0
LINE
  8
0
 10
-2.38823
 20
-0.959991
 11
-2.38893
 21
-0.963303
  0
LINE
  8
0
 10
-2.38893
 20
-0.963303
 11
-2.38977
 21
-0.966583
  0
LINE
  8
0
 10
-2.38977
 20
-0.966583
 11
-2.39075
 21
-0.969818
  0
LINE
  8
0
 10
-2.39075
 20
-0.969818
 11
-2.39186
 21
-0.973007
  0
LINE
  8
0
 10
-2.39186
 20
-0.973007
 11
-2.39311
 21
-0.976151
  0
LINE
  8
0
 10
-2.39311
 20
-0.976151
 11
-2.39449
 21
-0.979233
  0
LINE
  8
0
 10
-2.39449
 20
-0.979233
 11
-2.396
 21
-0.982269
  0
LINE
  8
0
 10
-2.396
 20
-0.982269
 11
-2.39761
 21
-0.985229
  0
LINE
  8
0
 10
-2.39761
 20
-0.985229
 11
-2.39937
 21
-0.988113
  0
LINE
  8
0
 10
-2.39937
 20
-0.988113
 11
-2.40125
 21
-0.990936
  0
LINE
  8
0
 10
-2.40125
 20
-0.990936
 11
-2.40323
 21
-0.993668
  0
LINE
  8
0
 10
-2.40323
 20
-0.993668
 11
-2.40532
 21
-0.996323
  0
LINE
  8
0
 10
-2.40532
 20
-0.996323
 11
-2.40753
 21
-0.998886
  0
LINE
  8
0
 10
-2.40753
 20
-0.998886
 11
-2.40985
 21
-1.00134
  0
LINE
  8
0
 10
-2.40985
 20
-1.00134
 11
-2.41226
 21
-1.00371
  0
LINE
  8
0
 10
-2.41226
 20
-1.00371
 11
-2.41478
 21
-1.00597
  0
LINE
  8
0
 10
-2.41478
 20
-1.00597
 11
-2.41737
 21
-1.00812
  0
LINE
  8
0
 10
-2.41737
 20
-1.00812
 11
-2.42007
 21
-1.01016
  0
LINE
  8
0
 10
-2.42007
 20
-1.01016
 11
-2.42285
 21
-1.0121
  0
LINE
  8
0
 10
-2.42285
 20
-1.0121
 11
-2.4257
 21
-1.01392
  0
LINE
  8
0
 10
-2.4257
 20
-1.01392
 11
-2.42863
 21
-1.01559
  0
LINE
  8
0
 10
-2.42863
 20
-1.01559
 11
-2.43163
 21
-1.01717
  0
LINE
  8
0
 10
-2.43163
 20
-1.01717
 11
-2.43469
 21
-1.0186
  0
LINE
  8
0
 10
-2.43469
 20
-1.0186
 11
-2.43781
 21
-1.01991
  0
LINE
  8
0
 10
-2.43781
 20
-1.01991
 11
-2.44096
 21
-1.02109
  0
LINE
  8
0
 10
-2.44096
 20
-1.02109
 11
-2.44418
 21
-1.02214
  0
LINE
  8
0
 10
-2.44418
 20
-1.02214
 11
-2.44745
 21
-1.02304
  0
LINE
  8
0
 10
-2.44745
 20
-1.02304
 11
-2.45073
 21
-1.02382
  0
LINE
  8
0
 10
-2.45073
 20
-1.02382
 11
-2.45406
 21
-1.02446
  0
LINE
  8
0
 10
-2.45406
 20
-1.02446
 11
-2.4574
 21
-1.02495
  0
LINE
  8
0
 10
-2.4574
 20
-1.02495
 11
-2.46075
 21
-1.0253
  0
LINE
  8
0
 10
-2.46075
 20
-1.0253
 11
-2.46413
 21
-1.02551
  0
LINE
  8
0
 10
-2.46413
 20
-1.02551
 11
-2.46751
 21
-1.02559
  0
LINE
  8
0
 10
-2.46751
 20
-1.02559
 11
-2.47089
 21
-1.02551
  0
LINE
  8
0
 10
2.46413
 20
-1.02551
 11
2.46075
 21
-1.0253
  0
LINE
  8
0
 10
2.46075
 20
-1.0253
 11
2.4574
 21
-1.02495
  0
LINE
  8
0
 10
2.4574
 20
-1.02495
 11
2.45406
 21
-1.02446
  0
LINE
  8
0
 10
2.45406
 20
-1.02446
 11
2.45073
 21
-1.02382
  0
LINE
  8
0
 10
2.45073
 20
-1.02382
 11
2.44745
 21
-1.02304
  0
LINE
  8
0
 10
2.44745
 20
-1.02304
 11
2.44418
 21
-1.02214
  0
LINE
  8
0
 10
2.44418
 20
-1.02214
 11
2.44096
 21
-1.02109
  0
LINE
  8
0
 10
2.44096
 20
-1.02109
 11
2.43781
 21
-1.01991
  0
LINE
  8
0
 10
2.43781
 20
-1.01991
 11
2.43469
 21
-1.0186
  0
LINE
  8
0
 10
2.43469
 20
-1.0186
 11
2.43163
 21
-1.01717
  0
LINE
  8
0
 10
2.43163
 20
-1.01717
 11
2.42863
 21
-1.01559
  0
LINE
  8
0
 10
2.42863
 20
-1.01559
 11
2.4257
 21
-1.01392
  0
LINE
  8
0
 10
2.4257
 20
-1.01392
 11
2.42285
 21
-1.0121
  0
LINE
  8
0
 10
2.42285
 20
-1.0121
 11
2.42007
 21
-1.01016
  0
LINE
  8
0
 10
2.42007
 20
-1.01016
 11
2.41737
 21
-1.00812
  0
LINE
  8
0
 10
2.41737
 20
-1.00812
 11
2.41478
 21
-1.00597
  0
LINE
  8
0
 10
2.41478
 20
-1.00597
 11
2.41226
 21
-1.00371
  0
LINE
  8
0
 10
2.41226
 20
-1.00371
 11
2.40985
 21
-1.00134
  0
LINE
  8
0
 10
2.40985
 20
-1.00134
 11
2.40753
 21
-0.998886
  0
LINE
  8
0
 10
2.40753
 20
-0.998886
 11
2.40532
 21
-0.996323
  0
LINE
  8
0
 10
2.40532
 20
-0.996323
 11
2.40323
 21
-0.993668
  0
LINE
  8
0
 10
2.40323
 20
-0.993668
 11
2.40125
 21
-0.990936
  0
LINE
  8
0
 10
2.40125
 20
-0.990936
 11
2.39937
 21
-0.988113
  0
LINE
  8
0
 10
2.39937
 20
-0.988113
 11
2.39761
 21
-0.985229
  0
LINE
  8
0
 10
2.39761
 20
-0.985229
 11
2.396
 21
-0.982269
  0
LINE
  8
0
 10
2.396
 20
-0.982269
 11
2.39449
 21
-0.979233
  0
LINE
  8
0
 10
2.39449
 20
-0.979233
 11
2.39311
 21
-0.976151
  0
LINE
  8
0
 10
2.39311
 20
-0.976151
 11
2.39186
 21
-0.973007
  0
LINE
  8
0
 10
2.39186
 20
-0.973007
 11
2.39075
 21
-0.969818
  0
LINE
  8
0
 10
2.39075
 20
-0.969818
 11
2.38977
 21
-0.966583
  0
LINE
  8
0
 10
2.38977
 20
-0.966583
 11
2.38893
 21
-0.963303
  0
LINE
  8
0
 10
2.38893
 20
-0.963303
 11
2.38823
 21
-0.959991
  0
LINE
  8
0
 10
2.38823
 20
-0.959991
 11
2.38766
 21
-0.956665
  0
LINE
  8
0
 10
2.38766
 20
-0.956665
 11
2.38725
 21
-0.953308
  0
LINE
  8
0
 10
2.38725
 20
-0.953308
 11
2.38696
 21
-0.949936
  0
LINE
  8
0
 10
2.38696
 20
-0.949936
 11
2.38683
 21
-0.946564
  0
LINE
  8
0
 10
2.38683
 20
-0.946564
 11
2.38683
 21
-0.943176
  0
LINE
  8
0
 10
2.38683
 20
-0.943176
 11
2.38696
 21
-0.939804
  0
LINE
  8
0
 10
2.38696
 20
-0.939804
 11
2.38725
 21
-0.936432
  0
LINE
  8
0
 10
2.38725
 20
-0.936432
 11
2.38766
 21
-0.93309
  0
LINE
  8
0
 10
2.38766
 20
-0.93309
 11
2.38823
 21
-0.929749
  0
LINE
  8
0
 10
2.38823
 20
-0.929749
 11
2.38893
 21
-0.926437
  0
LINE
  8
0
 10
2.38893
 20
-0.926437
 11
2.38977
 21
-0.923172
  0
LINE
  8
0
 10
2.38977
 20
-0.923172
 11
2.39075
 21
-0.919937
  0
LINE
  8
0
 10
2.39075
 20
-0.919937
 11
2.39186
 21
-0.916748
  0
LINE
  8
0
 10
2.39186
 20
-0.916748
 11
2.39311
 21
-0.913605
  0
LINE
  8
0
 10
2.39311
 20
-0.913605
 11
2.39449
 21
-0.910507
  0
LINE
  8
0
 10
2.39449
 20
-0.910507
 11
2.396
 21
-0.907486
  0
LINE
  8
0
 10
2.396
 20
-0.907486
 11
2.39761
 21
-0.904526
  0
LINE
  8
0
 10
2.39761
 20
-0.904526
 11
2.39937
 21
-0.901627
  0
LINE
  8
0
 10
2.39937
 20
-0.901627
 11
2.40125
 21
-0.898819
  0
LINE
  8
0
 10
2.40125
 20
-0.898819
 11
2.40323
 21
-0.896072
  0
LINE
  8
0
 10
2.40323
 20
-0.896072
 11
2.40532
 21
-0.893433
  0
LINE
  8
0
 10
2.40532
 20
-0.893433
 11
2.40753
 21
-0.890869
  0
LINE
  8
0
 10
2.40753
 20
-0.890869
 11
2.40985
 21
-0.888412
  0
LINE
  8
0
 10
2.40985
 20
-0.888412
 11
2.41226
 21
-0.886047
  0
LINE
  8
0
 10
2.41226
 20
-0.886047
 11
2.41478
 21
-0.883774
  0
LINE
  8
0
 10
2.41478
 20
-0.883774
 11
2.41737
 21
-0.881622
  0
LINE
  8
0
 10
2.41737
 20
-0.881622
 11
2.42007
 21
-0.879578
  0
LINE
  8
0
 10
2.42007
 20
-0.879578
 11
2.42285
 21
-0.877655
  0
LINE
  8
0
 10
2.42285
 20
-0.877655
 11
2.4257
 21
-0.875839
  0
LINE
  8
0
 10
2.4257
 20
-0.875839
 11
2.42863
 21
-0.874146
  0
LINE
  8
0
 10
2.42863
 20
-0.874146
 11
2.43163
 21
-0.872589
  0
LINE
  8
0
 10
2.43163
 20
-0.872589
 11
2.43469
 21
-0.87114
  0
LINE
  8
0
 10
2.43469
 20
-0.87114
 11
2.43781
 21
-0.869827
  0
LINE
  8
0
 10
2.43781
 20
-0.869827
 11
2.44096
 21
-0.868652
  0
LINE
  8
0
 10
2.44096
 20
-0.868652
 11
2.44418
 21
-0.867615
  0
LINE
  8
0
 10
2.44418
 20
-0.867615
 11
2.44745
 21
-0.866699
  0
LINE
  8
0
 10
2.44745
 20
-0.866699
 11
2.45073
 21
-0.865936
  0
LINE
  8
0
 10
2.45073
 20
-0.865936
 11
2.45406
 21
-0.865295
  0
LINE
  8
0
 10
2.45406
 20
-0.865295
 11
2.4574
 21
-0.864807
  0
LINE
  8
0
 10
2.4574
 20
-0.864807
 11
2.46075
 21
-0.864441
  0
LINE
  8
0
 10
2.46075
 20
-0.864441
 11
2.46413
 21
-0.864243
  0
LINE
  8
0
 10
2.46413
 20
-0.864243
 11
2.46751
 21
-0.864166
  0
LINE
  8
0
 10
2.46751
 20
-0.864166
 11
2.47089
 21
-0.864243
  0
LINE
  8
0
 10
2.47089
 20
-0.864243
 11
2.47426
 21
-0.864441
  0
LINE
  8
0
 10
2.47426
 20
-0.864441
 11
2.47763
 21
-0.864807
  0
LINE
  8
0
 10
2.47763
 20
-0.864807
 11
2.48097
 21
-0.865295
  0
LINE
  8
0
 10
2.48097
 20
-0.865295
 11
2.4843
 21
-0.865936
  0
LINE
  8
0
 10
2.4843
 20
-0.865936
 11
2.48758
 21
-0.866699
  0
LINE
  8
0
 10
2.48758
 20
-0.866699
 11
2.49084
 21
-0.867615
  0
LINE
  8
0
 10
2.49084
 20
-0.867615
 11
2.49405
 21
-0.868652
  0
LINE
  8
0
 10
2.49405
 20
-0.868652
 11
2.49722
 21
-0.869827
  0
LINE
  8
0
 10
2.49722
 20
-0.869827
 11
2.50034
 21
-0.87114
  0
LINE
  8
0
 10
2.50034
 20
-0.87114
 11
2.5034
 21
-0.872589
  0
LINE
  8
0
 10
2.5034
 20
-0.872589
 11
2.50639
 21
-0.874146
  0
LINE
  8
0
 10
2.50639
 20
-0.874146
 11
2.50932
 21
-0.875839
  0
LINE
  8
0
 10
2.50932
 20
-0.875839
 11
2.51218
 21
-0.877655
  0
LINE
  8
0
 10
2.51218
 20
-0.877655
 11
2.51495
 21
-0.879578
  0
LINE
  8
0
 10
2.51495
 20
-0.879578
 11
2.51764
 21
-0.881622
  0
LINE
  8
0
 10
2.51764
 20
-0.881622
 11
2.52025
 21
-0.883774
  0
LINE
  8
0
 10
2.52025
 20
-0.883774
 11
2.52277
 21
-0.886047
  0
LINE
  8
0
 10
2.52277
 20
-0.886047
 11
2.52518
 21
-0.888412
  0
LINE
  8
0
 10
2.52518
 20
-0.888412
 11
2.5275
 21
-0.890869
  0
LINE
  8
0
 10
2.5275
 20
-0.890869
 11
2.52969
 21
-0.893433
  0
LINE
  8
0
 10
2.52969
 20
-0.893433
 11
2.5318
 21
-0.896072
  0
LINE
  8
0
 10
2.5318
 20
-0.896072
 11
2.53378
 21
-0.898819
  0
LINE
  8
0
 10
2.53378
 20
-0.898819
 11
2.53566
 21
-0.901627
  0
LINE
  8
0
 10
2.53566
 20
-0.901627
 11
2.53741
 21
-0.904526
  0
LINE
  8
0
 10
2.53741
 20
-0.904526
 11
2.53903
 21
-0.907486
  0
LINE
  8
0
 10
2.53903
 20
-0.907486
 11
2.54054
 21
-0.910507
  0
LINE
  8
0
 10
2.54054
 20
-0.910507
 11
2.54192
 21
-0.913605
  0
LINE
  8
0
 10
2.54192
 20
-0.913605
 11
2.54315
 21
-0.916748
  0
LINE
  8
0
 10
2.54315
 20
-0.916748
 11
2.54427
 21
-0.919937
  0
LINE
  8
0
 10
2.54427
 20
-0.919937
 11
2.54524
 21
-0.923172
  0
LINE
  8
0
 10
2.54524
 20
-0.923172
 11
2.54608
 21
-0.926437
  0
LINE
  8
0
 10
2.54608
 20
-0.926437
 11
2.5468
 21
-0.929749
  0
LINE
  8
0
 10
2.5468
 20
-0.929749
 11
2.54735
 21
-0.93309
  0
LINE
  8
0
 10
2.54735
 20
-0.93309
 11
2.54778
 21
-0.936432
  0
LINE
  8
0
 10
2.54778
 20
-0.936432
 11
2.54807
 21
-0.939804
  0
LINE
  8
0
 10
2.54807
 20
-0.939804
 11
2.5482
 21
-0.943176
  0
LINE
  8
0
 10
2.5482
 20
-0.943176
 11
2.5482
 21
-0.946564
  0
LINE
  8
0
 10
2.5482
 20
-0.946564
 11
2.54807
 21
-0.949936
  0
LINE
  8
0
 10
2.54807
 20
-0.949936
 11
2.54778
 21
-0.953308
  0
LINE
  8
0
 10
2.54778
 20
-0.953308
 11
2.54735
 21
-0.956665
  0
LINE
  8
0
 10
2.54735
 20
-0.956665
 11
2.5468
 21
-0.959991
  0
LINE
  8
0
 10
2.5468
 20
-0.959991
 11
2.54608
 21
-0.963303
  0
LINE
  8
0
 10
2.54608
 20
-0.963303
 11
2.54524
 21
-0.966583
  0
LINE
  8
0
 10
2.54524
 20
-0.966583
 11
2.54427
 21
-0.969818
  0
LINE
  8
0
 10
2.54427
 20
-0.969818
 11
2.54315
 21
-0.973007
  0
LINE
  8
0
 10
2.54315
 20
-0.973007
 11
2.54192
 21
-0.976151
  0
LINE
  8
0
 10
2.54192
 20
-0.976151
 11
2.54054
 21
-0.979233
  0
LINE
  8
0
 10
2.54054
 20
-0.979233
 11
2.53903
 21
-0.982269
  0
LINE
  8
0
 10
2.53903
 20
-0.982269
 11
2.53741
 21
-0.985229
  0
LINE
  8
0
 10
2.53741
 20
-0.985229
 11
2.53566
 21
-0.988113
  0
LINE
  8
0
 10
2.53566
 20
-0.988113
 11
2.53378
 21
-0.990936
  0
LINE
  8
0
 10
2.53378
 20
-0.990936
 11
2.5318
 21
-0.993668
  0
LINE
  8
0
 10
2.5318
 20
-0.993668
 11
2.52969
 21
-0.996323
  0
LINE
  8
0
 10
2.52969
 20
-0.996323
 11
2.5275
 21
-0.998886
  0
LINE
  8
0
 10
2.5275
 20
-0.998886
 11
2.52518
 21
-1.00134
  0
LINE
  8
0
 10
2.52518
 20
-1.00134
 11
2.52277
 21
-1.00371
  0
LINE
  8
0
 10
2.52277
 20
-1.00371
 11
2.52025
 21
-1.00597
  0
LINE
  8
0
 10
2.52025
 20
-1.00597
 11
2.51764
 21
-1.00812
  0
LINE
  8
0
 10
2.51764
 20
-1.00812
 11
2.51495
 21
-1.01016
  0
LINE
  8
0
 10
2.51495
 20
-1.01016
 11
2.51218
 21
-1.0121
  0
LINE
  8
0
 10
2.51218
 20
-1.0121
 11
2.50932
 21
-1.01392
  0
LINE
  8
0
 10
2.50932
 20
-1.01392
 11
2.50639
 21
-1.01559
  0
LINE
  8
0
 10
2.50639
 20
-1.01559
 11
2.5034
 21
-1.01717
  0
LINE
  8
0
 10
2.5034
 20
-1.01717
 11
2.50034
 21
-1.0186
  0
LINE
  8
0
 10
2.50034
 20
-1.0186
 11
2.49722
 21
-1.01991
  0
LINE
  8
0
 10
2.49722
 20
-1.01991
 11
2.49405
 21
-1.02109
  0
LINE
  8
0
 10
2.49405
 20
-1.02109
 11
2.49084
 21
-1.02214
  0
LINE
  8
0
 10
2.49084
 20
-1.02214
 11
2.48758
 21
-1.02304
  0
LINE
  8
0
 10
2.48758
 20
-1.02304
 11
2.4843
 21
-1.02382
  0
LINE
  8
0
 10
2.4843
 20
-1.02382
 11
2.48097
 21
-1.02446
  0
LINE
  8
0
 10
2.48097
 20
-1.02446
 11
2.47763
 21
-1.02495
  0
LINE
  8
0
 10
2.47763
 20
-1.02495
 11
2.47426
 21
-1.0253
  0
LINE
  8
0
 10
2.47426
 20
-1.0253
 11
2.47089
 21
-1.02551
  0
LINE
  8
0
 10
2.47089
 20
-1.02551
 11
2.46751
 21
-1.02559
  0
LINE
  8
0
 10
2.46751
 20
-1.02559
 11
2.46413
 21
-1.02551
  0
LINE
  8
0
 10
2.46413
 20
-1.65543
 11
2.46075
 21
-1.65523
  0
LINE
  8
0
 10
2.46075
 20
-1.65523
 11
2.4574
 21
-1.65486
  0
LINE
  8
0
 10
2.4574
 20
-1.65486
 11
2.45406
 21
-1.65437
  0
LINE
  8
0
 10
2.45406
 20
-1.65437
 11
2.45073
 21
-1.65375
  0
LINE
  8
0
 10
2.45073
 20
-1.65375
 11
2.44745
 21
-1.65297
  0
LINE
  8
0
 10
2.44745
 20
-1.65297
 11
2.44418
 21
-1.65205
  0
LINE
  8
0
 10
2.44418
 20
-1.65205
 11
2.44096
 21
-1.65102
  0
LINE
  8
0
 10
2.44096
 20
-1.65102
 11
2.43781
 21
-1.64984
  0
LINE
  8
0
 10
2.43781
 20
-1.64984
 11
2.43469
 21
-1.64853
  0
LINE
  8
0
 10
2.43469
 20
-1.64853
 11
2.43163
 21
-1.64709
  0
LINE
  8
0
 10
2.43163
 20
-1.64709
 11
2.42863
 21
-1.64552
  0
LINE
  8
0
 10
2.42863
 20
-1.64552
 11
2.4257
 21
-1.64383
  0
LINE
  8
0
 10
2.4257
 20
-1.64383
 11
2.42285
 21
-1.64201
  0
LINE
  8
0
 10
2.42285
 20
-1.64201
 11
2.42007
 21
-1.64009
  0
LINE
  8
0
 10
2.42007
 20
-1.64009
 11
2.41737
 21
-1.63805
  0
LINE
  8
0
 10
2.41737
 20
-1.63805
 11
2.41478
 21
-1.63589
  0
LINE
  8
0
 10
2.41478
 20
-1.63589
 11
2.41226
 21
-1.63364
  0
LINE
  8
0
 10
2.41226
 20
-1.63364
 11
2.40985
 21
-1.63127
  0
LINE
  8
0
 10
2.40985
 20
-1.63127
 11
2.40753
 21
-1.6288
  0
LINE
  8
0
 10
2.40753
 20
-1.6288
 11
2.40532
 21
-1.62624
  0
LINE
  8
0
 10
2.40532
 20
-1.62624
 11
2.40323
 21
-1.6236
  0
LINE
  8
0
 10
2.40323
 20
-1.6236
 11
2.40125
 21
-1.62085
  0
LINE
  8
0
 10
2.40125
 20
-1.62085
 11
2.39937
 21
-1.61804
  0
LINE
  8
0
 10
2.39937
 20
-1.61804
 11
2.39761
 21
-1.61514
  0
LINE
  8
0
 10
2.39761
 20
-1.61514
 11
2.396
 21
-1.61218
  0
LINE
  8
0
 10
2.396
 20
-1.61218
 11
2.39449
 21
-1.60916
  0
LINE
  8
0
 10
2.39449
 20
-1.60916
 11
2.39311
 21
-1.60606
  0
LINE
  8
0
 10
2.39311
 20
-1.60606
 11
2.39186
 21
-1.60294
  0
LINE
  8
0
 10
2.39186
 20
-1.60294
 11
2.39075
 21
-1.59973
  0
LINE
  8
0
 10
2.39075
 20
-1.59973
 11
2.38977
 21
-1.5965
  0
LINE
  8
0
 10
2.38977
 20
-1.5965
 11
2.38893
 21
-1.59323
  0
LINE
  8
0
 10
2.38893
 20
-1.59323
 11
2.38823
 21
-1.58992
  0
LINE
  8
0
 10
2.38823
 20
-1.58992
 11
2.38766
 21
-1.58658
  0
LINE
  8
0
 10
2.38766
 20
-1.58658
 11
2.38725
 21
-1.58324
  0
LINE
  8
0
 10
2.38725
 20
-1.58324
 11
2.38696
 21
-1.57986
  0
LINE
  8
0
 10
2.38696
 20
-1.57986
 11
2.38683
 21
-1.57649
  0
LINE
  8
0
 10
2.38683
 20
-1.57649
 11
2.38683
 21
-1.5731
  0
LINE
  8
0
 10
2.38683
 20
-1.5731
 11
2.38696
 21
-1.56973
  0
LINE
  8
0
 10
2.38696
 20
-1.56973
 11
2.38725
 21
-1.56636
  0
LINE
  8
0
 10
2.38725
 20
-1.56636
 11
2.38766
 21
-1.563
  0
LINE
  8
0
 10
2.38766
 20
-1.563
 11
2.38823
 21
-1.55968
  0
LINE
  8
0
 10
2.38823
 20
-1.55968
 11
2.38893
 21
-1.55637
  0
LINE
  8
0
 10
2.38893
 20
-1.55637
 11
2.38977
 21
-1.55309
  0
LINE
  8
0
 10
2.38977
 20
-1.55309
 11
2.39075
 21
-1.54985
  0
LINE
  8
0
 10
2.39075
 20
-1.54985
 11
2.39186
 21
-1.54666
  0
LINE
  8
0
 10
2.39186
 20
-1.54666
 11
2.39311
 21
-1.54352
  0
LINE
  8
0
 10
2.39311
 20
-1.54352
 11
2.39449
 21
-1.54044
  0
LINE
  8
0
 10
2.39449
 20
-1.54044
 11
2.396
 21
-1.5374
  0
LINE
  8
0
 10
2.396
 20
-1.5374
 11
2.39761
 21
-1.53444
  0
LINE
  8
0
 10
2.39761
 20
-1.53444
 11
2.39937
 21
-1.53156
  0
LINE
  8
0
 10
2.39937
 20
-1.53156
 11
2.40125
 21
-1.52873
  0
LINE
  8
0
 10
2.40125
 20
-1.52873
 11
2.40323
 21
-1.526
  0
LINE
  8
0
 10
2.40323
 20
-1.526
 11
2.40532
 21
-1.52335
  0
LINE
  8
0
 10
2.40532
 20
-1.52335
 11
2.40753
 21
-1.5208
  0
LINE
  8
0
 10
2.40753
 20
-1.5208
 11
2.40985
 21
-1.51833
  0
LINE
  8
0
 10
2.40985
 20
-1.51833
 11
2.41226
 21
-1.51596
  0
LINE
  8
0
 10
2.41226
 20
-1.51596
 11
2.41478
 21
-1.5137
  0
LINE
  8
0
 10
2.41478
 20
-1.5137
 11
2.41737
 21
-1.51155
  0
LINE
  8
0
 10
2.41737
 20
-1.51155
 11
2.42007
 21
-1.50951
  0
LINE
  8
0
 10
2.42007
 20
-1.50951
 11
2.42285
 21
-1.50757
  0
LINE
  8
0
 10
2.42285
 20
-1.50757
 11
2.4257
 21
-1.50575
  0
LINE
  8
0
 10
2.4257
 20
-1.50575
 11
2.42863
 21
-1.50407
  0
LINE
  8
0
 10
2.42863
 20
-1.50407
 11
2.43163
 21
-1.5025
  0
LINE
  8
0
 10
2.43163
 20
-1.5025
 11
2.43469
 21
-1.50107
  0
LINE
  8
0
 10
2.43469
 20
-1.50107
 11
2.43781
 21
-1.49976
  0
LINE
  8
0
 10
2.43781
 20
-1.49976
 11
2.44096
 21
-1.49858
  0
LINE
  8
0
 10
2.44096
 20
-1.49858
 11
2.44418
 21
-1.49753
  0
LINE
  8
0
 10
2.44418
 20
-1.49753
 11
2.44745
 21
-1.49663
  0
LINE
  8
0
 10
2.44745
 20
-1.49663
 11
2.45073
 21
-1.49585
  0
LINE
  8
0
 10
2.45073
 20
-1.49585
 11
2.45406
 21
-1.49522
  0
LINE
  8
0
 10
2.45406
 20
-1.49522
 11
2.4574
 21
-1.49472
  0
LINE
  8
0
 10
2.4574
 20
-1.49472
 11
2.46075
 21
-1.49437
  0
LINE
  8
0
 10
2.46075
 20
-1.49437
 11
2.46413
 21
-1.49416
  0
LINE
  8
0
 10
2.46413
 20
-1.49416
 11
2.46751
 21
-1.49408
  0
LINE
  8
0
 10
2.46751
 20
-1.49408
 11
2.47089
 21
-1.49416
  0
LINE
  8
0
 10
2.47089
 20
-1.49416
 11
2.47426
 21
-1.49437
  0
LINE
  8
0
 10
2.47426
 20
-1.49437
 11
2.47763
 21
-1.49472
  0
LINE
  8
0
 10
2.47763
 20
-1.49472
 11
2.48097
 21
-1.49522
  0
LINE
  8
0
 10
2.48097
 20
-1.49522
 11
2.4843
 21
-1.49585
  0
LINE
  8
0
 10
2.4843
 20
-1.49585
 11
2.48758
 21
-1.49663
  0
LINE
  8
0
 10
2.48758
 20
-1.49663
 11
2.49084
 21
-1.49753
  0
LINE
  8
0
 10
2.49084
 20
-1.49753
 11
2.49405
 21
-1.49858
  0
LINE
  8
0
 10
2.49405
 20
-1.49858
 11
2.49722
 21
-1.49976
  0
LINE
  8
0
 10
2.49722
 20
-1.49976
 11
2.50034
 21
-1.50107
  0
LINE
  8
0
 10
2.50034
 20
-1.50107
 11
2.5034
 21
-1.5025
  0
LINE
  8
0
 10
2.5034
 20
-1.5025
 11
2.50639
 21
-1.50407
  0
LINE
  8
0
 10
2.50639
 20
-1.50407
 11
2.50932
 21
-1.50575
  0
LINE
  8
0
 10
2.50932
 20
-1.50575
 11
2.51218
 21
-1.50757
  0
LINE
  8
0
 10
2.51218
 20
-1.50757
 11
2.51495
 21
-1.50951
  0
LINE
  8
0
 10
2.51495
 20
-1.50951
 11
2.51764
 21
-1.51155
  0
LINE
  8
0
 10
2.51764
 20
-1.51155
 11
2.52025
 21
-1.5137
  0
LINE
  8
0
 10
2.52025
 20
-1.5137
 11
2.52277
 21
-1.51596
  0
LINE
  8
0
 10
2.52277
 20
-1.51596
 11
2.52518
 21
-1.51833
  0
LINE
  8
0
 10
2.52518
 20
-1.51833
 11
2.5275
 21
-1.5208
  0
LINE
  8
0
 10
2.5275
 20
-1.5208
 11
2.52969
 21
-1.52335
  0
LINE
  8
0
 10
2.52969
 20
-1.52335
 11
2.5318
 21
-1.526
  0
LINE
  8
0
 10
2.5318
 20
-1.526
 11
2.53378
 21
-1.52873
  0
LINE
  8
0
 10
2.53378
 20
-1.52873
 11
2.53566
 21
-1.53156
  0
LINE
  8
0
 10
2.53566
 20
-1.53156
 11
2.53741
 21
-1.53444
  0
LINE
  8
0
 10
2.53741
 20
-1.53444
 11
2.53903
 21
-1.5374
  0
LINE
  8
0
 10
2.53903
 20
-1.5374
 11
2.54054
 21
-1.54044
  0
LINE
  8
0
 10
2.54054
 20
-1.54044
 11
2.54192
 21
-1.54352
  0
LINE
  8
0
 10
2.54192
 20
-1.54352
 11
2.54315
 21
-1.54666
  0
LINE
  8
0
 10
2.54315
 20
-1.54666
 11
2.54427
 21
-1.54985
  0
LINE
  8
0
 10
2.54427
 20
-1.54985
 11
2.54524
 21
-1.55309
  0
LINE
  8
0
 10
2.54524
 20
-1.55309
 11
2.54608
 21
-1.55637
  0
LINE
  8
0
 10
2.54608
 20
-1.55637
 11
2.5468
 21
-1.55968
  0
LINE
  8
0
 10
2.5468
 20
-1.55968
 11
2.54735
 21
-1.563
  0
LINE
  8
0
 10
2.54735
 20
-1.563
 11
2.54778
 21
-1.56636
  0
LINE
  8
0
 10
2.54778
 20
-1.56636
 11
2.54807
 21
-1.56973
  0
LINE
  8
0
 10
2.54807
 20
-1.56973
 11
2.5482
 21
-1.5731
  0
LINE
  8
0
 10
2.5482
 20
-1.5731
 11
2.5482
 21
-1.57649
  0
LINE
  8
0
 10
2.5482
 20
-1.57649
 11
2.54807
 21
-1.57986
  0
LINE
  8
0
 10
2.54807
 20
-1.57986
 11
2.54778
 21
-1.58324
  0
LINE
  8
0
 10
2.54778
 20
-1.58324
 11
2.54735
 21
-1.58658
  0
LINE
  8
0
 10
2.54735
 20
-1.58658
 11
2.5468
 21
-1.58992
  0
LINE
  8
0
 10
2.5468
 20
-1.58992
 11
2.54608
 21
-1.59323
  0
LINE
  8
0
 10
2.54608
 20
-1.59323
 11
2.54524
 21
-1.5965
  0
LINE
  8
0
 10
2.54524
 20
-1.5965
 11
2.54427
 21
-1.59973
  0
LINE
  8
0
 10
2.54427
 20
-1.59973
 11
2.54315
 21
-1.60294
  0
LINE
  8
0
 10
2.54315
 20
-1.60294
 11
2.54192
 21
-1.60606
  0
LINE
  8
0
 10
2.54192
 20
-1.60606
 11
2.54054
 21
-1.60916
  0
LINE
  8
0
 10
2.54054
 20
-1.60916
 11
2.53903
 21
-1.61218
  0
LINE
  8
0
 10
2.53903
 20
-1.61218
 11
2.53741
 21
-1.61514
  0
LINE
  8
0
 10
2.53741
 20
-1.61514
 11
2.53566
 21
-1.61804
  0
LINE
  8
0
 10
2.53566
 20
-1.61804
 11
2.53378
 21
-1.62085
  0
LINE
  8
0
 10
2.53378
 20
-1.62085
 11
2.5318
 21
-1.6236
  0
LINE
  8
0
 10
2.5318
 20
-1.6236
 11
2.52969
 21
-1.62624
  0
LINE
  8
0
 10
2.52969
 20
-1.62624
 11
2.5275
 21
-1.6288
  0
LINE
  8
0
 10
2.5275
 20
-1.6288
 11
2.52518
 21
-1.63127
  0
LINE
  8
0
 10
2.52518
 20
-1.63127
 11
2.52277
 21
-1.63364
  0
LINE
  8
0
 10
2.52277
 20
-1.63364
 11
2.52025
 21
-1.63589
  0
LINE
  8
0
 10
2.52025
 20
-1.63589
 11
2.51764
 21
-1.63805
  0
LINE
  8
0
 10
2.51764
 20
-1.63805
 11
2.51495
 21
-1.64009
  0
LINE
  8
0
 10
2.51495
 20
-1.64009
 11
2.51218
 21
-1.64201
  0
LINE
  8
0
 10
2.51218
 20
-1.64201
 11
2.50932
 21
-1.64383
  0
LINE
  8
0
 10
2.50932
 20
-1.64383
 11
2.50639
 21
-1.64552
  0
LINE
  8
0
 10
2.50639
 20
-1.64552
 11
2.5034
 21
-1.64709
  0
LINE
  8
0
 10
2.5034
 20
-1.64709
 11
2.50034
 21
-1.64853
  0
LINE
  8
0
 10
2.50034
 20
-1.64853
 11
2.49722
 21
-1.64984
  0
LINE
  8
0
 10
2.49722
 20
-1.64984
 11
2.49405
 21
-1.65102
  0
LINE
  8
0
 10
2.49405
 20
-1.65102
 11
2.49084
 21
-1.65205
  0
LINE
  8
0
 10
2.49084
 20
-1.65205
 11
2.48758
 21
-1.65297
  0
LINE
  8
0
 10
2.48758
 20
-1.65297
 11
2.4843
 21
-1.65375
  0
LINE
  8
0
 10
2.4843
 20
-1.65375
 11
2.48097
 21
-1.65437
  0
LINE
  8
0
 10
2.48097
 20
-1.65437
 11
2.47763
 21
-1.65486
  0
LINE
  8
0
 10
2.47763
 20
-1.65486
 11
2.47426
 21
-1.65523
  0
LINE
  8
0
 10
2.47426
 20
-1.65523
 11
2.47089
 21
-1.65543
  0
LINE
  8
0
 10
2.47089
 20
-1.65543
 11
2.46751
 21
-1.6555
  0
LINE
  8
0
 10
2.46751
 20
-1.6555
 11
2.46413
 21
-1.65543
  0
LINE
  8
0
 10
-2.47089
 20
-1.65543
 11
-2.47426
 21
-1.65523
  0
LINE
  8
0
 10
-2.47426
 20
-1.65523
 11
-2.47763
 21
-1.65486
  0
LINE
  8
0
 10
-2.47763
 20
-1.65486
 11
-2.48097
 21
-1.65437
  0
LINE
  8
0
 10
-2.48097
 20
-1.65437
 11
-2.4843
 21
-1.65375
  0
LINE
  8
0
 10
-2.4843
 20
-1.65375
 11
-2.48758
 21
-1.65297
  0
LINE
  8
0
 10
-2.48758
 20
-1.65297
 11
-2.49084
 21
-1.65205
  0
LINE
  8
0
 10
-2.49084
 20
-1.65205
 11
-2.49405
 21
-1.65102
  0
LINE
  8
0
 10
-2.49405
 20
-1.65102
 11
-2.49722
 21
-1.64984
  0
LINE
  8
0
 10
-2.49722
 20
-1.64984
 11
-2.50034
 21
-1.64853
  0
LINE
  8
0
 10
-2.50034
 20
-1.64853
 11
-2.5034
 21
-1.64709
  0
LINE
  8
0
 10
-2.5034
 20
-1.64709
 11
-2.50639
 21
-1.64552
  0
LINE
  8
0
 10
-2.50639
 20
-1.64552
 11
-2.50932
 21
-1.64383
  0
LINE
  8
0
 10
-2.50932
 20
-1.64383
 11
-2.51218
 21
-1.64201
  0
LINE
  8
0
 10
-2.51218
 20
-1.64201
 11
-2.51495
 21
-1.64009
  0
LINE
  8
0
 10
-2.51495
 20
-1.64009
 11
-2.51764
 21
-1.63805
  0
LINE
  8
0
 10
-2.51764
 20
-1.63805
 11
-2.52025
 21
-1.63589
  0
LINE
  8
0
 10
-2.52025
 20
-1.63589
 11
-2.52277
 21
-1.63364
  0
LINE
  8
0
 10
-2.52277
 20
-1.63364
 11
-2.52518
 21
-1.63127
  0
LINE
  8
0
 10
-2.52518
 20
-1.63127
 11
-2.5275
 21
-1.6288
  0
LINE
  8
0
 10
-2.5275
 20
-1.6288
 11
-2.52969
 21
-1.62624
  0
LINE
  8
0
 10
-2.52969
 20
-1.62624
 11
-2.5318
 21
-1.6236
  0
LINE
  8
0
 10
-2.5318
 20
-1.6236
 11
-2.53378
 21
-1.62085
  0
LINE
  8
0
 10
-2.53378
 20
-1.62085
 11
-2.53566
 21
-1.61804
  0
LINE
  8
0
 10
-2.53566
 20
-1.61804
 11
-2.53741
 21
-1.61514
  0
LINE
  8
0
 10
-2.53741
 20
-1.61514
 11
-2.53903
 21
-1.61218
  0
LINE
  8
0
 10
-2.53903
 20
-1.61218
 11
-2.54054
 21
-1.60916
  0
LINE
  8
0
 10
-2.54054
 20
-1.60916
 11
-2.54192
 21
-1.60606
  0
LINE
  8
0
 10
-2.54192
 20
-1.60606
 11
-2.54315
 21
-1.60294
  0
LINE
  8
0
 10
-2.54315
 20
-1.60294
 11
-2.54427
 21
-1.59973
  0
LINE
  8
0
 10
-2.54427
 20
-1.59973
 11
-2.54524
 21
-1.5965
  0
LINE
  8
0
 10
-2.54524
 20
-1.5965
 11
-2.54608
 21
-1.59323
  0
LINE
  8
0
 10
-2.54608
 20
-1.59323
 11
-2.5468
 21
-1.58992
  0
LINE
  8
0
 10
-2.5468
 20
-1.58992
 11
-2.54735
 21
-1.58658
  0
LINE
  8
0
 10
-2.54735
 20
-1.58658
 11
-2.54778
 21
-1.58324
  0
LINE
  8
0
 10
-2.54778
 20
-1.58324
 11
-2.54807
 21
-1.57986
  0
LINE
  8
0
 10
-2.54807
 20
-1.57986
 11
-2.5482
 21
-1.57649
  0
LINE
  8
0
 10
-2.5482
 20
-1.57649
 11
-2.5482
 21
-1.5731
  0
LINE
  8
0
 10
-2.5482
 20
-1.5731
 11
-2.54807
 21
-1.56973
  0
LINE
  8
0
 10
-2.54807
 20
-1.56973
 11
-2.54778
 21
-1.56636
  0
LINE
  8
0
 10
-2.54778
 20
-1.56636
 11
-2.54735
 21
-1.563
  0
LINE
  8
0
 10
-2.54735
 20
-1.563
 11
-2.5468
 21
-1.55968
  0
LINE
  8
0
 10
-2.5468
 20
-1.55968
 11
-2.54608
 21
-1.55637
  0
LINE
  8
0
 10
-2.54608
 20
-1.55637
 11
-2.54524
 21
-1.55309
  0
LINE
  8
0
 10
-2.54524
 20
-1.55309
 11
-2.54427
 21
-1.54985
  0
LINE
  8
0
 10
-2.54427
 20
-1.54985
 11
-2.54315
 21
-1.54666
  0
LINE
  8
0
 10
-2.54315
 20
-1.54666
 11
-2.54192
 21
-1.54352
  0
LINE
  8
0
 10
-2.54192
 20
-1.54352
 11
-2.54054
 21
-1.54044
  0
LINE
  8
0
 10
-2.54054
 20
-1.54044
 11
-2.53903
 21
-1.5374
  0
LINE
  8
0
 10
-2.53903
 20
-1.5374
 11
-2.53741
 21
-1.53444
  0
LINE
  8
0
 10
-2.53741
 20
-1.53444
 11
-2.53566
 21
-1.53156
  0
LINE
  8
0
 10
-2.53566
 20
-1.53156
 11
-2.53378
 21
-1.52873
  0
LINE
  8
0
 10
-2.53378
 20
-1.52873
 11
-2.5318
 21
-1.526
  0
LINE
  8
0
 10
-2.5318
 20
-1.526
 11
-2.52969
 21
-1.52335
  0
LINE
  8
0
 10
-2.52969
 20
-1.52335
 11
-2.5275
 21
-1.5208
  0
LINE
  8
0
 10
-2.5275
 20
-1.5208
 11
-2.52518
 21
-1.51833
  0
LINE
  8
0
 10
-2.52518
 20
-1.51833
 11
-2.52277
 21
-1.51596
  0
LINE
  8
0
 10
-2.52277
 20
-1.51596
 11
-2.52025
 21
-1.5137
  0
LINE
  8
0
 10
-2.52025
 20
-1.5137
 11
-2.51764
 21
-1.51155
  0
LINE
  8
0
 10
-2.51764
 20
-1.51155
 11
-2.51495
 21
-1.50951
  0
LINE
  8
0
 10
-2.51495
 20
-1.50951
 11
-2.51218
 21
-1.50757
  0
LINE
  8
0
 10
-2.51218
 20
-1.50757
 11
-2.50932
 21
-1.50575
  0
LINE
  8
0
 10
-2.50932
 20
-1.50575
 11
-2.50639
 21
-1.50407
  0
LINE
  8
0
 10
-2.50639
 20
-1.50407
 11
-2.5034
 21
-1.5025
  0
LINE
  8
0
 10
-2.5034
 20
-1.5025
 11
-2.50034
 21
-1.50107
  0
LINE
  8
0
 10
-2.50034
 20
-1.50107
 11
-2.49722
 21
-1.49976
  0
LINE
  8
0
 10
-2.49722
 20
-1.49976
 11
-2.49405
 21
-1.49858
  0
LINE
  8
0
 10
-2.49405
 20
-1.49858
 11
-2.49084
 21
-1.49753
  0
LINE
  8
0
 10
-2.49084
 20
-1.49753
 11
-2.48758
 21
-1.49663
  0
LINE
  8
0
 10
-2.48758
 20
-1.49663
 11
-2.4843
 21
-1.49585
  0
LINE
  8
0
 10
-2.4843
 20
-1.49585
 11
-2.48097
 21
-1.49522
  0
LINE
  8
0
 10
-2.48097
 20
-1.49522
 11
-2.47763
 21
-1.49472
  0
LINE
  8
0
 10
-2.47763
 20
-1.49472
 11
-2.47426
 21
-1.49437
  0
LINE
  8
0
 10
-2.47426
 20
-1.49437
 11
-2.47089
 21
-1.49416
  0
LINE
  8
0
 10
-2.47089
 20
-1.49416
 11
-2.46751
 21
-1.49408
  0
LINE
  8
0
 10
-2.46751
 20
-1.49408
 11
-2.46413
 21
-1.49416
  0
LINE
  8
0
 10
-2.46413
 20
-1.49416
 11
-2.46075
 21
-1.49437
  0
LINE
  8
0
 10
-2.46075
 20
-1.49437
 11
-2.4574
 21
-1.49472
  0
LINE
  8
0
 10
-2.4574
 20
-1.49472
 11
-2.45406
 21
-1.49522
  0
LINE
  8
0
 10
-2.45406
 20
-1.49522
 11
-2.45073
 21
-1.49585
  0
LINE
  8
0
 10
-2.45073
 20
-1.49585
 11
-2.44745
 21
-1.49663
  0
LINE
  8
0
 10
-2.44745
 20
-1.49663
 11
-2.44418
 21
-1.49753
  0
LINE
  8
0
 10
-2.44418
 20
-1.49753
 11
-2.44096
 21
-1.49858
  0
LINE
  8
0
 10
-2.44096
 20
-1.49858
 11
-2.43781
 21
-1.49976
  0
LINE
  8
0
 10
-2.43781
 20
-1.49976
 11
-2.43469
 21
-1.50107
  0
LINE
  8
0
 10
-2.43469
 20
-1.50107
 11
-2.43163
 21
-1.5025
  0
LINE
  8
0
 10
-2.43163
 20
-1.5025
 11
-2.42863
 21
-1.50407
  0
LINE
  8
0
 10
-2.42863
 20
-1.50407
 11
-2.4257
 21
-1.50575
  0
LINE
  8
0
 10
-2.4257
 20
-1.50575
 11
-2.42285
 21
-1.50757
  0
LINE
  8
0
 10
-2.42285
 20
-1.50757
 11
-2.42007
 21
-1.50951
  0
LINE
  8
0
 10
-2.42007
 20
-1.50951
 11
-2.41737
 21
-1.51155
  0
LINE
  8
0
 10
-2.41737
 20
-1.51155
 11
-2.41478
 21
-1.5137
  0
LINE
  8
0
 10
-2.41478
 20
-1.5137
 11
-2.41226
 21
-1.51596
  0
LINE
  8
0
 10
-2.41226
 20
-1.51596
 11
-2.40985
 21
-1.51833
  0
LINE
  8
0
 10
-2.40985
 20
-1.51833
 11
-2.40753
 21
-1.5208
  0
LINE
  8
0
 10
-2.40753
 20
-1.5208
 11
-2.40532
 21
-1.52335
  0
LINE
  8
0
 10
-2.40532
 20
-1.52335
 11
-2.40323
 21
-1.526
  0
LINE
  8
0
 10
-2.40323
 20
-1.526
 11
-2.40125
 21
-1.52873
  0
LINE
  8
0
 10
-2.40125
 20
-1.52873
 11
-2.39937
 21
-1.53156
  0
LINE
  8
0
 10
-2.39937
 20
-1.53156
 11
-2.39761
 21
-1.53444
  0
LINE
  8
0
 10
-2.39761
 20
-1.53444
 11
-2.396
 21
-1.5374
  0
LINE
  8
0
 10
-2.396
 20
-1.5374
 11
-2.39449
 21
-1.54044
  0
LINE
  8
0
 10
-2.39449
 20
-1.54044
 11
-2.39311
 21
-1.54352
  0
LINE
  8
0
 10
-2.39311
 20
-1.54352
 11
-2.39186
 21
-1.54666
  0
LINE
  8
0
 10
-2.39186
 20
-1.54666
 11
-2.39075
 21
-1.54985
  0
LINE
  8
0
 10
-2.39075
 20
-1.54985
 11
-2.38977
 21
-1.55309
  0
LINE
  8
0
 10
-2.38977
 20
-1.55309
 11
-2.38893
 21
-1.55637
  0
LINE
  8
0
 10
-2.38893
 20
-1.55637
 11
-2.38823
 21
-1.55968
  0
LINE
  8
0
 10
-2.38823
 20
-1.55968
 11
-2.38766
 21
-1.563
  0
LINE
  8
0
 10
-2.38766
 20
-1.563
 11
-2.38725
 21
-1.56636
  0
LINE
  8
0
 10
-2.38725
 20
-1.56636
 11
-2.38696
 21
-1.56973
  0
LINE
  8
0
 10
-2.38696
 20
-1.56973
 11
-2.38683
 21
-1.5731
  0
LINE
  8
0
 10
-2.38683
 20
-1.5731
 11
-2.38683
 21
-1.57649
  0
LINE
  8
0
 10
-2.38683
 20
-1.57649
 11
-2.38696
 21
-1.57986
  0
LINE
  8
0
 10
-2.38696
 20
-1.57986
 11
-2.38725
 21
-1.58324
  0
LINE
  8
0
 10
-2.38725
 20
-1.58324
 11
-2.38766
 21
-1.58658
  0
LINE
  8
0
 10
-2.38766
 20
-1.58658
 11
-2.38823
 21
-1.58992
  0
LINE
  8
0
 10
-2.38823
 20
-1.58992
 11
-2.38893
 21
-1.59323
  0
LINE
  8
0
 10
-2.38893
 20
-1.59323
 11
-2.38977
 21
-1.5965
  0
LINE
  8
0
 10
-2.38977
 20
-1.5965
 11
-2.39075
 21
-1.59973
  0
LINE
  8
0
 10
-2.39075
 20
-1.59973
 11
-2.39186
 21
-1.60294
  0
LINE
  8
0
 10
-2.39186
 20
-1.60294
 11
-2.39311
 21
-1.60606
  0
LINE
  8
0
 10
-2.39311
 20
-1.60606
 11
-2.39449
 21
-1.60916
  0
LINE
  8
0
 10
-2.39449
 20
-1.60916
 11
-2.396
 21
-1.61218
  0
LINE
  8
0
 10
-2.396
 20
-1.61218
 11
-2.39761
 21
-1.61514
  0
LINE
  8
0
 10
-2.39761
 20
-1.61514
 11
-2.39937
 21
-1.61804
  0
LINE
  8
0
 10
-2.39937
 20
-1.61804
 11
-2.40125
 21
-1.62085
  0
LINE
  8
0
 10
-2.40125
 20
-1.62085
 11
-2.40323
 21
-1.6236
  0
LINE
  8
0
 10
-2.40323
 20
-1.6236
 11
-2.40532
 21
-1.62624
  0
LINE
  8
0
 10
-2.40532
 20
-1.62624
 11
-2.40753
 21
-1.6288
  0
LINE
  8
0
 10
-2.40753
 20
-1.6288
 11
-2.40985
 21
-1.63127
  0
LINE
  8
0
 10
-2.40985
 20
-1.63127
 11
-2.41226
 21
-1.63364
  0
LINE
  8
0
 10
-2.41226
 20
-1.63364
 11
-2.41478
 21
-1.63589
  0
LINE
  8
0
 10
-2.41478
 20
-1.63589
 11
-2.41737
 21
-1.63805
  0
LINE
  8
0
 10
-2.41737
 20
-1.63805
 11
-2.42007
 21
-1.64009
  0
LINE
  8
0
 10
-2.42007
 20
-1.64009
 11
-2.42285
 21
-1.64201
  0
LINE
  8
0
 10
-2.42285
 20
-1.64201
 11
-2.4257
 21
-1.64383
  0
LINE
  8
0
 10
-2.4257
 20
-1.64383
 11
-2.42863
 21
-1.64552
  0
LINE
  8
0
 10
-2.42863
 20
-1.64552
 11
-2.43163
 21
-1.64709
  0
LINE
  8
0
 10
-2.43163
 20
-1.64709
 11
-2.43469
 21
-1.64853
  0
LINE
  8
0
 10
-2.43469
 20
-1.64853
 11
-2.43781
 21
-1.64984
  0
LINE
  8
0
 10
-2.43781
 20
-1.64984
 11
-2.44096
 21
-1.65102
  0
LINE
  8
0
 10
-2.44096
 20
-1.65102
 11
-2.44418
 21
-1.65205
  0
LINE
  8
0
 10
-2.44418
 20
-1.65205
 11
-2.44745
 21
-1.65297
  0
LINE
  8
0
 10
-2.44745
 20
-1.65297
 11
-2.45073
 21
-1.65375
  0
LINE
  8
0
 10
-2.45073
 20
-1.65375
 11
-2.45406
 21
-1.65437
  0
LINE
  8
0
 10
-2.45406
 20
-1.65437
 11
-2.4574
 21
-1.65486
  0
LINE
  8
0
 10
-2.4574
 20
-1.65486
 11
-2.46075
 21
-1.65523
  0
LINE
  8
0
 10
-2.46075
 20
-1.65523
 11
-2.46413
 21
-1.65543
  0
LINE
  8
0
 10
-2.46413
 20
-1.65543
 11
-2.46751
 21
-1.6555
  0
LINE
  8
0
 10
-2.46751
 20
-1.6555
 11
-2.47089
 21
-1.65543
  0
LINE
  8
0
 10
-2.47089
 20
-2.28535
 11
-2.47426
 21
-2.28514
  0
LINE
  8
0
 10
-2.47426
 20
-2.28514
 11
-2.47763
 21
-2.28479
  0
LINE
  8
0
 10
-2.47763
 20
-2.28479
 11
-2.48097
 21
-2.2843
  0
LINE
  8
0
 10
-2.48097
 20
-2.2843
 11
-2.4843
 21
-2.28366
  0
LINE
  8
0
 10
-2.4843
 20
-2.28366
 11
-2.48758
 21
-2.28288
  0
LINE
  8
0
 10
-2.48758
 20
-2.28288
 11
-2.49084
 21
-2.28198
  0
LINE
  8
0
 10
-2.49084
 20
-2.28198
 11
-2.49405
 21
-2.28093
  0
LINE
  8
0
 10
-2.49405
 20
-2.28093
 11
-2.49722
 21
-2.27975
  0
LINE
  8
0
 10
-2.49722
 20
-2.27975
 11
-2.50034
 21
-2.27844
  0
LINE
  8
0
 10
-2.50034
 20
-2.27844
 11
-2.5034
 21
-2.27701
  0
LINE
  8
0
 10
-2.5034
 20
-2.27701
 11
-2.50639
 21
-2.27544
  0
LINE
  8
0
 10
-2.50639
 20
-2.27544
 11
-2.50932
 21
-2.27376
  0
LINE
  8
0
 10
-2.50932
 20
-2.27376
 11
-2.51218
 21
-2.27194
  0
LINE
  8
0
 10
-2.51218
 20
-2.27194
 11
-2.51495
 21
-2.27
  0
LINE
  8
0
 10
-2.51495
 20
-2.27
 11
-2.51764
 21
-2.26797
  0
LINE
  8
0
 10
-2.51764
 20
-2.26797
 11
-2.52025
 21
-2.26581
  0
LINE
  8
0
 10
-2.52025
 20
-2.26581
 11
-2.52277
 21
-2.26355
  0
LINE
  8
0
 10
-2.52277
 20
-2.26355
 11
-2.52518
 21
-2.26118
  0
LINE
  8
0
 10
-2.52518
 20
-2.26118
 11
-2.5275
 21
-2.25873
  0
LINE
  8
0
 10
-2.5275
 20
-2.25873
 11
-2.52969
 21
-2.25616
  0
LINE
  8
0
 10
-2.52969
 20
-2.25616
 11
-2.5318
 21
-2.25351
  0
LINE
  8
0
 10
-2.5318
 20
-2.25351
 11
-2.53378
 21
-2.25078
  0
LINE
  8
0
 10
-2.53378
 20
-2.25078
 11
-2.53566
 21
-2.24796
  0
LINE
  8
0
 10
-2.53566
 20
-2.24796
 11
-2.53741
 21
-2.24507
  0
LINE
  8
0
 10
-2.53741
 20
-2.24507
 11
-2.53903
 21
-2.24211
  0
LINE
  8
0
 10
-2.53903
 20
-2.24211
 11
-2.54054
 21
-2.23907
  0
LINE
  8
0
 10
-2.54054
 20
-2.23907
 11
-2.54192
 21
-2.23599
  0
LINE
  8
0
 10
-2.54192
 20
-2.23599
 11
-2.54315
 21
-2.23285
  0
LINE
  8
0
 10
-2.54315
 20
-2.23285
 11
-2.54427
 21
-2.22966
  0
LINE
  8
0
 10
-2.54427
 20
-2.22966
 11
-2.54524
 21
-2.22643
  0
LINE
  8
0
 10
-2.54524
 20
-2.22643
 11
-2.54608
 21
-2.22314
  0
LINE
  8
0
 10
-2.54608
 20
-2.22314
 11
-2.5468
 21
-2.21983
  0
LINE
  8
0
 10
-2.5468
 20
-2.21983
 11
-2.54735
 21
-2.21651
  0
LINE
  8
0
 10
-2.54735
 20
-2.21651
 11
-2.54778
 21
-2.21315
  0
LINE
  8
0
 10
-2.54778
 20
-2.21315
 11
-2.54807
 21
-2.20978
  0
LINE
  8
0
 10
-2.54807
 20
-2.20978
 11
-2.5482
 21
-2.20641
  0
LINE
  8
0
 10
-2.5482
 20
-2.20641
 11
-2.5482
 21
-2.20303
  0
LINE
  8
0
 10
-2.5482
 20
-2.20303
 11
-2.54807
 21
-2.19965
  0
LINE
  8
0
 10
-2.54807
 20
-2.19965
 11
-2.54778
 21
-2.19627
  0
LINE
  8
0
 10
-2.54778
 20
-2.19627
 11
-2.54735
 21
-2.19293
  0
LINE
  8
0
 10
-2.54735
 20
-2.19293
 11
-2.5468
 21
-2.18959
  0
LINE
  8
0
 10
-2.5468
 20
-2.18959
 11
-2.54608
 21
-2.18628
  0
LINE
  8
0
 10
-2.54608
 20
-2.18628
 11
-2.54524
 21
-2.18301
  0
LINE
  8
0
 10
-2.54524
 20
-2.18301
 11
-2.54427
 21
-2.17978
  0
LINE
  8
0
 10
-2.54427
 20
-2.17978
 11
-2.54315
 21
-2.17659
  0
LINE
  8
0
 10
-2.54315
 20
-2.17659
 11
-2.54192
 21
-2.17345
  0
LINE
  8
0
 10
-2.54192
 20
-2.17345
 11
-2.54054
 21
-2.17035
  0
LINE
  8
0
 10
-2.54054
 20
-2.17035
 11
-2.53903
 21
-2.16733
  0
LINE
  8
0
 10
-2.53903
 20
-2.16733
 11
-2.53741
 21
-2.16437
  0
LINE
  8
0
 10
-2.53741
 20
-2.16437
 11
-2.53566
 21
-2.16147
  0
LINE
  8
0
 10
-2.53566
 20
-2.16147
 11
-2.53378
 21
-2.15866
  0
LINE
  8
0
 10
-2.53378
 20
-2.15866
 11
-2.5318
 21
-2.15591
  0
LINE
  8
0
 10
-2.5318
 20
-2.15591
 11
-2.52969
 21
-2.15327
  0
LINE
  8
0
 10
-2.52969
 20
-2.15327
 11
-2.5275
 21
-2.15071
  0
LINE
  8
0
 10
-2.5275
 20
-2.15071
 11
-2.52518
 21
-2.14825
  0
LINE
  8
0
 10
-2.52518
 20
-2.14825
 11
-2.52277
 21
-2.14589
  0
LINE
  8
0
 10
-2.52277
 20
-2.14589
 11
-2.52025
 21
-2.14362
  0
LINE
  8
0
 10
-2.52025
 20
-2.14362
 11
-2.51764
 21
-2.14146
  0
LINE
  8
0
 10
-2.51764
 20
-2.14146
 11
-2.51495
 21
-2.13942
  0
LINE
  8
0
 10
-2.51495
 20
-2.13942
 11
-2.51218
 21
-2.1375
  0
LINE
  8
0
 10
-2.51218
 20
-2.1375
 11
-2.50932
 21
-2.13568
  0
LINE
  8
0
 10
-2.50932
 20
-2.13568
 11
-2.50639
 21
-2.13399
  0
LINE
  8
0
 10
-2.50639
 20
-2.13399
 11
-2.5034
 21
-2.13243
  0
LINE
  8
0
 10
-2.5034
 20
-2.13243
 11
-2.50034
 21
-2.13098
  0
LINE
  8
0
 10
-2.50034
 20
-2.13098
 11
-2.49722
 21
-2.12967
  0
LINE
  8
0
 10
-2.49722
 20
-2.12967
 11
-2.49405
 21
-2.12849
  0
LINE
  8
0
 10
-2.49405
 20
-2.12849
 11
-2.49084
 21
-2.12746
  0
LINE
  8
0
 10
-2.49084
 20
-2.12746
 11
-2.48758
 21
-2.12654
  0
LINE
  8
0
 10
-2.48758
 20
-2.12654
 11
-2.4843
 21
-2.12578
  0
LINE
  8
0
 10
-2.4843
 20
-2.12578
 11
-2.48097
 21
-2.12514
  0
LINE
  8
0
 10
-2.48097
 20
-2.12514
 11
-2.47763
 21
-2.12465
  0
LINE
  8
0
 10
-2.47763
 20
-2.12465
 11
-2.47426
 21
-2.1243
  0
LINE
  8
0
 10
-2.47426
 20
-2.1243
 11
-2.47089
 21
-2.12408
  0
LINE
  8
0
 10
-2.47089
 20
-2.12408
 11
-2.46751
 21
-2.12401
  0
LINE
  8
0
 10
-2.46751
 20
-2.12401
 11
-2.46413
 21
-2.12408
  0
LINE
  8
0
 10
-2.46413
 20
-2.12408
 11
-2.46075
 21
-2.1243
  0
LINE
  8
0
 10
-2.46075
 20
-2.1243
 11
-2.4574
 21
-2.12465
  0
LINE
  8
0
 10
-2.4574
 20
-2.12465
 11
-2.45406
 21
-2.12514
  0
LINE
  8
0
 10
-2.45406
 20
-2.12514
 11
-2.45073
 21
-2.12578
  0
LINE
  8
0
 10
-2.45073
 20
-2.12578
 11
-2.44745
 21
-2.12654
  0
LINE
  8
0
 10
-2.44745
 20
-2.12654
 11
-2.44418
 21
-2.12746
  0
LINE
  8
0
 10
-2.44418
 20
-2.12746
 11
-2.44096
 21
-2.12849
  0
LINE
  8
0
 10
-2.44096
 20
-2.12849
 11
-2.43781
 21
-2.12967
  0
LINE
  8
0
 10
-2.43781
 20
-2.12967
 11
-2.43469
 21
-2.13098
  0
LINE
  8
0
 10
-2.43469
 20
-2.13098
 11
-2.43163
 21
-2.13243
  0
LINE
  8
0
 10
-2.43163
 20
-2.13243
 11
-2.42863
 21
-2.13399
  0
LINE
  8
0
 10
-2.42863
 20
-2.13399
 11
-2.4257
 21
-2.13568
  0
LINE
  8
0
 10
-2.4257
 20
-2.13568
 11
-2.42285
 21
-2.1375
  0
LINE
  8
0
 10
-2.42285
 20
-2.1375
 11
-2.42007
 21
-2.13942
  0
LINE
  8
0
 10
-2.42007
 20
-2.13942
 11
-2.41737
 21
-2.14146
  0
LINE
  8
0
 10
-2.41737
 20
-2.14146
 11
-2.41478
 21
-2.14362
  0
LINE
  8
0
 10
-2.41478
 20
-2.14362
 11
-2.41226
 21
-2.14589
  0
LINE
  8
0
 10
-2.41226
 20
-2.14589
 11
-2.40985
 21
-2.14825
  0
LINE
  8
0
 10
-2.40985
 20
-2.14825
 11
-2.40753
 21
-2.15071
  0
LINE
  8
0
 10
-2.40753
 20
-2.15071
 11
-2.40532
 21
-2.15327
  0
LINE
  8
0
 10
-2.40532
 20
-2.15327
 11
-2.40323
 21
-2.15591
  0
LINE
  8
0
 10
-2.40323
 20
-2.15591
 11
-2.40125
 21
-2.15866
  0
LINE
  8
0
 10
-2.40125
 20
-2.15866
 11
-2.39937
 21
-2.16147
  0
LINE
  8
0
 10
-2.39937
 20
-2.16147
 11
-2.39761
 21
-2.16437
  0
LINE
  8
0
 10
-2.39761
 20
-2.16437
 11
-2.396
 21
-2.16733
  0
LINE
  8
0
 10
-2.396
 20
-2.16733
 11
-2.39449
 21
-2.17035
  0
LINE
  8
0
 10
-2.39449
 20
-2.17035
 11
-2.39311
 21
-2.17345
  0
LINE
  8
0
 10
-2.39311
 20
-2.17345
 11
-2.39186
 21
-2.17659
  0
LINE
  8
0
 10
-2.39186
 20
-2.17659
 11
-2.39075
 21
-2.17978
  0
LINE
  8
0
 10
-2.39075
 20
-2.17978
 11
-2.38977
 21
-2.18301
  0
LINE
  8
0
 10
-2.38977
 20
-2.18301
 11
-2.38893
 21
-2.18628
  0
LINE
  8
0
 10
-2.38893
 20
-2.18628
 11
-2.38823
 21
-2.18959
  0
LINE
  8
0
 10
-2.38823
 20
-2.18959
 11
-2.38766
 21
-2.19293
  0
LINE
  8
0
 10
-2.38766
 20
-2.19293
 11
-2.38725
 21
-2.19627
  0
LINE
  8
0
 10
-2.38725
 20
-2.19627
 11
-2.38696
 21
-2.19965
  0
LINE
  8
0
 10
-2.38696
 20
-2.19965
 11
-2.38683
 21
-2.20303
  0
LINE
  8
0
 10
-2.38683
 20
-2.20303
 11
-2.38683
 21
-2.20641
  0
LINE
  8
0
 10
-2.38683
 20
-2.20641
 11
-2.38696
 21
-2.20978
  0
LINE
  8
0
 10
-2.38696
 20
-2.20978
 11
-2.38725
 21
-2.21315
  0
LINE
  8
0
 10
-2.38725
 20
-2.21315
 11
-2.38766
 21
-2.21651
  0
LINE
  8
0
 10
-2.38766
 20
-2.21651
 11
-2.38823
 21
-2.21983
  0
LINE
  8
0
 10
-2.38823
 20
-2.21983
 11
-2.38893
 21
-2.22314
  0
LINE
  8
0
 10
-2.38893
 20
-2.22314
 11
-2.38977
 21
-2.22643
  0
LINE
  8
0
 10
-2.38977
 20
-2.22643
 11
-2.39075
 21
-2.22966
  0
LINE
  8
0
 10
-2.39075
 20
-2.22966
 11
-2.39186
 21
-2.23285
  0
LINE
  8
0
 10
-2.39186
 20
-2.23285
 11
-2.39311
 21
-2.23599
  0
LINE
  8
0
 10
-2.39311
 20
-2.23599
 11
-2.39449
 21
-2.23907
  0
LINE
  8
0
 10
-2.39449
 20
-2.23907
 11
-2.396
 21
-2.24211
  0
LINE
  8
0
 10
-2.396
 20
-2.24211
 11
-2.39761
 21
-2.24507
  0
LINE
  8
0
 10
-2.39761
 20
-2.24507
 11
-2.39937
 21
-2.24796
  0
LINE
  8
0
 10
-2.39937
 20
-2.24796
 11
-2.40125
 21
-2.25078
  0
LINE
  8
0
 10
-2.40125
 20
-2.25078
 11
-2.40323
 21
-2.25351
  0
LINE
  8
0
 10
-2.40323
 20
-2.25351
 11
-2.40532
 21
-2.25616
  0
LINE
  8
0
 10
-2.40532
 20
-2.25616
 11
-2.40753
 21
-2.25873
  0
LINE
  8
0
 10
-2.40753
 20
-2.25873
 11
-2.40985
 21
-2.26118
  0
LINE
  8
0
 10
-2.40985
 20
-2.26118
 11
-2.41226
 21
-2.26355
  0
LINE
  8
0
 10
-2.41226
 20
-2.26355
 11
-2.41478
 21
-2.26581
  0
LINE
  8
0
 10
-2.41478
 20
-2.26581
 11
-2.41737
 21
-2.26797
  0
LINE
  8
0
 10
-2.41737
 20
-2.26797
 11
-2.42007
 21
-2.27
  0
LINE
  8
0
 10
-2.42007
 20
-2.27
 11
-2.42285
 21
-2.27194
  0
LINE
  8
0
 10
-2.42285
 20
-2.27194
 11
-2.4257
 21
-2.27376
  0
LINE
  8
0
 10
-2.4257
 20
-2.27376
 11
-2.42863
 21
-2.27544
  0
LINE
  8
0
 10
-2.42863
 20
-2.27544
 11
-2.43163
 21
-2.27701
  0
LINE
  8
0
 10
-2.43163
 20
-2.27701
 11
-2.43469
 21
-2.27844
  0
LINE
  8
0
 10
-2.43469
 20
-2.27844
 11
-2.43781
 21
-2.27975
  0
LINE
  8
0
 10
-2.43781
 20
-2.27975
 11
-2.44096
 21
-2.28093
  0
LINE
  8
0
 10
-2.44096
 20
-2.28093
 11
-2.44418
 21
-2.28198
  0
LINE
  8
0
 10
-2.44418
 20
-2.28198
 11
-2.44745
 21
-2.28288
  0
LINE
  8
0
 10
-2.44745
 20
-2.28288
 11
-2.45073
 21
-2.28366
  0
LINE
  8
0
 10
-2.45073
 20
-2.28366
 11
-2.45406
 21
-2.2843
  0
LINE
  8
0
 10
-2.45406
 20
-2.2843
 11
-2.4574
 21
-2.28479
  0
LINE
  8
0
 10
-2.4574
 20
-2.28479
 11
-2.46075
 21
-2.28514
  0
LINE
  8
0
 10
-2.46075
 20
-2.28514
 11
-2.46413
 21
-2.28535
  0
LINE
  8
0
 10
-2.46413
 20
-2.28535
 11
-2.46751
 21
-2.28543
  0
LINE
  8
0
 10
-2.46751
 20
-2.28543
 11
-2.47089
 21
-2.28535
  0
LINE
  8
0
 10
2.46413
 20
-2.28535
 11
2.46075
 21
-2.28514
  0
LINE
  8
0
 10
2.46075
 20
-2.28514
 11
2.4574
 21
-2.28479
  0
LINE
  8
0
 10
2.4574
 20
-2.28479
 11
2.45406
 21
-2.2843
  0
LINE
  8
0
 10
2.45406
 20
-2.2843
 11
2.45073
 21
-2.28366
  0
LINE
  8
0
 10
2.45073
 20
-2.28366
 11
2.44745
 21
-2.28288
  0
LINE
  8
0
 10
2.44745
 20
-2.28288
 11
2.44418
 21
-2.28198
  0
LINE
  8
0
 10
2.44418
 20
-2.28198
 11
2.44096
 21
-2.28093
  0
LINE
  8
0
 10
2.44096
 20
-2.28093
 11
2.43781
 21
-2.27975
  0
LINE
  8
0
 10
2.43781
 20
-2.27975
 11
2.43469
 21
-2.27844
  0
LINE
  8
0
 10
2.43469
 20
-2.27844
 11
2.43163
 21
-2.27701
  0
LINE
  8
0
 10
2.43163
 20
-2.27701
 11
2.42863
 21
-2.27544
  0
LINE
  8
0
 10
2.42863
 20
-2.27544
 11
2.4257
 21
-2.27376
  0
LINE
  8
0
 10
2.4257
 20
-2.27376
 11
2.42285
 21
-2.27194
  0
LINE
  8
0
 10
2.42285
 20
-2.27194
 11
2.42007
 21
-2.27
  0
LINE
  8
0
 10
2.42007
 20
-2.27
 11
2.41737
 21
-2.26797
  0
LINE
  8
0
 10
2.41737
 20
-2.26797
 11
2.41478
 21
-2.26581
  0
LINE
  8
0
 10
2.41478
 20
-2.26581
 11
2.41226
 21
-2.26355
  0
LINE
  8
0
 10
2.41226
 20
-2.26355
 11
2.40985
 21
-2.26118
  0
LINE
  8
0
 10
2.40985
 20
-2.26118
 11
2.40753
 21
-2.25873
  0
LINE
  8
0
 10
2.40753
 20
-2.25873
 11
2.40532
 21
-2.25616
  0
LINE
  8
0
 10
2.40532
 20
-2.25616
 11
2.40323
 21
-2.25351
  0
LINE
  8
0
 10
2.40323
 20
-2.25351
 11
2.40125
 21
-2.25078
  0
LINE
  8
0
 10
2.40125
 20
-2.25078
 11
2.39937
 21
-2.24796
  0
LINE
  8
0
 10
2.39937
 20
-2.24796
 11
2.39761
 21
-2.24507
  0
LINE
  8
0
 10
2.39761
 20
-2.24507
 11
2.396
 21
-2.24211
  0
LINE
  8
0
 10
2.396
 20
-2.24211
 11
2.39449
 21
-2.23907
  0
LINE
  8
0
 10
2.39449
 20
-2.23907
 11
2.39311
 21
-2.23599
  0
LINE
  8
0
 10
2.39311
 20
-2.23599
 11
2.39186
 21
-2.23285
  0
LINE
  8
0
 10
2.39186
 20
-2.23285
 11
2.39075
 21
-2.22966
  0
LINE
  8
0
 10
2.39075
 20
-2.22966
 11
2.38977
 21
-2.22643
  0
LINE
  8
0
 10
2.38977
 20
-2.22643
 11
2.38893
 21
-2.22314
  0
LINE
  8
0
 10
2.38893
 20
-2.22314
 11
2.38823
 21
-2.21983
  0
LINE
  8
0
 10
2.38823
 20
-2.21983
 11
2.38766
 21
-2.21651
  0
LINE
  8
0
 10
2.38766
 20
-2.21651
 11
2.38725
 21
-2.21315
  0
LINE
  8
0
 10
2.38725
 20
-2.21315
 11
2.38696
 21
-2.20978
  0
LINE
  8
0
 10
2.38696
 20
-2.20978
 11
2.38683
 21
-2.20641
  0
LINE
  8
0
 10
2.38683
 20
-2.20641
 11
2.38683
 21
-2.20303
  0
LINE
  8
0
 10
2.38683
 20
-2.20303
 11
2.38696
 21
-2.19965
  0
LINE
  8
0
 10
2.38696
 20
-2.19965
 11
2.38725
 21
-2.19627
  0
LINE
  8
0
 10
2.38725
 20
-2.19627
 11
2.38766
 21
-2.19293
  0
LINE
  8
0
 10
2.38766
 20
-2.19293
 11
2.38823
 21
-2.18959
  0
LINE
  8
0
 10
2.38823
 20
-2.18959
 11
2.38893
 21
-2.18628
  0
LINE
  8
0
 10
2.38893
 20
-2.18628
 11
2.38977
 21
-2.18301
  0
LINE
  8
0
 10
2.38977
 20
-2.18301
 11
2.39075
 21
-2.17978
  0
LINE
  8
0
 10
2.39075
 20
-2.17978
 11
2.39186
 21
-2.17659
  0
LINE
  8
0
 10
2.39186
 20
-2.17659
 11
2.39311
 21
-2.17345
  0
LINE
  8
0
 10
2.39311
 20
-2.17345
 11
2.39449
 21
-2.17035
  0
LINE
  8
0
 10
2.39449
 20
-2.17035
 11
2.396
 21
-2.16733
  0
LINE
  8
0
 10
2.396
 20
-2.16733
 11
2.39761
 21
-2.16437
  0
LINE
  8
0
 10
2.39761
 20
-2.16437
 11
2.39937
 21
-2.16147
  0
LINE
  8
0
 10
2.39937
 20
-2.16147
 11
2.40125
 21
-2.15866
  0
LINE
  8
0
 10
2.40125
 20
-2.15866
 11
2.40323
 21
-2.15591
  0
LINE
  8
0
 10
2.40323
 20
-2.15591
 11
2.40532
 21
-2.15327
  0
LINE
  8
0
 10
2.40532
 20
-2.15327
 11
2.40753
 21
-2.15071
  0
LINE
  8
0
 10
2.40753
 20
-2.15071
 11
2.40985
 21
-2.14825
  0
LINE
  8
0
 10
2.40985
 20
-2.14825
 11
2.41226
 21
-2.14589
  0
LINE
  8
0
 10
2.41226
 20
-2.14589
 11
2.41478
 21
-2.14362
  0
LINE
  8
0
 10
2.41478
 20
-2.14362
 11
2.41737
 21
-2.14146
  0
LINE
  8
0
 10
2.41737
 20
-2.14146
 11
2.42007
 21
-2.13942
  0
LINE
  8
0
 10
2.42007
 20
-2.13942
 11
2.42285
 21
-2.1375
  0
LINE
  8
0
 10
2.42285
 20
-2.1375
 11
2.4257
 21
-2.13568
  0
LINE
  8
0
 10
2.4257
 20
-2.13568
 11
2.42863
 21
-2.13399
  0
LINE
  8
0
 10
2.42863
 20
-2.13399
 11
2.43163
 21
-2.13243
  0
LINE
  8
0
 10
2.43163
 20
-2.13243
 11
2.43469
 21
-2.13098
  0
LINE
  8
0
 10
2.43469
 20
-2.13098
 11
2.43781
 21
-2.12967
  0
LINE
  8
0
 10
2.43781
 20
-2.12967
 11
2.44096
 21
-2.12849
  0
LINE
  8
0
 10
2.44096
 20
-2.12849
 11
2.44418
 21
-2.12746
  0
LINE
  8
0
 10
2.44418
 20
-2.12746
 11
2.44745
 21
-2.12654
  0
LINE
  8
0
 10
2.44745
 20
-2.12654
 11
2.45073
 21
-2.12578
  0
LINE
  8
0
 10
2.45073
 20
-2.12578
 11
2.45406
 21
-2.12514
  0
LINE
  8
0
 10
2.45406
 20
-2.12514
 11
2.4574
 21
-2.12465
  0
LINE
  8
0
 10
2.4574
 20
-2.12465
 11
2.46075
 21
-2.1243
  0
LINE
  8
0
 10
2.46075
 20
-2.1243
 11
2.46413
 21
-2.12408
  0
LINE
  8
0
 10
2.46413
 20
-2.12408
 11
2.46751
 21
-2.12401
  0
LINE
  8
0
 10
2.46751
 20
-2.12401
 11
2.47089
 21
-2.12408
  0
LINE
  8
0
 10
2.47089
 20
-2.12408
 11
2.47426
 21
-2.1243
  0
LINE
  8
0
 10
2.47426
 20
-2.1243
 11
2.47763
 21
-2.12465
  0
LINE
  8
0
 10
2.47763
 20
-2.12465
 11
2.48097
 21
-2.12514
  0
LINE
  8
0
 10
2.48097
 20
-2.12514
 11
2.4843
 21
-2.12578
  0
LINE
  8
0
 10
2.4843
 20
-2.12578
 11
2.48758
 21
-2.12654
  0
LINE
  8
0
 10
2.48758
 20
-2.12654
 11
2.49084
 21
-2.12746
  0
LINE
  8
0
 10
2.49084
 20
-2.12746
 11
2.49405
 21
-2.12849
  0
LINE
  8
0
 10
2.49405
 20
-2.12849
 11
2.49722
 21
-2.12967
  0
LINE
  8
0
 10
2.49722
 20
-2.12967
 11
2.50034
 21
-2.13098
  0
LINE
  8
0
 10
2.50034
 20
-2.13098
 11
2.5034
 21
-2.13243
  0
LINE
  8
0
 10
2.5034
 20
-2.13243
 11
2.50639
 21
-2.13399
  0
LINE
  8
0
 10
2.50639
 20
-2.13399
 11
2.50932
 21
-2.13568
  0
LINE
  8
0
 10
2.50932
 20
-2.13568
 11
2.51218
 21
-2.1375
  0
LINE
  8
0
 10
2.51218
 20
-2.1375
 11
2.51495
 21
-2.13942
  0
LINE
  8
0
 10
2.51495
 20
-2.13942
 11
2.51764
 21
-2.14146
  0
LINE
  8
0
 10
2.51764
 20
-2.14146
 11
2.52025
 21
-2.14362
  0
LINE
  8
0
 10
2.52025
 20
-2.14362
 11
2.52277
 21
-2.14589
  0
LINE
  8
0
 10
2.52277
 20
-2.14589
 11
2.52518
 21
-2.14825
  0
LINE
  8
0
 10
2.52518
 20
-2.14825
 11
2.5275
 21
-2.15071
  0
LINE
  8
0
 10
2.5275
 20
-2.15071
 11
2.52969
 21
-2.15327
  0
LINE
  8
0
 10
2.52969
 20
-2.15327
 11
2.5318
 21
-2.15591
  0
LINE
  8
0
 10
2.5318
 20
-2.15591
 11
2.53378
 21
-2.15866
  0
LINE
  8
0
 10
2.53378
 20
-2.15866
 11
2.53566
 21
-2.16147
  0
LINE
  8
0
 10
2.53566
 20
-2.16147
 11
2.53741
 21
-2.16437
  0
LINE
  8
0
 10
2.53741
 20
-2.16437
 11
2.53903
 21
-2.16733
  0
LINE
  8
0
 10
2.53903
 20
-2.16733
 11
2.54054
 21
-2.17035
  0
LINE
  8
0
 10
2.54054
 20
-2.17035
 11
2.54192
 21
-2.17345
  0
LINE
  8
0
 10
2.54192
 20
-2.17345
 11
2.54315
 21
-2.17659
  0
LINE
  8
0
 10
2.54315
 20
-2.17659
 11
2.54427
 21
-2.17978
  0
LINE
  8
0
 10
2.54427
 20
-2.17978
 11
2.54524
 21
-2.18301
  0
LINE
  8
0
 10
2.54524
 20
-2.18301
 11
2.54608
 21
-2.18628
  0
LINE
  8
0
 10
2.54608
 20
-2.18628
 11
2.5468
 21
-2.18959
  0
LINE
  8
0
 10
2.5468
 20
-2.18959
 11
2.54735
 21
-2.19293
  0
LINE
  8
0
 10
2.54735
 20
-2.19293
 11
2.54778
 21
-2.19627
  0
LINE
  8
0
 10
2.54778
 20
-2.19627
 11
2.54807
 21
-2.19965
  0
LINE
  8
0
 10
2.54807
 20
-2.19965
 11
2.5482
 21
-2.20303
  0
LINE
  8
0
 10
2.5482
 20
-2.20303
 11
2.5482
 21
-2.20641
  0
LINE
  8
0
 10
2.5482
 20
-2.20641
 11
2.54807
 21
-2.20978
  0
LINE
  8
0
 10
2.54807
 20
-2.20978
 11
2.54778
 21
-2.21315
  0
LINE
  8
0
 10
2.54778
 20
-2.21315
 11
2.54735
 21
-2.21651
  0
LINE
  8
0
 10
2.54735
 20
-2.21651
 11
2.5468
 21
-2.21983
  0
LINE
  8
0
 10
2.5468
 20
-2.21983
 11
2.54608
 21
-2.22314
  0
LINE
  8
0
 10
2.54608
 20
-2.22314
 11
2.54524
 21
-2.22643
  0
LINE
  8
0
 10
2.54524
 20
-2.22643
 11
2.54427
 21
-2.22966
  0
LINE
  8
0
 10
2.54427
 20
-2.22966
 11
2.54315
 21
-2.23285
  0
LINE
  8
0
 10
2.54315
 20
-2.23285
 11
2.54192
 21
-2.23599
  0
LINE
  8
0
 10
2.54192
 20
-2.23599
 11
2.54054
 21
-2.23907
  0
LINE
  8
0
 10
2.54054
 20
-2.23907
 11
2.53903
 21
-2.24211
  0
LINE
  8
0
 10
2.53903
 20
-2.24211
 11
2.53741
 21
-2.24507
  0
LINE
  8
0
 10
2.53741
 20
-2.24507
 11
2.53566
 21
-2.24796
  0
LINE
  8
0
 10
2.53566
 20
-2.24796
 11
2.53378
 21
-2.25078
  0
LINE
  8
0
 10
2.53378
 20
-2.25078
 11
2.5318
 21
-2.25351
  0
LINE
  8
0
 10
2.5318
 20
-2.25351
 11
2.52969
 21
-2.25616
  0
LINE
  8
0
 10
2.52969
 20
-2.25616
 11
2.5275
 21
-2.25873
  0
LINE
  8
0
 10
2.5275
 20
-2.25873
 11
2.52518
 21
-2.26118
  0
LINE
  8
0
 10
2.52518
 20
-2.26118
 11
2.52277
 21
-2.26355
  0
LINE
  8
0
 10
2.52277
 20
-2.26355
 11
2.52025
 21
-2.26581
  0
LINE
  8
0
 10
2.52025
 20
-2.26581
 11
2.51764
 21
-2.26797
  0
LINE
  8
0
 10
2.51764
 20
-2.26797
 11
2.51495
 21
-2.27
  0
LINE
  8
0
 10
2.51495
 20
-2.27
 11
2.51218
 21
-2.27194
  0
LINE
  8
0
 10
2.51218
 20
-2.27194
 11
2.50932
 21
-2.27376
  0
LINE
  8
0
 10
2.50932
 20
-2.27376
 11
2.50639
 21
-2.27544
  0
LINE
  8
0
 10
2.50639
 20
-2.27544
 11
2.5034
 21
-2.27701
  0
LINE
  8
0
 10
2.5034
 20
-2.27701
 11
2.50034
 21
-2.27844
  0
LINE
  8
0
 10
2.50034
 20
-2.27844
 11
2.49722
 21
-2.27975
  0
LINE
  8
0
 10
2.49722
 20
-2.27975
 11
2.49405
 21
-2.28093
  0
LINE
  8
0
 10
2.49405
 20
-2.28093
 11
2.49084
 21
-2.28198
  0
LINE
  8
0
 10
2.49084
 20
-2.28198
 11
2.48758
 21
-2.28288
  0
LINE
  8
0
 10
2.48758
 20
-2.28288
 11
2.4843
 21
-2.28366
  0
LINE
  8
0
 10
2.4843
 20
-2.28366
 11
2.48097
 21
-2.2843
  0
LINE
  8
0
 10
2.48097
 20
-2.2843
 11
2.47763
 21
-2.28479
  0
LINE
  8
0
 10
2.47763
 20
-2.28479
 11
2.47426
 21
-2.28514
  0
LINE
  8
0
 10
2.47426
 20
-2.28514
 11
2.47089
 21
-2.28535
  0
LINE
  8
0
 10
2.47089
 20
-2.28535
 11
2.46751
 21
-2.28543
  0
LINE
  8
0
 10
2.46751
 20
-2.28543
 11
2.46413
 21
-2.28535
  0
LINE
  8
0
 10
-0.00167847
 20
-4.95569
 11
-0.00506592
 21
-4.95554
  0
LINE
  8
0
 10
-0.00506592
 20
-4.95554
 11
-0.00842285
 21
-4.95526
  0
LINE
  8
0
 10
-0.00842285
 20
-4.95526
 11
-0.0117798
 21
-4.95483
  0
LINE
  8
0
 10
-0.0117798
 20
-4.95483
 11
-0.0151215
 21
-4.95427
  0
LINE
  8
0
 10
-0.0151215
 20
-4.95427
 11
-0.0184174
 21
-4.95357
  0
LINE
  8
0
 10
-0.0184174
 20
-4.95357
 11
-0.021698
 21
-4.95273
  0
LINE
  8
0
 10
-0.021698
 20
-4.95273
 11
-0.0249329
 21
-4.95175
  0
LINE
  8
0
 10
-0.0249329
 20
-4.95175
 11
-0.0281219
 21
-4.95064
  0
LINE
  8
0
 10
-0.0281219
 20
-4.95064
 11
-0.0312653
 21
-4.9494
  0
LINE
  8
0
 10
-0.0312653
 20
-4.9494
 11
-0.0343628
 21
-4.94801
  0
LINE
  8
0
 10
-0.0343628
 20
-4.94801
 11
-0.037384
 21
-4.94652
  0
LINE
  8
0
 10
-0.037384
 20
-4.94652
 11
-0.0403442
 21
-4.94489
  0
LINE
  8
0
 10
-0.0403442
 20
-4.94489
 11
-0.0432434
 21
-4.94313
  0
LINE
  8
0
 10
-0.0432434
 20
-4.94313
 11
-0.046051
 21
-4.94127
  0
LINE
  8
0
 10
-0.046051
 20
-4.94127
 11
-0.0487823
 21
-4.93929
  0
LINE
  8
0
 10
-0.0487823
 20
-4.93929
 11
-0.0514374
 21
-4.93718
  0
LINE
  8
0
 10
-0.0514374
 20
-4.93718
 11
-0.0540009
 21
-4.93497
  0
LINE
  8
0
 10
-0.0540009
 20
-4.93497
 11
-0.0564575
 21
-4.93266
  0
LINE
  8
0
 10
-0.0564575
 20
-4.93266
 11
-0.0588226
 21
-4.93024
  0
LINE
  8
0
 10
-0.0588226
 20
-4.93024
 11
-0.0610962
 21
-4.92773
  0
LINE
  8
0
 10
-0.0610962
 20
-4.92773
 11
-0.0632477
 21
-4.92513
  0
LINE
  8
0
 10
-0.0632477
 20
-4.92513
 11
-0.0652924
 21
-4.92242
  0
LINE
  8
0
 10
-0.0652924
 20
-4.92242
 11
-0.067215
 21
-4.91966
  0
LINE
  8
0
 10
-0.067215
 20
-4.91966
 11
-0.0690308
 21
-4.91681
  0
LINE
  8
0
 10
-0.0690308
 20
-4.91681
 11
-0.0707245
 21
-4.91388
  0
LINE
  8
0
 10
-0.0707245
 20
-4.91388
 11
-0.0722809
 21
-4.91087
  0
LINE
  8
0
 10
-0.0722809
 20
-4.91087
 11
-0.0737305
 21
-4.90782
  0
LINE
  8
0
 10
-0.0737305
 20
-4.90782
 11
-0.0750275
 21
-4.90471
  0
LINE
  8
0
 10
-0.0750275
 20
-4.90471
 11
-0.0762177
 21
-4.90154
  0
LINE
  8
0
 10
-0.0762177
 20
-4.90154
 11
-0.0772552
 21
-4.89832
  0
LINE
  8
0
 10
-0.0772552
 20
-4.89832
 11
-0.0781708
 21
-4.89507
  0
LINE
  8
0
 10
-0.0781708
 20
-4.89507
 11
-0.0789337
 21
-4.89177
  0
LINE
  8
0
 10
-0.0789337
 20
-4.89177
 11
-0.0795746
 21
-4.88846
  0
LINE
  8
0
 10
-0.0795746
 20
-4.88846
 11
-0.0800629
 21
-4.8851
  0
LINE
  8
0
 10
-0.0800629
 20
-4.8851
 11
-0.0804138
 21
-4.88174
  0
LINE
  8
0
 10
-0.0804138
 20
-4.88174
 11
-0.0806274
 21
-4.87837
  0
LINE
  8
0
 10
-0.0806274
 20
-4.87837
 11
-0.0807037
 21
-4.875
  0
LINE
  8
0
 10
-0.0807037
 20
-4.875
 11
-0.0806274
 21
-4.87161
  0
LINE
  8
0
 10
-0.0806274
 20
-4.87161
 11
-0.0804138
 21
-4.86824
  0
LINE
  8
0
 10
-0.0804138
 20
-4.86824
 11
-0.0800629
 21
-4.86488
  0
LINE
  8
0
 10
-0.0800629
 20
-4.86488
 11
-0.0795746
 21
-4.86153
  0
LINE
  8
0
 10
-0.0795746
 20
-4.86153
 11
-0.0789337
 21
-4.85822
  0
LINE
  8
0
 10
-0.0789337
 20
-4.85822
 11
-0.0781708
 21
-4.85492
  0
LINE
  8
0
 10
-0.0781708
 20
-4.85492
 11
-0.0772552
 21
-4.85167
  0
LINE
  8
0
 10
-0.0772552
 20
-4.85167
 11
-0.0762177
 21
-4.84845
  0
LINE
  8
0
 10
-0.0762177
 20
-4.84845
 11
-0.0750275
 21
-4.84528
  0
LINE
  8
0
 10
-0.0750275
 20
-4.84528
 11
-0.0737305
 21
-4.84216
  0
LINE
  8
0
 10
-0.0737305
 20
-4.84216
 11
-0.0722809
 21
-4.83911
  0
LINE
  8
0
 10
-0.0722809
 20
-4.83911
 11
-0.0707245
 21
-4.83611
  0
LINE
  8
0
 10
-0.0707245
 20
-4.83611
 11
-0.0690308
 21
-4.83318
  0
LINE
  8
0
 10
-0.0690308
 20
-4.83318
 11
-0.067215
 21
-4.83032
  0
LINE
  8
0
 10
-0.067215
 20
-4.83032
 11
-0.0652924
 21
-4.82756
  0
LINE
  8
0
 10
-0.0652924
 20
-4.82756
 11
-0.0632477
 21
-4.82486
  0
LINE
  8
0
 10
-0.0632477
 20
-4.82486
 11
-0.0610962
 21
-4.82225
  0
LINE
  8
0
 10
-0.0610962
 20
-4.82225
 11
-0.0588226
 21
-4.81975
  0
LINE
  8
0
 10
-0.0588226
 20
-4.81975
 11
-0.0564575
 21
-4.81732
  0
LINE
  8
0
 10
-0.0564575
 20
-4.81732
 11
-0.0540009
 21
-4.81502
  0
LINE
  8
0
 10
-0.0540009
 20
-4.81502
 11
-0.0514374
 21
-4.81281
  0
LINE
  8
0
 10
-0.0514374
 20
-4.81281
 11
-0.0487823
 21
-4.8107
  0
LINE
  8
0
 10
-0.0487823
 20
-4.8107
 11
-0.046051
 21
-4.80872
  0
LINE
  8
0
 10
-0.046051
 20
-4.80872
 11
-0.0432434
 21
-4.80685
  0
LINE
  8
0
 10
-0.0432434
 20
-4.80685
 11
-0.0403442
 21
-4.8051
  0
LINE
  8
0
 10
-0.0403442
 20
-4.8051
 11
-0.037384
 21
-4.80347
  0
LINE
  8
0
 10
-0.037384
 20
-4.80347
 11
-0.0343628
 21
-4.80197
  0
LINE
  8
0
 10
-0.0343628
 20
-4.80197
 11
-0.0312653
 21
-4.80058
  0
LINE
  8
0
 10
-0.0312653
 20
-4.80058
 11
-0.0281219
 21
-4.79935
  0
LINE
  8
0
 10
-0.0281219
 20
-4.79935
 11
-0.0249329
 21
-4.79823
  0
LINE
  8
0
 10
-0.0249329
 20
-4.79823
 11
-0.021698
 21
-4.79726
  0
LINE
  8
0
 10
-0.021698
 20
-4.79726
 11
-0.0184174
 21
-4.79642
  0
LINE
  8
0
 10
-0.0184174
 20
-4.79642
 11
-0.0151215
 21
-4.79572
  0
LINE
  8
0
 10
-0.0151215
 20
-4.79572
 11
-0.0117798
 21
-4.79515
  0
LINE
  8
0
 10
-0.0117798
 20
-4.79515
 11
-0.00842285
 21
-4.79472
  0
LINE
  8
0
 10
-0.00842285
 20
-4.79472
 11
-0.00506592
 21
-4.79445
  0
LINE
  8
0
 10
-0.00506592
 20
-4.79445
 11
-0.00167847
 21
-4.7943
  0
LINE
  8
0
 10
-0.00167847
 20
-4.7943
 11
0.00167847
 21
-4.7943
  0
LINE
  8
0
 10
0.00167847
 20
-4.7943
 11
0.00506592
 21
-4.79445
  0
LINE
  8
0
 10
0.00506592
 20
-4.79445
 11
0.00842285
 21
-4.79472
  0
LINE
  8
0
 10
0.00842285
 20
-4.79472
 11
0.0117798
 21
-4.79515
  0
LINE
  8
0
 10
0.0117798
 20
-4.79515
 11
0.0151215
 21
-4.79572
  0
LINE
  8
0
 10
0.0151215
 20
-4.79572
 11
0.0184174
 21
-4.79642
  0
LINE
  8
0
 10
0.0184174
 20
-4.79642
 11
0.021698
 21
-4.79726
  0
LINE
  8
0
 10
0.021698
 20
-4.79726
 11
0.0249329
 21
-4.79823
  0
LINE
  8
0
 10
0.0249329
 20
-4.79823
 11
0.0281219
 21
-4.79935
  0
LINE
  8
0
 10
0.0281219
 20
-4.79935
 11
0.0312653
 21
-4.80058
  0
LINE
  8
0
 10
0.0312653
 20
-4.80058
 11
0.0343628
 21
-4.80197
  0
LINE
  8
0
 10
0.0343628
 20
-4.80197
 11
0.037384
 21
-4.80347
  0
LINE
  8
0
 10
0.037384
 20
-4.80347
 11
0.0403442
 21
-4.8051
  0
LINE
  8
0
 10
0.0403442
 20
-4.8051
 11
0.0432434
 21
-4.80685
  0
LINE
  8
0
 10
0.0432434
 20
-4.80685
 11
0.046051
 21
-4.80872
  0
LINE
  8
0
 10
0.046051
 20
-4.80872
 11
0.0487823
 21
-4.8107
  0
LINE
  8
0
 10
0.0487823
 20
-4.8107
 11
0.0514374
 21
-4.81281
  0
LINE
  8
0
 10
0.0514374
 20
-4.81281
 11
0.0540009
 21
-4.81502
  0
LINE
  8
0
 10
0.0540009
 20
-4.81502
 11
0.0564575
 21
-4.81732
  0
LINE
  8
0
 10
0.0564575
 20
-4.81732
 11
0.0588226
 21
-4.81975
  0
LINE
  8
0
 10
0.0588226
 20
-4.81975
 11
0.0610962
 21
-4.82225
  0
LINE
  8
0
 10
0.0610962
 20
-4.82225
 11
0.0632477
 21
-4.82486
  0
LINE
  8
0
 10
0.0632477
 20
-4.82486
 11
0.0652924
 21
-4.82756
  0
LINE
  8
0
 10
0.0652924
 20
-4.82756
 11
0.067215
 21
-4.83032
  0
LINE
  8
0
 10
0.067215
 20
-4.83032
 11
0.0690308
 21
-4.83318
  0
LINE
  8
0
 10
0.0690308
 20
-4.83318
 11
0.0707245
 21
-4.83611
  0
LINE
  8
0
 10
0.0707245
 20
-4.83611
 11
0.0722809
 21
-4.83911
  0
LINE
  8
0
 10
0.0722809
 20
-4.83911
 11
0.0737305
 21
-4.84216
  0
LINE
  8
0
 10
0.0737305
 20
-4.84216
 11
0.0750275
 21
-4.84528
  0
LINE
  8
0
 10
0.0750275
 20
-4.84528
 11
0.0762177
 21
-4.84845
  0
LINE
  8
0
 10
0.0762177
 20
-4.84845
 11
0.0772552
 21
-4.85167
  0
LINE
  8
0
 10
0.0772552
 20
-4.85167
 11
0.0781708
 21
-4.85492
  0
LINE
  8
0
 10
0.0781708
 20
-4.85492
 11
0.0789337
 21
-4.85822
  0
LINE
  8
0
 10
0.0789337
 20
-4.85822
 11
0.0795746
 21
-4.86153
  0
LINE
  8
0
 10
0.0795746
 20
-4.86153
 11
0.0800629
 21
-4.86488
  0
LINE
  8
0
 10
0.0800629
 20
-4.86488
 11
0.0804138
 21
-4.86824
  0
LINE
  8
0
 10
0.0804138
 20
-4.86824
 11
0.0806274
 21
-4.87161
  0
LINE
  8
0
 10
0.0806274
 20
-4.87161
 11
0.0807037
 21
-4.875
  0
LINE
  8
0
 10
0.0807037
 20
-4.875
 11
0.0806274
 21
-4.87837
  0
LINE
  8
0
 10
0.0806274
 20
-4.87837
 11
0.0804138
 21
-4.88174
  0
LINE
  8
0
 10
0.0804138
 20
-4.88174
 11
0.0800629
 21
-4.8851
  0
LINE
  8
0
 10
0.0800629
 20
-4.8851
 11
0.0795746
 21
-4.88846
  0
LINE
  8
0
 10
0.0795746
 20
-4.88846
 11
0.0789337
 21
-4.89177
  0
LINE
  8
0
 10
0.0789337
 20
-4.89177
 11
0.0781708
 21
-4.89507
  0
LINE
  8
0
 10
0.0781708
 20
-4.89507
 11
0.0772552
 21
-4.89832
  0
LINE
  8
0
 10
0.0772552
 20
-4.89832
 11
0.0762177
 21
-4.90154
  0
LINE
  8
0
 10
0.0762177
 20
-4.90154
 11
0.0750275
 21
-4.90471
  0
LINE
  8
0
 10
0.0750275
 20
-4.90471
 11
0.0737305
 21
-4.90782
  0
LINE
  8
0
 10
0.0737305
 20
-4.90782
 11
0.0722809
 21
-4.91087
  0
LINE
  8
0
 10
0.0722809
 20
-4.91087
 11
0.0707245
 21
-4.91388
  0
LINE
  8
0
 10
0.0707245
 20
-4.91388
 11
0.0690308
 21
-4.91681
  0
LINE
  8
0
 10
0.0690308
 20
-4.91681
 11
0.067215
 21
-4.91966
  0
LINE
  8
0
 10
0.067215
 20
-4.91966
 11
0.0652924
 21
-4.92242
  0
LINE
  8
0
 10
0.0652924
 20
-4.92242
 11
0.0632477
 21
-4.92513
  0
LINE
  8
0
 10
0.0632477
 20
-4.92513
 11
0.0610962
 21
-4.92773
  0
LINE
  8
0
 10
0.0610962
 20
-4.92773
 11
0.0588226
 21
-4.93024
  0
LINE
  8
0
 10
0.0588226
 20
-4.93024
 11
0.0564575
 21
-4.93266
  0
LINE
  8
0
 10
0.0564575
 20
-4.93266
 11
0.0540009
 21
-4.93497
  0
LINE
  8
0
 10
0.0540009
 20
-4.93497
 11
0.0514374
 21
-4.93718
  0
LINE
  8
0
 10
0.0514374
 20
-4.93718
 11
0.0487823
 21
-4.93929
  0
LINE
  8
0
 10
0.0487823
 20
-4.93929
 11
0.046051
 21
-4.94127
  0
LINE
  8
0
 10
0.046051
 20
-4.94127
 11
0.0432434
 21
-4.94313
  0
LINE
  8
0
 10
0.0432434
 20
-4.94313
 11
0.0403442
 21
-4.94489
  0
LINE
  8
0
 10
0.0403442
 20
-4.94489
 11
0.037384
 21
-4.94652
  0
LINE
  8
0
 10
0.037384
 20
-4.94652
 11
0.0343628
 21
-4.94801
  0
LINE
  8
0
 10
0.0343628
 20
-4.94801
 11
0.0312653
 21
-4.9494
  0
LINE
  8
0
 10
0.0312653
 20
-4.9494
 11
0.0281219
 21
-4.95064
  0
LINE
  8
0
 10
0.0281219
 20
-4.95064
 11
0.0249329
 21
-4.95175
  0
LINE
  8
0
 10
0.0249329
 20
-4.95175
 11
0.021698
 21
-4.95273
  0
LINE
  8
0
 10
0.021698
 20
-4.95273
 11
0.0184174
 21
-4.95357
  0
LINE
  8
0
 10
0.0184174
 20
-4.95357
 11
0.0151215
 21
-4.95427
  0
LINE
  8
0
 10
0.0151215
 20
-4.95427
 11
0.0117798
 21
-4.95483
  0
LINE
  8
0
 10
0.0117798
 20
-4.95483
 11
0.00842285
 21
-4.95526
  0
LINE
  8
0
 10
0.00842285
 20
-4.95526
 11
0.00506592
 21
-4.95554
  0
LINE
  8
0
 10
0.00506592
 20
-4.95554
 11
0.00167847
 21
-4.95569
  0
LINE
  8
0
 10
0.00167847
 20
-4.95569
 11
-0.00167847
 21
-4.95569
  0
ENDSEC
  0
SECTION
  2
OBJECTS
  0
DICTIONARY
  0
ENDSEC
  0
EOF
