  0
SECTION
  2
BLOCKS
  0
ENDSEC
  0
SECTION
  2
ENTITIES
  0
LINE
  8
0
 10
0.797238
 20
-136.5
 11
1.32744
 21
-136.455
  0
LINE
  8
0
 10
1.32744
 20
-136.455
 11
1.85493
 21
-136.389
  0
LINE
  8
0
 10
1.85493
 20
-136.389
 11
2.3797
 21
-136.3
  0
LINE
  8
0
 10
2.3797
 20
-136.3
 11
2.89982
 21
-136.189
  0
LINE
  8
0
 10
2.89982
 20
-136.189
 11
3.41491
 21
-136.057
  0
LINE
  8
0
 10
3.41491
 20
-136.057
 11
3.92418
 21
-135.903
  0
LINE
  8
0
 10
3.92418
 20
-135.903
 11
4.42686
 21
-135.728
  0
LINE
  8
0
 10
4.42686
 20
-135.728
 11
4.92141
 21
-135.532
  0
LINE
  8
0
 10
4.92141
 20
-135.532
 11
5.40703
 21
-135.316
  0
LINE
  8
0
 10
5.40703
 20
-135.316
 11
5.88375
 21
-135.08
  0
LINE
  8
0
 10
5.88375
 20
-135.08
 11
30.89
 21
-122.587
  0
LINE
  8
0
 10
30.89
 20
-122.587
 11
33.3375
 21
-121.242
  0
LINE
  8
0
 10
33.3375
 20
-121.242
 11
35.7261
 21
-119.795
  0
LINE
  8
0
 10
35.7261
 20
-119.795
 11
38.0519
 21
-118.25
  0
LINE
  8
0
 10
38.0519
 20
-118.25
 11
40.3115
 21
-116.608
  0
LINE
  8
0
 10
40.3115
 20
-116.608
 11
42.5001
 21
-114.874
  0
LINE
  8
0
 10
42.5001
 20
-114.874
 11
44.6139
 21
-113.049
  0
LINE
  8
0
 10
44.6139
 20
-113.049
 11
46.6499
 21
-111.137
  0
LINE
  8
0
 10
46.6499
 20
-111.137
 11
48.6036
 21
-109.142
  0
LINE
  8
0
 10
48.6036
 20
-109.142
 11
50.4725
 21
-107.067
  0
LINE
  8
0
 10
50.4725
 20
-107.067
 11
52.2526
 21
-104.915
  0
LINE
  8
0
 10
52.2526
 20
-104.915
 11
53.9409
 21
-102.69
  0
LINE
  8
0
 10
53.9409
 20
-102.69
 11
55.535
 21
-100.397
  0
LINE
  8
0
 10
55.535
 20
-100.397
 11
57.0314
 21
-98.0394
  0
LINE
  8
0
 10
57.0314
 20
-98.0394
 11
58.4274
 21
-95.6209
  0
LINE
  8
0
 10
58.4274
 20
-95.6209
 11
59.7215
 21
-93.1459
  0
LINE
  8
0
 10
59.7215
 20
-93.1459
 11
60.9106
 21
-90.6189
  0
LINE
  8
0
 10
60.9106
 20
-90.6189
 11
61.9927
 21
-88.0446
  0
LINE
  8
0
 10
61.9927
 20
-88.0446
 11
62.9659
 21
-85.427
  0
LINE
  8
0
 10
62.9659
 20
-85.427
 11
63.829
 21
-82.7709
  0
LINE
  8
0
 10
63.829
 20
-82.7709
 11
64.5802
 21
-80.0812
  0
LINE
  8
0
 10
64.5802
 20
-80.0812
 11
65.2177
 21
-77.3623
  0
LINE
  8
0
 10
65.2177
 20
-77.3623
 11
65.7409
 21
-74.6191
  0
LINE
  8
0
 10
65.7409
 20
-74.6191
 11
66.1491
 21
-71.8565
  0
LINE
  8
0
 10
66.1491
 20
-71.8565
 11
66.4409
 21
-69.0791
  0
LINE
  8
0
 10
66.4409
 20
-69.0791
 11
66.6165
 21
-66.2917
  0
LINE
  8
0
 10
66.6165
 20
-66.2917
 11
66.675
 21
-63.5
  0
LINE
  8
0
 10
66.675
 20
-63.5
 11
66.675
 21
10.1598
  0
LINE
  8
0
 10
66.675
 20
10.1598
 11
-66.675
 21
10.1598
  0
LINE
  8
0
 10
-66.675
 20
10.1598
 11
-66.675
 21
-63.5
  0
LINE
  8
0
 10
-66.675
 20
-63.5
 11
-66.6165
 21
-66.2917
  0
LINE
  8
0
 10
-66.6165
 20
-66.2917
 11
-66.4409
 21
-69.0791
  0
LINE
  8
0
 10
-66.4409
 20
-69.0791
 11
-66.1491
 21
-71.8565
  0
LINE
  8
0
 10
-66.1491
 20
-71.8565
 11
-65.7409
 21
-74.6191
  0
LINE
  8
0
 10
-65.7409
 20
-74.6191
 11
-65.2177
 21
-77.3623
  0
LINE
  8
0
 10
-65.2177
 20
-77.3623
 11
-64.5802
 21
-80.0812
  0
LINE
  8
0
 10
-64.5802
 20
-80.0812
 11
-63.829
 21
-82.7709
  0
LINE
  8
0
 10
-63.829
 20
-82.7709
 11
-62.9659
 21
-85.427
  0
LINE
  8
0
 10
-62.9659
 20
-85.427
 11
-61.9927
 21
-88.0446
  0
LINE
  8
0
 10
-61.9927
 20
-88.0446
 11
-60.9106
 21
-90.6189
  0
LINE
  8
0
 10
-60.9106
 20
-90.6189
 11
-59.7215
 21
-93.1459
  0
LINE
  8
0
 10
-59.7215
 20
-93.1459
 11
-58.4274
 21
-95.6209
  0
LINE
  8
0
 10
-58.4274
 20
-95.6209
 11
-57.0314
 21
-98.0394
  0
LINE
  8
0
 10
-57.0314
 20
-98.0394
 11
-55.535
 21
-100.397
  0
LINE
  8
0
 10
-55.535
 20
-100.397
 11
-53.9409
 21
-102.69
  0
LINE
  8
0
 10
-53.9409
 20
-102.69
 11
-52.2526
 21
-104.915
  0
LINE
  8
0
 10
-52.2526
 20
-104.915
 11
-50.4725
 21
-107.067
  0
LINE
  8
0
 10
-50.4725
 20
-107.067
 11
-48.6036
 21
-109.142
  0
LINE
  8
0
 10
-48.6036
 20
-109.142
 11
-46.6499
 21
-111.137
  0
LINE
  8
0
 10
-46.6499
 20
-111.137
 11
-44.6139
 21
-113.049
  0
LINE
  8
0
 10
-44.6139
 20
-113.049
 11
-42.5001
 21
-114.874
  0
LINE
  8
0
 10
-42.5001
 20
-114.874
 11
-40.3115
 21
-116.608
  0
LINE
  8
0
 10
-40.3115
 20
-116.608
 11
-38.0519
 21
-118.25
  0
LINE
  8
0
 10
-38.0519
 20
-118.25
 11
-35.7261
 21
-119.795
  0
LINE
  8
0
 10
-35.7261
 20
-119.795
 11
-33.3375
 21
-121.242
  0
LINE
  8
0
 10
-33.3375
 20
-121.242
 11
-30.89
 21
-122.587
  0
LINE
  8
0
 10
-30.89
 20
-122.587
 11
-5.88375
 21
-135.08
  0
LINE
  8
0
 10
-5.88375
 20
-135.08
 11
-5.40703
 21
-135.316
  0
LINE
  8
0
 10
-5.40703
 20
-135.316
 11
-4.92141
 21
-135.532
  0
LINE
  8
0
 10
-4.92141
 20
-135.532
 11
-4.42686
 21
-135.728
  0
LINE
  8
0
 10
-4.42686
 20
-135.728
 11
-3.92418
 21
-135.903
  0
LINE
  8
0
 10
-3.92418
 20
-135.903
 11
-3.41491
 21
-136.057
  0
LINE
  8
0
 10
-3.41491
 20
-136.057
 11
-2.89982
 21
-136.189
  0
LINE
  8
0
 10
-2.89982
 20
-136.189
 11
-2.3797
 21
-136.3
  0
LINE
  8
0
 10
-2.3797
 20
-136.3
 11
-1.85493
 21
-136.389
  0
LINE
  8
0
 10
-1.85493
 20
-136.389
 11
-1.32744
 21
-136.455
  0
LINE
  8
0
 10
-1.32744
 20
-136.455
 11
-0.797238
 21
-136.5
  0
LINE
  8
0
 10
-0.797238
 20
-136.5
 11
-0.265875
 21
-136.522
  0
LINE
  8
0
 10
-0.265875
 20
-136.522
 11
0.265875
 21
-136.522
  0
LINE
  8
0
 10
0.265875
 20
-136.522
 11
0.797238
 21
-136.5
  0
LINE
  8
0
 10
-62.7605
 20
-10.0478
 11
-62.8462
 21
-10.0428
  0
LINE
  8
0
 10
-62.8462
 20
-10.0428
 11
-62.9318
 21
-10.0335
  0
LINE
  8
0
 10
-62.9318
 20
-10.0335
 11
-63.0167
 21
-10.0211
  0
LINE
  8
0
 10
-63.0167
 20
-10.0211
 11
-63.1012
 21
-10.0052
  0
LINE
  8
0
 10
-63.1012
 20
-10.0052
 11
-63.1845
 21
-9.98544
  0
LINE
  8
0
 10
-63.1845
 20
-9.98544
 11
-63.2675
 21
-9.96218
  0
LINE
  8
0
 10
-63.2675
 20
-9.96218
 11
-63.3488
 21
-9.93583
  0
LINE
  8
0
 10
-63.3488
 20
-9.93583
 11
-63.4295
 21
-9.90598
  0
LINE
  8
0
 10
-63.4295
 20
-9.90598
 11
-63.5085
 21
-9.87265
  0
LINE
  8
0
 10
-63.5085
 20
-9.87265
 11
-63.5864
 21
-9.83583
  0
LINE
  8
0
 10
-63.5864
 20
-9.83583
 11
-63.6624
 21
-9.7963
  0
LINE
  8
0
 10
-63.6624
 20
-9.7963
 11
-63.7368
 21
-9.75328
  0
LINE
  8
0
 10
-63.7368
 20
-9.75328
 11
-63.8093
 21
-9.70716
  0
LINE
  8
0
 10
-63.8093
 20
-9.70716
 11
-63.8798
 21
-9.65833
  0
LINE
  8
0
 10
-63.8798
 20
-9.65833
 11
-63.948
 21
-9.60639
  0
LINE
  8
0
 10
-63.948
 20
-9.60639
 11
-64.0143
 21
-9.55174
  0
LINE
  8
0
 10
-64.0143
 20
-9.55174
 11
-64.0783
 21
-9.49438
  0
LINE
  8
0
 10
-64.0783
 20
-9.49438
 11
-64.1395
 21
-9.43431
  0
LINE
  8
0
 10
-64.1395
 20
-9.43431
 11
-64.1984
 21
-9.37152
  0
LINE
  8
0
 10
-64.1984
 20
-9.37152
 11
-64.2542
 21
-9.30641
  0
LINE
  8
0
 10
-64.2542
 20
-9.30641
 11
-64.3077
 21
-9.23936
  0
LINE
  8
0
 10
-64.3077
 20
-9.23936
 11
-64.3581
 21
-9.1696
  0
LINE
  8
0
 10
-64.3581
 20
-9.1696
 11
-64.4058
 21
-9.09828
  0
LINE
  8
0
 10
-64.4058
 20
-9.09828
 11
-64.4503
 21
-9.02464
  0
LINE
  8
0
 10
-64.4503
 20
-9.02464
 11
-64.4914
 21
-8.94945
  0
LINE
  8
0
 10
-64.4914
 20
-8.94945
 11
-64.5298
 21
-8.87271
  0
LINE
  8
0
 10
-64.5298
 20
-8.87271
 11
-64.5647
 21
-8.79404
  0
LINE
  8
0
 10
-64.5647
 20
-8.79404
 11
-64.5961
 21
-8.7142
  0
LINE
  8
0
 10
-64.5961
 20
-8.7142
 11
-64.6243
 21
-8.63319
  0
LINE
  8
0
 10
-64.6243
 20
-8.63319
 11
-64.6492
 21
-8.55103
  0
LINE
  8
0
 10
-64.6492
 20
-8.55103
 11
-64.6705
 21
-8.46809
  0
LINE
  8
0
 10
-64.6705
 20
-8.46809
 11
-64.6887
 21
-8.38398
  0
LINE
  8
0
 10
-64.6887
 20
-8.38398
 11
-64.7026
 21
-8.29911
  0
LINE
  8
0
 10
-64.7026
 20
-8.29911
 11
-64.7135
 21
-8.21423
  0
LINE
  8
0
 10
-64.7135
 20
-8.21423
 11
-64.7209
 21
-8.12857
  0
LINE
  8
0
 10
-64.7209
 20
-8.12857
 11
-64.7243
 21
-8.04292
  0
LINE
  8
0
 10
-64.7243
 20
-8.04292
 11
-64.7243
 21
-7.95688
  0
LINE
  8
0
 10
-64.7243
 20
-7.95688
 11
-64.7209
 21
-7.87122
  0
LINE
  8
0
 10
-64.7209
 20
-7.87122
 11
-64.7135
 21
-7.78557
  0
LINE
  8
0
 10
-64.7135
 20
-7.78557
 11
-64.7026
 21
-7.70031
  0
LINE
  8
0
 10
-64.7026
 20
-7.70031
 11
-64.6887
 21
-7.61581
  0
LINE
  8
0
 10
-64.6887
 20
-7.61581
 11
-64.6705
 21
-7.53171
  0
LINE
  8
0
 10
-64.6705
 20
-7.53171
 11
-64.6492
 21
-7.44838
  0
LINE
  8
0
 10
-64.6492
 20
-7.44838
 11
-64.6243
 21
-7.36622
  0
LINE
  8
0
 10
-64.6243
 20
-7.36622
 11
-64.5961
 21
-7.28521
  0
LINE
  8
0
 10
-64.5961
 20
-7.28521
 11
-64.5647
 21
-7.20537
  0
LINE
  8
0
 10
-64.5647
 20
-7.20537
 11
-64.5298
 21
-7.12708
  0
LINE
  8
0
 10
-64.5298
 20
-7.12708
 11
-64.4914
 21
-7.04996
  0
LINE
  8
0
 10
-64.4914
 20
-7.04996
 11
-64.4503
 21
-6.97477
  0
LINE
  8
0
 10
-64.4503
 20
-6.97477
 11
-64.4058
 21
-6.90152
  0
LINE
  8
0
 10
-64.4058
 20
-6.90152
 11
-64.3581
 21
-6.82982
  0
LINE
  8
0
 10
-64.3581
 20
-6.82982
 11
-64.3077
 21
-6.76044
  0
LINE
  8
0
 10
-64.3077
 20
-6.76044
 11
-64.2542
 21
-6.693
  0
LINE
  8
0
 10
-64.2542
 20
-6.693
 11
-64.1984
 21
-6.62828
  0
LINE
  8
0
 10
-64.1984
 20
-6.62828
 11
-64.1395
 21
-6.56549
  0
LINE
  8
0
 10
-64.1395
 20
-6.56549
 11
-64.0783
 21
-6.50542
  0
LINE
  8
0
 10
-64.0783
 20
-6.50542
 11
-64.0143
 21
-6.44806
  0
LINE
  8
0
 10
-64.0143
 20
-6.44806
 11
-63.948
 21
-6.39341
  0
LINE
  8
0
 10
-63.948
 20
-6.39341
 11
-63.8798
 21
-6.34147
  0
LINE
  8
0
 10
-63.8798
 20
-6.34147
 11
-63.8093
 21
-6.29225
  0
LINE
  8
0
 10
-63.8093
 20
-6.29225
 11
-63.7368
 21
-6.24652
  0
LINE
  8
0
 10
-63.7368
 20
-6.24652
 11
-63.6624
 21
-6.2035
  0
LINE
  8
0
 10
-63.6624
 20
-6.2035
 11
-63.5864
 21
-6.16358
  0
LINE
  8
0
 10
-63.5864
 20
-6.16358
 11
-63.5085
 21
-6.12715
  0
LINE
  8
0
 10
-63.5085
 20
-6.12715
 11
-63.4295
 21
-6.09381
  0
LINE
  8
0
 10
-63.4295
 20
-6.09381
 11
-63.3488
 21
-6.06397
  0
LINE
  8
0
 10
-63.3488
 20
-6.06397
 11
-63.2675
 21
-6.03723
  0
LINE
  8
0
 10
-63.2675
 20
-6.03723
 11
-63.1845
 21
-6.01436
  0
LINE
  8
0
 10
-63.1845
 20
-6.01436
 11
-63.1012
 21
-5.9946
  0
LINE
  8
0
 10
-63.1012
 20
-5.9946
 11
-63.0167
 21
-5.9787
  0
LINE
  8
0
 10
-63.0167
 20
-5.9787
 11
-62.9318
 21
-5.96591
  0
LINE
  8
0
 10
-62.9318
 20
-5.96591
 11
-62.8462
 21
-5.957
  0
LINE
  8
0
 10
-62.8462
 20
-5.957
 11
-62.7605
 21
-5.95157
  0
LINE
  8
0
 10
-62.7605
 20
-5.95157
 11
-62.6749
 21
-5.94964
  0
LINE
  8
0
 10
-62.6749
 20
-5.94964
 11
-62.5888
 21
-5.95157
  0
LINE
  8
0
 10
-62.5888
 20
-5.95157
 11
-62.5032
 21
-5.957
  0
LINE
  8
0
 10
-62.5032
 20
-5.957
 11
-62.4179
 21
-5.96591
  0
LINE
  8
0
 10
-62.4179
 20
-5.96591
 11
-62.333
 21
-5.9787
  0
LINE
  8
0
 10
-62.333
 20
-5.9787
 11
-62.2485
 21
-5.9946
  0
LINE
  8
0
 10
-62.2485
 20
-5.9946
 11
-62.1652
 21
-6.01436
  0
LINE
  8
0
 10
-62.1652
 20
-6.01436
 11
-62.0823
 21
-6.03723
  0
LINE
  8
0
 10
-62.0823
 20
-6.03723
 11
-62.0005
 21
-6.06397
  0
LINE
  8
0
 10
-62.0005
 20
-6.06397
 11
-61.9203
 21
-6.09381
  0
LINE
  8
0
 10
-61.9203
 20
-6.09381
 11
-61.8412
 21
-6.12715
  0
LINE
  8
0
 10
-61.8412
 20
-6.12715
 11
-61.7633
 21
-6.16358
  0
LINE
  8
0
 10
-61.7633
 20
-6.16358
 11
-61.6873
 21
-6.2035
  0
LINE
  8
0
 10
-61.6873
 20
-6.2035
 11
-61.6129
 21
-6.24652
  0
LINE
  8
0
 10
-61.6129
 20
-6.24652
 11
-61.5404
 21
-6.29225
  0
LINE
  8
0
 10
-61.5404
 20
-6.29225
 11
-61.4699
 21
-6.34147
  0
LINE
  8
0
 10
-61.4699
 20
-6.34147
 11
-61.4013
 21
-6.39341
  0
LINE
  8
0
 10
-61.4013
 20
-6.39341
 11
-61.3354
 21
-6.44806
  0
LINE
  8
0
 10
-61.3354
 20
-6.44806
 11
-61.2715
 21
-6.50542
  0
LINE
  8
0
 10
-61.2715
 20
-6.50542
 11
-61.2102
 21
-6.56549
  0
LINE
  8
0
 10
-61.2102
 20
-6.56549
 11
-61.1513
 21
-6.62828
  0
LINE
  8
0
 10
-61.1513
 20
-6.62828
 11
-61.0951
 21
-6.693
  0
LINE
  8
0
 10
-61.0951
 20
-6.693
 11
-61.042
 21
-6.76044
  0
LINE
  8
0
 10
-61.042
 20
-6.76044
 11
-60.9916
 21
-6.82982
  0
LINE
  8
0
 10
-60.9916
 20
-6.82982
 11
-60.944
 21
-6.90152
  0
LINE
  8
0
 10
-60.944
 20
-6.90152
 11
-60.8994
 21
-6.97477
  0
LINE
  8
0
 10
-60.8994
 20
-6.97477
 11
-60.8583
 21
-7.04996
  0
LINE
  8
0
 10
-60.8583
 20
-7.04996
 11
-60.8199
 21
-7.12708
  0
LINE
  8
0
 10
-60.8199
 20
-7.12708
 11
-60.785
 21
-7.20537
  0
LINE
  8
0
 10
-60.785
 20
-7.20537
 11
-60.7533
 21
-7.28521
  0
LINE
  8
0
 10
-60.7533
 20
-7.28521
 11
-60.725
 21
-7.36622
  0
LINE
  8
0
 10
-60.725
 20
-7.36622
 11
-60.7002
 21
-7.44838
  0
LINE
  8
0
 10
-60.7002
 20
-7.44838
 11
-60.6789
 21
-7.53171
  0
LINE
  8
0
 10
-60.6789
 20
-7.53171
 11
-60.661
 21
-7.61581
  0
LINE
  8
0
 10
-60.661
 20
-7.61581
 11
-60.6467
 21
-7.70031
  0
LINE
  8
0
 10
-60.6467
 20
-7.70031
 11
-60.6362
 21
-7.78557
  0
LINE
  8
0
 10
-60.6362
 20
-7.78557
 11
-60.6289
 21
-7.87122
  0
LINE
  8
0
 10
-60.6289
 20
-7.87122
 11
-60.6254
 21
-7.95688
  0
LINE
  8
0
 10
-60.6254
 20
-7.95688
 11
-60.6254
 21
-8.04292
  0
LINE
  8
0
 10
-60.6254
 20
-8.04292
 11
-60.6289
 21
-8.12857
  0
LINE
  8
0
 10
-60.6289
 20
-8.12857
 11
-60.6362
 21
-8.21423
  0
LINE
  8
0
 10
-60.6362
 20
-8.21423
 11
-60.6467
 21
-8.29911
  0
LINE
  8
0
 10
-60.6467
 20
-8.29911
 11
-60.661
 21
-8.38398
  0
LINE
  8
0
 10
-60.661
 20
-8.38398
 11
-60.6789
 21
-8.46809
  0
LINE
  8
0
 10
-60.6789
 20
-8.46809
 11
-60.7002
 21
-8.55103
  0
LINE
  8
0
 10
-60.7002
 20
-8.55103
 11
-60.725
 21
-8.63319
  0
LINE
  8
0
 10
-60.725
 20
-8.63319
 11
-60.7533
 21
-8.7142
  0
LINE
  8
0
 10
-60.7533
 20
-8.7142
 11
-60.785
 21
-8.79404
  0
LINE
  8
0
 10
-60.785
 20
-8.79404
 11
-60.8199
 21
-8.87271
  0
LINE
  8
0
 10
-60.8199
 20
-8.87271
 11
-60.8583
 21
-8.94945
  0
LINE
  8
0
 10
-60.8583
 20
-8.94945
 11
-60.8994
 21
-9.02464
  0
LINE
  8
0
 10
-60.8994
 20
-9.02464
 11
-60.944
 21
-9.09828
  0
LINE
  8
0
 10
-60.944
 20
-9.09828
 11
-60.9916
 21
-9.1696
  0
LINE
  8
0
 10
-60.9916
 20
-9.1696
 11
-61.042
 21
-9.23936
  0
LINE
  8
0
 10
-61.042
 20
-9.23936
 11
-61.0951
 21
-9.30641
  0
LINE
  8
0
 10
-61.0951
 20
-9.30641
 11
-61.1513
 21
-9.37152
  0
LINE
  8
0
 10
-61.1513
 20
-9.37152
 11
-61.2102
 21
-9.43431
  0
LINE
  8
0
 10
-61.2102
 20
-9.43431
 11
-61.2715
 21
-9.49438
  0
LINE
  8
0
 10
-61.2715
 20
-9.49438
 11
-61.3354
 21
-9.55174
  0
LINE
  8
0
 10
-61.3354
 20
-9.55174
 11
-61.4013
 21
-9.60639
  0
LINE
  8
0
 10
-61.4013
 20
-9.60639
 11
-61.4699
 21
-9.65833
  0
LINE
  8
0
 10
-61.4699
 20
-9.65833
 11
-61.5404
 21
-9.70716
  0
LINE
  8
0
 10
-61.5404
 20
-9.70716
 11
-61.6129
 21
-9.75328
  0
LINE
  8
0
 10
-61.6129
 20
-9.75328
 11
-61.6873
 21
-9.7963
  0
LINE
  8
0
 10
-61.6873
 20
-9.7963
 11
-61.7633
 21
-9.83583
  0
LINE
  8
0
 10
-61.7633
 20
-9.83583
 11
-61.8412
 21
-9.87265
  0
LINE
  8
0
 10
-61.8412
 20
-9.87265
 11
-61.9203
 21
-9.90598
  0
LINE
  8
0
 10
-61.9203
 20
-9.90598
 11
-62.0005
 21
-9.93583
  0
LINE
  8
0
 10
-62.0005
 20
-9.93583
 11
-62.0823
 21
-9.96218
  0
LINE
  8
0
 10
-62.0823
 20
-9.96218
 11
-62.1652
 21
-9.98544
  0
LINE
  8
0
 10
-62.1652
 20
-9.98544
 11
-62.2485
 21
-10.0052
  0
LINE
  8
0
 10
-62.2485
 20
-10.0052
 11
-62.333
 21
-10.0211
  0
LINE
  8
0
 10
-62.333
 20
-10.0211
 11
-62.4179
 21
-10.0335
  0
LINE
  8
0
 10
-62.4179
 20
-10.0335
 11
-62.5032
 21
-10.0428
  0
LINE
  8
0
 10
-62.5032
 20
-10.0428
 11
-62.5888
 21
-10.0478
  0
LINE
  8
0
 10
-62.5888
 20
-10.0478
 11
-62.6749
 21
-10.0498
  0
LINE
  8
0
 10
-62.6749
 20
-10.0498
 11
-62.7605
 21
-10.0478
  0
LINE
  8
0
 10
62.5888
 20
-10.0478
 11
62.5032
 21
-10.0428
  0
LINE
  8
0
 10
62.5032
 20
-10.0428
 11
62.4179
 21
-10.0335
  0
LINE
  8
0
 10
62.4179
 20
-10.0335
 11
62.333
 21
-10.0211
  0
LINE
  8
0
 10
62.333
 20
-10.0211
 11
62.2485
 21
-10.0052
  0
LINE
  8
0
 10
62.2485
 20
-10.0052
 11
62.1652
 21
-9.98544
  0
LINE
  8
0
 10
62.1652
 20
-9.98544
 11
62.0823
 21
-9.96218
  0
LINE
  8
0
 10
62.0823
 20
-9.96218
 11
62.0005
 21
-9.93583
  0
LINE
  8
0
 10
62.0005
 20
-9.93583
 11
61.9203
 21
-9.90598
  0
LINE
  8
0
 10
61.9203
 20
-9.90598
 11
61.8412
 21
-9.87265
  0
LINE
  8
0
 10
61.8412
 20
-9.87265
 11
61.7633
 21
-9.83583
  0
LINE
  8
0
 10
61.7633
 20
-9.83583
 11
61.6873
 21
-9.7963
  0
LINE
  8
0
 10
61.6873
 20
-9.7963
 11
61.6129
 21
-9.75328
  0
LINE
  8
0
 10
61.6129
 20
-9.75328
 11
61.5404
 21
-9.70716
  0
LINE
  8
0
 10
61.5404
 20
-9.70716
 11
61.4699
 21
-9.65833
  0
LINE
  8
0
 10
61.4699
 20
-9.65833
 11
61.4013
 21
-9.60639
  0
LINE
  8
0
 10
61.4013
 20
-9.60639
 11
61.3354
 21
-9.55174
  0
LINE
  8
0
 10
61.3354
 20
-9.55174
 11
61.2715
 21
-9.49438
  0
LINE
  8
0
 10
61.2715
 20
-9.49438
 11
61.2102
 21
-9.43431
  0
LINE
  8
0
 10
61.2102
 20
-9.43431
 11
61.1513
 21
-9.37152
  0
LINE
  8
0
 10
61.1513
 20
-9.37152
 11
61.0951
 21
-9.30641
  0
LINE
  8
0
 10
61.0951
 20
-9.30641
 11
61.042
 21
-9.23936
  0
LINE
  8
0
 10
61.042
 20
-9.23936
 11
60.9916
 21
-9.1696
  0
LINE
  8
0
 10
60.9916
 20
-9.1696
 11
60.944
 21
-9.09828
  0
LINE
  8
0
 10
60.944
 20
-9.09828
 11
60.8994
 21
-9.02464
  0
LINE
  8
0
 10
60.8994
 20
-9.02464
 11
60.8583
 21
-8.94945
  0
LINE
  8
0
 10
60.8583
 20
-8.94945
 11
60.8199
 21
-8.87271
  0
LINE
  8
0
 10
60.8199
 20
-8.87271
 11
60.785
 21
-8.79404
  0
LINE
  8
0
 10
60.785
 20
-8.79404
 11
60.7533
 21
-8.7142
  0
LINE
  8
0
 10
60.7533
 20
-8.7142
 11
60.725
 21
-8.63319
  0
LINE
  8
0
 10
60.725
 20
-8.63319
 11
60.7002
 21
-8.55103
  0
LINE
  8
0
 10
60.7002
 20
-8.55103
 11
60.6789
 21
-8.46809
  0
LINE
  8
0
 10
60.6789
 20
-8.46809
 11
60.661
 21
-8.38398
  0
LINE
  8
0
 10
60.661
 20
-8.38398
 11
60.6467
 21
-8.29911
  0
LINE
  8
0
 10
60.6467
 20
-8.29911
 11
60.6362
 21
-8.21423
  0
LINE
  8
0
 10
60.6362
 20
-8.21423
 11
60.6289
 21
-8.12857
  0
LINE
  8
0
 10
60.6289
 20
-8.12857
 11
60.6254
 21
-8.04292
  0
LINE
  8
0
 10
60.6254
 20
-8.04292
 11
60.6254
 21
-7.95688
  0
LINE
  8
0
 10
60.6254
 20
-7.95688
 11
60.6289
 21
-7.87122
  0
LINE
  8
0
 10
60.6289
 20
-7.87122
 11
60.6362
 21
-7.78557
  0
LINE
  8
0
 10
60.6362
 20
-7.78557
 11
60.6467
 21
-7.70031
  0
LINE
  8
0
 10
60.6467
 20
-7.70031
 11
60.661
 21
-7.61581
  0
LINE
  8
0
 10
60.661
 20
-7.61581
 11
60.6789
 21
-7.53171
  0
LINE
  8
0
 10
60.6789
 20
-7.53171
 11
60.7002
 21
-7.44838
  0
LINE
  8
0
 10
60.7002
 20
-7.44838
 11
60.725
 21
-7.36622
  0
LINE
  8
0
 10
60.725
 20
-7.36622
 11
60.7533
 21
-7.28521
  0
LINE
  8
0
 10
60.7533
 20
-7.28521
 11
60.785
 21
-7.20537
  0
LINE
  8
0
 10
60.785
 20
-7.20537
 11
60.8199
 21
-7.12708
  0
LINE
  8
0
 10
60.8199
 20
-7.12708
 11
60.8583
 21
-7.04996
  0
LINE
  8
0
 10
60.8583
 20
-7.04996
 11
60.8994
 21
-6.97477
  0
LINE
  8
0
 10
60.8994
 20
-6.97477
 11
60.944
 21
-6.90152
  0
LINE
  8
0
 10
60.944
 20
-6.90152
 11
60.9916
 21
-6.82982
  0
LINE
  8
0
 10
60.9916
 20
-6.82982
 11
61.042
 21
-6.76044
  0
LINE
  8
0
 10
61.042
 20
-6.76044
 11
61.0951
 21
-6.693
  0
LINE
  8
0
 10
61.0951
 20
-6.693
 11
61.1513
 21
-6.62828
  0
LINE
  8
0
 10
61.1513
 20
-6.62828
 11
61.2102
 21
-6.56549
  0
LINE
  8
0
 10
61.2102
 20
-6.56549
 11
61.2715
 21
-6.50542
  0
LINE
  8
0
 10
61.2715
 20
-6.50542
 11
61.3354
 21
-6.44806
  0
LINE
  8
0
 10
61.3354
 20
-6.44806
 11
61.4013
 21
-6.39341
  0
LINE
  8
0
 10
61.4013
 20
-6.39341
 11
61.4699
 21
-6.34147
  0
LINE
  8
0
 10
61.4699
 20
-6.34147
 11
61.5404
 21
-6.29225
  0
LINE
  8
0
 10
61.5404
 20
-6.29225
 11
61.6129
 21
-6.24652
  0
LINE
  8
0
 10
61.6129
 20
-6.24652
 11
61.6873
 21
-6.2035
  0
LINE
  8
0
 10
61.6873
 20
-6.2035
 11
61.7633
 21
-6.16358
  0
LINE
  8
0
 10
61.7633
 20
-6.16358
 11
61.8412
 21
-6.12715
  0
LINE
  8
0
 10
61.8412
 20
-6.12715
 11
61.9203
 21
-6.09381
  0
LINE
  8
0
 10
61.9203
 20
-6.09381
 11
62.0005
 21
-6.06397
  0
LINE
  8
0
 10
62.0005
 20
-6.06397
 11
62.0823
 21
-6.03723
  0
LINE
  8
0
 10
62.0823
 20
-6.03723
 11
62.1652
 21
-6.01436
  0
LINE
  8
0
 10
62.1652
 20
-6.01436
 11
62.2485
 21
-5.9946
  0
LINE
  8
0
 10
62.2485
 20
-5.9946
 11
62.333
 21
-5.9787
  0
LINE
  8
0
 10
62.333
 20
-5.9787
 11
62.4179
 21
-5.96591
  0
LINE
  8
0
 10
62.4179
 20
-5.96591
 11
62.5032
 21
-5.957
  0
LINE
  8
0
 10
62.5032
 20
-5.957
 11
62.5888
 21
-5.95157
  0
LINE
  8
0
 10
62.5888
 20
-5.95157
 11
62.6749
 21
-5.94964
  0
LINE
  8
0
 10
62.6749
 20
-5.94964
 11
62.7605
 21
-5.95157
  0
LINE
  8
0
 10
62.7605
 20
-5.95157
 11
62.8462
 21
-5.957
  0
LINE
  8
0
 10
62.8462
 20
-5.957
 11
62.9318
 21
-5.96591
  0
LINE
  8
0
 10
62.9318
 20
-5.96591
 11
63.0167
 21
-5.9787
  0
LINE
  8
0
 10
63.0167
 20
-5.9787
 11
63.1012
 21
-5.9946
  0
LINE
  8
0
 10
63.1012
 20
-5.9946
 11
63.1845
 21
-6.01436
  0
LINE
  8
0
 10
63.1845
 20
-6.01436
 11
63.2675
 21
-6.03723
  0
LINE
  8
0
 10
63.2675
 20
-6.03723
 11
63.3488
 21
-6.06397
  0
LINE
  8
0
 10
63.3488
 20
-6.06397
 11
63.4295
 21
-6.09381
  0
LINE
  8
0
 10
63.4295
 20
-6.09381
 11
63.5085
 21
-6.12715
  0
LINE
  8
0
 10
63.5085
 20
-6.12715
 11
63.5864
 21
-6.16358
  0
LINE
  8
0
 10
63.5864
 20
-6.16358
 11
63.6624
 21
-6.2035
  0
LINE
  8
0
 10
63.6624
 20
-6.2035
 11
63.7368
 21
-6.24652
  0
LINE
  8
0
 10
63.7368
 20
-6.24652
 11
63.8093
 21
-6.29225
  0
LINE
  8
0
 10
63.8093
 20
-6.29225
 11
63.8798
 21
-6.34147
  0
LINE
  8
0
 10
63.8798
 20
-6.34147
 11
63.948
 21
-6.39341
  0
LINE
  8
0
 10
63.948
 20
-6.39341
 11
64.0143
 21
-6.44806
  0
LINE
  8
0
 10
64.0143
 20
-6.44806
 11
64.0783
 21
-6.50542
  0
LINE
  8
0
 10
64.0783
 20
-6.50542
 11
64.1395
 21
-6.56549
  0
LINE
  8
0
 10
64.1395
 20
-6.56549
 11
64.1984
 21
-6.62828
  0
LINE
  8
0
 10
64.1984
 20
-6.62828
 11
64.2542
 21
-6.693
  0
LINE
  8
0
 10
64.2542
 20
-6.693
 11
64.3077
 21
-6.76044
  0
LINE
  8
0
 10
64.3077
 20
-6.76044
 11
64.3581
 21
-6.82982
  0
LINE
  8
0
 10
64.3581
 20
-6.82982
 11
64.4058
 21
-6.90152
  0
LINE
  8
0
 10
64.4058
 20
-6.90152
 11
64.4503
 21
-6.97477
  0
LINE
  8
0
 10
64.4503
 20
-6.97477
 11
64.4914
 21
-7.04996
  0
LINE
  8
0
 10
64.4914
 20
-7.04996
 11
64.5298
 21
-7.12708
  0
LINE
  8
0
 10
64.5298
 20
-7.12708
 11
64.5647
 21
-7.20537
  0
LINE
  8
0
 10
64.5647
 20
-7.20537
 11
64.5961
 21
-7.28521
  0
LINE
  8
0
 10
64.5961
 20
-7.28521
 11
64.6243
 21
-7.36622
  0
LINE
  8
0
 10
64.6243
 20
-7.36622
 11
64.6492
 21
-7.44838
  0
LINE
  8
0
 10
64.6492
 20
-7.44838
 11
64.6705
 21
-7.53171
  0
LINE
  8
0
 10
64.6705
 20
-7.53171
 11
64.6887
 21
-7.61581
  0
LINE
  8
0
 10
64.6887
 20
-7.61581
 11
64.7026
 21
-7.70031
  0
LINE
  8
0
 10
64.7026
 20
-7.70031
 11
64.7135
 21
-7.78557
  0
LINE
  8
0
 10
64.7135
 20
-7.78557
 11
64.7209
 21
-7.87122
  0
LINE
  8
0
 10
64.7209
 20
-7.87122
 11
64.7243
 21
-7.95688
  0
LINE
  8
0
 10
64.7243
 20
-7.95688
 11
64.7243
 21
-8.04292
  0
LINE
  8
0
 10
64.7243
 20
-8.04292
 11
64.7209
 21
-8.12857
  0
LINE
  8
0
 10
64.7209
 20
-8.12857
 11
64.7135
 21
-8.21423
  0
LINE
  8
0
 10
64.7135
 20
-8.21423
 11
64.7026
 21
-8.29911
  0
LINE
  8
0
 10
64.7026
 20
-8.29911
 11
64.6887
 21
-8.38398
  0
LINE
  8
0
 10
64.6887
 20
-8.38398
 11
64.6705
 21
-8.46809
  0
LINE
  8
0
 10
64.6705
 20
-8.46809
 11
64.6492
 21
-8.55103
  0
LINE
  8
0
 10
64.6492
 20
-8.55103
 11
64.6243
 21
-8.63319
  0
LINE
  8
0
 10
64.6243
 20
-8.63319
 11
64.5961
 21
-8.7142
  0
LINE
  8
0
 10
64.5961
 20
-8.7142
 11
64.5647
 21
-8.79404
  0
LINE
  8
0
 10
64.5647
 20
-8.79404
 11
64.5298
 21
-8.87271
  0
LINE
  8
0
 10
64.5298
 20
-8.87271
 11
64.4914
 21
-8.94945
  0
LINE
  8
0
 10
64.4914
 20
-8.94945
 11
64.4503
 21
-9.02464
  0
LINE
  8
0
 10
64.4503
 20
-9.02464
 11
64.4058
 21
-9.09828
  0
LINE
  8
0
 10
64.4058
 20
-9.09828
 11
64.3581
 21
-9.1696
  0
LINE
  8
0
 10
64.3581
 20
-9.1696
 11
64.3077
 21
-9.23936
  0
LINE
  8
0
 10
64.3077
 20
-9.23936
 11
64.2542
 21
-9.30641
  0
LINE
  8
0
 10
64.2542
 20
-9.30641
 11
64.1984
 21
-9.37152
  0
LINE
  8
0
 10
64.1984
 20
-9.37152
 11
64.1395
 21
-9.43431
  0
LINE
  8
0
 10
64.1395
 20
-9.43431
 11
64.0783
 21
-9.49438
  0
LINE
  8
0
 10
64.0783
 20
-9.49438
 11
64.0143
 21
-9.55174
  0
LINE
  8
0
 10
64.0143
 20
-9.55174
 11
63.948
 21
-9.60639
  0
LINE
  8
0
 10
63.948
 20
-9.60639
 11
63.8798
 21
-9.65833
  0
LINE
  8
0
 10
63.8798
 20
-9.65833
 11
63.8093
 21
-9.70716
  0
LINE
  8
0
 10
63.8093
 20
-9.70716
 11
63.7368
 21
-9.75328
  0
LINE
  8
0
 10
63.7368
 20
-9.75328
 11
63.6624
 21
-9.7963
  0
LINE
  8
0
 10
63.6624
 20
-9.7963
 11
63.5864
 21
-9.83583
  0
LINE
  8
0
 10
63.5864
 20
-9.83583
 11
63.5085
 21
-9.87265
  0
LINE
  8
0
 10
63.5085
 20
-9.87265
 11
63.4295
 21
-9.90598
  0
LINE
  8
0
 10
63.4295
 20
-9.90598
 11
63.3488
 21
-9.93583
  0
LINE
  8
0
 10
63.3488
 20
-9.93583
 11
63.2675
 21
-9.96218
  0
LINE
  8
0
 10
63.2675
 20
-9.96218
 11
63.1845
 21
-9.98544
  0
LINE
  8
0
 10
63.1845
 20
-9.98544
 11
63.1012
 21
-10.0052
  0
LINE
  8
0
 10
63.1012
 20
-10.0052
 11
63.0167
 21
-10.0211
  0
LINE
  8
0
 10
63.0167
 20
-10.0211
 11
62.9318
 21
-10.0335
  0
LINE
  8
0
 10
62.9318
 20
-10.0335
 11
62.8462
 21
-10.0428
  0
LINE
  8
0
 10
62.8462
 20
-10.0428
 11
62.7605
 21
-10.0478
  0
LINE
  8
0
 10
62.7605
 20
-10.0478
 11
62.6749
 21
-10.0498
  0
LINE
  8
0
 10
62.6749
 20
-10.0498
 11
62.5888
 21
-10.0478
  0
LINE
  8
0
 10
-0.0426331
 20
-15.8742
 11
-0.128674
 21
-15.8707
  0
LINE
  8
0
 10
-0.128674
 20
-15.8707
 11
-0.21394
 21
-15.8638
  0
LINE
  8
0
 10
-0.21394
 20
-15.8638
 11
-0.299207
 21
-15.8529
  0
LINE
  8
0
 10
-0.299207
 20
-15.8529
 11
-0.384085
 21
-15.8386
  0
LINE
  8
0
 10
-0.384085
 20
-15.8386
 11
-0.467801
 21
-15.8207
  0
LINE
  8
0
 10
-0.467801
 20
-15.8207
 11
-0.551129
 21
-15.7994
  0
LINE
  8
0
 10
-0.551129
 20
-15.7994
 11
-0.633295
 21
-15.7746
  0
LINE
  8
0
 10
-0.633295
 20
-15.7746
 11
-0.714297
 21
-15.7463
  0
LINE
  8
0
 10
-0.714297
 20
-15.7463
 11
-0.794138
 21
-15.7145
  0
LINE
  8
0
 10
-0.794138
 20
-15.7145
 11
-0.872815
 21
-15.6797
  0
LINE
  8
0
 10
-0.872815
 20
-15.6797
 11
-0.949554
 21
-15.6417
  0
LINE
  8
0
 10
-0.949554
 20
-15.6417
 11
-1.02474
 21
-15.6002
  0
LINE
  8
0
 10
-1.02474
 20
-15.6002
 11
-1.09838
 21
-15.5556
  0
LINE
  8
0
 10
-1.09838
 20
-15.5556
 11
-1.1697
 21
-15.5084
  0
LINE
  8
0
 10
-1.1697
 20
-15.5084
 11
-1.23907
 21
-15.4576
  0
LINE
  8
0
 10
-1.23907
 20
-15.4576
 11
-1.30651
 21
-15.4045
  0
LINE
  8
0
 10
-1.30651
 20
-15.4045
 11
-1.37162
 21
-15.3483
  0
LINE
  8
0
 10
-1.37162
 20
-15.3483
 11
-1.43402
 21
-15.2894
  0
LINE
  8
0
 10
-1.43402
 20
-15.2894
 11
-1.49409
 21
-15.2281
  0
LINE
  8
0
 10
-1.49409
 20
-15.2281
 11
-1.55184
 21
-15.1642
  0
LINE
  8
0
 10
-1.55184
 20
-15.1642
 11
-1.60649
 21
-15.0983
  0
LINE
  8
0
 10
-1.60649
 20
-15.0983
 11
-1.65843
 21
-15.0297
  0
LINE
  8
0
 10
-1.65843
 20
-15.0297
 11
-1.70726
 21
-14.9592
  0
LINE
  8
0
 10
-1.70726
 20
-14.9592
 11
-1.75338
 21
-14.8867
  0
LINE
  8
0
 10
-1.75338
 20
-14.8867
 11
-1.7964
 21
-14.8123
  0
LINE
  8
0
 10
-1.7964
 20
-14.8123
 11
-1.83593
 21
-14.7363
  0
LINE
  8
0
 10
-1.83593
 20
-14.7363
 11
-1.87275
 21
-14.6588
  0
LINE
  8
0
 10
-1.87275
 20
-14.6588
 11
-1.9057
 21
-14.5793
  0
LINE
  8
0
 10
-1.9057
 20
-14.5793
 11
-1.93593
 21
-14.4991
  0
LINE
  8
0
 10
-1.93593
 20
-14.4991
 11
-1.96228
 21
-14.4173
  0
LINE
  8
0
 10
-1.96228
 20
-14.4173
 11
-1.98554
 21
-14.3348
  0
LINE
  8
0
 10
-1.98554
 20
-14.3348
 11
-2.00492
 21
-14.2511
  0
LINE
  8
0
 10
-2.00492
 20
-14.2511
 11
-2.02119
 21
-14.1666
  0
LINE
  8
0
 10
-2.02119
 20
-14.1666
 11
-2.0336
 21
-14.0817
  0
LINE
  8
0
 10
-2.0336
 20
-14.0817
 11
-2.04251
 21
-13.9964
  0
LINE
  8
0
 10
-2.04251
 20
-13.9964
 11
-2.04794
 21
-13.9108
  0
LINE
  8
0
 10
-2.04794
 20
-13.9108
 11
-2.04987
 21
-13.8247
  0
LINE
  8
0
 10
-2.04987
 20
-13.8247
 11
-2.04794
 21
-13.7391
  0
LINE
  8
0
 10
-2.04794
 20
-13.7391
 11
-2.04251
 21
-13.6534
  0
LINE
  8
0
 10
-2.04251
 20
-13.6534
 11
-2.0336
 21
-13.5678
  0
LINE
  8
0
 10
-2.0336
 20
-13.5678
 11
-2.02119
 21
-13.4829
  0
LINE
  8
0
 10
-2.02119
 20
-13.4829
 11
-2.00492
 21
-13.3984
  0
LINE
  8
0
 10
-2.00492
 20
-13.3984
 11
-1.98554
 21
-13.3151
  0
LINE
  8
0
 10
-1.98554
 20
-13.3151
 11
-1.96228
 21
-13.2321
  0
LINE
  8
0
 10
-1.96228
 20
-13.2321
 11
-1.93593
 21
-13.1507
  0
LINE
  8
0
 10
-1.93593
 20
-13.1507
 11
-1.9057
 21
-13.0701
  0
LINE
  8
0
 10
-1.9057
 20
-13.0701
 11
-1.87275
 21
-12.9911
  0
LINE
  8
0
 10
-1.87275
 20
-12.9911
 11
-1.83593
 21
-12.9132
  0
LINE
  8
0
 10
-1.83593
 20
-12.9132
 11
-1.7964
 21
-12.8372
  0
LINE
  8
0
 10
-1.7964
 20
-12.8372
 11
-1.75338
 21
-12.7628
  0
LINE
  8
0
 10
-1.75338
 20
-12.7628
 11
-1.70726
 21
-12.6903
  0
LINE
  8
0
 10
-1.70726
 20
-12.6903
 11
-1.65843
 21
-12.6198
  0
LINE
  8
0
 10
-1.65843
 20
-12.6198
 11
-1.60649
 21
-12.5516
  0
LINE
  8
0
 10
-1.60649
 20
-12.5516
 11
-1.55184
 21
-12.4853
  0
LINE
  8
0
 10
-1.55184
 20
-12.4853
 11
-1.49409
 21
-12.4213
  0
LINE
  8
0
 10
-1.49409
 20
-12.4213
 11
-1.43402
 21
-12.3601
  0
LINE
  8
0
 10
-1.43402
 20
-12.3601
 11
-1.37162
 21
-12.3012
  0
LINE
  8
0
 10
-1.37162
 20
-12.3012
 11
-1.30651
 21
-12.2454
  0
LINE
  8
0
 10
-1.30651
 20
-12.2454
 11
-1.23907
 21
-12.1919
  0
LINE
  8
0
 10
-1.23907
 20
-12.1919
 11
-1.1697
 21
-12.1415
  0
LINE
  8
0
 10
-1.1697
 20
-12.1415
 11
-1.09838
 21
-12.0938
  0
LINE
  8
0
 10
-1.09838
 20
-12.0938
 11
-1.02474
 21
-12.0493
  0
LINE
  8
0
 10
-1.02474
 20
-12.0493
 11
-0.949554
 21
-12.0082
  0
LINE
  8
0
 10
-0.949554
 20
-12.0082
 11
-0.872815
 21
-11.9698
  0
LINE
  8
0
 10
-0.872815
 20
-11.9698
 11
-0.794138
 21
-11.9349
  0
LINE
  8
0
 10
-0.794138
 20
-11.9349
 11
-0.714297
 21
-11.9035
  0
LINE
  8
0
 10
-0.714297
 20
-11.9035
 11
-0.633295
 21
-11.8752
  0
LINE
  8
0
 10
-0.633295
 20
-11.8752
 11
-0.551129
 21
-11.8504
  0
LINE
  8
0
 10
-0.551129
 20
-11.8504
 11
-0.467801
 21
-11.8291
  0
LINE
  8
0
 10
-0.467801
 20
-11.8291
 11
-0.384085
 21
-11.8113
  0
LINE
  8
0
 10
-0.384085
 20
-11.8113
 11
-0.299207
 21
-11.797
  0
LINE
  8
0
 10
-0.299207
 20
-11.797
 11
-0.21394
 21
-11.7861
  0
LINE
  8
0
 10
-0.21394
 20
-11.7861
 11
-0.128674
 21
-11.7787
  0
LINE
  8
0
 10
-0.128674
 20
-11.7787
 11
-0.0426331
 21
-11.7753
  0
LINE
  8
0
 10
-0.0426331
 20
-11.7753
 11
0.0426331
 21
-11.7753
  0
LINE
  8
0
 10
0.0426331
 20
-11.7753
 11
0.128674
 21
-11.7787
  0
LINE
  8
0
 10
0.128674
 20
-11.7787
 11
0.21394
 21
-11.7861
  0
LINE
  8
0
 10
0.21394
 20
-11.7861
 11
0.299207
 21
-11.797
  0
LINE
  8
0
 10
0.299207
 20
-11.797
 11
0.384085
 21
-11.8113
  0
LINE
  8
0
 10
0.384085
 20
-11.8113
 11
0.467801
 21
-11.8291
  0
LINE
  8
0
 10
0.467801
 20
-11.8291
 11
0.551129
 21
-11.8504
  0
LINE
  8
0
 10
0.551129
 20
-11.8504
 11
0.633295
 21
-11.8752
  0
LINE
  8
0
 10
0.633295
 20
-11.8752
 11
0.714297
 21
-11.9035
  0
LINE
  8
0
 10
0.714297
 20
-11.9035
 11
0.794138
 21
-11.9349
  0
LINE
  8
0
 10
0.794138
 20
-11.9349
 11
0.872815
 21
-11.9698
  0
LINE
  8
0
 10
0.872815
 20
-11.9698
 11
0.949554
 21
-12.0082
  0
LINE
  8
0
 10
0.949554
 20
-12.0082
 11
1.02474
 21
-12.0493
  0
LINE
  8
0
 10
1.02474
 20
-12.0493
 11
1.09838
 21
-12.0938
  0
LINE
  8
0
 10
1.09838
 20
-12.0938
 11
1.1697
 21
-12.1415
  0
LINE
  8
0
 10
1.1697
 20
-12.1415
 11
1.23907
 21
-12.1919
  0
LINE
  8
0
 10
1.23907
 20
-12.1919
 11
1.30651
 21
-12.2454
  0
LINE
  8
0
 10
1.30651
 20
-12.2454
 11
1.37162
 21
-12.3012
  0
LINE
  8
0
 10
1.37162
 20
-12.3012
 11
1.43402
 21
-12.3601
  0
LINE
  8
0
 10
1.43402
 20
-12.3601
 11
1.49409
 21
-12.4213
  0
LINE
  8
0
 10
1.49409
 20
-12.4213
 11
1.55184
 21
-12.4853
  0
LINE
  8
0
 10
1.55184
 20
-12.4853
 11
1.60649
 21
-12.5516
  0
LINE
  8
0
 10
1.60649
 20
-12.5516
 11
1.65843
 21
-12.6198
  0
LINE
  8
0
 10
1.65843
 20
-12.6198
 11
1.70726
 21
-12.6903
  0
LINE
  8
0
 10
1.70726
 20
-12.6903
 11
1.75338
 21
-12.7628
  0
LINE
  8
0
 10
1.75338
 20
-12.7628
 11
1.7964
 21
-12.8372
  0
LINE
  8
0
 10
1.7964
 20
-12.8372
 11
1.83593
 21
-12.9132
  0
LINE
  8
0
 10
1.83593
 20
-12.9132
 11
1.87275
 21
-12.9911
  0
LINE
  8
0
 10
1.87275
 20
-12.9911
 11
1.9057
 21
-13.0701
  0
LINE
  8
0
 10
1.9057
 20
-13.0701
 11
1.93593
 21
-13.1507
  0
LINE
  8
0
 10
1.93593
 20
-13.1507
 11
1.96228
 21
-13.2321
  0
LINE
  8
0
 10
1.96228
 20
-13.2321
 11
1.98554
 21
-13.3151
  0
LINE
  8
0
 10
1.98554
 20
-13.3151
 11
2.00492
 21
-13.3984
  0
LINE
  8
0
 10
2.00492
 20
-13.3984
 11
2.02119
 21
-13.4829
  0
LINE
  8
0
 10
2.02119
 20
-13.4829
 11
2.0336
 21
-13.5678
  0
LINE
  8
0
 10
2.0336
 20
-13.5678
 11
2.04251
 21
-13.6534
  0
LINE
  8
0
 10
2.04251
 20
-13.6534
 11
2.04794
 21
-13.7391
  0
LINE
  8
0
 10
2.04794
 20
-13.7391
 11
2.04987
 21
-13.8247
  0
LINE
  8
0
 10
2.04987
 20
-13.8247
 11
2.04794
 21
-13.9108
  0
LINE
  8
0
 10
2.04794
 20
-13.9108
 11
2.04251
 21
-13.9964
  0
LINE
  8
0
 10
2.04251
 20
-13.9964
 11
2.0336
 21
-14.0817
  0
LINE
  8
0
 10
2.0336
 20
-14.0817
 11
2.02119
 21
-14.1666
  0
LINE
  8
0
 10
2.02119
 20
-14.1666
 11
2.00492
 21
-14.2511
  0
LINE
  8
0
 10
2.00492
 20
-14.2511
 11
1.98554
 21
-14.3348
  0
LINE
  8
0
 10
1.98554
 20
-14.3348
 11
1.96228
 21
-14.4173
  0
LINE
  8
0
 10
1.96228
 20
-14.4173
 11
1.93593
 21
-14.4991
  0
LINE
  8
0
 10
1.93593
 20
-14.4991
 11
1.9057
 21
-14.5793
  0
LINE
  8
0
 10
1.9057
 20
-14.5793
 11
1.87275
 21
-14.6588
  0
LINE
  8
0
 10
1.87275
 20
-14.6588
 11
1.83593
 21
-14.7363
  0
LINE
  8
0
 10
1.83593
 20
-14.7363
 11
1.7964
 21
-14.8123
  0
LINE
  8
0
 10
1.7964
 20
-14.8123
 11
1.75338
 21
-14.8867
  0
LINE
  8
0
 10
1.75338
 20
-14.8867
 11
1.70726
 21
-14.9592
  0
LINE
  8
0
 10
1.70726
 20
-14.9592
 11
1.65843
 21
-15.0297
  0
LINE
  8
0
 10
1.65843
 20
-15.0297
 11
1.60649
 21
-15.0983
  0
LINE
  8
0
 10
1.60649
 20
-15.0983
 11
1.55184
 21
-15.1642
  0
LINE
  8
0
 10
1.55184
 20
-15.1642
 11
1.49409
 21
-15.2281
  0
LINE
  8
0
 10
1.49409
 20
-15.2281
 11
1.43402
 21
-15.2894
  0
LINE
  8
0
 10
1.43402
 20
-15.2894
 11
1.37162
 21
-15.3483
  0
LINE
  8
0
 10
1.37162
 20
-15.3483
 11
1.30651
 21
-15.4045
  0
LINE
  8
0
 10
1.30651
 20
-15.4045
 11
1.23907
 21
-15.4576
  0
LINE
  8
0
 10
1.23907
 20
-15.4576
 11
1.1697
 21
-15.5084
  0
LINE
  8
0
 10
1.1697
 20
-15.5084
 11
1.09838
 21
-15.5556
  0
LINE
  8
0
 10
1.09838
 20
-15.5556
 11
1.02474
 21
-15.6002
  0
LINE
  8
0
 10
1.02474
 20
-15.6002
 11
0.949554
 21
-15.6417
  0
LINE
  8
0
 10
0.949554
 20
-15.6417
 11
0.872815
 21
-15.6797
  0
LINE
  8
0
 10
0.872815
 20
-15.6797
 11
0.794138
 21
-15.7145
  0
LINE
  8
0
 10
0.794138
 20
-15.7145
 11
0.714297
 21
-15.7463
  0
LINE
  8
0
 10
0.714297
 20
-15.7463
 11
0.633295
 21
-15.7746
  0
LINE
  8
0
 10
0.633295
 20
-15.7746
 11
0.551129
 21
-15.7994
  0
LINE
  8
0
 10
0.551129
 20
-15.7994
 11
0.467801
 21
-15.8207
  0
LINE
  8
0
 10
0.467801
 20
-15.8207
 11
0.384085
 21
-15.8386
  0
LINE
  8
0
 10
0.384085
 20
-15.8386
 11
0.299207
 21
-15.8529
  0
LINE
  8
0
 10
0.299207
 20
-15.8529
 11
0.21394
 21
-15.8638
  0
LINE
  8
0
 10
0.21394
 20
-15.8638
 11
0.128674
 21
-15.8707
  0
LINE
  8
0
 10
0.128674
 20
-15.8707
 11
0.0426331
 21
-15.8742
  0
LINE
  8
0
 10
0.0426331
 20
-15.8742
 11
-0.0426331
 21
-15.8742
  0
LINE
  8
0
 10
-62.7605
 20
-26.048
 11
-62.8462
 21
-26.0426
  0
LINE
  8
0
 10
-62.8462
 20
-26.0426
 11
-62.9318
 21
-26.0337
  0
LINE
  8
0
 10
-62.9318
 20
-26.0337
 11
-63.0167
 21
-26.0213
  0
LINE
  8
0
 10
-63.0167
 20
-26.0213
 11
-63.1012
 21
-26.005
  0
LINE
  8
0
 10
-63.1012
 20
-26.005
 11
-63.1845
 21
-25.9852
  0
LINE
  8
0
 10
-63.1845
 20
-25.9852
 11
-63.2675
 21
-25.9624
  0
LINE
  8
0
 10
-63.2675
 20
-25.9624
 11
-63.3488
 21
-25.9356
  0
LINE
  8
0
 10
-63.3488
 20
-25.9356
 11
-63.4295
 21
-25.9058
  0
LINE
  8
0
 10
-63.4295
 20
-25.9058
 11
-63.5085
 21
-25.8725
  0
LINE
  8
0
 10
-63.5085
 20
-25.8725
 11
-63.5864
 21
-25.836
  0
LINE
  8
0
 10
-63.5864
 20
-25.836
 11
-63.6624
 21
-25.7961
  0
LINE
  8
0
 10
-63.6624
 20
-25.7961
 11
-63.7368
 21
-25.7535
  0
LINE
  8
0
 10
-63.7368
 20
-25.7535
 11
-63.8093
 21
-25.7073
  0
LINE
  8
0
 10
-63.8093
 20
-25.7073
 11
-63.8798
 21
-25.6581
  0
LINE
  8
0
 10
-63.8798
 20
-25.6581
 11
-63.948
 21
-25.6062
  0
LINE
  8
0
 10
-63.948
 20
-25.6062
 11
-64.0143
 21
-25.5515
  0
LINE
  8
0
 10
-64.0143
 20
-25.5515
 11
-64.0783
 21
-25.4942
  0
LINE
  8
0
 10
-64.0783
 20
-25.4942
 11
-64.1395
 21
-25.4341
  0
LINE
  8
0
 10
-64.1395
 20
-25.4341
 11
-64.1984
 21
-25.3717
  0
LINE
  8
0
 10
-64.1984
 20
-25.3717
 11
-64.2542
 21
-25.3066
  0
LINE
  8
0
 10
-64.2542
 20
-25.3066
 11
-64.3077
 21
-25.2392
  0
LINE
  8
0
 10
-64.3077
 20
-25.2392
 11
-64.3581
 21
-25.1698
  0
LINE
  8
0
 10
-64.3581
 20
-25.1698
 11
-64.4058
 21
-25.0981
  0
LINE
  8
0
 10
-64.4058
 20
-25.0981
 11
-64.4503
 21
-25.0248
  0
LINE
  8
0
 10
-64.4503
 20
-25.0248
 11
-64.4914
 21
-24.9496
  0
LINE
  8
0
 10
-64.4914
 20
-24.9496
 11
-64.5298
 21
-24.8725
  0
LINE
  8
0
 10
-64.5298
 20
-24.8725
 11
-64.5647
 21
-24.7942
  0
LINE
  8
0
 10
-64.5647
 20
-24.7942
 11
-64.5961
 21
-24.7144
  0
LINE
  8
0
 10
-64.5961
 20
-24.7144
 11
-64.6243
 21
-24.6334
  0
LINE
  8
0
 10
-64.6243
 20
-24.6334
 11
-64.6492
 21
-24.5512
  0
LINE
  8
0
 10
-64.6492
 20
-24.5512
 11
-64.6705
 21
-24.4679
  0
LINE
  8
0
 10
-64.6705
 20
-24.4679
 11
-64.6887
 21
-24.3838
  0
LINE
  8
0
 10
-64.6887
 20
-24.3838
 11
-64.7026
 21
-24.2993
  0
LINE
  8
0
 10
-64.7026
 20
-24.2993
 11
-64.7135
 21
-24.214
  0
LINE
  8
0
 10
-64.7135
 20
-24.214
 11
-64.7209
 21
-24.1284
  0
LINE
  8
0
 10
-64.7209
 20
-24.1284
 11
-64.7243
 21
-24.0427
  0
LINE
  8
0
 10
-64.7243
 20
-24.0427
 11
-64.7243
 21
-23.9567
  0
LINE
  8
0
 10
-64.7243
 20
-23.9567
 11
-64.7209
 21
-23.871
  0
LINE
  8
0
 10
-64.7209
 20
-23.871
 11
-64.7135
 21
-23.7854
  0
LINE
  8
0
 10
-64.7135
 20
-23.7854
 11
-64.7026
 21
-23.7005
  0
LINE
  8
0
 10
-64.7026
 20
-23.7005
 11
-64.6887
 21
-23.6156
  0
LINE
  8
0
 10
-64.6887
 20
-23.6156
 11
-64.6705
 21
-23.5315
  0
LINE
  8
0
 10
-64.6705
 20
-23.5315
 11
-64.6492
 21
-23.4486
  0
LINE
  8
0
 10
-64.6492
 20
-23.4486
 11
-64.6243
 21
-23.3664
  0
LINE
  8
0
 10
-64.6243
 20
-23.3664
 11
-64.5961
 21
-23.2854
  0
LINE
  8
0
 10
-64.5961
 20
-23.2854
 11
-64.5647
 21
-23.2056
  0
LINE
  8
0
 10
-64.5647
 20
-23.2056
 11
-64.5298
 21
-23.1269
  0
LINE
  8
0
 10
-64.5298
 20
-23.1269
 11
-64.4914
 21
-23.0501
  0
LINE
  8
0
 10
-64.4914
 20
-23.0501
 11
-64.4503
 21
-22.975
  0
LINE
  8
0
 10
-64.4503
 20
-22.975
 11
-64.4058
 21
-22.9013
  0
LINE
  8
0
 10
-64.4058
 20
-22.9013
 11
-64.3581
 21
-22.83
  0
LINE
  8
0
 10
-64.3581
 20
-22.83
 11
-64.3077
 21
-22.7602
  0
LINE
  8
0
 10
-64.3077
 20
-22.7602
 11
-64.2542
 21
-22.6932
  0
LINE
  8
0
 10
-64.2542
 20
-22.6932
 11
-64.1984
 21
-22.6281
  0
LINE
  8
0
 10
-64.1984
 20
-22.6281
 11
-64.1395
 21
-22.5657
  0
LINE
  8
0
 10
-64.1395
 20
-22.5657
 11
-64.0783
 21
-22.5056
  0
LINE
  8
0
 10
-64.0783
 20
-22.5056
 11
-64.0143
 21
-22.4479
  0
LINE
  8
0
 10
-64.0143
 20
-22.4479
 11
-63.948
 21
-22.3932
  0
LINE
  8
0
 10
-63.948
 20
-22.3932
 11
-63.8798
 21
-22.3413
  0
LINE
  8
0
 10
-63.8798
 20
-22.3413
 11
-63.8093
 21
-22.2924
  0
LINE
  8
0
 10
-63.8093
 20
-22.2924
 11
-63.7368
 21
-22.2463
  0
LINE
  8
0
 10
-63.7368
 20
-22.2463
 11
-63.6624
 21
-22.2033
  0
LINE
  8
0
 10
-63.6624
 20
-22.2033
 11
-63.5864
 21
-22.1638
  0
LINE
  8
0
 10
-63.5864
 20
-22.1638
 11
-63.5085
 21
-22.1269
  0
LINE
  8
0
 10
-63.5085
 20
-22.1269
 11
-63.4295
 21
-22.0936
  0
LINE
  8
0
 10
-63.4295
 20
-22.0936
 11
-63.3488
 21
-22.0638
  0
LINE
  8
0
 10
-63.3488
 20
-22.0638
 11
-63.2675
 21
-22.0374
  0
LINE
  8
0
 10
-63.2675
 20
-22.0374
 11
-63.1845
 21
-22.0142
  0
LINE
  8
0
 10
-63.1845
 20
-22.0142
 11
-63.1012
 21
-21.9948
  0
LINE
  8
0
 10
-63.1012
 20
-21.9948
 11
-63.0167
 21
-21.9785
  0
LINE
  8
0
 10
-63.0167
 20
-21.9785
 11
-62.9318
 21
-21.9661
  0
LINE
  8
0
 10
-62.9318
 20
-21.9661
 11
-62.8462
 21
-21.9568
  0
LINE
  8
0
 10
-62.8462
 20
-21.9568
 11
-62.7605
 21
-21.9518
  0
LINE
  8
0
 10
-62.7605
 20
-21.9518
 11
-62.6749
 21
-21.9498
  0
LINE
  8
0
 10
-62.6749
 20
-21.9498
 11
-62.5888
 21
-21.9518
  0
LINE
  8
0
 10
-62.5888
 20
-21.9518
 11
-62.5032
 21
-21.9568
  0
LINE
  8
0
 10
-62.5032
 20
-21.9568
 11
-62.4179
 21
-21.9661
  0
LINE
  8
0
 10
-62.4179
 20
-21.9661
 11
-62.333
 21
-21.9785
  0
LINE
  8
0
 10
-62.333
 20
-21.9785
 11
-62.2485
 21
-21.9948
  0
LINE
  8
0
 10
-62.2485
 20
-21.9948
 11
-62.1652
 21
-22.0142
  0
LINE
  8
0
 10
-62.1652
 20
-22.0142
 11
-62.0823
 21
-22.0374
  0
LINE
  8
0
 10
-62.0823
 20
-22.0374
 11
-62.0005
 21
-22.0638
  0
LINE
  8
0
 10
-62.0005
 20
-22.0638
 11
-61.9203
 21
-22.0936
  0
LINE
  8
0
 10
-61.9203
 20
-22.0936
 11
-61.8412
 21
-22.1269
  0
LINE
  8
0
 10
-61.8412
 20
-22.1269
 11
-61.7633
 21
-22.1638
  0
LINE
  8
0
 10
-61.7633
 20
-22.1638
 11
-61.6873
 21
-22.2033
  0
LINE
  8
0
 10
-61.6873
 20
-22.2033
 11
-61.6129
 21
-22.2463
  0
LINE
  8
0
 10
-61.6129
 20
-22.2463
 11
-61.5404
 21
-22.2924
  0
LINE
  8
0
 10
-61.5404
 20
-22.2924
 11
-61.4699
 21
-22.3413
  0
LINE
  8
0
 10
-61.4699
 20
-22.3413
 11
-61.4013
 21
-22.3932
  0
LINE
  8
0
 10
-61.4013
 20
-22.3932
 11
-61.3354
 21
-22.4479
  0
LINE
  8
0
 10
-61.3354
 20
-22.4479
 11
-61.2715
 21
-22.5056
  0
LINE
  8
0
 10
-61.2715
 20
-22.5056
 11
-61.2102
 21
-22.5657
  0
LINE
  8
0
 10
-61.2102
 20
-22.5657
 11
-61.1513
 21
-22.6281
  0
LINE
  8
0
 10
-61.1513
 20
-22.6281
 11
-61.0951
 21
-22.6932
  0
LINE
  8
0
 10
-61.0951
 20
-22.6932
 11
-61.042
 21
-22.7602
  0
LINE
  8
0
 10
-61.042
 20
-22.7602
 11
-60.9916
 21
-22.83
  0
LINE
  8
0
 10
-60.9916
 20
-22.83
 11
-60.944
 21
-22.9013
  0
LINE
  8
0
 10
-60.944
 20
-22.9013
 11
-60.8994
 21
-22.975
  0
LINE
  8
0
 10
-60.8994
 20
-22.975
 11
-60.8583
 21
-23.0501
  0
LINE
  8
0
 10
-60.8583
 20
-23.0501
 11
-60.8199
 21
-23.1269
  0
LINE
  8
0
 10
-60.8199
 20
-23.1269
 11
-60.785
 21
-23.2056
  0
LINE
  8
0
 10
-60.785
 20
-23.2056
 11
-60.7533
 21
-23.2854
  0
LINE
  8
0
 10
-60.7533
 20
-23.2854
 11
-60.725
 21
-23.3664
  0
LINE
  8
0
 10
-60.725
 20
-23.3664
 11
-60.7002
 21
-23.4486
  0
LINE
  8
0
 10
-60.7002
 20
-23.4486
 11
-60.6789
 21
-23.5315
  0
LINE
  8
0
 10
-60.6789
 20
-23.5315
 11
-60.661
 21
-23.6156
  0
LINE
  8
0
 10
-60.661
 20
-23.6156
 11
-60.6467
 21
-23.7005
  0
LINE
  8
0
 10
-60.6467
 20
-23.7005
 11
-60.6362
 21
-23.7854
  0
LINE
  8
0
 10
-60.6362
 20
-23.7854
 11
-60.6289
 21
-23.871
  0
LINE
  8
0
 10
-60.6289
 20
-23.871
 11
-60.6254
 21
-23.9567
  0
LINE
  8
0
 10
-60.6254
 20
-23.9567
 11
-60.6254
 21
-24.0427
  0
LINE
  8
0
 10
-60.6254
 20
-24.0427
 11
-60.6289
 21
-24.1284
  0
LINE
  8
0
 10
-60.6289
 20
-24.1284
 11
-60.6362
 21
-24.214
  0
LINE
  8
0
 10
-60.6362
 20
-24.214
 11
-60.6467
 21
-24.2993
  0
LINE
  8
0
 10
-60.6467
 20
-24.2993
 11
-60.661
 21
-24.3838
  0
LINE
  8
0
 10
-60.661
 20
-24.3838
 11
-60.6789
 21
-24.4679
  0
LINE
  8
0
 10
-60.6789
 20
-24.4679
 11
-60.7002
 21
-24.5512
  0
LINE
  8
0
 10
-60.7002
 20
-24.5512
 11
-60.725
 21
-24.6334
  0
LINE
  8
0
 10
-60.725
 20
-24.6334
 11
-60.7533
 21
-24.7144
  0
LINE
  8
0
 10
-60.7533
 20
-24.7144
 11
-60.785
 21
-24.7942
  0
LINE
  8
0
 10
-60.785
 20
-24.7942
 11
-60.8199
 21
-24.8725
  0
LINE
  8
0
 10
-60.8199
 20
-24.8725
 11
-60.8583
 21
-24.9496
  0
LINE
  8
0
 10
-60.8583
 20
-24.9496
 11
-60.8994
 21
-25.0248
  0
LINE
  8
0
 10
-60.8994
 20
-25.0248
 11
-60.944
 21
-25.0981
  0
LINE
  8
0
 10
-60.944
 20
-25.0981
 11
-60.9916
 21
-25.1698
  0
LINE
  8
0
 10
-60.9916
 20
-25.1698
 11
-61.042
 21
-25.2392
  0
LINE
  8
0
 10
-61.042
 20
-25.2392
 11
-61.0951
 21
-25.3066
  0
LINE
  8
0
 10
-61.0951
 20
-25.3066
 11
-61.1513
 21
-25.3717
  0
LINE
  8
0
 10
-61.1513
 20
-25.3717
 11
-61.2102
 21
-25.4341
  0
LINE
  8
0
 10
-61.2102
 20
-25.4341
 11
-61.2715
 21
-25.4942
  0
LINE
  8
0
 10
-61.2715
 20
-25.4942
 11
-61.3354
 21
-25.5515
  0
LINE
  8
0
 10
-61.3354
 20
-25.5515
 11
-61.4013
 21
-25.6062
  0
LINE
  8
0
 10
-61.4013
 20
-25.6062
 11
-61.4699
 21
-25.6581
  0
LINE
  8
0
 10
-61.4699
 20
-25.6581
 11
-61.5404
 21
-25.7073
  0
LINE
  8
0
 10
-61.5404
 20
-25.7073
 11
-61.6129
 21
-25.7535
  0
LINE
  8
0
 10
-61.6129
 20
-25.7535
 11
-61.6873
 21
-25.7961
  0
LINE
  8
0
 10
-61.6873
 20
-25.7961
 11
-61.7633
 21
-25.836
  0
LINE
  8
0
 10
-61.7633
 20
-25.836
 11
-61.8412
 21
-25.8725
  0
LINE
  8
0
 10
-61.8412
 20
-25.8725
 11
-61.9203
 21
-25.9058
  0
LINE
  8
0
 10
-61.9203
 20
-25.9058
 11
-62.0005
 21
-25.9356
  0
LINE
  8
0
 10
-62.0005
 20
-25.9356
 11
-62.0823
 21
-25.9624
  0
LINE
  8
0
 10
-62.0823
 20
-25.9624
 11
-62.1652
 21
-25.9852
  0
LINE
  8
0
 10
-62.1652
 20
-25.9852
 11
-62.2485
 21
-26.005
  0
LINE
  8
0
 10
-62.2485
 20
-26.005
 11
-62.333
 21
-26.0213
  0
LINE
  8
0
 10
-62.333
 20
-26.0213
 11
-62.4179
 21
-26.0337
  0
LINE
  8
0
 10
-62.4179
 20
-26.0337
 11
-62.5032
 21
-26.0426
  0
LINE
  8
0
 10
-62.5032
 20
-26.0426
 11
-62.5888
 21
-26.048
  0
LINE
  8
0
 10
-62.5888
 20
-26.048
 11
-62.6749
 21
-26.05
  0
LINE
  8
0
 10
-62.6749
 20
-26.05
 11
-62.7605
 21
-26.048
  0
LINE
  8
0
 10
62.5888
 20
-26.048
 11
62.5032
 21
-26.0426
  0
LINE
  8
0
 10
62.5032
 20
-26.0426
 11
62.4179
 21
-26.0337
  0
LINE
  8
0
 10
62.4179
 20
-26.0337
 11
62.333
 21
-26.0213
  0
LINE
  8
0
 10
62.333
 20
-26.0213
 11
62.2485
 21
-26.005
  0
LINE
  8
0
 10
62.2485
 20
-26.005
 11
62.1652
 21
-25.9852
  0
LINE
  8
0
 10
62.1652
 20
-25.9852
 11
62.0823
 21
-25.9624
  0
LINE
  8
0
 10
62.0823
 20
-25.9624
 11
62.0005
 21
-25.9356
  0
LINE
  8
0
 10
62.0005
 20
-25.9356
 11
61.9203
 21
-25.9058
  0
LINE
  8
0
 10
61.9203
 20
-25.9058
 11
61.8412
 21
-25.8725
  0
LINE
  8
0
 10
61.8412
 20
-25.8725
 11
61.7633
 21
-25.836
  0
LINE
  8
0
 10
61.7633
 20
-25.836
 11
61.6873
 21
-25.7961
  0
LINE
  8
0
 10
61.6873
 20
-25.7961
 11
61.6129
 21
-25.7535
  0
LINE
  8
0
 10
61.6129
 20
-25.7535
 11
61.5404
 21
-25.7073
  0
LINE
  8
0
 10
61.5404
 20
-25.7073
 11
61.4699
 21
-25.6581
  0
LINE
  8
0
 10
61.4699
 20
-25.6581
 11
61.4013
 21
-25.6062
  0
LINE
  8
0
 10
61.4013
 20
-25.6062
 11
61.3354
 21
-25.5515
  0
LINE
  8
0
 10
61.3354
 20
-25.5515
 11
61.2715
 21
-25.4942
  0
LINE
  8
0
 10
61.2715
 20
-25.4942
 11
61.2102
 21
-25.4341
  0
LINE
  8
0
 10
61.2102
 20
-25.4341
 11
61.1513
 21
-25.3717
  0
LINE
  8
0
 10
61.1513
 20
-25.3717
 11
61.0951
 21
-25.3066
  0
LINE
  8
0
 10
61.0951
 20
-25.3066
 11
61.042
 21
-25.2392
  0
LINE
  8
0
 10
61.042
 20
-25.2392
 11
60.9916
 21
-25.1698
  0
LINE
  8
0
 10
60.9916
 20
-25.1698
 11
60.944
 21
-25.0981
  0
LINE
  8
0
 10
60.944
 20
-25.0981
 11
60.8994
 21
-25.0248
  0
LINE
  8
0
 10
60.8994
 20
-25.0248
 11
60.8583
 21
-24.9496
  0
LINE
  8
0
 10
60.8583
 20
-24.9496
 11
60.8199
 21
-24.8725
  0
LINE
  8
0
 10
60.8199
 20
-24.8725
 11
60.785
 21
-24.7942
  0
LINE
  8
0
 10
60.785
 20
-24.7942
 11
60.7533
 21
-24.7144
  0
LINE
  8
0
 10
60.7533
 20
-24.7144
 11
60.725
 21
-24.6334
  0
LINE
  8
0
 10
60.725
 20
-24.6334
 11
60.7002
 21
-24.5512
  0
LINE
  8
0
 10
60.7002
 20
-24.5512
 11
60.6789
 21
-24.4679
  0
LINE
  8
0
 10
60.6789
 20
-24.4679
 11
60.661
 21
-24.3838
  0
LINE
  8
0
 10
60.661
 20
-24.3838
 11
60.6467
 21
-24.2993
  0
LINE
  8
0
 10
60.6467
 20
-24.2993
 11
60.6362
 21
-24.214
  0
LINE
  8
0
 10
60.6362
 20
-24.214
 11
60.6289
 21
-24.1284
  0
LINE
  8
0
 10
60.6289
 20
-24.1284
 11
60.6254
 21
-24.0427
  0
LINE
  8
0
 10
60.6254
 20
-24.0427
 11
60.6254
 21
-23.9567
  0
LINE
  8
0
 10
60.6254
 20
-23.9567
 11
60.6289
 21
-23.871
  0
LINE
  8
0
 10
60.6289
 20
-23.871
 11
60.6362
 21
-23.7854
  0
LINE
  8
0
 10
60.6362
 20
-23.7854
 11
60.6467
 21
-23.7005
  0
LINE
  8
0
 10
60.6467
 20
-23.7005
 11
60.661
 21
-23.6156
  0
LINE
  8
0
 10
60.661
 20
-23.6156
 11
60.6789
 21
-23.5315
  0
LINE
  8
0
 10
60.6789
 20
-23.5315
 11
60.7002
 21
-23.4486
  0
LINE
  8
0
 10
60.7002
 20
-23.4486
 11
60.725
 21
-23.3664
  0
LINE
  8
0
 10
60.725
 20
-23.3664
 11
60.7533
 21
-23.2854
  0
LINE
  8
0
 10
60.7533
 20
-23.2854
 11
60.785
 21
-23.2056
  0
LINE
  8
0
 10
60.785
 20
-23.2056
 11
60.8199
 21
-23.1269
  0
LINE
  8
0
 10
60.8199
 20
-23.1269
 11
60.8583
 21
-23.0501
  0
LINE
  8
0
 10
60.8583
 20
-23.0501
 11
60.8994
 21
-22.975
  0
LINE
  8
0
 10
60.8994
 20
-22.975
 11
60.944
 21
-22.9013
  0
LINE
  8
0
 10
60.944
 20
-22.9013
 11
60.9916
 21
-22.83
  0
LINE
  8
0
 10
60.9916
 20
-22.83
 11
61.042
 21
-22.7602
  0
LINE
  8
0
 10
61.042
 20
-22.7602
 11
61.0951
 21
-22.6932
  0
LINE
  8
0
 10
61.0951
 20
-22.6932
 11
61.1513
 21
-22.6281
  0
LINE
  8
0
 10
61.1513
 20
-22.6281
 11
61.2102
 21
-22.5657
  0
LINE
  8
0
 10
61.2102
 20
-22.5657
 11
61.2715
 21
-22.5056
  0
LINE
  8
0
 10
61.2715
 20
-22.5056
 11
61.3354
 21
-22.4479
  0
LINE
  8
0
 10
61.3354
 20
-22.4479
 11
61.4013
 21
-22.3932
  0
LINE
  8
0
 10
61.4013
 20
-22.3932
 11
61.4699
 21
-22.3413
  0
LINE
  8
0
 10
61.4699
 20
-22.3413
 11
61.5404
 21
-22.2924
  0
LINE
  8
0
 10
61.5404
 20
-22.2924
 11
61.6129
 21
-22.2463
  0
LINE
  8
0
 10
61.6129
 20
-22.2463
 11
61.6873
 21
-22.2033
  0
LINE
  8
0
 10
61.6873
 20
-22.2033
 11
61.7633
 21
-22.1638
  0
LINE
  8
0
 10
61.7633
 20
-22.1638
 11
61.8412
 21
-22.1269
  0
LINE
  8
0
 10
61.8412
 20
-22.1269
 11
61.9203
 21
-22.0936
  0
LINE
  8
0
 10
61.9203
 20
-22.0936
 11
62.0005
 21
-22.0638
  0
LINE
  8
0
 10
62.0005
 20
-22.0638
 11
62.0823
 21
-22.0374
  0
LINE
  8
0
 10
62.0823
 20
-22.0374
 11
62.1652
 21
-22.0142
  0
LINE
  8
0
 10
62.1652
 20
-22.0142
 11
62.2485
 21
-21.9948
  0
LINE
  8
0
 10
62.2485
 20
-21.9948
 11
62.333
 21
-21.9785
  0
LINE
  8
0
 10
62.333
 20
-21.9785
 11
62.4179
 21
-21.9661
  0
LINE
  8
0
 10
62.4179
 20
-21.9661
 11
62.5032
 21
-21.9568
  0
LINE
  8
0
 10
62.5032
 20
-21.9568
 11
62.5888
 21
-21.9518
  0
LINE
  8
0
 10
62.5888
 20
-21.9518
 11
62.6749
 21
-21.9498
  0
LINE
  8
0
 10
62.6749
 20
-21.9498
 11
62.7605
 21
-21.9518
  0
LINE
  8
0
 10
62.7605
 20
-21.9518
 11
62.8462
 21
-21.9568
  0
LINE
  8
0
 10
62.8462
 20
-21.9568
 11
62.9318
 21
-21.9661
  0
LINE
  8
0
 10
62.9318
 20
-21.9661
 11
63.0167
 21
-21.9785
  0
LINE
  8
0
 10
63.0167
 20
-21.9785
 11
63.1012
 21
-21.9948
  0
LINE
  8
0
 10
63.1012
 20
-21.9948
 11
63.1845
 21
-22.0142
  0
LINE
  8
0
 10
63.1845
 20
-22.0142
 11
63.2675
 21
-22.0374
  0
LINE
  8
0
 10
63.2675
 20
-22.0374
 11
63.3488
 21
-22.0638
  0
LINE
  8
0
 10
63.3488
 20
-22.0638
 11
63.4295
 21
-22.0936
  0
LINE
  8
0
 10
63.4295
 20
-22.0936
 11
63.5085
 21
-22.1269
  0
LINE
  8
0
 10
63.5085
 20
-22.1269
 11
63.5864
 21
-22.1638
  0
LINE
  8
0
 10
63.5864
 20
-22.1638
 11
63.6624
 21
-22.2033
  0
LINE
  8
0
 10
63.6624
 20
-22.2033
 11
63.7368
 21
-22.2463
  0
LINE
  8
0
 10
63.7368
 20
-22.2463
 11
63.8093
 21
-22.2924
  0
LINE
  8
0
 10
63.8093
 20
-22.2924
 11
63.8798
 21
-22.3413
  0
LINE
  8
0
 10
63.8798
 20
-22.3413
 11
63.948
 21
-22.3932
  0
LINE
  8
0
 10
63.948
 20
-22.3932
 11
64.0143
 21
-22.4479
  0
LINE
  8
0
 10
64.0143
 20
-22.4479
 11
64.0783
 21
-22.5056
  0
LINE
  8
0
 10
64.0783
 20
-22.5056
 11
64.1395
 21
-22.5657
  0
LINE
  8
0
 10
64.1395
 20
-22.5657
 11
64.1984
 21
-22.6281
  0
LINE
  8
0
 10
64.1984
 20
-22.6281
 11
64.2542
 21
-22.6932
  0
LINE
  8
0
 10
64.2542
 20
-22.6932
 11
64.3077
 21
-22.7602
  0
LINE
  8
0
 10
64.3077
 20
-22.7602
 11
64.3581
 21
-22.83
  0
LINE
  8
0
 10
64.3581
 20
-22.83
 11
64.4058
 21
-22.9013
  0
LINE
  8
0
 10
64.4058
 20
-22.9013
 11
64.4503
 21
-22.975
  0
LINE
  8
0
 10
64.4503
 20
-22.975
 11
64.4914
 21
-23.0501
  0
LINE
  8
0
 10
64.4914
 20
-23.0501
 11
64.5298
 21
-23.1269
  0
LINE
  8
0
 10
64.5298
 20
-23.1269
 11
64.5647
 21
-23.2056
  0
LINE
  8
0
 10
64.5647
 20
-23.2056
 11
64.5961
 21
-23.2854
  0
LINE
  8
0
 10
64.5961
 20
-23.2854
 11
64.6243
 21
-23.3664
  0
LINE
  8
0
 10
64.6243
 20
-23.3664
 11
64.6492
 21
-23.4486
  0
LINE
  8
0
 10
64.6492
 20
-23.4486
 11
64.6705
 21
-23.5315
  0
LINE
  8
0
 10
64.6705
 20
-23.5315
 11
64.6887
 21
-23.6156
  0
LINE
  8
0
 10
64.6887
 20
-23.6156
 11
64.7026
 21
-23.7005
  0
LINE
  8
0
 10
64.7026
 20
-23.7005
 11
64.7135
 21
-23.7854
  0
LINE
  8
0
 10
64.7135
 20
-23.7854
 11
64.7209
 21
-23.871
  0
LINE
  8
0
 10
64.7209
 20
-23.871
 11
64.7243
 21
-23.9567
  0
LINE
  8
0
 10
64.7243
 20
-23.9567
 11
64.7243
 21
-24.0427
  0
LINE
  8
0
 10
64.7243
 20
-24.0427
 11
64.7209
 21
-24.1284
  0
LINE
  8
0
 10
64.7209
 20
-24.1284
 11
64.7135
 21
-24.214
  0
LINE
  8
0
 10
64.7135
 20
-24.214
 11
64.7026
 21
-24.2993
  0
LINE
  8
0
 10
64.7026
 20
-24.2993
 11
64.6887
 21
-24.3838
  0
LINE
  8
0
 10
64.6887
 20
-24.3838
 11
64.6705
 21
-24.4679
  0
LINE
  8
0
 10
64.6705
 20
-24.4679
 11
64.6492
 21
-24.5512
  0
LINE
  8
0
 10
64.6492
 20
-24.5512
 11
64.6243
 21
-24.6334
  0
LINE
  8
0
 10
64.6243
 20
-24.6334
 11
64.5961
 21
-24.7144
  0
LINE
  8
0
 10
64.5961
 20
-24.7144
 11
64.5647
 21
-24.7942
  0
LINE
  8
0
 10
64.5647
 20
-24.7942
 11
64.5298
 21
-24.8725
  0
LINE
  8
0
 10
64.5298
 20
-24.8725
 11
64.4914
 21
-24.9496
  0
LINE
  8
0
 10
64.4914
 20
-24.9496
 11
64.4503
 21
-25.0248
  0
LINE
  8
0
 10
64.4503
 20
-25.0248
 11
64.4058
 21
-25.0981
  0
LINE
  8
0
 10
64.4058
 20
-25.0981
 11
64.3581
 21
-25.1698
  0
LINE
  8
0
 10
64.3581
 20
-25.1698
 11
64.3077
 21
-25.2392
  0
LINE
  8
0
 10
64.3077
 20
-25.2392
 11
64.2542
 21
-25.3066
  0
LINE
  8
0
 10
64.2542
 20
-25.3066
 11
64.1984
 21
-25.3717
  0
LINE
  8
0
 10
64.1984
 20
-25.3717
 11
64.1395
 21
-25.4341
  0
LINE
  8
0
 10
64.1395
 20
-25.4341
 11
64.0783
 21
-25.4942
  0
LINE
  8
0
 10
64.0783
 20
-25.4942
 11
64.0143
 21
-25.5515
  0
LINE
  8
0
 10
64.0143
 20
-25.5515
 11
63.948
 21
-25.6062
  0
LINE
  8
0
 10
63.948
 20
-25.6062
 11
63.8798
 21
-25.6581
  0
LINE
  8
0
 10
63.8798
 20
-25.6581
 11
63.8093
 21
-25.7073
  0
LINE
  8
0
 10
63.8093
 20
-25.7073
 11
63.7368
 21
-25.7535
  0
LINE
  8
0
 10
63.7368
 20
-25.7535
 11
63.6624
 21
-25.7961
  0
LINE
  8
0
 10
63.6624
 20
-25.7961
 11
63.5864
 21
-25.836
  0
LINE
  8
0
 10
63.5864
 20
-25.836
 11
63.5085
 21
-25.8725
  0
LINE
  8
0
 10
63.5085
 20
-25.8725
 11
63.4295
 21
-25.9058
  0
LINE
  8
0
 10
63.4295
 20
-25.9058
 11
63.3488
 21
-25.9356
  0
LINE
  8
0
 10
63.3488
 20
-25.9356
 11
63.2675
 21
-25.9624
  0
LINE
  8
0
 10
63.2675
 20
-25.9624
 11
63.1845
 21
-25.9852
  0
LINE
  8
0
 10
63.1845
 20
-25.9852
 11
63.1012
 21
-26.005
  0
LINE
  8
0
 10
63.1012
 20
-26.005
 11
63.0167
 21
-26.0213
  0
LINE
  8
0
 10
63.0167
 20
-26.0213
 11
62.9318
 21
-26.0337
  0
LINE
  8
0
 10
62.9318
 20
-26.0337
 11
62.8462
 21
-26.0426
  0
LINE
  8
0
 10
62.8462
 20
-26.0426
 11
62.7605
 21
-26.048
  0
LINE
  8
0
 10
62.7605
 20
-26.048
 11
62.6749
 21
-26.05
  0
LINE
  8
0
 10
62.6749
 20
-26.05
 11
62.5888
 21
-26.048
  0
LINE
  8
0
 10
62.5888
 20
-42.0478
 11
62.5032
 21
-42.0428
  0
LINE
  8
0
 10
62.5032
 20
-42.0428
 11
62.4179
 21
-42.0335
  0
LINE
  8
0
 10
62.4179
 20
-42.0335
 11
62.333
 21
-42.0211
  0
LINE
  8
0
 10
62.333
 20
-42.0211
 11
62.2485
 21
-42.0052
  0
LINE
  8
0
 10
62.2485
 20
-42.0052
 11
62.1652
 21
-41.9854
  0
LINE
  8
0
 10
62.1652
 20
-41.9854
 11
62.0823
 21
-41.9622
  0
LINE
  8
0
 10
62.0823
 20
-41.9622
 11
62.0005
 21
-41.9358
  0
LINE
  8
0
 10
62.0005
 20
-41.9358
 11
61.9203
 21
-41.906
  0
LINE
  8
0
 10
61.9203
 20
-41.906
 11
61.8412
 21
-41.8726
  0
LINE
  8
0
 10
61.8412
 20
-41.8726
 11
61.7633
 21
-41.8362
  0
LINE
  8
0
 10
61.7633
 20
-41.8362
 11
61.6873
 21
-41.7963
  0
LINE
  8
0
 10
61.6873
 20
-41.7963
 11
61.6129
 21
-41.7533
  0
LINE
  8
0
 10
61.6129
 20
-41.7533
 11
61.5404
 21
-41.7071
  0
LINE
  8
0
 10
61.5404
 20
-41.7071
 11
61.4699
 21
-41.6583
  0
LINE
  8
0
 10
61.4699
 20
-41.6583
 11
61.4013
 21
-41.6064
  0
LINE
  8
0
 10
61.4013
 20
-41.6064
 11
61.3354
 21
-41.5517
  0
LINE
  8
0
 10
61.3354
 20
-41.5517
 11
61.2715
 21
-41.4944
  0
LINE
  8
0
 10
61.2715
 20
-41.4944
 11
61.2102
 21
-41.4343
  0
LINE
  8
0
 10
61.2102
 20
-41.4343
 11
61.1513
 21
-41.3715
  0
LINE
  8
0
 10
61.1513
 20
-41.3715
 11
61.0951
 21
-41.3064
  0
LINE
  8
0
 10
61.0951
 20
-41.3064
 11
61.042
 21
-41.2393
  0
LINE
  8
0
 10
61.042
 20
-41.2393
 11
60.9916
 21
-41.1696
  0
LINE
  8
0
 10
60.9916
 20
-41.1696
 11
60.944
 21
-41.0983
  0
LINE
  8
0
 10
60.944
 20
-41.0983
 11
60.8994
 21
-41.0246
  0
LINE
  8
0
 10
60.8994
 20
-41.0246
 11
60.8583
 21
-40.9494
  0
LINE
  8
0
 10
60.8583
 20
-40.9494
 11
60.8199
 21
-40.8727
  0
LINE
  8
0
 10
60.8199
 20
-40.8727
 11
60.785
 21
-40.794
  0
LINE
  8
0
 10
60.785
 20
-40.794
 11
60.7533
 21
-40.7146
  0
LINE
  8
0
 10
60.7533
 20
-40.7146
 11
60.725
 21
-40.6332
  0
LINE
  8
0
 10
60.725
 20
-40.6332
 11
60.7002
 21
-40.551
  0
LINE
  8
0
 10
60.7002
 20
-40.551
 11
60.6789
 21
-40.4681
  0
LINE
  8
0
 10
60.6789
 20
-40.4681
 11
60.661
 21
-40.384
  0
LINE
  8
0
 10
60.661
 20
-40.384
 11
60.6467
 21
-40.2991
  0
LINE
  8
0
 10
60.6467
 20
-40.2991
 11
60.6362
 21
-40.2142
  0
LINE
  8
0
 10
60.6362
 20
-40.2142
 11
60.6289
 21
-40.1286
  0
LINE
  8
0
 10
60.6289
 20
-40.1286
 11
60.6254
 21
-40.0429
  0
LINE
  8
0
 10
60.6254
 20
-40.0429
 11
60.6254
 21
-39.9569
  0
LINE
  8
0
 10
60.6254
 20
-39.9569
 11
60.6289
 21
-39.8712
  0
LINE
  8
0
 10
60.6289
 20
-39.8712
 11
60.6362
 21
-39.7856
  0
LINE
  8
0
 10
60.6362
 20
-39.7856
 11
60.6467
 21
-39.7003
  0
LINE
  8
0
 10
60.6467
 20
-39.7003
 11
60.661
 21
-39.6158
  0
LINE
  8
0
 10
60.661
 20
-39.6158
 11
60.6789
 21
-39.5317
  0
LINE
  8
0
 10
60.6789
 20
-39.5317
 11
60.7002
 21
-39.4484
  0
LINE
  8
0
 10
60.7002
 20
-39.4484
 11
60.725
 21
-39.3662
  0
LINE
  8
0
 10
60.725
 20
-39.3662
 11
60.7533
 21
-39.2852
  0
LINE
  8
0
 10
60.7533
 20
-39.2852
 11
60.785
 21
-39.2054
  0
LINE
  8
0
 10
60.785
 20
-39.2054
 11
60.8199
 21
-39.1271
  0
LINE
  8
0
 10
60.8199
 20
-39.1271
 11
60.8583
 21
-39.0499
  0
LINE
  8
0
 10
60.8583
 20
-39.0499
 11
60.8994
 21
-38.9748
  0
LINE
  8
0
 10
60.8994
 20
-38.9748
 11
60.944
 21
-38.9015
  0
LINE
  8
0
 10
60.944
 20
-38.9015
 11
60.9916
 21
-38.8298
  0
LINE
  8
0
 10
60.9916
 20
-38.8298
 11
61.042
 21
-38.7604
  0
LINE
  8
0
 10
61.042
 20
-38.7604
 11
61.0951
 21
-38.693
  0
LINE
  8
0
 10
61.0951
 20
-38.693
 11
61.1513
 21
-38.6283
  0
LINE
  8
0
 10
61.1513
 20
-38.6283
 11
61.2102
 21
-38.5655
  0
LINE
  8
0
 10
61.2102
 20
-38.5655
 11
61.2715
 21
-38.5054
  0
LINE
  8
0
 10
61.2715
 20
-38.5054
 11
61.3354
 21
-38.448
  0
LINE
  8
0
 10
61.3354
 20
-38.448
 11
61.4013
 21
-38.3934
  0
LINE
  8
0
 10
61.4013
 20
-38.3934
 11
61.4699
 21
-38.3415
  0
LINE
  8
0
 10
61.4699
 20
-38.3415
 11
61.5404
 21
-38.2922
  0
LINE
  8
0
 10
61.5404
 20
-38.2922
 11
61.6129
 21
-38.2461
  0
LINE
  8
0
 10
61.6129
 20
-38.2461
 11
61.6873
 21
-38.2035
  0
LINE
  8
0
 10
61.6873
 20
-38.2035
 11
61.7633
 21
-38.1636
  0
LINE
  8
0
 10
61.7633
 20
-38.1636
 11
61.8412
 21
-38.1271
  0
LINE
  8
0
 10
61.8412
 20
-38.1271
 11
61.9203
 21
-38.0938
  0
LINE
  8
0
 10
61.9203
 20
-38.0938
 11
62.0005
 21
-38.064
  0
LINE
  8
0
 10
62.0005
 20
-38.064
 11
62.0823
 21
-38.0372
  0
LINE
  8
0
 10
62.0823
 20
-38.0372
 11
62.1652
 21
-38.0143
  0
LINE
  8
0
 10
62.1652
 20
-38.0143
 11
62.2485
 21
-37.9946
  0
LINE
  8
0
 10
62.2485
 20
-37.9946
 11
62.333
 21
-37.9787
  0
LINE
  8
0
 10
62.333
 20
-37.9787
 11
62.4179
 21
-37.9659
  0
LINE
  8
0
 10
62.4179
 20
-37.9659
 11
62.5032
 21
-37.957
  0
LINE
  8
0
 10
62.5032
 20
-37.957
 11
62.5888
 21
-37.9516
  0
LINE
  8
0
 10
62.5888
 20
-37.9516
 11
62.6749
 21
-37.9496
  0
LINE
  8
0
 10
62.6749
 20
-37.9496
 11
62.7605
 21
-37.9516
  0
LINE
  8
0
 10
62.7605
 20
-37.9516
 11
62.8462
 21
-37.957
  0
LINE
  8
0
 10
62.8462
 20
-37.957
 11
62.9318
 21
-37.9659
  0
LINE
  8
0
 10
62.9318
 20
-37.9659
 11
63.0167
 21
-37.9787
  0
LINE
  8
0
 10
63.0167
 20
-37.9787
 11
63.1012
 21
-37.9946
  0
LINE
  8
0
 10
63.1012
 20
-37.9946
 11
63.1845
 21
-38.0143
  0
LINE
  8
0
 10
63.1845
 20
-38.0143
 11
63.2675
 21
-38.0372
  0
LINE
  8
0
 10
63.2675
 20
-38.0372
 11
63.3488
 21
-38.064
  0
LINE
  8
0
 10
63.3488
 20
-38.064
 11
63.4295
 21
-38.0938
  0
LINE
  8
0
 10
63.4295
 20
-38.0938
 11
63.5085
 21
-38.1271
  0
LINE
  8
0
 10
63.5085
 20
-38.1271
 11
63.5864
 21
-38.1636
  0
LINE
  8
0
 10
63.5864
 20
-38.1636
 11
63.6624
 21
-38.2035
  0
LINE
  8
0
 10
63.6624
 20
-38.2035
 11
63.7368
 21
-38.2461
  0
LINE
  8
0
 10
63.7368
 20
-38.2461
 11
63.8093
 21
-38.2922
  0
LINE
  8
0
 10
63.8093
 20
-38.2922
 11
63.8798
 21
-38.3415
  0
LINE
  8
0
 10
63.8798
 20
-38.3415
 11
63.948
 21
-38.3934
  0
LINE
  8
0
 10
63.948
 20
-38.3934
 11
64.0143
 21
-38.448
  0
LINE
  8
0
 10
64.0143
 20
-38.448
 11
64.0783
 21
-38.5054
  0
LINE
  8
0
 10
64.0783
 20
-38.5054
 11
64.1395
 21
-38.5655
  0
LINE
  8
0
 10
64.1395
 20
-38.5655
 11
64.1984
 21
-38.6283
  0
LINE
  8
0
 10
64.1984
 20
-38.6283
 11
64.2542
 21
-38.693
  0
LINE
  8
0
 10
64.2542
 20
-38.693
 11
64.3077
 21
-38.7604
  0
LINE
  8
0
 10
64.3077
 20
-38.7604
 11
64.3581
 21
-38.8298
  0
LINE
  8
0
 10
64.3581
 20
-38.8298
 11
64.4058
 21
-38.9015
  0
LINE
  8
0
 10
64.4058
 20
-38.9015
 11
64.4503
 21
-38.9748
  0
LINE
  8
0
 10
64.4503
 20
-38.9748
 11
64.4914
 21
-39.0499
  0
LINE
  8
0
 10
64.4914
 20
-39.0499
 11
64.5298
 21
-39.1271
  0
LINE
  8
0
 10
64.5298
 20
-39.1271
 11
64.5647
 21
-39.2054
  0
LINE
  8
0
 10
64.5647
 20
-39.2054
 11
64.5961
 21
-39.2852
  0
LINE
  8
0
 10
64.5961
 20
-39.2852
 11
64.6243
 21
-39.3662
  0
LINE
  8
0
 10
64.6243
 20
-39.3662
 11
64.6492
 21
-39.4484
  0
LINE
  8
0
 10
64.6492
 20
-39.4484
 11
64.6705
 21
-39.5317
  0
LINE
  8
0
 10
64.6705
 20
-39.5317
 11
64.6887
 21
-39.6158
  0
LINE
  8
0
 10
64.6887
 20
-39.6158
 11
64.7026
 21
-39.7003
  0
LINE
  8
0
 10
64.7026
 20
-39.7003
 11
64.7135
 21
-39.7856
  0
LINE
  8
0
 10
64.7135
 20
-39.7856
 11
64.7209
 21
-39.8712
  0
LINE
  8
0
 10
64.7209
 20
-39.8712
 11
64.7243
 21
-39.9569
  0
LINE
  8
0
 10
64.7243
 20
-39.9569
 11
64.7243
 21
-40.0429
  0
LINE
  8
0
 10
64.7243
 20
-40.0429
 11
64.7209
 21
-40.1286
  0
LINE
  8
0
 10
64.7209
 20
-40.1286
 11
64.7135
 21
-40.2142
  0
LINE
  8
0
 10
64.7135
 20
-40.2142
 11
64.7026
 21
-40.2991
  0
LINE
  8
0
 10
64.7026
 20
-40.2991
 11
64.6887
 21
-40.384
  0
LINE
  8
0
 10
64.6887
 20
-40.384
 11
64.6705
 21
-40.4681
  0
LINE
  8
0
 10
64.6705
 20
-40.4681
 11
64.6492
 21
-40.551
  0
LINE
  8
0
 10
64.6492
 20
-40.551
 11
64.6243
 21
-40.6332
  0
LINE
  8
0
 10
64.6243
 20
-40.6332
 11
64.5961
 21
-40.7146
  0
LINE
  8
0
 10
64.5961
 20
-40.7146
 11
64.5647
 21
-40.794
  0
LINE
  8
0
 10
64.5647
 20
-40.794
 11
64.5298
 21
-40.8727
  0
LINE
  8
0
 10
64.5298
 20
-40.8727
 11
64.4914
 21
-40.9494
  0
LINE
  8
0
 10
64.4914
 20
-40.9494
 11
64.4503
 21
-41.0246
  0
LINE
  8
0
 10
64.4503
 20
-41.0246
 11
64.4058
 21
-41.0983
  0
LINE
  8
0
 10
64.4058
 20
-41.0983
 11
64.3581
 21
-41.1696
  0
LINE
  8
0
 10
64.3581
 20
-41.1696
 11
64.3077
 21
-41.2393
  0
LINE
  8
0
 10
64.3077
 20
-41.2393
 11
64.2542
 21
-41.3064
  0
LINE
  8
0
 10
64.2542
 20
-41.3064
 11
64.1984
 21
-41.3715
  0
LINE
  8
0
 10
64.1984
 20
-41.3715
 11
64.1395
 21
-41.4343
  0
LINE
  8
0
 10
64.1395
 20
-41.4343
 11
64.0783
 21
-41.4944
  0
LINE
  8
0
 10
64.0783
 20
-41.4944
 11
64.0143
 21
-41.5517
  0
LINE
  8
0
 10
64.0143
 20
-41.5517
 11
63.948
 21
-41.6064
  0
LINE
  8
0
 10
63.948
 20
-41.6064
 11
63.8798
 21
-41.6583
  0
LINE
  8
0
 10
63.8798
 20
-41.6583
 11
63.8093
 21
-41.7071
  0
LINE
  8
0
 10
63.8093
 20
-41.7071
 11
63.7368
 21
-41.7533
  0
LINE
  8
0
 10
63.7368
 20
-41.7533
 11
63.6624
 21
-41.7963
  0
LINE
  8
0
 10
63.6624
 20
-41.7963
 11
63.5864
 21
-41.8362
  0
LINE
  8
0
 10
63.5864
 20
-41.8362
 11
63.5085
 21
-41.8726
  0
LINE
  8
0
 10
63.5085
 20
-41.8726
 11
63.4295
 21
-41.906
  0
LINE
  8
0
 10
63.4295
 20
-41.906
 11
63.3488
 21
-41.9358
  0
LINE
  8
0
 10
63.3488
 20
-41.9358
 11
63.2675
 21
-41.9622
  0
LINE
  8
0
 10
63.2675
 20
-41.9622
 11
63.1845
 21
-41.9854
  0
LINE
  8
0
 10
63.1845
 20
-41.9854
 11
63.1012
 21
-42.0052
  0
LINE
  8
0
 10
63.1012
 20
-42.0052
 11
63.0167
 21
-42.0211
  0
LINE
  8
0
 10
63.0167
 20
-42.0211
 11
62.9318
 21
-42.0335
  0
LINE
  8
0
 10
62.9318
 20
-42.0335
 11
62.8462
 21
-42.0428
  0
LINE
  8
0
 10
62.8462
 20
-42.0428
 11
62.7605
 21
-42.0478
  0
LINE
  8
0
 10
62.7605
 20
-42.0478
 11
62.6749
 21
-42.0498
  0
LINE
  8
0
 10
62.6749
 20
-42.0498
 11
62.5888
 21
-42.0478
  0
LINE
  8
0
 10
-62.7605
 20
-42.0478
 11
-62.8462
 21
-42.0428
  0
LINE
  8
0
 10
-62.8462
 20
-42.0428
 11
-62.9318
 21
-42.0335
  0
LINE
  8
0
 10
-62.9318
 20
-42.0335
 11
-63.0167
 21
-42.0211
  0
LINE
  8
0
 10
-63.0167
 20
-42.0211
 11
-63.1012
 21
-42.0052
  0
LINE
  8
0
 10
-63.1012
 20
-42.0052
 11
-63.1845
 21
-41.9854
  0
LINE
  8
0
 10
-63.1845
 20
-41.9854
 11
-63.2675
 21
-41.9622
  0
LINE
  8
0
 10
-63.2675
 20
-41.9622
 11
-63.3488
 21
-41.9358
  0
LINE
  8
0
 10
-63.3488
 20
-41.9358
 11
-63.4295
 21
-41.906
  0
LINE
  8
0
 10
-63.4295
 20
-41.906
 11
-63.5085
 21
-41.8726
  0
LINE
  8
0
 10
-63.5085
 20
-41.8726
 11
-63.5864
 21
-41.8362
  0
LINE
  8
0
 10
-63.5864
 20
-41.8362
 11
-63.6624
 21
-41.7963
  0
LINE
  8
0
 10
-63.6624
 20
-41.7963
 11
-63.7368
 21
-41.7533
  0
LINE
  8
0
 10
-63.7368
 20
-41.7533
 11
-63.8093
 21
-41.7071
  0
LINE
  8
0
 10
-63.8093
 20
-41.7071
 11
-63.8798
 21
-41.6583
  0
LINE
  8
0
 10
-63.8798
 20
-41.6583
 11
-63.948
 21
-41.6064
  0
LINE
  8
0
 10
-63.948
 20
-41.6064
 11
-64.0143
 21
-41.5517
  0
LINE
  8
0
 10
-64.0143
 20
-41.5517
 11
-64.0783
 21
-41.4944
  0
LINE
  8
0
 10
-64.0783
 20
-41.4944
 11
-64.1395
 21
-41.4343
  0
LINE
  8
0
 10
-64.1395
 20
-41.4343
 11
-64.1984
 21
-41.3715
  0
LINE
  8
0
 10
-64.1984
 20
-41.3715
 11
-64.2542
 21
-41.3064
  0
LINE
  8
0
 10
-64.2542
 20
-41.3064
 11
-64.3077
 21
-41.2393
  0
LINE
  8
0
 10
-64.3077
 20
-41.2393
 11
-64.3581
 21
-41.1696
  0
LINE
  8
0
 10
-64.3581
 20
-41.1696
 11
-64.4058
 21
-41.0983
  0
LINE
  8
0
 10
-64.4058
 20
-41.0983
 11
-64.4503
 21
-41.0246
  0
LINE
  8
0
 10
-64.4503
 20
-41.0246
 11
-64.4914
 21
-40.9494
  0
LINE
  8
0
 10
-64.4914
 20
-40.9494
 11
-64.5298
 21
-40.8727
  0
LINE
  8
0
 10
-64.5298
 20
-40.8727
 11
-64.5647
 21
-40.794
  0
LINE
  8
0
 10
-64.5647
 20
-40.794
 11
-64.5961
 21
-40.7146
  0
LINE
  8
0
 10
-64.5961
 20
-40.7146
 11
-64.6243
 21
-40.6332
  0
LINE
  8
0
 10
-64.6243
 20
-40.6332
 11
-64.6492
 21
-40.551
  0
LINE
  8
0
 10
-64.6492
 20
-40.551
 11
-64.6705
 21
-40.4681
  0
LINE
  8
0
 10
-64.6705
 20
-40.4681
 11
-64.6887
 21
-40.384
  0
LINE
  8
0
 10
-64.6887
 20
-40.384
 11
-64.7026
 21
-40.2991
  0
LINE
  8
0
 10
-64.7026
 20
-40.2991
 11
-64.7135
 21
-40.2142
  0
LINE
  8
0
 10
-64.7135
 20
-40.2142
 11
-64.7209
 21
-40.1286
  0
LINE
  8
0
 10
-64.7209
 20
-40.1286
 11
-64.7243
 21
-40.0429
  0
LINE
  8
0
 10
-64.7243
 20
-40.0429
 11
-64.7243
 21
-39.9569
  0
LINE
  8
0
 10
-64.7243
 20
-39.9569
 11
-64.7209
 21
-39.8712
  0
LINE
  8
0
 10
-64.7209
 20
-39.8712
 11
-64.7135
 21
-39.7856
  0
LINE
  8
0
 10
-64.7135
 20
-39.7856
 11
-64.7026
 21
-39.7003
  0
LINE
  8
0
 10
-64.7026
 20
-39.7003
 11
-64.6887
 21
-39.6158
  0
LINE
  8
0
 10
-64.6887
 20
-39.6158
 11
-64.6705
 21
-39.5317
  0
LINE
  8
0
 10
-64.6705
 20
-39.5317
 11
-64.6492
 21
-39.4484
  0
LINE
  8
0
 10
-64.6492
 20
-39.4484
 11
-64.6243
 21
-39.3662
  0
LINE
  8
0
 10
-64.6243
 20
-39.3662
 11
-64.5961
 21
-39.2852
  0
LINE
  8
0
 10
-64.5961
 20
-39.2852
 11
-64.5647
 21
-39.2054
  0
LINE
  8
0
 10
-64.5647
 20
-39.2054
 11
-64.5298
 21
-39.1271
  0
LINE
  8
0
 10
-64.5298
 20
-39.1271
 11
-64.4914
 21
-39.0499
  0
LINE
  8
0
 10
-64.4914
 20
-39.0499
 11
-64.4503
 21
-38.9748
  0
LINE
  8
0
 10
-64.4503
 20
-38.9748
 11
-64.4058
 21
-38.9015
  0
LINE
  8
0
 10
-64.4058
 20
-38.9015
 11
-64.3581
 21
-38.8298
  0
LINE
  8
0
 10
-64.3581
 20
-38.8298
 11
-64.3077
 21
-38.7604
  0
LINE
  8
0
 10
-64.3077
 20
-38.7604
 11
-64.2542
 21
-38.693
  0
LINE
  8
0
 10
-64.2542
 20
-38.693
 11
-64.1984
 21
-38.6283
  0
LINE
  8
0
 10
-64.1984
 20
-38.6283
 11
-64.1395
 21
-38.5655
  0
LINE
  8
0
 10
-64.1395
 20
-38.5655
 11
-64.0783
 21
-38.5054
  0
LINE
  8
0
 10
-64.0783
 20
-38.5054
 11
-64.0143
 21
-38.448
  0
LINE
  8
0
 10
-64.0143
 20
-38.448
 11
-63.948
 21
-38.3934
  0
LINE
  8
0
 10
-63.948
 20
-38.3934
 11
-63.8798
 21
-38.3415
  0
LINE
  8
0
 10
-63.8798
 20
-38.3415
 11
-63.8093
 21
-38.2922
  0
LINE
  8
0
 10
-63.8093
 20
-38.2922
 11
-63.7368
 21
-38.2461
  0
LINE
  8
0
 10
-63.7368
 20
-38.2461
 11
-63.6624
 21
-38.2035
  0
LINE
  8
0
 10
-63.6624
 20
-38.2035
 11
-63.5864
 21
-38.1636
  0
LINE
  8
0
 10
-63.5864
 20
-38.1636
 11
-63.5085
 21
-38.1271
  0
LINE
  8
0
 10
-63.5085
 20
-38.1271
 11
-63.4295
 21
-38.0938
  0
LINE
  8
0
 10
-63.4295
 20
-38.0938
 11
-63.3488
 21
-38.064
  0
LINE
  8
0
 10
-63.3488
 20
-38.064
 11
-63.2675
 21
-38.0372
  0
LINE
  8
0
 10
-63.2675
 20
-38.0372
 11
-63.1845
 21
-38.0143
  0
LINE
  8
0
 10
-63.1845
 20
-38.0143
 11
-63.1012
 21
-37.9946
  0
LINE
  8
0
 10
-63.1012
 20
-37.9946
 11
-63.0167
 21
-37.9787
  0
LINE
  8
0
 10
-63.0167
 20
-37.9787
 11
-62.9318
 21
-37.9659
  0
LINE
  8
0
 10
-62.9318
 20
-37.9659
 11
-62.8462
 21
-37.957
  0
LINE
  8
0
 10
-62.8462
 20
-37.957
 11
-62.7605
 21
-37.9516
  0
LINE
  8
0
 10
-62.7605
 20
-37.9516
 11
-62.6749
 21
-37.9496
  0
LINE
  8
0
 10
-62.6749
 20
-37.9496
 11
-62.5888
 21
-37.9516
  0
LINE
  8
0
 10
-62.5888
 20
-37.9516
 11
-62.5032
 21
-37.957
  0
LINE
  8
0
 10
-62.5032
 20
-37.957
 11
-62.4179
 21
-37.9659
  0
LINE
  8
0
 10
-62.4179
 20
-37.9659
 11
-62.333
 21
-37.9787
  0
LINE
  8
0
 10
-62.333
 20
-37.9787
 11
-62.2485
 21
-37.9946
  0
LINE
  8
0
 10
-62.2485
 20
-37.9946
 11
-62.1652
 21
-38.0143
  0
LINE
  8
0
 10
-62.1652
 20
-38.0143
 11
-62.0823
 21
-38.0372
  0
LINE
  8
0
 10
-62.0823
 20
-38.0372
 11
-62.0005
 21
-38.064
  0
LINE
  8
0
 10
-62.0005
 20
-38.064
 11
-61.9203
 21
-38.0938
  0
LINE
  8
0
 10
-61.9203
 20
-38.0938
 11
-61.8412
 21
-38.1271
  0
LINE
  8
0
 10
-61.8412
 20
-38.1271
 11
-61.7633
 21
-38.1636
  0
LINE
  8
0
 10
-61.7633
 20
-38.1636
 11
-61.6873
 21
-38.2035
  0
LINE
  8
0
 10
-61.6873
 20
-38.2035
 11
-61.6129
 21
-38.2461
  0
LINE
  8
0
 10
-61.6129
 20
-38.2461
 11
-61.5404
 21
-38.2922
  0
LINE
  8
0
 10
-61.5404
 20
-38.2922
 11
-61.4699
 21
-38.3415
  0
LINE
  8
0
 10
-61.4699
 20
-38.3415
 11
-61.4013
 21
-38.3934
  0
LINE
  8
0
 10
-61.4013
 20
-38.3934
 11
-61.3354
 21
-38.448
  0
LINE
  8
0
 10
-61.3354
 20
-38.448
 11
-61.2715
 21
-38.5054
  0
LINE
  8
0
 10
-61.2715
 20
-38.5054
 11
-61.2102
 21
-38.5655
  0
LINE
  8
0
 10
-61.2102
 20
-38.5655
 11
-61.1513
 21
-38.6283
  0
LINE
  8
0
 10
-61.1513
 20
-38.6283
 11
-61.0951
 21
-38.693
  0
LINE
  8
0
 10
-61.0951
 20
-38.693
 11
-61.042
 21
-38.7604
  0
LINE
  8
0
 10
-61.042
 20
-38.7604
 11
-60.9916
 21
-38.8298
  0
LINE
  8
0
 10
-60.9916
 20
-38.8298
 11
-60.944
 21
-38.9015
  0
LINE
  8
0
 10
-60.944
 20
-38.9015
 11
-60.8994
 21
-38.9748
  0
LINE
  8
0
 10
-60.8994
 20
-38.9748
 11
-60.8583
 21
-39.0499
  0
LINE
  8
0
 10
-60.8583
 20
-39.0499
 11
-60.8199
 21
-39.1271
  0
LINE
  8
0
 10
-60.8199
 20
-39.1271
 11
-60.785
 21
-39.2054
  0
LINE
  8
0
 10
-60.785
 20
-39.2054
 11
-60.7533
 21
-39.2852
  0
LINE
  8
0
 10
-60.7533
 20
-39.2852
 11
-60.725
 21
-39.3662
  0
LINE
  8
0
 10
-60.725
 20
-39.3662
 11
-60.7002
 21
-39.4484
  0
LINE
  8
0
 10
-60.7002
 20
-39.4484
 11
-60.6789
 21
-39.5317
  0
LINE
  8
0
 10
-60.6789
 20
-39.5317
 11
-60.661
 21
-39.6158
  0
LINE
  8
0
 10
-60.661
 20
-39.6158
 11
-60.6467
 21
-39.7003
  0
LINE
  8
0
 10
-60.6467
 20
-39.7003
 11
-60.6362
 21
-39.7856
  0
LINE
  8
0
 10
-60.6362
 20
-39.7856
 11
-60.6289
 21
-39.8712
  0
LINE
  8
0
 10
-60.6289
 20
-39.8712
 11
-60.6254
 21
-39.9569
  0
LINE
  8
0
 10
-60.6254
 20
-39.9569
 11
-60.6254
 21
-40.0429
  0
LINE
  8
0
 10
-60.6254
 20
-40.0429
 11
-60.6289
 21
-40.1286
  0
LINE
  8
0
 10
-60.6289
 20
-40.1286
 11
-60.6362
 21
-40.2142
  0
LINE
  8
0
 10
-60.6362
 20
-40.2142
 11
-60.6467
 21
-40.2991
  0
LINE
  8
0
 10
-60.6467
 20
-40.2991
 11
-60.661
 21
-40.384
  0
LINE
  8
0
 10
-60.661
 20
-40.384
 11
-60.6789
 21
-40.4681
  0
LINE
  8
0
 10
-60.6789
 20
-40.4681
 11
-60.7002
 21
-40.551
  0
LINE
  8
0
 10
-60.7002
 20
-40.551
 11
-60.725
 21
-40.6332
  0
LINE
  8
0
 10
-60.725
 20
-40.6332
 11
-60.7533
 21
-40.7146
  0
LINE
  8
0
 10
-60.7533
 20
-40.7146
 11
-60.785
 21
-40.794
  0
LINE
  8
0
 10
-60.785
 20
-40.794
 11
-60.8199
 21
-40.8727
  0
LINE
  8
0
 10
-60.8199
 20
-40.8727
 11
-60.8583
 21
-40.9494
  0
LINE
  8
0
 10
-60.8583
 20
-40.9494
 11
-60.8994
 21
-41.0246
  0
LINE
  8
0
 10
-60.8994
 20
-41.0246
 11
-60.944
 21
-41.0983
  0
LINE
  8
0
 10
-60.944
 20
-41.0983
 11
-60.9916
 21
-41.1696
  0
LINE
  8
0
 10
-60.9916
 20
-41.1696
 11
-61.042
 21
-41.2393
  0
LINE
  8
0
 10
-61.042
 20
-41.2393
 11
-61.0951
 21
-41.3064
  0
LINE
  8
0
 10
-61.0951
 20
-41.3064
 11
-61.1513
 21
-41.3715
  0
LINE
  8
0
 10
-61.1513
 20
-41.3715
 11
-61.2102
 21
-41.4343
  0
LINE
  8
0
 10
-61.2102
 20
-41.4343
 11
-61.2715
 21
-41.4944
  0
LINE
  8
0
 10
-61.2715
 20
-41.4944
 11
-61.3354
 21
-41.5517
  0
LINE
  8
0
 10
-61.3354
 20
-41.5517
 11
-61.4013
 21
-41.6064
  0
LINE
  8
0
 10
-61.4013
 20
-41.6064
 11
-61.4699
 21
-41.6583
  0
LINE
  8
0
 10
-61.4699
 20
-41.6583
 11
-61.5404
 21
-41.7071
  0
LINE
  8
0
 10
-61.5404
 20
-41.7071
 11
-61.6129
 21
-41.7533
  0
LINE
  8
0
 10
-61.6129
 20
-41.7533
 11
-61.6873
 21
-41.7963
  0
LINE
  8
0
 10
-61.6873
 20
-41.7963
 11
-61.7633
 21
-41.8362
  0
LINE
  8
0
 10
-61.7633
 20
-41.8362
 11
-61.8412
 21
-41.8726
  0
LINE
  8
0
 10
-61.8412
 20
-41.8726
 11
-61.9203
 21
-41.906
  0
LINE
  8
0
 10
-61.9203
 20
-41.906
 11
-62.0005
 21
-41.9358
  0
LINE
  8
0
 10
-62.0005
 20
-41.9358
 11
-62.0823
 21
-41.9622
  0
LINE
  8
0
 10
-62.0823
 20
-41.9622
 11
-62.1652
 21
-41.9854
  0
LINE
  8
0
 10
-62.1652
 20
-41.9854
 11
-62.2485
 21
-42.0052
  0
LINE
  8
0
 10
-62.2485
 20
-42.0052
 11
-62.333
 21
-42.0211
  0
LINE
  8
0
 10
-62.333
 20
-42.0211
 11
-62.4179
 21
-42.0335
  0
LINE
  8
0
 10
-62.4179
 20
-42.0335
 11
-62.5032
 21
-42.0428
  0
LINE
  8
0
 10
-62.5032
 20
-42.0428
 11
-62.5888
 21
-42.0478
  0
LINE
  8
0
 10
-62.5888
 20
-42.0478
 11
-62.6749
 21
-42.0498
  0
LINE
  8
0
 10
-62.6749
 20
-42.0498
 11
-62.7605
 21
-42.0478
  0
LINE
  8
0
 10
-62.7605
 20
-58.048
 11
-62.8462
 21
-58.0426
  0
LINE
  8
0
 10
-62.8462
 20
-58.0426
 11
-62.9318
 21
-58.0337
  0
LINE
  8
0
 10
-62.9318
 20
-58.0337
 11
-63.0167
 21
-58.0213
  0
LINE
  8
0
 10
-63.0167
 20
-58.0213
 11
-63.1012
 21
-58.005
  0
LINE
  8
0
 10
-63.1012
 20
-58.005
 11
-63.1845
 21
-57.9852
  0
LINE
  8
0
 10
-63.1845
 20
-57.9852
 11
-63.2675
 21
-57.9624
  0
LINE
  8
0
 10
-63.2675
 20
-57.9624
 11
-63.3488
 21
-57.9356
  0
LINE
  8
0
 10
-63.3488
 20
-57.9356
 11
-63.4295
 21
-57.9058
  0
LINE
  8
0
 10
-63.4295
 20
-57.9058
 11
-63.5085
 21
-57.8724
  0
LINE
  8
0
 10
-63.5085
 20
-57.8724
 11
-63.5864
 21
-57.836
  0
LINE
  8
0
 10
-63.5864
 20
-57.836
 11
-63.6624
 21
-57.7961
  0
LINE
  8
0
 10
-63.6624
 20
-57.7961
 11
-63.7368
 21
-57.7535
  0
LINE
  8
0
 10
-63.7368
 20
-57.7535
 11
-63.8093
 21
-57.7073
  0
LINE
  8
0
 10
-63.8093
 20
-57.7073
 11
-63.8798
 21
-57.6581
  0
LINE
  8
0
 10
-63.8798
 20
-57.6581
 11
-63.948
 21
-57.6066
  0
LINE
  8
0
 10
-63.948
 20
-57.6066
 11
-64.0143
 21
-57.5515
  0
LINE
  8
0
 10
-64.0143
 20
-57.5515
 11
-64.0783
 21
-57.4942
  0
LINE
  8
0
 10
-64.0783
 20
-57.4942
 11
-64.1395
 21
-57.4341
  0
LINE
  8
0
 10
-64.1395
 20
-57.4341
 11
-64.1984
 21
-57.3717
  0
LINE
  8
0
 10
-64.1984
 20
-57.3717
 11
-64.2542
 21
-57.3066
  0
LINE
  8
0
 10
-64.2542
 20
-57.3066
 11
-64.3077
 21
-57.2391
  0
LINE
  8
0
 10
-64.3077
 20
-57.2391
 11
-64.3581
 21
-57.1698
  0
LINE
  8
0
 10
-64.3581
 20
-57.1698
 11
-64.4058
 21
-57.0981
  0
LINE
  8
0
 10
-64.4058
 20
-57.0981
 11
-64.4503
 21
-57.0248
  0
LINE
  8
0
 10
-64.4503
 20
-57.0248
 11
-64.4914
 21
-56.9496
  0
LINE
  8
0
 10
-64.4914
 20
-56.9496
 11
-64.5298
 21
-56.8725
  0
LINE
  8
0
 10
-64.5298
 20
-56.8725
 11
-64.5647
 21
-56.7942
  0
LINE
  8
0
 10
-64.5647
 20
-56.7942
 11
-64.5961
 21
-56.7144
  0
LINE
  8
0
 10
-64.5961
 20
-56.7144
 11
-64.6243
 21
-56.6334
  0
LINE
  8
0
 10
-64.6243
 20
-56.6334
 11
-64.6492
 21
-56.5512
  0
LINE
  8
0
 10
-64.6492
 20
-56.5512
 11
-64.6705
 21
-56.4679
  0
LINE
  8
0
 10
-64.6705
 20
-56.4679
 11
-64.6887
 21
-56.3838
  0
LINE
  8
0
 10
-64.6887
 20
-56.3838
 11
-64.7026
 21
-56.2993
  0
LINE
  8
0
 10
-64.7026
 20
-56.2993
 11
-64.7135
 21
-56.214
  0
LINE
  8
0
 10
-64.7135
 20
-56.214
 11
-64.7209
 21
-56.1284
  0
LINE
  8
0
 10
-64.7209
 20
-56.1284
 11
-64.7243
 21
-56.0427
  0
LINE
  8
0
 10
-64.7243
 20
-56.0427
 11
-64.7243
 21
-55.957
  0
LINE
  8
0
 10
-64.7243
 20
-55.957
 11
-64.7209
 21
-55.871
  0
LINE
  8
0
 10
-64.7209
 20
-55.871
 11
-64.7135
 21
-55.7854
  0
LINE
  8
0
 10
-64.7135
 20
-55.7854
 11
-64.7026
 21
-55.7005
  0
LINE
  8
0
 10
-64.7026
 20
-55.7005
 11
-64.6887
 21
-55.6156
  0
LINE
  8
0
 10
-64.6887
 20
-55.6156
 11
-64.6705
 21
-55.5315
  0
LINE
  8
0
 10
-64.6705
 20
-55.5315
 11
-64.6492
 21
-55.4486
  0
LINE
  8
0
 10
-64.6492
 20
-55.4486
 11
-64.6243
 21
-55.3664
  0
LINE
  8
0
 10
-64.6243
 20
-55.3664
 11
-64.5961
 21
-55.2854
  0
LINE
  8
0
 10
-64.5961
 20
-55.2854
 11
-64.5647
 21
-55.2055
  0
LINE
  8
0
 10
-64.5647
 20
-55.2055
 11
-64.5298
 21
-55.1269
  0
LINE
  8
0
 10
-64.5298
 20
-55.1269
 11
-64.4914
 21
-55.0501
  0
LINE
  8
0
 10
-64.4914
 20
-55.0501
 11
-64.4503
 21
-54.9749
  0
LINE
  8
0
 10
-64.4503
 20
-54.9749
 11
-64.4058
 21
-54.9013
  0
LINE
  8
0
 10
-64.4058
 20
-54.9013
 11
-64.3581
 21
-54.83
  0
LINE
  8
0
 10
-64.3581
 20
-54.83
 11
-64.3077
 21
-54.7602
  0
LINE
  8
0
 10
-64.3077
 20
-54.7602
 11
-64.2542
 21
-54.6932
  0
LINE
  8
0
 10
-64.2542
 20
-54.6932
 11
-64.1984
 21
-54.6281
  0
LINE
  8
0
 10
-64.1984
 20
-54.6281
 11
-64.1395
 21
-54.5657
  0
LINE
  8
0
 10
-64.1395
 20
-54.5657
 11
-64.0783
 21
-54.5056
  0
LINE
  8
0
 10
-64.0783
 20
-54.5056
 11
-64.0143
 21
-54.4478
  0
LINE
  8
0
 10
-64.0143
 20
-54.4478
 11
-63.948
 21
-54.3932
  0
LINE
  8
0
 10
-63.948
 20
-54.3932
 11
-63.8798
 21
-54.3413
  0
LINE
  8
0
 10
-63.8798
 20
-54.3413
 11
-63.8093
 21
-54.2924
  0
LINE
  8
0
 10
-63.8093
 20
-54.2924
 11
-63.7368
 21
-54.2463
  0
LINE
  8
0
 10
-63.7368
 20
-54.2463
 11
-63.6624
 21
-54.2033
  0
LINE
  8
0
 10
-63.6624
 20
-54.2033
 11
-63.5864
 21
-54.1637
  0
LINE
  8
0
 10
-63.5864
 20
-54.1637
 11
-63.5085
 21
-54.1269
  0
LINE
  8
0
 10
-63.5085
 20
-54.1269
 11
-63.4295
 21
-54.0936
  0
LINE
  8
0
 10
-63.4295
 20
-54.0936
 11
-63.3488
 21
-54.0638
  0
LINE
  8
0
 10
-63.3488
 20
-54.0638
 11
-63.2675
 21
-54.0374
  0
LINE
  8
0
 10
-63.2675
 20
-54.0374
 11
-63.1845
 21
-54.0141
  0
LINE
  8
0
 10
-63.1845
 20
-54.0141
 11
-63.1012
 21
-53.9948
  0
LINE
  8
0
 10
-63.1012
 20
-53.9948
 11
-63.0167
 21
-53.9785
  0
LINE
  8
0
 10
-63.0167
 20
-53.9785
 11
-62.9318
 21
-53.9661
  0
LINE
  8
0
 10
-62.9318
 20
-53.9661
 11
-62.8462
 21
-53.9572
  0
LINE
  8
0
 10
-62.8462
 20
-53.9572
 11
-62.7605
 21
-53.9517
  0
LINE
  8
0
 10
-62.7605
 20
-53.9517
 11
-62.6749
 21
-53.9498
  0
LINE
  8
0
 10
-62.6749
 20
-53.9498
 11
-62.5888
 21
-53.9517
  0
LINE
  8
0
 10
-62.5888
 20
-53.9517
 11
-62.5032
 21
-53.9572
  0
LINE
  8
0
 10
-62.5032
 20
-53.9572
 11
-62.4179
 21
-53.9661
  0
LINE
  8
0
 10
-62.4179
 20
-53.9661
 11
-62.333
 21
-53.9785
  0
LINE
  8
0
 10
-62.333
 20
-53.9785
 11
-62.2485
 21
-53.9948
  0
LINE
  8
0
 10
-62.2485
 20
-53.9948
 11
-62.1652
 21
-54.0141
  0
LINE
  8
0
 10
-62.1652
 20
-54.0141
 11
-62.0823
 21
-54.0374
  0
LINE
  8
0
 10
-62.0823
 20
-54.0374
 11
-62.0005
 21
-54.0638
  0
LINE
  8
0
 10
-62.0005
 20
-54.0638
 11
-61.9203
 21
-54.0936
  0
LINE
  8
0
 10
-61.9203
 20
-54.0936
 11
-61.8412
 21
-54.1269
  0
LINE
  8
0
 10
-61.8412
 20
-54.1269
 11
-61.7633
 21
-54.1637
  0
LINE
  8
0
 10
-61.7633
 20
-54.1637
 11
-61.6873
 21
-54.2033
  0
LINE
  8
0
 10
-61.6873
 20
-54.2033
 11
-61.6129
 21
-54.2463
  0
LINE
  8
0
 10
-61.6129
 20
-54.2463
 11
-61.5404
 21
-54.2924
  0
LINE
  8
0
 10
-61.5404
 20
-54.2924
 11
-61.4699
 21
-54.3413
  0
LINE
  8
0
 10
-61.4699
 20
-54.3413
 11
-61.4013
 21
-54.3932
  0
LINE
  8
0
 10
-61.4013
 20
-54.3932
 11
-61.3354
 21
-54.4478
  0
LINE
  8
0
 10
-61.3354
 20
-54.4478
 11
-61.2715
 21
-54.5056
  0
LINE
  8
0
 10
-61.2715
 20
-54.5056
 11
-61.2102
 21
-54.5657
  0
LINE
  8
0
 10
-61.2102
 20
-54.5657
 11
-61.1513
 21
-54.6281
  0
LINE
  8
0
 10
-61.1513
 20
-54.6281
 11
-61.0951
 21
-54.6932
  0
LINE
  8
0
 10
-61.0951
 20
-54.6932
 11
-61.042
 21
-54.7602
  0
LINE
  8
0
 10
-61.042
 20
-54.7602
 11
-60.9916
 21
-54.83
  0
LINE
  8
0
 10
-60.9916
 20
-54.83
 11
-60.944
 21
-54.9013
  0
LINE
  8
0
 10
-60.944
 20
-54.9013
 11
-60.8994
 21
-54.9749
  0
LINE
  8
0
 10
-60.8994
 20
-54.9749
 11
-60.8583
 21
-55.0501
  0
LINE
  8
0
 10
-60.8583
 20
-55.0501
 11
-60.8199
 21
-55.1269
  0
LINE
  8
0
 10
-60.8199
 20
-55.1269
 11
-60.785
 21
-55.2055
  0
LINE
  8
0
 10
-60.785
 20
-55.2055
 11
-60.7533
 21
-55.2854
  0
LINE
  8
0
 10
-60.7533
 20
-55.2854
 11
-60.725
 21
-55.3664
  0
LINE
  8
0
 10
-60.725
 20
-55.3664
 11
-60.7002
 21
-55.4486
  0
LINE
  8
0
 10
-60.7002
 20
-55.4486
 11
-60.6789
 21
-55.5315
  0
LINE
  8
0
 10
-60.6789
 20
-55.5315
 11
-60.661
 21
-55.6156
  0
LINE
  8
0
 10
-60.661
 20
-55.6156
 11
-60.6467
 21
-55.7005
  0
LINE
  8
0
 10
-60.6467
 20
-55.7005
 11
-60.6362
 21
-55.7854
  0
LINE
  8
0
 10
-60.6362
 20
-55.7854
 11
-60.6289
 21
-55.871
  0
LINE
  8
0
 10
-60.6289
 20
-55.871
 11
-60.6254
 21
-55.957
  0
LINE
  8
0
 10
-60.6254
 20
-55.957
 11
-60.6254
 21
-56.0427
  0
LINE
  8
0
 10
-60.6254
 20
-56.0427
 11
-60.6289
 21
-56.1284
  0
LINE
  8
0
 10
-60.6289
 20
-56.1284
 11
-60.6362
 21
-56.214
  0
LINE
  8
0
 10
-60.6362
 20
-56.214
 11
-60.6467
 21
-56.2993
  0
LINE
  8
0
 10
-60.6467
 20
-56.2993
 11
-60.661
 21
-56.3838
  0
LINE
  8
0
 10
-60.661
 20
-56.3838
 11
-60.6789
 21
-56.4679
  0
LINE
  8
0
 10
-60.6789
 20
-56.4679
 11
-60.7002
 21
-56.5512
  0
LINE
  8
0
 10
-60.7002
 20
-56.5512
 11
-60.725
 21
-56.6334
  0
LINE
  8
0
 10
-60.725
 20
-56.6334
 11
-60.7533
 21
-56.7144
  0
LINE
  8
0
 10
-60.7533
 20
-56.7144
 11
-60.785
 21
-56.7942
  0
LINE
  8
0
 10
-60.785
 20
-56.7942
 11
-60.8199
 21
-56.8725
  0
LINE
  8
0
 10
-60.8199
 20
-56.8725
 11
-60.8583
 21
-56.9496
  0
LINE
  8
0
 10
-60.8583
 20
-56.9496
 11
-60.8994
 21
-57.0248
  0
LINE
  8
0
 10
-60.8994
 20
-57.0248
 11
-60.944
 21
-57.0981
  0
LINE
  8
0
 10
-60.944
 20
-57.0981
 11
-60.9916
 21
-57.1698
  0
LINE
  8
0
 10
-60.9916
 20
-57.1698
 11
-61.042
 21
-57.2391
  0
LINE
  8
0
 10
-61.042
 20
-57.2391
 11
-61.0951
 21
-57.3066
  0
LINE
  8
0
 10
-61.0951
 20
-57.3066
 11
-61.1513
 21
-57.3717
  0
LINE
  8
0
 10
-61.1513
 20
-57.3717
 11
-61.2102
 21
-57.4341
  0
LINE
  8
0
 10
-61.2102
 20
-57.4341
 11
-61.2715
 21
-57.4942
  0
LINE
  8
0
 10
-61.2715
 20
-57.4942
 11
-61.3354
 21
-57.5515
  0
LINE
  8
0
 10
-61.3354
 20
-57.5515
 11
-61.4013
 21
-57.6066
  0
LINE
  8
0
 10
-61.4013
 20
-57.6066
 11
-61.4699
 21
-57.6581
  0
LINE
  8
0
 10
-61.4699
 20
-57.6581
 11
-61.5404
 21
-57.7073
  0
LINE
  8
0
 10
-61.5404
 20
-57.7073
 11
-61.6129
 21
-57.7535
  0
LINE
  8
0
 10
-61.6129
 20
-57.7535
 11
-61.6873
 21
-57.7961
  0
LINE
  8
0
 10
-61.6873
 20
-57.7961
 11
-61.7633
 21
-57.836
  0
LINE
  8
0
 10
-61.7633
 20
-57.836
 11
-61.8412
 21
-57.8724
  0
LINE
  8
0
 10
-61.8412
 20
-57.8724
 11
-61.9203
 21
-57.9058
  0
LINE
  8
0
 10
-61.9203
 20
-57.9058
 11
-62.0005
 21
-57.9356
  0
LINE
  8
0
 10
-62.0005
 20
-57.9356
 11
-62.0823
 21
-57.9624
  0
LINE
  8
0
 10
-62.0823
 20
-57.9624
 11
-62.1652
 21
-57.9852
  0
LINE
  8
0
 10
-62.1652
 20
-57.9852
 11
-62.2485
 21
-58.005
  0
LINE
  8
0
 10
-62.2485
 20
-58.005
 11
-62.333
 21
-58.0213
  0
LINE
  8
0
 10
-62.333
 20
-58.0213
 11
-62.4179
 21
-58.0337
  0
LINE
  8
0
 10
-62.4179
 20
-58.0337
 11
-62.5032
 21
-58.0426
  0
LINE
  8
0
 10
-62.5032
 20
-58.0426
 11
-62.5888
 21
-58.048
  0
LINE
  8
0
 10
-62.5888
 20
-58.048
 11
-62.6749
 21
-58.0499
  0
LINE
  8
0
 10
-62.6749
 20
-58.0499
 11
-62.7605
 21
-58.048
  0
LINE
  8
0
 10
62.5888
 20
-58.048
 11
62.5032
 21
-58.0426
  0
LINE
  8
0
 10
62.5032
 20
-58.0426
 11
62.4179
 21
-58.0337
  0
LINE
  8
0
 10
62.4179
 20
-58.0337
 11
62.333
 21
-58.0213
  0
LINE
  8
0
 10
62.333
 20
-58.0213
 11
62.2485
 21
-58.005
  0
LINE
  8
0
 10
62.2485
 20
-58.005
 11
62.1652
 21
-57.9852
  0
LINE
  8
0
 10
62.1652
 20
-57.9852
 11
62.0823
 21
-57.9624
  0
LINE
  8
0
 10
62.0823
 20
-57.9624
 11
62.0005
 21
-57.9356
  0
LINE
  8
0
 10
62.0005
 20
-57.9356
 11
61.9203
 21
-57.9058
  0
LINE
  8
0
 10
61.9203
 20
-57.9058
 11
61.8412
 21
-57.8724
  0
LINE
  8
0
 10
61.8412
 20
-57.8724
 11
61.7633
 21
-57.836
  0
LINE
  8
0
 10
61.7633
 20
-57.836
 11
61.6873
 21
-57.7961
  0
LINE
  8
0
 10
61.6873
 20
-57.7961
 11
61.6129
 21
-57.7535
  0
LINE
  8
0
 10
61.6129
 20
-57.7535
 11
61.5404
 21
-57.7073
  0
LINE
  8
0
 10
61.5404
 20
-57.7073
 11
61.4699
 21
-57.6581
  0
LINE
  8
0
 10
61.4699
 20
-57.6581
 11
61.4013
 21
-57.6066
  0
LINE
  8
0
 10
61.4013
 20
-57.6066
 11
61.3354
 21
-57.5515
  0
LINE
  8
0
 10
61.3354
 20
-57.5515
 11
61.2715
 21
-57.4942
  0
LINE
  8
0
 10
61.2715
 20
-57.4942
 11
61.2102
 21
-57.4341
  0
LINE
  8
0
 10
61.2102
 20
-57.4341
 11
61.1513
 21
-57.3717
  0
LINE
  8
0
 10
61.1513
 20
-57.3717
 11
61.0951
 21
-57.3066
  0
LINE
  8
0
 10
61.0951
 20
-57.3066
 11
61.042
 21
-57.2391
  0
LINE
  8
0
 10
61.042
 20
-57.2391
 11
60.9916
 21
-57.1698
  0
LINE
  8
0
 10
60.9916
 20
-57.1698
 11
60.944
 21
-57.0981
  0
LINE
  8
0
 10
60.944
 20
-57.0981
 11
60.8994
 21
-57.0248
  0
LINE
  8
0
 10
60.8994
 20
-57.0248
 11
60.8583
 21
-56.9496
  0
LINE
  8
0
 10
60.8583
 20
-56.9496
 11
60.8199
 21
-56.8725
  0
LINE
  8
0
 10
60.8199
 20
-56.8725
 11
60.785
 21
-56.7942
  0
LINE
  8
0
 10
60.785
 20
-56.7942
 11
60.7533
 21
-56.7144
  0
LINE
  8
0
 10
60.7533
 20
-56.7144
 11
60.725
 21
-56.6334
  0
LINE
  8
0
 10
60.725
 20
-56.6334
 11
60.7002
 21
-56.5512
  0
LINE
  8
0
 10
60.7002
 20
-56.5512
 11
60.6789
 21
-56.4679
  0
LINE
  8
0
 10
60.6789
 20
-56.4679
 11
60.661
 21
-56.3838
  0
LINE
  8
0
 10
60.661
 20
-56.3838
 11
60.6467
 21
-56.2993
  0
LINE
  8
0
 10
60.6467
 20
-56.2993
 11
60.6362
 21
-56.214
  0
LINE
  8
0
 10
60.6362
 20
-56.214
 11
60.6289
 21
-56.1284
  0
LINE
  8
0
 10
60.6289
 20
-56.1284
 11
60.6254
 21
-56.0427
  0
LINE
  8
0
 10
60.6254
 20
-56.0427
 11
60.6254
 21
-55.957
  0
LINE
  8
0
 10
60.6254
 20
-55.957
 11
60.6289
 21
-55.871
  0
LINE
  8
0
 10
60.6289
 20
-55.871
 11
60.6362
 21
-55.7854
  0
LINE
  8
0
 10
60.6362
 20
-55.7854
 11
60.6467
 21
-55.7005
  0
LINE
  8
0
 10
60.6467
 20
-55.7005
 11
60.661
 21
-55.6156
  0
LINE
  8
0
 10
60.661
 20
-55.6156
 11
60.6789
 21
-55.5315
  0
LINE
  8
0
 10
60.6789
 20
-55.5315
 11
60.7002
 21
-55.4486
  0
LINE
  8
0
 10
60.7002
 20
-55.4486
 11
60.725
 21
-55.3664
  0
LINE
  8
0
 10
60.725
 20
-55.3664
 11
60.7533
 21
-55.2854
  0
LINE
  8
0
 10
60.7533
 20
-55.2854
 11
60.785
 21
-55.2055
  0
LINE
  8
0
 10
60.785
 20
-55.2055
 11
60.8199
 21
-55.1269
  0
LINE
  8
0
 10
60.8199
 20
-55.1269
 11
60.8583
 21
-55.0501
  0
LINE
  8
0
 10
60.8583
 20
-55.0501
 11
60.8994
 21
-54.9749
  0
LINE
  8
0
 10
60.8994
 20
-54.9749
 11
60.944
 21
-54.9013
  0
LINE
  8
0
 10
60.944
 20
-54.9013
 11
60.9916
 21
-54.83
  0
LINE
  8
0
 10
60.9916
 20
-54.83
 11
61.042
 21
-54.7602
  0
LINE
  8
0
 10
61.042
 20
-54.7602
 11
61.0951
 21
-54.6932
  0
LINE
  8
0
 10
61.0951
 20
-54.6932
 11
61.1513
 21
-54.6281
  0
LINE
  8
0
 10
61.1513
 20
-54.6281
 11
61.2102
 21
-54.5657
  0
LINE
  8
0
 10
61.2102
 20
-54.5657
 11
61.2715
 21
-54.5056
  0
LINE
  8
0
 10
61.2715
 20
-54.5056
 11
61.3354
 21
-54.4478
  0
LINE
  8
0
 10
61.3354
 20
-54.4478
 11
61.4013
 21
-54.3932
  0
LINE
  8
0
 10
61.4013
 20
-54.3932
 11
61.4699
 21
-54.3413
  0
LINE
  8
0
 10
61.4699
 20
-54.3413
 11
61.5404
 21
-54.2924
  0
LINE
  8
0
 10
61.5404
 20
-54.2924
 11
61.6129
 21
-54.2463
  0
LINE
  8
0
 10
61.6129
 20
-54.2463
 11
61.6873
 21
-54.2033
  0
LINE
  8
0
 10
61.6873
 20
-54.2033
 11
61.7633
 21
-54.1637
  0
LINE
  8
0
 10
61.7633
 20
-54.1637
 11
61.8412
 21
-54.1269
  0
LINE
  8
0
 10
61.8412
 20
-54.1269
 11
61.9203
 21
-54.0936
  0
LINE
  8
0
 10
61.9203
 20
-54.0936
 11
62.0005
 21
-54.0638
  0
LINE
  8
0
 10
62.0005
 20
-54.0638
 11
62.0823
 21
-54.0374
  0
LINE
  8
0
 10
62.0823
 20
-54.0374
 11
62.1652
 21
-54.0141
  0
LINE
  8
0
 10
62.1652
 20
-54.0141
 11
62.2485
 21
-53.9948
  0
LINE
  8
0
 10
62.2485
 20
-53.9948
 11
62.333
 21
-53.9785
  0
LINE
  8
0
 10
62.333
 20
-53.9785
 11
62.4179
 21
-53.9661
  0
LINE
  8
0
 10
62.4179
 20
-53.9661
 11
62.5032
 21
-53.9572
  0
LINE
  8
0
 10
62.5032
 20
-53.9572
 11
62.5888
 21
-53.9517
  0
LINE
  8
0
 10
62.5888
 20
-53.9517
 11
62.6749
 21
-53.9498
  0
LINE
  8
0
 10
62.6749
 20
-53.9498
 11
62.7605
 21
-53.9517
  0
LINE
  8
0
 10
62.7605
 20
-53.9517
 11
62.8462
 21
-53.9572
  0
LINE
  8
0
 10
62.8462
 20
-53.9572
 11
62.9318
 21
-53.9661
  0
LINE
  8
0
 10
62.9318
 20
-53.9661
 11
63.0167
 21
-53.9785
  0
LINE
  8
0
 10
63.0167
 20
-53.9785
 11
63.1012
 21
-53.9948
  0
LINE
  8
0
 10
63.1012
 20
-53.9948
 11
63.1845
 21
-54.0141
  0
LINE
  8
0
 10
63.1845
 20
-54.0141
 11
63.2675
 21
-54.0374
  0
LINE
  8
0
 10
63.2675
 20
-54.0374
 11
63.3488
 21
-54.0638
  0
LINE
  8
0
 10
63.3488
 20
-54.0638
 11
63.4295
 21
-54.0936
  0
LINE
  8
0
 10
63.4295
 20
-54.0936
 11
63.5085
 21
-54.1269
  0
LINE
  8
0
 10
63.5085
 20
-54.1269
 11
63.5864
 21
-54.1637
  0
LINE
  8
0
 10
63.5864
 20
-54.1637
 11
63.6624
 21
-54.2033
  0
LINE
  8
0
 10
63.6624
 20
-54.2033
 11
63.7368
 21
-54.2463
  0
LINE
  8
0
 10
63.7368
 20
-54.2463
 11
63.8093
 21
-54.2924
  0
LINE
  8
0
 10
63.8093
 20
-54.2924
 11
63.8798
 21
-54.3413
  0
LINE
  8
0
 10
63.8798
 20
-54.3413
 11
63.948
 21
-54.3932
  0
LINE
  8
0
 10
63.948
 20
-54.3932
 11
64.0143
 21
-54.4478
  0
LINE
  8
0
 10
64.0143
 20
-54.4478
 11
64.0783
 21
-54.5056
  0
LINE
  8
0
 10
64.0783
 20
-54.5056
 11
64.1395
 21
-54.5657
  0
LINE
  8
0
 10
64.1395
 20
-54.5657
 11
64.1984
 21
-54.6281
  0
LINE
  8
0
 10
64.1984
 20
-54.6281
 11
64.2542
 21
-54.6932
  0
LINE
  8
0
 10
64.2542
 20
-54.6932
 11
64.3077
 21
-54.7602
  0
LINE
  8
0
 10
64.3077
 20
-54.7602
 11
64.3581
 21
-54.83
  0
LINE
  8
0
 10
64.3581
 20
-54.83
 11
64.4058
 21
-54.9013
  0
LINE
  8
0
 10
64.4058
 20
-54.9013
 11
64.4503
 21
-54.9749
  0
LINE
  8
0
 10
64.4503
 20
-54.9749
 11
64.4914
 21
-55.0501
  0
LINE
  8
0
 10
64.4914
 20
-55.0501
 11
64.5298
 21
-55.1269
  0
LINE
  8
0
 10
64.5298
 20
-55.1269
 11
64.5647
 21
-55.2055
  0
LINE
  8
0
 10
64.5647
 20
-55.2055
 11
64.5961
 21
-55.2854
  0
LINE
  8
0
 10
64.5961
 20
-55.2854
 11
64.6243
 21
-55.3664
  0
LINE
  8
0
 10
64.6243
 20
-55.3664
 11
64.6492
 21
-55.4486
  0
LINE
  8
0
 10
64.6492
 20
-55.4486
 11
64.6705
 21
-55.5315
  0
LINE
  8
0
 10
64.6705
 20
-55.5315
 11
64.6887
 21
-55.6156
  0
LINE
  8
0
 10
64.6887
 20
-55.6156
 11
64.7026
 21
-55.7005
  0
LINE
  8
0
 10
64.7026
 20
-55.7005
 11
64.7135
 21
-55.7854
  0
LINE
  8
0
 10
64.7135
 20
-55.7854
 11
64.7209
 21
-55.871
  0
LINE
  8
0
 10
64.7209
 20
-55.871
 11
64.7243
 21
-55.957
  0
LINE
  8
0
 10
64.7243
 20
-55.957
 11
64.7243
 21
-56.0427
  0
LINE
  8
0
 10
64.7243
 20
-56.0427
 11
64.7209
 21
-56.1284
  0
LINE
  8
0
 10
64.7209
 20
-56.1284
 11
64.7135
 21
-56.214
  0
LINE
  8
0
 10
64.7135
 20
-56.214
 11
64.7026
 21
-56.2993
  0
LINE
  8
0
 10
64.7026
 20
-56.2993
 11
64.6887
 21
-56.3838
  0
LINE
  8
0
 10
64.6887
 20
-56.3838
 11
64.6705
 21
-56.4679
  0
LINE
  8
0
 10
64.6705
 20
-56.4679
 11
64.6492
 21
-56.5512
  0
LINE
  8
0
 10
64.6492
 20
-56.5512
 11
64.6243
 21
-56.6334
  0
LINE
  8
0
 10
64.6243
 20
-56.6334
 11
64.5961
 21
-56.7144
  0
LINE
  8
0
 10
64.5961
 20
-56.7144
 11
64.5647
 21
-56.7942
  0
LINE
  8
0
 10
64.5647
 20
-56.7942
 11
64.5298
 21
-56.8725
  0
LINE
  8
0
 10
64.5298
 20
-56.8725
 11
64.4914
 21
-56.9496
  0
LINE
  8
0
 10
64.4914
 20
-56.9496
 11
64.4503
 21
-57.0248
  0
LINE
  8
0
 10
64.4503
 20
-57.0248
 11
64.4058
 21
-57.0981
  0
LINE
  8
0
 10
64.4058
 20
-57.0981
 11
64.3581
 21
-57.1698
  0
LINE
  8
0
 10
64.3581
 20
-57.1698
 11
64.3077
 21
-57.2391
  0
LINE
  8
0
 10
64.3077
 20
-57.2391
 11
64.2542
 21
-57.3066
  0
LINE
  8
0
 10
64.2542
 20
-57.3066
 11
64.1984
 21
-57.3717
  0
LINE
  8
0
 10
64.1984
 20
-57.3717
 11
64.1395
 21
-57.4341
  0
LINE
  8
0
 10
64.1395
 20
-57.4341
 11
64.0783
 21
-57.4942
  0
LINE
  8
0
 10
64.0783
 20
-57.4942
 11
64.0143
 21
-57.5515
  0
LINE
  8
0
 10
64.0143
 20
-57.5515
 11
63.948
 21
-57.6066
  0
LINE
  8
0
 10
63.948
 20
-57.6066
 11
63.8798
 21
-57.6581
  0
LINE
  8
0
 10
63.8798
 20
-57.6581
 11
63.8093
 21
-57.7073
  0
LINE
  8
0
 10
63.8093
 20
-57.7073
 11
63.7368
 21
-57.7535
  0
LINE
  8
0
 10
63.7368
 20
-57.7535
 11
63.6624
 21
-57.7961
  0
LINE
  8
0
 10
63.6624
 20
-57.7961
 11
63.5864
 21
-57.836
  0
LINE
  8
0
 10
63.5864
 20
-57.836
 11
63.5085
 21
-57.8724
  0
LINE
  8
0
 10
63.5085
 20
-57.8724
 11
63.4295
 21
-57.9058
  0
LINE
  8
0
 10
63.4295
 20
-57.9058
 11
63.3488
 21
-57.9356
  0
LINE
  8
0
 10
63.3488
 20
-57.9356
 11
63.2675
 21
-57.9624
  0
LINE
  8
0
 10
63.2675
 20
-57.9624
 11
63.1845
 21
-57.9852
  0
LINE
  8
0
 10
63.1845
 20
-57.9852
 11
63.1012
 21
-58.005
  0
LINE
  8
0
 10
63.1012
 20
-58.005
 11
63.0167
 21
-58.0213
  0
LINE
  8
0
 10
63.0167
 20
-58.0213
 11
62.9318
 21
-58.0337
  0
LINE
  8
0
 10
62.9318
 20
-58.0337
 11
62.8462
 21
-58.0426
  0
LINE
  8
0
 10
62.8462
 20
-58.0426
 11
62.7605
 21
-58.048
  0
LINE
  8
0
 10
62.7605
 20
-58.048
 11
62.6749
 21
-58.0499
  0
LINE
  8
0
 10
62.6749
 20
-58.0499
 11
62.5888
 21
-58.048
  0
LINE
  8
0
 10
-0.0426331
 20
-125.874
 11
-0.128674
 21
-125.871
  0
LINE
  8
0
 10
-0.128674
 20
-125.871
 11
-0.21394
 21
-125.864
  0
LINE
  8
0
 10
-0.21394
 20
-125.864
 11
-0.299207
 21
-125.853
  0
LINE
  8
0
 10
-0.299207
 20
-125.853
 11
-0.384085
 21
-125.838
  0
LINE
  8
0
 10
-0.384085
 20
-125.838
 11
-0.467801
 21
-125.821
  0
LINE
  8
0
 10
-0.467801
 20
-125.821
 11
-0.551129
 21
-125.799
  0
LINE
  8
0
 10
-0.551129
 20
-125.799
 11
-0.633295
 21
-125.774
  0
LINE
  8
0
 10
-0.633295
 20
-125.774
 11
-0.714297
 21
-125.746
  0
LINE
  8
0
 10
-0.714297
 20
-125.746
 11
-0.794138
 21
-125.715
  0
LINE
  8
0
 10
-0.794138
 20
-125.715
 11
-0.872815
 21
-125.68
  0
LINE
  8
0
 10
-0.872815
 20
-125.68
 11
-0.949554
 21
-125.642
  0
LINE
  8
0
 10
-0.949554
 20
-125.642
 11
-1.02474
 21
-125.6
  0
LINE
  8
0
 10
-1.02474
 20
-125.6
 11
-1.09838
 21
-125.556
  0
LINE
  8
0
 10
-1.09838
 20
-125.556
 11
-1.1697
 21
-125.508
  0
LINE
  8
0
 10
-1.1697
 20
-125.508
 11
-1.23907
 21
-125.458
  0
LINE
  8
0
 10
-1.23907
 20
-125.458
 11
-1.30651
 21
-125.404
  0
LINE
  8
0
 10
-1.30651
 20
-125.404
 11
-1.37162
 21
-125.348
  0
LINE
  8
0
 10
-1.37162
 20
-125.348
 11
-1.43402
 21
-125.29
  0
LINE
  8
0
 10
-1.43402
 20
-125.29
 11
-1.49409
 21
-125.228
  0
LINE
  8
0
 10
-1.49409
 20
-125.228
 11
-1.55184
 21
-125.164
  0
LINE
  8
0
 10
-1.55184
 20
-125.164
 11
-1.60649
 21
-125.098
  0
LINE
  8
0
 10
-1.60649
 20
-125.098
 11
-1.65843
 21
-125.03
  0
LINE
  8
0
 10
-1.65843
 20
-125.03
 11
-1.70726
 21
-124.959
  0
LINE
  8
0
 10
-1.70726
 20
-124.959
 11
-1.75338
 21
-124.887
  0
LINE
  8
0
 10
-1.75338
 20
-124.887
 11
-1.7964
 21
-124.813
  0
LINE
  8
0
 10
-1.7964
 20
-124.813
 11
-1.83593
 21
-124.736
  0
LINE
  8
0
 10
-1.83593
 20
-124.736
 11
-1.87275
 21
-124.659
  0
LINE
  8
0
 10
-1.87275
 20
-124.659
 11
-1.9057
 21
-124.58
  0
LINE
  8
0
 10
-1.9057
 20
-124.58
 11
-1.93593
 21
-124.499
  0
LINE
  8
0
 10
-1.93593
 20
-124.499
 11
-1.96228
 21
-124.417
  0
LINE
  8
0
 10
-1.96228
 20
-124.417
 11
-1.98554
 21
-124.335
  0
LINE
  8
0
 10
-1.98554
 20
-124.335
 11
-2.00492
 21
-124.251
  0
LINE
  8
0
 10
-2.00492
 20
-124.251
 11
-2.02119
 21
-124.167
  0
LINE
  8
0
 10
-2.02119
 20
-124.167
 11
-2.0336
 21
-124.082
  0
LINE
  8
0
 10
-2.0336
 20
-124.082
 11
-2.04251
 21
-123.996
  0
LINE
  8
0
 10
-2.04251
 20
-123.996
 11
-2.04794
 21
-123.911
  0
LINE
  8
0
 10
-2.04794
 20
-123.911
 11
-2.04987
 21
-123.825
  0
LINE
  8
0
 10
-2.04987
 20
-123.825
 11
-2.04794
 21
-123.739
  0
LINE
  8
0
 10
-2.04794
 20
-123.739
 11
-2.04251
 21
-123.653
  0
LINE
  8
0
 10
-2.04251
 20
-123.653
 11
-2.0336
 21
-123.568
  0
LINE
  8
0
 10
-2.0336
 20
-123.568
 11
-2.02119
 21
-123.483
  0
LINE
  8
0
 10
-2.02119
 20
-123.483
 11
-2.00492
 21
-123.399
  0
LINE
  8
0
 10
-2.00492
 20
-123.399
 11
-1.98554
 21
-123.315
  0
LINE
  8
0
 10
-1.98554
 20
-123.315
 11
-1.96228
 21
-123.232
  0
LINE
  8
0
 10
-1.96228
 20
-123.232
 11
-1.93593
 21
-123.151
  0
LINE
  8
0
 10
-1.93593
 20
-123.151
 11
-1.9057
 21
-123.07
  0
LINE
  8
0
 10
-1.9057
 20
-123.07
 11
-1.87275
 21
-122.991
  0
LINE
  8
0
 10
-1.87275
 20
-122.991
 11
-1.83593
 21
-122.913
  0
LINE
  8
0
 10
-1.83593
 20
-122.913
 11
-1.7964
 21
-122.837
  0
LINE
  8
0
 10
-1.7964
 20
-122.837
 11
-1.75338
 21
-122.763
  0
LINE
  8
0
 10
-1.75338
 20
-122.763
 11
-1.70726
 21
-122.69
  0
LINE
  8
0
 10
-1.70726
 20
-122.69
 11
-1.65843
 21
-122.62
  0
LINE
  8
0
 10
-1.65843
 20
-122.62
 11
-1.60649
 21
-122.551
  0
LINE
  8
0
 10
-1.60649
 20
-122.551
 11
-1.55184
 21
-122.485
  0
LINE
  8
0
 10
-1.55184
 20
-122.485
 11
-1.49409
 21
-122.422
  0
LINE
  8
0
 10
-1.49409
 20
-122.422
 11
-1.43402
 21
-122.36
  0
LINE
  8
0
 10
-1.43402
 20
-122.36
 11
-1.37162
 21
-122.301
  0
LINE
  8
0
 10
-1.37162
 20
-122.301
 11
-1.30651
 21
-122.245
  0
LINE
  8
0
 10
-1.30651
 20
-122.245
 11
-1.23907
 21
-122.192
  0
LINE
  8
0
 10
-1.23907
 20
-122.192
 11
-1.1697
 21
-122.141
  0
LINE
  8
0
 10
-1.1697
 20
-122.141
 11
-1.09838
 21
-122.094
  0
LINE
  8
0
 10
-1.09838
 20
-122.094
 11
-1.02474
 21
-122.05
  0
LINE
  8
0
 10
-1.02474
 20
-122.05
 11
-0.949554
 21
-122.008
  0
LINE
  8
0
 10
-0.949554
 20
-122.008
 11
-0.872815
 21
-121.97
  0
LINE
  8
0
 10
-0.872815
 20
-121.97
 11
-0.794138
 21
-121.935
  0
LINE
  8
0
 10
-0.794138
 20
-121.935
 11
-0.714297
 21
-121.903
  0
LINE
  8
0
 10
-0.714297
 20
-121.903
 11
-0.633295
 21
-121.875
  0
LINE
  8
0
 10
-0.633295
 20
-121.875
 11
-0.551129
 21
-121.85
  0
LINE
  8
0
 10
-0.551129
 20
-121.85
 11
-0.467801
 21
-121.829
  0
LINE
  8
0
 10
-0.467801
 20
-121.829
 11
-0.384085
 21
-121.811
  0
LINE
  8
0
 10
-0.384085
 20
-121.811
 11
-0.299207
 21
-121.797
  0
LINE
  8
0
 10
-0.299207
 20
-121.797
 11
-0.21394
 21
-121.786
  0
LINE
  8
0
 10
-0.21394
 20
-121.786
 11
-0.128674
 21
-121.779
  0
LINE
  8
0
 10
-0.128674
 20
-121.779
 11
-0.0426331
 21
-121.775
  0
LINE
  8
0
 10
-0.0426331
 20
-121.775
 11
0.0426331
 21
-121.775
  0
LINE
  8
0
 10
0.0426331
 20
-121.775
 11
0.128674
 21
-121.779
  0
LINE
  8
0
 10
0.128674
 20
-121.779
 11
0.21394
 21
-121.786
  0
LINE
  8
0
 10
0.21394
 20
-121.786
 11
0.299207
 21
-121.797
  0
LINE
  8
0
 10
0.299207
 20
-121.797
 11
0.384085
 21
-121.811
  0
LINE
  8
0
 10
0.384085
 20
-121.811
 11
0.467801
 21
-121.829
  0
LINE
  8
0
 10
0.467801
 20
-121.829
 11
0.551129
 21
-121.85
  0
LINE
  8
0
 10
0.551129
 20
-121.85
 11
0.633295
 21
-121.875
  0
LINE
  8
0
 10
0.633295
 20
-121.875
 11
0.714297
 21
-121.903
  0
LINE
  8
0
 10
0.714297
 20
-121.903
 11
0.794138
 21
-121.935
  0
LINE
  8
0
 10
0.794138
 20
-121.935
 11
0.872815
 21
-121.97
  0
LINE
  8
0
 10
0.872815
 20
-121.97
 11
0.949554
 21
-122.008
  0
LINE
  8
0
 10
0.949554
 20
-122.008
 11
1.02474
 21
-122.05
  0
LINE
  8
0
 10
1.02474
 20
-122.05
 11
1.09838
 21
-122.094
  0
LINE
  8
0
 10
1.09838
 20
-122.094
 11
1.1697
 21
-122.141
  0
LINE
  8
0
 10
1.1697
 20
-122.141
 11
1.23907
 21
-122.192
  0
LINE
  8
0
 10
1.23907
 20
-122.192
 11
1.30651
 21
-122.245
  0
LINE
  8
0
 10
1.30651
 20
-122.245
 11
1.37162
 21
-122.301
  0
LINE
  8
0
 10
1.37162
 20
-122.301
 11
1.43402
 21
-122.36
  0
LINE
  8
0
 10
1.43402
 20
-122.36
 11
1.49409
 21
-122.422
  0
LINE
  8
0
 10
1.49409
 20
-122.422
 11
1.55184
 21
-122.485
  0
LINE
  8
0
 10
1.55184
 20
-122.485
 11
1.60649
 21
-122.551
  0
LINE
  8
0
 10
1.60649
 20
-122.551
 11
1.65843
 21
-122.62
  0
LINE
  8
0
 10
1.65843
 20
-122.62
 11
1.70726
 21
-122.69
  0
LINE
  8
0
 10
1.70726
 20
-122.69
 11
1.75338
 21
-122.763
  0
LINE
  8
0
 10
1.75338
 20
-122.763
 11
1.7964
 21
-122.837
  0
LINE
  8
0
 10
1.7964
 20
-122.837
 11
1.83593
 21
-122.913
  0
LINE
  8
0
 10
1.83593
 20
-122.913
 11
1.87275
 21
-122.991
  0
LINE
  8
0
 10
1.87275
 20
-122.991
 11
1.9057
 21
-123.07
  0
LINE
  8
0
 10
1.9057
 20
-123.07
 11
1.93593
 21
-123.151
  0
LINE
  8
0
 10
1.93593
 20
-123.151
 11
1.96228
 21
-123.232
  0
LINE
  8
0
 10
1.96228
 20
-123.232
 11
1.98554
 21
-123.315
  0
LINE
  8
0
 10
1.98554
 20
-123.315
 11
2.00492
 21
-123.399
  0
LINE
  8
0
 10
2.00492
 20
-123.399
 11
2.02119
 21
-123.483
  0
LINE
  8
0
 10
2.02119
 20
-123.483
 11
2.0336
 21
-123.568
  0
LINE
  8
0
 10
2.0336
 20
-123.568
 11
2.04251
 21
-123.653
  0
LINE
  8
0
 10
2.04251
 20
-123.653
 11
2.04794
 21
-123.739
  0
LINE
  8
0
 10
2.04794
 20
-123.739
 11
2.04987
 21
-123.825
  0
LINE
  8
0
 10
2.04987
 20
-123.825
 11
2.04794
 21
-123.911
  0
LINE
  8
0
 10
2.04794
 20
-123.911
 11
2.04251
 21
-123.996
  0
LINE
  8
0
 10
2.04251
 20
-123.996
 11
2.0336
 21
-124.082
  0
LINE
  8
0
 10
2.0336
 20
-124.082
 11
2.02119
 21
-124.167
  0
LINE
  8
0
 10
2.02119
 20
-124.167
 11
2.00492
 21
-124.251
  0
LINE
  8
0
 10
2.00492
 20
-124.251
 11
1.98554
 21
-124.335
  0
LINE
  8
0
 10
1.98554
 20
-124.335
 11
1.96228
 21
-124.417
  0
LINE
  8
0
 10
1.96228
 20
-124.417
 11
1.93593
 21
-124.499
  0
LINE
  8
0
 10
1.93593
 20
-124.499
 11
1.9057
 21
-124.58
  0
LINE
  8
0
 10
1.9057
 20
-124.58
 11
1.87275
 21
-124.659
  0
LINE
  8
0
 10
1.87275
 20
-124.659
 11
1.83593
 21
-124.736
  0
LINE
  8
0
 10
1.83593
 20
-124.736
 11
1.7964
 21
-124.813
  0
LINE
  8
0
 10
1.7964
 20
-124.813
 11
1.75338
 21
-124.887
  0
LINE
  8
0
 10
1.75338
 20
-124.887
 11
1.70726
 21
-124.959
  0
LINE
  8
0
 10
1.70726
 20
-124.959
 11
1.65843
 21
-125.03
  0
LINE
  8
0
 10
1.65843
 20
-125.03
 11
1.60649
 21
-125.098
  0
LINE
  8
0
 10
1.60649
 20
-125.098
 11
1.55184
 21
-125.164
  0
LINE
  8
0
 10
1.55184
 20
-125.164
 11
1.49409
 21
-125.228
  0
LINE
  8
0
 10
1.49409
 20
-125.228
 11
1.43402
 21
-125.29
  0
LINE
  8
0
 10
1.43402
 20
-125.29
 11
1.37162
 21
-125.348
  0
LINE
  8
0
 10
1.37162
 20
-125.348
 11
1.30651
 21
-125.404
  0
LINE
  8
0
 10
1.30651
 20
-125.404
 11
1.23907
 21
-125.458
  0
LINE
  8
0
 10
1.23907
 20
-125.458
 11
1.1697
 21
-125.508
  0
LINE
  8
0
 10
1.1697
 20
-125.508
 11
1.09838
 21
-125.556
  0
LINE
  8
0
 10
1.09838
 20
-125.556
 11
1.02474
 21
-125.6
  0
LINE
  8
0
 10
1.02474
 20
-125.6
 11
0.949554
 21
-125.642
  0
LINE
  8
0
 10
0.949554
 20
-125.642
 11
0.872815
 21
-125.68
  0
LINE
  8
0
 10
0.872815
 20
-125.68
 11
0.794138
 21
-125.715
  0
LINE
  8
0
 10
0.794138
 20
-125.715
 11
0.714297
 21
-125.746
  0
LINE
  8
0
 10
0.714297
 20
-125.746
 11
0.633295
 21
-125.774
  0
LINE
  8
0
 10
0.633295
 20
-125.774
 11
0.551129
 21
-125.799
  0
LINE
  8
0
 10
0.551129
 20
-125.799
 11
0.467801
 21
-125.821
  0
LINE
  8
0
 10
0.467801
 20
-125.821
 11
0.384085
 21
-125.838
  0
LINE
  8
0
 10
0.384085
 20
-125.838
 11
0.299207
 21
-125.853
  0
LINE
  8
0
 10
0.299207
 20
-125.853
 11
0.21394
 21
-125.864
  0
LINE
  8
0
 10
0.21394
 20
-125.864
 11
0.128674
 21
-125.871
  0
LINE
  8
0
 10
0.128674
 20
-125.871
 11
0.0426331
 21
-125.874
  0
LINE
  8
0
 10
0.0426331
 20
-125.874
 11
-0.0426331
 21
-125.874
  0
ENDSEC
  0
SECTION
  2
OBJECTS
  0
DICTIONARY
  0
ENDSEC
  0
EOF
