  0
SECTION
  2
BLOCKS
  0
ENDSEC
  0
SECTION
  2
ENTITIES
  0
LINE
  8
0
 10
0.114166
 20
-0.486786
 11
0.134445
 21
-0.481567
  0
LINE
  8
0
 10
0.134445
 20
-0.481567
 11
0.154495
 21
-0.475525
  0
LINE
  8
0
 10
0.154495
 20
-0.475525
 11
0.174286
 21
-0.468628
  0
LINE
  8
0
 10
0.174286
 20
-0.468628
 11
0.193756
 21
-0.460922
  0
LINE
  8
0
 10
0.193756
 20
-0.460922
 11
0.212875
 21
-0.452408
  0
LINE
  8
0
 10
0.212875
 20
-0.452408
 11
0.231644
 21
-0.4431
  0
LINE
  8
0
 10
0.231644
 20
-0.4431
 11
0.25
 21
-0.432999
  0
LINE
  8
0
 10
0.25
 20
-0.432999
 11
0.267899
 21
-0.42215
  0
LINE
  8
0
 10
0.267899
 20
-0.42215
 11
0.285355
 21
-0.410568
  0
LINE
  8
0
 10
0.285355
 20
-0.410568
 11
0.302292
 21
-0.398254
  0
LINE
  8
0
 10
0.302292
 20
-0.398254
 11
0.31871
 21
-0.385254
  0
LINE
  8
0
 10
0.31871
 20
-0.385254
 11
0.334564
 21
-0.371567
  0
LINE
  8
0
 10
0.334564
 20
-0.371567
 11
0.349823
 21
-0.357224
  0
LINE
  8
0
 10
0.349823
 20
-0.357224
 11
0.364471
 21
-0.34227
  0
LINE
  8
0
 10
0.364471
 20
-0.34227
 11
0.378494
 21
-0.326706
  0
LINE
  8
0
 10
0.378494
 20
-0.326706
 11
0.391846
 21
-0.310562
  0
LINE
  8
0
 10
0.391846
 20
-0.310562
 11
0.404495
 21
-0.293884
  0
LINE
  8
0
 10
0.404495
 20
-0.293884
 11
0.416458
 21
-0.276688
  0
LINE
  8
0
 10
0.416458
 20
-0.276688
 11
0.427673
 21
-0.259003
  0
LINE
  8
0
 10
0.427673
 20
-0.259003
 11
0.438141
 21
-0.240875
  0
LINE
  8
0
 10
0.438141
 20
-0.240875
 11
0.447845
 21
-0.222305
  0
LINE
  8
0
 10
0.447845
 20
-0.222305
 11
0.456772
 21
-0.203354
  0
LINE
  8
0
 10
0.456772
 20
-0.203354
 11
0.464874
 21
-0.184052
  0
LINE
  8
0
 10
0.464874
 20
-0.184052
 11
0.472183
 21
-0.164429
  0
LINE
  8
0
 10
0.472183
 20
-0.164429
 11
0.478653
 21
-0.144501
  0
LINE
  8
0
 10
0.478653
 20
-0.144501
 11
0.484283
 21
-0.124344
  0
LINE
  8
0
 10
0.484283
 20
-0.124344
 11
0.489059
 21
-0.103943
  0
LINE
  8
0
 10
0.489059
 20
-0.103943
 11
0.492996
 21
-0.083374
  0
LINE
  8
0
 10
0.492996
 20
-0.083374
 11
0.496048
 21
-0.0626526
  0
LINE
  8
0
 10
0.496048
 20
-0.0626526
 11
0.498245
 21
-0.0418243
  0
LINE
  8
0
 10
0.498245
 20
-0.0418243
 11
0.499557
 21
-0.0209351
  0
LINE
  8
0
 10
0.499557
 20
-0.0209351
 11
0.5
 21
0
  0
LINE
  8
0
 10
0.5
 20
0
 11
0.499557
 21
0.0209351
  0
LINE
  8
0
 10
0.499557
 20
0.0209351
 11
0.498245
 21
0.0418243
  0
LINE
  8
0
 10
0.498245
 20
0.0418243
 11
0.496048
 21
0.0626526
  0
LINE
  8
0
 10
0.496048
 20
0.0626526
 11
0.492996
 21
0.083374
  0
LINE
  8
0
 10
0.492996
 20
0.083374
 11
0.489059
 21
0.103943
  0
LINE
  8
0
 10
0.489059
 20
0.103943
 11
0.484283
 21
0.124344
  0
LINE
  8
0
 10
0.484283
 20
0.124344
 11
0.478653
 21
0.144501
  0
LINE
  8
0
 10
0.478653
 20
0.144501
 11
0.472183
 21
0.164429
  0
LINE
  8
0
 10
0.472183
 20
0.164429
 11
0.464874
 21
0.184052
  0
LINE
  8
0
 10
0.464874
 20
0.184052
 11
0.456772
 21
0.203354
  0
LINE
  8
0
 10
0.456772
 20
0.203354
 11
0.447845
 21
0.222305
  0
LINE
  8
0
 10
0.447845
 20
0.222305
 11
0.438141
 21
0.240875
  0
LINE
  8
0
 10
0.438141
 20
0.240875
 11
0.427673
 21
0.259003
  0
LINE
  8
0
 10
0.427673
 20
0.259003
 11
0.416458
 21
0.276688
  0
LINE
  8
0
 10
0.416458
 20
0.276688
 11
0.404495
 21
0.293884
  0
LINE
  8
0
 10
0.404495
 20
0.293884
 11
0.391846
 21
0.310562
  0
LINE
  8
0
 10
0.391846
 20
0.310562
 11
0.378494
 21
0.326706
  0
LINE
  8
0
 10
0.378494
 20
0.326706
 11
0.364471
 21
0.34227
  0
LINE
  8
0
 10
0.364471
 20
0.34227
 11
0.349823
 21
0.357224
  0
LINE
  8
0
 10
0.349823
 20
0.357224
 11
0.334564
 21
0.371567
  0
LINE
  8
0
 10
0.334564
 20
0.371567
 11
0.31871
 21
0.385254
  0
LINE
  8
0
 10
0.31871
 20
0.385254
 11
0.302292
 21
0.398254
  0
LINE
  8
0
 10
0.302292
 20
0.398254
 11
0.285355
 21
0.410568
  0
LINE
  8
0
 10
0.285355
 20
0.410568
 11
0.267899
 21
0.42215
  0
LINE
  8
0
 10
0.267899
 20
0.42215
 11
-2.18649
 21
2
  0
LINE
  8
0
 10
-2.18649
 20
2
 11
-2.1875
 21
2
  0
LINE
  8
0
 10
-2.1875
 20
2
 11
-2.1875
 21
-1
  0
LINE
  8
0
 10
-2.1875
 20
-1
 11
-2.18649
 21
-1
  0
LINE
  8
0
 10
-2.18649
 20
-1
 11
0.114166
 21
-0.486786
  0
LINE
  8
0
 10
-1.90839
 20
1.57408
 11
-1.91176
 21
1.5743
  0
LINE
  8
0
 10
-1.91176
 20
1.5743
 11
-1.91513
 21
1.57465
  0
LINE
  8
0
 10
-1.91513
 20
1.57465
 11
-1.91847
 21
1.57513
  0
LINE
  8
0
 10
-1.91847
 20
1.57513
 11
-1.9218
 21
1.57578
  0
LINE
  8
0
 10
-1.9218
 20
1.57578
 11
-1.92508
 21
1.57654
  0
LINE
  8
0
 10
-1.92508
 20
1.57654
 11
-1.92834
 21
1.57745
  0
LINE
  8
0
 10
-1.92834
 20
1.57745
 11
-1.93155
 21
1.57849
  0
LINE
  8
0
 10
-1.93155
 20
1.57849
 11
-1.93472
 21
1.57968
  0
LINE
  8
0
 10
-1.93472
 20
1.57968
 11
-1.93784
 21
1.58098
  0
LINE
  8
0
 10
-1.93784
 20
1.58098
 11
-1.9409
 21
1.58243
  0
LINE
  8
0
 10
-1.9409
 20
1.58243
 11
-1.94389
 21
1.58398
  0
LINE
  8
0
 10
-1.94389
 20
1.58398
 11
-1.94682
 21
1.58568
  0
LINE
  8
0
 10
-1.94682
 20
1.58568
 11
-1.94968
 21
1.58749
  0
LINE
  8
0
 10
-1.94968
 20
1.58749
 11
-1.95245
 21
1.58942
  0
LINE
  8
0
 10
-1.95245
 20
1.58942
 11
-1.95514
 21
1.59146
  0
LINE
  8
0
 10
-1.95514
 20
1.59146
 11
-1.95775
 21
1.59361
  0
LINE
  8
0
 10
-1.95775
 20
1.59361
 11
-1.96027
 21
1.59589
  0
LINE
  8
0
 10
-1.96027
 20
1.59589
 11
-1.96268
 21
1.59825
  0
LINE
  8
0
 10
-1.96268
 20
1.59825
 11
-1.965
 21
1.60071
  0
LINE
  8
0
 10
-1.965
 20
1.60071
 11
-1.96719
 21
1.60327
  0
LINE
  8
0
 10
-1.96719
 20
1.60327
 11
-1.9693
 21
1.60593
  0
LINE
  8
0
 10
-1.9693
 20
1.60593
 11
-1.97128
 21
1.60866
  0
LINE
  8
0
 10
-1.97128
 20
1.60866
 11
-1.97316
 21
1.61147
  0
LINE
  8
0
 10
-1.97316
 20
1.61147
 11
-1.97491
 21
1.61436
  0
LINE
  8
0
 10
-1.97491
 20
1.61436
 11
-1.97653
 21
1.61732
  0
LINE
  8
0
 10
-1.97653
 20
1.61732
 11
-1.97804
 21
1.62035
  0
LINE
  8
0
 10
-1.97804
 20
1.62035
 11
-1.97942
 21
1.62344
  0
LINE
  8
0
 10
-1.97942
 20
1.62344
 11
-1.98065
 21
1.62659
  0
LINE
  8
0
 10
-1.98065
 20
1.62659
 11
-1.98177
 21
1.62978
  0
LINE
  8
0
 10
-1.98177
 20
1.62978
 11
-1.98274
 21
1.63301
  0
LINE
  8
0
 10
-1.98274
 20
1.63301
 11
-1.98358
 21
1.63629
  0
LINE
  8
0
 10
-1.98358
 20
1.63629
 11
-1.98428
 21
1.63959
  0
LINE
  8
0
 10
-1.98428
 20
1.63959
 11
-1.98485
 21
1.64293
  0
LINE
  8
0
 10
-1.98485
 20
1.64293
 11
-1.98528
 21
1.64629
  0
LINE
  8
0
 10
-1.98528
 20
1.64629
 11
-1.98557
 21
1.64964
  0
LINE
  8
0
 10
-1.98557
 20
1.64964
 11
-1.9857
 21
1.65303
  0
LINE
  8
0
 10
-1.9857
 20
1.65303
 11
-1.9857
 21
1.6564
  0
LINE
  8
0
 10
-1.9857
 20
1.6564
 11
-1.98557
 21
1.65979
  0
LINE
  8
0
 10
-1.98557
 20
1.65979
 11
-1.98528
 21
1.66315
  0
LINE
  8
0
 10
-1.98528
 20
1.66315
 11
-1.98485
 21
1.6665
  0
LINE
  8
0
 10
-1.98485
 20
1.6665
 11
-1.98428
 21
1.66985
  0
LINE
  8
0
 10
-1.98428
 20
1.66985
 11
-1.98358
 21
1.67314
  0
LINE
  8
0
 10
-1.98358
 20
1.67314
 11
-1.98274
 21
1.67642
  0
LINE
  8
0
 10
-1.98274
 20
1.67642
 11
-1.98177
 21
1.67966
  0
LINE
  8
0
 10
-1.98177
 20
1.67966
 11
-1.98065
 21
1.68285
  0
LINE
  8
0
 10
-1.98065
 20
1.68285
 11
-1.97942
 21
1.68599
  0
LINE
  8
0
 10
-1.97942
 20
1.68599
 11
-1.97804
 21
1.68909
  0
LINE
  8
0
 10
-1.97804
 20
1.68909
 11
-1.97653
 21
1.69211
  0
LINE
  8
0
 10
-1.97653
 20
1.69211
 11
-1.97491
 21
1.69507
  0
LINE
  8
0
 10
-1.97491
 20
1.69507
 11
-1.97316
 21
1.69797
  0
LINE
  8
0
 10
-1.97316
 20
1.69797
 11
-1.97128
 21
1.70078
  0
LINE
  8
0
 10
-1.97128
 20
1.70078
 11
-1.9693
 21
1.70351
  0
LINE
  8
0
 10
-1.9693
 20
1.70351
 11
-1.96719
 21
1.70616
  0
LINE
  8
0
 10
-1.96719
 20
1.70616
 11
-1.965
 21
1.70872
  0
LINE
  8
0
 10
-1.965
 20
1.70872
 11
-1.96268
 21
1.71118
  0
LINE
  8
0
 10
-1.96268
 20
1.71118
 11
-1.96027
 21
1.71355
  0
LINE
  8
0
 10
-1.96027
 20
1.71355
 11
-1.95775
 21
1.71581
  0
LINE
  8
0
 10
-1.95775
 20
1.71581
 11
-1.95514
 21
1.71797
  0
LINE
  8
0
 10
-1.95514
 20
1.71797
 11
-1.95245
 21
1.72002
  0
LINE
  8
0
 10
-1.95245
 20
1.72002
 11
-1.94968
 21
1.72194
  0
LINE
  8
0
 10
-1.94968
 20
1.72194
 11
-1.94682
 21
1.72375
  0
LINE
  8
0
 10
-1.94682
 20
1.72375
 11
-1.94389
 21
1.72545
  0
LINE
  8
0
 10
-1.94389
 20
1.72545
 11
-1.9409
 21
1.72701
  0
LINE
  8
0
 10
-1.9409
 20
1.72701
 11
-1.93784
 21
1.72845
  0
LINE
  8
0
 10
-1.93784
 20
1.72845
 11
-1.93472
 21
1.72975
  0
LINE
  8
0
 10
-1.93472
 20
1.72975
 11
-1.93155
 21
1.73094
  0
LINE
  8
0
 10
-1.93155
 20
1.73094
 11
-1.92834
 21
1.73198
  0
LINE
  8
0
 10
-1.92834
 20
1.73198
 11
-1.92508
 21
1.73289
  0
LINE
  8
0
 10
-1.92508
 20
1.73289
 11
-1.9218
 21
1.73366
  0
LINE
  8
0
 10
-1.9218
 20
1.73366
 11
-1.91847
 21
1.7343
  0
LINE
  8
0
 10
-1.91847
 20
1.7343
 11
-1.91513
 21
1.73479
  0
LINE
  8
0
 10
-1.91513
 20
1.73479
 11
-1.91176
 21
1.73514
  0
LINE
  8
0
 10
-1.91176
 20
1.73514
 11
-1.90839
 21
1.73535
  0
LINE
  8
0
 10
-1.90839
 20
1.73535
 11
-1.90501
 21
1.73543
  0
LINE
  8
0
 10
-1.90501
 20
1.73543
 11
-1.90163
 21
1.73535
  0
LINE
  8
0
 10
-1.90163
 20
1.73535
 11
-1.89825
 21
1.73514
  0
LINE
  8
0
 10
-1.89825
 20
1.73514
 11
-1.8949
 21
1.73479
  0
LINE
  8
0
 10
-1.8949
 20
1.73479
 11
-1.89156
 21
1.7343
  0
LINE
  8
0
 10
-1.89156
 20
1.7343
 11
-1.88823
 21
1.73366
  0
LINE
  8
0
 10
-1.88823
 20
1.73366
 11
-1.88493
 21
1.73289
  0
LINE
  8
0
 10
-1.88493
 20
1.73289
 11
-1.88168
 21
1.73198
  0
LINE
  8
0
 10
-1.88168
 20
1.73198
 11
-1.87846
 21
1.73094
  0
LINE
  8
0
 10
-1.87846
 20
1.73094
 11
-1.87531
 21
1.72975
  0
LINE
  8
0
 10
-1.87531
 20
1.72975
 11
-1.87219
 21
1.72845
  0
LINE
  8
0
 10
-1.87219
 20
1.72845
 11
-1.86913
 21
1.72701
  0
LINE
  8
0
 10
-1.86913
 20
1.72701
 11
-1.86613
 21
1.72545
  0
LINE
  8
0
 10
-1.86613
 20
1.72545
 11
-1.8632
 21
1.72375
  0
LINE
  8
0
 10
-1.8632
 20
1.72375
 11
-1.86035
 21
1.72194
  0
LINE
  8
0
 10
-1.86035
 20
1.72194
 11
-1.85757
 21
1.72002
  0
LINE
  8
0
 10
-1.85757
 20
1.72002
 11
-1.85487
 21
1.71797
  0
LINE
  8
0
 10
-1.85487
 20
1.71797
 11
-1.85228
 21
1.71581
  0
LINE
  8
0
 10
-1.85228
 20
1.71581
 11
-1.84976
 21
1.71355
  0
LINE
  8
0
 10
-1.84976
 20
1.71355
 11
-1.84735
 21
1.71118
  0
LINE
  8
0
 10
-1.84735
 20
1.71118
 11
-1.84503
 21
1.70872
  0
LINE
  8
0
 10
-1.84503
 20
1.70872
 11
-1.84282
 21
1.70616
  0
LINE
  8
0
 10
-1.84282
 20
1.70616
 11
-1.84073
 21
1.70351
  0
LINE
  8
0
 10
-1.84073
 20
1.70351
 11
-1.83875
 21
1.70078
  0
LINE
  8
0
 10
-1.83875
 20
1.70078
 11
-1.83687
 21
1.69797
  0
LINE
  8
0
 10
-1.83687
 20
1.69797
 11
-1.83511
 21
1.69507
  0
LINE
  8
0
 10
-1.83511
 20
1.69507
 11
-1.83348
 21
1.69211
  0
LINE
  8
0
 10
-1.83348
 20
1.69211
 11
-1.83199
 21
1.68909
  0
LINE
  8
0
 10
-1.83199
 20
1.68909
 11
-1.83061
 21
1.68599
  0
LINE
  8
0
 10
-1.83061
 20
1.68599
 11
-1.82936
 21
1.68285
  0
LINE
  8
0
 10
-1.82936
 20
1.68285
 11
-1.82825
 21
1.67966
  0
LINE
  8
0
 10
-1.82825
 20
1.67966
 11
-1.82727
 21
1.67642
  0
LINE
  8
0
 10
-1.82727
 20
1.67642
 11
-1.82643
 21
1.67314
  0
LINE
  8
0
 10
-1.82643
 20
1.67314
 11
-1.82573
 21
1.66985
  0
LINE
  8
0
 10
-1.82573
 20
1.66985
 11
-1.82516
 21
1.6665
  0
LINE
  8
0
 10
-1.82516
 20
1.6665
 11
-1.82475
 21
1.66315
  0
LINE
  8
0
 10
-1.82475
 20
1.66315
 11
-1.82446
 21
1.65979
  0
LINE
  8
0
 10
-1.82446
 20
1.65979
 11
-1.82433
 21
1.6564
  0
LINE
  8
0
 10
-1.82433
 20
1.6564
 11
-1.82433
 21
1.65303
  0
LINE
  8
0
 10
-1.82433
 20
1.65303
 11
-1.82446
 21
1.64964
  0
LINE
  8
0
 10
-1.82446
 20
1.64964
 11
-1.82475
 21
1.64629
  0
LINE
  8
0
 10
-1.82475
 20
1.64629
 11
-1.82516
 21
1.64293
  0
LINE
  8
0
 10
-1.82516
 20
1.64293
 11
-1.82573
 21
1.63959
  0
LINE
  8
0
 10
-1.82573
 20
1.63959
 11
-1.82643
 21
1.63629
  0
LINE
  8
0
 10
-1.82643
 20
1.63629
 11
-1.82727
 21
1.63301
  0
LINE
  8
0
 10
-1.82727
 20
1.63301
 11
-1.82825
 21
1.62978
  0
LINE
  8
0
 10
-1.82825
 20
1.62978
 11
-1.82936
 21
1.62659
  0
LINE
  8
0
 10
-1.82936
 20
1.62659
 11
-1.83061
 21
1.62344
  0
LINE
  8
0
 10
-1.83061
 20
1.62344
 11
-1.83199
 21
1.62035
  0
LINE
  8
0
 10
-1.83199
 20
1.62035
 11
-1.83348
 21
1.61732
  0
LINE
  8
0
 10
-1.83348
 20
1.61732
 11
-1.83511
 21
1.61436
  0
LINE
  8
0
 10
-1.83511
 20
1.61436
 11
-1.83687
 21
1.61147
  0
LINE
  8
0
 10
-1.83687
 20
1.61147
 11
-1.83875
 21
1.60866
  0
LINE
  8
0
 10
-1.83875
 20
1.60866
 11
-1.84073
 21
1.60593
  0
LINE
  8
0
 10
-1.84073
 20
1.60593
 11
-1.84282
 21
1.60327
  0
LINE
  8
0
 10
-1.84282
 20
1.60327
 11
-1.84503
 21
1.60071
  0
LINE
  8
0
 10
-1.84503
 20
1.60071
 11
-1.84735
 21
1.59825
  0
LINE
  8
0
 10
-1.84735
 20
1.59825
 11
-1.84976
 21
1.59589
  0
LINE
  8
0
 10
-1.84976
 20
1.59589
 11
-1.85228
 21
1.59361
  0
LINE
  8
0
 10
-1.85228
 20
1.59361
 11
-1.85487
 21
1.59146
  0
LINE
  8
0
 10
-1.85487
 20
1.59146
 11
-1.85757
 21
1.58942
  0
LINE
  8
0
 10
-1.85757
 20
1.58942
 11
-1.86035
 21
1.58749
  0
LINE
  8
0
 10
-1.86035
 20
1.58749
 11
-1.8632
 21
1.58568
  0
LINE
  8
0
 10
-1.8632
 20
1.58568
 11
-1.86613
 21
1.58398
  0
LINE
  8
0
 10
-1.86613
 20
1.58398
 11
-1.86913
 21
1.58243
  0
LINE
  8
0
 10
-1.86913
 20
1.58243
 11
-1.87219
 21
1.58098
  0
LINE
  8
0
 10
-1.87219
 20
1.58098
 11
-1.87531
 21
1.57968
  0
LINE
  8
0
 10
-1.87531
 20
1.57968
 11
-1.87846
 21
1.57849
  0
LINE
  8
0
 10
-1.87846
 20
1.57849
 11
-1.88168
 21
1.57745
  0
LINE
  8
0
 10
-1.88168
 20
1.57745
 11
-1.88493
 21
1.57654
  0
LINE
  8
0
 10
-1.88493
 20
1.57654
 11
-1.88823
 21
1.57578
  0
LINE
  8
0
 10
-1.88823
 20
1.57578
 11
-1.89156
 21
1.57513
  0
LINE
  8
0
 10
-1.89156
 20
1.57513
 11
-1.8949
 21
1.57465
  0
LINE
  8
0
 10
-1.8949
 20
1.57465
 11
-1.89825
 21
1.5743
  0
LINE
  8
0
 10
-1.89825
 20
1.5743
 11
-1.90163
 21
1.57408
  0
LINE
  8
0
 10
-1.90163
 20
1.57408
 11
-1.90501
 21
1.57401
  0
LINE
  8
0
 10
-1.90501
 20
1.57401
 11
-1.90839
 21
1.57408
  0
LINE
  8
0
 10
-1.90839
 20
0.944153
 11
-1.91176
 21
0.944366
  0
LINE
  8
0
 10
-1.91176
 20
0.944366
 11
-1.91513
 21
0.944717
  0
LINE
  8
0
 10
-1.91513
 20
0.944717
 11
-1.91847
 21
0.945221
  0
LINE
  8
0
 10
-1.91847
 20
0.945221
 11
-1.9218
 21
0.945847
  0
LINE
  8
0
 10
-1.9218
 20
0.945847
 11
-1.92508
 21
0.946625
  0
LINE
  8
0
 10
-1.92508
 20
0.946625
 11
-1.92834
 21
0.947525
  0
LINE
  8
0
 10
-1.92834
 20
0.947525
 11
-1.93155
 21
0.948578
  0
LINE
  8
0
 10
-1.93155
 20
0.948578
 11
-1.93472
 21
0.949753
  0
LINE
  8
0
 10
-1.93472
 20
0.949753
 11
-1.93784
 21
0.951065
  0
LINE
  8
0
 10
-1.93784
 20
0.951065
 11
-1.9409
 21
0.952499
  0
LINE
  8
0
 10
-1.9409
 20
0.952499
 11
-1.94389
 21
0.954071
  0
LINE
  8
0
 10
-1.94389
 20
0.954071
 11
-1.94682
 21
0.955765
  0
LINE
  8
0
 10
-1.94682
 20
0.955765
 11
-1.94968
 21
0.957565
  0
LINE
  8
0
 10
-1.94968
 20
0.957565
 11
-1.95245
 21
0.959503
  0
LINE
  8
0
 10
-1.95245
 20
0.959503
 11
-1.95514
 21
0.961548
  0
LINE
  8
0
 10
-1.95514
 20
0.961548
 11
-1.95775
 21
0.963699
  0
LINE
  8
0
 10
-1.95775
 20
0.963699
 11
-1.96027
 21
0.965958
  0
LINE
  8
0
 10
-1.96027
 20
0.965958
 11
-1.96268
 21
0.968323
  0
LINE
  8
0
 10
-1.96268
 20
0.968323
 11
-1.965
 21
0.970795
  0
LINE
  8
0
 10
-1.965
 20
0.970795
 11
-1.96719
 21
0.973343
  0
LINE
  8
0
 10
-1.96719
 20
0.973343
 11
-1.9693
 21
0.975998
  0
LINE
  8
0
 10
-1.9693
 20
0.975998
 11
-1.97128
 21
0.978729
  0
LINE
  8
0
 10
-1.97128
 20
0.978729
 11
-1.97316
 21
0.981552
  0
LINE
  8
0
 10
-1.97316
 20
0.981552
 11
-1.97491
 21
0.984436
  0
LINE
  8
0
 10
-1.97491
 20
0.984436
 11
-1.97653
 21
0.987396
  0
LINE
  8
0
 10
-1.97653
 20
0.987396
 11
-1.97804
 21
0.990433
  0
LINE
  8
0
 10
-1.97804
 20
0.990433
 11
-1.97942
 21
0.993515
  0
LINE
  8
0
 10
-1.97942
 20
0.993515
 11
-1.98065
 21
0.996658
  0
LINE
  8
0
 10
-1.98065
 20
0.996658
 11
-1.98177
 21
0.999847
  0
LINE
  8
0
 10
-1.98177
 20
0.999847
 11
-1.98274
 21
1.0031
  0
LINE
  8
0
 10
-1.98274
 20
1.0031
 11
-1.98358
 21
1.00636
  0
LINE
  8
0
 10
-1.98358
 20
1.00636
 11
-1.98428
 21
1.00967
  0
LINE
  8
0
 10
-1.98428
 20
1.00967
 11
-1.98485
 21
1.013
  0
LINE
  8
0
 10
-1.98485
 20
1.013
 11
-1.98528
 21
1.01636
  0
LINE
  8
0
 10
-1.98528
 20
1.01636
 11
-1.98557
 21
1.01973
  0
LINE
  8
0
 10
-1.98557
 20
1.01973
 11
-1.9857
 21
1.0231
  0
LINE
  8
0
 10
-1.9857
 20
1.0231
 11
-1.9857
 21
1.02649
  0
LINE
  8
0
 10
-1.9857
 20
1.02649
 11
-1.98557
 21
1.02986
  0
LINE
  8
0
 10
-1.98557
 20
1.02986
 11
-1.98528
 21
1.03323
  0
LINE
  8
0
 10
-1.98528
 20
1.03323
 11
-1.98485
 21
1.03659
  0
LINE
  8
0
 10
-1.98485
 20
1.03659
 11
-1.98428
 21
1.03992
  0
LINE
  8
0
 10
-1.98428
 20
1.03992
 11
-1.98358
 21
1.04323
  0
LINE
  8
0
 10
-1.98358
 20
1.04323
 11
-1.98274
 21
1.04649
  0
LINE
  8
0
 10
-1.98274
 20
1.04649
 11
-1.98177
 21
1.04973
  0
LINE
  8
0
 10
-1.98177
 20
1.04973
 11
-1.98065
 21
1.05293
  0
LINE
  8
0
 10
-1.98065
 20
1.05293
 11
-1.97942
 21
1.05608
  0
LINE
  8
0
 10
-1.97942
 20
1.05608
 11
-1.97804
 21
1.05916
  0
LINE
  8
0
 10
-1.97804
 20
1.05916
 11
-1.97653
 21
1.06219
  0
LINE
  8
0
 10
-1.97653
 20
1.06219
 11
-1.97491
 21
1.06516
  0
LINE
  8
0
 10
-1.97491
 20
1.06516
 11
-1.97316
 21
1.06804
  0
LINE
  8
0
 10
-1.97316
 20
1.06804
 11
-1.97128
 21
1.07086
  0
LINE
  8
0
 10
-1.97128
 20
1.07086
 11
-1.9693
 21
1.07359
  0
LINE
  8
0
 10
-1.9693
 20
1.07359
 11
-1.96719
 21
1.07625
  0
LINE
  8
0
 10
-1.96719
 20
1.07625
 11
-1.965
 21
1.0788
  0
LINE
  8
0
 10
-1.965
 20
1.0788
 11
-1.96268
 21
1.08127
  0
LINE
  8
0
 10
-1.96268
 20
1.08127
 11
-1.96027
 21
1.08363
  0
LINE
  8
0
 10
-1.96027
 20
1.08363
 11
-1.95775
 21
1.08589
  0
LINE
  8
0
 10
-1.95775
 20
1.08589
 11
-1.95514
 21
1.08804
  0
LINE
  8
0
 10
-1.95514
 20
1.08804
 11
-1.95245
 21
1.09009
  0
LINE
  8
0
 10
-1.95245
 20
1.09009
 11
-1.94968
 21
1.09203
  0
LINE
  8
0
 10
-1.94968
 20
1.09203
 11
-1.94682
 21
1.09383
  0
LINE
  8
0
 10
-1.94682
 20
1.09383
 11
-1.94389
 21
1.09552
  0
LINE
  8
0
 10
-1.94389
 20
1.09552
 11
-1.9409
 21
1.09709
  0
LINE
  8
0
 10
-1.9409
 20
1.09709
 11
-1.93784
 21
1.09853
  0
LINE
  8
0
 10
-1.93784
 20
1.09853
 11
-1.93472
 21
1.09984
  0
LINE
  8
0
 10
-1.93472
 20
1.09984
 11
-1.93155
 21
1.10101
  0
LINE
  8
0
 10
-1.93155
 20
1.10101
 11
-1.92834
 21
1.10207
  0
LINE
  8
0
 10
-1.92834
 20
1.10207
 11
-1.92508
 21
1.10297
  0
LINE
  8
0
 10
-1.92508
 20
1.10297
 11
-1.9218
 21
1.10374
  0
LINE
  8
0
 10
-1.9218
 20
1.10374
 11
-1.91847
 21
1.10437
  0
LINE
  8
0
 10
-1.91847
 20
1.10437
 11
-1.91513
 21
1.10487
  0
LINE
  8
0
 10
-1.91513
 20
1.10487
 11
-1.91176
 21
1.10522
  0
LINE
  8
0
 10
-1.91176
 20
1.10522
 11
-1.90839
 21
1.10544
  0
LINE
  8
0
 10
-1.90839
 20
1.10544
 11
-1.90501
 21
1.1055
  0
LINE
  8
0
 10
-1.90501
 20
1.1055
 11
-1.90163
 21
1.10544
  0
LINE
  8
0
 10
-1.90163
 20
1.10544
 11
-1.89825
 21
1.10522
  0
LINE
  8
0
 10
-1.89825
 20
1.10522
 11
-1.8949
 21
1.10487
  0
LINE
  8
0
 10
-1.8949
 20
1.10487
 11
-1.89156
 21
1.10437
  0
LINE
  8
0
 10
-1.89156
 20
1.10437
 11
-1.88823
 21
1.10374
  0
LINE
  8
0
 10
-1.88823
 20
1.10374
 11
-1.88493
 21
1.10297
  0
LINE
  8
0
 10
-1.88493
 20
1.10297
 11
-1.88168
 21
1.10207
  0
LINE
  8
0
 10
-1.88168
 20
1.10207
 11
-1.87846
 21
1.10101
  0
LINE
  8
0
 10
-1.87846
 20
1.10101
 11
-1.87531
 21
1.09984
  0
LINE
  8
0
 10
-1.87531
 20
1.09984
 11
-1.87219
 21
1.09853
  0
LINE
  8
0
 10
-1.87219
 20
1.09853
 11
-1.86913
 21
1.09709
  0
LINE
  8
0
 10
-1.86913
 20
1.09709
 11
-1.86613
 21
1.09552
  0
LINE
  8
0
 10
-1.86613
 20
1.09552
 11
-1.8632
 21
1.09383
  0
LINE
  8
0
 10
-1.8632
 20
1.09383
 11
-1.86035
 21
1.09203
  0
LINE
  8
0
 10
-1.86035
 20
1.09203
 11
-1.85757
 21
1.09009
  0
LINE
  8
0
 10
-1.85757
 20
1.09009
 11
-1.85487
 21
1.08804
  0
LINE
  8
0
 10
-1.85487
 20
1.08804
 11
-1.85228
 21
1.08589
  0
LINE
  8
0
 10
-1.85228
 20
1.08589
 11
-1.84976
 21
1.08363
  0
LINE
  8
0
 10
-1.84976
 20
1.08363
 11
-1.84735
 21
1.08127
  0
LINE
  8
0
 10
-1.84735
 20
1.08127
 11
-1.84503
 21
1.0788
  0
LINE
  8
0
 10
-1.84503
 20
1.0788
 11
-1.84282
 21
1.07625
  0
LINE
  8
0
 10
-1.84282
 20
1.07625
 11
-1.84073
 21
1.07359
  0
LINE
  8
0
 10
-1.84073
 20
1.07359
 11
-1.83875
 21
1.07086
  0
LINE
  8
0
 10
-1.83875
 20
1.07086
 11
-1.83687
 21
1.06804
  0
LINE
  8
0
 10
-1.83687
 20
1.06804
 11
-1.83511
 21
1.06516
  0
LINE
  8
0
 10
-1.83511
 20
1.06516
 11
-1.83348
 21
1.06219
  0
LINE
  8
0
 10
-1.83348
 20
1.06219
 11
-1.83199
 21
1.05916
  0
LINE
  8
0
 10
-1.83199
 20
1.05916
 11
-1.83061
 21
1.05608
  0
LINE
  8
0
 10
-1.83061
 20
1.05608
 11
-1.82936
 21
1.05293
  0
LINE
  8
0
 10
-1.82936
 20
1.05293
 11
-1.82825
 21
1.04973
  0
LINE
  8
0
 10
-1.82825
 20
1.04973
 11
-1.82727
 21
1.04649
  0
LINE
  8
0
 10
-1.82727
 20
1.04649
 11
-1.82643
 21
1.04323
  0
LINE
  8
0
 10
-1.82643
 20
1.04323
 11
-1.82573
 21
1.03992
  0
LINE
  8
0
 10
-1.82573
 20
1.03992
 11
-1.82516
 21
1.03659
  0
LINE
  8
0
 10
-1.82516
 20
1.03659
 11
-1.82475
 21
1.03323
  0
LINE
  8
0
 10
-1.82475
 20
1.03323
 11
-1.82446
 21
1.02986
  0
LINE
  8
0
 10
-1.82446
 20
1.02986
 11
-1.82433
 21
1.02649
  0
LINE
  8
0
 10
-1.82433
 20
1.02649
 11
-1.82433
 21
1.0231
  0
LINE
  8
0
 10
-1.82433
 20
1.0231
 11
-1.82446
 21
1.01973
  0
LINE
  8
0
 10
-1.82446
 20
1.01973
 11
-1.82475
 21
1.01636
  0
LINE
  8
0
 10
-1.82475
 20
1.01636
 11
-1.82516
 21
1.013
  0
LINE
  8
0
 10
-1.82516
 20
1.013
 11
-1.82573
 21
1.00967
  0
LINE
  8
0
 10
-1.82573
 20
1.00967
 11
-1.82643
 21
1.00636
  0
LINE
  8
0
 10
-1.82643
 20
1.00636
 11
-1.82727
 21
1.0031
  0
LINE
  8
0
 10
-1.82727
 20
1.0031
 11
-1.82825
 21
0.999847
  0
LINE
  8
0
 10
-1.82825
 20
0.999847
 11
-1.82936
 21
0.996658
  0
LINE
  8
0
 10
-1.82936
 20
0.996658
 11
-1.83061
 21
0.993515
  0
LINE
  8
0
 10
-1.83061
 20
0.993515
 11
-1.83199
 21
0.990433
  0
LINE
  8
0
 10
-1.83199
 20
0.990433
 11
-1.83348
 21
0.987396
  0
LINE
  8
0
 10
-1.83348
 20
0.987396
 11
-1.83511
 21
0.984436
  0
LINE
  8
0
 10
-1.83511
 20
0.984436
 11
-1.83687
 21
0.981552
  0
LINE
  8
0
 10
-1.83687
 20
0.981552
 11
-1.83875
 21
0.978729
  0
LINE
  8
0
 10
-1.83875
 20
0.978729
 11
-1.84073
 21
0.975998
  0
LINE
  8
0
 10
-1.84073
 20
0.975998
 11
-1.84282
 21
0.973343
  0
LINE
  8
0
 10
-1.84282
 20
0.973343
 11
-1.84503
 21
0.970795
  0
LINE
  8
0
 10
-1.84503
 20
0.970795
 11
-1.84735
 21
0.968323
  0
LINE
  8
0
 10
-1.84735
 20
0.968323
 11
-1.84976
 21
0.965958
  0
LINE
  8
0
 10
-1.84976
 20
0.965958
 11
-1.85228
 21
0.963699
  0
LINE
  8
0
 10
-1.85228
 20
0.963699
 11
-1.85487
 21
0.961548
  0
LINE
  8
0
 10
-1.85487
 20
0.961548
 11
-1.85757
 21
0.959503
  0
LINE
  8
0
 10
-1.85757
 20
0.959503
 11
-1.86035
 21
0.957565
  0
LINE
  8
0
 10
-1.86035
 20
0.957565
 11
-1.8632
 21
0.955765
  0
LINE
  8
0
 10
-1.8632
 20
0.955765
 11
-1.86613
 21
0.954071
  0
LINE
  8
0
 10
-1.86613
 20
0.954071
 11
-1.86913
 21
0.952499
  0
LINE
  8
0
 10
-1.86913
 20
0.952499
 11
-1.87219
 21
0.951065
  0
LINE
  8
0
 10
-1.87219
 20
0.951065
 11
-1.87531
 21
0.949753
  0
LINE
  8
0
 10
-1.87531
 20
0.949753
 11
-1.87846
 21
0.948578
  0
LINE
  8
0
 10
-1.87846
 20
0.948578
 11
-1.88168
 21
0.947525
  0
LINE
  8
0
 10
-1.88168
 20
0.947525
 11
-1.88493
 21
0.946625
  0
LINE
  8
0
 10
-1.88493
 20
0.946625
 11
-1.88823
 21
0.945847
  0
LINE
  8
0
 10
-1.88823
 20
0.945847
 11
-1.89156
 21
0.945221
  0
LINE
  8
0
 10
-1.89156
 20
0.945221
 11
-1.8949
 21
0.944717
  0
LINE
  8
0
 10
-1.8949
 20
0.944717
 11
-1.89825
 21
0.944366
  0
LINE
  8
0
 10
-1.89825
 20
0.944366
 11
-1.90163
 21
0.944153
  0
LINE
  8
0
 10
-1.90163
 20
0.944153
 11
-1.90501
 21
0.944092
  0
LINE
  8
0
 10
-1.90501
 20
0.944092
 11
-1.90839
 21
0.944153
  0
LINE
  8
0
 10
-1.90839
 20
0.31424
 11
-1.91176
 21
0.314453
  0
LINE
  8
0
 10
-1.91176
 20
0.314453
 11
-1.91513
 21
0.314804
  0
LINE
  8
0
 10
-1.91513
 20
0.314804
 11
-1.91847
 21
0.315292
  0
LINE
  8
0
 10
-1.91847
 20
0.315292
 11
-1.9218
 21
0.315933
  0
LINE
  8
0
 10
-1.9218
 20
0.315933
 11
-1.92508
 21
0.316696
  0
LINE
  8
0
 10
-1.92508
 20
0.316696
 11
-1.92834
 21
0.317612
  0
LINE
  8
0
 10
-1.92834
 20
0.317612
 11
-1.93155
 21
0.318649
  0
LINE
  8
0
 10
-1.93155
 20
0.318649
 11
-1.93472
 21
0.319839
  0
LINE
  8
0
 10
-1.93472
 20
0.319839
 11
-1.93784
 21
0.321136
  0
LINE
  8
0
 10
-1.93784
 20
0.321136
 11
-1.9409
 21
0.322586
  0
LINE
  8
0
 10
-1.9409
 20
0.322586
 11
-1.94389
 21
0.324142
  0
LINE
  8
0
 10
-1.94389
 20
0.324142
 11
-1.94682
 21
0.325836
  0
LINE
  8
0
 10
-1.94682
 20
0.325836
 11
-1.94968
 21
0.327652
  0
LINE
  8
0
 10
-1.94968
 20
0.327652
 11
-1.95245
 21
0.329575
  0
LINE
  8
0
 10
-1.95245
 20
0.329575
 11
-1.95514
 21
0.331619
  0
LINE
  8
0
 10
-1.95514
 20
0.331619
 11
-1.95775
 21
0.333771
  0
LINE
  8
0
 10
-1.95775
 20
0.333771
 11
-1.96027
 21
0.336044
  0
LINE
  8
0
 10
-1.96027
 20
0.336044
 11
-1.96268
 21
0.338409
  0
LINE
  8
0
 10
-1.96268
 20
0.338409
 11
-1.965
 21
0.340866
  0
LINE
  8
0
 10
-1.965
 20
0.340866
 11
-1.96719
 21
0.34343
  0
LINE
  8
0
 10
-1.96719
 20
0.34343
 11
-1.9693
 21
0.346085
  0
LINE
  8
0
 10
-1.9693
 20
0.346085
 11
-1.97128
 21
0.348816
  0
LINE
  8
0
 10
-1.97128
 20
0.348816
 11
-1.97316
 21
0.351624
  0
LINE
  8
0
 10
-1.97316
 20
0.351624
 11
-1.97491
 21
0.354523
  0
LINE
  8
0
 10
-1.97491
 20
0.354523
 11
-1.97653
 21
0.357483
  0
LINE
  8
0
 10
-1.97653
 20
0.357483
 11
-1.97804
 21
0.360504
  0
LINE
  8
0
 10
-1.97804
 20
0.360504
 11
-1.97942
 21
0.363602
  0
LINE
  8
0
 10
-1.97942
 20
0.363602
 11
-1.98065
 21
0.366745
  0
LINE
  8
0
 10
-1.98065
 20
0.366745
 11
-1.98177
 21
0.369934
  0
LINE
  8
0
 10
-1.98177
 20
0.369934
 11
-1.98274
 21
0.373169
  0
LINE
  8
0
 10
-1.98274
 20
0.373169
 11
-1.98358
 21
0.37645
  0
LINE
  8
0
 10
-1.98358
 20
0.37645
 11
-1.98428
 21
0.379745
  0
LINE
  8
0
 10
-1.98428
 20
0.379745
 11
-1.98485
 21
0.383087
  0
LINE
  8
0
 10
-1.98485
 20
0.383087
 11
-1.98528
 21
0.386444
  0
LINE
  8
0
 10
-1.98528
 20
0.386444
 11
-1.98557
 21
0.389801
  0
LINE
  8
0
 10
-1.98557
 20
0.389801
 11
-1.9857
 21
0.393188
  0
LINE
  8
0
 10
-1.9857
 20
0.393188
 11
-1.9857
 21
0.396561
  0
LINE
  8
0
 10
-1.9857
 20
0.396561
 11
-1.98557
 21
0.399948
  0
LINE
  8
0
 10
-1.98557
 20
0.399948
 11
-1.98528
 21
0.403305
  0
LINE
  8
0
 10
-1.98528
 20
0.403305
 11
-1.98485
 21
0.406662
  0
LINE
  8
0
 10
-1.98485
 20
0.406662
 11
-1.98428
 21
0.410004
  0
LINE
  8
0
 10
-1.98428
 20
0.410004
 11
-1.98358
 21
0.4133
  0
LINE
  8
0
 10
-1.98358
 20
0.4133
 11
-1.98274
 21
0.41658
  0
LINE
  8
0
 10
-1.98274
 20
0.41658
 11
-1.98177
 21
0.419815
  0
LINE
  8
0
 10
-1.98177
 20
0.419815
 11
-1.98065
 21
0.423004
  0
LINE
  8
0
 10
-1.98065
 20
0.423004
 11
-1.97942
 21
0.426147
  0
LINE
  8
0
 10
-1.97942
 20
0.426147
 11
-1.97804
 21
0.429245
  0
LINE
  8
0
 10
-1.97804
 20
0.429245
 11
-1.97653
 21
0.432266
  0
LINE
  8
0
 10
-1.97653
 20
0.432266
 11
-1.97491
 21
0.435226
  0
LINE
  8
0
 10
-1.97491
 20
0.435226
 11
-1.97316
 21
0.438126
  0
LINE
  8
0
 10
-1.97316
 20
0.438126
 11
-1.97128
 21
0.440933
  0
LINE
  8
0
 10
-1.97128
 20
0.440933
 11
-1.9693
 21
0.443665
  0
LINE
  8
0
 10
-1.9693
 20
0.443665
 11
-1.96719
 21
0.44632
  0
LINE
  8
0
 10
-1.96719
 20
0.44632
 11
-1.965
 21
0.448883
  0
LINE
  8
0
 10
-1.965
 20
0.448883
 11
-1.96268
 21
0.45134
  0
LINE
  8
0
 10
-1.96268
 20
0.45134
 11
-1.96027
 21
0.453705
  0
LINE
  8
0
 10
-1.96027
 20
0.453705
 11
-1.95775
 21
0.455963
  0
LINE
  8
0
 10
-1.95775
 20
0.455963
 11
-1.95514
 21
0.45813
  0
LINE
  8
0
 10
-1.95514
 20
0.45813
 11
-1.95245
 21
0.460175
  0
LINE
  8
0
 10
-1.95245
 20
0.460175
 11
-1.94968
 21
0.462097
  0
LINE
  8
0
 10
-1.94968
 20
0.462097
 11
-1.94682
 21
0.463913
  0
LINE
  8
0
 10
-1.94682
 20
0.463913
 11
-1.94389
 21
0.465607
  0
LINE
  8
0
 10
-1.94389
 20
0.465607
 11
-1.9409
 21
0.467163
  0
LINE
  8
0
 10
-1.9409
 20
0.467163
 11
-1.93784
 21
0.468613
  0
LINE
  8
0
 10
-1.93784
 20
0.468613
 11
-1.93472
 21
0.46991
  0
LINE
  8
0
 10
-1.93472
 20
0.46991
 11
-1.93155
 21
0.4711
  0
LINE
  8
0
 10
-1.93155
 20
0.4711
 11
-1.92834
 21
0.472137
  0
LINE
  8
0
 10
-1.92834
 20
0.472137
 11
-1.92508
 21
0.473053
  0
LINE
  8
0
 10
-1.92508
 20
0.473053
 11
-1.9218
 21
0.473816
  0
LINE
  8
0
 10
-1.9218
 20
0.473816
 11
-1.91847
 21
0.474457
  0
LINE
  8
0
 10
-1.91847
 20
0.474457
 11
-1.91513
 21
0.474945
  0
LINE
  8
0
 10
-1.91513
 20
0.474945
 11
-1.91176
 21
0.475296
  0
LINE
  8
0
 10
-1.91176
 20
0.475296
 11
-1.90839
 21
0.47551
  0
LINE
  8
0
 10
-1.90839
 20
0.47551
 11
-1.90501
 21
0.475586
  0
LINE
  8
0
 10
-1.90501
 20
0.475586
 11
-1.90163
 21
0.47551
  0
LINE
  8
0
 10
-1.90163
 20
0.47551
 11
-1.89825
 21
0.475296
  0
LINE
  8
0
 10
-1.89825
 20
0.475296
 11
-1.8949
 21
0.474945
  0
LINE
  8
0
 10
-1.8949
 20
0.474945
 11
-1.89156
 21
0.474457
  0
LINE
  8
0
 10
-1.89156
 20
0.474457
 11
-1.88823
 21
0.473816
  0
LINE
  8
0
 10
-1.88823
 20
0.473816
 11
-1.88493
 21
0.473053
  0
LINE
  8
0
 10
-1.88493
 20
0.473053
 11
-1.88168
 21
0.472137
  0
LINE
  8
0
 10
-1.88168
 20
0.472137
 11
-1.87846
 21
0.4711
  0
LINE
  8
0
 10
-1.87846
 20
0.4711
 11
-1.87531
 21
0.46991
  0
LINE
  8
0
 10
-1.87531
 20
0.46991
 11
-1.87219
 21
0.468613
  0
LINE
  8
0
 10
-1.87219
 20
0.468613
 11
-1.86913
 21
0.467163
  0
LINE
  8
0
 10
-1.86913
 20
0.467163
 11
-1.86613
 21
0.465607
  0
LINE
  8
0
 10
-1.86613
 20
0.465607
 11
-1.8632
 21
0.463913
  0
LINE
  8
0
 10
-1.8632
 20
0.463913
 11
-1.86035
 21
0.462097
  0
LINE
  8
0
 10
-1.86035
 20
0.462097
 11
-1.85757
 21
0.460175
  0
LINE
  8
0
 10
-1.85757
 20
0.460175
 11
-1.85487
 21
0.45813
  0
LINE
  8
0
 10
-1.85487
 20
0.45813
 11
-1.85228
 21
0.455963
  0
LINE
  8
0
 10
-1.85228
 20
0.455963
 11
-1.84976
 21
0.453705
  0
LINE
  8
0
 10
-1.84976
 20
0.453705
 11
-1.84735
 21
0.45134
  0
LINE
  8
0
 10
-1.84735
 20
0.45134
 11
-1.84503
 21
0.448883
  0
LINE
  8
0
 10
-1.84503
 20
0.448883
 11
-1.84282
 21
0.44632
  0
LINE
  8
0
 10
-1.84282
 20
0.44632
 11
-1.84073
 21
0.443665
  0
LINE
  8
0
 10
-1.84073
 20
0.443665
 11
-1.83875
 21
0.440933
  0
LINE
  8
0
 10
-1.83875
 20
0.440933
 11
-1.83687
 21
0.438126
  0
LINE
  8
0
 10
-1.83687
 20
0.438126
 11
-1.83511
 21
0.435226
  0
LINE
  8
0
 10
-1.83511
 20
0.435226
 11
-1.83348
 21
0.432266
  0
LINE
  8
0
 10
-1.83348
 20
0.432266
 11
-1.83199
 21
0.429245
  0
LINE
  8
0
 10
-1.83199
 20
0.429245
 11
-1.83061
 21
0.426147
  0
LINE
  8
0
 10
-1.83061
 20
0.426147
 11
-1.82936
 21
0.423004
  0
LINE
  8
0
 10
-1.82936
 20
0.423004
 11
-1.82825
 21
0.419815
  0
LINE
  8
0
 10
-1.82825
 20
0.419815
 11
-1.82727
 21
0.41658
  0
LINE
  8
0
 10
-1.82727
 20
0.41658
 11
-1.82643
 21
0.4133
  0
LINE
  8
0
 10
-1.82643
 20
0.4133
 11
-1.82573
 21
0.410004
  0
LINE
  8
0
 10
-1.82573
 20
0.410004
 11
-1.82516
 21
0.406662
  0
LINE
  8
0
 10
-1.82516
 20
0.406662
 11
-1.82475
 21
0.403305
  0
LINE
  8
0
 10
-1.82475
 20
0.403305
 11
-1.82446
 21
0.399948
  0
LINE
  8
0
 10
-1.82446
 20
0.399948
 11
-1.82433
 21
0.396561
  0
LINE
  8
0
 10
-1.82433
 20
0.396561
 11
-1.82433
 21
0.393188
  0
LINE
  8
0
 10
-1.82433
 20
0.393188
 11
-1.82446
 21
0.389801
  0
LINE
  8
0
 10
-1.82446
 20
0.389801
 11
-1.82475
 21
0.386444
  0
LINE
  8
0
 10
-1.82475
 20
0.386444
 11
-1.82516
 21
0.383087
  0
LINE
  8
0
 10
-1.82516
 20
0.383087
 11
-1.82573
 21
0.379745
  0
LINE
  8
0
 10
-1.82573
 20
0.379745
 11
-1.82643
 21
0.37645
  0
LINE
  8
0
 10
-1.82643
 20
0.37645
 11
-1.82727
 21
0.373169
  0
LINE
  8
0
 10
-1.82727
 20
0.373169
 11
-1.82825
 21
0.369934
  0
LINE
  8
0
 10
-1.82825
 20
0.369934
 11
-1.82936
 21
0.366745
  0
LINE
  8
0
 10
-1.82936
 20
0.366745
 11
-1.83061
 21
0.363602
  0
LINE
  8
0
 10
-1.83061
 20
0.363602
 11
-1.83199
 21
0.360504
  0
LINE
  8
0
 10
-1.83199
 20
0.360504
 11
-1.83348
 21
0.357483
  0
LINE
  8
0
 10
-1.83348
 20
0.357483
 11
-1.83511
 21
0.354523
  0
LINE
  8
0
 10
-1.83511
 20
0.354523
 11
-1.83687
 21
0.351624
  0
LINE
  8
0
 10
-1.83687
 20
0.351624
 11
-1.83875
 21
0.348816
  0
LINE
  8
0
 10
-1.83875
 20
0.348816
 11
-1.84073
 21
0.346085
  0
LINE
  8
0
 10
-1.84073
 20
0.346085
 11
-1.84282
 21
0.34343
  0
LINE
  8
0
 10
-1.84282
 20
0.34343
 11
-1.84503
 21
0.340866
  0
LINE
  8
0
 10
-1.84503
 20
0.340866
 11
-1.84735
 21
0.338409
  0
LINE
  8
0
 10
-1.84735
 20
0.338409
 11
-1.84976
 21
0.336044
  0
LINE
  8
0
 10
-1.84976
 20
0.336044
 11
-1.85228
 21
0.333771
  0
LINE
  8
0
 10
-1.85228
 20
0.333771
 11
-1.85487
 21
0.331619
  0
LINE
  8
0
 10
-1.85487
 20
0.331619
 11
-1.85757
 21
0.329575
  0
LINE
  8
0
 10
-1.85757
 20
0.329575
 11
-1.86035
 21
0.327652
  0
LINE
  8
0
 10
-1.86035
 20
0.327652
 11
-1.8632
 21
0.325836
  0
LINE
  8
0
 10
-1.8632
 20
0.325836
 11
-1.86613
 21
0.324142
  0
LINE
  8
0
 10
-1.86613
 20
0.324142
 11
-1.86913
 21
0.322586
  0
LINE
  8
0
 10
-1.86913
 20
0.322586
 11
-1.87219
 21
0.321136
  0
LINE
  8
0
 10
-1.87219
 20
0.321136
 11
-1.87531
 21
0.319839
  0
LINE
  8
0
 10
-1.87531
 20
0.319839
 11
-1.87846
 21
0.318649
  0
LINE
  8
0
 10
-1.87846
 20
0.318649
 11
-1.88168
 21
0.317612
  0
LINE
  8
0
 10
-1.88168
 20
0.317612
 11
-1.88493
 21
0.316696
  0
LINE
  8
0
 10
-1.88493
 20
0.316696
 11
-1.88823
 21
0.315933
  0
LINE
  8
0
 10
-1.88823
 20
0.315933
 11
-1.89156
 21
0.315292
  0
LINE
  8
0
 10
-1.89156
 20
0.315292
 11
-1.8949
 21
0.314804
  0
LINE
  8
0
 10
-1.8949
 20
0.314804
 11
-1.89825
 21
0.314453
  0
LINE
  8
0
 10
-1.89825
 20
0.314453
 11
-1.90163
 21
0.31424
  0
LINE
  8
0
 10
-1.90163
 20
0.31424
 11
-1.90501
 21
0.314163
  0
LINE
  8
0
 10
-1.90501
 20
0.314163
 11
-1.90839
 21
0.31424
  0
LINE
  8
0
 10
-0.00167847
 20
-0.0806885
 11
-0.00506592
 21
-0.0805359
  0
LINE
  8
0
 10
-0.00506592
 20
-0.0805359
 11
-0.00842285
 21
-0.0802612
  0
LINE
  8
0
 10
-0.00842285
 20
-0.0802612
 11
-0.0117798
 21
-0.079834
  0
LINE
  8
0
 10
-0.0117798
 20
-0.079834
 11
-0.0151215
 21
-0.0792694
  0
LINE
  8
0
 10
-0.0151215
 20
-0.0792694
 11
-0.0184174
 21
-0.0785675
  0
LINE
  8
0
 10
-0.0184174
 20
-0.0785675
 11
-0.021698
 21
-0.0777283
  0
LINE
  8
0
 10
-0.021698
 20
-0.0777283
 11
-0.0249329
 21
-0.0767517
  0
LINE
  8
0
 10
-0.0249329
 20
-0.0767517
 11
-0.0281219
 21
-0.0756378
  0
LINE
  8
0
 10
-0.0281219
 20
-0.0756378
 11
-0.0312653
 21
-0.0744019
  0
LINE
  8
0
 10
-0.0312653
 20
-0.0744019
 11
-0.0343628
 21
-0.0730133
  0
LINE
  8
0
 10
-0.0343628
 20
-0.0730133
 11
-0.037384
 21
-0.0715179
  0
LINE
  8
0
 10
-0.037384
 20
-0.0715179
 11
-0.0403442
 21
-0.0698853
  0
LINE
  8
0
 10
-0.0403442
 20
-0.0698853
 11
-0.0432434
 21
-0.0681305
  0
LINE
  8
0
 10
-0.0432434
 20
-0.0681305
 11
-0.046051
 21
-0.0662689
  0
LINE
  8
0
 10
-0.046051
 20
-0.0662689
 11
-0.0487823
 21
-0.0642853
  0
LINE
  8
0
 10
-0.0487823
 20
-0.0642853
 11
-0.0514374
 21
-0.0621796
  0
LINE
  8
0
 10
-0.0514374
 20
-0.0621796
 11
-0.0540009
 21
-0.059967
  0
LINE
  8
0
 10
-0.0540009
 20
-0.059967
 11
-0.0564575
 21
-0.057663
  0
LINE
  8
0
 10
-0.0564575
 20
-0.057663
 11
-0.0588226
 21
-0.0552368
  0
LINE
  8
0
 10
-0.0588226
 20
-0.0552368
 11
-0.0610962
 21
-0.0527344
  0
LINE
  8
0
 10
-0.0610962
 20
-0.0527344
 11
-0.0632477
 21
-0.0501251
  0
LINE
  8
0
 10
-0.0632477
 20
-0.0501251
 11
-0.0652924
 21
-0.0474243
  0
LINE
  8
0
 10
-0.0652924
 20
-0.0474243
 11
-0.067215
 21
-0.0446625
  0
LINE
  8
0
 10
-0.067215
 20
-0.0446625
 11
-0.0690308
 21
-0.0418091
  0
LINE
  8
0
 10
-0.0690308
 20
-0.0418091
 11
-0.0707245
 21
-0.0388794
  0
LINE
  8
0
 10
-0.0707245
 20
-0.0388794
 11
-0.0722809
 21
-0.0358734
  0
LINE
  8
0
 10
-0.0722809
 20
-0.0358734
 11
-0.0737305
 21
-0.0328217
  0
LINE
  8
0
 10
-0.0737305
 20
-0.0328217
 11
-0.0750275
 21
-0.0297089
  0
LINE
  8
0
 10
-0.0750275
 20
-0.0297089
 11
-0.0762177
 21
-0.026535
  0
LINE
  8
0
 10
-0.0762177
 20
-0.026535
 11
-0.0772552
 21
-0.0233154
  0
LINE
  8
0
 10
-0.0772552
 20
-0.0233154
 11
-0.0781708
 21
-0.0200653
  0
LINE
  8
0
 10
-0.0781708
 20
-0.0200653
 11
-0.0789337
 21
-0.0167694
  0
LINE
  8
0
 10
-0.0789337
 20
-0.0167694
 11
-0.0795746
 21
-0.0134583
  0
LINE
  8
0
 10
-0.0795746
 20
-0.0134583
 11
-0.0800629
 21
-0.0101013
  0
LINE
  8
0
 10
-0.0800629
 20
-0.0101013
 11
-0.0804138
 21
-0.00674438
  0
LINE
  8
0
 10
-0.0804138
 20
-0.00674438
 11
-0.0806274
 21
-0.00337219
  0
LINE
  8
0
 10
-0.0806274
 20
-0.00337219
 11
-0.0807037
 21
0
  0
LINE
  8
0
 10
-0.0807037
 20
0
 11
-0.0806274
 21
0.00337219
  0
LINE
  8
0
 10
-0.0806274
 20
0.00337219
 11
-0.0804138
 21
0.00674438
  0
LINE
  8
0
 10
-0.0804138
 20
0.00674438
 11
-0.0800629
 21
0.0101013
  0
LINE
  8
0
 10
-0.0800629
 20
0.0101013
 11
-0.0795746
 21
0.0134583
  0
LINE
  8
0
 10
-0.0795746
 20
0.0134583
 11
-0.0789337
 21
0.0167694
  0
LINE
  8
0
 10
-0.0789337
 20
0.0167694
 11
-0.0781708
 21
0.0200653
  0
LINE
  8
0
 10
-0.0781708
 20
0.0200653
 11
-0.0772552
 21
0.0233154
  0
LINE
  8
0
 10
-0.0772552
 20
0.0233154
 11
-0.0762177
 21
0.026535
  0
LINE
  8
0
 10
-0.0762177
 20
0.026535
 11
-0.0750275
 21
0.0297089
  0
LINE
  8
0
 10
-0.0750275
 20
0.0297089
 11
-0.0737305
 21
0.0328217
  0
LINE
  8
0
 10
-0.0737305
 20
0.0328217
 11
-0.0722809
 21
0.0358734
  0
LINE
  8
0
 10
-0.0722809
 20
0.0358734
 11
-0.0707245
 21
0.0388794
  0
LINE
  8
0
 10
-0.0707245
 20
0.0388794
 11
-0.0690308
 21
0.0418091
  0
LINE
  8
0
 10
-0.0690308
 20
0.0418091
 11
-0.067215
 21
0.0446625
  0
LINE
  8
0
 10
-0.067215
 20
0.0446625
 11
-0.0652924
 21
0.0474243
  0
LINE
  8
0
 10
-0.0652924
 20
0.0474243
 11
-0.0632477
 21
0.0501251
  0
LINE
  8
0
 10
-0.0632477
 20
0.0501251
 11
-0.0610962
 21
0.0527344
  0
LINE
  8
0
 10
-0.0610962
 20
0.0527344
 11
-0.0588226
 21
0.0552368
  0
LINE
  8
0
 10
-0.0588226
 20
0.0552368
 11
-0.0564575
 21
0.057663
  0
LINE
  8
0
 10
-0.0564575
 20
0.057663
 11
-0.0540009
 21
0.059967
  0
LINE
  8
0
 10
-0.0540009
 20
0.059967
 11
-0.0514374
 21
0.0621796
  0
LINE
  8
0
 10
-0.0514374
 20
0.0621796
 11
-0.0487823
 21
0.0642853
  0
LINE
  8
0
 10
-0.0487823
 20
0.0642853
 11
-0.046051
 21
0.0662689
  0
LINE
  8
0
 10
-0.046051
 20
0.0662689
 11
-0.0432434
 21
0.0681305
  0
LINE
  8
0
 10
-0.0432434
 20
0.0681305
 11
-0.0403442
 21
0.0698853
  0
LINE
  8
0
 10
-0.0403442
 20
0.0698853
 11
-0.037384
 21
0.0715179
  0
LINE
  8
0
 10
-0.037384
 20
0.0715179
 11
-0.0343628
 21
0.0730133
  0
LINE
  8
0
 10
-0.0343628
 20
0.0730133
 11
-0.0312653
 21
0.0744019
  0
LINE
  8
0
 10
-0.0312653
 20
0.0744019
 11
-0.0281219
 21
0.0756378
  0
LINE
  8
0
 10
-0.0281219
 20
0.0756378
 11
-0.0249329
 21
0.0767517
  0
LINE
  8
0
 10
-0.0249329
 20
0.0767517
 11
-0.021698
 21
0.0777283
  0
LINE
  8
0
 10
-0.021698
 20
0.0777283
 11
-0.0184174
 21
0.0785675
  0
LINE
  8
0
 10
-0.0184174
 20
0.0785675
 11
-0.0151215
 21
0.0792694
  0
LINE
  8
0
 10
-0.0151215
 20
0.0792694
 11
-0.0117798
 21
0.079834
  0
LINE
  8
0
 10
-0.0117798
 20
0.079834
 11
-0.00842285
 21
0.0802612
  0
LINE
  8
0
 10
-0.00842285
 20
0.0802612
 11
-0.00506592
 21
0.0805359
  0
LINE
  8
0
 10
-0.00506592
 20
0.0805359
 11
-0.00167847
 21
0.0806885
  0
LINE
  8
0
 10
-0.00167847
 20
0.0806885
 11
0.00167847
 21
0.0806885
  0
LINE
  8
0
 10
0.00167847
 20
0.0806885
 11
0.00506592
 21
0.0805359
  0
LINE
  8
0
 10
0.00506592
 20
0.0805359
 11
0.00842285
 21
0.0802612
  0
LINE
  8
0
 10
0.00842285
 20
0.0802612
 11
0.0117798
 21
0.079834
  0
LINE
  8
0
 10
0.0117798
 20
0.079834
 11
0.0151215
 21
0.0792694
  0
LINE
  8
0
 10
0.0151215
 20
0.0792694
 11
0.0184174
 21
0.0785675
  0
LINE
  8
0
 10
0.0184174
 20
0.0785675
 11
0.021698
 21
0.0777283
  0
LINE
  8
0
 10
0.021698
 20
0.0777283
 11
0.0249329
 21
0.0767517
  0
LINE
  8
0
 10
0.0249329
 20
0.0767517
 11
0.0281219
 21
0.0756378
  0
LINE
  8
0
 10
0.0281219
 20
0.0756378
 11
0.0312653
 21
0.0744019
  0
LINE
  8
0
 10
0.0312653
 20
0.0744019
 11
0.0343628
 21
0.0730133
  0
LINE
  8
0
 10
0.0343628
 20
0.0730133
 11
0.037384
 21
0.0715179
  0
LINE
  8
0
 10
0.037384
 20
0.0715179
 11
0.0403442
 21
0.0698853
  0
LINE
  8
0
 10
0.0403442
 20
0.0698853
 11
0.0432434
 21
0.0681305
  0
LINE
  8
0
 10
0.0432434
 20
0.0681305
 11
0.046051
 21
0.0662689
  0
LINE
  8
0
 10
0.046051
 20
0.0662689
 11
0.0487823
 21
0.0642853
  0
LINE
  8
0
 10
0.0487823
 20
0.0642853
 11
0.0514374
 21
0.0621796
  0
LINE
  8
0
 10
0.0514374
 20
0.0621796
 11
0.0540009
 21
0.059967
  0
LINE
  8
0
 10
0.0540009
 20
0.059967
 11
0.0564575
 21
0.057663
  0
LINE
  8
0
 10
0.0564575
 20
0.057663
 11
0.0588226
 21
0.0552368
  0
LINE
  8
0
 10
0.0588226
 20
0.0552368
 11
0.0610962
 21
0.0527344
  0
LINE
  8
0
 10
0.0610962
 20
0.0527344
 11
0.0632477
 21
0.0501251
  0
LINE
  8
0
 10
0.0632477
 20
0.0501251
 11
0.0652924
 21
0.0474243
  0
LINE
  8
0
 10
0.0652924
 20
0.0474243
 11
0.067215
 21
0.0446625
  0
LINE
  8
0
 10
0.067215
 20
0.0446625
 11
0.0690308
 21
0.0418091
  0
LINE
  8
0
 10
0.0690308
 20
0.0418091
 11
0.0707245
 21
0.0388794
  0
LINE
  8
0
 10
0.0707245
 20
0.0388794
 11
0.0722809
 21
0.0358734
  0
LINE
  8
0
 10
0.0722809
 20
0.0358734
 11
0.0737305
 21
0.0328217
  0
LINE
  8
0
 10
0.0737305
 20
0.0328217
 11
0.0750275
 21
0.0297089
  0
LINE
  8
0
 10
0.0750275
 20
0.0297089
 11
0.0762177
 21
0.026535
  0
LINE
  8
0
 10
0.0762177
 20
0.026535
 11
0.0772552
 21
0.0233154
  0
LINE
  8
0
 10
0.0772552
 20
0.0233154
 11
0.0781708
 21
0.0200653
  0
LINE
  8
0
 10
0.0781708
 20
0.0200653
 11
0.0789337
 21
0.0167694
  0
LINE
  8
0
 10
0.0789337
 20
0.0167694
 11
0.0795746
 21
0.0134583
  0
LINE
  8
0
 10
0.0795746
 20
0.0134583
 11
0.0800629
 21
0.0101013
  0
LINE
  8
0
 10
0.0800629
 20
0.0101013
 11
0.0804138
 21
0.00674438
  0
LINE
  8
0
 10
0.0804138
 20
0.00674438
 11
0.0806274
 21
0.00337219
  0
LINE
  8
0
 10
0.0806274
 20
0.00337219
 11
0.0807037
 21
0
  0
LINE
  8
0
 10
0.0807037
 20
0
 11
0.0806274
 21
-0.00337219
  0
LINE
  8
0
 10
0.0806274
 20
-0.00337219
 11
0.0804138
 21
-0.00674438
  0
LINE
  8
0
 10
0.0804138
 20
-0.00674438
 11
0.0800629
 21
-0.0101013
  0
LINE
  8
0
 10
0.0800629
 20
-0.0101013
 11
0.0795746
 21
-0.0134583
  0
LINE
  8
0
 10
0.0795746
 20
-0.0134583
 11
0.0789337
 21
-0.0167694
  0
LINE
  8
0
 10
0.0789337
 20
-0.0167694
 11
0.0781708
 21
-0.0200653
  0
LINE
  8
0
 10
0.0781708
 20
-0.0200653
 11
0.0772552
 21
-0.0233154
  0
LINE
  8
0
 10
0.0772552
 20
-0.0233154
 11
0.0762177
 21
-0.026535
  0
LINE
  8
0
 10
0.0762177
 20
-0.026535
 11
0.0750275
 21
-0.0297089
  0
LINE
  8
0
 10
0.0750275
 20
-0.0297089
 11
0.0737305
 21
-0.0328217
  0
LINE
  8
0
 10
0.0737305
 20
-0.0328217
 11
0.0722809
 21
-0.0358734
  0
LINE
  8
0
 10
0.0722809
 20
-0.0358734
 11
0.0707245
 21
-0.0388794
  0
LINE
  8
0
 10
0.0707245
 20
-0.0388794
 11
0.0690308
 21
-0.0418091
  0
LINE
  8
0
 10
0.0690308
 20
-0.0418091
 11
0.067215
 21
-0.0446625
  0
LINE
  8
0
 10
0.067215
 20
-0.0446625
 11
0.0652924
 21
-0.0474243
  0
LINE
  8
0
 10
0.0652924
 20
-0.0474243
 11
0.0632477
 21
-0.0501251
  0
LINE
  8
0
 10
0.0632477
 20
-0.0501251
 11
0.0610962
 21
-0.0527344
  0
LINE
  8
0
 10
0.0610962
 20
-0.0527344
 11
0.0588226
 21
-0.0552368
  0
LINE
  8
0
 10
0.0588226
 20
-0.0552368
 11
0.0564575
 21
-0.057663
  0
LINE
  8
0
 10
0.0564575
 20
-0.057663
 11
0.0540009
 21
-0.059967
  0
LINE
  8
0
 10
0.0540009
 20
-0.059967
 11
0.0514374
 21
-0.0621796
  0
LINE
  8
0
 10
0.0514374
 20
-0.0621796
 11
0.0487823
 21
-0.0642853
  0
LINE
  8
0
 10
0.0487823
 20
-0.0642853
 11
0.046051
 21
-0.0662689
  0
LINE
  8
0
 10
0.046051
 20
-0.0662689
 11
0.0432434
 21
-0.0681305
  0
LINE
  8
0
 10
0.0432434
 20
-0.0681305
 11
0.0403442
 21
-0.0698853
  0
LINE
  8
0
 10
0.0403442
 20
-0.0698853
 11
0.037384
 21
-0.0715179
  0
LINE
  8
0
 10
0.037384
 20
-0.0715179
 11
0.0343628
 21
-0.0730133
  0
LINE
  8
0
 10
0.0343628
 20
-0.0730133
 11
0.0312653
 21
-0.0744019
  0
LINE
  8
0
 10
0.0312653
 20
-0.0744019
 11
0.0281219
 21
-0.0756378
  0
LINE
  8
0
 10
0.0281219
 20
-0.0756378
 11
0.0249329
 21
-0.0767517
  0
LINE
  8
0
 10
0.0249329
 20
-0.0767517
 11
0.021698
 21
-0.0777283
  0
LINE
  8
0
 10
0.021698
 20
-0.0777283
 11
0.0184174
 21
-0.0785675
  0
LINE
  8
0
 10
0.0184174
 20
-0.0785675
 11
0.0151215
 21
-0.0792694
  0
LINE
  8
0
 10
0.0151215
 20
-0.0792694
 11
0.0117798
 21
-0.079834
  0
LINE
  8
0
 10
0.0117798
 20
-0.079834
 11
0.00842285
 21
-0.0802612
  0
LINE
  8
0
 10
0.00842285
 20
-0.0802612
 11
0.00506592
 21
-0.0805359
  0
LINE
  8
0
 10
0.00506592
 20
-0.0805359
 11
0.00167847
 21
-0.0806885
  0
LINE
  8
0
 10
0.00167847
 20
-0.0806885
 11
-0.00167847
 21
-0.0806885
  0
LINE
  8
0
 10
-1.90839
 20
-0.315674
 11
-1.91176
 21
-0.31546
  0
LINE
  8
0
 10
-1.91176
 20
-0.31546
 11
-1.91513
 21
-0.315109
  0
LINE
  8
0
 10
-1.91513
 20
-0.315109
 11
-1.91847
 21
-0.314606
  0
LINE
  8
0
 10
-1.91847
 20
-0.314606
 11
-1.9218
 21
-0.31398
  0
LINE
  8
0
 10
-1.9218
 20
-0.31398
 11
-1.92508
 21
-0.313202
  0
LINE
  8
0
 10
-1.92508
 20
-0.313202
 11
-1.92834
 21
-0.312302
  0
LINE
  8
0
 10
-1.92834
 20
-0.312302
 11
-1.93155
 21
-0.311249
  0
LINE
  8
0
 10
-1.93155
 20
-0.311249
 11
-1.93472
 21
-0.310074
  0
LINE
  8
0
 10
-1.93472
 20
-0.310074
 11
-1.93784
 21
-0.308762
  0
LINE
  8
0
 10
-1.93784
 20
-0.308762
 11
-1.9409
 21
-0.307327
  0
LINE
  8
0
 10
-1.9409
 20
-0.307327
 11
-1.94389
 21
-0.305756
  0
LINE
  8
0
 10
-1.94389
 20
-0.305756
 11
-1.94682
 21
-0.304062
  0
LINE
  8
0
 10
-1.94682
 20
-0.304062
 11
-1.94968
 21
-0.302261
  0
LINE
  8
0
 10
-1.94968
 20
-0.302261
 11
-1.95245
 21
-0.300323
  0
LINE
  8
0
 10
-1.95245
 20
-0.300323
 11
-1.95514
 21
-0.298279
  0
LINE
  8
0
 10
-1.95514
 20
-0.298279
 11
-1.95775
 21
-0.296127
  0
LINE
  8
0
 10
-1.95775
 20
-0.296127
 11
-1.96027
 21
-0.293869
  0
LINE
  8
0
 10
-1.96027
 20
-0.293869
 11
-1.96268
 21
-0.291504
  0
LINE
  8
0
 10
-1.96268
 20
-0.291504
 11
-1.965
 21
-0.289032
  0
LINE
  8
0
 10
-1.965
 20
-0.289032
 11
-1.96719
 21
-0.286484
  0
LINE
  8
0
 10
-1.96719
 20
-0.286484
 11
-1.9693
 21
-0.283829
  0
LINE
  8
0
 10
-1.9693
 20
-0.283829
 11
-1.97128
 21
-0.281097
  0
LINE
  8
0
 10
-1.97128
 20
-0.281097
 11
-1.97316
 21
-0.278275
  0
LINE
  8
0
 10
-1.97316
 20
-0.278275
 11
-1.97491
 21
-0.275391
  0
LINE
  8
0
 10
-1.97491
 20
-0.275391
 11
-1.97653
 21
-0.27243
  0
LINE
  8
0
 10
-1.97653
 20
-0.27243
 11
-1.97804
 21
-0.269394
  0
LINE
  8
0
 10
-1.97804
 20
-0.269394
 11
-1.97942
 21
-0.266312
  0
LINE
  8
0
 10
-1.97942
 20
-0.266312
 11
-1.98065
 21
-0.263168
  0
LINE
  8
0
 10
-1.98065
 20
-0.263168
 11
-1.98177
 21
-0.259964
  0
LINE
  8
0
 10
-1.98177
 20
-0.259964
 11
-1.98274
 21
-0.256729
  0
LINE
  8
0
 10
-1.98274
 20
-0.256729
 11
-1.98358
 21
-0.253464
  0
LINE
  8
0
 10
-1.98358
 20
-0.253464
 11
-1.98428
 21
-0.250153
  0
LINE
  8
0
 10
-1.98428
 20
-0.250153
 11
-1.98485
 21
-0.246826
  0
LINE
  8
0
 10
-1.98485
 20
-0.246826
 11
-1.98528
 21
-0.243469
  0
LINE
  8
0
 10
-1.98528
 20
-0.243469
 11
-1.98557
 21
-0.240097
  0
LINE
  8
0
 10
-1.98557
 20
-0.240097
 11
-1.9857
 21
-0.236725
  0
LINE
  8
0
 10
-1.9857
 20
-0.236725
 11
-1.9857
 21
-0.233337
  0
LINE
  8
0
 10
-1.9857
 20
-0.233337
 11
-1.98557
 21
-0.229965
  0
LINE
  8
0
 10
-1.98557
 20
-0.229965
 11
-1.98528
 21
-0.226593
  0
LINE
  8
0
 10
-1.98528
 20
-0.226593
 11
-1.98485
 21
-0.223236
  0
LINE
  8
0
 10
-1.98485
 20
-0.223236
 11
-1.98428
 21
-0.21991
  0
LINE
  8
0
 10
-1.98428
 20
-0.21991
 11
-1.98358
 21
-0.216599
  0
LINE
  8
0
 10
-1.98358
 20
-0.216599
 11
-1.98274
 21
-0.213333
  0
LINE
  8
0
 10
-1.98274
 20
-0.213333
 11
-1.98177
 21
-0.210098
  0
LINE
  8
0
 10
-1.98177
 20
-0.210098
 11
-1.98065
 21
-0.206894
  0
LINE
  8
0
 10
-1.98065
 20
-0.206894
 11
-1.97942
 21
-0.203751
  0
LINE
  8
0
 10
-1.97942
 20
-0.203751
 11
-1.97804
 21
-0.200668
  0
LINE
  8
0
 10
-1.97804
 20
-0.200668
 11
-1.97653
 21
-0.197647
  0
LINE
  8
0
 10
-1.97653
 20
-0.197647
 11
-1.97491
 21
-0.194672
  0
LINE
  8
0
 10
-1.97491
 20
-0.194672
 11
-1.97316
 21
-0.191788
  0
LINE
  8
0
 10
-1.97316
 20
-0.191788
 11
-1.97128
 21
-0.188965
  0
LINE
  8
0
 10
-1.97128
 20
-0.188965
 11
-1.9693
 21
-0.186234
  0
LINE
  8
0
 10
-1.9693
 20
-0.186234
 11
-1.96719
 21
-0.183594
  0
LINE
  8
0
 10
-1.96719
 20
-0.183594
 11
-1.965
 21
-0.18103
  0
LINE
  8
0
 10
-1.965
 20
-0.18103
 11
-1.96268
 21
-0.178558
  0
LINE
  8
0
 10
-1.96268
 20
-0.178558
 11
-1.96027
 21
-0.176193
  0
LINE
  8
0
 10
-1.96027
 20
-0.176193
 11
-1.95775
 21
-0.173935
  0
LINE
  8
0
 10
-1.95775
 20
-0.173935
 11
-1.95514
 21
-0.171783
  0
LINE
  8
0
 10
-1.95514
 20
-0.171783
 11
-1.95245
 21
-0.169739
  0
LINE
  8
0
 10
-1.95245
 20
-0.169739
 11
-1.94968
 21
-0.167801
  0
LINE
  8
0
 10
-1.94968
 20
-0.167801
 11
-1.94682
 21
-0.166
  0
LINE
  8
0
 10
-1.94682
 20
-0.166
 11
-1.94389
 21
-0.164307
  0
LINE
  8
0
 10
-1.94389
 20
-0.164307
 11
-1.9409
 21
-0.162735
  0
LINE
  8
0
 10
-1.9409
 20
-0.162735
 11
-1.93784
 21
-0.161301
  0
LINE
  8
0
 10
-1.93784
 20
-0.161301
 11
-1.93472
 21
-0.159988
  0
LINE
  8
0
 10
-1.93472
 20
-0.159988
 11
-1.93155
 21
-0.158813
  0
LINE
  8
0
 10
-1.93155
 20
-0.158813
 11
-1.92834
 21
-0.157761
  0
LINE
  8
0
 10
-1.92834
 20
-0.157761
 11
-1.92508
 21
-0.15686
  0
LINE
  8
0
 10
-1.92508
 20
-0.15686
 11
-1.9218
 21
-0.156082
  0
LINE
  8
0
 10
-1.9218
 20
-0.156082
 11
-1.91847
 21
-0.155457
  0
LINE
  8
0
 10
-1.91847
 20
-0.155457
 11
-1.91513
 21
-0.154953
  0
LINE
  8
0
 10
-1.91513
 20
-0.154953
 11
-1.91176
 21
-0.154602
  0
LINE
  8
0
 10
-1.91176
 20
-0.154602
 11
-1.90839
 21
-0.154388
  0
LINE
  8
0
 10
-1.90839
 20
-0.154388
 11
-1.90501
 21
-0.154327
  0
LINE
  8
0
 10
-1.90501
 20
-0.154327
 11
-1.90163
 21
-0.154388
  0
LINE
  8
0
 10
-1.90163
 20
-0.154388
 11
-1.89825
 21
-0.154602
  0
LINE
  8
0
 10
-1.89825
 20
-0.154602
 11
-1.8949
 21
-0.154953
  0
LINE
  8
0
 10
-1.8949
 20
-0.154953
 11
-1.89156
 21
-0.155457
  0
LINE
  8
0
 10
-1.89156
 20
-0.155457
 11
-1.88823
 21
-0.156082
  0
LINE
  8
0
 10
-1.88823
 20
-0.156082
 11
-1.88493
 21
-0.15686
  0
LINE
  8
0
 10
-1.88493
 20
-0.15686
 11
-1.88168
 21
-0.157761
  0
LINE
  8
0
 10
-1.88168
 20
-0.157761
 11
-1.87846
 21
-0.158813
  0
LINE
  8
0
 10
-1.87846
 20
-0.158813
 11
-1.87531
 21
-0.159988
  0
LINE
  8
0
 10
-1.87531
 20
-0.159988
 11
-1.87219
 21
-0.161301
  0
LINE
  8
0
 10
-1.87219
 20
-0.161301
 11
-1.86913
 21
-0.162735
  0
LINE
  8
0
 10
-1.86913
 20
-0.162735
 11
-1.86613
 21
-0.164307
  0
LINE
  8
0
 10
-1.86613
 20
-0.164307
 11
-1.8632
 21
-0.166
  0
LINE
  8
0
 10
-1.8632
 20
-0.166
 11
-1.86035
 21
-0.167801
  0
LINE
  8
0
 10
-1.86035
 20
-0.167801
 11
-1.85757
 21
-0.169739
  0
LINE
  8
0
 10
-1.85757
 20
-0.169739
 11
-1.85487
 21
-0.171783
  0
LINE
  8
0
 10
-1.85487
 20
-0.171783
 11
-1.85228
 21
-0.173935
  0
LINE
  8
0
 10
-1.85228
 20
-0.173935
 11
-1.84976
 21
-0.176193
  0
LINE
  8
0
 10
-1.84976
 20
-0.176193
 11
-1.84735
 21
-0.178558
  0
LINE
  8
0
 10
-1.84735
 20
-0.178558
 11
-1.84503
 21
-0.18103
  0
LINE
  8
0
 10
-1.84503
 20
-0.18103
 11
-1.84282
 21
-0.183594
  0
LINE
  8
0
 10
-1.84282
 20
-0.183594
 11
-1.84073
 21
-0.186234
  0
LINE
  8
0
 10
-1.84073
 20
-0.186234
 11
-1.83875
 21
-0.188965
  0
LINE
  8
0
 10
-1.83875
 20
-0.188965
 11
-1.83687
 21
-0.191788
  0
LINE
  8
0
 10
-1.83687
 20
-0.191788
 11
-1.83511
 21
-0.194672
  0
LINE
  8
0
 10
-1.83511
 20
-0.194672
 11
-1.83348
 21
-0.197647
  0
LINE
  8
0
 10
-1.83348
 20
-0.197647
 11
-1.83199
 21
-0.200668
  0
LINE
  8
0
 10
-1.83199
 20
-0.200668
 11
-1.83061
 21
-0.203751
  0
LINE
  8
0
 10
-1.83061
 20
-0.203751
 11
-1.82936
 21
-0.206894
  0
LINE
  8
0
 10
-1.82936
 20
-0.206894
 11
-1.82825
 21
-0.210098
  0
LINE
  8
0
 10
-1.82825
 20
-0.210098
 11
-1.82727
 21
-0.213333
  0
LINE
  8
0
 10
-1.82727
 20
-0.213333
 11
-1.82643
 21
-0.216599
  0
LINE
  8
0
 10
-1.82643
 20
-0.216599
 11
-1.82573
 21
-0.21991
  0
LINE
  8
0
 10
-1.82573
 20
-0.21991
 11
-1.82516
 21
-0.223236
  0
LINE
  8
0
 10
-1.82516
 20
-0.223236
 11
-1.82475
 21
-0.226593
  0
LINE
  8
0
 10
-1.82475
 20
-0.226593
 11
-1.82446
 21
-0.229965
  0
LINE
  8
0
 10
-1.82446
 20
-0.229965
 11
-1.82433
 21
-0.233337
  0
LINE
  8
0
 10
-1.82433
 20
-0.233337
 11
-1.82433
 21
-0.236725
  0
LINE
  8
0
 10
-1.82433
 20
-0.236725
 11
-1.82446
 21
-0.240097
  0
LINE
  8
0
 10
-1.82446
 20
-0.240097
 11
-1.82475
 21
-0.243469
  0
LINE
  8
0
 10
-1.82475
 20
-0.243469
 11
-1.82516
 21
-0.246826
  0
LINE
  8
0
 10
-1.82516
 20
-0.246826
 11
-1.82573
 21
-0.250153
  0
LINE
  8
0
 10
-1.82573
 20
-0.250153
 11
-1.82643
 21
-0.253464
  0
LINE
  8
0
 10
-1.82643
 20
-0.253464
 11
-1.82727
 21
-0.256729
  0
LINE
  8
0
 10
-1.82727
 20
-0.256729
 11
-1.82825
 21
-0.259964
  0
LINE
  8
0
 10
-1.82825
 20
-0.259964
 11
-1.82936
 21
-0.263168
  0
LINE
  8
0
 10
-1.82936
 20
-0.263168
 11
-1.83061
 21
-0.266312
  0
LINE
  8
0
 10
-1.83061
 20
-0.266312
 11
-1.83199
 21
-0.269394
  0
LINE
  8
0
 10
-1.83199
 20
-0.269394
 11
-1.83348
 21
-0.27243
  0
LINE
  8
0
 10
-1.83348
 20
-0.27243
 11
-1.83511
 21
-0.275391
  0
LINE
  8
0
 10
-1.83511
 20
-0.275391
 11
-1.83687
 21
-0.278275
  0
LINE
  8
0
 10
-1.83687
 20
-0.278275
 11
-1.83875
 21
-0.281097
  0
LINE
  8
0
 10
-1.83875
 20
-0.281097
 11
-1.84073
 21
-0.283829
  0
LINE
  8
0
 10
-1.84073
 20
-0.283829
 11
-1.84282
 21
-0.286484
  0
LINE
  8
0
 10
-1.84282
 20
-0.286484
 11
-1.84503
 21
-0.289032
  0
LINE
  8
0
 10
-1.84503
 20
-0.289032
 11
-1.84735
 21
-0.291504
  0
LINE
  8
0
 10
-1.84735
 20
-0.291504
 11
-1.84976
 21
-0.293869
  0
LINE
  8
0
 10
-1.84976
 20
-0.293869
 11
-1.85228
 21
-0.296127
  0
LINE
  8
0
 10
-1.85228
 20
-0.296127
 11
-1.85487
 21
-0.298279
  0
LINE
  8
0
 10
-1.85487
 20
-0.298279
 11
-1.85757
 21
-0.300323
  0
LINE
  8
0
 10
-1.85757
 20
-0.300323
 11
-1.86035
 21
-0.302261
  0
LINE
  8
0
 10
-1.86035
 20
-0.302261
 11
-1.8632
 21
-0.304062
  0
LINE
  8
0
 10
-1.8632
 20
-0.304062
 11
-1.86613
 21
-0.305756
  0
LINE
  8
0
 10
-1.86613
 20
-0.305756
 11
-1.86913
 21
-0.307327
  0
LINE
  8
0
 10
-1.86913
 20
-0.307327
 11
-1.87219
 21
-0.308762
  0
LINE
  8
0
 10
-1.87219
 20
-0.308762
 11
-1.87531
 21
-0.310074
  0
LINE
  8
0
 10
-1.87531
 20
-0.310074
 11
-1.87846
 21
-0.311249
  0
LINE
  8
0
 10
-1.87846
 20
-0.311249
 11
-1.88168
 21
-0.312302
  0
LINE
  8
0
 10
-1.88168
 20
-0.312302
 11
-1.88493
 21
-0.313202
  0
LINE
  8
0
 10
-1.88493
 20
-0.313202
 11
-1.88823
 21
-0.31398
  0
LINE
  8
0
 10
-1.88823
 20
-0.31398
 11
-1.89156
 21
-0.314606
  0
LINE
  8
0
 10
-1.89156
 20
-0.314606
 11
-1.8949
 21
-0.315109
  0
LINE
  8
0
 10
-1.8949
 20
-0.315109
 11
-1.89825
 21
-0.31546
  0
LINE
  8
0
 10
-1.89825
 20
-0.31546
 11
-1.90163
 21
-0.315674
  0
LINE
  8
0
 10
-1.90163
 20
-0.315674
 11
-1.90501
 21
-0.315735
  0
LINE
  8
0
 10
-1.90501
 20
-0.315735
 11
-1.90839
 21
-0.315674
  0
ENDSEC
  0
SECTION
  2
OBJECTS
  0
DICTIONARY
  0
ENDSEC
  0
EOF
