  0
SECTION
  2
BLOCKS
  0
ENDSEC
  0
SECTION
  2
ENTITIES
  0
LINE
  8
0
 10
0.0313873
 20
-5.37401
 11
0.0522614
 21
-5.37225
  0
LINE
  8
0
 10
0.0522614
 20
-5.37225
 11
0.0730286
 21
-5.36963
  0
LINE
  8
0
 10
0.0730286
 20
-5.36963
 11
0.093689
 21
-5.36613
  0
LINE
  8
0
 10
0.093689
 20
-5.36613
 11
0.114166
 21
-5.36179
  0
LINE
  8
0
 10
0.114166
 20
-5.36179
 11
0.134445
 21
-5.35657
  0
LINE
  8
0
 10
0.134445
 20
-5.35657
 11
0.154495
 21
-5.35052
  0
LINE
  8
0
 10
0.154495
 20
-5.35052
 11
0.174286
 21
-5.34363
  0
LINE
  8
0
 10
0.174286
 20
-5.34363
 11
0.193756
 21
-5.33592
  0
LINE
  8
0
 10
0.193756
 20
-5.33592
 11
0.212875
 21
-5.32741
  0
LINE
  8
0
 10
0.212875
 20
-5.32741
 11
0.231644
 21
-5.3181
  0
LINE
  8
0
 10
0.231644
 20
-5.3181
 11
0.25
 21
-5.308
  0
LINE
  8
0
 10
0.25
 20
-5.308
 11
0.267899
 21
-5.29715
  0
LINE
  8
0
 10
0.267899
 20
-5.29715
 11
0.285355
 21
-5.28557
  0
LINE
  8
0
 10
0.285355
 20
-5.28557
 11
0.302292
 21
-5.27325
  0
LINE
  8
0
 10
0.302292
 20
-5.27325
 11
0.31871
 21
-5.26025
  0
LINE
  8
0
 10
0.31871
 20
-5.26025
 11
0.334564
 21
-5.24657
  0
LINE
  8
0
 10
0.334564
 20
-5.24657
 11
0.349823
 21
-5.23222
  0
LINE
  8
0
 10
0.349823
 20
-5.23222
 11
0.364471
 21
-5.21727
  0
LINE
  8
0
 10
0.364471
 20
-5.21727
 11
0.378494
 21
-5.20171
  0
LINE
  8
0
 10
0.378494
 20
-5.20171
 11
0.391846
 21
-5.18556
  0
LINE
  8
0
 10
0.391846
 20
-5.18556
 11
0.404495
 21
-5.16888
  0
LINE
  8
0
 10
0.404495
 20
-5.16888
 11
0.416458
 21
-5.15169
  0
LINE
  8
0
 10
0.416458
 20
-5.15169
 11
0.427673
 21
-5.134
  0
LINE
  8
0
 10
0.427673
 20
-5.134
 11
0.438141
 21
-5.11588
  0
LINE
  8
0
 10
0.438141
 20
-5.11588
 11
0.447845
 21
-5.09731
  0
LINE
  8
0
 10
0.447845
 20
-5.09731
 11
0.456772
 21
-5.07835
  0
LINE
  8
0
 10
0.456772
 20
-5.07835
 11
1.73573
 21
-2.2728
  0
LINE
  8
0
 10
1.73573
 20
-2.2728
 11
1.76657
 21
-2.19943
  0
LINE
  8
0
 10
1.76657
 20
-2.19943
 11
1.79431
 21
-2.12483
  0
LINE
  8
0
 10
1.79431
 20
-2.12483
 11
1.81889
 21
-2.04915
  0
LINE
  8
0
 10
1.81889
 20
-2.04915
 11
1.8403
 21
-1.9725
  0
LINE
  8
0
 10
1.8403
 20
-1.9725
 11
1.85847
 21
-1.89502
  0
LINE
  8
0
 10
1.85847
 20
-1.89502
 11
1.87338
 21
-1.81685
  0
LINE
  8
0
 10
1.87338
 20
-1.81685
 11
2.245
 21
0.389999
  0
LINE
  8
0
 10
2.245
 20
0.389999
 11
2.245
 21
0.399994
  0
LINE
  8
0
 10
2.245
 20
0.399994
 11
-2.245
 21
0.399994
  0
LINE
  8
0
 10
-2.245
 20
0.399994
 11
-2.245
 21
0.389999
  0
LINE
  8
0
 10
-2.245
 20
0.389999
 11
-1.87338
 21
-1.81685
  0
LINE
  8
0
 10
-1.87338
 20
-1.81685
 11
-1.85847
 21
-1.89502
  0
LINE
  8
0
 10
-1.85847
 20
-1.89502
 11
-1.8403
 21
-1.9725
  0
LINE
  8
0
 10
-1.8403
 20
-1.9725
 11
-1.81889
 21
-2.04915
  0
LINE
  8
0
 10
-1.81889
 20
-2.04915
 11
-1.79431
 21
-2.12483
  0
LINE
  8
0
 10
-1.79431
 20
-2.12483
 11
-1.76657
 21
-2.19943
  0
LINE
  8
0
 10
-1.76657
 20
-2.19943
 11
-1.73573
 21
-2.2728
  0
LINE
  8
0
 10
-1.73573
 20
-2.2728
 11
-0.456772
 21
-5.07835
  0
LINE
  8
0
 10
-0.456772
 20
-5.07835
 11
-0.447845
 21
-5.09731
  0
LINE
  8
0
 10
-0.447845
 20
-5.09731
 11
-0.438141
 21
-5.11588
  0
LINE
  8
0
 10
-0.438141
 20
-5.11588
 11
-0.427673
 21
-5.134
  0
LINE
  8
0
 10
-0.427673
 20
-5.134
 11
-0.416458
 21
-5.15169
  0
LINE
  8
0
 10
-0.416458
 20
-5.15169
 11
-0.404495
 21
-5.16888
  0
LINE
  8
0
 10
-0.404495
 20
-5.16888
 11
-0.391846
 21
-5.18556
  0
LINE
  8
0
 10
-0.391846
 20
-5.18556
 11
-0.378494
 21
-5.20171
  0
LINE
  8
0
 10
-0.378494
 20
-5.20171
 11
-0.364471
 21
-5.21727
  0
LINE
  8
0
 10
-0.364471
 20
-5.21727
 11
-0.349823
 21
-5.23222
  0
LINE
  8
0
 10
-0.349823
 20
-5.23222
 11
-0.334564
 21
-5.24657
  0
LINE
  8
0
 10
-0.334564
 20
-5.24657
 11
-0.31871
 21
-5.26025
  0
LINE
  8
0
 10
-0.31871
 20
-5.26025
 11
-0.302292
 21
-5.27325
  0
LINE
  8
0
 10
-0.302292
 20
-5.27325
 11
-0.285355
 21
-5.28557
  0
LINE
  8
0
 10
-0.285355
 20
-5.28557
 11
-0.267899
 21
-5.29715
  0
LINE
  8
0
 10
-0.267899
 20
-5.29715
 11
-0.25
 21
-5.308
  0
LINE
  8
0
 10
-0.25
 20
-5.308
 11
-0.231644
 21
-5.3181
  0
LINE
  8
0
 10
-0.231644
 20
-5.3181
 11
-0.212875
 21
-5.32741
  0
LINE
  8
0
 10
-0.212875
 20
-5.32741
 11
-0.193756
 21
-5.33592
  0
LINE
  8
0
 10
-0.193756
 20
-5.33592
 11
-0.174286
 21
-5.34363
  0
LINE
  8
0
 10
-0.174286
 20
-5.34363
 11
-0.154495
 21
-5.35052
  0
LINE
  8
0
 10
-0.154495
 20
-5.35052
 11
-0.134445
 21
-5.35657
  0
LINE
  8
0
 10
-0.134445
 20
-5.35657
 11
-0.114166
 21
-5.36179
  0
LINE
  8
0
 10
-0.114166
 20
-5.36179
 11
-0.093689
 21
-5.36613
  0
LINE
  8
0
 10
-0.093689
 20
-5.36613
 11
-0.0730286
 21
-5.36963
  0
LINE
  8
0
 10
-0.0730286
 20
-5.36963
 11
-0.0522614
 21
-5.37225
  0
LINE
  8
0
 10
-0.0522614
 20
-5.37225
 11
-0.0313873
 21
-5.37401
  0
LINE
  8
0
 10
-0.0313873
 20
-5.37401
 11
-0.0104675
 21
-5.37488
  0
LINE
  8
0
 10
-0.0104675
 20
-5.37488
 11
0.0104675
 21
-5.37488
  0
LINE
  8
0
 10
0.0104675
 20
-5.37488
 11
0.0313873
 21
-5.37401
  0
LINE
  8
0
 10
-1.70337
 20
-0.0806274
 11
-1.70674
 21
-0.0804138
  0
LINE
  8
0
 10
-1.70674
 20
-0.0804138
 11
-1.71011
 21
-0.0800629
  0
LINE
  8
0
 10
-1.71011
 20
-0.0800629
 11
-1.71346
 21
-0.0795746
  0
LINE
  8
0
 10
-1.71346
 20
-0.0795746
 11
-1.71677
 21
-0.0789337
  0
LINE
  8
0
 10
-1.71677
 20
-0.0789337
 11
-1.72006
 21
-0.0781708
  0
LINE
  8
0
 10
-1.72006
 20
-0.0781708
 11
-1.72331
 21
-0.0772552
  0
LINE
  8
0
 10
-1.72331
 20
-0.0772552
 11
-1.72653
 21
-0.0762177
  0
LINE
  8
0
 10
-1.72653
 20
-0.0762177
 11
-1.72971
 21
-0.0750275
  0
LINE
  8
0
 10
-1.72971
 20
-0.0750275
 11
-1.73282
 21
-0.0737305
  0
LINE
  8
0
 10
-1.73282
 20
-0.0737305
 11
-1.73589
 21
-0.0722809
  0
LINE
  8
0
 10
-1.73589
 20
-0.0722809
 11
-1.73888
 21
-0.0707245
  0
LINE
  8
0
 10
-1.73888
 20
-0.0707245
 11
-1.74181
 21
-0.0690308
  0
LINE
  8
0
 10
-1.74181
 20
-0.0690308
 11
-1.74466
 21
-0.067215
  0
LINE
  8
0
 10
-1.74466
 20
-0.067215
 11
-1.74744
 21
-0.0652924
  0
LINE
  8
0
 10
-1.74744
 20
-0.0652924
 11
-1.75012
 21
-0.0632477
  0
LINE
  8
0
 10
-1.75012
 20
-0.0632477
 11
-1.75273
 21
-0.0610962
  0
LINE
  8
0
 10
-1.75273
 20
-0.0610962
 11
-1.75523
 21
-0.0588226
  0
LINE
  8
0
 10
-1.75523
 20
-0.0588226
 11
-1.75766
 21
-0.0564575
  0
LINE
  8
0
 10
-1.75766
 20
-0.0564575
 11
-1.75996
 21
-0.0540009
  0
LINE
  8
0
 10
-1.75996
 20
-0.0540009
 11
-1.76218
 21
-0.0514374
  0
LINE
  8
0
 10
-1.76218
 20
-0.0514374
 11
-1.76428
 21
-0.0487823
  0
LINE
  8
0
 10
-1.76428
 20
-0.0487823
 11
-1.76627
 21
-0.046051
  0
LINE
  8
0
 10
-1.76627
 20
-0.046051
 11
-1.76814
 21
-0.0432434
  0
LINE
  8
0
 10
-1.76814
 20
-0.0432434
 11
-1.76988
 21
-0.0403442
  0
LINE
  8
0
 10
-1.76988
 20
-0.0403442
 11
-1.77151
 21
-0.037384
  0
LINE
  8
0
 10
-1.77151
 20
-0.037384
 11
-1.77303
 21
-0.0343628
  0
LINE
  8
0
 10
-1.77303
 20
-0.0343628
 11
-1.7744
 21
-0.0312653
  0
LINE
  8
0
 10
-1.7744
 20
-0.0312653
 11
-1.77563
 21
-0.0281219
  0
LINE
  8
0
 10
-1.77563
 20
-0.0281219
 11
-1.77675
 21
-0.0249329
  0
LINE
  8
0
 10
-1.77675
 20
-0.0249329
 11
-1.77773
 21
-0.021698
  0
LINE
  8
0
 10
-1.77773
 20
-0.021698
 11
-1.77856
 21
-0.0184174
  0
LINE
  8
0
 10
-1.77856
 20
-0.0184174
 11
-1.77927
 21
-0.0151215
  0
LINE
  8
0
 10
-1.77927
 20
-0.0151215
 11
-1.77983
 21
-0.0117798
  0
LINE
  8
0
 10
-1.77983
 20
-0.0117798
 11
-1.78026
 21
-0.00842285
  0
LINE
  8
0
 10
-1.78026
 20
-0.00842285
 11
-1.78055
 21
-0.00506592
  0
LINE
  8
0
 10
-1.78055
 20
-0.00506592
 11
-1.78069
 21
-0.00167847
  0
LINE
  8
0
 10
-1.78069
 20
-0.00167847
 11
-1.78069
 21
0.00167847
  0
LINE
  8
0
 10
-1.78069
 20
0.00167847
 11
-1.78055
 21
0.00506592
  0
LINE
  8
0
 10
-1.78055
 20
0.00506592
 11
-1.78026
 21
0.00842285
  0
LINE
  8
0
 10
-1.78026
 20
0.00842285
 11
-1.77983
 21
0.0117798
  0
LINE
  8
0
 10
-1.77983
 20
0.0117798
 11
-1.77927
 21
0.0151215
  0
LINE
  8
0
 10
-1.77927
 20
0.0151215
 11
-1.77856
 21
0.0184174
  0
LINE
  8
0
 10
-1.77856
 20
0.0184174
 11
-1.77773
 21
0.021698
  0
LINE
  8
0
 10
-1.77773
 20
0.021698
 11
-1.77675
 21
0.0249329
  0
LINE
  8
0
 10
-1.77675
 20
0.0249329
 11
-1.77563
 21
0.0281219
  0
LINE
  8
0
 10
-1.77563
 20
0.0281219
 11
-1.7744
 21
0.0312653
  0
LINE
  8
0
 10
-1.7744
 20
0.0312653
 11
-1.77303
 21
0.0343628
  0
LINE
  8
0
 10
-1.77303
 20
0.0343628
 11
-1.77151
 21
0.037384
  0
LINE
  8
0
 10
-1.77151
 20
0.037384
 11
-1.76988
 21
0.0403442
  0
LINE
  8
0
 10
-1.76988
 20
0.0403442
 11
-1.76814
 21
0.0432434
  0
LINE
  8
0
 10
-1.76814
 20
0.0432434
 11
-1.76627
 21
0.046051
  0
LINE
  8
0
 10
-1.76627
 20
0.046051
 11
-1.76428
 21
0.0487823
  0
LINE
  8
0
 10
-1.76428
 20
0.0487823
 11
-1.76218
 21
0.0514374
  0
LINE
  8
0
 10
-1.76218
 20
0.0514374
 11
-1.75996
 21
0.0540009
  0
LINE
  8
0
 10
-1.75996
 20
0.0540009
 11
-1.75766
 21
0.0564575
  0
LINE
  8
0
 10
-1.75766
 20
0.0564575
 11
-1.75523
 21
0.0588226
  0
LINE
  8
0
 10
-1.75523
 20
0.0588226
 11
-1.75273
 21
0.0610809
  0
LINE
  8
0
 10
-1.75273
 20
0.0610809
 11
-1.75012
 21
0.0632477
  0
LINE
  8
0
 10
-1.75012
 20
0.0632477
 11
-1.74744
 21
0.0652924
  0
LINE
  8
0
 10
-1.74744
 20
0.0652924
 11
-1.74466
 21
0.067215
  0
LINE
  8
0
 10
-1.74466
 20
0.067215
 11
-1.74181
 21
0.0690308
  0
LINE
  8
0
 10
-1.74181
 20
0.0690308
 11
-1.73888
 21
0.0707245
  0
LINE
  8
0
 10
-1.73888
 20
0.0707245
 11
-1.73589
 21
0.0722809
  0
LINE
  8
0
 10
-1.73589
 20
0.0722809
 11
-1.73282
 21
0.0737305
  0
LINE
  8
0
 10
-1.73282
 20
0.0737305
 11
-1.72971
 21
0.0750275
  0
LINE
  8
0
 10
-1.72971
 20
0.0750275
 11
-1.72653
 21
0.0762177
  0
LINE
  8
0
 10
-1.72653
 20
0.0762177
 11
-1.72331
 21
0.0772552
  0
LINE
  8
0
 10
-1.72331
 20
0.0772552
 11
-1.72006
 21
0.0781708
  0
LINE
  8
0
 10
-1.72006
 20
0.0781708
 11
-1.71677
 21
0.0789337
  0
LINE
  8
0
 10
-1.71677
 20
0.0789337
 11
-1.71346
 21
0.0795746
  0
LINE
  8
0
 10
-1.71346
 20
0.0795746
 11
-1.71011
 21
0.0800629
  0
LINE
  8
0
 10
-1.71011
 20
0.0800629
 11
-1.70674
 21
0.0804138
  0
LINE
  8
0
 10
-1.70674
 20
0.0804138
 11
-1.70337
 21
0.0806274
  0
LINE
  8
0
 10
-1.70337
 20
0.0806274
 11
-1.7
 21
0.0807037
  0
LINE
  8
0
 10
-1.7
 20
0.0807037
 11
-1.69661
 21
0.0806274
  0
LINE
  8
0
 10
-1.69661
 20
0.0806274
 11
-1.69324
 21
0.0804138
  0
LINE
  8
0
 10
-1.69324
 20
0.0804138
 11
-1.68988
 21
0.0800629
  0
LINE
  8
0
 10
-1.68988
 20
0.0800629
 11
-1.68654
 21
0.0795746
  0
LINE
  8
0
 10
-1.68654
 20
0.0795746
 11
-1.68321
 21
0.0789337
  0
LINE
  8
0
 10
-1.68321
 20
0.0789337
 11
-1.67992
 21
0.0781708
  0
LINE
  8
0
 10
-1.67992
 20
0.0781708
 11
-1.67667
 21
0.0772552
  0
LINE
  8
0
 10
-1.67667
 20
0.0772552
 11
-1.67345
 21
0.0762177
  0
LINE
  8
0
 10
-1.67345
 20
0.0762177
 11
-1.67029
 21
0.0750275
  0
LINE
  8
0
 10
-1.67029
 20
0.0750275
 11
-1.66716
 21
0.0737305
  0
LINE
  8
0
 10
-1.66716
 20
0.0737305
 11
-1.66411
 21
0.0722809
  0
LINE
  8
0
 10
-1.66411
 20
0.0722809
 11
-1.66112
 21
0.0707245
  0
LINE
  8
0
 10
-1.66112
 20
0.0707245
 11
-1.65819
 21
0.0690308
  0
LINE
  8
0
 10
-1.65819
 20
0.0690308
 11
-1.65533
 21
0.067215
  0
LINE
  8
0
 10
-1.65533
 20
0.067215
 11
-1.65256
 21
0.0652924
  0
LINE
  8
0
 10
-1.65256
 20
0.0652924
 11
-1.64986
 21
0.0632477
  0
LINE
  8
0
 10
-1.64986
 20
0.0632477
 11
-1.64726
 21
0.0610809
  0
LINE
  8
0
 10
-1.64726
 20
0.0610809
 11
-1.64474
 21
0.0588226
  0
LINE
  8
0
 10
-1.64474
 20
0.0588226
 11
-1.64233
 21
0.0564575
  0
LINE
  8
0
 10
-1.64233
 20
0.0564575
 11
-1.64001
 21
0.0540009
  0
LINE
  8
0
 10
-1.64001
 20
0.0540009
 11
-1.6378
 21
0.0514374
  0
LINE
  8
0
 10
-1.6378
 20
0.0514374
 11
-1.63571
 21
0.0487823
  0
LINE
  8
0
 10
-1.63571
 20
0.0487823
 11
-1.63371
 21
0.046051
  0
LINE
  8
0
 10
-1.63371
 20
0.046051
 11
-1.63185
 21
0.0432434
  0
LINE
  8
0
 10
-1.63185
 20
0.0432434
 11
-1.6301
 21
0.0403442
  0
LINE
  8
0
 10
-1.6301
 20
0.0403442
 11
-1.62846
 21
0.037384
  0
LINE
  8
0
 10
-1.62846
 20
0.037384
 11
-1.62697
 21
0.0343628
  0
LINE
  8
0
 10
-1.62697
 20
0.0343628
 11
-1.6256
 21
0.0312653
  0
LINE
  8
0
 10
-1.6256
 20
0.0312653
 11
-1.62434
 21
0.0281219
  0
LINE
  8
0
 10
-1.62434
 20
0.0281219
 11
-1.62323
 21
0.0249329
  0
LINE
  8
0
 10
-1.62323
 20
0.0249329
 11
-1.62225
 21
0.021698
  0
LINE
  8
0
 10
-1.62225
 20
0.021698
 11
-1.62141
 21
0.0184174
  0
LINE
  8
0
 10
-1.62141
 20
0.0184174
 11
-1.62071
 21
0.0151215
  0
LINE
  8
0
 10
-1.62071
 20
0.0151215
 11
-1.62015
 21
0.0117798
  0
LINE
  8
0
 10
-1.62015
 20
0.0117798
 11
-1.61972
 21
0.00842285
  0
LINE
  8
0
 10
-1.61972
 20
0.00842285
 11
-1.61945
 21
0.00506592
  0
LINE
  8
0
 10
-1.61945
 20
0.00506592
 11
-1.61931
 21
0.00167847
  0
LINE
  8
0
 10
-1.61931
 20
0.00167847
 11
-1.61931
 21
-0.00167847
  0
LINE
  8
0
 10
-1.61931
 20
-0.00167847
 11
-1.61945
 21
-0.00506592
  0
LINE
  8
0
 10
-1.61945
 20
-0.00506592
 11
-1.61972
 21
-0.00842285
  0
LINE
  8
0
 10
-1.61972
 20
-0.00842285
 11
-1.62015
 21
-0.0117798
  0
LINE
  8
0
 10
-1.62015
 20
-0.0117798
 11
-1.62071
 21
-0.0151215
  0
LINE
  8
0
 10
-1.62071
 20
-0.0151215
 11
-1.62141
 21
-0.0184174
  0
LINE
  8
0
 10
-1.62141
 20
-0.0184174
 11
-1.62225
 21
-0.021698
  0
LINE
  8
0
 10
-1.62225
 20
-0.021698
 11
-1.62323
 21
-0.0249329
  0
LINE
  8
0
 10
-1.62323
 20
-0.0249329
 11
-1.62434
 21
-0.0281219
  0
LINE
  8
0
 10
-1.62434
 20
-0.0281219
 11
-1.6256
 21
-0.0312653
  0
LINE
  8
0
 10
-1.6256
 20
-0.0312653
 11
-1.62697
 21
-0.0343628
  0
LINE
  8
0
 10
-1.62697
 20
-0.0343628
 11
-1.62846
 21
-0.037384
  0
LINE
  8
0
 10
-1.62846
 20
-0.037384
 11
-1.6301
 21
-0.0403442
  0
LINE
  8
0
 10
-1.6301
 20
-0.0403442
 11
-1.63185
 21
-0.0432434
  0
LINE
  8
0
 10
-1.63185
 20
-0.0432434
 11
-1.63371
 21
-0.046051
  0
LINE
  8
0
 10
-1.63371
 20
-0.046051
 11
-1.63571
 21
-0.0487823
  0
LINE
  8
0
 10
-1.63571
 20
-0.0487823
 11
-1.6378
 21
-0.0514374
  0
LINE
  8
0
 10
-1.6378
 20
-0.0514374
 11
-1.64001
 21
-0.0540009
  0
LINE
  8
0
 10
-1.64001
 20
-0.0540009
 11
-1.64233
 21
-0.0564575
  0
LINE
  8
0
 10
-1.64233
 20
-0.0564575
 11
-1.64474
 21
-0.0588226
  0
LINE
  8
0
 10
-1.64474
 20
-0.0588226
 11
-1.64726
 21
-0.0610962
  0
LINE
  8
0
 10
-1.64726
 20
-0.0610962
 11
-1.64986
 21
-0.0632477
  0
LINE
  8
0
 10
-1.64986
 20
-0.0632477
 11
-1.65256
 21
-0.0652924
  0
LINE
  8
0
 10
-1.65256
 20
-0.0652924
 11
-1.65533
 21
-0.067215
  0
LINE
  8
0
 10
-1.65533
 20
-0.067215
 11
-1.65819
 21
-0.0690308
  0
LINE
  8
0
 10
-1.65819
 20
-0.0690308
 11
-1.66112
 21
-0.0707245
  0
LINE
  8
0
 10
-1.66112
 20
-0.0707245
 11
-1.66411
 21
-0.0722809
  0
LINE
  8
0
 10
-1.66411
 20
-0.0722809
 11
-1.66716
 21
-0.0737305
  0
LINE
  8
0
 10
-1.66716
 20
-0.0737305
 11
-1.67029
 21
-0.0750275
  0
LINE
  8
0
 10
-1.67029
 20
-0.0750275
 11
-1.67345
 21
-0.0762177
  0
LINE
  8
0
 10
-1.67345
 20
-0.0762177
 11
-1.67667
 21
-0.0772552
  0
LINE
  8
0
 10
-1.67667
 20
-0.0772552
 11
-1.67992
 21
-0.0781708
  0
LINE
  8
0
 10
-1.67992
 20
-0.0781708
 11
-1.68321
 21
-0.0789337
  0
LINE
  8
0
 10
-1.68321
 20
-0.0789337
 11
-1.68654
 21
-0.0795746
  0
LINE
  8
0
 10
-1.68654
 20
-0.0795746
 11
-1.68988
 21
-0.0800629
  0
LINE
  8
0
 10
-1.68988
 20
-0.0800629
 11
-1.69324
 21
-0.0804138
  0
LINE
  8
0
 10
-1.69324
 20
-0.0804138
 11
-1.69661
 21
-0.0806274
  0
LINE
  8
0
 10
-1.69661
 20
-0.0806274
 11
-1.7
 21
-0.0807037
  0
LINE
  8
0
 10
-1.7
 20
-0.0807037
 11
-1.70337
 21
-0.0806274
  0
LINE
  8
0
 10
1.69661
 20
-0.0806274
 11
1.69324
 21
-0.0804138
  0
LINE
  8
0
 10
1.69324
 20
-0.0804138
 11
1.68988
 21
-0.0800629
  0
LINE
  8
0
 10
1.68988
 20
-0.0800629
 11
1.68654
 21
-0.0795746
  0
LINE
  8
0
 10
1.68654
 20
-0.0795746
 11
1.68321
 21
-0.0789337
  0
LINE
  8
0
 10
1.68321
 20
-0.0789337
 11
1.67992
 21
-0.0781708
  0
LINE
  8
0
 10
1.67992
 20
-0.0781708
 11
1.67667
 21
-0.0772552
  0
LINE
  8
0
 10
1.67667
 20
-0.0772552
 11
1.67345
 21
-0.0762177
  0
LINE
  8
0
 10
1.67345
 20
-0.0762177
 11
1.67029
 21
-0.0750275
  0
LINE
  8
0
 10
1.67029
 20
-0.0750275
 11
1.66716
 21
-0.0737305
  0
LINE
  8
0
 10
1.66716
 20
-0.0737305
 11
1.66411
 21
-0.0722809
  0
LINE
  8
0
 10
1.66411
 20
-0.0722809
 11
1.66112
 21
-0.0707245
  0
LINE
  8
0
 10
1.66112
 20
-0.0707245
 11
1.65819
 21
-0.0690308
  0
LINE
  8
0
 10
1.65819
 20
-0.0690308
 11
1.65533
 21
-0.067215
  0
LINE
  8
0
 10
1.65533
 20
-0.067215
 11
1.65256
 21
-0.0652924
  0
LINE
  8
0
 10
1.65256
 20
-0.0652924
 11
1.64986
 21
-0.0632477
  0
LINE
  8
0
 10
1.64986
 20
-0.0632477
 11
1.64726
 21
-0.0610962
  0
LINE
  8
0
 10
1.64726
 20
-0.0610962
 11
1.64474
 21
-0.0588226
  0
LINE
  8
0
 10
1.64474
 20
-0.0588226
 11
1.64233
 21
-0.0564575
  0
LINE
  8
0
 10
1.64233
 20
-0.0564575
 11
1.64001
 21
-0.0540009
  0
LINE
  8
0
 10
1.64001
 20
-0.0540009
 11
1.6378
 21
-0.0514374
  0
LINE
  8
0
 10
1.6378
 20
-0.0514374
 11
1.63571
 21
-0.0487823
  0
LINE
  8
0
 10
1.63571
 20
-0.0487823
 11
1.63371
 21
-0.046051
  0
LINE
  8
0
 10
1.63371
 20
-0.046051
 11
1.63185
 21
-0.0432434
  0
LINE
  8
0
 10
1.63185
 20
-0.0432434
 11
1.6301
 21
-0.0403442
  0
LINE
  8
0
 10
1.6301
 20
-0.0403442
 11
1.62846
 21
-0.037384
  0
LINE
  8
0
 10
1.62846
 20
-0.037384
 11
1.62697
 21
-0.0343628
  0
LINE
  8
0
 10
1.62697
 20
-0.0343628
 11
1.6256
 21
-0.0312653
  0
LINE
  8
0
 10
1.6256
 20
-0.0312653
 11
1.62434
 21
-0.0281219
  0
LINE
  8
0
 10
1.62434
 20
-0.0281219
 11
1.62323
 21
-0.0249329
  0
LINE
  8
0
 10
1.62323
 20
-0.0249329
 11
1.62225
 21
-0.021698
  0
LINE
  8
0
 10
1.62225
 20
-0.021698
 11
1.62141
 21
-0.0184174
  0
LINE
  8
0
 10
1.62141
 20
-0.0184174
 11
1.62071
 21
-0.0151215
  0
LINE
  8
0
 10
1.62071
 20
-0.0151215
 11
1.62015
 21
-0.0117798
  0
LINE
  8
0
 10
1.62015
 20
-0.0117798
 11
1.61972
 21
-0.00842285
  0
LINE
  8
0
 10
1.61972
 20
-0.00842285
 11
1.61945
 21
-0.00506592
  0
LINE
  8
0
 10
1.61945
 20
-0.00506592
 11
1.61931
 21
-0.00167847
  0
LINE
  8
0
 10
1.61931
 20
-0.00167847
 11
1.61931
 21
0.00167847
  0
LINE
  8
0
 10
1.61931
 20
0.00167847
 11
1.61945
 21
0.00506592
  0
LINE
  8
0
 10
1.61945
 20
0.00506592
 11
1.61972
 21
0.00842285
  0
LINE
  8
0
 10
1.61972
 20
0.00842285
 11
1.62015
 21
0.0117798
  0
LINE
  8
0
 10
1.62015
 20
0.0117798
 11
1.62071
 21
0.0151215
  0
LINE
  8
0
 10
1.62071
 20
0.0151215
 11
1.62141
 21
0.0184174
  0
LINE
  8
0
 10
1.62141
 20
0.0184174
 11
1.62225
 21
0.021698
  0
LINE
  8
0
 10
1.62225
 20
0.021698
 11
1.62323
 21
0.0249329
  0
LINE
  8
0
 10
1.62323
 20
0.0249329
 11
1.62434
 21
0.0281219
  0
LINE
  8
0
 10
1.62434
 20
0.0281219
 11
1.6256
 21
0.0312653
  0
LINE
  8
0
 10
1.6256
 20
0.0312653
 11
1.62697
 21
0.0343628
  0
LINE
  8
0
 10
1.62697
 20
0.0343628
 11
1.62846
 21
0.037384
  0
LINE
  8
0
 10
1.62846
 20
0.037384
 11
1.6301
 21
0.0403442
  0
LINE
  8
0
 10
1.6301
 20
0.0403442
 11
1.63185
 21
0.0432434
  0
LINE
  8
0
 10
1.63185
 20
0.0432434
 11
1.63371
 21
0.046051
  0
LINE
  8
0
 10
1.63371
 20
0.046051
 11
1.63571
 21
0.0487823
  0
LINE
  8
0
 10
1.63571
 20
0.0487823
 11
1.6378
 21
0.0514374
  0
LINE
  8
0
 10
1.6378
 20
0.0514374
 11
1.64001
 21
0.0540009
  0
LINE
  8
0
 10
1.64001
 20
0.0540009
 11
1.64233
 21
0.0564575
  0
LINE
  8
0
 10
1.64233
 20
0.0564575
 11
1.64474
 21
0.0588226
  0
LINE
  8
0
 10
1.64474
 20
0.0588226
 11
1.64726
 21
0.0610809
  0
LINE
  8
0
 10
1.64726
 20
0.0610809
 11
1.64986
 21
0.0632477
  0
LINE
  8
0
 10
1.64986
 20
0.0632477
 11
1.65256
 21
0.0652924
  0
LINE
  8
0
 10
1.65256
 20
0.0652924
 11
1.65533
 21
0.067215
  0
LINE
  8
0
 10
1.65533
 20
0.067215
 11
1.65819
 21
0.0690308
  0
LINE
  8
0
 10
1.65819
 20
0.0690308
 11
1.66112
 21
0.0707245
  0
LINE
  8
0
 10
1.66112
 20
0.0707245
 11
1.66411
 21
0.0722809
  0
LINE
  8
0
 10
1.66411
 20
0.0722809
 11
1.66716
 21
0.0737305
  0
LINE
  8
0
 10
1.66716
 20
0.0737305
 11
1.67029
 21
0.0750275
  0
LINE
  8
0
 10
1.67029
 20
0.0750275
 11
1.67345
 21
0.0762177
  0
LINE
  8
0
 10
1.67345
 20
0.0762177
 11
1.67667
 21
0.0772552
  0
LINE
  8
0
 10
1.67667
 20
0.0772552
 11
1.67992
 21
0.0781708
  0
LINE
  8
0
 10
1.67992
 20
0.0781708
 11
1.68321
 21
0.0789337
  0
LINE
  8
0
 10
1.68321
 20
0.0789337
 11
1.68654
 21
0.0795746
  0
LINE
  8
0
 10
1.68654
 20
0.0795746
 11
1.68988
 21
0.0800629
  0
LINE
  8
0
 10
1.68988
 20
0.0800629
 11
1.69324
 21
0.0804138
  0
LINE
  8
0
 10
1.69324
 20
0.0804138
 11
1.69661
 21
0.0806274
  0
LINE
  8
0
 10
1.69661
 20
0.0806274
 11
1.7
 21
0.0807037
  0
LINE
  8
0
 10
1.7
 20
0.0807037
 11
1.70337
 21
0.0806274
  0
LINE
  8
0
 10
1.70337
 20
0.0806274
 11
1.70674
 21
0.0804138
  0
LINE
  8
0
 10
1.70674
 20
0.0804138
 11
1.71011
 21
0.0800629
  0
LINE
  8
0
 10
1.71011
 20
0.0800629
 11
1.71346
 21
0.0795746
  0
LINE
  8
0
 10
1.71346
 20
0.0795746
 11
1.71677
 21
0.0789337
  0
LINE
  8
0
 10
1.71677
 20
0.0789337
 11
1.72006
 21
0.0781708
  0
LINE
  8
0
 10
1.72006
 20
0.0781708
 11
1.72331
 21
0.0772552
  0
LINE
  8
0
 10
1.72331
 20
0.0772552
 11
1.72653
 21
0.0762177
  0
LINE
  8
0
 10
1.72653
 20
0.0762177
 11
1.72971
 21
0.0750275
  0
LINE
  8
0
 10
1.72971
 20
0.0750275
 11
1.73282
 21
0.0737305
  0
LINE
  8
0
 10
1.73282
 20
0.0737305
 11
1.73589
 21
0.0722809
  0
LINE
  8
0
 10
1.73589
 20
0.0722809
 11
1.73888
 21
0.0707245
  0
LINE
  8
0
 10
1.73888
 20
0.0707245
 11
1.74181
 21
0.0690308
  0
LINE
  8
0
 10
1.74181
 20
0.0690308
 11
1.74466
 21
0.067215
  0
LINE
  8
0
 10
1.74466
 20
0.067215
 11
1.74744
 21
0.0652924
  0
LINE
  8
0
 10
1.74744
 20
0.0652924
 11
1.75012
 21
0.0632477
  0
LINE
  8
0
 10
1.75012
 20
0.0632477
 11
1.75273
 21
0.0610809
  0
LINE
  8
0
 10
1.75273
 20
0.0610809
 11
1.75523
 21
0.0588226
  0
LINE
  8
0
 10
1.75523
 20
0.0588226
 11
1.75766
 21
0.0564575
  0
LINE
  8
0
 10
1.75766
 20
0.0564575
 11
1.75996
 21
0.0540009
  0
LINE
  8
0
 10
1.75996
 20
0.0540009
 11
1.76218
 21
0.0514374
  0
LINE
  8
0
 10
1.76218
 20
0.0514374
 11
1.76428
 21
0.0487823
  0
LINE
  8
0
 10
1.76428
 20
0.0487823
 11
1.76627
 21
0.046051
  0
LINE
  8
0
 10
1.76627
 20
0.046051
 11
1.76814
 21
0.0432434
  0
LINE
  8
0
 10
1.76814
 20
0.0432434
 11
1.76988
 21
0.0403442
  0
LINE
  8
0
 10
1.76988
 20
0.0403442
 11
1.77151
 21
0.037384
  0
LINE
  8
0
 10
1.77151
 20
0.037384
 11
1.77303
 21
0.0343628
  0
LINE
  8
0
 10
1.77303
 20
0.0343628
 11
1.7744
 21
0.0312653
  0
LINE
  8
0
 10
1.7744
 20
0.0312653
 11
1.77563
 21
0.0281219
  0
LINE
  8
0
 10
1.77563
 20
0.0281219
 11
1.77675
 21
0.0249329
  0
LINE
  8
0
 10
1.77675
 20
0.0249329
 11
1.77773
 21
0.021698
  0
LINE
  8
0
 10
1.77773
 20
0.021698
 11
1.77856
 21
0.0184174
  0
LINE
  8
0
 10
1.77856
 20
0.0184174
 11
1.77927
 21
0.0151215
  0
LINE
  8
0
 10
1.77927
 20
0.0151215
 11
1.77983
 21
0.0117798
  0
LINE
  8
0
 10
1.77983
 20
0.0117798
 11
1.78026
 21
0.00842285
  0
LINE
  8
0
 10
1.78026
 20
0.00842285
 11
1.78055
 21
0.00506592
  0
LINE
  8
0
 10
1.78055
 20
0.00506592
 11
1.78069
 21
0.00167847
  0
LINE
  8
0
 10
1.78069
 20
0.00167847
 11
1.78069
 21
-0.00167847
  0
LINE
  8
0
 10
1.78069
 20
-0.00167847
 11
1.78055
 21
-0.00506592
  0
LINE
  8
0
 10
1.78055
 20
-0.00506592
 11
1.78026
 21
-0.00842285
  0
LINE
  8
0
 10
1.78026
 20
-0.00842285
 11
1.77983
 21
-0.0117798
  0
LINE
  8
0
 10
1.77983
 20
-0.0117798
 11
1.77927
 21
-0.0151215
  0
LINE
  8
0
 10
1.77927
 20
-0.0151215
 11
1.77856
 21
-0.0184174
  0
LINE
  8
0
 10
1.77856
 20
-0.0184174
 11
1.77773
 21
-0.021698
  0
LINE
  8
0
 10
1.77773
 20
-0.021698
 11
1.77675
 21
-0.0249329
  0
LINE
  8
0
 10
1.77675
 20
-0.0249329
 11
1.77563
 21
-0.0281219
  0
LINE
  8
0
 10
1.77563
 20
-0.0281219
 11
1.7744
 21
-0.0312653
  0
LINE
  8
0
 10
1.7744
 20
-0.0312653
 11
1.77303
 21
-0.0343628
  0
LINE
  8
0
 10
1.77303
 20
-0.0343628
 11
1.77151
 21
-0.037384
  0
LINE
  8
0
 10
1.77151
 20
-0.037384
 11
1.76988
 21
-0.0403442
  0
LINE
  8
0
 10
1.76988
 20
-0.0403442
 11
1.76814
 21
-0.0432434
  0
LINE
  8
0
 10
1.76814
 20
-0.0432434
 11
1.76627
 21
-0.046051
  0
LINE
  8
0
 10
1.76627
 20
-0.046051
 11
1.76428
 21
-0.0487823
  0
LINE
  8
0
 10
1.76428
 20
-0.0487823
 11
1.76218
 21
-0.0514374
  0
LINE
  8
0
 10
1.76218
 20
-0.0514374
 11
1.75996
 21
-0.0540009
  0
LINE
  8
0
 10
1.75996
 20
-0.0540009
 11
1.75766
 21
-0.0564575
  0
LINE
  8
0
 10
1.75766
 20
-0.0564575
 11
1.75523
 21
-0.0588226
  0
LINE
  8
0
 10
1.75523
 20
-0.0588226
 11
1.75273
 21
-0.0610962
  0
LINE
  8
0
 10
1.75273
 20
-0.0610962
 11
1.75012
 21
-0.0632477
  0
LINE
  8
0
 10
1.75012
 20
-0.0632477
 11
1.74744
 21
-0.0652924
  0
LINE
  8
0
 10
1.74744
 20
-0.0652924
 11
1.74466
 21
-0.067215
  0
LINE
  8
0
 10
1.74466
 20
-0.067215
 11
1.74181
 21
-0.0690308
  0
LINE
  8
0
 10
1.74181
 20
-0.0690308
 11
1.73888
 21
-0.0707245
  0
LINE
  8
0
 10
1.73888
 20
-0.0707245
 11
1.73589
 21
-0.0722809
  0
LINE
  8
0
 10
1.73589
 20
-0.0722809
 11
1.73282
 21
-0.0737305
  0
LINE
  8
0
 10
1.73282
 20
-0.0737305
 11
1.72971
 21
-0.0750275
  0
LINE
  8
0
 10
1.72971
 20
-0.0750275
 11
1.72653
 21
-0.0762177
  0
LINE
  8
0
 10
1.72653
 20
-0.0762177
 11
1.72331
 21
-0.0772552
  0
LINE
  8
0
 10
1.72331
 20
-0.0772552
 11
1.72006
 21
-0.0781708
  0
LINE
  8
0
 10
1.72006
 20
-0.0781708
 11
1.71677
 21
-0.0789337
  0
LINE
  8
0
 10
1.71677
 20
-0.0789337
 11
1.71346
 21
-0.0795746
  0
LINE
  8
0
 10
1.71346
 20
-0.0795746
 11
1.71011
 21
-0.0800629
  0
LINE
  8
0
 10
1.71011
 20
-0.0800629
 11
1.70674
 21
-0.0804138
  0
LINE
  8
0
 10
1.70674
 20
-0.0804138
 11
1.70337
 21
-0.0806274
  0
LINE
  8
0
 10
1.70337
 20
-0.0806274
 11
1.7
 21
-0.0807037
  0
LINE
  8
0
 10
1.7
 20
-0.0807037
 11
1.69661
 21
-0.0806274
  0
LINE
  8
0
 10
-0.00167847
 20
-0.624969
 11
-0.00506592
 21
-0.624832
  0
LINE
  8
0
 10
-0.00506592
 20
-0.624832
 11
-0.00842285
 21
-0.624557
  0
LINE
  8
0
 10
-0.00842285
 20
-0.624557
 11
-0.0117798
 21
-0.62413
  0
LINE
  8
0
 10
-0.0117798
 20
-0.62413
 11
-0.0151215
 21
-0.623566
  0
LINE
  8
0
 10
-0.0151215
 20
-0.623566
 11
-0.0184174
 21
-0.622864
  0
LINE
  8
0
 10
-0.0184174
 20
-0.622864
 11
-0.021698
 21
-0.622025
  0
LINE
  8
0
 10
-0.021698
 20
-0.622025
 11
-0.0249329
 21
-0.621048
  0
LINE
  8
0
 10
-0.0249329
 20
-0.621048
 11
-0.0281219
 21
-0.619934
  0
LINE
  8
0
 10
-0.0281219
 20
-0.619934
 11
-0.0312653
 21
-0.618683
  0
LINE
  8
0
 10
-0.0312653
 20
-0.618683
 11
-0.0343628
 21
-0.61731
  0
LINE
  8
0
 10
-0.0343628
 20
-0.61731
 11
-0.037384
 21
-0.615814
  0
LINE
  8
0
 10
-0.037384
 20
-0.615814
 11
-0.0403442
 21
-0.614182
  0
LINE
  8
0
 10
-0.0403442
 20
-0.614182
 11
-0.0432434
 21
-0.612427
  0
LINE
  8
0
 10
-0.0432434
 20
-0.612427
 11
-0.046051
 21
-0.610565
  0
LINE
  8
0
 10
-0.046051
 20
-0.610565
 11
-0.0487823
 21
-0.608566
  0
LINE
  8
0
 10
-0.0487823
 20
-0.608566
 11
-0.0514374
 21
-0.606476
  0
LINE
  8
0
 10
-0.0514374
 20
-0.606476
 11
-0.0540009
 21
-0.604263
  0
LINE
  8
0
 10
-0.0540009
 20
-0.604263
 11
-0.0564575
 21
-0.601944
  0
LINE
  8
0
 10
-0.0564575
 20
-0.601944
 11
-0.0588226
 21
-0.599533
  0
LINE
  8
0
 10
-0.0588226
 20
-0.599533
 11
-0.0610962
 21
-0.597015
  0
LINE
  8
0
 10
-0.0610962
 20
-0.597015
 11
-0.0632477
 21
-0.594421
  0
LINE
  8
0
 10
-0.0632477
 20
-0.594421
 11
-0.0652924
 21
-0.591721
  0
LINE
  8
0
 10
-0.0652924
 20
-0.591721
 11
-0.067215
 21
-0.588943
  0
LINE
  8
0
 10
-0.067215
 20
-0.588943
 11
-0.0690308
 21
-0.58609
  0
LINE
  8
0
 10
-0.0690308
 20
-0.58609
 11
-0.0707245
 21
-0.58316
  0
LINE
  8
0
 10
-0.0707245
 20
-0.58316
 11
-0.0722809
 21
-0.58017
  0
LINE
  8
0
 10
-0.0722809
 20
-0.58017
 11
-0.0737305
 21
-0.577118
  0
LINE
  8
0
 10
-0.0737305
 20
-0.577118
 11
-0.0750275
 21
-0.57399
  0
LINE
  8
0
 10
-0.0750275
 20
-0.57399
 11
-0.0762177
 21
-0.570831
  0
LINE
  8
0
 10
-0.0762177
 20
-0.570831
 11
-0.0772552
 21
-0.567612
  0
LINE
  8
0
 10
-0.0772552
 20
-0.567612
 11
-0.0781708
 21
-0.564362
  0
LINE
  8
0
 10
-0.0781708
 20
-0.564362
 11
-0.0789337
 21
-0.561066
  0
LINE
  8
0
 10
-0.0789337
 20
-0.561066
 11
-0.0795746
 21
-0.557739
  0
LINE
  8
0
 10
-0.0795746
 20
-0.557739
 11
-0.0800629
 21
-0.554398
  0
LINE
  8
0
 10
-0.0800629
 20
-0.554398
 11
-0.0804138
 21
-0.551041
  0
LINE
  8
0
 10
-0.0804138
 20
-0.551041
 11
-0.0806274
 21
-0.547668
  0
LINE
  8
0
 10
-0.0806274
 20
-0.547668
 11
-0.0807037
 21
-0.544281
  0
LINE
  8
0
 10
-0.0807037
 20
-0.544281
 11
-0.0806274
 21
-0.540909
  0
LINE
  8
0
 10
-0.0806274
 20
-0.540909
 11
-0.0804138
 21
-0.537537
  0
LINE
  8
0
 10
-0.0804138
 20
-0.537537
 11
-0.0800629
 21
-0.534164
  0
LINE
  8
0
 10
-0.0800629
 20
-0.534164
 11
-0.0795746
 21
-0.530823
  0
LINE
  8
0
 10
-0.0795746
 20
-0.530823
 11
-0.0789337
 21
-0.527496
  0
LINE
  8
0
 10
-0.0789337
 20
-0.527496
 11
-0.0781708
 21
-0.524216
  0
LINE
  8
0
 10
-0.0781708
 20
-0.524216
 11
-0.0772552
 21
-0.52095
  0
LINE
  8
0
 10
-0.0772552
 20
-0.52095
 11
-0.0762177
 21
-0.517746
  0
LINE
  8
0
 10
-0.0762177
 20
-0.517746
 11
-0.0750275
 21
-0.514572
  0
LINE
  8
0
 10
-0.0750275
 20
-0.514572
 11
-0.0737305
 21
-0.511459
  0
LINE
  8
0
 10
-0.0737305
 20
-0.511459
 11
-0.0722809
 21
-0.508392
  0
LINE
  8
0
 10
-0.0722809
 20
-0.508392
 11
-0.0707245
 21
-0.505402
  0
LINE
  8
0
 10
-0.0707245
 20
-0.505402
 11
-0.0690308
 21
-0.502472
  0
LINE
  8
0
 10
-0.0690308
 20
-0.502472
 11
-0.067215
 21
-0.499619
  0
LINE
  8
0
 10
-0.067215
 20
-0.499619
 11
-0.0652924
 21
-0.496841
  0
LINE
  8
0
 10
-0.0652924
 20
-0.496841
 11
-0.0632477
 21
-0.494156
  0
LINE
  8
0
 10
-0.0632477
 20
-0.494156
 11
-0.0610962
 21
-0.491547
  0
LINE
  8
0
 10
-0.0610962
 20
-0.491547
 11
-0.0588226
 21
-0.489029
  0
LINE
  8
0
 10
-0.0588226
 20
-0.489029
 11
-0.0564575
 21
-0.486618
  0
LINE
  8
0
 10
-0.0564575
 20
-0.486618
 11
-0.0540009
 21
-0.484299
  0
LINE
  8
0
 10
-0.0540009
 20
-0.484299
 11
-0.0514374
 21
-0.482101
  0
LINE
  8
0
 10
-0.0514374
 20
-0.482101
 11
-0.0487823
 21
-0.479996
  0
LINE
  8
0
 10
-0.0487823
 20
-0.479996
 11
-0.046051
 21
-0.478012
  0
LINE
  8
0
 10
-0.046051
 20
-0.478012
 11
-0.0432434
 21
-0.476135
  0
LINE
  8
0
 10
-0.0432434
 20
-0.476135
 11
-0.0403442
 21
-0.47438
  0
LINE
  8
0
 10
-0.0403442
 20
-0.47438
 11
-0.037384
 21
-0.472763
  0
LINE
  8
0
 10
-0.037384
 20
-0.472763
 11
-0.0343628
 21
-0.471252
  0
LINE
  8
0
 10
-0.0343628
 20
-0.471252
 11
-0.0312653
 21
-0.469879
  0
LINE
  8
0
 10
-0.0312653
 20
-0.469879
 11
-0.0281219
 21
-0.468643
  0
LINE
  8
0
 10
-0.0281219
 20
-0.468643
 11
-0.0249329
 21
-0.467529
  0
LINE
  8
0
 10
-0.0249329
 20
-0.467529
 11
-0.021698
 21
-0.466553
  0
LINE
  8
0
 10
-0.021698
 20
-0.466553
 11
-0.0184174
 21
-0.465714
  0
LINE
  8
0
 10
-0.0184174
 20
-0.465714
 11
-0.0151215
 21
-0.465012
  0
LINE
  8
0
 10
-0.0151215
 20
-0.465012
 11
-0.0117798
 21
-0.464447
  0
LINE
  8
0
 10
-0.0117798
 20
-0.464447
 11
-0.00842285
 21
-0.46402
  0
LINE
  8
0
 10
-0.00842285
 20
-0.46402
 11
-0.00506592
 21
-0.46373
  0
LINE
  8
0
 10
-0.00506592
 20
-0.46373
 11
-0.00167847
 21
-0.463593
  0
LINE
  8
0
 10
-0.00167847
 20
-0.463593
 11
0.00167847
 21
-0.463593
  0
LINE
  8
0
 10
0.00167847
 20
-0.463593
 11
0.00506592
 21
-0.46373
  0
LINE
  8
0
 10
0.00506592
 20
-0.46373
 11
0.00842285
 21
-0.46402
  0
LINE
  8
0
 10
0.00842285
 20
-0.46402
 11
0.0117798
 21
-0.464447
  0
LINE
  8
0
 10
0.0117798
 20
-0.464447
 11
0.0151215
 21
-0.465012
  0
LINE
  8
0
 10
0.0151215
 20
-0.465012
 11
0.0184174
 21
-0.465714
  0
LINE
  8
0
 10
0.0184174
 20
-0.465714
 11
0.021698
 21
-0.466553
  0
LINE
  8
0
 10
0.021698
 20
-0.466553
 11
0.0249329
 21
-0.467529
  0
LINE
  8
0
 10
0.0249329
 20
-0.467529
 11
0.0281219
 21
-0.468643
  0
LINE
  8
0
 10
0.0281219
 20
-0.468643
 11
0.0312653
 21
-0.469879
  0
LINE
  8
0
 10
0.0312653
 20
-0.469879
 11
0.0343628
 21
-0.471252
  0
LINE
  8
0
 10
0.0343628
 20
-0.471252
 11
0.037384
 21
-0.472763
  0
LINE
  8
0
 10
0.037384
 20
-0.472763
 11
0.0403442
 21
-0.47438
  0
LINE
  8
0
 10
0.0403442
 20
-0.47438
 11
0.0432434
 21
-0.476135
  0
LINE
  8
0
 10
0.0432434
 20
-0.476135
 11
0.046051
 21
-0.478012
  0
LINE
  8
0
 10
0.046051
 20
-0.478012
 11
0.0487823
 21
-0.479996
  0
LINE
  8
0
 10
0.0487823
 20
-0.479996
 11
0.0514374
 21
-0.482101
  0
LINE
  8
0
 10
0.0514374
 20
-0.482101
 11
0.0540009
 21
-0.484299
  0
LINE
  8
0
 10
0.0540009
 20
-0.484299
 11
0.0564575
 21
-0.486618
  0
LINE
  8
0
 10
0.0564575
 20
-0.486618
 11
0.0588226
 21
-0.489029
  0
LINE
  8
0
 10
0.0588226
 20
-0.489029
 11
0.0610962
 21
-0.491547
  0
LINE
  8
0
 10
0.0610962
 20
-0.491547
 11
0.0632477
 21
-0.494156
  0
LINE
  8
0
 10
0.0632477
 20
-0.494156
 11
0.0652924
 21
-0.496841
  0
LINE
  8
0
 10
0.0652924
 20
-0.496841
 11
0.067215
 21
-0.499619
  0
LINE
  8
0
 10
0.067215
 20
-0.499619
 11
0.0690308
 21
-0.502472
  0
LINE
  8
0
 10
0.0690308
 20
-0.502472
 11
0.0707245
 21
-0.505402
  0
LINE
  8
0
 10
0.0707245
 20
-0.505402
 11
0.0722809
 21
-0.508392
  0
LINE
  8
0
 10
0.0722809
 20
-0.508392
 11
0.0737305
 21
-0.511459
  0
LINE
  8
0
 10
0.0737305
 20
-0.511459
 11
0.0750275
 21
-0.514572
  0
LINE
  8
0
 10
0.0750275
 20
-0.514572
 11
0.0762177
 21
-0.517746
  0
LINE
  8
0
 10
0.0762177
 20
-0.517746
 11
0.0772552
 21
-0.52095
  0
LINE
  8
0
 10
0.0772552
 20
-0.52095
 11
0.0781708
 21
-0.524216
  0
LINE
  8
0
 10
0.0781708
 20
-0.524216
 11
0.0789337
 21
-0.527496
  0
LINE
  8
0
 10
0.0789337
 20
-0.527496
 11
0.0795746
 21
-0.530823
  0
LINE
  8
0
 10
0.0795746
 20
-0.530823
 11
0.0800629
 21
-0.534164
  0
LINE
  8
0
 10
0.0800629
 20
-0.534164
 11
0.0804138
 21
-0.537537
  0
LINE
  8
0
 10
0.0804138
 20
-0.537537
 11
0.0806274
 21
-0.540909
  0
LINE
  8
0
 10
0.0806274
 20
-0.540909
 11
0.0807037
 21
-0.544281
  0
LINE
  8
0
 10
0.0807037
 20
-0.544281
 11
0.0806274
 21
-0.547668
  0
LINE
  8
0
 10
0.0806274
 20
-0.547668
 11
0.0804138
 21
-0.551041
  0
LINE
  8
0
 10
0.0804138
 20
-0.551041
 11
0.0800629
 21
-0.554398
  0
LINE
  8
0
 10
0.0800629
 20
-0.554398
 11
0.0795746
 21
-0.557739
  0
LINE
  8
0
 10
0.0795746
 20
-0.557739
 11
0.0789337
 21
-0.561066
  0
LINE
  8
0
 10
0.0789337
 20
-0.561066
 11
0.0781708
 21
-0.564362
  0
LINE
  8
0
 10
0.0781708
 20
-0.564362
 11
0.0772552
 21
-0.567612
  0
LINE
  8
0
 10
0.0772552
 20
-0.567612
 11
0.0762177
 21
-0.570831
  0
LINE
  8
0
 10
0.0762177
 20
-0.570831
 11
0.0750275
 21
-0.57399
  0
LINE
  8
0
 10
0.0750275
 20
-0.57399
 11
0.0737305
 21
-0.577118
  0
LINE
  8
0
 10
0.0737305
 20
-0.577118
 11
0.0722809
 21
-0.58017
  0
LINE
  8
0
 10
0.0722809
 20
-0.58017
 11
0.0707245
 21
-0.58316
  0
LINE
  8
0
 10
0.0707245
 20
-0.58316
 11
0.0690308
 21
-0.58609
  0
LINE
  8
0
 10
0.0690308
 20
-0.58609
 11
0.067215
 21
-0.588943
  0
LINE
  8
0
 10
0.067215
 20
-0.588943
 11
0.0652924
 21
-0.591721
  0
LINE
  8
0
 10
0.0652924
 20
-0.591721
 11
0.0632477
 21
-0.594421
  0
LINE
  8
0
 10
0.0632477
 20
-0.594421
 11
0.0610962
 21
-0.597015
  0
LINE
  8
0
 10
0.0610962
 20
-0.597015
 11
0.0588226
 21
-0.599533
  0
LINE
  8
0
 10
0.0588226
 20
-0.599533
 11
0.0564575
 21
-0.601944
  0
LINE
  8
0
 10
0.0564575
 20
-0.601944
 11
0.0540009
 21
-0.604263
  0
LINE
  8
0
 10
0.0540009
 20
-0.604263
 11
0.0514374
 21
-0.606476
  0
LINE
  8
0
 10
0.0514374
 20
-0.606476
 11
0.0487823
 21
-0.608566
  0
LINE
  8
0
 10
0.0487823
 20
-0.608566
 11
0.046051
 21
-0.610565
  0
LINE
  8
0
 10
0.046051
 20
-0.610565
 11
0.0432434
 21
-0.612427
  0
LINE
  8
0
 10
0.0432434
 20
-0.612427
 11
0.0403442
 21
-0.614182
  0
LINE
  8
0
 10
0.0403442
 20
-0.614182
 11
0.037384
 21
-0.615814
  0
LINE
  8
0
 10
0.037384
 20
-0.615814
 11
0.0343628
 21
-0.61731
  0
LINE
  8
0
 10
0.0343628
 20
-0.61731
 11
0.0312653
 21
-0.618683
  0
LINE
  8
0
 10
0.0312653
 20
-0.618683
 11
0.0281219
 21
-0.619934
  0
LINE
  8
0
 10
0.0281219
 20
-0.619934
 11
0.0249329
 21
-0.621048
  0
LINE
  8
0
 10
0.0249329
 20
-0.621048
 11
0.021698
 21
-0.622025
  0
LINE
  8
0
 10
0.021698
 20
-0.622025
 11
0.0184174
 21
-0.622864
  0
LINE
  8
0
 10
0.0184174
 20
-0.622864
 11
0.0151215
 21
-0.623566
  0
LINE
  8
0
 10
0.0151215
 20
-0.623566
 11
0.0117798
 21
-0.62413
  0
LINE
  8
0
 10
0.0117798
 20
-0.62413
 11
0.00842285
 21
-0.624557
  0
LINE
  8
0
 10
0.00842285
 20
-0.624557
 11
0.00506592
 21
-0.624832
  0
LINE
  8
0
 10
0.00506592
 20
-0.624832
 11
0.00167847
 21
-0.624969
  0
LINE
  8
0
 10
0.00167847
 20
-0.624969
 11
-0.00167847
 21
-0.624969
  0
LINE
  8
0
 10
1.69661
 20
-0.710556
 11
1.69324
 21
-0.710342
  0
LINE
  8
0
 10
1.69324
 20
-0.710342
 11
1.68988
 21
-0.709991
  0
LINE
  8
0
 10
1.68988
 20
-0.709991
 11
1.68654
 21
-0.709488
  0
LINE
  8
0
 10
1.68654
 20
-0.709488
 11
1.68321
 21
-0.708862
  0
LINE
  8
0
 10
1.68321
 20
-0.708862
 11
1.67992
 21
-0.708084
  0
LINE
  8
0
 10
1.67992
 20
-0.708084
 11
1.67667
 21
-0.707184
  0
LINE
  8
0
 10
1.67667
 20
-0.707184
 11
1.67345
 21
-0.706131
  0
LINE
  8
0
 10
1.67345
 20
-0.706131
 11
1.67029
 21
-0.704956
  0
LINE
  8
0
 10
1.67029
 20
-0.704956
 11
1.66716
 21
-0.703644
  0
LINE
  8
0
 10
1.66716
 20
-0.703644
 11
1.66411
 21
-0.702209
  0
LINE
  8
0
 10
1.66411
 20
-0.702209
 11
1.66112
 21
-0.700638
  0
LINE
  8
0
 10
1.66112
 20
-0.700638
 11
1.65819
 21
-0.698944
  0
LINE
  8
0
 10
1.65819
 20
-0.698944
 11
1.65533
 21
-0.697144
  0
LINE
  8
0
 10
1.65533
 20
-0.697144
 11
1.65256
 21
-0.695206
  0
LINE
  8
0
 10
1.65256
 20
-0.695206
 11
1.64986
 21
-0.693161
  0
LINE
  8
0
 10
1.64986
 20
-0.693161
 11
1.64726
 21
-0.69101
  0
LINE
  8
0
 10
1.64726
 20
-0.69101
 11
1.64474
 21
-0.688751
  0
LINE
  8
0
 10
1.64474
 20
-0.688751
 11
1.64233
 21
-0.686386
  0
LINE
  8
0
 10
1.64233
 20
-0.686386
 11
1.64001
 21
-0.683914
  0
LINE
  8
0
 10
1.64001
 20
-0.683914
 11
1.6378
 21
-0.681366
  0
LINE
  8
0
 10
1.6378
 20
-0.681366
 11
1.63571
 21
-0.678711
  0
LINE
  8
0
 10
1.63571
 20
-0.678711
 11
1.63371
 21
-0.67598
  0
LINE
  8
0
 10
1.63371
 20
-0.67598
 11
1.63185
 21
-0.673157
  0
LINE
  8
0
 10
1.63185
 20
-0.673157
 11
1.6301
 21
-0.670273
  0
LINE
  8
0
 10
1.6301
 20
-0.670273
 11
1.62846
 21
-0.667313
  0
LINE
  8
0
 10
1.62846
 20
-0.667313
 11
1.62697
 21
-0.664276
  0
LINE
  8
0
 10
1.62697
 20
-0.664276
 11
1.6256
 21
-0.661194
  0
LINE
  8
0
 10
1.6256
 20
-0.661194
 11
1.62434
 21
-0.658051
  0
LINE
  8
0
 10
1.62434
 20
-0.658051
 11
1.62323
 21
-0.654861
  0
LINE
  8
0
 10
1.62323
 20
-0.654861
 11
1.62225
 21
-0.651611
  0
LINE
  8
0
 10
1.62225
 20
-0.651611
 11
1.62141
 21
-0.648346
  0
LINE
  8
0
 10
1.62141
 20
-0.648346
 11
1.62071
 21
-0.645035
  0
LINE
  8
0
 10
1.62071
 20
-0.645035
 11
1.62015
 21
-0.641708
  0
LINE
  8
0
 10
1.62015
 20
-0.641708
 11
1.61972
 21
-0.638351
  0
LINE
  8
0
 10
1.61972
 20
-0.638351
 11
1.61945
 21
-0.634979
  0
LINE
  8
0
 10
1.61945
 20
-0.634979
 11
1.61931
 21
-0.631607
  0
LINE
  8
0
 10
1.61931
 20
-0.631607
 11
1.61931
 21
-0.62822
  0
LINE
  8
0
 10
1.61931
 20
-0.62822
 11
1.61945
 21
-0.624847
  0
LINE
  8
0
 10
1.61945
 20
-0.624847
 11
1.61972
 21
-0.621475
  0
LINE
  8
0
 10
1.61972
 20
-0.621475
 11
1.62015
 21
-0.618118
  0
LINE
  8
0
 10
1.62015
 20
-0.618118
 11
1.62071
 21
-0.614792
  0
LINE
  8
0
 10
1.62071
 20
-0.614792
 11
1.62141
 21
-0.611481
  0
LINE
  8
0
 10
1.62141
 20
-0.611481
 11
1.62225
 21
-0.608215
  0
LINE
  8
0
 10
1.62225
 20
-0.608215
 11
1.62323
 21
-0.60498
  0
LINE
  8
0
 10
1.62323
 20
-0.60498
 11
1.62434
 21
-0.601776
  0
LINE
  8
0
 10
1.62434
 20
-0.601776
 11
1.6256
 21
-0.598633
  0
LINE
  8
0
 10
1.6256
 20
-0.598633
 11
1.62697
 21
-0.595551
  0
LINE
  8
0
 10
1.62697
 20
-0.595551
 11
1.62846
 21
-0.592529
  0
LINE
  8
0
 10
1.62846
 20
-0.592529
 11
1.6301
 21
-0.589554
  0
LINE
  8
0
 10
1.6301
 20
-0.589554
 11
1.63185
 21
-0.58667
  0
LINE
  8
0
 10
1.63185
 20
-0.58667
 11
1.63371
 21
-0.583847
  0
LINE
  8
0
 10
1.63371
 20
-0.583847
 11
1.63571
 21
-0.581116
  0
LINE
  8
0
 10
1.63571
 20
-0.581116
 11
1.6378
 21
-0.578461
  0
LINE
  8
0
 10
1.6378
 20
-0.578461
 11
1.64001
 21
-0.575912
  0
LINE
  8
0
 10
1.64001
 20
-0.575912
 11
1.64233
 21
-0.573441
  0
LINE
  8
0
 10
1.64233
 20
-0.573441
 11
1.64474
 21
-0.571075
  0
LINE
  8
0
 10
1.64474
 20
-0.571075
 11
1.64726
 21
-0.568817
  0
LINE
  8
0
 10
1.64726
 20
-0.568817
 11
1.64986
 21
-0.566666
  0
LINE
  8
0
 10
1.64986
 20
-0.566666
 11
1.65256
 21
-0.564621
  0
LINE
  8
0
 10
1.65256
 20
-0.564621
 11
1.65533
 21
-0.562683
  0
LINE
  8
0
 10
1.65533
 20
-0.562683
 11
1.65819
 21
-0.560883
  0
LINE
  8
0
 10
1.65819
 20
-0.560883
 11
1.66112
 21
-0.559189
  0
LINE
  8
0
 10
1.66112
 20
-0.559189
 11
1.66411
 21
-0.557617
  0
LINE
  8
0
 10
1.66411
 20
-0.557617
 11
1.66716
 21
-0.556183
  0
LINE
  8
0
 10
1.66716
 20
-0.556183
 11
1.67029
 21
-0.554871
  0
LINE
  8
0
 10
1.67029
 20
-0.554871
 11
1.67345
 21
-0.553696
  0
LINE
  8
0
 10
1.67345
 20
-0.553696
 11
1.67667
 21
-0.552643
  0
LINE
  8
0
 10
1.67667
 20
-0.552643
 11
1.67992
 21
-0.551743
  0
LINE
  8
0
 10
1.67992
 20
-0.551743
 11
1.68321
 21
-0.550964
  0
LINE
  8
0
 10
1.68321
 20
-0.550964
 11
1.68654
 21
-0.550339
  0
LINE
  8
0
 10
1.68654
 20
-0.550339
 11
1.68988
 21
-0.549835
  0
LINE
  8
0
 10
1.68988
 20
-0.549835
 11
1.69324
 21
-0.549484
  0
LINE
  8
0
 10
1.69324
 20
-0.549484
 11
1.69661
 21
-0.549271
  0
LINE
  8
0
 10
1.69661
 20
-0.549271
 11
1.7
 21
-0.54921
  0
LINE
  8
0
 10
1.7
 20
-0.54921
 11
1.70337
 21
-0.549271
  0
LINE
  8
0
 10
1.70337
 20
-0.549271
 11
1.70674
 21
-0.549484
  0
LINE
  8
0
 10
1.70674
 20
-0.549484
 11
1.71011
 21
-0.549835
  0
LINE
  8
0
 10
1.71011
 20
-0.549835
 11
1.71346
 21
-0.550339
  0
LINE
  8
0
 10
1.71346
 20
-0.550339
 11
1.71677
 21
-0.550964
  0
LINE
  8
0
 10
1.71677
 20
-0.550964
 11
1.72006
 21
-0.551743
  0
LINE
  8
0
 10
1.72006
 20
-0.551743
 11
1.72331
 21
-0.552643
  0
LINE
  8
0
 10
1.72331
 20
-0.552643
 11
1.72653
 21
-0.553696
  0
LINE
  8
0
 10
1.72653
 20
-0.553696
 11
1.72971
 21
-0.554871
  0
LINE
  8
0
 10
1.72971
 20
-0.554871
 11
1.73282
 21
-0.556183
  0
LINE
  8
0
 10
1.73282
 20
-0.556183
 11
1.73589
 21
-0.557617
  0
LINE
  8
0
 10
1.73589
 20
-0.557617
 11
1.73888
 21
-0.559189
  0
LINE
  8
0
 10
1.73888
 20
-0.559189
 11
1.74181
 21
-0.560883
  0
LINE
  8
0
 10
1.74181
 20
-0.560883
 11
1.74466
 21
-0.562683
  0
LINE
  8
0
 10
1.74466
 20
-0.562683
 11
1.74744
 21
-0.564621
  0
LINE
  8
0
 10
1.74744
 20
-0.564621
 11
1.75012
 21
-0.566666
  0
LINE
  8
0
 10
1.75012
 20
-0.566666
 11
1.75273
 21
-0.568817
  0
LINE
  8
0
 10
1.75273
 20
-0.568817
 11
1.75523
 21
-0.571075
  0
LINE
  8
0
 10
1.75523
 20
-0.571075
 11
1.75766
 21
-0.573441
  0
LINE
  8
0
 10
1.75766
 20
-0.573441
 11
1.75996
 21
-0.575912
  0
LINE
  8
0
 10
1.75996
 20
-0.575912
 11
1.76218
 21
-0.578461
  0
LINE
  8
0
 10
1.76218
 20
-0.578461
 11
1.76428
 21
-0.581116
  0
LINE
  8
0
 10
1.76428
 20
-0.581116
 11
1.76627
 21
-0.583847
  0
LINE
  8
0
 10
1.76627
 20
-0.583847
 11
1.76814
 21
-0.58667
  0
LINE
  8
0
 10
1.76814
 20
-0.58667
 11
1.76988
 21
-0.589554
  0
LINE
  8
0
 10
1.76988
 20
-0.589554
 11
1.77151
 21
-0.592529
  0
LINE
  8
0
 10
1.77151
 20
-0.592529
 11
1.77303
 21
-0.595551
  0
LINE
  8
0
 10
1.77303
 20
-0.595551
 11
1.7744
 21
-0.598633
  0
LINE
  8
0
 10
1.7744
 20
-0.598633
 11
1.77563
 21
-0.601776
  0
LINE
  8
0
 10
1.77563
 20
-0.601776
 11
1.77675
 21
-0.60498
  0
LINE
  8
0
 10
1.77675
 20
-0.60498
 11
1.77773
 21
-0.608215
  0
LINE
  8
0
 10
1.77773
 20
-0.608215
 11
1.77856
 21
-0.611481
  0
LINE
  8
0
 10
1.77856
 20
-0.611481
 11
1.77927
 21
-0.614792
  0
LINE
  8
0
 10
1.77927
 20
-0.614792
 11
1.77983
 21
-0.618118
  0
LINE
  8
0
 10
1.77983
 20
-0.618118
 11
1.78026
 21
-0.621475
  0
LINE
  8
0
 10
1.78026
 20
-0.621475
 11
1.78055
 21
-0.624847
  0
LINE
  8
0
 10
1.78055
 20
-0.624847
 11
1.78069
 21
-0.62822
  0
LINE
  8
0
 10
1.78069
 20
-0.62822
 11
1.78069
 21
-0.631607
  0
LINE
  8
0
 10
1.78069
 20
-0.631607
 11
1.78055
 21
-0.634979
  0
LINE
  8
0
 10
1.78055
 20
-0.634979
 11
1.78026
 21
-0.638351
  0
LINE
  8
0
 10
1.78026
 20
-0.638351
 11
1.77983
 21
-0.641708
  0
LINE
  8
0
 10
1.77983
 20
-0.641708
 11
1.77927
 21
-0.645035
  0
LINE
  8
0
 10
1.77927
 20
-0.645035
 11
1.77856
 21
-0.648346
  0
LINE
  8
0
 10
1.77856
 20
-0.648346
 11
1.77773
 21
-0.651611
  0
LINE
  8
0
 10
1.77773
 20
-0.651611
 11
1.77675
 21
-0.654861
  0
LINE
  8
0
 10
1.77675
 20
-0.654861
 11
1.77563
 21
-0.658051
  0
LINE
  8
0
 10
1.77563
 20
-0.658051
 11
1.7744
 21
-0.661194
  0
LINE
  8
0
 10
1.7744
 20
-0.661194
 11
1.77303
 21
-0.664276
  0
LINE
  8
0
 10
1.77303
 20
-0.664276
 11
1.77151
 21
-0.667313
  0
LINE
  8
0
 10
1.77151
 20
-0.667313
 11
1.76988
 21
-0.670273
  0
LINE
  8
0
 10
1.76988
 20
-0.670273
 11
1.76814
 21
-0.673157
  0
LINE
  8
0
 10
1.76814
 20
-0.673157
 11
1.76627
 21
-0.67598
  0
LINE
  8
0
 10
1.76627
 20
-0.67598
 11
1.76428
 21
-0.678711
  0
LINE
  8
0
 10
1.76428
 20
-0.678711
 11
1.76218
 21
-0.681366
  0
LINE
  8
0
 10
1.76218
 20
-0.681366
 11
1.75996
 21
-0.683914
  0
LINE
  8
0
 10
1.75996
 20
-0.683914
 11
1.75766
 21
-0.686386
  0
LINE
  8
0
 10
1.75766
 20
-0.686386
 11
1.75523
 21
-0.688751
  0
LINE
  8
0
 10
1.75523
 20
-0.688751
 11
1.75273
 21
-0.69101
  0
LINE
  8
0
 10
1.75273
 20
-0.69101
 11
1.75012
 21
-0.693161
  0
LINE
  8
0
 10
1.75012
 20
-0.693161
 11
1.74744
 21
-0.695206
  0
LINE
  8
0
 10
1.74744
 20
-0.695206
 11
1.74466
 21
-0.697144
  0
LINE
  8
0
 10
1.74466
 20
-0.697144
 11
1.74181
 21
-0.698944
  0
LINE
  8
0
 10
1.74181
 20
-0.698944
 11
1.73888
 21
-0.700638
  0
LINE
  8
0
 10
1.73888
 20
-0.700638
 11
1.73589
 21
-0.702209
  0
LINE
  8
0
 10
1.73589
 20
-0.702209
 11
1.73282
 21
-0.703644
  0
LINE
  8
0
 10
1.73282
 20
-0.703644
 11
1.72971
 21
-0.704956
  0
LINE
  8
0
 10
1.72971
 20
-0.704956
 11
1.72653
 21
-0.706131
  0
LINE
  8
0
 10
1.72653
 20
-0.706131
 11
1.72331
 21
-0.707184
  0
LINE
  8
0
 10
1.72331
 20
-0.707184
 11
1.72006
 21
-0.708084
  0
LINE
  8
0
 10
1.72006
 20
-0.708084
 11
1.71677
 21
-0.708862
  0
LINE
  8
0
 10
1.71677
 20
-0.708862
 11
1.71346
 21
-0.709488
  0
LINE
  8
0
 10
1.71346
 20
-0.709488
 11
1.71011
 21
-0.709991
  0
LINE
  8
0
 10
1.71011
 20
-0.709991
 11
1.70674
 21
-0.710342
  0
LINE
  8
0
 10
1.70674
 20
-0.710342
 11
1.70337
 21
-0.710556
  0
LINE
  8
0
 10
1.70337
 20
-0.710556
 11
1.7
 21
-0.710617
  0
LINE
  8
0
 10
1.7
 20
-0.710617
 11
1.69661
 21
-0.710556
  0
LINE
  8
0
 10
-1.70337
 20
-0.710556
 11
-1.70674
 21
-0.710342
  0
LINE
  8
0
 10
-1.70674
 20
-0.710342
 11
-1.71011
 21
-0.709991
  0
LINE
  8
0
 10
-1.71011
 20
-0.709991
 11
-1.71346
 21
-0.709488
  0
LINE
  8
0
 10
-1.71346
 20
-0.709488
 11
-1.71677
 21
-0.708862
  0
LINE
  8
0
 10
-1.71677
 20
-0.708862
 11
-1.72006
 21
-0.708084
  0
LINE
  8
0
 10
-1.72006
 20
-0.708084
 11
-1.72331
 21
-0.707184
  0
LINE
  8
0
 10
-1.72331
 20
-0.707184
 11
-1.72653
 21
-0.706131
  0
LINE
  8
0
 10
-1.72653
 20
-0.706131
 11
-1.72971
 21
-0.704956
  0
LINE
  8
0
 10
-1.72971
 20
-0.704956
 11
-1.73282
 21
-0.703644
  0
LINE
  8
0
 10
-1.73282
 20
-0.703644
 11
-1.73589
 21
-0.702209
  0
LINE
  8
0
 10
-1.73589
 20
-0.702209
 11
-1.73888
 21
-0.700638
  0
LINE
  8
0
 10
-1.73888
 20
-0.700638
 11
-1.74181
 21
-0.698944
  0
LINE
  8
0
 10
-1.74181
 20
-0.698944
 11
-1.74466
 21
-0.697144
  0
LINE
  8
0
 10
-1.74466
 20
-0.697144
 11
-1.74744
 21
-0.695206
  0
LINE
  8
0
 10
-1.74744
 20
-0.695206
 11
-1.75012
 21
-0.693161
  0
LINE
  8
0
 10
-1.75012
 20
-0.693161
 11
-1.75273
 21
-0.69101
  0
LINE
  8
0
 10
-1.75273
 20
-0.69101
 11
-1.75523
 21
-0.688751
  0
LINE
  8
0
 10
-1.75523
 20
-0.688751
 11
-1.75766
 21
-0.686386
  0
LINE
  8
0
 10
-1.75766
 20
-0.686386
 11
-1.75996
 21
-0.683914
  0
LINE
  8
0
 10
-1.75996
 20
-0.683914
 11
-1.76218
 21
-0.681366
  0
LINE
  8
0
 10
-1.76218
 20
-0.681366
 11
-1.76428
 21
-0.678711
  0
LINE
  8
0
 10
-1.76428
 20
-0.678711
 11
-1.76627
 21
-0.67598
  0
LINE
  8
0
 10
-1.76627
 20
-0.67598
 11
-1.76814
 21
-0.673157
  0
LINE
  8
0
 10
-1.76814
 20
-0.673157
 11
-1.76988
 21
-0.670273
  0
LINE
  8
0
 10
-1.76988
 20
-0.670273
 11
-1.77151
 21
-0.667313
  0
LINE
  8
0
 10
-1.77151
 20
-0.667313
 11
-1.77303
 21
-0.664276
  0
LINE
  8
0
 10
-1.77303
 20
-0.664276
 11
-1.7744
 21
-0.661194
  0
LINE
  8
0
 10
-1.7744
 20
-0.661194
 11
-1.77563
 21
-0.658051
  0
LINE
  8
0
 10
-1.77563
 20
-0.658051
 11
-1.77675
 21
-0.654861
  0
LINE
  8
0
 10
-1.77675
 20
-0.654861
 11
-1.77773
 21
-0.651611
  0
LINE
  8
0
 10
-1.77773
 20
-0.651611
 11
-1.77856
 21
-0.648346
  0
LINE
  8
0
 10
-1.77856
 20
-0.648346
 11
-1.77927
 21
-0.645035
  0
LINE
  8
0
 10
-1.77927
 20
-0.645035
 11
-1.77983
 21
-0.641708
  0
LINE
  8
0
 10
-1.77983
 20
-0.641708
 11
-1.78026
 21
-0.638351
  0
LINE
  8
0
 10
-1.78026
 20
-0.638351
 11
-1.78055
 21
-0.634979
  0
LINE
  8
0
 10
-1.78055
 20
-0.634979
 11
-1.78069
 21
-0.631607
  0
LINE
  8
0
 10
-1.78069
 20
-0.631607
 11
-1.78069
 21
-0.62822
  0
LINE
  8
0
 10
-1.78069
 20
-0.62822
 11
-1.78055
 21
-0.624847
  0
LINE
  8
0
 10
-1.78055
 20
-0.624847
 11
-1.78026
 21
-0.621475
  0
LINE
  8
0
 10
-1.78026
 20
-0.621475
 11
-1.77983
 21
-0.618118
  0
LINE
  8
0
 10
-1.77983
 20
-0.618118
 11
-1.77927
 21
-0.614792
  0
LINE
  8
0
 10
-1.77927
 20
-0.614792
 11
-1.77856
 21
-0.611481
  0
LINE
  8
0
 10
-1.77856
 20
-0.611481
 11
-1.77773
 21
-0.608215
  0
LINE
  8
0
 10
-1.77773
 20
-0.608215
 11
-1.77675
 21
-0.60498
  0
LINE
  8
0
 10
-1.77675
 20
-0.60498
 11
-1.77563
 21
-0.601776
  0
LINE
  8
0
 10
-1.77563
 20
-0.601776
 11
-1.7744
 21
-0.598633
  0
LINE
  8
0
 10
-1.7744
 20
-0.598633
 11
-1.77303
 21
-0.595551
  0
LINE
  8
0
 10
-1.77303
 20
-0.595551
 11
-1.77151
 21
-0.592529
  0
LINE
  8
0
 10
-1.77151
 20
-0.592529
 11
-1.76988
 21
-0.589554
  0
LINE
  8
0
 10
-1.76988
 20
-0.589554
 11
-1.76814
 21
-0.58667
  0
LINE
  8
0
 10
-1.76814
 20
-0.58667
 11
-1.76627
 21
-0.583847
  0
LINE
  8
0
 10
-1.76627
 20
-0.583847
 11
-1.76428
 21
-0.581116
  0
LINE
  8
0
 10
-1.76428
 20
-0.581116
 11
-1.76218
 21
-0.578461
  0
LINE
  8
0
 10
-1.76218
 20
-0.578461
 11
-1.75996
 21
-0.575912
  0
LINE
  8
0
 10
-1.75996
 20
-0.575912
 11
-1.75766
 21
-0.573441
  0
LINE
  8
0
 10
-1.75766
 20
-0.573441
 11
-1.75523
 21
-0.571075
  0
LINE
  8
0
 10
-1.75523
 20
-0.571075
 11
-1.75273
 21
-0.568817
  0
LINE
  8
0
 10
-1.75273
 20
-0.568817
 11
-1.75012
 21
-0.566666
  0
LINE
  8
0
 10
-1.75012
 20
-0.566666
 11
-1.74744
 21
-0.564621
  0
LINE
  8
0
 10
-1.74744
 20
-0.564621
 11
-1.74466
 21
-0.562683
  0
LINE
  8
0
 10
-1.74466
 20
-0.562683
 11
-1.74181
 21
-0.560883
  0
LINE
  8
0
 10
-1.74181
 20
-0.560883
 11
-1.73888
 21
-0.559189
  0
LINE
  8
0
 10
-1.73888
 20
-0.559189
 11
-1.73589
 21
-0.557617
  0
LINE
  8
0
 10
-1.73589
 20
-0.557617
 11
-1.73282
 21
-0.556183
  0
LINE
  8
0
 10
-1.73282
 20
-0.556183
 11
-1.72971
 21
-0.554871
  0
LINE
  8
0
 10
-1.72971
 20
-0.554871
 11
-1.72653
 21
-0.553696
  0
LINE
  8
0
 10
-1.72653
 20
-0.553696
 11
-1.72331
 21
-0.552643
  0
LINE
  8
0
 10
-1.72331
 20
-0.552643
 11
-1.72006
 21
-0.551743
  0
LINE
  8
0
 10
-1.72006
 20
-0.551743
 11
-1.71677
 21
-0.550964
  0
LINE
  8
0
 10
-1.71677
 20
-0.550964
 11
-1.71346
 21
-0.550339
  0
LINE
  8
0
 10
-1.71346
 20
-0.550339
 11
-1.71011
 21
-0.549835
  0
LINE
  8
0
 10
-1.71011
 20
-0.549835
 11
-1.70674
 21
-0.549484
  0
LINE
  8
0
 10
-1.70674
 20
-0.549484
 11
-1.70337
 21
-0.549271
  0
LINE
  8
0
 10
-1.70337
 20
-0.549271
 11
-1.7
 21
-0.54921
  0
LINE
  8
0
 10
-1.7
 20
-0.54921
 11
-1.69661
 21
-0.549271
  0
LINE
  8
0
 10
-1.69661
 20
-0.549271
 11
-1.69324
 21
-0.549484
  0
LINE
  8
0
 10
-1.69324
 20
-0.549484
 11
-1.68988
 21
-0.549835
  0
LINE
  8
0
 10
-1.68988
 20
-0.549835
 11
-1.68654
 21
-0.550339
  0
LINE
  8
0
 10
-1.68654
 20
-0.550339
 11
-1.68321
 21
-0.550964
  0
LINE
  8
0
 10
-1.68321
 20
-0.550964
 11
-1.67992
 21
-0.551743
  0
LINE
  8
0
 10
-1.67992
 20
-0.551743
 11
-1.67667
 21
-0.552643
  0
LINE
  8
0
 10
-1.67667
 20
-0.552643
 11
-1.67345
 21
-0.553696
  0
LINE
  8
0
 10
-1.67345
 20
-0.553696
 11
-1.67029
 21
-0.554871
  0
LINE
  8
0
 10
-1.67029
 20
-0.554871
 11
-1.66716
 21
-0.556183
  0
LINE
  8
0
 10
-1.66716
 20
-0.556183
 11
-1.66411
 21
-0.557617
  0
LINE
  8
0
 10
-1.66411
 20
-0.557617
 11
-1.66112
 21
-0.559189
  0
LINE
  8
0
 10
-1.66112
 20
-0.559189
 11
-1.65819
 21
-0.560883
  0
LINE
  8
0
 10
-1.65819
 20
-0.560883
 11
-1.65533
 21
-0.562683
  0
LINE
  8
0
 10
-1.65533
 20
-0.562683
 11
-1.65256
 21
-0.564621
  0
LINE
  8
0
 10
-1.65256
 20
-0.564621
 11
-1.64986
 21
-0.566666
  0
LINE
  8
0
 10
-1.64986
 20
-0.566666
 11
-1.64726
 21
-0.568817
  0
LINE
  8
0
 10
-1.64726
 20
-0.568817
 11
-1.64474
 21
-0.571075
  0
LINE
  8
0
 10
-1.64474
 20
-0.571075
 11
-1.64233
 21
-0.573441
  0
LINE
  8
0
 10
-1.64233
 20
-0.573441
 11
-1.64001
 21
-0.575912
  0
LINE
  8
0
 10
-1.64001
 20
-0.575912
 11
-1.6378
 21
-0.578461
  0
LINE
  8
0
 10
-1.6378
 20
-0.578461
 11
-1.63571
 21
-0.581116
  0
LINE
  8
0
 10
-1.63571
 20
-0.581116
 11
-1.63371
 21
-0.583847
  0
LINE
  8
0
 10
-1.63371
 20
-0.583847
 11
-1.63185
 21
-0.58667
  0
LINE
  8
0
 10
-1.63185
 20
-0.58667
 11
-1.6301
 21
-0.589554
  0
LINE
  8
0
 10
-1.6301
 20
-0.589554
 11
-1.62846
 21
-0.592529
  0
LINE
  8
0
 10
-1.62846
 20
-0.592529
 11
-1.62697
 21
-0.595551
  0
LINE
  8
0
 10
-1.62697
 20
-0.595551
 11
-1.6256
 21
-0.598633
  0
LINE
  8
0
 10
-1.6256
 20
-0.598633
 11
-1.62434
 21
-0.601776
  0
LINE
  8
0
 10
-1.62434
 20
-0.601776
 11
-1.62323
 21
-0.60498
  0
LINE
  8
0
 10
-1.62323
 20
-0.60498
 11
-1.62225
 21
-0.608215
  0
LINE
  8
0
 10
-1.62225
 20
-0.608215
 11
-1.62141
 21
-0.611481
  0
LINE
  8
0
 10
-1.62141
 20
-0.611481
 11
-1.62071
 21
-0.614792
  0
LINE
  8
0
 10
-1.62071
 20
-0.614792
 11
-1.62015
 21
-0.618118
  0
LINE
  8
0
 10
-1.62015
 20
-0.618118
 11
-1.61972
 21
-0.621475
  0
LINE
  8
0
 10
-1.61972
 20
-0.621475
 11
-1.61945
 21
-0.624847
  0
LINE
  8
0
 10
-1.61945
 20
-0.624847
 11
-1.61931
 21
-0.62822
  0
LINE
  8
0
 10
-1.61931
 20
-0.62822
 11
-1.61931
 21
-0.631607
  0
LINE
  8
0
 10
-1.61931
 20
-0.631607
 11
-1.61945
 21
-0.634979
  0
LINE
  8
0
 10
-1.61945
 20
-0.634979
 11
-1.61972
 21
-0.638351
  0
LINE
  8
0
 10
-1.61972
 20
-0.638351
 11
-1.62015
 21
-0.641708
  0
LINE
  8
0
 10
-1.62015
 20
-0.641708
 11
-1.62071
 21
-0.645035
  0
LINE
  8
0
 10
-1.62071
 20
-0.645035
 11
-1.62141
 21
-0.648346
  0
LINE
  8
0
 10
-1.62141
 20
-0.648346
 11
-1.62225
 21
-0.651611
  0
LINE
  8
0
 10
-1.62225
 20
-0.651611
 11
-1.62323
 21
-0.654861
  0
LINE
  8
0
 10
-1.62323
 20
-0.654861
 11
-1.62434
 21
-0.658051
  0
LINE
  8
0
 10
-1.62434
 20
-0.658051
 11
-1.6256
 21
-0.661194
  0
LINE
  8
0
 10
-1.6256
 20
-0.661194
 11
-1.62697
 21
-0.664276
  0
LINE
  8
0
 10
-1.62697
 20
-0.664276
 11
-1.62846
 21
-0.667313
  0
LINE
  8
0
 10
-1.62846
 20
-0.667313
 11
-1.6301
 21
-0.670273
  0
LINE
  8
0
 10
-1.6301
 20
-0.670273
 11
-1.63185
 21
-0.673157
  0
LINE
  8
0
 10
-1.63185
 20
-0.673157
 11
-1.63371
 21
-0.67598
  0
LINE
  8
0
 10
-1.63371
 20
-0.67598
 11
-1.63571
 21
-0.678711
  0
LINE
  8
0
 10
-1.63571
 20
-0.678711
 11
-1.6378
 21
-0.681366
  0
LINE
  8
0
 10
-1.6378
 20
-0.681366
 11
-1.64001
 21
-0.683914
  0
LINE
  8
0
 10
-1.64001
 20
-0.683914
 11
-1.64233
 21
-0.686386
  0
LINE
  8
0
 10
-1.64233
 20
-0.686386
 11
-1.64474
 21
-0.688751
  0
LINE
  8
0
 10
-1.64474
 20
-0.688751
 11
-1.64726
 21
-0.69101
  0
LINE
  8
0
 10
-1.64726
 20
-0.69101
 11
-1.64986
 21
-0.693161
  0
LINE
  8
0
 10
-1.64986
 20
-0.693161
 11
-1.65256
 21
-0.695206
  0
LINE
  8
0
 10
-1.65256
 20
-0.695206
 11
-1.65533
 21
-0.697144
  0
LINE
  8
0
 10
-1.65533
 20
-0.697144
 11
-1.65819
 21
-0.698944
  0
LINE
  8
0
 10
-1.65819
 20
-0.698944
 11
-1.66112
 21
-0.700638
  0
LINE
  8
0
 10
-1.66112
 20
-0.700638
 11
-1.66411
 21
-0.702209
  0
LINE
  8
0
 10
-1.66411
 20
-0.702209
 11
-1.66716
 21
-0.703644
  0
LINE
  8
0
 10
-1.66716
 20
-0.703644
 11
-1.67029
 21
-0.704956
  0
LINE
  8
0
 10
-1.67029
 20
-0.704956
 11
-1.67345
 21
-0.706131
  0
LINE
  8
0
 10
-1.67345
 20
-0.706131
 11
-1.67667
 21
-0.707184
  0
LINE
  8
0
 10
-1.67667
 20
-0.707184
 11
-1.67992
 21
-0.708084
  0
LINE
  8
0
 10
-1.67992
 20
-0.708084
 11
-1.68321
 21
-0.708862
  0
LINE
  8
0
 10
-1.68321
 20
-0.708862
 11
-1.68654
 21
-0.709488
  0
LINE
  8
0
 10
-1.68654
 20
-0.709488
 11
-1.68988
 21
-0.709991
  0
LINE
  8
0
 10
-1.68988
 20
-0.709991
 11
-1.69324
 21
-0.710342
  0
LINE
  8
0
 10
-1.69324
 20
-0.710342
 11
-1.69661
 21
-0.710556
  0
LINE
  8
0
 10
-1.69661
 20
-0.710556
 11
-1.7
 21
-0.710617
  0
LINE
  8
0
 10
-1.7
 20
-0.710617
 11
-1.70337
 21
-0.710556
  0
LINE
  8
0
 10
-1.70337
 20
-1.34047
 11
-1.70674
 21
-1.34026
  0
LINE
  8
0
 10
-1.70674
 20
-1.34026
 11
-1.71011
 21
-1.3399
  0
LINE
  8
0
 10
-1.71011
 20
-1.3399
 11
-1.71346
 21
-1.33942
  0
LINE
  8
0
 10
-1.71346
 20
-1.33942
 11
-1.71677
 21
-1.33878
  0
LINE
  8
0
 10
-1.71677
 20
-1.33878
 11
-1.72006
 21
-1.33801
  0
LINE
  8
0
 10
-1.72006
 20
-1.33801
 11
-1.72331
 21
-1.3371
  0
LINE
  8
0
 10
-1.72331
 20
-1.3371
 11
-1.72653
 21
-1.33606
  0
LINE
  8
0
 10
-1.72653
 20
-1.33606
 11
-1.72971
 21
-1.33487
  0
LINE
  8
0
 10
-1.72971
 20
-1.33487
 11
-1.73282
 21
-1.33357
  0
LINE
  8
0
 10
-1.73282
 20
-1.33357
 11
-1.73589
 21
-1.33212
  0
LINE
  8
0
 10
-1.73589
 20
-1.33212
 11
-1.73888
 21
-1.33057
  0
LINE
  8
0
 10
-1.73888
 20
-1.33057
 11
-1.74181
 21
-1.32887
  0
LINE
  8
0
 10
-1.74181
 20
-1.32887
 11
-1.74466
 21
-1.32706
  0
LINE
  8
0
 10
-1.74466
 20
-1.32706
 11
-1.74744
 21
-1.32513
  0
LINE
  8
0
 10
-1.74744
 20
-1.32513
 11
-1.75012
 21
-1.32309
  0
LINE
  8
0
 10
-1.75012
 20
-1.32309
 11
-1.75273
 21
-1.32094
  0
LINE
  8
0
 10
-1.75273
 20
-1.32094
 11
-1.75523
 21
-1.31866
  0
LINE
  8
0
 10
-1.75523
 20
-1.31866
 11
-1.75766
 21
-1.3163
  0
LINE
  8
0
 10
-1.75766
 20
-1.3163
 11
-1.75996
 21
-1.31384
  0
LINE
  8
0
 10
-1.75996
 20
-1.31384
 11
-1.76218
 21
-1.31128
  0
LINE
  8
0
 10
-1.76218
 20
-1.31128
 11
-1.76428
 21
-1.30862
  0
LINE
  8
0
 10
-1.76428
 20
-1.30862
 11
-1.76627
 21
-1.30589
  0
LINE
  8
0
 10
-1.76627
 20
-1.30589
 11
-1.76814
 21
-1.30309
  0
LINE
  8
0
 10
-1.76814
 20
-1.30309
 11
-1.76988
 21
-1.30019
  0
LINE
  8
0
 10
-1.76988
 20
-1.30019
 11
-1.77151
 21
-1.29723
  0
LINE
  8
0
 10
-1.77151
 20
-1.29723
 11
-1.77303
 21
-1.2942
  0
LINE
  8
0
 10
-1.77303
 20
-1.2942
 11
-1.7744
 21
-1.29111
  0
LINE
  8
0
 10
-1.7744
 20
-1.29111
 11
-1.77563
 21
-1.28796
  0
LINE
  8
0
 10
-1.77563
 20
-1.28796
 11
-1.77675
 21
-1.28477
  0
LINE
  8
0
 10
-1.77675
 20
-1.28477
 11
-1.77773
 21
-1.28154
  0
LINE
  8
0
 10
-1.77773
 20
-1.28154
 11
-1.77856
 21
-1.27826
  0
LINE
  8
0
 10
-1.77856
 20
-1.27826
 11
-1.77927
 21
-1.27496
  0
LINE
  8
0
 10
-1.77927
 20
-1.27496
 11
-1.77983
 21
-1.27162
  0
LINE
  8
0
 10
-1.77983
 20
-1.27162
 11
-1.78026
 21
-1.26826
  0
LINE
  8
0
 10
-1.78026
 20
-1.26826
 11
-1.78055
 21
-1.26491
  0
LINE
  8
0
 10
-1.78055
 20
-1.26491
 11
-1.78069
 21
-1.26152
  0
LINE
  8
0
 10
-1.78069
 20
-1.26152
 11
-1.78069
 21
-1.25815
  0
LINE
  8
0
 10
-1.78069
 20
-1.25815
 11
-1.78055
 21
-1.25476
  0
LINE
  8
0
 10
-1.78055
 20
-1.25476
 11
-1.78026
 21
-1.2514
  0
LINE
  8
0
 10
-1.78026
 20
-1.2514
 11
-1.77983
 21
-1.24805
  0
LINE
  8
0
 10
-1.77983
 20
-1.24805
 11
-1.77927
 21
-1.24471
  0
LINE
  8
0
 10
-1.77927
 20
-1.24471
 11
-1.77856
 21
-1.24141
  0
LINE
  8
0
 10
-1.77856
 20
-1.24141
 11
-1.77773
 21
-1.23813
  0
LINE
  8
0
 10
-1.77773
 20
-1.23813
 11
-1.77675
 21
-1.23489
  0
LINE
  8
0
 10
-1.77675
 20
-1.23489
 11
-1.77563
 21
-1.2317
  0
LINE
  8
0
 10
-1.77563
 20
-1.2317
 11
-1.7744
 21
-1.22856
  0
LINE
  8
0
 10
-1.7744
 20
-1.22856
 11
-1.77303
 21
-1.22546
  0
LINE
  8
0
 10
-1.77303
 20
-1.22546
 11
-1.77151
 21
-1.22244
  0
LINE
  8
0
 10
-1.77151
 20
-1.22244
 11
-1.76988
 21
-1.21948
  0
LINE
  8
0
 10
-1.76988
 20
-1.21948
 11
-1.76814
 21
-1.21658
  0
LINE
  8
0
 10
-1.76814
 20
-1.21658
 11
-1.76627
 21
-1.21378
  0
LINE
  8
0
 10
-1.76627
 20
-1.21378
 11
-1.76428
 21
-1.21104
  0
LINE
  8
0
 10
-1.76428
 20
-1.21104
 11
-1.76218
 21
-1.20839
  0
LINE
  8
0
 10
-1.76218
 20
-1.20839
 11
-1.75996
 21
-1.20583
  0
LINE
  8
0
 10
-1.75996
 20
-1.20583
 11
-1.75766
 21
-1.20337
  0
LINE
  8
0
 10
-1.75766
 20
-1.20337
 11
-1.75523
 21
-1.201
  0
LINE
  8
0
 10
-1.75523
 20
-1.201
 11
-1.75273
 21
-1.19875
  0
LINE
  8
0
 10
-1.75273
 20
-1.19875
 11
-1.75012
 21
-1.19658
  0
LINE
  8
0
 10
-1.75012
 20
-1.19658
 11
-1.74744
 21
-1.19453
  0
LINE
  8
0
 10
-1.74744
 20
-1.19453
 11
-1.74466
 21
-1.19261
  0
LINE
  8
0
 10
-1.74466
 20
-1.19261
 11
-1.74181
 21
-1.1908
  0
LINE
  8
0
 10
-1.74181
 20
-1.1908
 11
-1.73888
 21
-1.1891
  0
LINE
  8
0
 10
-1.73888
 20
-1.1891
 11
-1.73589
 21
-1.18755
  0
LINE
  8
0
 10
-1.73589
 20
-1.18755
 11
-1.73282
 21
-1.18611
  0
LINE
  8
0
 10
-1.73282
 20
-1.18611
 11
-1.72971
 21
-1.1848
  0
LINE
  8
0
 10
-1.72971
 20
-1.1848
 11
-1.72653
 21
-1.18361
  0
LINE
  8
0
 10
-1.72653
 20
-1.18361
 11
-1.72331
 21
-1.18257
  0
LINE
  8
0
 10
-1.72331
 20
-1.18257
 11
-1.72006
 21
-1.18166
  0
LINE
  8
0
 10
-1.72006
 20
-1.18166
 11
-1.71677
 21
-1.18089
  0
LINE
  8
0
 10
-1.71677
 20
-1.18089
 11
-1.71346
 21
-1.18025
  0
LINE
  8
0
 10
-1.71346
 20
-1.18025
 11
-1.71011
 21
-1.17976
  0
LINE
  8
0
 10
-1.71011
 20
-1.17976
 11
-1.70674
 21
-1.17941
  0
LINE
  8
0
 10
-1.70674
 20
-1.17941
 11
-1.70337
 21
-1.1792
  0
LINE
  8
0
 10
-1.70337
 20
-1.1792
 11
-1.7
 21
-1.17912
  0
LINE
  8
0
 10
-1.7
 20
-1.17912
 11
-1.69661
 21
-1.1792
  0
LINE
  8
0
 10
-1.69661
 20
-1.1792
 11
-1.69324
 21
-1.17941
  0
LINE
  8
0
 10
-1.69324
 20
-1.17941
 11
-1.68988
 21
-1.17976
  0
LINE
  8
0
 10
-1.68988
 20
-1.17976
 11
-1.68654
 21
-1.18025
  0
LINE
  8
0
 10
-1.68654
 20
-1.18025
 11
-1.68321
 21
-1.18089
  0
LINE
  8
0
 10
-1.68321
 20
-1.18089
 11
-1.67992
 21
-1.18166
  0
LINE
  8
0
 10
-1.67992
 20
-1.18166
 11
-1.67667
 21
-1.18257
  0
LINE
  8
0
 10
-1.67667
 20
-1.18257
 11
-1.67345
 21
-1.18361
  0
LINE
  8
0
 10
-1.67345
 20
-1.18361
 11
-1.67029
 21
-1.1848
  0
LINE
  8
0
 10
-1.67029
 20
-1.1848
 11
-1.66716
 21
-1.18611
  0
LINE
  8
0
 10
-1.66716
 20
-1.18611
 11
-1.66411
 21
-1.18755
  0
LINE
  8
0
 10
-1.66411
 20
-1.18755
 11
-1.66112
 21
-1.1891
  0
LINE
  8
0
 10
-1.66112
 20
-1.1891
 11
-1.65819
 21
-1.1908
  0
LINE
  8
0
 10
-1.65819
 20
-1.1908
 11
-1.65533
 21
-1.19261
  0
LINE
  8
0
 10
-1.65533
 20
-1.19261
 11
-1.65256
 21
-1.19453
  0
LINE
  8
0
 10
-1.65256
 20
-1.19453
 11
-1.64986
 21
-1.19658
  0
LINE
  8
0
 10
-1.64986
 20
-1.19658
 11
-1.64726
 21
-1.19875
  0
LINE
  8
0
 10
-1.64726
 20
-1.19875
 11
-1.64474
 21
-1.201
  0
LINE
  8
0
 10
-1.64474
 20
-1.201
 11
-1.64233
 21
-1.20337
  0
LINE
  8
0
 10
-1.64233
 20
-1.20337
 11
-1.64001
 21
-1.20583
  0
LINE
  8
0
 10
-1.64001
 20
-1.20583
 11
-1.6378
 21
-1.20839
  0
LINE
  8
0
 10
-1.6378
 20
-1.20839
 11
-1.63571
 21
-1.21104
  0
LINE
  8
0
 10
-1.63571
 20
-1.21104
 11
-1.63371
 21
-1.21378
  0
LINE
  8
0
 10
-1.63371
 20
-1.21378
 11
-1.63185
 21
-1.21658
  0
LINE
  8
0
 10
-1.63185
 20
-1.21658
 11
-1.6301
 21
-1.21948
  0
LINE
  8
0
 10
-1.6301
 20
-1.21948
 11
-1.62846
 21
-1.22244
  0
LINE
  8
0
 10
-1.62846
 20
-1.22244
 11
-1.62697
 21
-1.22546
  0
LINE
  8
0
 10
-1.62697
 20
-1.22546
 11
-1.6256
 21
-1.22856
  0
LINE
  8
0
 10
-1.6256
 20
-1.22856
 11
-1.62434
 21
-1.2317
  0
LINE
  8
0
 10
-1.62434
 20
-1.2317
 11
-1.62323
 21
-1.23489
  0
LINE
  8
0
 10
-1.62323
 20
-1.23489
 11
-1.62225
 21
-1.23813
  0
LINE
  8
0
 10
-1.62225
 20
-1.23813
 11
-1.62141
 21
-1.24141
  0
LINE
  8
0
 10
-1.62141
 20
-1.24141
 11
-1.62071
 21
-1.24471
  0
LINE
  8
0
 10
-1.62071
 20
-1.24471
 11
-1.62015
 21
-1.24805
  0
LINE
  8
0
 10
-1.62015
 20
-1.24805
 11
-1.61972
 21
-1.2514
  0
LINE
  8
0
 10
-1.61972
 20
-1.2514
 11
-1.61945
 21
-1.25476
  0
LINE
  8
0
 10
-1.61945
 20
-1.25476
 11
-1.61931
 21
-1.25815
  0
LINE
  8
0
 10
-1.61931
 20
-1.25815
 11
-1.61931
 21
-1.26152
  0
LINE
  8
0
 10
-1.61931
 20
-1.26152
 11
-1.61945
 21
-1.26491
  0
LINE
  8
0
 10
-1.61945
 20
-1.26491
 11
-1.61972
 21
-1.26826
  0
LINE
  8
0
 10
-1.61972
 20
-1.26826
 11
-1.62015
 21
-1.27162
  0
LINE
  8
0
 10
-1.62015
 20
-1.27162
 11
-1.62071
 21
-1.27496
  0
LINE
  8
0
 10
-1.62071
 20
-1.27496
 11
-1.62141
 21
-1.27826
  0
LINE
  8
0
 10
-1.62141
 20
-1.27826
 11
-1.62225
 21
-1.28154
  0
LINE
  8
0
 10
-1.62225
 20
-1.28154
 11
-1.62323
 21
-1.28477
  0
LINE
  8
0
 10
-1.62323
 20
-1.28477
 11
-1.62434
 21
-1.28796
  0
LINE
  8
0
 10
-1.62434
 20
-1.28796
 11
-1.6256
 21
-1.29111
  0
LINE
  8
0
 10
-1.6256
 20
-1.29111
 11
-1.62697
 21
-1.2942
  0
LINE
  8
0
 10
-1.62697
 20
-1.2942
 11
-1.62846
 21
-1.29723
  0
LINE
  8
0
 10
-1.62846
 20
-1.29723
 11
-1.6301
 21
-1.30019
  0
LINE
  8
0
 10
-1.6301
 20
-1.30019
 11
-1.63185
 21
-1.30309
  0
LINE
  8
0
 10
-1.63185
 20
-1.30309
 11
-1.63371
 21
-1.30589
  0
LINE
  8
0
 10
-1.63371
 20
-1.30589
 11
-1.63571
 21
-1.30862
  0
LINE
  8
0
 10
-1.63571
 20
-1.30862
 11
-1.6378
 21
-1.31128
  0
LINE
  8
0
 10
-1.6378
 20
-1.31128
 11
-1.64001
 21
-1.31384
  0
LINE
  8
0
 10
-1.64001
 20
-1.31384
 11
-1.64233
 21
-1.3163
  0
LINE
  8
0
 10
-1.64233
 20
-1.3163
 11
-1.64474
 21
-1.31866
  0
LINE
  8
0
 10
-1.64474
 20
-1.31866
 11
-1.64726
 21
-1.32094
  0
LINE
  8
0
 10
-1.64726
 20
-1.32094
 11
-1.64986
 21
-1.32309
  0
LINE
  8
0
 10
-1.64986
 20
-1.32309
 11
-1.65256
 21
-1.32513
  0
LINE
  8
0
 10
-1.65256
 20
-1.32513
 11
-1.65533
 21
-1.32706
  0
LINE
  8
0
 10
-1.65533
 20
-1.32706
 11
-1.65819
 21
-1.32887
  0
LINE
  8
0
 10
-1.65819
 20
-1.32887
 11
-1.66112
 21
-1.33057
  0
LINE
  8
0
 10
-1.66112
 20
-1.33057
 11
-1.66411
 21
-1.33212
  0
LINE
  8
0
 10
-1.66411
 20
-1.33212
 11
-1.66716
 21
-1.33357
  0
LINE
  8
0
 10
-1.66716
 20
-1.33357
 11
-1.67029
 21
-1.33487
  0
LINE
  8
0
 10
-1.67029
 20
-1.33487
 11
-1.67345
 21
-1.33606
  0
LINE
  8
0
 10
-1.67345
 20
-1.33606
 11
-1.67667
 21
-1.3371
  0
LINE
  8
0
 10
-1.67667
 20
-1.3371
 11
-1.67992
 21
-1.33801
  0
LINE
  8
0
 10
-1.67992
 20
-1.33801
 11
-1.68321
 21
-1.33878
  0
LINE
  8
0
 10
-1.68321
 20
-1.33878
 11
-1.68654
 21
-1.33942
  0
LINE
  8
0
 10
-1.68654
 20
-1.33942
 11
-1.68988
 21
-1.3399
  0
LINE
  8
0
 10
-1.68988
 20
-1.3399
 11
-1.69324
 21
-1.34026
  0
LINE
  8
0
 10
-1.69324
 20
-1.34026
 11
-1.69661
 21
-1.34047
  0
LINE
  8
0
 10
-1.69661
 20
-1.34047
 11
-1.7
 21
-1.34055
  0
LINE
  8
0
 10
-1.7
 20
-1.34055
 11
-1.70337
 21
-1.34047
  0
LINE
  8
0
 10
1.69661
 20
-1.34047
 11
1.69324
 21
-1.34026
  0
LINE
  8
0
 10
1.69324
 20
-1.34026
 11
1.68988
 21
-1.3399
  0
LINE
  8
0
 10
1.68988
 20
-1.3399
 11
1.68654
 21
-1.33942
  0
LINE
  8
0
 10
1.68654
 20
-1.33942
 11
1.68321
 21
-1.33878
  0
LINE
  8
0
 10
1.68321
 20
-1.33878
 11
1.67992
 21
-1.33801
  0
LINE
  8
0
 10
1.67992
 20
-1.33801
 11
1.67667
 21
-1.3371
  0
LINE
  8
0
 10
1.67667
 20
-1.3371
 11
1.67345
 21
-1.33606
  0
LINE
  8
0
 10
1.67345
 20
-1.33606
 11
1.67029
 21
-1.33487
  0
LINE
  8
0
 10
1.67029
 20
-1.33487
 11
1.66716
 21
-1.33357
  0
LINE
  8
0
 10
1.66716
 20
-1.33357
 11
1.66411
 21
-1.33212
  0
LINE
  8
0
 10
1.66411
 20
-1.33212
 11
1.66112
 21
-1.33057
  0
LINE
  8
0
 10
1.66112
 20
-1.33057
 11
1.65819
 21
-1.32887
  0
LINE
  8
0
 10
1.65819
 20
-1.32887
 11
1.65533
 21
-1.32706
  0
LINE
  8
0
 10
1.65533
 20
-1.32706
 11
1.65256
 21
-1.32513
  0
LINE
  8
0
 10
1.65256
 20
-1.32513
 11
1.64986
 21
-1.32309
  0
LINE
  8
0
 10
1.64986
 20
-1.32309
 11
1.64726
 21
-1.32094
  0
LINE
  8
0
 10
1.64726
 20
-1.32094
 11
1.64474
 21
-1.31866
  0
LINE
  8
0
 10
1.64474
 20
-1.31866
 11
1.64233
 21
-1.3163
  0
LINE
  8
0
 10
1.64233
 20
-1.3163
 11
1.64001
 21
-1.31384
  0
LINE
  8
0
 10
1.64001
 20
-1.31384
 11
1.6378
 21
-1.31128
  0
LINE
  8
0
 10
1.6378
 20
-1.31128
 11
1.63571
 21
-1.30862
  0
LINE
  8
0
 10
1.63571
 20
-1.30862
 11
1.63371
 21
-1.30589
  0
LINE
  8
0
 10
1.63371
 20
-1.30589
 11
1.63185
 21
-1.30309
  0
LINE
  8
0
 10
1.63185
 20
-1.30309
 11
1.6301
 21
-1.30019
  0
LINE
  8
0
 10
1.6301
 20
-1.30019
 11
1.62846
 21
-1.29723
  0
LINE
  8
0
 10
1.62846
 20
-1.29723
 11
1.62697
 21
-1.2942
  0
LINE
  8
0
 10
1.62697
 20
-1.2942
 11
1.6256
 21
-1.29111
  0
LINE
  8
0
 10
1.6256
 20
-1.29111
 11
1.62434
 21
-1.28796
  0
LINE
  8
0
 10
1.62434
 20
-1.28796
 11
1.62323
 21
-1.28477
  0
LINE
  8
0
 10
1.62323
 20
-1.28477
 11
1.62225
 21
-1.28154
  0
LINE
  8
0
 10
1.62225
 20
-1.28154
 11
1.62141
 21
-1.27826
  0
LINE
  8
0
 10
1.62141
 20
-1.27826
 11
1.62071
 21
-1.27496
  0
LINE
  8
0
 10
1.62071
 20
-1.27496
 11
1.62015
 21
-1.27162
  0
LINE
  8
0
 10
1.62015
 20
-1.27162
 11
1.61972
 21
-1.26826
  0
LINE
  8
0
 10
1.61972
 20
-1.26826
 11
1.61945
 21
-1.26491
  0
LINE
  8
0
 10
1.61945
 20
-1.26491
 11
1.61931
 21
-1.26152
  0
LINE
  8
0
 10
1.61931
 20
-1.26152
 11
1.61931
 21
-1.25815
  0
LINE
  8
0
 10
1.61931
 20
-1.25815
 11
1.61945
 21
-1.25476
  0
LINE
  8
0
 10
1.61945
 20
-1.25476
 11
1.61972
 21
-1.2514
  0
LINE
  8
0
 10
1.61972
 20
-1.2514
 11
1.62015
 21
-1.24805
  0
LINE
  8
0
 10
1.62015
 20
-1.24805
 11
1.62071
 21
-1.24471
  0
LINE
  8
0
 10
1.62071
 20
-1.24471
 11
1.62141
 21
-1.24141
  0
LINE
  8
0
 10
1.62141
 20
-1.24141
 11
1.62225
 21
-1.23813
  0
LINE
  8
0
 10
1.62225
 20
-1.23813
 11
1.62323
 21
-1.23489
  0
LINE
  8
0
 10
1.62323
 20
-1.23489
 11
1.62434
 21
-1.2317
  0
LINE
  8
0
 10
1.62434
 20
-1.2317
 11
1.6256
 21
-1.22856
  0
LINE
  8
0
 10
1.6256
 20
-1.22856
 11
1.62697
 21
-1.22546
  0
LINE
  8
0
 10
1.62697
 20
-1.22546
 11
1.62846
 21
-1.22244
  0
LINE
  8
0
 10
1.62846
 20
-1.22244
 11
1.6301
 21
-1.21948
  0
LINE
  8
0
 10
1.6301
 20
-1.21948
 11
1.63185
 21
-1.21658
  0
LINE
  8
0
 10
1.63185
 20
-1.21658
 11
1.63371
 21
-1.21378
  0
LINE
  8
0
 10
1.63371
 20
-1.21378
 11
1.63571
 21
-1.21104
  0
LINE
  8
0
 10
1.63571
 20
-1.21104
 11
1.6378
 21
-1.20839
  0
LINE
  8
0
 10
1.6378
 20
-1.20839
 11
1.64001
 21
-1.20583
  0
LINE
  8
0
 10
1.64001
 20
-1.20583
 11
1.64233
 21
-1.20337
  0
LINE
  8
0
 10
1.64233
 20
-1.20337
 11
1.64474
 21
-1.201
  0
LINE
  8
0
 10
1.64474
 20
-1.201
 11
1.64726
 21
-1.19875
  0
LINE
  8
0
 10
1.64726
 20
-1.19875
 11
1.64986
 21
-1.19658
  0
LINE
  8
0
 10
1.64986
 20
-1.19658
 11
1.65256
 21
-1.19453
  0
LINE
  8
0
 10
1.65256
 20
-1.19453
 11
1.65533
 21
-1.19261
  0
LINE
  8
0
 10
1.65533
 20
-1.19261
 11
1.65819
 21
-1.1908
  0
LINE
  8
0
 10
1.65819
 20
-1.1908
 11
1.66112
 21
-1.1891
  0
LINE
  8
0
 10
1.66112
 20
-1.1891
 11
1.66411
 21
-1.18755
  0
LINE
  8
0
 10
1.66411
 20
-1.18755
 11
1.66716
 21
-1.18611
  0
LINE
  8
0
 10
1.66716
 20
-1.18611
 11
1.67029
 21
-1.1848
  0
LINE
  8
0
 10
1.67029
 20
-1.1848
 11
1.67345
 21
-1.18361
  0
LINE
  8
0
 10
1.67345
 20
-1.18361
 11
1.67667
 21
-1.18257
  0
LINE
  8
0
 10
1.67667
 20
-1.18257
 11
1.67992
 21
-1.18166
  0
LINE
  8
0
 10
1.67992
 20
-1.18166
 11
1.68321
 21
-1.18089
  0
LINE
  8
0
 10
1.68321
 20
-1.18089
 11
1.68654
 21
-1.18025
  0
LINE
  8
0
 10
1.68654
 20
-1.18025
 11
1.68988
 21
-1.17976
  0
LINE
  8
0
 10
1.68988
 20
-1.17976
 11
1.69324
 21
-1.17941
  0
LINE
  8
0
 10
1.69324
 20
-1.17941
 11
1.69661
 21
-1.1792
  0
LINE
  8
0
 10
1.69661
 20
-1.1792
 11
1.7
 21
-1.17912
  0
LINE
  8
0
 10
1.7
 20
-1.17912
 11
1.70337
 21
-1.1792
  0
LINE
  8
0
 10
1.70337
 20
-1.1792
 11
1.70674
 21
-1.17941
  0
LINE
  8
0
 10
1.70674
 20
-1.17941
 11
1.71011
 21
-1.17976
  0
LINE
  8
0
 10
1.71011
 20
-1.17976
 11
1.71346
 21
-1.18025
  0
LINE
  8
0
 10
1.71346
 20
-1.18025
 11
1.71677
 21
-1.18089
  0
LINE
  8
0
 10
1.71677
 20
-1.18089
 11
1.72006
 21
-1.18166
  0
LINE
  8
0
 10
1.72006
 20
-1.18166
 11
1.72331
 21
-1.18257
  0
LINE
  8
0
 10
1.72331
 20
-1.18257
 11
1.72653
 21
-1.18361
  0
LINE
  8
0
 10
1.72653
 20
-1.18361
 11
1.72971
 21
-1.1848
  0
LINE
  8
0
 10
1.72971
 20
-1.1848
 11
1.73282
 21
-1.18611
  0
LINE
  8
0
 10
1.73282
 20
-1.18611
 11
1.73589
 21
-1.18755
  0
LINE
  8
0
 10
1.73589
 20
-1.18755
 11
1.73888
 21
-1.1891
  0
LINE
  8
0
 10
1.73888
 20
-1.1891
 11
1.74181
 21
-1.1908
  0
LINE
  8
0
 10
1.74181
 20
-1.1908
 11
1.74466
 21
-1.19261
  0
LINE
  8
0
 10
1.74466
 20
-1.19261
 11
1.74744
 21
-1.19453
  0
LINE
  8
0
 10
1.74744
 20
-1.19453
 11
1.75012
 21
-1.19658
  0
LINE
  8
0
 10
1.75012
 20
-1.19658
 11
1.75273
 21
-1.19875
  0
LINE
  8
0
 10
1.75273
 20
-1.19875
 11
1.75523
 21
-1.201
  0
LINE
  8
0
 10
1.75523
 20
-1.201
 11
1.75766
 21
-1.20337
  0
LINE
  8
0
 10
1.75766
 20
-1.20337
 11
1.75996
 21
-1.20583
  0
LINE
  8
0
 10
1.75996
 20
-1.20583
 11
1.76218
 21
-1.20839
  0
LINE
  8
0
 10
1.76218
 20
-1.20839
 11
1.76428
 21
-1.21104
  0
LINE
  8
0
 10
1.76428
 20
-1.21104
 11
1.76627
 21
-1.21378
  0
LINE
  8
0
 10
1.76627
 20
-1.21378
 11
1.76814
 21
-1.21658
  0
LINE
  8
0
 10
1.76814
 20
-1.21658
 11
1.76988
 21
-1.21948
  0
LINE
  8
0
 10
1.76988
 20
-1.21948
 11
1.77151
 21
-1.22244
  0
LINE
  8
0
 10
1.77151
 20
-1.22244
 11
1.77303
 21
-1.22546
  0
LINE
  8
0
 10
1.77303
 20
-1.22546
 11
1.7744
 21
-1.22856
  0
LINE
  8
0
 10
1.7744
 20
-1.22856
 11
1.77563
 21
-1.2317
  0
LINE
  8
0
 10
1.77563
 20
-1.2317
 11
1.77675
 21
-1.23489
  0
LINE
  8
0
 10
1.77675
 20
-1.23489
 11
1.77773
 21
-1.23813
  0
LINE
  8
0
 10
1.77773
 20
-1.23813
 11
1.77856
 21
-1.24141
  0
LINE
  8
0
 10
1.77856
 20
-1.24141
 11
1.77927
 21
-1.24471
  0
LINE
  8
0
 10
1.77927
 20
-1.24471
 11
1.77983
 21
-1.24805
  0
LINE
  8
0
 10
1.77983
 20
-1.24805
 11
1.78026
 21
-1.2514
  0
LINE
  8
0
 10
1.78026
 20
-1.2514
 11
1.78055
 21
-1.25476
  0
LINE
  8
0
 10
1.78055
 20
-1.25476
 11
1.78069
 21
-1.25815
  0
LINE
  8
0
 10
1.78069
 20
-1.25815
 11
1.78069
 21
-1.26152
  0
LINE
  8
0
 10
1.78069
 20
-1.26152
 11
1.78055
 21
-1.26491
  0
LINE
  8
0
 10
1.78055
 20
-1.26491
 11
1.78026
 21
-1.26826
  0
LINE
  8
0
 10
1.78026
 20
-1.26826
 11
1.77983
 21
-1.27162
  0
LINE
  8
0
 10
1.77983
 20
-1.27162
 11
1.77927
 21
-1.27496
  0
LINE
  8
0
 10
1.77927
 20
-1.27496
 11
1.77856
 21
-1.27826
  0
LINE
  8
0
 10
1.77856
 20
-1.27826
 11
1.77773
 21
-1.28154
  0
LINE
  8
0
 10
1.77773
 20
-1.28154
 11
1.77675
 21
-1.28477
  0
LINE
  8
0
 10
1.77675
 20
-1.28477
 11
1.77563
 21
-1.28796
  0
LINE
  8
0
 10
1.77563
 20
-1.28796
 11
1.7744
 21
-1.29111
  0
LINE
  8
0
 10
1.7744
 20
-1.29111
 11
1.77303
 21
-1.2942
  0
LINE
  8
0
 10
1.77303
 20
-1.2942
 11
1.77151
 21
-1.29723
  0
LINE
  8
0
 10
1.77151
 20
-1.29723
 11
1.76988
 21
-1.30019
  0
LINE
  8
0
 10
1.76988
 20
-1.30019
 11
1.76814
 21
-1.30309
  0
LINE
  8
0
 10
1.76814
 20
-1.30309
 11
1.76627
 21
-1.30589
  0
LINE
  8
0
 10
1.76627
 20
-1.30589
 11
1.76428
 21
-1.30862
  0
LINE
  8
0
 10
1.76428
 20
-1.30862
 11
1.76218
 21
-1.31128
  0
LINE
  8
0
 10
1.76218
 20
-1.31128
 11
1.75996
 21
-1.31384
  0
LINE
  8
0
 10
1.75996
 20
-1.31384
 11
1.75766
 21
-1.3163
  0
LINE
  8
0
 10
1.75766
 20
-1.3163
 11
1.75523
 21
-1.31866
  0
LINE
  8
0
 10
1.75523
 20
-1.31866
 11
1.75273
 21
-1.32094
  0
LINE
  8
0
 10
1.75273
 20
-1.32094
 11
1.75012
 21
-1.32309
  0
LINE
  8
0
 10
1.75012
 20
-1.32309
 11
1.74744
 21
-1.32513
  0
LINE
  8
0
 10
1.74744
 20
-1.32513
 11
1.74466
 21
-1.32706
  0
LINE
  8
0
 10
1.74466
 20
-1.32706
 11
1.74181
 21
-1.32887
  0
LINE
  8
0
 10
1.74181
 20
-1.32887
 11
1.73888
 21
-1.33057
  0
LINE
  8
0
 10
1.73888
 20
-1.33057
 11
1.73589
 21
-1.33212
  0
LINE
  8
0
 10
1.73589
 20
-1.33212
 11
1.73282
 21
-1.33357
  0
LINE
  8
0
 10
1.73282
 20
-1.33357
 11
1.72971
 21
-1.33487
  0
LINE
  8
0
 10
1.72971
 20
-1.33487
 11
1.72653
 21
-1.33606
  0
LINE
  8
0
 10
1.72653
 20
-1.33606
 11
1.72331
 21
-1.3371
  0
LINE
  8
0
 10
1.72331
 20
-1.3371
 11
1.72006
 21
-1.33801
  0
LINE
  8
0
 10
1.72006
 20
-1.33801
 11
1.71677
 21
-1.33878
  0
LINE
  8
0
 10
1.71677
 20
-1.33878
 11
1.71346
 21
-1.33942
  0
LINE
  8
0
 10
1.71346
 20
-1.33942
 11
1.71011
 21
-1.3399
  0
LINE
  8
0
 10
1.71011
 20
-1.3399
 11
1.70674
 21
-1.34026
  0
LINE
  8
0
 10
1.70674
 20
-1.34026
 11
1.70337
 21
-1.34047
  0
LINE
  8
0
 10
1.70337
 20
-1.34047
 11
1.7
 21
-1.34055
  0
LINE
  8
0
 10
1.7
 20
-1.34055
 11
1.69661
 21
-1.34047
  0
LINE
  8
0
 10
-0.00167847
 20
-4.95569
 11
-0.00506592
 21
-4.95554
  0
LINE
  8
0
 10
-0.00506592
 20
-4.95554
 11
-0.00842285
 21
-4.95526
  0
LINE
  8
0
 10
-0.00842285
 20
-4.95526
 11
-0.0117798
 21
-4.95483
  0
LINE
  8
0
 10
-0.0117798
 20
-4.95483
 11
-0.0151215
 21
-4.95427
  0
LINE
  8
0
 10
-0.0151215
 20
-4.95427
 11
-0.0184174
 21
-4.95357
  0
LINE
  8
0
 10
-0.0184174
 20
-4.95357
 11
-0.021698
 21
-4.95273
  0
LINE
  8
0
 10
-0.021698
 20
-4.95273
 11
-0.0249329
 21
-4.95175
  0
LINE
  8
0
 10
-0.0249329
 20
-4.95175
 11
-0.0281219
 21
-4.95064
  0
LINE
  8
0
 10
-0.0281219
 20
-4.95064
 11
-0.0312653
 21
-4.9494
  0
LINE
  8
0
 10
-0.0312653
 20
-4.9494
 11
-0.0343628
 21
-4.94801
  0
LINE
  8
0
 10
-0.0343628
 20
-4.94801
 11
-0.037384
 21
-4.94652
  0
LINE
  8
0
 10
-0.037384
 20
-4.94652
 11
-0.0403442
 21
-4.94489
  0
LINE
  8
0
 10
-0.0403442
 20
-4.94489
 11
-0.0432434
 21
-4.94313
  0
LINE
  8
0
 10
-0.0432434
 20
-4.94313
 11
-0.046051
 21
-4.94127
  0
LINE
  8
0
 10
-0.046051
 20
-4.94127
 11
-0.0487823
 21
-4.93929
  0
LINE
  8
0
 10
-0.0487823
 20
-4.93929
 11
-0.0514374
 21
-4.93718
  0
LINE
  8
0
 10
-0.0514374
 20
-4.93718
 11
-0.0540009
 21
-4.93497
  0
LINE
  8
0
 10
-0.0540009
 20
-4.93497
 11
-0.0564575
 21
-4.93266
  0
LINE
  8
0
 10
-0.0564575
 20
-4.93266
 11
-0.0588226
 21
-4.93024
  0
LINE
  8
0
 10
-0.0588226
 20
-4.93024
 11
-0.0610962
 21
-4.92773
  0
LINE
  8
0
 10
-0.0610962
 20
-4.92773
 11
-0.0632477
 21
-4.92513
  0
LINE
  8
0
 10
-0.0632477
 20
-4.92513
 11
-0.0652924
 21
-4.92242
  0
LINE
  8
0
 10
-0.0652924
 20
-4.92242
 11
-0.067215
 21
-4.91966
  0
LINE
  8
0
 10
-0.067215
 20
-4.91966
 11
-0.0690308
 21
-4.91681
  0
LINE
  8
0
 10
-0.0690308
 20
-4.91681
 11
-0.0707245
 21
-4.91388
  0
LINE
  8
0
 10
-0.0707245
 20
-4.91388
 11
-0.0722809
 21
-4.91087
  0
LINE
  8
0
 10
-0.0722809
 20
-4.91087
 11
-0.0737305
 21
-4.90782
  0
LINE
  8
0
 10
-0.0737305
 20
-4.90782
 11
-0.0750275
 21
-4.90471
  0
LINE
  8
0
 10
-0.0750275
 20
-4.90471
 11
-0.0762177
 21
-4.90154
  0
LINE
  8
0
 10
-0.0762177
 20
-4.90154
 11
-0.0772552
 21
-4.89832
  0
LINE
  8
0
 10
-0.0772552
 20
-4.89832
 11
-0.0781708
 21
-4.89507
  0
LINE
  8
0
 10
-0.0781708
 20
-4.89507
 11
-0.0789337
 21
-4.89177
  0
LINE
  8
0
 10
-0.0789337
 20
-4.89177
 11
-0.0795746
 21
-4.88846
  0
LINE
  8
0
 10
-0.0795746
 20
-4.88846
 11
-0.0800629
 21
-4.8851
  0
LINE
  8
0
 10
-0.0800629
 20
-4.8851
 11
-0.0804138
 21
-4.88174
  0
LINE
  8
0
 10
-0.0804138
 20
-4.88174
 11
-0.0806274
 21
-4.87837
  0
LINE
  8
0
 10
-0.0806274
 20
-4.87837
 11
-0.0807037
 21
-4.875
  0
LINE
  8
0
 10
-0.0807037
 20
-4.875
 11
-0.0806274
 21
-4.87161
  0
LINE
  8
0
 10
-0.0806274
 20
-4.87161
 11
-0.0804138
 21
-4.86824
  0
LINE
  8
0
 10
-0.0804138
 20
-4.86824
 11
-0.0800629
 21
-4.86488
  0
LINE
  8
0
 10
-0.0800629
 20
-4.86488
 11
-0.0795746
 21
-4.86153
  0
LINE
  8
0
 10
-0.0795746
 20
-4.86153
 11
-0.0789337
 21
-4.85822
  0
LINE
  8
0
 10
-0.0789337
 20
-4.85822
 11
-0.0781708
 21
-4.85492
  0
LINE
  8
0
 10
-0.0781708
 20
-4.85492
 11
-0.0772552
 21
-4.85167
  0
LINE
  8
0
 10
-0.0772552
 20
-4.85167
 11
-0.0762177
 21
-4.84845
  0
LINE
  8
0
 10
-0.0762177
 20
-4.84845
 11
-0.0750275
 21
-4.84528
  0
LINE
  8
0
 10
-0.0750275
 20
-4.84528
 11
-0.0737305
 21
-4.84216
  0
LINE
  8
0
 10
-0.0737305
 20
-4.84216
 11
-0.0722809
 21
-4.83911
  0
LINE
  8
0
 10
-0.0722809
 20
-4.83911
 11
-0.0707245
 21
-4.83611
  0
LINE
  8
0
 10
-0.0707245
 20
-4.83611
 11
-0.0690308
 21
-4.83318
  0
LINE
  8
0
 10
-0.0690308
 20
-4.83318
 11
-0.067215
 21
-4.83032
  0
LINE
  8
0
 10
-0.067215
 20
-4.83032
 11
-0.0652924
 21
-4.82756
  0
LINE
  8
0
 10
-0.0652924
 20
-4.82756
 11
-0.0632477
 21
-4.82486
  0
LINE
  8
0
 10
-0.0632477
 20
-4.82486
 11
-0.0610962
 21
-4.82225
  0
LINE
  8
0
 10
-0.0610962
 20
-4.82225
 11
-0.0588226
 21
-4.81975
  0
LINE
  8
0
 10
-0.0588226
 20
-4.81975
 11
-0.0564575
 21
-4.81732
  0
LINE
  8
0
 10
-0.0564575
 20
-4.81732
 11
-0.0540009
 21
-4.81502
  0
LINE
  8
0
 10
-0.0540009
 20
-4.81502
 11
-0.0514374
 21
-4.81281
  0
LINE
  8
0
 10
-0.0514374
 20
-4.81281
 11
-0.0487823
 21
-4.8107
  0
LINE
  8
0
 10
-0.0487823
 20
-4.8107
 11
-0.046051
 21
-4.80872
  0
LINE
  8
0
 10
-0.046051
 20
-4.80872
 11
-0.0432434
 21
-4.80685
  0
LINE
  8
0
 10
-0.0432434
 20
-4.80685
 11
-0.0403442
 21
-4.8051
  0
LINE
  8
0
 10
-0.0403442
 20
-4.8051
 11
-0.037384
 21
-4.80347
  0
LINE
  8
0
 10
-0.037384
 20
-4.80347
 11
-0.0343628
 21
-4.80197
  0
LINE
  8
0
 10
-0.0343628
 20
-4.80197
 11
-0.0312653
 21
-4.80058
  0
LINE
  8
0
 10
-0.0312653
 20
-4.80058
 11
-0.0281219
 21
-4.79935
  0
LINE
  8
0
 10
-0.0281219
 20
-4.79935
 11
-0.0249329
 21
-4.79823
  0
LINE
  8
0
 10
-0.0249329
 20
-4.79823
 11
-0.021698
 21
-4.79726
  0
LINE
  8
0
 10
-0.021698
 20
-4.79726
 11
-0.0184174
 21
-4.79642
  0
LINE
  8
0
 10
-0.0184174
 20
-4.79642
 11
-0.0151215
 21
-4.79572
  0
LINE
  8
0
 10
-0.0151215
 20
-4.79572
 11
-0.0117798
 21
-4.79515
  0
LINE
  8
0
 10
-0.0117798
 20
-4.79515
 11
-0.00842285
 21
-4.79472
  0
LINE
  8
0
 10
-0.00842285
 20
-4.79472
 11
-0.00506592
 21
-4.79445
  0
LINE
  8
0
 10
-0.00506592
 20
-4.79445
 11
-0.00167847
 21
-4.7943
  0
LINE
  8
0
 10
-0.00167847
 20
-4.7943
 11
0.00167847
 21
-4.7943
  0
LINE
  8
0
 10
0.00167847
 20
-4.7943
 11
0.00506592
 21
-4.79445
  0
LINE
  8
0
 10
0.00506592
 20
-4.79445
 11
0.00842285
 21
-4.79472
  0
LINE
  8
0
 10
0.00842285
 20
-4.79472
 11
0.0117798
 21
-4.79515
  0
LINE
  8
0
 10
0.0117798
 20
-4.79515
 11
0.0151215
 21
-4.79572
  0
LINE
  8
0
 10
0.0151215
 20
-4.79572
 11
0.0184174
 21
-4.79642
  0
LINE
  8
0
 10
0.0184174
 20
-4.79642
 11
0.021698
 21
-4.79726
  0
LINE
  8
0
 10
0.021698
 20
-4.79726
 11
0.0249329
 21
-4.79823
  0
LINE
  8
0
 10
0.0249329
 20
-4.79823
 11
0.0281219
 21
-4.79935
  0
LINE
  8
0
 10
0.0281219
 20
-4.79935
 11
0.0312653
 21
-4.80058
  0
LINE
  8
0
 10
0.0312653
 20
-4.80058
 11
0.0343628
 21
-4.80197
  0
LINE
  8
0
 10
0.0343628
 20
-4.80197
 11
0.037384
 21
-4.80347
  0
LINE
  8
0
 10
0.037384
 20
-4.80347
 11
0.0403442
 21
-4.8051
  0
LINE
  8
0
 10
0.0403442
 20
-4.8051
 11
0.0432434
 21
-4.80685
  0
LINE
  8
0
 10
0.0432434
 20
-4.80685
 11
0.046051
 21
-4.80872
  0
LINE
  8
0
 10
0.046051
 20
-4.80872
 11
0.0487823
 21
-4.8107
  0
LINE
  8
0
 10
0.0487823
 20
-4.8107
 11
0.0514374
 21
-4.81281
  0
LINE
  8
0
 10
0.0514374
 20
-4.81281
 11
0.0540009
 21
-4.81502
  0
LINE
  8
0
 10
0.0540009
 20
-4.81502
 11
0.0564575
 21
-4.81732
  0
LINE
  8
0
 10
0.0564575
 20
-4.81732
 11
0.0588226
 21
-4.81975
  0
LINE
  8
0
 10
0.0588226
 20
-4.81975
 11
0.0610962
 21
-4.82225
  0
LINE
  8
0
 10
0.0610962
 20
-4.82225
 11
0.0632477
 21
-4.82486
  0
LINE
  8
0
 10
0.0632477
 20
-4.82486
 11
0.0652924
 21
-4.82756
  0
LINE
  8
0
 10
0.0652924
 20
-4.82756
 11
0.067215
 21
-4.83032
  0
LINE
  8
0
 10
0.067215
 20
-4.83032
 11
0.0690308
 21
-4.83318
  0
LINE
  8
0
 10
0.0690308
 20
-4.83318
 11
0.0707245
 21
-4.83611
  0
LINE
  8
0
 10
0.0707245
 20
-4.83611
 11
0.0722809
 21
-4.83911
  0
LINE
  8
0
 10
0.0722809
 20
-4.83911
 11
0.0737305
 21
-4.84216
  0
LINE
  8
0
 10
0.0737305
 20
-4.84216
 11
0.0750275
 21
-4.84528
  0
LINE
  8
0
 10
0.0750275
 20
-4.84528
 11
0.0762177
 21
-4.84845
  0
LINE
  8
0
 10
0.0762177
 20
-4.84845
 11
0.0772552
 21
-4.85167
  0
LINE
  8
0
 10
0.0772552
 20
-4.85167
 11
0.0781708
 21
-4.85492
  0
LINE
  8
0
 10
0.0781708
 20
-4.85492
 11
0.0789337
 21
-4.85822
  0
LINE
  8
0
 10
0.0789337
 20
-4.85822
 11
0.0795746
 21
-4.86153
  0
LINE
  8
0
 10
0.0795746
 20
-4.86153
 11
0.0800629
 21
-4.86488
  0
LINE
  8
0
 10
0.0800629
 20
-4.86488
 11
0.0804138
 21
-4.86824
  0
LINE
  8
0
 10
0.0804138
 20
-4.86824
 11
0.0806274
 21
-4.87161
  0
LINE
  8
0
 10
0.0806274
 20
-4.87161
 11
0.0807037
 21
-4.875
  0
LINE
  8
0
 10
0.0807037
 20
-4.875
 11
0.0806274
 21
-4.87837
  0
LINE
  8
0
 10
0.0806274
 20
-4.87837
 11
0.0804138
 21
-4.88174
  0
LINE
  8
0
 10
0.0804138
 20
-4.88174
 11
0.0800629
 21
-4.8851
  0
LINE
  8
0
 10
0.0800629
 20
-4.8851
 11
0.0795746
 21
-4.88846
  0
LINE
  8
0
 10
0.0795746
 20
-4.88846
 11
0.0789337
 21
-4.89177
  0
LINE
  8
0
 10
0.0789337
 20
-4.89177
 11
0.0781708
 21
-4.89507
  0
LINE
  8
0
 10
0.0781708
 20
-4.89507
 11
0.0772552
 21
-4.89832
  0
LINE
  8
0
 10
0.0772552
 20
-4.89832
 11
0.0762177
 21
-4.90154
  0
LINE
  8
0
 10
0.0762177
 20
-4.90154
 11
0.0750275
 21
-4.90471
  0
LINE
  8
0
 10
0.0750275
 20
-4.90471
 11
0.0737305
 21
-4.90782
  0
LINE
  8
0
 10
0.0737305
 20
-4.90782
 11
0.0722809
 21
-4.91087
  0
LINE
  8
0
 10
0.0722809
 20
-4.91087
 11
0.0707245
 21
-4.91388
  0
LINE
  8
0
 10
0.0707245
 20
-4.91388
 11
0.0690308
 21
-4.91681
  0
LINE
  8
0
 10
0.0690308
 20
-4.91681
 11
0.067215
 21
-4.91966
  0
LINE
  8
0
 10
0.067215
 20
-4.91966
 11
0.0652924
 21
-4.92242
  0
LINE
  8
0
 10
0.0652924
 20
-4.92242
 11
0.0632477
 21
-4.92513
  0
LINE
  8
0
 10
0.0632477
 20
-4.92513
 11
0.0610962
 21
-4.92773
  0
LINE
  8
0
 10
0.0610962
 20
-4.92773
 11
0.0588226
 21
-4.93024
  0
LINE
  8
0
 10
0.0588226
 20
-4.93024
 11
0.0564575
 21
-4.93266
  0
LINE
  8
0
 10
0.0564575
 20
-4.93266
 11
0.0540009
 21
-4.93497
  0
LINE
  8
0
 10
0.0540009
 20
-4.93497
 11
0.0514374
 21
-4.93718
  0
LINE
  8
0
 10
0.0514374
 20
-4.93718
 11
0.0487823
 21
-4.93929
  0
LINE
  8
0
 10
0.0487823
 20
-4.93929
 11
0.046051
 21
-4.94127
  0
LINE
  8
0
 10
0.046051
 20
-4.94127
 11
0.0432434
 21
-4.94313
  0
LINE
  8
0
 10
0.0432434
 20
-4.94313
 11
0.0403442
 21
-4.94489
  0
LINE
  8
0
 10
0.0403442
 20
-4.94489
 11
0.037384
 21
-4.94652
  0
LINE
  8
0
 10
0.037384
 20
-4.94652
 11
0.0343628
 21
-4.94801
  0
LINE
  8
0
 10
0.0343628
 20
-4.94801
 11
0.0312653
 21
-4.9494
  0
LINE
  8
0
 10
0.0312653
 20
-4.9494
 11
0.0281219
 21
-4.95064
  0
LINE
  8
0
 10
0.0281219
 20
-4.95064
 11
0.0249329
 21
-4.95175
  0
LINE
  8
0
 10
0.0249329
 20
-4.95175
 11
0.021698
 21
-4.95273
  0
LINE
  8
0
 10
0.021698
 20
-4.95273
 11
0.0184174
 21
-4.95357
  0
LINE
  8
0
 10
0.0184174
 20
-4.95357
 11
0.0151215
 21
-4.95427
  0
LINE
  8
0
 10
0.0151215
 20
-4.95427
 11
0.0117798
 21
-4.95483
  0
LINE
  8
0
 10
0.0117798
 20
-4.95483
 11
0.00842285
 21
-4.95526
  0
LINE
  8
0
 10
0.00842285
 20
-4.95526
 11
0.00506592
 21
-4.95554
  0
LINE
  8
0
 10
0.00506592
 20
-4.95554
 11
0.00167847
 21
-4.95569
  0
LINE
  8
0
 10
0.00167847
 20
-4.95569
 11
-0.00167847
 21
-4.95569
  0
ENDSEC
  0
SECTION
  2
OBJECTS
  0
DICTIONARY
  0
ENDSEC
  0
EOF
