  0
SECTION
  2
BLOCKS
  0
ENDSEC
  0
SECTION
  2
ENTITIES
  0
LINE
  8
0
 10
0.797238
 20
-136.5
 11
1.32744
 21
-136.455
  0
LINE
  8
0
 10
1.32744
 20
-136.455
 11
1.85493
 21
-136.389
  0
LINE
  8
0
 10
1.85493
 20
-136.389
 11
2.3797
 21
-136.3
  0
LINE
  8
0
 10
2.3797
 20
-136.3
 11
2.89982
 21
-136.189
  0
LINE
  8
0
 10
2.89982
 20
-136.189
 11
3.41491
 21
-136.057
  0
LINE
  8
0
 10
3.41491
 20
-136.057
 11
3.92418
 21
-135.903
  0
LINE
  8
0
 10
3.92418
 20
-135.903
 11
4.42686
 21
-135.728
  0
LINE
  8
0
 10
4.42686
 20
-135.728
 11
4.92141
 21
-135.532
  0
LINE
  8
0
 10
4.92141
 20
-135.532
 11
5.40703
 21
-135.316
  0
LINE
  8
0
 10
5.40703
 20
-135.316
 11
5.88375
 21
-135.08
  0
LINE
  8
0
 10
5.88375
 20
-135.08
 11
6.35
 21
-134.823
  0
LINE
  8
0
 10
6.35
 20
-134.823
 11
6.80462
 21
-134.548
  0
LINE
  8
0
 10
6.80462
 20
-134.548
 11
7.24801
 21
-134.253
  0
LINE
  8
0
 10
7.24801
 20
-134.253
 11
7.67821
 21
-133.941
  0
LINE
  8
0
 10
7.67821
 20
-133.941
 11
8.09524
 21
-133.61
  0
LINE
  8
0
 10
8.09524
 20
-133.61
 11
8.49793
 21
-133.263
  0
LINE
  8
0
 10
8.49793
 20
-133.263
 11
8.8855
 21
-132.898
  0
LINE
  8
0
 10
8.8855
 20
-132.898
 11
9.25757
 21
-132.519
  0
LINE
  8
0
 10
9.25757
 20
-132.519
 11
9.61375
 21
-132.123
  0
LINE
  8
0
 10
9.61375
 20
-132.123
 11
9.95288
 21
-131.713
  0
LINE
  8
0
 10
9.95288
 20
-131.713
 11
10.2742
 21
-131.29
  0
LINE
  8
0
 10
10.2742
 20
-131.29
 11
10.578
 21
-130.853
  0
LINE
  8
0
 10
10.578
 20
-130.853
 11
10.8629
 21
-130.404
  0
LINE
  8
0
 10
10.8629
 20
-130.404
 11
11.1288
 21
-129.943
  0
LINE
  8
0
 10
11.1288
 20
-129.943
 11
11.3753
 21
-129.472
  0
LINE
  8
0
 10
11.3753
 20
-129.472
 11
11.602
 21
-128.99
  0
LINE
  8
0
 10
11.602
 20
-128.99
 11
44.0876
 21
-57.729
  0
LINE
  8
0
 10
44.0876
 20
-57.729
 11
44.8709
 21
-55.8656
  0
LINE
  8
0
 10
44.8709
 20
-55.8656
 11
45.5755
 21
-53.9707
  0
LINE
  8
0
 10
45.5755
 20
-53.9707
 11
46.1999
 21
-52.0484
  0
LINE
  8
0
 10
46.1999
 20
-52.0484
 11
46.7437
 21
-50.1016
  0
LINE
  8
0
 10
46.7437
 20
-50.1016
 11
47.2053
 21
-48.1335
  0
LINE
  8
0
 10
47.2053
 20
-48.1335
 11
47.5839
 21
-46.148
  0
LINE
  8
0
 10
47.5839
 20
-46.148
 11
57.0229
 21
9.90598
  0
LINE
  8
0
 10
57.0229
 20
9.90598
 11
57.0229
 21
10.1598
  0
LINE
  8
0
 10
57.0229
 20
10.1598
 11
-57.0229
 21
10.1598
  0
LINE
  8
0
 10
-57.0229
 20
10.1598
 11
-57.0229
 21
9.90598
  0
LINE
  8
0
 10
-57.0229
 20
9.90598
 11
-47.5839
 21
-46.148
  0
LINE
  8
0
 10
-47.5839
 20
-46.148
 11
-47.2053
 21
-48.1335
  0
LINE
  8
0
 10
-47.2053
 20
-48.1335
 11
-46.7437
 21
-50.1016
  0
LINE
  8
0
 10
-46.7437
 20
-50.1016
 11
-46.1999
 21
-52.0484
  0
LINE
  8
0
 10
-46.1999
 20
-52.0484
 11
-45.5755
 21
-53.9707
  0
LINE
  8
0
 10
-45.5755
 20
-53.9707
 11
-44.8709
 21
-55.8656
  0
LINE
  8
0
 10
-44.8709
 20
-55.8656
 11
-44.0876
 21
-57.729
  0
LINE
  8
0
 10
-44.0876
 20
-57.729
 11
-11.602
 21
-128.99
  0
LINE
  8
0
 10
-11.602
 20
-128.99
 11
-11.3753
 21
-129.472
  0
LINE
  8
0
 10
-11.3753
 20
-129.472
 11
-11.1288
 21
-129.943
  0
LINE
  8
0
 10
-11.1288
 20
-129.943
 11
-10.8629
 21
-130.404
  0
LINE
  8
0
 10
-10.8629
 20
-130.404
 11
-10.578
 21
-130.853
  0
LINE
  8
0
 10
-10.578
 20
-130.853
 11
-10.2742
 21
-131.29
  0
LINE
  8
0
 10
-10.2742
 20
-131.29
 11
-9.95288
 21
-131.713
  0
LINE
  8
0
 10
-9.95288
 20
-131.713
 11
-9.61375
 21
-132.123
  0
LINE
  8
0
 10
-9.61375
 20
-132.123
 11
-9.25757
 21
-132.519
  0
LINE
  8
0
 10
-9.25757
 20
-132.519
 11
-8.8855
 21
-132.898
  0
LINE
  8
0
 10
-8.8855
 20
-132.898
 11
-8.49793
 21
-133.263
  0
LINE
  8
0
 10
-8.49793
 20
-133.263
 11
-8.09524
 21
-133.61
  0
LINE
  8
0
 10
-8.09524
 20
-133.61
 11
-7.67821
 21
-133.941
  0
LINE
  8
0
 10
-7.67821
 20
-133.941
 11
-7.24801
 21
-134.253
  0
LINE
  8
0
 10
-7.24801
 20
-134.253
 11
-6.80462
 21
-134.548
  0
LINE
  8
0
 10
-6.80462
 20
-134.548
 11
-6.35
 21
-134.823
  0
LINE
  8
0
 10
-6.35
 20
-134.823
 11
-5.88375
 21
-135.08
  0
LINE
  8
0
 10
-5.88375
 20
-135.08
 11
-5.40703
 21
-135.316
  0
LINE
  8
0
 10
-5.40703
 20
-135.316
 11
-4.92141
 21
-135.532
  0
LINE
  8
0
 10
-4.92141
 20
-135.532
 11
-4.42686
 21
-135.728
  0
LINE
  8
0
 10
-4.42686
 20
-135.728
 11
-3.92418
 21
-135.903
  0
LINE
  8
0
 10
-3.92418
 20
-135.903
 11
-3.41491
 21
-136.057
  0
LINE
  8
0
 10
-3.41491
 20
-136.057
 11
-2.89982
 21
-136.189
  0
LINE
  8
0
 10
-2.89982
 20
-136.189
 11
-2.3797
 21
-136.3
  0
LINE
  8
0
 10
-2.3797
 20
-136.3
 11
-1.85493
 21
-136.389
  0
LINE
  8
0
 10
-1.85493
 20
-136.389
 11
-1.32744
 21
-136.455
  0
LINE
  8
0
 10
-1.32744
 20
-136.455
 11
-0.797238
 21
-136.5
  0
LINE
  8
0
 10
-0.797238
 20
-136.5
 11
-0.265875
 21
-136.522
  0
LINE
  8
0
 10
-0.265875
 20
-136.522
 11
0.265875
 21
-136.522
  0
LINE
  8
0
 10
0.265875
 20
-136.522
 11
0.797238
 21
-136.5
  0
LINE
  8
0
 10
-43.2656
 20
-2.04794
 11
-43.3512
 21
-2.04251
  0
LINE
  8
0
 10
-43.3512
 20
-2.04251
 11
-43.4369
 21
-2.0336
  0
LINE
  8
0
 10
-43.4369
 20
-2.0336
 11
-43.5218
 21
-2.02119
  0
LINE
  8
0
 10
-43.5218
 20
-2.02119
 11
-43.6059
 21
-2.00492
  0
LINE
  8
0
 10
-43.6059
 20
-2.00492
 11
-43.6896
 21
-1.98554
  0
LINE
  8
0
 10
-43.6896
 20
-1.98554
 11
-43.7721
 21
-1.96228
  0
LINE
  8
0
 10
-43.7721
 20
-1.96228
 11
-43.8539
 21
-1.93593
  0
LINE
  8
0
 10
-43.8539
 20
-1.93593
 11
-43.9345
 21
-1.9057
  0
LINE
  8
0
 10
-43.9345
 20
-1.9057
 11
-44.0136
 21
-1.87275
  0
LINE
  8
0
 10
-44.0136
 20
-1.87275
 11
-44.0915
 21
-1.83593
  0
LINE
  8
0
 10
-44.0915
 20
-1.83593
 11
-44.1675
 21
-1.7964
  0
LINE
  8
0
 10
-44.1675
 20
-1.7964
 11
-44.2419
 21
-1.75338
  0
LINE
  8
0
 10
-44.2419
 20
-1.75338
 11
-44.3143
 21
-1.70726
  0
LINE
  8
0
 10
-44.3143
 20
-1.70726
 11
-44.3849
 21
-1.65843
  0
LINE
  8
0
 10
-44.3849
 20
-1.65843
 11
-44.4531
 21
-1.60649
  0
LINE
  8
0
 10
-44.4531
 20
-1.60649
 11
-44.5194
 21
-1.55184
  0
LINE
  8
0
 10
-44.5194
 20
-1.55184
 11
-44.5829
 21
-1.49409
  0
LINE
  8
0
 10
-44.5829
 20
-1.49409
 11
-44.6446
 21
-1.43402
  0
LINE
  8
0
 10
-44.6446
 20
-1.43402
 11
-44.7031
 21
-1.37162
  0
LINE
  8
0
 10
-44.7031
 20
-1.37162
 11
-44.7593
 21
-1.30651
  0
LINE
  8
0
 10
-44.7593
 20
-1.30651
 11
-44.8128
 21
-1.23907
  0
LINE
  8
0
 10
-44.8128
 20
-1.23907
 11
-44.8632
 21
-1.1697
  0
LINE
  8
0
 10
-44.8632
 20
-1.1697
 11
-44.9108
 21
-1.09838
  0
LINE
  8
0
 10
-44.9108
 20
-1.09838
 11
-44.955
 21
-1.02474
  0
LINE
  8
0
 10
-44.955
 20
-1.02474
 11
-44.9965
 21
-0.949554
  0
LINE
  8
0
 10
-44.9965
 20
-0.949554
 11
-45.0348
 21
-0.872815
  0
LINE
  8
0
 10
-45.0348
 20
-0.872815
 11
-45.0697
 21
-0.794138
  0
LINE
  8
0
 10
-45.0697
 20
-0.794138
 11
-45.1011
 21
-0.714297
  0
LINE
  8
0
 10
-45.1011
 20
-0.714297
 11
-45.1294
 21
-0.633295
  0
LINE
  8
0
 10
-45.1294
 20
-0.633295
 11
-45.1542
 21
-0.551129
  0
LINE
  8
0
 10
-45.1542
 20
-0.551129
 11
-45.1755
 21
-0.467801
  0
LINE
  8
0
 10
-45.1755
 20
-0.467801
 11
-45.1934
 21
-0.384085
  0
LINE
  8
0
 10
-45.1934
 20
-0.384085
 11
-45.2077
 21
-0.299207
  0
LINE
  8
0
 10
-45.2077
 20
-0.299207
 11
-45.2186
 21
-0.21394
  0
LINE
  8
0
 10
-45.2186
 20
-0.21394
 11
-45.2259
 21
-0.128674
  0
LINE
  8
0
 10
-45.2259
 20
-0.128674
 11
-45.2294
 21
-0.0426331
  0
LINE
  8
0
 10
-45.2294
 20
-0.0426331
 11
-45.2294
 21
0.0426331
  0
LINE
  8
0
 10
-45.2294
 20
0.0426331
 11
-45.2259
 21
0.128674
  0
LINE
  8
0
 10
-45.2259
 20
0.128674
 11
-45.2186
 21
0.21394
  0
LINE
  8
0
 10
-45.2186
 20
0.21394
 11
-45.2077
 21
0.299207
  0
LINE
  8
0
 10
-45.2077
 20
0.299207
 11
-45.1934
 21
0.384085
  0
LINE
  8
0
 10
-45.1934
 20
0.384085
 11
-45.1755
 21
0.467801
  0
LINE
  8
0
 10
-45.1755
 20
0.467801
 11
-45.1542
 21
0.551129
  0
LINE
  8
0
 10
-45.1542
 20
0.551129
 11
-45.1294
 21
0.633295
  0
LINE
  8
0
 10
-45.1294
 20
0.633295
 11
-45.1011
 21
0.714297
  0
LINE
  8
0
 10
-45.1011
 20
0.714297
 11
-45.0697
 21
0.794138
  0
LINE
  8
0
 10
-45.0697
 20
0.794138
 11
-45.0348
 21
0.872815
  0
LINE
  8
0
 10
-45.0348
 20
0.872815
 11
-44.9965
 21
0.949554
  0
LINE
  8
0
 10
-44.9965
 20
0.949554
 11
-44.955
 21
1.02474
  0
LINE
  8
0
 10
-44.955
 20
1.02474
 11
-44.9108
 21
1.09838
  0
LINE
  8
0
 10
-44.9108
 20
1.09838
 11
-44.8632
 21
1.1697
  0
LINE
  8
0
 10
-44.8632
 20
1.1697
 11
-44.8128
 21
1.23907
  0
LINE
  8
0
 10
-44.8128
 20
1.23907
 11
-44.7593
 21
1.30651
  0
LINE
  8
0
 10
-44.7593
 20
1.30651
 11
-44.7031
 21
1.37162
  0
LINE
  8
0
 10
-44.7031
 20
1.37162
 11
-44.6446
 21
1.43402
  0
LINE
  8
0
 10
-44.6446
 20
1.43402
 11
-44.5829
 21
1.49409
  0
LINE
  8
0
 10
-44.5829
 20
1.49409
 11
-44.5194
 21
1.55146
  0
LINE
  8
0
 10
-44.5194
 20
1.55146
 11
-44.4531
 21
1.60649
  0
LINE
  8
0
 10
-44.4531
 20
1.60649
 11
-44.3849
 21
1.65843
  0
LINE
  8
0
 10
-44.3849
 20
1.65843
 11
-44.3143
 21
1.70726
  0
LINE
  8
0
 10
-44.3143
 20
1.70726
 11
-44.2419
 21
1.75338
  0
LINE
  8
0
 10
-44.2419
 20
1.75338
 11
-44.1675
 21
1.7964
  0
LINE
  8
0
 10
-44.1675
 20
1.7964
 11
-44.0915
 21
1.83593
  0
LINE
  8
0
 10
-44.0915
 20
1.83593
 11
-44.0136
 21
1.87275
  0
LINE
  8
0
 10
-44.0136
 20
1.87275
 11
-43.9345
 21
1.9057
  0
LINE
  8
0
 10
-43.9345
 20
1.9057
 11
-43.8539
 21
1.93593
  0
LINE
  8
0
 10
-43.8539
 20
1.93593
 11
-43.7721
 21
1.96228
  0
LINE
  8
0
 10
-43.7721
 20
1.96228
 11
-43.6896
 21
1.98554
  0
LINE
  8
0
 10
-43.6896
 20
1.98554
 11
-43.6059
 21
2.00492
  0
LINE
  8
0
 10
-43.6059
 20
2.00492
 11
-43.5218
 21
2.02119
  0
LINE
  8
0
 10
-43.5218
 20
2.02119
 11
-43.4369
 21
2.0336
  0
LINE
  8
0
 10
-43.4369
 20
2.0336
 11
-43.3512
 21
2.04251
  0
LINE
  8
0
 10
-43.3512
 20
2.04251
 11
-43.2656
 21
2.04794
  0
LINE
  8
0
 10
-43.2656
 20
2.04794
 11
-43.1799
 21
2.04987
  0
LINE
  8
0
 10
-43.1799
 20
2.04987
 11
-43.0939
 21
2.04794
  0
LINE
  8
0
 10
-43.0939
 20
2.04794
 11
-43.0082
 21
2.04251
  0
LINE
  8
0
 10
-43.0082
 20
2.04251
 11
-42.923
 21
2.0336
  0
LINE
  8
0
 10
-42.923
 20
2.0336
 11
-42.8381
 21
2.02119
  0
LINE
  8
0
 10
-42.8381
 20
2.02119
 11
-42.7536
 21
2.00492
  0
LINE
  8
0
 10
-42.7536
 20
2.00492
 11
-42.6699
 21
1.98554
  0
LINE
  8
0
 10
-42.6699
 20
1.98554
 11
-42.5873
 21
1.96228
  0
LINE
  8
0
 10
-42.5873
 20
1.96228
 11
-42.5055
 21
1.93593
  0
LINE
  8
0
 10
-42.5055
 20
1.93593
 11
-42.4253
 21
1.9057
  0
LINE
  8
0
 10
-42.4253
 20
1.9057
 11
-42.3459
 21
1.87275
  0
LINE
  8
0
 10
-42.3459
 20
1.87275
 11
-42.2684
 21
1.83593
  0
LINE
  8
0
 10
-42.2684
 20
1.83593
 11
-42.1924
 21
1.7964
  0
LINE
  8
0
 10
-42.1924
 20
1.7964
 11
-42.118
 21
1.75338
  0
LINE
  8
0
 10
-42.118
 20
1.75338
 11
-42.0455
 21
1.70726
  0
LINE
  8
0
 10
-42.0455
 20
1.70726
 11
-41.975
 21
1.65843
  0
LINE
  8
0
 10
-41.975
 20
1.65843
 11
-41.9064
 21
1.60649
  0
LINE
  8
0
 10
-41.9064
 20
1.60649
 11
-41.8405
 21
1.55146
  0
LINE
  8
0
 10
-41.8405
 20
1.55146
 11
-41.7765
 21
1.49409
  0
LINE
  8
0
 10
-41.7765
 20
1.49409
 11
-41.7153
 21
1.43402
  0
LINE
  8
0
 10
-41.7153
 20
1.43402
 11
-41.6564
 21
1.37162
  0
LINE
  8
0
 10
-41.6564
 20
1.37162
 11
-41.6002
 21
1.30651
  0
LINE
  8
0
 10
-41.6002
 20
1.30651
 11
-41.5471
 21
1.23907
  0
LINE
  8
0
 10
-41.5471
 20
1.23907
 11
-41.4963
 21
1.1697
  0
LINE
  8
0
 10
-41.4963
 20
1.1697
 11
-41.449
 21
1.09838
  0
LINE
  8
0
 10
-41.449
 20
1.09838
 11
-41.4044
 21
1.02474
  0
LINE
  8
0
 10
-41.4044
 20
1.02474
 11
-41.363
 21
0.949554
  0
LINE
  8
0
 10
-41.363
 20
0.949554
 11
-41.325
 21
0.872815
  0
LINE
  8
0
 10
-41.325
 20
0.872815
 11
-41.2901
 21
0.794138
  0
LINE
  8
0
 10
-41.2901
 20
0.794138
 11
-41.2583
 21
0.714297
  0
LINE
  8
0
 10
-41.2583
 20
0.714297
 11
-41.23
 21
0.633295
  0
LINE
  8
0
 10
-41.23
 20
0.633295
 11
-41.2052
 21
0.551129
  0
LINE
  8
0
 10
-41.2052
 20
0.551129
 11
-41.1839
 21
0.467801
  0
LINE
  8
0
 10
-41.1839
 20
0.467801
 11
-41.1661
 21
0.384085
  0
LINE
  8
0
 10
-41.1661
 20
0.384085
 11
-41.1518
 21
0.299207
  0
LINE
  8
0
 10
-41.1518
 20
0.299207
 11
-41.1409
 21
0.21394
  0
LINE
  8
0
 10
-41.1409
 20
0.21394
 11
-41.1339
 21
0.128674
  0
LINE
  8
0
 10
-41.1339
 20
0.128674
 11
-41.1304
 21
0.0426331
  0
LINE
  8
0
 10
-41.1304
 20
0.0426331
 11
-41.1304
 21
-0.0426331
  0
LINE
  8
0
 10
-41.1304
 20
-0.0426331
 11
-41.1339
 21
-0.128674
  0
LINE
  8
0
 10
-41.1339
 20
-0.128674
 11
-41.1409
 21
-0.21394
  0
LINE
  8
0
 10
-41.1409
 20
-0.21394
 11
-41.1518
 21
-0.299207
  0
LINE
  8
0
 10
-41.1518
 20
-0.299207
 11
-41.1661
 21
-0.384085
  0
LINE
  8
0
 10
-41.1661
 20
-0.384085
 11
-41.1839
 21
-0.467801
  0
LINE
  8
0
 10
-41.1839
 20
-0.467801
 11
-41.2052
 21
-0.551129
  0
LINE
  8
0
 10
-41.2052
 20
-0.551129
 11
-41.23
 21
-0.633295
  0
LINE
  8
0
 10
-41.23
 20
-0.633295
 11
-41.2583
 21
-0.714297
  0
LINE
  8
0
 10
-41.2583
 20
-0.714297
 11
-41.2901
 21
-0.794138
  0
LINE
  8
0
 10
-41.2901
 20
-0.794138
 11
-41.325
 21
-0.872815
  0
LINE
  8
0
 10
-41.325
 20
-0.872815
 11
-41.363
 21
-0.949554
  0
LINE
  8
0
 10
-41.363
 20
-0.949554
 11
-41.4044
 21
-1.02474
  0
LINE
  8
0
 10
-41.4044
 20
-1.02474
 11
-41.449
 21
-1.09838
  0
LINE
  8
0
 10
-41.449
 20
-1.09838
 11
-41.4963
 21
-1.1697
  0
LINE
  8
0
 10
-41.4963
 20
-1.1697
 11
-41.5471
 21
-1.23907
  0
LINE
  8
0
 10
-41.5471
 20
-1.23907
 11
-41.6002
 21
-1.30651
  0
LINE
  8
0
 10
-41.6002
 20
-1.30651
 11
-41.6564
 21
-1.37162
  0
LINE
  8
0
 10
-41.6564
 20
-1.37162
 11
-41.7153
 21
-1.43402
  0
LINE
  8
0
 10
-41.7153
 20
-1.43402
 11
-41.7765
 21
-1.49409
  0
LINE
  8
0
 10
-41.7765
 20
-1.49409
 11
-41.8405
 21
-1.55184
  0
LINE
  8
0
 10
-41.8405
 20
-1.55184
 11
-41.9064
 21
-1.60649
  0
LINE
  8
0
 10
-41.9064
 20
-1.60649
 11
-41.975
 21
-1.65843
  0
LINE
  8
0
 10
-41.975
 20
-1.65843
 11
-42.0455
 21
-1.70726
  0
LINE
  8
0
 10
-42.0455
 20
-1.70726
 11
-42.118
 21
-1.75338
  0
LINE
  8
0
 10
-42.118
 20
-1.75338
 11
-42.1924
 21
-1.7964
  0
LINE
  8
0
 10
-42.1924
 20
-1.7964
 11
-42.2684
 21
-1.83593
  0
LINE
  8
0
 10
-42.2684
 20
-1.83593
 11
-42.3459
 21
-1.87275
  0
LINE
  8
0
 10
-42.3459
 20
-1.87275
 11
-42.4253
 21
-1.9057
  0
LINE
  8
0
 10
-42.4253
 20
-1.9057
 11
-42.5055
 21
-1.93593
  0
LINE
  8
0
 10
-42.5055
 20
-1.93593
 11
-42.5873
 21
-1.96228
  0
LINE
  8
0
 10
-42.5873
 20
-1.96228
 11
-42.6699
 21
-1.98554
  0
LINE
  8
0
 10
-42.6699
 20
-1.98554
 11
-42.7536
 21
-2.00492
  0
LINE
  8
0
 10
-42.7536
 20
-2.00492
 11
-42.8381
 21
-2.02119
  0
LINE
  8
0
 10
-42.8381
 20
-2.02119
 11
-42.923
 21
-2.0336
  0
LINE
  8
0
 10
-42.923
 20
-2.0336
 11
-43.0082
 21
-2.04251
  0
LINE
  8
0
 10
-43.0082
 20
-2.04251
 11
-43.0939
 21
-2.04794
  0
LINE
  8
0
 10
-43.0939
 20
-2.04794
 11
-43.1799
 21
-2.04987
  0
LINE
  8
0
 10
-43.1799
 20
-2.04987
 11
-43.2656
 21
-2.04794
  0
LINE
  8
0
 10
43.0939
 20
-2.04794
 11
43.0082
 21
-2.04251
  0
LINE
  8
0
 10
43.0082
 20
-2.04251
 11
42.923
 21
-2.0336
  0
LINE
  8
0
 10
42.923
 20
-2.0336
 11
42.8381
 21
-2.02119
  0
LINE
  8
0
 10
42.8381
 20
-2.02119
 11
42.7536
 21
-2.00492
  0
LINE
  8
0
 10
42.7536
 20
-2.00492
 11
42.6699
 21
-1.98554
  0
LINE
  8
0
 10
42.6699
 20
-1.98554
 11
42.5873
 21
-1.96228
  0
LINE
  8
0
 10
42.5873
 20
-1.96228
 11
42.5055
 21
-1.93593
  0
LINE
  8
0
 10
42.5055
 20
-1.93593
 11
42.4253
 21
-1.9057
  0
LINE
  8
0
 10
42.4253
 20
-1.9057
 11
42.3459
 21
-1.87275
  0
LINE
  8
0
 10
42.3459
 20
-1.87275
 11
42.2684
 21
-1.83593
  0
LINE
  8
0
 10
42.2684
 20
-1.83593
 11
42.1924
 21
-1.7964
  0
LINE
  8
0
 10
42.1924
 20
-1.7964
 11
42.118
 21
-1.75338
  0
LINE
  8
0
 10
42.118
 20
-1.75338
 11
42.0455
 21
-1.70726
  0
LINE
  8
0
 10
42.0455
 20
-1.70726
 11
41.975
 21
-1.65843
  0
LINE
  8
0
 10
41.975
 20
-1.65843
 11
41.9064
 21
-1.60649
  0
LINE
  8
0
 10
41.9064
 20
-1.60649
 11
41.8405
 21
-1.55184
  0
LINE
  8
0
 10
41.8405
 20
-1.55184
 11
41.7765
 21
-1.49409
  0
LINE
  8
0
 10
41.7765
 20
-1.49409
 11
41.7153
 21
-1.43402
  0
LINE
  8
0
 10
41.7153
 20
-1.43402
 11
41.6564
 21
-1.37162
  0
LINE
  8
0
 10
41.6564
 20
-1.37162
 11
41.6002
 21
-1.30651
  0
LINE
  8
0
 10
41.6002
 20
-1.30651
 11
41.5471
 21
-1.23907
  0
LINE
  8
0
 10
41.5471
 20
-1.23907
 11
41.4963
 21
-1.1697
  0
LINE
  8
0
 10
41.4963
 20
-1.1697
 11
41.449
 21
-1.09838
  0
LINE
  8
0
 10
41.449
 20
-1.09838
 11
41.4044
 21
-1.02474
  0
LINE
  8
0
 10
41.4044
 20
-1.02474
 11
41.363
 21
-0.949554
  0
LINE
  8
0
 10
41.363
 20
-0.949554
 11
41.325
 21
-0.872815
  0
LINE
  8
0
 10
41.325
 20
-0.872815
 11
41.2901
 21
-0.794138
  0
LINE
  8
0
 10
41.2901
 20
-0.794138
 11
41.2583
 21
-0.714297
  0
LINE
  8
0
 10
41.2583
 20
-0.714297
 11
41.23
 21
-0.633295
  0
LINE
  8
0
 10
41.23
 20
-0.633295
 11
41.2052
 21
-0.551129
  0
LINE
  8
0
 10
41.2052
 20
-0.551129
 11
41.1839
 21
-0.467801
  0
LINE
  8
0
 10
41.1839
 20
-0.467801
 11
41.1661
 21
-0.384085
  0
LINE
  8
0
 10
41.1661
 20
-0.384085
 11
41.1518
 21
-0.299207
  0
LINE
  8
0
 10
41.1518
 20
-0.299207
 11
41.1409
 21
-0.21394
  0
LINE
  8
0
 10
41.1409
 20
-0.21394
 11
41.1339
 21
-0.128674
  0
LINE
  8
0
 10
41.1339
 20
-0.128674
 11
41.1304
 21
-0.0426331
  0
LINE
  8
0
 10
41.1304
 20
-0.0426331
 11
41.1304
 21
0.0426331
  0
LINE
  8
0
 10
41.1304
 20
0.0426331
 11
41.1339
 21
0.128674
  0
LINE
  8
0
 10
41.1339
 20
0.128674
 11
41.1409
 21
0.21394
  0
LINE
  8
0
 10
41.1409
 20
0.21394
 11
41.1518
 21
0.299207
  0
LINE
  8
0
 10
41.1518
 20
0.299207
 11
41.1661
 21
0.384085
  0
LINE
  8
0
 10
41.1661
 20
0.384085
 11
41.1839
 21
0.467801
  0
LINE
  8
0
 10
41.1839
 20
0.467801
 11
41.2052
 21
0.551129
  0
LINE
  8
0
 10
41.2052
 20
0.551129
 11
41.23
 21
0.633295
  0
LINE
  8
0
 10
41.23
 20
0.633295
 11
41.2583
 21
0.714297
  0
LINE
  8
0
 10
41.2583
 20
0.714297
 11
41.2901
 21
0.794138
  0
LINE
  8
0
 10
41.2901
 20
0.794138
 11
41.325
 21
0.872815
  0
LINE
  8
0
 10
41.325
 20
0.872815
 11
41.363
 21
0.949554
  0
LINE
  8
0
 10
41.363
 20
0.949554
 11
41.4044
 21
1.02474
  0
LINE
  8
0
 10
41.4044
 20
1.02474
 11
41.449
 21
1.09838
  0
LINE
  8
0
 10
41.449
 20
1.09838
 11
41.4963
 21
1.1697
  0
LINE
  8
0
 10
41.4963
 20
1.1697
 11
41.5471
 21
1.23907
  0
LINE
  8
0
 10
41.5471
 20
1.23907
 11
41.6002
 21
1.30651
  0
LINE
  8
0
 10
41.6002
 20
1.30651
 11
41.6564
 21
1.37162
  0
LINE
  8
0
 10
41.6564
 20
1.37162
 11
41.7153
 21
1.43402
  0
LINE
  8
0
 10
41.7153
 20
1.43402
 11
41.7765
 21
1.49409
  0
LINE
  8
0
 10
41.7765
 20
1.49409
 11
41.8405
 21
1.55146
  0
LINE
  8
0
 10
41.8405
 20
1.55146
 11
41.9064
 21
1.60649
  0
LINE
  8
0
 10
41.9064
 20
1.60649
 11
41.975
 21
1.65843
  0
LINE
  8
0
 10
41.975
 20
1.65843
 11
42.0455
 21
1.70726
  0
LINE
  8
0
 10
42.0455
 20
1.70726
 11
42.118
 21
1.75338
  0
LINE
  8
0
 10
42.118
 20
1.75338
 11
42.1924
 21
1.7964
  0
LINE
  8
0
 10
42.1924
 20
1.7964
 11
42.2684
 21
1.83593
  0
LINE
  8
0
 10
42.2684
 20
1.83593
 11
42.3459
 21
1.87275
  0
LINE
  8
0
 10
42.3459
 20
1.87275
 11
42.4253
 21
1.9057
  0
LINE
  8
0
 10
42.4253
 20
1.9057
 11
42.5055
 21
1.93593
  0
LINE
  8
0
 10
42.5055
 20
1.93593
 11
42.5873
 21
1.96228
  0
LINE
  8
0
 10
42.5873
 20
1.96228
 11
42.6699
 21
1.98554
  0
LINE
  8
0
 10
42.6699
 20
1.98554
 11
42.7536
 21
2.00492
  0
LINE
  8
0
 10
42.7536
 20
2.00492
 11
42.8381
 21
2.02119
  0
LINE
  8
0
 10
42.8381
 20
2.02119
 11
42.923
 21
2.0336
  0
LINE
  8
0
 10
42.923
 20
2.0336
 11
43.0082
 21
2.04251
  0
LINE
  8
0
 10
43.0082
 20
2.04251
 11
43.0939
 21
2.04794
  0
LINE
  8
0
 10
43.0939
 20
2.04794
 11
43.1799
 21
2.04987
  0
LINE
  8
0
 10
43.1799
 20
2.04987
 11
43.2656
 21
2.04794
  0
LINE
  8
0
 10
43.2656
 20
2.04794
 11
43.3512
 21
2.04251
  0
LINE
  8
0
 10
43.3512
 20
2.04251
 11
43.4369
 21
2.0336
  0
LINE
  8
0
 10
43.4369
 20
2.0336
 11
43.5218
 21
2.02119
  0
LINE
  8
0
 10
43.5218
 20
2.02119
 11
43.6059
 21
2.00492
  0
LINE
  8
0
 10
43.6059
 20
2.00492
 11
43.6896
 21
1.98554
  0
LINE
  8
0
 10
43.6896
 20
1.98554
 11
43.7721
 21
1.96228
  0
LINE
  8
0
 10
43.7721
 20
1.96228
 11
43.8539
 21
1.93593
  0
LINE
  8
0
 10
43.8539
 20
1.93593
 11
43.9345
 21
1.9057
  0
LINE
  8
0
 10
43.9345
 20
1.9057
 11
44.0136
 21
1.87275
  0
LINE
  8
0
 10
44.0136
 20
1.87275
 11
44.0915
 21
1.83593
  0
LINE
  8
0
 10
44.0915
 20
1.83593
 11
44.1675
 21
1.7964
  0
LINE
  8
0
 10
44.1675
 20
1.7964
 11
44.2419
 21
1.75338
  0
LINE
  8
0
 10
44.2419
 20
1.75338
 11
44.3143
 21
1.70726
  0
LINE
  8
0
 10
44.3143
 20
1.70726
 11
44.3849
 21
1.65843
  0
LINE
  8
0
 10
44.3849
 20
1.65843
 11
44.4531
 21
1.60649
  0
LINE
  8
0
 10
44.4531
 20
1.60649
 11
44.5194
 21
1.55146
  0
LINE
  8
0
 10
44.5194
 20
1.55146
 11
44.5829
 21
1.49409
  0
LINE
  8
0
 10
44.5829
 20
1.49409
 11
44.6446
 21
1.43402
  0
LINE
  8
0
 10
44.6446
 20
1.43402
 11
44.7031
 21
1.37162
  0
LINE
  8
0
 10
44.7031
 20
1.37162
 11
44.7593
 21
1.30651
  0
LINE
  8
0
 10
44.7593
 20
1.30651
 11
44.8128
 21
1.23907
  0
LINE
  8
0
 10
44.8128
 20
1.23907
 11
44.8632
 21
1.1697
  0
LINE
  8
0
 10
44.8632
 20
1.1697
 11
44.9108
 21
1.09838
  0
LINE
  8
0
 10
44.9108
 20
1.09838
 11
44.955
 21
1.02474
  0
LINE
  8
0
 10
44.955
 20
1.02474
 11
44.9965
 21
0.949554
  0
LINE
  8
0
 10
44.9965
 20
0.949554
 11
45.0348
 21
0.872815
  0
LINE
  8
0
 10
45.0348
 20
0.872815
 11
45.0697
 21
0.794138
  0
LINE
  8
0
 10
45.0697
 20
0.794138
 11
45.1011
 21
0.714297
  0
LINE
  8
0
 10
45.1011
 20
0.714297
 11
45.1294
 21
0.633295
  0
LINE
  8
0
 10
45.1294
 20
0.633295
 11
45.1542
 21
0.551129
  0
LINE
  8
0
 10
45.1542
 20
0.551129
 11
45.1755
 21
0.467801
  0
LINE
  8
0
 10
45.1755
 20
0.467801
 11
45.1934
 21
0.384085
  0
LINE
  8
0
 10
45.1934
 20
0.384085
 11
45.2077
 21
0.299207
  0
LINE
  8
0
 10
45.2077
 20
0.299207
 11
45.2186
 21
0.21394
  0
LINE
  8
0
 10
45.2186
 20
0.21394
 11
45.2259
 21
0.128674
  0
LINE
  8
0
 10
45.2259
 20
0.128674
 11
45.2294
 21
0.0426331
  0
LINE
  8
0
 10
45.2294
 20
0.0426331
 11
45.2294
 21
-0.0426331
  0
LINE
  8
0
 10
45.2294
 20
-0.0426331
 11
45.2259
 21
-0.128674
  0
LINE
  8
0
 10
45.2259
 20
-0.128674
 11
45.2186
 21
-0.21394
  0
LINE
  8
0
 10
45.2186
 20
-0.21394
 11
45.2077
 21
-0.299207
  0
LINE
  8
0
 10
45.2077
 20
-0.299207
 11
45.1934
 21
-0.384085
  0
LINE
  8
0
 10
45.1934
 20
-0.384085
 11
45.1755
 21
-0.467801
  0
LINE
  8
0
 10
45.1755
 20
-0.467801
 11
45.1542
 21
-0.551129
  0
LINE
  8
0
 10
45.1542
 20
-0.551129
 11
45.1294
 21
-0.633295
  0
LINE
  8
0
 10
45.1294
 20
-0.633295
 11
45.1011
 21
-0.714297
  0
LINE
  8
0
 10
45.1011
 20
-0.714297
 11
45.0697
 21
-0.794138
  0
LINE
  8
0
 10
45.0697
 20
-0.794138
 11
45.0348
 21
-0.872815
  0
LINE
  8
0
 10
45.0348
 20
-0.872815
 11
44.9965
 21
-0.949554
  0
LINE
  8
0
 10
44.9965
 20
-0.949554
 11
44.955
 21
-1.02474
  0
LINE
  8
0
 10
44.955
 20
-1.02474
 11
44.9108
 21
-1.09838
  0
LINE
  8
0
 10
44.9108
 20
-1.09838
 11
44.8632
 21
-1.1697
  0
LINE
  8
0
 10
44.8632
 20
-1.1697
 11
44.8128
 21
-1.23907
  0
LINE
  8
0
 10
44.8128
 20
-1.23907
 11
44.7593
 21
-1.30651
  0
LINE
  8
0
 10
44.7593
 20
-1.30651
 11
44.7031
 21
-1.37162
  0
LINE
  8
0
 10
44.7031
 20
-1.37162
 11
44.6446
 21
-1.43402
  0
LINE
  8
0
 10
44.6446
 20
-1.43402
 11
44.5829
 21
-1.49409
  0
LINE
  8
0
 10
44.5829
 20
-1.49409
 11
44.5194
 21
-1.55184
  0
LINE
  8
0
 10
44.5194
 20
-1.55184
 11
44.4531
 21
-1.60649
  0
LINE
  8
0
 10
44.4531
 20
-1.60649
 11
44.3849
 21
-1.65843
  0
LINE
  8
0
 10
44.3849
 20
-1.65843
 11
44.3143
 21
-1.70726
  0
LINE
  8
0
 10
44.3143
 20
-1.70726
 11
44.2419
 21
-1.75338
  0
LINE
  8
0
 10
44.2419
 20
-1.75338
 11
44.1675
 21
-1.7964
  0
LINE
  8
0
 10
44.1675
 20
-1.7964
 11
44.0915
 21
-1.83593
  0
LINE
  8
0
 10
44.0915
 20
-1.83593
 11
44.0136
 21
-1.87275
  0
LINE
  8
0
 10
44.0136
 20
-1.87275
 11
43.9345
 21
-1.9057
  0
LINE
  8
0
 10
43.9345
 20
-1.9057
 11
43.8539
 21
-1.93593
  0
LINE
  8
0
 10
43.8539
 20
-1.93593
 11
43.7721
 21
-1.96228
  0
LINE
  8
0
 10
43.7721
 20
-1.96228
 11
43.6896
 21
-1.98554
  0
LINE
  8
0
 10
43.6896
 20
-1.98554
 11
43.6059
 21
-2.00492
  0
LINE
  8
0
 10
43.6059
 20
-2.00492
 11
43.5218
 21
-2.02119
  0
LINE
  8
0
 10
43.5218
 20
-2.02119
 11
43.4369
 21
-2.0336
  0
LINE
  8
0
 10
43.4369
 20
-2.0336
 11
43.3512
 21
-2.04251
  0
LINE
  8
0
 10
43.3512
 20
-2.04251
 11
43.2656
 21
-2.04794
  0
LINE
  8
0
 10
43.2656
 20
-2.04794
 11
43.1799
 21
-2.04987
  0
LINE
  8
0
 10
43.1799
 20
-2.04987
 11
43.0939
 21
-2.04794
  0
LINE
  8
0
 10
-0.0426331
 20
-15.8742
 11
-0.128674
 21
-15.8707
  0
LINE
  8
0
 10
-0.128674
 20
-15.8707
 11
-0.21394
 21
-15.8638
  0
LINE
  8
0
 10
-0.21394
 20
-15.8638
 11
-0.299207
 21
-15.8529
  0
LINE
  8
0
 10
-0.299207
 20
-15.8529
 11
-0.384085
 21
-15.8386
  0
LINE
  8
0
 10
-0.384085
 20
-15.8386
 11
-0.467801
 21
-15.8207
  0
LINE
  8
0
 10
-0.467801
 20
-15.8207
 11
-0.551129
 21
-15.7994
  0
LINE
  8
0
 10
-0.551129
 20
-15.7994
 11
-0.633295
 21
-15.7746
  0
LINE
  8
0
 10
-0.633295
 20
-15.7746
 11
-0.714297
 21
-15.7463
  0
LINE
  8
0
 10
-0.714297
 20
-15.7463
 11
-0.794138
 21
-15.7145
  0
LINE
  8
0
 10
-0.794138
 20
-15.7145
 11
-0.872815
 21
-15.6797
  0
LINE
  8
0
 10
-0.872815
 20
-15.6797
 11
-0.949554
 21
-15.6417
  0
LINE
  8
0
 10
-0.949554
 20
-15.6417
 11
-1.02474
 21
-15.6002
  0
LINE
  8
0
 10
-1.02474
 20
-15.6002
 11
-1.09838
 21
-15.5556
  0
LINE
  8
0
 10
-1.09838
 20
-15.5556
 11
-1.1697
 21
-15.5084
  0
LINE
  8
0
 10
-1.1697
 20
-15.5084
 11
-1.23907
 21
-15.4576
  0
LINE
  8
0
 10
-1.23907
 20
-15.4576
 11
-1.30651
 21
-15.4045
  0
LINE
  8
0
 10
-1.30651
 20
-15.4045
 11
-1.37162
 21
-15.3483
  0
LINE
  8
0
 10
-1.37162
 20
-15.3483
 11
-1.43402
 21
-15.2894
  0
LINE
  8
0
 10
-1.43402
 20
-15.2894
 11
-1.49409
 21
-15.2281
  0
LINE
  8
0
 10
-1.49409
 20
-15.2281
 11
-1.55184
 21
-15.1642
  0
LINE
  8
0
 10
-1.55184
 20
-15.1642
 11
-1.60649
 21
-15.0983
  0
LINE
  8
0
 10
-1.60649
 20
-15.0983
 11
-1.65843
 21
-15.0297
  0
LINE
  8
0
 10
-1.65843
 20
-15.0297
 11
-1.70726
 21
-14.9592
  0
LINE
  8
0
 10
-1.70726
 20
-14.9592
 11
-1.75338
 21
-14.8867
  0
LINE
  8
0
 10
-1.75338
 20
-14.8867
 11
-1.7964
 21
-14.8123
  0
LINE
  8
0
 10
-1.7964
 20
-14.8123
 11
-1.83593
 21
-14.7363
  0
LINE
  8
0
 10
-1.83593
 20
-14.7363
 11
-1.87275
 21
-14.6588
  0
LINE
  8
0
 10
-1.87275
 20
-14.6588
 11
-1.9057
 21
-14.5793
  0
LINE
  8
0
 10
-1.9057
 20
-14.5793
 11
-1.93593
 21
-14.4991
  0
LINE
  8
0
 10
-1.93593
 20
-14.4991
 11
-1.96228
 21
-14.4173
  0
LINE
  8
0
 10
-1.96228
 20
-14.4173
 11
-1.98554
 21
-14.3348
  0
LINE
  8
0
 10
-1.98554
 20
-14.3348
 11
-2.00492
 21
-14.2511
  0
LINE
  8
0
 10
-2.00492
 20
-14.2511
 11
-2.02119
 21
-14.1666
  0
LINE
  8
0
 10
-2.02119
 20
-14.1666
 11
-2.0336
 21
-14.0817
  0
LINE
  8
0
 10
-2.0336
 20
-14.0817
 11
-2.04251
 21
-13.9964
  0
LINE
  8
0
 10
-2.04251
 20
-13.9964
 11
-2.04794
 21
-13.9108
  0
LINE
  8
0
 10
-2.04794
 20
-13.9108
 11
-2.04987
 21
-13.8247
  0
LINE
  8
0
 10
-2.04987
 20
-13.8247
 11
-2.04794
 21
-13.7391
  0
LINE
  8
0
 10
-2.04794
 20
-13.7391
 11
-2.04251
 21
-13.6534
  0
LINE
  8
0
 10
-2.04251
 20
-13.6534
 11
-2.0336
 21
-13.5678
  0
LINE
  8
0
 10
-2.0336
 20
-13.5678
 11
-2.02119
 21
-13.4829
  0
LINE
  8
0
 10
-2.02119
 20
-13.4829
 11
-2.00492
 21
-13.3984
  0
LINE
  8
0
 10
-2.00492
 20
-13.3984
 11
-1.98554
 21
-13.3151
  0
LINE
  8
0
 10
-1.98554
 20
-13.3151
 11
-1.96228
 21
-13.2321
  0
LINE
  8
0
 10
-1.96228
 20
-13.2321
 11
-1.93593
 21
-13.1507
  0
LINE
  8
0
 10
-1.93593
 20
-13.1507
 11
-1.9057
 21
-13.0701
  0
LINE
  8
0
 10
-1.9057
 20
-13.0701
 11
-1.87275
 21
-12.9911
  0
LINE
  8
0
 10
-1.87275
 20
-12.9911
 11
-1.83593
 21
-12.9132
  0
LINE
  8
0
 10
-1.83593
 20
-12.9132
 11
-1.7964
 21
-12.8372
  0
LINE
  8
0
 10
-1.7964
 20
-12.8372
 11
-1.75338
 21
-12.7628
  0
LINE
  8
0
 10
-1.75338
 20
-12.7628
 11
-1.70726
 21
-12.6903
  0
LINE
  8
0
 10
-1.70726
 20
-12.6903
 11
-1.65843
 21
-12.6198
  0
LINE
  8
0
 10
-1.65843
 20
-12.6198
 11
-1.60649
 21
-12.5516
  0
LINE
  8
0
 10
-1.60649
 20
-12.5516
 11
-1.55184
 21
-12.4853
  0
LINE
  8
0
 10
-1.55184
 20
-12.4853
 11
-1.49409
 21
-12.4213
  0
LINE
  8
0
 10
-1.49409
 20
-12.4213
 11
-1.43402
 21
-12.3601
  0
LINE
  8
0
 10
-1.43402
 20
-12.3601
 11
-1.37162
 21
-12.3012
  0
LINE
  8
0
 10
-1.37162
 20
-12.3012
 11
-1.30651
 21
-12.2454
  0
LINE
  8
0
 10
-1.30651
 20
-12.2454
 11
-1.23907
 21
-12.1919
  0
LINE
  8
0
 10
-1.23907
 20
-12.1919
 11
-1.1697
 21
-12.1415
  0
LINE
  8
0
 10
-1.1697
 20
-12.1415
 11
-1.09838
 21
-12.0938
  0
LINE
  8
0
 10
-1.09838
 20
-12.0938
 11
-1.02474
 21
-12.0493
  0
LINE
  8
0
 10
-1.02474
 20
-12.0493
 11
-0.949554
 21
-12.0082
  0
LINE
  8
0
 10
-0.949554
 20
-12.0082
 11
-0.872815
 21
-11.9698
  0
LINE
  8
0
 10
-0.872815
 20
-11.9698
 11
-0.794138
 21
-11.9349
  0
LINE
  8
0
 10
-0.794138
 20
-11.9349
 11
-0.714297
 21
-11.9035
  0
LINE
  8
0
 10
-0.714297
 20
-11.9035
 11
-0.633295
 21
-11.8752
  0
LINE
  8
0
 10
-0.633295
 20
-11.8752
 11
-0.551129
 21
-11.8504
  0
LINE
  8
0
 10
-0.551129
 20
-11.8504
 11
-0.467801
 21
-11.8291
  0
LINE
  8
0
 10
-0.467801
 20
-11.8291
 11
-0.384085
 21
-11.8113
  0
LINE
  8
0
 10
-0.384085
 20
-11.8113
 11
-0.299207
 21
-11.797
  0
LINE
  8
0
 10
-0.299207
 20
-11.797
 11
-0.21394
 21
-11.7861
  0
LINE
  8
0
 10
-0.21394
 20
-11.7861
 11
-0.128674
 21
-11.7787
  0
LINE
  8
0
 10
-0.128674
 20
-11.7787
 11
-0.0426331
 21
-11.7753
  0
LINE
  8
0
 10
-0.0426331
 20
-11.7753
 11
0.0426331
 21
-11.7753
  0
LINE
  8
0
 10
0.0426331
 20
-11.7753
 11
0.128674
 21
-11.7787
  0
LINE
  8
0
 10
0.128674
 20
-11.7787
 11
0.21394
 21
-11.7861
  0
LINE
  8
0
 10
0.21394
 20
-11.7861
 11
0.299207
 21
-11.797
  0
LINE
  8
0
 10
0.299207
 20
-11.797
 11
0.384085
 21
-11.8113
  0
LINE
  8
0
 10
0.384085
 20
-11.8113
 11
0.467801
 21
-11.8291
  0
LINE
  8
0
 10
0.467801
 20
-11.8291
 11
0.551129
 21
-11.8504
  0
LINE
  8
0
 10
0.551129
 20
-11.8504
 11
0.633295
 21
-11.8752
  0
LINE
  8
0
 10
0.633295
 20
-11.8752
 11
0.714297
 21
-11.9035
  0
LINE
  8
0
 10
0.714297
 20
-11.9035
 11
0.794138
 21
-11.9349
  0
LINE
  8
0
 10
0.794138
 20
-11.9349
 11
0.872815
 21
-11.9698
  0
LINE
  8
0
 10
0.872815
 20
-11.9698
 11
0.949554
 21
-12.0082
  0
LINE
  8
0
 10
0.949554
 20
-12.0082
 11
1.02474
 21
-12.0493
  0
LINE
  8
0
 10
1.02474
 20
-12.0493
 11
1.09838
 21
-12.0938
  0
LINE
  8
0
 10
1.09838
 20
-12.0938
 11
1.1697
 21
-12.1415
  0
LINE
  8
0
 10
1.1697
 20
-12.1415
 11
1.23907
 21
-12.1919
  0
LINE
  8
0
 10
1.23907
 20
-12.1919
 11
1.30651
 21
-12.2454
  0
LINE
  8
0
 10
1.30651
 20
-12.2454
 11
1.37162
 21
-12.3012
  0
LINE
  8
0
 10
1.37162
 20
-12.3012
 11
1.43402
 21
-12.3601
  0
LINE
  8
0
 10
1.43402
 20
-12.3601
 11
1.49409
 21
-12.4213
  0
LINE
  8
0
 10
1.49409
 20
-12.4213
 11
1.55184
 21
-12.4853
  0
LINE
  8
0
 10
1.55184
 20
-12.4853
 11
1.60649
 21
-12.5516
  0
LINE
  8
0
 10
1.60649
 20
-12.5516
 11
1.65843
 21
-12.6198
  0
LINE
  8
0
 10
1.65843
 20
-12.6198
 11
1.70726
 21
-12.6903
  0
LINE
  8
0
 10
1.70726
 20
-12.6903
 11
1.75338
 21
-12.7628
  0
LINE
  8
0
 10
1.75338
 20
-12.7628
 11
1.7964
 21
-12.8372
  0
LINE
  8
0
 10
1.7964
 20
-12.8372
 11
1.83593
 21
-12.9132
  0
LINE
  8
0
 10
1.83593
 20
-12.9132
 11
1.87275
 21
-12.9911
  0
LINE
  8
0
 10
1.87275
 20
-12.9911
 11
1.9057
 21
-13.0701
  0
LINE
  8
0
 10
1.9057
 20
-13.0701
 11
1.93593
 21
-13.1507
  0
LINE
  8
0
 10
1.93593
 20
-13.1507
 11
1.96228
 21
-13.2321
  0
LINE
  8
0
 10
1.96228
 20
-13.2321
 11
1.98554
 21
-13.3151
  0
LINE
  8
0
 10
1.98554
 20
-13.3151
 11
2.00492
 21
-13.3984
  0
LINE
  8
0
 10
2.00492
 20
-13.3984
 11
2.02119
 21
-13.4829
  0
LINE
  8
0
 10
2.02119
 20
-13.4829
 11
2.0336
 21
-13.5678
  0
LINE
  8
0
 10
2.0336
 20
-13.5678
 11
2.04251
 21
-13.6534
  0
LINE
  8
0
 10
2.04251
 20
-13.6534
 11
2.04794
 21
-13.7391
  0
LINE
  8
0
 10
2.04794
 20
-13.7391
 11
2.04987
 21
-13.8247
  0
LINE
  8
0
 10
2.04987
 20
-13.8247
 11
2.04794
 21
-13.9108
  0
LINE
  8
0
 10
2.04794
 20
-13.9108
 11
2.04251
 21
-13.9964
  0
LINE
  8
0
 10
2.04251
 20
-13.9964
 11
2.0336
 21
-14.0817
  0
LINE
  8
0
 10
2.0336
 20
-14.0817
 11
2.02119
 21
-14.1666
  0
LINE
  8
0
 10
2.02119
 20
-14.1666
 11
2.00492
 21
-14.2511
  0
LINE
  8
0
 10
2.00492
 20
-14.2511
 11
1.98554
 21
-14.3348
  0
LINE
  8
0
 10
1.98554
 20
-14.3348
 11
1.96228
 21
-14.4173
  0
LINE
  8
0
 10
1.96228
 20
-14.4173
 11
1.93593
 21
-14.4991
  0
LINE
  8
0
 10
1.93593
 20
-14.4991
 11
1.9057
 21
-14.5793
  0
LINE
  8
0
 10
1.9057
 20
-14.5793
 11
1.87275
 21
-14.6588
  0
LINE
  8
0
 10
1.87275
 20
-14.6588
 11
1.83593
 21
-14.7363
  0
LINE
  8
0
 10
1.83593
 20
-14.7363
 11
1.7964
 21
-14.8123
  0
LINE
  8
0
 10
1.7964
 20
-14.8123
 11
1.75338
 21
-14.8867
  0
LINE
  8
0
 10
1.75338
 20
-14.8867
 11
1.70726
 21
-14.9592
  0
LINE
  8
0
 10
1.70726
 20
-14.9592
 11
1.65843
 21
-15.0297
  0
LINE
  8
0
 10
1.65843
 20
-15.0297
 11
1.60649
 21
-15.0983
  0
LINE
  8
0
 10
1.60649
 20
-15.0983
 11
1.55184
 21
-15.1642
  0
LINE
  8
0
 10
1.55184
 20
-15.1642
 11
1.49409
 21
-15.2281
  0
LINE
  8
0
 10
1.49409
 20
-15.2281
 11
1.43402
 21
-15.2894
  0
LINE
  8
0
 10
1.43402
 20
-15.2894
 11
1.37162
 21
-15.3483
  0
LINE
  8
0
 10
1.37162
 20
-15.3483
 11
1.30651
 21
-15.4045
  0
LINE
  8
0
 10
1.30651
 20
-15.4045
 11
1.23907
 21
-15.4576
  0
LINE
  8
0
 10
1.23907
 20
-15.4576
 11
1.1697
 21
-15.5084
  0
LINE
  8
0
 10
1.1697
 20
-15.5084
 11
1.09838
 21
-15.5556
  0
LINE
  8
0
 10
1.09838
 20
-15.5556
 11
1.02474
 21
-15.6002
  0
LINE
  8
0
 10
1.02474
 20
-15.6002
 11
0.949554
 21
-15.6417
  0
LINE
  8
0
 10
0.949554
 20
-15.6417
 11
0.872815
 21
-15.6797
  0
LINE
  8
0
 10
0.872815
 20
-15.6797
 11
0.794138
 21
-15.7145
  0
LINE
  8
0
 10
0.794138
 20
-15.7145
 11
0.714297
 21
-15.7463
  0
LINE
  8
0
 10
0.714297
 20
-15.7463
 11
0.633295
 21
-15.7746
  0
LINE
  8
0
 10
0.633295
 20
-15.7746
 11
0.551129
 21
-15.7994
  0
LINE
  8
0
 10
0.551129
 20
-15.7994
 11
0.467801
 21
-15.8207
  0
LINE
  8
0
 10
0.467801
 20
-15.8207
 11
0.384085
 21
-15.8386
  0
LINE
  8
0
 10
0.384085
 20
-15.8386
 11
0.299207
 21
-15.8529
  0
LINE
  8
0
 10
0.299207
 20
-15.8529
 11
0.21394
 21
-15.8638
  0
LINE
  8
0
 10
0.21394
 20
-15.8638
 11
0.128674
 21
-15.8707
  0
LINE
  8
0
 10
0.128674
 20
-15.8707
 11
0.0426331
 21
-15.8742
  0
LINE
  8
0
 10
0.0426331
 20
-15.8742
 11
-0.0426331
 21
-15.8742
  0
LINE
  8
0
 10
43.0939
 20
-18.0481
 11
43.0082
 21
-18.0427
  0
LINE
  8
0
 10
43.0082
 20
-18.0427
 11
42.923
 21
-18.0338
  0
LINE
  8
0
 10
42.923
 20
-18.0338
 11
42.8381
 21
-18.021
  0
LINE
  8
0
 10
42.8381
 20
-18.021
 11
42.7536
 21
-18.0051
  0
LINE
  8
0
 10
42.7536
 20
-18.0051
 11
42.6699
 21
-17.9853
  0
LINE
  8
0
 10
42.6699
 20
-17.9853
 11
42.5873
 21
-17.9625
  0
LINE
  8
0
 10
42.5873
 20
-17.9625
 11
42.5055
 21
-17.9357
  0
LINE
  8
0
 10
42.5055
 20
-17.9357
 11
42.4253
 21
-17.9059
  0
LINE
  8
0
 10
42.4253
 20
-17.9059
 11
42.3459
 21
-17.8726
  0
LINE
  8
0
 10
42.3459
 20
-17.8726
 11
42.2684
 21
-17.8361
  0
LINE
  8
0
 10
42.2684
 20
-17.8361
 11
42.1924
 21
-17.7962
  0
LINE
  8
0
 10
42.1924
 20
-17.7962
 11
42.118
 21
-17.7532
  0
LINE
  8
0
 10
42.118
 20
-17.7532
 11
42.0455
 21
-17.7074
  0
LINE
  8
0
 10
42.0455
 20
-17.7074
 11
41.975
 21
-17.6582
  0
LINE
  8
0
 10
41.975
 20
-17.6582
 11
41.9064
 21
-17.6063
  0
LINE
  8
0
 10
41.9064
 20
-17.6063
 11
41.8405
 21
-17.5516
  0
LINE
  8
0
 10
41.8405
 20
-17.5516
 11
41.7765
 21
-17.4943
  0
LINE
  8
0
 10
41.7765
 20
-17.4943
 11
41.7153
 21
-17.4342
  0
LINE
  8
0
 10
41.7153
 20
-17.4342
 11
41.6564
 21
-17.3714
  0
LINE
  8
0
 10
41.6564
 20
-17.3714
 11
41.6002
 21
-17.3067
  0
LINE
  8
0
 10
41.6002
 20
-17.3067
 11
41.5471
 21
-17.2393
  0
LINE
  8
0
 10
41.5471
 20
-17.2393
 11
41.4963
 21
-17.1699
  0
LINE
  8
0
 10
41.4963
 20
-17.1699
 11
41.449
 21
-17.0982
  0
LINE
  8
0
 10
41.449
 20
-17.0982
 11
41.4044
 21
-17.0249
  0
LINE
  8
0
 10
41.4044
 20
-17.0249
 11
41.363
 21
-16.9497
  0
LINE
  8
0
 10
41.363
 20
-16.9497
 11
41.325
 21
-16.8726
  0
LINE
  8
0
 10
41.325
 20
-16.8726
 11
41.2901
 21
-16.7943
  0
LINE
  8
0
 10
41.2901
 20
-16.7943
 11
41.2583
 21
-16.7145
  0
LINE
  8
0
 10
41.2583
 20
-16.7145
 11
41.23
 21
-16.6335
  0
LINE
  8
0
 10
41.23
 20
-16.6335
 11
41.2052
 21
-16.5509
  0
LINE
  8
0
 10
41.2052
 20
-16.5509
 11
41.1839
 21
-16.468
  0
LINE
  8
0
 10
41.1839
 20
-16.468
 11
41.1661
 21
-16.3839
  0
LINE
  8
0
 10
41.1661
 20
-16.3839
 11
41.1518
 21
-16.2994
  0
LINE
  8
0
 10
41.1518
 20
-16.2994
 11
41.1409
 21
-16.2141
  0
LINE
  8
0
 10
41.1409
 20
-16.2141
 11
41.1339
 21
-16.1285
  0
LINE
  8
0
 10
41.1339
 20
-16.1285
 11
41.1304
 21
-16.0428
  0
LINE
  8
0
 10
41.1304
 20
-16.0428
 11
41.1304
 21
-15.9568
  0
LINE
  8
0
 10
41.1304
 20
-15.9568
 11
41.1339
 21
-15.8711
  0
LINE
  8
0
 10
41.1339
 20
-15.8711
 11
41.1409
 21
-15.7855
  0
LINE
  8
0
 10
41.1409
 20
-15.7855
 11
41.1518
 21
-15.7002
  0
LINE
  8
0
 10
41.1518
 20
-15.7002
 11
41.1661
 21
-15.6157
  0
LINE
  8
0
 10
41.1661
 20
-15.6157
 11
41.1839
 21
-15.5316
  0
LINE
  8
0
 10
41.1839
 20
-15.5316
 11
41.2052
 21
-15.4487
  0
LINE
  8
0
 10
41.2052
 20
-15.4487
 11
41.23
 21
-15.3665
  0
LINE
  8
0
 10
41.23
 20
-15.3665
 11
41.2583
 21
-15.2851
  0
LINE
  8
0
 10
41.2583
 20
-15.2851
 11
41.2901
 21
-15.2053
  0
LINE
  8
0
 10
41.2901
 20
-15.2053
 11
41.325
 21
-15.127
  0
LINE
  8
0
 10
41.325
 20
-15.127
 11
41.363
 21
-15.0502
  0
LINE
  8
0
 10
41.363
 20
-15.0502
 11
41.4044
 21
-14.9747
  0
LINE
  8
0
 10
41.4044
 20
-14.9747
 11
41.449
 21
-14.9014
  0
LINE
  8
0
 10
41.449
 20
-14.9014
 11
41.4963
 21
-14.8297
  0
LINE
  8
0
 10
41.4963
 20
-14.8297
 11
41.5471
 21
-14.7603
  0
LINE
  8
0
 10
41.5471
 20
-14.7603
 11
41.6002
 21
-14.6929
  0
LINE
  8
0
 10
41.6002
 20
-14.6929
 11
41.6564
 21
-14.6282
  0
LINE
  8
0
 10
41.6564
 20
-14.6282
 11
41.7153
 21
-14.5654
  0
LINE
  8
0
 10
41.7153
 20
-14.5654
 11
41.7765
 21
-14.5053
  0
LINE
  8
0
 10
41.7765
 20
-14.5053
 11
41.8405
 21
-14.448
  0
LINE
  8
0
 10
41.8405
 20
-14.448
 11
41.9064
 21
-14.3933
  0
LINE
  8
0
 10
41.9064
 20
-14.3933
 11
41.975
 21
-14.3414
  0
LINE
  8
0
 10
41.975
 20
-14.3414
 11
42.0455
 21
-14.2922
  0
LINE
  8
0
 10
42.0455
 20
-14.2922
 11
42.118
 21
-14.2464
  0
LINE
  8
0
 10
42.118
 20
-14.2464
 11
42.1924
 21
-14.2034
  0
LINE
  8
0
 10
42.1924
 20
-14.2034
 11
42.2684
 21
-14.1635
  0
LINE
  8
0
 10
42.2684
 20
-14.1635
 11
42.3459
 21
-14.127
  0
LINE
  8
0
 10
42.3459
 20
-14.127
 11
42.4253
 21
-14.0937
  0
LINE
  8
0
 10
42.4253
 20
-14.0937
 11
42.5055
 21
-14.0639
  0
LINE
  8
0
 10
42.5055
 20
-14.0639
 11
42.5873
 21
-14.0371
  0
LINE
  8
0
 10
42.5873
 20
-14.0371
 11
42.6699
 21
-14.0143
  0
LINE
  8
0
 10
42.6699
 20
-14.0143
 11
42.7536
 21
-13.9945
  0
LINE
  8
0
 10
42.7536
 20
-13.9945
 11
42.8381
 21
-13.9786
  0
LINE
  8
0
 10
42.8381
 20
-13.9786
 11
42.923
 21
-13.9658
  0
LINE
  8
0
 10
42.923
 20
-13.9658
 11
43.0082
 21
-13.9569
  0
LINE
  8
0
 10
43.0082
 20
-13.9569
 11
43.0939
 21
-13.9515
  0
LINE
  8
0
 10
43.0939
 20
-13.9515
 11
43.1799
 21
-13.9499
  0
LINE
  8
0
 10
43.1799
 20
-13.9499
 11
43.2656
 21
-13.9515
  0
LINE
  8
0
 10
43.2656
 20
-13.9515
 11
43.3512
 21
-13.9569
  0
LINE
  8
0
 10
43.3512
 20
-13.9569
 11
43.4369
 21
-13.9658
  0
LINE
  8
0
 10
43.4369
 20
-13.9658
 11
43.5218
 21
-13.9786
  0
LINE
  8
0
 10
43.5218
 20
-13.9786
 11
43.6059
 21
-13.9945
  0
LINE
  8
0
 10
43.6059
 20
-13.9945
 11
43.6896
 21
-14.0143
  0
LINE
  8
0
 10
43.6896
 20
-14.0143
 11
43.7721
 21
-14.0371
  0
LINE
  8
0
 10
43.7721
 20
-14.0371
 11
43.8539
 21
-14.0639
  0
LINE
  8
0
 10
43.8539
 20
-14.0639
 11
43.9345
 21
-14.0937
  0
LINE
  8
0
 10
43.9345
 20
-14.0937
 11
44.0136
 21
-14.127
  0
LINE
  8
0
 10
44.0136
 20
-14.127
 11
44.0915
 21
-14.1635
  0
LINE
  8
0
 10
44.0915
 20
-14.1635
 11
44.1675
 21
-14.2034
  0
LINE
  8
0
 10
44.1675
 20
-14.2034
 11
44.2419
 21
-14.2464
  0
LINE
  8
0
 10
44.2419
 20
-14.2464
 11
44.3143
 21
-14.2922
  0
LINE
  8
0
 10
44.3143
 20
-14.2922
 11
44.3849
 21
-14.3414
  0
LINE
  8
0
 10
44.3849
 20
-14.3414
 11
44.4531
 21
-14.3933
  0
LINE
  8
0
 10
44.4531
 20
-14.3933
 11
44.5194
 21
-14.448
  0
LINE
  8
0
 10
44.5194
 20
-14.448
 11
44.5829
 21
-14.5053
  0
LINE
  8
0
 10
44.5829
 20
-14.5053
 11
44.6446
 21
-14.5654
  0
LINE
  8
0
 10
44.6446
 20
-14.5654
 11
44.7031
 21
-14.6282
  0
LINE
  8
0
 10
44.7031
 20
-14.6282
 11
44.7593
 21
-14.6929
  0
LINE
  8
0
 10
44.7593
 20
-14.6929
 11
44.8128
 21
-14.7603
  0
LINE
  8
0
 10
44.8128
 20
-14.7603
 11
44.8632
 21
-14.8297
  0
LINE
  8
0
 10
44.8632
 20
-14.8297
 11
44.9108
 21
-14.9014
  0
LINE
  8
0
 10
44.9108
 20
-14.9014
 11
44.955
 21
-14.9747
  0
LINE
  8
0
 10
44.955
 20
-14.9747
 11
44.9965
 21
-15.0502
  0
LINE
  8
0
 10
44.9965
 20
-15.0502
 11
45.0348
 21
-15.127
  0
LINE
  8
0
 10
45.0348
 20
-15.127
 11
45.0697
 21
-15.2053
  0
LINE
  8
0
 10
45.0697
 20
-15.2053
 11
45.1011
 21
-15.2851
  0
LINE
  8
0
 10
45.1011
 20
-15.2851
 11
45.1294
 21
-15.3665
  0
LINE
  8
0
 10
45.1294
 20
-15.3665
 11
45.1542
 21
-15.4487
  0
LINE
  8
0
 10
45.1542
 20
-15.4487
 11
45.1755
 21
-15.5316
  0
LINE
  8
0
 10
45.1755
 20
-15.5316
 11
45.1934
 21
-15.6157
  0
LINE
  8
0
 10
45.1934
 20
-15.6157
 11
45.2077
 21
-15.7002
  0
LINE
  8
0
 10
45.2077
 20
-15.7002
 11
45.2186
 21
-15.7855
  0
LINE
  8
0
 10
45.2186
 20
-15.7855
 11
45.2259
 21
-15.8711
  0
LINE
  8
0
 10
45.2259
 20
-15.8711
 11
45.2294
 21
-15.9568
  0
LINE
  8
0
 10
45.2294
 20
-15.9568
 11
45.2294
 21
-16.0428
  0
LINE
  8
0
 10
45.2294
 20
-16.0428
 11
45.2259
 21
-16.1285
  0
LINE
  8
0
 10
45.2259
 20
-16.1285
 11
45.2186
 21
-16.2141
  0
LINE
  8
0
 10
45.2186
 20
-16.2141
 11
45.2077
 21
-16.2994
  0
LINE
  8
0
 10
45.2077
 20
-16.2994
 11
45.1934
 21
-16.3839
  0
LINE
  8
0
 10
45.1934
 20
-16.3839
 11
45.1755
 21
-16.468
  0
LINE
  8
0
 10
45.1755
 20
-16.468
 11
45.1542
 21
-16.5509
  0
LINE
  8
0
 10
45.1542
 20
-16.5509
 11
45.1294
 21
-16.6335
  0
LINE
  8
0
 10
45.1294
 20
-16.6335
 11
45.1011
 21
-16.7145
  0
LINE
  8
0
 10
45.1011
 20
-16.7145
 11
45.0697
 21
-16.7943
  0
LINE
  8
0
 10
45.0697
 20
-16.7943
 11
45.0348
 21
-16.8726
  0
LINE
  8
0
 10
45.0348
 20
-16.8726
 11
44.9965
 21
-16.9497
  0
LINE
  8
0
 10
44.9965
 20
-16.9497
 11
44.955
 21
-17.0249
  0
LINE
  8
0
 10
44.955
 20
-17.0249
 11
44.9108
 21
-17.0982
  0
LINE
  8
0
 10
44.9108
 20
-17.0982
 11
44.8632
 21
-17.1699
  0
LINE
  8
0
 10
44.8632
 20
-17.1699
 11
44.8128
 21
-17.2393
  0
LINE
  8
0
 10
44.8128
 20
-17.2393
 11
44.7593
 21
-17.3067
  0
LINE
  8
0
 10
44.7593
 20
-17.3067
 11
44.7031
 21
-17.3714
  0
LINE
  8
0
 10
44.7031
 20
-17.3714
 11
44.6446
 21
-17.4342
  0
LINE
  8
0
 10
44.6446
 20
-17.4342
 11
44.5829
 21
-17.4943
  0
LINE
  8
0
 10
44.5829
 20
-17.4943
 11
44.5194
 21
-17.5516
  0
LINE
  8
0
 10
44.5194
 20
-17.5516
 11
44.4531
 21
-17.6063
  0
LINE
  8
0
 10
44.4531
 20
-17.6063
 11
44.3849
 21
-17.6582
  0
LINE
  8
0
 10
44.3849
 20
-17.6582
 11
44.3143
 21
-17.7074
  0
LINE
  8
0
 10
44.3143
 20
-17.7074
 11
44.2419
 21
-17.7532
  0
LINE
  8
0
 10
44.2419
 20
-17.7532
 11
44.1675
 21
-17.7962
  0
LINE
  8
0
 10
44.1675
 20
-17.7962
 11
44.0915
 21
-17.8361
  0
LINE
  8
0
 10
44.0915
 20
-17.8361
 11
44.0136
 21
-17.8726
  0
LINE
  8
0
 10
44.0136
 20
-17.8726
 11
43.9345
 21
-17.9059
  0
LINE
  8
0
 10
43.9345
 20
-17.9059
 11
43.8539
 21
-17.9357
  0
LINE
  8
0
 10
43.8539
 20
-17.9357
 11
43.7721
 21
-17.9625
  0
LINE
  8
0
 10
43.7721
 20
-17.9625
 11
43.6896
 21
-17.9853
  0
LINE
  8
0
 10
43.6896
 20
-17.9853
 11
43.6059
 21
-18.0051
  0
LINE
  8
0
 10
43.6059
 20
-18.0051
 11
43.5218
 21
-18.021
  0
LINE
  8
0
 10
43.5218
 20
-18.021
 11
43.4369
 21
-18.0338
  0
LINE
  8
0
 10
43.4369
 20
-18.0338
 11
43.3512
 21
-18.0427
  0
LINE
  8
0
 10
43.3512
 20
-18.0427
 11
43.2656
 21
-18.0481
  0
LINE
  8
0
 10
43.2656
 20
-18.0481
 11
43.1799
 21
-18.0497
  0
LINE
  8
0
 10
43.1799
 20
-18.0497
 11
43.0939
 21
-18.0481
  0
LINE
  8
0
 10
-43.2656
 20
-18.0481
 11
-43.3512
 21
-18.0427
  0
LINE
  8
0
 10
-43.3512
 20
-18.0427
 11
-43.4369
 21
-18.0338
  0
LINE
  8
0
 10
-43.4369
 20
-18.0338
 11
-43.5218
 21
-18.021
  0
LINE
  8
0
 10
-43.5218
 20
-18.021
 11
-43.6059
 21
-18.0051
  0
LINE
  8
0
 10
-43.6059
 20
-18.0051
 11
-43.6896
 21
-17.9853
  0
LINE
  8
0
 10
-43.6896
 20
-17.9853
 11
-43.7721
 21
-17.9625
  0
LINE
  8
0
 10
-43.7721
 20
-17.9625
 11
-43.8539
 21
-17.9357
  0
LINE
  8
0
 10
-43.8539
 20
-17.9357
 11
-43.9345
 21
-17.9059
  0
LINE
  8
0
 10
-43.9345
 20
-17.9059
 11
-44.0136
 21
-17.8726
  0
LINE
  8
0
 10
-44.0136
 20
-17.8726
 11
-44.0915
 21
-17.8361
  0
LINE
  8
0
 10
-44.0915
 20
-17.8361
 11
-44.1675
 21
-17.7962
  0
LINE
  8
0
 10
-44.1675
 20
-17.7962
 11
-44.2419
 21
-17.7532
  0
LINE
  8
0
 10
-44.2419
 20
-17.7532
 11
-44.3143
 21
-17.7074
  0
LINE
  8
0
 10
-44.3143
 20
-17.7074
 11
-44.3849
 21
-17.6582
  0
LINE
  8
0
 10
-44.3849
 20
-17.6582
 11
-44.4531
 21
-17.6063
  0
LINE
  8
0
 10
-44.4531
 20
-17.6063
 11
-44.5194
 21
-17.5516
  0
LINE
  8
0
 10
-44.5194
 20
-17.5516
 11
-44.5829
 21
-17.4943
  0
LINE
  8
0
 10
-44.5829
 20
-17.4943
 11
-44.6446
 21
-17.4342
  0
LINE
  8
0
 10
-44.6446
 20
-17.4342
 11
-44.7031
 21
-17.3714
  0
LINE
  8
0
 10
-44.7031
 20
-17.3714
 11
-44.7593
 21
-17.3067
  0
LINE
  8
0
 10
-44.7593
 20
-17.3067
 11
-44.8128
 21
-17.2393
  0
LINE
  8
0
 10
-44.8128
 20
-17.2393
 11
-44.8632
 21
-17.1699
  0
LINE
  8
0
 10
-44.8632
 20
-17.1699
 11
-44.9108
 21
-17.0982
  0
LINE
  8
0
 10
-44.9108
 20
-17.0982
 11
-44.955
 21
-17.0249
  0
LINE
  8
0
 10
-44.955
 20
-17.0249
 11
-44.9965
 21
-16.9497
  0
LINE
  8
0
 10
-44.9965
 20
-16.9497
 11
-45.0348
 21
-16.8726
  0
LINE
  8
0
 10
-45.0348
 20
-16.8726
 11
-45.0697
 21
-16.7943
  0
LINE
  8
0
 10
-45.0697
 20
-16.7943
 11
-45.1011
 21
-16.7145
  0
LINE
  8
0
 10
-45.1011
 20
-16.7145
 11
-45.1294
 21
-16.6335
  0
LINE
  8
0
 10
-45.1294
 20
-16.6335
 11
-45.1542
 21
-16.5509
  0
LINE
  8
0
 10
-45.1542
 20
-16.5509
 11
-45.1755
 21
-16.468
  0
LINE
  8
0
 10
-45.1755
 20
-16.468
 11
-45.1934
 21
-16.3839
  0
LINE
  8
0
 10
-45.1934
 20
-16.3839
 11
-45.2077
 21
-16.2994
  0
LINE
  8
0
 10
-45.2077
 20
-16.2994
 11
-45.2186
 21
-16.2141
  0
LINE
  8
0
 10
-45.2186
 20
-16.2141
 11
-45.2259
 21
-16.1285
  0
LINE
  8
0
 10
-45.2259
 20
-16.1285
 11
-45.2294
 21
-16.0428
  0
LINE
  8
0
 10
-45.2294
 20
-16.0428
 11
-45.2294
 21
-15.9568
  0
LINE
  8
0
 10
-45.2294
 20
-15.9568
 11
-45.2259
 21
-15.8711
  0
LINE
  8
0
 10
-45.2259
 20
-15.8711
 11
-45.2186
 21
-15.7855
  0
LINE
  8
0
 10
-45.2186
 20
-15.7855
 11
-45.2077
 21
-15.7002
  0
LINE
  8
0
 10
-45.2077
 20
-15.7002
 11
-45.1934
 21
-15.6157
  0
LINE
  8
0
 10
-45.1934
 20
-15.6157
 11
-45.1755
 21
-15.5316
  0
LINE
  8
0
 10
-45.1755
 20
-15.5316
 11
-45.1542
 21
-15.4487
  0
LINE
  8
0
 10
-45.1542
 20
-15.4487
 11
-45.1294
 21
-15.3665
  0
LINE
  8
0
 10
-45.1294
 20
-15.3665
 11
-45.1011
 21
-15.2851
  0
LINE
  8
0
 10
-45.1011
 20
-15.2851
 11
-45.0697
 21
-15.2053
  0
LINE
  8
0
 10
-45.0697
 20
-15.2053
 11
-45.0348
 21
-15.127
  0
LINE
  8
0
 10
-45.0348
 20
-15.127
 11
-44.9965
 21
-15.0502
  0
LINE
  8
0
 10
-44.9965
 20
-15.0502
 11
-44.955
 21
-14.9747
  0
LINE
  8
0
 10
-44.955
 20
-14.9747
 11
-44.9108
 21
-14.9014
  0
LINE
  8
0
 10
-44.9108
 20
-14.9014
 11
-44.8632
 21
-14.8297
  0
LINE
  8
0
 10
-44.8632
 20
-14.8297
 11
-44.8128
 21
-14.7603
  0
LINE
  8
0
 10
-44.8128
 20
-14.7603
 11
-44.7593
 21
-14.6929
  0
LINE
  8
0
 10
-44.7593
 20
-14.6929
 11
-44.7031
 21
-14.6282
  0
LINE
  8
0
 10
-44.7031
 20
-14.6282
 11
-44.6446
 21
-14.5654
  0
LINE
  8
0
 10
-44.6446
 20
-14.5654
 11
-44.5829
 21
-14.5053
  0
LINE
  8
0
 10
-44.5829
 20
-14.5053
 11
-44.5194
 21
-14.448
  0
LINE
  8
0
 10
-44.5194
 20
-14.448
 11
-44.4531
 21
-14.3933
  0
LINE
  8
0
 10
-44.4531
 20
-14.3933
 11
-44.3849
 21
-14.3414
  0
LINE
  8
0
 10
-44.3849
 20
-14.3414
 11
-44.3143
 21
-14.2922
  0
LINE
  8
0
 10
-44.3143
 20
-14.2922
 11
-44.2419
 21
-14.2464
  0
LINE
  8
0
 10
-44.2419
 20
-14.2464
 11
-44.1675
 21
-14.2034
  0
LINE
  8
0
 10
-44.1675
 20
-14.2034
 11
-44.0915
 21
-14.1635
  0
LINE
  8
0
 10
-44.0915
 20
-14.1635
 11
-44.0136
 21
-14.127
  0
LINE
  8
0
 10
-44.0136
 20
-14.127
 11
-43.9345
 21
-14.0937
  0
LINE
  8
0
 10
-43.9345
 20
-14.0937
 11
-43.8539
 21
-14.0639
  0
LINE
  8
0
 10
-43.8539
 20
-14.0639
 11
-43.7721
 21
-14.0371
  0
LINE
  8
0
 10
-43.7721
 20
-14.0371
 11
-43.6896
 21
-14.0143
  0
LINE
  8
0
 10
-43.6896
 20
-14.0143
 11
-43.6059
 21
-13.9945
  0
LINE
  8
0
 10
-43.6059
 20
-13.9945
 11
-43.5218
 21
-13.9786
  0
LINE
  8
0
 10
-43.5218
 20
-13.9786
 11
-43.4369
 21
-13.9658
  0
LINE
  8
0
 10
-43.4369
 20
-13.9658
 11
-43.3512
 21
-13.9569
  0
LINE
  8
0
 10
-43.3512
 20
-13.9569
 11
-43.2656
 21
-13.9515
  0
LINE
  8
0
 10
-43.2656
 20
-13.9515
 11
-43.1799
 21
-13.9499
  0
LINE
  8
0
 10
-43.1799
 20
-13.9499
 11
-43.0939
 21
-13.9515
  0
LINE
  8
0
 10
-43.0939
 20
-13.9515
 11
-43.0082
 21
-13.9569
  0
LINE
  8
0
 10
-43.0082
 20
-13.9569
 11
-42.923
 21
-13.9658
  0
LINE
  8
0
 10
-42.923
 20
-13.9658
 11
-42.8381
 21
-13.9786
  0
LINE
  8
0
 10
-42.8381
 20
-13.9786
 11
-42.7536
 21
-13.9945
  0
LINE
  8
0
 10
-42.7536
 20
-13.9945
 11
-42.6699
 21
-14.0143
  0
LINE
  8
0
 10
-42.6699
 20
-14.0143
 11
-42.5873
 21
-14.0371
  0
LINE
  8
0
 10
-42.5873
 20
-14.0371
 11
-42.5055
 21
-14.0639
  0
LINE
  8
0
 10
-42.5055
 20
-14.0639
 11
-42.4253
 21
-14.0937
  0
LINE
  8
0
 10
-42.4253
 20
-14.0937
 11
-42.3459
 21
-14.127
  0
LINE
  8
0
 10
-42.3459
 20
-14.127
 11
-42.2684
 21
-14.1635
  0
LINE
  8
0
 10
-42.2684
 20
-14.1635
 11
-42.1924
 21
-14.2034
  0
LINE
  8
0
 10
-42.1924
 20
-14.2034
 11
-42.118
 21
-14.2464
  0
LINE
  8
0
 10
-42.118
 20
-14.2464
 11
-42.0455
 21
-14.2922
  0
LINE
  8
0
 10
-42.0455
 20
-14.2922
 11
-41.975
 21
-14.3414
  0
LINE
  8
0
 10
-41.975
 20
-14.3414
 11
-41.9064
 21
-14.3933
  0
LINE
  8
0
 10
-41.9064
 20
-14.3933
 11
-41.8405
 21
-14.448
  0
LINE
  8
0
 10
-41.8405
 20
-14.448
 11
-41.7765
 21
-14.5053
  0
LINE
  8
0
 10
-41.7765
 20
-14.5053
 11
-41.7153
 21
-14.5654
  0
LINE
  8
0
 10
-41.7153
 20
-14.5654
 11
-41.6564
 21
-14.6282
  0
LINE
  8
0
 10
-41.6564
 20
-14.6282
 11
-41.6002
 21
-14.6929
  0
LINE
  8
0
 10
-41.6002
 20
-14.6929
 11
-41.5471
 21
-14.7603
  0
LINE
  8
0
 10
-41.5471
 20
-14.7603
 11
-41.4963
 21
-14.8297
  0
LINE
  8
0
 10
-41.4963
 20
-14.8297
 11
-41.449
 21
-14.9014
  0
LINE
  8
0
 10
-41.449
 20
-14.9014
 11
-41.4044
 21
-14.9747
  0
LINE
  8
0
 10
-41.4044
 20
-14.9747
 11
-41.363
 21
-15.0502
  0
LINE
  8
0
 10
-41.363
 20
-15.0502
 11
-41.325
 21
-15.127
  0
LINE
  8
0
 10
-41.325
 20
-15.127
 11
-41.2901
 21
-15.2053
  0
LINE
  8
0
 10
-41.2901
 20
-15.2053
 11
-41.2583
 21
-15.2851
  0
LINE
  8
0
 10
-41.2583
 20
-15.2851
 11
-41.23
 21
-15.3665
  0
LINE
  8
0
 10
-41.23
 20
-15.3665
 11
-41.2052
 21
-15.4487
  0
LINE
  8
0
 10
-41.2052
 20
-15.4487
 11
-41.1839
 21
-15.5316
  0
LINE
  8
0
 10
-41.1839
 20
-15.5316
 11
-41.1661
 21
-15.6157
  0
LINE
  8
0
 10
-41.1661
 20
-15.6157
 11
-41.1518
 21
-15.7002
  0
LINE
  8
0
 10
-41.1518
 20
-15.7002
 11
-41.1409
 21
-15.7855
  0
LINE
  8
0
 10
-41.1409
 20
-15.7855
 11
-41.1339
 21
-15.8711
  0
LINE
  8
0
 10
-41.1339
 20
-15.8711
 11
-41.1304
 21
-15.9568
  0
LINE
  8
0
 10
-41.1304
 20
-15.9568
 11
-41.1304
 21
-16.0428
  0
LINE
  8
0
 10
-41.1304
 20
-16.0428
 11
-41.1339
 21
-16.1285
  0
LINE
  8
0
 10
-41.1339
 20
-16.1285
 11
-41.1409
 21
-16.2141
  0
LINE
  8
0
 10
-41.1409
 20
-16.2141
 11
-41.1518
 21
-16.2994
  0
LINE
  8
0
 10
-41.1518
 20
-16.2994
 11
-41.1661
 21
-16.3839
  0
LINE
  8
0
 10
-41.1661
 20
-16.3839
 11
-41.1839
 21
-16.468
  0
LINE
  8
0
 10
-41.1839
 20
-16.468
 11
-41.2052
 21
-16.5509
  0
LINE
  8
0
 10
-41.2052
 20
-16.5509
 11
-41.23
 21
-16.6335
  0
LINE
  8
0
 10
-41.23
 20
-16.6335
 11
-41.2583
 21
-16.7145
  0
LINE
  8
0
 10
-41.2583
 20
-16.7145
 11
-41.2901
 21
-16.7943
  0
LINE
  8
0
 10
-41.2901
 20
-16.7943
 11
-41.325
 21
-16.8726
  0
LINE
  8
0
 10
-41.325
 20
-16.8726
 11
-41.363
 21
-16.9497
  0
LINE
  8
0
 10
-41.363
 20
-16.9497
 11
-41.4044
 21
-17.0249
  0
LINE
  8
0
 10
-41.4044
 20
-17.0249
 11
-41.449
 21
-17.0982
  0
LINE
  8
0
 10
-41.449
 20
-17.0982
 11
-41.4963
 21
-17.1699
  0
LINE
  8
0
 10
-41.4963
 20
-17.1699
 11
-41.5471
 21
-17.2393
  0
LINE
  8
0
 10
-41.5471
 20
-17.2393
 11
-41.6002
 21
-17.3067
  0
LINE
  8
0
 10
-41.6002
 20
-17.3067
 11
-41.6564
 21
-17.3714
  0
LINE
  8
0
 10
-41.6564
 20
-17.3714
 11
-41.7153
 21
-17.4342
  0
LINE
  8
0
 10
-41.7153
 20
-17.4342
 11
-41.7765
 21
-17.4943
  0
LINE
  8
0
 10
-41.7765
 20
-17.4943
 11
-41.8405
 21
-17.5516
  0
LINE
  8
0
 10
-41.8405
 20
-17.5516
 11
-41.9064
 21
-17.6063
  0
LINE
  8
0
 10
-41.9064
 20
-17.6063
 11
-41.975
 21
-17.6582
  0
LINE
  8
0
 10
-41.975
 20
-17.6582
 11
-42.0455
 21
-17.7074
  0
LINE
  8
0
 10
-42.0455
 20
-17.7074
 11
-42.118
 21
-17.7532
  0
LINE
  8
0
 10
-42.118
 20
-17.7532
 11
-42.1924
 21
-17.7962
  0
LINE
  8
0
 10
-42.1924
 20
-17.7962
 11
-42.2684
 21
-17.8361
  0
LINE
  8
0
 10
-42.2684
 20
-17.8361
 11
-42.3459
 21
-17.8726
  0
LINE
  8
0
 10
-42.3459
 20
-17.8726
 11
-42.4253
 21
-17.9059
  0
LINE
  8
0
 10
-42.4253
 20
-17.9059
 11
-42.5055
 21
-17.9357
  0
LINE
  8
0
 10
-42.5055
 20
-17.9357
 11
-42.5873
 21
-17.9625
  0
LINE
  8
0
 10
-42.5873
 20
-17.9625
 11
-42.6699
 21
-17.9853
  0
LINE
  8
0
 10
-42.6699
 20
-17.9853
 11
-42.7536
 21
-18.0051
  0
LINE
  8
0
 10
-42.7536
 20
-18.0051
 11
-42.8381
 21
-18.021
  0
LINE
  8
0
 10
-42.8381
 20
-18.021
 11
-42.923
 21
-18.0338
  0
LINE
  8
0
 10
-42.923
 20
-18.0338
 11
-43.0082
 21
-18.0427
  0
LINE
  8
0
 10
-43.0082
 20
-18.0427
 11
-43.0939
 21
-18.0481
  0
LINE
  8
0
 10
-43.0939
 20
-18.0481
 11
-43.1799
 21
-18.0497
  0
LINE
  8
0
 10
-43.1799
 20
-18.0497
 11
-43.2656
 21
-18.0481
  0
LINE
  8
0
 10
-43.2656
 20
-34.0479
 11
-43.3512
 21
-34.0425
  0
LINE
  8
0
 10
-43.3512
 20
-34.0425
 11
-43.4369
 21
-34.0336
  0
LINE
  8
0
 10
-43.4369
 20
-34.0336
 11
-43.5218
 21
-34.0212
  0
LINE
  8
0
 10
-43.5218
 20
-34.0212
 11
-43.6059
 21
-34.0049
  0
LINE
  8
0
 10
-43.6059
 20
-34.0049
 11
-43.6896
 21
-33.9855
  0
LINE
  8
0
 10
-43.6896
 20
-33.9855
 11
-43.7721
 21
-33.9623
  0
LINE
  8
0
 10
-43.7721
 20
-33.9623
 11
-43.8539
 21
-33.9359
  0
LINE
  8
0
 10
-43.8539
 20
-33.9359
 11
-43.9345
 21
-33.9057
  0
LINE
  8
0
 10
-43.9345
 20
-33.9057
 11
-44.0136
 21
-33.8727
  0
LINE
  8
0
 10
-44.0136
 20
-33.8727
 11
-44.0915
 21
-33.8359
  0
LINE
  8
0
 10
-44.0915
 20
-33.8359
 11
-44.1675
 21
-33.7964
  0
LINE
  8
0
 10
-44.1675
 20
-33.7964
 11
-44.2419
 21
-33.7534
  0
LINE
  8
0
 10
-44.2419
 20
-33.7534
 11
-44.3143
 21
-33.7072
  0
LINE
  8
0
 10
-44.3143
 20
-33.7072
 11
-44.3849
 21
-33.6584
  0
LINE
  8
0
 10
-44.3849
 20
-33.6584
 11
-44.4531
 21
-33.6065
  0
LINE
  8
0
 10
-44.4531
 20
-33.6065
 11
-44.5194
 21
-33.5518
  0
LINE
  8
0
 10
-44.5194
 20
-33.5518
 11
-44.5829
 21
-33.4941
  0
LINE
  8
0
 10
-44.5829
 20
-33.4941
 11
-44.6446
 21
-33.434
  0
LINE
  8
0
 10
-44.6446
 20
-33.434
 11
-44.7031
 21
-33.3716
  0
LINE
  8
0
 10
-44.7031
 20
-33.3716
 11
-44.7593
 21
-33.3065
  0
LINE
  8
0
 10
-44.7593
 20
-33.3065
 11
-44.8128
 21
-33.2391
  0
LINE
  8
0
 10
-44.8128
 20
-33.2391
 11
-44.8632
 21
-33.1697
  0
LINE
  8
0
 10
-44.8632
 20
-33.1697
 11
-44.9108
 21
-33.0984
  0
LINE
  8
0
 10
-44.9108
 20
-33.0984
 11
-44.955
 21
-33.0247
  0
LINE
  8
0
 10
-44.955
 20
-33.0247
 11
-44.9965
 21
-32.9495
  0
LINE
  8
0
 10
-44.9965
 20
-32.9495
 11
-45.0348
 21
-32.8728
  0
LINE
  8
0
 10
-45.0348
 20
-32.8728
 11
-45.0697
 21
-32.7941
  0
LINE
  8
0
 10
-45.0697
 20
-32.7941
 11
-45.1011
 21
-32.7143
  0
LINE
  8
0
 10
-45.1011
 20
-32.7143
 11
-45.1294
 21
-32.6333
  0
LINE
  8
0
 10
-45.1294
 20
-32.6333
 11
-45.1542
 21
-32.5511
  0
LINE
  8
0
 10
-45.1542
 20
-32.5511
 11
-45.1755
 21
-32.4678
  0
LINE
  8
0
 10
-45.1755
 20
-32.4678
 11
-45.1934
 21
-32.3841
  0
LINE
  8
0
 10
-45.1934
 20
-32.3841
 11
-45.2077
 21
-32.2992
  0
LINE
  8
0
 10
-45.2077
 20
-32.2992
 11
-45.2186
 21
-32.2139
  0
LINE
  8
0
 10
-45.2186
 20
-32.2139
 11
-45.2259
 21
-32.1287
  0
LINE
  8
0
 10
-45.2259
 20
-32.1287
 11
-45.2294
 21
-32.0426
  0
LINE
  8
0
 10
-45.2294
 20
-32.0426
 11
-45.2294
 21
-31.957
  0
LINE
  8
0
 10
-45.2294
 20
-31.957
 11
-45.2259
 21
-31.8709
  0
LINE
  8
0
 10
-45.2259
 20
-31.8709
 11
-45.2186
 21
-31.7857
  0
LINE
  8
0
 10
-45.2186
 20
-31.7857
 11
-45.2077
 21
-31.7004
  0
LINE
  8
0
 10
-45.2077
 20
-31.7004
 11
-45.1934
 21
-31.6155
  0
LINE
  8
0
 10
-45.1934
 20
-31.6155
 11
-45.1755
 21
-31.5318
  0
LINE
  8
0
 10
-45.1755
 20
-31.5318
 11
-45.1542
 21
-31.4485
  0
LINE
  8
0
 10
-45.1542
 20
-31.4485
 11
-45.1294
 21
-31.3663
  0
LINE
  8
0
 10
-45.1294
 20
-31.3663
 11
-45.1011
 21
-31.2853
  0
LINE
  8
0
 10
-45.1011
 20
-31.2853
 11
-45.0697
 21
-31.2055
  0
LINE
  8
0
 10
-45.0697
 20
-31.2055
 11
-45.0348
 21
-31.1268
  0
LINE
  8
0
 10
-45.0348
 20
-31.1268
 11
-44.9965
 21
-31.05
  0
LINE
  8
0
 10
-44.9965
 20
-31.05
 11
-44.955
 21
-30.9749
  0
LINE
  8
0
 10
-44.955
 20
-30.9749
 11
-44.9108
 21
-30.9012
  0
LINE
  8
0
 10
-44.9108
 20
-30.9012
 11
-44.8632
 21
-30.8299
  0
LINE
  8
0
 10
-44.8632
 20
-30.8299
 11
-44.8128
 21
-30.7605
  0
LINE
  8
0
 10
-44.8128
 20
-30.7605
 11
-44.7593
 21
-30.6931
  0
LINE
  8
0
 10
-44.7593
 20
-30.6931
 11
-44.7031
 21
-30.628
  0
LINE
  8
0
 10
-44.7031
 20
-30.628
 11
-44.6446
 21
-30.5656
  0
LINE
  8
0
 10
-44.6446
 20
-30.5656
 11
-44.5829
 21
-30.5055
  0
LINE
  8
0
 10
-44.5829
 20
-30.5055
 11
-44.5194
 21
-30.4481
  0
LINE
  8
0
 10
-44.5194
 20
-30.4481
 11
-44.4531
 21
-30.3931
  0
LINE
  8
0
 10
-44.4531
 20
-30.3931
 11
-44.3849
 21
-30.3412
  0
LINE
  8
0
 10
-44.3849
 20
-30.3412
 11
-44.3143
 21
-30.2923
  0
LINE
  8
0
 10
-44.3143
 20
-30.2923
 11
-44.2419
 21
-30.2462
  0
LINE
  8
0
 10
-44.2419
 20
-30.2462
 11
-44.1675
 21
-30.2032
  0
LINE
  8
0
 10
-44.1675
 20
-30.2032
 11
-44.0915
 21
-30.1637
  0
LINE
  8
0
 10
-44.0915
 20
-30.1637
 11
-44.0136
 21
-30.1272
  0
LINE
  8
0
 10
-44.0136
 20
-30.1272
 11
-43.9345
 21
-30.0939
  0
LINE
  8
0
 10
-43.9345
 20
-30.0939
 11
-43.8539
 21
-30.0637
  0
LINE
  8
0
 10
-43.8539
 20
-30.0637
 11
-43.7721
 21
-30.0373
  0
LINE
  8
0
 10
-43.7721
 20
-30.0373
 11
-43.6896
 21
-30.0141
  0
LINE
  8
0
 10
-43.6896
 20
-30.0141
 11
-43.6059
 21
-29.9947
  0
LINE
  8
0
 10
-43.6059
 20
-29.9947
 11
-43.5218
 21
-29.9784
  0
LINE
  8
0
 10
-43.5218
 20
-29.9784
 11
-43.4369
 21
-29.966
  0
LINE
  8
0
 10
-43.4369
 20
-29.966
 11
-43.3512
 21
-29.9571
  0
LINE
  8
0
 10
-43.3512
 20
-29.9571
 11
-43.2656
 21
-29.9517
  0
LINE
  8
0
 10
-43.2656
 20
-29.9517
 11
-43.1799
 21
-29.9497
  0
LINE
  8
0
 10
-43.1799
 20
-29.9497
 11
-43.0939
 21
-29.9517
  0
LINE
  8
0
 10
-43.0939
 20
-29.9517
 11
-43.0082
 21
-29.9571
  0
LINE
  8
0
 10
-43.0082
 20
-29.9571
 11
-42.923
 21
-29.966
  0
LINE
  8
0
 10
-42.923
 20
-29.966
 11
-42.8381
 21
-29.9784
  0
LINE
  8
0
 10
-42.8381
 20
-29.9784
 11
-42.7536
 21
-29.9947
  0
LINE
  8
0
 10
-42.7536
 20
-29.9947
 11
-42.6699
 21
-30.0141
  0
LINE
  8
0
 10
-42.6699
 20
-30.0141
 11
-42.5873
 21
-30.0373
  0
LINE
  8
0
 10
-42.5873
 20
-30.0373
 11
-42.5055
 21
-30.0637
  0
LINE
  8
0
 10
-42.5055
 20
-30.0637
 11
-42.4253
 21
-30.0939
  0
LINE
  8
0
 10
-42.4253
 20
-30.0939
 11
-42.3459
 21
-30.1272
  0
LINE
  8
0
 10
-42.3459
 20
-30.1272
 11
-42.2684
 21
-30.1637
  0
LINE
  8
0
 10
-42.2684
 20
-30.1637
 11
-42.1924
 21
-30.2032
  0
LINE
  8
0
 10
-42.1924
 20
-30.2032
 11
-42.118
 21
-30.2462
  0
LINE
  8
0
 10
-42.118
 20
-30.2462
 11
-42.0455
 21
-30.2923
  0
LINE
  8
0
 10
-42.0455
 20
-30.2923
 11
-41.975
 21
-30.3412
  0
LINE
  8
0
 10
-41.975
 20
-30.3412
 11
-41.9064
 21
-30.3931
  0
LINE
  8
0
 10
-41.9064
 20
-30.3931
 11
-41.8405
 21
-30.4481
  0
LINE
  8
0
 10
-41.8405
 20
-30.4481
 11
-41.7765
 21
-30.5055
  0
LINE
  8
0
 10
-41.7765
 20
-30.5055
 11
-41.7153
 21
-30.5656
  0
LINE
  8
0
 10
-41.7153
 20
-30.5656
 11
-41.6564
 21
-30.628
  0
LINE
  8
0
 10
-41.6564
 20
-30.628
 11
-41.6002
 21
-30.6931
  0
LINE
  8
0
 10
-41.6002
 20
-30.6931
 11
-41.5471
 21
-30.7605
  0
LINE
  8
0
 10
-41.5471
 20
-30.7605
 11
-41.4963
 21
-30.8299
  0
LINE
  8
0
 10
-41.4963
 20
-30.8299
 11
-41.449
 21
-30.9012
  0
LINE
  8
0
 10
-41.449
 20
-30.9012
 11
-41.4044
 21
-30.9749
  0
LINE
  8
0
 10
-41.4044
 20
-30.9749
 11
-41.363
 21
-31.05
  0
LINE
  8
0
 10
-41.363
 20
-31.05
 11
-41.325
 21
-31.1268
  0
LINE
  8
0
 10
-41.325
 20
-31.1268
 11
-41.2901
 21
-31.2055
  0
LINE
  8
0
 10
-41.2901
 20
-31.2055
 11
-41.2583
 21
-31.2853
  0
LINE
  8
0
 10
-41.2583
 20
-31.2853
 11
-41.23
 21
-31.3663
  0
LINE
  8
0
 10
-41.23
 20
-31.3663
 11
-41.2052
 21
-31.4485
  0
LINE
  8
0
 10
-41.2052
 20
-31.4485
 11
-41.1839
 21
-31.5318
  0
LINE
  8
0
 10
-41.1839
 20
-31.5318
 11
-41.1661
 21
-31.6155
  0
LINE
  8
0
 10
-41.1661
 20
-31.6155
 11
-41.1518
 21
-31.7004
  0
LINE
  8
0
 10
-41.1518
 20
-31.7004
 11
-41.1409
 21
-31.7857
  0
LINE
  8
0
 10
-41.1409
 20
-31.7857
 11
-41.1339
 21
-31.8709
  0
LINE
  8
0
 10
-41.1339
 20
-31.8709
 11
-41.1304
 21
-31.957
  0
LINE
  8
0
 10
-41.1304
 20
-31.957
 11
-41.1304
 21
-32.0426
  0
LINE
  8
0
 10
-41.1304
 20
-32.0426
 11
-41.1339
 21
-32.1287
  0
LINE
  8
0
 10
-41.1339
 20
-32.1287
 11
-41.1409
 21
-32.2139
  0
LINE
  8
0
 10
-41.1409
 20
-32.2139
 11
-41.1518
 21
-32.2992
  0
LINE
  8
0
 10
-41.1518
 20
-32.2992
 11
-41.1661
 21
-32.3841
  0
LINE
  8
0
 10
-41.1661
 20
-32.3841
 11
-41.1839
 21
-32.4678
  0
LINE
  8
0
 10
-41.1839
 20
-32.4678
 11
-41.2052
 21
-32.5511
  0
LINE
  8
0
 10
-41.2052
 20
-32.5511
 11
-41.23
 21
-32.6333
  0
LINE
  8
0
 10
-41.23
 20
-32.6333
 11
-41.2583
 21
-32.7143
  0
LINE
  8
0
 10
-41.2583
 20
-32.7143
 11
-41.2901
 21
-32.7941
  0
LINE
  8
0
 10
-41.2901
 20
-32.7941
 11
-41.325
 21
-32.8728
  0
LINE
  8
0
 10
-41.325
 20
-32.8728
 11
-41.363
 21
-32.9495
  0
LINE
  8
0
 10
-41.363
 20
-32.9495
 11
-41.4044
 21
-33.0247
  0
LINE
  8
0
 10
-41.4044
 20
-33.0247
 11
-41.449
 21
-33.0984
  0
LINE
  8
0
 10
-41.449
 20
-33.0984
 11
-41.4963
 21
-33.1697
  0
LINE
  8
0
 10
-41.4963
 20
-33.1697
 11
-41.5471
 21
-33.2391
  0
LINE
  8
0
 10
-41.5471
 20
-33.2391
 11
-41.6002
 21
-33.3065
  0
LINE
  8
0
 10
-41.6002
 20
-33.3065
 11
-41.6564
 21
-33.3716
  0
LINE
  8
0
 10
-41.6564
 20
-33.3716
 11
-41.7153
 21
-33.434
  0
LINE
  8
0
 10
-41.7153
 20
-33.434
 11
-41.7765
 21
-33.4941
  0
LINE
  8
0
 10
-41.7765
 20
-33.4941
 11
-41.8405
 21
-33.5518
  0
LINE
  8
0
 10
-41.8405
 20
-33.5518
 11
-41.9064
 21
-33.6065
  0
LINE
  8
0
 10
-41.9064
 20
-33.6065
 11
-41.975
 21
-33.6584
  0
LINE
  8
0
 10
-41.975
 20
-33.6584
 11
-42.0455
 21
-33.7072
  0
LINE
  8
0
 10
-42.0455
 20
-33.7072
 11
-42.118
 21
-33.7534
  0
LINE
  8
0
 10
-42.118
 20
-33.7534
 11
-42.1924
 21
-33.7964
  0
LINE
  8
0
 10
-42.1924
 20
-33.7964
 11
-42.2684
 21
-33.8359
  0
LINE
  8
0
 10
-42.2684
 20
-33.8359
 11
-42.3459
 21
-33.8727
  0
LINE
  8
0
 10
-42.3459
 20
-33.8727
 11
-42.4253
 21
-33.9057
  0
LINE
  8
0
 10
-42.4253
 20
-33.9057
 11
-42.5055
 21
-33.9359
  0
LINE
  8
0
 10
-42.5055
 20
-33.9359
 11
-42.5873
 21
-33.9623
  0
LINE
  8
0
 10
-42.5873
 20
-33.9623
 11
-42.6699
 21
-33.9855
  0
LINE
  8
0
 10
-42.6699
 20
-33.9855
 11
-42.7536
 21
-34.0049
  0
LINE
  8
0
 10
-42.7536
 20
-34.0049
 11
-42.8381
 21
-34.0212
  0
LINE
  8
0
 10
-42.8381
 20
-34.0212
 11
-42.923
 21
-34.0336
  0
LINE
  8
0
 10
-42.923
 20
-34.0336
 11
-43.0082
 21
-34.0425
  0
LINE
  8
0
 10
-43.0082
 20
-34.0425
 11
-43.0939
 21
-34.0479
  0
LINE
  8
0
 10
-43.0939
 20
-34.0479
 11
-43.1799
 21
-34.0499
  0
LINE
  8
0
 10
-43.1799
 20
-34.0499
 11
-43.2656
 21
-34.0479
  0
LINE
  8
0
 10
43.0939
 20
-34.0479
 11
43.0082
 21
-34.0425
  0
LINE
  8
0
 10
43.0082
 20
-34.0425
 11
42.923
 21
-34.0336
  0
LINE
  8
0
 10
42.923
 20
-34.0336
 11
42.8381
 21
-34.0212
  0
LINE
  8
0
 10
42.8381
 20
-34.0212
 11
42.7536
 21
-34.0049
  0
LINE
  8
0
 10
42.7536
 20
-34.0049
 11
42.6699
 21
-33.9855
  0
LINE
  8
0
 10
42.6699
 20
-33.9855
 11
42.5873
 21
-33.9623
  0
LINE
  8
0
 10
42.5873
 20
-33.9623
 11
42.5055
 21
-33.9359
  0
LINE
  8
0
 10
42.5055
 20
-33.9359
 11
42.4253
 21
-33.9057
  0
LINE
  8
0
 10
42.4253
 20
-33.9057
 11
42.3459
 21
-33.8727
  0
LINE
  8
0
 10
42.3459
 20
-33.8727
 11
42.2684
 21
-33.8359
  0
LINE
  8
0
 10
42.2684
 20
-33.8359
 11
42.1924
 21
-33.7964
  0
LINE
  8
0
 10
42.1924
 20
-33.7964
 11
42.118
 21
-33.7534
  0
LINE
  8
0
 10
42.118
 20
-33.7534
 11
42.0455
 21
-33.7072
  0
LINE
  8
0
 10
42.0455
 20
-33.7072
 11
41.975
 21
-33.6584
  0
LINE
  8
0
 10
41.975
 20
-33.6584
 11
41.9064
 21
-33.6065
  0
LINE
  8
0
 10
41.9064
 20
-33.6065
 11
41.8405
 21
-33.5518
  0
LINE
  8
0
 10
41.8405
 20
-33.5518
 11
41.7765
 21
-33.4941
  0
LINE
  8
0
 10
41.7765
 20
-33.4941
 11
41.7153
 21
-33.434
  0
LINE
  8
0
 10
41.7153
 20
-33.434
 11
41.6564
 21
-33.3716
  0
LINE
  8
0
 10
41.6564
 20
-33.3716
 11
41.6002
 21
-33.3065
  0
LINE
  8
0
 10
41.6002
 20
-33.3065
 11
41.5471
 21
-33.2391
  0
LINE
  8
0
 10
41.5471
 20
-33.2391
 11
41.4963
 21
-33.1697
  0
LINE
  8
0
 10
41.4963
 20
-33.1697
 11
41.449
 21
-33.0984
  0
LINE
  8
0
 10
41.449
 20
-33.0984
 11
41.4044
 21
-33.0247
  0
LINE
  8
0
 10
41.4044
 20
-33.0247
 11
41.363
 21
-32.9495
  0
LINE
  8
0
 10
41.363
 20
-32.9495
 11
41.325
 21
-32.8728
  0
LINE
  8
0
 10
41.325
 20
-32.8728
 11
41.2901
 21
-32.7941
  0
LINE
  8
0
 10
41.2901
 20
-32.7941
 11
41.2583
 21
-32.7143
  0
LINE
  8
0
 10
41.2583
 20
-32.7143
 11
41.23
 21
-32.6333
  0
LINE
  8
0
 10
41.23
 20
-32.6333
 11
41.2052
 21
-32.5511
  0
LINE
  8
0
 10
41.2052
 20
-32.5511
 11
41.1839
 21
-32.4678
  0
LINE
  8
0
 10
41.1839
 20
-32.4678
 11
41.1661
 21
-32.3841
  0
LINE
  8
0
 10
41.1661
 20
-32.3841
 11
41.1518
 21
-32.2992
  0
LINE
  8
0
 10
41.1518
 20
-32.2992
 11
41.1409
 21
-32.2139
  0
LINE
  8
0
 10
41.1409
 20
-32.2139
 11
41.1339
 21
-32.1287
  0
LINE
  8
0
 10
41.1339
 20
-32.1287
 11
41.1304
 21
-32.0426
  0
LINE
  8
0
 10
41.1304
 20
-32.0426
 11
41.1304
 21
-31.957
  0
LINE
  8
0
 10
41.1304
 20
-31.957
 11
41.1339
 21
-31.8709
  0
LINE
  8
0
 10
41.1339
 20
-31.8709
 11
41.1409
 21
-31.7857
  0
LINE
  8
0
 10
41.1409
 20
-31.7857
 11
41.1518
 21
-31.7004
  0
LINE
  8
0
 10
41.1518
 20
-31.7004
 11
41.1661
 21
-31.6155
  0
LINE
  8
0
 10
41.1661
 20
-31.6155
 11
41.1839
 21
-31.5318
  0
LINE
  8
0
 10
41.1839
 20
-31.5318
 11
41.2052
 21
-31.4485
  0
LINE
  8
0
 10
41.2052
 20
-31.4485
 11
41.23
 21
-31.3663
  0
LINE
  8
0
 10
41.23
 20
-31.3663
 11
41.2583
 21
-31.2853
  0
LINE
  8
0
 10
41.2583
 20
-31.2853
 11
41.2901
 21
-31.2055
  0
LINE
  8
0
 10
41.2901
 20
-31.2055
 11
41.325
 21
-31.1268
  0
LINE
  8
0
 10
41.325
 20
-31.1268
 11
41.363
 21
-31.05
  0
LINE
  8
0
 10
41.363
 20
-31.05
 11
41.4044
 21
-30.9749
  0
LINE
  8
0
 10
41.4044
 20
-30.9749
 11
41.449
 21
-30.9012
  0
LINE
  8
0
 10
41.449
 20
-30.9012
 11
41.4963
 21
-30.8299
  0
LINE
  8
0
 10
41.4963
 20
-30.8299
 11
41.5471
 21
-30.7605
  0
LINE
  8
0
 10
41.5471
 20
-30.7605
 11
41.6002
 21
-30.6931
  0
LINE
  8
0
 10
41.6002
 20
-30.6931
 11
41.6564
 21
-30.628
  0
LINE
  8
0
 10
41.6564
 20
-30.628
 11
41.7153
 21
-30.5656
  0
LINE
  8
0
 10
41.7153
 20
-30.5656
 11
41.7765
 21
-30.5055
  0
LINE
  8
0
 10
41.7765
 20
-30.5055
 11
41.8405
 21
-30.4481
  0
LINE
  8
0
 10
41.8405
 20
-30.4481
 11
41.9064
 21
-30.3931
  0
LINE
  8
0
 10
41.9064
 20
-30.3931
 11
41.975
 21
-30.3412
  0
LINE
  8
0
 10
41.975
 20
-30.3412
 11
42.0455
 21
-30.2923
  0
LINE
  8
0
 10
42.0455
 20
-30.2923
 11
42.118
 21
-30.2462
  0
LINE
  8
0
 10
42.118
 20
-30.2462
 11
42.1924
 21
-30.2032
  0
LINE
  8
0
 10
42.1924
 20
-30.2032
 11
42.2684
 21
-30.1637
  0
LINE
  8
0
 10
42.2684
 20
-30.1637
 11
42.3459
 21
-30.1272
  0
LINE
  8
0
 10
42.3459
 20
-30.1272
 11
42.4253
 21
-30.0939
  0
LINE
  8
0
 10
42.4253
 20
-30.0939
 11
42.5055
 21
-30.0637
  0
LINE
  8
0
 10
42.5055
 20
-30.0637
 11
42.5873
 21
-30.0373
  0
LINE
  8
0
 10
42.5873
 20
-30.0373
 11
42.6699
 21
-30.0141
  0
LINE
  8
0
 10
42.6699
 20
-30.0141
 11
42.7536
 21
-29.9947
  0
LINE
  8
0
 10
42.7536
 20
-29.9947
 11
42.8381
 21
-29.9784
  0
LINE
  8
0
 10
42.8381
 20
-29.9784
 11
42.923
 21
-29.966
  0
LINE
  8
0
 10
42.923
 20
-29.966
 11
43.0082
 21
-29.9571
  0
LINE
  8
0
 10
43.0082
 20
-29.9571
 11
43.0939
 21
-29.9517
  0
LINE
  8
0
 10
43.0939
 20
-29.9517
 11
43.1799
 21
-29.9497
  0
LINE
  8
0
 10
43.1799
 20
-29.9497
 11
43.2656
 21
-29.9517
  0
LINE
  8
0
 10
43.2656
 20
-29.9517
 11
43.3512
 21
-29.9571
  0
LINE
  8
0
 10
43.3512
 20
-29.9571
 11
43.4369
 21
-29.966
  0
LINE
  8
0
 10
43.4369
 20
-29.966
 11
43.5218
 21
-29.9784
  0
LINE
  8
0
 10
43.5218
 20
-29.9784
 11
43.6059
 21
-29.9947
  0
LINE
  8
0
 10
43.6059
 20
-29.9947
 11
43.6896
 21
-30.0141
  0
LINE
  8
0
 10
43.6896
 20
-30.0141
 11
43.7721
 21
-30.0373
  0
LINE
  8
0
 10
43.7721
 20
-30.0373
 11
43.8539
 21
-30.0637
  0
LINE
  8
0
 10
43.8539
 20
-30.0637
 11
43.9345
 21
-30.0939
  0
LINE
  8
0
 10
43.9345
 20
-30.0939
 11
44.0136
 21
-30.1272
  0
LINE
  8
0
 10
44.0136
 20
-30.1272
 11
44.0915
 21
-30.1637
  0
LINE
  8
0
 10
44.0915
 20
-30.1637
 11
44.1675
 21
-30.2032
  0
LINE
  8
0
 10
44.1675
 20
-30.2032
 11
44.2419
 21
-30.2462
  0
LINE
  8
0
 10
44.2419
 20
-30.2462
 11
44.3143
 21
-30.2923
  0
LINE
  8
0
 10
44.3143
 20
-30.2923
 11
44.3849
 21
-30.3412
  0
LINE
  8
0
 10
44.3849
 20
-30.3412
 11
44.4531
 21
-30.3931
  0
LINE
  8
0
 10
44.4531
 20
-30.3931
 11
44.5194
 21
-30.4481
  0
LINE
  8
0
 10
44.5194
 20
-30.4481
 11
44.5829
 21
-30.5055
  0
LINE
  8
0
 10
44.5829
 20
-30.5055
 11
44.6446
 21
-30.5656
  0
LINE
  8
0
 10
44.6446
 20
-30.5656
 11
44.7031
 21
-30.628
  0
LINE
  8
0
 10
44.7031
 20
-30.628
 11
44.7593
 21
-30.6931
  0
LINE
  8
0
 10
44.7593
 20
-30.6931
 11
44.8128
 21
-30.7605
  0
LINE
  8
0
 10
44.8128
 20
-30.7605
 11
44.8632
 21
-30.8299
  0
LINE
  8
0
 10
44.8632
 20
-30.8299
 11
44.9108
 21
-30.9012
  0
LINE
  8
0
 10
44.9108
 20
-30.9012
 11
44.955
 21
-30.9749
  0
LINE
  8
0
 10
44.955
 20
-30.9749
 11
44.9965
 21
-31.05
  0
LINE
  8
0
 10
44.9965
 20
-31.05
 11
45.0348
 21
-31.1268
  0
LINE
  8
0
 10
45.0348
 20
-31.1268
 11
45.0697
 21
-31.2055
  0
LINE
  8
0
 10
45.0697
 20
-31.2055
 11
45.1011
 21
-31.2853
  0
LINE
  8
0
 10
45.1011
 20
-31.2853
 11
45.1294
 21
-31.3663
  0
LINE
  8
0
 10
45.1294
 20
-31.3663
 11
45.1542
 21
-31.4485
  0
LINE
  8
0
 10
45.1542
 20
-31.4485
 11
45.1755
 21
-31.5318
  0
LINE
  8
0
 10
45.1755
 20
-31.5318
 11
45.1934
 21
-31.6155
  0
LINE
  8
0
 10
45.1934
 20
-31.6155
 11
45.2077
 21
-31.7004
  0
LINE
  8
0
 10
45.2077
 20
-31.7004
 11
45.2186
 21
-31.7857
  0
LINE
  8
0
 10
45.2186
 20
-31.7857
 11
45.2259
 21
-31.8709
  0
LINE
  8
0
 10
45.2259
 20
-31.8709
 11
45.2294
 21
-31.957
  0
LINE
  8
0
 10
45.2294
 20
-31.957
 11
45.2294
 21
-32.0426
  0
LINE
  8
0
 10
45.2294
 20
-32.0426
 11
45.2259
 21
-32.1287
  0
LINE
  8
0
 10
45.2259
 20
-32.1287
 11
45.2186
 21
-32.2139
  0
LINE
  8
0
 10
45.2186
 20
-32.2139
 11
45.2077
 21
-32.2992
  0
LINE
  8
0
 10
45.2077
 20
-32.2992
 11
45.1934
 21
-32.3841
  0
LINE
  8
0
 10
45.1934
 20
-32.3841
 11
45.1755
 21
-32.4678
  0
LINE
  8
0
 10
45.1755
 20
-32.4678
 11
45.1542
 21
-32.5511
  0
LINE
  8
0
 10
45.1542
 20
-32.5511
 11
45.1294
 21
-32.6333
  0
LINE
  8
0
 10
45.1294
 20
-32.6333
 11
45.1011
 21
-32.7143
  0
LINE
  8
0
 10
45.1011
 20
-32.7143
 11
45.0697
 21
-32.7941
  0
LINE
  8
0
 10
45.0697
 20
-32.7941
 11
45.0348
 21
-32.8728
  0
LINE
  8
0
 10
45.0348
 20
-32.8728
 11
44.9965
 21
-32.9495
  0
LINE
  8
0
 10
44.9965
 20
-32.9495
 11
44.955
 21
-33.0247
  0
LINE
  8
0
 10
44.955
 20
-33.0247
 11
44.9108
 21
-33.0984
  0
LINE
  8
0
 10
44.9108
 20
-33.0984
 11
44.8632
 21
-33.1697
  0
LINE
  8
0
 10
44.8632
 20
-33.1697
 11
44.8128
 21
-33.2391
  0
LINE
  8
0
 10
44.8128
 20
-33.2391
 11
44.7593
 21
-33.3065
  0
LINE
  8
0
 10
44.7593
 20
-33.3065
 11
44.7031
 21
-33.3716
  0
LINE
  8
0
 10
44.7031
 20
-33.3716
 11
44.6446
 21
-33.434
  0
LINE
  8
0
 10
44.6446
 20
-33.434
 11
44.5829
 21
-33.4941
  0
LINE
  8
0
 10
44.5829
 20
-33.4941
 11
44.5194
 21
-33.5518
  0
LINE
  8
0
 10
44.5194
 20
-33.5518
 11
44.4531
 21
-33.6065
  0
LINE
  8
0
 10
44.4531
 20
-33.6065
 11
44.3849
 21
-33.6584
  0
LINE
  8
0
 10
44.3849
 20
-33.6584
 11
44.3143
 21
-33.7072
  0
LINE
  8
0
 10
44.3143
 20
-33.7072
 11
44.2419
 21
-33.7534
  0
LINE
  8
0
 10
44.2419
 20
-33.7534
 11
44.1675
 21
-33.7964
  0
LINE
  8
0
 10
44.1675
 20
-33.7964
 11
44.0915
 21
-33.8359
  0
LINE
  8
0
 10
44.0915
 20
-33.8359
 11
44.0136
 21
-33.8727
  0
LINE
  8
0
 10
44.0136
 20
-33.8727
 11
43.9345
 21
-33.9057
  0
LINE
  8
0
 10
43.9345
 20
-33.9057
 11
43.8539
 21
-33.9359
  0
LINE
  8
0
 10
43.8539
 20
-33.9359
 11
43.7721
 21
-33.9623
  0
LINE
  8
0
 10
43.7721
 20
-33.9623
 11
43.6896
 21
-33.9855
  0
LINE
  8
0
 10
43.6896
 20
-33.9855
 11
43.6059
 21
-34.0049
  0
LINE
  8
0
 10
43.6059
 20
-34.0049
 11
43.5218
 21
-34.0212
  0
LINE
  8
0
 10
43.5218
 20
-34.0212
 11
43.4369
 21
-34.0336
  0
LINE
  8
0
 10
43.4369
 20
-34.0336
 11
43.3512
 21
-34.0425
  0
LINE
  8
0
 10
43.3512
 20
-34.0425
 11
43.2656
 21
-34.0479
  0
LINE
  8
0
 10
43.2656
 20
-34.0479
 11
43.1799
 21
-34.0499
  0
LINE
  8
0
 10
43.1799
 20
-34.0499
 11
43.0939
 21
-34.0479
  0
LINE
  8
0
 10
-0.0426331
 20
-125.874
 11
-0.128674
 21
-125.871
  0
LINE
  8
0
 10
-0.128674
 20
-125.871
 11
-0.21394
 21
-125.864
  0
LINE
  8
0
 10
-0.21394
 20
-125.864
 11
-0.299207
 21
-125.853
  0
LINE
  8
0
 10
-0.299207
 20
-125.853
 11
-0.384085
 21
-125.838
  0
LINE
  8
0
 10
-0.384085
 20
-125.838
 11
-0.467801
 21
-125.821
  0
LINE
  8
0
 10
-0.467801
 20
-125.821
 11
-0.551129
 21
-125.799
  0
LINE
  8
0
 10
-0.551129
 20
-125.799
 11
-0.633295
 21
-125.774
  0
LINE
  8
0
 10
-0.633295
 20
-125.774
 11
-0.714297
 21
-125.746
  0
LINE
  8
0
 10
-0.714297
 20
-125.746
 11
-0.794138
 21
-125.715
  0
LINE
  8
0
 10
-0.794138
 20
-125.715
 11
-0.872815
 21
-125.68
  0
LINE
  8
0
 10
-0.872815
 20
-125.68
 11
-0.949554
 21
-125.642
  0
LINE
  8
0
 10
-0.949554
 20
-125.642
 11
-1.02474
 21
-125.6
  0
LINE
  8
0
 10
-1.02474
 20
-125.6
 11
-1.09838
 21
-125.556
  0
LINE
  8
0
 10
-1.09838
 20
-125.556
 11
-1.1697
 21
-125.508
  0
LINE
  8
0
 10
-1.1697
 20
-125.508
 11
-1.23907
 21
-125.458
  0
LINE
  8
0
 10
-1.23907
 20
-125.458
 11
-1.30651
 21
-125.404
  0
LINE
  8
0
 10
-1.30651
 20
-125.404
 11
-1.37162
 21
-125.348
  0
LINE
  8
0
 10
-1.37162
 20
-125.348
 11
-1.43402
 21
-125.29
  0
LINE
  8
0
 10
-1.43402
 20
-125.29
 11
-1.49409
 21
-125.228
  0
LINE
  8
0
 10
-1.49409
 20
-125.228
 11
-1.55184
 21
-125.164
  0
LINE
  8
0
 10
-1.55184
 20
-125.164
 11
-1.60649
 21
-125.098
  0
LINE
  8
0
 10
-1.60649
 20
-125.098
 11
-1.65843
 21
-125.03
  0
LINE
  8
0
 10
-1.65843
 20
-125.03
 11
-1.70726
 21
-124.959
  0
LINE
  8
0
 10
-1.70726
 20
-124.959
 11
-1.75338
 21
-124.887
  0
LINE
  8
0
 10
-1.75338
 20
-124.887
 11
-1.7964
 21
-124.813
  0
LINE
  8
0
 10
-1.7964
 20
-124.813
 11
-1.83593
 21
-124.736
  0
LINE
  8
0
 10
-1.83593
 20
-124.736
 11
-1.87275
 21
-124.659
  0
LINE
  8
0
 10
-1.87275
 20
-124.659
 11
-1.9057
 21
-124.58
  0
LINE
  8
0
 10
-1.9057
 20
-124.58
 11
-1.93593
 21
-124.499
  0
LINE
  8
0
 10
-1.93593
 20
-124.499
 11
-1.96228
 21
-124.417
  0
LINE
  8
0
 10
-1.96228
 20
-124.417
 11
-1.98554
 21
-124.335
  0
LINE
  8
0
 10
-1.98554
 20
-124.335
 11
-2.00492
 21
-124.251
  0
LINE
  8
0
 10
-2.00492
 20
-124.251
 11
-2.02119
 21
-124.167
  0
LINE
  8
0
 10
-2.02119
 20
-124.167
 11
-2.0336
 21
-124.082
  0
LINE
  8
0
 10
-2.0336
 20
-124.082
 11
-2.04251
 21
-123.996
  0
LINE
  8
0
 10
-2.04251
 20
-123.996
 11
-2.04794
 21
-123.911
  0
LINE
  8
0
 10
-2.04794
 20
-123.911
 11
-2.04987
 21
-123.825
  0
LINE
  8
0
 10
-2.04987
 20
-123.825
 11
-2.04794
 21
-123.739
  0
LINE
  8
0
 10
-2.04794
 20
-123.739
 11
-2.04251
 21
-123.653
  0
LINE
  8
0
 10
-2.04251
 20
-123.653
 11
-2.0336
 21
-123.568
  0
LINE
  8
0
 10
-2.0336
 20
-123.568
 11
-2.02119
 21
-123.483
  0
LINE
  8
0
 10
-2.02119
 20
-123.483
 11
-2.00492
 21
-123.399
  0
LINE
  8
0
 10
-2.00492
 20
-123.399
 11
-1.98554
 21
-123.315
  0
LINE
  8
0
 10
-1.98554
 20
-123.315
 11
-1.96228
 21
-123.232
  0
LINE
  8
0
 10
-1.96228
 20
-123.232
 11
-1.93593
 21
-123.151
  0
LINE
  8
0
 10
-1.93593
 20
-123.151
 11
-1.9057
 21
-123.07
  0
LINE
  8
0
 10
-1.9057
 20
-123.07
 11
-1.87275
 21
-122.991
  0
LINE
  8
0
 10
-1.87275
 20
-122.991
 11
-1.83593
 21
-122.913
  0
LINE
  8
0
 10
-1.83593
 20
-122.913
 11
-1.7964
 21
-122.837
  0
LINE
  8
0
 10
-1.7964
 20
-122.837
 11
-1.75338
 21
-122.763
  0
LINE
  8
0
 10
-1.75338
 20
-122.763
 11
-1.70726
 21
-122.69
  0
LINE
  8
0
 10
-1.70726
 20
-122.69
 11
-1.65843
 21
-122.62
  0
LINE
  8
0
 10
-1.65843
 20
-122.62
 11
-1.60649
 21
-122.551
  0
LINE
  8
0
 10
-1.60649
 20
-122.551
 11
-1.55184
 21
-122.485
  0
LINE
  8
0
 10
-1.55184
 20
-122.485
 11
-1.49409
 21
-122.422
  0
LINE
  8
0
 10
-1.49409
 20
-122.422
 11
-1.43402
 21
-122.36
  0
LINE
  8
0
 10
-1.43402
 20
-122.36
 11
-1.37162
 21
-122.301
  0
LINE
  8
0
 10
-1.37162
 20
-122.301
 11
-1.30651
 21
-122.245
  0
LINE
  8
0
 10
-1.30651
 20
-122.245
 11
-1.23907
 21
-122.192
  0
LINE
  8
0
 10
-1.23907
 20
-122.192
 11
-1.1697
 21
-122.141
  0
LINE
  8
0
 10
-1.1697
 20
-122.141
 11
-1.09838
 21
-122.094
  0
LINE
  8
0
 10
-1.09838
 20
-122.094
 11
-1.02474
 21
-122.05
  0
LINE
  8
0
 10
-1.02474
 20
-122.05
 11
-0.949554
 21
-122.008
  0
LINE
  8
0
 10
-0.949554
 20
-122.008
 11
-0.872815
 21
-121.97
  0
LINE
  8
0
 10
-0.872815
 20
-121.97
 11
-0.794138
 21
-121.935
  0
LINE
  8
0
 10
-0.794138
 20
-121.935
 11
-0.714297
 21
-121.903
  0
LINE
  8
0
 10
-0.714297
 20
-121.903
 11
-0.633295
 21
-121.875
  0
LINE
  8
0
 10
-0.633295
 20
-121.875
 11
-0.551129
 21
-121.85
  0
LINE
  8
0
 10
-0.551129
 20
-121.85
 11
-0.467801
 21
-121.829
  0
LINE
  8
0
 10
-0.467801
 20
-121.829
 11
-0.384085
 21
-121.811
  0
LINE
  8
0
 10
-0.384085
 20
-121.811
 11
-0.299207
 21
-121.797
  0
LINE
  8
0
 10
-0.299207
 20
-121.797
 11
-0.21394
 21
-121.786
  0
LINE
  8
0
 10
-0.21394
 20
-121.786
 11
-0.128674
 21
-121.779
  0
LINE
  8
0
 10
-0.128674
 20
-121.779
 11
-0.0426331
 21
-121.775
  0
LINE
  8
0
 10
-0.0426331
 20
-121.775
 11
0.0426331
 21
-121.775
  0
LINE
  8
0
 10
0.0426331
 20
-121.775
 11
0.128674
 21
-121.779
  0
LINE
  8
0
 10
0.128674
 20
-121.779
 11
0.21394
 21
-121.786
  0
LINE
  8
0
 10
0.21394
 20
-121.786
 11
0.299207
 21
-121.797
  0
LINE
  8
0
 10
0.299207
 20
-121.797
 11
0.384085
 21
-121.811
  0
LINE
  8
0
 10
0.384085
 20
-121.811
 11
0.467801
 21
-121.829
  0
LINE
  8
0
 10
0.467801
 20
-121.829
 11
0.551129
 21
-121.85
  0
LINE
  8
0
 10
0.551129
 20
-121.85
 11
0.633295
 21
-121.875
  0
LINE
  8
0
 10
0.633295
 20
-121.875
 11
0.714297
 21
-121.903
  0
LINE
  8
0
 10
0.714297
 20
-121.903
 11
0.794138
 21
-121.935
  0
LINE
  8
0
 10
0.794138
 20
-121.935
 11
0.872815
 21
-121.97
  0
LINE
  8
0
 10
0.872815
 20
-121.97
 11
0.949554
 21
-122.008
  0
LINE
  8
0
 10
0.949554
 20
-122.008
 11
1.02474
 21
-122.05
  0
LINE
  8
0
 10
1.02474
 20
-122.05
 11
1.09838
 21
-122.094
  0
LINE
  8
0
 10
1.09838
 20
-122.094
 11
1.1697
 21
-122.141
  0
LINE
  8
0
 10
1.1697
 20
-122.141
 11
1.23907
 21
-122.192
  0
LINE
  8
0
 10
1.23907
 20
-122.192
 11
1.30651
 21
-122.245
  0
LINE
  8
0
 10
1.30651
 20
-122.245
 11
1.37162
 21
-122.301
  0
LINE
  8
0
 10
1.37162
 20
-122.301
 11
1.43402
 21
-122.36
  0
LINE
  8
0
 10
1.43402
 20
-122.36
 11
1.49409
 21
-122.422
  0
LINE
  8
0
 10
1.49409
 20
-122.422
 11
1.55184
 21
-122.485
  0
LINE
  8
0
 10
1.55184
 20
-122.485
 11
1.60649
 21
-122.551
  0
LINE
  8
0
 10
1.60649
 20
-122.551
 11
1.65843
 21
-122.62
  0
LINE
  8
0
 10
1.65843
 20
-122.62
 11
1.70726
 21
-122.69
  0
LINE
  8
0
 10
1.70726
 20
-122.69
 11
1.75338
 21
-122.763
  0
LINE
  8
0
 10
1.75338
 20
-122.763
 11
1.7964
 21
-122.837
  0
LINE
  8
0
 10
1.7964
 20
-122.837
 11
1.83593
 21
-122.913
  0
LINE
  8
0
 10
1.83593
 20
-122.913
 11
1.87275
 21
-122.991
  0
LINE
  8
0
 10
1.87275
 20
-122.991
 11
1.9057
 21
-123.07
  0
LINE
  8
0
 10
1.9057
 20
-123.07
 11
1.93593
 21
-123.151
  0
LINE
  8
0
 10
1.93593
 20
-123.151
 11
1.96228
 21
-123.232
  0
LINE
  8
0
 10
1.96228
 20
-123.232
 11
1.98554
 21
-123.315
  0
LINE
  8
0
 10
1.98554
 20
-123.315
 11
2.00492
 21
-123.399
  0
LINE
  8
0
 10
2.00492
 20
-123.399
 11
2.02119
 21
-123.483
  0
LINE
  8
0
 10
2.02119
 20
-123.483
 11
2.0336
 21
-123.568
  0
LINE
  8
0
 10
2.0336
 20
-123.568
 11
2.04251
 21
-123.653
  0
LINE
  8
0
 10
2.04251
 20
-123.653
 11
2.04794
 21
-123.739
  0
LINE
  8
0
 10
2.04794
 20
-123.739
 11
2.04987
 21
-123.825
  0
LINE
  8
0
 10
2.04987
 20
-123.825
 11
2.04794
 21
-123.911
  0
LINE
  8
0
 10
2.04794
 20
-123.911
 11
2.04251
 21
-123.996
  0
LINE
  8
0
 10
2.04251
 20
-123.996
 11
2.0336
 21
-124.082
  0
LINE
  8
0
 10
2.0336
 20
-124.082
 11
2.02119
 21
-124.167
  0
LINE
  8
0
 10
2.02119
 20
-124.167
 11
2.00492
 21
-124.251
  0
LINE
  8
0
 10
2.00492
 20
-124.251
 11
1.98554
 21
-124.335
  0
LINE
  8
0
 10
1.98554
 20
-124.335
 11
1.96228
 21
-124.417
  0
LINE
  8
0
 10
1.96228
 20
-124.417
 11
1.93593
 21
-124.499
  0
LINE
  8
0
 10
1.93593
 20
-124.499
 11
1.9057
 21
-124.58
  0
LINE
  8
0
 10
1.9057
 20
-124.58
 11
1.87275
 21
-124.659
  0
LINE
  8
0
 10
1.87275
 20
-124.659
 11
1.83593
 21
-124.736
  0
LINE
  8
0
 10
1.83593
 20
-124.736
 11
1.7964
 21
-124.813
  0
LINE
  8
0
 10
1.7964
 20
-124.813
 11
1.75338
 21
-124.887
  0
LINE
  8
0
 10
1.75338
 20
-124.887
 11
1.70726
 21
-124.959
  0
LINE
  8
0
 10
1.70726
 20
-124.959
 11
1.65843
 21
-125.03
  0
LINE
  8
0
 10
1.65843
 20
-125.03
 11
1.60649
 21
-125.098
  0
LINE
  8
0
 10
1.60649
 20
-125.098
 11
1.55184
 21
-125.164
  0
LINE
  8
0
 10
1.55184
 20
-125.164
 11
1.49409
 21
-125.228
  0
LINE
  8
0
 10
1.49409
 20
-125.228
 11
1.43402
 21
-125.29
  0
LINE
  8
0
 10
1.43402
 20
-125.29
 11
1.37162
 21
-125.348
  0
LINE
  8
0
 10
1.37162
 20
-125.348
 11
1.30651
 21
-125.404
  0
LINE
  8
0
 10
1.30651
 20
-125.404
 11
1.23907
 21
-125.458
  0
LINE
  8
0
 10
1.23907
 20
-125.458
 11
1.1697
 21
-125.508
  0
LINE
  8
0
 10
1.1697
 20
-125.508
 11
1.09838
 21
-125.556
  0
LINE
  8
0
 10
1.09838
 20
-125.556
 11
1.02474
 21
-125.6
  0
LINE
  8
0
 10
1.02474
 20
-125.6
 11
0.949554
 21
-125.642
  0
LINE
  8
0
 10
0.949554
 20
-125.642
 11
0.872815
 21
-125.68
  0
LINE
  8
0
 10
0.872815
 20
-125.68
 11
0.794138
 21
-125.715
  0
LINE
  8
0
 10
0.794138
 20
-125.715
 11
0.714297
 21
-125.746
  0
LINE
  8
0
 10
0.714297
 20
-125.746
 11
0.633295
 21
-125.774
  0
LINE
  8
0
 10
0.633295
 20
-125.774
 11
0.551129
 21
-125.799
  0
LINE
  8
0
 10
0.551129
 20
-125.799
 11
0.467801
 21
-125.821
  0
LINE
  8
0
 10
0.467801
 20
-125.821
 11
0.384085
 21
-125.838
  0
LINE
  8
0
 10
0.384085
 20
-125.838
 11
0.299207
 21
-125.853
  0
LINE
  8
0
 10
0.299207
 20
-125.853
 11
0.21394
 21
-125.864
  0
LINE
  8
0
 10
0.21394
 20
-125.864
 11
0.128674
 21
-125.871
  0
LINE
  8
0
 10
0.128674
 20
-125.871
 11
0.0426331
 21
-125.874
  0
LINE
  8
0
 10
0.0426331
 20
-125.874
 11
-0.0426331
 21
-125.874
  0
ENDSEC
  0
SECTION
  2
OBJECTS
  0
DICTIONARY
  0
ENDSEC
  0
EOF
