  0
SECTION
  2
BLOCKS
  0
ENDSEC
  0
SECTION
  2
ENTITIES
  0
LINE
  8
0
 10
0.885818
 20
6
 11
-0.846451
 21
6
  0
LINE
  8
0
 10
-0.846451
 20
6
 11
-0.846451
 21
-1
  0
LINE
  8
0
 10
-0.846451
 20
-1
 11
0.885818
 21
-1
  0
LINE
  8
0
 10
0.885818
 20
-1
 11
0.885818
 21
6
  0
LINE
  8
0
 10
0.313263
 20
5.76183
 11
0.309891
 21
5.76196
  0
LINE
  8
0
 10
0.309891
 20
5.76196
 11
0.306519
 21
5.76225
  0
LINE
  8
0
 10
0.306519
 20
5.76225
 11
0.303162
 21
5.76266
  0
LINE
  8
0
 10
0.303162
 20
5.76266
 11
0.299835
 21
5.76323
  0
LINE
  8
0
 10
0.299835
 20
5.76323
 11
0.296524
 21
5.76393
  0
LINE
  8
0
 10
0.296524
 20
5.76393
 11
0.293243
 21
5.76477
  0
LINE
  8
0
 10
0.293243
 20
5.76477
 11
0.290009
 21
5.76575
  0
LINE
  8
0
 10
0.290009
 20
5.76575
 11
0.286819
 21
5.76686
  0
LINE
  8
0
 10
0.286819
 20
5.76686
 11
0.283676
 21
5.76811
  0
LINE
  8
0
 10
0.283676
 20
5.76811
 11
0.280594
 21
5.76949
  0
LINE
  8
0
 10
0.280594
 20
5.76949
 11
0.277557
 21
5.771
  0
LINE
  8
0
 10
0.277557
 20
5.771
 11
0.274597
 21
5.77261
  0
LINE
  8
0
 10
0.274597
 20
5.77261
 11
0.271713
 21
5.77437
  0
LINE
  8
0
 10
0.271713
 20
5.77437
 11
0.26889
 21
5.77625
  0
LINE
  8
0
 10
0.26889
 20
5.77625
 11
0.266159
 21
5.77823
  0
LINE
  8
0
 10
0.266159
 20
5.77823
 11
0.263504
 21
5.78032
  0
LINE
  8
0
 10
0.263504
 20
5.78032
 11
0.260941
 21
5.78253
  0
LINE
  8
0
 10
0.260941
 20
5.78253
 11
0.258484
 21
5.78485
  0
LINE
  8
0
 10
0.258484
 20
5.78485
 11
0.256119
 21
5.78726
  0
LINE
  8
0
 10
0.256119
 20
5.78726
 11
0.25386
 21
5.78978
  0
LINE
  8
0
 10
0.25386
 20
5.78978
 11
0.251694
 21
5.79237
  0
LINE
  8
0
 10
0.251694
 20
5.79237
 11
0.249664
 21
5.79507
  0
LINE
  8
0
 10
0.249664
 20
5.79507
 11
0.247726
 21
5.79785
  0
LINE
  8
0
 10
0.247726
 20
5.79785
 11
0.245911
 21
5.8007
  0
LINE
  8
0
 10
0.245911
 20
5.8007
 11
0.244232
 21
5.80363
  0
LINE
  8
0
 10
0.244232
 20
5.80363
 11
0.242661
 21
5.80663
  0
LINE
  8
0
 10
0.242661
 20
5.80663
 11
0.241226
 21
5.80969
  0
LINE
  8
0
 10
0.241226
 20
5.80969
 11
0.239914
 21
5.81281
  0
LINE
  8
0
 10
0.239914
 20
5.81281
 11
0.238739
 21
5.81596
  0
LINE
  8
0
 10
0.238739
 20
5.81596
 11
0.237686
 21
5.81918
  0
LINE
  8
0
 10
0.237686
 20
5.81918
 11
0.236786
 21
5.82245
  0
LINE
  8
0
 10
0.236786
 20
5.82245
 11
0.236008
 21
5.82573
  0
LINE
  8
0
 10
0.236008
 20
5.82573
 11
0.235367
 21
5.82906
  0
LINE
  8
0
 10
0.235367
 20
5.82906
 11
0.234879
 21
5.8324
  0
LINE
  8
0
 10
0.234879
 20
5.8324
 11
0.234528
 21
5.83575
  0
LINE
  8
0
 10
0.234528
 20
5.83575
 11
0.234314
 21
5.83913
  0
LINE
  8
0
 10
0.234314
 20
5.83913
 11
0.234238
 21
5.84251
  0
LINE
  8
0
 10
0.234238
 20
5.84251
 11
0.234314
 21
5.84589
  0
LINE
  8
0
 10
0.234314
 20
5.84589
 11
0.234528
 21
5.84926
  0
LINE
  8
0
 10
0.234528
 20
5.84926
 11
0.234879
 21
5.85263
  0
LINE
  8
0
 10
0.234879
 20
5.85263
 11
0.235367
 21
5.85597
  0
LINE
  8
0
 10
0.235367
 20
5.85597
 11
0.236008
 21
5.8593
  0
LINE
  8
0
 10
0.236008
 20
5.8593
 11
0.236786
 21
5.86258
  0
LINE
  8
0
 10
0.236786
 20
5.86258
 11
0.237686
 21
5.86584
  0
LINE
  8
0
 10
0.237686
 20
5.86584
 11
0.238739
 21
5.86905
  0
LINE
  8
0
 10
0.238739
 20
5.86905
 11
0.239914
 21
5.87222
  0
LINE
  8
0
 10
0.239914
 20
5.87222
 11
0.241226
 21
5.87534
  0
LINE
  8
0
 10
0.241226
 20
5.87534
 11
0.242661
 21
5.8784
  0
LINE
  8
0
 10
0.242661
 20
5.8784
 11
0.244232
 21
5.88139
  0
LINE
  8
0
 10
0.244232
 20
5.88139
 11
0.245911
 21
5.88432
  0
LINE
  8
0
 10
0.245911
 20
5.88432
 11
0.247726
 21
5.88718
  0
LINE
  8
0
 10
0.247726
 20
5.88718
 11
0.249664
 21
5.88995
  0
LINE
  8
0
 10
0.249664
 20
5.88995
 11
0.251694
 21
5.89264
  0
LINE
  8
0
 10
0.251694
 20
5.89264
 11
0.25386
 21
5.89525
  0
LINE
  8
0
 10
0.25386
 20
5.89525
 11
0.256119
 21
5.89777
  0
LINE
  8
0
 10
0.256119
 20
5.89777
 11
0.258484
 21
5.90018
  0
LINE
  8
0
 10
0.258484
 20
5.90018
 11
0.260941
 21
5.9025
  0
LINE
  8
0
 10
0.260941
 20
5.9025
 11
0.263504
 21
5.90469
  0
LINE
  8
0
 10
0.263504
 20
5.90469
 11
0.266159
 21
5.9068
  0
LINE
  8
0
 10
0.266159
 20
5.9068
 11
0.26889
 21
5.90878
  0
LINE
  8
0
 10
0.26889
 20
5.90878
 11
0.271713
 21
5.91066
  0
LINE
  8
0
 10
0.271713
 20
5.91066
 11
0.274597
 21
5.91241
  0
LINE
  8
0
 10
0.274597
 20
5.91241
 11
0.277557
 21
5.91403
  0
LINE
  8
0
 10
0.277557
 20
5.91403
 11
0.280594
 21
5.91554
  0
LINE
  8
0
 10
0.280594
 20
5.91554
 11
0.283676
 21
5.91692
  0
LINE
  8
0
 10
0.283676
 20
5.91692
 11
0.286819
 21
5.91815
  0
LINE
  8
0
 10
0.286819
 20
5.91815
 11
0.290009
 21
5.91927
  0
LINE
  8
0
 10
0.290009
 20
5.91927
 11
0.293243
 21
5.92024
  0
LINE
  8
0
 10
0.293243
 20
5.92024
 11
0.296524
 21
5.92108
  0
LINE
  8
0
 10
0.296524
 20
5.92108
 11
0.299835
 21
5.9218
  0
LINE
  8
0
 10
0.299835
 20
5.9218
 11
0.303162
 21
5.92235
  0
LINE
  8
0
 10
0.303162
 20
5.92235
 11
0.306519
 21
5.92278
  0
LINE
  8
0
 10
0.306519
 20
5.92278
 11
0.309891
 21
5.92307
  0
LINE
  8
0
 10
0.309891
 20
5.92307
 11
0.313263
 21
5.9232
  0
LINE
  8
0
 10
0.313263
 20
5.9232
 11
0.316635
 21
5.9232
  0
LINE
  8
0
 10
0.316635
 20
5.9232
 11
0.320023
 21
5.92307
  0
LINE
  8
0
 10
0.320023
 20
5.92307
 11
0.323395
 21
5.92278
  0
LINE
  8
0
 10
0.323395
 20
5.92278
 11
0.326736
 21
5.92235
  0
LINE
  8
0
 10
0.326736
 20
5.92235
 11
0.330078
 21
5.9218
  0
LINE
  8
0
 10
0.330078
 20
5.9218
 11
0.333389
 21
5.92108
  0
LINE
  8
0
 10
0.333389
 20
5.92108
 11
0.336655
 21
5.92024
  0
LINE
  8
0
 10
0.336655
 20
5.92024
 11
0.33989
 21
5.91927
  0
LINE
  8
0
 10
0.33989
 20
5.91927
 11
0.343079
 21
5.91815
  0
LINE
  8
0
 10
0.343079
 20
5.91815
 11
0.346222
 21
5.91692
  0
LINE
  8
0
 10
0.346222
 20
5.91692
 11
0.349319
 21
5.91554
  0
LINE
  8
0
 10
0.349319
 20
5.91554
 11
0.352341
 21
5.91403
  0
LINE
  8
0
 10
0.352341
 20
5.91403
 11
0.355301
 21
5.91241
  0
LINE
  8
0
 10
0.355301
 20
5.91241
 11
0.3582
 21
5.91066
  0
LINE
  8
0
 10
0.3582
 20
5.91066
 11
0.361008
 21
5.90878
  0
LINE
  8
0
 10
0.361008
 20
5.90878
 11
0.363754
 21
5.9068
  0
LINE
  8
0
 10
0.363754
 20
5.9068
 11
0.366394
 21
5.90469
  0
LINE
  8
0
 10
0.366394
 20
5.90469
 11
0.368958
 21
5.9025
  0
LINE
  8
0
 10
0.368958
 20
5.9025
 11
0.371414
 21
5.90018
  0
LINE
  8
0
 10
0.371414
 20
5.90018
 11
0.373779
 21
5.89777
  0
LINE
  8
0
 10
0.373779
 20
5.89777
 11
0.376053
 21
5.89525
  0
LINE
  8
0
 10
0.376053
 20
5.89525
 11
0.378204
 21
5.89264
  0
LINE
  8
0
 10
0.378204
 20
5.89264
 11
0.380249
 21
5.88995
  0
LINE
  8
0
 10
0.380249
 20
5.88995
 11
0.382172
 21
5.88718
  0
LINE
  8
0
 10
0.382172
 20
5.88718
 11
0.383987
 21
5.88432
  0
LINE
  8
0
 10
0.383987
 20
5.88432
 11
0.385681
 21
5.88139
  0
LINE
  8
0
 10
0.385681
 20
5.88139
 11
0.387238
 21
5.8784
  0
LINE
  8
0
 10
0.387238
 20
5.8784
 11
0.388687
 21
5.87534
  0
LINE
  8
0
 10
0.388687
 20
5.87534
 11
0.389999
 21
5.87222
  0
LINE
  8
0
 10
0.389999
 20
5.87222
 11
0.391174
 21
5.86905
  0
LINE
  8
0
 10
0.391174
 20
5.86905
 11
0.392212
 21
5.86584
  0
LINE
  8
0
 10
0.392212
 20
5.86584
 11
0.393127
 21
5.86258
  0
LINE
  8
0
 10
0.393127
 20
5.86258
 11
0.39389
 21
5.8593
  0
LINE
  8
0
 10
0.39389
 20
5.8593
 11
0.394531
 21
5.85597
  0
LINE
  8
0
 10
0.394531
 20
5.85597
 11
0.39502
 21
5.85263
  0
LINE
  8
0
 10
0.39502
 20
5.85263
 11
0.395386
 21
5.84926
  0
LINE
  8
0
 10
0.395386
 20
5.84926
 11
0.395584
 21
5.84589
  0
LINE
  8
0
 10
0.395584
 20
5.84589
 11
0.39566
 21
5.84251
  0
LINE
  8
0
 10
0.39566
 20
5.84251
 11
0.395584
 21
5.83913
  0
LINE
  8
0
 10
0.395584
 20
5.83913
 11
0.395386
 21
5.83575
  0
LINE
  8
0
 10
0.395386
 20
5.83575
 11
0.39502
 21
5.8324
  0
LINE
  8
0
 10
0.39502
 20
5.8324
 11
0.394531
 21
5.82906
  0
LINE
  8
0
 10
0.394531
 20
5.82906
 11
0.39389
 21
5.82573
  0
LINE
  8
0
 10
0.39389
 20
5.82573
 11
0.393127
 21
5.82245
  0
LINE
  8
0
 10
0.393127
 20
5.82245
 11
0.392212
 21
5.81918
  0
LINE
  8
0
 10
0.392212
 20
5.81918
 11
0.391174
 21
5.81596
  0
LINE
  8
0
 10
0.391174
 20
5.81596
 11
0.389999
 21
5.81281
  0
LINE
  8
0
 10
0.389999
 20
5.81281
 11
0.388687
 21
5.80969
  0
LINE
  8
0
 10
0.388687
 20
5.80969
 11
0.387238
 21
5.80663
  0
LINE
  8
0
 10
0.387238
 20
5.80663
 11
0.385681
 21
5.80363
  0
LINE
  8
0
 10
0.385681
 20
5.80363
 11
0.383987
 21
5.8007
  0
LINE
  8
0
 10
0.383987
 20
5.8007
 11
0.382172
 21
5.79785
  0
LINE
  8
0
 10
0.382172
 20
5.79785
 11
0.380249
 21
5.79507
  0
LINE
  8
0
 10
0.380249
 20
5.79507
 11
0.378204
 21
5.79237
  0
LINE
  8
0
 10
0.378204
 20
5.79237
 11
0.376053
 21
5.78978
  0
LINE
  8
0
 10
0.376053
 20
5.78978
 11
0.373779
 21
5.78726
  0
LINE
  8
0
 10
0.373779
 20
5.78726
 11
0.371414
 21
5.78485
  0
LINE
  8
0
 10
0.371414
 20
5.78485
 11
0.368958
 21
5.78253
  0
LINE
  8
0
 10
0.368958
 20
5.78253
 11
0.366394
 21
5.78032
  0
LINE
  8
0
 10
0.366394
 20
5.78032
 11
0.363754
 21
5.77823
  0
LINE
  8
0
 10
0.363754
 20
5.77823
 11
0.361008
 21
5.77625
  0
LINE
  8
0
 10
0.361008
 20
5.77625
 11
0.3582
 21
5.77437
  0
LINE
  8
0
 10
0.3582
 20
5.77437
 11
0.355301
 21
5.77261
  0
LINE
  8
0
 10
0.355301
 20
5.77261
 11
0.352341
 21
5.771
  0
LINE
  8
0
 10
0.352341
 20
5.771
 11
0.349319
 21
5.76949
  0
LINE
  8
0
 10
0.349319
 20
5.76949
 11
0.346222
 21
5.76811
  0
LINE
  8
0
 10
0.346222
 20
5.76811
 11
0.343079
 21
5.76686
  0
LINE
  8
0
 10
0.343079
 20
5.76686
 11
0.33989
 21
5.76575
  0
LINE
  8
0
 10
0.33989
 20
5.76575
 11
0.336655
 21
5.76477
  0
LINE
  8
0
 10
0.336655
 20
5.76477
 11
0.333389
 21
5.76393
  0
LINE
  8
0
 10
0.333389
 20
5.76393
 11
0.330078
 21
5.76323
  0
LINE
  8
0
 10
0.330078
 20
5.76323
 11
0.326736
 21
5.76266
  0
LINE
  8
0
 10
0.326736
 20
5.76266
 11
0.323395
 21
5.76225
  0
LINE
  8
0
 10
0.323395
 20
5.76225
 11
0.320023
 21
5.76196
  0
LINE
  8
0
 10
0.320023
 20
5.76196
 11
0.316635
 21
5.76183
  0
LINE
  8
0
 10
0.316635
 20
5.76183
 11
0.313263
 21
5.76183
  0
LINE
  8
0
 10
-0.631607
 20
5.76183
 11
-0.634979
 21
5.76196
  0
LINE
  8
0
 10
-0.634979
 20
5.76196
 11
-0.638351
 21
5.76225
  0
LINE
  8
0
 10
-0.638351
 20
5.76225
 11
-0.641708
 21
5.76266
  0
LINE
  8
0
 10
-0.641708
 20
5.76266
 11
-0.645035
 21
5.76323
  0
LINE
  8
0
 10
-0.645035
 20
5.76323
 11
-0.648346
 21
5.76393
  0
LINE
  8
0
 10
-0.648346
 20
5.76393
 11
-0.651611
 21
5.76477
  0
LINE
  8
0
 10
-0.651611
 20
5.76477
 11
-0.654846
 21
5.76575
  0
LINE
  8
0
 10
-0.654846
 20
5.76575
 11
-0.658051
 21
5.76686
  0
LINE
  8
0
 10
-0.658051
 20
5.76686
 11
-0.661194
 21
5.76811
  0
LINE
  8
0
 10
-0.661194
 20
5.76811
 11
-0.664276
 21
5.76949
  0
LINE
  8
0
 10
-0.664276
 20
5.76949
 11
-0.667313
 21
5.771
  0
LINE
  8
0
 10
-0.667313
 20
5.771
 11
-0.670273
 21
5.77261
  0
LINE
  8
0
 10
-0.670273
 20
5.77261
 11
-0.673157
 21
5.77437
  0
LINE
  8
0
 10
-0.673157
 20
5.77437
 11
-0.67598
 21
5.77625
  0
LINE
  8
0
 10
-0.67598
 20
5.77625
 11
-0.678711
 21
5.77823
  0
LINE
  8
0
 10
-0.678711
 20
5.77823
 11
-0.681366
 21
5.78032
  0
LINE
  8
0
 10
-0.681366
 20
5.78032
 11
-0.683914
 21
5.78253
  0
LINE
  8
0
 10
-0.683914
 20
5.78253
 11
-0.686386
 21
5.78485
  0
LINE
  8
0
 10
-0.686386
 20
5.78485
 11
-0.688751
 21
5.78726
  0
LINE
  8
0
 10
-0.688751
 20
5.78726
 11
-0.69101
 21
5.78978
  0
LINE
  8
0
 10
-0.69101
 20
5.78978
 11
-0.693161
 21
5.79237
  0
LINE
  8
0
 10
-0.693161
 20
5.79237
 11
-0.695206
 21
5.79507
  0
LINE
  8
0
 10
-0.695206
 20
5.79507
 11
-0.697144
 21
5.79785
  0
LINE
  8
0
 10
-0.697144
 20
5.79785
 11
-0.698944
 21
5.8007
  0
LINE
  8
0
 10
-0.698944
 20
5.8007
 11
-0.700638
 21
5.80363
  0
LINE
  8
0
 10
-0.700638
 20
5.80363
 11
-0.702209
 21
5.80663
  0
LINE
  8
0
 10
-0.702209
 20
5.80663
 11
-0.703644
 21
5.80969
  0
LINE
  8
0
 10
-0.703644
 20
5.80969
 11
-0.704956
 21
5.81281
  0
LINE
  8
0
 10
-0.704956
 20
5.81281
 11
-0.706131
 21
5.81596
  0
LINE
  8
0
 10
-0.706131
 20
5.81596
 11
-0.707184
 21
5.81918
  0
LINE
  8
0
 10
-0.707184
 20
5.81918
 11
-0.708084
 21
5.82245
  0
LINE
  8
0
 10
-0.708084
 20
5.82245
 11
-0.708862
 21
5.82573
  0
LINE
  8
0
 10
-0.708862
 20
5.82573
 11
-0.709488
 21
5.82906
  0
LINE
  8
0
 10
-0.709488
 20
5.82906
 11
-0.709991
 21
5.8324
  0
LINE
  8
0
 10
-0.709991
 20
5.8324
 11
-0.710342
 21
5.83575
  0
LINE
  8
0
 10
-0.710342
 20
5.83575
 11
-0.710556
 21
5.83913
  0
LINE
  8
0
 10
-0.710556
 20
5.83913
 11
-0.710617
 21
5.84251
  0
LINE
  8
0
 10
-0.710617
 20
5.84251
 11
-0.710556
 21
5.84589
  0
LINE
  8
0
 10
-0.710556
 20
5.84589
 11
-0.710342
 21
5.84926
  0
LINE
  8
0
 10
-0.710342
 20
5.84926
 11
-0.709991
 21
5.85263
  0
LINE
  8
0
 10
-0.709991
 20
5.85263
 11
-0.709488
 21
5.85597
  0
LINE
  8
0
 10
-0.709488
 20
5.85597
 11
-0.708862
 21
5.8593
  0
LINE
  8
0
 10
-0.708862
 20
5.8593
 11
-0.708084
 21
5.86258
  0
LINE
  8
0
 10
-0.708084
 20
5.86258
 11
-0.707184
 21
5.86584
  0
LINE
  8
0
 10
-0.707184
 20
5.86584
 11
-0.706131
 21
5.86905
  0
LINE
  8
0
 10
-0.706131
 20
5.86905
 11
-0.704956
 21
5.87222
  0
LINE
  8
0
 10
-0.704956
 20
5.87222
 11
-0.703644
 21
5.87534
  0
LINE
  8
0
 10
-0.703644
 20
5.87534
 11
-0.702209
 21
5.8784
  0
LINE
  8
0
 10
-0.702209
 20
5.8784
 11
-0.700638
 21
5.88139
  0
LINE
  8
0
 10
-0.700638
 20
5.88139
 11
-0.698944
 21
5.88432
  0
LINE
  8
0
 10
-0.698944
 20
5.88432
 11
-0.697144
 21
5.88718
  0
LINE
  8
0
 10
-0.697144
 20
5.88718
 11
-0.695206
 21
5.88995
  0
LINE
  8
0
 10
-0.695206
 20
5.88995
 11
-0.693161
 21
5.89264
  0
LINE
  8
0
 10
-0.693161
 20
5.89264
 11
-0.69101
 21
5.89525
  0
LINE
  8
0
 10
-0.69101
 20
5.89525
 11
-0.688751
 21
5.89777
  0
LINE
  8
0
 10
-0.688751
 20
5.89777
 11
-0.686386
 21
5.90018
  0
LINE
  8
0
 10
-0.686386
 20
5.90018
 11
-0.683914
 21
5.9025
  0
LINE
  8
0
 10
-0.683914
 20
5.9025
 11
-0.681366
 21
5.90469
  0
LINE
  8
0
 10
-0.681366
 20
5.90469
 11
-0.678711
 21
5.9068
  0
LINE
  8
0
 10
-0.678711
 20
5.9068
 11
-0.67598
 21
5.90878
  0
LINE
  8
0
 10
-0.67598
 20
5.90878
 11
-0.673157
 21
5.91066
  0
LINE
  8
0
 10
-0.673157
 20
5.91066
 11
-0.670273
 21
5.91241
  0
LINE
  8
0
 10
-0.670273
 20
5.91241
 11
-0.667313
 21
5.91403
  0
LINE
  8
0
 10
-0.667313
 20
5.91403
 11
-0.664276
 21
5.91554
  0
LINE
  8
0
 10
-0.664276
 20
5.91554
 11
-0.661194
 21
5.91692
  0
LINE
  8
0
 10
-0.661194
 20
5.91692
 11
-0.658051
 21
5.91815
  0
LINE
  8
0
 10
-0.658051
 20
5.91815
 11
-0.654846
 21
5.91927
  0
LINE
  8
0
 10
-0.654846
 20
5.91927
 11
-0.651611
 21
5.92024
  0
LINE
  8
0
 10
-0.651611
 20
5.92024
 11
-0.648346
 21
5.92108
  0
LINE
  8
0
 10
-0.648346
 20
5.92108
 11
-0.645035
 21
5.9218
  0
LINE
  8
0
 10
-0.645035
 20
5.9218
 11
-0.641708
 21
5.92235
  0
LINE
  8
0
 10
-0.641708
 20
5.92235
 11
-0.638351
 21
5.92278
  0
LINE
  8
0
 10
-0.638351
 20
5.92278
 11
-0.634979
 21
5.92307
  0
LINE
  8
0
 10
-0.634979
 20
5.92307
 11
-0.631607
 21
5.9232
  0
LINE
  8
0
 10
-0.631607
 20
5.9232
 11
-0.62822
 21
5.9232
  0
LINE
  8
0
 10
-0.62822
 20
5.9232
 11
-0.624847
 21
5.92307
  0
LINE
  8
0
 10
-0.624847
 20
5.92307
 11
-0.621475
 21
5.92278
  0
LINE
  8
0
 10
-0.621475
 20
5.92278
 11
-0.618118
 21
5.92235
  0
LINE
  8
0
 10
-0.618118
 20
5.92235
 11
-0.614792
 21
5.9218
  0
LINE
  8
0
 10
-0.614792
 20
5.9218
 11
-0.611481
 21
5.92108
  0
LINE
  8
0
 10
-0.611481
 20
5.92108
 11
-0.608215
 21
5.92024
  0
LINE
  8
0
 10
-0.608215
 20
5.92024
 11
-0.60498
 21
5.91927
  0
LINE
  8
0
 10
-0.60498
 20
5.91927
 11
-0.601776
 21
5.91815
  0
LINE
  8
0
 10
-0.601776
 20
5.91815
 11
-0.598633
 21
5.91692
  0
LINE
  8
0
 10
-0.598633
 20
5.91692
 11
-0.595551
 21
5.91554
  0
LINE
  8
0
 10
-0.595551
 20
5.91554
 11
-0.592529
 21
5.91403
  0
LINE
  8
0
 10
-0.592529
 20
5.91403
 11
-0.589554
 21
5.91241
  0
LINE
  8
0
 10
-0.589554
 20
5.91241
 11
-0.58667
 21
5.91066
  0
LINE
  8
0
 10
-0.58667
 20
5.91066
 11
-0.583847
 21
5.90878
  0
LINE
  8
0
 10
-0.583847
 20
5.90878
 11
-0.581116
 21
5.9068
  0
LINE
  8
0
 10
-0.581116
 20
5.9068
 11
-0.578476
 21
5.90469
  0
LINE
  8
0
 10
-0.578476
 20
5.90469
 11
-0.575912
 21
5.9025
  0
LINE
  8
0
 10
-0.575912
 20
5.9025
 11
-0.573441
 21
5.90018
  0
LINE
  8
0
 10
-0.573441
 20
5.90018
 11
-0.571075
 21
5.89777
  0
LINE
  8
0
 10
-0.571075
 20
5.89777
 11
-0.568817
 21
5.89525
  0
LINE
  8
0
 10
-0.568817
 20
5.89525
 11
-0.566666
 21
5.89264
  0
LINE
  8
0
 10
-0.566666
 20
5.89264
 11
-0.564621
 21
5.88995
  0
LINE
  8
0
 10
-0.564621
 20
5.88995
 11
-0.562683
 21
5.88718
  0
LINE
  8
0
 10
-0.562683
 20
5.88718
 11
-0.560883
 21
5.88432
  0
LINE
  8
0
 10
-0.560883
 20
5.88432
 11
-0.559189
 21
5.88139
  0
LINE
  8
0
 10
-0.559189
 20
5.88139
 11
-0.557617
 21
5.8784
  0
LINE
  8
0
 10
-0.557617
 20
5.8784
 11
-0.556183
 21
5.87534
  0
LINE
  8
0
 10
-0.556183
 20
5.87534
 11
-0.554871
 21
5.87222
  0
LINE
  8
0
 10
-0.554871
 20
5.87222
 11
-0.553696
 21
5.86905
  0
LINE
  8
0
 10
-0.553696
 20
5.86905
 11
-0.552643
 21
5.86584
  0
LINE
  8
0
 10
-0.552643
 20
5.86584
 11
-0.551743
 21
5.86258
  0
LINE
  8
0
 10
-0.551743
 20
5.86258
 11
-0.550964
 21
5.8593
  0
LINE
  8
0
 10
-0.550964
 20
5.8593
 11
-0.550339
 21
5.85597
  0
LINE
  8
0
 10
-0.550339
 20
5.85597
 11
-0.549835
 21
5.85263
  0
LINE
  8
0
 10
-0.549835
 20
5.85263
 11
-0.549484
 21
5.84926
  0
LINE
  8
0
 10
-0.549484
 20
5.84926
 11
-0.549271
 21
5.84589
  0
LINE
  8
0
 10
-0.549271
 20
5.84589
 11
-0.54921
 21
5.84251
  0
LINE
  8
0
 10
-0.54921
 20
5.84251
 11
-0.549271
 21
5.83913
  0
LINE
  8
0
 10
-0.549271
 20
5.83913
 11
-0.549484
 21
5.83575
  0
LINE
  8
0
 10
-0.549484
 20
5.83575
 11
-0.549835
 21
5.8324
  0
LINE
  8
0
 10
-0.549835
 20
5.8324
 11
-0.550339
 21
5.82906
  0
LINE
  8
0
 10
-0.550339
 20
5.82906
 11
-0.550964
 21
5.82573
  0
LINE
  8
0
 10
-0.550964
 20
5.82573
 11
-0.551743
 21
5.82245
  0
LINE
  8
0
 10
-0.551743
 20
5.82245
 11
-0.552643
 21
5.81918
  0
LINE
  8
0
 10
-0.552643
 20
5.81918
 11
-0.553696
 21
5.81596
  0
LINE
  8
0
 10
-0.553696
 20
5.81596
 11
-0.554871
 21
5.81281
  0
LINE
  8
0
 10
-0.554871
 20
5.81281
 11
-0.556183
 21
5.80969
  0
LINE
  8
0
 10
-0.556183
 20
5.80969
 11
-0.557617
 21
5.80663
  0
LINE
  8
0
 10
-0.557617
 20
5.80663
 11
-0.559189
 21
5.80363
  0
LINE
  8
0
 10
-0.559189
 20
5.80363
 11
-0.560883
 21
5.8007
  0
LINE
  8
0
 10
-0.560883
 20
5.8007
 11
-0.562683
 21
5.79785
  0
LINE
  8
0
 10
-0.562683
 20
5.79785
 11
-0.564621
 21
5.79507
  0
LINE
  8
0
 10
-0.564621
 20
5.79507
 11
-0.566666
 21
5.79237
  0
LINE
  8
0
 10
-0.566666
 20
5.79237
 11
-0.568817
 21
5.78978
  0
LINE
  8
0
 10
-0.568817
 20
5.78978
 11
-0.571075
 21
5.78726
  0
LINE
  8
0
 10
-0.571075
 20
5.78726
 11
-0.573441
 21
5.78485
  0
LINE
  8
0
 10
-0.573441
 20
5.78485
 11
-0.575912
 21
5.78253
  0
LINE
  8
0
 10
-0.575912
 20
5.78253
 11
-0.578476
 21
5.78032
  0
LINE
  8
0
 10
-0.578476
 20
5.78032
 11
-0.581116
 21
5.77823
  0
LINE
  8
0
 10
-0.581116
 20
5.77823
 11
-0.583847
 21
5.77625
  0
LINE
  8
0
 10
-0.583847
 20
5.77625
 11
-0.58667
 21
5.77437
  0
LINE
  8
0
 10
-0.58667
 20
5.77437
 11
-0.589554
 21
5.77261
  0
LINE
  8
0
 10
-0.589554
 20
5.77261
 11
-0.592529
 21
5.771
  0
LINE
  8
0
 10
-0.592529
 20
5.771
 11
-0.595551
 21
5.76949
  0
LINE
  8
0
 10
-0.595551
 20
5.76949
 11
-0.598633
 21
5.76811
  0
LINE
  8
0
 10
-0.598633
 20
5.76811
 11
-0.601776
 21
5.76686
  0
LINE
  8
0
 10
-0.601776
 20
5.76686
 11
-0.60498
 21
5.76575
  0
LINE
  8
0
 10
-0.60498
 20
5.76575
 11
-0.608215
 21
5.76477
  0
LINE
  8
0
 10
-0.608215
 20
5.76477
 11
-0.611481
 21
5.76393
  0
LINE
  8
0
 10
-0.611481
 20
5.76393
 11
-0.614792
 21
5.76323
  0
LINE
  8
0
 10
-0.614792
 20
5.76323
 11
-0.618118
 21
5.76266
  0
LINE
  8
0
 10
-0.618118
 20
5.76266
 11
-0.621475
 21
5.76225
  0
LINE
  8
0
 10
-0.621475
 20
5.76225
 11
-0.624847
 21
5.76196
  0
LINE
  8
0
 10
-0.624847
 20
5.76196
 11
-0.62822
 21
5.76183
  0
LINE
  8
0
 10
-0.62822
 20
5.76183
 11
-0.631607
 21
5.76183
  0
LINE
  8
0
 10
0.62822
 20
5.76183
 11
0.624847
 21
5.76196
  0
LINE
  8
0
 10
0.624847
 20
5.76196
 11
0.621475
 21
5.76225
  0
LINE
  8
0
 10
0.621475
 20
5.76225
 11
0.618118
 21
5.76266
  0
LINE
  8
0
 10
0.618118
 20
5.76266
 11
0.614792
 21
5.76323
  0
LINE
  8
0
 10
0.614792
 20
5.76323
 11
0.611481
 21
5.76393
  0
LINE
  8
0
 10
0.611481
 20
5.76393
 11
0.608215
 21
5.76477
  0
LINE
  8
0
 10
0.608215
 20
5.76477
 11
0.604965
 21
5.76575
  0
LINE
  8
0
 10
0.604965
 20
5.76575
 11
0.601776
 21
5.76686
  0
LINE
  8
0
 10
0.601776
 20
5.76686
 11
0.598633
 21
5.76811
  0
LINE
  8
0
 10
0.598633
 20
5.76811
 11
0.595551
 21
5.76949
  0
LINE
  8
0
 10
0.595551
 20
5.76949
 11
0.592514
 21
5.771
  0
LINE
  8
0
 10
0.592514
 20
5.771
 11
0.589554
 21
5.77261
  0
LINE
  8
0
 10
0.589554
 20
5.77261
 11
0.58667
 21
5.77437
  0
LINE
  8
0
 10
0.58667
 20
5.77437
 11
0.583847
 21
5.77625
  0
LINE
  8
0
 10
0.583847
 20
5.77625
 11
0.581116
 21
5.77823
  0
LINE
  8
0
 10
0.581116
 20
5.77823
 11
0.578461
 21
5.78032
  0
LINE
  8
0
 10
0.578461
 20
5.78032
 11
0.575912
 21
5.78253
  0
LINE
  8
0
 10
0.575912
 20
5.78253
 11
0.573441
 21
5.78485
  0
LINE
  8
0
 10
0.573441
 20
5.78485
 11
0.571075
 21
5.78726
  0
LINE
  8
0
 10
0.571075
 20
5.78726
 11
0.568817
 21
5.78978
  0
LINE
  8
0
 10
0.568817
 20
5.78978
 11
0.566666
 21
5.79237
  0
LINE
  8
0
 10
0.566666
 20
5.79237
 11
0.564621
 21
5.79507
  0
LINE
  8
0
 10
0.564621
 20
5.79507
 11
0.562683
 21
5.79785
  0
LINE
  8
0
 10
0.562683
 20
5.79785
 11
0.560883
 21
5.8007
  0
LINE
  8
0
 10
0.560883
 20
5.8007
 11
0.559189
 21
5.80363
  0
LINE
  8
0
 10
0.559189
 20
5.80363
 11
0.557617
 21
5.80663
  0
LINE
  8
0
 10
0.557617
 20
5.80663
 11
0.556183
 21
5.80969
  0
LINE
  8
0
 10
0.556183
 20
5.80969
 11
0.554871
 21
5.81281
  0
LINE
  8
0
 10
0.554871
 20
5.81281
 11
0.553696
 21
5.81596
  0
LINE
  8
0
 10
0.553696
 20
5.81596
 11
0.552643
 21
5.81918
  0
LINE
  8
0
 10
0.552643
 20
5.81918
 11
0.551743
 21
5.82245
  0
LINE
  8
0
 10
0.551743
 20
5.82245
 11
0.550964
 21
5.82573
  0
LINE
  8
0
 10
0.550964
 20
5.82573
 11
0.550339
 21
5.82906
  0
LINE
  8
0
 10
0.550339
 20
5.82906
 11
0.549835
 21
5.8324
  0
LINE
  8
0
 10
0.549835
 20
5.8324
 11
0.549484
 21
5.83575
  0
LINE
  8
0
 10
0.549484
 20
5.83575
 11
0.549271
 21
5.83913
  0
LINE
  8
0
 10
0.549271
 20
5.83913
 11
0.54921
 21
5.84251
  0
LINE
  8
0
 10
0.54921
 20
5.84251
 11
0.549271
 21
5.84589
  0
LINE
  8
0
 10
0.549271
 20
5.84589
 11
0.549484
 21
5.84926
  0
LINE
  8
0
 10
0.549484
 20
5.84926
 11
0.549835
 21
5.85263
  0
LINE
  8
0
 10
0.549835
 20
5.85263
 11
0.550339
 21
5.85597
  0
LINE
  8
0
 10
0.550339
 20
5.85597
 11
0.550964
 21
5.8593
  0
LINE
  8
0
 10
0.550964
 20
5.8593
 11
0.551743
 21
5.86258
  0
LINE
  8
0
 10
0.551743
 20
5.86258
 11
0.552643
 21
5.86584
  0
LINE
  8
0
 10
0.552643
 20
5.86584
 11
0.553696
 21
5.86905
  0
LINE
  8
0
 10
0.553696
 20
5.86905
 11
0.554871
 21
5.87222
  0
LINE
  8
0
 10
0.554871
 20
5.87222
 11
0.556183
 21
5.87534
  0
LINE
  8
0
 10
0.556183
 20
5.87534
 11
0.557617
 21
5.8784
  0
LINE
  8
0
 10
0.557617
 20
5.8784
 11
0.559189
 21
5.88139
  0
LINE
  8
0
 10
0.559189
 20
5.88139
 11
0.560883
 21
5.88432
  0
LINE
  8
0
 10
0.560883
 20
5.88432
 11
0.562683
 21
5.88718
  0
LINE
  8
0
 10
0.562683
 20
5.88718
 11
0.564621
 21
5.88995
  0
LINE
  8
0
 10
0.564621
 20
5.88995
 11
0.566666
 21
5.89264
  0
LINE
  8
0
 10
0.566666
 20
5.89264
 11
0.568817
 21
5.89525
  0
LINE
  8
0
 10
0.568817
 20
5.89525
 11
0.571075
 21
5.89777
  0
LINE
  8
0
 10
0.571075
 20
5.89777
 11
0.573441
 21
5.90018
  0
LINE
  8
0
 10
0.573441
 20
5.90018
 11
0.575912
 21
5.9025
  0
LINE
  8
0
 10
0.575912
 20
5.9025
 11
0.578461
 21
5.90469
  0
LINE
  8
0
 10
0.578461
 20
5.90469
 11
0.581116
 21
5.9068
  0
LINE
  8
0
 10
0.581116
 20
5.9068
 11
0.583847
 21
5.90878
  0
LINE
  8
0
 10
0.583847
 20
5.90878
 11
0.58667
 21
5.91066
  0
LINE
  8
0
 10
0.58667
 20
5.91066
 11
0.589554
 21
5.91241
  0
LINE
  8
0
 10
0.589554
 20
5.91241
 11
0.592514
 21
5.91403
  0
LINE
  8
0
 10
0.592514
 20
5.91403
 11
0.595551
 21
5.91554
  0
LINE
  8
0
 10
0.595551
 20
5.91554
 11
0.598633
 21
5.91692
  0
LINE
  8
0
 10
0.598633
 20
5.91692
 11
0.601776
 21
5.91815
  0
LINE
  8
0
 10
0.601776
 20
5.91815
 11
0.604965
 21
5.91927
  0
LINE
  8
0
 10
0.604965
 20
5.91927
 11
0.608215
 21
5.92024
  0
LINE
  8
0
 10
0.608215
 20
5.92024
 11
0.611481
 21
5.92108
  0
LINE
  8
0
 10
0.611481
 20
5.92108
 11
0.614792
 21
5.9218
  0
LINE
  8
0
 10
0.614792
 20
5.9218
 11
0.618118
 21
5.92235
  0
LINE
  8
0
 10
0.618118
 20
5.92235
 11
0.621475
 21
5.92278
  0
LINE
  8
0
 10
0.621475
 20
5.92278
 11
0.624847
 21
5.92307
  0
LINE
  8
0
 10
0.624847
 20
5.92307
 11
0.62822
 21
5.9232
  0
LINE
  8
0
 10
0.62822
 20
5.9232
 11
0.631607
 21
5.9232
  0
LINE
  8
0
 10
0.631607
 20
5.9232
 11
0.634979
 21
5.92307
  0
LINE
  8
0
 10
0.634979
 20
5.92307
 11
0.638351
 21
5.92278
  0
LINE
  8
0
 10
0.638351
 20
5.92278
 11
0.641708
 21
5.92235
  0
LINE
  8
0
 10
0.641708
 20
5.92235
 11
0.645035
 21
5.9218
  0
LINE
  8
0
 10
0.645035
 20
5.9218
 11
0.648346
 21
5.92108
  0
LINE
  8
0
 10
0.648346
 20
5.92108
 11
0.651611
 21
5.92024
  0
LINE
  8
0
 10
0.651611
 20
5.92024
 11
0.654846
 21
5.91927
  0
LINE
  8
0
 10
0.654846
 20
5.91927
 11
0.658051
 21
5.91815
  0
LINE
  8
0
 10
0.658051
 20
5.91815
 11
0.661194
 21
5.91692
  0
LINE
  8
0
 10
0.661194
 20
5.91692
 11
0.664276
 21
5.91554
  0
LINE
  8
0
 10
0.664276
 20
5.91554
 11
0.667313
 21
5.91403
  0
LINE
  8
0
 10
0.667313
 20
5.91403
 11
0.670273
 21
5.91241
  0
LINE
  8
0
 10
0.670273
 20
5.91241
 11
0.673157
 21
5.91066
  0
LINE
  8
0
 10
0.673157
 20
5.91066
 11
0.67598
 21
5.90878
  0
LINE
  8
0
 10
0.67598
 20
5.90878
 11
0.678711
 21
5.9068
  0
LINE
  8
0
 10
0.678711
 20
5.9068
 11
0.681366
 21
5.90469
  0
LINE
  8
0
 10
0.681366
 20
5.90469
 11
0.683914
 21
5.9025
  0
LINE
  8
0
 10
0.683914
 20
5.9025
 11
0.686386
 21
5.90018
  0
LINE
  8
0
 10
0.686386
 20
5.90018
 11
0.688751
 21
5.89777
  0
LINE
  8
0
 10
0.688751
 20
5.89777
 11
0.69101
 21
5.89525
  0
LINE
  8
0
 10
0.69101
 20
5.89525
 11
0.693161
 21
5.89264
  0
LINE
  8
0
 10
0.693161
 20
5.89264
 11
0.695206
 21
5.88995
  0
LINE
  8
0
 10
0.695206
 20
5.88995
 11
0.697144
 21
5.88718
  0
LINE
  8
0
 10
0.697144
 20
5.88718
 11
0.698944
 21
5.88432
  0
LINE
  8
0
 10
0.698944
 20
5.88432
 11
0.700638
 21
5.88139
  0
LINE
  8
0
 10
0.700638
 20
5.88139
 11
0.702209
 21
5.8784
  0
LINE
  8
0
 10
0.702209
 20
5.8784
 11
0.703644
 21
5.87534
  0
LINE
  8
0
 10
0.703644
 20
5.87534
 11
0.704956
 21
5.87222
  0
LINE
  8
0
 10
0.704956
 20
5.87222
 11
0.706131
 21
5.86905
  0
LINE
  8
0
 10
0.706131
 20
5.86905
 11
0.707184
 21
5.86584
  0
LINE
  8
0
 10
0.707184
 20
5.86584
 11
0.708084
 21
5.86258
  0
LINE
  8
0
 10
0.708084
 20
5.86258
 11
0.708862
 21
5.8593
  0
LINE
  8
0
 10
0.708862
 20
5.8593
 11
0.709488
 21
5.85597
  0
LINE
  8
0
 10
0.709488
 20
5.85597
 11
0.709991
 21
5.85263
  0
LINE
  8
0
 10
0.709991
 20
5.85263
 11
0.710342
 21
5.84926
  0
LINE
  8
0
 10
0.710342
 20
5.84926
 11
0.710556
 21
5.84589
  0
LINE
  8
0
 10
0.710556
 20
5.84589
 11
0.710617
 21
5.84251
  0
LINE
  8
0
 10
0.710617
 20
5.84251
 11
0.710556
 21
5.83913
  0
LINE
  8
0
 10
0.710556
 20
5.83913
 11
0.710342
 21
5.83575
  0
LINE
  8
0
 10
0.710342
 20
5.83575
 11
0.709991
 21
5.8324
  0
LINE
  8
0
 10
0.709991
 20
5.8324
 11
0.709488
 21
5.82906
  0
LINE
  8
0
 10
0.709488
 20
5.82906
 11
0.708862
 21
5.82573
  0
LINE
  8
0
 10
0.708862
 20
5.82573
 11
0.708084
 21
5.82245
  0
LINE
  8
0
 10
0.708084
 20
5.82245
 11
0.707184
 21
5.81918
  0
LINE
  8
0
 10
0.707184
 20
5.81918
 11
0.706131
 21
5.81596
  0
LINE
  8
0
 10
0.706131
 20
5.81596
 11
0.704956
 21
5.81281
  0
LINE
  8
0
 10
0.704956
 20
5.81281
 11
0.703644
 21
5.80969
  0
LINE
  8
0
 10
0.703644
 20
5.80969
 11
0.702209
 21
5.80663
  0
LINE
  8
0
 10
0.702209
 20
5.80663
 11
0.700638
 21
5.80363
  0
LINE
  8
0
 10
0.700638
 20
5.80363
 11
0.698944
 21
5.8007
  0
LINE
  8
0
 10
0.698944
 20
5.8007
 11
0.697144
 21
5.79785
  0
LINE
  8
0
 10
0.697144
 20
5.79785
 11
0.695206
 21
5.79507
  0
LINE
  8
0
 10
0.695206
 20
5.79507
 11
0.693161
 21
5.79237
  0
LINE
  8
0
 10
0.693161
 20
5.79237
 11
0.69101
 21
5.78978
  0
LINE
  8
0
 10
0.69101
 20
5.78978
 11
0.688751
 21
5.78726
  0
LINE
  8
0
 10
0.688751
 20
5.78726
 11
0.686386
 21
5.78485
  0
LINE
  8
0
 10
0.686386
 20
5.78485
 11
0.683914
 21
5.78253
  0
LINE
  8
0
 10
0.683914
 20
5.78253
 11
0.681366
 21
5.78032
  0
LINE
  8
0
 10
0.681366
 20
5.78032
 11
0.678711
 21
5.77823
  0
LINE
  8
0
 10
0.678711
 20
5.77823
 11
0.67598
 21
5.77625
  0
LINE
  8
0
 10
0.67598
 20
5.77625
 11
0.673157
 21
5.77437
  0
LINE
  8
0
 10
0.673157
 20
5.77437
 11
0.670273
 21
5.77261
  0
LINE
  8
0
 10
0.670273
 20
5.77261
 11
0.667313
 21
5.771
  0
LINE
  8
0
 10
0.667313
 20
5.771
 11
0.664276
 21
5.76949
  0
LINE
  8
0
 10
0.664276
 20
5.76949
 11
0.661194
 21
5.76811
  0
LINE
  8
0
 10
0.661194
 20
5.76811
 11
0.658051
 21
5.76686
  0
LINE
  8
0
 10
0.658051
 20
5.76686
 11
0.654846
 21
5.76575
  0
LINE
  8
0
 10
0.654846
 20
5.76575
 11
0.651611
 21
5.76477
  0
LINE
  8
0
 10
0.651611
 20
5.76477
 11
0.648346
 21
5.76393
  0
LINE
  8
0
 10
0.648346
 20
5.76393
 11
0.645035
 21
5.76323
  0
LINE
  8
0
 10
0.645035
 20
5.76323
 11
0.641708
 21
5.76266
  0
LINE
  8
0
 10
0.641708
 20
5.76266
 11
0.638351
 21
5.76225
  0
LINE
  8
0
 10
0.638351
 20
5.76225
 11
0.634979
 21
5.76196
  0
LINE
  8
0
 10
0.634979
 20
5.76196
 11
0.631607
 21
5.76183
  0
LINE
  8
0
 10
0.631607
 20
5.76183
 11
0.62822
 21
5.76183
  0
LINE
  8
0
 10
-0.00167847
 20
5.76183
 11
-0.00506592
 21
5.76196
  0
LINE
  8
0
 10
-0.00506592
 20
5.76196
 11
-0.00842285
 21
5.76225
  0
LINE
  8
0
 10
-0.00842285
 20
5.76225
 11
-0.0117798
 21
5.76266
  0
LINE
  8
0
 10
-0.0117798
 20
5.76266
 11
-0.0151215
 21
5.76323
  0
LINE
  8
0
 10
-0.0151215
 20
5.76323
 11
-0.0184174
 21
5.76393
  0
LINE
  8
0
 10
-0.0184174
 20
5.76393
 11
-0.021698
 21
5.76477
  0
LINE
  8
0
 10
-0.021698
 20
5.76477
 11
-0.0249329
 21
5.76575
  0
LINE
  8
0
 10
-0.0249329
 20
5.76575
 11
-0.0281219
 21
5.76686
  0
LINE
  8
0
 10
-0.0281219
 20
5.76686
 11
-0.0312653
 21
5.76811
  0
LINE
  8
0
 10
-0.0312653
 20
5.76811
 11
-0.0343628
 21
5.76949
  0
LINE
  8
0
 10
-0.0343628
 20
5.76949
 11
-0.037384
 21
5.771
  0
LINE
  8
0
 10
-0.037384
 20
5.771
 11
-0.0403442
 21
5.77261
  0
LINE
  8
0
 10
-0.0403442
 20
5.77261
 11
-0.0432434
 21
5.77437
  0
LINE
  8
0
 10
-0.0432434
 20
5.77437
 11
-0.046051
 21
5.77625
  0
LINE
  8
0
 10
-0.046051
 20
5.77625
 11
-0.0487823
 21
5.77823
  0
LINE
  8
0
 10
-0.0487823
 20
5.77823
 11
-0.0514374
 21
5.78032
  0
LINE
  8
0
 10
-0.0514374
 20
5.78032
 11
-0.0540009
 21
5.78253
  0
LINE
  8
0
 10
-0.0540009
 20
5.78253
 11
-0.0564575
 21
5.78485
  0
LINE
  8
0
 10
-0.0564575
 20
5.78485
 11
-0.0588226
 21
5.78726
  0
LINE
  8
0
 10
-0.0588226
 20
5.78726
 11
-0.0610962
 21
5.78978
  0
LINE
  8
0
 10
-0.0610962
 20
5.78978
 11
-0.0632477
 21
5.79237
  0
LINE
  8
0
 10
-0.0632477
 20
5.79237
 11
-0.0652924
 21
5.79507
  0
LINE
  8
0
 10
-0.0652924
 20
5.79507
 11
-0.067215
 21
5.79785
  0
LINE
  8
0
 10
-0.067215
 20
5.79785
 11
-0.0690308
 21
5.8007
  0
LINE
  8
0
 10
-0.0690308
 20
5.8007
 11
-0.0707245
 21
5.80363
  0
LINE
  8
0
 10
-0.0707245
 20
5.80363
 11
-0.0722809
 21
5.80663
  0
LINE
  8
0
 10
-0.0722809
 20
5.80663
 11
-0.0737305
 21
5.80969
  0
LINE
  8
0
 10
-0.0737305
 20
5.80969
 11
-0.0750275
 21
5.81281
  0
LINE
  8
0
 10
-0.0750275
 20
5.81281
 11
-0.0762177
 21
5.81596
  0
LINE
  8
0
 10
-0.0762177
 20
5.81596
 11
-0.0772552
 21
5.81918
  0
LINE
  8
0
 10
-0.0772552
 20
5.81918
 11
-0.0781708
 21
5.82245
  0
LINE
  8
0
 10
-0.0781708
 20
5.82245
 11
-0.0789337
 21
5.82573
  0
LINE
  8
0
 10
-0.0789337
 20
5.82573
 11
-0.0795746
 21
5.82906
  0
LINE
  8
0
 10
-0.0795746
 20
5.82906
 11
-0.0800629
 21
5.8324
  0
LINE
  8
0
 10
-0.0800629
 20
5.8324
 11
-0.0804138
 21
5.83575
  0
LINE
  8
0
 10
-0.0804138
 20
5.83575
 11
-0.0806274
 21
5.83913
  0
LINE
  8
0
 10
-0.0806274
 20
5.83913
 11
-0.0807037
 21
5.84251
  0
LINE
  8
0
 10
-0.0807037
 20
5.84251
 11
-0.0806274
 21
5.84589
  0
LINE
  8
0
 10
-0.0806274
 20
5.84589
 11
-0.0804138
 21
5.84926
  0
LINE
  8
0
 10
-0.0804138
 20
5.84926
 11
-0.0800629
 21
5.85263
  0
LINE
  8
0
 10
-0.0800629
 20
5.85263
 11
-0.0795746
 21
5.85597
  0
LINE
  8
0
 10
-0.0795746
 20
5.85597
 11
-0.0789337
 21
5.8593
  0
LINE
  8
0
 10
-0.0789337
 20
5.8593
 11
-0.0781708
 21
5.86258
  0
LINE
  8
0
 10
-0.0781708
 20
5.86258
 11
-0.0772552
 21
5.86584
  0
LINE
  8
0
 10
-0.0772552
 20
5.86584
 11
-0.0762177
 21
5.86905
  0
LINE
  8
0
 10
-0.0762177
 20
5.86905
 11
-0.0750275
 21
5.87222
  0
LINE
  8
0
 10
-0.0750275
 20
5.87222
 11
-0.0737305
 21
5.87534
  0
LINE
  8
0
 10
-0.0737305
 20
5.87534
 11
-0.0722809
 21
5.8784
  0
LINE
  8
0
 10
-0.0722809
 20
5.8784
 11
-0.0707245
 21
5.88139
  0
LINE
  8
0
 10
-0.0707245
 20
5.88139
 11
-0.0690308
 21
5.88432
  0
LINE
  8
0
 10
-0.0690308
 20
5.88432
 11
-0.067215
 21
5.88718
  0
LINE
  8
0
 10
-0.067215
 20
5.88718
 11
-0.0652924
 21
5.88995
  0
LINE
  8
0
 10
-0.0652924
 20
5.88995
 11
-0.0632477
 21
5.89264
  0
LINE
  8
0
 10
-0.0632477
 20
5.89264
 11
-0.0610962
 21
5.89525
  0
LINE
  8
0
 10
-0.0610962
 20
5.89525
 11
-0.0588226
 21
5.89777
  0
LINE
  8
0
 10
-0.0588226
 20
5.89777
 11
-0.0564575
 21
5.90018
  0
LINE
  8
0
 10
-0.0564575
 20
5.90018
 11
-0.0540009
 21
5.9025
  0
LINE
  8
0
 10
-0.0540009
 20
5.9025
 11
-0.0514374
 21
5.90469
  0
LINE
  8
0
 10
-0.0514374
 20
5.90469
 11
-0.0487823
 21
5.9068
  0
LINE
  8
0
 10
-0.0487823
 20
5.9068
 11
-0.046051
 21
5.90878
  0
LINE
  8
0
 10
-0.046051
 20
5.90878
 11
-0.0432434
 21
5.91066
  0
LINE
  8
0
 10
-0.0432434
 20
5.91066
 11
-0.0403442
 21
5.91241
  0
LINE
  8
0
 10
-0.0403442
 20
5.91241
 11
-0.037384
 21
5.91403
  0
LINE
  8
0
 10
-0.037384
 20
5.91403
 11
-0.0343628
 21
5.91554
  0
LINE
  8
0
 10
-0.0343628
 20
5.91554
 11
-0.0312653
 21
5.91692
  0
LINE
  8
0
 10
-0.0312653
 20
5.91692
 11
-0.0281219
 21
5.91815
  0
LINE
  8
0
 10
-0.0281219
 20
5.91815
 11
-0.0249329
 21
5.91927
  0
LINE
  8
0
 10
-0.0249329
 20
5.91927
 11
-0.021698
 21
5.92024
  0
LINE
  8
0
 10
-0.021698
 20
5.92024
 11
-0.0184174
 21
5.92108
  0
LINE
  8
0
 10
-0.0184174
 20
5.92108
 11
-0.0151215
 21
5.9218
  0
LINE
  8
0
 10
-0.0151215
 20
5.9218
 11
-0.0117798
 21
5.92235
  0
LINE
  8
0
 10
-0.0117798
 20
5.92235
 11
-0.00842285
 21
5.92278
  0
LINE
  8
0
 10
-0.00842285
 20
5.92278
 11
-0.00506592
 21
5.92307
  0
LINE
  8
0
 10
-0.00506592
 20
5.92307
 11
-0.00167847
 21
5.9232
  0
LINE
  8
0
 10
-0.00167847
 20
5.9232
 11
0.00167847
 21
5.9232
  0
LINE
  8
0
 10
0.00167847
 20
5.9232
 11
0.00506592
 21
5.92307
  0
LINE
  8
0
 10
0.00506592
 20
5.92307
 11
0.00842285
 21
5.92278
  0
LINE
  8
0
 10
0.00842285
 20
5.92278
 11
0.0117798
 21
5.92235
  0
LINE
  8
0
 10
0.0117798
 20
5.92235
 11
0.0151215
 21
5.9218
  0
LINE
  8
0
 10
0.0151215
 20
5.9218
 11
0.0184174
 21
5.92108
  0
LINE
  8
0
 10
0.0184174
 20
5.92108
 11
0.021698
 21
5.92024
  0
LINE
  8
0
 10
0.021698
 20
5.92024
 11
0.0249329
 21
5.91927
  0
LINE
  8
0
 10
0.0249329
 20
5.91927
 11
0.0281219
 21
5.91815
  0
LINE
  8
0
 10
0.0281219
 20
5.91815
 11
0.0312653
 21
5.91692
  0
LINE
  8
0
 10
0.0312653
 20
5.91692
 11
0.0343628
 21
5.91554
  0
LINE
  8
0
 10
0.0343628
 20
5.91554
 11
0.037384
 21
5.91403
  0
LINE
  8
0
 10
0.037384
 20
5.91403
 11
0.0403442
 21
5.91241
  0
LINE
  8
0
 10
0.0403442
 20
5.91241
 11
0.0432434
 21
5.91066
  0
LINE
  8
0
 10
0.0432434
 20
5.91066
 11
0.046051
 21
5.90878
  0
LINE
  8
0
 10
0.046051
 20
5.90878
 11
0.0487823
 21
5.9068
  0
LINE
  8
0
 10
0.0487823
 20
5.9068
 11
0.0514374
 21
5.90469
  0
LINE
  8
0
 10
0.0514374
 20
5.90469
 11
0.0540009
 21
5.9025
  0
LINE
  8
0
 10
0.0540009
 20
5.9025
 11
0.0564575
 21
5.90018
  0
LINE
  8
0
 10
0.0564575
 20
5.90018
 11
0.0588226
 21
5.89777
  0
LINE
  8
0
 10
0.0588226
 20
5.89777
 11
0.0610809
 21
5.89525
  0
LINE
  8
0
 10
0.0610809
 20
5.89525
 11
0.0632477
 21
5.89264
  0
LINE
  8
0
 10
0.0632477
 20
5.89264
 11
0.0652924
 21
5.88995
  0
LINE
  8
0
 10
0.0652924
 20
5.88995
 11
0.067215
 21
5.88718
  0
LINE
  8
0
 10
0.067215
 20
5.88718
 11
0.0690308
 21
5.88432
  0
LINE
  8
0
 10
0.0690308
 20
5.88432
 11
0.0707245
 21
5.88139
  0
LINE
  8
0
 10
0.0707245
 20
5.88139
 11
0.0722809
 21
5.8784
  0
LINE
  8
0
 10
0.0722809
 20
5.8784
 11
0.0737305
 21
5.87534
  0
LINE
  8
0
 10
0.0737305
 20
5.87534
 11
0.0750275
 21
5.87222
  0
LINE
  8
0
 10
0.0750275
 20
5.87222
 11
0.0762177
 21
5.86905
  0
LINE
  8
0
 10
0.0762177
 20
5.86905
 11
0.0772552
 21
5.86584
  0
LINE
  8
0
 10
0.0772552
 20
5.86584
 11
0.0781708
 21
5.86258
  0
LINE
  8
0
 10
0.0781708
 20
5.86258
 11
0.0789337
 21
5.8593
  0
LINE
  8
0
 10
0.0789337
 20
5.8593
 11
0.0795746
 21
5.85597
  0
LINE
  8
0
 10
0.0795746
 20
5.85597
 11
0.0800629
 21
5.85263
  0
LINE
  8
0
 10
0.0800629
 20
5.85263
 11
0.0804138
 21
5.84926
  0
LINE
  8
0
 10
0.0804138
 20
5.84926
 11
0.0806274
 21
5.84589
  0
LINE
  8
0
 10
0.0806274
 20
5.84589
 11
0.0807037
 21
5.84251
  0
LINE
  8
0
 10
0.0807037
 20
5.84251
 11
0.0806274
 21
5.83913
  0
LINE
  8
0
 10
0.0806274
 20
5.83913
 11
0.0804138
 21
5.83575
  0
LINE
  8
0
 10
0.0804138
 20
5.83575
 11
0.0800629
 21
5.8324
  0
LINE
  8
0
 10
0.0800629
 20
5.8324
 11
0.0795746
 21
5.82906
  0
LINE
  8
0
 10
0.0795746
 20
5.82906
 11
0.0789337
 21
5.82573
  0
LINE
  8
0
 10
0.0789337
 20
5.82573
 11
0.0781708
 21
5.82245
  0
LINE
  8
0
 10
0.0781708
 20
5.82245
 11
0.0772552
 21
5.81918
  0
LINE
  8
0
 10
0.0772552
 20
5.81918
 11
0.0762177
 21
5.81596
  0
LINE
  8
0
 10
0.0762177
 20
5.81596
 11
0.0750275
 21
5.81281
  0
LINE
  8
0
 10
0.0750275
 20
5.81281
 11
0.0737305
 21
5.80969
  0
LINE
  8
0
 10
0.0737305
 20
5.80969
 11
0.0722809
 21
5.80663
  0
LINE
  8
0
 10
0.0722809
 20
5.80663
 11
0.0707245
 21
5.80363
  0
LINE
  8
0
 10
0.0707245
 20
5.80363
 11
0.0690308
 21
5.8007
  0
LINE
  8
0
 10
0.0690308
 20
5.8007
 11
0.067215
 21
5.79785
  0
LINE
  8
0
 10
0.067215
 20
5.79785
 11
0.0652924
 21
5.79507
  0
LINE
  8
0
 10
0.0652924
 20
5.79507
 11
0.0632477
 21
5.79237
  0
LINE
  8
0
 10
0.0632477
 20
5.79237
 11
0.0610809
 21
5.78978
  0
LINE
  8
0
 10
0.0610809
 20
5.78978
 11
0.0588226
 21
5.78726
  0
LINE
  8
0
 10
0.0588226
 20
5.78726
 11
0.0564575
 21
5.78485
  0
LINE
  8
0
 10
0.0564575
 20
5.78485
 11
0.0540009
 21
5.78253
  0
LINE
  8
0
 10
0.0540009
 20
5.78253
 11
0.0514374
 21
5.78032
  0
LINE
  8
0
 10
0.0514374
 20
5.78032
 11
0.0487823
 21
5.77823
  0
LINE
  8
0
 10
0.0487823
 20
5.77823
 11
0.046051
 21
5.77625
  0
LINE
  8
0
 10
0.046051
 20
5.77625
 11
0.0432434
 21
5.77437
  0
LINE
  8
0
 10
0.0432434
 20
5.77437
 11
0.0403442
 21
5.77261
  0
LINE
  8
0
 10
0.0403442
 20
5.77261
 11
0.037384
 21
5.771
  0
LINE
  8
0
 10
0.037384
 20
5.771
 11
0.0343628
 21
5.76949
  0
LINE
  8
0
 10
0.0343628
 20
5.76949
 11
0.0312653
 21
5.76811
  0
LINE
  8
0
 10
0.0312653
 20
5.76811
 11
0.0281219
 21
5.76686
  0
LINE
  8
0
 10
0.0281219
 20
5.76686
 11
0.0249329
 21
5.76575
  0
LINE
  8
0
 10
0.0249329
 20
5.76575
 11
0.021698
 21
5.76477
  0
LINE
  8
0
 10
0.021698
 20
5.76477
 11
0.0184174
 21
5.76393
  0
LINE
  8
0
 10
0.0184174
 20
5.76393
 11
0.0151215
 21
5.76323
  0
LINE
  8
0
 10
0.0151215
 20
5.76323
 11
0.0117798
 21
5.76266
  0
LINE
  8
0
 10
0.0117798
 20
5.76266
 11
0.00842285
 21
5.76225
  0
LINE
  8
0
 10
0.00842285
 20
5.76225
 11
0.00506592
 21
5.76196
  0
LINE
  8
0
 10
0.00506592
 20
5.76196
 11
0.00167847
 21
5.76183
  0
LINE
  8
0
 10
0.00167847
 20
5.76183
 11
-0.00167847
 21
5.76183
  0
LINE
  8
0
 10
-0.31665
 20
5.76183
 11
-0.320023
 21
5.76196
  0
LINE
  8
0
 10
-0.320023
 20
5.76196
 11
-0.323395
 21
5.76225
  0
LINE
  8
0
 10
-0.323395
 20
5.76225
 11
-0.326736
 21
5.76266
  0
LINE
  8
0
 10
-0.326736
 20
5.76266
 11
-0.330078
 21
5.76323
  0
LINE
  8
0
 10
-0.330078
 20
5.76323
 11
-0.333389
 21
5.76393
  0
LINE
  8
0
 10
-0.333389
 20
5.76393
 11
-0.336655
 21
5.76477
  0
LINE
  8
0
 10
-0.336655
 20
5.76477
 11
-0.33989
 21
5.76575
  0
LINE
  8
0
 10
-0.33989
 20
5.76575
 11
-0.343094
 21
5.76686
  0
LINE
  8
0
 10
-0.343094
 20
5.76686
 11
-0.346237
 21
5.76811
  0
LINE
  8
0
 10
-0.346237
 20
5.76811
 11
-0.349319
 21
5.76949
  0
LINE
  8
0
 10
-0.349319
 20
5.76949
 11
-0.352341
 21
5.771
  0
LINE
  8
0
 10
-0.352341
 20
5.771
 11
-0.355301
 21
5.77261
  0
LINE
  8
0
 10
-0.355301
 20
5.77261
 11
-0.3582
 21
5.77437
  0
LINE
  8
0
 10
-0.3582
 20
5.77437
 11
-0.361008
 21
5.77625
  0
LINE
  8
0
 10
-0.361008
 20
5.77625
 11
-0.363754
 21
5.77823
  0
LINE
  8
0
 10
-0.363754
 20
5.77823
 11
-0.366394
 21
5.78032
  0
LINE
  8
0
 10
-0.366394
 20
5.78032
 11
-0.368958
 21
5.78253
  0
LINE
  8
0
 10
-0.368958
 20
5.78253
 11
-0.371429
 21
5.78485
  0
LINE
  8
0
 10
-0.371429
 20
5.78485
 11
-0.373795
 21
5.78726
  0
LINE
  8
0
 10
-0.373795
 20
5.78726
 11
-0.376053
 21
5.78978
  0
LINE
  8
0
 10
-0.376053
 20
5.78978
 11
-0.378204
 21
5.79237
  0
LINE
  8
0
 10
-0.378204
 20
5.79237
 11
-0.380249
 21
5.79507
  0
LINE
  8
0
 10
-0.380249
 20
5.79507
 11
-0.382172
 21
5.79785
  0
LINE
  8
0
 10
-0.382172
 20
5.79785
 11
-0.383987
 21
5.8007
  0
LINE
  8
0
 10
-0.383987
 20
5.8007
 11
-0.385681
 21
5.80363
  0
LINE
  8
0
 10
-0.385681
 20
5.80363
 11
-0.387253
 21
5.80663
  0
LINE
  8
0
 10
-0.387253
 20
5.80663
 11
-0.388687
 21
5.80969
  0
LINE
  8
0
 10
-0.388687
 20
5.80969
 11
-0.389999
 21
5.81281
  0
LINE
  8
0
 10
-0.389999
 20
5.81281
 11
-0.391174
 21
5.81596
  0
LINE
  8
0
 10
-0.391174
 20
5.81596
 11
-0.392212
 21
5.81918
  0
LINE
  8
0
 10
-0.392212
 20
5.81918
 11
-0.393127
 21
5.82245
  0
LINE
  8
0
 10
-0.393127
 20
5.82245
 11
-0.393906
 21
5.82573
  0
LINE
  8
0
 10
-0.393906
 20
5.82573
 11
-0.394531
 21
5.82906
  0
LINE
  8
0
 10
-0.394531
 20
5.82906
 11
-0.39502
 21
5.8324
  0
LINE
  8
0
 10
-0.39502
 20
5.8324
 11
-0.395386
 21
5.83575
  0
LINE
  8
0
 10
-0.395386
 20
5.83575
 11
-0.395584
 21
5.83913
  0
LINE
  8
0
 10
-0.395584
 20
5.83913
 11
-0.39566
 21
5.84251
  0
LINE
  8
0
 10
-0.39566
 20
5.84251
 11
-0.395584
 21
5.84589
  0
LINE
  8
0
 10
-0.395584
 20
5.84589
 11
-0.395386
 21
5.84926
  0
LINE
  8
0
 10
-0.395386
 20
5.84926
 11
-0.39502
 21
5.85263
  0
LINE
  8
0
 10
-0.39502
 20
5.85263
 11
-0.394531
 21
5.85597
  0
LINE
  8
0
 10
-0.394531
 20
5.85597
 11
-0.393906
 21
5.8593
  0
LINE
  8
0
 10
-0.393906
 20
5.8593
 11
-0.393127
 21
5.86258
  0
LINE
  8
0
 10
-0.393127
 20
5.86258
 11
-0.392212
 21
5.86584
  0
LINE
  8
0
 10
-0.392212
 20
5.86584
 11
-0.391174
 21
5.86905
  0
LINE
  8
0
 10
-0.391174
 20
5.86905
 11
-0.389999
 21
5.87222
  0
LINE
  8
0
 10
-0.389999
 20
5.87222
 11
-0.388687
 21
5.87534
  0
LINE
  8
0
 10
-0.388687
 20
5.87534
 11
-0.387253
 21
5.8784
  0
LINE
  8
0
 10
-0.387253
 20
5.8784
 11
-0.385681
 21
5.88139
  0
LINE
  8
0
 10
-0.385681
 20
5.88139
 11
-0.383987
 21
5.88432
  0
LINE
  8
0
 10
-0.383987
 20
5.88432
 11
-0.382172
 21
5.88718
  0
LINE
  8
0
 10
-0.382172
 20
5.88718
 11
-0.380249
 21
5.88995
  0
LINE
  8
0
 10
-0.380249
 20
5.88995
 11
-0.378204
 21
5.89264
  0
LINE
  8
0
 10
-0.378204
 20
5.89264
 11
-0.376053
 21
5.89525
  0
LINE
  8
0
 10
-0.376053
 20
5.89525
 11
-0.373795
 21
5.89777
  0
LINE
  8
0
 10
-0.373795
 20
5.89777
 11
-0.371429
 21
5.90018
  0
LINE
  8
0
 10
-0.371429
 20
5.90018
 11
-0.368958
 21
5.9025
  0
LINE
  8
0
 10
-0.368958
 20
5.9025
 11
-0.366394
 21
5.90469
  0
LINE
  8
0
 10
-0.366394
 20
5.90469
 11
-0.363754
 21
5.9068
  0
LINE
  8
0
 10
-0.363754
 20
5.9068
 11
-0.361008
 21
5.90878
  0
LINE
  8
0
 10
-0.361008
 20
5.90878
 11
-0.3582
 21
5.91066
  0
LINE
  8
0
 10
-0.3582
 20
5.91066
 11
-0.355301
 21
5.91241
  0
LINE
  8
0
 10
-0.355301
 20
5.91241
 11
-0.352341
 21
5.91403
  0
LINE
  8
0
 10
-0.352341
 20
5.91403
 11
-0.349319
 21
5.91554
  0
LINE
  8
0
 10
-0.349319
 20
5.91554
 11
-0.346237
 21
5.91692
  0
LINE
  8
0
 10
-0.346237
 20
5.91692
 11
-0.343094
 21
5.91815
  0
LINE
  8
0
 10
-0.343094
 20
5.91815
 11
-0.33989
 21
5.91927
  0
LINE
  8
0
 10
-0.33989
 20
5.91927
 11
-0.336655
 21
5.92024
  0
LINE
  8
0
 10
-0.336655
 20
5.92024
 11
-0.333389
 21
5.92108
  0
LINE
  8
0
 10
-0.333389
 20
5.92108
 11
-0.330078
 21
5.9218
  0
LINE
  8
0
 10
-0.330078
 20
5.9218
 11
-0.326736
 21
5.92235
  0
LINE
  8
0
 10
-0.326736
 20
5.92235
 11
-0.323395
 21
5.92278
  0
LINE
  8
0
 10
-0.323395
 20
5.92278
 11
-0.320023
 21
5.92307
  0
LINE
  8
0
 10
-0.320023
 20
5.92307
 11
-0.31665
 21
5.9232
  0
LINE
  8
0
 10
-0.31665
 20
5.9232
 11
-0.313263
 21
5.9232
  0
LINE
  8
0
 10
-0.313263
 20
5.9232
 11
-0.309891
 21
5.92307
  0
LINE
  8
0
 10
-0.309891
 20
5.92307
 11
-0.306519
 21
5.92278
  0
LINE
  8
0
 10
-0.306519
 20
5.92278
 11
-0.303162
 21
5.92235
  0
LINE
  8
0
 10
-0.303162
 20
5.92235
 11
-0.299835
 21
5.9218
  0
LINE
  8
0
 10
-0.299835
 20
5.9218
 11
-0.296524
 21
5.92108
  0
LINE
  8
0
 10
-0.296524
 20
5.92108
 11
-0.293243
 21
5.92024
  0
LINE
  8
0
 10
-0.293243
 20
5.92024
 11
-0.290009
 21
5.91927
  0
LINE
  8
0
 10
-0.290009
 20
5.91927
 11
-0.286819
 21
5.91815
  0
LINE
  8
0
 10
-0.286819
 20
5.91815
 11
-0.283676
 21
5.91692
  0
LINE
  8
0
 10
-0.283676
 20
5.91692
 11
-0.280594
 21
5.91554
  0
LINE
  8
0
 10
-0.280594
 20
5.91554
 11
-0.277557
 21
5.91403
  0
LINE
  8
0
 10
-0.277557
 20
5.91403
 11
-0.274597
 21
5.91241
  0
LINE
  8
0
 10
-0.274597
 20
5.91241
 11
-0.271713
 21
5.91066
  0
LINE
  8
0
 10
-0.271713
 20
5.91066
 11
-0.26889
 21
5.90878
  0
LINE
  8
0
 10
-0.26889
 20
5.90878
 11
-0.266159
 21
5.9068
  0
LINE
  8
0
 10
-0.266159
 20
5.9068
 11
-0.263504
 21
5.90469
  0
LINE
  8
0
 10
-0.263504
 20
5.90469
 11
-0.260956
 21
5.9025
  0
LINE
  8
0
 10
-0.260956
 20
5.9025
 11
-0.258484
 21
5.90018
  0
LINE
  8
0
 10
-0.258484
 20
5.90018
 11
-0.256119
 21
5.89777
  0
LINE
  8
0
 10
-0.256119
 20
5.89777
 11
-0.25386
 21
5.89525
  0
LINE
  8
0
 10
-0.25386
 20
5.89525
 11
-0.251709
 21
5.89264
  0
LINE
  8
0
 10
-0.251709
 20
5.89264
 11
-0.249664
 21
5.88995
  0
LINE
  8
0
 10
-0.249664
 20
5.88995
 11
-0.247726
 21
5.88718
  0
LINE
  8
0
 10
-0.247726
 20
5.88718
 11
-0.245911
 21
5.88432
  0
LINE
  8
0
 10
-0.245911
 20
5.88432
 11
-0.244232
 21
5.88139
  0
LINE
  8
0
 10
-0.244232
 20
5.88139
 11
-0.242661
 21
5.8784
  0
LINE
  8
0
 10
-0.242661
 20
5.8784
 11
-0.241226
 21
5.87534
  0
LINE
  8
0
 10
-0.241226
 20
5.87534
 11
-0.239914
 21
5.87222
  0
LINE
  8
0
 10
-0.239914
 20
5.87222
 11
-0.238739
 21
5.86905
  0
LINE
  8
0
 10
-0.238739
 20
5.86905
 11
-0.237686
 21
5.86584
  0
LINE
  8
0
 10
-0.237686
 20
5.86584
 11
-0.236786
 21
5.86258
  0
LINE
  8
0
 10
-0.236786
 20
5.86258
 11
-0.236008
 21
5.8593
  0
LINE
  8
0
 10
-0.236008
 20
5.8593
 11
-0.235382
 21
5.85597
  0
LINE
  8
0
 10
-0.235382
 20
5.85597
 11
-0.234879
 21
5.85263
  0
LINE
  8
0
 10
-0.234879
 20
5.85263
 11
-0.234528
 21
5.84926
  0
LINE
  8
0
 10
-0.234528
 20
5.84926
 11
-0.234314
 21
5.84589
  0
LINE
  8
0
 10
-0.234314
 20
5.84589
 11
-0.234238
 21
5.84251
  0
LINE
  8
0
 10
-0.234238
 20
5.84251
 11
-0.234314
 21
5.83913
  0
LINE
  8
0
 10
-0.234314
 20
5.83913
 11
-0.234528
 21
5.83575
  0
LINE
  8
0
 10
-0.234528
 20
5.83575
 11
-0.234879
 21
5.8324
  0
LINE
  8
0
 10
-0.234879
 20
5.8324
 11
-0.235382
 21
5.82906
  0
LINE
  8
0
 10
-0.235382
 20
5.82906
 11
-0.236008
 21
5.82573
  0
LINE
  8
0
 10
-0.236008
 20
5.82573
 11
-0.236786
 21
5.82245
  0
LINE
  8
0
 10
-0.236786
 20
5.82245
 11
-0.237686
 21
5.81918
  0
LINE
  8
0
 10
-0.237686
 20
5.81918
 11
-0.238739
 21
5.81596
  0
LINE
  8
0
 10
-0.238739
 20
5.81596
 11
-0.239914
 21
5.81281
  0
LINE
  8
0
 10
-0.239914
 20
5.81281
 11
-0.241226
 21
5.80969
  0
LINE
  8
0
 10
-0.241226
 20
5.80969
 11
-0.242661
 21
5.80663
  0
LINE
  8
0
 10
-0.242661
 20
5.80663
 11
-0.244232
 21
5.80363
  0
LINE
  8
0
 10
-0.244232
 20
5.80363
 11
-0.245911
 21
5.8007
  0
LINE
  8
0
 10
-0.245911
 20
5.8007
 11
-0.247726
 21
5.79785
  0
LINE
  8
0
 10
-0.247726
 20
5.79785
 11
-0.249664
 21
5.79507
  0
LINE
  8
0
 10
-0.249664
 20
5.79507
 11
-0.251709
 21
5.79237
  0
LINE
  8
0
 10
-0.251709
 20
5.79237
 11
-0.25386
 21
5.78978
  0
LINE
  8
0
 10
-0.25386
 20
5.78978
 11
-0.256119
 21
5.78726
  0
LINE
  8
0
 10
-0.256119
 20
5.78726
 11
-0.258484
 21
5.78485
  0
LINE
  8
0
 10
-0.258484
 20
5.78485
 11
-0.260956
 21
5.78253
  0
LINE
  8
0
 10
-0.260956
 20
5.78253
 11
-0.263504
 21
5.78032
  0
LINE
  8
0
 10
-0.263504
 20
5.78032
 11
-0.266159
 21
5.77823
  0
LINE
  8
0
 10
-0.266159
 20
5.77823
 11
-0.26889
 21
5.77625
  0
LINE
  8
0
 10
-0.26889
 20
5.77625
 11
-0.271713
 21
5.77437
  0
LINE
  8
0
 10
-0.271713
 20
5.77437
 11
-0.274597
 21
5.77261
  0
LINE
  8
0
 10
-0.274597
 20
5.77261
 11
-0.277557
 21
5.771
  0
LINE
  8
0
 10
-0.277557
 20
5.771
 11
-0.280594
 21
5.76949
  0
LINE
  8
0
 10
-0.280594
 20
5.76949
 11
-0.283676
 21
5.76811
  0
LINE
  8
0
 10
-0.283676
 20
5.76811
 11
-0.286819
 21
5.76686
  0
LINE
  8
0
 10
-0.286819
 20
5.76686
 11
-0.290009
 21
5.76575
  0
LINE
  8
0
 10
-0.290009
 20
5.76575
 11
-0.293243
 21
5.76477
  0
LINE
  8
0
 10
-0.293243
 20
5.76477
 11
-0.296524
 21
5.76393
  0
LINE
  8
0
 10
-0.296524
 20
5.76393
 11
-0.299835
 21
5.76323
  0
LINE
  8
0
 10
-0.299835
 20
5.76323
 11
-0.303162
 21
5.76266
  0
LINE
  8
0
 10
-0.303162
 20
5.76266
 11
-0.306519
 21
5.76225
  0
LINE
  8
0
 10
-0.306519
 20
5.76225
 11
-0.309891
 21
5.76196
  0
LINE
  8
0
 10
-0.309891
 20
5.76196
 11
-0.313263
 21
5.76183
  0
LINE
  8
0
 10
-0.313263
 20
5.76183
 11
-0.31665
 21
5.76183
  0
LINE
  8
0
 10
-0.631607
 20
3.0193
 11
-0.634979
 21
3.01944
  0
LINE
  8
0
 10
-0.634979
 20
3.01944
 11
-0.638351
 21
3.01973
  0
LINE
  8
0
 10
-0.638351
 20
3.01973
 11
-0.641708
 21
3.02016
  0
LINE
  8
0
 10
-0.641708
 20
3.02016
 11
-0.645035
 21
3.02071
  0
LINE
  8
0
 10
-0.645035
 20
3.02071
 11
-0.648346
 21
3.02142
  0
LINE
  8
0
 10
-0.648346
 20
3.02142
 11
-0.651611
 21
3.02226
  0
LINE
  8
0
 10
-0.651611
 20
3.02226
 11
-0.654861
 21
3.02324
  0
LINE
  8
0
 10
-0.654861
 20
3.02324
 11
-0.658051
 21
3.02435
  0
LINE
  8
0
 10
-0.658051
 20
3.02435
 11
-0.661194
 21
3.02559
  0
LINE
  8
0
 10
-0.661194
 20
3.02559
 11
-0.664276
 21
3.02696
  0
LINE
  8
0
 10
-0.664276
 20
3.02696
 11
-0.667313
 21
3.02847
  0
LINE
  8
0
 10
-0.667313
 20
3.02847
 11
-0.670273
 21
3.03009
  0
LINE
  8
0
 10
-0.670273
 20
3.03009
 11
-0.673157
 21
3.03185
  0
LINE
  8
0
 10
-0.673157
 20
3.03185
 11
-0.67598
 21
3.03372
  0
LINE
  8
0
 10
-0.67598
 20
3.03372
 11
-0.678711
 21
3.03571
  0
LINE
  8
0
 10
-0.678711
 20
3.03571
 11
-0.681366
 21
3.03781
  0
LINE
  8
0
 10
-0.681366
 20
3.03781
 11
-0.683914
 21
3.04001
  0
LINE
  8
0
 10
-0.683914
 20
3.04001
 11
-0.686386
 21
3.04233
  0
LINE
  8
0
 10
-0.686386
 20
3.04233
 11
-0.688751
 21
3.04474
  0
LINE
  8
0
 10
-0.688751
 20
3.04474
 11
-0.69101
 21
3.04726
  0
LINE
  8
0
 10
-0.69101
 20
3.04726
 11
-0.693161
 21
3.04987
  0
LINE
  8
0
 10
-0.693161
 20
3.04987
 11
-0.695206
 21
3.05255
  0
LINE
  8
0
 10
-0.695206
 20
3.05255
 11
-0.697144
 21
3.05533
  0
LINE
  8
0
 10
-0.697144
 20
3.05533
 11
-0.698944
 21
3.05818
  0
LINE
  8
0
 10
-0.698944
 20
3.05818
 11
-0.700638
 21
3.06111
  0
LINE
  8
0
 10
-0.700638
 20
3.06111
 11
-0.702209
 21
3.0641
  0
LINE
  8
0
 10
-0.702209
 20
3.0641
 11
-0.703644
 21
3.06717
  0
LINE
  8
0
 10
-0.703644
 20
3.06717
 11
-0.704956
 21
3.07028
  0
LINE
  8
0
 10
-0.704956
 20
3.07028
 11
-0.706131
 21
3.07346
  0
LINE
  8
0
 10
-0.706131
 20
3.07346
 11
-0.707184
 21
3.07666
  0
LINE
  8
0
 10
-0.707184
 20
3.07666
 11
-0.708084
 21
3.07993
  0
LINE
  8
0
 10
-0.708084
 20
3.07993
 11
-0.708862
 21
3.08321
  0
LINE
  8
0
 10
-0.708862
 20
3.08321
 11
-0.709488
 21
3.08653
  0
LINE
  8
0
 10
-0.709488
 20
3.08653
 11
-0.709991
 21
3.08987
  0
LINE
  8
0
 10
-0.709991
 20
3.08987
 11
-0.710342
 21
3.09325
  0
LINE
  8
0
 10
-0.710342
 20
3.09325
 11
-0.710556
 21
3.09662
  0
LINE
  8
0
 10
-0.710556
 20
3.09662
 11
-0.710617
 21
3.09999
  0
LINE
  8
0
 10
-0.710617
 20
3.09999
 11
-0.710556
 21
3.10338
  0
LINE
  8
0
 10
-0.710556
 20
3.10338
 11
-0.710342
 21
3.10675
  0
LINE
  8
0
 10
-0.710342
 20
3.10675
 11
-0.709991
 21
3.11011
  0
LINE
  8
0
 10
-0.709991
 20
3.11011
 11
-0.709488
 21
3.11345
  0
LINE
  8
0
 10
-0.709488
 20
3.11345
 11
-0.708862
 21
3.11678
  0
LINE
  8
0
 10
-0.708862
 20
3.11678
 11
-0.708084
 21
3.12006
  0
LINE
  8
0
 10
-0.708084
 20
3.12006
 11
-0.707184
 21
3.12332
  0
LINE
  8
0
 10
-0.707184
 20
3.12332
 11
-0.706131
 21
3.12654
  0
LINE
  8
0
 10
-0.706131
 20
3.12654
 11
-0.704956
 21
3.1297
  0
LINE
  8
0
 10
-0.704956
 20
3.1297
 11
-0.703644
 21
3.13281
  0
LINE
  8
0
 10
-0.703644
 20
3.13281
 11
-0.702209
 21
3.13588
  0
LINE
  8
0
 10
-0.702209
 20
3.13588
 11
-0.700638
 21
3.13887
  0
LINE
  8
0
 10
-0.700638
 20
3.13887
 11
-0.698944
 21
3.1418
  0
LINE
  8
0
 10
-0.698944
 20
3.1418
 11
-0.697144
 21
3.14465
  0
LINE
  8
0
 10
-0.697144
 20
3.14465
 11
-0.695206
 21
3.14743
  0
LINE
  8
0
 10
-0.695206
 20
3.14743
 11
-0.693161
 21
3.15013
  0
LINE
  8
0
 10
-0.693161
 20
3.15013
 11
-0.69101
 21
3.15273
  0
LINE
  8
0
 10
-0.69101
 20
3.15273
 11
-0.688751
 21
3.15524
  0
LINE
  8
0
 10
-0.688751
 20
3.15524
 11
-0.686386
 21
3.15765
  0
LINE
  8
0
 10
-0.686386
 20
3.15765
 11
-0.683914
 21
3.15997
  0
LINE
  8
0
 10
-0.683914
 20
3.15997
 11
-0.681366
 21
3.16219
  0
LINE
  8
0
 10
-0.681366
 20
3.16219
 11
-0.678711
 21
3.16428
  0
LINE
  8
0
 10
-0.678711
 20
3.16428
 11
-0.67598
 21
3.16626
  0
LINE
  8
0
 10
-0.67598
 20
3.16626
 11
-0.673157
 21
3.16814
  0
LINE
  8
0
 10
-0.673157
 20
3.16814
 11
-0.670273
 21
3.16989
  0
LINE
  8
0
 10
-0.670273
 20
3.16989
 11
-0.667313
 21
3.17151
  0
LINE
  8
0
 10
-0.667313
 20
3.17151
 11
-0.664276
 21
3.17302
  0
LINE
  8
0
 10
-0.664276
 20
3.17302
 11
-0.661194
 21
3.17439
  0
LINE
  8
0
 10
-0.661194
 20
3.17439
 11
-0.658051
 21
3.17564
  0
LINE
  8
0
 10
-0.658051
 20
3.17564
 11
-0.654861
 21
3.17676
  0
LINE
  8
0
 10
-0.654861
 20
3.17676
 11
-0.651611
 21
3.17773
  0
LINE
  8
0
 10
-0.651611
 20
3.17773
 11
-0.648346
 21
3.17857
  0
LINE
  8
0
 10
-0.648346
 20
3.17857
 11
-0.645035
 21
3.17928
  0
LINE
  8
0
 10
-0.645035
 20
3.17928
 11
-0.641708
 21
3.17984
  0
LINE
  8
0
 10
-0.641708
 20
3.17984
 11
-0.638351
 21
3.18025
  0
LINE
  8
0
 10
-0.638351
 20
3.18025
 11
-0.634979
 21
3.18054
  0
LINE
  8
0
 10
-0.634979
 20
3.18054
 11
-0.631607
 21
3.18068
  0
LINE
  8
0
 10
-0.631607
 20
3.18068
 11
-0.62822
 21
3.18068
  0
LINE
  8
0
 10
-0.62822
 20
3.18068
 11
-0.624847
 21
3.18054
  0
LINE
  8
0
 10
-0.624847
 20
3.18054
 11
-0.621475
 21
3.18025
  0
LINE
  8
0
 10
-0.621475
 20
3.18025
 11
-0.618118
 21
3.17984
  0
LINE
  8
0
 10
-0.618118
 20
3.17984
 11
-0.614792
 21
3.17928
  0
LINE
  8
0
 10
-0.614792
 20
3.17928
 11
-0.611481
 21
3.17857
  0
LINE
  8
0
 10
-0.611481
 20
3.17857
 11
-0.608215
 21
3.17773
  0
LINE
  8
0
 10
-0.608215
 20
3.17773
 11
-0.60498
 21
3.17676
  0
LINE
  8
0
 10
-0.60498
 20
3.17676
 11
-0.601776
 21
3.17564
  0
LINE
  8
0
 10
-0.601776
 20
3.17564
 11
-0.598633
 21
3.17439
  0
LINE
  8
0
 10
-0.598633
 20
3.17439
 11
-0.595551
 21
3.17302
  0
LINE
  8
0
 10
-0.595551
 20
3.17302
 11
-0.592514
 21
3.17151
  0
LINE
  8
0
 10
-0.592514
 20
3.17151
 11
-0.589554
 21
3.16989
  0
LINE
  8
0
 10
-0.589554
 20
3.16989
 11
-0.58667
 21
3.16814
  0
LINE
  8
0
 10
-0.58667
 20
3.16814
 11
-0.583847
 21
3.16626
  0
LINE
  8
0
 10
-0.583847
 20
3.16626
 11
-0.581116
 21
3.16428
  0
LINE
  8
0
 10
-0.581116
 20
3.16428
 11
-0.578461
 21
3.16219
  0
LINE
  8
0
 10
-0.578461
 20
3.16219
 11
-0.575912
 21
3.15997
  0
LINE
  8
0
 10
-0.575912
 20
3.15997
 11
-0.573441
 21
3.15765
  0
LINE
  8
0
 10
-0.573441
 20
3.15765
 11
-0.571075
 21
3.15524
  0
LINE
  8
0
 10
-0.571075
 20
3.15524
 11
-0.568817
 21
3.15273
  0
LINE
  8
0
 10
-0.568817
 20
3.15273
 11
-0.566666
 21
3.15013
  0
LINE
  8
0
 10
-0.566666
 20
3.15013
 11
-0.564621
 21
3.14743
  0
LINE
  8
0
 10
-0.564621
 20
3.14743
 11
-0.562683
 21
3.14465
  0
LINE
  8
0
 10
-0.562683
 20
3.14465
 11
-0.560883
 21
3.1418
  0
LINE
  8
0
 10
-0.560883
 20
3.1418
 11
-0.559189
 21
3.13887
  0
LINE
  8
0
 10
-0.559189
 20
3.13887
 11
-0.557617
 21
3.13588
  0
LINE
  8
0
 10
-0.557617
 20
3.13588
 11
-0.556183
 21
3.13281
  0
LINE
  8
0
 10
-0.556183
 20
3.13281
 11
-0.554871
 21
3.1297
  0
LINE
  8
0
 10
-0.554871
 20
3.1297
 11
-0.553696
 21
3.12654
  0
LINE
  8
0
 10
-0.553696
 20
3.12654
 11
-0.552643
 21
3.12332
  0
LINE
  8
0
 10
-0.552643
 20
3.12332
 11
-0.551743
 21
3.12006
  0
LINE
  8
0
 10
-0.551743
 20
3.12006
 11
-0.550964
 21
3.11678
  0
LINE
  8
0
 10
-0.550964
 20
3.11678
 11
-0.550339
 21
3.11345
  0
LINE
  8
0
 10
-0.550339
 20
3.11345
 11
-0.549835
 21
3.11011
  0
LINE
  8
0
 10
-0.549835
 20
3.11011
 11
-0.549484
 21
3.10675
  0
LINE
  8
0
 10
-0.549484
 20
3.10675
 11
-0.549271
 21
3.10338
  0
LINE
  8
0
 10
-0.549271
 20
3.10338
 11
-0.54921
 21
3.09999
  0
LINE
  8
0
 10
-0.54921
 20
3.09999
 11
-0.549271
 21
3.09662
  0
LINE
  8
0
 10
-0.549271
 20
3.09662
 11
-0.549484
 21
3.09325
  0
LINE
  8
0
 10
-0.549484
 20
3.09325
 11
-0.549835
 21
3.08987
  0
LINE
  8
0
 10
-0.549835
 20
3.08987
 11
-0.550339
 21
3.08653
  0
LINE
  8
0
 10
-0.550339
 20
3.08653
 11
-0.550964
 21
3.08321
  0
LINE
  8
0
 10
-0.550964
 20
3.08321
 11
-0.551743
 21
3.07993
  0
LINE
  8
0
 10
-0.551743
 20
3.07993
 11
-0.552643
 21
3.07666
  0
LINE
  8
0
 10
-0.552643
 20
3.07666
 11
-0.553696
 21
3.07346
  0
LINE
  8
0
 10
-0.553696
 20
3.07346
 11
-0.554871
 21
3.07028
  0
LINE
  8
0
 10
-0.554871
 20
3.07028
 11
-0.556183
 21
3.06717
  0
LINE
  8
0
 10
-0.556183
 20
3.06717
 11
-0.557617
 21
3.0641
  0
LINE
  8
0
 10
-0.557617
 20
3.0641
 11
-0.559189
 21
3.06111
  0
LINE
  8
0
 10
-0.559189
 20
3.06111
 11
-0.560883
 21
3.05818
  0
LINE
  8
0
 10
-0.560883
 20
3.05818
 11
-0.562683
 21
3.05533
  0
LINE
  8
0
 10
-0.562683
 20
3.05533
 11
-0.564621
 21
3.05255
  0
LINE
  8
0
 10
-0.564621
 20
3.05255
 11
-0.566666
 21
3.04987
  0
LINE
  8
0
 10
-0.566666
 20
3.04987
 11
-0.568817
 21
3.04726
  0
LINE
  8
0
 10
-0.568817
 20
3.04726
 11
-0.571075
 21
3.04474
  0
LINE
  8
0
 10
-0.571075
 20
3.04474
 11
-0.573441
 21
3.04233
  0
LINE
  8
0
 10
-0.573441
 20
3.04233
 11
-0.575912
 21
3.04001
  0
LINE
  8
0
 10
-0.575912
 20
3.04001
 11
-0.578461
 21
3.03781
  0
LINE
  8
0
 10
-0.578461
 20
3.03781
 11
-0.581116
 21
3.03571
  0
LINE
  8
0
 10
-0.581116
 20
3.03571
 11
-0.583847
 21
3.03372
  0
LINE
  8
0
 10
-0.583847
 20
3.03372
 11
-0.58667
 21
3.03185
  0
LINE
  8
0
 10
-0.58667
 20
3.03185
 11
-0.589554
 21
3.03009
  0
LINE
  8
0
 10
-0.589554
 20
3.03009
 11
-0.592514
 21
3.02847
  0
LINE
  8
0
 10
-0.592514
 20
3.02847
 11
-0.595551
 21
3.02696
  0
LINE
  8
0
 10
-0.595551
 20
3.02696
 11
-0.598633
 21
3.02559
  0
LINE
  8
0
 10
-0.598633
 20
3.02559
 11
-0.601776
 21
3.02435
  0
LINE
  8
0
 10
-0.601776
 20
3.02435
 11
-0.60498
 21
3.02324
  0
LINE
  8
0
 10
-0.60498
 20
3.02324
 11
-0.608215
 21
3.02226
  0
LINE
  8
0
 10
-0.608215
 20
3.02226
 11
-0.611481
 21
3.02142
  0
LINE
  8
0
 10
-0.611481
 20
3.02142
 11
-0.614792
 21
3.02071
  0
LINE
  8
0
 10
-0.614792
 20
3.02071
 11
-0.618118
 21
3.02016
  0
LINE
  8
0
 10
-0.618118
 20
3.02016
 11
-0.621475
 21
3.01973
  0
LINE
  8
0
 10
-0.621475
 20
3.01973
 11
-0.624847
 21
3.01944
  0
LINE
  8
0
 10
-0.624847
 20
3.01944
 11
-0.62822
 21
3.0193
  0
LINE
  8
0
 10
-0.62822
 20
3.0193
 11
-0.631607
 21
3.0193
  0
LINE
  8
0
 10
0.62822
 20
3.0193
 11
0.624847
 21
3.01944
  0
LINE
  8
0
 10
0.624847
 20
3.01944
 11
0.621475
 21
3.01973
  0
LINE
  8
0
 10
0.621475
 20
3.01973
 11
0.618118
 21
3.02016
  0
LINE
  8
0
 10
0.618118
 20
3.02016
 11
0.614792
 21
3.02071
  0
LINE
  8
0
 10
0.614792
 20
3.02071
 11
0.611481
 21
3.02142
  0
LINE
  8
0
 10
0.611481
 20
3.02142
 11
0.608215
 21
3.02226
  0
LINE
  8
0
 10
0.608215
 20
3.02226
 11
0.60498
 21
3.02324
  0
LINE
  8
0
 10
0.60498
 20
3.02324
 11
0.601776
 21
3.02435
  0
LINE
  8
0
 10
0.601776
 20
3.02435
 11
0.598633
 21
3.02559
  0
LINE
  8
0
 10
0.598633
 20
3.02559
 11
0.595551
 21
3.02696
  0
LINE
  8
0
 10
0.595551
 20
3.02696
 11
0.592514
 21
3.02847
  0
LINE
  8
0
 10
0.592514
 20
3.02847
 11
0.589554
 21
3.03009
  0
LINE
  8
0
 10
0.589554
 20
3.03009
 11
0.58667
 21
3.03185
  0
LINE
  8
0
 10
0.58667
 20
3.03185
 11
0.583847
 21
3.03372
  0
LINE
  8
0
 10
0.583847
 20
3.03372
 11
0.581116
 21
3.03571
  0
LINE
  8
0
 10
0.581116
 20
3.03571
 11
0.578461
 21
3.03781
  0
LINE
  8
0
 10
0.578461
 20
3.03781
 11
0.575912
 21
3.04001
  0
LINE
  8
0
 10
0.575912
 20
3.04001
 11
0.573441
 21
3.04233
  0
LINE
  8
0
 10
0.573441
 20
3.04233
 11
0.571075
 21
3.04474
  0
LINE
  8
0
 10
0.571075
 20
3.04474
 11
0.568817
 21
3.04726
  0
LINE
  8
0
 10
0.568817
 20
3.04726
 11
0.566666
 21
3.04987
  0
LINE
  8
0
 10
0.566666
 20
3.04987
 11
0.564621
 21
3.05255
  0
LINE
  8
0
 10
0.564621
 20
3.05255
 11
0.562683
 21
3.05533
  0
LINE
  8
0
 10
0.562683
 20
3.05533
 11
0.560883
 21
3.05818
  0
LINE
  8
0
 10
0.560883
 20
3.05818
 11
0.559189
 21
3.06111
  0
LINE
  8
0
 10
0.559189
 20
3.06111
 11
0.557617
 21
3.0641
  0
LINE
  8
0
 10
0.557617
 20
3.0641
 11
0.556183
 21
3.06717
  0
LINE
  8
0
 10
0.556183
 20
3.06717
 11
0.554871
 21
3.07028
  0
LINE
  8
0
 10
0.554871
 20
3.07028
 11
0.553696
 21
3.07346
  0
LINE
  8
0
 10
0.553696
 20
3.07346
 11
0.552643
 21
3.07666
  0
LINE
  8
0
 10
0.552643
 20
3.07666
 11
0.551743
 21
3.07993
  0
LINE
  8
0
 10
0.551743
 20
3.07993
 11
0.550964
 21
3.08321
  0
LINE
  8
0
 10
0.550964
 20
3.08321
 11
0.550339
 21
3.08653
  0
LINE
  8
0
 10
0.550339
 20
3.08653
 11
0.549835
 21
3.08987
  0
LINE
  8
0
 10
0.549835
 20
3.08987
 11
0.549484
 21
3.09325
  0
LINE
  8
0
 10
0.549484
 20
3.09325
 11
0.549271
 21
3.09662
  0
LINE
  8
0
 10
0.549271
 20
3.09662
 11
0.54921
 21
3.09999
  0
LINE
  8
0
 10
0.54921
 20
3.09999
 11
0.549271
 21
3.10338
  0
LINE
  8
0
 10
0.549271
 20
3.10338
 11
0.549484
 21
3.10675
  0
LINE
  8
0
 10
0.549484
 20
3.10675
 11
0.549835
 21
3.11011
  0
LINE
  8
0
 10
0.549835
 20
3.11011
 11
0.550339
 21
3.11345
  0
LINE
  8
0
 10
0.550339
 20
3.11345
 11
0.550964
 21
3.11678
  0
LINE
  8
0
 10
0.550964
 20
3.11678
 11
0.551743
 21
3.12006
  0
LINE
  8
0
 10
0.551743
 20
3.12006
 11
0.552643
 21
3.12332
  0
LINE
  8
0
 10
0.552643
 20
3.12332
 11
0.553696
 21
3.12654
  0
LINE
  8
0
 10
0.553696
 20
3.12654
 11
0.554871
 21
3.1297
  0
LINE
  8
0
 10
0.554871
 20
3.1297
 11
0.556183
 21
3.13281
  0
LINE
  8
0
 10
0.556183
 20
3.13281
 11
0.557617
 21
3.13588
  0
LINE
  8
0
 10
0.557617
 20
3.13588
 11
0.559189
 21
3.13887
  0
LINE
  8
0
 10
0.559189
 20
3.13887
 11
0.560883
 21
3.1418
  0
LINE
  8
0
 10
0.560883
 20
3.1418
 11
0.562683
 21
3.14465
  0
LINE
  8
0
 10
0.562683
 20
3.14465
 11
0.564621
 21
3.14743
  0
LINE
  8
0
 10
0.564621
 20
3.14743
 11
0.566666
 21
3.15013
  0
LINE
  8
0
 10
0.566666
 20
3.15013
 11
0.568817
 21
3.15273
  0
LINE
  8
0
 10
0.568817
 20
3.15273
 11
0.571075
 21
3.15524
  0
LINE
  8
0
 10
0.571075
 20
3.15524
 11
0.573441
 21
3.15765
  0
LINE
  8
0
 10
0.573441
 20
3.15765
 11
0.575912
 21
3.15997
  0
LINE
  8
0
 10
0.575912
 20
3.15997
 11
0.578461
 21
3.16219
  0
LINE
  8
0
 10
0.578461
 20
3.16219
 11
0.581116
 21
3.16428
  0
LINE
  8
0
 10
0.581116
 20
3.16428
 11
0.583847
 21
3.16626
  0
LINE
  8
0
 10
0.583847
 20
3.16626
 11
0.58667
 21
3.16814
  0
LINE
  8
0
 10
0.58667
 20
3.16814
 11
0.589554
 21
3.16989
  0
LINE
  8
0
 10
0.589554
 20
3.16989
 11
0.592514
 21
3.17151
  0
LINE
  8
0
 10
0.592514
 20
3.17151
 11
0.595551
 21
3.17302
  0
LINE
  8
0
 10
0.595551
 20
3.17302
 11
0.598633
 21
3.17439
  0
LINE
  8
0
 10
0.598633
 20
3.17439
 11
0.601776
 21
3.17564
  0
LINE
  8
0
 10
0.601776
 20
3.17564
 11
0.60498
 21
3.17676
  0
LINE
  8
0
 10
0.60498
 20
3.17676
 11
0.608215
 21
3.17773
  0
LINE
  8
0
 10
0.608215
 20
3.17773
 11
0.611481
 21
3.17857
  0
LINE
  8
0
 10
0.611481
 20
3.17857
 11
0.614792
 21
3.17928
  0
LINE
  8
0
 10
0.614792
 20
3.17928
 11
0.618118
 21
3.17984
  0
LINE
  8
0
 10
0.618118
 20
3.17984
 11
0.621475
 21
3.18025
  0
LINE
  8
0
 10
0.621475
 20
3.18025
 11
0.624847
 21
3.18054
  0
LINE
  8
0
 10
0.624847
 20
3.18054
 11
0.62822
 21
3.18068
  0
LINE
  8
0
 10
0.62822
 20
3.18068
 11
0.631607
 21
3.18068
  0
LINE
  8
0
 10
0.631607
 20
3.18068
 11
0.634979
 21
3.18054
  0
LINE
  8
0
 10
0.634979
 20
3.18054
 11
0.638351
 21
3.18025
  0
LINE
  8
0
 10
0.638351
 20
3.18025
 11
0.641708
 21
3.17984
  0
LINE
  8
0
 10
0.641708
 20
3.17984
 11
0.645035
 21
3.17928
  0
LINE
  8
0
 10
0.645035
 20
3.17928
 11
0.648346
 21
3.17857
  0
LINE
  8
0
 10
0.648346
 20
3.17857
 11
0.651611
 21
3.17773
  0
LINE
  8
0
 10
0.651611
 20
3.17773
 11
0.654861
 21
3.17676
  0
LINE
  8
0
 10
0.654861
 20
3.17676
 11
0.658051
 21
3.17564
  0
LINE
  8
0
 10
0.658051
 20
3.17564
 11
0.661194
 21
3.17439
  0
LINE
  8
0
 10
0.661194
 20
3.17439
 11
0.664276
 21
3.17302
  0
LINE
  8
0
 10
0.664276
 20
3.17302
 11
0.667313
 21
3.17151
  0
LINE
  8
0
 10
0.667313
 20
3.17151
 11
0.670273
 21
3.16989
  0
LINE
  8
0
 10
0.670273
 20
3.16989
 11
0.673157
 21
3.16814
  0
LINE
  8
0
 10
0.673157
 20
3.16814
 11
0.67598
 21
3.16626
  0
LINE
  8
0
 10
0.67598
 20
3.16626
 11
0.678711
 21
3.16428
  0
LINE
  8
0
 10
0.678711
 20
3.16428
 11
0.681366
 21
3.16219
  0
LINE
  8
0
 10
0.681366
 20
3.16219
 11
0.683914
 21
3.15997
  0
LINE
  8
0
 10
0.683914
 20
3.15997
 11
0.686386
 21
3.15765
  0
LINE
  8
0
 10
0.686386
 20
3.15765
 11
0.688751
 21
3.15524
  0
LINE
  8
0
 10
0.688751
 20
3.15524
 11
0.69101
 21
3.15273
  0
LINE
  8
0
 10
0.69101
 20
3.15273
 11
0.693161
 21
3.15013
  0
LINE
  8
0
 10
0.693161
 20
3.15013
 11
0.695206
 21
3.14743
  0
LINE
  8
0
 10
0.695206
 20
3.14743
 11
0.697144
 21
3.14465
  0
LINE
  8
0
 10
0.697144
 20
3.14465
 11
0.698944
 21
3.1418
  0
LINE
  8
0
 10
0.698944
 20
3.1418
 11
0.700638
 21
3.13887
  0
LINE
  8
0
 10
0.700638
 20
3.13887
 11
0.702209
 21
3.13588
  0
LINE
  8
0
 10
0.702209
 20
3.13588
 11
0.703644
 21
3.13281
  0
LINE
  8
0
 10
0.703644
 20
3.13281
 11
0.704956
 21
3.1297
  0
LINE
  8
0
 10
0.704956
 20
3.1297
 11
0.706131
 21
3.12654
  0
LINE
  8
0
 10
0.706131
 20
3.12654
 11
0.707184
 21
3.12332
  0
LINE
  8
0
 10
0.707184
 20
3.12332
 11
0.708084
 21
3.12006
  0
LINE
  8
0
 10
0.708084
 20
3.12006
 11
0.708862
 21
3.11678
  0
LINE
  8
0
 10
0.708862
 20
3.11678
 11
0.709488
 21
3.11345
  0
LINE
  8
0
 10
0.709488
 20
3.11345
 11
0.709991
 21
3.11011
  0
LINE
  8
0
 10
0.709991
 20
3.11011
 11
0.710342
 21
3.10675
  0
LINE
  8
0
 10
0.710342
 20
3.10675
 11
0.710556
 21
3.10338
  0
LINE
  8
0
 10
0.710556
 20
3.10338
 11
0.710617
 21
3.09999
  0
LINE
  8
0
 10
0.710617
 20
3.09999
 11
0.710556
 21
3.09662
  0
LINE
  8
0
 10
0.710556
 20
3.09662
 11
0.710342
 21
3.09325
  0
LINE
  8
0
 10
0.710342
 20
3.09325
 11
0.709991
 21
3.08987
  0
LINE
  8
0
 10
0.709991
 20
3.08987
 11
0.709488
 21
3.08653
  0
LINE
  8
0
 10
0.709488
 20
3.08653
 11
0.708862
 21
3.08321
  0
LINE
  8
0
 10
0.708862
 20
3.08321
 11
0.708084
 21
3.07993
  0
LINE
  8
0
 10
0.708084
 20
3.07993
 11
0.707184
 21
3.07666
  0
LINE
  8
0
 10
0.707184
 20
3.07666
 11
0.706131
 21
3.07346
  0
LINE
  8
0
 10
0.706131
 20
3.07346
 11
0.704956
 21
3.07028
  0
LINE
  8
0
 10
0.704956
 20
3.07028
 11
0.703644
 21
3.06717
  0
LINE
  8
0
 10
0.703644
 20
3.06717
 11
0.702209
 21
3.0641
  0
LINE
  8
0
 10
0.702209
 20
3.0641
 11
0.700638
 21
3.06111
  0
LINE
  8
0
 10
0.700638
 20
3.06111
 11
0.698944
 21
3.05818
  0
LINE
  8
0
 10
0.698944
 20
3.05818
 11
0.697144
 21
3.05533
  0
LINE
  8
0
 10
0.697144
 20
3.05533
 11
0.695206
 21
3.05255
  0
LINE
  8
0
 10
0.695206
 20
3.05255
 11
0.693161
 21
3.04987
  0
LINE
  8
0
 10
0.693161
 20
3.04987
 11
0.69101
 21
3.04726
  0
LINE
  8
0
 10
0.69101
 20
3.04726
 11
0.688751
 21
3.04474
  0
LINE
  8
0
 10
0.688751
 20
3.04474
 11
0.686386
 21
3.04233
  0
LINE
  8
0
 10
0.686386
 20
3.04233
 11
0.683914
 21
3.04001
  0
LINE
  8
0
 10
0.683914
 20
3.04001
 11
0.681366
 21
3.03781
  0
LINE
  8
0
 10
0.681366
 20
3.03781
 11
0.678711
 21
3.03571
  0
LINE
  8
0
 10
0.678711
 20
3.03571
 11
0.67598
 21
3.03372
  0
LINE
  8
0
 10
0.67598
 20
3.03372
 11
0.673157
 21
3.03185
  0
LINE
  8
0
 10
0.673157
 20
3.03185
 11
0.670273
 21
3.03009
  0
LINE
  8
0
 10
0.670273
 20
3.03009
 11
0.667313
 21
3.02847
  0
LINE
  8
0
 10
0.667313
 20
3.02847
 11
0.664276
 21
3.02696
  0
LINE
  8
0
 10
0.664276
 20
3.02696
 11
0.661194
 21
3.02559
  0
LINE
  8
0
 10
0.661194
 20
3.02559
 11
0.658051
 21
3.02435
  0
LINE
  8
0
 10
0.658051
 20
3.02435
 11
0.654861
 21
3.02324
  0
LINE
  8
0
 10
0.654861
 20
3.02324
 11
0.651611
 21
3.02226
  0
LINE
  8
0
 10
0.651611
 20
3.02226
 11
0.648346
 21
3.02142
  0
LINE
  8
0
 10
0.648346
 20
3.02142
 11
0.645035
 21
3.02071
  0
LINE
  8
0
 10
0.645035
 20
3.02071
 11
0.641708
 21
3.02016
  0
LINE
  8
0
 10
0.641708
 20
3.02016
 11
0.638351
 21
3.01973
  0
LINE
  8
0
 10
0.638351
 20
3.01973
 11
0.634979
 21
3.01944
  0
LINE
  8
0
 10
0.634979
 20
3.01944
 11
0.631607
 21
3.0193
  0
LINE
  8
0
 10
0.631607
 20
3.0193
 11
0.62822
 21
3.0193
  0
LINE
  8
0
 10
-0.631607
 20
2.0193
 11
-0.634979
 21
2.01944
  0
LINE
  8
0
 10
-0.634979
 20
2.01944
 11
-0.638351
 21
2.01973
  0
LINE
  8
0
 10
-0.638351
 20
2.01973
 11
-0.641708
 21
2.02016
  0
LINE
  8
0
 10
-0.641708
 20
2.02016
 11
-0.645035
 21
2.02071
  0
LINE
  8
0
 10
-0.645035
 20
2.02071
 11
-0.648346
 21
2.02142
  0
LINE
  8
0
 10
-0.648346
 20
2.02142
 11
-0.651611
 21
2.02226
  0
LINE
  8
0
 10
-0.651611
 20
2.02226
 11
-0.654861
 21
2.02324
  0
LINE
  8
0
 10
-0.654861
 20
2.02324
 11
-0.658051
 21
2.02435
  0
LINE
  8
0
 10
-0.658051
 20
2.02435
 11
-0.661194
 21
2.02559
  0
LINE
  8
0
 10
-0.661194
 20
2.02559
 11
-0.664276
 21
2.02696
  0
LINE
  8
0
 10
-0.664276
 20
2.02696
 11
-0.667313
 21
2.02847
  0
LINE
  8
0
 10
-0.667313
 20
2.02847
 11
-0.670273
 21
2.03009
  0
LINE
  8
0
 10
-0.670273
 20
2.03009
 11
-0.673157
 21
2.03185
  0
LINE
  8
0
 10
-0.673157
 20
2.03185
 11
-0.67598
 21
2.03372
  0
LINE
  8
0
 10
-0.67598
 20
2.03372
 11
-0.678711
 21
2.03571
  0
LINE
  8
0
 10
-0.678711
 20
2.03571
 11
-0.681366
 21
2.03781
  0
LINE
  8
0
 10
-0.681366
 20
2.03781
 11
-0.683914
 21
2.04001
  0
LINE
  8
0
 10
-0.683914
 20
2.04001
 11
-0.686386
 21
2.04233
  0
LINE
  8
0
 10
-0.686386
 20
2.04233
 11
-0.688751
 21
2.04474
  0
LINE
  8
0
 10
-0.688751
 20
2.04474
 11
-0.69101
 21
2.04726
  0
LINE
  8
0
 10
-0.69101
 20
2.04726
 11
-0.693161
 21
2.04987
  0
LINE
  8
0
 10
-0.693161
 20
2.04987
 11
-0.695206
 21
2.05255
  0
LINE
  8
0
 10
-0.695206
 20
2.05255
 11
-0.697144
 21
2.05533
  0
LINE
  8
0
 10
-0.697144
 20
2.05533
 11
-0.698944
 21
2.05818
  0
LINE
  8
0
 10
-0.698944
 20
2.05818
 11
-0.700638
 21
2.06111
  0
LINE
  8
0
 10
-0.700638
 20
2.06111
 11
-0.702209
 21
2.0641
  0
LINE
  8
0
 10
-0.702209
 20
2.0641
 11
-0.703644
 21
2.06717
  0
LINE
  8
0
 10
-0.703644
 20
2.06717
 11
-0.704956
 21
2.07028
  0
LINE
  8
0
 10
-0.704956
 20
2.07028
 11
-0.706131
 21
2.07346
  0
LINE
  8
0
 10
-0.706131
 20
2.07346
 11
-0.707184
 21
2.07666
  0
LINE
  8
0
 10
-0.707184
 20
2.07666
 11
-0.708084
 21
2.07993
  0
LINE
  8
0
 10
-0.708084
 20
2.07993
 11
-0.708862
 21
2.08321
  0
LINE
  8
0
 10
-0.708862
 20
2.08321
 11
-0.709488
 21
2.08653
  0
LINE
  8
0
 10
-0.709488
 20
2.08653
 11
-0.709991
 21
2.08987
  0
LINE
  8
0
 10
-0.709991
 20
2.08987
 11
-0.710342
 21
2.09325
  0
LINE
  8
0
 10
-0.710342
 20
2.09325
 11
-0.710556
 21
2.09662
  0
LINE
  8
0
 10
-0.710556
 20
2.09662
 11
-0.710617
 21
2.09999
  0
LINE
  8
0
 10
-0.710617
 20
2.09999
 11
-0.710556
 21
2.10338
  0
LINE
  8
0
 10
-0.710556
 20
2.10338
 11
-0.710342
 21
2.10675
  0
LINE
  8
0
 10
-0.710342
 20
2.10675
 11
-0.709991
 21
2.11011
  0
LINE
  8
0
 10
-0.709991
 20
2.11011
 11
-0.709488
 21
2.11345
  0
LINE
  8
0
 10
-0.709488
 20
2.11345
 11
-0.708862
 21
2.11678
  0
LINE
  8
0
 10
-0.708862
 20
2.11678
 11
-0.708084
 21
2.12006
  0
LINE
  8
0
 10
-0.708084
 20
2.12006
 11
-0.707184
 21
2.12332
  0
LINE
  8
0
 10
-0.707184
 20
2.12332
 11
-0.706131
 21
2.12654
  0
LINE
  8
0
 10
-0.706131
 20
2.12654
 11
-0.704956
 21
2.1297
  0
LINE
  8
0
 10
-0.704956
 20
2.1297
 11
-0.703644
 21
2.13281
  0
LINE
  8
0
 10
-0.703644
 20
2.13281
 11
-0.702209
 21
2.13588
  0
LINE
  8
0
 10
-0.702209
 20
2.13588
 11
-0.700638
 21
2.13887
  0
LINE
  8
0
 10
-0.700638
 20
2.13887
 11
-0.698944
 21
2.1418
  0
LINE
  8
0
 10
-0.698944
 20
2.1418
 11
-0.697144
 21
2.14465
  0
LINE
  8
0
 10
-0.697144
 20
2.14465
 11
-0.695206
 21
2.14743
  0
LINE
  8
0
 10
-0.695206
 20
2.14743
 11
-0.693161
 21
2.15013
  0
LINE
  8
0
 10
-0.693161
 20
2.15013
 11
-0.69101
 21
2.15273
  0
LINE
  8
0
 10
-0.69101
 20
2.15273
 11
-0.688751
 21
2.15524
  0
LINE
  8
0
 10
-0.688751
 20
2.15524
 11
-0.686386
 21
2.15765
  0
LINE
  8
0
 10
-0.686386
 20
2.15765
 11
-0.683914
 21
2.15997
  0
LINE
  8
0
 10
-0.683914
 20
2.15997
 11
-0.681366
 21
2.16219
  0
LINE
  8
0
 10
-0.681366
 20
2.16219
 11
-0.678711
 21
2.16428
  0
LINE
  8
0
 10
-0.678711
 20
2.16428
 11
-0.67598
 21
2.16626
  0
LINE
  8
0
 10
-0.67598
 20
2.16626
 11
-0.673157
 21
2.16814
  0
LINE
  8
0
 10
-0.673157
 20
2.16814
 11
-0.670273
 21
2.16989
  0
LINE
  8
0
 10
-0.670273
 20
2.16989
 11
-0.667313
 21
2.17151
  0
LINE
  8
0
 10
-0.667313
 20
2.17151
 11
-0.664276
 21
2.17302
  0
LINE
  8
0
 10
-0.664276
 20
2.17302
 11
-0.661194
 21
2.17439
  0
LINE
  8
0
 10
-0.661194
 20
2.17439
 11
-0.658051
 21
2.17564
  0
LINE
  8
0
 10
-0.658051
 20
2.17564
 11
-0.654861
 21
2.17676
  0
LINE
  8
0
 10
-0.654861
 20
2.17676
 11
-0.651611
 21
2.17773
  0
LINE
  8
0
 10
-0.651611
 20
2.17773
 11
-0.648346
 21
2.17857
  0
LINE
  8
0
 10
-0.648346
 20
2.17857
 11
-0.645035
 21
2.17928
  0
LINE
  8
0
 10
-0.645035
 20
2.17928
 11
-0.641708
 21
2.17984
  0
LINE
  8
0
 10
-0.641708
 20
2.17984
 11
-0.638351
 21
2.18025
  0
LINE
  8
0
 10
-0.638351
 20
2.18025
 11
-0.634979
 21
2.18054
  0
LINE
  8
0
 10
-0.634979
 20
2.18054
 11
-0.631607
 21
2.18068
  0
LINE
  8
0
 10
-0.631607
 20
2.18068
 11
-0.62822
 21
2.18068
  0
LINE
  8
0
 10
-0.62822
 20
2.18068
 11
-0.624847
 21
2.18054
  0
LINE
  8
0
 10
-0.624847
 20
2.18054
 11
-0.621475
 21
2.18025
  0
LINE
  8
0
 10
-0.621475
 20
2.18025
 11
-0.618118
 21
2.17984
  0
LINE
  8
0
 10
-0.618118
 20
2.17984
 11
-0.614792
 21
2.17928
  0
LINE
  8
0
 10
-0.614792
 20
2.17928
 11
-0.611481
 21
2.17857
  0
LINE
  8
0
 10
-0.611481
 20
2.17857
 11
-0.608215
 21
2.17773
  0
LINE
  8
0
 10
-0.608215
 20
2.17773
 11
-0.60498
 21
2.17676
  0
LINE
  8
0
 10
-0.60498
 20
2.17676
 11
-0.601776
 21
2.17564
  0
LINE
  8
0
 10
-0.601776
 20
2.17564
 11
-0.598633
 21
2.17439
  0
LINE
  8
0
 10
-0.598633
 20
2.17439
 11
-0.595551
 21
2.17302
  0
LINE
  8
0
 10
-0.595551
 20
2.17302
 11
-0.592514
 21
2.17151
  0
LINE
  8
0
 10
-0.592514
 20
2.17151
 11
-0.589554
 21
2.16989
  0
LINE
  8
0
 10
-0.589554
 20
2.16989
 11
-0.58667
 21
2.16814
  0
LINE
  8
0
 10
-0.58667
 20
2.16814
 11
-0.583847
 21
2.16626
  0
LINE
  8
0
 10
-0.583847
 20
2.16626
 11
-0.581116
 21
2.16428
  0
LINE
  8
0
 10
-0.581116
 20
2.16428
 11
-0.578461
 21
2.16219
  0
LINE
  8
0
 10
-0.578461
 20
2.16219
 11
-0.575912
 21
2.15997
  0
LINE
  8
0
 10
-0.575912
 20
2.15997
 11
-0.573441
 21
2.15765
  0
LINE
  8
0
 10
-0.573441
 20
2.15765
 11
-0.571075
 21
2.15524
  0
LINE
  8
0
 10
-0.571075
 20
2.15524
 11
-0.568817
 21
2.15273
  0
LINE
  8
0
 10
-0.568817
 20
2.15273
 11
-0.566666
 21
2.15013
  0
LINE
  8
0
 10
-0.566666
 20
2.15013
 11
-0.564621
 21
2.14743
  0
LINE
  8
0
 10
-0.564621
 20
2.14743
 11
-0.562683
 21
2.14465
  0
LINE
  8
0
 10
-0.562683
 20
2.14465
 11
-0.560883
 21
2.1418
  0
LINE
  8
0
 10
-0.560883
 20
2.1418
 11
-0.559189
 21
2.13887
  0
LINE
  8
0
 10
-0.559189
 20
2.13887
 11
-0.557617
 21
2.13588
  0
LINE
  8
0
 10
-0.557617
 20
2.13588
 11
-0.556183
 21
2.13281
  0
LINE
  8
0
 10
-0.556183
 20
2.13281
 11
-0.554871
 21
2.1297
  0
LINE
  8
0
 10
-0.554871
 20
2.1297
 11
-0.553696
 21
2.12654
  0
LINE
  8
0
 10
-0.553696
 20
2.12654
 11
-0.552643
 21
2.12332
  0
LINE
  8
0
 10
-0.552643
 20
2.12332
 11
-0.551743
 21
2.12006
  0
LINE
  8
0
 10
-0.551743
 20
2.12006
 11
-0.550964
 21
2.11678
  0
LINE
  8
0
 10
-0.550964
 20
2.11678
 11
-0.550339
 21
2.11345
  0
LINE
  8
0
 10
-0.550339
 20
2.11345
 11
-0.549835
 21
2.11011
  0
LINE
  8
0
 10
-0.549835
 20
2.11011
 11
-0.549484
 21
2.10675
  0
LINE
  8
0
 10
-0.549484
 20
2.10675
 11
-0.549271
 21
2.10338
  0
LINE
  8
0
 10
-0.549271
 20
2.10338
 11
-0.54921
 21
2.09999
  0
LINE
  8
0
 10
-0.54921
 20
2.09999
 11
-0.549271
 21
2.09662
  0
LINE
  8
0
 10
-0.549271
 20
2.09662
 11
-0.549484
 21
2.09325
  0
LINE
  8
0
 10
-0.549484
 20
2.09325
 11
-0.549835
 21
2.08987
  0
LINE
  8
0
 10
-0.549835
 20
2.08987
 11
-0.550339
 21
2.08653
  0
LINE
  8
0
 10
-0.550339
 20
2.08653
 11
-0.550964
 21
2.08321
  0
LINE
  8
0
 10
-0.550964
 20
2.08321
 11
-0.551743
 21
2.07993
  0
LINE
  8
0
 10
-0.551743
 20
2.07993
 11
-0.552643
 21
2.07666
  0
LINE
  8
0
 10
-0.552643
 20
2.07666
 11
-0.553696
 21
2.07346
  0
LINE
  8
0
 10
-0.553696
 20
2.07346
 11
-0.554871
 21
2.07028
  0
LINE
  8
0
 10
-0.554871
 20
2.07028
 11
-0.556183
 21
2.06717
  0
LINE
  8
0
 10
-0.556183
 20
2.06717
 11
-0.557617
 21
2.0641
  0
LINE
  8
0
 10
-0.557617
 20
2.0641
 11
-0.559189
 21
2.06111
  0
LINE
  8
0
 10
-0.559189
 20
2.06111
 11
-0.560883
 21
2.05818
  0
LINE
  8
0
 10
-0.560883
 20
2.05818
 11
-0.562683
 21
2.05533
  0
LINE
  8
0
 10
-0.562683
 20
2.05533
 11
-0.564621
 21
2.05255
  0
LINE
  8
0
 10
-0.564621
 20
2.05255
 11
-0.566666
 21
2.04987
  0
LINE
  8
0
 10
-0.566666
 20
2.04987
 11
-0.568817
 21
2.04726
  0
LINE
  8
0
 10
-0.568817
 20
2.04726
 11
-0.571075
 21
2.04474
  0
LINE
  8
0
 10
-0.571075
 20
2.04474
 11
-0.573441
 21
2.04233
  0
LINE
  8
0
 10
-0.573441
 20
2.04233
 11
-0.575912
 21
2.04001
  0
LINE
  8
0
 10
-0.575912
 20
2.04001
 11
-0.578461
 21
2.03781
  0
LINE
  8
0
 10
-0.578461
 20
2.03781
 11
-0.581116
 21
2.03571
  0
LINE
  8
0
 10
-0.581116
 20
2.03571
 11
-0.583847
 21
2.03372
  0
LINE
  8
0
 10
-0.583847
 20
2.03372
 11
-0.58667
 21
2.03185
  0
LINE
  8
0
 10
-0.58667
 20
2.03185
 11
-0.589554
 21
2.03009
  0
LINE
  8
0
 10
-0.589554
 20
2.03009
 11
-0.592514
 21
2.02847
  0
LINE
  8
0
 10
-0.592514
 20
2.02847
 11
-0.595551
 21
2.02696
  0
LINE
  8
0
 10
-0.595551
 20
2.02696
 11
-0.598633
 21
2.02559
  0
LINE
  8
0
 10
-0.598633
 20
2.02559
 11
-0.601776
 21
2.02435
  0
LINE
  8
0
 10
-0.601776
 20
2.02435
 11
-0.60498
 21
2.02324
  0
LINE
  8
0
 10
-0.60498
 20
2.02324
 11
-0.608215
 21
2.02226
  0
LINE
  8
0
 10
-0.608215
 20
2.02226
 11
-0.611481
 21
2.02142
  0
LINE
  8
0
 10
-0.611481
 20
2.02142
 11
-0.614792
 21
2.02071
  0
LINE
  8
0
 10
-0.614792
 20
2.02071
 11
-0.618118
 21
2.02016
  0
LINE
  8
0
 10
-0.618118
 20
2.02016
 11
-0.621475
 21
2.01973
  0
LINE
  8
0
 10
-0.621475
 20
2.01973
 11
-0.624847
 21
2.01944
  0
LINE
  8
0
 10
-0.624847
 20
2.01944
 11
-0.62822
 21
2.0193
  0
LINE
  8
0
 10
-0.62822
 20
2.0193
 11
-0.631607
 21
2.0193
  0
LINE
  8
0
 10
0.62822
 20
2.0193
 11
0.624847
 21
2.01944
  0
LINE
  8
0
 10
0.624847
 20
2.01944
 11
0.621475
 21
2.01973
  0
LINE
  8
0
 10
0.621475
 20
2.01973
 11
0.618118
 21
2.02016
  0
LINE
  8
0
 10
0.618118
 20
2.02016
 11
0.614792
 21
2.02071
  0
LINE
  8
0
 10
0.614792
 20
2.02071
 11
0.611481
 21
2.02142
  0
LINE
  8
0
 10
0.611481
 20
2.02142
 11
0.608215
 21
2.02226
  0
LINE
  8
0
 10
0.608215
 20
2.02226
 11
0.60498
 21
2.02324
  0
LINE
  8
0
 10
0.60498
 20
2.02324
 11
0.601776
 21
2.02435
  0
LINE
  8
0
 10
0.601776
 20
2.02435
 11
0.598633
 21
2.02559
  0
LINE
  8
0
 10
0.598633
 20
2.02559
 11
0.595551
 21
2.02696
  0
LINE
  8
0
 10
0.595551
 20
2.02696
 11
0.592514
 21
2.02847
  0
LINE
  8
0
 10
0.592514
 20
2.02847
 11
0.589554
 21
2.03009
  0
LINE
  8
0
 10
0.589554
 20
2.03009
 11
0.58667
 21
2.03185
  0
LINE
  8
0
 10
0.58667
 20
2.03185
 11
0.583847
 21
2.03372
  0
LINE
  8
0
 10
0.583847
 20
2.03372
 11
0.581116
 21
2.03571
  0
LINE
  8
0
 10
0.581116
 20
2.03571
 11
0.578461
 21
2.03781
  0
LINE
  8
0
 10
0.578461
 20
2.03781
 11
0.575912
 21
2.04001
  0
LINE
  8
0
 10
0.575912
 20
2.04001
 11
0.573441
 21
2.04233
  0
LINE
  8
0
 10
0.573441
 20
2.04233
 11
0.571075
 21
2.04474
  0
LINE
  8
0
 10
0.571075
 20
2.04474
 11
0.568817
 21
2.04726
  0
LINE
  8
0
 10
0.568817
 20
2.04726
 11
0.566666
 21
2.04987
  0
LINE
  8
0
 10
0.566666
 20
2.04987
 11
0.564621
 21
2.05255
  0
LINE
  8
0
 10
0.564621
 20
2.05255
 11
0.562683
 21
2.05533
  0
LINE
  8
0
 10
0.562683
 20
2.05533
 11
0.560883
 21
2.05818
  0
LINE
  8
0
 10
0.560883
 20
2.05818
 11
0.559189
 21
2.06111
  0
LINE
  8
0
 10
0.559189
 20
2.06111
 11
0.557617
 21
2.0641
  0
LINE
  8
0
 10
0.557617
 20
2.0641
 11
0.556183
 21
2.06717
  0
LINE
  8
0
 10
0.556183
 20
2.06717
 11
0.554871
 21
2.07028
  0
LINE
  8
0
 10
0.554871
 20
2.07028
 11
0.553696
 21
2.07346
  0
LINE
  8
0
 10
0.553696
 20
2.07346
 11
0.552643
 21
2.07666
  0
LINE
  8
0
 10
0.552643
 20
2.07666
 11
0.551743
 21
2.07993
  0
LINE
  8
0
 10
0.551743
 20
2.07993
 11
0.550964
 21
2.08321
  0
LINE
  8
0
 10
0.550964
 20
2.08321
 11
0.550339
 21
2.08653
  0
LINE
  8
0
 10
0.550339
 20
2.08653
 11
0.549835
 21
2.08987
  0
LINE
  8
0
 10
0.549835
 20
2.08987
 11
0.549484
 21
2.09325
  0
LINE
  8
0
 10
0.549484
 20
2.09325
 11
0.549271
 21
2.09662
  0
LINE
  8
0
 10
0.549271
 20
2.09662
 11
0.54921
 21
2.09999
  0
LINE
  8
0
 10
0.54921
 20
2.09999
 11
0.549271
 21
2.10338
  0
LINE
  8
0
 10
0.549271
 20
2.10338
 11
0.549484
 21
2.10675
  0
LINE
  8
0
 10
0.549484
 20
2.10675
 11
0.549835
 21
2.11011
  0
LINE
  8
0
 10
0.549835
 20
2.11011
 11
0.550339
 21
2.11345
  0
LINE
  8
0
 10
0.550339
 20
2.11345
 11
0.550964
 21
2.11678
  0
LINE
  8
0
 10
0.550964
 20
2.11678
 11
0.551743
 21
2.12006
  0
LINE
  8
0
 10
0.551743
 20
2.12006
 11
0.552643
 21
2.12332
  0
LINE
  8
0
 10
0.552643
 20
2.12332
 11
0.553696
 21
2.12654
  0
LINE
  8
0
 10
0.553696
 20
2.12654
 11
0.554871
 21
2.1297
  0
LINE
  8
0
 10
0.554871
 20
2.1297
 11
0.556183
 21
2.13281
  0
LINE
  8
0
 10
0.556183
 20
2.13281
 11
0.557617
 21
2.13588
  0
LINE
  8
0
 10
0.557617
 20
2.13588
 11
0.559189
 21
2.13887
  0
LINE
  8
0
 10
0.559189
 20
2.13887
 11
0.560883
 21
2.1418
  0
LINE
  8
0
 10
0.560883
 20
2.1418
 11
0.562683
 21
2.14465
  0
LINE
  8
0
 10
0.562683
 20
2.14465
 11
0.564621
 21
2.14743
  0
LINE
  8
0
 10
0.564621
 20
2.14743
 11
0.566666
 21
2.15013
  0
LINE
  8
0
 10
0.566666
 20
2.15013
 11
0.568817
 21
2.15273
  0
LINE
  8
0
 10
0.568817
 20
2.15273
 11
0.571075
 21
2.15524
  0
LINE
  8
0
 10
0.571075
 20
2.15524
 11
0.573441
 21
2.15765
  0
LINE
  8
0
 10
0.573441
 20
2.15765
 11
0.575912
 21
2.15997
  0
LINE
  8
0
 10
0.575912
 20
2.15997
 11
0.578461
 21
2.16219
  0
LINE
  8
0
 10
0.578461
 20
2.16219
 11
0.581116
 21
2.16428
  0
LINE
  8
0
 10
0.581116
 20
2.16428
 11
0.583847
 21
2.16626
  0
LINE
  8
0
 10
0.583847
 20
2.16626
 11
0.58667
 21
2.16814
  0
LINE
  8
0
 10
0.58667
 20
2.16814
 11
0.589554
 21
2.16989
  0
LINE
  8
0
 10
0.589554
 20
2.16989
 11
0.592514
 21
2.17151
  0
LINE
  8
0
 10
0.592514
 20
2.17151
 11
0.595551
 21
2.17302
  0
LINE
  8
0
 10
0.595551
 20
2.17302
 11
0.598633
 21
2.17439
  0
LINE
  8
0
 10
0.598633
 20
2.17439
 11
0.601776
 21
2.17564
  0
LINE
  8
0
 10
0.601776
 20
2.17564
 11
0.60498
 21
2.17676
  0
LINE
  8
0
 10
0.60498
 20
2.17676
 11
0.608215
 21
2.17773
  0
LINE
  8
0
 10
0.608215
 20
2.17773
 11
0.611481
 21
2.17857
  0
LINE
  8
0
 10
0.611481
 20
2.17857
 11
0.614792
 21
2.17928
  0
LINE
  8
0
 10
0.614792
 20
2.17928
 11
0.618118
 21
2.17984
  0
LINE
  8
0
 10
0.618118
 20
2.17984
 11
0.621475
 21
2.18025
  0
LINE
  8
0
 10
0.621475
 20
2.18025
 11
0.624847
 21
2.18054
  0
LINE
  8
0
 10
0.624847
 20
2.18054
 11
0.62822
 21
2.18068
  0
LINE
  8
0
 10
0.62822
 20
2.18068
 11
0.631607
 21
2.18068
  0
LINE
  8
0
 10
0.631607
 20
2.18068
 11
0.634979
 21
2.18054
  0
LINE
  8
0
 10
0.634979
 20
2.18054
 11
0.638351
 21
2.18025
  0
LINE
  8
0
 10
0.638351
 20
2.18025
 11
0.641708
 21
2.17984
  0
LINE
  8
0
 10
0.641708
 20
2.17984
 11
0.645035
 21
2.17928
  0
LINE
  8
0
 10
0.645035
 20
2.17928
 11
0.648346
 21
2.17857
  0
LINE
  8
0
 10
0.648346
 20
2.17857
 11
0.651611
 21
2.17773
  0
LINE
  8
0
 10
0.651611
 20
2.17773
 11
0.654861
 21
2.17676
  0
LINE
  8
0
 10
0.654861
 20
2.17676
 11
0.658051
 21
2.17564
  0
LINE
  8
0
 10
0.658051
 20
2.17564
 11
0.661194
 21
2.17439
  0
LINE
  8
0
 10
0.661194
 20
2.17439
 11
0.664276
 21
2.17302
  0
LINE
  8
0
 10
0.664276
 20
2.17302
 11
0.667313
 21
2.17151
  0
LINE
  8
0
 10
0.667313
 20
2.17151
 11
0.670273
 21
2.16989
  0
LINE
  8
0
 10
0.670273
 20
2.16989
 11
0.673157
 21
2.16814
  0
LINE
  8
0
 10
0.673157
 20
2.16814
 11
0.67598
 21
2.16626
  0
LINE
  8
0
 10
0.67598
 20
2.16626
 11
0.678711
 21
2.16428
  0
LINE
  8
0
 10
0.678711
 20
2.16428
 11
0.681366
 21
2.16219
  0
LINE
  8
0
 10
0.681366
 20
2.16219
 11
0.683914
 21
2.15997
  0
LINE
  8
0
 10
0.683914
 20
2.15997
 11
0.686386
 21
2.15765
  0
LINE
  8
0
 10
0.686386
 20
2.15765
 11
0.688751
 21
2.15524
  0
LINE
  8
0
 10
0.688751
 20
2.15524
 11
0.69101
 21
2.15273
  0
LINE
  8
0
 10
0.69101
 20
2.15273
 11
0.693161
 21
2.15013
  0
LINE
  8
0
 10
0.693161
 20
2.15013
 11
0.695206
 21
2.14743
  0
LINE
  8
0
 10
0.695206
 20
2.14743
 11
0.697144
 21
2.14465
  0
LINE
  8
0
 10
0.697144
 20
2.14465
 11
0.698944
 21
2.1418
  0
LINE
  8
0
 10
0.698944
 20
2.1418
 11
0.700638
 21
2.13887
  0
LINE
  8
0
 10
0.700638
 20
2.13887
 11
0.702209
 21
2.13588
  0
LINE
  8
0
 10
0.702209
 20
2.13588
 11
0.703644
 21
2.13281
  0
LINE
  8
0
 10
0.703644
 20
2.13281
 11
0.704956
 21
2.1297
  0
LINE
  8
0
 10
0.704956
 20
2.1297
 11
0.706131
 21
2.12654
  0
LINE
  8
0
 10
0.706131
 20
2.12654
 11
0.707184
 21
2.12332
  0
LINE
  8
0
 10
0.707184
 20
2.12332
 11
0.708084
 21
2.12006
  0
LINE
  8
0
 10
0.708084
 20
2.12006
 11
0.708862
 21
2.11678
  0
LINE
  8
0
 10
0.708862
 20
2.11678
 11
0.709488
 21
2.11345
  0
LINE
  8
0
 10
0.709488
 20
2.11345
 11
0.709991
 21
2.11011
  0
LINE
  8
0
 10
0.709991
 20
2.11011
 11
0.710342
 21
2.10675
  0
LINE
  8
0
 10
0.710342
 20
2.10675
 11
0.710556
 21
2.10338
  0
LINE
  8
0
 10
0.710556
 20
2.10338
 11
0.710617
 21
2.09999
  0
LINE
  8
0
 10
0.710617
 20
2.09999
 11
0.710556
 21
2.09662
  0
LINE
  8
0
 10
0.710556
 20
2.09662
 11
0.710342
 21
2.09325
  0
LINE
  8
0
 10
0.710342
 20
2.09325
 11
0.709991
 21
2.08987
  0
LINE
  8
0
 10
0.709991
 20
2.08987
 11
0.709488
 21
2.08653
  0
LINE
  8
0
 10
0.709488
 20
2.08653
 11
0.708862
 21
2.08321
  0
LINE
  8
0
 10
0.708862
 20
2.08321
 11
0.708084
 21
2.07993
  0
LINE
  8
0
 10
0.708084
 20
2.07993
 11
0.707184
 21
2.07666
  0
LINE
  8
0
 10
0.707184
 20
2.07666
 11
0.706131
 21
2.07346
  0
LINE
  8
0
 10
0.706131
 20
2.07346
 11
0.704956
 21
2.07028
  0
LINE
  8
0
 10
0.704956
 20
2.07028
 11
0.703644
 21
2.06717
  0
LINE
  8
0
 10
0.703644
 20
2.06717
 11
0.702209
 21
2.0641
  0
LINE
  8
0
 10
0.702209
 20
2.0641
 11
0.700638
 21
2.06111
  0
LINE
  8
0
 10
0.700638
 20
2.06111
 11
0.698944
 21
2.05818
  0
LINE
  8
0
 10
0.698944
 20
2.05818
 11
0.697144
 21
2.05533
  0
LINE
  8
0
 10
0.697144
 20
2.05533
 11
0.695206
 21
2.05255
  0
LINE
  8
0
 10
0.695206
 20
2.05255
 11
0.693161
 21
2.04987
  0
LINE
  8
0
 10
0.693161
 20
2.04987
 11
0.69101
 21
2.04726
  0
LINE
  8
0
 10
0.69101
 20
2.04726
 11
0.688751
 21
2.04474
  0
LINE
  8
0
 10
0.688751
 20
2.04474
 11
0.686386
 21
2.04233
  0
LINE
  8
0
 10
0.686386
 20
2.04233
 11
0.683914
 21
2.04001
  0
LINE
  8
0
 10
0.683914
 20
2.04001
 11
0.681366
 21
2.03781
  0
LINE
  8
0
 10
0.681366
 20
2.03781
 11
0.678711
 21
2.03571
  0
LINE
  8
0
 10
0.678711
 20
2.03571
 11
0.67598
 21
2.03372
  0
LINE
  8
0
 10
0.67598
 20
2.03372
 11
0.673157
 21
2.03185
  0
LINE
  8
0
 10
0.673157
 20
2.03185
 11
0.670273
 21
2.03009
  0
LINE
  8
0
 10
0.670273
 20
2.03009
 11
0.667313
 21
2.02847
  0
LINE
  8
0
 10
0.667313
 20
2.02847
 11
0.664276
 21
2.02696
  0
LINE
  8
0
 10
0.664276
 20
2.02696
 11
0.661194
 21
2.02559
  0
LINE
  8
0
 10
0.661194
 20
2.02559
 11
0.658051
 21
2.02435
  0
LINE
  8
0
 10
0.658051
 20
2.02435
 11
0.654861
 21
2.02324
  0
LINE
  8
0
 10
0.654861
 20
2.02324
 11
0.651611
 21
2.02226
  0
LINE
  8
0
 10
0.651611
 20
2.02226
 11
0.648346
 21
2.02142
  0
LINE
  8
0
 10
0.648346
 20
2.02142
 11
0.645035
 21
2.02071
  0
LINE
  8
0
 10
0.645035
 20
2.02071
 11
0.641708
 21
2.02016
  0
LINE
  8
0
 10
0.641708
 20
2.02016
 11
0.638351
 21
2.01973
  0
LINE
  8
0
 10
0.638351
 20
2.01973
 11
0.634979
 21
2.01944
  0
LINE
  8
0
 10
0.634979
 20
2.01944
 11
0.631607
 21
2.0193
  0
LINE
  8
0
 10
0.631607
 20
2.0193
 11
0.62822
 21
2.0193
  0
LINE
  8
0
 10
0.62822
 20
1.0193
 11
0.624847
 21
1.01944
  0
LINE
  8
0
 10
0.624847
 20
1.01944
 11
0.621475
 21
1.01973
  0
LINE
  8
0
 10
0.621475
 20
1.01973
 11
0.618118
 21
1.02016
  0
LINE
  8
0
 10
0.618118
 20
1.02016
 11
0.614792
 21
1.02071
  0
LINE
  8
0
 10
0.614792
 20
1.02071
 11
0.611481
 21
1.02142
  0
LINE
  8
0
 10
0.611481
 20
1.02142
 11
0.608215
 21
1.02226
  0
LINE
  8
0
 10
0.608215
 20
1.02226
 11
0.60498
 21
1.02324
  0
LINE
  8
0
 10
0.60498
 20
1.02324
 11
0.601776
 21
1.02435
  0
LINE
  8
0
 10
0.601776
 20
1.02435
 11
0.598633
 21
1.02559
  0
LINE
  8
0
 10
0.598633
 20
1.02559
 11
0.595551
 21
1.02696
  0
LINE
  8
0
 10
0.595551
 20
1.02696
 11
0.592514
 21
1.02847
  0
LINE
  8
0
 10
0.592514
 20
1.02847
 11
0.589554
 21
1.03009
  0
LINE
  8
0
 10
0.589554
 20
1.03009
 11
0.58667
 21
1.03185
  0
LINE
  8
0
 10
0.58667
 20
1.03185
 11
0.583847
 21
1.03372
  0
LINE
  8
0
 10
0.583847
 20
1.03372
 11
0.581116
 21
1.03571
  0
LINE
  8
0
 10
0.581116
 20
1.03571
 11
0.578461
 21
1.03781
  0
LINE
  8
0
 10
0.578461
 20
1.03781
 11
0.575912
 21
1.04001
  0
LINE
  8
0
 10
0.575912
 20
1.04001
 11
0.573441
 21
1.04233
  0
LINE
  8
0
 10
0.573441
 20
1.04233
 11
0.571075
 21
1.04474
  0
LINE
  8
0
 10
0.571075
 20
1.04474
 11
0.568817
 21
1.04726
  0
LINE
  8
0
 10
0.568817
 20
1.04726
 11
0.566666
 21
1.04987
  0
LINE
  8
0
 10
0.566666
 20
1.04987
 11
0.564621
 21
1.05255
  0
LINE
  8
0
 10
0.564621
 20
1.05255
 11
0.562683
 21
1.05533
  0
LINE
  8
0
 10
0.562683
 20
1.05533
 11
0.560883
 21
1.05818
  0
LINE
  8
0
 10
0.560883
 20
1.05818
 11
0.559189
 21
1.06111
  0
LINE
  8
0
 10
0.559189
 20
1.06111
 11
0.557617
 21
1.0641
  0
LINE
  8
0
 10
0.557617
 20
1.0641
 11
0.556183
 21
1.06717
  0
LINE
  8
0
 10
0.556183
 20
1.06717
 11
0.554871
 21
1.07028
  0
LINE
  8
0
 10
0.554871
 20
1.07028
 11
0.553696
 21
1.07346
  0
LINE
  8
0
 10
0.553696
 20
1.07346
 11
0.552643
 21
1.07666
  0
LINE
  8
0
 10
0.552643
 20
1.07666
 11
0.551743
 21
1.07993
  0
LINE
  8
0
 10
0.551743
 20
1.07993
 11
0.550964
 21
1.08321
  0
LINE
  8
0
 10
0.550964
 20
1.08321
 11
0.550339
 21
1.08653
  0
LINE
  8
0
 10
0.550339
 20
1.08653
 11
0.549835
 21
1.08987
  0
LINE
  8
0
 10
0.549835
 20
1.08987
 11
0.549484
 21
1.09325
  0
LINE
  8
0
 10
0.549484
 20
1.09325
 11
0.549271
 21
1.09662
  0
LINE
  8
0
 10
0.549271
 20
1.09662
 11
0.54921
 21
1.09999
  0
LINE
  8
0
 10
0.54921
 20
1.09999
 11
0.549271
 21
1.10338
  0
LINE
  8
0
 10
0.549271
 20
1.10338
 11
0.549484
 21
1.10675
  0
LINE
  8
0
 10
0.549484
 20
1.10675
 11
0.549835
 21
1.11011
  0
LINE
  8
0
 10
0.549835
 20
1.11011
 11
0.550339
 21
1.11345
  0
LINE
  8
0
 10
0.550339
 20
1.11345
 11
0.550964
 21
1.11678
  0
LINE
  8
0
 10
0.550964
 20
1.11678
 11
0.551743
 21
1.12006
  0
LINE
  8
0
 10
0.551743
 20
1.12006
 11
0.552643
 21
1.12332
  0
LINE
  8
0
 10
0.552643
 20
1.12332
 11
0.553696
 21
1.12654
  0
LINE
  8
0
 10
0.553696
 20
1.12654
 11
0.554871
 21
1.1297
  0
LINE
  8
0
 10
0.554871
 20
1.1297
 11
0.556183
 21
1.13281
  0
LINE
  8
0
 10
0.556183
 20
1.13281
 11
0.557617
 21
1.13588
  0
LINE
  8
0
 10
0.557617
 20
1.13588
 11
0.559189
 21
1.13887
  0
LINE
  8
0
 10
0.559189
 20
1.13887
 11
0.560883
 21
1.1418
  0
LINE
  8
0
 10
0.560883
 20
1.1418
 11
0.562683
 21
1.14465
  0
LINE
  8
0
 10
0.562683
 20
1.14465
 11
0.564621
 21
1.14743
  0
LINE
  8
0
 10
0.564621
 20
1.14743
 11
0.566666
 21
1.15013
  0
LINE
  8
0
 10
0.566666
 20
1.15013
 11
0.568817
 21
1.15273
  0
LINE
  8
0
 10
0.568817
 20
1.15273
 11
0.571075
 21
1.15524
  0
LINE
  8
0
 10
0.571075
 20
1.15524
 11
0.573441
 21
1.15765
  0
LINE
  8
0
 10
0.573441
 20
1.15765
 11
0.575912
 21
1.15997
  0
LINE
  8
0
 10
0.575912
 20
1.15997
 11
0.578461
 21
1.16219
  0
LINE
  8
0
 10
0.578461
 20
1.16219
 11
0.581116
 21
1.16428
  0
LINE
  8
0
 10
0.581116
 20
1.16428
 11
0.583847
 21
1.16626
  0
LINE
  8
0
 10
0.583847
 20
1.16626
 11
0.58667
 21
1.16814
  0
LINE
  8
0
 10
0.58667
 20
1.16814
 11
0.589554
 21
1.16989
  0
LINE
  8
0
 10
0.589554
 20
1.16989
 11
0.592514
 21
1.17151
  0
LINE
  8
0
 10
0.592514
 20
1.17151
 11
0.595551
 21
1.17302
  0
LINE
  8
0
 10
0.595551
 20
1.17302
 11
0.598633
 21
1.17439
  0
LINE
  8
0
 10
0.598633
 20
1.17439
 11
0.601776
 21
1.17564
  0
LINE
  8
0
 10
0.601776
 20
1.17564
 11
0.60498
 21
1.17676
  0
LINE
  8
0
 10
0.60498
 20
1.17676
 11
0.608215
 21
1.17773
  0
LINE
  8
0
 10
0.608215
 20
1.17773
 11
0.611481
 21
1.17857
  0
LINE
  8
0
 10
0.611481
 20
1.17857
 11
0.614792
 21
1.17928
  0
LINE
  8
0
 10
0.614792
 20
1.17928
 11
0.618118
 21
1.17984
  0
LINE
  8
0
 10
0.618118
 20
1.17984
 11
0.621475
 21
1.18025
  0
LINE
  8
0
 10
0.621475
 20
1.18025
 11
0.624847
 21
1.18054
  0
LINE
  8
0
 10
0.624847
 20
1.18054
 11
0.62822
 21
1.18068
  0
LINE
  8
0
 10
0.62822
 20
1.18068
 11
0.631607
 21
1.18068
  0
LINE
  8
0
 10
0.631607
 20
1.18068
 11
0.634979
 21
1.18054
  0
LINE
  8
0
 10
0.634979
 20
1.18054
 11
0.638351
 21
1.18025
  0
LINE
  8
0
 10
0.638351
 20
1.18025
 11
0.641708
 21
1.17984
  0
LINE
  8
0
 10
0.641708
 20
1.17984
 11
0.645035
 21
1.17928
  0
LINE
  8
0
 10
0.645035
 20
1.17928
 11
0.648346
 21
1.17857
  0
LINE
  8
0
 10
0.648346
 20
1.17857
 11
0.651611
 21
1.17773
  0
LINE
  8
0
 10
0.651611
 20
1.17773
 11
0.654861
 21
1.17676
  0
LINE
  8
0
 10
0.654861
 20
1.17676
 11
0.658051
 21
1.17564
  0
LINE
  8
0
 10
0.658051
 20
1.17564
 11
0.661194
 21
1.17439
  0
LINE
  8
0
 10
0.661194
 20
1.17439
 11
0.664276
 21
1.17302
  0
LINE
  8
0
 10
0.664276
 20
1.17302
 11
0.667313
 21
1.17151
  0
LINE
  8
0
 10
0.667313
 20
1.17151
 11
0.670273
 21
1.16989
  0
LINE
  8
0
 10
0.670273
 20
1.16989
 11
0.673157
 21
1.16814
  0
LINE
  8
0
 10
0.673157
 20
1.16814
 11
0.67598
 21
1.16626
  0
LINE
  8
0
 10
0.67598
 20
1.16626
 11
0.678711
 21
1.16428
  0
LINE
  8
0
 10
0.678711
 20
1.16428
 11
0.681366
 21
1.16219
  0
LINE
  8
0
 10
0.681366
 20
1.16219
 11
0.683914
 21
1.15997
  0
LINE
  8
0
 10
0.683914
 20
1.15997
 11
0.686386
 21
1.15765
  0
LINE
  8
0
 10
0.686386
 20
1.15765
 11
0.688751
 21
1.15524
  0
LINE
  8
0
 10
0.688751
 20
1.15524
 11
0.69101
 21
1.15273
  0
LINE
  8
0
 10
0.69101
 20
1.15273
 11
0.693161
 21
1.15013
  0
LINE
  8
0
 10
0.693161
 20
1.15013
 11
0.695206
 21
1.14743
  0
LINE
  8
0
 10
0.695206
 20
1.14743
 11
0.697144
 21
1.14465
  0
LINE
  8
0
 10
0.697144
 20
1.14465
 11
0.698944
 21
1.1418
  0
LINE
  8
0
 10
0.698944
 20
1.1418
 11
0.700638
 21
1.13887
  0
LINE
  8
0
 10
0.700638
 20
1.13887
 11
0.702209
 21
1.13588
  0
LINE
  8
0
 10
0.702209
 20
1.13588
 11
0.703644
 21
1.13281
  0
LINE
  8
0
 10
0.703644
 20
1.13281
 11
0.704956
 21
1.1297
  0
LINE
  8
0
 10
0.704956
 20
1.1297
 11
0.706131
 21
1.12654
  0
LINE
  8
0
 10
0.706131
 20
1.12654
 11
0.707184
 21
1.12332
  0
LINE
  8
0
 10
0.707184
 20
1.12332
 11
0.708084
 21
1.12006
  0
LINE
  8
0
 10
0.708084
 20
1.12006
 11
0.708862
 21
1.11678
  0
LINE
  8
0
 10
0.708862
 20
1.11678
 11
0.709488
 21
1.11345
  0
LINE
  8
0
 10
0.709488
 20
1.11345
 11
0.709991
 21
1.11011
  0
LINE
  8
0
 10
0.709991
 20
1.11011
 11
0.710342
 21
1.10675
  0
LINE
  8
0
 10
0.710342
 20
1.10675
 11
0.710556
 21
1.10338
  0
LINE
  8
0
 10
0.710556
 20
1.10338
 11
0.710617
 21
1.09999
  0
LINE
  8
0
 10
0.710617
 20
1.09999
 11
0.710556
 21
1.09662
  0
LINE
  8
0
 10
0.710556
 20
1.09662
 11
0.710342
 21
1.09325
  0
LINE
  8
0
 10
0.710342
 20
1.09325
 11
0.709991
 21
1.08987
  0
LINE
  8
0
 10
0.709991
 20
1.08987
 11
0.709488
 21
1.08653
  0
LINE
  8
0
 10
0.709488
 20
1.08653
 11
0.708862
 21
1.08321
  0
LINE
  8
0
 10
0.708862
 20
1.08321
 11
0.708084
 21
1.07993
  0
LINE
  8
0
 10
0.708084
 20
1.07993
 11
0.707184
 21
1.07666
  0
LINE
  8
0
 10
0.707184
 20
1.07666
 11
0.706131
 21
1.07346
  0
LINE
  8
0
 10
0.706131
 20
1.07346
 11
0.704956
 21
1.07028
  0
LINE
  8
0
 10
0.704956
 20
1.07028
 11
0.703644
 21
1.06717
  0
LINE
  8
0
 10
0.703644
 20
1.06717
 11
0.702209
 21
1.0641
  0
LINE
  8
0
 10
0.702209
 20
1.0641
 11
0.700638
 21
1.06111
  0
LINE
  8
0
 10
0.700638
 20
1.06111
 11
0.698944
 21
1.05818
  0
LINE
  8
0
 10
0.698944
 20
1.05818
 11
0.697144
 21
1.05533
  0
LINE
  8
0
 10
0.697144
 20
1.05533
 11
0.695206
 21
1.05255
  0
LINE
  8
0
 10
0.695206
 20
1.05255
 11
0.693161
 21
1.04987
  0
LINE
  8
0
 10
0.693161
 20
1.04987
 11
0.69101
 21
1.04726
  0
LINE
  8
0
 10
0.69101
 20
1.04726
 11
0.688751
 21
1.04474
  0
LINE
  8
0
 10
0.688751
 20
1.04474
 11
0.686386
 21
1.04233
  0
LINE
  8
0
 10
0.686386
 20
1.04233
 11
0.683914
 21
1.04001
  0
LINE
  8
0
 10
0.683914
 20
1.04001
 11
0.681366
 21
1.03781
  0
LINE
  8
0
 10
0.681366
 20
1.03781
 11
0.678711
 21
1.03571
  0
LINE
  8
0
 10
0.678711
 20
1.03571
 11
0.67598
 21
1.03372
  0
LINE
  8
0
 10
0.67598
 20
1.03372
 11
0.673157
 21
1.03185
  0
LINE
  8
0
 10
0.673157
 20
1.03185
 11
0.670273
 21
1.03009
  0
LINE
  8
0
 10
0.670273
 20
1.03009
 11
0.667313
 21
1.02847
  0
LINE
  8
0
 10
0.667313
 20
1.02847
 11
0.664276
 21
1.02696
  0
LINE
  8
0
 10
0.664276
 20
1.02696
 11
0.661194
 21
1.02559
  0
LINE
  8
0
 10
0.661194
 20
1.02559
 11
0.658051
 21
1.02435
  0
LINE
  8
0
 10
0.658051
 20
1.02435
 11
0.654861
 21
1.02324
  0
LINE
  8
0
 10
0.654861
 20
1.02324
 11
0.651611
 21
1.02226
  0
LINE
  8
0
 10
0.651611
 20
1.02226
 11
0.648346
 21
1.02142
  0
LINE
  8
0
 10
0.648346
 20
1.02142
 11
0.645035
 21
1.02071
  0
LINE
  8
0
 10
0.645035
 20
1.02071
 11
0.641708
 21
1.02016
  0
LINE
  8
0
 10
0.641708
 20
1.02016
 11
0.638351
 21
1.01973
  0
LINE
  8
0
 10
0.638351
 20
1.01973
 11
0.634979
 21
1.01944
  0
LINE
  8
0
 10
0.634979
 20
1.01944
 11
0.631607
 21
1.0193
  0
LINE
  8
0
 10
0.631607
 20
1.0193
 11
0.62822
 21
1.0193
  0
LINE
  8
0
 10
-0.631607
 20
1.0193
 11
-0.634979
 21
1.01944
  0
LINE
  8
0
 10
-0.634979
 20
1.01944
 11
-0.638351
 21
1.01973
  0
LINE
  8
0
 10
-0.638351
 20
1.01973
 11
-0.641708
 21
1.02016
  0
LINE
  8
0
 10
-0.641708
 20
1.02016
 11
-0.645035
 21
1.02071
  0
LINE
  8
0
 10
-0.645035
 20
1.02071
 11
-0.648346
 21
1.02142
  0
LINE
  8
0
 10
-0.648346
 20
1.02142
 11
-0.651611
 21
1.02226
  0
LINE
  8
0
 10
-0.651611
 20
1.02226
 11
-0.654861
 21
1.02324
  0
LINE
  8
0
 10
-0.654861
 20
1.02324
 11
-0.658051
 21
1.02435
  0
LINE
  8
0
 10
-0.658051
 20
1.02435
 11
-0.661194
 21
1.02559
  0
LINE
  8
0
 10
-0.661194
 20
1.02559
 11
-0.664276
 21
1.02696
  0
LINE
  8
0
 10
-0.664276
 20
1.02696
 11
-0.667313
 21
1.02847
  0
LINE
  8
0
 10
-0.667313
 20
1.02847
 11
-0.670273
 21
1.03009
  0
LINE
  8
0
 10
-0.670273
 20
1.03009
 11
-0.673157
 21
1.03185
  0
LINE
  8
0
 10
-0.673157
 20
1.03185
 11
-0.67598
 21
1.03372
  0
LINE
  8
0
 10
-0.67598
 20
1.03372
 11
-0.678711
 21
1.03571
  0
LINE
  8
0
 10
-0.678711
 20
1.03571
 11
-0.681366
 21
1.03781
  0
LINE
  8
0
 10
-0.681366
 20
1.03781
 11
-0.683914
 21
1.04001
  0
LINE
  8
0
 10
-0.683914
 20
1.04001
 11
-0.686386
 21
1.04233
  0
LINE
  8
0
 10
-0.686386
 20
1.04233
 11
-0.688751
 21
1.04474
  0
LINE
  8
0
 10
-0.688751
 20
1.04474
 11
-0.69101
 21
1.04726
  0
LINE
  8
0
 10
-0.69101
 20
1.04726
 11
-0.693161
 21
1.04987
  0
LINE
  8
0
 10
-0.693161
 20
1.04987
 11
-0.695206
 21
1.05255
  0
LINE
  8
0
 10
-0.695206
 20
1.05255
 11
-0.697144
 21
1.05533
  0
LINE
  8
0
 10
-0.697144
 20
1.05533
 11
-0.698944
 21
1.05818
  0
LINE
  8
0
 10
-0.698944
 20
1.05818
 11
-0.700638
 21
1.06111
  0
LINE
  8
0
 10
-0.700638
 20
1.06111
 11
-0.702209
 21
1.0641
  0
LINE
  8
0
 10
-0.702209
 20
1.0641
 11
-0.703644
 21
1.06717
  0
LINE
  8
0
 10
-0.703644
 20
1.06717
 11
-0.704956
 21
1.07028
  0
LINE
  8
0
 10
-0.704956
 20
1.07028
 11
-0.706131
 21
1.07346
  0
LINE
  8
0
 10
-0.706131
 20
1.07346
 11
-0.707184
 21
1.07666
  0
LINE
  8
0
 10
-0.707184
 20
1.07666
 11
-0.708084
 21
1.07993
  0
LINE
  8
0
 10
-0.708084
 20
1.07993
 11
-0.708862
 21
1.08321
  0
LINE
  8
0
 10
-0.708862
 20
1.08321
 11
-0.709488
 21
1.08653
  0
LINE
  8
0
 10
-0.709488
 20
1.08653
 11
-0.709991
 21
1.08987
  0
LINE
  8
0
 10
-0.709991
 20
1.08987
 11
-0.710342
 21
1.09325
  0
LINE
  8
0
 10
-0.710342
 20
1.09325
 11
-0.710556
 21
1.09662
  0
LINE
  8
0
 10
-0.710556
 20
1.09662
 11
-0.710617
 21
1.09999
  0
LINE
  8
0
 10
-0.710617
 20
1.09999
 11
-0.710556
 21
1.10338
  0
LINE
  8
0
 10
-0.710556
 20
1.10338
 11
-0.710342
 21
1.10675
  0
LINE
  8
0
 10
-0.710342
 20
1.10675
 11
-0.709991
 21
1.11011
  0
LINE
  8
0
 10
-0.709991
 20
1.11011
 11
-0.709488
 21
1.11345
  0
LINE
  8
0
 10
-0.709488
 20
1.11345
 11
-0.708862
 21
1.11678
  0
LINE
  8
0
 10
-0.708862
 20
1.11678
 11
-0.708084
 21
1.12006
  0
LINE
  8
0
 10
-0.708084
 20
1.12006
 11
-0.707184
 21
1.12332
  0
LINE
  8
0
 10
-0.707184
 20
1.12332
 11
-0.706131
 21
1.12654
  0
LINE
  8
0
 10
-0.706131
 20
1.12654
 11
-0.704956
 21
1.1297
  0
LINE
  8
0
 10
-0.704956
 20
1.1297
 11
-0.703644
 21
1.13281
  0
LINE
  8
0
 10
-0.703644
 20
1.13281
 11
-0.702209
 21
1.13588
  0
LINE
  8
0
 10
-0.702209
 20
1.13588
 11
-0.700638
 21
1.13887
  0
LINE
  8
0
 10
-0.700638
 20
1.13887
 11
-0.698944
 21
1.1418
  0
LINE
  8
0
 10
-0.698944
 20
1.1418
 11
-0.697144
 21
1.14465
  0
LINE
  8
0
 10
-0.697144
 20
1.14465
 11
-0.695206
 21
1.14743
  0
LINE
  8
0
 10
-0.695206
 20
1.14743
 11
-0.693161
 21
1.15013
  0
LINE
  8
0
 10
-0.693161
 20
1.15013
 11
-0.69101
 21
1.15273
  0
LINE
  8
0
 10
-0.69101
 20
1.15273
 11
-0.688751
 21
1.15524
  0
LINE
  8
0
 10
-0.688751
 20
1.15524
 11
-0.686386
 21
1.15765
  0
LINE
  8
0
 10
-0.686386
 20
1.15765
 11
-0.683914
 21
1.15997
  0
LINE
  8
0
 10
-0.683914
 20
1.15997
 11
-0.681366
 21
1.16219
  0
LINE
  8
0
 10
-0.681366
 20
1.16219
 11
-0.678711
 21
1.16428
  0
LINE
  8
0
 10
-0.678711
 20
1.16428
 11
-0.67598
 21
1.16626
  0
LINE
  8
0
 10
-0.67598
 20
1.16626
 11
-0.673157
 21
1.16814
  0
LINE
  8
0
 10
-0.673157
 20
1.16814
 11
-0.670273
 21
1.16989
  0
LINE
  8
0
 10
-0.670273
 20
1.16989
 11
-0.667313
 21
1.17151
  0
LINE
  8
0
 10
-0.667313
 20
1.17151
 11
-0.664276
 21
1.17302
  0
LINE
  8
0
 10
-0.664276
 20
1.17302
 11
-0.661194
 21
1.17439
  0
LINE
  8
0
 10
-0.661194
 20
1.17439
 11
-0.658051
 21
1.17564
  0
LINE
  8
0
 10
-0.658051
 20
1.17564
 11
-0.654861
 21
1.17676
  0
LINE
  8
0
 10
-0.654861
 20
1.17676
 11
-0.651611
 21
1.17773
  0
LINE
  8
0
 10
-0.651611
 20
1.17773
 11
-0.648346
 21
1.17857
  0
LINE
  8
0
 10
-0.648346
 20
1.17857
 11
-0.645035
 21
1.17928
  0
LINE
  8
0
 10
-0.645035
 20
1.17928
 11
-0.641708
 21
1.17984
  0
LINE
  8
0
 10
-0.641708
 20
1.17984
 11
-0.638351
 21
1.18025
  0
LINE
  8
0
 10
-0.638351
 20
1.18025
 11
-0.634979
 21
1.18054
  0
LINE
  8
0
 10
-0.634979
 20
1.18054
 11
-0.631607
 21
1.18068
  0
LINE
  8
0
 10
-0.631607
 20
1.18068
 11
-0.62822
 21
1.18068
  0
LINE
  8
0
 10
-0.62822
 20
1.18068
 11
-0.624847
 21
1.18054
  0
LINE
  8
0
 10
-0.624847
 20
1.18054
 11
-0.621475
 21
1.18025
  0
LINE
  8
0
 10
-0.621475
 20
1.18025
 11
-0.618118
 21
1.17984
  0
LINE
  8
0
 10
-0.618118
 20
1.17984
 11
-0.614792
 21
1.17928
  0
LINE
  8
0
 10
-0.614792
 20
1.17928
 11
-0.611481
 21
1.17857
  0
LINE
  8
0
 10
-0.611481
 20
1.17857
 11
-0.608215
 21
1.17773
  0
LINE
  8
0
 10
-0.608215
 20
1.17773
 11
-0.60498
 21
1.17676
  0
LINE
  8
0
 10
-0.60498
 20
1.17676
 11
-0.601776
 21
1.17564
  0
LINE
  8
0
 10
-0.601776
 20
1.17564
 11
-0.598633
 21
1.17439
  0
LINE
  8
0
 10
-0.598633
 20
1.17439
 11
-0.595551
 21
1.17302
  0
LINE
  8
0
 10
-0.595551
 20
1.17302
 11
-0.592514
 21
1.17151
  0
LINE
  8
0
 10
-0.592514
 20
1.17151
 11
-0.589554
 21
1.16989
  0
LINE
  8
0
 10
-0.589554
 20
1.16989
 11
-0.58667
 21
1.16814
  0
LINE
  8
0
 10
-0.58667
 20
1.16814
 11
-0.583847
 21
1.16626
  0
LINE
  8
0
 10
-0.583847
 20
1.16626
 11
-0.581116
 21
1.16428
  0
LINE
  8
0
 10
-0.581116
 20
1.16428
 11
-0.578461
 21
1.16219
  0
LINE
  8
0
 10
-0.578461
 20
1.16219
 11
-0.575912
 21
1.15997
  0
LINE
  8
0
 10
-0.575912
 20
1.15997
 11
-0.573441
 21
1.15765
  0
LINE
  8
0
 10
-0.573441
 20
1.15765
 11
-0.571075
 21
1.15524
  0
LINE
  8
0
 10
-0.571075
 20
1.15524
 11
-0.568817
 21
1.15273
  0
LINE
  8
0
 10
-0.568817
 20
1.15273
 11
-0.566666
 21
1.15013
  0
LINE
  8
0
 10
-0.566666
 20
1.15013
 11
-0.564621
 21
1.14743
  0
LINE
  8
0
 10
-0.564621
 20
1.14743
 11
-0.562683
 21
1.14465
  0
LINE
  8
0
 10
-0.562683
 20
1.14465
 11
-0.560883
 21
1.1418
  0
LINE
  8
0
 10
-0.560883
 20
1.1418
 11
-0.559189
 21
1.13887
  0
LINE
  8
0
 10
-0.559189
 20
1.13887
 11
-0.557617
 21
1.13588
  0
LINE
  8
0
 10
-0.557617
 20
1.13588
 11
-0.556183
 21
1.13281
  0
LINE
  8
0
 10
-0.556183
 20
1.13281
 11
-0.554871
 21
1.1297
  0
LINE
  8
0
 10
-0.554871
 20
1.1297
 11
-0.553696
 21
1.12654
  0
LINE
  8
0
 10
-0.553696
 20
1.12654
 11
-0.552643
 21
1.12332
  0
LINE
  8
0
 10
-0.552643
 20
1.12332
 11
-0.551743
 21
1.12006
  0
LINE
  8
0
 10
-0.551743
 20
1.12006
 11
-0.550964
 21
1.11678
  0
LINE
  8
0
 10
-0.550964
 20
1.11678
 11
-0.550339
 21
1.11345
  0
LINE
  8
0
 10
-0.550339
 20
1.11345
 11
-0.549835
 21
1.11011
  0
LINE
  8
0
 10
-0.549835
 20
1.11011
 11
-0.549484
 21
1.10675
  0
LINE
  8
0
 10
-0.549484
 20
1.10675
 11
-0.549271
 21
1.10338
  0
LINE
  8
0
 10
-0.549271
 20
1.10338
 11
-0.54921
 21
1.09999
  0
LINE
  8
0
 10
-0.54921
 20
1.09999
 11
-0.549271
 21
1.09662
  0
LINE
  8
0
 10
-0.549271
 20
1.09662
 11
-0.549484
 21
1.09325
  0
LINE
  8
0
 10
-0.549484
 20
1.09325
 11
-0.549835
 21
1.08987
  0
LINE
  8
0
 10
-0.549835
 20
1.08987
 11
-0.550339
 21
1.08653
  0
LINE
  8
0
 10
-0.550339
 20
1.08653
 11
-0.550964
 21
1.08321
  0
LINE
  8
0
 10
-0.550964
 20
1.08321
 11
-0.551743
 21
1.07993
  0
LINE
  8
0
 10
-0.551743
 20
1.07993
 11
-0.552643
 21
1.07666
  0
LINE
  8
0
 10
-0.552643
 20
1.07666
 11
-0.553696
 21
1.07346
  0
LINE
  8
0
 10
-0.553696
 20
1.07346
 11
-0.554871
 21
1.07028
  0
LINE
  8
0
 10
-0.554871
 20
1.07028
 11
-0.556183
 21
1.06717
  0
LINE
  8
0
 10
-0.556183
 20
1.06717
 11
-0.557617
 21
1.0641
  0
LINE
  8
0
 10
-0.557617
 20
1.0641
 11
-0.559189
 21
1.06111
  0
LINE
  8
0
 10
-0.559189
 20
1.06111
 11
-0.560883
 21
1.05818
  0
LINE
  8
0
 10
-0.560883
 20
1.05818
 11
-0.562683
 21
1.05533
  0
LINE
  8
0
 10
-0.562683
 20
1.05533
 11
-0.564621
 21
1.05255
  0
LINE
  8
0
 10
-0.564621
 20
1.05255
 11
-0.566666
 21
1.04987
  0
LINE
  8
0
 10
-0.566666
 20
1.04987
 11
-0.568817
 21
1.04726
  0
LINE
  8
0
 10
-0.568817
 20
1.04726
 11
-0.571075
 21
1.04474
  0
LINE
  8
0
 10
-0.571075
 20
1.04474
 11
-0.573441
 21
1.04233
  0
LINE
  8
0
 10
-0.573441
 20
1.04233
 11
-0.575912
 21
1.04001
  0
LINE
  8
0
 10
-0.575912
 20
1.04001
 11
-0.578461
 21
1.03781
  0
LINE
  8
0
 10
-0.578461
 20
1.03781
 11
-0.581116
 21
1.03571
  0
LINE
  8
0
 10
-0.581116
 20
1.03571
 11
-0.583847
 21
1.03372
  0
LINE
  8
0
 10
-0.583847
 20
1.03372
 11
-0.58667
 21
1.03185
  0
LINE
  8
0
 10
-0.58667
 20
1.03185
 11
-0.589554
 21
1.03009
  0
LINE
  8
0
 10
-0.589554
 20
1.03009
 11
-0.592514
 21
1.02847
  0
LINE
  8
0
 10
-0.592514
 20
1.02847
 11
-0.595551
 21
1.02696
  0
LINE
  8
0
 10
-0.595551
 20
1.02696
 11
-0.598633
 21
1.02559
  0
LINE
  8
0
 10
-0.598633
 20
1.02559
 11
-0.601776
 21
1.02435
  0
LINE
  8
0
 10
-0.601776
 20
1.02435
 11
-0.60498
 21
1.02324
  0
LINE
  8
0
 10
-0.60498
 20
1.02324
 11
-0.608215
 21
1.02226
  0
LINE
  8
0
 10
-0.608215
 20
1.02226
 11
-0.611481
 21
1.02142
  0
LINE
  8
0
 10
-0.611481
 20
1.02142
 11
-0.614792
 21
1.02071
  0
LINE
  8
0
 10
-0.614792
 20
1.02071
 11
-0.618118
 21
1.02016
  0
LINE
  8
0
 10
-0.618118
 20
1.02016
 11
-0.621475
 21
1.01973
  0
LINE
  8
0
 10
-0.621475
 20
1.01973
 11
-0.624847
 21
1.01944
  0
LINE
  8
0
 10
-0.624847
 20
1.01944
 11
-0.62822
 21
1.0193
  0
LINE
  8
0
 10
-0.62822
 20
1.0193
 11
-0.631607
 21
1.0193
  0
LINE
  8
0
 10
-0.633286
 20
0.549271
 11
-0.636673
 21
0.549484
  0
LINE
  8
0
 10
-0.636673
 20
0.549484
 11
-0.64003
 21
0.549835
  0
LINE
  8
0
 10
-0.64003
 20
0.549835
 11
-0.643372
 21
0.550339
  0
LINE
  8
0
 10
-0.643372
 20
0.550339
 11
-0.646698
 21
0.550964
  0
LINE
  8
0
 10
-0.646698
 20
0.550964
 11
-0.649979
 21
0.551743
  0
LINE
  8
0
 10
-0.649979
 20
0.551743
 11
-0.653244
 21
0.552643
  0
LINE
  8
0
 10
-0.653244
 20
0.552643
 11
-0.656448
 21
0.553696
  0
LINE
  8
0
 10
-0.656448
 20
0.553696
 11
-0.659622
 21
0.554871
  0
LINE
  8
0
 10
-0.659622
 20
0.554871
 11
-0.662735
 21
0.556183
  0
LINE
  8
0
 10
-0.662735
 20
0.556183
 11
-0.665802
 21
0.557617
  0
LINE
  8
0
 10
-0.665802
 20
0.557617
 11
-0.668793
 21
0.559189
  0
LINE
  8
0
 10
-0.668793
 20
0.559189
 11
-0.671722
 21
0.560883
  0
LINE
  8
0
 10
-0.671722
 20
0.560883
 11
-0.674576
 21
0.562683
  0
LINE
  8
0
 10
-0.674576
 20
0.562683
 11
-0.677353
 21
0.564621
  0
LINE
  8
0
 10
-0.677353
 20
0.564621
 11
-0.680038
 21
0.566666
  0
LINE
  8
0
 10
-0.680038
 20
0.566666
 11
-0.682648
 21
0.568817
  0
LINE
  8
0
 10
-0.682648
 20
0.568817
 11
-0.685165
 21
0.571075
  0
LINE
  8
0
 10
-0.685165
 20
0.571075
 11
-0.687576
 21
0.573441
  0
LINE
  8
0
 10
-0.687576
 20
0.573441
 11
-0.689896
 21
0.575912
  0
LINE
  8
0
 10
-0.689896
 20
0.575912
 11
-0.692108
 21
0.578461
  0
LINE
  8
0
 10
-0.692108
 20
0.578461
 11
-0.694199
 21
0.581116
  0
LINE
  8
0
 10
-0.694199
 20
0.581116
 11
-0.696182
 21
0.583847
  0
LINE
  8
0
 10
-0.696182
 20
0.583847
 11
-0.698059
 21
0.58667
  0
LINE
  8
0
 10
-0.698059
 20
0.58667
 11
-0.699814
 21
0.589554
  0
LINE
  8
0
 10
-0.699814
 20
0.589554
 11
-0.701431
 21
0.592514
  0
LINE
  8
0
 10
-0.701431
 20
0.592514
 11
-0.702942
 21
0.595551
  0
LINE
  8
0
 10
-0.702942
 20
0.595551
 11
-0.704315
 21
0.598633
  0
LINE
  8
0
 10
-0.704315
 20
0.598633
 11
-0.705566
 21
0.601776
  0
LINE
  8
0
 10
-0.705566
 20
0.601776
 11
-0.706665
 21
0.60498
  0
LINE
  8
0
 10
-0.706665
 20
0.60498
 11
-0.707642
 21
0.608215
  0
LINE
  8
0
 10
-0.707642
 20
0.608215
 11
-0.708496
 21
0.611481
  0
LINE
  8
0
 10
-0.708496
 20
0.611481
 11
-0.709198
 21
0.614792
  0
LINE
  8
0
 10
-0.709198
 20
0.614792
 11
-0.709763
 21
0.618118
  0
LINE
  8
0
 10
-0.709763
 20
0.618118
 11
-0.710175
 21
0.621475
  0
LINE
  8
0
 10
-0.710175
 20
0.621475
 11
-0.710464
 21
0.624847
  0
LINE
  8
0
 10
-0.710464
 20
0.624847
 11
-0.710602
 21
0.62822
  0
LINE
  8
0
 10
-0.710602
 20
0.62822
 11
-0.710602
 21
0.631607
  0
LINE
  8
0
 10
-0.710602
 20
0.631607
 11
-0.710464
 21
0.634979
  0
LINE
  8
0
 10
-0.710464
 20
0.634979
 11
-0.710175
 21
0.638351
  0
LINE
  8
0
 10
-0.710175
 20
0.638351
 11
-0.709763
 21
0.641708
  0
LINE
  8
0
 10
-0.709763
 20
0.641708
 11
-0.709198
 21
0.645035
  0
LINE
  8
0
 10
-0.709198
 20
0.645035
 11
-0.708496
 21
0.648346
  0
LINE
  8
0
 10
-0.708496
 20
0.648346
 11
-0.707642
 21
0.651611
  0
LINE
  8
0
 10
-0.707642
 20
0.651611
 11
-0.706665
 21
0.654861
  0
LINE
  8
0
 10
-0.706665
 20
0.654861
 11
-0.705566
 21
0.658051
  0
LINE
  8
0
 10
-0.705566
 20
0.658051
 11
-0.704315
 21
0.661194
  0
LINE
  8
0
 10
-0.704315
 20
0.661194
 11
-0.702942
 21
0.664276
  0
LINE
  8
0
 10
-0.702942
 20
0.664276
 11
-0.701431
 21
0.667313
  0
LINE
  8
0
 10
-0.701431
 20
0.667313
 11
-0.699814
 21
0.670273
  0
LINE
  8
0
 10
-0.699814
 20
0.670273
 11
-0.698059
 21
0.673157
  0
LINE
  8
0
 10
-0.698059
 20
0.673157
 11
-0.696182
 21
0.67598
  0
LINE
  8
0
 10
-0.696182
 20
0.67598
 11
-0.694199
 21
0.678711
  0
LINE
  8
0
 10
-0.694199
 20
0.678711
 11
-0.692108
 21
0.681366
  0
LINE
  8
0
 10
-0.692108
 20
0.681366
 11
-0.689896
 21
0.683914
  0
LINE
  8
0
 10
-0.689896
 20
0.683914
 11
-0.687576
 21
0.686386
  0
LINE
  8
0
 10
-0.687576
 20
0.686386
 11
-0.685165
 21
0.688751
  0
LINE
  8
0
 10
-0.685165
 20
0.688751
 11
-0.682648
 21
0.69101
  0
LINE
  8
0
 10
-0.682648
 20
0.69101
 11
-0.680038
 21
0.693161
  0
LINE
  8
0
 10
-0.680038
 20
0.693161
 11
-0.677353
 21
0.695206
  0
LINE
  8
0
 10
-0.677353
 20
0.695206
 11
-0.674576
 21
0.697144
  0
LINE
  8
0
 10
-0.674576
 20
0.697144
 11
-0.671722
 21
0.698944
  0
LINE
  8
0
 10
-0.671722
 20
0.698944
 11
-0.668793
 21
0.700638
  0
LINE
  8
0
 10
-0.668793
 20
0.700638
 11
-0.665802
 21
0.702209
  0
LINE
  8
0
 10
-0.665802
 20
0.702209
 11
-0.662735
 21
0.703644
  0
LINE
  8
0
 10
-0.662735
 20
0.703644
 11
-0.659622
 21
0.704956
  0
LINE
  8
0
 10
-0.659622
 20
0.704956
 11
-0.656448
 21
0.706131
  0
LINE
  8
0
 10
-0.656448
 20
0.706131
 11
-0.653244
 21
0.707184
  0
LINE
  8
0
 10
-0.653244
 20
0.707184
 11
-0.649979
 21
0.708084
  0
LINE
  8
0
 10
-0.649979
 20
0.708084
 11
-0.646698
 21
0.708862
  0
LINE
  8
0
 10
-0.646698
 20
0.708862
 11
-0.643372
 21
0.709488
  0
LINE
  8
0
 10
-0.643372
 20
0.709488
 11
-0.64003
 21
0.709991
  0
LINE
  8
0
 10
-0.64003
 20
0.709991
 11
-0.636673
 21
0.710342
  0
LINE
  8
0
 10
-0.636673
 20
0.710342
 11
-0.633286
 21
0.710556
  0
LINE
  8
0
 10
-0.633286
 20
0.710556
 11
-0.629913
 21
0.710617
  0
LINE
  8
0
 10
-0.629913
 20
0.710617
 11
-0.626541
 21
0.710556
  0
LINE
  8
0
 10
-0.626541
 20
0.710556
 11
-0.623154
 21
0.710342
  0
LINE
  8
0
 10
-0.623154
 20
0.710342
 11
-0.619797
 21
0.709991
  0
LINE
  8
0
 10
-0.619797
 20
0.709991
 11
-0.616455
 21
0.709488
  0
LINE
  8
0
 10
-0.616455
 20
0.709488
 11
-0.613129
 21
0.708862
  0
LINE
  8
0
 10
-0.613129
 20
0.708862
 11
-0.609848
 21
0.708084
  0
LINE
  8
0
 10
-0.609848
 20
0.708084
 11
-0.606583
 21
0.707184
  0
LINE
  8
0
 10
-0.606583
 20
0.707184
 11
-0.603378
 21
0.706131
  0
LINE
  8
0
 10
-0.603378
 20
0.706131
 11
-0.600204
 21
0.704956
  0
LINE
  8
0
 10
-0.600204
 20
0.704956
 11
-0.597092
 21
0.703644
  0
LINE
  8
0
 10
-0.597092
 20
0.703644
 11
-0.594025
 21
0.702209
  0
LINE
  8
0
 10
-0.594025
 20
0.702209
 11
-0.591034
 21
0.700638
  0
LINE
  8
0
 10
-0.591034
 20
0.700638
 11
-0.588104
 21
0.698944
  0
LINE
  8
0
 10
-0.588104
 20
0.698944
 11
-0.585251
 21
0.697144
  0
LINE
  8
0
 10
-0.585251
 20
0.697144
 11
-0.582474
 21
0.695206
  0
LINE
  8
0
 10
-0.582474
 20
0.695206
 11
-0.579788
 21
0.693161
  0
LINE
  8
0
 10
-0.579788
 20
0.693161
 11
-0.577179
 21
0.69101
  0
LINE
  8
0
 10
-0.577179
 20
0.69101
 11
-0.574661
 21
0.688751
  0
LINE
  8
0
 10
-0.574661
 20
0.688751
 11
-0.57225
 21
0.686386
  0
LINE
  8
0
 10
-0.57225
 20
0.686386
 11
-0.569931
 21
0.683914
  0
LINE
  8
0
 10
-0.569931
 20
0.683914
 11
-0.567734
 21
0.681366
  0
LINE
  8
0
 10
-0.567734
 20
0.681366
 11
-0.565628
 21
0.678711
  0
LINE
  8
0
 10
-0.565628
 20
0.678711
 11
-0.563644
 21
0.67598
  0
LINE
  8
0
 10
-0.563644
 20
0.67598
 11
-0.561768
 21
0.673157
  0
LINE
  8
0
 10
-0.561768
 20
0.673157
 11
-0.560013
 21
0.670273
  0
LINE
  8
0
 10
-0.560013
 20
0.670273
 11
-0.558395
 21
0.667313
  0
LINE
  8
0
 10
-0.558395
 20
0.667313
 11
-0.556885
 21
0.664276
  0
LINE
  8
0
 10
-0.556885
 20
0.664276
 11
-0.555511
 21
0.661194
  0
LINE
  8
0
 10
-0.555511
 20
0.661194
 11
-0.55426
 21
0.658051
  0
LINE
  8
0
 10
-0.55426
 20
0.658051
 11
-0.553162
 21
0.654861
  0
LINE
  8
0
 10
-0.553162
 20
0.654861
 11
-0.552185
 21
0.651611
  0
LINE
  8
0
 10
-0.552185
 20
0.651611
 11
-0.551331
 21
0.648346
  0
LINE
  8
0
 10
-0.551331
 20
0.648346
 11
-0.550629
 21
0.645035
  0
LINE
  8
0
 10
-0.550629
 20
0.645035
 11
-0.550064
 21
0.641708
  0
LINE
  8
0
 10
-0.550064
 20
0.641708
 11
-0.549652
 21
0.638351
  0
LINE
  8
0
 10
-0.549652
 20
0.638351
 11
-0.549362
 21
0.634979
  0
LINE
  8
0
 10
-0.549362
 20
0.634979
 11
-0.549225
 21
0.631607
  0
LINE
  8
0
 10
-0.549225
 20
0.631607
 11
-0.549225
 21
0.62822
  0
LINE
  8
0
 10
-0.549225
 20
0.62822
 11
-0.549362
 21
0.624847
  0
LINE
  8
0
 10
-0.549362
 20
0.624847
 11
-0.549652
 21
0.621475
  0
LINE
  8
0
 10
-0.549652
 20
0.621475
 11
-0.550064
 21
0.618118
  0
LINE
  8
0
 10
-0.550064
 20
0.618118
 11
-0.550629
 21
0.614792
  0
LINE
  8
0
 10
-0.550629
 20
0.614792
 11
-0.551331
 21
0.611481
  0
LINE
  8
0
 10
-0.551331
 20
0.611481
 11
-0.552185
 21
0.608215
  0
LINE
  8
0
 10
-0.552185
 20
0.608215
 11
-0.553162
 21
0.60498
  0
LINE
  8
0
 10
-0.553162
 20
0.60498
 11
-0.55426
 21
0.601776
  0
LINE
  8
0
 10
-0.55426
 20
0.601776
 11
-0.555511
 21
0.598633
  0
LINE
  8
0
 10
-0.555511
 20
0.598633
 11
-0.556885
 21
0.595551
  0
LINE
  8
0
 10
-0.556885
 20
0.595551
 11
-0.558395
 21
0.592514
  0
LINE
  8
0
 10
-0.558395
 20
0.592514
 11
-0.560013
 21
0.589554
  0
LINE
  8
0
 10
-0.560013
 20
0.589554
 11
-0.561768
 21
0.58667
  0
LINE
  8
0
 10
-0.561768
 20
0.58667
 11
-0.563644
 21
0.583847
  0
LINE
  8
0
 10
-0.563644
 20
0.583847
 11
-0.565628
 21
0.581116
  0
LINE
  8
0
 10
-0.565628
 20
0.581116
 11
-0.567734
 21
0.578461
  0
LINE
  8
0
 10
-0.567734
 20
0.578461
 11
-0.569931
 21
0.575912
  0
LINE
  8
0
 10
-0.569931
 20
0.575912
 11
-0.57225
 21
0.573441
  0
LINE
  8
0
 10
-0.57225
 20
0.573441
 11
-0.574661
 21
0.571075
  0
LINE
  8
0
 10
-0.574661
 20
0.571075
 11
-0.577179
 21
0.568817
  0
LINE
  8
0
 10
-0.577179
 20
0.568817
 11
-0.579788
 21
0.566666
  0
LINE
  8
0
 10
-0.579788
 20
0.566666
 11
-0.582474
 21
0.564621
  0
LINE
  8
0
 10
-0.582474
 20
0.564621
 11
-0.585251
 21
0.562683
  0
LINE
  8
0
 10
-0.585251
 20
0.562683
 11
-0.588104
 21
0.560883
  0
LINE
  8
0
 10
-0.588104
 20
0.560883
 11
-0.591034
 21
0.559189
  0
LINE
  8
0
 10
-0.591034
 20
0.559189
 11
-0.594025
 21
0.557617
  0
LINE
  8
0
 10
-0.594025
 20
0.557617
 11
-0.597092
 21
0.556183
  0
LINE
  8
0
 10
-0.597092
 20
0.556183
 11
-0.600204
 21
0.554871
  0
LINE
  8
0
 10
-0.600204
 20
0.554871
 11
-0.603378
 21
0.553696
  0
LINE
  8
0
 10
-0.603378
 20
0.553696
 11
-0.606583
 21
0.552643
  0
LINE
  8
0
 10
-0.606583
 20
0.552643
 11
-0.609848
 21
0.551743
  0
LINE
  8
0
 10
-0.609848
 20
0.551743
 11
-0.613129
 21
0.550964
  0
LINE
  8
0
 10
-0.613129
 20
0.550964
 11
-0.616455
 21
0.550339
  0
LINE
  8
0
 10
-0.616455
 20
0.550339
 11
-0.619797
 21
0.549835
  0
LINE
  8
0
 10
-0.619797
 20
0.549835
 11
-0.623154
 21
0.549484
  0
LINE
  8
0
 10
-0.623154
 20
0.549484
 11
-0.626541
 21
0.549271
  0
LINE
  8
0
 10
-0.626541
 20
0.549271
 11
-0.629913
 21
0.54921
  0
LINE
  8
0
 10
-0.629913
 20
0.54921
 11
-0.633286
 21
0.549271
  0
LINE
  8
0
 10
0.626541
 20
0.549271
 11
0.623154
 21
0.549484
  0
LINE
  8
0
 10
0.623154
 20
0.549484
 11
0.619797
 21
0.549835
  0
LINE
  8
0
 10
0.619797
 20
0.549835
 11
0.616455
 21
0.550339
  0
LINE
  8
0
 10
0.616455
 20
0.550339
 11
0.613129
 21
0.550964
  0
LINE
  8
0
 10
0.613129
 20
0.550964
 11
0.609848
 21
0.551743
  0
LINE
  8
0
 10
0.609848
 20
0.551743
 11
0.606583
 21
0.552643
  0
LINE
  8
0
 10
0.606583
 20
0.552643
 11
0.603378
 21
0.553696
  0
LINE
  8
0
 10
0.603378
 20
0.553696
 11
0.600204
 21
0.554871
  0
LINE
  8
0
 10
0.600204
 20
0.554871
 11
0.597092
 21
0.556183
  0
LINE
  8
0
 10
0.597092
 20
0.556183
 11
0.594025
 21
0.557617
  0
LINE
  8
0
 10
0.594025
 20
0.557617
 11
0.591034
 21
0.559189
  0
LINE
  8
0
 10
0.591034
 20
0.559189
 11
0.588104
 21
0.560883
  0
LINE
  8
0
 10
0.588104
 20
0.560883
 11
0.585251
 21
0.562683
  0
LINE
  8
0
 10
0.585251
 20
0.562683
 11
0.582474
 21
0.564621
  0
LINE
  8
0
 10
0.582474
 20
0.564621
 11
0.579788
 21
0.566666
  0
LINE
  8
0
 10
0.579788
 20
0.566666
 11
0.577179
 21
0.568817
  0
LINE
  8
0
 10
0.577179
 20
0.568817
 11
0.574661
 21
0.571075
  0
LINE
  8
0
 10
0.574661
 20
0.571075
 11
0.57225
 21
0.573441
  0
LINE
  8
0
 10
0.57225
 20
0.573441
 11
0.569931
 21
0.575912
  0
LINE
  8
0
 10
0.569931
 20
0.575912
 11
0.567734
 21
0.578461
  0
LINE
  8
0
 10
0.567734
 20
0.578461
 11
0.565628
 21
0.581116
  0
LINE
  8
0
 10
0.565628
 20
0.581116
 11
0.563644
 21
0.583847
  0
LINE
  8
0
 10
0.563644
 20
0.583847
 11
0.561768
 21
0.58667
  0
LINE
  8
0
 10
0.561768
 20
0.58667
 11
0.560013
 21
0.589554
  0
LINE
  8
0
 10
0.560013
 20
0.589554
 11
0.558395
 21
0.592514
  0
LINE
  8
0
 10
0.558395
 20
0.592514
 11
0.556885
 21
0.595551
  0
LINE
  8
0
 10
0.556885
 20
0.595551
 11
0.555511
 21
0.598633
  0
LINE
  8
0
 10
0.555511
 20
0.598633
 11
0.55426
 21
0.601776
  0
LINE
  8
0
 10
0.55426
 20
0.601776
 11
0.553162
 21
0.60498
  0
LINE
  8
0
 10
0.553162
 20
0.60498
 11
0.552185
 21
0.608215
  0
LINE
  8
0
 10
0.552185
 20
0.608215
 11
0.551331
 21
0.611481
  0
LINE
  8
0
 10
0.551331
 20
0.611481
 11
0.550629
 21
0.614792
  0
LINE
  8
0
 10
0.550629
 20
0.614792
 11
0.550064
 21
0.618118
  0
LINE
  8
0
 10
0.550064
 20
0.618118
 11
0.549652
 21
0.621475
  0
LINE
  8
0
 10
0.549652
 20
0.621475
 11
0.549362
 21
0.624847
  0
LINE
  8
0
 10
0.549362
 20
0.624847
 11
0.549225
 21
0.62822
  0
LINE
  8
0
 10
0.549225
 20
0.62822
 11
0.549225
 21
0.631607
  0
LINE
  8
0
 10
0.549225
 20
0.631607
 11
0.549362
 21
0.634979
  0
LINE
  8
0
 10
0.549362
 20
0.634979
 11
0.549652
 21
0.638351
  0
LINE
  8
0
 10
0.549652
 20
0.638351
 11
0.550064
 21
0.641708
  0
LINE
  8
0
 10
0.550064
 20
0.641708
 11
0.550629
 21
0.645035
  0
LINE
  8
0
 10
0.550629
 20
0.645035
 11
0.551331
 21
0.648346
  0
LINE
  8
0
 10
0.551331
 20
0.648346
 11
0.552185
 21
0.651611
  0
LINE
  8
0
 10
0.552185
 20
0.651611
 11
0.553162
 21
0.654861
  0
LINE
  8
0
 10
0.553162
 20
0.654861
 11
0.55426
 21
0.658051
  0
LINE
  8
0
 10
0.55426
 20
0.658051
 11
0.555511
 21
0.661194
  0
LINE
  8
0
 10
0.555511
 20
0.661194
 11
0.556885
 21
0.664276
  0
LINE
  8
0
 10
0.556885
 20
0.664276
 11
0.558395
 21
0.667313
  0
LINE
  8
0
 10
0.558395
 20
0.667313
 11
0.560013
 21
0.670273
  0
LINE
  8
0
 10
0.560013
 20
0.670273
 11
0.561768
 21
0.673157
  0
LINE
  8
0
 10
0.561768
 20
0.673157
 11
0.563644
 21
0.67598
  0
LINE
  8
0
 10
0.563644
 20
0.67598
 11
0.565628
 21
0.678711
  0
LINE
  8
0
 10
0.565628
 20
0.678711
 11
0.567734
 21
0.681366
  0
LINE
  8
0
 10
0.567734
 20
0.681366
 11
0.569931
 21
0.683914
  0
LINE
  8
0
 10
0.569931
 20
0.683914
 11
0.57225
 21
0.686386
  0
LINE
  8
0
 10
0.57225
 20
0.686386
 11
0.574661
 21
0.688751
  0
LINE
  8
0
 10
0.574661
 20
0.688751
 11
0.577179
 21
0.69101
  0
LINE
  8
0
 10
0.577179
 20
0.69101
 11
0.579788
 21
0.693161
  0
LINE
  8
0
 10
0.579788
 20
0.693161
 11
0.582474
 21
0.695206
  0
LINE
  8
0
 10
0.582474
 20
0.695206
 11
0.585251
 21
0.697144
  0
LINE
  8
0
 10
0.585251
 20
0.697144
 11
0.588104
 21
0.698944
  0
LINE
  8
0
 10
0.588104
 20
0.698944
 11
0.591034
 21
0.700638
  0
LINE
  8
0
 10
0.591034
 20
0.700638
 11
0.594025
 21
0.702209
  0
LINE
  8
0
 10
0.594025
 20
0.702209
 11
0.597092
 21
0.703644
  0
LINE
  8
0
 10
0.597092
 20
0.703644
 11
0.600204
 21
0.704956
  0
LINE
  8
0
 10
0.600204
 20
0.704956
 11
0.603378
 21
0.706131
  0
LINE
  8
0
 10
0.603378
 20
0.706131
 11
0.606583
 21
0.707184
  0
LINE
  8
0
 10
0.606583
 20
0.707184
 11
0.609848
 21
0.708084
  0
LINE
  8
0
 10
0.609848
 20
0.708084
 11
0.613129
 21
0.708862
  0
LINE
  8
0
 10
0.613129
 20
0.708862
 11
0.616455
 21
0.709488
  0
LINE
  8
0
 10
0.616455
 20
0.709488
 11
0.619797
 21
0.709991
  0
LINE
  8
0
 10
0.619797
 20
0.709991
 11
0.623154
 21
0.710342
  0
LINE
  8
0
 10
0.623154
 20
0.710342
 11
0.626541
 21
0.710556
  0
LINE
  8
0
 10
0.626541
 20
0.710556
 11
0.629913
 21
0.710617
  0
LINE
  8
0
 10
0.629913
 20
0.710617
 11
0.633286
 21
0.710556
  0
LINE
  8
0
 10
0.633286
 20
0.710556
 11
0.636673
 21
0.710342
  0
LINE
  8
0
 10
0.636673
 20
0.710342
 11
0.64003
 21
0.709991
  0
LINE
  8
0
 10
0.64003
 20
0.709991
 11
0.643372
 21
0.709488
  0
LINE
  8
0
 10
0.643372
 20
0.709488
 11
0.646698
 21
0.708862
  0
LINE
  8
0
 10
0.646698
 20
0.708862
 11
0.649979
 21
0.708084
  0
LINE
  8
0
 10
0.649979
 20
0.708084
 11
0.653244
 21
0.707184
  0
LINE
  8
0
 10
0.653244
 20
0.707184
 11
0.656448
 21
0.706131
  0
LINE
  8
0
 10
0.656448
 20
0.706131
 11
0.659622
 21
0.704956
  0
LINE
  8
0
 10
0.659622
 20
0.704956
 11
0.662735
 21
0.703644
  0
LINE
  8
0
 10
0.662735
 20
0.703644
 11
0.665802
 21
0.702209
  0
LINE
  8
0
 10
0.665802
 20
0.702209
 11
0.668793
 21
0.700638
  0
LINE
  8
0
 10
0.668793
 20
0.700638
 11
0.671722
 21
0.698944
  0
LINE
  8
0
 10
0.671722
 20
0.698944
 11
0.674576
 21
0.697144
  0
LINE
  8
0
 10
0.674576
 20
0.697144
 11
0.677353
 21
0.695206
  0
LINE
  8
0
 10
0.677353
 20
0.695206
 11
0.680038
 21
0.693161
  0
LINE
  8
0
 10
0.680038
 20
0.693161
 11
0.682648
 21
0.69101
  0
LINE
  8
0
 10
0.682648
 20
0.69101
 11
0.685165
 21
0.688751
  0
LINE
  8
0
 10
0.685165
 20
0.688751
 11
0.687576
 21
0.686386
  0
LINE
  8
0
 10
0.687576
 20
0.686386
 11
0.689896
 21
0.683914
  0
LINE
  8
0
 10
0.689896
 20
0.683914
 11
0.692108
 21
0.681366
  0
LINE
  8
0
 10
0.692108
 20
0.681366
 11
0.694199
 21
0.678711
  0
LINE
  8
0
 10
0.694199
 20
0.678711
 11
0.696182
 21
0.67598
  0
LINE
  8
0
 10
0.696182
 20
0.67598
 11
0.698059
 21
0.673157
  0
LINE
  8
0
 10
0.698059
 20
0.673157
 11
0.699814
 21
0.670273
  0
LINE
  8
0
 10
0.699814
 20
0.670273
 11
0.701431
 21
0.667313
  0
LINE
  8
0
 10
0.701431
 20
0.667313
 11
0.702942
 21
0.664276
  0
LINE
  8
0
 10
0.702942
 20
0.664276
 11
0.704315
 21
0.661194
  0
LINE
  8
0
 10
0.704315
 20
0.661194
 11
0.705566
 21
0.658051
  0
LINE
  8
0
 10
0.705566
 20
0.658051
 11
0.706665
 21
0.654861
  0
LINE
  8
0
 10
0.706665
 20
0.654861
 11
0.707642
 21
0.651611
  0
LINE
  8
0
 10
0.707642
 20
0.651611
 11
0.708496
 21
0.648346
  0
LINE
  8
0
 10
0.708496
 20
0.648346
 11
0.709198
 21
0.645035
  0
LINE
  8
0
 10
0.709198
 20
0.645035
 11
0.709763
 21
0.641708
  0
LINE
  8
0
 10
0.709763
 20
0.641708
 11
0.710175
 21
0.638351
  0
LINE
  8
0
 10
0.710175
 20
0.638351
 11
0.710464
 21
0.634979
  0
LINE
  8
0
 10
0.710464
 20
0.634979
 11
0.710602
 21
0.631607
  0
LINE
  8
0
 10
0.710602
 20
0.631607
 11
0.710602
 21
0.62822
  0
LINE
  8
0
 10
0.710602
 20
0.62822
 11
0.710464
 21
0.624847
  0
LINE
  8
0
 10
0.710464
 20
0.624847
 11
0.710175
 21
0.621475
  0
LINE
  8
0
 10
0.710175
 20
0.621475
 11
0.709763
 21
0.618118
  0
LINE
  8
0
 10
0.709763
 20
0.618118
 11
0.709198
 21
0.614792
  0
LINE
  8
0
 10
0.709198
 20
0.614792
 11
0.708496
 21
0.611481
  0
LINE
  8
0
 10
0.708496
 20
0.611481
 11
0.707642
 21
0.608215
  0
LINE
  8
0
 10
0.707642
 20
0.608215
 11
0.706665
 21
0.60498
  0
LINE
  8
0
 10
0.706665
 20
0.60498
 11
0.705566
 21
0.601776
  0
LINE
  8
0
 10
0.705566
 20
0.601776
 11
0.704315
 21
0.598633
  0
LINE
  8
0
 10
0.704315
 20
0.598633
 11
0.702942
 21
0.595551
  0
LINE
  8
0
 10
0.702942
 20
0.595551
 11
0.701431
 21
0.592514
  0
LINE
  8
0
 10
0.701431
 20
0.592514
 11
0.699814
 21
0.589554
  0
LINE
  8
0
 10
0.699814
 20
0.589554
 11
0.698059
 21
0.58667
  0
LINE
  8
0
 10
0.698059
 20
0.58667
 11
0.696182
 21
0.583847
  0
LINE
  8
0
 10
0.696182
 20
0.583847
 11
0.694199
 21
0.581116
  0
LINE
  8
0
 10
0.694199
 20
0.581116
 11
0.692108
 21
0.578461
  0
LINE
  8
0
 10
0.692108
 20
0.578461
 11
0.689896
 21
0.575912
  0
LINE
  8
0
 10
0.689896
 20
0.575912
 11
0.687576
 21
0.573441
  0
LINE
  8
0
 10
0.687576
 20
0.573441
 11
0.685165
 21
0.571075
  0
LINE
  8
0
 10
0.685165
 20
0.571075
 11
0.682648
 21
0.568817
  0
LINE
  8
0
 10
0.682648
 20
0.568817
 11
0.680038
 21
0.566666
  0
LINE
  8
0
 10
0.680038
 20
0.566666
 11
0.677353
 21
0.564621
  0
LINE
  8
0
 10
0.677353
 20
0.564621
 11
0.674576
 21
0.562683
  0
LINE
  8
0
 10
0.674576
 20
0.562683
 11
0.671722
 21
0.560883
  0
LINE
  8
0
 10
0.671722
 20
0.560883
 11
0.668793
 21
0.559189
  0
LINE
  8
0
 10
0.668793
 20
0.559189
 11
0.665802
 21
0.557617
  0
LINE
  8
0
 10
0.665802
 20
0.557617
 11
0.662735
 21
0.556183
  0
LINE
  8
0
 10
0.662735
 20
0.556183
 11
0.659622
 21
0.554871
  0
LINE
  8
0
 10
0.659622
 20
0.554871
 11
0.656448
 21
0.553696
  0
LINE
  8
0
 10
0.656448
 20
0.553696
 11
0.653244
 21
0.552643
  0
LINE
  8
0
 10
0.653244
 20
0.552643
 11
0.649979
 21
0.551743
  0
LINE
  8
0
 10
0.649979
 20
0.551743
 11
0.646698
 21
0.550964
  0
LINE
  8
0
 10
0.646698
 20
0.550964
 11
0.643372
 21
0.550339
  0
LINE
  8
0
 10
0.643372
 20
0.550339
 11
0.64003
 21
0.549835
  0
LINE
  8
0
 10
0.64003
 20
0.549835
 11
0.636673
 21
0.549484
  0
LINE
  8
0
 10
0.636673
 20
0.549484
 11
0.633286
 21
0.549271
  0
LINE
  8
0
 10
0.633286
 20
0.549271
 11
0.629913
 21
0.54921
  0
LINE
  8
0
 10
0.629913
 20
0.54921
 11
0.626541
 21
0.549271
  0
LINE
  8
0
 10
-0.633286
 20
-0.710556
 11
-0.636673
 21
-0.710342
  0
LINE
  8
0
 10
-0.636673
 20
-0.710342
 11
-0.64003
 21
-0.709991
  0
LINE
  8
0
 10
-0.64003
 20
-0.709991
 11
-0.643372
 21
-0.709488
  0
LINE
  8
0
 10
-0.643372
 20
-0.709488
 11
-0.646698
 21
-0.708862
  0
LINE
  8
0
 10
-0.646698
 20
-0.708862
 11
-0.649979
 21
-0.708084
  0
LINE
  8
0
 10
-0.649979
 20
-0.708084
 11
-0.653244
 21
-0.707184
  0
LINE
  8
0
 10
-0.653244
 20
-0.707184
 11
-0.656448
 21
-0.706131
  0
LINE
  8
0
 10
-0.656448
 20
-0.706131
 11
-0.659622
 21
-0.704956
  0
LINE
  8
0
 10
-0.659622
 20
-0.704956
 11
-0.662735
 21
-0.703644
  0
LINE
  8
0
 10
-0.662735
 20
-0.703644
 11
-0.665802
 21
-0.702209
  0
LINE
  8
0
 10
-0.665802
 20
-0.702209
 11
-0.668793
 21
-0.700638
  0
LINE
  8
0
 10
-0.668793
 20
-0.700638
 11
-0.671722
 21
-0.698944
  0
LINE
  8
0
 10
-0.671722
 20
-0.698944
 11
-0.674576
 21
-0.697144
  0
LINE
  8
0
 10
-0.674576
 20
-0.697144
 11
-0.677353
 21
-0.695206
  0
LINE
  8
0
 10
-0.677353
 20
-0.695206
 11
-0.680038
 21
-0.693161
  0
LINE
  8
0
 10
-0.680038
 20
-0.693161
 11
-0.682648
 21
-0.69101
  0
LINE
  8
0
 10
-0.682648
 20
-0.69101
 11
-0.685165
 21
-0.688751
  0
LINE
  8
0
 10
-0.685165
 20
-0.688751
 11
-0.687576
 21
-0.686386
  0
LINE
  8
0
 10
-0.687576
 20
-0.686386
 11
-0.689896
 21
-0.683914
  0
LINE
  8
0
 10
-0.689896
 20
-0.683914
 11
-0.692108
 21
-0.681366
  0
LINE
  8
0
 10
-0.692108
 20
-0.681366
 11
-0.694199
 21
-0.678711
  0
LINE
  8
0
 10
-0.694199
 20
-0.678711
 11
-0.696182
 21
-0.67598
  0
LINE
  8
0
 10
-0.696182
 20
-0.67598
 11
-0.698059
 21
-0.673157
  0
LINE
  8
0
 10
-0.698059
 20
-0.673157
 11
-0.699814
 21
-0.670273
  0
LINE
  8
0
 10
-0.699814
 20
-0.670273
 11
-0.701431
 21
-0.667313
  0
LINE
  8
0
 10
-0.701431
 20
-0.667313
 11
-0.702942
 21
-0.664276
  0
LINE
  8
0
 10
-0.702942
 20
-0.664276
 11
-0.704315
 21
-0.661194
  0
LINE
  8
0
 10
-0.704315
 20
-0.661194
 11
-0.705566
 21
-0.658051
  0
LINE
  8
0
 10
-0.705566
 20
-0.658051
 11
-0.706665
 21
-0.654861
  0
LINE
  8
0
 10
-0.706665
 20
-0.654861
 11
-0.707642
 21
-0.651611
  0
LINE
  8
0
 10
-0.707642
 20
-0.651611
 11
-0.708496
 21
-0.648346
  0
LINE
  8
0
 10
-0.708496
 20
-0.648346
 11
-0.709198
 21
-0.645035
  0
LINE
  8
0
 10
-0.709198
 20
-0.645035
 11
-0.709763
 21
-0.641708
  0
LINE
  8
0
 10
-0.709763
 20
-0.641708
 11
-0.710175
 21
-0.638351
  0
LINE
  8
0
 10
-0.710175
 20
-0.638351
 11
-0.710464
 21
-0.634979
  0
LINE
  8
0
 10
-0.710464
 20
-0.634979
 11
-0.710602
 21
-0.631607
  0
LINE
  8
0
 10
-0.710602
 20
-0.631607
 11
-0.710602
 21
-0.62822
  0
LINE
  8
0
 10
-0.710602
 20
-0.62822
 11
-0.710464
 21
-0.624847
  0
LINE
  8
0
 10
-0.710464
 20
-0.624847
 11
-0.710175
 21
-0.621475
  0
LINE
  8
0
 10
-0.710175
 20
-0.621475
 11
-0.709763
 21
-0.618118
  0
LINE
  8
0
 10
-0.709763
 20
-0.618118
 11
-0.709198
 21
-0.614792
  0
LINE
  8
0
 10
-0.709198
 20
-0.614792
 11
-0.708496
 21
-0.611481
  0
LINE
  8
0
 10
-0.708496
 20
-0.611481
 11
-0.707642
 21
-0.608215
  0
LINE
  8
0
 10
-0.707642
 20
-0.608215
 11
-0.706665
 21
-0.60498
  0
LINE
  8
0
 10
-0.706665
 20
-0.60498
 11
-0.705566
 21
-0.601776
  0
LINE
  8
0
 10
-0.705566
 20
-0.601776
 11
-0.704315
 21
-0.598633
  0
LINE
  8
0
 10
-0.704315
 20
-0.598633
 11
-0.702942
 21
-0.595551
  0
LINE
  8
0
 10
-0.702942
 20
-0.595551
 11
-0.701431
 21
-0.592514
  0
LINE
  8
0
 10
-0.701431
 20
-0.592514
 11
-0.699814
 21
-0.589554
  0
LINE
  8
0
 10
-0.699814
 20
-0.589554
 11
-0.698059
 21
-0.58667
  0
LINE
  8
0
 10
-0.698059
 20
-0.58667
 11
-0.696182
 21
-0.583847
  0
LINE
  8
0
 10
-0.696182
 20
-0.583847
 11
-0.694199
 21
-0.581116
  0
LINE
  8
0
 10
-0.694199
 20
-0.581116
 11
-0.692108
 21
-0.578461
  0
LINE
  8
0
 10
-0.692108
 20
-0.578461
 11
-0.689896
 21
-0.575912
  0
LINE
  8
0
 10
-0.689896
 20
-0.575912
 11
-0.687576
 21
-0.573441
  0
LINE
  8
0
 10
-0.687576
 20
-0.573441
 11
-0.685165
 21
-0.571075
  0
LINE
  8
0
 10
-0.685165
 20
-0.571075
 11
-0.682648
 21
-0.568817
  0
LINE
  8
0
 10
-0.682648
 20
-0.568817
 11
-0.680038
 21
-0.566666
  0
LINE
  8
0
 10
-0.680038
 20
-0.566666
 11
-0.677353
 21
-0.564621
  0
LINE
  8
0
 10
-0.677353
 20
-0.564621
 11
-0.674576
 21
-0.562683
  0
LINE
  8
0
 10
-0.674576
 20
-0.562683
 11
-0.671722
 21
-0.560883
  0
LINE
  8
0
 10
-0.671722
 20
-0.560883
 11
-0.668793
 21
-0.559189
  0
LINE
  8
0
 10
-0.668793
 20
-0.559189
 11
-0.665802
 21
-0.557617
  0
LINE
  8
0
 10
-0.665802
 20
-0.557617
 11
-0.662735
 21
-0.556183
  0
LINE
  8
0
 10
-0.662735
 20
-0.556183
 11
-0.659622
 21
-0.554871
  0
LINE
  8
0
 10
-0.659622
 20
-0.554871
 11
-0.656448
 21
-0.553696
  0
LINE
  8
0
 10
-0.656448
 20
-0.553696
 11
-0.653244
 21
-0.552643
  0
LINE
  8
0
 10
-0.653244
 20
-0.552643
 11
-0.649979
 21
-0.551743
  0
LINE
  8
0
 10
-0.649979
 20
-0.551743
 11
-0.646698
 21
-0.550964
  0
LINE
  8
0
 10
-0.646698
 20
-0.550964
 11
-0.643372
 21
-0.550339
  0
LINE
  8
0
 10
-0.643372
 20
-0.550339
 11
-0.64003
 21
-0.549835
  0
LINE
  8
0
 10
-0.64003
 20
-0.549835
 11
-0.636673
 21
-0.549484
  0
LINE
  8
0
 10
-0.636673
 20
-0.549484
 11
-0.633286
 21
-0.549271
  0
LINE
  8
0
 10
-0.633286
 20
-0.549271
 11
-0.629913
 21
-0.54921
  0
LINE
  8
0
 10
-0.629913
 20
-0.54921
 11
-0.626541
 21
-0.549271
  0
LINE
  8
0
 10
-0.626541
 20
-0.549271
 11
-0.623154
 21
-0.549484
  0
LINE
  8
0
 10
-0.623154
 20
-0.549484
 11
-0.619797
 21
-0.549835
  0
LINE
  8
0
 10
-0.619797
 20
-0.549835
 11
-0.616455
 21
-0.550339
  0
LINE
  8
0
 10
-0.616455
 20
-0.550339
 11
-0.613129
 21
-0.550964
  0
LINE
  8
0
 10
-0.613129
 20
-0.550964
 11
-0.609848
 21
-0.551743
  0
LINE
  8
0
 10
-0.609848
 20
-0.551743
 11
-0.606583
 21
-0.552643
  0
LINE
  8
0
 10
-0.606583
 20
-0.552643
 11
-0.603378
 21
-0.553696
  0
LINE
  8
0
 10
-0.603378
 20
-0.553696
 11
-0.600204
 21
-0.554871
  0
LINE
  8
0
 10
-0.600204
 20
-0.554871
 11
-0.597092
 21
-0.556183
  0
LINE
  8
0
 10
-0.597092
 20
-0.556183
 11
-0.594025
 21
-0.557617
  0
LINE
  8
0
 10
-0.594025
 20
-0.557617
 11
-0.591034
 21
-0.559189
  0
LINE
  8
0
 10
-0.591034
 20
-0.559189
 11
-0.588104
 21
-0.560883
  0
LINE
  8
0
 10
-0.588104
 20
-0.560883
 11
-0.585251
 21
-0.562683
  0
LINE
  8
0
 10
-0.585251
 20
-0.562683
 11
-0.582474
 21
-0.564621
  0
LINE
  8
0
 10
-0.582474
 20
-0.564621
 11
-0.579788
 21
-0.566666
  0
LINE
  8
0
 10
-0.579788
 20
-0.566666
 11
-0.577179
 21
-0.568817
  0
LINE
  8
0
 10
-0.577179
 20
-0.568817
 11
-0.574661
 21
-0.571075
  0
LINE
  8
0
 10
-0.574661
 20
-0.571075
 11
-0.57225
 21
-0.573441
  0
LINE
  8
0
 10
-0.57225
 20
-0.573441
 11
-0.569931
 21
-0.575912
  0
LINE
  8
0
 10
-0.569931
 20
-0.575912
 11
-0.567734
 21
-0.578461
  0
LINE
  8
0
 10
-0.567734
 20
-0.578461
 11
-0.565628
 21
-0.581116
  0
LINE
  8
0
 10
-0.565628
 20
-0.581116
 11
-0.563644
 21
-0.583847
  0
LINE
  8
0
 10
-0.563644
 20
-0.583847
 11
-0.561768
 21
-0.58667
  0
LINE
  8
0
 10
-0.561768
 20
-0.58667
 11
-0.560013
 21
-0.589554
  0
LINE
  8
0
 10
-0.560013
 20
-0.589554
 11
-0.558395
 21
-0.592514
  0
LINE
  8
0
 10
-0.558395
 20
-0.592514
 11
-0.556885
 21
-0.595551
  0
LINE
  8
0
 10
-0.556885
 20
-0.595551
 11
-0.555511
 21
-0.598633
  0
LINE
  8
0
 10
-0.555511
 20
-0.598633
 11
-0.55426
 21
-0.601776
  0
LINE
  8
0
 10
-0.55426
 20
-0.601776
 11
-0.553162
 21
-0.60498
  0
LINE
  8
0
 10
-0.553162
 20
-0.60498
 11
-0.552185
 21
-0.608215
  0
LINE
  8
0
 10
-0.552185
 20
-0.608215
 11
-0.551331
 21
-0.611481
  0
LINE
  8
0
 10
-0.551331
 20
-0.611481
 11
-0.550629
 21
-0.614792
  0
LINE
  8
0
 10
-0.550629
 20
-0.614792
 11
-0.550064
 21
-0.618118
  0
LINE
  8
0
 10
-0.550064
 20
-0.618118
 11
-0.549652
 21
-0.621475
  0
LINE
  8
0
 10
-0.549652
 20
-0.621475
 11
-0.549362
 21
-0.624847
  0
LINE
  8
0
 10
-0.549362
 20
-0.624847
 11
-0.549225
 21
-0.62822
  0
LINE
  8
0
 10
-0.549225
 20
-0.62822
 11
-0.549225
 21
-0.631607
  0
LINE
  8
0
 10
-0.549225
 20
-0.631607
 11
-0.549362
 21
-0.634979
  0
LINE
  8
0
 10
-0.549362
 20
-0.634979
 11
-0.549652
 21
-0.638351
  0
LINE
  8
0
 10
-0.549652
 20
-0.638351
 11
-0.550064
 21
-0.641708
  0
LINE
  8
0
 10
-0.550064
 20
-0.641708
 11
-0.550629
 21
-0.645035
  0
LINE
  8
0
 10
-0.550629
 20
-0.645035
 11
-0.551331
 21
-0.648346
  0
LINE
  8
0
 10
-0.551331
 20
-0.648346
 11
-0.552185
 21
-0.651611
  0
LINE
  8
0
 10
-0.552185
 20
-0.651611
 11
-0.553162
 21
-0.654861
  0
LINE
  8
0
 10
-0.553162
 20
-0.654861
 11
-0.55426
 21
-0.658051
  0
LINE
  8
0
 10
-0.55426
 20
-0.658051
 11
-0.555511
 21
-0.661194
  0
LINE
  8
0
 10
-0.555511
 20
-0.661194
 11
-0.556885
 21
-0.664276
  0
LINE
  8
0
 10
-0.556885
 20
-0.664276
 11
-0.558395
 21
-0.667313
  0
LINE
  8
0
 10
-0.558395
 20
-0.667313
 11
-0.560013
 21
-0.670273
  0
LINE
  8
0
 10
-0.560013
 20
-0.670273
 11
-0.561768
 21
-0.673157
  0
LINE
  8
0
 10
-0.561768
 20
-0.673157
 11
-0.563644
 21
-0.67598
  0
LINE
  8
0
 10
-0.563644
 20
-0.67598
 11
-0.565628
 21
-0.678711
  0
LINE
  8
0
 10
-0.565628
 20
-0.678711
 11
-0.567734
 21
-0.681366
  0
LINE
  8
0
 10
-0.567734
 20
-0.681366
 11
-0.569931
 21
-0.683914
  0
LINE
  8
0
 10
-0.569931
 20
-0.683914
 11
-0.57225
 21
-0.686386
  0
LINE
  8
0
 10
-0.57225
 20
-0.686386
 11
-0.574661
 21
-0.688751
  0
LINE
  8
0
 10
-0.574661
 20
-0.688751
 11
-0.577179
 21
-0.69101
  0
LINE
  8
0
 10
-0.577179
 20
-0.69101
 11
-0.579788
 21
-0.693161
  0
LINE
  8
0
 10
-0.579788
 20
-0.693161
 11
-0.582474
 21
-0.695206
  0
LINE
  8
0
 10
-0.582474
 20
-0.695206
 11
-0.585251
 21
-0.697144
  0
LINE
  8
0
 10
-0.585251
 20
-0.697144
 11
-0.588104
 21
-0.698944
  0
LINE
  8
0
 10
-0.588104
 20
-0.698944
 11
-0.591034
 21
-0.700638
  0
LINE
  8
0
 10
-0.591034
 20
-0.700638
 11
-0.594025
 21
-0.702209
  0
LINE
  8
0
 10
-0.594025
 20
-0.702209
 11
-0.597092
 21
-0.703644
  0
LINE
  8
0
 10
-0.597092
 20
-0.703644
 11
-0.600204
 21
-0.704956
  0
LINE
  8
0
 10
-0.600204
 20
-0.704956
 11
-0.603378
 21
-0.706131
  0
LINE
  8
0
 10
-0.603378
 20
-0.706131
 11
-0.606583
 21
-0.707184
  0
LINE
  8
0
 10
-0.606583
 20
-0.707184
 11
-0.609848
 21
-0.708084
  0
LINE
  8
0
 10
-0.609848
 20
-0.708084
 11
-0.613129
 21
-0.708862
  0
LINE
  8
0
 10
-0.613129
 20
-0.708862
 11
-0.616455
 21
-0.709488
  0
LINE
  8
0
 10
-0.616455
 20
-0.709488
 11
-0.619797
 21
-0.709991
  0
LINE
  8
0
 10
-0.619797
 20
-0.709991
 11
-0.623154
 21
-0.710342
  0
LINE
  8
0
 10
-0.623154
 20
-0.710342
 11
-0.626541
 21
-0.710556
  0
LINE
  8
0
 10
-0.626541
 20
-0.710556
 11
-0.629913
 21
-0.710617
  0
LINE
  8
0
 10
-0.629913
 20
-0.710617
 11
-0.633286
 21
-0.710556
  0
LINE
  8
0
 10
0.626541
 20
-0.710556
 11
0.623154
 21
-0.710342
  0
LINE
  8
0
 10
0.623154
 20
-0.710342
 11
0.619797
 21
-0.709991
  0
LINE
  8
0
 10
0.619797
 20
-0.709991
 11
0.616455
 21
-0.709488
  0
LINE
  8
0
 10
0.616455
 20
-0.709488
 11
0.613129
 21
-0.708862
  0
LINE
  8
0
 10
0.613129
 20
-0.708862
 11
0.609848
 21
-0.708084
  0
LINE
  8
0
 10
0.609848
 20
-0.708084
 11
0.606583
 21
-0.707184
  0
LINE
  8
0
 10
0.606583
 20
-0.707184
 11
0.603378
 21
-0.706131
  0
LINE
  8
0
 10
0.603378
 20
-0.706131
 11
0.600204
 21
-0.704956
  0
LINE
  8
0
 10
0.600204
 20
-0.704956
 11
0.597092
 21
-0.703644
  0
LINE
  8
0
 10
0.597092
 20
-0.703644
 11
0.594025
 21
-0.702209
  0
LINE
  8
0
 10
0.594025
 20
-0.702209
 11
0.591034
 21
-0.700638
  0
LINE
  8
0
 10
0.591034
 20
-0.700638
 11
0.588104
 21
-0.698944
  0
LINE
  8
0
 10
0.588104
 20
-0.698944
 11
0.585251
 21
-0.697144
  0
LINE
  8
0
 10
0.585251
 20
-0.697144
 11
0.582474
 21
-0.695206
  0
LINE
  8
0
 10
0.582474
 20
-0.695206
 11
0.579788
 21
-0.693161
  0
LINE
  8
0
 10
0.579788
 20
-0.693161
 11
0.577179
 21
-0.69101
  0
LINE
  8
0
 10
0.577179
 20
-0.69101
 11
0.574661
 21
-0.688751
  0
LINE
  8
0
 10
0.574661
 20
-0.688751
 11
0.57225
 21
-0.686386
  0
LINE
  8
0
 10
0.57225
 20
-0.686386
 11
0.569931
 21
-0.683914
  0
LINE
  8
0
 10
0.569931
 20
-0.683914
 11
0.567734
 21
-0.681366
  0
LINE
  8
0
 10
0.567734
 20
-0.681366
 11
0.565628
 21
-0.678711
  0
LINE
  8
0
 10
0.565628
 20
-0.678711
 11
0.563644
 21
-0.67598
  0
LINE
  8
0
 10
0.563644
 20
-0.67598
 11
0.561768
 21
-0.673157
  0
LINE
  8
0
 10
0.561768
 20
-0.673157
 11
0.560013
 21
-0.670273
  0
LINE
  8
0
 10
0.560013
 20
-0.670273
 11
0.558395
 21
-0.667313
  0
LINE
  8
0
 10
0.558395
 20
-0.667313
 11
0.556885
 21
-0.664276
  0
LINE
  8
0
 10
0.556885
 20
-0.664276
 11
0.555511
 21
-0.661194
  0
LINE
  8
0
 10
0.555511
 20
-0.661194
 11
0.55426
 21
-0.658051
  0
LINE
  8
0
 10
0.55426
 20
-0.658051
 11
0.553162
 21
-0.654861
  0
LINE
  8
0
 10
0.553162
 20
-0.654861
 11
0.552185
 21
-0.651611
  0
LINE
  8
0
 10
0.552185
 20
-0.651611
 11
0.551331
 21
-0.648346
  0
LINE
  8
0
 10
0.551331
 20
-0.648346
 11
0.550629
 21
-0.645035
  0
LINE
  8
0
 10
0.550629
 20
-0.645035
 11
0.550064
 21
-0.641708
  0
LINE
  8
0
 10
0.550064
 20
-0.641708
 11
0.549652
 21
-0.638351
  0
LINE
  8
0
 10
0.549652
 20
-0.638351
 11
0.549362
 21
-0.634979
  0
LINE
  8
0
 10
0.549362
 20
-0.634979
 11
0.549225
 21
-0.631607
  0
LINE
  8
0
 10
0.549225
 20
-0.631607
 11
0.549225
 21
-0.62822
  0
LINE
  8
0
 10
0.549225
 20
-0.62822
 11
0.549362
 21
-0.624847
  0
LINE
  8
0
 10
0.549362
 20
-0.624847
 11
0.549652
 21
-0.621475
  0
LINE
  8
0
 10
0.549652
 20
-0.621475
 11
0.550064
 21
-0.618118
  0
LINE
  8
0
 10
0.550064
 20
-0.618118
 11
0.550629
 21
-0.614792
  0
LINE
  8
0
 10
0.550629
 20
-0.614792
 11
0.551331
 21
-0.611481
  0
LINE
  8
0
 10
0.551331
 20
-0.611481
 11
0.552185
 21
-0.608215
  0
LINE
  8
0
 10
0.552185
 20
-0.608215
 11
0.553162
 21
-0.60498
  0
LINE
  8
0
 10
0.553162
 20
-0.60498
 11
0.55426
 21
-0.601776
  0
LINE
  8
0
 10
0.55426
 20
-0.601776
 11
0.555511
 21
-0.598633
  0
LINE
  8
0
 10
0.555511
 20
-0.598633
 11
0.556885
 21
-0.595551
  0
LINE
  8
0
 10
0.556885
 20
-0.595551
 11
0.558395
 21
-0.592514
  0
LINE
  8
0
 10
0.558395
 20
-0.592514
 11
0.560013
 21
-0.589554
  0
LINE
  8
0
 10
0.560013
 20
-0.589554
 11
0.561768
 21
-0.58667
  0
LINE
  8
0
 10
0.561768
 20
-0.58667
 11
0.563644
 21
-0.583847
  0
LINE
  8
0
 10
0.563644
 20
-0.583847
 11
0.565628
 21
-0.581116
  0
LINE
  8
0
 10
0.565628
 20
-0.581116
 11
0.567734
 21
-0.578461
  0
LINE
  8
0
 10
0.567734
 20
-0.578461
 11
0.569931
 21
-0.575912
  0
LINE
  8
0
 10
0.569931
 20
-0.575912
 11
0.57225
 21
-0.573441
  0
LINE
  8
0
 10
0.57225
 20
-0.573441
 11
0.574661
 21
-0.571075
  0
LINE
  8
0
 10
0.574661
 20
-0.571075
 11
0.577179
 21
-0.568817
  0
LINE
  8
0
 10
0.577179
 20
-0.568817
 11
0.579788
 21
-0.566666
  0
LINE
  8
0
 10
0.579788
 20
-0.566666
 11
0.582474
 21
-0.564621
  0
LINE
  8
0
 10
0.582474
 20
-0.564621
 11
0.585251
 21
-0.562683
  0
LINE
  8
0
 10
0.585251
 20
-0.562683
 11
0.588104
 21
-0.560883
  0
LINE
  8
0
 10
0.588104
 20
-0.560883
 11
0.591034
 21
-0.559189
  0
LINE
  8
0
 10
0.591034
 20
-0.559189
 11
0.594025
 21
-0.557617
  0
LINE
  8
0
 10
0.594025
 20
-0.557617
 11
0.597092
 21
-0.556183
  0
LINE
  8
0
 10
0.597092
 20
-0.556183
 11
0.600204
 21
-0.554871
  0
LINE
  8
0
 10
0.600204
 20
-0.554871
 11
0.603378
 21
-0.553696
  0
LINE
  8
0
 10
0.603378
 20
-0.553696
 11
0.606583
 21
-0.552643
  0
LINE
  8
0
 10
0.606583
 20
-0.552643
 11
0.609848
 21
-0.551743
  0
LINE
  8
0
 10
0.609848
 20
-0.551743
 11
0.613129
 21
-0.550964
  0
LINE
  8
0
 10
0.613129
 20
-0.550964
 11
0.616455
 21
-0.550339
  0
LINE
  8
0
 10
0.616455
 20
-0.550339
 11
0.619797
 21
-0.549835
  0
LINE
  8
0
 10
0.619797
 20
-0.549835
 11
0.623154
 21
-0.549484
  0
LINE
  8
0
 10
0.623154
 20
-0.549484
 11
0.626541
 21
-0.549271
  0
LINE
  8
0
 10
0.626541
 20
-0.549271
 11
0.629913
 21
-0.54921
  0
LINE
  8
0
 10
0.629913
 20
-0.54921
 11
0.633286
 21
-0.549271
  0
LINE
  8
0
 10
0.633286
 20
-0.549271
 11
0.636673
 21
-0.549484
  0
LINE
  8
0
 10
0.636673
 20
-0.549484
 11
0.64003
 21
-0.549835
  0
LINE
  8
0
 10
0.64003
 20
-0.549835
 11
0.643372
 21
-0.550339
  0
LINE
  8
0
 10
0.643372
 20
-0.550339
 11
0.646698
 21
-0.550964
  0
LINE
  8
0
 10
0.646698
 20
-0.550964
 11
0.649979
 21
-0.551743
  0
LINE
  8
0
 10
0.649979
 20
-0.551743
 11
0.653244
 21
-0.552643
  0
LINE
  8
0
 10
0.653244
 20
-0.552643
 11
0.656448
 21
-0.553696
  0
LINE
  8
0
 10
0.656448
 20
-0.553696
 11
0.659622
 21
-0.554871
  0
LINE
  8
0
 10
0.659622
 20
-0.554871
 11
0.662735
 21
-0.556183
  0
LINE
  8
0
 10
0.662735
 20
-0.556183
 11
0.665802
 21
-0.557617
  0
LINE
  8
0
 10
0.665802
 20
-0.557617
 11
0.668793
 21
-0.559189
  0
LINE
  8
0
 10
0.668793
 20
-0.559189
 11
0.671722
 21
-0.560883
  0
LINE
  8
0
 10
0.671722
 20
-0.560883
 11
0.674576
 21
-0.562683
  0
LINE
  8
0
 10
0.674576
 20
-0.562683
 11
0.677353
 21
-0.564621
  0
LINE
  8
0
 10
0.677353
 20
-0.564621
 11
0.680038
 21
-0.566666
  0
LINE
  8
0
 10
0.680038
 20
-0.566666
 11
0.682648
 21
-0.568817
  0
LINE
  8
0
 10
0.682648
 20
-0.568817
 11
0.685165
 21
-0.571075
  0
LINE
  8
0
 10
0.685165
 20
-0.571075
 11
0.687576
 21
-0.573441
  0
LINE
  8
0
 10
0.687576
 20
-0.573441
 11
0.689896
 21
-0.575912
  0
LINE
  8
0
 10
0.689896
 20
-0.575912
 11
0.692108
 21
-0.578461
  0
LINE
  8
0
 10
0.692108
 20
-0.578461
 11
0.694199
 21
-0.581116
  0
LINE
  8
0
 10
0.694199
 20
-0.581116
 11
0.696182
 21
-0.583847
  0
LINE
  8
0
 10
0.696182
 20
-0.583847
 11
0.698059
 21
-0.58667
  0
LINE
  8
0
 10
0.698059
 20
-0.58667
 11
0.699814
 21
-0.589554
  0
LINE
  8
0
 10
0.699814
 20
-0.589554
 11
0.701431
 21
-0.592514
  0
LINE
  8
0
 10
0.701431
 20
-0.592514
 11
0.702942
 21
-0.595551
  0
LINE
  8
0
 10
0.702942
 20
-0.595551
 11
0.704315
 21
-0.598633
  0
LINE
  8
0
 10
0.704315
 20
-0.598633
 11
0.705566
 21
-0.601776
  0
LINE
  8
0
 10
0.705566
 20
-0.601776
 11
0.706665
 21
-0.60498
  0
LINE
  8
0
 10
0.706665
 20
-0.60498
 11
0.707642
 21
-0.608215
  0
LINE
  8
0
 10
0.707642
 20
-0.608215
 11
0.708496
 21
-0.611481
  0
LINE
  8
0
 10
0.708496
 20
-0.611481
 11
0.709198
 21
-0.614792
  0
LINE
  8
0
 10
0.709198
 20
-0.614792
 11
0.709763
 21
-0.618118
  0
LINE
  8
0
 10
0.709763
 20
-0.618118
 11
0.710175
 21
-0.621475
  0
LINE
  8
0
 10
0.710175
 20
-0.621475
 11
0.710464
 21
-0.624847
  0
LINE
  8
0
 10
0.710464
 20
-0.624847
 11
0.710602
 21
-0.62822
  0
LINE
  8
0
 10
0.710602
 20
-0.62822
 11
0.710602
 21
-0.631607
  0
LINE
  8
0
 10
0.710602
 20
-0.631607
 11
0.710464
 21
-0.634979
  0
LINE
  8
0
 10
0.710464
 20
-0.634979
 11
0.710175
 21
-0.638351
  0
LINE
  8
0
 10
0.710175
 20
-0.638351
 11
0.709763
 21
-0.641708
  0
LINE
  8
0
 10
0.709763
 20
-0.641708
 11
0.709198
 21
-0.645035
  0
LINE
  8
0
 10
0.709198
 20
-0.645035
 11
0.708496
 21
-0.648346
  0
LINE
  8
0
 10
0.708496
 20
-0.648346
 11
0.707642
 21
-0.651611
  0
LINE
  8
0
 10
0.707642
 20
-0.651611
 11
0.706665
 21
-0.654861
  0
LINE
  8
0
 10
0.706665
 20
-0.654861
 11
0.705566
 21
-0.658051
  0
LINE
  8
0
 10
0.705566
 20
-0.658051
 11
0.704315
 21
-0.661194
  0
LINE
  8
0
 10
0.704315
 20
-0.661194
 11
0.702942
 21
-0.664276
  0
LINE
  8
0
 10
0.702942
 20
-0.664276
 11
0.701431
 21
-0.667313
  0
LINE
  8
0
 10
0.701431
 20
-0.667313
 11
0.699814
 21
-0.670273
  0
LINE
  8
0
 10
0.699814
 20
-0.670273
 11
0.698059
 21
-0.673157
  0
LINE
  8
0
 10
0.698059
 20
-0.673157
 11
0.696182
 21
-0.67598
  0
LINE
  8
0
 10
0.696182
 20
-0.67598
 11
0.694199
 21
-0.678711
  0
LINE
  8
0
 10
0.694199
 20
-0.678711
 11
0.692108
 21
-0.681366
  0
LINE
  8
0
 10
0.692108
 20
-0.681366
 11
0.689896
 21
-0.683914
  0
LINE
  8
0
 10
0.689896
 20
-0.683914
 11
0.687576
 21
-0.686386
  0
LINE
  8
0
 10
0.687576
 20
-0.686386
 11
0.685165
 21
-0.688751
  0
LINE
  8
0
 10
0.685165
 20
-0.688751
 11
0.682648
 21
-0.69101
  0
LINE
  8
0
 10
0.682648
 20
-0.69101
 11
0.680038
 21
-0.693161
  0
LINE
  8
0
 10
0.680038
 20
-0.693161
 11
0.677353
 21
-0.695206
  0
LINE
  8
0
 10
0.677353
 20
-0.695206
 11
0.674576
 21
-0.697144
  0
LINE
  8
0
 10
0.674576
 20
-0.697144
 11
0.671722
 21
-0.698944
  0
LINE
  8
0
 10
0.671722
 20
-0.698944
 11
0.668793
 21
-0.700638
  0
LINE
  8
0
 10
0.668793
 20
-0.700638
 11
0.665802
 21
-0.702209
  0
LINE
  8
0
 10
0.665802
 20
-0.702209
 11
0.662735
 21
-0.703644
  0
LINE
  8
0
 10
0.662735
 20
-0.703644
 11
0.659622
 21
-0.704956
  0
LINE
  8
0
 10
0.659622
 20
-0.704956
 11
0.656448
 21
-0.706131
  0
LINE
  8
0
 10
0.656448
 20
-0.706131
 11
0.653244
 21
-0.707184
  0
LINE
  8
0
 10
0.653244
 20
-0.707184
 11
0.649979
 21
-0.708084
  0
LINE
  8
0
 10
0.649979
 20
-0.708084
 11
0.646698
 21
-0.708862
  0
LINE
  8
0
 10
0.646698
 20
-0.708862
 11
0.643372
 21
-0.709488
  0
LINE
  8
0
 10
0.643372
 20
-0.709488
 11
0.64003
 21
-0.709991
  0
LINE
  8
0
 10
0.64003
 20
-0.709991
 11
0.636673
 21
-0.710342
  0
LINE
  8
0
 10
0.636673
 20
-0.710342
 11
0.633286
 21
-0.710556
  0
LINE
  8
0
 10
0.633286
 20
-0.710556
 11
0.629913
 21
-0.710617
  0
LINE
  8
0
 10
0.629913
 20
-0.710617
 11
0.626541
 21
-0.710556
  0
ENDSEC
  0
SECTION
  2
OBJECTS
  0
DICTIONARY
  0
ENDSEC
  0
EOF
