  0
SECTION
  2
BLOCKS
  0
ENDSEC
  0
SECTION
  2
ENTITIES
  0
LINE
  8
0
 10
22.4998
 20
152.4
 11
-21.4999
 21
152.4
  0
LINE
  8
0
 10
-21.4999
 20
152.4
 11
-21.4999
 21
-25.4
  0
LINE
  8
0
 10
-21.4999
 20
-25.4
 11
22.4998
 21
-25.4
  0
LINE
  8
0
 10
22.4998
 20
-25.4
 11
22.4998
 21
152.4
  0
LINE
  8
0
 10
7.95688
 20
146.35
 11
7.87122
 21
146.354
  0
LINE
  8
0
 10
7.87122
 20
146.354
 11
7.78557
 21
146.361
  0
LINE
  8
0
 10
7.78557
 20
146.361
 11
7.70031
 21
146.372
  0
LINE
  8
0
 10
7.70031
 20
146.372
 11
7.61581
 21
146.386
  0
LINE
  8
0
 10
7.61581
 20
146.386
 11
7.53171
 21
146.404
  0
LINE
  8
0
 10
7.53171
 20
146.404
 11
7.44838
 21
146.425
  0
LINE
  8
0
 10
7.44838
 20
146.425
 11
7.36622
 21
146.45
  0
LINE
  8
0
 10
7.36622
 20
146.45
 11
7.28521
 21
146.478
  0
LINE
  8
0
 10
7.28521
 20
146.478
 11
7.20537
 21
146.51
  0
LINE
  8
0
 10
7.20537
 20
146.51
 11
7.12708
 21
146.545
  0
LINE
  8
0
 10
7.12708
 20
146.545
 11
7.04996
 21
146.583
  0
LINE
  8
0
 10
7.04996
 20
146.583
 11
6.97477
 21
146.624
  0
LINE
  8
0
 10
6.97477
 20
146.624
 11
6.90152
 21
146.669
  0
LINE
  8
0
 10
6.90152
 20
146.669
 11
6.82982
 21
146.717
  0
LINE
  8
0
 10
6.82982
 20
146.717
 11
6.76044
 21
146.767
  0
LINE
  8
0
 10
6.76044
 20
146.767
 11
6.693
 21
146.82
  0
LINE
  8
0
 10
6.693
 20
146.82
 11
6.62789
 21
146.876
  0
LINE
  8
0
 10
6.62789
 20
146.876
 11
6.56549
 21
146.935
  0
LINE
  8
0
 10
6.56549
 20
146.935
 11
6.50542
 21
146.996
  0
LINE
  8
0
 10
6.50542
 20
146.996
 11
6.44806
 21
147.06
  0
LINE
  8
0
 10
6.44806
 20
147.06
 11
6.39302
 21
147.126
  0
LINE
  8
0
 10
6.39302
 20
147.126
 11
6.34147
 21
147.195
  0
LINE
  8
0
 10
6.34147
 20
147.195
 11
6.29225
 21
147.265
  0
LINE
  8
0
 10
6.29225
 20
147.265
 11
6.24613
 21
147.338
  0
LINE
  8
0
 10
6.24613
 20
147.338
 11
6.2035
 21
147.412
  0
LINE
  8
0
 10
6.2035
 20
147.412
 11
6.16358
 21
147.488
  0
LINE
  8
0
 10
6.16358
 20
147.488
 11
6.12715
 21
147.566
  0
LINE
  8
0
 10
6.12715
 20
147.566
 11
6.09381
 21
147.645
  0
LINE
  8
0
 10
6.09381
 20
147.645
 11
6.06397
 21
147.725
  0
LINE
  8
0
 10
6.06397
 20
147.725
 11
6.03723
 21
147.807
  0
LINE
  8
0
 10
6.03723
 20
147.807
 11
6.01436
 21
147.89
  0
LINE
  8
0
 10
6.01436
 20
147.89
 11
5.9946
 21
147.974
  0
LINE
  8
0
 10
5.9946
 20
147.974
 11
5.97832
 21
148.058
  0
LINE
  8
0
 10
5.97832
 20
148.058
 11
5.96591
 21
148.143
  0
LINE
  8
0
 10
5.96591
 20
148.143
 11
5.957
 21
148.228
  0
LINE
  8
0
 10
5.957
 20
148.228
 11
5.95157
 21
148.314
  0
LINE
  8
0
 10
5.95157
 20
148.314
 11
5.94964
 21
148.4
  0
LINE
  8
0
 10
5.94964
 20
148.4
 11
5.95157
 21
148.486
  0
LINE
  8
0
 10
5.95157
 20
148.486
 11
5.957
 21
148.571
  0
LINE
  8
0
 10
5.957
 20
148.571
 11
5.96591
 21
148.657
  0
LINE
  8
0
 10
5.96591
 20
148.657
 11
5.97832
 21
148.742
  0
LINE
  8
0
 10
5.97832
 20
148.742
 11
5.9946
 21
148.826
  0
LINE
  8
0
 10
5.9946
 20
148.826
 11
6.01436
 21
148.91
  0
LINE
  8
0
 10
6.01436
 20
148.91
 11
6.03723
 21
148.992
  0
LINE
  8
0
 10
6.03723
 20
148.992
 11
6.06397
 21
149.074
  0
LINE
  8
0
 10
6.06397
 20
149.074
 11
6.09381
 21
149.154
  0
LINE
  8
0
 10
6.09381
 20
149.154
 11
6.12715
 21
149.234
  0
LINE
  8
0
 10
6.12715
 20
149.234
 11
6.16358
 21
149.311
  0
LINE
  8
0
 10
6.16358
 20
149.311
 11
6.2035
 21
149.387
  0
LINE
  8
0
 10
6.2035
 20
149.387
 11
6.24613
 21
149.462
  0
LINE
  8
0
 10
6.24613
 20
149.462
 11
6.29225
 21
149.534
  0
LINE
  8
0
 10
6.29225
 20
149.534
 11
6.34147
 21
149.605
  0
LINE
  8
0
 10
6.34147
 20
149.605
 11
6.39302
 21
149.673
  0
LINE
  8
0
 10
6.39302
 20
149.673
 11
6.44806
 21
149.739
  0
LINE
  8
0
 10
6.44806
 20
149.739
 11
6.50542
 21
149.803
  0
LINE
  8
0
 10
6.50542
 20
149.803
 11
6.56549
 21
149.864
  0
LINE
  8
0
 10
6.56549
 20
149.864
 11
6.62789
 21
149.923
  0
LINE
  8
0
 10
6.62789
 20
149.923
 11
6.693
 21
149.979
  0
LINE
  8
0
 10
6.693
 20
149.979
 11
6.76044
 21
150.033
  0
LINE
  8
0
 10
6.76044
 20
150.033
 11
6.82982
 21
150.083
  0
LINE
  8
0
 10
6.82982
 20
150.083
 11
6.90152
 21
150.131
  0
LINE
  8
0
 10
6.90152
 20
150.131
 11
6.97477
 21
150.175
  0
LINE
  8
0
 10
6.97477
 20
150.175
 11
7.04996
 21
150.216
  0
LINE
  8
0
 10
7.04996
 20
150.216
 11
7.12708
 21
150.255
  0
LINE
  8
0
 10
7.12708
 20
150.255
 11
7.20537
 21
150.29
  0
LINE
  8
0
 10
7.20537
 20
150.29
 11
7.28521
 21
150.321
  0
LINE
  8
0
 10
7.28521
 20
150.321
 11
7.36622
 21
150.349
  0
LINE
  8
0
 10
7.36622
 20
150.349
 11
7.44838
 21
150.374
  0
LINE
  8
0
 10
7.44838
 20
150.374
 11
7.53171
 21
150.395
  0
LINE
  8
0
 10
7.53171
 20
150.395
 11
7.61581
 21
150.414
  0
LINE
  8
0
 10
7.61581
 20
150.414
 11
7.70031
 21
150.428
  0
LINE
  8
0
 10
7.70031
 20
150.428
 11
7.78557
 21
150.438
  0
LINE
  8
0
 10
7.78557
 20
150.438
 11
7.87122
 21
150.446
  0
LINE
  8
0
 10
7.87122
 20
150.446
 11
7.95688
 21
150.449
  0
LINE
  8
0
 10
7.95688
 20
150.449
 11
8.04253
 21
150.449
  0
LINE
  8
0
 10
8.04253
 20
150.449
 11
8.12857
 21
150.446
  0
LINE
  8
0
 10
8.12857
 20
150.446
 11
8.21423
 21
150.438
  0
LINE
  8
0
 10
8.21423
 20
150.438
 11
8.29911
 21
150.428
  0
LINE
  8
0
 10
8.29911
 20
150.428
 11
8.38398
 21
150.414
  0
LINE
  8
0
 10
8.38398
 20
150.414
 11
8.46809
 21
150.395
  0
LINE
  8
0
 10
8.46809
 20
150.395
 11
8.55103
 21
150.374
  0
LINE
  8
0
 10
8.55103
 20
150.374
 11
8.63319
 21
150.349
  0
LINE
  8
0
 10
8.63319
 20
150.349
 11
8.7142
 21
150.321
  0
LINE
  8
0
 10
8.7142
 20
150.321
 11
8.79404
 21
150.29
  0
LINE
  8
0
 10
8.79404
 20
150.29
 11
8.87271
 21
150.255
  0
LINE
  8
0
 10
8.87271
 20
150.255
 11
8.94945
 21
150.216
  0
LINE
  8
0
 10
8.94945
 20
150.216
 11
9.02464
 21
150.175
  0
LINE
  8
0
 10
9.02464
 20
150.175
 11
9.09828
 21
150.131
  0
LINE
  8
0
 10
9.09828
 20
150.131
 11
9.1696
 21
150.083
  0
LINE
  8
0
 10
9.1696
 20
150.083
 11
9.23936
 21
150.033
  0
LINE
  8
0
 10
9.23936
 20
150.033
 11
9.30641
 21
149.979
  0
LINE
  8
0
 10
9.30641
 20
149.979
 11
9.37152
 21
149.923
  0
LINE
  8
0
 10
9.37152
 20
149.923
 11
9.43392
 21
149.864
  0
LINE
  8
0
 10
9.43392
 20
149.864
 11
9.49399
 21
149.803
  0
LINE
  8
0
 10
9.49399
 20
149.803
 11
9.55174
 21
149.739
  0
LINE
  8
0
 10
9.55174
 20
149.739
 11
9.60639
 21
149.673
  0
LINE
  8
0
 10
9.60639
 20
149.673
 11
9.65833
 21
149.605
  0
LINE
  8
0
 10
9.65833
 20
149.605
 11
9.70716
 21
149.534
  0
LINE
  8
0
 10
9.70716
 20
149.534
 11
9.75328
 21
149.462
  0
LINE
  8
0
 10
9.75328
 20
149.462
 11
9.7963
 21
149.387
  0
LINE
  8
0
 10
9.7963
 20
149.387
 11
9.83583
 21
149.311
  0
LINE
  8
0
 10
9.83583
 20
149.311
 11
9.87265
 21
149.234
  0
LINE
  8
0
 10
9.87265
 20
149.234
 11
9.90598
 21
149.154
  0
LINE
  8
0
 10
9.90598
 20
149.154
 11
9.93583
 21
149.074
  0
LINE
  8
0
 10
9.93583
 20
149.074
 11
9.96218
 21
148.992
  0
LINE
  8
0
 10
9.96218
 20
148.992
 11
9.98544
 21
148.91
  0
LINE
  8
0
 10
9.98544
 20
148.91
 11
10.0048
 21
148.826
  0
LINE
  8
0
 10
10.0048
 20
148.826
 11
10.0211
 21
148.742
  0
LINE
  8
0
 10
10.0211
 20
148.742
 11
10.0335
 21
148.657
  0
LINE
  8
0
 10
10.0335
 20
148.657
 11
10.0428
 21
148.571
  0
LINE
  8
0
 10
10.0428
 20
148.571
 11
10.0478
 21
148.486
  0
LINE
  8
0
 10
10.0478
 20
148.486
 11
10.0498
 21
148.4
  0
LINE
  8
0
 10
10.0498
 20
148.4
 11
10.0478
 21
148.314
  0
LINE
  8
0
 10
10.0478
 20
148.314
 11
10.0428
 21
148.228
  0
LINE
  8
0
 10
10.0428
 20
148.228
 11
10.0335
 21
148.143
  0
LINE
  8
0
 10
10.0335
 20
148.143
 11
10.0211
 21
148.058
  0
LINE
  8
0
 10
10.0211
 20
148.058
 11
10.0048
 21
147.974
  0
LINE
  8
0
 10
10.0048
 20
147.974
 11
9.98544
 21
147.89
  0
LINE
  8
0
 10
9.98544
 20
147.89
 11
9.96218
 21
147.807
  0
LINE
  8
0
 10
9.96218
 20
147.807
 11
9.93583
 21
147.725
  0
LINE
  8
0
 10
9.93583
 20
147.725
 11
9.90598
 21
147.645
  0
LINE
  8
0
 10
9.90598
 20
147.645
 11
9.87265
 21
147.566
  0
LINE
  8
0
 10
9.87265
 20
147.566
 11
9.83583
 21
147.488
  0
LINE
  8
0
 10
9.83583
 20
147.488
 11
9.7963
 21
147.412
  0
LINE
  8
0
 10
9.7963
 20
147.412
 11
9.75328
 21
147.338
  0
LINE
  8
0
 10
9.75328
 20
147.338
 11
9.70716
 21
147.265
  0
LINE
  8
0
 10
9.70716
 20
147.265
 11
9.65833
 21
147.195
  0
LINE
  8
0
 10
9.65833
 20
147.195
 11
9.60639
 21
147.126
  0
LINE
  8
0
 10
9.60639
 20
147.126
 11
9.55174
 21
147.06
  0
LINE
  8
0
 10
9.55174
 20
147.06
 11
9.49399
 21
146.996
  0
LINE
  8
0
 10
9.49399
 20
146.996
 11
9.43392
 21
146.935
  0
LINE
  8
0
 10
9.43392
 20
146.935
 11
9.37152
 21
146.876
  0
LINE
  8
0
 10
9.37152
 20
146.876
 11
9.30641
 21
146.82
  0
LINE
  8
0
 10
9.30641
 20
146.82
 11
9.23936
 21
146.767
  0
LINE
  8
0
 10
9.23936
 20
146.767
 11
9.1696
 21
146.717
  0
LINE
  8
0
 10
9.1696
 20
146.717
 11
9.09828
 21
146.669
  0
LINE
  8
0
 10
9.09828
 20
146.669
 11
9.02464
 21
146.624
  0
LINE
  8
0
 10
9.02464
 20
146.624
 11
8.94945
 21
146.583
  0
LINE
  8
0
 10
8.94945
 20
146.583
 11
8.87271
 21
146.545
  0
LINE
  8
0
 10
8.87271
 20
146.545
 11
8.79404
 21
146.51
  0
LINE
  8
0
 10
8.79404
 20
146.51
 11
8.7142
 21
146.478
  0
LINE
  8
0
 10
8.7142
 20
146.478
 11
8.63319
 21
146.45
  0
LINE
  8
0
 10
8.63319
 20
146.45
 11
8.55103
 21
146.425
  0
LINE
  8
0
 10
8.55103
 20
146.425
 11
8.46809
 21
146.404
  0
LINE
  8
0
 10
8.46809
 20
146.404
 11
8.38398
 21
146.386
  0
LINE
  8
0
 10
8.38398
 20
146.386
 11
8.29911
 21
146.372
  0
LINE
  8
0
 10
8.29911
 20
146.372
 11
8.21423
 21
146.361
  0
LINE
  8
0
 10
8.21423
 20
146.361
 11
8.12857
 21
146.354
  0
LINE
  8
0
 10
8.12857
 20
146.354
 11
8.04253
 21
146.35
  0
LINE
  8
0
 10
8.04253
 20
146.35
 11
7.95688
 21
146.35
  0
LINE
  8
0
 10
-16.0428
 20
146.35
 11
-16.1285
 21
146.354
  0
LINE
  8
0
 10
-16.1285
 20
146.354
 11
-16.2141
 21
146.361
  0
LINE
  8
0
 10
-16.2141
 20
146.361
 11
-16.2994
 21
146.372
  0
LINE
  8
0
 10
-16.2994
 20
146.372
 11
-16.3839
 21
146.386
  0
LINE
  8
0
 10
-16.3839
 20
146.386
 11
-16.468
 21
146.404
  0
LINE
  8
0
 10
-16.468
 20
146.404
 11
-16.5509
 21
146.425
  0
LINE
  8
0
 10
-16.5509
 20
146.425
 11
-16.6331
 21
146.45
  0
LINE
  8
0
 10
-16.6331
 20
146.45
 11
-16.7145
 21
146.478
  0
LINE
  8
0
 10
-16.7145
 20
146.478
 11
-16.7943
 21
146.51
  0
LINE
  8
0
 10
-16.7943
 20
146.51
 11
-16.8726
 21
146.545
  0
LINE
  8
0
 10
-16.8726
 20
146.545
 11
-16.9497
 21
146.583
  0
LINE
  8
0
 10
-16.9497
 20
146.583
 11
-17.0249
 21
146.624
  0
LINE
  8
0
 10
-17.0249
 20
146.624
 11
-17.0982
 21
146.669
  0
LINE
  8
0
 10
-17.0982
 20
146.669
 11
-17.1699
 21
146.717
  0
LINE
  8
0
 10
-17.1699
 20
146.717
 11
-17.2393
 21
146.767
  0
LINE
  8
0
 10
-17.2393
 20
146.767
 11
-17.3067
 21
146.82
  0
LINE
  8
0
 10
-17.3067
 20
146.82
 11
-17.3714
 21
146.876
  0
LINE
  8
0
 10
-17.3714
 20
146.876
 11
-17.4342
 21
146.935
  0
LINE
  8
0
 10
-17.4342
 20
146.935
 11
-17.4943
 21
146.996
  0
LINE
  8
0
 10
-17.4943
 20
146.996
 11
-17.5516
 21
147.06
  0
LINE
  8
0
 10
-17.5516
 20
147.06
 11
-17.6063
 21
147.126
  0
LINE
  8
0
 10
-17.6063
 20
147.126
 11
-17.6582
 21
147.195
  0
LINE
  8
0
 10
-17.6582
 20
147.195
 11
-17.7074
 21
147.265
  0
LINE
  8
0
 10
-17.7074
 20
147.265
 11
-17.7532
 21
147.338
  0
LINE
  8
0
 10
-17.7532
 20
147.338
 11
-17.7962
 21
147.412
  0
LINE
  8
0
 10
-17.7962
 20
147.412
 11
-17.8361
 21
147.488
  0
LINE
  8
0
 10
-17.8361
 20
147.488
 11
-17.8726
 21
147.566
  0
LINE
  8
0
 10
-17.8726
 20
147.566
 11
-17.9059
 21
147.645
  0
LINE
  8
0
 10
-17.9059
 20
147.645
 11
-17.9357
 21
147.725
  0
LINE
  8
0
 10
-17.9357
 20
147.725
 11
-17.9625
 21
147.807
  0
LINE
  8
0
 10
-17.9625
 20
147.807
 11
-17.9853
 21
147.89
  0
LINE
  8
0
 10
-17.9853
 20
147.89
 11
-18.0051
 21
147.974
  0
LINE
  8
0
 10
-18.0051
 20
147.974
 11
-18.021
 21
148.058
  0
LINE
  8
0
 10
-18.021
 20
148.058
 11
-18.0338
 21
148.143
  0
LINE
  8
0
 10
-18.0338
 20
148.143
 11
-18.0427
 21
148.228
  0
LINE
  8
0
 10
-18.0427
 20
148.228
 11
-18.0481
 21
148.314
  0
LINE
  8
0
 10
-18.0481
 20
148.314
 11
-18.0497
 21
148.4
  0
LINE
  8
0
 10
-18.0497
 20
148.4
 11
-18.0481
 21
148.486
  0
LINE
  8
0
 10
-18.0481
 20
148.486
 11
-18.0427
 21
148.571
  0
LINE
  8
0
 10
-18.0427
 20
148.571
 11
-18.0338
 21
148.657
  0
LINE
  8
0
 10
-18.0338
 20
148.657
 11
-18.021
 21
148.742
  0
LINE
  8
0
 10
-18.021
 20
148.742
 11
-18.0051
 21
148.826
  0
LINE
  8
0
 10
-18.0051
 20
148.826
 11
-17.9853
 21
148.91
  0
LINE
  8
0
 10
-17.9853
 20
148.91
 11
-17.9625
 21
148.992
  0
LINE
  8
0
 10
-17.9625
 20
148.992
 11
-17.9357
 21
149.074
  0
LINE
  8
0
 10
-17.9357
 20
149.074
 11
-17.9059
 21
149.154
  0
LINE
  8
0
 10
-17.9059
 20
149.154
 11
-17.8726
 21
149.234
  0
LINE
  8
0
 10
-17.8726
 20
149.234
 11
-17.8361
 21
149.311
  0
LINE
  8
0
 10
-17.8361
 20
149.311
 11
-17.7962
 21
149.387
  0
LINE
  8
0
 10
-17.7962
 20
149.387
 11
-17.7532
 21
149.462
  0
LINE
  8
0
 10
-17.7532
 20
149.462
 11
-17.7074
 21
149.534
  0
LINE
  8
0
 10
-17.7074
 20
149.534
 11
-17.6582
 21
149.605
  0
LINE
  8
0
 10
-17.6582
 20
149.605
 11
-17.6063
 21
149.673
  0
LINE
  8
0
 10
-17.6063
 20
149.673
 11
-17.5516
 21
149.739
  0
LINE
  8
0
 10
-17.5516
 20
149.739
 11
-17.4943
 21
149.803
  0
LINE
  8
0
 10
-17.4943
 20
149.803
 11
-17.4342
 21
149.864
  0
LINE
  8
0
 10
-17.4342
 20
149.864
 11
-17.3714
 21
149.923
  0
LINE
  8
0
 10
-17.3714
 20
149.923
 11
-17.3067
 21
149.979
  0
LINE
  8
0
 10
-17.3067
 20
149.979
 11
-17.2393
 21
150.033
  0
LINE
  8
0
 10
-17.2393
 20
150.033
 11
-17.1699
 21
150.083
  0
LINE
  8
0
 10
-17.1699
 20
150.083
 11
-17.0982
 21
150.131
  0
LINE
  8
0
 10
-17.0982
 20
150.131
 11
-17.0249
 21
150.175
  0
LINE
  8
0
 10
-17.0249
 20
150.175
 11
-16.9497
 21
150.216
  0
LINE
  8
0
 10
-16.9497
 20
150.216
 11
-16.8726
 21
150.255
  0
LINE
  8
0
 10
-16.8726
 20
150.255
 11
-16.7943
 21
150.29
  0
LINE
  8
0
 10
-16.7943
 20
150.29
 11
-16.7145
 21
150.321
  0
LINE
  8
0
 10
-16.7145
 20
150.321
 11
-16.6331
 21
150.349
  0
LINE
  8
0
 10
-16.6331
 20
150.349
 11
-16.5509
 21
150.374
  0
LINE
  8
0
 10
-16.5509
 20
150.374
 11
-16.468
 21
150.395
  0
LINE
  8
0
 10
-16.468
 20
150.395
 11
-16.3839
 21
150.414
  0
LINE
  8
0
 10
-16.3839
 20
150.414
 11
-16.2994
 21
150.428
  0
LINE
  8
0
 10
-16.2994
 20
150.428
 11
-16.2141
 21
150.438
  0
LINE
  8
0
 10
-16.2141
 20
150.438
 11
-16.1285
 21
150.446
  0
LINE
  8
0
 10
-16.1285
 20
150.446
 11
-16.0428
 21
150.449
  0
LINE
  8
0
 10
-16.0428
 20
150.449
 11
-15.9568
 21
150.449
  0
LINE
  8
0
 10
-15.9568
 20
150.449
 11
-15.8711
 21
150.446
  0
LINE
  8
0
 10
-15.8711
 20
150.446
 11
-15.7855
 21
150.438
  0
LINE
  8
0
 10
-15.7855
 20
150.438
 11
-15.7002
 21
150.428
  0
LINE
  8
0
 10
-15.7002
 20
150.428
 11
-15.6157
 21
150.414
  0
LINE
  8
0
 10
-15.6157
 20
150.414
 11
-15.5316
 21
150.395
  0
LINE
  8
0
 10
-15.5316
 20
150.395
 11
-15.4487
 21
150.374
  0
LINE
  8
0
 10
-15.4487
 20
150.374
 11
-15.3665
 21
150.349
  0
LINE
  8
0
 10
-15.3665
 20
150.349
 11
-15.2851
 21
150.321
  0
LINE
  8
0
 10
-15.2851
 20
150.321
 11
-15.2053
 21
150.29
  0
LINE
  8
0
 10
-15.2053
 20
150.29
 11
-15.127
 21
150.255
  0
LINE
  8
0
 10
-15.127
 20
150.255
 11
-15.0502
 21
150.216
  0
LINE
  8
0
 10
-15.0502
 20
150.216
 11
-14.9747
 21
150.175
  0
LINE
  8
0
 10
-14.9747
 20
150.175
 11
-14.9014
 21
150.131
  0
LINE
  8
0
 10
-14.9014
 20
150.131
 11
-14.8297
 21
150.083
  0
LINE
  8
0
 10
-14.8297
 20
150.083
 11
-14.7603
 21
150.033
  0
LINE
  8
0
 10
-14.7603
 20
150.033
 11
-14.6933
 21
149.979
  0
LINE
  8
0
 10
-14.6933
 20
149.979
 11
-14.6282
 21
149.923
  0
LINE
  8
0
 10
-14.6282
 20
149.923
 11
-14.5654
 21
149.864
  0
LINE
  8
0
 10
-14.5654
 20
149.864
 11
-14.5053
 21
149.803
  0
LINE
  8
0
 10
-14.5053
 20
149.803
 11
-14.448
 21
149.739
  0
LINE
  8
0
 10
-14.448
 20
149.739
 11
-14.3933
 21
149.673
  0
LINE
  8
0
 10
-14.3933
 20
149.673
 11
-14.3414
 21
149.605
  0
LINE
  8
0
 10
-14.3414
 20
149.605
 11
-14.2922
 21
149.534
  0
LINE
  8
0
 10
-14.2922
 20
149.534
 11
-14.2464
 21
149.462
  0
LINE
  8
0
 10
-14.2464
 20
149.462
 11
-14.2034
 21
149.387
  0
LINE
  8
0
 10
-14.2034
 20
149.387
 11
-14.1635
 21
149.311
  0
LINE
  8
0
 10
-14.1635
 20
149.311
 11
-14.127
 21
149.234
  0
LINE
  8
0
 10
-14.127
 20
149.234
 11
-14.0937
 21
149.154
  0
LINE
  8
0
 10
-14.0937
 20
149.154
 11
-14.0639
 21
149.074
  0
LINE
  8
0
 10
-14.0639
 20
149.074
 11
-14.0371
 21
148.992
  0
LINE
  8
0
 10
-14.0371
 20
148.992
 11
-14.0143
 21
148.91
  0
LINE
  8
0
 10
-14.0143
 20
148.91
 11
-13.9945
 21
148.826
  0
LINE
  8
0
 10
-13.9945
 20
148.826
 11
-13.9786
 21
148.742
  0
LINE
  8
0
 10
-13.9786
 20
148.742
 11
-13.9658
 21
148.657
  0
LINE
  8
0
 10
-13.9658
 20
148.657
 11
-13.9569
 21
148.571
  0
LINE
  8
0
 10
-13.9569
 20
148.571
 11
-13.9515
 21
148.486
  0
LINE
  8
0
 10
-13.9515
 20
148.486
 11
-13.9499
 21
148.4
  0
LINE
  8
0
 10
-13.9499
 20
148.4
 11
-13.9515
 21
148.314
  0
LINE
  8
0
 10
-13.9515
 20
148.314
 11
-13.9569
 21
148.228
  0
LINE
  8
0
 10
-13.9569
 20
148.228
 11
-13.9658
 21
148.143
  0
LINE
  8
0
 10
-13.9658
 20
148.143
 11
-13.9786
 21
148.058
  0
LINE
  8
0
 10
-13.9786
 20
148.058
 11
-13.9945
 21
147.974
  0
LINE
  8
0
 10
-13.9945
 20
147.974
 11
-14.0143
 21
147.89
  0
LINE
  8
0
 10
-14.0143
 20
147.89
 11
-14.0371
 21
147.807
  0
LINE
  8
0
 10
-14.0371
 20
147.807
 11
-14.0639
 21
147.725
  0
LINE
  8
0
 10
-14.0639
 20
147.725
 11
-14.0937
 21
147.645
  0
LINE
  8
0
 10
-14.0937
 20
147.645
 11
-14.127
 21
147.566
  0
LINE
  8
0
 10
-14.127
 20
147.566
 11
-14.1635
 21
147.488
  0
LINE
  8
0
 10
-14.1635
 20
147.488
 11
-14.2034
 21
147.412
  0
LINE
  8
0
 10
-14.2034
 20
147.412
 11
-14.2464
 21
147.338
  0
LINE
  8
0
 10
-14.2464
 20
147.338
 11
-14.2922
 21
147.265
  0
LINE
  8
0
 10
-14.2922
 20
147.265
 11
-14.3414
 21
147.195
  0
LINE
  8
0
 10
-14.3414
 20
147.195
 11
-14.3933
 21
147.126
  0
LINE
  8
0
 10
-14.3933
 20
147.126
 11
-14.448
 21
147.06
  0
LINE
  8
0
 10
-14.448
 20
147.06
 11
-14.5053
 21
146.996
  0
LINE
  8
0
 10
-14.5053
 20
146.996
 11
-14.5654
 21
146.935
  0
LINE
  8
0
 10
-14.5654
 20
146.935
 11
-14.6282
 21
146.876
  0
LINE
  8
0
 10
-14.6282
 20
146.876
 11
-14.6933
 21
146.82
  0
LINE
  8
0
 10
-14.6933
 20
146.82
 11
-14.7603
 21
146.767
  0
LINE
  8
0
 10
-14.7603
 20
146.767
 11
-14.8297
 21
146.717
  0
LINE
  8
0
 10
-14.8297
 20
146.717
 11
-14.9014
 21
146.669
  0
LINE
  8
0
 10
-14.9014
 20
146.669
 11
-14.9747
 21
146.624
  0
LINE
  8
0
 10
-14.9747
 20
146.624
 11
-15.0502
 21
146.583
  0
LINE
  8
0
 10
-15.0502
 20
146.583
 11
-15.127
 21
146.545
  0
LINE
  8
0
 10
-15.127
 20
146.545
 11
-15.2053
 21
146.51
  0
LINE
  8
0
 10
-15.2053
 20
146.51
 11
-15.2851
 21
146.478
  0
LINE
  8
0
 10
-15.2851
 20
146.478
 11
-15.3665
 21
146.45
  0
LINE
  8
0
 10
-15.3665
 20
146.45
 11
-15.4487
 21
146.425
  0
LINE
  8
0
 10
-15.4487
 20
146.425
 11
-15.5316
 21
146.404
  0
LINE
  8
0
 10
-15.5316
 20
146.404
 11
-15.6157
 21
146.386
  0
LINE
  8
0
 10
-15.6157
 20
146.386
 11
-15.7002
 21
146.372
  0
LINE
  8
0
 10
-15.7002
 20
146.372
 11
-15.7855
 21
146.361
  0
LINE
  8
0
 10
-15.7855
 20
146.361
 11
-15.8711
 21
146.354
  0
LINE
  8
0
 10
-15.8711
 20
146.354
 11
-15.9568
 21
146.35
  0
LINE
  8
0
 10
-15.9568
 20
146.35
 11
-16.0428
 21
146.35
  0
LINE
  8
0
 10
15.9568
 20
146.35
 11
15.8711
 21
146.354
  0
LINE
  8
0
 10
15.8711
 20
146.354
 11
15.7855
 21
146.361
  0
LINE
  8
0
 10
15.7855
 20
146.361
 11
15.7002
 21
146.372
  0
LINE
  8
0
 10
15.7002
 20
146.372
 11
15.6157
 21
146.386
  0
LINE
  8
0
 10
15.6157
 20
146.386
 11
15.5316
 21
146.404
  0
LINE
  8
0
 10
15.5316
 20
146.404
 11
15.4487
 21
146.425
  0
LINE
  8
0
 10
15.4487
 20
146.425
 11
15.3661
 21
146.45
  0
LINE
  8
0
 10
15.3661
 20
146.45
 11
15.2851
 21
146.478
  0
LINE
  8
0
 10
15.2851
 20
146.478
 11
15.2053
 21
146.51
  0
LINE
  8
0
 10
15.2053
 20
146.51
 11
15.127
 21
146.545
  0
LINE
  8
0
 10
15.127
 20
146.545
 11
15.0499
 21
146.583
  0
LINE
  8
0
 10
15.0499
 20
146.583
 11
14.9747
 21
146.624
  0
LINE
  8
0
 10
14.9747
 20
146.624
 11
14.9014
 21
146.669
  0
LINE
  8
0
 10
14.9014
 20
146.669
 11
14.8297
 21
146.717
  0
LINE
  8
0
 10
14.8297
 20
146.717
 11
14.7603
 21
146.767
  0
LINE
  8
0
 10
14.7603
 20
146.767
 11
14.6929
 21
146.82
  0
LINE
  8
0
 10
14.6929
 20
146.82
 11
14.6282
 21
146.876
  0
LINE
  8
0
 10
14.6282
 20
146.876
 11
14.5654
 21
146.935
  0
LINE
  8
0
 10
14.5654
 20
146.935
 11
14.5053
 21
146.996
  0
LINE
  8
0
 10
14.5053
 20
146.996
 11
14.448
 21
147.06
  0
LINE
  8
0
 10
14.448
 20
147.06
 11
14.3933
 21
147.126
  0
LINE
  8
0
 10
14.3933
 20
147.126
 11
14.3414
 21
147.195
  0
LINE
  8
0
 10
14.3414
 20
147.195
 11
14.2922
 21
147.265
  0
LINE
  8
0
 10
14.2922
 20
147.265
 11
14.2464
 21
147.338
  0
LINE
  8
0
 10
14.2464
 20
147.338
 11
14.2034
 21
147.412
  0
LINE
  8
0
 10
14.2034
 20
147.412
 11
14.1635
 21
147.488
  0
LINE
  8
0
 10
14.1635
 20
147.488
 11
14.127
 21
147.566
  0
LINE
  8
0
 10
14.127
 20
147.566
 11
14.0937
 21
147.645
  0
LINE
  8
0
 10
14.0937
 20
147.645
 11
14.0639
 21
147.725
  0
LINE
  8
0
 10
14.0639
 20
147.725
 11
14.0371
 21
147.807
  0
LINE
  8
0
 10
14.0371
 20
147.807
 11
14.0143
 21
147.89
  0
LINE
  8
0
 10
14.0143
 20
147.89
 11
13.9945
 21
147.974
  0
LINE
  8
0
 10
13.9945
 20
147.974
 11
13.9786
 21
148.058
  0
LINE
  8
0
 10
13.9786
 20
148.058
 11
13.9658
 21
148.143
  0
LINE
  8
0
 10
13.9658
 20
148.143
 11
13.9569
 21
148.228
  0
LINE
  8
0
 10
13.9569
 20
148.228
 11
13.9515
 21
148.314
  0
LINE
  8
0
 10
13.9515
 20
148.314
 11
13.9499
 21
148.4
  0
LINE
  8
0
 10
13.9499
 20
148.4
 11
13.9515
 21
148.486
  0
LINE
  8
0
 10
13.9515
 20
148.486
 11
13.9569
 21
148.571
  0
LINE
  8
0
 10
13.9569
 20
148.571
 11
13.9658
 21
148.657
  0
LINE
  8
0
 10
13.9658
 20
148.657
 11
13.9786
 21
148.742
  0
LINE
  8
0
 10
13.9786
 20
148.742
 11
13.9945
 21
148.826
  0
LINE
  8
0
 10
13.9945
 20
148.826
 11
14.0143
 21
148.91
  0
LINE
  8
0
 10
14.0143
 20
148.91
 11
14.0371
 21
148.992
  0
LINE
  8
0
 10
14.0371
 20
148.992
 11
14.0639
 21
149.074
  0
LINE
  8
0
 10
14.0639
 20
149.074
 11
14.0937
 21
149.154
  0
LINE
  8
0
 10
14.0937
 20
149.154
 11
14.127
 21
149.234
  0
LINE
  8
0
 10
14.127
 20
149.234
 11
14.1635
 21
149.311
  0
LINE
  8
0
 10
14.1635
 20
149.311
 11
14.2034
 21
149.387
  0
LINE
  8
0
 10
14.2034
 20
149.387
 11
14.2464
 21
149.462
  0
LINE
  8
0
 10
14.2464
 20
149.462
 11
14.2922
 21
149.534
  0
LINE
  8
0
 10
14.2922
 20
149.534
 11
14.3414
 21
149.605
  0
LINE
  8
0
 10
14.3414
 20
149.605
 11
14.3933
 21
149.673
  0
LINE
  8
0
 10
14.3933
 20
149.673
 11
14.448
 21
149.739
  0
LINE
  8
0
 10
14.448
 20
149.739
 11
14.5053
 21
149.803
  0
LINE
  8
0
 10
14.5053
 20
149.803
 11
14.5654
 21
149.864
  0
LINE
  8
0
 10
14.5654
 20
149.864
 11
14.6282
 21
149.923
  0
LINE
  8
0
 10
14.6282
 20
149.923
 11
14.6929
 21
149.979
  0
LINE
  8
0
 10
14.6929
 20
149.979
 11
14.7603
 21
150.033
  0
LINE
  8
0
 10
14.7603
 20
150.033
 11
14.8297
 21
150.083
  0
LINE
  8
0
 10
14.8297
 20
150.083
 11
14.9014
 21
150.131
  0
LINE
  8
0
 10
14.9014
 20
150.131
 11
14.9747
 21
150.175
  0
LINE
  8
0
 10
14.9747
 20
150.175
 11
15.0499
 21
150.216
  0
LINE
  8
0
 10
15.0499
 20
150.216
 11
15.127
 21
150.255
  0
LINE
  8
0
 10
15.127
 20
150.255
 11
15.2053
 21
150.29
  0
LINE
  8
0
 10
15.2053
 20
150.29
 11
15.2851
 21
150.321
  0
LINE
  8
0
 10
15.2851
 20
150.321
 11
15.3661
 21
150.349
  0
LINE
  8
0
 10
15.3661
 20
150.349
 11
15.4487
 21
150.374
  0
LINE
  8
0
 10
15.4487
 20
150.374
 11
15.5316
 21
150.395
  0
LINE
  8
0
 10
15.5316
 20
150.395
 11
15.6157
 21
150.414
  0
LINE
  8
0
 10
15.6157
 20
150.414
 11
15.7002
 21
150.428
  0
LINE
  8
0
 10
15.7002
 20
150.428
 11
15.7855
 21
150.438
  0
LINE
  8
0
 10
15.7855
 20
150.438
 11
15.8711
 21
150.446
  0
LINE
  8
0
 10
15.8711
 20
150.446
 11
15.9568
 21
150.449
  0
LINE
  8
0
 10
15.9568
 20
150.449
 11
16.0428
 21
150.449
  0
LINE
  8
0
 10
16.0428
 20
150.449
 11
16.1285
 21
150.446
  0
LINE
  8
0
 10
16.1285
 20
150.446
 11
16.2141
 21
150.438
  0
LINE
  8
0
 10
16.2141
 20
150.438
 11
16.2994
 21
150.428
  0
LINE
  8
0
 10
16.2994
 20
150.428
 11
16.3839
 21
150.414
  0
LINE
  8
0
 10
16.3839
 20
150.414
 11
16.468
 21
150.395
  0
LINE
  8
0
 10
16.468
 20
150.395
 11
16.5509
 21
150.374
  0
LINE
  8
0
 10
16.5509
 20
150.374
 11
16.6331
 21
150.349
  0
LINE
  8
0
 10
16.6331
 20
150.349
 11
16.7145
 21
150.321
  0
LINE
  8
0
 10
16.7145
 20
150.321
 11
16.7943
 21
150.29
  0
LINE
  8
0
 10
16.7943
 20
150.29
 11
16.8726
 21
150.255
  0
LINE
  8
0
 10
16.8726
 20
150.255
 11
16.9497
 21
150.216
  0
LINE
  8
0
 10
16.9497
 20
150.216
 11
17.0249
 21
150.175
  0
LINE
  8
0
 10
17.0249
 20
150.175
 11
17.0982
 21
150.131
  0
LINE
  8
0
 10
17.0982
 20
150.131
 11
17.1699
 21
150.083
  0
LINE
  8
0
 10
17.1699
 20
150.083
 11
17.2393
 21
150.033
  0
LINE
  8
0
 10
17.2393
 20
150.033
 11
17.3067
 21
149.979
  0
LINE
  8
0
 10
17.3067
 20
149.979
 11
17.3714
 21
149.923
  0
LINE
  8
0
 10
17.3714
 20
149.923
 11
17.4342
 21
149.864
  0
LINE
  8
0
 10
17.4342
 20
149.864
 11
17.4943
 21
149.803
  0
LINE
  8
0
 10
17.4943
 20
149.803
 11
17.5516
 21
149.739
  0
LINE
  8
0
 10
17.5516
 20
149.739
 11
17.6063
 21
149.673
  0
LINE
  8
0
 10
17.6063
 20
149.673
 11
17.6582
 21
149.605
  0
LINE
  8
0
 10
17.6582
 20
149.605
 11
17.7074
 21
149.534
  0
LINE
  8
0
 10
17.7074
 20
149.534
 11
17.7532
 21
149.462
  0
LINE
  8
0
 10
17.7532
 20
149.462
 11
17.7962
 21
149.387
  0
LINE
  8
0
 10
17.7962
 20
149.387
 11
17.8361
 21
149.311
  0
LINE
  8
0
 10
17.8361
 20
149.311
 11
17.8726
 21
149.234
  0
LINE
  8
0
 10
17.8726
 20
149.234
 11
17.9059
 21
149.154
  0
LINE
  8
0
 10
17.9059
 20
149.154
 11
17.9357
 21
149.074
  0
LINE
  8
0
 10
17.9357
 20
149.074
 11
17.9625
 21
148.992
  0
LINE
  8
0
 10
17.9625
 20
148.992
 11
17.9853
 21
148.91
  0
LINE
  8
0
 10
17.9853
 20
148.91
 11
18.0051
 21
148.826
  0
LINE
  8
0
 10
18.0051
 20
148.826
 11
18.021
 21
148.742
  0
LINE
  8
0
 10
18.021
 20
148.742
 11
18.0338
 21
148.657
  0
LINE
  8
0
 10
18.0338
 20
148.657
 11
18.0427
 21
148.571
  0
LINE
  8
0
 10
18.0427
 20
148.571
 11
18.0481
 21
148.486
  0
LINE
  8
0
 10
18.0481
 20
148.486
 11
18.0497
 21
148.4
  0
LINE
  8
0
 10
18.0497
 20
148.4
 11
18.0481
 21
148.314
  0
LINE
  8
0
 10
18.0481
 20
148.314
 11
18.0427
 21
148.228
  0
LINE
  8
0
 10
18.0427
 20
148.228
 11
18.0338
 21
148.143
  0
LINE
  8
0
 10
18.0338
 20
148.143
 11
18.021
 21
148.058
  0
LINE
  8
0
 10
18.021
 20
148.058
 11
18.0051
 21
147.974
  0
LINE
  8
0
 10
18.0051
 20
147.974
 11
17.9853
 21
147.89
  0
LINE
  8
0
 10
17.9853
 20
147.89
 11
17.9625
 21
147.807
  0
LINE
  8
0
 10
17.9625
 20
147.807
 11
17.9357
 21
147.725
  0
LINE
  8
0
 10
17.9357
 20
147.725
 11
17.9059
 21
147.645
  0
LINE
  8
0
 10
17.9059
 20
147.645
 11
17.8726
 21
147.566
  0
LINE
  8
0
 10
17.8726
 20
147.566
 11
17.8361
 21
147.488
  0
LINE
  8
0
 10
17.8361
 20
147.488
 11
17.7962
 21
147.412
  0
LINE
  8
0
 10
17.7962
 20
147.412
 11
17.7532
 21
147.338
  0
LINE
  8
0
 10
17.7532
 20
147.338
 11
17.7074
 21
147.265
  0
LINE
  8
0
 10
17.7074
 20
147.265
 11
17.6582
 21
147.195
  0
LINE
  8
0
 10
17.6582
 20
147.195
 11
17.6063
 21
147.126
  0
LINE
  8
0
 10
17.6063
 20
147.126
 11
17.5516
 21
147.06
  0
LINE
  8
0
 10
17.5516
 20
147.06
 11
17.4943
 21
146.996
  0
LINE
  8
0
 10
17.4943
 20
146.996
 11
17.4342
 21
146.935
  0
LINE
  8
0
 10
17.4342
 20
146.935
 11
17.3714
 21
146.876
  0
LINE
  8
0
 10
17.3714
 20
146.876
 11
17.3067
 21
146.82
  0
LINE
  8
0
 10
17.3067
 20
146.82
 11
17.2393
 21
146.767
  0
LINE
  8
0
 10
17.2393
 20
146.767
 11
17.1699
 21
146.717
  0
LINE
  8
0
 10
17.1699
 20
146.717
 11
17.0982
 21
146.669
  0
LINE
  8
0
 10
17.0982
 20
146.669
 11
17.0249
 21
146.624
  0
LINE
  8
0
 10
17.0249
 20
146.624
 11
16.9497
 21
146.583
  0
LINE
  8
0
 10
16.9497
 20
146.583
 11
16.8726
 21
146.545
  0
LINE
  8
0
 10
16.8726
 20
146.545
 11
16.7943
 21
146.51
  0
LINE
  8
0
 10
16.7943
 20
146.51
 11
16.7145
 21
146.478
  0
LINE
  8
0
 10
16.7145
 20
146.478
 11
16.6331
 21
146.45
  0
LINE
  8
0
 10
16.6331
 20
146.45
 11
16.5509
 21
146.425
  0
LINE
  8
0
 10
16.5509
 20
146.425
 11
16.468
 21
146.404
  0
LINE
  8
0
 10
16.468
 20
146.404
 11
16.3839
 21
146.386
  0
LINE
  8
0
 10
16.3839
 20
146.386
 11
16.2994
 21
146.372
  0
LINE
  8
0
 10
16.2994
 20
146.372
 11
16.2141
 21
146.361
  0
LINE
  8
0
 10
16.2141
 20
146.361
 11
16.1285
 21
146.354
  0
LINE
  8
0
 10
16.1285
 20
146.354
 11
16.0428
 21
146.35
  0
LINE
  8
0
 10
16.0428
 20
146.35
 11
15.9568
 21
146.35
  0
LINE
  8
0
 10
-0.0426331
 20
146.35
 11
-0.128674
 21
146.354
  0
LINE
  8
0
 10
-0.128674
 20
146.354
 11
-0.21394
 21
146.361
  0
LINE
  8
0
 10
-0.21394
 20
146.361
 11
-0.299207
 21
146.372
  0
LINE
  8
0
 10
-0.299207
 20
146.372
 11
-0.384085
 21
146.386
  0
LINE
  8
0
 10
-0.384085
 20
146.386
 11
-0.467801
 21
146.404
  0
LINE
  8
0
 10
-0.467801
 20
146.404
 11
-0.551129
 21
146.425
  0
LINE
  8
0
 10
-0.551129
 20
146.425
 11
-0.633295
 21
146.45
  0
LINE
  8
0
 10
-0.633295
 20
146.45
 11
-0.714297
 21
146.478
  0
LINE
  8
0
 10
-0.714297
 20
146.478
 11
-0.794138
 21
146.51
  0
LINE
  8
0
 10
-0.794138
 20
146.51
 11
-0.872815
 21
146.545
  0
LINE
  8
0
 10
-0.872815
 20
146.545
 11
-0.949554
 21
146.583
  0
LINE
  8
0
 10
-0.949554
 20
146.583
 11
-1.02474
 21
146.624
  0
LINE
  8
0
 10
-1.02474
 20
146.624
 11
-1.09838
 21
146.669
  0
LINE
  8
0
 10
-1.09838
 20
146.669
 11
-1.1697
 21
146.717
  0
LINE
  8
0
 10
-1.1697
 20
146.717
 11
-1.23907
 21
146.767
  0
LINE
  8
0
 10
-1.23907
 20
146.767
 11
-1.30651
 21
146.82
  0
LINE
  8
0
 10
-1.30651
 20
146.82
 11
-1.37162
 21
146.876
  0
LINE
  8
0
 10
-1.37162
 20
146.876
 11
-1.43402
 21
146.935
  0
LINE
  8
0
 10
-1.43402
 20
146.935
 11
-1.49409
 21
146.996
  0
LINE
  8
0
 10
-1.49409
 20
146.996
 11
-1.55184
 21
147.06
  0
LINE
  8
0
 10
-1.55184
 20
147.06
 11
-1.60649
 21
147.126
  0
LINE
  8
0
 10
-1.60649
 20
147.126
 11
-1.65843
 21
147.195
  0
LINE
  8
0
 10
-1.65843
 20
147.195
 11
-1.70726
 21
147.265
  0
LINE
  8
0
 10
-1.70726
 20
147.265
 11
-1.75338
 21
147.338
  0
LINE
  8
0
 10
-1.75338
 20
147.338
 11
-1.7964
 21
147.412
  0
LINE
  8
0
 10
-1.7964
 20
147.412
 11
-1.83593
 21
147.488
  0
LINE
  8
0
 10
-1.83593
 20
147.488
 11
-1.87275
 21
147.566
  0
LINE
  8
0
 10
-1.87275
 20
147.566
 11
-1.9057
 21
147.645
  0
LINE
  8
0
 10
-1.9057
 20
147.645
 11
-1.93593
 21
147.725
  0
LINE
  8
0
 10
-1.93593
 20
147.725
 11
-1.96228
 21
147.807
  0
LINE
  8
0
 10
-1.96228
 20
147.807
 11
-1.98554
 21
147.89
  0
LINE
  8
0
 10
-1.98554
 20
147.89
 11
-2.00492
 21
147.974
  0
LINE
  8
0
 10
-2.00492
 20
147.974
 11
-2.02119
 21
148.058
  0
LINE
  8
0
 10
-2.02119
 20
148.058
 11
-2.0336
 21
148.143
  0
LINE
  8
0
 10
-2.0336
 20
148.143
 11
-2.04251
 21
148.228
  0
LINE
  8
0
 10
-2.04251
 20
148.228
 11
-2.04794
 21
148.314
  0
LINE
  8
0
 10
-2.04794
 20
148.314
 11
-2.04987
 21
148.4
  0
LINE
  8
0
 10
-2.04987
 20
148.4
 11
-2.04794
 21
148.486
  0
LINE
  8
0
 10
-2.04794
 20
148.486
 11
-2.04251
 21
148.571
  0
LINE
  8
0
 10
-2.04251
 20
148.571
 11
-2.0336
 21
148.657
  0
LINE
  8
0
 10
-2.0336
 20
148.657
 11
-2.02119
 21
148.742
  0
LINE
  8
0
 10
-2.02119
 20
148.742
 11
-2.00492
 21
148.826
  0
LINE
  8
0
 10
-2.00492
 20
148.826
 11
-1.98554
 21
148.91
  0
LINE
  8
0
 10
-1.98554
 20
148.91
 11
-1.96228
 21
148.992
  0
LINE
  8
0
 10
-1.96228
 20
148.992
 11
-1.93593
 21
149.074
  0
LINE
  8
0
 10
-1.93593
 20
149.074
 11
-1.9057
 21
149.154
  0
LINE
  8
0
 10
-1.9057
 20
149.154
 11
-1.87275
 21
149.234
  0
LINE
  8
0
 10
-1.87275
 20
149.234
 11
-1.83593
 21
149.311
  0
LINE
  8
0
 10
-1.83593
 20
149.311
 11
-1.7964
 21
149.387
  0
LINE
  8
0
 10
-1.7964
 20
149.387
 11
-1.75338
 21
149.462
  0
LINE
  8
0
 10
-1.75338
 20
149.462
 11
-1.70726
 21
149.534
  0
LINE
  8
0
 10
-1.70726
 20
149.534
 11
-1.65843
 21
149.605
  0
LINE
  8
0
 10
-1.65843
 20
149.605
 11
-1.60649
 21
149.673
  0
LINE
  8
0
 10
-1.60649
 20
149.673
 11
-1.55184
 21
149.739
  0
LINE
  8
0
 10
-1.55184
 20
149.739
 11
-1.49409
 21
149.803
  0
LINE
  8
0
 10
-1.49409
 20
149.803
 11
-1.43402
 21
149.864
  0
LINE
  8
0
 10
-1.43402
 20
149.864
 11
-1.37162
 21
149.923
  0
LINE
  8
0
 10
-1.37162
 20
149.923
 11
-1.30651
 21
149.979
  0
LINE
  8
0
 10
-1.30651
 20
149.979
 11
-1.23907
 21
150.033
  0
LINE
  8
0
 10
-1.23907
 20
150.033
 11
-1.1697
 21
150.083
  0
LINE
  8
0
 10
-1.1697
 20
150.083
 11
-1.09838
 21
150.131
  0
LINE
  8
0
 10
-1.09838
 20
150.131
 11
-1.02474
 21
150.175
  0
LINE
  8
0
 10
-1.02474
 20
150.175
 11
-0.949554
 21
150.216
  0
LINE
  8
0
 10
-0.949554
 20
150.216
 11
-0.872815
 21
150.255
  0
LINE
  8
0
 10
-0.872815
 20
150.255
 11
-0.794138
 21
150.29
  0
LINE
  8
0
 10
-0.794138
 20
150.29
 11
-0.714297
 21
150.321
  0
LINE
  8
0
 10
-0.714297
 20
150.321
 11
-0.633295
 21
150.349
  0
LINE
  8
0
 10
-0.633295
 20
150.349
 11
-0.551129
 21
150.374
  0
LINE
  8
0
 10
-0.551129
 20
150.374
 11
-0.467801
 21
150.395
  0
LINE
  8
0
 10
-0.467801
 20
150.395
 11
-0.384085
 21
150.414
  0
LINE
  8
0
 10
-0.384085
 20
150.414
 11
-0.299207
 21
150.428
  0
LINE
  8
0
 10
-0.299207
 20
150.428
 11
-0.21394
 21
150.438
  0
LINE
  8
0
 10
-0.21394
 20
150.438
 11
-0.128674
 21
150.446
  0
LINE
  8
0
 10
-0.128674
 20
150.446
 11
-0.0426331
 21
150.449
  0
LINE
  8
0
 10
-0.0426331
 20
150.449
 11
0.0426331
 21
150.449
  0
LINE
  8
0
 10
0.0426331
 20
150.449
 11
0.128674
 21
150.446
  0
LINE
  8
0
 10
0.128674
 20
150.446
 11
0.21394
 21
150.438
  0
LINE
  8
0
 10
0.21394
 20
150.438
 11
0.299207
 21
150.428
  0
LINE
  8
0
 10
0.299207
 20
150.428
 11
0.384085
 21
150.414
  0
LINE
  8
0
 10
0.384085
 20
150.414
 11
0.467801
 21
150.395
  0
LINE
  8
0
 10
0.467801
 20
150.395
 11
0.551129
 21
150.374
  0
LINE
  8
0
 10
0.551129
 20
150.374
 11
0.633295
 21
150.349
  0
LINE
  8
0
 10
0.633295
 20
150.349
 11
0.714297
 21
150.321
  0
LINE
  8
0
 10
0.714297
 20
150.321
 11
0.794138
 21
150.29
  0
LINE
  8
0
 10
0.794138
 20
150.29
 11
0.872815
 21
150.255
  0
LINE
  8
0
 10
0.872815
 20
150.255
 11
0.949554
 21
150.216
  0
LINE
  8
0
 10
0.949554
 20
150.216
 11
1.02474
 21
150.175
  0
LINE
  8
0
 10
1.02474
 20
150.175
 11
1.09838
 21
150.131
  0
LINE
  8
0
 10
1.09838
 20
150.131
 11
1.1697
 21
150.083
  0
LINE
  8
0
 10
1.1697
 20
150.083
 11
1.23907
 21
150.033
  0
LINE
  8
0
 10
1.23907
 20
150.033
 11
1.30651
 21
149.979
  0
LINE
  8
0
 10
1.30651
 20
149.979
 11
1.37162
 21
149.923
  0
LINE
  8
0
 10
1.37162
 20
149.923
 11
1.43402
 21
149.864
  0
LINE
  8
0
 10
1.43402
 20
149.864
 11
1.49409
 21
149.803
  0
LINE
  8
0
 10
1.49409
 20
149.803
 11
1.55146
 21
149.739
  0
LINE
  8
0
 10
1.55146
 20
149.739
 11
1.60649
 21
149.673
  0
LINE
  8
0
 10
1.60649
 20
149.673
 11
1.65843
 21
149.605
  0
LINE
  8
0
 10
1.65843
 20
149.605
 11
1.70726
 21
149.534
  0
LINE
  8
0
 10
1.70726
 20
149.534
 11
1.75338
 21
149.462
  0
LINE
  8
0
 10
1.75338
 20
149.462
 11
1.7964
 21
149.387
  0
LINE
  8
0
 10
1.7964
 20
149.387
 11
1.83593
 21
149.311
  0
LINE
  8
0
 10
1.83593
 20
149.311
 11
1.87275
 21
149.234
  0
LINE
  8
0
 10
1.87275
 20
149.234
 11
1.9057
 21
149.154
  0
LINE
  8
0
 10
1.9057
 20
149.154
 11
1.93593
 21
149.074
  0
LINE
  8
0
 10
1.93593
 20
149.074
 11
1.96228
 21
148.992
  0
LINE
  8
0
 10
1.96228
 20
148.992
 11
1.98554
 21
148.91
  0
LINE
  8
0
 10
1.98554
 20
148.91
 11
2.00492
 21
148.826
  0
LINE
  8
0
 10
2.00492
 20
148.826
 11
2.02119
 21
148.742
  0
LINE
  8
0
 10
2.02119
 20
148.742
 11
2.0336
 21
148.657
  0
LINE
  8
0
 10
2.0336
 20
148.657
 11
2.04251
 21
148.571
  0
LINE
  8
0
 10
2.04251
 20
148.571
 11
2.04794
 21
148.486
  0
LINE
  8
0
 10
2.04794
 20
148.486
 11
2.04987
 21
148.4
  0
LINE
  8
0
 10
2.04987
 20
148.4
 11
2.04794
 21
148.314
  0
LINE
  8
0
 10
2.04794
 20
148.314
 11
2.04251
 21
148.228
  0
LINE
  8
0
 10
2.04251
 20
148.228
 11
2.0336
 21
148.143
  0
LINE
  8
0
 10
2.0336
 20
148.143
 11
2.02119
 21
148.058
  0
LINE
  8
0
 10
2.02119
 20
148.058
 11
2.00492
 21
147.974
  0
LINE
  8
0
 10
2.00492
 20
147.974
 11
1.98554
 21
147.89
  0
LINE
  8
0
 10
1.98554
 20
147.89
 11
1.96228
 21
147.807
  0
LINE
  8
0
 10
1.96228
 20
147.807
 11
1.93593
 21
147.725
  0
LINE
  8
0
 10
1.93593
 20
147.725
 11
1.9057
 21
147.645
  0
LINE
  8
0
 10
1.9057
 20
147.645
 11
1.87275
 21
147.566
  0
LINE
  8
0
 10
1.87275
 20
147.566
 11
1.83593
 21
147.488
  0
LINE
  8
0
 10
1.83593
 20
147.488
 11
1.7964
 21
147.412
  0
LINE
  8
0
 10
1.7964
 20
147.412
 11
1.75338
 21
147.338
  0
LINE
  8
0
 10
1.75338
 20
147.338
 11
1.70726
 21
147.265
  0
LINE
  8
0
 10
1.70726
 20
147.265
 11
1.65843
 21
147.195
  0
LINE
  8
0
 10
1.65843
 20
147.195
 11
1.60649
 21
147.126
  0
LINE
  8
0
 10
1.60649
 20
147.126
 11
1.55146
 21
147.06
  0
LINE
  8
0
 10
1.55146
 20
147.06
 11
1.49409
 21
146.996
  0
LINE
  8
0
 10
1.49409
 20
146.996
 11
1.43402
 21
146.935
  0
LINE
  8
0
 10
1.43402
 20
146.935
 11
1.37162
 21
146.876
  0
LINE
  8
0
 10
1.37162
 20
146.876
 11
1.30651
 21
146.82
  0
LINE
  8
0
 10
1.30651
 20
146.82
 11
1.23907
 21
146.767
  0
LINE
  8
0
 10
1.23907
 20
146.767
 11
1.1697
 21
146.717
  0
LINE
  8
0
 10
1.1697
 20
146.717
 11
1.09838
 21
146.669
  0
LINE
  8
0
 10
1.09838
 20
146.669
 11
1.02474
 21
146.624
  0
LINE
  8
0
 10
1.02474
 20
146.624
 11
0.949554
 21
146.583
  0
LINE
  8
0
 10
0.949554
 20
146.583
 11
0.872815
 21
146.545
  0
LINE
  8
0
 10
0.872815
 20
146.545
 11
0.794138
 21
146.51
  0
LINE
  8
0
 10
0.794138
 20
146.51
 11
0.714297
 21
146.478
  0
LINE
  8
0
 10
0.714297
 20
146.478
 11
0.633295
 21
146.45
  0
LINE
  8
0
 10
0.633295
 20
146.45
 11
0.551129
 21
146.425
  0
LINE
  8
0
 10
0.551129
 20
146.425
 11
0.467801
 21
146.404
  0
LINE
  8
0
 10
0.467801
 20
146.404
 11
0.384085
 21
146.386
  0
LINE
  8
0
 10
0.384085
 20
146.386
 11
0.299207
 21
146.372
  0
LINE
  8
0
 10
0.299207
 20
146.372
 11
0.21394
 21
146.361
  0
LINE
  8
0
 10
0.21394
 20
146.361
 11
0.128674
 21
146.354
  0
LINE
  8
0
 10
0.128674
 20
146.354
 11
0.0426331
 21
146.35
  0
LINE
  8
0
 10
0.0426331
 20
146.35
 11
-0.0426331
 21
146.35
  0
LINE
  8
0
 10
-8.04292
 20
146.35
 11
-8.12857
 21
146.354
  0
LINE
  8
0
 10
-8.12857
 20
146.354
 11
-8.21423
 21
146.361
  0
LINE
  8
0
 10
-8.21423
 20
146.361
 11
-8.29911
 21
146.372
  0
LINE
  8
0
 10
-8.29911
 20
146.372
 11
-8.38398
 21
146.386
  0
LINE
  8
0
 10
-8.38398
 20
146.386
 11
-8.46809
 21
146.404
  0
LINE
  8
0
 10
-8.46809
 20
146.404
 11
-8.55103
 21
146.425
  0
LINE
  8
0
 10
-8.55103
 20
146.425
 11
-8.63319
 21
146.45
  0
LINE
  8
0
 10
-8.63319
 20
146.45
 11
-8.71458
 21
146.478
  0
LINE
  8
0
 10
-8.71458
 20
146.478
 11
-8.79442
 21
146.51
  0
LINE
  8
0
 10
-8.79442
 20
146.51
 11
-8.87271
 21
146.545
  0
LINE
  8
0
 10
-8.87271
 20
146.545
 11
-8.94945
 21
146.583
  0
LINE
  8
0
 10
-8.94945
 20
146.583
 11
-9.02464
 21
146.624
  0
LINE
  8
0
 10
-9.02464
 20
146.624
 11
-9.09828
 21
146.669
  0
LINE
  8
0
 10
-9.09828
 20
146.669
 11
-9.1696
 21
146.717
  0
LINE
  8
0
 10
-9.1696
 20
146.717
 11
-9.23936
 21
146.767
  0
LINE
  8
0
 10
-9.23936
 20
146.767
 11
-9.30641
 21
146.82
  0
LINE
  8
0
 10
-9.30641
 20
146.82
 11
-9.37152
 21
146.876
  0
LINE
  8
0
 10
-9.37152
 20
146.876
 11
-9.43431
 21
146.935
  0
LINE
  8
0
 10
-9.43431
 20
146.935
 11
-9.49438
 21
146.996
  0
LINE
  8
0
 10
-9.49438
 20
146.996
 11
-9.55174
 21
147.06
  0
LINE
  8
0
 10
-9.55174
 20
147.06
 11
-9.60639
 21
147.126
  0
LINE
  8
0
 10
-9.60639
 20
147.126
 11
-9.65833
 21
147.195
  0
LINE
  8
0
 10
-9.65833
 20
147.195
 11
-9.70716
 21
147.265
  0
LINE
  8
0
 10
-9.70716
 20
147.265
 11
-9.75328
 21
147.338
  0
LINE
  8
0
 10
-9.75328
 20
147.338
 11
-9.7963
 21
147.412
  0
LINE
  8
0
 10
-9.7963
 20
147.412
 11
-9.83622
 21
147.488
  0
LINE
  8
0
 10
-9.83622
 20
147.488
 11
-9.87265
 21
147.566
  0
LINE
  8
0
 10
-9.87265
 20
147.566
 11
-9.90598
 21
147.645
  0
LINE
  8
0
 10
-9.90598
 20
147.645
 11
-9.93583
 21
147.725
  0
LINE
  8
0
 10
-9.93583
 20
147.725
 11
-9.96218
 21
147.807
  0
LINE
  8
0
 10
-9.96218
 20
147.807
 11
-9.98544
 21
147.89
  0
LINE
  8
0
 10
-9.98544
 20
147.89
 11
-10.0052
 21
147.974
  0
LINE
  8
0
 10
-10.0052
 20
147.974
 11
-10.0211
 21
148.058
  0
LINE
  8
0
 10
-10.0211
 20
148.058
 11
-10.0335
 21
148.143
  0
LINE
  8
0
 10
-10.0335
 20
148.143
 11
-10.0428
 21
148.228
  0
LINE
  8
0
 10
-10.0428
 20
148.228
 11
-10.0478
 21
148.314
  0
LINE
  8
0
 10
-10.0478
 20
148.314
 11
-10.0498
 21
148.4
  0
LINE
  8
0
 10
-10.0498
 20
148.4
 11
-10.0478
 21
148.486
  0
LINE
  8
0
 10
-10.0478
 20
148.486
 11
-10.0428
 21
148.571
  0
LINE
  8
0
 10
-10.0428
 20
148.571
 11
-10.0335
 21
148.657
  0
LINE
  8
0
 10
-10.0335
 20
148.657
 11
-10.0211
 21
148.742
  0
LINE
  8
0
 10
-10.0211
 20
148.742
 11
-10.0052
 21
148.826
  0
LINE
  8
0
 10
-10.0052
 20
148.826
 11
-9.98544
 21
148.91
  0
LINE
  8
0
 10
-9.98544
 20
148.91
 11
-9.96218
 21
148.992
  0
LINE
  8
0
 10
-9.96218
 20
148.992
 11
-9.93583
 21
149.074
  0
LINE
  8
0
 10
-9.93583
 20
149.074
 11
-9.90598
 21
149.154
  0
LINE
  8
0
 10
-9.90598
 20
149.154
 11
-9.87265
 21
149.234
  0
LINE
  8
0
 10
-9.87265
 20
149.234
 11
-9.83622
 21
149.311
  0
LINE
  8
0
 10
-9.83622
 20
149.311
 11
-9.7963
 21
149.387
  0
LINE
  8
0
 10
-9.7963
 20
149.387
 11
-9.75328
 21
149.462
  0
LINE
  8
0
 10
-9.75328
 20
149.462
 11
-9.70716
 21
149.534
  0
LINE
  8
0
 10
-9.70716
 20
149.534
 11
-9.65833
 21
149.605
  0
LINE
  8
0
 10
-9.65833
 20
149.605
 11
-9.60639
 21
149.673
  0
LINE
  8
0
 10
-9.60639
 20
149.673
 11
-9.55174
 21
149.739
  0
LINE
  8
0
 10
-9.55174
 20
149.739
 11
-9.49438
 21
149.803
  0
LINE
  8
0
 10
-9.49438
 20
149.803
 11
-9.43431
 21
149.864
  0
LINE
  8
0
 10
-9.43431
 20
149.864
 11
-9.37152
 21
149.923
  0
LINE
  8
0
 10
-9.37152
 20
149.923
 11
-9.30641
 21
149.979
  0
LINE
  8
0
 10
-9.30641
 20
149.979
 11
-9.23936
 21
150.033
  0
LINE
  8
0
 10
-9.23936
 20
150.033
 11
-9.1696
 21
150.083
  0
LINE
  8
0
 10
-9.1696
 20
150.083
 11
-9.09828
 21
150.131
  0
LINE
  8
0
 10
-9.09828
 20
150.131
 11
-9.02464
 21
150.175
  0
LINE
  8
0
 10
-9.02464
 20
150.175
 11
-8.94945
 21
150.216
  0
LINE
  8
0
 10
-8.94945
 20
150.216
 11
-8.87271
 21
150.255
  0
LINE
  8
0
 10
-8.87271
 20
150.255
 11
-8.79442
 21
150.29
  0
LINE
  8
0
 10
-8.79442
 20
150.29
 11
-8.71458
 21
150.321
  0
LINE
  8
0
 10
-8.71458
 20
150.321
 11
-8.63319
 21
150.349
  0
LINE
  8
0
 10
-8.63319
 20
150.349
 11
-8.55103
 21
150.374
  0
LINE
  8
0
 10
-8.55103
 20
150.374
 11
-8.46809
 21
150.395
  0
LINE
  8
0
 10
-8.46809
 20
150.395
 11
-8.38398
 21
150.414
  0
LINE
  8
0
 10
-8.38398
 20
150.414
 11
-8.29911
 21
150.428
  0
LINE
  8
0
 10
-8.29911
 20
150.428
 11
-8.21423
 21
150.438
  0
LINE
  8
0
 10
-8.21423
 20
150.438
 11
-8.12857
 21
150.446
  0
LINE
  8
0
 10
-8.12857
 20
150.446
 11
-8.04292
 21
150.449
  0
LINE
  8
0
 10
-8.04292
 20
150.449
 11
-7.95688
 21
150.449
  0
LINE
  8
0
 10
-7.95688
 20
150.449
 11
-7.87122
 21
150.446
  0
LINE
  8
0
 10
-7.87122
 20
150.446
 11
-7.78557
 21
150.438
  0
LINE
  8
0
 10
-7.78557
 20
150.438
 11
-7.70031
 21
150.428
  0
LINE
  8
0
 10
-7.70031
 20
150.428
 11
-7.61581
 21
150.414
  0
LINE
  8
0
 10
-7.61581
 20
150.414
 11
-7.53171
 21
150.395
  0
LINE
  8
0
 10
-7.53171
 20
150.395
 11
-7.44838
 21
150.374
  0
LINE
  8
0
 10
-7.44838
 20
150.374
 11
-7.36622
 21
150.349
  0
LINE
  8
0
 10
-7.36622
 20
150.349
 11
-7.28521
 21
150.321
  0
LINE
  8
0
 10
-7.28521
 20
150.321
 11
-7.20537
 21
150.29
  0
LINE
  8
0
 10
-7.20537
 20
150.29
 11
-7.12708
 21
150.255
  0
LINE
  8
0
 10
-7.12708
 20
150.255
 11
-7.04996
 21
150.216
  0
LINE
  8
0
 10
-7.04996
 20
150.216
 11
-6.97477
 21
150.175
  0
LINE
  8
0
 10
-6.97477
 20
150.175
 11
-6.90152
 21
150.131
  0
LINE
  8
0
 10
-6.90152
 20
150.131
 11
-6.82982
 21
150.083
  0
LINE
  8
0
 10
-6.82982
 20
150.083
 11
-6.76044
 21
150.033
  0
LINE
  8
0
 10
-6.76044
 20
150.033
 11
-6.693
 21
149.979
  0
LINE
  8
0
 10
-6.693
 20
149.979
 11
-6.62828
 21
149.923
  0
LINE
  8
0
 10
-6.62828
 20
149.923
 11
-6.56549
 21
149.864
  0
LINE
  8
0
 10
-6.56549
 20
149.864
 11
-6.50542
 21
149.803
  0
LINE
  8
0
 10
-6.50542
 20
149.803
 11
-6.44806
 21
149.739
  0
LINE
  8
0
 10
-6.44806
 20
149.739
 11
-6.39341
 21
149.673
  0
LINE
  8
0
 10
-6.39341
 20
149.673
 11
-6.34147
 21
149.605
  0
LINE
  8
0
 10
-6.34147
 20
149.605
 11
-6.29225
 21
149.534
  0
LINE
  8
0
 10
-6.29225
 20
149.534
 11
-6.24613
 21
149.462
  0
LINE
  8
0
 10
-6.24613
 20
149.462
 11
-6.2035
 21
149.387
  0
LINE
  8
0
 10
-6.2035
 20
149.387
 11
-6.16358
 21
149.311
  0
LINE
  8
0
 10
-6.16358
 20
149.311
 11
-6.12715
 21
149.234
  0
LINE
  8
0
 10
-6.12715
 20
149.234
 11
-6.09381
 21
149.154
  0
LINE
  8
0
 10
-6.09381
 20
149.154
 11
-6.06397
 21
149.074
  0
LINE
  8
0
 10
-6.06397
 20
149.074
 11
-6.03723
 21
148.992
  0
LINE
  8
0
 10
-6.03723
 20
148.992
 11
-6.01436
 21
148.91
  0
LINE
  8
0
 10
-6.01436
 20
148.91
 11
-5.9946
 21
148.826
  0
LINE
  8
0
 10
-5.9946
 20
148.826
 11
-5.9787
 21
148.742
  0
LINE
  8
0
 10
-5.9787
 20
148.742
 11
-5.96591
 21
148.657
  0
LINE
  8
0
 10
-5.96591
 20
148.657
 11
-5.957
 21
148.571
  0
LINE
  8
0
 10
-5.957
 20
148.571
 11
-5.95157
 21
148.486
  0
LINE
  8
0
 10
-5.95157
 20
148.486
 11
-5.94964
 21
148.4
  0
LINE
  8
0
 10
-5.94964
 20
148.4
 11
-5.95157
 21
148.314
  0
LINE
  8
0
 10
-5.95157
 20
148.314
 11
-5.957
 21
148.228
  0
LINE
  8
0
 10
-5.957
 20
148.228
 11
-5.96591
 21
148.143
  0
LINE
  8
0
 10
-5.96591
 20
148.143
 11
-5.9787
 21
148.058
  0
LINE
  8
0
 10
-5.9787
 20
148.058
 11
-5.9946
 21
147.974
  0
LINE
  8
0
 10
-5.9946
 20
147.974
 11
-6.01436
 21
147.89
  0
LINE
  8
0
 10
-6.01436
 20
147.89
 11
-6.03723
 21
147.807
  0
LINE
  8
0
 10
-6.03723
 20
147.807
 11
-6.06397
 21
147.725
  0
LINE
  8
0
 10
-6.06397
 20
147.725
 11
-6.09381
 21
147.645
  0
LINE
  8
0
 10
-6.09381
 20
147.645
 11
-6.12715
 21
147.566
  0
LINE
  8
0
 10
-6.12715
 20
147.566
 11
-6.16358
 21
147.488
  0
LINE
  8
0
 10
-6.16358
 20
147.488
 11
-6.2035
 21
147.412
  0
LINE
  8
0
 10
-6.2035
 20
147.412
 11
-6.24613
 21
147.338
  0
LINE
  8
0
 10
-6.24613
 20
147.338
 11
-6.29225
 21
147.265
  0
LINE
  8
0
 10
-6.29225
 20
147.265
 11
-6.34147
 21
147.195
  0
LINE
  8
0
 10
-6.34147
 20
147.195
 11
-6.39341
 21
147.126
  0
LINE
  8
0
 10
-6.39341
 20
147.126
 11
-6.44806
 21
147.06
  0
LINE
  8
0
 10
-6.44806
 20
147.06
 11
-6.50542
 21
146.996
  0
LINE
  8
0
 10
-6.50542
 20
146.996
 11
-6.56549
 21
146.935
  0
LINE
  8
0
 10
-6.56549
 20
146.935
 11
-6.62828
 21
146.876
  0
LINE
  8
0
 10
-6.62828
 20
146.876
 11
-6.693
 21
146.82
  0
LINE
  8
0
 10
-6.693
 20
146.82
 11
-6.76044
 21
146.767
  0
LINE
  8
0
 10
-6.76044
 20
146.767
 11
-6.82982
 21
146.717
  0
LINE
  8
0
 10
-6.82982
 20
146.717
 11
-6.90152
 21
146.669
  0
LINE
  8
0
 10
-6.90152
 20
146.669
 11
-6.97477
 21
146.624
  0
LINE
  8
0
 10
-6.97477
 20
146.624
 11
-7.04996
 21
146.583
  0
LINE
  8
0
 10
-7.04996
 20
146.583
 11
-7.12708
 21
146.545
  0
LINE
  8
0
 10
-7.12708
 20
146.545
 11
-7.20537
 21
146.51
  0
LINE
  8
0
 10
-7.20537
 20
146.51
 11
-7.28521
 21
146.478
  0
LINE
  8
0
 10
-7.28521
 20
146.478
 11
-7.36622
 21
146.45
  0
LINE
  8
0
 10
-7.36622
 20
146.45
 11
-7.44838
 21
146.425
  0
LINE
  8
0
 10
-7.44838
 20
146.425
 11
-7.53171
 21
146.404
  0
LINE
  8
0
 10
-7.53171
 20
146.404
 11
-7.61581
 21
146.386
  0
LINE
  8
0
 10
-7.61581
 20
146.386
 11
-7.70031
 21
146.372
  0
LINE
  8
0
 10
-7.70031
 20
146.372
 11
-7.78557
 21
146.361
  0
LINE
  8
0
 10
-7.78557
 20
146.361
 11
-7.87122
 21
146.354
  0
LINE
  8
0
 10
-7.87122
 20
146.354
 11
-7.95688
 21
146.35
  0
LINE
  8
0
 10
-7.95688
 20
146.35
 11
-8.04292
 21
146.35
  0
LINE
  8
0
 10
-16.0428
 20
76.6903
 11
-16.1285
 21
76.6938
  0
LINE
  8
0
 10
-16.1285
 20
76.6938
 11
-16.2141
 21
76.7011
  0
LINE
  8
0
 10
-16.2141
 20
76.7011
 11
-16.2994
 21
76.712
  0
LINE
  8
0
 10
-16.2994
 20
76.712
 11
-16.3839
 21
76.7259
  0
LINE
  8
0
 10
-16.3839
 20
76.7259
 11
-16.468
 21
76.7442
  0
LINE
  8
0
 10
-16.468
 20
76.7442
 11
-16.5509
 21
76.7655
  0
LINE
  8
0
 10
-16.5509
 20
76.7655
 11
-16.6335
 21
76.7903
  0
LINE
  8
0
 10
-16.6335
 20
76.7903
 11
-16.7145
 21
76.8186
  0
LINE
  8
0
 10
-16.7145
 20
76.8186
 11
-16.7943
 21
76.85
  0
LINE
  8
0
 10
-16.7943
 20
76.85
 11
-16.8726
 21
76.8848
  0
LINE
  8
0
 10
-16.8726
 20
76.8848
 11
-16.9497
 21
76.9232
  0
LINE
  8
0
 10
-16.9497
 20
76.9232
 11
-17.0249
 21
76.9643
  0
LINE
  8
0
 10
-17.0249
 20
76.9643
 11
-17.0982
 21
77.0089
  0
LINE
  8
0
 10
-17.0982
 20
77.0089
 11
-17.1699
 21
77.0565
  0
LINE
  8
0
 10
-17.1699
 20
77.0565
 11
-17.2393
 21
77.1069
  0
LINE
  8
0
 10
-17.2393
 20
77.1069
 11
-17.3067
 21
77.1604
  0
LINE
  8
0
 10
-17.3067
 20
77.1604
 11
-17.3714
 21
77.2162
  0
LINE
  8
0
 10
-17.3714
 20
77.2162
 11
-17.4342
 21
77.2751
  0
LINE
  8
0
 10
-17.4342
 20
77.2751
 11
-17.4943
 21
77.3364
  0
LINE
  8
0
 10
-17.4943
 20
77.3364
 11
-17.5516
 21
77.4003
  0
LINE
  8
0
 10
-17.5516
 20
77.4003
 11
-17.6063
 21
77.4666
  0
LINE
  8
0
 10
-17.6063
 20
77.4666
 11
-17.6582
 21
77.5348
  0
LINE
  8
0
 10
-17.6582
 20
77.5348
 11
-17.7074
 21
77.6053
  0
LINE
  8
0
 10
-17.7074
 20
77.6053
 11
-17.7532
 21
77.6778
  0
LINE
  8
0
 10
-17.7532
 20
77.6778
 11
-17.7962
 21
77.7522
  0
LINE
  8
0
 10
-17.7962
 20
77.7522
 11
-17.8361
 21
77.8282
  0
LINE
  8
0
 10
-17.8361
 20
77.8282
 11
-17.8726
 21
77.9061
  0
LINE
  8
0
 10
-17.8726
 20
77.9061
 11
-17.9059
 21
77.9852
  0
LINE
  8
0
 10
-17.9059
 20
77.9852
 11
-17.9357
 21
78.0658
  0
LINE
  8
0
 10
-17.9357
 20
78.0658
 11
-17.9625
 21
78.1472
  0
LINE
  8
0
 10
-17.9625
 20
78.1472
 11
-17.9853
 21
78.2301
  0
LINE
  8
0
 10
-17.9853
 20
78.2301
 11
-18.0051
 21
78.3134
  0
LINE
  8
0
 10
-18.0051
 20
78.3134
 11
-18.021
 21
78.3979
  0
LINE
  8
0
 10
-18.021
 20
78.3979
 11
-18.0338
 21
78.4828
  0
LINE
  8
0
 10
-18.0338
 20
78.4828
 11
-18.0427
 21
78.5685
  0
LINE
  8
0
 10
-18.0427
 20
78.5685
 11
-18.0481
 21
78.6541
  0
LINE
  8
0
 10
-18.0481
 20
78.6541
 11
-18.0497
 21
78.7398
  0
LINE
  8
0
 10
-18.0497
 20
78.7398
 11
-18.0481
 21
78.8258
  0
LINE
  8
0
 10
-18.0481
 20
78.8258
 11
-18.0427
 21
78.9115
  0
LINE
  8
0
 10
-18.0427
 20
78.9115
 11
-18.0338
 21
78.9967
  0
LINE
  8
0
 10
-18.0338
 20
78.9967
 11
-18.021
 21
79.0816
  0
LINE
  8
0
 10
-18.021
 20
79.0816
 11
-18.0051
 21
79.1661
  0
LINE
  8
0
 10
-18.0051
 20
79.1661
 11
-17.9853
 21
79.2494
  0
LINE
  8
0
 10
-17.9853
 20
79.2494
 11
-17.9625
 21
79.3324
  0
LINE
  8
0
 10
-17.9625
 20
79.3324
 11
-17.9357
 21
79.4141
  0
LINE
  8
0
 10
-17.9357
 20
79.4141
 11
-17.9059
 21
79.4944
  0
LINE
  8
0
 10
-17.9059
 20
79.4944
 11
-17.8726
 21
79.5734
  0
LINE
  8
0
 10
-17.8726
 20
79.5734
 11
-17.8361
 21
79.6513
  0
LINE
  8
0
 10
-17.8361
 20
79.6513
 11
-17.7962
 21
79.7273
  0
LINE
  8
0
 10
-17.7962
 20
79.7273
 11
-17.7532
 21
79.8017
  0
LINE
  8
0
 10
-17.7532
 20
79.8017
 11
-17.7074
 21
79.8742
  0
LINE
  8
0
 10
-17.7074
 20
79.8742
 11
-17.6582
 21
79.9447
  0
LINE
  8
0
 10
-17.6582
 20
79.9447
 11
-17.6063
 21
80.0133
  0
LINE
  8
0
 10
-17.6063
 20
80.0133
 11
-17.5516
 21
80.0792
  0
LINE
  8
0
 10
-17.5516
 20
80.0792
 11
-17.4943
 21
80.1432
  0
LINE
  8
0
 10
-17.4943
 20
80.1432
 11
-17.4342
 21
80.2044
  0
LINE
  8
0
 10
-17.4342
 20
80.2044
 11
-17.3714
 21
80.2633
  0
LINE
  8
0
 10
-17.3714
 20
80.2633
 11
-17.3067
 21
80.3195
  0
LINE
  8
0
 10
-17.3067
 20
80.3195
 11
-17.2393
 21
80.3726
  0
LINE
  8
0
 10
-17.2393
 20
80.3726
 11
-17.1699
 21
80.423
  0
LINE
  8
0
 10
-17.1699
 20
80.423
 11
-17.0982
 21
80.4707
  0
LINE
  8
0
 10
-17.0982
 20
80.4707
 11
-17.0249
 21
80.5152
  0
LINE
  8
0
 10
-17.0249
 20
80.5152
 11
-16.9497
 21
80.5563
  0
LINE
  8
0
 10
-16.9497
 20
80.5563
 11
-16.8726
 21
80.5947
  0
LINE
  8
0
 10
-16.8726
 20
80.5947
 11
-16.7943
 21
80.6296
  0
LINE
  8
0
 10
-16.7943
 20
80.6296
 11
-16.7145
 21
80.6614
  0
LINE
  8
0
 10
-16.7145
 20
80.6614
 11
-16.6335
 21
80.6896
  0
LINE
  8
0
 10
-16.6335
 20
80.6896
 11
-16.5509
 21
80.7145
  0
LINE
  8
0
 10
-16.5509
 20
80.7145
 11
-16.468
 21
80.7358
  0
LINE
  8
0
 10
-16.468
 20
80.7358
 11
-16.3839
 21
80.7536
  0
LINE
  8
0
 10
-16.3839
 20
80.7536
 11
-16.2994
 21
80.7679
  0
LINE
  8
0
 10
-16.2994
 20
80.7679
 11
-16.2141
 21
80.7784
  0
LINE
  8
0
 10
-16.2141
 20
80.7784
 11
-16.1285
 21
80.7858
  0
LINE
  8
0
 10
-16.1285
 20
80.7858
 11
-16.0428
 21
80.7893
  0
LINE
  8
0
 10
-16.0428
 20
80.7893
 11
-15.9568
 21
80.7893
  0
LINE
  8
0
 10
-15.9568
 20
80.7893
 11
-15.8711
 21
80.7858
  0
LINE
  8
0
 10
-15.8711
 20
80.7858
 11
-15.7855
 21
80.7784
  0
LINE
  8
0
 10
-15.7855
 20
80.7784
 11
-15.7002
 21
80.7679
  0
LINE
  8
0
 10
-15.7002
 20
80.7679
 11
-15.6157
 21
80.7536
  0
LINE
  8
0
 10
-15.6157
 20
80.7536
 11
-15.5316
 21
80.7358
  0
LINE
  8
0
 10
-15.5316
 20
80.7358
 11
-15.4487
 21
80.7145
  0
LINE
  8
0
 10
-15.4487
 20
80.7145
 11
-15.3665
 21
80.6896
  0
LINE
  8
0
 10
-15.3665
 20
80.6896
 11
-15.2851
 21
80.6614
  0
LINE
  8
0
 10
-15.2851
 20
80.6614
 11
-15.2053
 21
80.6296
  0
LINE
  8
0
 10
-15.2053
 20
80.6296
 11
-15.127
 21
80.5947
  0
LINE
  8
0
 10
-15.127
 20
80.5947
 11
-15.0499
 21
80.5563
  0
LINE
  8
0
 10
-15.0499
 20
80.5563
 11
-14.9747
 21
80.5152
  0
LINE
  8
0
 10
-14.9747
 20
80.5152
 11
-14.9014
 21
80.4707
  0
LINE
  8
0
 10
-14.9014
 20
80.4707
 11
-14.8297
 21
80.423
  0
LINE
  8
0
 10
-14.8297
 20
80.423
 11
-14.7603
 21
80.3726
  0
LINE
  8
0
 10
-14.7603
 20
80.3726
 11
-14.6929
 21
80.3195
  0
LINE
  8
0
 10
-14.6929
 20
80.3195
 11
-14.6282
 21
80.2633
  0
LINE
  8
0
 10
-14.6282
 20
80.2633
 11
-14.5654
 21
80.2044
  0
LINE
  8
0
 10
-14.5654
 20
80.2044
 11
-14.5053
 21
80.1432
  0
LINE
  8
0
 10
-14.5053
 20
80.1432
 11
-14.448
 21
80.0792
  0
LINE
  8
0
 10
-14.448
 20
80.0792
 11
-14.3933
 21
80.0133
  0
LINE
  8
0
 10
-14.3933
 20
80.0133
 11
-14.3414
 21
79.9447
  0
LINE
  8
0
 10
-14.3414
 20
79.9447
 11
-14.2922
 21
79.8742
  0
LINE
  8
0
 10
-14.2922
 20
79.8742
 11
-14.2464
 21
79.8017
  0
LINE
  8
0
 10
-14.2464
 20
79.8017
 11
-14.2034
 21
79.7273
  0
LINE
  8
0
 10
-14.2034
 20
79.7273
 11
-14.1635
 21
79.6513
  0
LINE
  8
0
 10
-14.1635
 20
79.6513
 11
-14.127
 21
79.5734
  0
LINE
  8
0
 10
-14.127
 20
79.5734
 11
-14.0937
 21
79.4944
  0
LINE
  8
0
 10
-14.0937
 20
79.4944
 11
-14.0639
 21
79.4141
  0
LINE
  8
0
 10
-14.0639
 20
79.4141
 11
-14.0371
 21
79.3324
  0
LINE
  8
0
 10
-14.0371
 20
79.3324
 11
-14.0143
 21
79.2494
  0
LINE
  8
0
 10
-14.0143
 20
79.2494
 11
-13.9945
 21
79.1661
  0
LINE
  8
0
 10
-13.9945
 20
79.1661
 11
-13.9786
 21
79.0816
  0
LINE
  8
0
 10
-13.9786
 20
79.0816
 11
-13.9658
 21
78.9967
  0
LINE
  8
0
 10
-13.9658
 20
78.9967
 11
-13.9569
 21
78.9115
  0
LINE
  8
0
 10
-13.9569
 20
78.9115
 11
-13.9515
 21
78.8258
  0
LINE
  8
0
 10
-13.9515
 20
78.8258
 11
-13.9499
 21
78.7398
  0
LINE
  8
0
 10
-13.9499
 20
78.7398
 11
-13.9515
 21
78.6541
  0
LINE
  8
0
 10
-13.9515
 20
78.6541
 11
-13.9569
 21
78.5685
  0
LINE
  8
0
 10
-13.9569
 20
78.5685
 11
-13.9658
 21
78.4828
  0
LINE
  8
0
 10
-13.9658
 20
78.4828
 11
-13.9786
 21
78.3979
  0
LINE
  8
0
 10
-13.9786
 20
78.3979
 11
-13.9945
 21
78.3134
  0
LINE
  8
0
 10
-13.9945
 20
78.3134
 11
-14.0143
 21
78.2301
  0
LINE
  8
0
 10
-14.0143
 20
78.2301
 11
-14.0371
 21
78.1472
  0
LINE
  8
0
 10
-14.0371
 20
78.1472
 11
-14.0639
 21
78.0658
  0
LINE
  8
0
 10
-14.0639
 20
78.0658
 11
-14.0937
 21
77.9852
  0
LINE
  8
0
 10
-14.0937
 20
77.9852
 11
-14.127
 21
77.9061
  0
LINE
  8
0
 10
-14.127
 20
77.9061
 11
-14.1635
 21
77.8282
  0
LINE
  8
0
 10
-14.1635
 20
77.8282
 11
-14.2034
 21
77.7522
  0
LINE
  8
0
 10
-14.2034
 20
77.7522
 11
-14.2464
 21
77.6778
  0
LINE
  8
0
 10
-14.2464
 20
77.6778
 11
-14.2922
 21
77.6053
  0
LINE
  8
0
 10
-14.2922
 20
77.6053
 11
-14.3414
 21
77.5348
  0
LINE
  8
0
 10
-14.3414
 20
77.5348
 11
-14.3933
 21
77.4666
  0
LINE
  8
0
 10
-14.3933
 20
77.4666
 11
-14.448
 21
77.4003
  0
LINE
  8
0
 10
-14.448
 20
77.4003
 11
-14.5053
 21
77.3364
  0
LINE
  8
0
 10
-14.5053
 20
77.3364
 11
-14.5654
 21
77.2751
  0
LINE
  8
0
 10
-14.5654
 20
77.2751
 11
-14.6282
 21
77.2162
  0
LINE
  8
0
 10
-14.6282
 20
77.2162
 11
-14.6929
 21
77.1604
  0
LINE
  8
0
 10
-14.6929
 20
77.1604
 11
-14.7603
 21
77.1069
  0
LINE
  8
0
 10
-14.7603
 20
77.1069
 11
-14.8297
 21
77.0565
  0
LINE
  8
0
 10
-14.8297
 20
77.0565
 11
-14.9014
 21
77.0089
  0
LINE
  8
0
 10
-14.9014
 20
77.0089
 11
-14.9747
 21
76.9643
  0
LINE
  8
0
 10
-14.9747
 20
76.9643
 11
-15.0499
 21
76.9232
  0
LINE
  8
0
 10
-15.0499
 20
76.9232
 11
-15.127
 21
76.8848
  0
LINE
  8
0
 10
-15.127
 20
76.8848
 11
-15.2053
 21
76.85
  0
LINE
  8
0
 10
-15.2053
 20
76.85
 11
-15.2851
 21
76.8186
  0
LINE
  8
0
 10
-15.2851
 20
76.8186
 11
-15.3665
 21
76.7903
  0
LINE
  8
0
 10
-15.3665
 20
76.7903
 11
-15.4487
 21
76.7655
  0
LINE
  8
0
 10
-15.4487
 20
76.7655
 11
-15.5316
 21
76.7442
  0
LINE
  8
0
 10
-15.5316
 20
76.7442
 11
-15.6157
 21
76.7259
  0
LINE
  8
0
 10
-15.6157
 20
76.7259
 11
-15.7002
 21
76.712
  0
LINE
  8
0
 10
-15.7002
 20
76.712
 11
-15.7855
 21
76.7011
  0
LINE
  8
0
 10
-15.7855
 20
76.7011
 11
-15.8711
 21
76.6938
  0
LINE
  8
0
 10
-15.8711
 20
76.6938
 11
-15.9568
 21
76.6903
  0
LINE
  8
0
 10
-15.9568
 20
76.6903
 11
-16.0428
 21
76.6903
  0
LINE
  8
0
 10
15.9568
 20
76.6903
 11
15.8711
 21
76.6938
  0
LINE
  8
0
 10
15.8711
 20
76.6938
 11
15.7855
 21
76.7011
  0
LINE
  8
0
 10
15.7855
 20
76.7011
 11
15.7002
 21
76.712
  0
LINE
  8
0
 10
15.7002
 20
76.712
 11
15.6157
 21
76.7259
  0
LINE
  8
0
 10
15.6157
 20
76.7259
 11
15.5316
 21
76.7442
  0
LINE
  8
0
 10
15.5316
 20
76.7442
 11
15.4487
 21
76.7655
  0
LINE
  8
0
 10
15.4487
 20
76.7655
 11
15.3665
 21
76.7903
  0
LINE
  8
0
 10
15.3665
 20
76.7903
 11
15.2851
 21
76.8186
  0
LINE
  8
0
 10
15.2851
 20
76.8186
 11
15.2053
 21
76.85
  0
LINE
  8
0
 10
15.2053
 20
76.85
 11
15.127
 21
76.8848
  0
LINE
  8
0
 10
15.127
 20
76.8848
 11
15.0499
 21
76.9232
  0
LINE
  8
0
 10
15.0499
 20
76.9232
 11
14.9747
 21
76.9643
  0
LINE
  8
0
 10
14.9747
 20
76.9643
 11
14.9014
 21
77.0089
  0
LINE
  8
0
 10
14.9014
 20
77.0089
 11
14.8297
 21
77.0565
  0
LINE
  8
0
 10
14.8297
 20
77.0565
 11
14.7603
 21
77.1069
  0
LINE
  8
0
 10
14.7603
 20
77.1069
 11
14.6929
 21
77.1604
  0
LINE
  8
0
 10
14.6929
 20
77.1604
 11
14.6282
 21
77.2162
  0
LINE
  8
0
 10
14.6282
 20
77.2162
 11
14.5654
 21
77.2751
  0
LINE
  8
0
 10
14.5654
 20
77.2751
 11
14.5053
 21
77.3364
  0
LINE
  8
0
 10
14.5053
 20
77.3364
 11
14.448
 21
77.4003
  0
LINE
  8
0
 10
14.448
 20
77.4003
 11
14.3933
 21
77.4666
  0
LINE
  8
0
 10
14.3933
 20
77.4666
 11
14.3414
 21
77.5348
  0
LINE
  8
0
 10
14.3414
 20
77.5348
 11
14.2922
 21
77.6053
  0
LINE
  8
0
 10
14.2922
 20
77.6053
 11
14.2464
 21
77.6778
  0
LINE
  8
0
 10
14.2464
 20
77.6778
 11
14.2034
 21
77.7522
  0
LINE
  8
0
 10
14.2034
 20
77.7522
 11
14.1635
 21
77.8282
  0
LINE
  8
0
 10
14.1635
 20
77.8282
 11
14.127
 21
77.9061
  0
LINE
  8
0
 10
14.127
 20
77.9061
 11
14.0937
 21
77.9852
  0
LINE
  8
0
 10
14.0937
 20
77.9852
 11
14.0639
 21
78.0658
  0
LINE
  8
0
 10
14.0639
 20
78.0658
 11
14.0371
 21
78.1472
  0
LINE
  8
0
 10
14.0371
 20
78.1472
 11
14.0143
 21
78.2301
  0
LINE
  8
0
 10
14.0143
 20
78.2301
 11
13.9945
 21
78.3134
  0
LINE
  8
0
 10
13.9945
 20
78.3134
 11
13.9786
 21
78.3979
  0
LINE
  8
0
 10
13.9786
 20
78.3979
 11
13.9658
 21
78.4828
  0
LINE
  8
0
 10
13.9658
 20
78.4828
 11
13.9569
 21
78.5685
  0
LINE
  8
0
 10
13.9569
 20
78.5685
 11
13.9515
 21
78.6541
  0
LINE
  8
0
 10
13.9515
 20
78.6541
 11
13.9499
 21
78.7398
  0
LINE
  8
0
 10
13.9499
 20
78.7398
 11
13.9515
 21
78.8258
  0
LINE
  8
0
 10
13.9515
 20
78.8258
 11
13.9569
 21
78.9115
  0
LINE
  8
0
 10
13.9569
 20
78.9115
 11
13.9658
 21
78.9967
  0
LINE
  8
0
 10
13.9658
 20
78.9967
 11
13.9786
 21
79.0816
  0
LINE
  8
0
 10
13.9786
 20
79.0816
 11
13.9945
 21
79.1661
  0
LINE
  8
0
 10
13.9945
 20
79.1661
 11
14.0143
 21
79.2494
  0
LINE
  8
0
 10
14.0143
 20
79.2494
 11
14.0371
 21
79.3324
  0
LINE
  8
0
 10
14.0371
 20
79.3324
 11
14.0639
 21
79.4141
  0
LINE
  8
0
 10
14.0639
 20
79.4141
 11
14.0937
 21
79.4944
  0
LINE
  8
0
 10
14.0937
 20
79.4944
 11
14.127
 21
79.5734
  0
LINE
  8
0
 10
14.127
 20
79.5734
 11
14.1635
 21
79.6513
  0
LINE
  8
0
 10
14.1635
 20
79.6513
 11
14.2034
 21
79.7273
  0
LINE
  8
0
 10
14.2034
 20
79.7273
 11
14.2464
 21
79.8017
  0
LINE
  8
0
 10
14.2464
 20
79.8017
 11
14.2922
 21
79.8742
  0
LINE
  8
0
 10
14.2922
 20
79.8742
 11
14.3414
 21
79.9447
  0
LINE
  8
0
 10
14.3414
 20
79.9447
 11
14.3933
 21
80.0133
  0
LINE
  8
0
 10
14.3933
 20
80.0133
 11
14.448
 21
80.0792
  0
LINE
  8
0
 10
14.448
 20
80.0792
 11
14.5053
 21
80.1432
  0
LINE
  8
0
 10
14.5053
 20
80.1432
 11
14.5654
 21
80.2044
  0
LINE
  8
0
 10
14.5654
 20
80.2044
 11
14.6282
 21
80.2633
  0
LINE
  8
0
 10
14.6282
 20
80.2633
 11
14.6929
 21
80.3195
  0
LINE
  8
0
 10
14.6929
 20
80.3195
 11
14.7603
 21
80.3726
  0
LINE
  8
0
 10
14.7603
 20
80.3726
 11
14.8297
 21
80.423
  0
LINE
  8
0
 10
14.8297
 20
80.423
 11
14.9014
 21
80.4707
  0
LINE
  8
0
 10
14.9014
 20
80.4707
 11
14.9747
 21
80.5152
  0
LINE
  8
0
 10
14.9747
 20
80.5152
 11
15.0499
 21
80.5563
  0
LINE
  8
0
 10
15.0499
 20
80.5563
 11
15.127
 21
80.5947
  0
LINE
  8
0
 10
15.127
 20
80.5947
 11
15.2053
 21
80.6296
  0
LINE
  8
0
 10
15.2053
 20
80.6296
 11
15.2851
 21
80.6614
  0
LINE
  8
0
 10
15.2851
 20
80.6614
 11
15.3665
 21
80.6896
  0
LINE
  8
0
 10
15.3665
 20
80.6896
 11
15.4487
 21
80.7145
  0
LINE
  8
0
 10
15.4487
 20
80.7145
 11
15.5316
 21
80.7358
  0
LINE
  8
0
 10
15.5316
 20
80.7358
 11
15.6157
 21
80.7536
  0
LINE
  8
0
 10
15.6157
 20
80.7536
 11
15.7002
 21
80.7679
  0
LINE
  8
0
 10
15.7002
 20
80.7679
 11
15.7855
 21
80.7784
  0
LINE
  8
0
 10
15.7855
 20
80.7784
 11
15.8711
 21
80.7858
  0
LINE
  8
0
 10
15.8711
 20
80.7858
 11
15.9568
 21
80.7893
  0
LINE
  8
0
 10
15.9568
 20
80.7893
 11
16.0428
 21
80.7893
  0
LINE
  8
0
 10
16.0428
 20
80.7893
 11
16.1285
 21
80.7858
  0
LINE
  8
0
 10
16.1285
 20
80.7858
 11
16.2141
 21
80.7784
  0
LINE
  8
0
 10
16.2141
 20
80.7784
 11
16.2994
 21
80.7679
  0
LINE
  8
0
 10
16.2994
 20
80.7679
 11
16.3839
 21
80.7536
  0
LINE
  8
0
 10
16.3839
 20
80.7536
 11
16.468
 21
80.7358
  0
LINE
  8
0
 10
16.468
 20
80.7358
 11
16.5509
 21
80.7145
  0
LINE
  8
0
 10
16.5509
 20
80.7145
 11
16.6335
 21
80.6896
  0
LINE
  8
0
 10
16.6335
 20
80.6896
 11
16.7145
 21
80.6614
  0
LINE
  8
0
 10
16.7145
 20
80.6614
 11
16.7943
 21
80.6296
  0
LINE
  8
0
 10
16.7943
 20
80.6296
 11
16.8726
 21
80.5947
  0
LINE
  8
0
 10
16.8726
 20
80.5947
 11
16.9497
 21
80.5563
  0
LINE
  8
0
 10
16.9497
 20
80.5563
 11
17.0249
 21
80.5152
  0
LINE
  8
0
 10
17.0249
 20
80.5152
 11
17.0982
 21
80.4707
  0
LINE
  8
0
 10
17.0982
 20
80.4707
 11
17.1699
 21
80.423
  0
LINE
  8
0
 10
17.1699
 20
80.423
 11
17.2393
 21
80.3726
  0
LINE
  8
0
 10
17.2393
 20
80.3726
 11
17.3067
 21
80.3195
  0
LINE
  8
0
 10
17.3067
 20
80.3195
 11
17.3714
 21
80.2633
  0
LINE
  8
0
 10
17.3714
 20
80.2633
 11
17.4342
 21
80.2044
  0
LINE
  8
0
 10
17.4342
 20
80.2044
 11
17.4943
 21
80.1432
  0
LINE
  8
0
 10
17.4943
 20
80.1432
 11
17.5516
 21
80.0792
  0
LINE
  8
0
 10
17.5516
 20
80.0792
 11
17.6063
 21
80.0133
  0
LINE
  8
0
 10
17.6063
 20
80.0133
 11
17.6582
 21
79.9447
  0
LINE
  8
0
 10
17.6582
 20
79.9447
 11
17.7074
 21
79.8742
  0
LINE
  8
0
 10
17.7074
 20
79.8742
 11
17.7532
 21
79.8017
  0
LINE
  8
0
 10
17.7532
 20
79.8017
 11
17.7962
 21
79.7273
  0
LINE
  8
0
 10
17.7962
 20
79.7273
 11
17.8361
 21
79.6513
  0
LINE
  8
0
 10
17.8361
 20
79.6513
 11
17.8726
 21
79.5734
  0
LINE
  8
0
 10
17.8726
 20
79.5734
 11
17.9059
 21
79.4944
  0
LINE
  8
0
 10
17.9059
 20
79.4944
 11
17.9357
 21
79.4141
  0
LINE
  8
0
 10
17.9357
 20
79.4141
 11
17.9625
 21
79.3324
  0
LINE
  8
0
 10
17.9625
 20
79.3324
 11
17.9853
 21
79.2494
  0
LINE
  8
0
 10
17.9853
 20
79.2494
 11
18.0051
 21
79.1661
  0
LINE
  8
0
 10
18.0051
 20
79.1661
 11
18.021
 21
79.0816
  0
LINE
  8
0
 10
18.021
 20
79.0816
 11
18.0338
 21
78.9967
  0
LINE
  8
0
 10
18.0338
 20
78.9967
 11
18.0427
 21
78.9115
  0
LINE
  8
0
 10
18.0427
 20
78.9115
 11
18.0481
 21
78.8258
  0
LINE
  8
0
 10
18.0481
 20
78.8258
 11
18.0497
 21
78.7398
  0
LINE
  8
0
 10
18.0497
 20
78.7398
 11
18.0481
 21
78.6541
  0
LINE
  8
0
 10
18.0481
 20
78.6541
 11
18.0427
 21
78.5685
  0
LINE
  8
0
 10
18.0427
 20
78.5685
 11
18.0338
 21
78.4828
  0
LINE
  8
0
 10
18.0338
 20
78.4828
 11
18.021
 21
78.3979
  0
LINE
  8
0
 10
18.021
 20
78.3979
 11
18.0051
 21
78.3134
  0
LINE
  8
0
 10
18.0051
 20
78.3134
 11
17.9853
 21
78.2301
  0
LINE
  8
0
 10
17.9853
 20
78.2301
 11
17.9625
 21
78.1472
  0
LINE
  8
0
 10
17.9625
 20
78.1472
 11
17.9357
 21
78.0658
  0
LINE
  8
0
 10
17.9357
 20
78.0658
 11
17.9059
 21
77.9852
  0
LINE
  8
0
 10
17.9059
 20
77.9852
 11
17.8726
 21
77.9061
  0
LINE
  8
0
 10
17.8726
 20
77.9061
 11
17.8361
 21
77.8282
  0
LINE
  8
0
 10
17.8361
 20
77.8282
 11
17.7962
 21
77.7522
  0
LINE
  8
0
 10
17.7962
 20
77.7522
 11
17.7532
 21
77.6778
  0
LINE
  8
0
 10
17.7532
 20
77.6778
 11
17.7074
 21
77.6053
  0
LINE
  8
0
 10
17.7074
 20
77.6053
 11
17.6582
 21
77.5348
  0
LINE
  8
0
 10
17.6582
 20
77.5348
 11
17.6063
 21
77.4666
  0
LINE
  8
0
 10
17.6063
 20
77.4666
 11
17.5516
 21
77.4003
  0
LINE
  8
0
 10
17.5516
 20
77.4003
 11
17.4943
 21
77.3364
  0
LINE
  8
0
 10
17.4943
 20
77.3364
 11
17.4342
 21
77.2751
  0
LINE
  8
0
 10
17.4342
 20
77.2751
 11
17.3714
 21
77.2162
  0
LINE
  8
0
 10
17.3714
 20
77.2162
 11
17.3067
 21
77.1604
  0
LINE
  8
0
 10
17.3067
 20
77.1604
 11
17.2393
 21
77.1069
  0
LINE
  8
0
 10
17.2393
 20
77.1069
 11
17.1699
 21
77.0565
  0
LINE
  8
0
 10
17.1699
 20
77.0565
 11
17.0982
 21
77.0089
  0
LINE
  8
0
 10
17.0982
 20
77.0089
 11
17.0249
 21
76.9643
  0
LINE
  8
0
 10
17.0249
 20
76.9643
 11
16.9497
 21
76.9232
  0
LINE
  8
0
 10
16.9497
 20
76.9232
 11
16.8726
 21
76.8848
  0
LINE
  8
0
 10
16.8726
 20
76.8848
 11
16.7943
 21
76.85
  0
LINE
  8
0
 10
16.7943
 20
76.85
 11
16.7145
 21
76.8186
  0
LINE
  8
0
 10
16.7145
 20
76.8186
 11
16.6335
 21
76.7903
  0
LINE
  8
0
 10
16.6335
 20
76.7903
 11
16.5509
 21
76.7655
  0
LINE
  8
0
 10
16.5509
 20
76.7655
 11
16.468
 21
76.7442
  0
LINE
  8
0
 10
16.468
 20
76.7442
 11
16.3839
 21
76.7259
  0
LINE
  8
0
 10
16.3839
 20
76.7259
 11
16.2994
 21
76.712
  0
LINE
  8
0
 10
16.2994
 20
76.712
 11
16.2141
 21
76.7011
  0
LINE
  8
0
 10
16.2141
 20
76.7011
 11
16.1285
 21
76.6938
  0
LINE
  8
0
 10
16.1285
 20
76.6938
 11
16.0428
 21
76.6903
  0
LINE
  8
0
 10
16.0428
 20
76.6903
 11
15.9568
 21
76.6903
  0
LINE
  8
0
 10
-16.0428
 20
51.2903
 11
-16.1285
 21
51.2938
  0
LINE
  8
0
 10
-16.1285
 20
51.2938
 11
-16.2141
 21
51.3011
  0
LINE
  8
0
 10
-16.2141
 20
51.3011
 11
-16.2994
 21
51.312
  0
LINE
  8
0
 10
-16.2994
 20
51.312
 11
-16.3839
 21
51.3259
  0
LINE
  8
0
 10
-16.3839
 20
51.3259
 11
-16.468
 21
51.3442
  0
LINE
  8
0
 10
-16.468
 20
51.3442
 11
-16.5509
 21
51.3655
  0
LINE
  8
0
 10
-16.5509
 20
51.3655
 11
-16.6335
 21
51.3903
  0
LINE
  8
0
 10
-16.6335
 20
51.3903
 11
-16.7145
 21
51.4186
  0
LINE
  8
0
 10
-16.7145
 20
51.4186
 11
-16.7943
 21
51.45
  0
LINE
  8
0
 10
-16.7943
 20
51.45
 11
-16.8726
 21
51.4848
  0
LINE
  8
0
 10
-16.8726
 20
51.4848
 11
-16.9497
 21
51.5232
  0
LINE
  8
0
 10
-16.9497
 20
51.5232
 11
-17.0249
 21
51.5643
  0
LINE
  8
0
 10
-17.0249
 20
51.5643
 11
-17.0982
 21
51.6089
  0
LINE
  8
0
 10
-17.0982
 20
51.6089
 11
-17.1699
 21
51.6565
  0
LINE
  8
0
 10
-17.1699
 20
51.6565
 11
-17.2393
 21
51.7069
  0
LINE
  8
0
 10
-17.2393
 20
51.7069
 11
-17.3067
 21
51.7604
  0
LINE
  8
0
 10
-17.3067
 20
51.7604
 11
-17.3714
 21
51.8162
  0
LINE
  8
0
 10
-17.3714
 20
51.8162
 11
-17.4342
 21
51.8751
  0
LINE
  8
0
 10
-17.4342
 20
51.8751
 11
-17.4943
 21
51.9364
  0
LINE
  8
0
 10
-17.4943
 20
51.9364
 11
-17.5516
 21
52.0003
  0
LINE
  8
0
 10
-17.5516
 20
52.0003
 11
-17.6063
 21
52.0666
  0
LINE
  8
0
 10
-17.6063
 20
52.0666
 11
-17.6582
 21
52.1348
  0
LINE
  8
0
 10
-17.6582
 20
52.1348
 11
-17.7074
 21
52.2053
  0
LINE
  8
0
 10
-17.7074
 20
52.2053
 11
-17.7532
 21
52.2778
  0
LINE
  8
0
 10
-17.7532
 20
52.2778
 11
-17.7962
 21
52.3522
  0
LINE
  8
0
 10
-17.7962
 20
52.3522
 11
-17.8361
 21
52.4282
  0
LINE
  8
0
 10
-17.8361
 20
52.4282
 11
-17.8726
 21
52.5061
  0
LINE
  8
0
 10
-17.8726
 20
52.5061
 11
-17.9059
 21
52.5852
  0
LINE
  8
0
 10
-17.9059
 20
52.5852
 11
-17.9357
 21
52.6658
  0
LINE
  8
0
 10
-17.9357
 20
52.6658
 11
-17.9625
 21
52.7472
  0
LINE
  8
0
 10
-17.9625
 20
52.7472
 11
-17.9853
 21
52.8301
  0
LINE
  8
0
 10
-17.9853
 20
52.8301
 11
-18.0051
 21
52.9134
  0
LINE
  8
0
 10
-18.0051
 20
52.9134
 11
-18.021
 21
52.9979
  0
LINE
  8
0
 10
-18.021
 20
52.9979
 11
-18.0338
 21
53.0828
  0
LINE
  8
0
 10
-18.0338
 20
53.0828
 11
-18.0427
 21
53.1685
  0
LINE
  8
0
 10
-18.0427
 20
53.1685
 11
-18.0481
 21
53.2541
  0
LINE
  8
0
 10
-18.0481
 20
53.2541
 11
-18.0497
 21
53.3398
  0
LINE
  8
0
 10
-18.0497
 20
53.3398
 11
-18.0481
 21
53.4258
  0
LINE
  8
0
 10
-18.0481
 20
53.4258
 11
-18.0427
 21
53.5115
  0
LINE
  8
0
 10
-18.0427
 20
53.5115
 11
-18.0338
 21
53.5967
  0
LINE
  8
0
 10
-18.0338
 20
53.5967
 11
-18.021
 21
53.6816
  0
LINE
  8
0
 10
-18.021
 20
53.6816
 11
-18.0051
 21
53.7661
  0
LINE
  8
0
 10
-18.0051
 20
53.7661
 11
-17.9853
 21
53.8494
  0
LINE
  8
0
 10
-17.9853
 20
53.8494
 11
-17.9625
 21
53.9324
  0
LINE
  8
0
 10
-17.9625
 20
53.9324
 11
-17.9357
 21
54.0141
  0
LINE
  8
0
 10
-17.9357
 20
54.0141
 11
-17.9059
 21
54.0944
  0
LINE
  8
0
 10
-17.9059
 20
54.0944
 11
-17.8726
 21
54.1734
  0
LINE
  8
0
 10
-17.8726
 20
54.1734
 11
-17.8361
 21
54.2513
  0
LINE
  8
0
 10
-17.8361
 20
54.2513
 11
-17.7962
 21
54.3273
  0
LINE
  8
0
 10
-17.7962
 20
54.3273
 11
-17.7532
 21
54.4017
  0
LINE
  8
0
 10
-17.7532
 20
54.4017
 11
-17.7074
 21
54.4742
  0
LINE
  8
0
 10
-17.7074
 20
54.4742
 11
-17.6582
 21
54.5447
  0
LINE
  8
0
 10
-17.6582
 20
54.5447
 11
-17.6063
 21
54.6133
  0
LINE
  8
0
 10
-17.6063
 20
54.6133
 11
-17.5516
 21
54.6792
  0
LINE
  8
0
 10
-17.5516
 20
54.6792
 11
-17.4943
 21
54.7432
  0
LINE
  8
0
 10
-17.4943
 20
54.7432
 11
-17.4342
 21
54.8044
  0
LINE
  8
0
 10
-17.4342
 20
54.8044
 11
-17.3714
 21
54.8633
  0
LINE
  8
0
 10
-17.3714
 20
54.8633
 11
-17.3067
 21
54.9195
  0
LINE
  8
0
 10
-17.3067
 20
54.9195
 11
-17.2393
 21
54.9726
  0
LINE
  8
0
 10
-17.2393
 20
54.9726
 11
-17.1699
 21
55.023
  0
LINE
  8
0
 10
-17.1699
 20
55.023
 11
-17.0982
 21
55.0707
  0
LINE
  8
0
 10
-17.0982
 20
55.0707
 11
-17.0249
 21
55.1152
  0
LINE
  8
0
 10
-17.0249
 20
55.1152
 11
-16.9497
 21
55.1563
  0
LINE
  8
0
 10
-16.9497
 20
55.1563
 11
-16.8726
 21
55.1947
  0
LINE
  8
0
 10
-16.8726
 20
55.1947
 11
-16.7943
 21
55.2296
  0
LINE
  8
0
 10
-16.7943
 20
55.2296
 11
-16.7145
 21
55.2614
  0
LINE
  8
0
 10
-16.7145
 20
55.2614
 11
-16.6335
 21
55.2896
  0
LINE
  8
0
 10
-16.6335
 20
55.2896
 11
-16.5509
 21
55.3145
  0
LINE
  8
0
 10
-16.5509
 20
55.3145
 11
-16.468
 21
55.3358
  0
LINE
  8
0
 10
-16.468
 20
55.3358
 11
-16.3839
 21
55.3536
  0
LINE
  8
0
 10
-16.3839
 20
55.3536
 11
-16.2994
 21
55.3679
  0
LINE
  8
0
 10
-16.2994
 20
55.3679
 11
-16.2141
 21
55.3784
  0
LINE
  8
0
 10
-16.2141
 20
55.3784
 11
-16.1285
 21
55.3858
  0
LINE
  8
0
 10
-16.1285
 20
55.3858
 11
-16.0428
 21
55.3893
  0
LINE
  8
0
 10
-16.0428
 20
55.3893
 11
-15.9568
 21
55.3893
  0
LINE
  8
0
 10
-15.9568
 20
55.3893
 11
-15.8711
 21
55.3858
  0
LINE
  8
0
 10
-15.8711
 20
55.3858
 11
-15.7855
 21
55.3784
  0
LINE
  8
0
 10
-15.7855
 20
55.3784
 11
-15.7002
 21
55.3679
  0
LINE
  8
0
 10
-15.7002
 20
55.3679
 11
-15.6157
 21
55.3536
  0
LINE
  8
0
 10
-15.6157
 20
55.3536
 11
-15.5316
 21
55.3358
  0
LINE
  8
0
 10
-15.5316
 20
55.3358
 11
-15.4487
 21
55.3145
  0
LINE
  8
0
 10
-15.4487
 20
55.3145
 11
-15.3665
 21
55.2896
  0
LINE
  8
0
 10
-15.3665
 20
55.2896
 11
-15.2851
 21
55.2614
  0
LINE
  8
0
 10
-15.2851
 20
55.2614
 11
-15.2053
 21
55.2296
  0
LINE
  8
0
 10
-15.2053
 20
55.2296
 11
-15.127
 21
55.1947
  0
LINE
  8
0
 10
-15.127
 20
55.1947
 11
-15.0499
 21
55.1563
  0
LINE
  8
0
 10
-15.0499
 20
55.1563
 11
-14.9747
 21
55.1152
  0
LINE
  8
0
 10
-14.9747
 20
55.1152
 11
-14.9014
 21
55.0707
  0
LINE
  8
0
 10
-14.9014
 20
55.0707
 11
-14.8297
 21
55.023
  0
LINE
  8
0
 10
-14.8297
 20
55.023
 11
-14.7603
 21
54.9726
  0
LINE
  8
0
 10
-14.7603
 20
54.9726
 11
-14.6929
 21
54.9195
  0
LINE
  8
0
 10
-14.6929
 20
54.9195
 11
-14.6282
 21
54.8633
  0
LINE
  8
0
 10
-14.6282
 20
54.8633
 11
-14.5654
 21
54.8044
  0
LINE
  8
0
 10
-14.5654
 20
54.8044
 11
-14.5053
 21
54.7432
  0
LINE
  8
0
 10
-14.5053
 20
54.7432
 11
-14.448
 21
54.6792
  0
LINE
  8
0
 10
-14.448
 20
54.6792
 11
-14.3933
 21
54.6133
  0
LINE
  8
0
 10
-14.3933
 20
54.6133
 11
-14.3414
 21
54.5447
  0
LINE
  8
0
 10
-14.3414
 20
54.5447
 11
-14.2922
 21
54.4742
  0
LINE
  8
0
 10
-14.2922
 20
54.4742
 11
-14.2464
 21
54.4017
  0
LINE
  8
0
 10
-14.2464
 20
54.4017
 11
-14.2034
 21
54.3273
  0
LINE
  8
0
 10
-14.2034
 20
54.3273
 11
-14.1635
 21
54.2513
  0
LINE
  8
0
 10
-14.1635
 20
54.2513
 11
-14.127
 21
54.1734
  0
LINE
  8
0
 10
-14.127
 20
54.1734
 11
-14.0937
 21
54.0944
  0
LINE
  8
0
 10
-14.0937
 20
54.0944
 11
-14.0639
 21
54.0141
  0
LINE
  8
0
 10
-14.0639
 20
54.0141
 11
-14.0371
 21
53.9324
  0
LINE
  8
0
 10
-14.0371
 20
53.9324
 11
-14.0143
 21
53.8494
  0
LINE
  8
0
 10
-14.0143
 20
53.8494
 11
-13.9945
 21
53.7661
  0
LINE
  8
0
 10
-13.9945
 20
53.7661
 11
-13.9786
 21
53.6816
  0
LINE
  8
0
 10
-13.9786
 20
53.6816
 11
-13.9658
 21
53.5967
  0
LINE
  8
0
 10
-13.9658
 20
53.5967
 11
-13.9569
 21
53.5115
  0
LINE
  8
0
 10
-13.9569
 20
53.5115
 11
-13.9515
 21
53.4258
  0
LINE
  8
0
 10
-13.9515
 20
53.4258
 11
-13.9499
 21
53.3398
  0
LINE
  8
0
 10
-13.9499
 20
53.3398
 11
-13.9515
 21
53.2541
  0
LINE
  8
0
 10
-13.9515
 20
53.2541
 11
-13.9569
 21
53.1685
  0
LINE
  8
0
 10
-13.9569
 20
53.1685
 11
-13.9658
 21
53.0828
  0
LINE
  8
0
 10
-13.9658
 20
53.0828
 11
-13.9786
 21
52.9979
  0
LINE
  8
0
 10
-13.9786
 20
52.9979
 11
-13.9945
 21
52.9134
  0
LINE
  8
0
 10
-13.9945
 20
52.9134
 11
-14.0143
 21
52.8301
  0
LINE
  8
0
 10
-14.0143
 20
52.8301
 11
-14.0371
 21
52.7472
  0
LINE
  8
0
 10
-14.0371
 20
52.7472
 11
-14.0639
 21
52.6658
  0
LINE
  8
0
 10
-14.0639
 20
52.6658
 11
-14.0937
 21
52.5852
  0
LINE
  8
0
 10
-14.0937
 20
52.5852
 11
-14.127
 21
52.5061
  0
LINE
  8
0
 10
-14.127
 20
52.5061
 11
-14.1635
 21
52.4282
  0
LINE
  8
0
 10
-14.1635
 20
52.4282
 11
-14.2034
 21
52.3522
  0
LINE
  8
0
 10
-14.2034
 20
52.3522
 11
-14.2464
 21
52.2778
  0
LINE
  8
0
 10
-14.2464
 20
52.2778
 11
-14.2922
 21
52.2053
  0
LINE
  8
0
 10
-14.2922
 20
52.2053
 11
-14.3414
 21
52.1348
  0
LINE
  8
0
 10
-14.3414
 20
52.1348
 11
-14.3933
 21
52.0666
  0
LINE
  8
0
 10
-14.3933
 20
52.0666
 11
-14.448
 21
52.0003
  0
LINE
  8
0
 10
-14.448
 20
52.0003
 11
-14.5053
 21
51.9364
  0
LINE
  8
0
 10
-14.5053
 20
51.9364
 11
-14.5654
 21
51.8751
  0
LINE
  8
0
 10
-14.5654
 20
51.8751
 11
-14.6282
 21
51.8162
  0
LINE
  8
0
 10
-14.6282
 20
51.8162
 11
-14.6929
 21
51.7604
  0
LINE
  8
0
 10
-14.6929
 20
51.7604
 11
-14.7603
 21
51.7069
  0
LINE
  8
0
 10
-14.7603
 20
51.7069
 11
-14.8297
 21
51.6565
  0
LINE
  8
0
 10
-14.8297
 20
51.6565
 11
-14.9014
 21
51.6089
  0
LINE
  8
0
 10
-14.9014
 20
51.6089
 11
-14.9747
 21
51.5643
  0
LINE
  8
0
 10
-14.9747
 20
51.5643
 11
-15.0499
 21
51.5232
  0
LINE
  8
0
 10
-15.0499
 20
51.5232
 11
-15.127
 21
51.4848
  0
LINE
  8
0
 10
-15.127
 20
51.4848
 11
-15.2053
 21
51.45
  0
LINE
  8
0
 10
-15.2053
 20
51.45
 11
-15.2851
 21
51.4186
  0
LINE
  8
0
 10
-15.2851
 20
51.4186
 11
-15.3665
 21
51.3903
  0
LINE
  8
0
 10
-15.3665
 20
51.3903
 11
-15.4487
 21
51.3655
  0
LINE
  8
0
 10
-15.4487
 20
51.3655
 11
-15.5316
 21
51.3442
  0
LINE
  8
0
 10
-15.5316
 20
51.3442
 11
-15.6157
 21
51.3259
  0
LINE
  8
0
 10
-15.6157
 20
51.3259
 11
-15.7002
 21
51.312
  0
LINE
  8
0
 10
-15.7002
 20
51.312
 11
-15.7855
 21
51.3011
  0
LINE
  8
0
 10
-15.7855
 20
51.3011
 11
-15.8711
 21
51.2938
  0
LINE
  8
0
 10
-15.8711
 20
51.2938
 11
-15.9568
 21
51.2903
  0
LINE
  8
0
 10
-15.9568
 20
51.2903
 11
-16.0428
 21
51.2903
  0
LINE
  8
0
 10
15.9568
 20
51.2903
 11
15.8711
 21
51.2938
  0
LINE
  8
0
 10
15.8711
 20
51.2938
 11
15.7855
 21
51.3011
  0
LINE
  8
0
 10
15.7855
 20
51.3011
 11
15.7002
 21
51.312
  0
LINE
  8
0
 10
15.7002
 20
51.312
 11
15.6157
 21
51.3259
  0
LINE
  8
0
 10
15.6157
 20
51.3259
 11
15.5316
 21
51.3442
  0
LINE
  8
0
 10
15.5316
 20
51.3442
 11
15.4487
 21
51.3655
  0
LINE
  8
0
 10
15.4487
 20
51.3655
 11
15.3665
 21
51.3903
  0
LINE
  8
0
 10
15.3665
 20
51.3903
 11
15.2851
 21
51.4186
  0
LINE
  8
0
 10
15.2851
 20
51.4186
 11
15.2053
 21
51.45
  0
LINE
  8
0
 10
15.2053
 20
51.45
 11
15.127
 21
51.4848
  0
LINE
  8
0
 10
15.127
 20
51.4848
 11
15.0499
 21
51.5232
  0
LINE
  8
0
 10
15.0499
 20
51.5232
 11
14.9747
 21
51.5643
  0
LINE
  8
0
 10
14.9747
 20
51.5643
 11
14.9014
 21
51.6089
  0
LINE
  8
0
 10
14.9014
 20
51.6089
 11
14.8297
 21
51.6565
  0
LINE
  8
0
 10
14.8297
 20
51.6565
 11
14.7603
 21
51.7069
  0
LINE
  8
0
 10
14.7603
 20
51.7069
 11
14.6929
 21
51.7604
  0
LINE
  8
0
 10
14.6929
 20
51.7604
 11
14.6282
 21
51.8162
  0
LINE
  8
0
 10
14.6282
 20
51.8162
 11
14.5654
 21
51.8751
  0
LINE
  8
0
 10
14.5654
 20
51.8751
 11
14.5053
 21
51.9364
  0
LINE
  8
0
 10
14.5053
 20
51.9364
 11
14.448
 21
52.0003
  0
LINE
  8
0
 10
14.448
 20
52.0003
 11
14.3933
 21
52.0666
  0
LINE
  8
0
 10
14.3933
 20
52.0666
 11
14.3414
 21
52.1348
  0
LINE
  8
0
 10
14.3414
 20
52.1348
 11
14.2922
 21
52.2053
  0
LINE
  8
0
 10
14.2922
 20
52.2053
 11
14.2464
 21
52.2778
  0
LINE
  8
0
 10
14.2464
 20
52.2778
 11
14.2034
 21
52.3522
  0
LINE
  8
0
 10
14.2034
 20
52.3522
 11
14.1635
 21
52.4282
  0
LINE
  8
0
 10
14.1635
 20
52.4282
 11
14.127
 21
52.5061
  0
LINE
  8
0
 10
14.127
 20
52.5061
 11
14.0937
 21
52.5852
  0
LINE
  8
0
 10
14.0937
 20
52.5852
 11
14.0639
 21
52.6658
  0
LINE
  8
0
 10
14.0639
 20
52.6658
 11
14.0371
 21
52.7472
  0
LINE
  8
0
 10
14.0371
 20
52.7472
 11
14.0143
 21
52.8301
  0
LINE
  8
0
 10
14.0143
 20
52.8301
 11
13.9945
 21
52.9134
  0
LINE
  8
0
 10
13.9945
 20
52.9134
 11
13.9786
 21
52.9979
  0
LINE
  8
0
 10
13.9786
 20
52.9979
 11
13.9658
 21
53.0828
  0
LINE
  8
0
 10
13.9658
 20
53.0828
 11
13.9569
 21
53.1685
  0
LINE
  8
0
 10
13.9569
 20
53.1685
 11
13.9515
 21
53.2541
  0
LINE
  8
0
 10
13.9515
 20
53.2541
 11
13.9499
 21
53.3398
  0
LINE
  8
0
 10
13.9499
 20
53.3398
 11
13.9515
 21
53.4258
  0
LINE
  8
0
 10
13.9515
 20
53.4258
 11
13.9569
 21
53.5115
  0
LINE
  8
0
 10
13.9569
 20
53.5115
 11
13.9658
 21
53.5967
  0
LINE
  8
0
 10
13.9658
 20
53.5967
 11
13.9786
 21
53.6816
  0
LINE
  8
0
 10
13.9786
 20
53.6816
 11
13.9945
 21
53.7661
  0
LINE
  8
0
 10
13.9945
 20
53.7661
 11
14.0143
 21
53.8494
  0
LINE
  8
0
 10
14.0143
 20
53.8494
 11
14.0371
 21
53.9324
  0
LINE
  8
0
 10
14.0371
 20
53.9324
 11
14.0639
 21
54.0141
  0
LINE
  8
0
 10
14.0639
 20
54.0141
 11
14.0937
 21
54.0944
  0
LINE
  8
0
 10
14.0937
 20
54.0944
 11
14.127
 21
54.1734
  0
LINE
  8
0
 10
14.127
 20
54.1734
 11
14.1635
 21
54.2513
  0
LINE
  8
0
 10
14.1635
 20
54.2513
 11
14.2034
 21
54.3273
  0
LINE
  8
0
 10
14.2034
 20
54.3273
 11
14.2464
 21
54.4017
  0
LINE
  8
0
 10
14.2464
 20
54.4017
 11
14.2922
 21
54.4742
  0
LINE
  8
0
 10
14.2922
 20
54.4742
 11
14.3414
 21
54.5447
  0
LINE
  8
0
 10
14.3414
 20
54.5447
 11
14.3933
 21
54.6133
  0
LINE
  8
0
 10
14.3933
 20
54.6133
 11
14.448
 21
54.6792
  0
LINE
  8
0
 10
14.448
 20
54.6792
 11
14.5053
 21
54.7432
  0
LINE
  8
0
 10
14.5053
 20
54.7432
 11
14.5654
 21
54.8044
  0
LINE
  8
0
 10
14.5654
 20
54.8044
 11
14.6282
 21
54.8633
  0
LINE
  8
0
 10
14.6282
 20
54.8633
 11
14.6929
 21
54.9195
  0
LINE
  8
0
 10
14.6929
 20
54.9195
 11
14.7603
 21
54.9726
  0
LINE
  8
0
 10
14.7603
 20
54.9726
 11
14.8297
 21
55.023
  0
LINE
  8
0
 10
14.8297
 20
55.023
 11
14.9014
 21
55.0707
  0
LINE
  8
0
 10
14.9014
 20
55.0707
 11
14.9747
 21
55.1152
  0
LINE
  8
0
 10
14.9747
 20
55.1152
 11
15.0499
 21
55.1563
  0
LINE
  8
0
 10
15.0499
 20
55.1563
 11
15.127
 21
55.1947
  0
LINE
  8
0
 10
15.127
 20
55.1947
 11
15.2053
 21
55.2296
  0
LINE
  8
0
 10
15.2053
 20
55.2296
 11
15.2851
 21
55.2614
  0
LINE
  8
0
 10
15.2851
 20
55.2614
 11
15.3665
 21
55.2896
  0
LINE
  8
0
 10
15.3665
 20
55.2896
 11
15.4487
 21
55.3145
  0
LINE
  8
0
 10
15.4487
 20
55.3145
 11
15.5316
 21
55.3358
  0
LINE
  8
0
 10
15.5316
 20
55.3358
 11
15.6157
 21
55.3536
  0
LINE
  8
0
 10
15.6157
 20
55.3536
 11
15.7002
 21
55.3679
  0
LINE
  8
0
 10
15.7002
 20
55.3679
 11
15.7855
 21
55.3784
  0
LINE
  8
0
 10
15.7855
 20
55.3784
 11
15.8711
 21
55.3858
  0
LINE
  8
0
 10
15.8711
 20
55.3858
 11
15.9568
 21
55.3893
  0
LINE
  8
0
 10
15.9568
 20
55.3893
 11
16.0428
 21
55.3893
  0
LINE
  8
0
 10
16.0428
 20
55.3893
 11
16.1285
 21
55.3858
  0
LINE
  8
0
 10
16.1285
 20
55.3858
 11
16.2141
 21
55.3784
  0
LINE
  8
0
 10
16.2141
 20
55.3784
 11
16.2994
 21
55.3679
  0
LINE
  8
0
 10
16.2994
 20
55.3679
 11
16.3839
 21
55.3536
  0
LINE
  8
0
 10
16.3839
 20
55.3536
 11
16.468
 21
55.3358
  0
LINE
  8
0
 10
16.468
 20
55.3358
 11
16.5509
 21
55.3145
  0
LINE
  8
0
 10
16.5509
 20
55.3145
 11
16.6335
 21
55.2896
  0
LINE
  8
0
 10
16.6335
 20
55.2896
 11
16.7145
 21
55.2614
  0
LINE
  8
0
 10
16.7145
 20
55.2614
 11
16.7943
 21
55.2296
  0
LINE
  8
0
 10
16.7943
 20
55.2296
 11
16.8726
 21
55.1947
  0
LINE
  8
0
 10
16.8726
 20
55.1947
 11
16.9497
 21
55.1563
  0
LINE
  8
0
 10
16.9497
 20
55.1563
 11
17.0249
 21
55.1152
  0
LINE
  8
0
 10
17.0249
 20
55.1152
 11
17.0982
 21
55.0707
  0
LINE
  8
0
 10
17.0982
 20
55.0707
 11
17.1699
 21
55.023
  0
LINE
  8
0
 10
17.1699
 20
55.023
 11
17.2393
 21
54.9726
  0
LINE
  8
0
 10
17.2393
 20
54.9726
 11
17.3067
 21
54.9195
  0
LINE
  8
0
 10
17.3067
 20
54.9195
 11
17.3714
 21
54.8633
  0
LINE
  8
0
 10
17.3714
 20
54.8633
 11
17.4342
 21
54.8044
  0
LINE
  8
0
 10
17.4342
 20
54.8044
 11
17.4943
 21
54.7432
  0
LINE
  8
0
 10
17.4943
 20
54.7432
 11
17.5516
 21
54.6792
  0
LINE
  8
0
 10
17.5516
 20
54.6792
 11
17.6063
 21
54.6133
  0
LINE
  8
0
 10
17.6063
 20
54.6133
 11
17.6582
 21
54.5447
  0
LINE
  8
0
 10
17.6582
 20
54.5447
 11
17.7074
 21
54.4742
  0
LINE
  8
0
 10
17.7074
 20
54.4742
 11
17.7532
 21
54.4017
  0
LINE
  8
0
 10
17.7532
 20
54.4017
 11
17.7962
 21
54.3273
  0
LINE
  8
0
 10
17.7962
 20
54.3273
 11
17.8361
 21
54.2513
  0
LINE
  8
0
 10
17.8361
 20
54.2513
 11
17.8726
 21
54.1734
  0
LINE
  8
0
 10
17.8726
 20
54.1734
 11
17.9059
 21
54.0944
  0
LINE
  8
0
 10
17.9059
 20
54.0944
 11
17.9357
 21
54.0141
  0
LINE
  8
0
 10
17.9357
 20
54.0141
 11
17.9625
 21
53.9324
  0
LINE
  8
0
 10
17.9625
 20
53.9324
 11
17.9853
 21
53.8494
  0
LINE
  8
0
 10
17.9853
 20
53.8494
 11
18.0051
 21
53.7661
  0
LINE
  8
0
 10
18.0051
 20
53.7661
 11
18.021
 21
53.6816
  0
LINE
  8
0
 10
18.021
 20
53.6816
 11
18.0338
 21
53.5967
  0
LINE
  8
0
 10
18.0338
 20
53.5967
 11
18.0427
 21
53.5115
  0
LINE
  8
0
 10
18.0427
 20
53.5115
 11
18.0481
 21
53.4258
  0
LINE
  8
0
 10
18.0481
 20
53.4258
 11
18.0497
 21
53.3398
  0
LINE
  8
0
 10
18.0497
 20
53.3398
 11
18.0481
 21
53.2541
  0
LINE
  8
0
 10
18.0481
 20
53.2541
 11
18.0427
 21
53.1685
  0
LINE
  8
0
 10
18.0427
 20
53.1685
 11
18.0338
 21
53.0828
  0
LINE
  8
0
 10
18.0338
 20
53.0828
 11
18.021
 21
52.9979
  0
LINE
  8
0
 10
18.021
 20
52.9979
 11
18.0051
 21
52.9134
  0
LINE
  8
0
 10
18.0051
 20
52.9134
 11
17.9853
 21
52.8301
  0
LINE
  8
0
 10
17.9853
 20
52.8301
 11
17.9625
 21
52.7472
  0
LINE
  8
0
 10
17.9625
 20
52.7472
 11
17.9357
 21
52.6658
  0
LINE
  8
0
 10
17.9357
 20
52.6658
 11
17.9059
 21
52.5852
  0
LINE
  8
0
 10
17.9059
 20
52.5852
 11
17.8726
 21
52.5061
  0
LINE
  8
0
 10
17.8726
 20
52.5061
 11
17.8361
 21
52.4282
  0
LINE
  8
0
 10
17.8361
 20
52.4282
 11
17.7962
 21
52.3522
  0
LINE
  8
0
 10
17.7962
 20
52.3522
 11
17.7532
 21
52.2778
  0
LINE
  8
0
 10
17.7532
 20
52.2778
 11
17.7074
 21
52.2053
  0
LINE
  8
0
 10
17.7074
 20
52.2053
 11
17.6582
 21
52.1348
  0
LINE
  8
0
 10
17.6582
 20
52.1348
 11
17.6063
 21
52.0666
  0
LINE
  8
0
 10
17.6063
 20
52.0666
 11
17.5516
 21
52.0003
  0
LINE
  8
0
 10
17.5516
 20
52.0003
 11
17.4943
 21
51.9364
  0
LINE
  8
0
 10
17.4943
 20
51.9364
 11
17.4342
 21
51.8751
  0
LINE
  8
0
 10
17.4342
 20
51.8751
 11
17.3714
 21
51.8162
  0
LINE
  8
0
 10
17.3714
 20
51.8162
 11
17.3067
 21
51.7604
  0
LINE
  8
0
 10
17.3067
 20
51.7604
 11
17.2393
 21
51.7069
  0
LINE
  8
0
 10
17.2393
 20
51.7069
 11
17.1699
 21
51.6565
  0
LINE
  8
0
 10
17.1699
 20
51.6565
 11
17.0982
 21
51.6089
  0
LINE
  8
0
 10
17.0982
 20
51.6089
 11
17.0249
 21
51.5643
  0
LINE
  8
0
 10
17.0249
 20
51.5643
 11
16.9497
 21
51.5232
  0
LINE
  8
0
 10
16.9497
 20
51.5232
 11
16.8726
 21
51.4848
  0
LINE
  8
0
 10
16.8726
 20
51.4848
 11
16.7943
 21
51.45
  0
LINE
  8
0
 10
16.7943
 20
51.45
 11
16.7145
 21
51.4186
  0
LINE
  8
0
 10
16.7145
 20
51.4186
 11
16.6335
 21
51.3903
  0
LINE
  8
0
 10
16.6335
 20
51.3903
 11
16.5509
 21
51.3655
  0
LINE
  8
0
 10
16.5509
 20
51.3655
 11
16.468
 21
51.3442
  0
LINE
  8
0
 10
16.468
 20
51.3442
 11
16.3839
 21
51.3259
  0
LINE
  8
0
 10
16.3839
 20
51.3259
 11
16.2994
 21
51.312
  0
LINE
  8
0
 10
16.2994
 20
51.312
 11
16.2141
 21
51.3011
  0
LINE
  8
0
 10
16.2141
 20
51.3011
 11
16.1285
 21
51.2938
  0
LINE
  8
0
 10
16.1285
 20
51.2938
 11
16.0428
 21
51.2903
  0
LINE
  8
0
 10
16.0428
 20
51.2903
 11
15.9568
 21
51.2903
  0
LINE
  8
0
 10
15.9568
 20
25.8903
 11
15.8711
 21
25.8938
  0
LINE
  8
0
 10
15.8711
 20
25.8938
 11
15.7855
 21
25.9011
  0
LINE
  8
0
 10
15.7855
 20
25.9011
 11
15.7002
 21
25.912
  0
LINE
  8
0
 10
15.7002
 20
25.912
 11
15.6157
 21
25.9259
  0
LINE
  8
0
 10
15.6157
 20
25.9259
 11
15.5316
 21
25.9442
  0
LINE
  8
0
 10
15.5316
 20
25.9442
 11
15.4487
 21
25.9655
  0
LINE
  8
0
 10
15.4487
 20
25.9655
 11
15.3665
 21
25.9903
  0
LINE
  8
0
 10
15.3665
 20
25.9903
 11
15.2851
 21
26.0186
  0
LINE
  8
0
 10
15.2851
 20
26.0186
 11
15.2053
 21
26.05
  0
LINE
  8
0
 10
15.2053
 20
26.05
 11
15.127
 21
26.0848
  0
LINE
  8
0
 10
15.127
 20
26.0848
 11
15.0499
 21
26.1232
  0
LINE
  8
0
 10
15.0499
 20
26.1232
 11
14.9747
 21
26.1643
  0
LINE
  8
0
 10
14.9747
 20
26.1643
 11
14.9014
 21
26.2089
  0
LINE
  8
0
 10
14.9014
 20
26.2089
 11
14.8297
 21
26.2565
  0
LINE
  8
0
 10
14.8297
 20
26.2565
 11
14.7603
 21
26.3069
  0
LINE
  8
0
 10
14.7603
 20
26.3069
 11
14.6929
 21
26.3604
  0
LINE
  8
0
 10
14.6929
 20
26.3604
 11
14.6282
 21
26.4162
  0
LINE
  8
0
 10
14.6282
 20
26.4162
 11
14.5654
 21
26.4751
  0
LINE
  8
0
 10
14.5654
 20
26.4751
 11
14.5053
 21
26.5364
  0
LINE
  8
0
 10
14.5053
 20
26.5364
 11
14.448
 21
26.6003
  0
LINE
  8
0
 10
14.448
 20
26.6003
 11
14.3933
 21
26.6666
  0
LINE
  8
0
 10
14.3933
 20
26.6666
 11
14.3414
 21
26.7348
  0
LINE
  8
0
 10
14.3414
 20
26.7348
 11
14.2922
 21
26.8053
  0
LINE
  8
0
 10
14.2922
 20
26.8053
 11
14.2464
 21
26.8778
  0
LINE
  8
0
 10
14.2464
 20
26.8778
 11
14.2034
 21
26.9522
  0
LINE
  8
0
 10
14.2034
 20
26.9522
 11
14.1635
 21
27.0282
  0
LINE
  8
0
 10
14.1635
 20
27.0282
 11
14.127
 21
27.1061
  0
LINE
  8
0
 10
14.127
 20
27.1061
 11
14.0937
 21
27.1852
  0
LINE
  8
0
 10
14.0937
 20
27.1852
 11
14.0639
 21
27.2658
  0
LINE
  8
0
 10
14.0639
 20
27.2658
 11
14.0371
 21
27.3472
  0
LINE
  8
0
 10
14.0371
 20
27.3472
 11
14.0143
 21
27.4301
  0
LINE
  8
0
 10
14.0143
 20
27.4301
 11
13.9945
 21
27.5134
  0
LINE
  8
0
 10
13.9945
 20
27.5134
 11
13.9786
 21
27.5979
  0
LINE
  8
0
 10
13.9786
 20
27.5979
 11
13.9658
 21
27.6828
  0
LINE
  8
0
 10
13.9658
 20
27.6828
 11
13.9569
 21
27.7685
  0
LINE
  8
0
 10
13.9569
 20
27.7685
 11
13.9515
 21
27.8541
  0
LINE
  8
0
 10
13.9515
 20
27.8541
 11
13.9499
 21
27.9398
  0
LINE
  8
0
 10
13.9499
 20
27.9398
 11
13.9515
 21
28.0258
  0
LINE
  8
0
 10
13.9515
 20
28.0258
 11
13.9569
 21
28.1115
  0
LINE
  8
0
 10
13.9569
 20
28.1115
 11
13.9658
 21
28.1967
  0
LINE
  8
0
 10
13.9658
 20
28.1967
 11
13.9786
 21
28.2816
  0
LINE
  8
0
 10
13.9786
 20
28.2816
 11
13.9945
 21
28.3661
  0
LINE
  8
0
 10
13.9945
 20
28.3661
 11
14.0143
 21
28.4494
  0
LINE
  8
0
 10
14.0143
 20
28.4494
 11
14.0371
 21
28.5324
  0
LINE
  8
0
 10
14.0371
 20
28.5324
 11
14.0639
 21
28.6141
  0
LINE
  8
0
 10
14.0639
 20
28.6141
 11
14.0937
 21
28.6944
  0
LINE
  8
0
 10
14.0937
 20
28.6944
 11
14.127
 21
28.7734
  0
LINE
  8
0
 10
14.127
 20
28.7734
 11
14.1635
 21
28.8513
  0
LINE
  8
0
 10
14.1635
 20
28.8513
 11
14.2034
 21
28.9273
  0
LINE
  8
0
 10
14.2034
 20
28.9273
 11
14.2464
 21
29.0017
  0
LINE
  8
0
 10
14.2464
 20
29.0017
 11
14.2922
 21
29.0742
  0
LINE
  8
0
 10
14.2922
 20
29.0742
 11
14.3414
 21
29.1447
  0
LINE
  8
0
 10
14.3414
 20
29.1447
 11
14.3933
 21
29.2133
  0
LINE
  8
0
 10
14.3933
 20
29.2133
 11
14.448
 21
29.2792
  0
LINE
  8
0
 10
14.448
 20
29.2792
 11
14.5053
 21
29.3432
  0
LINE
  8
0
 10
14.5053
 20
29.3432
 11
14.5654
 21
29.4044
  0
LINE
  8
0
 10
14.5654
 20
29.4044
 11
14.6282
 21
29.4633
  0
LINE
  8
0
 10
14.6282
 20
29.4633
 11
14.6929
 21
29.5195
  0
LINE
  8
0
 10
14.6929
 20
29.5195
 11
14.7603
 21
29.5726
  0
LINE
  8
0
 10
14.7603
 20
29.5726
 11
14.8297
 21
29.623
  0
LINE
  8
0
 10
14.8297
 20
29.623
 11
14.9014
 21
29.6707
  0
LINE
  8
0
 10
14.9014
 20
29.6707
 11
14.9747
 21
29.7152
  0
LINE
  8
0
 10
14.9747
 20
29.7152
 11
15.0499
 21
29.7563
  0
LINE
  8
0
 10
15.0499
 20
29.7563
 11
15.127
 21
29.7947
  0
LINE
  8
0
 10
15.127
 20
29.7947
 11
15.2053
 21
29.8296
  0
LINE
  8
0
 10
15.2053
 20
29.8296
 11
15.2851
 21
29.8614
  0
LINE
  8
0
 10
15.2851
 20
29.8614
 11
15.3665
 21
29.8896
  0
LINE
  8
0
 10
15.3665
 20
29.8896
 11
15.4487
 21
29.9145
  0
LINE
  8
0
 10
15.4487
 20
29.9145
 11
15.5316
 21
29.9358
  0
LINE
  8
0
 10
15.5316
 20
29.9358
 11
15.6157
 21
29.9536
  0
LINE
  8
0
 10
15.6157
 20
29.9536
 11
15.7002
 21
29.9679
  0
LINE
  8
0
 10
15.7002
 20
29.9679
 11
15.7855
 21
29.9784
  0
LINE
  8
0
 10
15.7855
 20
29.9784
 11
15.8711
 21
29.9858
  0
LINE
  8
0
 10
15.8711
 20
29.9858
 11
15.9568
 21
29.9893
  0
LINE
  8
0
 10
15.9568
 20
29.9893
 11
16.0428
 21
29.9893
  0
LINE
  8
0
 10
16.0428
 20
29.9893
 11
16.1285
 21
29.9858
  0
LINE
  8
0
 10
16.1285
 20
29.9858
 11
16.2141
 21
29.9784
  0
LINE
  8
0
 10
16.2141
 20
29.9784
 11
16.2994
 21
29.9679
  0
LINE
  8
0
 10
16.2994
 20
29.9679
 11
16.3839
 21
29.9536
  0
LINE
  8
0
 10
16.3839
 20
29.9536
 11
16.468
 21
29.9358
  0
LINE
  8
0
 10
16.468
 20
29.9358
 11
16.5509
 21
29.9145
  0
LINE
  8
0
 10
16.5509
 20
29.9145
 11
16.6335
 21
29.8896
  0
LINE
  8
0
 10
16.6335
 20
29.8896
 11
16.7145
 21
29.8614
  0
LINE
  8
0
 10
16.7145
 20
29.8614
 11
16.7943
 21
29.8296
  0
LINE
  8
0
 10
16.7943
 20
29.8296
 11
16.8726
 21
29.7947
  0
LINE
  8
0
 10
16.8726
 20
29.7947
 11
16.9497
 21
29.7563
  0
LINE
  8
0
 10
16.9497
 20
29.7563
 11
17.0249
 21
29.7152
  0
LINE
  8
0
 10
17.0249
 20
29.7152
 11
17.0982
 21
29.6707
  0
LINE
  8
0
 10
17.0982
 20
29.6707
 11
17.1699
 21
29.623
  0
LINE
  8
0
 10
17.1699
 20
29.623
 11
17.2393
 21
29.5726
  0
LINE
  8
0
 10
17.2393
 20
29.5726
 11
17.3067
 21
29.5195
  0
LINE
  8
0
 10
17.3067
 20
29.5195
 11
17.3714
 21
29.4633
  0
LINE
  8
0
 10
17.3714
 20
29.4633
 11
17.4342
 21
29.4044
  0
LINE
  8
0
 10
17.4342
 20
29.4044
 11
17.4943
 21
29.3432
  0
LINE
  8
0
 10
17.4943
 20
29.3432
 11
17.5516
 21
29.2792
  0
LINE
  8
0
 10
17.5516
 20
29.2792
 11
17.6063
 21
29.2133
  0
LINE
  8
0
 10
17.6063
 20
29.2133
 11
17.6582
 21
29.1447
  0
LINE
  8
0
 10
17.6582
 20
29.1447
 11
17.7074
 21
29.0742
  0
LINE
  8
0
 10
17.7074
 20
29.0742
 11
17.7532
 21
29.0017
  0
LINE
  8
0
 10
17.7532
 20
29.0017
 11
17.7962
 21
28.9273
  0
LINE
  8
0
 10
17.7962
 20
28.9273
 11
17.8361
 21
28.8513
  0
LINE
  8
0
 10
17.8361
 20
28.8513
 11
17.8726
 21
28.7734
  0
LINE
  8
0
 10
17.8726
 20
28.7734
 11
17.9059
 21
28.6944
  0
LINE
  8
0
 10
17.9059
 20
28.6944
 11
17.9357
 21
28.6141
  0
LINE
  8
0
 10
17.9357
 20
28.6141
 11
17.9625
 21
28.5324
  0
LINE
  8
0
 10
17.9625
 20
28.5324
 11
17.9853
 21
28.4494
  0
LINE
  8
0
 10
17.9853
 20
28.4494
 11
18.0051
 21
28.3661
  0
LINE
  8
0
 10
18.0051
 20
28.3661
 11
18.021
 21
28.2816
  0
LINE
  8
0
 10
18.021
 20
28.2816
 11
18.0338
 21
28.1967
  0
LINE
  8
0
 10
18.0338
 20
28.1967
 11
18.0427
 21
28.1115
  0
LINE
  8
0
 10
18.0427
 20
28.1115
 11
18.0481
 21
28.0258
  0
LINE
  8
0
 10
18.0481
 20
28.0258
 11
18.0497
 21
27.9398
  0
LINE
  8
0
 10
18.0497
 20
27.9398
 11
18.0481
 21
27.8541
  0
LINE
  8
0
 10
18.0481
 20
27.8541
 11
18.0427
 21
27.7685
  0
LINE
  8
0
 10
18.0427
 20
27.7685
 11
18.0338
 21
27.6828
  0
LINE
  8
0
 10
18.0338
 20
27.6828
 11
18.021
 21
27.5979
  0
LINE
  8
0
 10
18.021
 20
27.5979
 11
18.0051
 21
27.5134
  0
LINE
  8
0
 10
18.0051
 20
27.5134
 11
17.9853
 21
27.4301
  0
LINE
  8
0
 10
17.9853
 20
27.4301
 11
17.9625
 21
27.3472
  0
LINE
  8
0
 10
17.9625
 20
27.3472
 11
17.9357
 21
27.2658
  0
LINE
  8
0
 10
17.9357
 20
27.2658
 11
17.9059
 21
27.1852
  0
LINE
  8
0
 10
17.9059
 20
27.1852
 11
17.8726
 21
27.1061
  0
LINE
  8
0
 10
17.8726
 20
27.1061
 11
17.8361
 21
27.0282
  0
LINE
  8
0
 10
17.8361
 20
27.0282
 11
17.7962
 21
26.9522
  0
LINE
  8
0
 10
17.7962
 20
26.9522
 11
17.7532
 21
26.8778
  0
LINE
  8
0
 10
17.7532
 20
26.8778
 11
17.7074
 21
26.8053
  0
LINE
  8
0
 10
17.7074
 20
26.8053
 11
17.6582
 21
26.7348
  0
LINE
  8
0
 10
17.6582
 20
26.7348
 11
17.6063
 21
26.6666
  0
LINE
  8
0
 10
17.6063
 20
26.6666
 11
17.5516
 21
26.6003
  0
LINE
  8
0
 10
17.5516
 20
26.6003
 11
17.4943
 21
26.5364
  0
LINE
  8
0
 10
17.4943
 20
26.5364
 11
17.4342
 21
26.4751
  0
LINE
  8
0
 10
17.4342
 20
26.4751
 11
17.3714
 21
26.4162
  0
LINE
  8
0
 10
17.3714
 20
26.4162
 11
17.3067
 21
26.3604
  0
LINE
  8
0
 10
17.3067
 20
26.3604
 11
17.2393
 21
26.3069
  0
LINE
  8
0
 10
17.2393
 20
26.3069
 11
17.1699
 21
26.2565
  0
LINE
  8
0
 10
17.1699
 20
26.2565
 11
17.0982
 21
26.2089
  0
LINE
  8
0
 10
17.0982
 20
26.2089
 11
17.0249
 21
26.1643
  0
LINE
  8
0
 10
17.0249
 20
26.1643
 11
16.9497
 21
26.1232
  0
LINE
  8
0
 10
16.9497
 20
26.1232
 11
16.8726
 21
26.0848
  0
LINE
  8
0
 10
16.8726
 20
26.0848
 11
16.7943
 21
26.05
  0
LINE
  8
0
 10
16.7943
 20
26.05
 11
16.7145
 21
26.0186
  0
LINE
  8
0
 10
16.7145
 20
26.0186
 11
16.6335
 21
25.9903
  0
LINE
  8
0
 10
16.6335
 20
25.9903
 11
16.5509
 21
25.9655
  0
LINE
  8
0
 10
16.5509
 20
25.9655
 11
16.468
 21
25.9442
  0
LINE
  8
0
 10
16.468
 20
25.9442
 11
16.3839
 21
25.9259
  0
LINE
  8
0
 10
16.3839
 20
25.9259
 11
16.2994
 21
25.912
  0
LINE
  8
0
 10
16.2994
 20
25.912
 11
16.2141
 21
25.9011
  0
LINE
  8
0
 10
16.2141
 20
25.9011
 11
16.1285
 21
25.8938
  0
LINE
  8
0
 10
16.1285
 20
25.8938
 11
16.0428
 21
25.8903
  0
LINE
  8
0
 10
16.0428
 20
25.8903
 11
15.9568
 21
25.8903
  0
LINE
  8
0
 10
-16.0428
 20
25.8903
 11
-16.1285
 21
25.8938
  0
LINE
  8
0
 10
-16.1285
 20
25.8938
 11
-16.2141
 21
25.9011
  0
LINE
  8
0
 10
-16.2141
 20
25.9011
 11
-16.2994
 21
25.912
  0
LINE
  8
0
 10
-16.2994
 20
25.912
 11
-16.3839
 21
25.9259
  0
LINE
  8
0
 10
-16.3839
 20
25.9259
 11
-16.468
 21
25.9442
  0
LINE
  8
0
 10
-16.468
 20
25.9442
 11
-16.5509
 21
25.9655
  0
LINE
  8
0
 10
-16.5509
 20
25.9655
 11
-16.6335
 21
25.9903
  0
LINE
  8
0
 10
-16.6335
 20
25.9903
 11
-16.7145
 21
26.0186
  0
LINE
  8
0
 10
-16.7145
 20
26.0186
 11
-16.7943
 21
26.05
  0
LINE
  8
0
 10
-16.7943
 20
26.05
 11
-16.8726
 21
26.0848
  0
LINE
  8
0
 10
-16.8726
 20
26.0848
 11
-16.9497
 21
26.1232
  0
LINE
  8
0
 10
-16.9497
 20
26.1232
 11
-17.0249
 21
26.1643
  0
LINE
  8
0
 10
-17.0249
 20
26.1643
 11
-17.0982
 21
26.2089
  0
LINE
  8
0
 10
-17.0982
 20
26.2089
 11
-17.1699
 21
26.2565
  0
LINE
  8
0
 10
-17.1699
 20
26.2565
 11
-17.2393
 21
26.3069
  0
LINE
  8
0
 10
-17.2393
 20
26.3069
 11
-17.3067
 21
26.3604
  0
LINE
  8
0
 10
-17.3067
 20
26.3604
 11
-17.3714
 21
26.4162
  0
LINE
  8
0
 10
-17.3714
 20
26.4162
 11
-17.4342
 21
26.4751
  0
LINE
  8
0
 10
-17.4342
 20
26.4751
 11
-17.4943
 21
26.5364
  0
LINE
  8
0
 10
-17.4943
 20
26.5364
 11
-17.5516
 21
26.6003
  0
LINE
  8
0
 10
-17.5516
 20
26.6003
 11
-17.6063
 21
26.6666
  0
LINE
  8
0
 10
-17.6063
 20
26.6666
 11
-17.6582
 21
26.7348
  0
LINE
  8
0
 10
-17.6582
 20
26.7348
 11
-17.7074
 21
26.8053
  0
LINE
  8
0
 10
-17.7074
 20
26.8053
 11
-17.7532
 21
26.8778
  0
LINE
  8
0
 10
-17.7532
 20
26.8778
 11
-17.7962
 21
26.9522
  0
LINE
  8
0
 10
-17.7962
 20
26.9522
 11
-17.8361
 21
27.0282
  0
LINE
  8
0
 10
-17.8361
 20
27.0282
 11
-17.8726
 21
27.1061
  0
LINE
  8
0
 10
-17.8726
 20
27.1061
 11
-17.9059
 21
27.1852
  0
LINE
  8
0
 10
-17.9059
 20
27.1852
 11
-17.9357
 21
27.2658
  0
LINE
  8
0
 10
-17.9357
 20
27.2658
 11
-17.9625
 21
27.3472
  0
LINE
  8
0
 10
-17.9625
 20
27.3472
 11
-17.9853
 21
27.4301
  0
LINE
  8
0
 10
-17.9853
 20
27.4301
 11
-18.0051
 21
27.5134
  0
LINE
  8
0
 10
-18.0051
 20
27.5134
 11
-18.021
 21
27.5979
  0
LINE
  8
0
 10
-18.021
 20
27.5979
 11
-18.0338
 21
27.6828
  0
LINE
  8
0
 10
-18.0338
 20
27.6828
 11
-18.0427
 21
27.7685
  0
LINE
  8
0
 10
-18.0427
 20
27.7685
 11
-18.0481
 21
27.8541
  0
LINE
  8
0
 10
-18.0481
 20
27.8541
 11
-18.0497
 21
27.9398
  0
LINE
  8
0
 10
-18.0497
 20
27.9398
 11
-18.0481
 21
28.0258
  0
LINE
  8
0
 10
-18.0481
 20
28.0258
 11
-18.0427
 21
28.1115
  0
LINE
  8
0
 10
-18.0427
 20
28.1115
 11
-18.0338
 21
28.1967
  0
LINE
  8
0
 10
-18.0338
 20
28.1967
 11
-18.021
 21
28.2816
  0
LINE
  8
0
 10
-18.021
 20
28.2816
 11
-18.0051
 21
28.3661
  0
LINE
  8
0
 10
-18.0051
 20
28.3661
 11
-17.9853
 21
28.4494
  0
LINE
  8
0
 10
-17.9853
 20
28.4494
 11
-17.9625
 21
28.5324
  0
LINE
  8
0
 10
-17.9625
 20
28.5324
 11
-17.9357
 21
28.6141
  0
LINE
  8
0
 10
-17.9357
 20
28.6141
 11
-17.9059
 21
28.6944
  0
LINE
  8
0
 10
-17.9059
 20
28.6944
 11
-17.8726
 21
28.7734
  0
LINE
  8
0
 10
-17.8726
 20
28.7734
 11
-17.8361
 21
28.8513
  0
LINE
  8
0
 10
-17.8361
 20
28.8513
 11
-17.7962
 21
28.9273
  0
LINE
  8
0
 10
-17.7962
 20
28.9273
 11
-17.7532
 21
29.0017
  0
LINE
  8
0
 10
-17.7532
 20
29.0017
 11
-17.7074
 21
29.0742
  0
LINE
  8
0
 10
-17.7074
 20
29.0742
 11
-17.6582
 21
29.1447
  0
LINE
  8
0
 10
-17.6582
 20
29.1447
 11
-17.6063
 21
29.2133
  0
LINE
  8
0
 10
-17.6063
 20
29.2133
 11
-17.5516
 21
29.2792
  0
LINE
  8
0
 10
-17.5516
 20
29.2792
 11
-17.4943
 21
29.3432
  0
LINE
  8
0
 10
-17.4943
 20
29.3432
 11
-17.4342
 21
29.4044
  0
LINE
  8
0
 10
-17.4342
 20
29.4044
 11
-17.3714
 21
29.4633
  0
LINE
  8
0
 10
-17.3714
 20
29.4633
 11
-17.3067
 21
29.5195
  0
LINE
  8
0
 10
-17.3067
 20
29.5195
 11
-17.2393
 21
29.5726
  0
LINE
  8
0
 10
-17.2393
 20
29.5726
 11
-17.1699
 21
29.623
  0
LINE
  8
0
 10
-17.1699
 20
29.623
 11
-17.0982
 21
29.6707
  0
LINE
  8
0
 10
-17.0982
 20
29.6707
 11
-17.0249
 21
29.7152
  0
LINE
  8
0
 10
-17.0249
 20
29.7152
 11
-16.9497
 21
29.7563
  0
LINE
  8
0
 10
-16.9497
 20
29.7563
 11
-16.8726
 21
29.7947
  0
LINE
  8
0
 10
-16.8726
 20
29.7947
 11
-16.7943
 21
29.8296
  0
LINE
  8
0
 10
-16.7943
 20
29.8296
 11
-16.7145
 21
29.8614
  0
LINE
  8
0
 10
-16.7145
 20
29.8614
 11
-16.6335
 21
29.8896
  0
LINE
  8
0
 10
-16.6335
 20
29.8896
 11
-16.5509
 21
29.9145
  0
LINE
  8
0
 10
-16.5509
 20
29.9145
 11
-16.468
 21
29.9358
  0
LINE
  8
0
 10
-16.468
 20
29.9358
 11
-16.3839
 21
29.9536
  0
LINE
  8
0
 10
-16.3839
 20
29.9536
 11
-16.2994
 21
29.9679
  0
LINE
  8
0
 10
-16.2994
 20
29.9679
 11
-16.2141
 21
29.9784
  0
LINE
  8
0
 10
-16.2141
 20
29.9784
 11
-16.1285
 21
29.9858
  0
LINE
  8
0
 10
-16.1285
 20
29.9858
 11
-16.0428
 21
29.9893
  0
LINE
  8
0
 10
-16.0428
 20
29.9893
 11
-15.9568
 21
29.9893
  0
LINE
  8
0
 10
-15.9568
 20
29.9893
 11
-15.8711
 21
29.9858
  0
LINE
  8
0
 10
-15.8711
 20
29.9858
 11
-15.7855
 21
29.9784
  0
LINE
  8
0
 10
-15.7855
 20
29.9784
 11
-15.7002
 21
29.9679
  0
LINE
  8
0
 10
-15.7002
 20
29.9679
 11
-15.6157
 21
29.9536
  0
LINE
  8
0
 10
-15.6157
 20
29.9536
 11
-15.5316
 21
29.9358
  0
LINE
  8
0
 10
-15.5316
 20
29.9358
 11
-15.4487
 21
29.9145
  0
LINE
  8
0
 10
-15.4487
 20
29.9145
 11
-15.3665
 21
29.8896
  0
LINE
  8
0
 10
-15.3665
 20
29.8896
 11
-15.2851
 21
29.8614
  0
LINE
  8
0
 10
-15.2851
 20
29.8614
 11
-15.2053
 21
29.8296
  0
LINE
  8
0
 10
-15.2053
 20
29.8296
 11
-15.127
 21
29.7947
  0
LINE
  8
0
 10
-15.127
 20
29.7947
 11
-15.0499
 21
29.7563
  0
LINE
  8
0
 10
-15.0499
 20
29.7563
 11
-14.9747
 21
29.7152
  0
LINE
  8
0
 10
-14.9747
 20
29.7152
 11
-14.9014
 21
29.6707
  0
LINE
  8
0
 10
-14.9014
 20
29.6707
 11
-14.8297
 21
29.623
  0
LINE
  8
0
 10
-14.8297
 20
29.623
 11
-14.7603
 21
29.5726
  0
LINE
  8
0
 10
-14.7603
 20
29.5726
 11
-14.6929
 21
29.5195
  0
LINE
  8
0
 10
-14.6929
 20
29.5195
 11
-14.6282
 21
29.4633
  0
LINE
  8
0
 10
-14.6282
 20
29.4633
 11
-14.5654
 21
29.4044
  0
LINE
  8
0
 10
-14.5654
 20
29.4044
 11
-14.5053
 21
29.3432
  0
LINE
  8
0
 10
-14.5053
 20
29.3432
 11
-14.448
 21
29.2792
  0
LINE
  8
0
 10
-14.448
 20
29.2792
 11
-14.3933
 21
29.2133
  0
LINE
  8
0
 10
-14.3933
 20
29.2133
 11
-14.3414
 21
29.1447
  0
LINE
  8
0
 10
-14.3414
 20
29.1447
 11
-14.2922
 21
29.0742
  0
LINE
  8
0
 10
-14.2922
 20
29.0742
 11
-14.2464
 21
29.0017
  0
LINE
  8
0
 10
-14.2464
 20
29.0017
 11
-14.2034
 21
28.9273
  0
LINE
  8
0
 10
-14.2034
 20
28.9273
 11
-14.1635
 21
28.8513
  0
LINE
  8
0
 10
-14.1635
 20
28.8513
 11
-14.127
 21
28.7734
  0
LINE
  8
0
 10
-14.127
 20
28.7734
 11
-14.0937
 21
28.6944
  0
LINE
  8
0
 10
-14.0937
 20
28.6944
 11
-14.0639
 21
28.6141
  0
LINE
  8
0
 10
-14.0639
 20
28.6141
 11
-14.0371
 21
28.5324
  0
LINE
  8
0
 10
-14.0371
 20
28.5324
 11
-14.0143
 21
28.4494
  0
LINE
  8
0
 10
-14.0143
 20
28.4494
 11
-13.9945
 21
28.3661
  0
LINE
  8
0
 10
-13.9945
 20
28.3661
 11
-13.9786
 21
28.2816
  0
LINE
  8
0
 10
-13.9786
 20
28.2816
 11
-13.9658
 21
28.1967
  0
LINE
  8
0
 10
-13.9658
 20
28.1967
 11
-13.9569
 21
28.1115
  0
LINE
  8
0
 10
-13.9569
 20
28.1115
 11
-13.9515
 21
28.0258
  0
LINE
  8
0
 10
-13.9515
 20
28.0258
 11
-13.9499
 21
27.9398
  0
LINE
  8
0
 10
-13.9499
 20
27.9398
 11
-13.9515
 21
27.8541
  0
LINE
  8
0
 10
-13.9515
 20
27.8541
 11
-13.9569
 21
27.7685
  0
LINE
  8
0
 10
-13.9569
 20
27.7685
 11
-13.9658
 21
27.6828
  0
LINE
  8
0
 10
-13.9658
 20
27.6828
 11
-13.9786
 21
27.5979
  0
LINE
  8
0
 10
-13.9786
 20
27.5979
 11
-13.9945
 21
27.5134
  0
LINE
  8
0
 10
-13.9945
 20
27.5134
 11
-14.0143
 21
27.4301
  0
LINE
  8
0
 10
-14.0143
 20
27.4301
 11
-14.0371
 21
27.3472
  0
LINE
  8
0
 10
-14.0371
 20
27.3472
 11
-14.0639
 21
27.2658
  0
LINE
  8
0
 10
-14.0639
 20
27.2658
 11
-14.0937
 21
27.1852
  0
LINE
  8
0
 10
-14.0937
 20
27.1852
 11
-14.127
 21
27.1061
  0
LINE
  8
0
 10
-14.127
 20
27.1061
 11
-14.1635
 21
27.0282
  0
LINE
  8
0
 10
-14.1635
 20
27.0282
 11
-14.2034
 21
26.9522
  0
LINE
  8
0
 10
-14.2034
 20
26.9522
 11
-14.2464
 21
26.8778
  0
LINE
  8
0
 10
-14.2464
 20
26.8778
 11
-14.2922
 21
26.8053
  0
LINE
  8
0
 10
-14.2922
 20
26.8053
 11
-14.3414
 21
26.7348
  0
LINE
  8
0
 10
-14.3414
 20
26.7348
 11
-14.3933
 21
26.6666
  0
LINE
  8
0
 10
-14.3933
 20
26.6666
 11
-14.448
 21
26.6003
  0
LINE
  8
0
 10
-14.448
 20
26.6003
 11
-14.5053
 21
26.5364
  0
LINE
  8
0
 10
-14.5053
 20
26.5364
 11
-14.5654
 21
26.4751
  0
LINE
  8
0
 10
-14.5654
 20
26.4751
 11
-14.6282
 21
26.4162
  0
LINE
  8
0
 10
-14.6282
 20
26.4162
 11
-14.6929
 21
26.3604
  0
LINE
  8
0
 10
-14.6929
 20
26.3604
 11
-14.7603
 21
26.3069
  0
LINE
  8
0
 10
-14.7603
 20
26.3069
 11
-14.8297
 21
26.2565
  0
LINE
  8
0
 10
-14.8297
 20
26.2565
 11
-14.9014
 21
26.2089
  0
LINE
  8
0
 10
-14.9014
 20
26.2089
 11
-14.9747
 21
26.1643
  0
LINE
  8
0
 10
-14.9747
 20
26.1643
 11
-15.0499
 21
26.1232
  0
LINE
  8
0
 10
-15.0499
 20
26.1232
 11
-15.127
 21
26.0848
  0
LINE
  8
0
 10
-15.127
 20
26.0848
 11
-15.2053
 21
26.05
  0
LINE
  8
0
 10
-15.2053
 20
26.05
 11
-15.2851
 21
26.0186
  0
LINE
  8
0
 10
-15.2851
 20
26.0186
 11
-15.3665
 21
25.9903
  0
LINE
  8
0
 10
-15.3665
 20
25.9903
 11
-15.4487
 21
25.9655
  0
LINE
  8
0
 10
-15.4487
 20
25.9655
 11
-15.5316
 21
25.9442
  0
LINE
  8
0
 10
-15.5316
 20
25.9442
 11
-15.6157
 21
25.9259
  0
LINE
  8
0
 10
-15.6157
 20
25.9259
 11
-15.7002
 21
25.912
  0
LINE
  8
0
 10
-15.7002
 20
25.912
 11
-15.7855
 21
25.9011
  0
LINE
  8
0
 10
-15.7855
 20
25.9011
 11
-15.8711
 21
25.8938
  0
LINE
  8
0
 10
-15.8711
 20
25.8938
 11
-15.9568
 21
25.8903
  0
LINE
  8
0
 10
-15.9568
 20
25.8903
 11
-16.0428
 21
25.8903
  0
LINE
  8
0
 10
-16.0855
 20
13.9515
 11
-16.1715
 21
13.9569
  0
LINE
  8
0
 10
-16.1715
 20
13.9569
 11
-16.2568
 21
13.9658
  0
LINE
  8
0
 10
-16.2568
 20
13.9658
 11
-16.3416
 21
13.9786
  0
LINE
  8
0
 10
-16.3416
 20
13.9786
 11
-16.4261
 21
13.9945
  0
LINE
  8
0
 10
-16.4261
 20
13.9945
 11
-16.5095
 21
14.0143
  0
LINE
  8
0
 10
-16.5095
 20
14.0143
 11
-16.5924
 21
14.0371
  0
LINE
  8
0
 10
-16.5924
 20
14.0371
 11
-16.6738
 21
14.0639
  0
LINE
  8
0
 10
-16.6738
 20
14.0639
 11
-16.7544
 21
14.0937
  0
LINE
  8
0
 10
-16.7544
 20
14.0937
 11
-16.8335
 21
14.127
  0
LINE
  8
0
 10
-16.8335
 20
14.127
 11
-16.9114
 21
14.1635
  0
LINE
  8
0
 10
-16.9114
 20
14.1635
 11
-16.9873
 21
14.2034
  0
LINE
  8
0
 10
-16.9873
 20
14.2034
 11
-17.0617
 21
14.2464
  0
LINE
  8
0
 10
-17.0617
 20
14.2464
 11
-17.1342
 21
14.2922
  0
LINE
  8
0
 10
-17.1342
 20
14.2922
 11
-17.2048
 21
14.3414
  0
LINE
  8
0
 10
-17.2048
 20
14.3414
 11
-17.273
 21
14.3933
  0
LINE
  8
0
 10
-17.273
 20
14.3933
 11
-17.3393
 21
14.448
  0
LINE
  8
0
 10
-17.3393
 20
14.448
 11
-17.4032
 21
14.5053
  0
LINE
  8
0
 10
-17.4032
 20
14.5053
 11
-17.4644
 21
14.5654
  0
LINE
  8
0
 10
-17.4644
 20
14.5654
 11
-17.5233
 21
14.6282
  0
LINE
  8
0
 10
-17.5233
 20
14.6282
 11
-17.5795
 21
14.6929
  0
LINE
  8
0
 10
-17.5795
 20
14.6929
 11
-17.6326
 21
14.7603
  0
LINE
  8
0
 10
-17.6326
 20
14.7603
 11
-17.683
 21
14.8297
  0
LINE
  8
0
 10
-17.683
 20
14.8297
 11
-17.7307
 21
14.9014
  0
LINE
  8
0
 10
-17.7307
 20
14.9014
 11
-17.7753
 21
14.9747
  0
LINE
  8
0
 10
-17.7753
 20
14.9747
 11
-17.8164
 21
15.0499
  0
LINE
  8
0
 10
-17.8164
 20
15.0499
 11
-17.8547
 21
15.127
  0
LINE
  8
0
 10
-17.8547
 20
15.127
 11
-17.8896
 21
15.2053
  0
LINE
  8
0
 10
-17.8896
 20
15.2053
 11
-17.9214
 21
15.2851
  0
LINE
  8
0
 10
-17.9214
 20
15.2851
 11
-17.9493
 21
15.3665
  0
LINE
  8
0
 10
-17.9493
 20
15.3665
 11
-17.9741
 21
15.4487
  0
LINE
  8
0
 10
-17.9741
 20
15.4487
 11
-17.9958
 21
15.5316
  0
LINE
  8
0
 10
-17.9958
 20
15.5316
 11
-18.0136
 21
15.6157
  0
LINE
  8
0
 10
-18.0136
 20
15.6157
 11
-18.028
 21
15.7002
  0
LINE
  8
0
 10
-18.028
 20
15.7002
 11
-18.0384
 21
15.7855
  0
LINE
  8
0
 10
-18.0384
 20
15.7855
 11
-18.0458
 21
15.8711
  0
LINE
  8
0
 10
-18.0458
 20
15.8711
 11
-18.0493
 21
15.9568
  0
LINE
  8
0
 10
-18.0493
 20
15.9568
 11
-18.0493
 21
16.0428
  0
LINE
  8
0
 10
-18.0493
 20
16.0428
 11
-18.0458
 21
16.1285
  0
LINE
  8
0
 10
-18.0458
 20
16.1285
 11
-18.0384
 21
16.2141
  0
LINE
  8
0
 10
-18.0384
 20
16.2141
 11
-18.028
 21
16.2994
  0
LINE
  8
0
 10
-18.028
 20
16.2994
 11
-18.0136
 21
16.3839
  0
LINE
  8
0
 10
-18.0136
 20
16.3839
 11
-17.9958
 21
16.468
  0
LINE
  8
0
 10
-17.9958
 20
16.468
 11
-17.9741
 21
16.5509
  0
LINE
  8
0
 10
-17.9741
 20
16.5509
 11
-17.9493
 21
16.6335
  0
LINE
  8
0
 10
-17.9493
 20
16.6335
 11
-17.9214
 21
16.7145
  0
LINE
  8
0
 10
-17.9214
 20
16.7145
 11
-17.8896
 21
16.7943
  0
LINE
  8
0
 10
-17.8896
 20
16.7943
 11
-17.8547
 21
16.8726
  0
LINE
  8
0
 10
-17.8547
 20
16.8726
 11
-17.8164
 21
16.9497
  0
LINE
  8
0
 10
-17.8164
 20
16.9497
 11
-17.7753
 21
17.0249
  0
LINE
  8
0
 10
-17.7753
 20
17.0249
 11
-17.7307
 21
17.0982
  0
LINE
  8
0
 10
-17.7307
 20
17.0982
 11
-17.683
 21
17.1699
  0
LINE
  8
0
 10
-17.683
 20
17.1699
 11
-17.6326
 21
17.2393
  0
LINE
  8
0
 10
-17.6326
 20
17.2393
 11
-17.5795
 21
17.3067
  0
LINE
  8
0
 10
-17.5795
 20
17.3067
 11
-17.5233
 21
17.3714
  0
LINE
  8
0
 10
-17.5233
 20
17.3714
 11
-17.4644
 21
17.4342
  0
LINE
  8
0
 10
-17.4644
 20
17.4342
 11
-17.4032
 21
17.4943
  0
LINE
  8
0
 10
-17.4032
 20
17.4943
 11
-17.3393
 21
17.5516
  0
LINE
  8
0
 10
-17.3393
 20
17.5516
 11
-17.273
 21
17.6063
  0
LINE
  8
0
 10
-17.273
 20
17.6063
 11
-17.2048
 21
17.6582
  0
LINE
  8
0
 10
-17.2048
 20
17.6582
 11
-17.1342
 21
17.7074
  0
LINE
  8
0
 10
-17.1342
 20
17.7074
 11
-17.0617
 21
17.7532
  0
LINE
  8
0
 10
-17.0617
 20
17.7532
 11
-16.9873
 21
17.7962
  0
LINE
  8
0
 10
-16.9873
 20
17.7962
 11
-16.9114
 21
17.8361
  0
LINE
  8
0
 10
-16.9114
 20
17.8361
 11
-16.8335
 21
17.8726
  0
LINE
  8
0
 10
-16.8335
 20
17.8726
 11
-16.7544
 21
17.9059
  0
LINE
  8
0
 10
-16.7544
 20
17.9059
 11
-16.6738
 21
17.9357
  0
LINE
  8
0
 10
-16.6738
 20
17.9357
 11
-16.5924
 21
17.9625
  0
LINE
  8
0
 10
-16.5924
 20
17.9625
 11
-16.5095
 21
17.9853
  0
LINE
  8
0
 10
-16.5095
 20
17.9853
 11
-16.4261
 21
18.0051
  0
LINE
  8
0
 10
-16.4261
 20
18.0051
 11
-16.3416
 21
18.021
  0
LINE
  8
0
 10
-16.3416
 20
18.021
 11
-16.2568
 21
18.0338
  0
LINE
  8
0
 10
-16.2568
 20
18.0338
 11
-16.1715
 21
18.0427
  0
LINE
  8
0
 10
-16.1715
 20
18.0427
 11
-16.0855
 21
18.0481
  0
LINE
  8
0
 10
-16.0855
 20
18.0481
 11
-15.9998
 21
18.0497
  0
LINE
  8
0
 10
-15.9998
 20
18.0497
 11
-15.9141
 21
18.0481
  0
LINE
  8
0
 10
-15.9141
 20
18.0481
 11
-15.8281
 21
18.0427
  0
LINE
  8
0
 10
-15.8281
 20
18.0427
 11
-15.7428
 21
18.0338
  0
LINE
  8
0
 10
-15.7428
 20
18.0338
 11
-15.658
 21
18.021
  0
LINE
  8
0
 10
-15.658
 20
18.021
 11
-15.5735
 21
18.0051
  0
LINE
  8
0
 10
-15.5735
 20
18.0051
 11
-15.4901
 21
17.9853
  0
LINE
  8
0
 10
-15.4901
 20
17.9853
 11
-15.4072
 21
17.9625
  0
LINE
  8
0
 10
-15.4072
 20
17.9625
 11
-15.3258
 21
17.9357
  0
LINE
  8
0
 10
-15.3258
 20
17.9357
 11
-15.2452
 21
17.9059
  0
LINE
  8
0
 10
-15.2452
 20
17.9059
 11
-15.1661
 21
17.8726
  0
LINE
  8
0
 10
-15.1661
 20
17.8726
 11
-15.0882
 21
17.8361
  0
LINE
  8
0
 10
-15.0882
 20
17.8361
 11
-15.0123
 21
17.7962
  0
LINE
  8
0
 10
-15.0123
 20
17.7962
 11
-14.9378
 21
17.7532
  0
LINE
  8
0
 10
-14.9378
 20
17.7532
 11
-14.8654
 21
17.7074
  0
LINE
  8
0
 10
-14.8654
 20
17.7074
 11
-14.7948
 21
17.6582
  0
LINE
  8
0
 10
-14.7948
 20
17.6582
 11
-14.7266
 21
17.6063
  0
LINE
  8
0
 10
-14.7266
 20
17.6063
 11
-14.6603
 21
17.5516
  0
LINE
  8
0
 10
-14.6603
 20
17.5516
 11
-14.5964
 21
17.4943
  0
LINE
  8
0
 10
-14.5964
 20
17.4943
 11
-14.5352
 21
17.4342
  0
LINE
  8
0
 10
-14.5352
 20
17.4342
 11
-14.4762
 21
17.3714
  0
LINE
  8
0
 10
-14.4762
 20
17.3714
 11
-14.4204
 21
17.3067
  0
LINE
  8
0
 10
-14.4204
 20
17.3067
 11
-14.367
 21
17.2393
  0
LINE
  8
0
 10
-14.367
 20
17.2393
 11
-14.3166
 21
17.1699
  0
LINE
  8
0
 10
-14.3166
 20
17.1699
 11
-14.2689
 21
17.0982
  0
LINE
  8
0
 10
-14.2689
 20
17.0982
 11
-14.2243
 21
17.0249
  0
LINE
  8
0
 10
-14.2243
 20
17.0249
 11
-14.1832
 21
16.9497
  0
LINE
  8
0
 10
-14.1832
 20
16.9497
 11
-14.1449
 21
16.8726
  0
LINE
  8
0
 10
-14.1449
 20
16.8726
 11
-14.11
 21
16.7943
  0
LINE
  8
0
 10
-14.11
 20
16.7943
 11
-14.0782
 21
16.7145
  0
LINE
  8
0
 10
-14.0782
 20
16.7145
 11
-14.0503
 21
16.6335
  0
LINE
  8
0
 10
-14.0503
 20
16.6335
 11
-14.0255
 21
16.5509
  0
LINE
  8
0
 10
-14.0255
 20
16.5509
 11
-14.0038
 21
16.468
  0
LINE
  8
0
 10
-14.0038
 20
16.468
 11
-13.986
 21
16.3839
  0
LINE
  8
0
 10
-13.986
 20
16.3839
 11
-13.9716
 21
16.2994
  0
LINE
  8
0
 10
-13.9716
 20
16.2994
 11
-13.9612
 21
16.2141
  0
LINE
  8
0
 10
-13.9612
 20
16.2141
 11
-13.9538
 21
16.1285
  0
LINE
  8
0
 10
-13.9538
 20
16.1285
 11
-13.9503
 21
16.0428
  0
LINE
  8
0
 10
-13.9503
 20
16.0428
 11
-13.9503
 21
15.9568
  0
LINE
  8
0
 10
-13.9503
 20
15.9568
 11
-13.9538
 21
15.8711
  0
LINE
  8
0
 10
-13.9538
 20
15.8711
 11
-13.9612
 21
15.7855
  0
LINE
  8
0
 10
-13.9612
 20
15.7855
 11
-13.9716
 21
15.7002
  0
LINE
  8
0
 10
-13.9716
 20
15.7002
 11
-13.986
 21
15.6157
  0
LINE
  8
0
 10
-13.986
 20
15.6157
 11
-14.0038
 21
15.5316
  0
LINE
  8
0
 10
-14.0038
 20
15.5316
 11
-14.0255
 21
15.4487
  0
LINE
  8
0
 10
-14.0255
 20
15.4487
 11
-14.0503
 21
15.3665
  0
LINE
  8
0
 10
-14.0503
 20
15.3665
 11
-14.0782
 21
15.2851
  0
LINE
  8
0
 10
-14.0782
 20
15.2851
 11
-14.11
 21
15.2053
  0
LINE
  8
0
 10
-14.11
 20
15.2053
 11
-14.1449
 21
15.127
  0
LINE
  8
0
 10
-14.1449
 20
15.127
 11
-14.1832
 21
15.0499
  0
LINE
  8
0
 10
-14.1832
 20
15.0499
 11
-14.2243
 21
14.9747
  0
LINE
  8
0
 10
-14.2243
 20
14.9747
 11
-14.2689
 21
14.9014
  0
LINE
  8
0
 10
-14.2689
 20
14.9014
 11
-14.3166
 21
14.8297
  0
LINE
  8
0
 10
-14.3166
 20
14.8297
 11
-14.367
 21
14.7603
  0
LINE
  8
0
 10
-14.367
 20
14.7603
 11
-14.4204
 21
14.6929
  0
LINE
  8
0
 10
-14.4204
 20
14.6929
 11
-14.4762
 21
14.6282
  0
LINE
  8
0
 10
-14.4762
 20
14.6282
 11
-14.5352
 21
14.5654
  0
LINE
  8
0
 10
-14.5352
 20
14.5654
 11
-14.5964
 21
14.5053
  0
LINE
  8
0
 10
-14.5964
 20
14.5053
 11
-14.6603
 21
14.448
  0
LINE
  8
0
 10
-14.6603
 20
14.448
 11
-14.7266
 21
14.3933
  0
LINE
  8
0
 10
-14.7266
 20
14.3933
 11
-14.7948
 21
14.3414
  0
LINE
  8
0
 10
-14.7948
 20
14.3414
 11
-14.8654
 21
14.2922
  0
LINE
  8
0
 10
-14.8654
 20
14.2922
 11
-14.9378
 21
14.2464
  0
LINE
  8
0
 10
-14.9378
 20
14.2464
 11
-15.0123
 21
14.2034
  0
LINE
  8
0
 10
-15.0123
 20
14.2034
 11
-15.0882
 21
14.1635
  0
LINE
  8
0
 10
-15.0882
 20
14.1635
 11
-15.1661
 21
14.127
  0
LINE
  8
0
 10
-15.1661
 20
14.127
 11
-15.2452
 21
14.0937
  0
LINE
  8
0
 10
-15.2452
 20
14.0937
 11
-15.3258
 21
14.0639
  0
LINE
  8
0
 10
-15.3258
 20
14.0639
 11
-15.4072
 21
14.0371
  0
LINE
  8
0
 10
-15.4072
 20
14.0371
 11
-15.4901
 21
14.0143
  0
LINE
  8
0
 10
-15.4901
 20
14.0143
 11
-15.5735
 21
13.9945
  0
LINE
  8
0
 10
-15.5735
 20
13.9945
 11
-15.658
 21
13.9786
  0
LINE
  8
0
 10
-15.658
 20
13.9786
 11
-15.7428
 21
13.9658
  0
LINE
  8
0
 10
-15.7428
 20
13.9658
 11
-15.8281
 21
13.9569
  0
LINE
  8
0
 10
-15.8281
 20
13.9569
 11
-15.9141
 21
13.9515
  0
LINE
  8
0
 10
-15.9141
 20
13.9515
 11
-15.9998
 21
13.9499
  0
LINE
  8
0
 10
-15.9998
 20
13.9499
 11
-16.0855
 21
13.9515
  0
LINE
  8
0
 10
15.9141
 20
13.9515
 11
15.8281
 21
13.9569
  0
LINE
  8
0
 10
15.8281
 20
13.9569
 11
15.7428
 21
13.9658
  0
LINE
  8
0
 10
15.7428
 20
13.9658
 11
15.658
 21
13.9786
  0
LINE
  8
0
 10
15.658
 20
13.9786
 11
15.5735
 21
13.9945
  0
LINE
  8
0
 10
15.5735
 20
13.9945
 11
15.4901
 21
14.0143
  0
LINE
  8
0
 10
15.4901
 20
14.0143
 11
15.4072
 21
14.0371
  0
LINE
  8
0
 10
15.4072
 20
14.0371
 11
15.3258
 21
14.0639
  0
LINE
  8
0
 10
15.3258
 20
14.0639
 11
15.2452
 21
14.0937
  0
LINE
  8
0
 10
15.2452
 20
14.0937
 11
15.1661
 21
14.127
  0
LINE
  8
0
 10
15.1661
 20
14.127
 11
15.0882
 21
14.1635
  0
LINE
  8
0
 10
15.0882
 20
14.1635
 11
15.0123
 21
14.2034
  0
LINE
  8
0
 10
15.0123
 20
14.2034
 11
14.9378
 21
14.2464
  0
LINE
  8
0
 10
14.9378
 20
14.2464
 11
14.8654
 21
14.2922
  0
LINE
  8
0
 10
14.8654
 20
14.2922
 11
14.7948
 21
14.3414
  0
LINE
  8
0
 10
14.7948
 20
14.3414
 11
14.7266
 21
14.3933
  0
LINE
  8
0
 10
14.7266
 20
14.3933
 11
14.6603
 21
14.448
  0
LINE
  8
0
 10
14.6603
 20
14.448
 11
14.5964
 21
14.5053
  0
LINE
  8
0
 10
14.5964
 20
14.5053
 11
14.5352
 21
14.5654
  0
LINE
  8
0
 10
14.5352
 20
14.5654
 11
14.4762
 21
14.6282
  0
LINE
  8
0
 10
14.4762
 20
14.6282
 11
14.4204
 21
14.6929
  0
LINE
  8
0
 10
14.4204
 20
14.6929
 11
14.367
 21
14.7603
  0
LINE
  8
0
 10
14.367
 20
14.7603
 11
14.3166
 21
14.8297
  0
LINE
  8
0
 10
14.3166
 20
14.8297
 11
14.2689
 21
14.9014
  0
LINE
  8
0
 10
14.2689
 20
14.9014
 11
14.2243
 21
14.9747
  0
LINE
  8
0
 10
14.2243
 20
14.9747
 11
14.1832
 21
15.0499
  0
LINE
  8
0
 10
14.1832
 20
15.0499
 11
14.1449
 21
15.127
  0
LINE
  8
0
 10
14.1449
 20
15.127
 11
14.11
 21
15.2053
  0
LINE
  8
0
 10
14.11
 20
15.2053
 11
14.0782
 21
15.2851
  0
LINE
  8
0
 10
14.0782
 20
15.2851
 11
14.0503
 21
15.3665
  0
LINE
  8
0
 10
14.0503
 20
15.3665
 11
14.0255
 21
15.4487
  0
LINE
  8
0
 10
14.0255
 20
15.4487
 11
14.0038
 21
15.5316
  0
LINE
  8
0
 10
14.0038
 20
15.5316
 11
13.986
 21
15.6157
  0
LINE
  8
0
 10
13.986
 20
15.6157
 11
13.9716
 21
15.7002
  0
LINE
  8
0
 10
13.9716
 20
15.7002
 11
13.9612
 21
15.7855
  0
LINE
  8
0
 10
13.9612
 20
15.7855
 11
13.9538
 21
15.8711
  0
LINE
  8
0
 10
13.9538
 20
15.8711
 11
13.9503
 21
15.9568
  0
LINE
  8
0
 10
13.9503
 20
15.9568
 11
13.9503
 21
16.0428
  0
LINE
  8
0
 10
13.9503
 20
16.0428
 11
13.9538
 21
16.1285
  0
LINE
  8
0
 10
13.9538
 20
16.1285
 11
13.9612
 21
16.2141
  0
LINE
  8
0
 10
13.9612
 20
16.2141
 11
13.9716
 21
16.2994
  0
LINE
  8
0
 10
13.9716
 20
16.2994
 11
13.986
 21
16.3839
  0
LINE
  8
0
 10
13.986
 20
16.3839
 11
14.0038
 21
16.468
  0
LINE
  8
0
 10
14.0038
 20
16.468
 11
14.0255
 21
16.5509
  0
LINE
  8
0
 10
14.0255
 20
16.5509
 11
14.0503
 21
16.6335
  0
LINE
  8
0
 10
14.0503
 20
16.6335
 11
14.0782
 21
16.7145
  0
LINE
  8
0
 10
14.0782
 20
16.7145
 11
14.11
 21
16.7943
  0
LINE
  8
0
 10
14.11
 20
16.7943
 11
14.1449
 21
16.8726
  0
LINE
  8
0
 10
14.1449
 20
16.8726
 11
14.1832
 21
16.9497
  0
LINE
  8
0
 10
14.1832
 20
16.9497
 11
14.2243
 21
17.0249
  0
LINE
  8
0
 10
14.2243
 20
17.0249
 11
14.2689
 21
17.0982
  0
LINE
  8
0
 10
14.2689
 20
17.0982
 11
14.3166
 21
17.1699
  0
LINE
  8
0
 10
14.3166
 20
17.1699
 11
14.367
 21
17.2393
  0
LINE
  8
0
 10
14.367
 20
17.2393
 11
14.4204
 21
17.3067
  0
LINE
  8
0
 10
14.4204
 20
17.3067
 11
14.4762
 21
17.3714
  0
LINE
  8
0
 10
14.4762
 20
17.3714
 11
14.5352
 21
17.4342
  0
LINE
  8
0
 10
14.5352
 20
17.4342
 11
14.5964
 21
17.4943
  0
LINE
  8
0
 10
14.5964
 20
17.4943
 11
14.6603
 21
17.5516
  0
LINE
  8
0
 10
14.6603
 20
17.5516
 11
14.7266
 21
17.6063
  0
LINE
  8
0
 10
14.7266
 20
17.6063
 11
14.7948
 21
17.6582
  0
LINE
  8
0
 10
14.7948
 20
17.6582
 11
14.8654
 21
17.7074
  0
LINE
  8
0
 10
14.8654
 20
17.7074
 11
14.9378
 21
17.7532
  0
LINE
  8
0
 10
14.9378
 20
17.7532
 11
15.0123
 21
17.7962
  0
LINE
  8
0
 10
15.0123
 20
17.7962
 11
15.0882
 21
17.8361
  0
LINE
  8
0
 10
15.0882
 20
17.8361
 11
15.1661
 21
17.8726
  0
LINE
  8
0
 10
15.1661
 20
17.8726
 11
15.2452
 21
17.9059
  0
LINE
  8
0
 10
15.2452
 20
17.9059
 11
15.3258
 21
17.9357
  0
LINE
  8
0
 10
15.3258
 20
17.9357
 11
15.4072
 21
17.9625
  0
LINE
  8
0
 10
15.4072
 20
17.9625
 11
15.4901
 21
17.9853
  0
LINE
  8
0
 10
15.4901
 20
17.9853
 11
15.5735
 21
18.0051
  0
LINE
  8
0
 10
15.5735
 20
18.0051
 11
15.658
 21
18.021
  0
LINE
  8
0
 10
15.658
 20
18.021
 11
15.7428
 21
18.0338
  0
LINE
  8
0
 10
15.7428
 20
18.0338
 11
15.8281
 21
18.0427
  0
LINE
  8
0
 10
15.8281
 20
18.0427
 11
15.9141
 21
18.0481
  0
LINE
  8
0
 10
15.9141
 20
18.0481
 11
15.9998
 21
18.0497
  0
LINE
  8
0
 10
15.9998
 20
18.0497
 11
16.0855
 21
18.0481
  0
LINE
  8
0
 10
16.0855
 20
18.0481
 11
16.1715
 21
18.0427
  0
LINE
  8
0
 10
16.1715
 20
18.0427
 11
16.2568
 21
18.0338
  0
LINE
  8
0
 10
16.2568
 20
18.0338
 11
16.3416
 21
18.021
  0
LINE
  8
0
 10
16.3416
 20
18.021
 11
16.4261
 21
18.0051
  0
LINE
  8
0
 10
16.4261
 20
18.0051
 11
16.5095
 21
17.9853
  0
LINE
  8
0
 10
16.5095
 20
17.9853
 11
16.5924
 21
17.9625
  0
LINE
  8
0
 10
16.5924
 20
17.9625
 11
16.6738
 21
17.9357
  0
LINE
  8
0
 10
16.6738
 20
17.9357
 11
16.7544
 21
17.9059
  0
LINE
  8
0
 10
16.7544
 20
17.9059
 11
16.8335
 21
17.8726
  0
LINE
  8
0
 10
16.8335
 20
17.8726
 11
16.9114
 21
17.8361
  0
LINE
  8
0
 10
16.9114
 20
17.8361
 11
16.9873
 21
17.7962
  0
LINE
  8
0
 10
16.9873
 20
17.7962
 11
17.0617
 21
17.7532
  0
LINE
  8
0
 10
17.0617
 20
17.7532
 11
17.1342
 21
17.7074
  0
LINE
  8
0
 10
17.1342
 20
17.7074
 11
17.2048
 21
17.6582
  0
LINE
  8
0
 10
17.2048
 20
17.6582
 11
17.273
 21
17.6063
  0
LINE
  8
0
 10
17.273
 20
17.6063
 11
17.3393
 21
17.5516
  0
LINE
  8
0
 10
17.3393
 20
17.5516
 11
17.4032
 21
17.4943
  0
LINE
  8
0
 10
17.4032
 20
17.4943
 11
17.4644
 21
17.4342
  0
LINE
  8
0
 10
17.4644
 20
17.4342
 11
17.5233
 21
17.3714
  0
LINE
  8
0
 10
17.5233
 20
17.3714
 11
17.5795
 21
17.3067
  0
LINE
  8
0
 10
17.5795
 20
17.3067
 11
17.6326
 21
17.2393
  0
LINE
  8
0
 10
17.6326
 20
17.2393
 11
17.683
 21
17.1699
  0
LINE
  8
0
 10
17.683
 20
17.1699
 11
17.7307
 21
17.0982
  0
LINE
  8
0
 10
17.7307
 20
17.0982
 11
17.7753
 21
17.0249
  0
LINE
  8
0
 10
17.7753
 20
17.0249
 11
17.8164
 21
16.9497
  0
LINE
  8
0
 10
17.8164
 20
16.9497
 11
17.8547
 21
16.8726
  0
LINE
  8
0
 10
17.8547
 20
16.8726
 11
17.8896
 21
16.7943
  0
LINE
  8
0
 10
17.8896
 20
16.7943
 11
17.9214
 21
16.7145
  0
LINE
  8
0
 10
17.9214
 20
16.7145
 11
17.9493
 21
16.6335
  0
LINE
  8
0
 10
17.9493
 20
16.6335
 11
17.9741
 21
16.5509
  0
LINE
  8
0
 10
17.9741
 20
16.5509
 11
17.9958
 21
16.468
  0
LINE
  8
0
 10
17.9958
 20
16.468
 11
18.0136
 21
16.3839
  0
LINE
  8
0
 10
18.0136
 20
16.3839
 11
18.028
 21
16.2994
  0
LINE
  8
0
 10
18.028
 20
16.2994
 11
18.0384
 21
16.2141
  0
LINE
  8
0
 10
18.0384
 20
16.2141
 11
18.0458
 21
16.1285
  0
LINE
  8
0
 10
18.0458
 20
16.1285
 11
18.0493
 21
16.0428
  0
LINE
  8
0
 10
18.0493
 20
16.0428
 11
18.0493
 21
15.9568
  0
LINE
  8
0
 10
18.0493
 20
15.9568
 11
18.0458
 21
15.8711
  0
LINE
  8
0
 10
18.0458
 20
15.8711
 11
18.0384
 21
15.7855
  0
LINE
  8
0
 10
18.0384
 20
15.7855
 11
18.028
 21
15.7002
  0
LINE
  8
0
 10
18.028
 20
15.7002
 11
18.0136
 21
15.6157
  0
LINE
  8
0
 10
18.0136
 20
15.6157
 11
17.9958
 21
15.5316
  0
LINE
  8
0
 10
17.9958
 20
15.5316
 11
17.9741
 21
15.4487
  0
LINE
  8
0
 10
17.9741
 20
15.4487
 11
17.9493
 21
15.3665
  0
LINE
  8
0
 10
17.9493
 20
15.3665
 11
17.9214
 21
15.2851
  0
LINE
  8
0
 10
17.9214
 20
15.2851
 11
17.8896
 21
15.2053
  0
LINE
  8
0
 10
17.8896
 20
15.2053
 11
17.8547
 21
15.127
  0
LINE
  8
0
 10
17.8547
 20
15.127
 11
17.8164
 21
15.0499
  0
LINE
  8
0
 10
17.8164
 20
15.0499
 11
17.7753
 21
14.9747
  0
LINE
  8
0
 10
17.7753
 20
14.9747
 11
17.7307
 21
14.9014
  0
LINE
  8
0
 10
17.7307
 20
14.9014
 11
17.683
 21
14.8297
  0
LINE
  8
0
 10
17.683
 20
14.8297
 11
17.6326
 21
14.7603
  0
LINE
  8
0
 10
17.6326
 20
14.7603
 11
17.5795
 21
14.6929
  0
LINE
  8
0
 10
17.5795
 20
14.6929
 11
17.5233
 21
14.6282
  0
LINE
  8
0
 10
17.5233
 20
14.6282
 11
17.4644
 21
14.5654
  0
LINE
  8
0
 10
17.4644
 20
14.5654
 11
17.4032
 21
14.5053
  0
LINE
  8
0
 10
17.4032
 20
14.5053
 11
17.3393
 21
14.448
  0
LINE
  8
0
 10
17.3393
 20
14.448
 11
17.273
 21
14.3933
  0
LINE
  8
0
 10
17.273
 20
14.3933
 11
17.2048
 21
14.3414
  0
LINE
  8
0
 10
17.2048
 20
14.3414
 11
17.1342
 21
14.2922
  0
LINE
  8
0
 10
17.1342
 20
14.2922
 11
17.0617
 21
14.2464
  0
LINE
  8
0
 10
17.0617
 20
14.2464
 11
16.9873
 21
14.2034
  0
LINE
  8
0
 10
16.9873
 20
14.2034
 11
16.9114
 21
14.1635
  0
LINE
  8
0
 10
16.9114
 20
14.1635
 11
16.8335
 21
14.127
  0
LINE
  8
0
 10
16.8335
 20
14.127
 11
16.7544
 21
14.0937
  0
LINE
  8
0
 10
16.7544
 20
14.0937
 11
16.6738
 21
14.0639
  0
LINE
  8
0
 10
16.6738
 20
14.0639
 11
16.5924
 21
14.0371
  0
LINE
  8
0
 10
16.5924
 20
14.0371
 11
16.5095
 21
14.0143
  0
LINE
  8
0
 10
16.5095
 20
14.0143
 11
16.4261
 21
13.9945
  0
LINE
  8
0
 10
16.4261
 20
13.9945
 11
16.3416
 21
13.9786
  0
LINE
  8
0
 10
16.3416
 20
13.9786
 11
16.2568
 21
13.9658
  0
LINE
  8
0
 10
16.2568
 20
13.9658
 11
16.1715
 21
13.9569
  0
LINE
  8
0
 10
16.1715
 20
13.9569
 11
16.0855
 21
13.9515
  0
LINE
  8
0
 10
16.0855
 20
13.9515
 11
15.9998
 21
13.9499
  0
LINE
  8
0
 10
15.9998
 20
13.9499
 11
15.9141
 21
13.9515
  0
LINE
  8
0
 10
-16.0855
 20
-18.0481
 11
-16.1715
 21
-18.0427
  0
LINE
  8
0
 10
-16.1715
 20
-18.0427
 11
-16.2568
 21
-18.0338
  0
LINE
  8
0
 10
-16.2568
 20
-18.0338
 11
-16.3416
 21
-18.021
  0
LINE
  8
0
 10
-16.3416
 20
-18.021
 11
-16.4261
 21
-18.0051
  0
LINE
  8
0
 10
-16.4261
 20
-18.0051
 11
-16.5095
 21
-17.9853
  0
LINE
  8
0
 10
-16.5095
 20
-17.9853
 11
-16.5924
 21
-17.9625
  0
LINE
  8
0
 10
-16.5924
 20
-17.9625
 11
-16.6738
 21
-17.9357
  0
LINE
  8
0
 10
-16.6738
 20
-17.9357
 11
-16.7544
 21
-17.9059
  0
LINE
  8
0
 10
-16.7544
 20
-17.9059
 11
-16.8335
 21
-17.8726
  0
LINE
  8
0
 10
-16.8335
 20
-17.8726
 11
-16.9114
 21
-17.8361
  0
LINE
  8
0
 10
-16.9114
 20
-17.8361
 11
-16.9873
 21
-17.7962
  0
LINE
  8
0
 10
-16.9873
 20
-17.7962
 11
-17.0617
 21
-17.7532
  0
LINE
  8
0
 10
-17.0617
 20
-17.7532
 11
-17.1342
 21
-17.7074
  0
LINE
  8
0
 10
-17.1342
 20
-17.7074
 11
-17.2048
 21
-17.6582
  0
LINE
  8
0
 10
-17.2048
 20
-17.6582
 11
-17.273
 21
-17.6063
  0
LINE
  8
0
 10
-17.273
 20
-17.6063
 11
-17.3393
 21
-17.5516
  0
LINE
  8
0
 10
-17.3393
 20
-17.5516
 11
-17.4032
 21
-17.4943
  0
LINE
  8
0
 10
-17.4032
 20
-17.4943
 11
-17.4644
 21
-17.4342
  0
LINE
  8
0
 10
-17.4644
 20
-17.4342
 11
-17.5233
 21
-17.3714
  0
LINE
  8
0
 10
-17.5233
 20
-17.3714
 11
-17.5795
 21
-17.3067
  0
LINE
  8
0
 10
-17.5795
 20
-17.3067
 11
-17.6326
 21
-17.2393
  0
LINE
  8
0
 10
-17.6326
 20
-17.2393
 11
-17.683
 21
-17.1699
  0
LINE
  8
0
 10
-17.683
 20
-17.1699
 11
-17.7307
 21
-17.0982
  0
LINE
  8
0
 10
-17.7307
 20
-17.0982
 11
-17.7753
 21
-17.0249
  0
LINE
  8
0
 10
-17.7753
 20
-17.0249
 11
-17.8164
 21
-16.9497
  0
LINE
  8
0
 10
-17.8164
 20
-16.9497
 11
-17.8547
 21
-16.8726
  0
LINE
  8
0
 10
-17.8547
 20
-16.8726
 11
-17.8896
 21
-16.7943
  0
LINE
  8
0
 10
-17.8896
 20
-16.7943
 11
-17.9214
 21
-16.7145
  0
LINE
  8
0
 10
-17.9214
 20
-16.7145
 11
-17.9493
 21
-16.6335
  0
LINE
  8
0
 10
-17.9493
 20
-16.6335
 11
-17.9741
 21
-16.5509
  0
LINE
  8
0
 10
-17.9741
 20
-16.5509
 11
-17.9958
 21
-16.468
  0
LINE
  8
0
 10
-17.9958
 20
-16.468
 11
-18.0136
 21
-16.3839
  0
LINE
  8
0
 10
-18.0136
 20
-16.3839
 11
-18.028
 21
-16.2994
  0
LINE
  8
0
 10
-18.028
 20
-16.2994
 11
-18.0384
 21
-16.2141
  0
LINE
  8
0
 10
-18.0384
 20
-16.2141
 11
-18.0458
 21
-16.1285
  0
LINE
  8
0
 10
-18.0458
 20
-16.1285
 11
-18.0493
 21
-16.0428
  0
LINE
  8
0
 10
-18.0493
 20
-16.0428
 11
-18.0493
 21
-15.9568
  0
LINE
  8
0
 10
-18.0493
 20
-15.9568
 11
-18.0458
 21
-15.8711
  0
LINE
  8
0
 10
-18.0458
 20
-15.8711
 11
-18.0384
 21
-15.7855
  0
LINE
  8
0
 10
-18.0384
 20
-15.7855
 11
-18.028
 21
-15.7002
  0
LINE
  8
0
 10
-18.028
 20
-15.7002
 11
-18.0136
 21
-15.6157
  0
LINE
  8
0
 10
-18.0136
 20
-15.6157
 11
-17.9958
 21
-15.5316
  0
LINE
  8
0
 10
-17.9958
 20
-15.5316
 11
-17.9741
 21
-15.4487
  0
LINE
  8
0
 10
-17.9741
 20
-15.4487
 11
-17.9493
 21
-15.3665
  0
LINE
  8
0
 10
-17.9493
 20
-15.3665
 11
-17.9214
 21
-15.2851
  0
LINE
  8
0
 10
-17.9214
 20
-15.2851
 11
-17.8896
 21
-15.2053
  0
LINE
  8
0
 10
-17.8896
 20
-15.2053
 11
-17.8547
 21
-15.127
  0
LINE
  8
0
 10
-17.8547
 20
-15.127
 11
-17.8164
 21
-15.0499
  0
LINE
  8
0
 10
-17.8164
 20
-15.0499
 11
-17.7753
 21
-14.9747
  0
LINE
  8
0
 10
-17.7753
 20
-14.9747
 11
-17.7307
 21
-14.9014
  0
LINE
  8
0
 10
-17.7307
 20
-14.9014
 11
-17.683
 21
-14.8297
  0
LINE
  8
0
 10
-17.683
 20
-14.8297
 11
-17.6326
 21
-14.7603
  0
LINE
  8
0
 10
-17.6326
 20
-14.7603
 11
-17.5795
 21
-14.6929
  0
LINE
  8
0
 10
-17.5795
 20
-14.6929
 11
-17.5233
 21
-14.6282
  0
LINE
  8
0
 10
-17.5233
 20
-14.6282
 11
-17.4644
 21
-14.5654
  0
LINE
  8
0
 10
-17.4644
 20
-14.5654
 11
-17.4032
 21
-14.5053
  0
LINE
  8
0
 10
-17.4032
 20
-14.5053
 11
-17.3393
 21
-14.448
  0
LINE
  8
0
 10
-17.3393
 20
-14.448
 11
-17.273
 21
-14.3933
  0
LINE
  8
0
 10
-17.273
 20
-14.3933
 11
-17.2048
 21
-14.3414
  0
LINE
  8
0
 10
-17.2048
 20
-14.3414
 11
-17.1342
 21
-14.2922
  0
LINE
  8
0
 10
-17.1342
 20
-14.2922
 11
-17.0617
 21
-14.2464
  0
LINE
  8
0
 10
-17.0617
 20
-14.2464
 11
-16.9873
 21
-14.2034
  0
LINE
  8
0
 10
-16.9873
 20
-14.2034
 11
-16.9114
 21
-14.1635
  0
LINE
  8
0
 10
-16.9114
 20
-14.1635
 11
-16.8335
 21
-14.127
  0
LINE
  8
0
 10
-16.8335
 20
-14.127
 11
-16.7544
 21
-14.0937
  0
LINE
  8
0
 10
-16.7544
 20
-14.0937
 11
-16.6738
 21
-14.0639
  0
LINE
  8
0
 10
-16.6738
 20
-14.0639
 11
-16.5924
 21
-14.0371
  0
LINE
  8
0
 10
-16.5924
 20
-14.0371
 11
-16.5095
 21
-14.0143
  0
LINE
  8
0
 10
-16.5095
 20
-14.0143
 11
-16.4261
 21
-13.9945
  0
LINE
  8
0
 10
-16.4261
 20
-13.9945
 11
-16.3416
 21
-13.9786
  0
LINE
  8
0
 10
-16.3416
 20
-13.9786
 11
-16.2568
 21
-13.9658
  0
LINE
  8
0
 10
-16.2568
 20
-13.9658
 11
-16.1715
 21
-13.9569
  0
LINE
  8
0
 10
-16.1715
 20
-13.9569
 11
-16.0855
 21
-13.9515
  0
LINE
  8
0
 10
-16.0855
 20
-13.9515
 11
-15.9998
 21
-13.9499
  0
LINE
  8
0
 10
-15.9998
 20
-13.9499
 11
-15.9141
 21
-13.9515
  0
LINE
  8
0
 10
-15.9141
 20
-13.9515
 11
-15.8281
 21
-13.9569
  0
LINE
  8
0
 10
-15.8281
 20
-13.9569
 11
-15.7428
 21
-13.9658
  0
LINE
  8
0
 10
-15.7428
 20
-13.9658
 11
-15.658
 21
-13.9786
  0
LINE
  8
0
 10
-15.658
 20
-13.9786
 11
-15.5735
 21
-13.9945
  0
LINE
  8
0
 10
-15.5735
 20
-13.9945
 11
-15.4901
 21
-14.0143
  0
LINE
  8
0
 10
-15.4901
 20
-14.0143
 11
-15.4072
 21
-14.0371
  0
LINE
  8
0
 10
-15.4072
 20
-14.0371
 11
-15.3258
 21
-14.0639
  0
LINE
  8
0
 10
-15.3258
 20
-14.0639
 11
-15.2452
 21
-14.0937
  0
LINE
  8
0
 10
-15.2452
 20
-14.0937
 11
-15.1661
 21
-14.127
  0
LINE
  8
0
 10
-15.1661
 20
-14.127
 11
-15.0882
 21
-14.1635
  0
LINE
  8
0
 10
-15.0882
 20
-14.1635
 11
-15.0123
 21
-14.2034
  0
LINE
  8
0
 10
-15.0123
 20
-14.2034
 11
-14.9378
 21
-14.2464
  0
LINE
  8
0
 10
-14.9378
 20
-14.2464
 11
-14.8654
 21
-14.2922
  0
LINE
  8
0
 10
-14.8654
 20
-14.2922
 11
-14.7948
 21
-14.3414
  0
LINE
  8
0
 10
-14.7948
 20
-14.3414
 11
-14.7266
 21
-14.3933
  0
LINE
  8
0
 10
-14.7266
 20
-14.3933
 11
-14.6603
 21
-14.448
  0
LINE
  8
0
 10
-14.6603
 20
-14.448
 11
-14.5964
 21
-14.5053
  0
LINE
  8
0
 10
-14.5964
 20
-14.5053
 11
-14.5352
 21
-14.5654
  0
LINE
  8
0
 10
-14.5352
 20
-14.5654
 11
-14.4762
 21
-14.6282
  0
LINE
  8
0
 10
-14.4762
 20
-14.6282
 11
-14.4204
 21
-14.6929
  0
LINE
  8
0
 10
-14.4204
 20
-14.6929
 11
-14.367
 21
-14.7603
  0
LINE
  8
0
 10
-14.367
 20
-14.7603
 11
-14.3166
 21
-14.8297
  0
LINE
  8
0
 10
-14.3166
 20
-14.8297
 11
-14.2689
 21
-14.9014
  0
LINE
  8
0
 10
-14.2689
 20
-14.9014
 11
-14.2243
 21
-14.9747
  0
LINE
  8
0
 10
-14.2243
 20
-14.9747
 11
-14.1832
 21
-15.0499
  0
LINE
  8
0
 10
-14.1832
 20
-15.0499
 11
-14.1449
 21
-15.127
  0
LINE
  8
0
 10
-14.1449
 20
-15.127
 11
-14.11
 21
-15.2053
  0
LINE
  8
0
 10
-14.11
 20
-15.2053
 11
-14.0782
 21
-15.2851
  0
LINE
  8
0
 10
-14.0782
 20
-15.2851
 11
-14.0503
 21
-15.3665
  0
LINE
  8
0
 10
-14.0503
 20
-15.3665
 11
-14.0255
 21
-15.4487
  0
LINE
  8
0
 10
-14.0255
 20
-15.4487
 11
-14.0038
 21
-15.5316
  0
LINE
  8
0
 10
-14.0038
 20
-15.5316
 11
-13.986
 21
-15.6157
  0
LINE
  8
0
 10
-13.986
 20
-15.6157
 11
-13.9716
 21
-15.7002
  0
LINE
  8
0
 10
-13.9716
 20
-15.7002
 11
-13.9612
 21
-15.7855
  0
LINE
  8
0
 10
-13.9612
 20
-15.7855
 11
-13.9538
 21
-15.8711
  0
LINE
  8
0
 10
-13.9538
 20
-15.8711
 11
-13.9503
 21
-15.9568
  0
LINE
  8
0
 10
-13.9503
 20
-15.9568
 11
-13.9503
 21
-16.0428
  0
LINE
  8
0
 10
-13.9503
 20
-16.0428
 11
-13.9538
 21
-16.1285
  0
LINE
  8
0
 10
-13.9538
 20
-16.1285
 11
-13.9612
 21
-16.2141
  0
LINE
  8
0
 10
-13.9612
 20
-16.2141
 11
-13.9716
 21
-16.2994
  0
LINE
  8
0
 10
-13.9716
 20
-16.2994
 11
-13.986
 21
-16.3839
  0
LINE
  8
0
 10
-13.986
 20
-16.3839
 11
-14.0038
 21
-16.468
  0
LINE
  8
0
 10
-14.0038
 20
-16.468
 11
-14.0255
 21
-16.5509
  0
LINE
  8
0
 10
-14.0255
 20
-16.5509
 11
-14.0503
 21
-16.6335
  0
LINE
  8
0
 10
-14.0503
 20
-16.6335
 11
-14.0782
 21
-16.7145
  0
LINE
  8
0
 10
-14.0782
 20
-16.7145
 11
-14.11
 21
-16.7943
  0
LINE
  8
0
 10
-14.11
 20
-16.7943
 11
-14.1449
 21
-16.8726
  0
LINE
  8
0
 10
-14.1449
 20
-16.8726
 11
-14.1832
 21
-16.9497
  0
LINE
  8
0
 10
-14.1832
 20
-16.9497
 11
-14.2243
 21
-17.0249
  0
LINE
  8
0
 10
-14.2243
 20
-17.0249
 11
-14.2689
 21
-17.0982
  0
LINE
  8
0
 10
-14.2689
 20
-17.0982
 11
-14.3166
 21
-17.1699
  0
LINE
  8
0
 10
-14.3166
 20
-17.1699
 11
-14.367
 21
-17.2393
  0
LINE
  8
0
 10
-14.367
 20
-17.2393
 11
-14.4204
 21
-17.3067
  0
LINE
  8
0
 10
-14.4204
 20
-17.3067
 11
-14.4762
 21
-17.3714
  0
LINE
  8
0
 10
-14.4762
 20
-17.3714
 11
-14.5352
 21
-17.4342
  0
LINE
  8
0
 10
-14.5352
 20
-17.4342
 11
-14.5964
 21
-17.4943
  0
LINE
  8
0
 10
-14.5964
 20
-17.4943
 11
-14.6603
 21
-17.5516
  0
LINE
  8
0
 10
-14.6603
 20
-17.5516
 11
-14.7266
 21
-17.6063
  0
LINE
  8
0
 10
-14.7266
 20
-17.6063
 11
-14.7948
 21
-17.6582
  0
LINE
  8
0
 10
-14.7948
 20
-17.6582
 11
-14.8654
 21
-17.7074
  0
LINE
  8
0
 10
-14.8654
 20
-17.7074
 11
-14.9378
 21
-17.7532
  0
LINE
  8
0
 10
-14.9378
 20
-17.7532
 11
-15.0123
 21
-17.7962
  0
LINE
  8
0
 10
-15.0123
 20
-17.7962
 11
-15.0882
 21
-17.8361
  0
LINE
  8
0
 10
-15.0882
 20
-17.8361
 11
-15.1661
 21
-17.8726
  0
LINE
  8
0
 10
-15.1661
 20
-17.8726
 11
-15.2452
 21
-17.9059
  0
LINE
  8
0
 10
-15.2452
 20
-17.9059
 11
-15.3258
 21
-17.9357
  0
LINE
  8
0
 10
-15.3258
 20
-17.9357
 11
-15.4072
 21
-17.9625
  0
LINE
  8
0
 10
-15.4072
 20
-17.9625
 11
-15.4901
 21
-17.9853
  0
LINE
  8
0
 10
-15.4901
 20
-17.9853
 11
-15.5735
 21
-18.0051
  0
LINE
  8
0
 10
-15.5735
 20
-18.0051
 11
-15.658
 21
-18.021
  0
LINE
  8
0
 10
-15.658
 20
-18.021
 11
-15.7428
 21
-18.0338
  0
LINE
  8
0
 10
-15.7428
 20
-18.0338
 11
-15.8281
 21
-18.0427
  0
LINE
  8
0
 10
-15.8281
 20
-18.0427
 11
-15.9141
 21
-18.0481
  0
LINE
  8
0
 10
-15.9141
 20
-18.0481
 11
-15.9998
 21
-18.0497
  0
LINE
  8
0
 10
-15.9998
 20
-18.0497
 11
-16.0855
 21
-18.0481
  0
LINE
  8
0
 10
15.9141
 20
-18.0481
 11
15.8281
 21
-18.0427
  0
LINE
  8
0
 10
15.8281
 20
-18.0427
 11
15.7428
 21
-18.0338
  0
LINE
  8
0
 10
15.7428
 20
-18.0338
 11
15.658
 21
-18.021
  0
LINE
  8
0
 10
15.658
 20
-18.021
 11
15.5735
 21
-18.0051
  0
LINE
  8
0
 10
15.5735
 20
-18.0051
 11
15.4901
 21
-17.9853
  0
LINE
  8
0
 10
15.4901
 20
-17.9853
 11
15.4072
 21
-17.9625
  0
LINE
  8
0
 10
15.4072
 20
-17.9625
 11
15.3258
 21
-17.9357
  0
LINE
  8
0
 10
15.3258
 20
-17.9357
 11
15.2452
 21
-17.9059
  0
LINE
  8
0
 10
15.2452
 20
-17.9059
 11
15.1661
 21
-17.8726
  0
LINE
  8
0
 10
15.1661
 20
-17.8726
 11
15.0882
 21
-17.8361
  0
LINE
  8
0
 10
15.0882
 20
-17.8361
 11
15.0123
 21
-17.7962
  0
LINE
  8
0
 10
15.0123
 20
-17.7962
 11
14.9378
 21
-17.7532
  0
LINE
  8
0
 10
14.9378
 20
-17.7532
 11
14.8654
 21
-17.7074
  0
LINE
  8
0
 10
14.8654
 20
-17.7074
 11
14.7948
 21
-17.6582
  0
LINE
  8
0
 10
14.7948
 20
-17.6582
 11
14.7266
 21
-17.6063
  0
LINE
  8
0
 10
14.7266
 20
-17.6063
 11
14.6603
 21
-17.5516
  0
LINE
  8
0
 10
14.6603
 20
-17.5516
 11
14.5964
 21
-17.4943
  0
LINE
  8
0
 10
14.5964
 20
-17.4943
 11
14.5352
 21
-17.4342
  0
LINE
  8
0
 10
14.5352
 20
-17.4342
 11
14.4762
 21
-17.3714
  0
LINE
  8
0
 10
14.4762
 20
-17.3714
 11
14.4204
 21
-17.3067
  0
LINE
  8
0
 10
14.4204
 20
-17.3067
 11
14.367
 21
-17.2393
  0
LINE
  8
0
 10
14.367
 20
-17.2393
 11
14.3166
 21
-17.1699
  0
LINE
  8
0
 10
14.3166
 20
-17.1699
 11
14.2689
 21
-17.0982
  0
LINE
  8
0
 10
14.2689
 20
-17.0982
 11
14.2243
 21
-17.0249
  0
LINE
  8
0
 10
14.2243
 20
-17.0249
 11
14.1832
 21
-16.9497
  0
LINE
  8
0
 10
14.1832
 20
-16.9497
 11
14.1449
 21
-16.8726
  0
LINE
  8
0
 10
14.1449
 20
-16.8726
 11
14.11
 21
-16.7943
  0
LINE
  8
0
 10
14.11
 20
-16.7943
 11
14.0782
 21
-16.7145
  0
LINE
  8
0
 10
14.0782
 20
-16.7145
 11
14.0503
 21
-16.6335
  0
LINE
  8
0
 10
14.0503
 20
-16.6335
 11
14.0255
 21
-16.5509
  0
LINE
  8
0
 10
14.0255
 20
-16.5509
 11
14.0038
 21
-16.468
  0
LINE
  8
0
 10
14.0038
 20
-16.468
 11
13.986
 21
-16.3839
  0
LINE
  8
0
 10
13.986
 20
-16.3839
 11
13.9716
 21
-16.2994
  0
LINE
  8
0
 10
13.9716
 20
-16.2994
 11
13.9612
 21
-16.2141
  0
LINE
  8
0
 10
13.9612
 20
-16.2141
 11
13.9538
 21
-16.1285
  0
LINE
  8
0
 10
13.9538
 20
-16.1285
 11
13.9503
 21
-16.0428
  0
LINE
  8
0
 10
13.9503
 20
-16.0428
 11
13.9503
 21
-15.9568
  0
LINE
  8
0
 10
13.9503
 20
-15.9568
 11
13.9538
 21
-15.8711
  0
LINE
  8
0
 10
13.9538
 20
-15.8711
 11
13.9612
 21
-15.7855
  0
LINE
  8
0
 10
13.9612
 20
-15.7855
 11
13.9716
 21
-15.7002
  0
LINE
  8
0
 10
13.9716
 20
-15.7002
 11
13.986
 21
-15.6157
  0
LINE
  8
0
 10
13.986
 20
-15.6157
 11
14.0038
 21
-15.5316
  0
LINE
  8
0
 10
14.0038
 20
-15.5316
 11
14.0255
 21
-15.4487
  0
LINE
  8
0
 10
14.0255
 20
-15.4487
 11
14.0503
 21
-15.3665
  0
LINE
  8
0
 10
14.0503
 20
-15.3665
 11
14.0782
 21
-15.2851
  0
LINE
  8
0
 10
14.0782
 20
-15.2851
 11
14.11
 21
-15.2053
  0
LINE
  8
0
 10
14.11
 20
-15.2053
 11
14.1449
 21
-15.127
  0
LINE
  8
0
 10
14.1449
 20
-15.127
 11
14.1832
 21
-15.0499
  0
LINE
  8
0
 10
14.1832
 20
-15.0499
 11
14.2243
 21
-14.9747
  0
LINE
  8
0
 10
14.2243
 20
-14.9747
 11
14.2689
 21
-14.9014
  0
LINE
  8
0
 10
14.2689
 20
-14.9014
 11
14.3166
 21
-14.8297
  0
LINE
  8
0
 10
14.3166
 20
-14.8297
 11
14.367
 21
-14.7603
  0
LINE
  8
0
 10
14.367
 20
-14.7603
 11
14.4204
 21
-14.6929
  0
LINE
  8
0
 10
14.4204
 20
-14.6929
 11
14.4762
 21
-14.6282
  0
LINE
  8
0
 10
14.4762
 20
-14.6282
 11
14.5352
 21
-14.5654
  0
LINE
  8
0
 10
14.5352
 20
-14.5654
 11
14.5964
 21
-14.5053
  0
LINE
  8
0
 10
14.5964
 20
-14.5053
 11
14.6603
 21
-14.448
  0
LINE
  8
0
 10
14.6603
 20
-14.448
 11
14.7266
 21
-14.3933
  0
LINE
  8
0
 10
14.7266
 20
-14.3933
 11
14.7948
 21
-14.3414
  0
LINE
  8
0
 10
14.7948
 20
-14.3414
 11
14.8654
 21
-14.2922
  0
LINE
  8
0
 10
14.8654
 20
-14.2922
 11
14.9378
 21
-14.2464
  0
LINE
  8
0
 10
14.9378
 20
-14.2464
 11
15.0123
 21
-14.2034
  0
LINE
  8
0
 10
15.0123
 20
-14.2034
 11
15.0882
 21
-14.1635
  0
LINE
  8
0
 10
15.0882
 20
-14.1635
 11
15.1661
 21
-14.127
  0
LINE
  8
0
 10
15.1661
 20
-14.127
 11
15.2452
 21
-14.0937
  0
LINE
  8
0
 10
15.2452
 20
-14.0937
 11
15.3258
 21
-14.0639
  0
LINE
  8
0
 10
15.3258
 20
-14.0639
 11
15.4072
 21
-14.0371
  0
LINE
  8
0
 10
15.4072
 20
-14.0371
 11
15.4901
 21
-14.0143
  0
LINE
  8
0
 10
15.4901
 20
-14.0143
 11
15.5735
 21
-13.9945
  0
LINE
  8
0
 10
15.5735
 20
-13.9945
 11
15.658
 21
-13.9786
  0
LINE
  8
0
 10
15.658
 20
-13.9786
 11
15.7428
 21
-13.9658
  0
LINE
  8
0
 10
15.7428
 20
-13.9658
 11
15.8281
 21
-13.9569
  0
LINE
  8
0
 10
15.8281
 20
-13.9569
 11
15.9141
 21
-13.9515
  0
LINE
  8
0
 10
15.9141
 20
-13.9515
 11
15.9998
 21
-13.9499
  0
LINE
  8
0
 10
15.9998
 20
-13.9499
 11
16.0855
 21
-13.9515
  0
LINE
  8
0
 10
16.0855
 20
-13.9515
 11
16.1715
 21
-13.9569
  0
LINE
  8
0
 10
16.1715
 20
-13.9569
 11
16.2568
 21
-13.9658
  0
LINE
  8
0
 10
16.2568
 20
-13.9658
 11
16.3416
 21
-13.9786
  0
LINE
  8
0
 10
16.3416
 20
-13.9786
 11
16.4261
 21
-13.9945
  0
LINE
  8
0
 10
16.4261
 20
-13.9945
 11
16.5095
 21
-14.0143
  0
LINE
  8
0
 10
16.5095
 20
-14.0143
 11
16.5924
 21
-14.0371
  0
LINE
  8
0
 10
16.5924
 20
-14.0371
 11
16.6738
 21
-14.0639
  0
LINE
  8
0
 10
16.6738
 20
-14.0639
 11
16.7544
 21
-14.0937
  0
LINE
  8
0
 10
16.7544
 20
-14.0937
 11
16.8335
 21
-14.127
  0
LINE
  8
0
 10
16.8335
 20
-14.127
 11
16.9114
 21
-14.1635
  0
LINE
  8
0
 10
16.9114
 20
-14.1635
 11
16.9873
 21
-14.2034
  0
LINE
  8
0
 10
16.9873
 20
-14.2034
 11
17.0617
 21
-14.2464
  0
LINE
  8
0
 10
17.0617
 20
-14.2464
 11
17.1342
 21
-14.2922
  0
LINE
  8
0
 10
17.1342
 20
-14.2922
 11
17.2048
 21
-14.3414
  0
LINE
  8
0
 10
17.2048
 20
-14.3414
 11
17.273
 21
-14.3933
  0
LINE
  8
0
 10
17.273
 20
-14.3933
 11
17.3393
 21
-14.448
  0
LINE
  8
0
 10
17.3393
 20
-14.448
 11
17.4032
 21
-14.5053
  0
LINE
  8
0
 10
17.4032
 20
-14.5053
 11
17.4644
 21
-14.5654
  0
LINE
  8
0
 10
17.4644
 20
-14.5654
 11
17.5233
 21
-14.6282
  0
LINE
  8
0
 10
17.5233
 20
-14.6282
 11
17.5795
 21
-14.6929
  0
LINE
  8
0
 10
17.5795
 20
-14.6929
 11
17.6326
 21
-14.7603
  0
LINE
  8
0
 10
17.6326
 20
-14.7603
 11
17.683
 21
-14.8297
  0
LINE
  8
0
 10
17.683
 20
-14.8297
 11
17.7307
 21
-14.9014
  0
LINE
  8
0
 10
17.7307
 20
-14.9014
 11
17.7753
 21
-14.9747
  0
LINE
  8
0
 10
17.7753
 20
-14.9747
 11
17.8164
 21
-15.0499
  0
LINE
  8
0
 10
17.8164
 20
-15.0499
 11
17.8547
 21
-15.127
  0
LINE
  8
0
 10
17.8547
 20
-15.127
 11
17.8896
 21
-15.2053
  0
LINE
  8
0
 10
17.8896
 20
-15.2053
 11
17.9214
 21
-15.2851
  0
LINE
  8
0
 10
17.9214
 20
-15.2851
 11
17.9493
 21
-15.3665
  0
LINE
  8
0
 10
17.9493
 20
-15.3665
 11
17.9741
 21
-15.4487
  0
LINE
  8
0
 10
17.9741
 20
-15.4487
 11
17.9958
 21
-15.5316
  0
LINE
  8
0
 10
17.9958
 20
-15.5316
 11
18.0136
 21
-15.6157
  0
LINE
  8
0
 10
18.0136
 20
-15.6157
 11
18.028
 21
-15.7002
  0
LINE
  8
0
 10
18.028
 20
-15.7002
 11
18.0384
 21
-15.7855
  0
LINE
  8
0
 10
18.0384
 20
-15.7855
 11
18.0458
 21
-15.8711
  0
LINE
  8
0
 10
18.0458
 20
-15.8711
 11
18.0493
 21
-15.9568
  0
LINE
  8
0
 10
18.0493
 20
-15.9568
 11
18.0493
 21
-16.0428
  0
LINE
  8
0
 10
18.0493
 20
-16.0428
 11
18.0458
 21
-16.1285
  0
LINE
  8
0
 10
18.0458
 20
-16.1285
 11
18.0384
 21
-16.2141
  0
LINE
  8
0
 10
18.0384
 20
-16.2141
 11
18.028
 21
-16.2994
  0
LINE
  8
0
 10
18.028
 20
-16.2994
 11
18.0136
 21
-16.3839
  0
LINE
  8
0
 10
18.0136
 20
-16.3839
 11
17.9958
 21
-16.468
  0
LINE
  8
0
 10
17.9958
 20
-16.468
 11
17.9741
 21
-16.5509
  0
LINE
  8
0
 10
17.9741
 20
-16.5509
 11
17.9493
 21
-16.6335
  0
LINE
  8
0
 10
17.9493
 20
-16.6335
 11
17.9214
 21
-16.7145
  0
LINE
  8
0
 10
17.9214
 20
-16.7145
 11
17.8896
 21
-16.7943
  0
LINE
  8
0
 10
17.8896
 20
-16.7943
 11
17.8547
 21
-16.8726
  0
LINE
  8
0
 10
17.8547
 20
-16.8726
 11
17.8164
 21
-16.9497
  0
LINE
  8
0
 10
17.8164
 20
-16.9497
 11
17.7753
 21
-17.0249
  0
LINE
  8
0
 10
17.7753
 20
-17.0249
 11
17.7307
 21
-17.0982
  0
LINE
  8
0
 10
17.7307
 20
-17.0982
 11
17.683
 21
-17.1699
  0
LINE
  8
0
 10
17.683
 20
-17.1699
 11
17.6326
 21
-17.2393
  0
LINE
  8
0
 10
17.6326
 20
-17.2393
 11
17.5795
 21
-17.3067
  0
LINE
  8
0
 10
17.5795
 20
-17.3067
 11
17.5233
 21
-17.3714
  0
LINE
  8
0
 10
17.5233
 20
-17.3714
 11
17.4644
 21
-17.4342
  0
LINE
  8
0
 10
17.4644
 20
-17.4342
 11
17.4032
 21
-17.4943
  0
LINE
  8
0
 10
17.4032
 20
-17.4943
 11
17.3393
 21
-17.5516
  0
LINE
  8
0
 10
17.3393
 20
-17.5516
 11
17.273
 21
-17.6063
  0
LINE
  8
0
 10
17.273
 20
-17.6063
 11
17.2048
 21
-17.6582
  0
LINE
  8
0
 10
17.2048
 20
-17.6582
 11
17.1342
 21
-17.7074
  0
LINE
  8
0
 10
17.1342
 20
-17.7074
 11
17.0617
 21
-17.7532
  0
LINE
  8
0
 10
17.0617
 20
-17.7532
 11
16.9873
 21
-17.7962
  0
LINE
  8
0
 10
16.9873
 20
-17.7962
 11
16.9114
 21
-17.8361
  0
LINE
  8
0
 10
16.9114
 20
-17.8361
 11
16.8335
 21
-17.8726
  0
LINE
  8
0
 10
16.8335
 20
-17.8726
 11
16.7544
 21
-17.9059
  0
LINE
  8
0
 10
16.7544
 20
-17.9059
 11
16.6738
 21
-17.9357
  0
LINE
  8
0
 10
16.6738
 20
-17.9357
 11
16.5924
 21
-17.9625
  0
LINE
  8
0
 10
16.5924
 20
-17.9625
 11
16.5095
 21
-17.9853
  0
LINE
  8
0
 10
16.5095
 20
-17.9853
 11
16.4261
 21
-18.0051
  0
LINE
  8
0
 10
16.4261
 20
-18.0051
 11
16.3416
 21
-18.021
  0
LINE
  8
0
 10
16.3416
 20
-18.021
 11
16.2568
 21
-18.0338
  0
LINE
  8
0
 10
16.2568
 20
-18.0338
 11
16.1715
 21
-18.0427
  0
LINE
  8
0
 10
16.1715
 20
-18.0427
 11
16.0855
 21
-18.0481
  0
LINE
  8
0
 10
16.0855
 20
-18.0481
 11
15.9998
 21
-18.0497
  0
LINE
  8
0
 10
15.9998
 20
-18.0497
 11
15.9141
 21
-18.0481
  0
ENDSEC
  0
SECTION
  2
OBJECTS
  0
DICTIONARY
  0
ENDSEC
  0
EOF
