  0
SECTION
  2
BLOCKS
  0
ENDSEC
  0
SECTION
  2
ENTITIES
  0
LINE
  8
0
 10
150.558
 20
-8.87233
 11
150.929
 21
-8.84093
  0
LINE
  8
0
 10
150.929
 20
-8.84093
 11
151.299
 21
-8.79442
  0
LINE
  8
0
 10
151.299
 20
-8.79442
 11
151.666
 21
-8.73241
  0
LINE
  8
0
 10
151.666
 20
-8.73241
 11
152.03
 21
-8.6549
  0
LINE
  8
0
 10
152.03
 20
-8.6549
 11
152.39
 21
-8.56227
  0
LINE
  8
0
 10
152.39
 20
-8.56227
 11
152.747
 21
-8.45452
  0
LINE
  8
0
 10
152.747
 20
-8.45452
 11
153.099
 21
-8.33205
  0
LINE
  8
0
 10
153.099
 20
-8.33205
 11
153.445
 21
-8.19524
  0
LINE
  8
0
 10
153.445
 20
-8.19524
 11
153.785
 21
-8.0437
  0
LINE
  8
0
 10
153.785
 20
-8.0437
 11
154.118
 21
-7.8782
  0
LINE
  8
0
 10
154.118
 20
-7.8782
 11
154.445
 21
-7.69875
  0
LINE
  8
0
 10
154.445
 20
-7.69875
 11
154.763
 21
-7.50574
  0
LINE
  8
0
 10
154.763
 20
-7.50574
 11
155.073
 21
-7.29994
  0
LINE
  8
0
 10
155.073
 20
-7.29994
 11
155.375
 21
-7.08096
  0
LINE
  8
0
 10
155.375
 20
-7.08096
 11
155.666
 21
-6.84958
  0
LINE
  8
0
 10
155.666
 20
-6.84958
 11
155.948
 21
-6.60619
  0
LINE
  8
0
 10
155.948
 20
-6.60619
 11
156.22
 21
-6.35155
  0
LINE
  8
0
 10
156.22
 20
-6.35155
 11
156.48
 21
-6.08529
  0
LINE
  8
0
 10
156.48
 20
-6.08529
 11
156.73
 21
-5.80856
  0
LINE
  8
0
 10
156.73
 20
-5.80856
 11
156.967
 21
-5.52176
  0
LINE
  8
0
 10
156.967
 20
-5.52176
 11
157.192
 21
-5.22526
  0
LINE
  8
0
 10
157.192
 20
-5.22526
 11
157.404
 21
-4.91947
  0
LINE
  8
0
 10
157.404
 20
-4.91947
 11
157.604
 21
-4.60515
  0
LINE
  8
0
 10
157.604
 20
-4.60515
 11
157.79
 21
-4.28268
  0
LINE
  8
0
 10
157.79
 20
-4.28268
 11
157.963
 21
-3.95247
  0
LINE
  8
0
 10
157.963
 20
-3.95247
 11
158.121
 21
-3.61567
  0
LINE
  8
0
 10
158.121
 20
-3.61567
 11
158.266
 21
-3.27228
  0
LINE
  8
0
 10
158.266
 20
-3.27228
 11
158.395
 21
-2.92346
  0
LINE
  8
0
 10
158.395
 20
-2.92346
 11
158.51
 21
-2.56922
  0
LINE
  8
0
 10
158.51
 20
-2.56922
 11
158.61
 21
-2.21072
  0
LINE
  8
0
 10
158.61
 20
-2.21072
 11
158.695
 21
-1.84795
  0
LINE
  8
0
 10
158.695
 20
-1.84795
 11
158.766
 21
-1.48247
  0
LINE
  8
0
 10
158.766
 20
-1.48247
 11
158.82
 21
-1.11389
  0
LINE
  8
0
 10
158.82
 20
-1.11389
 11
158.859
 21
-0.743753
  0
LINE
  8
0
 10
158.859
 20
-0.743753
 11
158.882
 21
-0.37207
  0
LINE
  8
0
 10
158.882
 20
-0.37207
 11
158.89
 21
0
  0
LINE
  8
0
 10
158.89
 20
0
 11
158.882
 21
0.37207
  0
LINE
  8
0
 10
158.882
 20
0.37207
 11
158.859
 21
0.743753
  0
LINE
  8
0
 10
158.859
 20
0.743753
 11
158.82
 21
1.11389
  0
LINE
  8
0
 10
158.82
 20
1.11389
 11
158.766
 21
1.48247
  0
LINE
  8
0
 10
158.766
 20
1.48247
 11
158.695
 21
1.84795
  0
LINE
  8
0
 10
158.695
 20
1.84795
 11
158.61
 21
2.21072
  0
LINE
  8
0
 10
158.61
 20
2.21072
 11
158.51
 21
2.56922
  0
LINE
  8
0
 10
158.51
 20
2.56922
 11
158.395
 21
2.92346
  0
LINE
  8
0
 10
158.395
 20
2.92346
 11
158.266
 21
3.27228
  0
LINE
  8
0
 10
158.266
 20
3.27228
 11
158.121
 21
3.61567
  0
LINE
  8
0
 10
158.121
 20
3.61567
 11
157.963
 21
3.95247
  0
LINE
  8
0
 10
157.963
 20
3.95247
 11
157.79
 21
4.28268
  0
LINE
  8
0
 10
157.79
 20
4.28268
 11
157.604
 21
4.60515
  0
LINE
  8
0
 10
157.604
 20
4.60515
 11
157.404
 21
4.91947
  0
LINE
  8
0
 10
157.404
 20
4.91947
 11
157.192
 21
5.22526
  0
LINE
  8
0
 10
157.192
 20
5.22526
 11
156.967
 21
5.52176
  0
LINE
  8
0
 10
156.967
 20
5.52176
 11
156.73
 21
5.80856
  0
LINE
  8
0
 10
156.73
 20
5.80856
 11
156.48
 21
6.08529
  0
LINE
  8
0
 10
156.48
 20
6.08529
 11
156.22
 21
6.35155
  0
LINE
  8
0
 10
156.22
 20
6.35155
 11
155.948
 21
6.60619
  0
LINE
  8
0
 10
155.948
 20
6.60619
 11
155.666
 21
6.84958
  0
LINE
  8
0
 10
155.666
 20
6.84958
 11
155.375
 21
7.08096
  0
LINE
  8
0
 10
155.375
 20
7.08096
 11
155.073
 21
7.29994
  0
LINE
  8
0
 10
155.073
 20
7.29994
 11
154.763
 21
7.50574
  0
LINE
  8
0
 10
154.763
 20
7.50574
 11
154.445
 21
7.69875
  0
LINE
  8
0
 10
154.445
 20
7.69875
 11
154.118
 21
7.8782
  0
LINE
  8
0
 10
154.118
 20
7.8782
 11
153.785
 21
8.0437
  0
LINE
  8
0
 10
153.785
 20
8.0437
 11
153.445
 21
8.19524
  0
LINE
  8
0
 10
153.445
 20
8.19524
 11
153.099
 21
8.33205
  0
LINE
  8
0
 10
153.099
 20
8.33205
 11
152.747
 21
8.45452
  0
LINE
  8
0
 10
152.747
 20
8.45452
 11
152.39
 21
8.56227
  0
LINE
  8
0
 10
152.39
 20
8.56227
 11
152.03
 21
8.6549
  0
LINE
  8
0
 10
152.03
 20
8.6549
 11
151.666
 21
8.73241
  0
LINE
  8
0
 10
151.666
 20
8.73241
 11
151.299
 21
8.79442
  0
LINE
  8
0
 10
151.299
 20
8.79442
 11
150.929
 21
8.84093
  0
LINE
  8
0
 10
150.929
 20
8.84093
 11
150.558
 21
8.87233
  0
LINE
  8
0
 10
150.558
 20
8.87233
 11
150.186
 21
8.88783
  0
LINE
  8
0
 10
150.186
 20
8.88783
 11
-0.186035
 21
8.88783
  0
LINE
  8
0
 10
-0.186035
 20
8.88783
 11
-0.558105
 21
8.87233
  0
LINE
  8
0
 10
-0.558105
 20
8.87233
 11
-0.929013
 21
8.84093
  0
LINE
  8
0
 10
-0.929013
 20
8.84093
 11
-1.29837
 21
8.79442
  0
LINE
  8
0
 10
-1.29837
 20
8.79442
 11
-1.66579
 21
8.73241
  0
LINE
  8
0
 10
-1.66579
 20
8.73241
 11
-2.02972
 21
8.6549
  0
LINE
  8
0
 10
-2.02972
 20
8.6549
 11
-2.39055
 21
8.56227
  0
LINE
  8
0
 10
-2.39055
 20
8.56227
 11
-2.74712
 21
8.45452
  0
LINE
  8
0
 10
-2.74712
 20
8.45452
 11
-3.09865
 21
8.33205
  0
LINE
  8
0
 10
-3.09865
 20
8.33205
 11
-3.44475
 21
8.19524
  0
LINE
  8
0
 10
-3.44475
 20
8.19524
 11
-3.78504
 21
8.0437
  0
LINE
  8
0
 10
-3.78504
 20
8.0437
 11
-4.11835
 21
7.8782
  0
LINE
  8
0
 10
-4.11835
 20
7.8782
 11
-4.44469
 21
7.69875
  0
LINE
  8
0
 10
-4.44469
 20
7.69875
 11
-4.76328
 21
7.50574
  0
LINE
  8
0
 10
-4.76328
 20
7.50574
 11
-5.07333
 21
7.29994
  0
LINE
  8
0
 10
-5.07333
 20
7.29994
 11
-5.37487
 21
7.08096
  0
LINE
  8
0
 10
-5.37487
 20
7.08096
 11
-5.66632
 21
6.84958
  0
LINE
  8
0
 10
-5.66632
 20
6.84958
 11
-5.94847
 21
6.60619
  0
LINE
  8
0
 10
-5.94847
 20
6.60619
 11
-6.21978
 21
6.35155
  0
LINE
  8
0
 10
-6.21978
 20
6.35155
 11
-6.48022
 21
6.08529
  0
LINE
  8
0
 10
-6.48022
 20
6.08529
 11
-6.72943
 21
5.80856
  0
LINE
  8
0
 10
-6.72943
 20
5.80856
 11
-6.96702
 21
5.52176
  0
LINE
  8
0
 10
-6.96702
 20
5.52176
 11
-7.19181
 21
5.22526
  0
LINE
  8
0
 10
-7.19181
 20
5.22526
 11
-7.40459
 21
4.91947
  0
LINE
  8
0
 10
-7.40459
 20
4.91947
 11
-7.60419
 21
4.60515
  0
LINE
  8
0
 10
-7.60419
 20
4.60515
 11
-7.79022
 21
4.28268
  0
LINE
  8
0
 10
-7.79022
 20
4.28268
 11
-7.96269
 21
3.95247
  0
LINE
  8
0
 10
-7.96269
 20
3.95247
 11
-8.12121
 21
3.61567
  0
LINE
  8
0
 10
-8.12121
 20
3.61567
 11
-8.26539
 21
3.27228
  0
LINE
  8
0
 10
-8.26539
 20
3.27228
 11
-8.39522
 21
2.92346
  0
LINE
  8
0
 10
-8.39522
 20
2.92346
 11
-8.51033
 21
2.56922
  0
LINE
  8
0
 10
-8.51033
 20
2.56922
 11
-8.61033
 21
2.21072
  0
LINE
  8
0
 10
-8.61033
 20
2.21072
 11
-8.69559
 21
1.84795
  0
LINE
  8
0
 10
-8.69559
 20
1.84795
 11
-8.76536
 21
1.48247
  0
LINE
  8
0
 10
-8.76536
 20
1.48247
 11
-8.81962
 21
1.11389
  0
LINE
  8
0
 10
-8.81962
 20
1.11389
 11
-8.85876
 21
0.743753
  0
LINE
  8
0
 10
-8.85876
 20
0.743753
 11
-8.88202
 21
0.37207
  0
LINE
  8
0
 10
-8.88202
 20
0.37207
 11
-8.88977
 21
0
  0
LINE
  8
0
 10
-8.88977
 20
0
 11
-8.88202
 21
-0.37207
  0
LINE
  8
0
 10
-8.88202
 20
-0.37207
 11
-8.85876
 21
-0.743753
  0
LINE
  8
0
 10
-8.85876
 20
-0.743753
 11
-8.81962
 21
-1.11389
  0
LINE
  8
0
 10
-8.81962
 20
-1.11389
 11
-8.76536
 21
-1.48247
  0
LINE
  8
0
 10
-8.76536
 20
-1.48247
 11
-8.69559
 21
-1.84795
  0
LINE
  8
0
 10
-8.69559
 20
-1.84795
 11
-8.61033
 21
-2.21072
  0
LINE
  8
0
 10
-8.61033
 20
-2.21072
 11
-8.51033
 21
-2.56922
  0
LINE
  8
0
 10
-8.51033
 20
-2.56922
 11
-8.39522
 21
-2.92346
  0
LINE
  8
0
 10
-8.39522
 20
-2.92346
 11
-8.26539
 21
-3.27228
  0
LINE
  8
0
 10
-8.26539
 20
-3.27228
 11
-8.12121
 21
-3.61567
  0
LINE
  8
0
 10
-8.12121
 20
-3.61567
 11
-7.96269
 21
-3.95247
  0
LINE
  8
0
 10
-7.96269
 20
-3.95247
 11
-7.79022
 21
-4.28268
  0
LINE
  8
0
 10
-7.79022
 20
-4.28268
 11
-7.60419
 21
-4.60515
  0
LINE
  8
0
 10
-7.60419
 20
-4.60515
 11
-7.40459
 21
-4.91947
  0
LINE
  8
0
 10
-7.40459
 20
-4.91947
 11
-7.19181
 21
-5.22526
  0
LINE
  8
0
 10
-7.19181
 20
-5.22526
 11
-6.96702
 21
-5.52176
  0
LINE
  8
0
 10
-6.96702
 20
-5.52176
 11
-6.72943
 21
-5.80856
  0
LINE
  8
0
 10
-6.72943
 20
-5.80856
 11
-6.48022
 21
-6.08529
  0
LINE
  8
0
 10
-6.48022
 20
-6.08529
 11
-6.21978
 21
-6.35155
  0
LINE
  8
0
 10
-6.21978
 20
-6.35155
 11
-5.94847
 21
-6.60619
  0
LINE
  8
0
 10
-5.94847
 20
-6.60619
 11
-5.66632
 21
-6.84958
  0
LINE
  8
0
 10
-5.66632
 20
-6.84958
 11
-5.37487
 21
-7.08096
  0
LINE
  8
0
 10
-5.37487
 20
-7.08096
 11
-5.07333
 21
-7.29994
  0
LINE
  8
0
 10
-5.07333
 20
-7.29994
 11
-4.76328
 21
-7.50574
  0
LINE
  8
0
 10
-4.76328
 20
-7.50574
 11
-4.44469
 21
-7.69875
  0
LINE
  8
0
 10
-4.44469
 20
-7.69875
 11
-4.11835
 21
-7.8782
  0
LINE
  8
0
 10
-4.11835
 20
-7.8782
 11
-3.78504
 21
-8.0437
  0
LINE
  8
0
 10
-3.78504
 20
-8.0437
 11
-3.44475
 21
-8.19524
  0
LINE
  8
0
 10
-3.44475
 20
-8.19524
 11
-3.09865
 21
-8.33205
  0
LINE
  8
0
 10
-3.09865
 20
-8.33205
 11
-2.74712
 21
-8.45452
  0
LINE
  8
0
 10
-2.74712
 20
-8.45452
 11
-2.39055
 21
-8.56227
  0
LINE
  8
0
 10
-2.39055
 20
-8.56227
 11
-2.02972
 21
-8.6549
  0
LINE
  8
0
 10
-2.02972
 20
-8.6549
 11
-1.66579
 21
-8.73241
  0
LINE
  8
0
 10
-1.66579
 20
-8.73241
 11
-1.29837
 21
-8.79442
  0
LINE
  8
0
 10
-1.29837
 20
-8.79442
 11
-0.929013
 21
-8.84093
  0
LINE
  8
0
 10
-0.929013
 20
-8.84093
 11
-0.558105
 21
-8.87233
  0
LINE
  8
0
 10
-0.558105
 20
-8.87233
 11
-0.186035
 21
-8.88783
  0
LINE
  8
0
 10
-0.186035
 20
-8.88783
 11
150.186
 21
-8.88783
  0
LINE
  8
0
 10
150.186
 20
-8.88783
 11
150.558
 21
-8.87233
  0
LINE
  8
0
 10
149.957
 20
-2.04949
 11
149.871
 21
-2.04561
  0
LINE
  8
0
 10
149.871
 20
-2.04561
 11
149.785
 21
-2.03864
  0
LINE
  8
0
 10
149.785
 20
-2.03864
 11
149.7
 21
-2.02778
  0
LINE
  8
0
 10
149.7
 20
-2.02778
 11
149.616
 21
-2.01344
  0
LINE
  8
0
 10
149.616
 20
-2.01344
 11
149.532
 21
-1.99561
  0
LINE
  8
0
 10
149.532
 20
-1.99561
 11
149.449
 21
-1.9743
  0
LINE
  8
0
 10
149.449
 20
-1.9743
 11
149.366
 21
-1.94949
  0
LINE
  8
0
 10
149.366
 20
-1.94949
 11
149.285
 21
-1.9212
  0
LINE
  8
0
 10
149.285
 20
-1.9212
 11
149.205
 21
-1.88981
  0
LINE
  8
0
 10
149.205
 20
-1.88981
 11
149.127
 21
-1.85454
  0
LINE
  8
0
 10
149.127
 20
-1.85454
 11
149.05
 21
-1.81656
  0
LINE
  8
0
 10
149.05
 20
-1.81656
 11
148.975
 21
-1.77509
  0
LINE
  8
0
 10
148.975
 20
-1.77509
 11
148.901
 21
-1.73051
  0
LINE
  8
0
 10
148.901
 20
-1.73051
 11
148.83
 21
-1.68323
  0
LINE
  8
0
 10
148.83
 20
-1.68323
 11
148.76
 21
-1.63285
  0
LINE
  8
0
 10
148.76
 20
-1.63285
 11
148.693
 21
-1.57936
  0
LINE
  8
0
 10
148.693
 20
-1.57936
 11
148.628
 21
-1.52316
  0
LINE
  8
0
 10
148.628
 20
-1.52316
 11
148.565
 21
-1.46464
  0
LINE
  8
0
 10
148.565
 20
-1.46464
 11
148.505
 21
-1.40302
  0
LINE
  8
0
 10
148.505
 20
-1.40302
 11
148.448
 21
-1.33945
  0
LINE
  8
0
 10
148.448
 20
-1.33945
 11
148.393
 21
-1.27318
  0
LINE
  8
0
 10
148.393
 20
-1.27318
 11
148.341
 21
-1.20458
  0
LINE
  8
0
 10
148.341
 20
-1.20458
 11
148.292
 21
-1.13443
  0
LINE
  8
0
 10
148.292
 20
-1.13443
 11
148.246
 21
-1.06195
  0
LINE
  8
0
 10
148.246
 20
-1.06195
 11
148.203
 21
-0.987537
  0
LINE
  8
0
 10
148.203
 20
-0.987537
 11
148.163
 21
-0.911185
  0
LINE
  8
0
 10
148.163
 20
-0.911185
 11
148.127
 21
-0.83367
  0
LINE
  8
0
 10
148.127
 20
-0.83367
 11
148.094
 21
-0.754605
  0
LINE
  8
0
 10
148.094
 20
-0.754605
 11
148.064
 21
-0.67399
  0
LINE
  8
0
 10
148.064
 20
-0.67399
 11
148.037
 21
-0.592212
  0
LINE
  8
0
 10
148.037
 20
-0.592212
 11
148.014
 21
-0.509659
  0
LINE
  8
0
 10
148.014
 20
-0.509659
 11
147.994
 21
-0.425943
  0
LINE
  8
0
 10
147.994
 20
-0.425943
 11
147.979
 21
-0.34184
  0
LINE
  8
0
 10
147.979
 20
-0.34184
 11
147.966
 21
-0.256573
  0
LINE
  8
0
 10
147.966
 20
-0.256573
 11
147.957
 21
-0.171307
  0
LINE
  8
0
 10
147.957
 20
-0.171307
 11
147.951
 21
-0.0856537
  0
LINE
  8
0
 10
147.951
 20
-0.0856537
 11
147.95
 21
0
  0
LINE
  8
0
 10
147.95
 20
0
 11
147.951
 21
0.0856537
  0
LINE
  8
0
 10
147.951
 20
0.0856537
 11
147.957
 21
0.171307
  0
LINE
  8
0
 10
147.957
 20
0.171307
 11
147.966
 21
0.256573
  0
LINE
  8
0
 10
147.966
 20
0.256573
 11
147.979
 21
0.34184
  0
LINE
  8
0
 10
147.979
 20
0.34184
 11
147.994
 21
0.425943
  0
LINE
  8
0
 10
147.994
 20
0.425943
 11
148.014
 21
0.509659
  0
LINE
  8
0
 10
148.014
 20
0.509659
 11
148.037
 21
0.592212
  0
LINE
  8
0
 10
148.037
 20
0.592212
 11
148.064
 21
0.67399
  0
LINE
  8
0
 10
148.064
 20
0.67399
 11
148.094
 21
0.754605
  0
LINE
  8
0
 10
148.094
 20
0.754605
 11
148.127
 21
0.83367
  0
LINE
  8
0
 10
148.127
 20
0.83367
 11
148.163
 21
0.911185
  0
LINE
  8
0
 10
148.163
 20
0.911185
 11
148.203
 21
0.987537
  0
LINE
  8
0
 10
148.203
 20
0.987537
 11
148.246
 21
1.06195
  0
LINE
  8
0
 10
148.246
 20
1.06195
 11
148.292
 21
1.13443
  0
LINE
  8
0
 10
148.292
 20
1.13443
 11
148.341
 21
1.20458
  0
LINE
  8
0
 10
148.341
 20
1.20458
 11
148.393
 21
1.27318
  0
LINE
  8
0
 10
148.393
 20
1.27318
 11
148.448
 21
1.33945
  0
LINE
  8
0
 10
148.448
 20
1.33945
 11
148.505
 21
1.40302
  0
LINE
  8
0
 10
148.505
 20
1.40302
 11
148.565
 21
1.46464
  0
LINE
  8
0
 10
148.565
 20
1.46464
 11
148.628
 21
1.52316
  0
LINE
  8
0
 10
148.628
 20
1.52316
 11
148.693
 21
1.57936
  0
LINE
  8
0
 10
148.693
 20
1.57936
 11
148.76
 21
1.63285
  0
LINE
  8
0
 10
148.76
 20
1.63285
 11
148.83
 21
1.68323
  0
LINE
  8
0
 10
148.83
 20
1.68323
 11
148.901
 21
1.73051
  0
LINE
  8
0
 10
148.901
 20
1.73051
 11
148.975
 21
1.77509
  0
LINE
  8
0
 10
148.975
 20
1.77509
 11
149.05
 21
1.81656
  0
LINE
  8
0
 10
149.05
 20
1.81656
 11
149.127
 21
1.85454
  0
LINE
  8
0
 10
149.127
 20
1.85454
 11
149.205
 21
1.88981
  0
LINE
  8
0
 10
149.205
 20
1.88981
 11
149.285
 21
1.9212
  0
LINE
  8
0
 10
149.285
 20
1.9212
 11
149.366
 21
1.94949
  0
LINE
  8
0
 10
149.366
 20
1.94949
 11
149.449
 21
1.9743
  0
LINE
  8
0
 10
149.449
 20
1.9743
 11
149.532
 21
1.99561
  0
LINE
  8
0
 10
149.532
 20
1.99561
 11
149.616
 21
2.01344
  0
LINE
  8
0
 10
149.616
 20
2.01344
 11
149.7
 21
2.02778
  0
LINE
  8
0
 10
149.7
 20
2.02778
 11
149.785
 21
2.03864
  0
LINE
  8
0
 10
149.785
 20
2.03864
 11
149.871
 21
2.04561
  0
LINE
  8
0
 10
149.871
 20
2.04561
 11
149.957
 21
2.04949
  0
LINE
  8
0
 10
149.957
 20
2.04949
 11
150.043
 21
2.04949
  0
LINE
  8
0
 10
150.043
 20
2.04949
 11
150.128
 21
2.04561
  0
LINE
  8
0
 10
150.128
 20
2.04561
 11
150.214
 21
2.03864
  0
LINE
  8
0
 10
150.214
 20
2.03864
 11
150.299
 21
2.02778
  0
LINE
  8
0
 10
150.299
 20
2.02778
 11
150.384
 21
2.01344
  0
LINE
  8
0
 10
150.384
 20
2.01344
 11
150.468
 21
1.99561
  0
LINE
  8
0
 10
150.468
 20
1.99561
 11
150.551
 21
1.9743
  0
LINE
  8
0
 10
150.551
 20
1.9743
 11
150.633
 21
1.94949
  0
LINE
  8
0
 10
150.633
 20
1.94949
 11
150.714
 21
1.9212
  0
LINE
  8
0
 10
150.714
 20
1.9212
 11
150.794
 21
1.88981
  0
LINE
  8
0
 10
150.794
 20
1.88981
 11
150.873
 21
1.85454
  0
LINE
  8
0
 10
150.873
 20
1.85454
 11
150.95
 21
1.81656
  0
LINE
  8
0
 10
150.95
 20
1.81656
 11
151.025
 21
1.77509
  0
LINE
  8
0
 10
151.025
 20
1.77509
 11
151.098
 21
1.73051
  0
LINE
  8
0
 10
151.098
 20
1.73051
 11
151.17
 21
1.68323
  0
LINE
  8
0
 10
151.17
 20
1.68323
 11
151.239
 21
1.63285
  0
LINE
  8
0
 10
151.239
 20
1.63285
 11
151.307
 21
1.57936
  0
LINE
  8
0
 10
151.307
 20
1.57936
 11
151.371
 21
1.52316
  0
LINE
  8
0
 10
151.371
 20
1.52316
 11
151.434
 21
1.46464
  0
LINE
  8
0
 10
151.434
 20
1.46464
 11
151.494
 21
1.40302
  0
LINE
  8
0
 10
151.494
 20
1.40302
 11
151.552
 21
1.33945
  0
LINE
  8
0
 10
151.552
 20
1.33945
 11
151.606
 21
1.27318
  0
LINE
  8
0
 10
151.606
 20
1.27318
 11
151.658
 21
1.20458
  0
LINE
  8
0
 10
151.658
 20
1.20458
 11
151.707
 21
1.13443
  0
LINE
  8
0
 10
151.707
 20
1.13443
 11
151.753
 21
1.06195
  0
LINE
  8
0
 10
151.753
 20
1.06195
 11
151.796
 21
0.987537
  0
LINE
  8
0
 10
151.796
 20
0.987537
 11
151.836
 21
0.911185
  0
LINE
  8
0
 10
151.836
 20
0.911185
 11
151.873
 21
0.83367
  0
LINE
  8
0
 10
151.873
 20
0.83367
 11
151.906
 21
0.754605
  0
LINE
  8
0
 10
151.906
 20
0.754605
 11
151.936
 21
0.67399
  0
LINE
  8
0
 10
151.936
 20
0.67399
 11
151.962
 21
0.592212
  0
LINE
  8
0
 10
151.962
 20
0.592212
 11
151.985
 21
0.509659
  0
LINE
  8
0
 10
151.985
 20
0.509659
 11
152.005
 21
0.425943
  0
LINE
  8
0
 10
152.005
 20
0.425943
 11
152.021
 21
0.34184
  0
LINE
  8
0
 10
152.021
 20
0.34184
 11
152.034
 21
0.256573
  0
LINE
  8
0
 10
152.034
 20
0.256573
 11
152.043
 21
0.171307
  0
LINE
  8
0
 10
152.043
 20
0.171307
 11
152.048
 21
0.0856537
  0
LINE
  8
0
 10
152.048
 20
0.0856537
 11
152.05
 21
0
  0
LINE
  8
0
 10
152.05
 20
0
 11
152.048
 21
-0.0856537
  0
LINE
  8
0
 10
152.048
 20
-0.0856537
 11
152.043
 21
-0.171307
  0
LINE
  8
0
 10
152.043
 20
-0.171307
 11
152.034
 21
-0.256573
  0
LINE
  8
0
 10
152.034
 20
-0.256573
 11
152.021
 21
-0.34184
  0
LINE
  8
0
 10
152.021
 20
-0.34184
 11
152.005
 21
-0.425943
  0
LINE
  8
0
 10
152.005
 20
-0.425943
 11
151.985
 21
-0.509659
  0
LINE
  8
0
 10
151.985
 20
-0.509659
 11
151.962
 21
-0.592212
  0
LINE
  8
0
 10
151.962
 20
-0.592212
 11
151.936
 21
-0.67399
  0
LINE
  8
0
 10
151.936
 20
-0.67399
 11
151.906
 21
-0.754605
  0
LINE
  8
0
 10
151.906
 20
-0.754605
 11
151.873
 21
-0.83367
  0
LINE
  8
0
 10
151.873
 20
-0.83367
 11
151.836
 21
-0.911185
  0
LINE
  8
0
 10
151.836
 20
-0.911185
 11
151.796
 21
-0.987537
  0
LINE
  8
0
 10
151.796
 20
-0.987537
 11
151.753
 21
-1.06195
  0
LINE
  8
0
 10
151.753
 20
-1.06195
 11
151.707
 21
-1.13443
  0
LINE
  8
0
 10
151.707
 20
-1.13443
 11
151.658
 21
-1.20458
  0
LINE
  8
0
 10
151.658
 20
-1.20458
 11
151.606
 21
-1.27318
  0
LINE
  8
0
 10
151.606
 20
-1.27318
 11
151.552
 21
-1.33945
  0
LINE
  8
0
 10
151.552
 20
-1.33945
 11
151.494
 21
-1.40302
  0
LINE
  8
0
 10
151.494
 20
-1.40302
 11
151.434
 21
-1.46464
  0
LINE
  8
0
 10
151.434
 20
-1.46464
 11
151.371
 21
-1.52316
  0
LINE
  8
0
 10
151.371
 20
-1.52316
 11
151.307
 21
-1.57936
  0
LINE
  8
0
 10
151.307
 20
-1.57936
 11
151.239
 21
-1.63285
  0
LINE
  8
0
 10
151.239
 20
-1.63285
 11
151.17
 21
-1.68323
  0
LINE
  8
0
 10
151.17
 20
-1.68323
 11
151.098
 21
-1.73051
  0
LINE
  8
0
 10
151.098
 20
-1.73051
 11
151.025
 21
-1.77509
  0
LINE
  8
0
 10
151.025
 20
-1.77509
 11
150.95
 21
-1.81656
  0
LINE
  8
0
 10
150.95
 20
-1.81656
 11
150.873
 21
-1.85454
  0
LINE
  8
0
 10
150.873
 20
-1.85454
 11
150.794
 21
-1.88981
  0
LINE
  8
0
 10
150.794
 20
-1.88981
 11
150.714
 21
-1.9212
  0
LINE
  8
0
 10
150.714
 20
-1.9212
 11
150.633
 21
-1.94949
  0
LINE
  8
0
 10
150.633
 20
-1.94949
 11
150.551
 21
-1.9743
  0
LINE
  8
0
 10
150.551
 20
-1.9743
 11
150.468
 21
-1.99561
  0
LINE
  8
0
 10
150.468
 20
-1.99561
 11
150.384
 21
-2.01344
  0
LINE
  8
0
 10
150.384
 20
-2.01344
 11
150.299
 21
-2.02778
  0
LINE
  8
0
 10
150.299
 20
-2.02778
 11
150.214
 21
-2.03864
  0
LINE
  8
0
 10
150.214
 20
-2.03864
 11
150.128
 21
-2.04561
  0
LINE
  8
0
 10
150.128
 20
-2.04561
 11
150.043
 21
-2.04949
  0
LINE
  8
0
 10
150.043
 20
-2.04949
 11
149.957
 21
-2.04949
  0
LINE
  8
0
 10
-0.0321686
 20
-1.54952
 11
-0.0972809
 21
-1.5468
  0
LINE
  8
0
 10
-0.0972809
 20
-1.5468
 11
-0.162006
 21
-1.54138
  0
LINE
  8
0
 10
-0.162006
 20
-1.54138
 11
-0.226343
 21
-1.53324
  0
LINE
  8
0
 10
-0.226343
 20
-1.53324
 11
-0.290292
 21
-1.52239
  0
LINE
  8
0
 10
-0.290292
 20
-1.52239
 11
-0.353854
 21
-1.50882
  0
LINE
  8
0
 10
-0.353854
 20
-1.50882
 11
-0.416641
 21
-1.49254
  0
LINE
  8
0
 10
-0.416641
 20
-1.49254
 11
-0.478653
 21
-1.47394
  0
LINE
  8
0
 10
-0.478653
 20
-1.47394
 11
-0.540277
 21
-1.45262
  0
LINE
  8
0
 10
-0.540277
 20
-1.45262
 11
-0.600351
 21
-1.42859
  0
LINE
  8
0
 10
-0.600351
 20
-1.42859
 11
-0.65965
 21
-1.40224
  0
LINE
  8
0
 10
-0.65965
 20
-1.40224
 11
-0.717786
 21
-1.37356
  0
LINE
  8
0
 10
-0.717786
 20
-1.37356
 11
-0.774759
 21
-1.34217
  0
LINE
  8
0
 10
-0.774759
 20
-1.34217
 11
-0.830182
 21
-1.30845
  0
LINE
  8
0
 10
-0.830182
 20
-1.30845
 11
-0.884442
 21
-1.2724
  0
LINE
  8
0
 10
-0.884442
 20
-1.2724
 11
-0.936765
 21
-1.23442
  0
LINE
  8
0
 10
-0.936765
 20
-1.23442
 11
-0.987924
 21
-1.19411
  0
LINE
  8
0
 10
-0.987924
 20
-1.19411
 11
-1.03715
 21
-1.15187
  0
LINE
  8
0
 10
-1.03715
 20
-1.15187
 11
-1.08443
 21
-1.1073
  0
LINE
  8
0
 10
-1.08443
 20
-1.1073
 11
-1.12978
 21
-1.06079
  0
LINE
  8
0
 10
-1.12978
 20
-1.06079
 11
-1.17318
 21
-1.01273
  0
LINE
  8
0
 10
-1.17318
 20
-1.01273
 11
-1.21465
 21
-0.962732
  0
LINE
  8
0
 10
-1.21465
 20
-0.962732
 11
-1.2538
 21
-0.910797
  0
LINE
  8
0
 10
-1.2538
 20
-0.910797
 11
-1.29101
 21
-0.8577
  0
LINE
  8
0
 10
-1.29101
 20
-0.8577
 11
-1.3255
 21
-0.802664
  0
LINE
  8
0
 10
-1.3255
 20
-0.802664
 11
-1.35806
 21
-0.746466
  0
LINE
  8
0
 10
-1.35806
 20
-0.746466
 11
-1.38829
 21
-0.689105
  0
LINE
  8
0
 10
-1.38829
 20
-0.689105
 11
-1.41581
 21
-0.630194
  0
LINE
  8
0
 10
-1.41581
 20
-0.630194
 11
-1.441
 21
-0.570508
  0
LINE
  8
0
 10
-1.441
 20
-0.570508
 11
-1.46348
 21
-0.509659
  0
LINE
  8
0
 10
-1.46348
 20
-0.509659
 11
-1.48363
 21
-0.447647
  0
LINE
  8
0
 10
-1.48363
 20
-0.447647
 11
-1.50107
 21
-0.385248
  0
LINE
  8
0
 10
-1.50107
 20
-0.385248
 11
-1.5158
 21
-0.322073
  0
LINE
  8
0
 10
-1.5158
 20
-0.322073
 11
-1.5282
 21
-0.258124
  0
LINE
  8
0
 10
-1.5282
 20
-0.258124
 11
-1.5375
 21
-0.194174
  0
LINE
  8
0
 10
-1.5375
 20
-0.194174
 11
-1.54448
 21
-0.129449
  0
LINE
  8
0
 10
-1.54448
 20
-0.129449
 11
-1.54836
 21
-0.0647247
  0
LINE
  8
0
 10
-1.54836
 20
-0.0647247
 11
-1.54991
 21
0
  0
LINE
  8
0
 10
-1.54991
 20
0
 11
-1.54836
 21
0.0647247
  0
LINE
  8
0
 10
-1.54836
 20
0.0647247
 11
-1.54448
 21
0.129449
  0
LINE
  8
0
 10
-1.54448
 20
0.129449
 11
-1.5375
 21
0.194174
  0
LINE
  8
0
 10
-1.5375
 20
0.194174
 11
-1.5282
 21
0.258124
  0
LINE
  8
0
 10
-1.5282
 20
0.258124
 11
-1.5158
 21
0.322073
  0
LINE
  8
0
 10
-1.5158
 20
0.322073
 11
-1.50107
 21
0.385248
  0
LINE
  8
0
 10
-1.50107
 20
0.385248
 11
-1.48363
 21
0.447647
  0
LINE
  8
0
 10
-1.48363
 20
0.447647
 11
-1.46348
 21
0.509659
  0
LINE
  8
0
 10
-1.46348
 20
0.509659
 11
-1.441
 21
0.570508
  0
LINE
  8
0
 10
-1.441
 20
0.570508
 11
-1.41581
 21
0.630194
  0
LINE
  8
0
 10
-1.41581
 20
0.630194
 11
-1.38829
 21
0.689105
  0
LINE
  8
0
 10
-1.38829
 20
0.689105
 11
-1.35806
 21
0.746466
  0
LINE
  8
0
 10
-1.35806
 20
0.746466
 11
-1.3255
 21
0.802664
  0
LINE
  8
0
 10
-1.3255
 20
0.802664
 11
-1.29101
 21
0.8577
  0
LINE
  8
0
 10
-1.29101
 20
0.8577
 11
-1.2538
 21
0.910797
  0
LINE
  8
0
 10
-1.2538
 20
0.910797
 11
-1.21465
 21
0.962732
  0
LINE
  8
0
 10
-1.21465
 20
0.962732
 11
-1.17318
 21
1.01273
  0
LINE
  8
0
 10
-1.17318
 20
1.01273
 11
-1.12978
 21
1.06079
  0
LINE
  8
0
 10
-1.12978
 20
1.06079
 11
-1.08443
 21
1.1073
  0
LINE
  8
0
 10
-1.08443
 20
1.1073
 11
-1.03715
 21
1.15187
  0
LINE
  8
0
 10
-1.03715
 20
1.15187
 11
-0.987924
 21
1.19411
  0
LINE
  8
0
 10
-0.987924
 20
1.19411
 11
-0.936765
 21
1.23442
  0
LINE
  8
0
 10
-0.936765
 20
1.23442
 11
-0.884442
 21
1.2724
  0
LINE
  8
0
 10
-0.884442
 20
1.2724
 11
-0.830182
 21
1.30845
  0
LINE
  8
0
 10
-0.830182
 20
1.30845
 11
-0.774759
 21
1.34217
  0
LINE
  8
0
 10
-0.774759
 20
1.34217
 11
-0.717786
 21
1.37356
  0
LINE
  8
0
 10
-0.717786
 20
1.37356
 11
-0.65965
 21
1.40224
  0
LINE
  8
0
 10
-0.65965
 20
1.40224
 11
-0.600351
 21
1.42859
  0
LINE
  8
0
 10
-0.600351
 20
1.42859
 11
-0.540277
 21
1.45262
  0
LINE
  8
0
 10
-0.540277
 20
1.45262
 11
-0.478653
 21
1.47394
  0
LINE
  8
0
 10
-0.478653
 20
1.47394
 11
-0.416641
 21
1.49254
  0
LINE
  8
0
 10
-0.416641
 20
1.49254
 11
-0.353854
 21
1.50882
  0
LINE
  8
0
 10
-0.353854
 20
1.50882
 11
-0.290292
 21
1.52239
  0
LINE
  8
0
 10
-0.290292
 20
1.52239
 11
-0.226343
 21
1.53324
  0
LINE
  8
0
 10
-0.226343
 20
1.53324
 11
-0.162006
 21
1.54138
  0
LINE
  8
0
 10
-0.162006
 20
1.54138
 11
-0.0972809
 21
1.5468
  0
LINE
  8
0
 10
-0.0972809
 20
1.5468
 11
-0.0321686
 21
1.54952
  0
LINE
  8
0
 10
-0.0321686
 20
1.54952
 11
0.0321686
 21
1.54952
  0
LINE
  8
0
 10
0.0321686
 20
1.54952
 11
0.0972809
 21
1.5468
  0
LINE
  8
0
 10
0.0972809
 20
1.5468
 11
0.162006
 21
1.54138
  0
LINE
  8
0
 10
0.162006
 20
1.54138
 11
0.226343
 21
1.53324
  0
LINE
  8
0
 10
0.226343
 20
1.53324
 11
0.290292
 21
1.52239
  0
LINE
  8
0
 10
0.290292
 20
1.52239
 11
0.353854
 21
1.50882
  0
LINE
  8
0
 10
0.353854
 20
1.50882
 11
0.416641
 21
1.49254
  0
LINE
  8
0
 10
0.416641
 20
1.49254
 11
0.478653
 21
1.47394
  0
LINE
  8
0
 10
0.478653
 20
1.47394
 11
0.540277
 21
1.45262
  0
LINE
  8
0
 10
0.540277
 20
1.45262
 11
0.600351
 21
1.42859
  0
LINE
  8
0
 10
0.600351
 20
1.42859
 11
0.65965
 21
1.40224
  0
LINE
  8
0
 10
0.65965
 20
1.40224
 11
0.717786
 21
1.37356
  0
LINE
  8
0
 10
0.717786
 20
1.37356
 11
0.774759
 21
1.34217
  0
LINE
  8
0
 10
0.774759
 20
1.34217
 11
0.830182
 21
1.30845
  0
LINE
  8
0
 10
0.830182
 20
1.30845
 11
0.884442
 21
1.2724
  0
LINE
  8
0
 10
0.884442
 20
1.2724
 11
0.936765
 21
1.23442
  0
LINE
  8
0
 10
0.936765
 20
1.23442
 11
0.987924
 21
1.19411
  0
LINE
  8
0
 10
0.987924
 20
1.19411
 11
1.03715
 21
1.15187
  0
LINE
  8
0
 10
1.03715
 20
1.15187
 11
1.08443
 21
1.1073
  0
LINE
  8
0
 10
1.08443
 20
1.1073
 11
1.12978
 21
1.06079
  0
LINE
  8
0
 10
1.12978
 20
1.06079
 11
1.17318
 21
1.01273
  0
LINE
  8
0
 10
1.17318
 20
1.01273
 11
1.21465
 21
0.962732
  0
LINE
  8
0
 10
1.21465
 20
0.962732
 11
1.2538
 21
0.910797
  0
LINE
  8
0
 10
1.2538
 20
0.910797
 11
1.29101
 21
0.8577
  0
LINE
  8
0
 10
1.29101
 20
0.8577
 11
1.3255
 21
0.802664
  0
LINE
  8
0
 10
1.3255
 20
0.802664
 11
1.35806
 21
0.746466
  0
LINE
  8
0
 10
1.35806
 20
0.746466
 11
1.38829
 21
0.689105
  0
LINE
  8
0
 10
1.38829
 20
0.689105
 11
1.41581
 21
0.630194
  0
LINE
  8
0
 10
1.41581
 20
0.630194
 11
1.441
 21
0.570508
  0
LINE
  8
0
 10
1.441
 20
0.570508
 11
1.46348
 21
0.509659
  0
LINE
  8
0
 10
1.46348
 20
0.509659
 11
1.48363
 21
0.447647
  0
LINE
  8
0
 10
1.48363
 20
0.447647
 11
1.50107
 21
0.385248
  0
LINE
  8
0
 10
1.50107
 20
0.385248
 11
1.5158
 21
0.322073
  0
LINE
  8
0
 10
1.5158
 20
0.322073
 11
1.5282
 21
0.258124
  0
LINE
  8
0
 10
1.5282
 20
0.258124
 11
1.5375
 21
0.194174
  0
LINE
  8
0
 10
1.5375
 20
0.194174
 11
1.54448
 21
0.129449
  0
LINE
  8
0
 10
1.54448
 20
0.129449
 11
1.54836
 21
0.0647247
  0
LINE
  8
0
 10
1.54836
 20
0.0647247
 11
1.54991
 21
0
  0
LINE
  8
0
 10
1.54991
 20
0
 11
1.54836
 21
-0.0647247
  0
LINE
  8
0
 10
1.54836
 20
-0.0647247
 11
1.54448
 21
-0.129449
  0
LINE
  8
0
 10
1.54448
 20
-0.129449
 11
1.5375
 21
-0.194174
  0
LINE
  8
0
 10
1.5375
 20
-0.194174
 11
1.5282
 21
-0.258124
  0
LINE
  8
0
 10
1.5282
 20
-0.258124
 11
1.5158
 21
-0.322073
  0
LINE
  8
0
 10
1.5158
 20
-0.322073
 11
1.50107
 21
-0.385248
  0
LINE
  8
0
 10
1.50107
 20
-0.385248
 11
1.48363
 21
-0.447647
  0
LINE
  8
0
 10
1.48363
 20
-0.447647
 11
1.46348
 21
-0.509659
  0
LINE
  8
0
 10
1.46348
 20
-0.509659
 11
1.441
 21
-0.570508
  0
LINE
  8
0
 10
1.441
 20
-0.570508
 11
1.41581
 21
-0.630194
  0
LINE
  8
0
 10
1.41581
 20
-0.630194
 11
1.38829
 21
-0.689105
  0
LINE
  8
0
 10
1.38829
 20
-0.689105
 11
1.35806
 21
-0.746466
  0
LINE
  8
0
 10
1.35806
 20
-0.746466
 11
1.3255
 21
-0.802664
  0
LINE
  8
0
 10
1.3255
 20
-0.802664
 11
1.29101
 21
-0.8577
  0
LINE
  8
0
 10
1.29101
 20
-0.8577
 11
1.2538
 21
-0.910797
  0
LINE
  8
0
 10
1.2538
 20
-0.910797
 11
1.21465
 21
-0.962732
  0
LINE
  8
0
 10
1.21465
 20
-0.962732
 11
1.17318
 21
-1.01273
  0
LINE
  8
0
 10
1.17318
 20
-1.01273
 11
1.12978
 21
-1.06079
  0
LINE
  8
0
 10
1.12978
 20
-1.06079
 11
1.08443
 21
-1.1073
  0
LINE
  8
0
 10
1.08443
 20
-1.1073
 11
1.03715
 21
-1.15187
  0
LINE
  8
0
 10
1.03715
 20
-1.15187
 11
0.987924
 21
-1.19411
  0
LINE
  8
0
 10
0.987924
 20
-1.19411
 11
0.936765
 21
-1.23442
  0
LINE
  8
0
 10
0.936765
 20
-1.23442
 11
0.884442
 21
-1.2724
  0
LINE
  8
0
 10
0.884442
 20
-1.2724
 11
0.830182
 21
-1.30845
  0
LINE
  8
0
 10
0.830182
 20
-1.30845
 11
0.774759
 21
-1.34217
  0
LINE
  8
0
 10
0.774759
 20
-1.34217
 11
0.717786
 21
-1.37356
  0
LINE
  8
0
 10
0.717786
 20
-1.37356
 11
0.65965
 21
-1.40224
  0
LINE
  8
0
 10
0.65965
 20
-1.40224
 11
0.600351
 21
-1.42859
  0
LINE
  8
0
 10
0.600351
 20
-1.42859
 11
0.540277
 21
-1.45262
  0
LINE
  8
0
 10
0.540277
 20
-1.45262
 11
0.478653
 21
-1.47394
  0
LINE
  8
0
 10
0.478653
 20
-1.47394
 11
0.416641
 21
-1.49254
  0
LINE
  8
0
 10
0.416641
 20
-1.49254
 11
0.353854
 21
-1.50882
  0
LINE
  8
0
 10
0.353854
 20
-1.50882
 11
0.290292
 21
-1.52239
  0
LINE
  8
0
 10
0.290292
 20
-1.52239
 11
0.226343
 21
-1.53324
  0
LINE
  8
0
 10
0.226343
 20
-1.53324
 11
0.162006
 21
-1.54138
  0
LINE
  8
0
 10
0.162006
 20
-1.54138
 11
0.0972809
 21
-1.5468
  0
LINE
  8
0
 10
0.0972809
 20
-1.5468
 11
0.0321686
 21
-1.54952
  0
LINE
  8
0
 10
0.0321686
 20
-1.54952
 11
-0.0321686
 21
-1.54952
  0
ENDSEC
  0
SECTION
  2
OBJECTS
  0
DICTIONARY
  0
ENDSEC
  0
EOF
