  0
SECTION
  2
BLOCKS
  0
ENDSEC
  0
SECTION
  2
ENTITIES
  0
LINE
  8
0
 10
5.92747
 20
-0.349304
 11
5.94209
 21
-0.348068
  0
LINE
  8
0
 10
5.94209
 20
-0.348068
 11
5.95663
 21
-0.346237
  0
LINE
  8
0
 10
5.95663
 20
-0.346237
 11
5.97108
 21
-0.343796
  0
LINE
  8
0
 10
5.97108
 20
-0.343796
 11
5.98543
 21
-0.340744
  0
LINE
  8
0
 10
5.98543
 20
-0.340744
 11
5.99962
 21
-0.337097
  0
LINE
  8
0
 10
5.99962
 20
-0.337097
 11
6.01366
 21
-0.332855
  0
LINE
  8
0
 10
6.01366
 20
-0.332855
 11
6.02751
 21
-0.328033
  0
LINE
  8
0
 10
6.02751
 20
-0.328033
 11
6.04114
 21
-0.322647
  0
LINE
  8
0
 10
6.04114
 20
-0.322647
 11
6.05452
 21
-0.316681
  0
LINE
  8
0
 10
6.05452
 20
-0.316681
 11
6.06766
 21
-0.310165
  0
LINE
  8
0
 10
6.06766
 20
-0.310165
 11
6.08051
 21
-0.303101
  0
LINE
  8
0
 10
6.08051
 20
-0.303101
 11
6.09305
 21
-0.295502
  0
LINE
  8
0
 10
6.09305
 20
-0.295502
 11
6.10526
 21
-0.287399
  0
LINE
  8
0
 10
6.10526
 20
-0.287399
 11
6.11711
 21
-0.278778
  0
LINE
  8
0
 10
6.11711
 20
-0.278778
 11
6.1286
 21
-0.269669
  0
LINE
  8
0
 10
6.1286
 20
-0.269669
 11
6.13969
 21
-0.260086
  0
LINE
  8
0
 10
6.13969
 20
-0.260086
 11
6.15039
 21
-0.250061
  0
LINE
  8
0
 10
6.15039
 20
-0.250061
 11
6.16064
 21
-0.239578
  0
LINE
  8
0
 10
6.16064
 20
-0.239578
 11
6.17046
 21
-0.228683
  0
LINE
  8
0
 10
6.17046
 20
-0.228683
 11
6.17979
 21
-0.217392
  0
LINE
  8
0
 10
6.17979
 20
-0.217392
 11
6.18866
 21
-0.205719
  0
LINE
  8
0
 10
6.18866
 20
-0.205719
 11
6.19702
 21
-0.19368
  0
LINE
  8
0
 10
6.19702
 20
-0.19368
 11
6.20488
 21
-0.181305
  0
LINE
  8
0
 10
6.20488
 20
-0.181305
 11
6.2122
 21
-0.16861
  0
LINE
  8
0
 10
6.2122
 20
-0.16861
 11
6.21901
 21
-0.155609
  0
LINE
  8
0
 10
6.21901
 20
-0.155609
 11
6.22525
 21
-0.142349
  0
LINE
  8
0
 10
6.22525
 20
-0.142349
 11
6.23093
 21
-0.12883
  0
LINE
  8
0
 10
6.23093
 20
-0.12883
 11
6.23604
 21
-0.115097
  0
LINE
  8
0
 10
6.23604
 20
-0.115097
 11
6.24057
 21
-0.101151
  0
LINE
  8
0
 10
6.24057
 20
-0.101151
 11
6.24451
 21
-0.0870361
  0
LINE
  8
0
 10
6.24451
 20
-0.0870361
 11
6.24785
 21
-0.0727539
  0
LINE
  8
0
 10
6.24785
 20
-0.0727539
 11
6.25061
 21
-0.0583649
  0
LINE
  8
0
 10
6.25061
 20
-0.0583649
 11
6.25275
 21
-0.0438538
  0
LINE
  8
0
 10
6.25275
 20
-0.0438538
 11
6.25427
 21
-0.0292816
  0
LINE
  8
0
 10
6.25427
 20
-0.0292816
 11
6.2552
 21
-0.0146484
  0
LINE
  8
0
 10
6.2552
 20
-0.0146484
 11
6.25551
 21
0
  0
LINE
  8
0
 10
6.25551
 20
0
 11
6.2552
 21
0.0146484
  0
LINE
  8
0
 10
6.2552
 20
0.0146484
 11
6.25427
 21
0.0292816
  0
LINE
  8
0
 10
6.25427
 20
0.0292816
 11
6.25275
 21
0.0438538
  0
LINE
  8
0
 10
6.25275
 20
0.0438538
 11
6.25061
 21
0.0583649
  0
LINE
  8
0
 10
6.25061
 20
0.0583649
 11
6.24785
 21
0.0727539
  0
LINE
  8
0
 10
6.24785
 20
0.0727539
 11
6.24451
 21
0.0870361
  0
LINE
  8
0
 10
6.24451
 20
0.0870361
 11
6.24057
 21
0.101151
  0
LINE
  8
0
 10
6.24057
 20
0.101151
 11
6.23604
 21
0.115097
  0
LINE
  8
0
 10
6.23604
 20
0.115097
 11
6.23093
 21
0.12883
  0
LINE
  8
0
 10
6.23093
 20
0.12883
 11
6.22525
 21
0.142349
  0
LINE
  8
0
 10
6.22525
 20
0.142349
 11
6.21901
 21
0.155609
  0
LINE
  8
0
 10
6.21901
 20
0.155609
 11
6.2122
 21
0.16861
  0
LINE
  8
0
 10
6.2122
 20
0.16861
 11
6.20488
 21
0.181305
  0
LINE
  8
0
 10
6.20488
 20
0.181305
 11
6.19702
 21
0.19368
  0
LINE
  8
0
 10
6.19702
 20
0.19368
 11
6.18866
 21
0.205719
  0
LINE
  8
0
 10
6.18866
 20
0.205719
 11
6.17979
 21
0.217392
  0
LINE
  8
0
 10
6.17979
 20
0.217392
 11
6.17046
 21
0.228683
  0
LINE
  8
0
 10
6.17046
 20
0.228683
 11
6.16064
 21
0.239578
  0
LINE
  8
0
 10
6.16064
 20
0.239578
 11
6.15039
 21
0.250061
  0
LINE
  8
0
 10
6.15039
 20
0.250061
 11
6.13969
 21
0.260086
  0
LINE
  8
0
 10
6.13969
 20
0.260086
 11
6.1286
 21
0.269669
  0
LINE
  8
0
 10
6.1286
 20
0.269669
 11
6.11711
 21
0.278778
  0
LINE
  8
0
 10
6.11711
 20
0.278778
 11
6.10526
 21
0.287399
  0
LINE
  8
0
 10
6.10526
 20
0.287399
 11
6.09305
 21
0.295502
  0
LINE
  8
0
 10
6.09305
 20
0.295502
 11
6.08051
 21
0.303101
  0
LINE
  8
0
 10
6.08051
 20
0.303101
 11
6.06766
 21
0.310165
  0
LINE
  8
0
 10
6.06766
 20
0.310165
 11
6.05452
 21
0.316681
  0
LINE
  8
0
 10
6.05452
 20
0.316681
 11
6.04114
 21
0.322647
  0
LINE
  8
0
 10
6.04114
 20
0.322647
 11
6.02751
 21
0.328033
  0
LINE
  8
0
 10
6.02751
 20
0.328033
 11
6.01366
 21
0.332855
  0
LINE
  8
0
 10
6.01366
 20
0.332855
 11
5.99962
 21
0.337097
  0
LINE
  8
0
 10
5.99962
 20
0.337097
 11
5.98543
 21
0.340744
  0
LINE
  8
0
 10
5.98543
 20
0.340744
 11
5.97108
 21
0.343796
  0
LINE
  8
0
 10
5.97108
 20
0.343796
 11
5.95663
 21
0.346237
  0
LINE
  8
0
 10
5.95663
 20
0.346237
 11
5.94209
 21
0.348068
  0
LINE
  8
0
 10
5.94209
 20
0.348068
 11
5.92747
 21
0.349304
  0
LINE
  8
0
 10
5.92747
 20
0.349304
 11
5.91283
 21
0.349915
  0
LINE
  8
0
 10
5.91283
 20
0.349915
 11
-0.00732422
 21
0.349915
  0
LINE
  8
0
 10
-0.00732422
 20
0.349915
 11
-0.0219727
 21
0.349304
  0
LINE
  8
0
 10
-0.0219727
 20
0.349304
 11
-0.0365753
 21
0.348068
  0
LINE
  8
0
 10
-0.0365753
 20
0.348068
 11
-0.0511169
 21
0.346237
  0
LINE
  8
0
 10
-0.0511169
 20
0.346237
 11
-0.0655823
 21
0.343796
  0
LINE
  8
0
 10
-0.0655823
 20
0.343796
 11
-0.0799103
 21
0.340744
  0
LINE
  8
0
 10
-0.0799103
 20
0.340744
 11
-0.0941162
 21
0.337097
  0
LINE
  8
0
 10
-0.0941162
 20
0.337097
 11
-0.108154
 21
0.332855
  0
LINE
  8
0
 10
-0.108154
 20
0.332855
 11
-0.121994
 21
0.328033
  0
LINE
  8
0
 10
-0.121994
 20
0.328033
 11
-0.13562
 21
0.322647
  0
LINE
  8
0
 10
-0.13562
 20
0.322647
 11
-0.149017
 21
0.316681
  0
LINE
  8
0
 10
-0.149017
 20
0.316681
 11
-0.16214
 21
0.310165
  0
LINE
  8
0
 10
-0.16214
 20
0.310165
 11
-0.174988
 21
0.303101
  0
LINE
  8
0
 10
-0.174988
 20
0.303101
 11
-0.187531
 21
0.295502
  0
LINE
  8
0
 10
-0.187531
 20
0.295502
 11
-0.199738
 21
0.287399
  0
LINE
  8
0
 10
-0.199738
 20
0.287399
 11
-0.211609
 21
0.278778
  0
LINE
  8
0
 10
-0.211609
 20
0.278778
 11
-0.223083
 21
0.269669
  0
LINE
  8
0
 10
-0.223083
 20
0.269669
 11
-0.234192
 21
0.260086
  0
LINE
  8
0
 10
-0.234192
 20
0.260086
 11
-0.244873
 21
0.250061
  0
LINE
  8
0
 10
-0.244873
 20
0.250061
 11
-0.255127
 21
0.239578
  0
LINE
  8
0
 10
-0.255127
 20
0.239578
 11
-0.264938
 21
0.228683
  0
LINE
  8
0
 10
-0.264938
 20
0.228683
 11
-0.274292
 21
0.217392
  0
LINE
  8
0
 10
-0.274292
 20
0.217392
 11
-0.283142
 21
0.205719
  0
LINE
  8
0
 10
-0.283142
 20
0.205719
 11
-0.291519
 21
0.19368
  0
LINE
  8
0
 10
-0.291519
 20
0.19368
 11
-0.299377
 21
0.181305
  0
LINE
  8
0
 10
-0.299377
 20
0.181305
 11
-0.306702
 21
0.16861
  0
LINE
  8
0
 10
-0.306702
 20
0.16861
 11
-0.313492
 21
0.155609
  0
LINE
  8
0
 10
-0.313492
 20
0.155609
 11
-0.319733
 21
0.142349
  0
LINE
  8
0
 10
-0.319733
 20
0.142349
 11
-0.325409
 21
0.12883
  0
LINE
  8
0
 10
-0.325409
 20
0.12883
 11
-0.330521
 21
0.115097
  0
LINE
  8
0
 10
-0.330521
 20
0.115097
 11
-0.335052
 21
0.101151
  0
LINE
  8
0
 10
-0.335052
 20
0.101151
 11
-0.338989
 21
0.0870361
  0
LINE
  8
0
 10
-0.338989
 20
0.0870361
 11
-0.342346
 21
0.0727539
  0
LINE
  8
0
 10
-0.342346
 20
0.0727539
 11
-0.345093
 21
0.0583649
  0
LINE
  8
0
 10
-0.345093
 20
0.0583649
 11
-0.347229
 21
0.0438538
  0
LINE
  8
0
 10
-0.347229
 20
0.0438538
 11
-0.34877
 21
0.0292816
  0
LINE
  8
0
 10
-0.34877
 20
0.0292816
 11
-0.349686
 21
0.0146484
  0
LINE
  8
0
 10
-0.349686
 20
0.0146484
 11
-0.349991
 21
0
  0
LINE
  8
0
 10
-0.349991
 20
0
 11
-0.349686
 21
-0.0146484
  0
LINE
  8
0
 10
-0.349686
 20
-0.0146484
 11
-0.34877
 21
-0.0292816
  0
LINE
  8
0
 10
-0.34877
 20
-0.0292816
 11
-0.347229
 21
-0.0438538
  0
LINE
  8
0
 10
-0.347229
 20
-0.0438538
 11
-0.345093
 21
-0.0583649
  0
LINE
  8
0
 10
-0.345093
 20
-0.0583649
 11
-0.342346
 21
-0.0727539
  0
LINE
  8
0
 10
-0.342346
 20
-0.0727539
 11
-0.338989
 21
-0.0870361
  0
LINE
  8
0
 10
-0.338989
 20
-0.0870361
 11
-0.335052
 21
-0.101151
  0
LINE
  8
0
 10
-0.335052
 20
-0.101151
 11
-0.330521
 21
-0.115097
  0
LINE
  8
0
 10
-0.330521
 20
-0.115097
 11
-0.325409
 21
-0.12883
  0
LINE
  8
0
 10
-0.325409
 20
-0.12883
 11
-0.319733
 21
-0.142349
  0
LINE
  8
0
 10
-0.319733
 20
-0.142349
 11
-0.313492
 21
-0.155609
  0
LINE
  8
0
 10
-0.313492
 20
-0.155609
 11
-0.306702
 21
-0.16861
  0
LINE
  8
0
 10
-0.306702
 20
-0.16861
 11
-0.299377
 21
-0.181305
  0
LINE
  8
0
 10
-0.299377
 20
-0.181305
 11
-0.291519
 21
-0.19368
  0
LINE
  8
0
 10
-0.291519
 20
-0.19368
 11
-0.283142
 21
-0.205719
  0
LINE
  8
0
 10
-0.283142
 20
-0.205719
 11
-0.274292
 21
-0.217392
  0
LINE
  8
0
 10
-0.274292
 20
-0.217392
 11
-0.264938
 21
-0.228683
  0
LINE
  8
0
 10
-0.264938
 20
-0.228683
 11
-0.255127
 21
-0.239578
  0
LINE
  8
0
 10
-0.255127
 20
-0.239578
 11
-0.244873
 21
-0.250061
  0
LINE
  8
0
 10
-0.244873
 20
-0.250061
 11
-0.234192
 21
-0.260086
  0
LINE
  8
0
 10
-0.234192
 20
-0.260086
 11
-0.223083
 21
-0.269669
  0
LINE
  8
0
 10
-0.223083
 20
-0.269669
 11
-0.211609
 21
-0.278778
  0
LINE
  8
0
 10
-0.211609
 20
-0.278778
 11
-0.199738
 21
-0.287399
  0
LINE
  8
0
 10
-0.199738
 20
-0.287399
 11
-0.187531
 21
-0.295502
  0
LINE
  8
0
 10
-0.187531
 20
-0.295502
 11
-0.174988
 21
-0.303101
  0
LINE
  8
0
 10
-0.174988
 20
-0.303101
 11
-0.16214
 21
-0.310165
  0
LINE
  8
0
 10
-0.16214
 20
-0.310165
 11
-0.149017
 21
-0.316681
  0
LINE
  8
0
 10
-0.149017
 20
-0.316681
 11
-0.13562
 21
-0.322647
  0
LINE
  8
0
 10
-0.13562
 20
-0.322647
 11
-0.121994
 21
-0.328033
  0
LINE
  8
0
 10
-0.121994
 20
-0.328033
 11
-0.108154
 21
-0.332855
  0
LINE
  8
0
 10
-0.108154
 20
-0.332855
 11
-0.0941162
 21
-0.337097
  0
LINE
  8
0
 10
-0.0941162
 20
-0.337097
 11
-0.0799103
 21
-0.340744
  0
LINE
  8
0
 10
-0.0799103
 20
-0.340744
 11
-0.0655823
 21
-0.343796
  0
LINE
  8
0
 10
-0.0655823
 20
-0.343796
 11
-0.0511169
 21
-0.346237
  0
LINE
  8
0
 10
-0.0511169
 20
-0.346237
 11
-0.0365753
 21
-0.348068
  0
LINE
  8
0
 10
-0.0365753
 20
-0.348068
 11
-0.0219727
 21
-0.349304
  0
LINE
  8
0
 10
-0.0219727
 20
-0.349304
 11
-0.00732422
 21
-0.349915
  0
LINE
  8
0
 10
-0.00732422
 20
-0.349915
 11
5.91283
 21
-0.349915
  0
LINE
  8
0
 10
5.91283
 20
-0.349915
 11
5.92747
 21
-0.349304
  0
LINE
  8
0
 10
5.90381
 20
-0.0806885
 11
5.90044
 21
-0.0805359
  0
LINE
  8
0
 10
5.90044
 20
-0.0805359
 11
5.89706
 21
-0.0802612
  0
LINE
  8
0
 10
5.89706
 20
-0.0802612
 11
5.89371
 21
-0.079834
  0
LINE
  8
0
 10
5.89371
 20
-0.079834
 11
5.89038
 21
-0.0792694
  0
LINE
  8
0
 10
5.89038
 20
-0.0792694
 11
5.88707
 21
-0.0785675
  0
LINE
  8
0
 10
5.88707
 20
-0.0785675
 11
5.8838
 21
-0.0777283
  0
LINE
  8
0
 10
5.8838
 20
-0.0777283
 11
5.88057
 21
-0.0767517
  0
LINE
  8
0
 10
5.88057
 20
-0.0767517
 11
5.87737
 21
-0.0756378
  0
LINE
  8
0
 10
5.87737
 20
-0.0756378
 11
5.87422
 21
-0.0744019
  0
LINE
  8
0
 10
5.87422
 20
-0.0744019
 11
5.87114
 21
-0.0730133
  0
LINE
  8
0
 10
5.87114
 20
-0.0730133
 11
5.86812
 21
-0.0715179
  0
LINE
  8
0
 10
5.86812
 20
-0.0715179
 11
5.86514
 21
-0.0698853
  0
LINE
  8
0
 10
5.86514
 20
-0.0698853
 11
5.86226
 21
-0.0681305
  0
LINE
  8
0
 10
5.86226
 20
-0.0681305
 11
5.85944
 21
-0.0662689
  0
LINE
  8
0
 10
5.85944
 20
-0.0662689
 11
5.8567
 21
-0.0642853
  0
LINE
  8
0
 10
5.8567
 20
-0.0642853
 11
5.85406
 21
-0.0621796
  0
LINE
  8
0
 10
5.85406
 20
-0.0621796
 11
5.8515
 21
-0.059967
  0
LINE
  8
0
 10
5.8515
 20
-0.059967
 11
5.84903
 21
-0.057663
  0
LINE
  8
0
 10
5.84903
 20
-0.057663
 11
5.84666
 21
-0.0552368
  0
LINE
  8
0
 10
5.84666
 20
-0.0552368
 11
5.84441
 21
-0.0527344
  0
LINE
  8
0
 10
5.84441
 20
-0.0527344
 11
5.84225
 21
-0.0501251
  0
LINE
  8
0
 10
5.84225
 20
-0.0501251
 11
5.84021
 21
-0.0474243
  0
LINE
  8
0
 10
5.84021
 20
-0.0474243
 11
5.83829
 21
-0.0446625
  0
LINE
  8
0
 10
5.83829
 20
-0.0446625
 11
5.83647
 21
-0.0418091
  0
LINE
  8
0
 10
5.83647
 20
-0.0418091
 11
5.83478
 21
-0.0388794
  0
LINE
  8
0
 10
5.83478
 20
-0.0388794
 11
5.83321
 21
-0.0358734
  0
LINE
  8
0
 10
5.83321
 20
-0.0358734
 11
5.83177
 21
-0.0328217
  0
LINE
  8
0
 10
5.83177
 20
-0.0328217
 11
5.83046
 21
-0.0297089
  0
LINE
  8
0
 10
5.83046
 20
-0.0297089
 11
5.82928
 21
-0.026535
  0
LINE
  8
0
 10
5.82928
 20
-0.026535
 11
5.82825
 21
-0.0233154
  0
LINE
  8
0
 10
5.82825
 20
-0.0233154
 11
5.82733
 21
-0.0200653
  0
LINE
  8
0
 10
5.82733
 20
-0.0200653
 11
5.82655
 21
-0.0167694
  0
LINE
  8
0
 10
5.82655
 20
-0.0167694
 11
5.82593
 21
-0.0134583
  0
LINE
  8
0
 10
5.82593
 20
-0.0134583
 11
5.82542
 21
-0.0101013
  0
LINE
  8
0
 10
5.82542
 20
-0.0101013
 11
5.82507
 21
-0.00674438
  0
LINE
  8
0
 10
5.82507
 20
-0.00674438
 11
5.82486
 21
-0.00337219
  0
LINE
  8
0
 10
5.82486
 20
-0.00337219
 11
5.8248
 21
0
  0
LINE
  8
0
 10
5.8248
 20
0
 11
5.82486
 21
0.00337219
  0
LINE
  8
0
 10
5.82486
 20
0.00337219
 11
5.82507
 21
0.00674438
  0
LINE
  8
0
 10
5.82507
 20
0.00674438
 11
5.82542
 21
0.0101013
  0
LINE
  8
0
 10
5.82542
 20
0.0101013
 11
5.82593
 21
0.0134583
  0
LINE
  8
0
 10
5.82593
 20
0.0134583
 11
5.82655
 21
0.0167694
  0
LINE
  8
0
 10
5.82655
 20
0.0167694
 11
5.82733
 21
0.0200653
  0
LINE
  8
0
 10
5.82733
 20
0.0200653
 11
5.82825
 21
0.0233154
  0
LINE
  8
0
 10
5.82825
 20
0.0233154
 11
5.82928
 21
0.026535
  0
LINE
  8
0
 10
5.82928
 20
0.026535
 11
5.83046
 21
0.0297089
  0
LINE
  8
0
 10
5.83046
 20
0.0297089
 11
5.83177
 21
0.0328217
  0
LINE
  8
0
 10
5.83177
 20
0.0328217
 11
5.83321
 21
0.0358734
  0
LINE
  8
0
 10
5.83321
 20
0.0358734
 11
5.83478
 21
0.0388794
  0
LINE
  8
0
 10
5.83478
 20
0.0388794
 11
5.83647
 21
0.0418091
  0
LINE
  8
0
 10
5.83647
 20
0.0418091
 11
5.83829
 21
0.0446625
  0
LINE
  8
0
 10
5.83829
 20
0.0446625
 11
5.84021
 21
0.0474243
  0
LINE
  8
0
 10
5.84021
 20
0.0474243
 11
5.84225
 21
0.0501251
  0
LINE
  8
0
 10
5.84225
 20
0.0501251
 11
5.84441
 21
0.0527344
  0
LINE
  8
0
 10
5.84441
 20
0.0527344
 11
5.84666
 21
0.0552368
  0
LINE
  8
0
 10
5.84666
 20
0.0552368
 11
5.84903
 21
0.057663
  0
LINE
  8
0
 10
5.84903
 20
0.057663
 11
5.8515
 21
0.059967
  0
LINE
  8
0
 10
5.8515
 20
0.059967
 11
5.85406
 21
0.0621796
  0
LINE
  8
0
 10
5.85406
 20
0.0621796
 11
5.8567
 21
0.0642853
  0
LINE
  8
0
 10
5.8567
 20
0.0642853
 11
5.85944
 21
0.0662689
  0
LINE
  8
0
 10
5.85944
 20
0.0662689
 11
5.86226
 21
0.0681305
  0
LINE
  8
0
 10
5.86226
 20
0.0681305
 11
5.86514
 21
0.0698853
  0
LINE
  8
0
 10
5.86514
 20
0.0698853
 11
5.86812
 21
0.0715179
  0
LINE
  8
0
 10
5.86812
 20
0.0715179
 11
5.87114
 21
0.0730133
  0
LINE
  8
0
 10
5.87114
 20
0.0730133
 11
5.87422
 21
0.0744019
  0
LINE
  8
0
 10
5.87422
 20
0.0744019
 11
5.87737
 21
0.0756378
  0
LINE
  8
0
 10
5.87737
 20
0.0756378
 11
5.88057
 21
0.0767517
  0
LINE
  8
0
 10
5.88057
 20
0.0767517
 11
5.8838
 21
0.0777283
  0
LINE
  8
0
 10
5.8838
 20
0.0777283
 11
5.88707
 21
0.0785675
  0
LINE
  8
0
 10
5.88707
 20
0.0785675
 11
5.89038
 21
0.0792694
  0
LINE
  8
0
 10
5.89038
 20
0.0792694
 11
5.89371
 21
0.079834
  0
LINE
  8
0
 10
5.89371
 20
0.079834
 11
5.89706
 21
0.0802612
  0
LINE
  8
0
 10
5.89706
 20
0.0802612
 11
5.90044
 21
0.0805359
  0
LINE
  8
0
 10
5.90044
 20
0.0805359
 11
5.90381
 21
0.0806885
  0
LINE
  8
0
 10
5.90381
 20
0.0806885
 11
5.9072
 21
0.0806885
  0
LINE
  8
0
 10
5.9072
 20
0.0806885
 11
5.91057
 21
0.0805359
  0
LINE
  8
0
 10
5.91057
 20
0.0805359
 11
5.91394
 21
0.0802612
  0
LINE
  8
0
 10
5.91394
 20
0.0802612
 11
5.9173
 21
0.079834
  0
LINE
  8
0
 10
5.9173
 20
0.079834
 11
5.92062
 21
0.0792694
  0
LINE
  8
0
 10
5.92062
 20
0.0792694
 11
5.92393
 21
0.0785675
  0
LINE
  8
0
 10
5.92393
 20
0.0785675
 11
5.92722
 21
0.0777283
  0
LINE
  8
0
 10
5.92722
 20
0.0777283
 11
5.93045
 21
0.0767517
  0
LINE
  8
0
 10
5.93045
 20
0.0767517
 11
5.93364
 21
0.0756378
  0
LINE
  8
0
 10
5.93364
 20
0.0756378
 11
5.93678
 21
0.0744019
  0
LINE
  8
0
 10
5.93678
 20
0.0744019
 11
5.93987
 21
0.0730133
  0
LINE
  8
0
 10
5.93987
 20
0.0730133
 11
5.9429
 21
0.0715179
  0
LINE
  8
0
 10
5.9429
 20
0.0715179
 11
5.94586
 21
0.0698853
  0
LINE
  8
0
 10
5.94586
 20
0.0698853
 11
5.94875
 21
0.0681305
  0
LINE
  8
0
 10
5.94875
 20
0.0681305
 11
5.95157
 21
0.0662689
  0
LINE
  8
0
 10
5.95157
 20
0.0662689
 11
5.9543
 21
0.0642853
  0
LINE
  8
0
 10
5.9543
 20
0.0642853
 11
5.95695
 21
0.0621796
  0
LINE
  8
0
 10
5.95695
 20
0.0621796
 11
5.9595
 21
0.059967
  0
LINE
  8
0
 10
5.9595
 20
0.059967
 11
5.96198
 21
0.057663
  0
LINE
  8
0
 10
5.96198
 20
0.057663
 11
5.96434
 21
0.0552368
  0
LINE
  8
0
 10
5.96434
 20
0.0552368
 11
5.9666
 21
0.0527344
  0
LINE
  8
0
 10
5.9666
 20
0.0527344
 11
5.96875
 21
0.0501251
  0
LINE
  8
0
 10
5.96875
 20
0.0501251
 11
5.97079
 21
0.0474243
  0
LINE
  8
0
 10
5.97079
 20
0.0474243
 11
5.97273
 21
0.0446625
  0
LINE
  8
0
 10
5.97273
 20
0.0446625
 11
5.97453
 21
0.0418091
  0
LINE
  8
0
 10
5.97453
 20
0.0418091
 11
5.97623
 21
0.0388794
  0
LINE
  8
0
 10
5.97623
 20
0.0388794
 11
5.9778
 21
0.0358734
  0
LINE
  8
0
 10
5.9778
 20
0.0358734
 11
5.97923
 21
0.0328217
  0
LINE
  8
0
 10
5.97923
 20
0.0328217
 11
5.98055
 21
0.0297089
  0
LINE
  8
0
 10
5.98055
 20
0.0297089
 11
5.98172
 21
0.026535
  0
LINE
  8
0
 10
5.98172
 20
0.026535
 11
5.98277
 21
0.0233154
  0
LINE
  8
0
 10
5.98277
 20
0.0233154
 11
5.98367
 21
0.0200653
  0
LINE
  8
0
 10
5.98367
 20
0.0200653
 11
5.98445
 21
0.0167694
  0
LINE
  8
0
 10
5.98445
 20
0.0167694
 11
5.98508
 21
0.0134583
  0
LINE
  8
0
 10
5.98508
 20
0.0134583
 11
5.98558
 21
0.0101013
  0
LINE
  8
0
 10
5.98558
 20
0.0101013
 11
5.98593
 21
0.00674438
  0
LINE
  8
0
 10
5.98593
 20
0.00674438
 11
5.98615
 21
0.00337219
  0
LINE
  8
0
 10
5.98615
 20
0.00337219
 11
5.98621
 21
0
  0
LINE
  8
0
 10
5.98621
 20
0
 11
5.98615
 21
-0.00337219
  0
LINE
  8
0
 10
5.98615
 20
-0.00337219
 11
5.98593
 21
-0.00674438
  0
LINE
  8
0
 10
5.98593
 20
-0.00674438
 11
5.98558
 21
-0.0101013
  0
LINE
  8
0
 10
5.98558
 20
-0.0101013
 11
5.98508
 21
-0.0134583
  0
LINE
  8
0
 10
5.98508
 20
-0.0134583
 11
5.98445
 21
-0.0167694
  0
LINE
  8
0
 10
5.98445
 20
-0.0167694
 11
5.98367
 21
-0.0200653
  0
LINE
  8
0
 10
5.98367
 20
-0.0200653
 11
5.98277
 21
-0.0233154
  0
LINE
  8
0
 10
5.98277
 20
-0.0233154
 11
5.98172
 21
-0.026535
  0
LINE
  8
0
 10
5.98172
 20
-0.026535
 11
5.98055
 21
-0.0297089
  0
LINE
  8
0
 10
5.98055
 20
-0.0297089
 11
5.97923
 21
-0.0328217
  0
LINE
  8
0
 10
5.97923
 20
-0.0328217
 11
5.9778
 21
-0.0358734
  0
LINE
  8
0
 10
5.9778
 20
-0.0358734
 11
5.97623
 21
-0.0388794
  0
LINE
  8
0
 10
5.97623
 20
-0.0388794
 11
5.97453
 21
-0.0418091
  0
LINE
  8
0
 10
5.97453
 20
-0.0418091
 11
5.97273
 21
-0.0446625
  0
LINE
  8
0
 10
5.97273
 20
-0.0446625
 11
5.97079
 21
-0.0474243
  0
LINE
  8
0
 10
5.97079
 20
-0.0474243
 11
5.96875
 21
-0.0501251
  0
LINE
  8
0
 10
5.96875
 20
-0.0501251
 11
5.9666
 21
-0.0527344
  0
LINE
  8
0
 10
5.9666
 20
-0.0527344
 11
5.96434
 21
-0.0552368
  0
LINE
  8
0
 10
5.96434
 20
-0.0552368
 11
5.96198
 21
-0.057663
  0
LINE
  8
0
 10
5.96198
 20
-0.057663
 11
5.9595
 21
-0.059967
  0
LINE
  8
0
 10
5.9595
 20
-0.059967
 11
5.95695
 21
-0.0621796
  0
LINE
  8
0
 10
5.95695
 20
-0.0621796
 11
5.9543
 21
-0.0642853
  0
LINE
  8
0
 10
5.9543
 20
-0.0642853
 11
5.95157
 21
-0.0662689
  0
LINE
  8
0
 10
5.95157
 20
-0.0662689
 11
5.94875
 21
-0.0681305
  0
LINE
  8
0
 10
5.94875
 20
-0.0681305
 11
5.94586
 21
-0.0698853
  0
LINE
  8
0
 10
5.94586
 20
-0.0698853
 11
5.9429
 21
-0.0715179
  0
LINE
  8
0
 10
5.9429
 20
-0.0715179
 11
5.93987
 21
-0.0730133
  0
LINE
  8
0
 10
5.93987
 20
-0.0730133
 11
5.93678
 21
-0.0744019
  0
LINE
  8
0
 10
5.93678
 20
-0.0744019
 11
5.93364
 21
-0.0756378
  0
LINE
  8
0
 10
5.93364
 20
-0.0756378
 11
5.93045
 21
-0.0767517
  0
LINE
  8
0
 10
5.93045
 20
-0.0767517
 11
5.92722
 21
-0.0777283
  0
LINE
  8
0
 10
5.92722
 20
-0.0777283
 11
5.92393
 21
-0.0785675
  0
LINE
  8
0
 10
5.92393
 20
-0.0785675
 11
5.92062
 21
-0.0792694
  0
LINE
  8
0
 10
5.92062
 20
-0.0792694
 11
5.9173
 21
-0.079834
  0
LINE
  8
0
 10
5.9173
 20
-0.079834
 11
5.91394
 21
-0.0802612
  0
LINE
  8
0
 10
5.91394
 20
-0.0802612
 11
5.91057
 21
-0.0805359
  0
LINE
  8
0
 10
5.91057
 20
-0.0805359
 11
5.9072
 21
-0.0806885
  0
LINE
  8
0
 10
5.9072
 20
-0.0806885
 11
5.90381
 21
-0.0806885
  0
LINE
  8
0
 10
-0.00126648
 20
-0.0610046
 11
-0.00382996
 21
-0.0608978
  0
LINE
  8
0
 10
-0.00382996
 20
-0.0608978
 11
-0.00637817
 21
-0.0606842
  0
LINE
  8
0
 10
-0.00637817
 20
-0.0606842
 11
-0.00891113
 21
-0.0603638
  0
LINE
  8
0
 10
-0.00891113
 20
-0.0603638
 11
-0.0114288
 21
-0.0599365
  0
LINE
  8
0
 10
-0.0114288
 20
-0.0599365
 11
-0.0139313
 21
-0.0594025
  0
LINE
  8
0
 10
-0.0139313
 20
-0.0594025
 11
-0.0164032
 21
-0.0587616
  0
LINE
  8
0
 10
-0.0164032
 20
-0.0587616
 11
-0.0188446
 21
-0.0580292
  0
LINE
  8
0
 10
-0.0188446
 20
-0.0580292
 11
-0.0212708
 21
-0.0571899
  0
LINE
  8
0
 10
-0.0212708
 20
-0.0571899
 11
-0.0236359
 21
-0.0562439
  0
LINE
  8
0
 10
-0.0236359
 20
-0.0562439
 11
-0.0259705
 21
-0.0552063
  0
LINE
  8
0
 10
-0.0259705
 20
-0.0552063
 11
-0.0282593
 21
-0.0540771
  0
LINE
  8
0
 10
-0.0282593
 20
-0.0540771
 11
-0.0305023
 21
-0.0528412
  0
LINE
  8
0
 10
-0.0305023
 20
-0.0528412
 11
-0.0326843
 21
-0.0515137
  0
LINE
  8
0
 10
-0.0326843
 20
-0.0515137
 11
-0.0348206
 21
-0.0500946
  0
LINE
  8
0
 10
-0.0348206
 20
-0.0500946
 11
-0.0368805
 21
-0.0485992
  0
LINE
  8
0
 10
-0.0368805
 20
-0.0485992
 11
-0.0388947
 21
-0.0470123
  0
LINE
  8
0
 10
-0.0388947
 20
-0.0470123
 11
-0.0408325
 21
-0.0453491
  0
LINE
  8
0
 10
-0.0408325
 20
-0.0453491
 11
-0.0426941
 21
-0.0435944
  0
LINE
  8
0
 10
-0.0426941
 20
-0.0435944
 11
-0.0444794
 21
-0.0417633
  0
LINE
  8
0
 10
-0.0444794
 20
-0.0417633
 11
-0.0461884
 21
-0.0398712
  0
LINE
  8
0
 10
-0.0461884
 20
-0.0398712
 11
-0.047821
 21
-0.0379028
  0
LINE
  8
0
 10
-0.047821
 20
-0.0379028
 11
-0.0493622
 21
-0.0358582
  0
LINE
  8
0
 10
-0.0493622
 20
-0.0358582
 11
-0.050827
 21
-0.0337677
  0
LINE
  8
0
 10
-0.050827
 20
-0.0337677
 11
-0.0521851
 21
-0.031601
  0
LINE
  8
0
 10
-0.0521851
 20
-0.031601
 11
-0.0534668
 21
-0.0293884
  0
LINE
  8
0
 10
-0.0534668
 20
-0.0293884
 11
-0.054657
 21
-0.0271301
  0
LINE
  8
0
 10
-0.054657
 20
-0.0271301
 11
-0.0557404
 21
-0.0248108
  0
LINE
  8
0
 10
-0.0557404
 20
-0.0248108
 11
-0.0567322
 21
-0.0224609
  0
LINE
  8
0
 10
-0.0567322
 20
-0.0224609
 11
-0.0576172
 21
-0.0200653
  0
LINE
  8
0
 10
-0.0576172
 20
-0.0200653
 11
-0.0584106
 21
-0.0176239
  0
LINE
  8
0
 10
-0.0584106
 20
-0.0176239
 11
-0.0590973
 21
-0.0151672
  0
LINE
  8
0
 10
-0.0590973
 20
-0.0151672
 11
-0.0596771
 21
-0.0126801
  0
LINE
  8
0
 10
-0.0596771
 20
-0.0126801
 11
-0.0601654
 21
-0.0101624
  0
LINE
  8
0
 10
-0.0601654
 20
-0.0101624
 11
-0.0605316
 21
-0.00764465
  0
LINE
  8
0
 10
-0.0605316
 20
-0.00764465
 11
-0.0608063
 21
-0.00509644
  0
LINE
  8
0
 10
-0.0608063
 20
-0.00509644
 11
-0.0609589
 21
-0.00254822
  0
LINE
  8
0
 10
-0.0609589
 20
-0.00254822
 11
-0.0610199
 21
0
  0
LINE
  8
0
 10
-0.0610199
 20
0
 11
-0.0609589
 21
0.00254822
  0
LINE
  8
0
 10
-0.0609589
 20
0.00254822
 11
-0.0608063
 21
0.00509644
  0
LINE
  8
0
 10
-0.0608063
 20
0.00509644
 11
-0.0605316
 21
0.00764465
  0
LINE
  8
0
 10
-0.0605316
 20
0.00764465
 11
-0.0601654
 21
0.0101624
  0
LINE
  8
0
 10
-0.0601654
 20
0.0101624
 11
-0.0596771
 21
0.0126801
  0
LINE
  8
0
 10
-0.0596771
 20
0.0126801
 11
-0.0590973
 21
0.0151672
  0
LINE
  8
0
 10
-0.0590973
 20
0.0151672
 11
-0.0584106
 21
0.0176239
  0
LINE
  8
0
 10
-0.0584106
 20
0.0176239
 11
-0.0576172
 21
0.0200653
  0
LINE
  8
0
 10
-0.0576172
 20
0.0200653
 11
-0.0567322
 21
0.0224609
  0
LINE
  8
0
 10
-0.0567322
 20
0.0224609
 11
-0.0557404
 21
0.0248108
  0
LINE
  8
0
 10
-0.0557404
 20
0.0248108
 11
-0.054657
 21
0.0271301
  0
LINE
  8
0
 10
-0.054657
 20
0.0271301
 11
-0.0534668
 21
0.0293884
  0
LINE
  8
0
 10
-0.0534668
 20
0.0293884
 11
-0.0521851
 21
0.031601
  0
LINE
  8
0
 10
-0.0521851
 20
0.031601
 11
-0.050827
 21
0.0337677
  0
LINE
  8
0
 10
-0.050827
 20
0.0337677
 11
-0.0493622
 21
0.0358582
  0
LINE
  8
0
 10
-0.0493622
 20
0.0358582
 11
-0.047821
 21
0.0379028
  0
LINE
  8
0
 10
-0.047821
 20
0.0379028
 11
-0.0461884
 21
0.0398712
  0
LINE
  8
0
 10
-0.0461884
 20
0.0398712
 11
-0.0444794
 21
0.0417633
  0
LINE
  8
0
 10
-0.0444794
 20
0.0417633
 11
-0.0426941
 21
0.0435944
  0
LINE
  8
0
 10
-0.0426941
 20
0.0435944
 11
-0.0408325
 21
0.0453491
  0
LINE
  8
0
 10
-0.0408325
 20
0.0453491
 11
-0.0388947
 21
0.0470123
  0
LINE
  8
0
 10
-0.0388947
 20
0.0470123
 11
-0.0368805
 21
0.0485992
  0
LINE
  8
0
 10
-0.0368805
 20
0.0485992
 11
-0.0348206
 21
0.0500946
  0
LINE
  8
0
 10
-0.0348206
 20
0.0500946
 11
-0.0326843
 21
0.0515137
  0
LINE
  8
0
 10
-0.0326843
 20
0.0515137
 11
-0.0305023
 21
0.0528412
  0
LINE
  8
0
 10
-0.0305023
 20
0.0528412
 11
-0.0282593
 21
0.0540771
  0
LINE
  8
0
 10
-0.0282593
 20
0.0540771
 11
-0.0259705
 21
0.0552063
  0
LINE
  8
0
 10
-0.0259705
 20
0.0552063
 11
-0.0236359
 21
0.0562439
  0
LINE
  8
0
 10
-0.0236359
 20
0.0562439
 11
-0.0212708
 21
0.0571899
  0
LINE
  8
0
 10
-0.0212708
 20
0.0571899
 11
-0.0188446
 21
0.0580292
  0
LINE
  8
0
 10
-0.0188446
 20
0.0580292
 11
-0.0164032
 21
0.0587616
  0
LINE
  8
0
 10
-0.0164032
 20
0.0587616
 11
-0.0139313
 21
0.0594025
  0
LINE
  8
0
 10
-0.0139313
 20
0.0594025
 11
-0.0114288
 21
0.0599365
  0
LINE
  8
0
 10
-0.0114288
 20
0.0599365
 11
-0.00891113
 21
0.0603638
  0
LINE
  8
0
 10
-0.00891113
 20
0.0603638
 11
-0.00637817
 21
0.0606842
  0
LINE
  8
0
 10
-0.00637817
 20
0.0606842
 11
-0.00382996
 21
0.0608978
  0
LINE
  8
0
 10
-0.00382996
 20
0.0608978
 11
-0.00126648
 21
0.0610046
  0
LINE
  8
0
 10
-0.00126648
 20
0.0610046
 11
0.00126648
 21
0.0610046
  0
LINE
  8
0
 10
0.00126648
 20
0.0610046
 11
0.00382996
 21
0.0608978
  0
LINE
  8
0
 10
0.00382996
 20
0.0608978
 11
0.00637817
 21
0.0606842
  0
LINE
  8
0
 10
0.00637817
 20
0.0606842
 11
0.00891113
 21
0.0603638
  0
LINE
  8
0
 10
0.00891113
 20
0.0603638
 11
0.0114288
 21
0.0599365
  0
LINE
  8
0
 10
0.0114288
 20
0.0599365
 11
0.0139313
 21
0.0594025
  0
LINE
  8
0
 10
0.0139313
 20
0.0594025
 11
0.0164032
 21
0.0587616
  0
LINE
  8
0
 10
0.0164032
 20
0.0587616
 11
0.0188446
 21
0.0580292
  0
LINE
  8
0
 10
0.0188446
 20
0.0580292
 11
0.0212708
 21
0.0571899
  0
LINE
  8
0
 10
0.0212708
 20
0.0571899
 11
0.0236359
 21
0.0562439
  0
LINE
  8
0
 10
0.0236359
 20
0.0562439
 11
0.0259705
 21
0.0552063
  0
LINE
  8
0
 10
0.0259705
 20
0.0552063
 11
0.0282593
 21
0.0540771
  0
LINE
  8
0
 10
0.0282593
 20
0.0540771
 11
0.0305023
 21
0.0528412
  0
LINE
  8
0
 10
0.0305023
 20
0.0528412
 11
0.0326843
 21
0.0515137
  0
LINE
  8
0
 10
0.0326843
 20
0.0515137
 11
0.0348206
 21
0.0500946
  0
LINE
  8
0
 10
0.0348206
 20
0.0500946
 11
0.0368805
 21
0.0485992
  0
LINE
  8
0
 10
0.0368805
 20
0.0485992
 11
0.0388947
 21
0.0470123
  0
LINE
  8
0
 10
0.0388947
 20
0.0470123
 11
0.0408325
 21
0.0453491
  0
LINE
  8
0
 10
0.0408325
 20
0.0453491
 11
0.0426941
 21
0.0435944
  0
LINE
  8
0
 10
0.0426941
 20
0.0435944
 11
0.0444794
 21
0.0417633
  0
LINE
  8
0
 10
0.0444794
 20
0.0417633
 11
0.0461884
 21
0.0398712
  0
LINE
  8
0
 10
0.0461884
 20
0.0398712
 11
0.047821
 21
0.0379028
  0
LINE
  8
0
 10
0.047821
 20
0.0379028
 11
0.0493622
 21
0.0358582
  0
LINE
  8
0
 10
0.0493622
 20
0.0358582
 11
0.050827
 21
0.0337677
  0
LINE
  8
0
 10
0.050827
 20
0.0337677
 11
0.0521851
 21
0.031601
  0
LINE
  8
0
 10
0.0521851
 20
0.031601
 11
0.0534668
 21
0.0293884
  0
LINE
  8
0
 10
0.0534668
 20
0.0293884
 11
0.054657
 21
0.0271301
  0
LINE
  8
0
 10
0.054657
 20
0.0271301
 11
0.0557404
 21
0.0248108
  0
LINE
  8
0
 10
0.0557404
 20
0.0248108
 11
0.0567322
 21
0.0224609
  0
LINE
  8
0
 10
0.0567322
 20
0.0224609
 11
0.0576172
 21
0.0200653
  0
LINE
  8
0
 10
0.0576172
 20
0.0200653
 11
0.0584106
 21
0.0176239
  0
LINE
  8
0
 10
0.0584106
 20
0.0176239
 11
0.0590973
 21
0.0151672
  0
LINE
  8
0
 10
0.0590973
 20
0.0151672
 11
0.0596771
 21
0.0126801
  0
LINE
  8
0
 10
0.0596771
 20
0.0126801
 11
0.0601654
 21
0.0101624
  0
LINE
  8
0
 10
0.0601654
 20
0.0101624
 11
0.0605316
 21
0.00764465
  0
LINE
  8
0
 10
0.0605316
 20
0.00764465
 11
0.0608063
 21
0.00509644
  0
LINE
  8
0
 10
0.0608063
 20
0.00509644
 11
0.0609589
 21
0.00254822
  0
LINE
  8
0
 10
0.0609589
 20
0.00254822
 11
0.0610199
 21
0
  0
LINE
  8
0
 10
0.0610199
 20
0
 11
0.0609589
 21
-0.00254822
  0
LINE
  8
0
 10
0.0609589
 20
-0.00254822
 11
0.0608063
 21
-0.00509644
  0
LINE
  8
0
 10
0.0608063
 20
-0.00509644
 11
0.0605316
 21
-0.00764465
  0
LINE
  8
0
 10
0.0605316
 20
-0.00764465
 11
0.0601654
 21
-0.0101624
  0
LINE
  8
0
 10
0.0601654
 20
-0.0101624
 11
0.0596771
 21
-0.0126801
  0
LINE
  8
0
 10
0.0596771
 20
-0.0126801
 11
0.0590973
 21
-0.0151672
  0
LINE
  8
0
 10
0.0590973
 20
-0.0151672
 11
0.0584106
 21
-0.0176239
  0
LINE
  8
0
 10
0.0584106
 20
-0.0176239
 11
0.0576172
 21
-0.0200653
  0
LINE
  8
0
 10
0.0576172
 20
-0.0200653
 11
0.0567322
 21
-0.0224609
  0
LINE
  8
0
 10
0.0567322
 20
-0.0224609
 11
0.0557404
 21
-0.0248108
  0
LINE
  8
0
 10
0.0557404
 20
-0.0248108
 11
0.054657
 21
-0.0271301
  0
LINE
  8
0
 10
0.054657
 20
-0.0271301
 11
0.0534668
 21
-0.0293884
  0
LINE
  8
0
 10
0.0534668
 20
-0.0293884
 11
0.0521851
 21
-0.031601
  0
LINE
  8
0
 10
0.0521851
 20
-0.031601
 11
0.050827
 21
-0.0337677
  0
LINE
  8
0
 10
0.050827
 20
-0.0337677
 11
0.0493622
 21
-0.0358582
  0
LINE
  8
0
 10
0.0493622
 20
-0.0358582
 11
0.047821
 21
-0.0379028
  0
LINE
  8
0
 10
0.047821
 20
-0.0379028
 11
0.0461884
 21
-0.0398712
  0
LINE
  8
0
 10
0.0461884
 20
-0.0398712
 11
0.0444794
 21
-0.0417633
  0
LINE
  8
0
 10
0.0444794
 20
-0.0417633
 11
0.0426941
 21
-0.0435944
  0
LINE
  8
0
 10
0.0426941
 20
-0.0435944
 11
0.0408325
 21
-0.0453491
  0
LINE
  8
0
 10
0.0408325
 20
-0.0453491
 11
0.0388947
 21
-0.0470123
  0
LINE
  8
0
 10
0.0388947
 20
-0.0470123
 11
0.0368805
 21
-0.0485992
  0
LINE
  8
0
 10
0.0368805
 20
-0.0485992
 11
0.0348206
 21
-0.0500946
  0
LINE
  8
0
 10
0.0348206
 20
-0.0500946
 11
0.0326843
 21
-0.0515137
  0
LINE
  8
0
 10
0.0326843
 20
-0.0515137
 11
0.0305023
 21
-0.0528412
  0
LINE
  8
0
 10
0.0305023
 20
-0.0528412
 11
0.0282593
 21
-0.0540771
  0
LINE
  8
0
 10
0.0282593
 20
-0.0540771
 11
0.0259705
 21
-0.0552063
  0
LINE
  8
0
 10
0.0259705
 20
-0.0552063
 11
0.0236359
 21
-0.0562439
  0
LINE
  8
0
 10
0.0236359
 20
-0.0562439
 11
0.0212708
 21
-0.0571899
  0
LINE
  8
0
 10
0.0212708
 20
-0.0571899
 11
0.0188446
 21
-0.0580292
  0
LINE
  8
0
 10
0.0188446
 20
-0.0580292
 11
0.0164032
 21
-0.0587616
  0
LINE
  8
0
 10
0.0164032
 20
-0.0587616
 11
0.0139313
 21
-0.0594025
  0
LINE
  8
0
 10
0.0139313
 20
-0.0594025
 11
0.0114288
 21
-0.0599365
  0
LINE
  8
0
 10
0.0114288
 20
-0.0599365
 11
0.00891113
 21
-0.0603638
  0
LINE
  8
0
 10
0.00891113
 20
-0.0603638
 11
0.00637817
 21
-0.0606842
  0
LINE
  8
0
 10
0.00637817
 20
-0.0606842
 11
0.00382996
 21
-0.0608978
  0
LINE
  8
0
 10
0.00382996
 20
-0.0608978
 11
0.00126648
 21
-0.0610046
  0
LINE
  8
0
 10
0.00126648
 20
-0.0610046
 11
-0.00126648
 21
-0.0610046
  0
ENDSEC
  0
SECTION
  2
OBJECTS
  0
DICTIONARY
  0
ENDSEC
  0
EOF
