  0
SECTION
  2
BLOCKS
  0
ENDSEC
  0
SECTION
  2
ENTITIES
  0
LINE
  8
0
 10
2.89982
 20
-12.3644
 11
3.41491
 21
-12.2318
  0
LINE
  8
0
 10
3.41491
 20
-12.2318
 11
3.92418
 21
-12.0783
  0
LINE
  8
0
 10
3.92418
 20
-12.0783
 11
4.42686
 21
-11.9031
  0
LINE
  8
0
 10
4.42686
 20
-11.9031
 11
4.92141
 21
-11.7074
  0
LINE
  8
0
 10
4.92141
 20
-11.7074
 11
5.40703
 21
-11.4912
  0
LINE
  8
0
 10
5.40703
 20
-11.4912
 11
5.88375
 21
-11.2547
  0
LINE
  8
0
 10
5.88375
 20
-11.2547
 11
6.35
 21
-10.9982
  0
LINE
  8
0
 10
6.35
 20
-10.9982
 11
6.80462
 21
-10.7226
  0
LINE
  8
0
 10
6.80462
 20
-10.7226
 11
7.24801
 21
-10.4284
  0
LINE
  8
0
 10
7.24801
 20
-10.4284
 11
7.67821
 21
-10.1157
  0
LINE
  8
0
 10
7.67821
 20
-10.1157
 11
8.09524
 21
-9.78545
  0
LINE
  8
0
 10
8.09524
 20
-9.78545
 11
8.49793
 21
-9.4378
  0
LINE
  8
0
 10
8.49793
 20
-9.4378
 11
8.8855
 21
-9.07348
  0
LINE
  8
0
 10
8.8855
 20
-9.07348
 11
9.25757
 21
-8.69366
  0
LINE
  8
0
 10
9.25757
 20
-8.69366
 11
9.61375
 21
-8.29833
  0
LINE
  8
0
 10
9.61375
 20
-8.29833
 11
9.95288
 21
-7.88828
  0
LINE
  8
0
 10
9.95288
 20
-7.88828
 11
10.2742
 21
-7.46466
  0
LINE
  8
0
 10
10.2742
 20
-7.46466
 11
10.578
 21
-7.02787
  0
LINE
  8
0
 10
10.578
 20
-7.02787
 11
10.8629
 21
-6.57867
  0
LINE
  8
0
 10
10.8629
 20
-6.57867
 11
11.1288
 21
-6.11823
  0
LINE
  8
0
 10
11.1288
 20
-6.11823
 11
11.3753
 21
-5.64655
  0
LINE
  8
0
 10
11.3753
 20
-5.64655
 11
11.602
 21
-5.16519
  0
LINE
  8
0
 10
11.602
 20
-5.16519
 11
11.8078
 21
-4.67491
  0
LINE
  8
0
 10
11.8078
 20
-4.67491
 11
11.9935
 21
-4.17649
  0
LINE
  8
0
 10
11.9935
 20
-4.17649
 11
12.1578
 21
-3.67032
  0
LINE
  8
0
 10
12.1578
 20
-3.67032
 11
12.3008
 21
-3.15833
  0
LINE
  8
0
 10
12.3008
 20
-3.15833
 11
12.4221
 21
-2.64015
  0
LINE
  8
0
 10
12.4221
 20
-2.64015
 11
12.5221
 21
-2.1177
  0
LINE
  8
0
 10
12.5221
 20
-2.1177
 11
12.5996
 21
-1.59138
  0
LINE
  8
0
 10
12.5996
 20
-1.59138
 11
12.6554
 21
-1.06234
  0
LINE
  8
0
 10
12.6554
 20
-1.06234
 11
12.6888
 21
-0.53175
  0
LINE
  8
0
 10
12.6888
 20
-0.53175
 11
12.7
 21
0
  0
LINE
  8
0
 10
12.7
 20
0
 11
12.6888
 21
0.53175
  0
LINE
  8
0
 10
12.6888
 20
0.53175
 11
12.6554
 21
1.06234
  0
LINE
  8
0
 10
12.6554
 20
1.06234
 11
12.5996
 21
1.59138
  0
LINE
  8
0
 10
12.5996
 20
1.59138
 11
12.5221
 21
2.1177
  0
LINE
  8
0
 10
12.5221
 20
2.1177
 11
12.4221
 21
2.64015
  0
LINE
  8
0
 10
12.4221
 20
2.64015
 11
12.3008
 21
3.15833
  0
LINE
  8
0
 10
12.3008
 20
3.15833
 11
12.1578
 21
3.67032
  0
LINE
  8
0
 10
12.1578
 20
3.67032
 11
11.9935
 21
4.17649
  0
LINE
  8
0
 10
11.9935
 20
4.17649
 11
11.8078
 21
4.67491
  0
LINE
  8
0
 10
11.8078
 20
4.67491
 11
11.602
 21
5.16519
  0
LINE
  8
0
 10
11.602
 20
5.16519
 11
11.3753
 21
5.64655
  0
LINE
  8
0
 10
11.3753
 20
5.64655
 11
11.1288
 21
6.11823
  0
LINE
  8
0
 10
11.1288
 20
6.11823
 11
10.8629
 21
6.57867
  0
LINE
  8
0
 10
10.8629
 20
6.57867
 11
10.578
 21
7.02787
  0
LINE
  8
0
 10
10.578
 20
7.02787
 11
10.2742
 21
7.46466
  0
LINE
  8
0
 10
10.2742
 20
7.46466
 11
9.95288
 21
7.88828
  0
LINE
  8
0
 10
9.95288
 20
7.88828
 11
9.61375
 21
8.29833
  0
LINE
  8
0
 10
9.61375
 20
8.29833
 11
9.25757
 21
8.69366
  0
LINE
  8
0
 10
9.25757
 20
8.69366
 11
8.8855
 21
9.07348
  0
LINE
  8
0
 10
8.8855
 20
9.07348
 11
8.49793
 21
9.4378
  0
LINE
  8
0
 10
8.49793
 20
9.4378
 11
8.09524
 21
9.78545
  0
LINE
  8
0
 10
8.09524
 20
9.78545
 11
7.67821
 21
10.1157
  0
LINE
  8
0
 10
7.67821
 20
10.1157
 11
7.24801
 21
10.4284
  0
LINE
  8
0
 10
7.24801
 20
10.4284
 11
6.80462
 21
10.7226
  0
LINE
  8
0
 10
6.80462
 20
10.7226
 11
-55.5369
 21
50.8
  0
LINE
  8
0
 10
-55.5369
 20
50.8
 11
-55.5625
 21
50.8
  0
LINE
  8
0
 10
-55.5625
 20
50.8
 11
-55.5625
 21
-25.4
  0
LINE
  8
0
 10
-55.5625
 20
-25.4
 11
-55.5369
 21
-25.4
  0
LINE
  8
0
 10
-55.5369
 20
-25.4
 11
2.89982
 21
-12.3644
  0
LINE
  8
0
 10
-48.473
 20
39.9817
 11
-48.5587
 21
39.9871
  0
LINE
  8
0
 10
-48.5587
 20
39.9871
 11
-48.6443
 21
39.996
  0
LINE
  8
0
 10
-48.6443
 20
39.996
 11
-48.7292
 21
40.0084
  0
LINE
  8
0
 10
-48.7292
 20
40.0084
 11
-48.8137
 21
40.0247
  0
LINE
  8
0
 10
-48.8137
 20
40.0247
 11
-48.897
 21
40.0441
  0
LINE
  8
0
 10
-48.897
 20
40.0441
 11
-48.98
 21
40.0673
  0
LINE
  8
0
 10
-48.98
 20
40.0673
 11
-49.0613
 21
40.0937
  0
LINE
  8
0
 10
-49.0613
 20
40.0937
 11
-49.142
 21
40.1239
  0
LINE
  8
0
 10
-49.142
 20
40.1239
 11
-49.221
 21
40.1569
  0
LINE
  8
0
 10
-49.221
 20
40.1569
 11
-49.2989
 21
40.1937
  0
LINE
  8
0
 10
-49.2989
 20
40.1937
 11
-49.3749
 21
40.2332
  0
LINE
  8
0
 10
-49.3749
 20
40.2332
 11
-49.4493
 21
40.2762
  0
LINE
  8
0
 10
-49.4493
 20
40.2762
 11
-49.5218
 21
40.3223
  0
LINE
  8
0
 10
-49.5218
 20
40.3223
 11
-49.5923
 21
40.3712
  0
LINE
  8
0
 10
-49.5923
 20
40.3712
 11
-49.6605
 21
40.4231
  0
LINE
  8
0
 10
-49.6605
 20
40.4231
 11
-49.7268
 21
40.4778
  0
LINE
  8
0
 10
-49.7268
 20
40.4778
 11
-49.7908
 21
40.5355
  0
LINE
  8
0
 10
-49.7908
 20
40.5355
 11
-49.852
 21
40.5956
  0
LINE
  8
0
 10
-49.852
 20
40.5956
 11
-49.9109
 21
40.658
  0
LINE
  8
0
 10
-49.9109
 20
40.658
 11
-49.9667
 21
40.7231
  0
LINE
  8
0
 10
-49.9667
 20
40.7231
 11
-50.0202
 21
40.7905
  0
LINE
  8
0
 10
-50.0202
 20
40.7905
 11
-50.0706
 21
40.8599
  0
LINE
  8
0
 10
-50.0706
 20
40.8599
 11
-50.1183
 21
40.9312
  0
LINE
  8
0
 10
-50.1183
 20
40.9312
 11
-50.1628
 21
41.0049
  0
LINE
  8
0
 10
-50.1628
 20
41.0049
 11
-50.2039
 21
41.0801
  0
LINE
  8
0
 10
-50.2039
 20
41.0801
 11
-50.2423
 21
41.1568
  0
LINE
  8
0
 10
-50.2423
 20
41.1568
 11
-50.2772
 21
41.2355
  0
LINE
  8
0
 10
-50.2772
 20
41.2355
 11
-50.3086
 21
41.3153
  0
LINE
  8
0
 10
-50.3086
 20
41.3153
 11
-50.3368
 21
41.3963
  0
LINE
  8
0
 10
-50.3368
 20
41.3963
 11
-50.3617
 21
41.4785
  0
LINE
  8
0
 10
-50.3617
 20
41.4785
 11
-50.383
 21
41.5618
  0
LINE
  8
0
 10
-50.383
 20
41.5618
 11
-50.4008
 21
41.6455
  0
LINE
  8
0
 10
-50.4008
 20
41.6455
 11
-50.4151
 21
41.7304
  0
LINE
  8
0
 10
-50.4151
 20
41.7304
 11
-50.426
 21
41.8157
  0
LINE
  8
0
 10
-50.426
 20
41.8157
 11
-50.4334
 21
41.9009
  0
LINE
  8
0
 10
-50.4334
 20
41.9009
 11
-50.4368
 21
41.987
  0
LINE
  8
0
 10
-50.4368
 20
41.987
 11
-50.4368
 21
42.0726
  0
LINE
  8
0
 10
-50.4368
 20
42.0726
 11
-50.4334
 21
42.1587
  0
LINE
  8
0
 10
-50.4334
 20
42.1587
 11
-50.426
 21
42.2439
  0
LINE
  8
0
 10
-50.426
 20
42.2439
 11
-50.4151
 21
42.3292
  0
LINE
  8
0
 10
-50.4151
 20
42.3292
 11
-50.4008
 21
42.4141
  0
LINE
  8
0
 10
-50.4008
 20
42.4141
 11
-50.383
 21
42.4978
  0
LINE
  8
0
 10
-50.383
 20
42.4978
 11
-50.3617
 21
42.5811
  0
LINE
  8
0
 10
-50.3617
 20
42.5811
 11
-50.3368
 21
42.6633
  0
LINE
  8
0
 10
-50.3368
 20
42.6633
 11
-50.3086
 21
42.7443
  0
LINE
  8
0
 10
-50.3086
 20
42.7443
 11
-50.2772
 21
42.8241
  0
LINE
  8
0
 10
-50.2772
 20
42.8241
 11
-50.2423
 21
42.9028
  0
LINE
  8
0
 10
-50.2423
 20
42.9028
 11
-50.2039
 21
42.9795
  0
LINE
  8
0
 10
-50.2039
 20
42.9795
 11
-50.1628
 21
43.0547
  0
LINE
  8
0
 10
-50.1628
 20
43.0547
 11
-50.1183
 21
43.1284
  0
LINE
  8
0
 10
-50.1183
 20
43.1284
 11
-50.0706
 21
43.1997
  0
LINE
  8
0
 10
-50.0706
 20
43.1997
 11
-50.0202
 21
43.2691
  0
LINE
  8
0
 10
-50.0202
 20
43.2691
 11
-49.9667
 21
43.3365
  0
LINE
  8
0
 10
-49.9667
 20
43.3365
 11
-49.9109
 21
43.4016
  0
LINE
  8
0
 10
-49.9109
 20
43.4016
 11
-49.852
 21
43.464
  0
LINE
  8
0
 10
-49.852
 20
43.464
 11
-49.7908
 21
43.5241
  0
LINE
  8
0
 10
-49.7908
 20
43.5241
 11
-49.7268
 21
43.5814
  0
LINE
  8
0
 10
-49.7268
 20
43.5814
 11
-49.6605
 21
43.6365
  0
LINE
  8
0
 10
-49.6605
 20
43.6365
 11
-49.5923
 21
43.6884
  0
LINE
  8
0
 10
-49.5923
 20
43.6884
 11
-49.5218
 21
43.7373
  0
LINE
  8
0
 10
-49.5218
 20
43.7373
 11
-49.4493
 21
43.7834
  0
LINE
  8
0
 10
-49.4493
 20
43.7834
 11
-49.3749
 21
43.8264
  0
LINE
  8
0
 10
-49.3749
 20
43.8264
 11
-49.2989
 21
43.8659
  0
LINE
  8
0
 10
-49.2989
 20
43.8659
 11
-49.221
 21
43.9027
  0
LINE
  8
0
 10
-49.221
 20
43.9027
 11
-49.142
 21
43.9357
  0
LINE
  8
0
 10
-49.142
 20
43.9357
 11
-49.0613
 21
43.9659
  0
LINE
  8
0
 10
-49.0613
 20
43.9659
 11
-48.98
 21
43.9923
  0
LINE
  8
0
 10
-48.98
 20
43.9923
 11
-48.897
 21
44.0155
  0
LINE
  8
0
 10
-48.897
 20
44.0155
 11
-48.8137
 21
44.0349
  0
LINE
  8
0
 10
-48.8137
 20
44.0349
 11
-48.7292
 21
44.0512
  0
LINE
  8
0
 10
-48.7292
 20
44.0512
 11
-48.6443
 21
44.0636
  0
LINE
  8
0
 10
-48.6443
 20
44.0636
 11
-48.5587
 21
44.0725
  0
LINE
  8
0
 10
-48.5587
 20
44.0725
 11
-48.473
 21
44.0779
  0
LINE
  8
0
 10
-48.473
 20
44.0779
 11
-48.3874
 21
44.0799
  0
LINE
  8
0
 10
-48.3874
 20
44.0799
 11
-48.3013
 21
44.0779
  0
LINE
  8
0
 10
-48.3013
 20
44.0779
 11
-48.2157
 21
44.0725
  0
LINE
  8
0
 10
-48.2157
 20
44.0725
 11
-48.1304
 21
44.0636
  0
LINE
  8
0
 10
-48.1304
 20
44.0636
 11
-48.0455
 21
44.0512
  0
LINE
  8
0
 10
-48.0455
 20
44.0512
 11
-47.961
 21
44.0349
  0
LINE
  8
0
 10
-47.961
 20
44.0349
 11
-47.8773
 21
44.0155
  0
LINE
  8
0
 10
-47.8773
 20
44.0155
 11
-47.7948
 21
43.9923
  0
LINE
  8
0
 10
-47.7948
 20
43.9923
 11
-47.713
 21
43.9659
  0
LINE
  8
0
 10
-47.713
 20
43.9659
 11
-47.6328
 21
43.9357
  0
LINE
  8
0
 10
-47.6328
 20
43.9357
 11
-47.5537
 21
43.9027
  0
LINE
  8
0
 10
-47.5537
 20
43.9027
 11
-47.4758
 21
43.8659
  0
LINE
  8
0
 10
-47.4758
 20
43.8659
 11
-47.3998
 21
43.8264
  0
LINE
  8
0
 10
-47.3998
 20
43.8264
 11
-47.3254
 21
43.7834
  0
LINE
  8
0
 10
-47.3254
 20
43.7834
 11
-47.2529
 21
43.7373
  0
LINE
  8
0
 10
-47.2529
 20
43.7373
 11
-47.1824
 21
43.6884
  0
LINE
  8
0
 10
-47.1824
 20
43.6884
 11
-47.1138
 21
43.6365
  0
LINE
  8
0
 10
-47.1138
 20
43.6365
 11
-47.0479
 21
43.5814
  0
LINE
  8
0
 10
-47.0479
 20
43.5814
 11
-46.984
 21
43.5241
  0
LINE
  8
0
 10
-46.984
 20
43.5241
 11
-46.9227
 21
43.464
  0
LINE
  8
0
 10
-46.9227
 20
43.464
 11
-46.8638
 21
43.4016
  0
LINE
  8
0
 10
-46.8638
 20
43.4016
 11
-46.8076
 21
43.3365
  0
LINE
  8
0
 10
-46.8076
 20
43.3365
 11
-46.7545
 21
43.2691
  0
LINE
  8
0
 10
-46.7545
 20
43.2691
 11
-46.7041
 21
43.1997
  0
LINE
  8
0
 10
-46.7041
 20
43.1997
 11
-46.6565
 21
43.1284
  0
LINE
  8
0
 10
-46.6565
 20
43.1284
 11
-46.6119
 21
43.0547
  0
LINE
  8
0
 10
-46.6119
 20
43.0547
 11
-46.5704
 21
42.9795
  0
LINE
  8
0
 10
-46.5704
 20
42.9795
 11
-46.5324
 21
42.9028
  0
LINE
  8
0
 10
-46.5324
 20
42.9028
 11
-46.4975
 21
42.8241
  0
LINE
  8
0
 10
-46.4975
 20
42.8241
 11
-46.4658
 21
42.7443
  0
LINE
  8
0
 10
-46.4658
 20
42.7443
 11
-46.4375
 21
42.6633
  0
LINE
  8
0
 10
-46.4375
 20
42.6633
 11
-46.4127
 21
42.5811
  0
LINE
  8
0
 10
-46.4127
 20
42.5811
 11
-46.3914
 21
42.4978
  0
LINE
  8
0
 10
-46.3914
 20
42.4978
 11
-46.3735
 21
42.4141
  0
LINE
  8
0
 10
-46.3735
 20
42.4141
 11
-46.3592
 21
42.3292
  0
LINE
  8
0
 10
-46.3592
 20
42.3292
 11
-46.3487
 21
42.2439
  0
LINE
  8
0
 10
-46.3487
 20
42.2439
 11
-46.3414
 21
42.1587
  0
LINE
  8
0
 10
-46.3414
 20
42.1587
 11
-46.3379
 21
42.0726
  0
LINE
  8
0
 10
-46.3379
 20
42.0726
 11
-46.3379
 21
41.987
  0
LINE
  8
0
 10
-46.3379
 20
41.987
 11
-46.3414
 21
41.9009
  0
LINE
  8
0
 10
-46.3414
 20
41.9009
 11
-46.3487
 21
41.8157
  0
LINE
  8
0
 10
-46.3487
 20
41.8157
 11
-46.3592
 21
41.7304
  0
LINE
  8
0
 10
-46.3592
 20
41.7304
 11
-46.3735
 21
41.6455
  0
LINE
  8
0
 10
-46.3735
 20
41.6455
 11
-46.3914
 21
41.5618
  0
LINE
  8
0
 10
-46.3914
 20
41.5618
 11
-46.4127
 21
41.4785
  0
LINE
  8
0
 10
-46.4127
 20
41.4785
 11
-46.4375
 21
41.3963
  0
LINE
  8
0
 10
-46.4375
 20
41.3963
 11
-46.4658
 21
41.3153
  0
LINE
  8
0
 10
-46.4658
 20
41.3153
 11
-46.4975
 21
41.2355
  0
LINE
  8
0
 10
-46.4975
 20
41.2355
 11
-46.5324
 21
41.1568
  0
LINE
  8
0
 10
-46.5324
 20
41.1568
 11
-46.5704
 21
41.0801
  0
LINE
  8
0
 10
-46.5704
 20
41.0801
 11
-46.6119
 21
41.0049
  0
LINE
  8
0
 10
-46.6119
 20
41.0049
 11
-46.6565
 21
40.9312
  0
LINE
  8
0
 10
-46.6565
 20
40.9312
 11
-46.7041
 21
40.8599
  0
LINE
  8
0
 10
-46.7041
 20
40.8599
 11
-46.7545
 21
40.7905
  0
LINE
  8
0
 10
-46.7545
 20
40.7905
 11
-46.8076
 21
40.7231
  0
LINE
  8
0
 10
-46.8076
 20
40.7231
 11
-46.8638
 21
40.658
  0
LINE
  8
0
 10
-46.8638
 20
40.658
 11
-46.9227
 21
40.5956
  0
LINE
  8
0
 10
-46.9227
 20
40.5956
 11
-46.984
 21
40.5355
  0
LINE
  8
0
 10
-46.984
 20
40.5355
 11
-47.0479
 21
40.4778
  0
LINE
  8
0
 10
-47.0479
 20
40.4778
 11
-47.1138
 21
40.4231
  0
LINE
  8
0
 10
-47.1138
 20
40.4231
 11
-47.1824
 21
40.3712
  0
LINE
  8
0
 10
-47.1824
 20
40.3712
 11
-47.2529
 21
40.3223
  0
LINE
  8
0
 10
-47.2529
 20
40.3223
 11
-47.3254
 21
40.2762
  0
LINE
  8
0
 10
-47.3254
 20
40.2762
 11
-47.3998
 21
40.2332
  0
LINE
  8
0
 10
-47.3998
 20
40.2332
 11
-47.4758
 21
40.1937
  0
LINE
  8
0
 10
-47.4758
 20
40.1937
 11
-47.5537
 21
40.1569
  0
LINE
  8
0
 10
-47.5537
 20
40.1569
 11
-47.6328
 21
40.1239
  0
LINE
  8
0
 10
-47.6328
 20
40.1239
 11
-47.713
 21
40.0937
  0
LINE
  8
0
 10
-47.713
 20
40.0937
 11
-47.7948
 21
40.0673
  0
LINE
  8
0
 10
-47.7948
 20
40.0673
 11
-47.8773
 21
40.0441
  0
LINE
  8
0
 10
-47.8773
 20
40.0441
 11
-47.961
 21
40.0247
  0
LINE
  8
0
 10
-47.961
 20
40.0247
 11
-48.0455
 21
40.0084
  0
LINE
  8
0
 10
-48.0455
 20
40.0084
 11
-48.1304
 21
39.996
  0
LINE
  8
0
 10
-48.1304
 20
39.996
 11
-48.2157
 21
39.9871
  0
LINE
  8
0
 10
-48.2157
 20
39.9871
 11
-48.3013
 21
39.9817
  0
LINE
  8
0
 10
-48.3013
 20
39.9817
 11
-48.3874
 21
39.9797
  0
LINE
  8
0
 10
-48.3874
 20
39.9797
 11
-48.473
 21
39.9817
  0
LINE
  8
0
 10
-48.473
 20
23.9815
 11
-48.5587
 21
23.9869
  0
LINE
  8
0
 10
-48.5587
 20
23.9869
 11
-48.6443
 21
23.9958
  0
LINE
  8
0
 10
-48.6443
 20
23.9958
 11
-48.7292
 21
24.0086
  0
LINE
  8
0
 10
-48.7292
 20
24.0086
 11
-48.8137
 21
24.0245
  0
LINE
  8
0
 10
-48.8137
 20
24.0245
 11
-48.897
 21
24.0443
  0
LINE
  8
0
 10
-48.897
 20
24.0443
 11
-48.98
 21
24.0671
  0
LINE
  8
0
 10
-48.98
 20
24.0671
 11
-49.0613
 21
24.0939
  0
LINE
  8
0
 10
-49.0613
 20
24.0939
 11
-49.142
 21
24.1237
  0
LINE
  8
0
 10
-49.142
 20
24.1237
 11
-49.221
 21
24.1571
  0
LINE
  8
0
 10
-49.221
 20
24.1571
 11
-49.2989
 21
24.1935
  0
LINE
  8
0
 10
-49.2989
 20
24.1935
 11
-49.3749
 21
24.2334
  0
LINE
  8
0
 10
-49.3749
 20
24.2334
 11
-49.4493
 21
24.2764
  0
LINE
  8
0
 10
-49.4493
 20
24.2764
 11
-49.5218
 21
24.3222
  0
LINE
  8
0
 10
-49.5218
 20
24.3222
 11
-49.5923
 21
24.3714
  0
LINE
  8
0
 10
-49.5923
 20
24.3714
 11
-49.6605
 21
24.4233
  0
LINE
  8
0
 10
-49.6605
 20
24.4233
 11
-49.7268
 21
24.478
  0
LINE
  8
0
 10
-49.7268
 20
24.478
 11
-49.7908
 21
24.5353
  0
LINE
  8
0
 10
-49.7908
 20
24.5353
 11
-49.852
 21
24.5954
  0
LINE
  8
0
 10
-49.852
 20
24.5954
 11
-49.9109
 21
24.6582
  0
LINE
  8
0
 10
-49.9109
 20
24.6582
 11
-49.9667
 21
24.7229
  0
LINE
  8
0
 10
-49.9667
 20
24.7229
 11
-50.0202
 21
24.7903
  0
LINE
  8
0
 10
-50.0202
 20
24.7903
 11
-50.0706
 21
24.8597
  0
LINE
  8
0
 10
-50.0706
 20
24.8597
 11
-50.1183
 21
24.9314
  0
LINE
  8
0
 10
-50.1183
 20
24.9314
 11
-50.1628
 21
25.0047
  0
LINE
  8
0
 10
-50.1628
 20
25.0047
 11
-50.2039
 21
25.0799
  0
LINE
  8
0
 10
-50.2039
 20
25.0799
 11
-50.2423
 21
25.157
  0
LINE
  8
0
 10
-50.2423
 20
25.157
 11
-50.2772
 21
25.2353
  0
LINE
  8
0
 10
-50.2772
 20
25.2353
 11
-50.3086
 21
25.3151
  0
LINE
  8
0
 10
-50.3086
 20
25.3151
 11
-50.3368
 21
25.3961
  0
LINE
  8
0
 10
-50.3368
 20
25.3961
 11
-50.3617
 21
25.4787
  0
LINE
  8
0
 10
-50.3617
 20
25.4787
 11
-50.383
 21
25.5616
  0
LINE
  8
0
 10
-50.383
 20
25.5616
 11
-50.4008
 21
25.6457
  0
LINE
  8
0
 10
-50.4008
 20
25.6457
 11
-50.4151
 21
25.7302
  0
LINE
  8
0
 10
-50.4151
 20
25.7302
 11
-50.426
 21
25.8155
  0
LINE
  8
0
 10
-50.426
 20
25.8155
 11
-50.4334
 21
25.9011
  0
LINE
  8
0
 10
-50.4334
 20
25.9011
 11
-50.4368
 21
25.9868
  0
LINE
  8
0
 10
-50.4368
 20
25.9868
 11
-50.4368
 21
26.0728
  0
LINE
  8
0
 10
-50.4368
 20
26.0728
 11
-50.4334
 21
26.1585
  0
LINE
  8
0
 10
-50.4334
 20
26.1585
 11
-50.426
 21
26.2441
  0
LINE
  8
0
 10
-50.426
 20
26.2441
 11
-50.4151
 21
26.3294
  0
LINE
  8
0
 10
-50.4151
 20
26.3294
 11
-50.4008
 21
26.4139
  0
LINE
  8
0
 10
-50.4008
 20
26.4139
 11
-50.383
 21
26.498
  0
LINE
  8
0
 10
-50.383
 20
26.498
 11
-50.3617
 21
26.5809
  0
LINE
  8
0
 10
-50.3617
 20
26.5809
 11
-50.3368
 21
26.6631
  0
LINE
  8
0
 10
-50.3368
 20
26.6631
 11
-50.3086
 21
26.7445
  0
LINE
  8
0
 10
-50.3086
 20
26.7445
 11
-50.2772
 21
26.8243
  0
LINE
  8
0
 10
-50.2772
 20
26.8243
 11
-50.2423
 21
26.9026
  0
LINE
  8
0
 10
-50.2423
 20
26.9026
 11
-50.2039
 21
26.9797
  0
LINE
  8
0
 10
-50.2039
 20
26.9797
 11
-50.1628
 21
27.0549
  0
LINE
  8
0
 10
-50.1628
 20
27.0549
 11
-50.1183
 21
27.1282
  0
LINE
  8
0
 10
-50.1183
 20
27.1282
 11
-50.0706
 21
27.1999
  0
LINE
  8
0
 10
-50.0706
 20
27.1999
 11
-50.0202
 21
27.2693
  0
LINE
  8
0
 10
-50.0202
 20
27.2693
 11
-49.9667
 21
27.3367
  0
LINE
  8
0
 10
-49.9667
 20
27.3367
 11
-49.9109
 21
27.4014
  0
LINE
  8
0
 10
-49.9109
 20
27.4014
 11
-49.852
 21
27.4642
  0
LINE
  8
0
 10
-49.852
 20
27.4642
 11
-49.7908
 21
27.5243
  0
LINE
  8
0
 10
-49.7908
 20
27.5243
 11
-49.7268
 21
27.5816
  0
LINE
  8
0
 10
-49.7268
 20
27.5816
 11
-49.6605
 21
27.6363
  0
LINE
  8
0
 10
-49.6605
 20
27.6363
 11
-49.5923
 21
27.6882
  0
LINE
  8
0
 10
-49.5923
 20
27.6882
 11
-49.5218
 21
27.7375
  0
LINE
  8
0
 10
-49.5218
 20
27.7375
 11
-49.4493
 21
27.7832
  0
LINE
  8
0
 10
-49.4493
 20
27.7832
 11
-49.3749
 21
27.8262
  0
LINE
  8
0
 10
-49.3749
 20
27.8262
 11
-49.2989
 21
27.8661
  0
LINE
  8
0
 10
-49.2989
 20
27.8661
 11
-49.221
 21
27.9026
  0
LINE
  8
0
 10
-49.221
 20
27.9026
 11
-49.142
 21
27.9359
  0
LINE
  8
0
 10
-49.142
 20
27.9359
 11
-49.0613
 21
27.9657
  0
LINE
  8
0
 10
-49.0613
 20
27.9657
 11
-48.98
 21
27.9925
  0
LINE
  8
0
 10
-48.98
 20
27.9925
 11
-48.897
 21
28.0153
  0
LINE
  8
0
 10
-48.897
 20
28.0153
 11
-48.8137
 21
28.0351
  0
LINE
  8
0
 10
-48.8137
 20
28.0351
 11
-48.7292
 21
28.051
  0
LINE
  8
0
 10
-48.7292
 20
28.051
 11
-48.6443
 21
28.0638
  0
LINE
  8
0
 10
-48.6443
 20
28.0638
 11
-48.5587
 21
28.0727
  0
LINE
  8
0
 10
-48.5587
 20
28.0727
 11
-48.473
 21
28.0781
  0
LINE
  8
0
 10
-48.473
 20
28.0781
 11
-48.3874
 21
28.0797
  0
LINE
  8
0
 10
-48.3874
 20
28.0797
 11
-48.3013
 21
28.0781
  0
LINE
  8
0
 10
-48.3013
 20
28.0781
 11
-48.2157
 21
28.0727
  0
LINE
  8
0
 10
-48.2157
 20
28.0727
 11
-48.1304
 21
28.0638
  0
LINE
  8
0
 10
-48.1304
 20
28.0638
 11
-48.0455
 21
28.051
  0
LINE
  8
0
 10
-48.0455
 20
28.051
 11
-47.961
 21
28.0351
  0
LINE
  8
0
 10
-47.961
 20
28.0351
 11
-47.8773
 21
28.0153
  0
LINE
  8
0
 10
-47.8773
 20
28.0153
 11
-47.7948
 21
27.9925
  0
LINE
  8
0
 10
-47.7948
 20
27.9925
 11
-47.713
 21
27.9657
  0
LINE
  8
0
 10
-47.713
 20
27.9657
 11
-47.6328
 21
27.9359
  0
LINE
  8
0
 10
-47.6328
 20
27.9359
 11
-47.5537
 21
27.9026
  0
LINE
  8
0
 10
-47.5537
 20
27.9026
 11
-47.4758
 21
27.8661
  0
LINE
  8
0
 10
-47.4758
 20
27.8661
 11
-47.3998
 21
27.8262
  0
LINE
  8
0
 10
-47.3998
 20
27.8262
 11
-47.3254
 21
27.7832
  0
LINE
  8
0
 10
-47.3254
 20
27.7832
 11
-47.2529
 21
27.7375
  0
LINE
  8
0
 10
-47.2529
 20
27.7375
 11
-47.1824
 21
27.6882
  0
LINE
  8
0
 10
-47.1824
 20
27.6882
 11
-47.1138
 21
27.6363
  0
LINE
  8
0
 10
-47.1138
 20
27.6363
 11
-47.0479
 21
27.5816
  0
LINE
  8
0
 10
-47.0479
 20
27.5816
 11
-46.984
 21
27.5243
  0
LINE
  8
0
 10
-46.984
 20
27.5243
 11
-46.9227
 21
27.4642
  0
LINE
  8
0
 10
-46.9227
 20
27.4642
 11
-46.8638
 21
27.4014
  0
LINE
  8
0
 10
-46.8638
 20
27.4014
 11
-46.8076
 21
27.3367
  0
LINE
  8
0
 10
-46.8076
 20
27.3367
 11
-46.7545
 21
27.2693
  0
LINE
  8
0
 10
-46.7545
 20
27.2693
 11
-46.7041
 21
27.1999
  0
LINE
  8
0
 10
-46.7041
 20
27.1999
 11
-46.6565
 21
27.1282
  0
LINE
  8
0
 10
-46.6565
 20
27.1282
 11
-46.6119
 21
27.0549
  0
LINE
  8
0
 10
-46.6119
 20
27.0549
 11
-46.5704
 21
26.9797
  0
LINE
  8
0
 10
-46.5704
 20
26.9797
 11
-46.5324
 21
26.9026
  0
LINE
  8
0
 10
-46.5324
 20
26.9026
 11
-46.4975
 21
26.8243
  0
LINE
  8
0
 10
-46.4975
 20
26.8243
 11
-46.4658
 21
26.7445
  0
LINE
  8
0
 10
-46.4658
 20
26.7445
 11
-46.4375
 21
26.6631
  0
LINE
  8
0
 10
-46.4375
 20
26.6631
 11
-46.4127
 21
26.5809
  0
LINE
  8
0
 10
-46.4127
 20
26.5809
 11
-46.3914
 21
26.498
  0
LINE
  8
0
 10
-46.3914
 20
26.498
 11
-46.3735
 21
26.4139
  0
LINE
  8
0
 10
-46.3735
 20
26.4139
 11
-46.3592
 21
26.3294
  0
LINE
  8
0
 10
-46.3592
 20
26.3294
 11
-46.3487
 21
26.2441
  0
LINE
  8
0
 10
-46.3487
 20
26.2441
 11
-46.3414
 21
26.1585
  0
LINE
  8
0
 10
-46.3414
 20
26.1585
 11
-46.3379
 21
26.0728
  0
LINE
  8
0
 10
-46.3379
 20
26.0728
 11
-46.3379
 21
25.9868
  0
LINE
  8
0
 10
-46.3379
 20
25.9868
 11
-46.3414
 21
25.9011
  0
LINE
  8
0
 10
-46.3414
 20
25.9011
 11
-46.3487
 21
25.8155
  0
LINE
  8
0
 10
-46.3487
 20
25.8155
 11
-46.3592
 21
25.7302
  0
LINE
  8
0
 10
-46.3592
 20
25.7302
 11
-46.3735
 21
25.6457
  0
LINE
  8
0
 10
-46.3735
 20
25.6457
 11
-46.3914
 21
25.5616
  0
LINE
  8
0
 10
-46.3914
 20
25.5616
 11
-46.4127
 21
25.4787
  0
LINE
  8
0
 10
-46.4127
 20
25.4787
 11
-46.4375
 21
25.3961
  0
LINE
  8
0
 10
-46.4375
 20
25.3961
 11
-46.4658
 21
25.3151
  0
LINE
  8
0
 10
-46.4658
 20
25.3151
 11
-46.4975
 21
25.2353
  0
LINE
  8
0
 10
-46.4975
 20
25.2353
 11
-46.5324
 21
25.157
  0
LINE
  8
0
 10
-46.5324
 20
25.157
 11
-46.5704
 21
25.0799
  0
LINE
  8
0
 10
-46.5704
 20
25.0799
 11
-46.6119
 21
25.0047
  0
LINE
  8
0
 10
-46.6119
 20
25.0047
 11
-46.6565
 21
24.9314
  0
LINE
  8
0
 10
-46.6565
 20
24.9314
 11
-46.7041
 21
24.8597
  0
LINE
  8
0
 10
-46.7041
 20
24.8597
 11
-46.7545
 21
24.7903
  0
LINE
  8
0
 10
-46.7545
 20
24.7903
 11
-46.8076
 21
24.7229
  0
LINE
  8
0
 10
-46.8076
 20
24.7229
 11
-46.8638
 21
24.6582
  0
LINE
  8
0
 10
-46.8638
 20
24.6582
 11
-46.9227
 21
24.5954
  0
LINE
  8
0
 10
-46.9227
 20
24.5954
 11
-46.984
 21
24.5353
  0
LINE
  8
0
 10
-46.984
 20
24.5353
 11
-47.0479
 21
24.478
  0
LINE
  8
0
 10
-47.0479
 20
24.478
 11
-47.1138
 21
24.4233
  0
LINE
  8
0
 10
-47.1138
 20
24.4233
 11
-47.1824
 21
24.3714
  0
LINE
  8
0
 10
-47.1824
 20
24.3714
 11
-47.2529
 21
24.3222
  0
LINE
  8
0
 10
-47.2529
 20
24.3222
 11
-47.3254
 21
24.2764
  0
LINE
  8
0
 10
-47.3254
 20
24.2764
 11
-47.3998
 21
24.2334
  0
LINE
  8
0
 10
-47.3998
 20
24.2334
 11
-47.4758
 21
24.1935
  0
LINE
  8
0
 10
-47.4758
 20
24.1935
 11
-47.5537
 21
24.1571
  0
LINE
  8
0
 10
-47.5537
 20
24.1571
 11
-47.6328
 21
24.1237
  0
LINE
  8
0
 10
-47.6328
 20
24.1237
 11
-47.713
 21
24.0939
  0
LINE
  8
0
 10
-47.713
 20
24.0939
 11
-47.7948
 21
24.0671
  0
LINE
  8
0
 10
-47.7948
 20
24.0671
 11
-47.8773
 21
24.0443
  0
LINE
  8
0
 10
-47.8773
 20
24.0443
 11
-47.961
 21
24.0245
  0
LINE
  8
0
 10
-47.961
 20
24.0245
 11
-48.0455
 21
24.0086
  0
LINE
  8
0
 10
-48.0455
 20
24.0086
 11
-48.1304
 21
23.9958
  0
LINE
  8
0
 10
-48.1304
 20
23.9958
 11
-48.2157
 21
23.9869
  0
LINE
  8
0
 10
-48.2157
 20
23.9869
 11
-48.3013
 21
23.9815
  0
LINE
  8
0
 10
-48.3013
 20
23.9815
 11
-48.3874
 21
23.9799
  0
LINE
  8
0
 10
-48.3874
 20
23.9799
 11
-48.473
 21
23.9815
  0
LINE
  8
0
 10
-48.473
 20
7.98168
 11
-48.5587
 21
7.98711
  0
LINE
  8
0
 10
-48.5587
 20
7.98711
 11
-48.6443
 21
7.99602
  0
LINE
  8
0
 10
-48.6443
 20
7.99602
 11
-48.7292
 21
8.00843
  0
LINE
  8
0
 10
-48.7292
 20
8.00843
 11
-48.8137
 21
8.0247
  0
LINE
  8
0
 10
-48.8137
 20
8.0247
 11
-48.897
 21
8.04408
  0
LINE
  8
0
 10
-48.897
 20
8.04408
 11
-48.98
 21
8.06734
  0
LINE
  8
0
 10
-48.98
 20
8.06734
 11
-49.0613
 21
8.09369
  0
LINE
  8
0
 10
-49.0613
 20
8.09369
 11
-49.142
 21
8.12392
  0
LINE
  8
0
 10
-49.142
 20
8.12392
 11
-49.221
 21
8.15687
  0
LINE
  8
0
 10
-49.221
 20
8.15687
 11
-49.2989
 21
8.19369
  0
LINE
  8
0
 10
-49.2989
 20
8.19369
 11
-49.3749
 21
8.23322
  0
LINE
  8
0
 10
-49.3749
 20
8.23322
 11
-49.4493
 21
8.27624
  0
LINE
  8
0
 10
-49.4493
 20
8.27624
 11
-49.5218
 21
8.32236
  0
LINE
  8
0
 10
-49.5218
 20
8.32236
 11
-49.5923
 21
8.37119
  0
LINE
  8
0
 10
-49.5923
 20
8.37119
 11
-49.6605
 21
8.42313
  0
LINE
  8
0
 10
-49.6605
 20
8.42313
 11
-49.7268
 21
8.47778
  0
LINE
  8
0
 10
-49.7268
 20
8.47778
 11
-49.7908
 21
8.53553
  0
LINE
  8
0
 10
-49.7908
 20
8.53553
 11
-49.852
 21
8.5956
  0
LINE
  8
0
 10
-49.852
 20
8.5956
 11
-49.9109
 21
8.658
  0
LINE
  8
0
 10
-49.9109
 20
8.658
 11
-49.9667
 21
8.72311
  0
LINE
  8
0
 10
-49.9667
 20
8.72311
 11
-50.0202
 21
8.79055
  0
LINE
  8
0
 10
-50.0202
 20
8.79055
 11
-50.0706
 21
8.85992
  0
LINE
  8
0
 10
-50.0706
 20
8.85992
 11
-50.1183
 21
8.93124
  0
LINE
  8
0
 10
-50.1183
 20
8.93124
 11
-50.1628
 21
9.00488
  0
LINE
  8
0
 10
-50.1628
 20
9.00488
 11
-50.2039
 21
9.08007
  0
LINE
  8
0
 10
-50.2039
 20
9.08007
 11
-50.2423
 21
9.15681
  0
LINE
  8
0
 10
-50.2423
 20
9.15681
 11
-50.2772
 21
9.23548
  0
LINE
  8
0
 10
-50.2772
 20
9.23548
 11
-50.3086
 21
9.31532
  0
LINE
  8
0
 10
-50.3086
 20
9.31532
 11
-50.3368
 21
9.39633
  0
LINE
  8
0
 10
-50.3368
 20
9.39633
 11
-50.3617
 21
9.47849
  0
LINE
  8
0
 10
-50.3617
 20
9.47849
 11
-50.383
 21
9.56182
  0
LINE
  8
0
 10
-50.383
 20
9.56182
 11
-50.4008
 21
9.64554
  0
LINE
  8
0
 10
-50.4008
 20
9.64554
 11
-50.4151
 21
9.73041
  0
LINE
  8
0
 10
-50.4151
 20
9.73041
 11
-50.426
 21
9.81568
  0
LINE
  8
0
 10
-50.426
 20
9.81568
 11
-50.4334
 21
9.90095
  0
LINE
  8
0
 10
-50.4334
 20
9.90095
 11
-50.4368
 21
9.98699
  0
LINE
  8
0
 10
-50.4368
 20
9.98699
 11
-50.4368
 21
10.0726
  0
LINE
  8
0
 10
-50.4368
 20
10.0726
 11
-50.4334
 21
10.1587
  0
LINE
  8
0
 10
-50.4334
 20
10.1587
 11
-50.426
 21
10.2439
  0
LINE
  8
0
 10
-50.426
 20
10.2439
 11
-50.4151
 21
10.3292
  0
LINE
  8
0
 10
-50.4151
 20
10.3292
 11
-50.4008
 21
10.4141
  0
LINE
  8
0
 10
-50.4008
 20
10.4141
 11
-50.383
 21
10.4978
  0
LINE
  8
0
 10
-50.383
 20
10.4978
 11
-50.3617
 21
10.5811
  0
LINE
  8
0
 10
-50.3617
 20
10.5811
 11
-50.3368
 21
10.6633
  0
LINE
  8
0
 10
-50.3368
 20
10.6633
 11
-50.3086
 21
10.7443
  0
LINE
  8
0
 10
-50.3086
 20
10.7443
 11
-50.2772
 21
10.8241
  0
LINE
  8
0
 10
-50.2772
 20
10.8241
 11
-50.2423
 21
10.9028
  0
LINE
  8
0
 10
-50.2423
 20
10.9028
 11
-50.2039
 21
10.9796
  0
LINE
  8
0
 10
-50.2039
 20
10.9796
 11
-50.1628
 21
11.0548
  0
LINE
  8
0
 10
-50.1628
 20
11.0548
 11
-50.1183
 21
11.1284
  0
LINE
  8
0
 10
-50.1183
 20
11.1284
 11
-50.0706
 21
11.1997
  0
LINE
  8
0
 10
-50.0706
 20
11.1997
 11
-50.0202
 21
11.2691
  0
LINE
  8
0
 10
-50.0202
 20
11.2691
 11
-49.9667
 21
11.3365
  0
LINE
  8
0
 10
-49.9667
 20
11.3365
 11
-49.9109
 21
11.4016
  0
LINE
  8
0
 10
-49.9109
 20
11.4016
 11
-49.852
 21
11.464
  0
LINE
  8
0
 10
-49.852
 20
11.464
 11
-49.7908
 21
11.5241
  0
LINE
  8
0
 10
-49.7908
 20
11.5241
 11
-49.7268
 21
11.5815
  0
LINE
  8
0
 10
-49.7268
 20
11.5815
 11
-49.6605
 21
11.6365
  0
LINE
  8
0
 10
-49.6605
 20
11.6365
 11
-49.5923
 21
11.6884
  0
LINE
  8
0
 10
-49.5923
 20
11.6884
 11
-49.5218
 21
11.7373
  0
LINE
  8
0
 10
-49.5218
 20
11.7373
 11
-49.4493
 21
11.7834
  0
LINE
  8
0
 10
-49.4493
 20
11.7834
 11
-49.3749
 21
11.8264
  0
LINE
  8
0
 10
-49.3749
 20
11.8264
 11
-49.2989
 21
11.8659
  0
LINE
  8
0
 10
-49.2989
 20
11.8659
 11
-49.221
 21
11.9028
  0
LINE
  8
0
 10
-49.221
 20
11.9028
 11
-49.142
 21
11.9357
  0
LINE
  8
0
 10
-49.142
 20
11.9357
 11
-49.0613
 21
11.9659
  0
LINE
  8
0
 10
-49.0613
 20
11.9659
 11
-48.98
 21
11.9923
  0
LINE
  8
0
 10
-48.98
 20
11.9923
 11
-48.897
 21
12.0155
  0
LINE
  8
0
 10
-48.897
 20
12.0155
 11
-48.8137
 21
12.0349
  0
LINE
  8
0
 10
-48.8137
 20
12.0349
 11
-48.7292
 21
12.0512
  0
LINE
  8
0
 10
-48.7292
 20
12.0512
 11
-48.6443
 21
12.0636
  0
LINE
  8
0
 10
-48.6443
 20
12.0636
 11
-48.5587
 21
12.0725
  0
LINE
  8
0
 10
-48.5587
 20
12.0725
 11
-48.473
 21
12.0779
  0
LINE
  8
0
 10
-48.473
 20
12.0779
 11
-48.3874
 21
12.0799
  0
LINE
  8
0
 10
-48.3874
 20
12.0799
 11
-48.3013
 21
12.0779
  0
LINE
  8
0
 10
-48.3013
 20
12.0779
 11
-48.2157
 21
12.0725
  0
LINE
  8
0
 10
-48.2157
 20
12.0725
 11
-48.1304
 21
12.0636
  0
LINE
  8
0
 10
-48.1304
 20
12.0636
 11
-48.0455
 21
12.0512
  0
LINE
  8
0
 10
-48.0455
 20
12.0512
 11
-47.961
 21
12.0349
  0
LINE
  8
0
 10
-47.961
 20
12.0349
 11
-47.8773
 21
12.0155
  0
LINE
  8
0
 10
-47.8773
 20
12.0155
 11
-47.7948
 21
11.9923
  0
LINE
  8
0
 10
-47.7948
 20
11.9923
 11
-47.713
 21
11.9659
  0
LINE
  8
0
 10
-47.713
 20
11.9659
 11
-47.6328
 21
11.9357
  0
LINE
  8
0
 10
-47.6328
 20
11.9357
 11
-47.5537
 21
11.9028
  0
LINE
  8
0
 10
-47.5537
 20
11.9028
 11
-47.4758
 21
11.8659
  0
LINE
  8
0
 10
-47.4758
 20
11.8659
 11
-47.3998
 21
11.8264
  0
LINE
  8
0
 10
-47.3998
 20
11.8264
 11
-47.3254
 21
11.7834
  0
LINE
  8
0
 10
-47.3254
 20
11.7834
 11
-47.2529
 21
11.7373
  0
LINE
  8
0
 10
-47.2529
 20
11.7373
 11
-47.1824
 21
11.6884
  0
LINE
  8
0
 10
-47.1824
 20
11.6884
 11
-47.1138
 21
11.6365
  0
LINE
  8
0
 10
-47.1138
 20
11.6365
 11
-47.0479
 21
11.5815
  0
LINE
  8
0
 10
-47.0479
 20
11.5815
 11
-46.984
 21
11.5241
  0
LINE
  8
0
 10
-46.984
 20
11.5241
 11
-46.9227
 21
11.464
  0
LINE
  8
0
 10
-46.9227
 20
11.464
 11
-46.8638
 21
11.4016
  0
LINE
  8
0
 10
-46.8638
 20
11.4016
 11
-46.8076
 21
11.3365
  0
LINE
  8
0
 10
-46.8076
 20
11.3365
 11
-46.7545
 21
11.2691
  0
LINE
  8
0
 10
-46.7545
 20
11.2691
 11
-46.7041
 21
11.1997
  0
LINE
  8
0
 10
-46.7041
 20
11.1997
 11
-46.6565
 21
11.1284
  0
LINE
  8
0
 10
-46.6565
 20
11.1284
 11
-46.6119
 21
11.0548
  0
LINE
  8
0
 10
-46.6119
 20
11.0548
 11
-46.5704
 21
10.9796
  0
LINE
  8
0
 10
-46.5704
 20
10.9796
 11
-46.5324
 21
10.9028
  0
LINE
  8
0
 10
-46.5324
 20
10.9028
 11
-46.4975
 21
10.8241
  0
LINE
  8
0
 10
-46.4975
 20
10.8241
 11
-46.4658
 21
10.7443
  0
LINE
  8
0
 10
-46.4658
 20
10.7443
 11
-46.4375
 21
10.6633
  0
LINE
  8
0
 10
-46.4375
 20
10.6633
 11
-46.4127
 21
10.5811
  0
LINE
  8
0
 10
-46.4127
 20
10.5811
 11
-46.3914
 21
10.4978
  0
LINE
  8
0
 10
-46.3914
 20
10.4978
 11
-46.3735
 21
10.4141
  0
LINE
  8
0
 10
-46.3735
 20
10.4141
 11
-46.3592
 21
10.3292
  0
LINE
  8
0
 10
-46.3592
 20
10.3292
 11
-46.3487
 21
10.2439
  0
LINE
  8
0
 10
-46.3487
 20
10.2439
 11
-46.3414
 21
10.1587
  0
LINE
  8
0
 10
-46.3414
 20
10.1587
 11
-46.3379
 21
10.0726
  0
LINE
  8
0
 10
-46.3379
 20
10.0726
 11
-46.3379
 21
9.98699
  0
LINE
  8
0
 10
-46.3379
 20
9.98699
 11
-46.3414
 21
9.90095
  0
LINE
  8
0
 10
-46.3414
 20
9.90095
 11
-46.3487
 21
9.81568
  0
LINE
  8
0
 10
-46.3487
 20
9.81568
 11
-46.3592
 21
9.73041
  0
LINE
  8
0
 10
-46.3592
 20
9.73041
 11
-46.3735
 21
9.64554
  0
LINE
  8
0
 10
-46.3735
 20
9.64554
 11
-46.3914
 21
9.56182
  0
LINE
  8
0
 10
-46.3914
 20
9.56182
 11
-46.4127
 21
9.47849
  0
LINE
  8
0
 10
-46.4127
 20
9.47849
 11
-46.4375
 21
9.39633
  0
LINE
  8
0
 10
-46.4375
 20
9.39633
 11
-46.4658
 21
9.31532
  0
LINE
  8
0
 10
-46.4658
 20
9.31532
 11
-46.4975
 21
9.23548
  0
LINE
  8
0
 10
-46.4975
 20
9.23548
 11
-46.5324
 21
9.15681
  0
LINE
  8
0
 10
-46.5324
 20
9.15681
 11
-46.5704
 21
9.08007
  0
LINE
  8
0
 10
-46.5704
 20
9.08007
 11
-46.6119
 21
9.00488
  0
LINE
  8
0
 10
-46.6119
 20
9.00488
 11
-46.6565
 21
8.93124
  0
LINE
  8
0
 10
-46.6565
 20
8.93124
 11
-46.7041
 21
8.85992
  0
LINE
  8
0
 10
-46.7041
 20
8.85992
 11
-46.7545
 21
8.79055
  0
LINE
  8
0
 10
-46.7545
 20
8.79055
 11
-46.8076
 21
8.72311
  0
LINE
  8
0
 10
-46.8076
 20
8.72311
 11
-46.8638
 21
8.658
  0
LINE
  8
0
 10
-46.8638
 20
8.658
 11
-46.9227
 21
8.5956
  0
LINE
  8
0
 10
-46.9227
 20
8.5956
 11
-46.984
 21
8.53553
  0
LINE
  8
0
 10
-46.984
 20
8.53553
 11
-47.0479
 21
8.47778
  0
LINE
  8
0
 10
-47.0479
 20
8.47778
 11
-47.1138
 21
8.42313
  0
LINE
  8
0
 10
-47.1138
 20
8.42313
 11
-47.1824
 21
8.37119
  0
LINE
  8
0
 10
-47.1824
 20
8.37119
 11
-47.2529
 21
8.32236
  0
LINE
  8
0
 10
-47.2529
 20
8.32236
 11
-47.3254
 21
8.27624
  0
LINE
  8
0
 10
-47.3254
 20
8.27624
 11
-47.3998
 21
8.23322
  0
LINE
  8
0
 10
-47.3998
 20
8.23322
 11
-47.4758
 21
8.19369
  0
LINE
  8
0
 10
-47.4758
 20
8.19369
 11
-47.5537
 21
8.15687
  0
LINE
  8
0
 10
-47.5537
 20
8.15687
 11
-47.6328
 21
8.12392
  0
LINE
  8
0
 10
-47.6328
 20
8.12392
 11
-47.713
 21
8.09369
  0
LINE
  8
0
 10
-47.713
 20
8.09369
 11
-47.7948
 21
8.06734
  0
LINE
  8
0
 10
-47.7948
 20
8.06734
 11
-47.8773
 21
8.04408
  0
LINE
  8
0
 10
-47.8773
 20
8.04408
 11
-47.961
 21
8.0247
  0
LINE
  8
0
 10
-47.961
 20
8.0247
 11
-48.0455
 21
8.00843
  0
LINE
  8
0
 10
-48.0455
 20
8.00843
 11
-48.1304
 21
7.99602
  0
LINE
  8
0
 10
-48.1304
 20
7.99602
 11
-48.2157
 21
7.98711
  0
LINE
  8
0
 10
-48.2157
 20
7.98711
 11
-48.3013
 21
7.98168
  0
LINE
  8
0
 10
-48.3013
 20
7.98168
 11
-48.3874
 21
7.97975
  0
LINE
  8
0
 10
-48.3874
 20
7.97975
 11
-48.473
 21
7.98168
  0
LINE
  8
0
 10
-0.0426331
 20
-2.04949
 11
-0.128674
 21
-2.04561
  0
LINE
  8
0
 10
-0.128674
 20
-2.04561
 11
-0.21394
 21
-2.03864
  0
LINE
  8
0
 10
-0.21394
 20
-2.03864
 11
-0.299207
 21
-2.02778
  0
LINE
  8
0
 10
-0.299207
 20
-2.02778
 11
-0.384085
 21
-2.01344
  0
LINE
  8
0
 10
-0.384085
 20
-2.01344
 11
-0.467801
 21
-1.99561
  0
LINE
  8
0
 10
-0.467801
 20
-1.99561
 11
-0.551129
 21
-1.9743
  0
LINE
  8
0
 10
-0.551129
 20
-1.9743
 11
-0.633295
 21
-1.94949
  0
LINE
  8
0
 10
-0.633295
 20
-1.94949
 11
-0.714297
 21
-1.9212
  0
LINE
  8
0
 10
-0.714297
 20
-1.9212
 11
-0.794138
 21
-1.88981
  0
LINE
  8
0
 10
-0.794138
 20
-1.88981
 11
-0.872815
 21
-1.85454
  0
LINE
  8
0
 10
-0.872815
 20
-1.85454
 11
-0.949554
 21
-1.81656
  0
LINE
  8
0
 10
-0.949554
 20
-1.81656
 11
-1.02474
 21
-1.77509
  0
LINE
  8
0
 10
-1.02474
 20
-1.77509
 11
-1.09838
 21
-1.73051
  0
LINE
  8
0
 10
-1.09838
 20
-1.73051
 11
-1.1697
 21
-1.68323
  0
LINE
  8
0
 10
-1.1697
 20
-1.68323
 11
-1.23907
 21
-1.63285
  0
LINE
  8
0
 10
-1.23907
 20
-1.63285
 11
-1.30651
 21
-1.57936
  0
LINE
  8
0
 10
-1.30651
 20
-1.57936
 11
-1.37162
 21
-1.52316
  0
LINE
  8
0
 10
-1.37162
 20
-1.52316
 11
-1.43402
 21
-1.46464
  0
LINE
  8
0
 10
-1.43402
 20
-1.46464
 11
-1.49409
 21
-1.40302
  0
LINE
  8
0
 10
-1.49409
 20
-1.40302
 11
-1.55184
 21
-1.33945
  0
LINE
  8
0
 10
-1.55184
 20
-1.33945
 11
-1.60649
 21
-1.27318
  0
LINE
  8
0
 10
-1.60649
 20
-1.27318
 11
-1.65843
 21
-1.20458
  0
LINE
  8
0
 10
-1.65843
 20
-1.20458
 11
-1.70726
 21
-1.13443
  0
LINE
  8
0
 10
-1.70726
 20
-1.13443
 11
-1.75338
 21
-1.06195
  0
LINE
  8
0
 10
-1.75338
 20
-1.06195
 11
-1.7964
 21
-0.987537
  0
LINE
  8
0
 10
-1.7964
 20
-0.987537
 11
-1.83593
 21
-0.911185
  0
LINE
  8
0
 10
-1.83593
 20
-0.911185
 11
-1.87275
 21
-0.83367
  0
LINE
  8
0
 10
-1.87275
 20
-0.83367
 11
-1.9057
 21
-0.754605
  0
LINE
  8
0
 10
-1.9057
 20
-0.754605
 11
-1.93593
 21
-0.67399
  0
LINE
  8
0
 10
-1.93593
 20
-0.67399
 11
-1.96228
 21
-0.592212
  0
LINE
  8
0
 10
-1.96228
 20
-0.592212
 11
-1.98554
 21
-0.509659
  0
LINE
  8
0
 10
-1.98554
 20
-0.509659
 11
-2.00492
 21
-0.425943
  0
LINE
  8
0
 10
-2.00492
 20
-0.425943
 11
-2.02119
 21
-0.34184
  0
LINE
  8
0
 10
-2.02119
 20
-0.34184
 11
-2.0336
 21
-0.256573
  0
LINE
  8
0
 10
-2.0336
 20
-0.256573
 11
-2.04251
 21
-0.171307
  0
LINE
  8
0
 10
-2.04251
 20
-0.171307
 11
-2.04794
 21
-0.0856537
  0
LINE
  8
0
 10
-2.04794
 20
-0.0856537
 11
-2.04987
 21
0
  0
LINE
  8
0
 10
-2.04987
 20
0
 11
-2.04794
 21
0.0856537
  0
LINE
  8
0
 10
-2.04794
 20
0.0856537
 11
-2.04251
 21
0.171307
  0
LINE
  8
0
 10
-2.04251
 20
0.171307
 11
-2.0336
 21
0.256573
  0
LINE
  8
0
 10
-2.0336
 20
0.256573
 11
-2.02119
 21
0.34184
  0
LINE
  8
0
 10
-2.02119
 20
0.34184
 11
-2.00492
 21
0.425943
  0
LINE
  8
0
 10
-2.00492
 20
0.425943
 11
-1.98554
 21
0.509659
  0
LINE
  8
0
 10
-1.98554
 20
0.509659
 11
-1.96228
 21
0.592212
  0
LINE
  8
0
 10
-1.96228
 20
0.592212
 11
-1.93593
 21
0.67399
  0
LINE
  8
0
 10
-1.93593
 20
0.67399
 11
-1.9057
 21
0.754605
  0
LINE
  8
0
 10
-1.9057
 20
0.754605
 11
-1.87275
 21
0.83367
  0
LINE
  8
0
 10
-1.87275
 20
0.83367
 11
-1.83593
 21
0.911185
  0
LINE
  8
0
 10
-1.83593
 20
0.911185
 11
-1.7964
 21
0.987537
  0
LINE
  8
0
 10
-1.7964
 20
0.987537
 11
-1.75338
 21
1.06195
  0
LINE
  8
0
 10
-1.75338
 20
1.06195
 11
-1.70726
 21
1.13443
  0
LINE
  8
0
 10
-1.70726
 20
1.13443
 11
-1.65843
 21
1.20458
  0
LINE
  8
0
 10
-1.65843
 20
1.20458
 11
-1.60649
 21
1.27318
  0
LINE
  8
0
 10
-1.60649
 20
1.27318
 11
-1.55184
 21
1.33945
  0
LINE
  8
0
 10
-1.55184
 20
1.33945
 11
-1.49409
 21
1.40302
  0
LINE
  8
0
 10
-1.49409
 20
1.40302
 11
-1.43402
 21
1.46464
  0
LINE
  8
0
 10
-1.43402
 20
1.46464
 11
-1.37162
 21
1.52316
  0
LINE
  8
0
 10
-1.37162
 20
1.52316
 11
-1.30651
 21
1.57936
  0
LINE
  8
0
 10
-1.30651
 20
1.57936
 11
-1.23907
 21
1.63285
  0
LINE
  8
0
 10
-1.23907
 20
1.63285
 11
-1.1697
 21
1.68323
  0
LINE
  8
0
 10
-1.1697
 20
1.68323
 11
-1.09838
 21
1.73051
  0
LINE
  8
0
 10
-1.09838
 20
1.73051
 11
-1.02474
 21
1.77509
  0
LINE
  8
0
 10
-1.02474
 20
1.77509
 11
-0.949554
 21
1.81656
  0
LINE
  8
0
 10
-0.949554
 20
1.81656
 11
-0.872815
 21
1.85454
  0
LINE
  8
0
 10
-0.872815
 20
1.85454
 11
-0.794138
 21
1.88981
  0
LINE
  8
0
 10
-0.794138
 20
1.88981
 11
-0.714297
 21
1.9212
  0
LINE
  8
0
 10
-0.714297
 20
1.9212
 11
-0.633295
 21
1.94949
  0
LINE
  8
0
 10
-0.633295
 20
1.94949
 11
-0.551129
 21
1.9743
  0
LINE
  8
0
 10
-0.551129
 20
1.9743
 11
-0.467801
 21
1.99561
  0
LINE
  8
0
 10
-0.467801
 20
1.99561
 11
-0.384085
 21
2.01344
  0
LINE
  8
0
 10
-0.384085
 20
2.01344
 11
-0.299207
 21
2.02778
  0
LINE
  8
0
 10
-0.299207
 20
2.02778
 11
-0.21394
 21
2.03864
  0
LINE
  8
0
 10
-0.21394
 20
2.03864
 11
-0.128674
 21
2.04561
  0
LINE
  8
0
 10
-0.128674
 20
2.04561
 11
-0.0426331
 21
2.04949
  0
LINE
  8
0
 10
-0.0426331
 20
2.04949
 11
0.0426331
 21
2.04949
  0
LINE
  8
0
 10
0.0426331
 20
2.04949
 11
0.128674
 21
2.04561
  0
LINE
  8
0
 10
0.128674
 20
2.04561
 11
0.21394
 21
2.03864
  0
LINE
  8
0
 10
0.21394
 20
2.03864
 11
0.299207
 21
2.02778
  0
LINE
  8
0
 10
0.299207
 20
2.02778
 11
0.384085
 21
2.01344
  0
LINE
  8
0
 10
0.384085
 20
2.01344
 11
0.467801
 21
1.99561
  0
LINE
  8
0
 10
0.467801
 20
1.99561
 11
0.551129
 21
1.9743
  0
LINE
  8
0
 10
0.551129
 20
1.9743
 11
0.633295
 21
1.94949
  0
LINE
  8
0
 10
0.633295
 20
1.94949
 11
0.714297
 21
1.9212
  0
LINE
  8
0
 10
0.714297
 20
1.9212
 11
0.794138
 21
1.88981
  0
LINE
  8
0
 10
0.794138
 20
1.88981
 11
0.872815
 21
1.85454
  0
LINE
  8
0
 10
0.872815
 20
1.85454
 11
0.949554
 21
1.81656
  0
LINE
  8
0
 10
0.949554
 20
1.81656
 11
1.02474
 21
1.77509
  0
LINE
  8
0
 10
1.02474
 20
1.77509
 11
1.09838
 21
1.73051
  0
LINE
  8
0
 10
1.09838
 20
1.73051
 11
1.1697
 21
1.68323
  0
LINE
  8
0
 10
1.1697
 20
1.68323
 11
1.23907
 21
1.63285
  0
LINE
  8
0
 10
1.23907
 20
1.63285
 11
1.30651
 21
1.57936
  0
LINE
  8
0
 10
1.30651
 20
1.57936
 11
1.37162
 21
1.52316
  0
LINE
  8
0
 10
1.37162
 20
1.52316
 11
1.43402
 21
1.46464
  0
LINE
  8
0
 10
1.43402
 20
1.46464
 11
1.49409
 21
1.40302
  0
LINE
  8
0
 10
1.49409
 20
1.40302
 11
1.55184
 21
1.33945
  0
LINE
  8
0
 10
1.55184
 20
1.33945
 11
1.60649
 21
1.27318
  0
LINE
  8
0
 10
1.60649
 20
1.27318
 11
1.65843
 21
1.20458
  0
LINE
  8
0
 10
1.65843
 20
1.20458
 11
1.70726
 21
1.13443
  0
LINE
  8
0
 10
1.70726
 20
1.13443
 11
1.75338
 21
1.06195
  0
LINE
  8
0
 10
1.75338
 20
1.06195
 11
1.7964
 21
0.987537
  0
LINE
  8
0
 10
1.7964
 20
0.987537
 11
1.83593
 21
0.911185
  0
LINE
  8
0
 10
1.83593
 20
0.911185
 11
1.87275
 21
0.83367
  0
LINE
  8
0
 10
1.87275
 20
0.83367
 11
1.9057
 21
0.754605
  0
LINE
  8
0
 10
1.9057
 20
0.754605
 11
1.93593
 21
0.67399
  0
LINE
  8
0
 10
1.93593
 20
0.67399
 11
1.96228
 21
0.592212
  0
LINE
  8
0
 10
1.96228
 20
0.592212
 11
1.98554
 21
0.509659
  0
LINE
  8
0
 10
1.98554
 20
0.509659
 11
2.00492
 21
0.425943
  0
LINE
  8
0
 10
2.00492
 20
0.425943
 11
2.02119
 21
0.34184
  0
LINE
  8
0
 10
2.02119
 20
0.34184
 11
2.0336
 21
0.256573
  0
LINE
  8
0
 10
2.0336
 20
0.256573
 11
2.04251
 21
0.171307
  0
LINE
  8
0
 10
2.04251
 20
0.171307
 11
2.04794
 21
0.0856537
  0
LINE
  8
0
 10
2.04794
 20
0.0856537
 11
2.04987
 21
0
  0
LINE
  8
0
 10
2.04987
 20
0
 11
2.04794
 21
-0.0856537
  0
LINE
  8
0
 10
2.04794
 20
-0.0856537
 11
2.04251
 21
-0.171307
  0
LINE
  8
0
 10
2.04251
 20
-0.171307
 11
2.0336
 21
-0.256573
  0
LINE
  8
0
 10
2.0336
 20
-0.256573
 11
2.02119
 21
-0.34184
  0
LINE
  8
0
 10
2.02119
 20
-0.34184
 11
2.00492
 21
-0.425943
  0
LINE
  8
0
 10
2.00492
 20
-0.425943
 11
1.98554
 21
-0.509659
  0
LINE
  8
0
 10
1.98554
 20
-0.509659
 11
1.96228
 21
-0.592212
  0
LINE
  8
0
 10
1.96228
 20
-0.592212
 11
1.93593
 21
-0.67399
  0
LINE
  8
0
 10
1.93593
 20
-0.67399
 11
1.9057
 21
-0.754605
  0
LINE
  8
0
 10
1.9057
 20
-0.754605
 11
1.87275
 21
-0.83367
  0
LINE
  8
0
 10
1.87275
 20
-0.83367
 11
1.83593
 21
-0.911185
  0
LINE
  8
0
 10
1.83593
 20
-0.911185
 11
1.7964
 21
-0.987537
  0
LINE
  8
0
 10
1.7964
 20
-0.987537
 11
1.75338
 21
-1.06195
  0
LINE
  8
0
 10
1.75338
 20
-1.06195
 11
1.70726
 21
-1.13443
  0
LINE
  8
0
 10
1.70726
 20
-1.13443
 11
1.65843
 21
-1.20458
  0
LINE
  8
0
 10
1.65843
 20
-1.20458
 11
1.60649
 21
-1.27318
  0
LINE
  8
0
 10
1.60649
 20
-1.27318
 11
1.55184
 21
-1.33945
  0
LINE
  8
0
 10
1.55184
 20
-1.33945
 11
1.49409
 21
-1.40302
  0
LINE
  8
0
 10
1.49409
 20
-1.40302
 11
1.43402
 21
-1.46464
  0
LINE
  8
0
 10
1.43402
 20
-1.46464
 11
1.37162
 21
-1.52316
  0
LINE
  8
0
 10
1.37162
 20
-1.52316
 11
1.30651
 21
-1.57936
  0
LINE
  8
0
 10
1.30651
 20
-1.57936
 11
1.23907
 21
-1.63285
  0
LINE
  8
0
 10
1.23907
 20
-1.63285
 11
1.1697
 21
-1.68323
  0
LINE
  8
0
 10
1.1697
 20
-1.68323
 11
1.09838
 21
-1.73051
  0
LINE
  8
0
 10
1.09838
 20
-1.73051
 11
1.02474
 21
-1.77509
  0
LINE
  8
0
 10
1.02474
 20
-1.77509
 11
0.949554
 21
-1.81656
  0
LINE
  8
0
 10
0.949554
 20
-1.81656
 11
0.872815
 21
-1.85454
  0
LINE
  8
0
 10
0.872815
 20
-1.85454
 11
0.794138
 21
-1.88981
  0
LINE
  8
0
 10
0.794138
 20
-1.88981
 11
0.714297
 21
-1.9212
  0
LINE
  8
0
 10
0.714297
 20
-1.9212
 11
0.633295
 21
-1.94949
  0
LINE
  8
0
 10
0.633295
 20
-1.94949
 11
0.551129
 21
-1.9743
  0
LINE
  8
0
 10
0.551129
 20
-1.9743
 11
0.467801
 21
-1.99561
  0
LINE
  8
0
 10
0.467801
 20
-1.99561
 11
0.384085
 21
-2.01344
  0
LINE
  8
0
 10
0.384085
 20
-2.01344
 11
0.299207
 21
-2.02778
  0
LINE
  8
0
 10
0.299207
 20
-2.02778
 11
0.21394
 21
-2.03864
  0
LINE
  8
0
 10
0.21394
 20
-2.03864
 11
0.128674
 21
-2.04561
  0
LINE
  8
0
 10
0.128674
 20
-2.04561
 11
0.0426331
 21
-2.04949
  0
LINE
  8
0
 10
0.0426331
 20
-2.04949
 11
-0.0426331
 21
-2.04949
  0
LINE
  8
0
 10
-48.473
 20
-8.01812
 11
-48.5587
 21
-8.01269
  0
LINE
  8
0
 10
-48.5587
 20
-8.01269
 11
-48.6443
 21
-8.00378
  0
LINE
  8
0
 10
-48.6443
 20
-8.00378
 11
-48.7292
 21
-7.99099
  0
LINE
  8
0
 10
-48.7292
 20
-7.99099
 11
-48.8137
 21
-7.97509
  0
LINE
  8
0
 10
-48.8137
 20
-7.97509
 11
-48.897
 21
-7.95533
  0
LINE
  8
0
 10
-48.897
 20
-7.95533
 11
-48.98
 21
-7.93246
  0
LINE
  8
0
 10
-48.98
 20
-7.93246
 11
-49.0613
 21
-7.90572
  0
LINE
  8
0
 10
-49.0613
 20
-7.90572
 11
-49.142
 21
-7.87588
  0
LINE
  8
0
 10
-49.142
 20
-7.87588
 11
-49.221
 21
-7.84254
  0
LINE
  8
0
 10
-49.221
 20
-7.84254
 11
-49.2989
 21
-7.80611
  0
LINE
  8
0
 10
-49.2989
 20
-7.80611
 11
-49.3749
 21
-7.76619
  0
LINE
  8
0
 10
-49.3749
 20
-7.76619
 11
-49.4493
 21
-7.72317
  0
LINE
  8
0
 10
-49.4493
 20
-7.72317
 11
-49.5218
 21
-7.67744
  0
LINE
  8
0
 10
-49.5218
 20
-7.67744
 11
-49.5923
 21
-7.62822
  0
LINE
  8
0
 10
-49.5923
 20
-7.62822
 11
-49.6605
 21
-7.57628
  0
LINE
  8
0
 10
-49.6605
 20
-7.57628
 11
-49.7268
 21
-7.52163
  0
LINE
  8
0
 10
-49.7268
 20
-7.52163
 11
-49.7908
 21
-7.46427
  0
LINE
  8
0
 10
-49.7908
 20
-7.46427
 11
-49.852
 21
-7.4042
  0
LINE
  8
0
 10
-49.852
 20
-7.4042
 11
-49.9109
 21
-7.34141
  0
LINE
  8
0
 10
-49.9109
 20
-7.34141
 11
-49.9667
 21
-7.27669
  0
LINE
  8
0
 10
-49.9667
 20
-7.27669
 11
-50.0202
 21
-7.20925
  0
LINE
  8
0
 10
-50.0202
 20
-7.20925
 11
-50.0706
 21
-7.13987
  0
LINE
  8
0
 10
-50.0706
 20
-7.13987
 11
-50.1183
 21
-7.06817
  0
LINE
  8
0
 10
-50.1183
 20
-7.06817
 11
-50.1628
 21
-6.99492
  0
LINE
  8
0
 10
-50.1628
 20
-6.99492
 11
-50.2039
 21
-6.91973
  0
LINE
  8
0
 10
-50.2039
 20
-6.91973
 11
-50.2423
 21
-6.84261
  0
LINE
  8
0
 10
-50.2423
 20
-6.84261
 11
-50.2772
 21
-6.76432
  0
LINE
  8
0
 10
-50.2772
 20
-6.76432
 11
-50.3086
 21
-6.68448
  0
LINE
  8
0
 10
-50.3086
 20
-6.68448
 11
-50.3368
 21
-6.60309
  0
LINE
  8
0
 10
-50.3368
 20
-6.60309
 11
-50.3617
 21
-6.52092
  0
LINE
  8
0
 10
-50.3617
 20
-6.52092
 11
-50.383
 21
-6.43798
  0
LINE
  8
0
 10
-50.383
 20
-6.43798
 11
-50.4008
 21
-6.35388
  0
LINE
  8
0
 10
-50.4008
 20
-6.35388
 11
-50.4151
 21
-6.26938
  0
LINE
  8
0
 10
-50.4151
 20
-6.26938
 11
-50.426
 21
-6.18412
  0
LINE
  8
0
 10
-50.426
 20
-6.18412
 11
-50.4334
 21
-6.09846
  0
LINE
  8
0
 10
-50.4334
 20
-6.09846
 11
-50.4368
 21
-6.01281
  0
LINE
  8
0
 10
-50.4368
 20
-6.01281
 11
-50.4368
 21
-5.92677
  0
LINE
  8
0
 10
-50.4368
 20
-5.92677
 11
-50.4334
 21
-5.84112
  0
LINE
  8
0
 10
-50.4334
 20
-5.84112
 11
-50.426
 21
-5.75546
  0
LINE
  8
0
 10
-50.426
 20
-5.75546
 11
-50.4151
 21
-5.6702
  0
LINE
  8
0
 10
-50.4151
 20
-5.6702
 11
-50.4008
 21
-5.58571
  0
LINE
  8
0
 10
-50.4008
 20
-5.58571
 11
-50.383
 21
-5.5016
  0
LINE
  8
0
 10
-50.383
 20
-5.5016
 11
-50.3617
 21
-5.41866
  0
LINE
  8
0
 10
-50.3617
 20
-5.41866
 11
-50.3368
 21
-5.3365
  0
LINE
  8
0
 10
-50.3368
 20
-5.3365
 11
-50.3086
 21
-5.25511
  0
LINE
  8
0
 10
-50.3086
 20
-5.25511
 11
-50.2772
 21
-5.17527
  0
LINE
  8
0
 10
-50.2772
 20
-5.17527
 11
-50.2423
 21
-5.09698
  0
LINE
  8
0
 10
-50.2423
 20
-5.09698
 11
-50.2039
 21
-5.02024
  0
LINE
  8
0
 10
-50.2039
 20
-5.02024
 11
-50.1628
 21
-4.94466
  0
LINE
  8
0
 10
-50.1628
 20
-4.94466
 11
-50.1183
 21
-4.87141
  0
LINE
  8
0
 10
-50.1183
 20
-4.87141
 11
-50.0706
 21
-4.79971
  0
LINE
  8
0
 10
-50.0706
 20
-4.79971
 11
-50.0202
 21
-4.73033
  0
LINE
  8
0
 10
-50.0202
 20
-4.73033
 11
-49.9667
 21
-4.66328
  0
LINE
  8
0
 10
-49.9667
 20
-4.66328
 11
-49.9109
 21
-4.59817
  0
LINE
  8
0
 10
-49.9109
 20
-4.59817
 11
-49.852
 21
-4.53538
  0
LINE
  8
0
 10
-49.852
 20
-4.53538
 11
-49.7908
 21
-4.47531
  0
LINE
  8
0
 10
-49.7908
 20
-4.47531
 11
-49.7268
 21
-4.41795
  0
LINE
  8
0
 10
-49.7268
 20
-4.41795
 11
-49.6605
 21
-4.3633
  0
LINE
  8
0
 10
-49.6605
 20
-4.3633
 11
-49.5923
 21
-4.31136
  0
LINE
  8
0
 10
-49.5923
 20
-4.31136
 11
-49.5218
 21
-4.26214
  0
LINE
  8
0
 10
-49.5218
 20
-4.26214
 11
-49.4493
 21
-4.21641
  0
LINE
  8
0
 10
-49.4493
 20
-4.21641
 11
-49.3749
 21
-4.17339
  0
LINE
  8
0
 10
-49.3749
 20
-4.17339
 11
-49.2989
 21
-4.13347
  0
LINE
  8
0
 10
-49.2989
 20
-4.13347
 11
-49.221
 21
-4.09704
  0
LINE
  8
0
 10
-49.221
 20
-4.09704
 11
-49.142
 21
-4.06371
  0
LINE
  8
0
 10
-49.142
 20
-4.06371
 11
-49.0613
 21
-4.03386
  0
LINE
  8
0
 10
-49.0613
 20
-4.03386
 11
-48.98
 21
-4.00712
  0
LINE
  8
0
 10
-48.98
 20
-4.00712
 11
-48.897
 21
-3.98425
  0
LINE
  8
0
 10
-48.897
 20
-3.98425
 11
-48.8137
 21
-3.96449
  0
LINE
  8
0
 10
-48.8137
 20
-3.96449
 11
-48.7292
 21
-3.9486
  0
LINE
  8
0
 10
-48.7292
 20
-3.9486
 11
-48.6443
 21
-3.93581
  0
LINE
  8
0
 10
-48.6443
 20
-3.93581
 11
-48.5587
 21
-3.92689
  0
LINE
  8
0
 10
-48.5587
 20
-3.92689
 11
-48.473
 21
-3.92147
  0
LINE
  8
0
 10
-48.473
 20
-3.92147
 11
-48.3874
 21
-3.91992
  0
LINE
  8
0
 10
-48.3874
 20
-3.91992
 11
-48.3013
 21
-3.92147
  0
LINE
  8
0
 10
-48.3013
 20
-3.92147
 11
-48.2157
 21
-3.92689
  0
LINE
  8
0
 10
-48.2157
 20
-3.92689
 11
-48.1304
 21
-3.93581
  0
LINE
  8
0
 10
-48.1304
 20
-3.93581
 11
-48.0455
 21
-3.9486
  0
LINE
  8
0
 10
-48.0455
 20
-3.9486
 11
-47.961
 21
-3.96449
  0
LINE
  8
0
 10
-47.961
 20
-3.96449
 11
-47.8773
 21
-3.98425
  0
LINE
  8
0
 10
-47.8773
 20
-3.98425
 11
-47.7948
 21
-4.00712
  0
LINE
  8
0
 10
-47.7948
 20
-4.00712
 11
-47.713
 21
-4.03386
  0
LINE
  8
0
 10
-47.713
 20
-4.03386
 11
-47.6328
 21
-4.06371
  0
LINE
  8
0
 10
-47.6328
 20
-4.06371
 11
-47.5537
 21
-4.09704
  0
LINE
  8
0
 10
-47.5537
 20
-4.09704
 11
-47.4758
 21
-4.13347
  0
LINE
  8
0
 10
-47.4758
 20
-4.13347
 11
-47.3998
 21
-4.17339
  0
LINE
  8
0
 10
-47.3998
 20
-4.17339
 11
-47.3254
 21
-4.21641
  0
LINE
  8
0
 10
-47.3254
 20
-4.21641
 11
-47.2529
 21
-4.26214
  0
LINE
  8
0
 10
-47.2529
 20
-4.26214
 11
-47.1824
 21
-4.31136
  0
LINE
  8
0
 10
-47.1824
 20
-4.31136
 11
-47.1138
 21
-4.3633
  0
LINE
  8
0
 10
-47.1138
 20
-4.3633
 11
-47.0479
 21
-4.41795
  0
LINE
  8
0
 10
-47.0479
 20
-4.41795
 11
-46.984
 21
-4.47531
  0
LINE
  8
0
 10
-46.984
 20
-4.47531
 11
-46.9227
 21
-4.53538
  0
LINE
  8
0
 10
-46.9227
 20
-4.53538
 11
-46.8638
 21
-4.59817
  0
LINE
  8
0
 10
-46.8638
 20
-4.59817
 11
-46.8076
 21
-4.66328
  0
LINE
  8
0
 10
-46.8076
 20
-4.66328
 11
-46.7545
 21
-4.73033
  0
LINE
  8
0
 10
-46.7545
 20
-4.73033
 11
-46.7041
 21
-4.79971
  0
LINE
  8
0
 10
-46.7041
 20
-4.79971
 11
-46.6565
 21
-4.87141
  0
LINE
  8
0
 10
-46.6565
 20
-4.87141
 11
-46.6119
 21
-4.94466
  0
LINE
  8
0
 10
-46.6119
 20
-4.94466
 11
-46.5704
 21
-5.02024
  0
LINE
  8
0
 10
-46.5704
 20
-5.02024
 11
-46.5324
 21
-5.09698
  0
LINE
  8
0
 10
-46.5324
 20
-5.09698
 11
-46.4975
 21
-5.17527
  0
LINE
  8
0
 10
-46.4975
 20
-5.17527
 11
-46.4658
 21
-5.25511
  0
LINE
  8
0
 10
-46.4658
 20
-5.25511
 11
-46.4375
 21
-5.3365
  0
LINE
  8
0
 10
-46.4375
 20
-5.3365
 11
-46.4127
 21
-5.41866
  0
LINE
  8
0
 10
-46.4127
 20
-5.41866
 11
-46.3914
 21
-5.5016
  0
LINE
  8
0
 10
-46.3914
 20
-5.5016
 11
-46.3735
 21
-5.58571
  0
LINE
  8
0
 10
-46.3735
 20
-5.58571
 11
-46.3592
 21
-5.6702
  0
LINE
  8
0
 10
-46.3592
 20
-5.6702
 11
-46.3487
 21
-5.75546
  0
LINE
  8
0
 10
-46.3487
 20
-5.75546
 11
-46.3414
 21
-5.84112
  0
LINE
  8
0
 10
-46.3414
 20
-5.84112
 11
-46.3379
 21
-5.92677
  0
LINE
  8
0
 10
-46.3379
 20
-5.92677
 11
-46.3379
 21
-6.01281
  0
LINE
  8
0
 10
-46.3379
 20
-6.01281
 11
-46.3414
 21
-6.09846
  0
LINE
  8
0
 10
-46.3414
 20
-6.09846
 11
-46.3487
 21
-6.18412
  0
LINE
  8
0
 10
-46.3487
 20
-6.18412
 11
-46.3592
 21
-6.26938
  0
LINE
  8
0
 10
-46.3592
 20
-6.26938
 11
-46.3735
 21
-6.35388
  0
LINE
  8
0
 10
-46.3735
 20
-6.35388
 11
-46.3914
 21
-6.43798
  0
LINE
  8
0
 10
-46.3914
 20
-6.43798
 11
-46.4127
 21
-6.52092
  0
LINE
  8
0
 10
-46.4127
 20
-6.52092
 11
-46.4375
 21
-6.60309
  0
LINE
  8
0
 10
-46.4375
 20
-6.60309
 11
-46.4658
 21
-6.68448
  0
LINE
  8
0
 10
-46.4658
 20
-6.68448
 11
-46.4975
 21
-6.76432
  0
LINE
  8
0
 10
-46.4975
 20
-6.76432
 11
-46.5324
 21
-6.84261
  0
LINE
  8
0
 10
-46.5324
 20
-6.84261
 11
-46.5704
 21
-6.91973
  0
LINE
  8
0
 10
-46.5704
 20
-6.91973
 11
-46.6119
 21
-6.99492
  0
LINE
  8
0
 10
-46.6119
 20
-6.99492
 11
-46.6565
 21
-7.06817
  0
LINE
  8
0
 10
-46.6565
 20
-7.06817
 11
-46.7041
 21
-7.13987
  0
LINE
  8
0
 10
-46.7041
 20
-7.13987
 11
-46.7545
 21
-7.20925
  0
LINE
  8
0
 10
-46.7545
 20
-7.20925
 11
-46.8076
 21
-7.27669
  0
LINE
  8
0
 10
-46.8076
 20
-7.27669
 11
-46.8638
 21
-7.34141
  0
LINE
  8
0
 10
-46.8638
 20
-7.34141
 11
-46.9227
 21
-7.4042
  0
LINE
  8
0
 10
-46.9227
 20
-7.4042
 11
-46.984
 21
-7.46427
  0
LINE
  8
0
 10
-46.984
 20
-7.46427
 11
-47.0479
 21
-7.52163
  0
LINE
  8
0
 10
-47.0479
 20
-7.52163
 11
-47.1138
 21
-7.57628
  0
LINE
  8
0
 10
-47.1138
 20
-7.57628
 11
-47.1824
 21
-7.62822
  0
LINE
  8
0
 10
-47.1824
 20
-7.62822
 11
-47.2529
 21
-7.67744
  0
LINE
  8
0
 10
-47.2529
 20
-7.67744
 11
-47.3254
 21
-7.72317
  0
LINE
  8
0
 10
-47.3254
 20
-7.72317
 11
-47.3998
 21
-7.76619
  0
LINE
  8
0
 10
-47.3998
 20
-7.76619
 11
-47.4758
 21
-7.80611
  0
LINE
  8
0
 10
-47.4758
 20
-7.80611
 11
-47.5537
 21
-7.84254
  0
LINE
  8
0
 10
-47.5537
 20
-7.84254
 11
-47.6328
 21
-7.87588
  0
LINE
  8
0
 10
-47.6328
 20
-7.87588
 11
-47.713
 21
-7.90572
  0
LINE
  8
0
 10
-47.713
 20
-7.90572
 11
-47.7948
 21
-7.93246
  0
LINE
  8
0
 10
-47.7948
 20
-7.93246
 11
-47.8773
 21
-7.95533
  0
LINE
  8
0
 10
-47.8773
 20
-7.95533
 11
-47.961
 21
-7.97509
  0
LINE
  8
0
 10
-47.961
 20
-7.97509
 11
-48.0455
 21
-7.99099
  0
LINE
  8
0
 10
-48.0455
 20
-7.99099
 11
-48.1304
 21
-8.00378
  0
LINE
  8
0
 10
-48.1304
 20
-8.00378
 11
-48.2157
 21
-8.01269
  0
LINE
  8
0
 10
-48.2157
 20
-8.01269
 11
-48.3013
 21
-8.01812
  0
LINE
  8
0
 10
-48.3013
 20
-8.01812
 11
-48.3874
 21
-8.01967
  0
LINE
  8
0
 10
-48.3874
 20
-8.01967
 11
-48.473
 21
-8.01812
  0
ENDSEC
  0
SECTION
  2
OBJECTS
  0
DICTIONARY
  0
ENDSEC
  0
EOF
