  0
SECTION
  2
BLOCKS
  0
ENDSEC
  0
SECTION
  2
ENTITIES
  0
LINE
  8
0
 10
0.782166
 20
-12.9384
 11
1.54507
 21
-12.7553
  0
LINE
  8
0
 10
1.54507
 20
-12.7553
 11
2.26994
 21
-12.455
  0
LINE
  8
0
 10
2.26994
 20
-12.455
 11
2.93892
 21
-12.0451
  0
LINE
  8
0
 10
2.93892
 20
-12.0451
 11
3.53552
 21
-11.5355
  0
LINE
  8
0
 10
3.53552
 20
-11.5355
 11
4.04507
 21
-10.9389
  0
LINE
  8
0
 10
4.04507
 20
-10.9389
 11
4.45503
 21
-10.2699
  0
LINE
  8
0
 10
4.45503
 20
-10.2699
 11
9.5
 21
0
  0
LINE
  8
0
 10
9.5
 20
0
 11
9.5
 21
36
  0
LINE
  8
0
 10
9.5
 20
36
 11
0
 21
36
  0
LINE
  8
0
 10
0
 20
36
 11
-23.4389
 21
21.0451
  0
LINE
  8
0
 10
-23.4389
 20
21.0451
 11
-24.0355
 21
20.5355
  0
LINE
  8
0
 10
-24.0355
 20
20.5355
 11
-24.5451
 21
19.9389
  0
LINE
  8
0
 10
-24.5451
 20
19.9389
 11
-24.955
 21
19.2699
  0
LINE
  8
0
 10
-24.955
 20
19.2699
 11
-25.2553
 21
18.5451
  0
LINE
  8
0
 10
-25.2553
 20
18.5451
 11
-25.4384
 21
17.7822
  0
LINE
  8
0
 10
-25.4384
 20
17.7822
 11
-25.5
 21
17
  0
LINE
  8
0
 10
-25.5
 20
17
 11
-25.5
 21
5
  0
LINE
  8
0
 10
-25.5
 20
5
 11
-25.4384
 21
4.21782
  0
LINE
  8
0
 10
-25.4384
 20
4.21782
 11
-25.2553
 21
3.45491
  0
LINE
  8
0
 10
-25.2553
 20
3.45491
 11
-24.955
 21
2.73004
  0
LINE
  8
0
 10
-24.955
 20
2.73004
 11
-24.5451
 21
2.06107
  0
LINE
  8
0
 10
-24.5451
 20
2.06107
 11
-24.0355
 21
1.46446
  0
LINE
  8
0
 10
-24.0355
 20
1.46446
 11
-23.4389
 21
0.95491
  0
LINE
  8
0
 10
-23.4389
 20
0.95491
 11
-2.93892
 21
-12.0451
  0
LINE
  8
0
 10
-2.93892
 20
-12.0451
 11
-2.26994
 21
-12.455
  0
LINE
  8
0
 10
-2.26994
 20
-12.455
 11
-1.54507
 21
-12.7553
  0
LINE
  8
0
 10
-1.54507
 20
-12.7553
 11
-0.782166
 21
-12.9384
  0
LINE
  8
0
 10
-0.782166
 20
-12.9384
 11
0
 21
-13
  0
LINE
  8
0
 10
0
 20
-13
 11
0.782166
 21
-12.9384
  0
LINE
  8
0
 10
5.16367
 20
29.8765
 11
4.8356
 21
29.9552
  0
LINE
  8
0
 10
4.8356
 20
29.9552
 11
4.52391
 21
30.0843
  0
LINE
  8
0
 10
4.52391
 20
30.0843
 11
4.23625
 21
30.2606
  0
LINE
  8
0
 10
4.23625
 20
30.2606
 11
3.97971
 21
30.4797
  0
LINE
  8
0
 10
3.97971
 20
30.4797
 11
3.7606
 21
30.7363
  0
LINE
  8
0
 10
3.7606
 20
30.7363
 11
3.58434
 21
31.0239
  0
LINE
  8
0
 10
3.58434
 20
31.0239
 11
3.45522
 21
31.3356
  0
LINE
  8
0
 10
3.45522
 20
31.3356
 11
3.37646
 21
31.6637
  0
LINE
  8
0
 10
3.37646
 20
31.6637
 11
3.34999
 21
32
  0
LINE
  8
0
 10
3.34999
 20
32
 11
3.37646
 21
32.3363
  0
LINE
  8
0
 10
3.37646
 20
32.3363
 11
3.45522
 21
32.6644
  0
LINE
  8
0
 10
3.45522
 20
32.6644
 11
3.58434
 21
32.9761
  0
LINE
  8
0
 10
3.58434
 20
32.9761
 11
3.7606
 21
33.2637
  0
LINE
  8
0
 10
3.7606
 20
33.2637
 11
3.97971
 21
33.5203
  0
LINE
  8
0
 10
3.97971
 20
33.5203
 11
4.23625
 21
33.7394
  0
LINE
  8
0
 10
4.23625
 20
33.7394
 11
4.52391
 21
33.9157
  0
LINE
  8
0
 10
4.52391
 20
33.9157
 11
4.8356
 21
34.0448
  0
LINE
  8
0
 10
4.8356
 20
34.0448
 11
5.16367
 21
34.1235
  0
LINE
  8
0
 10
5.16367
 20
34.1235
 11
5.5
 21
34.15
  0
LINE
  8
0
 10
5.5
 20
34.15
 11
5.83632
 21
34.1235
  0
LINE
  8
0
 10
5.83632
 20
34.1235
 11
6.16438
 21
34.0448
  0
LINE
  8
0
 10
6.16438
 20
34.0448
 11
6.47607
 21
33.9157
  0
LINE
  8
0
 10
6.47607
 20
33.9157
 11
6.76373
 21
33.7394
  0
LINE
  8
0
 10
6.76373
 20
33.7394
 11
7.02028
 21
33.5203
  0
LINE
  8
0
 10
7.02028
 20
33.5203
 11
7.23938
 21
33.2637
  0
LINE
  8
0
 10
7.23938
 20
33.2637
 11
7.41565
 21
32.9761
  0
LINE
  8
0
 10
7.41565
 20
32.9761
 11
7.54477
 21
32.6644
  0
LINE
  8
0
 10
7.54477
 20
32.6644
 11
7.62352
 21
32.3363
  0
LINE
  8
0
 10
7.62352
 20
32.3363
 11
7.64999
 21
32
  0
LINE
  8
0
 10
7.64999
 20
32
 11
7.62352
 21
31.6637
  0
LINE
  8
0
 10
7.62352
 20
31.6637
 11
7.54477
 21
31.3356
  0
LINE
  8
0
 10
7.54477
 20
31.3356
 11
7.41565
 21
31.0239
  0
LINE
  8
0
 10
7.41565
 20
31.0239
 11
7.23938
 21
30.7363
  0
LINE
  8
0
 10
7.23938
 20
30.7363
 11
7.02028
 21
30.4797
  0
LINE
  8
0
 10
7.02028
 20
30.4797
 11
6.76373
 21
30.2606
  0
LINE
  8
0
 10
6.76373
 20
30.2606
 11
6.47607
 21
30.0843
  0
LINE
  8
0
 10
6.47607
 20
30.0843
 11
6.16438
 21
29.9552
  0
LINE
  8
0
 10
6.16438
 20
29.9552
 11
5.83632
 21
29.8765
  0
LINE
  8
0
 10
5.83632
 20
29.8765
 11
5.5
 21
29.85
  0
LINE
  8
0
 10
5.5
 20
29.85
 11
5.16367
 21
29.8765
  0
LINE
  8
0
 10
5.16367
 20
21.8765
 11
4.8356
 21
21.9552
  0
LINE
  8
0
 10
4.8356
 20
21.9552
 11
4.52391
 21
22.0843
  0
LINE
  8
0
 10
4.52391
 20
22.0843
 11
4.23625
 21
22.2606
  0
LINE
  8
0
 10
4.23625
 20
22.2606
 11
3.97971
 21
22.4797
  0
LINE
  8
0
 10
3.97971
 20
22.4797
 11
3.7606
 21
22.7363
  0
LINE
  8
0
 10
3.7606
 20
22.7363
 11
3.58434
 21
23.0239
  0
LINE
  8
0
 10
3.58434
 20
23.0239
 11
3.45522
 21
23.3356
  0
LINE
  8
0
 10
3.45522
 20
23.3356
 11
3.37646
 21
23.6637
  0
LINE
  8
0
 10
3.37646
 20
23.6637
 11
3.34999
 21
24
  0
LINE
  8
0
 10
3.34999
 20
24
 11
3.37646
 21
24.3363
  0
LINE
  8
0
 10
3.37646
 20
24.3363
 11
3.45522
 21
24.6644
  0
LINE
  8
0
 10
3.45522
 20
24.6644
 11
3.58434
 21
24.9761
  0
LINE
  8
0
 10
3.58434
 20
24.9761
 11
3.7606
 21
25.2637
  0
LINE
  8
0
 10
3.7606
 20
25.2637
 11
3.97971
 21
25.5203
  0
LINE
  8
0
 10
3.97971
 20
25.5203
 11
4.23625
 21
25.7394
  0
LINE
  8
0
 10
4.23625
 20
25.7394
 11
4.52391
 21
25.9157
  0
LINE
  8
0
 10
4.52391
 20
25.9157
 11
4.8356
 21
26.0448
  0
LINE
  8
0
 10
4.8356
 20
26.0448
 11
5.16367
 21
26.1235
  0
LINE
  8
0
 10
5.16367
 20
26.1235
 11
5.5
 21
26.15
  0
LINE
  8
0
 10
5.5
 20
26.15
 11
5.83632
 21
26.1235
  0
LINE
  8
0
 10
5.83632
 20
26.1235
 11
6.16438
 21
26.0448
  0
LINE
  8
0
 10
6.16438
 20
26.0448
 11
6.47607
 21
25.9157
  0
LINE
  8
0
 10
6.47607
 20
25.9157
 11
6.76373
 21
25.7394
  0
LINE
  8
0
 10
6.76373
 20
25.7394
 11
7.02028
 21
25.5203
  0
LINE
  8
0
 10
7.02028
 20
25.5203
 11
7.23938
 21
25.2637
  0
LINE
  8
0
 10
7.23938
 20
25.2637
 11
7.41565
 21
24.9761
  0
LINE
  8
0
 10
7.41565
 20
24.9761
 11
7.54477
 21
24.6644
  0
LINE
  8
0
 10
7.54477
 20
24.6644
 11
7.62352
 21
24.3363
  0
LINE
  8
0
 10
7.62352
 20
24.3363
 11
7.64999
 21
24
  0
LINE
  8
0
 10
7.64999
 20
24
 11
7.62352
 21
23.6637
  0
LINE
  8
0
 10
7.62352
 20
23.6637
 11
7.54477
 21
23.3356
  0
LINE
  8
0
 10
7.54477
 20
23.3356
 11
7.41565
 21
23.0239
  0
LINE
  8
0
 10
7.41565
 20
23.0239
 11
7.23938
 21
22.7363
  0
LINE
  8
0
 10
7.23938
 20
22.7363
 11
7.02028
 21
22.4797
  0
LINE
  8
0
 10
7.02028
 20
22.4797
 11
6.76373
 21
22.2606
  0
LINE
  8
0
 10
6.76373
 20
22.2606
 11
6.47607
 21
22.0843
  0
LINE
  8
0
 10
6.47607
 20
22.0843
 11
6.16438
 21
21.9552
  0
LINE
  8
0
 10
6.16438
 20
21.9552
 11
5.83632
 21
21.8765
  0
LINE
  8
0
 10
5.83632
 20
21.8765
 11
5.5
 21
21.85
  0
LINE
  8
0
 10
5.5
 20
21.85
 11
5.16367
 21
21.8765
  0
LINE
  8
0
 10
-20.8363
 20
14.8765
 11
-21.1644
 21
14.9552
  0
LINE
  8
0
 10
-21.1644
 20
14.9552
 11
-21.4761
 21
15.0843
  0
LINE
  8
0
 10
-21.4761
 20
15.0843
 11
-21.7637
 21
15.2606
  0
LINE
  8
0
 10
-21.7637
 20
15.2606
 11
-22.0203
 21
15.4797
  0
LINE
  8
0
 10
-22.0203
 20
15.4797
 11
-22.2394
 21
15.7363
  0
LINE
  8
0
 10
-22.2394
 20
15.7363
 11
-22.4157
 21
16.0239
  0
LINE
  8
0
 10
-22.4157
 20
16.0239
 11
-22.5448
 21
16.3356
  0
LINE
  8
0
 10
-22.5448
 20
16.3356
 11
-22.6235
 21
16.6637
  0
LINE
  8
0
 10
-22.6235
 20
16.6637
 11
-22.65
 21
17
  0
LINE
  8
0
 10
-22.65
 20
17
 11
-22.6235
 21
17.3363
  0
LINE
  8
0
 10
-22.6235
 20
17.3363
 11
-22.5448
 21
17.6644
  0
LINE
  8
0
 10
-22.5448
 20
17.6644
 11
-22.4157
 21
17.9761
  0
LINE
  8
0
 10
-22.4157
 20
17.9761
 11
-22.2394
 21
18.2637
  0
LINE
  8
0
 10
-22.2394
 20
18.2637
 11
-22.0203
 21
18.5203
  0
LINE
  8
0
 10
-22.0203
 20
18.5203
 11
-21.7637
 21
18.7394
  0
LINE
  8
0
 10
-21.7637
 20
18.7394
 11
-21.4761
 21
18.9157
  0
LINE
  8
0
 10
-21.4761
 20
18.9157
 11
-21.1644
 21
19.0448
  0
LINE
  8
0
 10
-21.1644
 20
19.0448
 11
-20.8363
 21
19.1235
  0
LINE
  8
0
 10
-20.8363
 20
19.1235
 11
-20.5
 21
19.15
  0
LINE
  8
0
 10
-20.5
 20
19.15
 11
-20.1637
 21
19.1235
  0
LINE
  8
0
 10
-20.1637
 20
19.1235
 11
-19.8356
 21
19.0448
  0
LINE
  8
0
 10
-19.8356
 20
19.0448
 11
-19.5239
 21
18.9157
  0
LINE
  8
0
 10
-19.5239
 20
18.9157
 11
-19.2363
 21
18.7394
  0
LINE
  8
0
 10
-19.2363
 20
18.7394
 11
-18.9797
 21
18.5203
  0
LINE
  8
0
 10
-18.9797
 20
18.5203
 11
-18.7606
 21
18.2637
  0
LINE
  8
0
 10
-18.7606
 20
18.2637
 11
-18.5843
 21
17.9761
  0
LINE
  8
0
 10
-18.5843
 20
17.9761
 11
-18.4552
 21
17.6644
  0
LINE
  8
0
 10
-18.4552
 20
17.6644
 11
-18.3765
 21
17.3363
  0
LINE
  8
0
 10
-18.3765
 20
17.3363
 11
-18.35
 21
17
  0
LINE
  8
0
 10
-18.35
 20
17
 11
-18.3765
 21
16.6637
  0
LINE
  8
0
 10
-18.3765
 20
16.6637
 11
-18.4552
 21
16.3356
  0
LINE
  8
0
 10
-18.4552
 20
16.3356
 11
-18.5843
 21
16.0239
  0
LINE
  8
0
 10
-18.5843
 20
16.0239
 11
-18.7606
 21
15.7363
  0
LINE
  8
0
 10
-18.7606
 20
15.7363
 11
-18.9797
 21
15.4797
  0
LINE
  8
0
 10
-18.9797
 20
15.4797
 11
-19.2363
 21
15.2606
  0
LINE
  8
0
 10
-19.2363
 20
15.2606
 11
-19.5239
 21
15.0843
  0
LINE
  8
0
 10
-19.5239
 20
15.0843
 11
-19.8356
 21
14.9552
  0
LINE
  8
0
 10
-19.8356
 20
14.9552
 11
-20.1637
 21
14.8765
  0
LINE
  8
0
 10
-20.1637
 20
14.8765
 11
-20.5
 21
14.85
  0
LINE
  8
0
 10
-20.5
 20
14.85
 11
-20.8363
 21
14.8765
  0
LINE
  8
0
 10
5.16367
 20
13.8765
 11
4.8356
 21
13.9552
  0
LINE
  8
0
 10
4.8356
 20
13.9552
 11
4.52391
 21
14.0843
  0
LINE
  8
0
 10
4.52391
 20
14.0843
 11
4.23625
 21
14.2606
  0
LINE
  8
0
 10
4.23625
 20
14.2606
 11
3.97971
 21
14.4797
  0
LINE
  8
0
 10
3.97971
 20
14.4797
 11
3.7606
 21
14.7363
  0
LINE
  8
0
 10
3.7606
 20
14.7363
 11
3.58434
 21
15.0239
  0
LINE
  8
0
 10
3.58434
 20
15.0239
 11
3.45522
 21
15.3356
  0
LINE
  8
0
 10
3.45522
 20
15.3356
 11
3.37646
 21
15.6637
  0
LINE
  8
0
 10
3.37646
 20
15.6637
 11
3.34999
 21
16
  0
LINE
  8
0
 10
3.34999
 20
16
 11
3.37646
 21
16.3363
  0
LINE
  8
0
 10
3.37646
 20
16.3363
 11
3.45522
 21
16.6644
  0
LINE
  8
0
 10
3.45522
 20
16.6644
 11
3.58434
 21
16.9761
  0
LINE
  8
0
 10
3.58434
 20
16.9761
 11
3.7606
 21
17.2637
  0
LINE
  8
0
 10
3.7606
 20
17.2637
 11
3.97971
 21
17.5203
  0
LINE
  8
0
 10
3.97971
 20
17.5203
 11
4.23625
 21
17.7394
  0
LINE
  8
0
 10
4.23625
 20
17.7394
 11
4.52391
 21
17.9157
  0
LINE
  8
0
 10
4.52391
 20
17.9157
 11
4.8356
 21
18.0448
  0
LINE
  8
0
 10
4.8356
 20
18.0448
 11
5.16367
 21
18.1235
  0
LINE
  8
0
 10
5.16367
 20
18.1235
 11
5.5
 21
18.15
  0
LINE
  8
0
 10
5.5
 20
18.15
 11
5.83632
 21
18.1235
  0
LINE
  8
0
 10
5.83632
 20
18.1235
 11
6.16438
 21
18.0448
  0
LINE
  8
0
 10
6.16438
 20
18.0448
 11
6.47607
 21
17.9157
  0
LINE
  8
0
 10
6.47607
 20
17.9157
 11
6.76373
 21
17.7394
  0
LINE
  8
0
 10
6.76373
 20
17.7394
 11
7.02028
 21
17.5203
  0
LINE
  8
0
 10
7.02028
 20
17.5203
 11
7.23938
 21
17.2637
  0
LINE
  8
0
 10
7.23938
 20
17.2637
 11
7.41565
 21
16.9761
  0
LINE
  8
0
 10
7.41565
 20
16.9761
 11
7.54477
 21
16.6644
  0
LINE
  8
0
 10
7.54477
 20
16.6644
 11
7.62352
 21
16.3363
  0
LINE
  8
0
 10
7.62352
 20
16.3363
 11
7.64999
 21
16
  0
LINE
  8
0
 10
7.64999
 20
16
 11
7.62352
 21
15.6637
  0
LINE
  8
0
 10
7.62352
 20
15.6637
 11
7.54477
 21
15.3356
  0
LINE
  8
0
 10
7.54477
 20
15.3356
 11
7.41565
 21
15.0239
  0
LINE
  8
0
 10
7.41565
 20
15.0239
 11
7.23938
 21
14.7363
  0
LINE
  8
0
 10
7.23938
 20
14.7363
 11
7.02028
 21
14.4797
  0
LINE
  8
0
 10
7.02028
 20
14.4797
 11
6.76373
 21
14.2606
  0
LINE
  8
0
 10
6.76373
 20
14.2606
 11
6.47607
 21
14.0843
  0
LINE
  8
0
 10
6.47607
 20
14.0843
 11
6.16438
 21
13.9552
  0
LINE
  8
0
 10
6.16438
 20
13.9552
 11
5.83632
 21
13.8765
  0
LINE
  8
0
 10
5.83632
 20
13.8765
 11
5.5
 21
13.85
  0
LINE
  8
0
 10
5.5
 20
13.85
 11
5.16367
 21
13.8765
  0
LINE
  8
0
 10
5.16367
 20
5.87646
 11
4.8356
 21
5.95522
  0
LINE
  8
0
 10
4.8356
 20
5.95522
 11
4.52391
 21
6.08434
  0
LINE
  8
0
 10
4.52391
 20
6.08434
 11
4.23625
 21
6.2606
  0
LINE
  8
0
 10
4.23625
 20
6.2606
 11
3.97971
 21
6.47971
  0
LINE
  8
0
 10
3.97971
 20
6.47971
 11
3.7606
 21
6.73625
  0
LINE
  8
0
 10
3.7606
 20
6.73625
 11
3.58434
 21
7.02391
  0
LINE
  8
0
 10
3.58434
 20
7.02391
 11
3.45522
 21
7.3356
  0
LINE
  8
0
 10
3.45522
 20
7.3356
 11
3.37646
 21
7.66367
  0
LINE
  8
0
 10
3.37646
 20
7.66367
 11
3.34999
 21
8
  0
LINE
  8
0
 10
3.34999
 20
8
 11
3.37646
 21
8.33632
  0
LINE
  8
0
 10
3.37646
 20
8.33632
 11
3.45522
 21
8.66438
  0
LINE
  8
0
 10
3.45522
 20
8.66438
 11
3.58434
 21
8.97607
  0
LINE
  8
0
 10
3.58434
 20
8.97607
 11
3.7606
 21
9.26373
  0
LINE
  8
0
 10
3.7606
 20
9.26373
 11
3.97971
 21
9.52028
  0
LINE
  8
0
 10
3.97971
 20
9.52028
 11
4.23625
 21
9.73938
  0
LINE
  8
0
 10
4.23625
 20
9.73938
 11
4.52391
 21
9.91565
  0
LINE
  8
0
 10
4.52391
 20
9.91565
 11
4.8356
 21
10.0448
  0
LINE
  8
0
 10
4.8356
 20
10.0448
 11
5.16367
 21
10.1235
  0
LINE
  8
0
 10
5.16367
 20
10.1235
 11
5.5
 21
10.15
  0
LINE
  8
0
 10
5.5
 20
10.15
 11
5.83632
 21
10.1235
  0
LINE
  8
0
 10
5.83632
 20
10.1235
 11
6.16438
 21
10.0448
  0
LINE
  8
0
 10
6.16438
 20
10.0448
 11
6.47607
 21
9.91565
  0
LINE
  8
0
 10
6.47607
 20
9.91565
 11
6.76373
 21
9.73938
  0
LINE
  8
0
 10
6.76373
 20
9.73938
 11
7.02028
 21
9.52028
  0
LINE
  8
0
 10
7.02028
 20
9.52028
 11
7.23938
 21
9.26373
  0
LINE
  8
0
 10
7.23938
 20
9.26373
 11
7.41565
 21
8.97607
  0
LINE
  8
0
 10
7.41565
 20
8.97607
 11
7.54477
 21
8.66438
  0
LINE
  8
0
 10
7.54477
 20
8.66438
 11
7.62352
 21
8.33632
  0
LINE
  8
0
 10
7.62352
 20
8.33632
 11
7.64999
 21
8
  0
LINE
  8
0
 10
7.64999
 20
8
 11
7.62352
 21
7.66367
  0
LINE
  8
0
 10
7.62352
 20
7.66367
 11
7.54477
 21
7.3356
  0
LINE
  8
0
 10
7.54477
 20
7.3356
 11
7.41565
 21
7.02391
  0
LINE
  8
0
 10
7.41565
 20
7.02391
 11
7.23938
 21
6.73625
  0
LINE
  8
0
 10
7.23938
 20
6.73625
 11
7.02028
 21
6.47971
  0
LINE
  8
0
 10
7.02028
 20
6.47971
 11
6.76373
 21
6.2606
  0
LINE
  8
0
 10
6.76373
 20
6.2606
 11
6.47607
 21
6.08434
  0
LINE
  8
0
 10
6.47607
 20
6.08434
 11
6.16438
 21
5.95522
  0
LINE
  8
0
 10
6.16438
 20
5.95522
 11
5.83632
 21
5.87646
  0
LINE
  8
0
 10
5.83632
 20
5.87646
 11
5.5
 21
5.84999
  0
LINE
  8
0
 10
5.5
 20
5.84999
 11
5.16367
 21
5.87646
  0
LINE
  8
0
 10
-20.8363
 20
2.87646
 11
-21.1644
 21
2.95522
  0
LINE
  8
0
 10
-21.1644
 20
2.95522
 11
-21.4761
 21
3.08434
  0
LINE
  8
0
 10
-21.4761
 20
3.08434
 11
-21.7637
 21
3.2606
  0
LINE
  8
0
 10
-21.7637
 20
3.2606
 11
-22.0203
 21
3.47971
  0
LINE
  8
0
 10
-22.0203
 20
3.47971
 11
-22.2394
 21
3.73625
  0
LINE
  8
0
 10
-22.2394
 20
3.73625
 11
-22.4157
 21
4.02391
  0
LINE
  8
0
 10
-22.4157
 20
4.02391
 11
-22.5448
 21
4.3356
  0
LINE
  8
0
 10
-22.5448
 20
4.3356
 11
-22.6235
 21
4.66367
  0
LINE
  8
0
 10
-22.6235
 20
4.66367
 11
-22.65
 21
5
  0
LINE
  8
0
 10
-22.65
 20
5
 11
-22.6235
 21
5.33632
  0
LINE
  8
0
 10
-22.6235
 20
5.33632
 11
-22.5448
 21
5.66438
  0
LINE
  8
0
 10
-22.5448
 20
5.66438
 11
-22.4157
 21
5.97607
  0
LINE
  8
0
 10
-22.4157
 20
5.97607
 11
-22.2394
 21
6.26373
  0
LINE
  8
0
 10
-22.2394
 20
6.26373
 11
-22.0203
 21
6.52028
  0
LINE
  8
0
 10
-22.0203
 20
6.52028
 11
-21.7637
 21
6.73938
  0
LINE
  8
0
 10
-21.7637
 20
6.73938
 11
-21.4761
 21
6.91565
  0
LINE
  8
0
 10
-21.4761
 20
6.91565
 11
-21.1644
 21
7.04477
  0
LINE
  8
0
 10
-21.1644
 20
7.04477
 11
-20.8363
 21
7.12352
  0
LINE
  8
0
 10
-20.8363
 20
7.12352
 11
-20.5
 21
7.14999
  0
LINE
  8
0
 10
-20.5
 20
7.14999
 11
-20.1637
 21
7.12352
  0
LINE
  8
0
 10
-20.1637
 20
7.12352
 11
-19.8356
 21
7.04477
  0
LINE
  8
0
 10
-19.8356
 20
7.04477
 11
-19.5239
 21
6.91565
  0
LINE
  8
0
 10
-19.5239
 20
6.91565
 11
-19.2363
 21
6.73938
  0
LINE
  8
0
 10
-19.2363
 20
6.73938
 11
-18.9797
 21
6.52028
  0
LINE
  8
0
 10
-18.9797
 20
6.52028
 11
-18.7606
 21
6.26373
  0
LINE
  8
0
 10
-18.7606
 20
6.26373
 11
-18.5843
 21
5.97607
  0
LINE
  8
0
 10
-18.5843
 20
5.97607
 11
-18.4552
 21
5.66438
  0
LINE
  8
0
 10
-18.4552
 20
5.66438
 11
-18.3765
 21
5.33632
  0
LINE
  8
0
 10
-18.3765
 20
5.33632
 11
-18.35
 21
5
  0
LINE
  8
0
 10
-18.35
 20
5
 11
-18.3765
 21
4.66367
  0
LINE
  8
0
 10
-18.3765
 20
4.66367
 11
-18.4552
 21
4.3356
  0
LINE
  8
0
 10
-18.4552
 20
4.3356
 11
-18.5843
 21
4.02391
  0
LINE
  8
0
 10
-18.5843
 20
4.02391
 11
-18.7606
 21
3.73625
  0
LINE
  8
0
 10
-18.7606
 20
3.73625
 11
-18.9797
 21
3.47971
  0
LINE
  8
0
 10
-18.9797
 20
3.47971
 11
-19.2363
 21
3.2606
  0
LINE
  8
0
 10
-19.2363
 20
3.2606
 11
-19.5239
 21
3.08434
  0
LINE
  8
0
 10
-19.5239
 20
3.08434
 11
-19.8356
 21
2.95522
  0
LINE
  8
0
 10
-19.8356
 20
2.95522
 11
-20.1637
 21
2.87646
  0
LINE
  8
0
 10
-20.1637
 20
2.87646
 11
-20.5
 21
2.84999
  0
LINE
  8
0
 10
-20.5
 20
2.84999
 11
-20.8363
 21
2.87646
  0
LINE
  8
0
 10
-0.336319
 20
-10.1235
 11
-0.664383
 21
-10.0448
  0
LINE
  8
0
 10
-0.664383
 20
-10.0448
 11
-0.976074
 21
-9.91565
  0
LINE
  8
0
 10
-0.976074
 20
-9.91565
 11
-1.26373
 21
-9.73938
  0
LINE
  8
0
 10
-1.26373
 20
-9.73938
 11
-1.52028
 21
-9.52028
  0
LINE
  8
0
 10
-1.52028
 20
-9.52028
 11
-1.73938
 21
-9.26373
  0
LINE
  8
0
 10
-1.73938
 20
-9.26373
 11
-1.91565
 21
-8.97607
  0
LINE
  8
0
 10
-1.91565
 20
-8.97607
 11
-2.04477
 21
-8.66438
  0
LINE
  8
0
 10
-2.04477
 20
-8.66438
 11
-2.12352
 21
-8.33632
  0
LINE
  8
0
 10
-2.12352
 20
-8.33632
 11
-2.14999
 21
-8
  0
LINE
  8
0
 10
-2.14999
 20
-8
 11
-2.12352
 21
-7.66367
  0
LINE
  8
0
 10
-2.12352
 20
-7.66367
 11
-2.04477
 21
-7.3356
  0
LINE
  8
0
 10
-2.04477
 20
-7.3356
 11
-1.91565
 21
-7.02391
  0
LINE
  8
0
 10
-1.91565
 20
-7.02391
 11
-1.73938
 21
-6.73625
  0
LINE
  8
0
 10
-1.73938
 20
-6.73625
 11
-1.52028
 21
-6.47971
  0
LINE
  8
0
 10
-1.52028
 20
-6.47971
 11
-1.26373
 21
-6.2606
  0
LINE
  8
0
 10
-1.26373
 20
-6.2606
 11
-0.976074
 21
-6.08434
  0
LINE
  8
0
 10
-0.976074
 20
-6.08434
 11
-0.664383
 21
-5.95522
  0
LINE
  8
0
 10
-0.664383
 20
-5.95522
 11
-0.336319
 21
-5.87646
  0
LINE
  8
0
 10
-0.336319
 20
-5.87646
 11
0
 21
-5.84999
  0
LINE
  8
0
 10
0
 20
-5.84999
 11
0.336319
 21
-5.87646
  0
LINE
  8
0
 10
0.336319
 20
-5.87646
 11
0.664383
 21
-5.95522
  0
LINE
  8
0
 10
0.664383
 20
-5.95522
 11
0.976074
 21
-6.08434
  0
LINE
  8
0
 10
0.976074
 20
-6.08434
 11
1.26373
 21
-6.2606
  0
LINE
  8
0
 10
1.26373
 20
-6.2606
 11
1.52028
 21
-6.47971
  0
LINE
  8
0
 10
1.52028
 20
-6.47971
 11
1.73938
 21
-6.73625
  0
LINE
  8
0
 10
1.73938
 20
-6.73625
 11
1.91565
 21
-7.02391
  0
LINE
  8
0
 10
1.91565
 20
-7.02391
 11
2.04477
 21
-7.3356
  0
LINE
  8
0
 10
2.04477
 20
-7.3356
 11
2.12352
 21
-7.66367
  0
LINE
  8
0
 10
2.12352
 20
-7.66367
 11
2.14999
 21
-8
  0
LINE
  8
0
 10
2.14999
 20
-8
 11
2.12352
 21
-8.33632
  0
LINE
  8
0
 10
2.12352
 20
-8.33632
 11
2.04477
 21
-8.66438
  0
LINE
  8
0
 10
2.04477
 20
-8.66438
 11
1.91565
 21
-8.97607
  0
LINE
  8
0
 10
1.91565
 20
-8.97607
 11
1.73938
 21
-9.26373
  0
LINE
  8
0
 10
1.73938
 20
-9.26373
 11
1.52028
 21
-9.52028
  0
LINE
  8
0
 10
1.52028
 20
-9.52028
 11
1.26373
 21
-9.73938
  0
LINE
  8
0
 10
1.26373
 20
-9.73938
 11
0.976074
 21
-9.91565
  0
LINE
  8
0
 10
0.976074
 20
-9.91565
 11
0.664383
 21
-10.0448
  0
LINE
  8
0
 10
0.664383
 20
-10.0448
 11
0.336319
 21
-10.1235
  0
LINE
  8
0
 10
0.336319
 20
-10.1235
 11
0
 21
-10.15
  0
LINE
  8
0
 10
0
 20
-10.15
 11
-0.336319
 21
-10.1235
  0
ENDSEC
  0
SECTION
  2
OBJECTS
  0
DICTIONARY
  0
ENDSEC
  0
EOF
