  0
SECTION
  2
BLOCKS
  0
ENDSEC
  0
SECTION
  2
ENTITIES
  0
LINE
  8
0
 10
0.782166
 20
-60.9384
 11
1.54507
 21
-60.7553
  0
LINE
  8
0
 10
1.54507
 20
-60.7553
 11
2.26994
 21
-60.455
  0
LINE
  8
0
 10
2.26994
 20
-60.455
 11
2.93892
 21
-60.0451
  0
LINE
  8
0
 10
2.93892
 20
-60.0451
 11
3.53552
 21
-59.5355
  0
LINE
  8
0
 10
3.53552
 20
-59.5355
 11
4.04507
 21
-58.9389
  0
LINE
  8
0
 10
4.04507
 20
-58.9389
 11
4.45503
 21
-58.2699
  0
LINE
  8
0
 10
4.45503
 20
-58.2699
 11
4.75528
 21
-57.5451
  0
LINE
  8
0
 10
4.75528
 20
-57.5451
 11
4.93843
 21
-56.7822
  0
LINE
  8
0
 10
4.93843
 20
-56.7822
 11
5
 21
-56
  0
LINE
  8
0
 10
5
 20
-56
 11
5
 21
0
  0
LINE
  8
0
 10
5
 20
0
 11
4.93843
 21
0.782166
  0
LINE
  8
0
 10
4.93843
 20
0.782166
 11
4.75528
 21
1.54507
  0
LINE
  8
0
 10
4.75528
 20
1.54507
 11
4.45503
 21
2.26994
  0
LINE
  8
0
 10
4.45503
 20
2.26994
 11
4.04507
 21
2.93892
  0
LINE
  8
0
 10
4.04507
 20
2.93892
 11
3.53552
 21
3.53552
  0
LINE
  8
0
 10
3.53552
 20
3.53552
 11
2.93892
 21
4.04507
  0
LINE
  8
0
 10
2.93892
 20
4.04507
 11
2.26994
 21
4.45503
  0
LINE
  8
0
 10
2.26994
 20
4.45503
 11
1.54507
 21
4.75528
  0
LINE
  8
0
 10
1.54507
 20
4.75528
 11
0.782166
 21
4.93843
  0
LINE
  8
0
 10
0.782166
 20
4.93843
 11
0
 21
5
  0
LINE
  8
0
 10
0
 20
5
 11
-56
 21
5
  0
LINE
  8
0
 10
-56
 20
5
 11
-56.7822
 21
4.93843
  0
LINE
  8
0
 10
-56.7822
 20
4.93843
 11
-57.5451
 21
4.75528
  0
LINE
  8
0
 10
-57.5451
 20
4.75528
 11
-58.2699
 21
4.45503
  0
LINE
  8
0
 10
-58.2699
 20
4.45503
 11
-58.9389
 21
4.04507
  0
LINE
  8
0
 10
-58.9389
 20
4.04507
 11
-59.5355
 21
3.53552
  0
LINE
  8
0
 10
-59.5355
 20
3.53552
 11
-60.0451
 21
2.93892
  0
LINE
  8
0
 10
-60.0451
 20
2.93892
 11
-60.455
 21
2.26994
  0
LINE
  8
0
 10
-60.455
 20
2.26994
 11
-60.7553
 21
1.54507
  0
LINE
  8
0
 10
-60.7553
 20
1.54507
 11
-60.9384
 21
0.782166
  0
LINE
  8
0
 10
-60.9384
 20
0.782166
 11
-61
 21
0
  0
LINE
  8
0
 10
-61
 20
0
 11
-60.9384
 21
-0.782166
  0
LINE
  8
0
 10
-60.9384
 20
-0.782166
 11
-60.7553
 21
-1.54507
  0
LINE
  8
0
 10
-60.7553
 20
-1.54507
 11
-60.455
 21
-2.26994
  0
LINE
  8
0
 10
-60.455
 20
-2.26994
 11
-60.0451
 21
-2.93892
  0
LINE
  8
0
 10
-60.0451
 20
-2.93892
 11
-59.5355
 21
-3.53552
  0
LINE
  8
0
 10
-59.5355
 20
-3.53552
 11
-3.53552
 21
-59.5355
  0
LINE
  8
0
 10
-3.53552
 20
-59.5355
 11
-2.93892
 21
-60.0451
  0
LINE
  8
0
 10
-2.93892
 20
-60.0451
 11
-2.26994
 21
-60.455
  0
LINE
  8
0
 10
-2.26994
 20
-60.455
 11
-1.54507
 21
-60.7553
  0
LINE
  8
0
 10
-1.54507
 20
-60.7553
 11
-0.782166
 21
-60.9384
  0
LINE
  8
0
 10
-0.782166
 20
-60.9384
 11
0
 21
-61
  0
LINE
  8
0
 10
0
 20
-61
 11
0.782166
 21
-60.9384
  0
LINE
  8
0
 10
-48.3363
 20
-2.12352
 11
-48.6644
 21
-2.04477
  0
LINE
  8
0
 10
-48.6644
 20
-2.04477
 11
-48.9761
 21
-1.91565
  0
LINE
  8
0
 10
-48.9761
 20
-1.91565
 11
-49.2637
 21
-1.73938
  0
LINE
  8
0
 10
-49.2637
 20
-1.73938
 11
-49.5203
 21
-1.52028
  0
LINE
  8
0
 10
-49.5203
 20
-1.52028
 11
-49.7394
 21
-1.26373
  0
LINE
  8
0
 10
-49.7394
 20
-1.26373
 11
-49.9157
 21
-0.976074
  0
LINE
  8
0
 10
-49.9157
 20
-0.976074
 11
-50.0448
 21
-0.664383
  0
LINE
  8
0
 10
-50.0448
 20
-0.664383
 11
-50.1235
 21
-0.336319
  0
LINE
  8
0
 10
-50.1235
 20
-0.336319
 11
-50.15
 21
0
  0
LINE
  8
0
 10
-50.15
 20
0
 11
-50.1235
 21
0.336319
  0
LINE
  8
0
 10
-50.1235
 20
0.336319
 11
-50.0448
 21
0.664383
  0
LINE
  8
0
 10
-50.0448
 20
0.664383
 11
-49.9157
 21
0.976074
  0
LINE
  8
0
 10
-49.9157
 20
0.976074
 11
-49.7394
 21
1.26373
  0
LINE
  8
0
 10
-49.7394
 20
1.26373
 11
-49.5203
 21
1.52028
  0
LINE
  8
0
 10
-49.5203
 20
1.52028
 11
-49.2637
 21
1.73938
  0
LINE
  8
0
 10
-49.2637
 20
1.73938
 11
-48.9761
 21
1.91565
  0
LINE
  8
0
 10
-48.9761
 20
1.91565
 11
-48.6644
 21
2.04477
  0
LINE
  8
0
 10
-48.6644
 20
2.04477
 11
-48.3363
 21
2.12352
  0
LINE
  8
0
 10
-48.3363
 20
2.12352
 11
-48
 21
2.14999
  0
LINE
  8
0
 10
-48
 20
2.14999
 11
-47.6637
 21
2.12352
  0
LINE
  8
0
 10
-47.6637
 20
2.12352
 11
-47.3356
 21
2.04477
  0
LINE
  8
0
 10
-47.3356
 20
2.04477
 11
-47.0239
 21
1.91565
  0
LINE
  8
0
 10
-47.0239
 20
1.91565
 11
-46.7363
 21
1.73938
  0
LINE
  8
0
 10
-46.7363
 20
1.73938
 11
-46.4797
 21
1.52028
  0
LINE
  8
0
 10
-46.4797
 20
1.52028
 11
-46.2606
 21
1.26373
  0
LINE
  8
0
 10
-46.2606
 20
1.26373
 11
-46.0843
 21
0.976074
  0
LINE
  8
0
 10
-46.0843
 20
0.976074
 11
-45.9552
 21
0.664383
  0
LINE
  8
0
 10
-45.9552
 20
0.664383
 11
-45.8765
 21
0.336319
  0
LINE
  8
0
 10
-45.8765
 20
0.336319
 11
-45.85
 21
0
  0
LINE
  8
0
 10
-45.85
 20
0
 11
-45.8765
 21
-0.336319
  0
LINE
  8
0
 10
-45.8765
 20
-0.336319
 11
-45.9552
 21
-0.664383
  0
LINE
  8
0
 10
-45.9552
 20
-0.664383
 11
-46.0843
 21
-0.976074
  0
LINE
  8
0
 10
-46.0843
 20
-0.976074
 11
-46.2606
 21
-1.26373
  0
LINE
  8
0
 10
-46.2606
 20
-1.26373
 11
-46.4797
 21
-1.52028
  0
LINE
  8
0
 10
-46.4797
 20
-1.52028
 11
-46.7363
 21
-1.73938
  0
LINE
  8
0
 10
-46.7363
 20
-1.73938
 11
-47.0239
 21
-1.91565
  0
LINE
  8
0
 10
-47.0239
 20
-1.91565
 11
-47.3356
 21
-2.04477
  0
LINE
  8
0
 10
-47.3356
 20
-2.04477
 11
-47.6637
 21
-2.12352
  0
LINE
  8
0
 10
-47.6637
 20
-2.12352
 11
-48
 21
-2.14999
  0
LINE
  8
0
 10
-48
 20
-2.14999
 11
-48.3363
 21
-2.12352
  0
LINE
  8
0
 10
-56.3363
 20
-2.12352
 11
-56.6644
 21
-2.04477
  0
LINE
  8
0
 10
-56.6644
 20
-2.04477
 11
-56.9761
 21
-1.91565
  0
LINE
  8
0
 10
-56.9761
 20
-1.91565
 11
-57.2637
 21
-1.73938
  0
LINE
  8
0
 10
-57.2637
 20
-1.73938
 11
-57.5203
 21
-1.52028
  0
LINE
  8
0
 10
-57.5203
 20
-1.52028
 11
-57.7394
 21
-1.26373
  0
LINE
  8
0
 10
-57.7394
 20
-1.26373
 11
-57.9157
 21
-0.976074
  0
LINE
  8
0
 10
-57.9157
 20
-0.976074
 11
-58.0448
 21
-0.664383
  0
LINE
  8
0
 10
-58.0448
 20
-0.664383
 11
-58.1235
 21
-0.336319
  0
LINE
  8
0
 10
-58.1235
 20
-0.336319
 11
-58.15
 21
0
  0
LINE
  8
0
 10
-58.15
 20
0
 11
-58.1235
 21
0.336319
  0
LINE
  8
0
 10
-58.1235
 20
0.336319
 11
-58.0448
 21
0.664383
  0
LINE
  8
0
 10
-58.0448
 20
0.664383
 11
-57.9157
 21
0.976074
  0
LINE
  8
0
 10
-57.9157
 20
0.976074
 11
-57.7394
 21
1.26373
  0
LINE
  8
0
 10
-57.7394
 20
1.26373
 11
-57.5203
 21
1.52028
  0
LINE
  8
0
 10
-57.5203
 20
1.52028
 11
-57.2637
 21
1.73938
  0
LINE
  8
0
 10
-57.2637
 20
1.73938
 11
-56.9761
 21
1.91565
  0
LINE
  8
0
 10
-56.9761
 20
1.91565
 11
-56.6644
 21
2.04477
  0
LINE
  8
0
 10
-56.6644
 20
2.04477
 11
-56.3363
 21
2.12352
  0
LINE
  8
0
 10
-56.3363
 20
2.12352
 11
-56
 21
2.14999
  0
LINE
  8
0
 10
-56
 20
2.14999
 11
-55.6637
 21
2.12352
  0
LINE
  8
0
 10
-55.6637
 20
2.12352
 11
-55.3356
 21
2.04477
  0
LINE
  8
0
 10
-55.3356
 20
2.04477
 11
-55.0239
 21
1.91565
  0
LINE
  8
0
 10
-55.0239
 20
1.91565
 11
-54.7363
 21
1.73938
  0
LINE
  8
0
 10
-54.7363
 20
1.73938
 11
-54.4797
 21
1.52028
  0
LINE
  8
0
 10
-54.4797
 20
1.52028
 11
-54.2606
 21
1.26373
  0
LINE
  8
0
 10
-54.2606
 20
1.26373
 11
-54.0843
 21
0.976074
  0
LINE
  8
0
 10
-54.0843
 20
0.976074
 11
-53.9552
 21
0.664383
  0
LINE
  8
0
 10
-53.9552
 20
0.664383
 11
-53.8765
 21
0.336319
  0
LINE
  8
0
 10
-53.8765
 20
0.336319
 11
-53.85
 21
0
  0
LINE
  8
0
 10
-53.85
 20
0
 11
-53.8765
 21
-0.336319
  0
LINE
  8
0
 10
-53.8765
 20
-0.336319
 11
-53.9552
 21
-0.664383
  0
LINE
  8
0
 10
-53.9552
 20
-0.664383
 11
-54.0843
 21
-0.976074
  0
LINE
  8
0
 10
-54.0843
 20
-0.976074
 11
-54.2606
 21
-1.26373
  0
LINE
  8
0
 10
-54.2606
 20
-1.26373
 11
-54.4797
 21
-1.52028
  0
LINE
  8
0
 10
-54.4797
 20
-1.52028
 11
-54.7363
 21
-1.73938
  0
LINE
  8
0
 10
-54.7363
 20
-1.73938
 11
-55.0239
 21
-1.91565
  0
LINE
  8
0
 10
-55.0239
 20
-1.91565
 11
-55.3356
 21
-2.04477
  0
LINE
  8
0
 10
-55.3356
 20
-2.04477
 11
-55.6637
 21
-2.12352
  0
LINE
  8
0
 10
-55.6637
 20
-2.12352
 11
-56
 21
-2.14999
  0
LINE
  8
0
 10
-56
 20
-2.14999
 11
-56.3363
 21
-2.12352
  0
LINE
  8
0
 10
-32.3363
 20
-2.12352
 11
-32.6644
 21
-2.04477
  0
LINE
  8
0
 10
-32.6644
 20
-2.04477
 11
-32.9761
 21
-1.91565
  0
LINE
  8
0
 10
-32.9761
 20
-1.91565
 11
-33.2637
 21
-1.73938
  0
LINE
  8
0
 10
-33.2637
 20
-1.73938
 11
-33.5203
 21
-1.52028
  0
LINE
  8
0
 10
-33.5203
 20
-1.52028
 11
-33.7394
 21
-1.26373
  0
LINE
  8
0
 10
-33.7394
 20
-1.26373
 11
-33.9157
 21
-0.976074
  0
LINE
  8
0
 10
-33.9157
 20
-0.976074
 11
-34.0448
 21
-0.664383
  0
LINE
  8
0
 10
-34.0448
 20
-0.664383
 11
-34.1235
 21
-0.336319
  0
LINE
  8
0
 10
-34.1235
 20
-0.336319
 11
-34.15
 21
0
  0
LINE
  8
0
 10
-34.15
 20
0
 11
-34.1235
 21
0.336319
  0
LINE
  8
0
 10
-34.1235
 20
0.336319
 11
-34.0448
 21
0.664383
  0
LINE
  8
0
 10
-34.0448
 20
0.664383
 11
-33.9157
 21
0.976074
  0
LINE
  8
0
 10
-33.9157
 20
0.976074
 11
-33.7394
 21
1.26373
  0
LINE
  8
0
 10
-33.7394
 20
1.26373
 11
-33.5203
 21
1.52028
  0
LINE
  8
0
 10
-33.5203
 20
1.52028
 11
-33.2637
 21
1.73938
  0
LINE
  8
0
 10
-33.2637
 20
1.73938
 11
-32.9761
 21
1.91565
  0
LINE
  8
0
 10
-32.9761
 20
1.91565
 11
-32.6644
 21
2.04477
  0
LINE
  8
0
 10
-32.6644
 20
2.04477
 11
-32.3363
 21
2.12352
  0
LINE
  8
0
 10
-32.3363
 20
2.12352
 11
-32
 21
2.14999
  0
LINE
  8
0
 10
-32
 20
2.14999
 11
-31.6637
 21
2.12352
  0
LINE
  8
0
 10
-31.6637
 20
2.12352
 11
-31.3356
 21
2.04477
  0
LINE
  8
0
 10
-31.3356
 20
2.04477
 11
-31.0239
 21
1.91565
  0
LINE
  8
0
 10
-31.0239
 20
1.91565
 11
-30.7363
 21
1.73938
  0
LINE
  8
0
 10
-30.7363
 20
1.73938
 11
-30.4797
 21
1.52028
  0
LINE
  8
0
 10
-30.4797
 20
1.52028
 11
-30.2606
 21
1.26373
  0
LINE
  8
0
 10
-30.2606
 20
1.26373
 11
-30.0843
 21
0.976074
  0
LINE
  8
0
 10
-30.0843
 20
0.976074
 11
-29.9552
 21
0.664383
  0
LINE
  8
0
 10
-29.9552
 20
0.664383
 11
-29.8765
 21
0.336319
  0
LINE
  8
0
 10
-29.8765
 20
0.336319
 11
-29.85
 21
0
  0
LINE
  8
0
 10
-29.85
 20
0
 11
-29.8765
 21
-0.336319
  0
LINE
  8
0
 10
-29.8765
 20
-0.336319
 11
-29.9552
 21
-0.664383
  0
LINE
  8
0
 10
-29.9552
 20
-0.664383
 11
-30.0843
 21
-0.976074
  0
LINE
  8
0
 10
-30.0843
 20
-0.976074
 11
-30.2606
 21
-1.26373
  0
LINE
  8
0
 10
-30.2606
 20
-1.26373
 11
-30.4797
 21
-1.52028
  0
LINE
  8
0
 10
-30.4797
 20
-1.52028
 11
-30.7363
 21
-1.73938
  0
LINE
  8
0
 10
-30.7363
 20
-1.73938
 11
-31.0239
 21
-1.91565
  0
LINE
  8
0
 10
-31.0239
 20
-1.91565
 11
-31.3356
 21
-2.04477
  0
LINE
  8
0
 10
-31.3356
 20
-2.04477
 11
-31.6637
 21
-2.12352
  0
LINE
  8
0
 10
-31.6637
 20
-2.12352
 11
-32
 21
-2.14999
  0
LINE
  8
0
 10
-32
 20
-2.14999
 11
-32.3363
 21
-2.12352
  0
LINE
  8
0
 10
-8.33632
 20
-2.12352
 11
-8.66438
 21
-2.04477
  0
LINE
  8
0
 10
-8.66438
 20
-2.04477
 11
-8.97607
 21
-1.91565
  0
LINE
  8
0
 10
-8.97607
 20
-1.91565
 11
-9.26373
 21
-1.73938
  0
LINE
  8
0
 10
-9.26373
 20
-1.73938
 11
-9.52028
 21
-1.52028
  0
LINE
  8
0
 10
-9.52028
 20
-1.52028
 11
-9.73938
 21
-1.26373
  0
LINE
  8
0
 10
-9.73938
 20
-1.26373
 11
-9.91565
 21
-0.976074
  0
LINE
  8
0
 10
-9.91565
 20
-0.976074
 11
-10.0448
 21
-0.664383
  0
LINE
  8
0
 10
-10.0448
 20
-0.664383
 11
-10.1235
 21
-0.336319
  0
LINE
  8
0
 10
-10.1235
 20
-0.336319
 11
-10.15
 21
0
  0
LINE
  8
0
 10
-10.15
 20
0
 11
-10.1235
 21
0.336319
  0
LINE
  8
0
 10
-10.1235
 20
0.336319
 11
-10.0448
 21
0.664383
  0
LINE
  8
0
 10
-10.0448
 20
0.664383
 11
-9.91565
 21
0.976074
  0
LINE
  8
0
 10
-9.91565
 20
0.976074
 11
-9.73938
 21
1.26373
  0
LINE
  8
0
 10
-9.73938
 20
1.26373
 11
-9.52028
 21
1.52028
  0
LINE
  8
0
 10
-9.52028
 20
1.52028
 11
-9.26373
 21
1.73938
  0
LINE
  8
0
 10
-9.26373
 20
1.73938
 11
-8.97607
 21
1.91565
  0
LINE
  8
0
 10
-8.97607
 20
1.91565
 11
-8.66438
 21
2.04477
  0
LINE
  8
0
 10
-8.66438
 20
2.04477
 11
-8.33632
 21
2.12352
  0
LINE
  8
0
 10
-8.33632
 20
2.12352
 11
-8
 21
2.14999
  0
LINE
  8
0
 10
-8
 20
2.14999
 11
-7.66367
 21
2.12352
  0
LINE
  8
0
 10
-7.66367
 20
2.12352
 11
-7.3356
 21
2.04477
  0
LINE
  8
0
 10
-7.3356
 20
2.04477
 11
-7.02391
 21
1.91565
  0
LINE
  8
0
 10
-7.02391
 20
1.91565
 11
-6.73625
 21
1.73938
  0
LINE
  8
0
 10
-6.73625
 20
1.73938
 11
-6.47971
 21
1.52028
  0
LINE
  8
0
 10
-6.47971
 20
1.52028
 11
-6.2606
 21
1.26373
  0
LINE
  8
0
 10
-6.2606
 20
1.26373
 11
-6.08434
 21
0.976074
  0
LINE
  8
0
 10
-6.08434
 20
0.976074
 11
-5.95522
 21
0.664383
  0
LINE
  8
0
 10
-5.95522
 20
0.664383
 11
-5.87646
 21
0.336319
  0
LINE
  8
0
 10
-5.87646
 20
0.336319
 11
-5.84999
 21
0
  0
LINE
  8
0
 10
-5.84999
 20
0
 11
-5.87646
 21
-0.336319
  0
LINE
  8
0
 10
-5.87646
 20
-0.336319
 11
-5.95522
 21
-0.664383
  0
LINE
  8
0
 10
-5.95522
 20
-0.664383
 11
-6.08434
 21
-0.976074
  0
LINE
  8
0
 10
-6.08434
 20
-0.976074
 11
-6.2606
 21
-1.26373
  0
LINE
  8
0
 10
-6.2606
 20
-1.26373
 11
-6.47971
 21
-1.52028
  0
LINE
  8
0
 10
-6.47971
 20
-1.52028
 11
-6.73625
 21
-1.73938
  0
LINE
  8
0
 10
-6.73625
 20
-1.73938
 11
-7.02391
 21
-1.91565
  0
LINE
  8
0
 10
-7.02391
 20
-1.91565
 11
-7.3356
 21
-2.04477
  0
LINE
  8
0
 10
-7.3356
 20
-2.04477
 11
-7.66367
 21
-2.12352
  0
LINE
  8
0
 10
-7.66367
 20
-2.12352
 11
-8
 21
-2.14999
  0
LINE
  8
0
 10
-8
 20
-2.14999
 11
-8.33632
 21
-2.12352
  0
LINE
  8
0
 10
-40.3363
 20
-2.12352
 11
-40.6644
 21
-2.04477
  0
LINE
  8
0
 10
-40.6644
 20
-2.04477
 11
-40.9761
 21
-1.91565
  0
LINE
  8
0
 10
-40.9761
 20
-1.91565
 11
-41.2637
 21
-1.73938
  0
LINE
  8
0
 10
-41.2637
 20
-1.73938
 11
-41.5203
 21
-1.52028
  0
LINE
  8
0
 10
-41.5203
 20
-1.52028
 11
-41.7394
 21
-1.26373
  0
LINE
  8
0
 10
-41.7394
 20
-1.26373
 11
-41.9157
 21
-0.976074
  0
LINE
  8
0
 10
-41.9157
 20
-0.976074
 11
-42.0448
 21
-0.664383
  0
LINE
  8
0
 10
-42.0448
 20
-0.664383
 11
-42.1235
 21
-0.336319
  0
LINE
  8
0
 10
-42.1235
 20
-0.336319
 11
-42.15
 21
0
  0
LINE
  8
0
 10
-42.15
 20
0
 11
-42.1235
 21
0.336319
  0
LINE
  8
0
 10
-42.1235
 20
0.336319
 11
-42.0448
 21
0.664383
  0
LINE
  8
0
 10
-42.0448
 20
0.664383
 11
-41.9157
 21
0.976074
  0
LINE
  8
0
 10
-41.9157
 20
0.976074
 11
-41.7394
 21
1.26373
  0
LINE
  8
0
 10
-41.7394
 20
1.26373
 11
-41.5203
 21
1.52028
  0
LINE
  8
0
 10
-41.5203
 20
1.52028
 11
-41.2637
 21
1.73938
  0
LINE
  8
0
 10
-41.2637
 20
1.73938
 11
-40.9761
 21
1.91565
  0
LINE
  8
0
 10
-40.9761
 20
1.91565
 11
-40.6644
 21
2.04477
  0
LINE
  8
0
 10
-40.6644
 20
2.04477
 11
-40.3363
 21
2.12352
  0
LINE
  8
0
 10
-40.3363
 20
2.12352
 11
-40
 21
2.14999
  0
LINE
  8
0
 10
-40
 20
2.14999
 11
-39.6637
 21
2.12352
  0
LINE
  8
0
 10
-39.6637
 20
2.12352
 11
-39.3356
 21
2.04477
  0
LINE
  8
0
 10
-39.3356
 20
2.04477
 11
-39.0239
 21
1.91565
  0
LINE
  8
0
 10
-39.0239
 20
1.91565
 11
-38.7363
 21
1.73938
  0
LINE
  8
0
 10
-38.7363
 20
1.73938
 11
-38.4797
 21
1.52028
  0
LINE
  8
0
 10
-38.4797
 20
1.52028
 11
-38.2606
 21
1.26373
  0
LINE
  8
0
 10
-38.2606
 20
1.26373
 11
-38.0843
 21
0.976074
  0
LINE
  8
0
 10
-38.0843
 20
0.976074
 11
-37.9552
 21
0.664383
  0
LINE
  8
0
 10
-37.9552
 20
0.664383
 11
-37.8765
 21
0.336319
  0
LINE
  8
0
 10
-37.8765
 20
0.336319
 11
-37.85
 21
0
  0
LINE
  8
0
 10
-37.85
 20
0
 11
-37.8765
 21
-0.336319
  0
LINE
  8
0
 10
-37.8765
 20
-0.336319
 11
-37.9552
 21
-0.664383
  0
LINE
  8
0
 10
-37.9552
 20
-0.664383
 11
-38.0843
 21
-0.976074
  0
LINE
  8
0
 10
-38.0843
 20
-0.976074
 11
-38.2606
 21
-1.26373
  0
LINE
  8
0
 10
-38.2606
 20
-1.26373
 11
-38.4797
 21
-1.52028
  0
LINE
  8
0
 10
-38.4797
 20
-1.52028
 11
-38.7363
 21
-1.73938
  0
LINE
  8
0
 10
-38.7363
 20
-1.73938
 11
-39.0239
 21
-1.91565
  0
LINE
  8
0
 10
-39.0239
 20
-1.91565
 11
-39.3356
 21
-2.04477
  0
LINE
  8
0
 10
-39.3356
 20
-2.04477
 11
-39.6637
 21
-2.12352
  0
LINE
  8
0
 10
-39.6637
 20
-2.12352
 11
-40
 21
-2.14999
  0
LINE
  8
0
 10
-40
 20
-2.14999
 11
-40.3363
 21
-2.12352
  0
LINE
  8
0
 10
-0.336319
 20
-2.12352
 11
-0.664383
 21
-2.04477
  0
LINE
  8
0
 10
-0.664383
 20
-2.04477
 11
-0.976074
 21
-1.91565
  0
LINE
  8
0
 10
-0.976074
 20
-1.91565
 11
-1.26373
 21
-1.73938
  0
LINE
  8
0
 10
-1.26373
 20
-1.73938
 11
-1.52028
 21
-1.52028
  0
LINE
  8
0
 10
-1.52028
 20
-1.52028
 11
-1.73938
 21
-1.26373
  0
LINE
  8
0
 10
-1.73938
 20
-1.26373
 11
-1.91565
 21
-0.976074
  0
LINE
  8
0
 10
-1.91565
 20
-0.976074
 11
-2.04477
 21
-0.664383
  0
LINE
  8
0
 10
-2.04477
 20
-0.664383
 11
-2.12352
 21
-0.336319
  0
LINE
  8
0
 10
-2.12352
 20
-0.336319
 11
-2.14999
 21
0
  0
LINE
  8
0
 10
-2.14999
 20
0
 11
-2.12352
 21
0.336319
  0
LINE
  8
0
 10
-2.12352
 20
0.336319
 11
-2.04477
 21
0.664383
  0
LINE
  8
0
 10
-2.04477
 20
0.664383
 11
-1.91565
 21
0.976074
  0
LINE
  8
0
 10
-1.91565
 20
0.976074
 11
-1.73938
 21
1.26373
  0
LINE
  8
0
 10
-1.73938
 20
1.26373
 11
-1.52028
 21
1.52028
  0
LINE
  8
0
 10
-1.52028
 20
1.52028
 11
-1.26373
 21
1.73938
  0
LINE
  8
0
 10
-1.26373
 20
1.73938
 11
-0.976074
 21
1.91565
  0
LINE
  8
0
 10
-0.976074
 20
1.91565
 11
-0.664383
 21
2.04477
  0
LINE
  8
0
 10
-0.664383
 20
2.04477
 11
-0.336319
 21
2.12352
  0
LINE
  8
0
 10
-0.336319
 20
2.12352
 11
0
 21
2.14999
  0
LINE
  8
0
 10
0
 20
2.14999
 11
0.336319
 21
2.12352
  0
LINE
  8
0
 10
0.336319
 20
2.12352
 11
0.664383
 21
2.04477
  0
LINE
  8
0
 10
0.664383
 20
2.04477
 11
0.976074
 21
1.91565
  0
LINE
  8
0
 10
0.976074
 20
1.91565
 11
1.26373
 21
1.73938
  0
LINE
  8
0
 10
1.26373
 20
1.73938
 11
1.52028
 21
1.52028
  0
LINE
  8
0
 10
1.52028
 20
1.52028
 11
1.73938
 21
1.26373
  0
LINE
  8
0
 10
1.73938
 20
1.26373
 11
1.91565
 21
0.976074
  0
LINE
  8
0
 10
1.91565
 20
0.976074
 11
2.04477
 21
0.664383
  0
LINE
  8
0
 10
2.04477
 20
0.664383
 11
2.12352
 21
0.336319
  0
LINE
  8
0
 10
2.12352
 20
0.336319
 11
2.14999
 21
0
  0
LINE
  8
0
 10
2.14999
 20
0
 11
2.12352
 21
-0.336319
  0
LINE
  8
0
 10
2.12352
 20
-0.336319
 11
2.04477
 21
-0.664383
  0
LINE
  8
0
 10
2.04477
 20
-0.664383
 11
1.91565
 21
-0.976074
  0
LINE
  8
0
 10
1.91565
 20
-0.976074
 11
1.73938
 21
-1.26373
  0
LINE
  8
0
 10
1.73938
 20
-1.26373
 11
1.52028
 21
-1.52028
  0
LINE
  8
0
 10
1.52028
 20
-1.52028
 11
1.26373
 21
-1.73938
  0
LINE
  8
0
 10
1.26373
 20
-1.73938
 11
0.976074
 21
-1.91565
  0
LINE
  8
0
 10
0.976074
 20
-1.91565
 11
0.664383
 21
-2.04477
  0
LINE
  8
0
 10
0.664383
 20
-2.04477
 11
0.336319
 21
-2.12352
  0
LINE
  8
0
 10
0.336319
 20
-2.12352
 11
0
 21
-2.14999
  0
LINE
  8
0
 10
0
 20
-2.14999
 11
-0.336319
 21
-2.12352
  0
LINE
  8
0
 10
-24.3363
 20
-2.12352
 11
-24.6644
 21
-2.04477
  0
LINE
  8
0
 10
-24.6644
 20
-2.04477
 11
-24.9761
 21
-1.91565
  0
LINE
  8
0
 10
-24.9761
 20
-1.91565
 11
-25.2637
 21
-1.73938
  0
LINE
  8
0
 10
-25.2637
 20
-1.73938
 11
-25.5203
 21
-1.52028
  0
LINE
  8
0
 10
-25.5203
 20
-1.52028
 11
-25.7394
 21
-1.26373
  0
LINE
  8
0
 10
-25.7394
 20
-1.26373
 11
-25.9157
 21
-0.976074
  0
LINE
  8
0
 10
-25.9157
 20
-0.976074
 11
-26.0448
 21
-0.664383
  0
LINE
  8
0
 10
-26.0448
 20
-0.664383
 11
-26.1235
 21
-0.336319
  0
LINE
  8
0
 10
-26.1235
 20
-0.336319
 11
-26.15
 21
0
  0
LINE
  8
0
 10
-26.15
 20
0
 11
-26.1235
 21
0.336319
  0
LINE
  8
0
 10
-26.1235
 20
0.336319
 11
-26.0448
 21
0.664383
  0
LINE
  8
0
 10
-26.0448
 20
0.664383
 11
-25.9157
 21
0.976074
  0
LINE
  8
0
 10
-25.9157
 20
0.976074
 11
-25.7394
 21
1.26373
  0
LINE
  8
0
 10
-25.7394
 20
1.26373
 11
-25.5203
 21
1.52028
  0
LINE
  8
0
 10
-25.5203
 20
1.52028
 11
-25.2637
 21
1.73938
  0
LINE
  8
0
 10
-25.2637
 20
1.73938
 11
-24.9761
 21
1.91565
  0
LINE
  8
0
 10
-24.9761
 20
1.91565
 11
-24.6644
 21
2.04477
  0
LINE
  8
0
 10
-24.6644
 20
2.04477
 11
-24.3363
 21
2.12352
  0
LINE
  8
0
 10
-24.3363
 20
2.12352
 11
-24
 21
2.14999
  0
LINE
  8
0
 10
-24
 20
2.14999
 11
-23.6637
 21
2.12352
  0
LINE
  8
0
 10
-23.6637
 20
2.12352
 11
-23.3356
 21
2.04477
  0
LINE
  8
0
 10
-23.3356
 20
2.04477
 11
-23.0239
 21
1.91565
  0
LINE
  8
0
 10
-23.0239
 20
1.91565
 11
-22.7363
 21
1.73938
  0
LINE
  8
0
 10
-22.7363
 20
1.73938
 11
-22.4797
 21
1.52028
  0
LINE
  8
0
 10
-22.4797
 20
1.52028
 11
-22.2606
 21
1.26373
  0
LINE
  8
0
 10
-22.2606
 20
1.26373
 11
-22.0843
 21
0.976074
  0
LINE
  8
0
 10
-22.0843
 20
0.976074
 11
-21.9552
 21
0.664383
  0
LINE
  8
0
 10
-21.9552
 20
0.664383
 11
-21.8765
 21
0.336319
  0
LINE
  8
0
 10
-21.8765
 20
0.336319
 11
-21.85
 21
0
  0
LINE
  8
0
 10
-21.85
 20
0
 11
-21.8765
 21
-0.336319
  0
LINE
  8
0
 10
-21.8765
 20
-0.336319
 11
-21.9552
 21
-0.664383
  0
LINE
  8
0
 10
-21.9552
 20
-0.664383
 11
-22.0843
 21
-0.976074
  0
LINE
  8
0
 10
-22.0843
 20
-0.976074
 11
-22.2606
 21
-1.26373
  0
LINE
  8
0
 10
-22.2606
 20
-1.26373
 11
-22.4797
 21
-1.52028
  0
LINE
  8
0
 10
-22.4797
 20
-1.52028
 11
-22.7363
 21
-1.73938
  0
LINE
  8
0
 10
-22.7363
 20
-1.73938
 11
-23.0239
 21
-1.91565
  0
LINE
  8
0
 10
-23.0239
 20
-1.91565
 11
-23.3356
 21
-2.04477
  0
LINE
  8
0
 10
-23.3356
 20
-2.04477
 11
-23.6637
 21
-2.12352
  0
LINE
  8
0
 10
-23.6637
 20
-2.12352
 11
-24
 21
-2.14999
  0
LINE
  8
0
 10
-24
 20
-2.14999
 11
-24.3363
 21
-2.12352
  0
LINE
  8
0
 10
-15.3356
 20
2.04477
 11
-15.0239
 21
1.91565
  0
LINE
  8
0
 10
-15.0239
 20
1.91565
 11
-14.7363
 21
1.73938
  0
LINE
  8
0
 10
-14.7363
 20
1.73938
 11
-14.4797
 21
1.52028
  0
LINE
  8
0
 10
-14.4797
 20
1.52028
 11
-14.2606
 21
1.26373
  0
LINE
  8
0
 10
-14.2606
 20
1.26373
 11
-14.0843
 21
0.976074
  0
LINE
  8
0
 10
-14.0843
 20
0.976074
 11
-13.9552
 21
0.664383
  0
LINE
  8
0
 10
-13.9552
 20
0.664383
 11
-13.8765
 21
0.336319
  0
LINE
  8
0
 10
-13.8765
 20
0.336319
 11
-13.85
 21
0
  0
LINE
  8
0
 10
-13.85
 20
0
 11
-13.8765
 21
-0.336319
  0
LINE
  8
0
 10
-13.8765
 20
-0.336319
 11
-13.9552
 21
-0.664383
  0
LINE
  8
0
 10
-13.9552
 20
-0.664383
 11
-14.0843
 21
-0.976074
  0
LINE
  8
0
 10
-14.0843
 20
-0.976074
 11
-14.2606
 21
-1.26373
  0
LINE
  8
0
 10
-14.2606
 20
-1.26373
 11
-14.4797
 21
-1.52028
  0
LINE
  8
0
 10
-14.4797
 20
-1.52028
 11
-14.7363
 21
-1.73938
  0
LINE
  8
0
 10
-14.7363
 20
-1.73938
 11
-15.0239
 21
-1.91565
  0
LINE
  8
0
 10
-15.0239
 20
-1.91565
 11
-15.3356
 21
-2.04477
  0
LINE
  8
0
 10
-15.3356
 20
-2.04477
 11
-15.6637
 21
-2.12352
  0
LINE
  8
0
 10
-15.6637
 20
-2.12352
 11
-16
 21
-2.14999
  0
LINE
  8
0
 10
-16
 20
-2.14999
 11
-16.3363
 21
-2.12352
  0
LINE
  8
0
 10
-16.3363
 20
-2.12352
 11
-16.6644
 21
-2.04477
  0
LINE
  8
0
 10
-16.6644
 20
-2.04477
 11
-16.9761
 21
-1.91565
  0
LINE
  8
0
 10
-16.9761
 20
-1.91565
 11
-17.2637
 21
-1.73938
  0
LINE
  8
0
 10
-17.2637
 20
-1.73938
 11
-17.5203
 21
-1.52028
  0
LINE
  8
0
 10
-17.5203
 20
-1.52028
 11
-17.7394
 21
-1.26373
  0
LINE
  8
0
 10
-17.7394
 20
-1.26373
 11
-17.9157
 21
-0.976074
  0
LINE
  8
0
 10
-17.9157
 20
-0.976074
 11
-18.0448
 21
-0.664383
  0
LINE
  8
0
 10
-18.0448
 20
-0.664383
 11
-18.1235
 21
-0.336319
  0
LINE
  8
0
 10
-18.1235
 20
-0.336319
 11
-18.15
 21
0
  0
LINE
  8
0
 10
-18.15
 20
0
 11
-18.1235
 21
0.336319
  0
LINE
  8
0
 10
-18.1235
 20
0.336319
 11
-18.0448
 21
0.664383
  0
LINE
  8
0
 10
-18.0448
 20
0.664383
 11
-17.9157
 21
0.976074
  0
LINE
  8
0
 10
-17.9157
 20
0.976074
 11
-17.7394
 21
1.26373
  0
LINE
  8
0
 10
-17.7394
 20
1.26373
 11
-17.5203
 21
1.52028
  0
LINE
  8
0
 10
-17.5203
 20
1.52028
 11
-17.2637
 21
1.73938
  0
LINE
  8
0
 10
-17.2637
 20
1.73938
 11
-16.9761
 21
1.91565
  0
LINE
  8
0
 10
-16.9761
 20
1.91565
 11
-16.6644
 21
2.04477
  0
LINE
  8
0
 10
-16.6644
 20
2.04477
 11
-16.3363
 21
2.12352
  0
LINE
  8
0
 10
-16.3363
 20
2.12352
 11
-16
 21
2.14999
  0
LINE
  8
0
 10
-16
 20
2.14999
 11
-15.6637
 21
2.12352
  0
LINE
  8
0
 10
-15.6637
 20
2.12352
 11
-15.3356
 21
2.04477
  0
LINE
  8
0
 10
-48.3363
 20
-10.1235
 11
-48.6644
 21
-10.0448
  0
LINE
  8
0
 10
-48.6644
 20
-10.0448
 11
-48.9761
 21
-9.91565
  0
LINE
  8
0
 10
-48.9761
 20
-9.91565
 11
-49.2637
 21
-9.73938
  0
LINE
  8
0
 10
-49.2637
 20
-9.73938
 11
-49.5203
 21
-9.52028
  0
LINE
  8
0
 10
-49.5203
 20
-9.52028
 11
-49.7394
 21
-9.26373
  0
LINE
  8
0
 10
-49.7394
 20
-9.26373
 11
-49.9157
 21
-8.97607
  0
LINE
  8
0
 10
-49.9157
 20
-8.97607
 11
-50.0448
 21
-8.66438
  0
LINE
  8
0
 10
-50.0448
 20
-8.66438
 11
-50.1235
 21
-8.33632
  0
LINE
  8
0
 10
-50.1235
 20
-8.33632
 11
-50.15
 21
-8
  0
LINE
  8
0
 10
-50.15
 20
-8
 11
-50.1235
 21
-7.66367
  0
LINE
  8
0
 10
-50.1235
 20
-7.66367
 11
-50.0448
 21
-7.3356
  0
LINE
  8
0
 10
-50.0448
 20
-7.3356
 11
-49.9157
 21
-7.02391
  0
LINE
  8
0
 10
-49.9157
 20
-7.02391
 11
-49.7394
 21
-6.73625
  0
LINE
  8
0
 10
-49.7394
 20
-6.73625
 11
-49.5203
 21
-6.47971
  0
LINE
  8
0
 10
-49.5203
 20
-6.47971
 11
-49.2637
 21
-6.2606
  0
LINE
  8
0
 10
-49.2637
 20
-6.2606
 11
-48.9761
 21
-6.08434
  0
LINE
  8
0
 10
-48.9761
 20
-6.08434
 11
-48.6644
 21
-5.95522
  0
LINE
  8
0
 10
-48.6644
 20
-5.95522
 11
-48.3363
 21
-5.87646
  0
LINE
  8
0
 10
-48.3363
 20
-5.87646
 11
-48
 21
-5.84999
  0
LINE
  8
0
 10
-48
 20
-5.84999
 11
-47.6637
 21
-5.87646
  0
LINE
  8
0
 10
-47.6637
 20
-5.87646
 11
-47.3356
 21
-5.95522
  0
LINE
  8
0
 10
-47.3356
 20
-5.95522
 11
-47.0239
 21
-6.08434
  0
LINE
  8
0
 10
-47.0239
 20
-6.08434
 11
-46.7363
 21
-6.2606
  0
LINE
  8
0
 10
-46.7363
 20
-6.2606
 11
-46.4797
 21
-6.47971
  0
LINE
  8
0
 10
-46.4797
 20
-6.47971
 11
-46.2606
 21
-6.73625
  0
LINE
  8
0
 10
-46.2606
 20
-6.73625
 11
-46.0843
 21
-7.02391
  0
LINE
  8
0
 10
-46.0843
 20
-7.02391
 11
-45.9552
 21
-7.3356
  0
LINE
  8
0
 10
-45.9552
 20
-7.3356
 11
-45.8765
 21
-7.66367
  0
LINE
  8
0
 10
-45.8765
 20
-7.66367
 11
-45.85
 21
-8
  0
LINE
  8
0
 10
-45.85
 20
-8
 11
-45.8765
 21
-8.33632
  0
LINE
  8
0
 10
-45.8765
 20
-8.33632
 11
-45.9552
 21
-8.66438
  0
LINE
  8
0
 10
-45.9552
 20
-8.66438
 11
-46.0843
 21
-8.97607
  0
LINE
  8
0
 10
-46.0843
 20
-8.97607
 11
-46.2606
 21
-9.26373
  0
LINE
  8
0
 10
-46.2606
 20
-9.26373
 11
-46.4797
 21
-9.52028
  0
LINE
  8
0
 10
-46.4797
 20
-9.52028
 11
-46.7363
 21
-9.73938
  0
LINE
  8
0
 10
-46.7363
 20
-9.73938
 11
-47.0239
 21
-9.91565
  0
LINE
  8
0
 10
-47.0239
 20
-9.91565
 11
-47.3356
 21
-10.0448
  0
LINE
  8
0
 10
-47.3356
 20
-10.0448
 11
-47.6637
 21
-10.1235
  0
LINE
  8
0
 10
-47.6637
 20
-10.1235
 11
-48
 21
-10.15
  0
LINE
  8
0
 10
-48
 20
-10.15
 11
-48.3363
 21
-10.1235
  0
LINE
  8
0
 10
-0.336319
 20
-10.1235
 11
-0.664383
 21
-10.0448
  0
LINE
  8
0
 10
-0.664383
 20
-10.0448
 11
-0.976074
 21
-9.91565
  0
LINE
  8
0
 10
-0.976074
 20
-9.91565
 11
-1.26373
 21
-9.73938
  0
LINE
  8
0
 10
-1.26373
 20
-9.73938
 11
-1.52028
 21
-9.52028
  0
LINE
  8
0
 10
-1.52028
 20
-9.52028
 11
-1.73938
 21
-9.26373
  0
LINE
  8
0
 10
-1.73938
 20
-9.26373
 11
-1.91565
 21
-8.97607
  0
LINE
  8
0
 10
-1.91565
 20
-8.97607
 11
-2.04477
 21
-8.66438
  0
LINE
  8
0
 10
-2.04477
 20
-8.66438
 11
-2.12352
 21
-8.33632
  0
LINE
  8
0
 10
-2.12352
 20
-8.33632
 11
-2.14999
 21
-8
  0
LINE
  8
0
 10
-2.14999
 20
-8
 11
-2.12352
 21
-7.66367
  0
LINE
  8
0
 10
-2.12352
 20
-7.66367
 11
-2.04477
 21
-7.3356
  0
LINE
  8
0
 10
-2.04477
 20
-7.3356
 11
-1.91565
 21
-7.02391
  0
LINE
  8
0
 10
-1.91565
 20
-7.02391
 11
-1.73938
 21
-6.73625
  0
LINE
  8
0
 10
-1.73938
 20
-6.73625
 11
-1.52028
 21
-6.47971
  0
LINE
  8
0
 10
-1.52028
 20
-6.47971
 11
-1.26373
 21
-6.2606
  0
LINE
  8
0
 10
-1.26373
 20
-6.2606
 11
-0.976074
 21
-6.08434
  0
LINE
  8
0
 10
-0.976074
 20
-6.08434
 11
-0.664383
 21
-5.95522
  0
LINE
  8
0
 10
-0.664383
 20
-5.95522
 11
-0.336319
 21
-5.87646
  0
LINE
  8
0
 10
-0.336319
 20
-5.87646
 11
0
 21
-5.84999
  0
LINE
  8
0
 10
0
 20
-5.84999
 11
0.336319
 21
-5.87646
  0
LINE
  8
0
 10
0.336319
 20
-5.87646
 11
0.664383
 21
-5.95522
  0
LINE
  8
0
 10
0.664383
 20
-5.95522
 11
0.976074
 21
-6.08434
  0
LINE
  8
0
 10
0.976074
 20
-6.08434
 11
1.26373
 21
-6.2606
  0
LINE
  8
0
 10
1.26373
 20
-6.2606
 11
1.52028
 21
-6.47971
  0
LINE
  8
0
 10
1.52028
 20
-6.47971
 11
1.73938
 21
-6.73625
  0
LINE
  8
0
 10
1.73938
 20
-6.73625
 11
1.91565
 21
-7.02391
  0
LINE
  8
0
 10
1.91565
 20
-7.02391
 11
2.04477
 21
-7.3356
  0
LINE
  8
0
 10
2.04477
 20
-7.3356
 11
2.12352
 21
-7.66367
  0
LINE
  8
0
 10
2.12352
 20
-7.66367
 11
2.14999
 21
-8
  0
LINE
  8
0
 10
2.14999
 20
-8
 11
2.12352
 21
-8.33632
  0
LINE
  8
0
 10
2.12352
 20
-8.33632
 11
2.04477
 21
-8.66438
  0
LINE
  8
0
 10
2.04477
 20
-8.66438
 11
1.91565
 21
-8.97607
  0
LINE
  8
0
 10
1.91565
 20
-8.97607
 11
1.73938
 21
-9.26373
  0
LINE
  8
0
 10
1.73938
 20
-9.26373
 11
1.52028
 21
-9.52028
  0
LINE
  8
0
 10
1.52028
 20
-9.52028
 11
1.26373
 21
-9.73938
  0
LINE
  8
0
 10
1.26373
 20
-9.73938
 11
0.976074
 21
-9.91565
  0
LINE
  8
0
 10
0.976074
 20
-9.91565
 11
0.664383
 21
-10.0448
  0
LINE
  8
0
 10
0.664383
 20
-10.0448
 11
0.336319
 21
-10.1235
  0
LINE
  8
0
 10
0.336319
 20
-10.1235
 11
0
 21
-10.15
  0
LINE
  8
0
 10
0
 20
-10.15
 11
-0.336319
 21
-10.1235
  0
LINE
  8
0
 10
-0.336319
 20
-18.1235
 11
-0.664383
 21
-18.0448
  0
LINE
  8
0
 10
-0.664383
 20
-18.0448
 11
-0.976074
 21
-17.9157
  0
LINE
  8
0
 10
-0.976074
 20
-17.9157
 11
-1.26373
 21
-17.7394
  0
LINE
  8
0
 10
-1.26373
 20
-17.7394
 11
-1.52028
 21
-17.5203
  0
LINE
  8
0
 10
-1.52028
 20
-17.5203
 11
-1.73938
 21
-17.2637
  0
LINE
  8
0
 10
-1.73938
 20
-17.2637
 11
-1.91565
 21
-16.9761
  0
LINE
  8
0
 10
-1.91565
 20
-16.9761
 11
-2.04477
 21
-16.6644
  0
LINE
  8
0
 10
-2.04477
 20
-16.6644
 11
-2.12352
 21
-16.3363
  0
LINE
  8
0
 10
-2.12352
 20
-16.3363
 11
-2.14999
 21
-16
  0
LINE
  8
0
 10
-2.14999
 20
-16
 11
-2.12352
 21
-15.6637
  0
LINE
  8
0
 10
-2.12352
 20
-15.6637
 11
-2.04477
 21
-15.3356
  0
LINE
  8
0
 10
-2.04477
 20
-15.3356
 11
-1.91565
 21
-15.0239
  0
LINE
  8
0
 10
-1.91565
 20
-15.0239
 11
-1.73938
 21
-14.7363
  0
LINE
  8
0
 10
-1.73938
 20
-14.7363
 11
-1.52028
 21
-14.4797
  0
LINE
  8
0
 10
-1.52028
 20
-14.4797
 11
-1.26373
 21
-14.2606
  0
LINE
  8
0
 10
-1.26373
 20
-14.2606
 11
-0.976074
 21
-14.0843
  0
LINE
  8
0
 10
-0.976074
 20
-14.0843
 11
-0.664383
 21
-13.9552
  0
LINE
  8
0
 10
-0.664383
 20
-13.9552
 11
-0.336319
 21
-13.8765
  0
LINE
  8
0
 10
-0.336319
 20
-13.8765
 11
0
 21
-13.85
  0
LINE
  8
0
 10
0
 20
-13.85
 11
0.336319
 21
-13.8765
  0
LINE
  8
0
 10
0.336319
 20
-13.8765
 11
0.664383
 21
-13.9552
  0
LINE
  8
0
 10
0.664383
 20
-13.9552
 11
0.976074
 21
-14.0843
  0
LINE
  8
0
 10
0.976074
 20
-14.0843
 11
1.26373
 21
-14.2606
  0
LINE
  8
0
 10
1.26373
 20
-14.2606
 11
1.52028
 21
-14.4797
  0
LINE
  8
0
 10
1.52028
 20
-14.4797
 11
1.73938
 21
-14.7363
  0
LINE
  8
0
 10
1.73938
 20
-14.7363
 11
1.91565
 21
-15.0239
  0
LINE
  8
0
 10
1.91565
 20
-15.0239
 11
2.04477
 21
-15.3356
  0
LINE
  8
0
 10
2.04477
 20
-15.3356
 11
2.12352
 21
-15.6637
  0
LINE
  8
0
 10
2.12352
 20
-15.6637
 11
2.14999
 21
-16
  0
LINE
  8
0
 10
2.14999
 20
-16
 11
2.12352
 21
-16.3363
  0
LINE
  8
0
 10
2.12352
 20
-16.3363
 11
2.04477
 21
-16.6644
  0
LINE
  8
0
 10
2.04477
 20
-16.6644
 11
1.91565
 21
-16.9761
  0
LINE
  8
0
 10
1.91565
 20
-16.9761
 11
1.73938
 21
-17.2637
  0
LINE
  8
0
 10
1.73938
 20
-17.2637
 11
1.52028
 21
-17.5203
  0
LINE
  8
0
 10
1.52028
 20
-17.5203
 11
1.26373
 21
-17.7394
  0
LINE
  8
0
 10
1.26373
 20
-17.7394
 11
0.976074
 21
-17.9157
  0
LINE
  8
0
 10
0.976074
 20
-17.9157
 11
0.664383
 21
-18.0448
  0
LINE
  8
0
 10
0.664383
 20
-18.0448
 11
0.336319
 21
-18.1235
  0
LINE
  8
0
 10
0.336319
 20
-18.1235
 11
0
 21
-18.15
  0
LINE
  8
0
 10
0
 20
-18.15
 11
-0.336319
 21
-18.1235
  0
LINE
  8
0
 10
-40.3363
 20
-18.1235
 11
-40.6644
 21
-18.0448
  0
LINE
  8
0
 10
-40.6644
 20
-18.0448
 11
-40.9761
 21
-17.9157
  0
LINE
  8
0
 10
-40.9761
 20
-17.9157
 11
-41.2637
 21
-17.7394
  0
LINE
  8
0
 10
-41.2637
 20
-17.7394
 11
-41.5203
 21
-17.5203
  0
LINE
  8
0
 10
-41.5203
 20
-17.5203
 11
-41.7394
 21
-17.2637
  0
LINE
  8
0
 10
-41.7394
 20
-17.2637
 11
-41.9157
 21
-16.9761
  0
LINE
  8
0
 10
-41.9157
 20
-16.9761
 11
-42.0448
 21
-16.6644
  0
LINE
  8
0
 10
-42.0448
 20
-16.6644
 11
-42.1235
 21
-16.3363
  0
LINE
  8
0
 10
-42.1235
 20
-16.3363
 11
-42.15
 21
-16
  0
LINE
  8
0
 10
-42.15
 20
-16
 11
-42.1235
 21
-15.6637
  0
LINE
  8
0
 10
-42.1235
 20
-15.6637
 11
-42.0448
 21
-15.3356
  0
LINE
  8
0
 10
-42.0448
 20
-15.3356
 11
-41.9157
 21
-15.0239
  0
LINE
  8
0
 10
-41.9157
 20
-15.0239
 11
-41.7394
 21
-14.7363
  0
LINE
  8
0
 10
-41.7394
 20
-14.7363
 11
-41.5203
 21
-14.4797
  0
LINE
  8
0
 10
-41.5203
 20
-14.4797
 11
-41.2637
 21
-14.2606
  0
LINE
  8
0
 10
-41.2637
 20
-14.2606
 11
-40.9761
 21
-14.0843
  0
LINE
  8
0
 10
-40.9761
 20
-14.0843
 11
-40.6644
 21
-13.9552
  0
LINE
  8
0
 10
-40.6644
 20
-13.9552
 11
-40.3363
 21
-13.8765
  0
LINE
  8
0
 10
-40.3363
 20
-13.8765
 11
-40
 21
-13.85
  0
LINE
  8
0
 10
-40
 20
-13.85
 11
-39.6637
 21
-13.8765
  0
LINE
  8
0
 10
-39.6637
 20
-13.8765
 11
-39.3356
 21
-13.9552
  0
LINE
  8
0
 10
-39.3356
 20
-13.9552
 11
-39.0239
 21
-14.0843
  0
LINE
  8
0
 10
-39.0239
 20
-14.0843
 11
-38.7363
 21
-14.2606
  0
LINE
  8
0
 10
-38.7363
 20
-14.2606
 11
-38.4797
 21
-14.4797
  0
LINE
  8
0
 10
-38.4797
 20
-14.4797
 11
-38.2606
 21
-14.7363
  0
LINE
  8
0
 10
-38.2606
 20
-14.7363
 11
-38.0843
 21
-15.0239
  0
LINE
  8
0
 10
-38.0843
 20
-15.0239
 11
-37.9552
 21
-15.3356
  0
LINE
  8
0
 10
-37.9552
 20
-15.3356
 11
-37.8765
 21
-15.6637
  0
LINE
  8
0
 10
-37.8765
 20
-15.6637
 11
-37.85
 21
-16
  0
LINE
  8
0
 10
-37.85
 20
-16
 11
-37.8765
 21
-16.3363
  0
LINE
  8
0
 10
-37.8765
 20
-16.3363
 11
-37.9552
 21
-16.6644
  0
LINE
  8
0
 10
-37.9552
 20
-16.6644
 11
-38.0843
 21
-16.9761
  0
LINE
  8
0
 10
-38.0843
 20
-16.9761
 11
-38.2606
 21
-17.2637
  0
LINE
  8
0
 10
-38.2606
 20
-17.2637
 11
-38.4797
 21
-17.5203
  0
LINE
  8
0
 10
-38.4797
 20
-17.5203
 11
-38.7363
 21
-17.7394
  0
LINE
  8
0
 10
-38.7363
 20
-17.7394
 11
-39.0239
 21
-17.9157
  0
LINE
  8
0
 10
-39.0239
 20
-17.9157
 11
-39.3356
 21
-18.0448
  0
LINE
  8
0
 10
-39.3356
 20
-18.0448
 11
-39.6637
 21
-18.1235
  0
LINE
  8
0
 10
-39.6637
 20
-18.1235
 11
-40
 21
-18.15
  0
LINE
  8
0
 10
-40
 20
-18.15
 11
-40.3363
 21
-18.1235
  0
LINE
  8
0
 10
-0.336319
 20
-26.1235
 11
-0.664383
 21
-26.0448
  0
LINE
  8
0
 10
-0.664383
 20
-26.0448
 11
-0.976074
 21
-25.9157
  0
LINE
  8
0
 10
-0.976074
 20
-25.9157
 11
-1.26373
 21
-25.7394
  0
LINE
  8
0
 10
-1.26373
 20
-25.7394
 11
-1.52028
 21
-25.5203
  0
LINE
  8
0
 10
-1.52028
 20
-25.5203
 11
-1.73938
 21
-25.2637
  0
LINE
  8
0
 10
-1.73938
 20
-25.2637
 11
-1.91565
 21
-24.9761
  0
LINE
  8
0
 10
-1.91565
 20
-24.9761
 11
-2.04477
 21
-24.6644
  0
LINE
  8
0
 10
-2.04477
 20
-24.6644
 11
-2.12352
 21
-24.3363
  0
LINE
  8
0
 10
-2.12352
 20
-24.3363
 11
-2.14999
 21
-24
  0
LINE
  8
0
 10
-2.14999
 20
-24
 11
-2.12352
 21
-23.6637
  0
LINE
  8
0
 10
-2.12352
 20
-23.6637
 11
-2.04477
 21
-23.3356
  0
LINE
  8
0
 10
-2.04477
 20
-23.3356
 11
-1.91565
 21
-23.0239
  0
LINE
  8
0
 10
-1.91565
 20
-23.0239
 11
-1.73938
 21
-22.7363
  0
LINE
  8
0
 10
-1.73938
 20
-22.7363
 11
-1.52028
 21
-22.4797
  0
LINE
  8
0
 10
-1.52028
 20
-22.4797
 11
-1.26373
 21
-22.2606
  0
LINE
  8
0
 10
-1.26373
 20
-22.2606
 11
-0.976074
 21
-22.0843
  0
LINE
  8
0
 10
-0.976074
 20
-22.0843
 11
-0.664383
 21
-21.9552
  0
LINE
  8
0
 10
-0.664383
 20
-21.9552
 11
-0.336319
 21
-21.8765
  0
LINE
  8
0
 10
-0.336319
 20
-21.8765
 11
0
 21
-21.85
  0
LINE
  8
0
 10
0
 20
-21.85
 11
0.336319
 21
-21.8765
  0
LINE
  8
0
 10
0.336319
 20
-21.8765
 11
0.664383
 21
-21.9552
  0
LINE
  8
0
 10
0.664383
 20
-21.9552
 11
0.976074
 21
-22.0843
  0
LINE
  8
0
 10
0.976074
 20
-22.0843
 11
1.26373
 21
-22.2606
  0
LINE
  8
0
 10
1.26373
 20
-22.2606
 11
1.52028
 21
-22.4797
  0
LINE
  8
0
 10
1.52028
 20
-22.4797
 11
1.73938
 21
-22.7363
  0
LINE
  8
0
 10
1.73938
 20
-22.7363
 11
1.91565
 21
-23.0239
  0
LINE
  8
0
 10
1.91565
 20
-23.0239
 11
2.04477
 21
-23.3356
  0
LINE
  8
0
 10
2.04477
 20
-23.3356
 11
2.12352
 21
-23.6637
  0
LINE
  8
0
 10
2.12352
 20
-23.6637
 11
2.14999
 21
-24
  0
LINE
  8
0
 10
2.14999
 20
-24
 11
2.12352
 21
-24.3363
  0
LINE
  8
0
 10
2.12352
 20
-24.3363
 11
2.04477
 21
-24.6644
  0
LINE
  8
0
 10
2.04477
 20
-24.6644
 11
1.91565
 21
-24.9761
  0
LINE
  8
0
 10
1.91565
 20
-24.9761
 11
1.73938
 21
-25.2637
  0
LINE
  8
0
 10
1.73938
 20
-25.2637
 11
1.52028
 21
-25.5203
  0
LINE
  8
0
 10
1.52028
 20
-25.5203
 11
1.26373
 21
-25.7394
  0
LINE
  8
0
 10
1.26373
 20
-25.7394
 11
0.976074
 21
-25.9157
  0
LINE
  8
0
 10
0.976074
 20
-25.9157
 11
0.664383
 21
-26.0448
  0
LINE
  8
0
 10
0.664383
 20
-26.0448
 11
0.336319
 21
-26.1235
  0
LINE
  8
0
 10
0.336319
 20
-26.1235
 11
0
 21
-26.15
  0
LINE
  8
0
 10
0
 20
-26.15
 11
-0.336319
 21
-26.1235
  0
LINE
  8
0
 10
-32.3363
 20
-26.1235
 11
-32.6644
 21
-26.0448
  0
LINE
  8
0
 10
-32.6644
 20
-26.0448
 11
-32.9761
 21
-25.9157
  0
LINE
  8
0
 10
-32.9761
 20
-25.9157
 11
-33.2637
 21
-25.7394
  0
LINE
  8
0
 10
-33.2637
 20
-25.7394
 11
-33.5203
 21
-25.5203
  0
LINE
  8
0
 10
-33.5203
 20
-25.5203
 11
-33.7394
 21
-25.2637
  0
LINE
  8
0
 10
-33.7394
 20
-25.2637
 11
-33.9157
 21
-24.9761
  0
LINE
  8
0
 10
-33.9157
 20
-24.9761
 11
-34.0448
 21
-24.6644
  0
LINE
  8
0
 10
-34.0448
 20
-24.6644
 11
-34.1235
 21
-24.3363
  0
LINE
  8
0
 10
-34.1235
 20
-24.3363
 11
-34.15
 21
-24
  0
LINE
  8
0
 10
-34.15
 20
-24
 11
-34.1235
 21
-23.6637
  0
LINE
  8
0
 10
-34.1235
 20
-23.6637
 11
-34.0448
 21
-23.3356
  0
LINE
  8
0
 10
-34.0448
 20
-23.3356
 11
-33.9157
 21
-23.0239
  0
LINE
  8
0
 10
-33.9157
 20
-23.0239
 11
-33.7394
 21
-22.7363
  0
LINE
  8
0
 10
-33.7394
 20
-22.7363
 11
-33.5203
 21
-22.4797
  0
LINE
  8
0
 10
-33.5203
 20
-22.4797
 11
-33.2637
 21
-22.2606
  0
LINE
  8
0
 10
-33.2637
 20
-22.2606
 11
-32.9761
 21
-22.0843
  0
LINE
  8
0
 10
-32.9761
 20
-22.0843
 11
-32.6644
 21
-21.9552
  0
LINE
  8
0
 10
-32.6644
 20
-21.9552
 11
-32.3363
 21
-21.8765
  0
LINE
  8
0
 10
-32.3363
 20
-21.8765
 11
-32
 21
-21.85
  0
LINE
  8
0
 10
-32
 20
-21.85
 11
-31.6637
 21
-21.8765
  0
LINE
  8
0
 10
-31.6637
 20
-21.8765
 11
-31.3356
 21
-21.9552
  0
LINE
  8
0
 10
-31.3356
 20
-21.9552
 11
-31.0239
 21
-22.0843
  0
LINE
  8
0
 10
-31.0239
 20
-22.0843
 11
-30.7363
 21
-22.2606
  0
LINE
  8
0
 10
-30.7363
 20
-22.2606
 11
-30.4797
 21
-22.4797
  0
LINE
  8
0
 10
-30.4797
 20
-22.4797
 11
-30.2606
 21
-22.7363
  0
LINE
  8
0
 10
-30.2606
 20
-22.7363
 11
-30.0843
 21
-23.0239
  0
LINE
  8
0
 10
-30.0843
 20
-23.0239
 11
-29.9552
 21
-23.3356
  0
LINE
  8
0
 10
-29.9552
 20
-23.3356
 11
-29.8765
 21
-23.6637
  0
LINE
  8
0
 10
-29.8765
 20
-23.6637
 11
-29.85
 21
-24
  0
LINE
  8
0
 10
-29.85
 20
-24
 11
-29.8765
 21
-24.3363
  0
LINE
  8
0
 10
-29.8765
 20
-24.3363
 11
-29.9552
 21
-24.6644
  0
LINE
  8
0
 10
-29.9552
 20
-24.6644
 11
-30.0843
 21
-24.9761
  0
LINE
  8
0
 10
-30.0843
 20
-24.9761
 11
-30.2606
 21
-25.2637
  0
LINE
  8
0
 10
-30.2606
 20
-25.2637
 11
-30.4797
 21
-25.5203
  0
LINE
  8
0
 10
-30.4797
 20
-25.5203
 11
-30.7363
 21
-25.7394
  0
LINE
  8
0
 10
-30.7363
 20
-25.7394
 11
-31.0239
 21
-25.9157
  0
LINE
  8
0
 10
-31.0239
 20
-25.9157
 11
-31.3356
 21
-26.0448
  0
LINE
  8
0
 10
-31.3356
 20
-26.0448
 11
-31.6637
 21
-26.1235
  0
LINE
  8
0
 10
-31.6637
 20
-26.1235
 11
-32
 21
-26.15
  0
LINE
  8
0
 10
-32
 20
-26.15
 11
-32.3363
 21
-26.1235
  0
LINE
  8
0
 10
-24.3363
 20
-34.1235
 11
-24.6644
 21
-34.0448
  0
LINE
  8
0
 10
-24.6644
 20
-34.0448
 11
-24.9761
 21
-33.9157
  0
LINE
  8
0
 10
-24.9761
 20
-33.9157
 11
-25.2637
 21
-33.7394
  0
LINE
  8
0
 10
-25.2637
 20
-33.7394
 11
-25.5203
 21
-33.5203
  0
LINE
  8
0
 10
-25.5203
 20
-33.5203
 11
-25.7394
 21
-33.2637
  0
LINE
  8
0
 10
-25.7394
 20
-33.2637
 11
-25.9157
 21
-32.9761
  0
LINE
  8
0
 10
-25.9157
 20
-32.9761
 11
-26.0448
 21
-32.6644
  0
LINE
  8
0
 10
-26.0448
 20
-32.6644
 11
-26.1235
 21
-32.3363
  0
LINE
  8
0
 10
-26.1235
 20
-32.3363
 11
-26.15
 21
-32
  0
LINE
  8
0
 10
-26.15
 20
-32
 11
-26.1235
 21
-31.6637
  0
LINE
  8
0
 10
-26.1235
 20
-31.6637
 11
-26.0448
 21
-31.3356
  0
LINE
  8
0
 10
-26.0448
 20
-31.3356
 11
-25.9157
 21
-31.0239
  0
LINE
  8
0
 10
-25.9157
 20
-31.0239
 11
-25.7394
 21
-30.7363
  0
LINE
  8
0
 10
-25.7394
 20
-30.7363
 11
-25.5203
 21
-30.4797
  0
LINE
  8
0
 10
-25.5203
 20
-30.4797
 11
-25.2637
 21
-30.2606
  0
LINE
  8
0
 10
-25.2637
 20
-30.2606
 11
-24.9761
 21
-30.0843
  0
LINE
  8
0
 10
-24.9761
 20
-30.0843
 11
-24.6644
 21
-29.9552
  0
LINE
  8
0
 10
-24.6644
 20
-29.9552
 11
-24.3363
 21
-29.8765
  0
LINE
  8
0
 10
-24.3363
 20
-29.8765
 11
-24
 21
-29.85
  0
LINE
  8
0
 10
-24
 20
-29.85
 11
-23.6637
 21
-29.8765
  0
LINE
  8
0
 10
-23.6637
 20
-29.8765
 11
-23.3356
 21
-29.9552
  0
LINE
  8
0
 10
-23.3356
 20
-29.9552
 11
-23.0239
 21
-30.0843
  0
LINE
  8
0
 10
-23.0239
 20
-30.0843
 11
-22.7363
 21
-30.2606
  0
LINE
  8
0
 10
-22.7363
 20
-30.2606
 11
-22.4797
 21
-30.4797
  0
LINE
  8
0
 10
-22.4797
 20
-30.4797
 11
-22.2606
 21
-30.7363
  0
LINE
  8
0
 10
-22.2606
 20
-30.7363
 11
-22.0843
 21
-31.0239
  0
LINE
  8
0
 10
-22.0843
 20
-31.0239
 11
-21.9552
 21
-31.3356
  0
LINE
  8
0
 10
-21.9552
 20
-31.3356
 11
-21.8765
 21
-31.6637
  0
LINE
  8
0
 10
-21.8765
 20
-31.6637
 11
-21.85
 21
-32
  0
LINE
  8
0
 10
-21.85
 20
-32
 11
-21.8765
 21
-32.3363
  0
LINE
  8
0
 10
-21.8765
 20
-32.3363
 11
-21.9552
 21
-32.6644
  0
LINE
  8
0
 10
-21.9552
 20
-32.6644
 11
-22.0843
 21
-32.9761
  0
LINE
  8
0
 10
-22.0843
 20
-32.9761
 11
-22.2606
 21
-33.2637
  0
LINE
  8
0
 10
-22.2606
 20
-33.2637
 11
-22.4797
 21
-33.5203
  0
LINE
  8
0
 10
-22.4797
 20
-33.5203
 11
-22.7363
 21
-33.7394
  0
LINE
  8
0
 10
-22.7363
 20
-33.7394
 11
-23.0239
 21
-33.9157
  0
LINE
  8
0
 10
-23.0239
 20
-33.9157
 11
-23.3356
 21
-34.0448
  0
LINE
  8
0
 10
-23.3356
 20
-34.0448
 11
-23.6637
 21
-34.1235
  0
LINE
  8
0
 10
-23.6637
 20
-34.1235
 11
-24
 21
-34.15
  0
LINE
  8
0
 10
-24
 20
-34.15
 11
-24.3363
 21
-34.1235
  0
LINE
  8
0
 10
-0.336319
 20
-34.1235
 11
-0.664383
 21
-34.0448
  0
LINE
  8
0
 10
-0.664383
 20
-34.0448
 11
-0.976074
 21
-33.9157
  0
LINE
  8
0
 10
-0.976074
 20
-33.9157
 11
-1.26373
 21
-33.7394
  0
LINE
  8
0
 10
-1.26373
 20
-33.7394
 11
-1.52028
 21
-33.5203
  0
LINE
  8
0
 10
-1.52028
 20
-33.5203
 11
-1.73938
 21
-33.2637
  0
LINE
  8
0
 10
-1.73938
 20
-33.2637
 11
-1.91565
 21
-32.9761
  0
LINE
  8
0
 10
-1.91565
 20
-32.9761
 11
-2.04477
 21
-32.6644
  0
LINE
  8
0
 10
-2.04477
 20
-32.6644
 11
-2.12352
 21
-32.3363
  0
LINE
  8
0
 10
-2.12352
 20
-32.3363
 11
-2.14999
 21
-32
  0
LINE
  8
0
 10
-2.14999
 20
-32
 11
-2.12352
 21
-31.6637
  0
LINE
  8
0
 10
-2.12352
 20
-31.6637
 11
-2.04477
 21
-31.3356
  0
LINE
  8
0
 10
-2.04477
 20
-31.3356
 11
-1.91565
 21
-31.0239
  0
LINE
  8
0
 10
-1.91565
 20
-31.0239
 11
-1.73938
 21
-30.7363
  0
LINE
  8
0
 10
-1.73938
 20
-30.7363
 11
-1.52028
 21
-30.4797
  0
LINE
  8
0
 10
-1.52028
 20
-30.4797
 11
-1.26373
 21
-30.2606
  0
LINE
  8
0
 10
-1.26373
 20
-30.2606
 11
-0.976074
 21
-30.0843
  0
LINE
  8
0
 10
-0.976074
 20
-30.0843
 11
-0.664383
 21
-29.9552
  0
LINE
  8
0
 10
-0.664383
 20
-29.9552
 11
-0.336319
 21
-29.8765
  0
LINE
  8
0
 10
-0.336319
 20
-29.8765
 11
0
 21
-29.85
  0
LINE
  8
0
 10
0
 20
-29.85
 11
0.336319
 21
-29.8765
  0
LINE
  8
0
 10
0.336319
 20
-29.8765
 11
0.664383
 21
-29.9552
  0
LINE
  8
0
 10
0.664383
 20
-29.9552
 11
0.976074
 21
-30.0843
  0
LINE
  8
0
 10
0.976074
 20
-30.0843
 11
1.26373
 21
-30.2606
  0
LINE
  8
0
 10
1.26373
 20
-30.2606
 11
1.52028
 21
-30.4797
  0
LINE
  8
0
 10
1.52028
 20
-30.4797
 11
1.73938
 21
-30.7363
  0
LINE
  8
0
 10
1.73938
 20
-30.7363
 11
1.91565
 21
-31.0239
  0
LINE
  8
0
 10
1.91565
 20
-31.0239
 11
2.04477
 21
-31.3356
  0
LINE
  8
0
 10
2.04477
 20
-31.3356
 11
2.12352
 21
-31.6637
  0
LINE
  8
0
 10
2.12352
 20
-31.6637
 11
2.14999
 21
-32
  0
LINE
  8
0
 10
2.14999
 20
-32
 11
2.12352
 21
-32.3363
  0
LINE
  8
0
 10
2.12352
 20
-32.3363
 11
2.04477
 21
-32.6644
  0
LINE
  8
0
 10
2.04477
 20
-32.6644
 11
1.91565
 21
-32.9761
  0
LINE
  8
0
 10
1.91565
 20
-32.9761
 11
1.73938
 21
-33.2637
  0
LINE
  8
0
 10
1.73938
 20
-33.2637
 11
1.52028
 21
-33.5203
  0
LINE
  8
0
 10
1.52028
 20
-33.5203
 11
1.26373
 21
-33.7394
  0
LINE
  8
0
 10
1.26373
 20
-33.7394
 11
0.976074
 21
-33.9157
  0
LINE
  8
0
 10
0.976074
 20
-33.9157
 11
0.664383
 21
-34.0448
  0
LINE
  8
0
 10
0.664383
 20
-34.0448
 11
0.336319
 21
-34.1235
  0
LINE
  8
0
 10
0.336319
 20
-34.1235
 11
0
 21
-34.15
  0
LINE
  8
0
 10
0
 20
-34.15
 11
-0.336319
 21
-34.1235
  0
LINE
  8
0
 10
-0.336319
 20
-42.1235
 11
-0.664383
 21
-42.0448
  0
LINE
  8
0
 10
-0.664383
 20
-42.0448
 11
-0.976074
 21
-41.9157
  0
LINE
  8
0
 10
-0.976074
 20
-41.9157
 11
-1.26373
 21
-41.7394
  0
LINE
  8
0
 10
-1.26373
 20
-41.7394
 11
-1.52028
 21
-41.5203
  0
LINE
  8
0
 10
-1.52028
 20
-41.5203
 11
-1.73938
 21
-41.2637
  0
LINE
  8
0
 10
-1.73938
 20
-41.2637
 11
-1.91565
 21
-40.9761
  0
LINE
  8
0
 10
-1.91565
 20
-40.9761
 11
-2.04477
 21
-40.6644
  0
LINE
  8
0
 10
-2.04477
 20
-40.6644
 11
-2.12352
 21
-40.3363
  0
LINE
  8
0
 10
-2.12352
 20
-40.3363
 11
-2.14999
 21
-40
  0
LINE
  8
0
 10
-2.14999
 20
-40
 11
-2.12352
 21
-39.6637
  0
LINE
  8
0
 10
-2.12352
 20
-39.6637
 11
-2.04477
 21
-39.3356
  0
LINE
  8
0
 10
-2.04477
 20
-39.3356
 11
-1.91565
 21
-39.0239
  0
LINE
  8
0
 10
-1.91565
 20
-39.0239
 11
-1.73938
 21
-38.7363
  0
LINE
  8
0
 10
-1.73938
 20
-38.7363
 11
-1.52028
 21
-38.4797
  0
LINE
  8
0
 10
-1.52028
 20
-38.4797
 11
-1.26373
 21
-38.2606
  0
LINE
  8
0
 10
-1.26373
 20
-38.2606
 11
-0.976074
 21
-38.0843
  0
LINE
  8
0
 10
-0.976074
 20
-38.0843
 11
-0.664383
 21
-37.9552
  0
LINE
  8
0
 10
-0.664383
 20
-37.9552
 11
-0.336319
 21
-37.8765
  0
LINE
  8
0
 10
-0.336319
 20
-37.8765
 11
0
 21
-37.85
  0
LINE
  8
0
 10
0
 20
-37.85
 11
0.336319
 21
-37.8765
  0
LINE
  8
0
 10
0.336319
 20
-37.8765
 11
0.664383
 21
-37.9552
  0
LINE
  8
0
 10
0.664383
 20
-37.9552
 11
0.976074
 21
-38.0843
  0
LINE
  8
0
 10
0.976074
 20
-38.0843
 11
1.26373
 21
-38.2606
  0
LINE
  8
0
 10
1.26373
 20
-38.2606
 11
1.52028
 21
-38.4797
  0
LINE
  8
0
 10
1.52028
 20
-38.4797
 11
1.73938
 21
-38.7363
  0
LINE
  8
0
 10
1.73938
 20
-38.7363
 11
1.91565
 21
-39.0239
  0
LINE
  8
0
 10
1.91565
 20
-39.0239
 11
2.04477
 21
-39.3356
  0
LINE
  8
0
 10
2.04477
 20
-39.3356
 11
2.12352
 21
-39.6637
  0
LINE
  8
0
 10
2.12352
 20
-39.6637
 11
2.14999
 21
-40
  0
LINE
  8
0
 10
2.14999
 20
-40
 11
2.12352
 21
-40.3363
  0
LINE
  8
0
 10
2.12352
 20
-40.3363
 11
2.04477
 21
-40.6644
  0
LINE
  8
0
 10
2.04477
 20
-40.6644
 11
1.91565
 21
-40.9761
  0
LINE
  8
0
 10
1.91565
 20
-40.9761
 11
1.73938
 21
-41.2637
  0
LINE
  8
0
 10
1.73938
 20
-41.2637
 11
1.52028
 21
-41.5203
  0
LINE
  8
0
 10
1.52028
 20
-41.5203
 11
1.26373
 21
-41.7394
  0
LINE
  8
0
 10
1.26373
 20
-41.7394
 11
0.976074
 21
-41.9157
  0
LINE
  8
0
 10
0.976074
 20
-41.9157
 11
0.664383
 21
-42.0448
  0
LINE
  8
0
 10
0.664383
 20
-42.0448
 11
0.336319
 21
-42.1235
  0
LINE
  8
0
 10
0.336319
 20
-42.1235
 11
0
 21
-42.15
  0
LINE
  8
0
 10
0
 20
-42.15
 11
-0.336319
 21
-42.1235
  0
LINE
  8
0
 10
-16.3363
 20
-42.1235
 11
-16.6644
 21
-42.0448
  0
LINE
  8
0
 10
-16.6644
 20
-42.0448
 11
-16.9761
 21
-41.9157
  0
LINE
  8
0
 10
-16.9761
 20
-41.9157
 11
-17.2637
 21
-41.7394
  0
LINE
  8
0
 10
-17.2637
 20
-41.7394
 11
-17.5203
 21
-41.5203
  0
LINE
  8
0
 10
-17.5203
 20
-41.5203
 11
-17.7394
 21
-41.2637
  0
LINE
  8
0
 10
-17.7394
 20
-41.2637
 11
-17.9157
 21
-40.9761
  0
LINE
  8
0
 10
-17.9157
 20
-40.9761
 11
-18.0448
 21
-40.6644
  0
LINE
  8
0
 10
-18.0448
 20
-40.6644
 11
-18.1235
 21
-40.3363
  0
LINE
  8
0
 10
-18.1235
 20
-40.3363
 11
-18.15
 21
-40
  0
LINE
  8
0
 10
-18.15
 20
-40
 11
-18.1235
 21
-39.6637
  0
LINE
  8
0
 10
-18.1235
 20
-39.6637
 11
-18.0448
 21
-39.3356
  0
LINE
  8
0
 10
-18.0448
 20
-39.3356
 11
-17.9157
 21
-39.0239
  0
LINE
  8
0
 10
-17.9157
 20
-39.0239
 11
-17.7394
 21
-38.7363
  0
LINE
  8
0
 10
-17.7394
 20
-38.7363
 11
-17.5203
 21
-38.4797
  0
LINE
  8
0
 10
-17.5203
 20
-38.4797
 11
-17.2637
 21
-38.2606
  0
LINE
  8
0
 10
-17.2637
 20
-38.2606
 11
-16.9761
 21
-38.0843
  0
LINE
  8
0
 10
-16.9761
 20
-38.0843
 11
-16.6644
 21
-37.9552
  0
LINE
  8
0
 10
-16.6644
 20
-37.9552
 11
-16.3363
 21
-37.8765
  0
LINE
  8
0
 10
-16.3363
 20
-37.8765
 11
-16
 21
-37.85
  0
LINE
  8
0
 10
-16
 20
-37.85
 11
-15.6637
 21
-37.8765
  0
LINE
  8
0
 10
-15.6637
 20
-37.8765
 11
-15.3356
 21
-37.9552
  0
LINE
  8
0
 10
-15.3356
 20
-37.9552
 11
-15.0239
 21
-38.0843
  0
LINE
  8
0
 10
-15.0239
 20
-38.0843
 11
-14.7363
 21
-38.2606
  0
LINE
  8
0
 10
-14.7363
 20
-38.2606
 11
-14.4797
 21
-38.4797
  0
LINE
  8
0
 10
-14.4797
 20
-38.4797
 11
-14.2606
 21
-38.7363
  0
LINE
  8
0
 10
-14.2606
 20
-38.7363
 11
-14.0843
 21
-39.0239
  0
LINE
  8
0
 10
-14.0843
 20
-39.0239
 11
-13.9552
 21
-39.3356
  0
LINE
  8
0
 10
-13.9552
 20
-39.3356
 11
-13.8765
 21
-39.6637
  0
LINE
  8
0
 10
-13.8765
 20
-39.6637
 11
-13.85
 21
-40
  0
LINE
  8
0
 10
-13.85
 20
-40
 11
-13.8765
 21
-40.3363
  0
LINE
  8
0
 10
-13.8765
 20
-40.3363
 11
-13.9552
 21
-40.6644
  0
LINE
  8
0
 10
-13.9552
 20
-40.6644
 11
-14.0843
 21
-40.9761
  0
LINE
  8
0
 10
-14.0843
 20
-40.9761
 11
-14.2606
 21
-41.2637
  0
LINE
  8
0
 10
-14.2606
 20
-41.2637
 11
-14.4797
 21
-41.5203
  0
LINE
  8
0
 10
-14.4797
 20
-41.5203
 11
-14.7363
 21
-41.7394
  0
LINE
  8
0
 10
-14.7363
 20
-41.7394
 11
-15.0239
 21
-41.9157
  0
LINE
  8
0
 10
-15.0239
 20
-41.9157
 11
-15.3356
 21
-42.0448
  0
LINE
  8
0
 10
-15.3356
 20
-42.0448
 11
-15.6637
 21
-42.1235
  0
LINE
  8
0
 10
-15.6637
 20
-42.1235
 11
-16
 21
-42.15
  0
LINE
  8
0
 10
-16
 20
-42.15
 11
-16.3363
 21
-42.1235
  0
LINE
  8
0
 10
-8.33632
 20
-50.1235
 11
-8.66438
 21
-50.0448
  0
LINE
  8
0
 10
-8.66438
 20
-50.0448
 11
-8.97607
 21
-49.9157
  0
LINE
  8
0
 10
-8.97607
 20
-49.9157
 11
-9.26373
 21
-49.7394
  0
LINE
  8
0
 10
-9.26373
 20
-49.7394
 11
-9.52028
 21
-49.5203
  0
LINE
  8
0
 10
-9.52028
 20
-49.5203
 11
-9.73938
 21
-49.2637
  0
LINE
  8
0
 10
-9.73938
 20
-49.2637
 11
-9.91565
 21
-48.9761
  0
LINE
  8
0
 10
-9.91565
 20
-48.9761
 11
-10.0448
 21
-48.6644
  0
LINE
  8
0
 10
-10.0448
 20
-48.6644
 11
-10.1235
 21
-48.3363
  0
LINE
  8
0
 10
-10.1235
 20
-48.3363
 11
-10.15
 21
-48
  0
LINE
  8
0
 10
-10.15
 20
-48
 11
-10.1235
 21
-47.6637
  0
LINE
  8
0
 10
-10.1235
 20
-47.6637
 11
-10.0448
 21
-47.3356
  0
LINE
  8
0
 10
-10.0448
 20
-47.3356
 11
-9.91565
 21
-47.0239
  0
LINE
  8
0
 10
-9.91565
 20
-47.0239
 11
-9.73938
 21
-46.7363
  0
LINE
  8
0
 10
-9.73938
 20
-46.7363
 11
-9.52028
 21
-46.4797
  0
LINE
  8
0
 10
-9.52028
 20
-46.4797
 11
-9.26373
 21
-46.2606
  0
LINE
  8
0
 10
-9.26373
 20
-46.2606
 11
-8.97607
 21
-46.0843
  0
LINE
  8
0
 10
-8.97607
 20
-46.0843
 11
-8.66438
 21
-45.9552
  0
LINE
  8
0
 10
-8.66438
 20
-45.9552
 11
-8.33632
 21
-45.8765
  0
LINE
  8
0
 10
-8.33632
 20
-45.8765
 11
-8
 21
-45.85
  0
LINE
  8
0
 10
-8
 20
-45.85
 11
-7.66367
 21
-45.8765
  0
LINE
  8
0
 10
-7.66367
 20
-45.8765
 11
-7.3356
 21
-45.9552
  0
LINE
  8
0
 10
-7.3356
 20
-45.9552
 11
-7.02391
 21
-46.0843
  0
LINE
  8
0
 10
-7.02391
 20
-46.0843
 11
-6.73625
 21
-46.2606
  0
LINE
  8
0
 10
-6.73625
 20
-46.2606
 11
-6.47971
 21
-46.4797
  0
LINE
  8
0
 10
-6.47971
 20
-46.4797
 11
-6.2606
 21
-46.7363
  0
LINE
  8
0
 10
-6.2606
 20
-46.7363
 11
-6.08434
 21
-47.0239
  0
LINE
  8
0
 10
-6.08434
 20
-47.0239
 11
-5.95522
 21
-47.3356
  0
LINE
  8
0
 10
-5.95522
 20
-47.3356
 11
-5.87646
 21
-47.6637
  0
LINE
  8
0
 10
-5.87646
 20
-47.6637
 11
-5.84999
 21
-48
  0
LINE
  8
0
 10
-5.84999
 20
-48
 11
-5.87646
 21
-48.3363
  0
LINE
  8
0
 10
-5.87646
 20
-48.3363
 11
-5.95522
 21
-48.6644
  0
LINE
  8
0
 10
-5.95522
 20
-48.6644
 11
-6.08434
 21
-48.9761
  0
LINE
  8
0
 10
-6.08434
 20
-48.9761
 11
-6.2606
 21
-49.2637
  0
LINE
  8
0
 10
-6.2606
 20
-49.2637
 11
-6.47971
 21
-49.5203
  0
LINE
  8
0
 10
-6.47971
 20
-49.5203
 11
-6.73625
 21
-49.7394
  0
LINE
  8
0
 10
-6.73625
 20
-49.7394
 11
-7.02391
 21
-49.9157
  0
LINE
  8
0
 10
-7.02391
 20
-49.9157
 11
-7.3356
 21
-50.0448
  0
LINE
  8
0
 10
-7.3356
 20
-50.0448
 11
-7.66367
 21
-50.1235
  0
LINE
  8
0
 10
-7.66367
 20
-50.1235
 11
-8
 21
-50.15
  0
LINE
  8
0
 10
-8
 20
-50.15
 11
-8.33632
 21
-50.1235
  0
LINE
  8
0
 10
-0.336319
 20
-50.1235
 11
-0.664383
 21
-50.0448
  0
LINE
  8
0
 10
-0.664383
 20
-50.0448
 11
-0.976074
 21
-49.9157
  0
LINE
  8
0
 10
-0.976074
 20
-49.9157
 11
-1.26373
 21
-49.7394
  0
LINE
  8
0
 10
-1.26373
 20
-49.7394
 11
-1.52028
 21
-49.5203
  0
LINE
  8
0
 10
-1.52028
 20
-49.5203
 11
-1.73938
 21
-49.2637
  0
LINE
  8
0
 10
-1.73938
 20
-49.2637
 11
-1.91565
 21
-48.9761
  0
LINE
  8
0
 10
-1.91565
 20
-48.9761
 11
-2.04477
 21
-48.6644
  0
LINE
  8
0
 10
-2.04477
 20
-48.6644
 11
-2.12352
 21
-48.3363
  0
LINE
  8
0
 10
-2.12352
 20
-48.3363
 11
-2.14999
 21
-48
  0
LINE
  8
0
 10
-2.14999
 20
-48
 11
-2.12352
 21
-47.6637
  0
LINE
  8
0
 10
-2.12352
 20
-47.6637
 11
-2.04477
 21
-47.3356
  0
LINE
  8
0
 10
-2.04477
 20
-47.3356
 11
-1.91565
 21
-47.0239
  0
LINE
  8
0
 10
-1.91565
 20
-47.0239
 11
-1.73938
 21
-46.7363
  0
LINE
  8
0
 10
-1.73938
 20
-46.7363
 11
-1.52028
 21
-46.4797
  0
LINE
  8
0
 10
-1.52028
 20
-46.4797
 11
-1.26373
 21
-46.2606
  0
LINE
  8
0
 10
-1.26373
 20
-46.2606
 11
-0.976074
 21
-46.0843
  0
LINE
  8
0
 10
-0.976074
 20
-46.0843
 11
-0.664383
 21
-45.9552
  0
LINE
  8
0
 10
-0.664383
 20
-45.9552
 11
-0.336319
 21
-45.8765
  0
LINE
  8
0
 10
-0.336319
 20
-45.8765
 11
0
 21
-45.85
  0
LINE
  8
0
 10
0
 20
-45.85
 11
0.336319
 21
-45.8765
  0
LINE
  8
0
 10
0.336319
 20
-45.8765
 11
0.664383
 21
-45.9552
  0
LINE
  8
0
 10
0.664383
 20
-45.9552
 11
0.976074
 21
-46.0843
  0
LINE
  8
0
 10
0.976074
 20
-46.0843
 11
1.26373
 21
-46.2606
  0
LINE
  8
0
 10
1.26373
 20
-46.2606
 11
1.52028
 21
-46.4797
  0
LINE
  8
0
 10
1.52028
 20
-46.4797
 11
1.73938
 21
-46.7363
  0
LINE
  8
0
 10
1.73938
 20
-46.7363
 11
1.91565
 21
-47.0239
  0
LINE
  8
0
 10
1.91565
 20
-47.0239
 11
2.04477
 21
-47.3356
  0
LINE
  8
0
 10
2.04477
 20
-47.3356
 11
2.12352
 21
-47.6637
  0
LINE
  8
0
 10
2.12352
 20
-47.6637
 11
2.14999
 21
-48
  0
LINE
  8
0
 10
2.14999
 20
-48
 11
2.12352
 21
-48.3363
  0
LINE
  8
0
 10
2.12352
 20
-48.3363
 11
2.04477
 21
-48.6644
  0
LINE
  8
0
 10
2.04477
 20
-48.6644
 11
1.91565
 21
-48.9761
  0
LINE
  8
0
 10
1.91565
 20
-48.9761
 11
1.73938
 21
-49.2637
  0
LINE
  8
0
 10
1.73938
 20
-49.2637
 11
1.52028
 21
-49.5203
  0
LINE
  8
0
 10
1.52028
 20
-49.5203
 11
1.26373
 21
-49.7394
  0
LINE
  8
0
 10
1.26373
 20
-49.7394
 11
0.976074
 21
-49.9157
  0
LINE
  8
0
 10
0.976074
 20
-49.9157
 11
0.664383
 21
-50.0448
  0
LINE
  8
0
 10
0.664383
 20
-50.0448
 11
0.336319
 21
-50.1235
  0
LINE
  8
0
 10
0.336319
 20
-50.1235
 11
0
 21
-50.15
  0
LINE
  8
0
 10
0
 20
-50.15
 11
-0.336319
 21
-50.1235
  0
LINE
  8
0
 10
-0.336319
 20
-58.1235
 11
-0.664383
 21
-58.0448
  0
LINE
  8
0
 10
-0.664383
 20
-58.0448
 11
-0.976074
 21
-57.9157
  0
LINE
  8
0
 10
-0.976074
 20
-57.9157
 11
-1.26373
 21
-57.7394
  0
LINE
  8
0
 10
-1.26373
 20
-57.7394
 11
-1.52028
 21
-57.5203
  0
LINE
  8
0
 10
-1.52028
 20
-57.5203
 11
-1.73938
 21
-57.2637
  0
LINE
  8
0
 10
-1.73938
 20
-57.2637
 11
-1.91565
 21
-56.9761
  0
LINE
  8
0
 10
-1.91565
 20
-56.9761
 11
-2.04477
 21
-56.6644
  0
LINE
  8
0
 10
-2.04477
 20
-56.6644
 11
-2.12352
 21
-56.3363
  0
LINE
  8
0
 10
-2.12352
 20
-56.3363
 11
-2.14999
 21
-56
  0
LINE
  8
0
 10
-2.14999
 20
-56
 11
-2.12352
 21
-55.6637
  0
LINE
  8
0
 10
-2.12352
 20
-55.6637
 11
-2.04477
 21
-55.3356
  0
LINE
  8
0
 10
-2.04477
 20
-55.3356
 11
-1.91565
 21
-55.0239
  0
LINE
  8
0
 10
-1.91565
 20
-55.0239
 11
-1.73938
 21
-54.7363
  0
LINE
  8
0
 10
-1.73938
 20
-54.7363
 11
-1.52028
 21
-54.4797
  0
LINE
  8
0
 10
-1.52028
 20
-54.4797
 11
-1.26373
 21
-54.2606
  0
LINE
  8
0
 10
-1.26373
 20
-54.2606
 11
-0.976074
 21
-54.0843
  0
LINE
  8
0
 10
-0.976074
 20
-54.0843
 11
-0.664383
 21
-53.9552
  0
LINE
  8
0
 10
-0.664383
 20
-53.9552
 11
-0.336319
 21
-53.8765
  0
LINE
  8
0
 10
-0.336319
 20
-53.8765
 11
0
 21
-53.85
  0
LINE
  8
0
 10
0
 20
-53.85
 11
0.336319
 21
-53.8765
  0
LINE
  8
0
 10
0.336319
 20
-53.8765
 11
0.664383
 21
-53.9552
  0
LINE
  8
0
 10
0.664383
 20
-53.9552
 11
0.976074
 21
-54.0843
  0
LINE
  8
0
 10
0.976074
 20
-54.0843
 11
1.26373
 21
-54.2606
  0
LINE
  8
0
 10
1.26373
 20
-54.2606
 11
1.52028
 21
-54.4797
  0
LINE
  8
0
 10
1.52028
 20
-54.4797
 11
1.73938
 21
-54.7363
  0
LINE
  8
0
 10
1.73938
 20
-54.7363
 11
1.91565
 21
-55.0239
  0
LINE
  8
0
 10
1.91565
 20
-55.0239
 11
2.04477
 21
-55.3356
  0
LINE
  8
0
 10
2.04477
 20
-55.3356
 11
2.12352
 21
-55.6637
  0
LINE
  8
0
 10
2.12352
 20
-55.6637
 11
2.14999
 21
-56
  0
LINE
  8
0
 10
2.14999
 20
-56
 11
2.12352
 21
-56.3363
  0
LINE
  8
0
 10
2.12352
 20
-56.3363
 11
2.04477
 21
-56.6644
  0
LINE
  8
0
 10
2.04477
 20
-56.6644
 11
1.91565
 21
-56.9761
  0
LINE
  8
0
 10
1.91565
 20
-56.9761
 11
1.73938
 21
-57.2637
  0
LINE
  8
0
 10
1.73938
 20
-57.2637
 11
1.52028
 21
-57.5203
  0
LINE
  8
0
 10
1.52028
 20
-57.5203
 11
1.26373
 21
-57.7394
  0
LINE
  8
0
 10
1.26373
 20
-57.7394
 11
0.976074
 21
-57.9157
  0
LINE
  8
0
 10
0.976074
 20
-57.9157
 11
0.664383
 21
-58.0448
  0
LINE
  8
0
 10
0.664383
 20
-58.0448
 11
0.336319
 21
-58.1235
  0
LINE
  8
0
 10
0.336319
 20
-58.1235
 11
0
 21
-58.15
  0
LINE
  8
0
 10
0
 20
-58.15
 11
-0.336319
 21
-58.1235
  0
ENDSEC
  0
SECTION
  2
OBJECTS
  0
DICTIONARY
  0
ENDSEC
  0
EOF
