  0
SECTION
  2
HEADER
  9
$ACADVER
  1
AC1014
  9
$HANDSEED
  5
FFFF
  9
$INSUNITS
 70
     4
  9
$MEASUREMENT
 70
     1
  0
ENDSEC
  0
SECTION
  2
TABLES
  0
TABLE
  2
VPORT
  5
8
330
0
100
AcDbSymbolTable
 70
     4
  0
VPORT
  5
2E
330
8
100
AcDbSymbolTableRecord
100
AcDbViewportTableRecord
  2
*ACTIVE
 70
     0
 10
0.0
 20
0.0
 11
1.0
 21
1.0
 12
210.0
 22
148.5
 13
0.0
 23
0.0
 14
10.0
 24
10.0
 15
10.0
 25
10.0
 16
0.0
 26
0.0
 36
1.0
 17
0.0
 27
0.0
 37
0.0
 40
341.0
 41
1.24
 42
50.0
 43
0.0
 44
0.0
 50
0.0
 51
0.0
 71
     0
 72
   100
 73
     1
 74
     3
 75
     0
 76
     0
 77
     0
 78
     0
  0
ENDTAB
  0
TABLE
  2
LTYPE
  5
5
330
0
100
AcDbSymbolTable
 70
     1
  0
LTYPE
  5
14
330
5
100
AcDbSymbolTableRecord
100
AcDbLinetypeTableRecord
  2
BYBLOCK
 70
     0
  3

 72
    65
 73
     0
 40
0.0
  0
LTYPE
  5
15
330
5
100
AcDbSymbolTableRecord
100
AcDbLinetypeTableRecord
  2
BYLAYER
 70
     0
  3

 72
    65
 73
     0
 40
0.0
  0
LTYPE
  5
16
330
5
100
AcDbSymbolTableRecord
100
AcDbLinetypeTableRecord
  2
CONTINUOUS
 70
     0
  3
Solid line
 72
    65
 73
     0
 40
0.0
  0
ENDTAB
  0
TABLE
  2
LAYER
  5
2
100
AcDbSymbolTable
 70
2
  0
LAYER
  5
50
100
AcDbSymbolTableRecord
100
AcDbLayerTableRecord
  2
0
 70
0
  6
CONTINUOUS
  0
LAYER
  5
51
100
AcDbSymbolTableRecord
100
AcDbLayerTableRecord
  2
Layer_1
 70
0
  6
CONTINUOUS
  0
ENDTAB
  0
TABLE
  2
STYLE
  5
3
330
0
100
AcDbSymbolTable
 70
     1
  0
STYLE
  5
11
330
3
100
AcDbSymbolTableRecord
100
AcDbTextStyleTableRecord
  2
STANDARD
 70
     0
 40
0.0
 41
1.0
 50
0.0
 71
     0
 42
2.5
  3
txt
  4

  0
ENDTAB
  0
TABLE
  2
VIEW
  5
6
330
0
100
AcDbSymbolTable
 70
     0
  0
ENDTAB
  0
TABLE
  2
UCS
  5
7
330
0
100
AcDbSymbolTable
 70
     0
  0
ENDTAB
  0
TABLE
  2
APPID
  5
9
330
0
100
AcDbSymbolTable
 70
     2
  0
APPID
  5
12
330
9
100
AcDbSymbolTableRecord
100
AcDbRegAppTableRecord
  2
ACAD
 70
     0
  0
ENDTAB
  0
TABLE
  2
DIMSTYLE
  5
A
330
0
100
AcDbSymbolTable
 70
     1
  0
DIMSTYLE
105
27
330
A
100
AcDbSymbolTableRecord
100
AcDbDimStyleTableRecord
  2
ISO-25
 70
     0
  3

  4

  5

  6

  7

 40
1.0
 41
2.5
 42
0.625
 43
3.75
 44
1.25
 45
0.0
 46
0.0
 47
0.0
 48
0.0
140
2.5
141
2.5
142
0.0
143
0.03937007874016
144
1.0
145
0.0
146
1.0
147
0.625
 71
     0
 72
     0
 73
     0
 74
     0
 75
     0
 76
     0
 77
     1
 78
     8
170
     0
171
     3
172
     1
173
     0
174
     0
175
     0
176
     0
177
     0
178
     0
270
     2
271
     2
272
     2
273
     2
274
     3
340
11
275
     0
280
     0
281
     0
282
     0
283
     0
284
     8
285
     0
286
     0
287
     3
288
     0
  0
ENDTAB
  0
TABLE
  2
BLOCK_RECORD
  5
1
330
0
100
AcDbSymbolTable
 70
     1
  0
BLOCK_RECORD
  5
1F
330
1
100
AcDbSymbolTableRecord
100
AcDbBlockTableRecord
  2
*MODEL_SPACE
  0
BLOCK_RECORD
  5
1B
330
1
100
AcDbSymbolTableRecord
100
AcDbBlockTableRecord
  2
*PAPER_SPACE
  0
ENDTAB
  0
ENDSEC
  0
SECTION
  2
BLOCKS
  0
BLOCK
  5
20
330
1F
100
AcDbEntity
  8
0
100
AcDbBlockBegin
  2
*MODEL_SPACE
 70
     0
 10
0.0
 20
0.0
 30
0.0
  3
*MODEL_SPACE
  1

  0
ENDBLK
  5
21
330
1F
100
AcDbEntity
  8
0
100
AcDbBlockEnd
  0
BLOCK
  5
1C
330
1B
100
AcDbEntity
 67
     1
  8
0
100
AcDbBlockBegin
  2
*PAPER_SPACE
  1

  0
ENDBLK
  5
1D
330
1B
100
AcDbEntity
 67
     1
  8
0
100
AcDbBlockEnd
  0
ENDSEC
  0
SECTION
  2
ENTITIES
  0
SPLINE
  5
100
100
AcDbEntity
  8
Layer_1
 62
7
100
AcDbSpline
 70
8
 71
3
 72
8
 73
4
 74
0
 40
0
 40
0
 40
0
 40
0
 40
1
 40
1
 40
1
 40
1
 10
86.747441
 20
57.467644
 30
0.0
 10
85.938054
 20
57.467644
 30
0.0
 10
85.208364
 20
56.980081
 30
0.0
 10
84.898625
 20
56.232304
 30
0.0
  0
SPLINE
  5
101
100
AcDbEntity
  8
Layer_1
 62
7
100
AcDbSpline
 70
8
 71
3
 72
8
 73
4
 74
0
 40
0
 40
0
 40
0
 40
0
 40
1
 40
1
 40
1
 40
1
 10
84.898625
 20
56.232304
 30
0.0
 10
84.588886
 20
55.484528
 30
0.0
 10
84.760096
 20
54.623801
 30
0.0
 10
85.332419
 20
54.051478
 30
0.0
  0
SPLINE
  5
102
100
AcDbEntity
  8
Layer_1
 62
7
100
AcDbSpline
 70
8
 71
3
 72
8
 73
4
 74
0
 40
0
 40
0
 40
0
 40
0
 40
1
 40
1
 40
1
 40
1
 10
85.332419
 20
54.051478
 30
0.0
 10
85.904742
 20
53.479155
 30
0.0
 10
86.765469
 20
53.307945
 30
0.0
 10
87.513245
 20
53.617684
 30
0.0
  0
SPLINE
  5
103
100
AcDbEntity
  8
Layer_1
 62
7
100
AcDbSpline
 70
8
 71
3
 72
8
 73
4
 74
0
 40
0
 40
0
 40
0
 40
0
 40
1
 40
1
 40
1
 40
1
 10
87.513245
 20
53.617684
 30
0.0
 10
88.261022
 20
53.927423
 30
0.0
 10
88.748585
 20
54.657113
 30
0.0
 10
88.748585
 20
55.466500
 30
0.0
  0
SPLINE
  5
104
100
AcDbEntity
  8
Layer_1
 62
7
100
AcDbSpline
 70
8
 71
3
 72
8
 73
4
 74
0
 40
0
 40
0
 40
0
 40
0
 40
1
 40
1
 40
1
 40
1
 10
88.748585
 20
55.466500
 30
0.0
 10
88.748585
 20
56.571701
 30
0.0
 10
87.852642
 20
57.467644
 30
0.0
 10
86.747441
 20
57.467644
 30
0.0
  0
LWPOLYLINE
  5
105
100
AcDbEntity
  8
Layer_1
 62
7
100
AcDbPolyline
 90
6
 70
1
 10
73.923001
 20
178.466540
 30
0.0
 10
73.923001
 20
51.466800
 30
0.0
 10
379.572840
 20
51.466800
 30
0.0
 10
379.572840
 20
178.466540
 30
0.0
 10
353.747920
 20
197.516538
 30
0.0
 10
99.747922
 20
197.516538
 30
0.0
  0
SPLINE
  5
106
100
AcDbEntity
  8
Layer_1
 62
7
100
AcDbSpline
 70
8
 71
3
 72
8
 73
4
 74
0
 40
0
 40
0
 40
0
 40
0
 40
1
 40
1
 40
1
 40
1
 10
374.747410
 20
57.467644
 30
0.0
 10
373.938023
 20
57.467644
 30
0.0
 10
373.208333
 20
56.980081
 30
0.0
 10
372.898594
 20
56.232304
 30
0.0
  0
SPLINE
  5
107
100
AcDbEntity
  8
Layer_1
 62
7
100
AcDbSpline
 70
8
 71
3
 72
8
 73
4
 74
0
 40
0
 40
0
 40
0
 40
0
 40
1
 40
1
 40
1
 40
1
 10
372.898594
 20
56.232304
 30
0.0
 10
372.588855
 20
55.484528
 30
0.0
 10
372.760065
 20
54.623801
 30
0.0
 10
373.332388
 20
54.051478
 30
0.0
  0
SPLINE
  5
108
100
AcDbEntity
  8
Layer_1
 62
7
100
AcDbSpline
 70
8
 71
3
 72
8
 73
4
 74
0
 40
0
 40
0
 40
0
 40
0
 40
1
 40
1
 40
1
 40
1
 10
373.332388
 20
54.051478
 30
0.0
 10
373.904711
 20
53.479155
 30
0.0
 10
374.765438
 20
53.307945
 30
0.0
 10
375.513214
 20
53.617684
 30
0.0
  0
SPLINE
  5
109
100
AcDbEntity
  8
Layer_1
 62
7
100
AcDbSpline
 70
8
 71
3
 72
8
 73
4
 74
0
 40
0
 40
0
 40
0
 40
0
 40
1
 40
1
 40
1
 40
1
 10
375.513214
 20
53.617684
 30
0.0
 10
376.260991
 20
53.927423
 30
0.0
 10
376.748554
 20
54.657113
 30
0.0
 10
376.748554
 20
55.466500
 30
0.0
  0
SPLINE
  5
10a
100
AcDbEntity
  8
Layer_1
 62
7
100
AcDbSpline
 70
8
 71
3
 72
8
 73
4
 74
0
 40
0
 40
0
 40
0
 40
0
 40
1
 40
1
 40
1
 40
1
 10
376.748554
 20
55.466500
 30
0.0
 10
376.748554
 20
55.997236
 30
0.0
 10
376.537719
 20
56.506235
 30
0.0
 10
376.162432
 20
56.881522
 30
0.0
  0
SPLINE
  5
10b
100
AcDbEntity
  8
Layer_1
 62
7
100
AcDbSpline
 70
8
 71
3
 72
8
 73
4
 74
0
 40
0
 40
0
 40
0
 40
0
 40
1
 40
1
 40
1
 40
1
 10
376.162432
 20
56.881522
 30
0.0
 10
375.787145
 20
57.256809
 30
0.0
 10
375.278146
 20
57.467644
 30
0.0
 10
374.747410
 20
57.467644
 30
0.0
  0
LWPOLYLINE
  5
10c
100
AcDbEntity
  8
Layer_1
 62
7
100
AcDbPolyline
 90
1
 70
1
 10
86.747441
 20
57.467644
 30
0.0
  0
SPLINE
  5
10d
100
AcDbEntity
  8
Layer_1
 62
7
100
AcDbSpline
 70
8
 71
3
 72
8
 73
4
 74
0
 40
0
 40
0
 40
0
 40
0
 40
1
 40
1
 40
1
 40
1
 10
358.747410
 20
57.467644
 30
0.0
 10
357.938023
 20
57.467644
 30
0.0
 10
357.208333
 20
56.980081
 30
0.0
 10
356.898594
 20
56.232304
 30
0.0
  0
SPLINE
  5
10e
100
AcDbEntity
  8
Layer_1
 62
7
100
AcDbSpline
 70
8
 71
3
 72
8
 73
4
 74
0
 40
0
 40
0
 40
0
 40
0
 40
1
 40
1
 40
1
 40
1
 10
356.898594
 20
56.232304
 30
0.0
 10
356.588855
 20
55.484528
 30
0.0
 10
356.760065
 20
54.623801
 30
0.0
 10
357.332388
 20
54.051478
 30
0.0
  0
SPLINE
  5
10f
100
AcDbEntity
  8
Layer_1
 62
7
100
AcDbSpline
 70
8
 71
3
 72
8
 73
4
 74
0
 40
0
 40
0
 40
0
 40
0
 40
1
 40
1
 40
1
 40
1
 10
357.332388
 20
54.051478
 30
0.0
 10
357.904711
 20
53.479155
 30
0.0
 10
358.765438
 20
53.307945
 30
0.0
 10
359.513214
 20
53.617684
 30
0.0
  0
SPLINE
  5
110
100
AcDbEntity
  8
Layer_1
 62
7
100
AcDbSpline
 70
8
 71
3
 72
8
 73
4
 74
0
 40
0
 40
0
 40
0
 40
0
 40
1
 40
1
 40
1
 40
1
 10
359.513214
 20
53.617684
 30
0.0
 10
360.260991
 20
53.927423
 30
0.0
 10
360.748554
 20
54.657113
 30
0.0
 10
360.748554
 20
55.466500
 30
0.0
  0
SPLINE
  5
111
100
AcDbEntity
  8
Layer_1
 62
7
100
AcDbSpline
 70
8
 71
3
 72
8
 73
4
 74
0
 40
0
 40
0
 40
0
 40
0
 40
1
 40
1
 40
1
 40
1
 10
360.748554
 20
55.466500
 30
0.0
 10
360.748554
 20
55.997236
 30
0.0
 10
360.537719
 20
56.506235
 30
0.0
 10
360.162432
 20
56.881522
 30
0.0
  0
SPLINE
  5
112
100
AcDbEntity
  8
Layer_1
 62
7
100
AcDbSpline
 70
8
 71
3
 72
8
 73
4
 74
0
 40
0
 40
0
 40
0
 40
0
 40
1
 40
1
 40
1
 40
1
 10
360.162432
 20
56.881522
 30
0.0
 10
359.787145
 20
57.256809
 30
0.0
 10
359.278146
 20
57.467644
 30
0.0
 10
358.747410
 20
57.467644
 30
0.0
  0
LWPOLYLINE
  5
113
100
AcDbEntity
  8
Layer_1
 62
7
100
AcDbPolyline
 90
1
 70
1
 10
374.747410
 20
57.467644
 30
0.0
  0
SPLINE
  5
114
100
AcDbEntity
  8
Layer_1
 62
7
100
AcDbSpline
 70
8
 71
3
 72
8
 73
4
 74
0
 40
0
 40
0
 40
0
 40
0
 40
1
 40
1
 40
1
 40
1
 10
342.747410
 20
57.467644
 30
0.0
 10
341.938023
 20
57.467644
 30
0.0
 10
341.208333
 20
56.980081
 30
0.0
 10
340.898594
 20
56.232304
 30
0.0
  0
SPLINE
  5
115
100
AcDbEntity
  8
Layer_1
 62
7
100
AcDbSpline
 70
8
 71
3
 72
8
 73
4
 74
0
 40
0
 40
0
 40
0
 40
0
 40
1
 40
1
 40
1
 40
1
 10
340.898594
 20
56.232304
 30
0.0
 10
340.588855
 20
55.484528
 30
0.0
 10
340.760065
 20
54.623801
 30
0.0
 10
341.332388
 20
54.051478
 30
0.0
  0
SPLINE
  5
116
100
AcDbEntity
  8
Layer_1
 62
7
100
AcDbSpline
 70
8
 71
3
 72
8
 73
4
 74
0
 40
0
 40
0
 40
0
 40
0
 40
1
 40
1
 40
1
 40
1
 10
341.332388
 20
54.051478
 30
0.0
 10
341.904711
 20
53.479155
 30
0.0
 10
342.765438
 20
53.307945
 30
0.0
 10
343.513214
 20
53.617684
 30
0.0
  0
SPLINE
  5
117
100
AcDbEntity
  8
Layer_1
 62
7
100
AcDbSpline
 70
8
 71
3
 72
8
 73
4
 74
0
 40
0
 40
0
 40
0
 40
0
 40
1
 40
1
 40
1
 40
1
 10
343.513214
 20
53.617684
 30
0.0
 10
344.260991
 20
53.927423
 30
0.0
 10
344.748554
 20
54.657113
 30
0.0
 10
344.748554
 20
55.466500
 30
0.0
  0
SPLINE
  5
118
100
AcDbEntity
  8
Layer_1
 62
7
100
AcDbSpline
 70
8
 71
3
 72
8
 73
4
 74
0
 40
0
 40
0
 40
0
 40
0
 40
1
 40
1
 40
1
 40
1
 10
344.748554
 20
55.466500
 30
0.0
 10
344.748554
 20
55.997236
 30
0.0
 10
344.537719
 20
56.506235
 30
0.0
 10
344.162432
 20
56.881522
 30
0.0
  0
SPLINE
  5
119
100
AcDbEntity
  8
Layer_1
 62
7
100
AcDbSpline
 70
8
 71
3
 72
8
 73
4
 74
0
 40
0
 40
0
 40
0
 40
0
 40
1
 40
1
 40
1
 40
1
 10
344.162432
 20
56.881522
 30
0.0
 10
343.787145
 20
57.256809
 30
0.0
 10
343.278146
 20
57.467644
 30
0.0
 10
342.747410
 20
57.467644
 30
0.0
  0
LWPOLYLINE
  5
11a
100
AcDbEntity
  8
Layer_1
 62
7
100
AcDbPolyline
 90
1
 70
1
 10
358.747410
 20
57.467644
 30
0.0
  0
SPLINE
  5
11b
100
AcDbEntity
  8
Layer_1
 62
7
100
AcDbSpline
 70
8
 71
3
 72
8
 73
4
 74
0
 40
0
 40
0
 40
0
 40
0
 40
1
 40
1
 40
1
 40
1
 10
326.747410
 20
57.467644
 30
0.0
 10
325.938023
 20
57.467644
 30
0.0
 10
325.208333
 20
56.980081
 30
0.0
 10
324.898594
 20
56.232304
 30
0.0
  0
SPLINE
  5
11c
100
AcDbEntity
  8
Layer_1
 62
7
100
AcDbSpline
 70
8
 71
3
 72
8
 73
4
 74
0
 40
0
 40
0
 40
0
 40
0
 40
1
 40
1
 40
1
 40
1
 10
324.898594
 20
56.232304
 30
0.0
 10
324.588855
 20
55.484528
 30
0.0
 10
324.760065
 20
54.623801
 30
0.0
 10
325.332388
 20
54.051478
 30
0.0
  0
SPLINE
  5
11d
100
AcDbEntity
  8
Layer_1
 62
7
100
AcDbSpline
 70
8
 71
3
 72
8
 73
4
 74
0
 40
0
 40
0
 40
0
 40
0
 40
1
 40
1
 40
1
 40
1
 10
325.332388
 20
54.051478
 30
0.0
 10
325.904711
 20
53.479155
 30
0.0
 10
326.765438
 20
53.307945
 30
0.0
 10
327.513214
 20
53.617684
 30
0.0
  0
SPLINE
  5
11e
100
AcDbEntity
  8
Layer_1
 62
7
100
AcDbSpline
 70
8
 71
3
 72
8
 73
4
 74
0
 40
0
 40
0
 40
0
 40
0
 40
1
 40
1
 40
1
 40
1
 10
327.513214
 20
53.617684
 30
0.0
 10
328.260991
 20
53.927423
 30
0.0
 10
328.748554
 20
54.657113
 30
0.0
 10
328.748554
 20
55.466500
 30
0.0
  0
SPLINE
  5
11f
100
AcDbEntity
  8
Layer_1
 62
7
100
AcDbSpline
 70
8
 71
3
 72
8
 73
4
 74
0
 40
0
 40
0
 40
0
 40
0
 40
1
 40
1
 40
1
 40
1
 10
328.748554
 20
55.466500
 30
0.0
 10
328.748554
 20
55.997236
 30
0.0
 10
328.537719
 20
56.506235
 30
0.0
 10
328.162432
 20
56.881522
 30
0.0
  0
SPLINE
  5
120
100
AcDbEntity
  8
Layer_1
 62
7
100
AcDbSpline
 70
8
 71
3
 72
8
 73
4
 74
0
 40
0
 40
0
 40
0
 40
0
 40
1
 40
1
 40
1
 40
1
 10
328.162432
 20
56.881522
 30
0.0
 10
327.787145
 20
57.256809
 30
0.0
 10
327.278146
 20
57.467644
 30
0.0
 10
326.747410
 20
57.467644
 30
0.0
  0
LWPOLYLINE
  5
121
100
AcDbEntity
  8
Layer_1
 62
7
100
AcDbPolyline
 90
1
 70
1
 10
342.747410
 20
57.467644
 30
0.0
  0
SPLINE
  5
122
100
AcDbEntity
  8
Layer_1
 62
7
100
AcDbSpline
 70
8
 71
3
 72
8
 73
4
 74
0
 40
0
 40
0
 40
0
 40
0
 40
1
 40
1
 40
1
 40
1
 10
310.747410
 20
57.467644
 30
0.0
 10
309.938023
 20
57.467644
 30
0.0
 10
309.208333
 20
56.980081
 30
0.0
 10
308.898594
 20
56.232304
 30
0.0
  0
SPLINE
  5
123
100
AcDbEntity
  8
Layer_1
 62
7
100
AcDbSpline
 70
8
 71
3
 72
8
 73
4
 74
0
 40
0
 40
0
 40
0
 40
0
 40
1
 40
1
 40
1
 40
1
 10
308.898594
 20
56.232304
 30
0.0
 10
308.588855
 20
55.484528
 30
0.0
 10
308.760065
 20
54.623801
 30
0.0
 10
309.332388
 20
54.051478
 30
0.0
  0
SPLINE
  5
124
100
AcDbEntity
  8
Layer_1
 62
7
100
AcDbSpline
 70
8
 71
3
 72
8
 73
4
 74
0
 40
0
 40
0
 40
0
 40
0
 40
1
 40
1
 40
1
 40
1
 10
309.332388
 20
54.051478
 30
0.0
 10
309.904711
 20
53.479155
 30
0.0
 10
310.765438
 20
53.307945
 30
0.0
 10
311.513214
 20
53.617684
 30
0.0
  0
SPLINE
  5
125
100
AcDbEntity
  8
Layer_1
 62
7
100
AcDbSpline
 70
8
 71
3
 72
8
 73
4
 74
0
 40
0
 40
0
 40
0
 40
0
 40
1
 40
1
 40
1
 40
1
 10
311.513214
 20
53.617684
 30
0.0
 10
312.260991
 20
53.927423
 30
0.0
 10
312.748554
 20
54.657113
 30
0.0
 10
312.748554
 20
55.466500
 30
0.0
  0
SPLINE
  5
126
100
AcDbEntity
  8
Layer_1
 62
7
100
AcDbSpline
 70
8
 71
3
 72
8
 73
4
 74
0
 40
0
 40
0
 40
0
 40
0
 40
1
 40
1
 40
1
 40
1
 10
312.748554
 20
55.466500
 30
0.0
 10
312.748554
 20
55.997236
 30
0.0
 10
312.537719
 20
56.506235
 30
0.0
 10
312.162432
 20
56.881522
 30
0.0
  0
SPLINE
  5
127
100
AcDbEntity
  8
Layer_1
 62
7
100
AcDbSpline
 70
8
 71
3
 72
8
 73
4
 74
0
 40
0
 40
0
 40
0
 40
0
 40
1
 40
1
 40
1
 40
1
 10
312.162432
 20
56.881522
 30
0.0
 10
311.787145
 20
57.256809
 30
0.0
 10
311.278146
 20
57.467644
 30
0.0
 10
310.747410
 20
57.467644
 30
0.0
  0
LWPOLYLINE
  5
128
100
AcDbEntity
  8
Layer_1
 62
7
100
AcDbPolyline
 90
1
 70
1
 10
326.747410
 20
57.467644
 30
0.0
  0
SPLINE
  5
129
100
AcDbEntity
  8
Layer_1
 62
7
100
AcDbSpline
 70
8
 71
3
 72
8
 73
4
 74
0
 40
0
 40
0
 40
0
 40
0
 40
1
 40
1
 40
1
 40
1
 10
294.747410
 20
57.467644
 30
0.0
 10
293.938023
 20
57.467644
 30
0.0
 10
293.208333
 20
56.980081
 30
0.0
 10
292.898594
 20
56.232304
 30
0.0
  0
SPLINE
  5
12a
100
AcDbEntity
  8
Layer_1
 62
7
100
AcDbSpline
 70
8
 71
3
 72
8
 73
4
 74
0
 40
0
 40
0
 40
0
 40
0
 40
1
 40
1
 40
1
 40
1
 10
292.898594
 20
56.232304
 30
0.0
 10
292.588855
 20
55.484528
 30
0.0
 10
292.760065
 20
54.623801
 30
0.0
 10
293.332388
 20
54.051478
 30
0.0
  0
SPLINE
  5
12b
100
AcDbEntity
  8
Layer_1
 62
7
100
AcDbSpline
 70
8
 71
3
 72
8
 73
4
 74
0
 40
0
 40
0
 40
0
 40
0
 40
1
 40
1
 40
1
 40
1
 10
293.332388
 20
54.051478
 30
0.0
 10
293.904711
 20
53.479155
 30
0.0
 10
294.765438
 20
53.307945
 30
0.0
 10
295.513214
 20
53.617684
 30
0.0
  0
SPLINE
  5
12c
100
AcDbEntity
  8
Layer_1
 62
7
100
AcDbSpline
 70
8
 71
3
 72
8
 73
4
 74
0
 40
0
 40
0
 40
0
 40
0
 40
1
 40
1
 40
1
 40
1
 10
295.513214
 20
53.617684
 30
0.0
 10
296.260991
 20
53.927423
 30
0.0
 10
296.748554
 20
54.657113
 30
0.0
 10
296.748554
 20
55.466500
 30
0.0
  0
SPLINE
  5
12d
100
AcDbEntity
  8
Layer_1
 62
7
100
AcDbSpline
 70
8
 71
3
 72
8
 73
4
 74
0
 40
0
 40
0
 40
0
 40
0
 40
1
 40
1
 40
1
 40
1
 10
296.748554
 20
55.466500
 30
0.0
 10
296.748554
 20
55.997236
 30
0.0
 10
296.537719
 20
56.506235
 30
0.0
 10
296.162432
 20
56.881522
 30
0.0
  0
SPLINE
  5
12e
100
AcDbEntity
  8
Layer_1
 62
7
100
AcDbSpline
 70
8
 71
3
 72
8
 73
4
 74
0
 40
0
 40
0
 40
0
 40
0
 40
1
 40
1
 40
1
 40
1
 10
296.162432
 20
56.881522
 30
0.0
 10
295.787145
 20
57.256809
 30
0.0
 10
295.278146
 20
57.467644
 30
0.0
 10
294.747410
 20
57.467644
 30
0.0
  0
LWPOLYLINE
  5
12f
100
AcDbEntity
  8
Layer_1
 62
7
100
AcDbPolyline
 90
1
 70
1
 10
310.747410
 20
57.467644
 30
0.0
  0
SPLINE
  5
130
100
AcDbEntity
  8
Layer_1
 62
7
100
AcDbSpline
 70
8
 71
3
 72
8
 73
4
 74
0
 40
0
 40
0
 40
0
 40
0
 40
1
 40
1
 40
1
 40
1
 10
278.747410
 20
57.467644
 30
0.0
 10
277.938023
 20
57.467644
 30
0.0
 10
277.208333
 20
56.980081
 30
0.0
 10
276.898594
 20
56.232304
 30
0.0
  0
SPLINE
  5
131
100
AcDbEntity
  8
Layer_1
 62
7
100
AcDbSpline
 70
8
 71
3
 72
8
 73
4
 74
0
 40
0
 40
0
 40
0
 40
0
 40
1
 40
1
 40
1
 40
1
 10
276.898594
 20
56.232304
 30
0.0
 10
276.588855
 20
55.484528
 30
0.0
 10
276.760065
 20
54.623801
 30
0.0
 10
277.332388
 20
54.051478
 30
0.0
  0
SPLINE
  5
132
100
AcDbEntity
  8
Layer_1
 62
7
100
AcDbSpline
 70
8
 71
3
 72
8
 73
4
 74
0
 40
0
 40
0
 40
0
 40
0
 40
1
 40
1
 40
1
 40
1
 10
277.332388
 20
54.051478
 30
0.0
 10
277.904711
 20
53.479155
 30
0.0
 10
278.765438
 20
53.307945
 30
0.0
 10
279.513214
 20
53.617684
 30
0.0
  0
SPLINE
  5
133
100
AcDbEntity
  8
Layer_1
 62
7
100
AcDbSpline
 70
8
 71
3
 72
8
 73
4
 74
0
 40
0
 40
0
 40
0
 40
0
 40
1
 40
1
 40
1
 40
1
 10
279.513214
 20
53.617684
 30
0.0
 10
280.260991
 20
53.927423
 30
0.0
 10
280.748554
 20
54.657113
 30
0.0
 10
280.748554
 20
55.466500
 30
0.0
  0
SPLINE
  5
134
100
AcDbEntity
  8
Layer_1
 62
7
100
AcDbSpline
 70
8
 71
3
 72
8
 73
4
 74
0
 40
0
 40
0
 40
0
 40
0
 40
1
 40
1
 40
1
 40
1
 10
280.748554
 20
55.466500
 30
0.0
 10
280.748554
 20
55.997236
 30
0.0
 10
280.537719
 20
56.506235
 30
0.0
 10
280.162432
 20
56.881522
 30
0.0
  0
SPLINE
  5
135
100
AcDbEntity
  8
Layer_1
 62
7
100
AcDbSpline
 70
8
 71
3
 72
8
 73
4
 74
0
 40
0
 40
0
 40
0
 40
0
 40
1
 40
1
 40
1
 40
1
 10
280.162432
 20
56.881522
 30
0.0
 10
279.787145
 20
57.256809
 30
0.0
 10
279.278146
 20
57.467644
 30
0.0
 10
278.747410
 20
57.467644
 30
0.0
  0
LWPOLYLINE
  5
136
100
AcDbEntity
  8
Layer_1
 62
7
100
AcDbPolyline
 90
1
 70
1
 10
294.747410
 20
57.467644
 30
0.0
  0
SPLINE
  5
137
100
AcDbEntity
  8
Layer_1
 62
7
100
AcDbSpline
 70
8
 71
3
 72
8
 73
4
 74
0
 40
0
 40
0
 40
0
 40
0
 40
1
 40
1
 40
1
 40
1
 10
102.747441
 20
57.467644
 30
0.0
 10
101.938054
 20
57.467644
 30
0.0
 10
101.208364
 20
56.980081
 30
0.0
 10
100.898625
 20
56.232304
 30
0.0
  0
SPLINE
  5
138
100
AcDbEntity
  8
Layer_1
 62
7
100
AcDbSpline
 70
8
 71
3
 72
8
 73
4
 74
0
 40
0
 40
0
 40
0
 40
0
 40
1
 40
1
 40
1
 40
1
 10
100.898625
 20
56.232304
 30
0.0
 10
100.588886
 20
55.484528
 30
0.0
 10
100.760096
 20
54.623801
 30
0.0
 10
101.332419
 20
54.051478
 30
0.0
  0
SPLINE
  5
139
100
AcDbEntity
  8
Layer_1
 62
7
100
AcDbSpline
 70
8
 71
3
 72
8
 73
4
 74
0
 40
0
 40
0
 40
0
 40
0
 40
1
 40
1
 40
1
 40
1
 10
101.332419
 20
54.051478
 30
0.0
 10
101.904742
 20
53.479155
 30
0.0
 10
102.765469
 20
53.307945
 30
0.0
 10
103.513245
 20
53.617684
 30
0.0
  0
SPLINE
  5
13a
100
AcDbEntity
  8
Layer_1
 62
7
100
AcDbSpline
 70
8
 71
3
 72
8
 73
4
 74
0
 40
0
 40
0
 40
0
 40
0
 40
1
 40
1
 40
1
 40
1
 10
103.513245
 20
53.617684
 30
0.0
 10
104.261022
 20
53.927423
 30
0.0
 10
104.748585
 20
54.657113
 30
0.0
 10
104.748585
 20
55.466500
 30
0.0
  0
SPLINE
  5
13b
100
AcDbEntity
  8
Layer_1
 62
7
100
AcDbSpline
 70
8
 71
3
 72
8
 73
4
 74
0
 40
0
 40
0
 40
0
 40
0
 40
1
 40
1
 40
1
 40
1
 10
104.748585
 20
55.466500
 30
0.0
 10
104.748585
 20
56.571701
 30
0.0
 10
103.852642
 20
57.467644
 30
0.0
 10
102.747441
 20
57.467644
 30
0.0
  0
LWPOLYLINE
  5
13c
100
AcDbEntity
  8
Layer_1
 62
7
100
AcDbPolyline
 90
1
 70
1
 10
278.747410
 20
57.467644
 30
0.0
  0
SPLINE
  5
13d
100
AcDbEntity
  8
Layer_1
 62
7
100
AcDbSpline
 70
8
 71
3
 72
8
 73
4
 74
0
 40
0
 40
0
 40
0
 40
0
 40
1
 40
1
 40
1
 40
1
 10
262.747410
 20
57.467644
 30
0.0
 10
261.938023
 20
57.467644
 30
0.0
 10
261.208333
 20
56.980081
 30
0.0
 10
260.898594
 20
56.232304
 30
0.0
  0
SPLINE
  5
13e
100
AcDbEntity
  8
Layer_1
 62
7
100
AcDbSpline
 70
8
 71
3
 72
8
 73
4
 74
0
 40
0
 40
0
 40
0
 40
0
 40
1
 40
1
 40
1
 40
1
 10
260.898594
 20
56.232304
 30
0.0
 10
260.588855
 20
55.484528
 30
0.0
 10
260.760065
 20
54.623801
 30
0.0
 10
261.332388
 20
54.051478
 30
0.0
  0
SPLINE
  5
13f
100
AcDbEntity
  8
Layer_1
 62
7
100
AcDbSpline
 70
8
 71
3
 72
8
 73
4
 74
0
 40
0
 40
0
 40
0
 40
0
 40
1
 40
1
 40
1
 40
1
 10
261.332388
 20
54.051478
 30
0.0
 10
261.904711
 20
53.479155
 30
0.0
 10
262.765438
 20
53.307945
 30
0.0
 10
263.513214
 20
53.617684
 30
0.0
  0
SPLINE
  5
140
100
AcDbEntity
  8
Layer_1
 62
7
100
AcDbSpline
 70
8
 71
3
 72
8
 73
4
 74
0
 40
0
 40
0
 40
0
 40
0
 40
1
 40
1
 40
1
 40
1
 10
263.513214
 20
53.617684
 30
0.0
 10
264.260991
 20
53.927423
 30
0.0
 10
264.748554
 20
54.657113
 30
0.0
 10
264.748554
 20
55.466500
 30
0.0
  0
SPLINE
  5
141
100
AcDbEntity
  8
Layer_1
 62
7
100
AcDbSpline
 70
8
 71
3
 72
8
 73
4
 74
0
 40
0
 40
0
 40
0
 40
0
 40
1
 40
1
 40
1
 40
1
 10
264.748554
 20
55.466500
 30
0.0
 10
264.748554
 20
55.997236
 30
0.0
 10
264.537719
 20
56.506235
 30
0.0
 10
264.162432
 20
56.881522
 30
0.0
  0
SPLINE
  5
142
100
AcDbEntity
  8
Layer_1
 62
7
100
AcDbSpline
 70
8
 71
3
 72
8
 73
4
 74
0
 40
0
 40
0
 40
0
 40
0
 40
1
 40
1
 40
1
 40
1
 10
264.162432
 20
56.881522
 30
0.0
 10
263.787145
 20
57.256809
 30
0.0
 10
263.278146
 20
57.467644
 30
0.0
 10
262.747410
 20
57.467644
 30
0.0
  0
LWPOLYLINE
  5
143
100
AcDbEntity
  8
Layer_1
 62
7
100
AcDbPolyline
 90
1
 70
1
 10
102.747441
 20
57.467644
 30
0.0
  0
SPLINE
  5
144
100
AcDbEntity
  8
Layer_1
 62
7
100
AcDbSpline
 70
8
 71
3
 72
8
 73
4
 74
0
 40
0
 40
0
 40
0
 40
0
 40
1
 40
1
 40
1
 40
1
 10
246.747410
 20
57.467644
 30
0.0
 10
245.938023
 20
57.467644
 30
0.0
 10
245.208333
 20
56.980081
 30
0.0
 10
244.898594
 20
56.232304
 30
0.0
  0
SPLINE
  5
145
100
AcDbEntity
  8
Layer_1
 62
7
100
AcDbSpline
 70
8
 71
3
 72
8
 73
4
 74
0
 40
0
 40
0
 40
0
 40
0
 40
1
 40
1
 40
1
 40
1
 10
244.898594
 20
56.232304
 30
0.0
 10
244.588855
 20
55.484528
 30
0.0
 10
244.760065
 20
54.623801
 30
0.0
 10
245.332388
 20
54.051478
 30
0.0
  0
SPLINE
  5
146
100
AcDbEntity
  8
Layer_1
 62
7
100
AcDbSpline
 70
8
 71
3
 72
8
 73
4
 74
0
 40
0
 40
0
 40
0
 40
0
 40
1
 40
1
 40
1
 40
1
 10
245.332388
 20
54.051478
 30
0.0
 10
245.904711
 20
53.479155
 30
0.0
 10
246.765438
 20
53.307945
 30
0.0
 10
247.513214
 20
53.617684
 30
0.0
  0
SPLINE
  5
147
100
AcDbEntity
  8
Layer_1
 62
7
100
AcDbSpline
 70
8
 71
3
 72
8
 73
4
 74
0
 40
0
 40
0
 40
0
 40
0
 40
1
 40
1
 40
1
 40
1
 10
247.513214
 20
53.617684
 30
0.0
 10
248.260991
 20
53.927423
 30
0.0
 10
248.748554
 20
54.657113
 30
0.0
 10
248.748554
 20
55.466500
 30
0.0
  0
SPLINE
  5
148
100
AcDbEntity
  8
Layer_1
 62
7
100
AcDbSpline
 70
8
 71
3
 72
8
 73
4
 74
0
 40
0
 40
0
 40
0
 40
0
 40
1
 40
1
 40
1
 40
1
 10
248.748554
 20
55.466500
 30
0.0
 10
248.748554
 20
55.997236
 30
0.0
 10
248.537719
 20
56.506235
 30
0.0
 10
248.162432
 20
56.881522
 30
0.0
  0
SPLINE
  5
149
100
AcDbEntity
  8
Layer_1
 62
7
100
AcDbSpline
 70
8
 71
3
 72
8
 73
4
 74
0
 40
0
 40
0
 40
0
 40
0
 40
1
 40
1
 40
1
 40
1
 10
248.162432
 20
56.881522
 30
0.0
 10
247.787145
 20
57.256809
 30
0.0
 10
247.278146
 20
57.467644
 30
0.0
 10
246.747410
 20
57.467644
 30
0.0
  0
LWPOLYLINE
  5
14a
100
AcDbEntity
  8
Layer_1
 62
7
100
AcDbPolyline
 90
1
 70
1
 10
262.747410
 20
57.467644
 30
0.0
  0
SPLINE
  5
14b
100
AcDbEntity
  8
Layer_1
 62
7
100
AcDbSpline
 70
8
 71
3
 72
8
 73
4
 74
0
 40
0
 40
0
 40
0
 40
0
 40
1
 40
1
 40
1
 40
1
 10
230.747410
 20
57.467644
 30
0.0
 10
229.938023
 20
57.467644
 30
0.0
 10
229.208333
 20
56.980081
 30
0.0
 10
228.898594
 20
56.232304
 30
0.0
  0
SPLINE
  5
14c
100
AcDbEntity
  8
Layer_1
 62
7
100
AcDbSpline
 70
8
 71
3
 72
8
 73
4
 74
0
 40
0
 40
0
 40
0
 40
0
 40
1
 40
1
 40
1
 40
1
 10
228.898594
 20
56.232304
 30
0.0
 10
228.588855
 20
55.484528
 30
0.0
 10
228.760065
 20
54.623801
 30
0.0
 10
229.332388
 20
54.051478
 30
0.0
  0
SPLINE
  5
14d
100
AcDbEntity
  8
Layer_1
 62
7
100
AcDbSpline
 70
8
 71
3
 72
8
 73
4
 74
0
 40
0
 40
0
 40
0
 40
0
 40
1
 40
1
 40
1
 40
1
 10
229.332388
 20
54.051478
 30
0.0
 10
229.904711
 20
53.479155
 30
0.0
 10
230.765438
 20
53.307945
 30
0.0
 10
231.513214
 20
53.617684
 30
0.0
  0
SPLINE
  5
14e
100
AcDbEntity
  8
Layer_1
 62
7
100
AcDbSpline
 70
8
 71
3
 72
8
 73
4
 74
0
 40
0
 40
0
 40
0
 40
0
 40
1
 40
1
 40
1
 40
1
 10
231.513214
 20
53.617684
 30
0.0
 10
232.260991
 20
53.927423
 30
0.0
 10
232.748554
 20
54.657113
 30
0.0
 10
232.748554
 20
55.466500
 30
0.0
  0
SPLINE
  5
14f
100
AcDbEntity
  8
Layer_1
 62
7
100
AcDbSpline
 70
8
 71
3
 72
8
 73
4
 74
0
 40
0
 40
0
 40
0
 40
0
 40
1
 40
1
 40
1
 40
1
 10
232.748554
 20
55.466500
 30
0.0
 10
232.748554
 20
55.997236
 30
0.0
 10
232.537719
 20
56.506235
 30
0.0
 10
232.162432
 20
56.881522
 30
0.0
  0
SPLINE
  5
150
100
AcDbEntity
  8
Layer_1
 62
7
100
AcDbSpline
 70
8
 71
3
 72
8
 73
4
 74
0
 40
0
 40
0
 40
0
 40
0
 40
1
 40
1
 40
1
 40
1
 10
232.162432
 20
56.881522
 30
0.0
 10
231.787145
 20
57.256809
 30
0.0
 10
231.278146
 20
57.467644
 30
0.0
 10
230.747410
 20
57.467644
 30
0.0
  0
LWPOLYLINE
  5
151
100
AcDbEntity
  8
Layer_1
 62
7
100
AcDbPolyline
 90
1
 70
1
 10
246.747410
 20
57.467644
 30
0.0
  0
SPLINE
  5
152
100
AcDbEntity
  8
Layer_1
 62
7
100
AcDbSpline
 70
8
 71
3
 72
8
 73
4
 74
0
 40
0
 40
0
 40
0
 40
0
 40
1
 40
1
 40
1
 40
1
 10
214.747410
 20
57.467644
 30
0.0
 10
213.938023
 20
57.467644
 30
0.0
 10
213.208333
 20
56.980081
 30
0.0
 10
212.898594
 20
56.232304
 30
0.0
  0
SPLINE
  5
153
100
AcDbEntity
  8
Layer_1
 62
7
100
AcDbSpline
 70
8
 71
3
 72
8
 73
4
 74
0
 40
0
 40
0
 40
0
 40
0
 40
1
 40
1
 40
1
 40
1
 10
212.898594
 20
56.232304
 30
0.0
 10
212.588855
 20
55.484528
 30
0.0
 10
212.760065
 20
54.623801
 30
0.0
 10
213.332388
 20
54.051478
 30
0.0
  0
SPLINE
  5
154
100
AcDbEntity
  8
Layer_1
 62
7
100
AcDbSpline
 70
8
 71
3
 72
8
 73
4
 74
0
 40
0
 40
0
 40
0
 40
0
 40
1
 40
1
 40
1
 40
1
 10
213.332388
 20
54.051478
 30
0.0
 10
213.904711
 20
53.479155
 30
0.0
 10
214.765438
 20
53.307945
 30
0.0
 10
215.513214
 20
53.617684
 30
0.0
  0
SPLINE
  5
155
100
AcDbEntity
  8
Layer_1
 62
7
100
AcDbSpline
 70
8
 71
3
 72
8
 73
4
 74
0
 40
0
 40
0
 40
0
 40
0
 40
1
 40
1
 40
1
 40
1
 10
215.513214
 20
53.617684
 30
0.0
 10
216.260991
 20
53.927423
 30
0.0
 10
216.748554
 20
54.657113
 30
0.0
 10
216.748554
 20
55.466500
 30
0.0
  0
SPLINE
  5
156
100
AcDbEntity
  8
Layer_1
 62
7
100
AcDbSpline
 70
8
 71
3
 72
8
 73
4
 74
0
 40
0
 40
0
 40
0
 40
0
 40
1
 40
1
 40
1
 40
1
 10
216.748554
 20
55.466500
 30
0.0
 10
216.748554
 20
55.997236
 30
0.0
 10
216.537719
 20
56.506235
 30
0.0
 10
216.162432
 20
56.881522
 30
0.0
  0
SPLINE
  5
157
100
AcDbEntity
  8
Layer_1
 62
7
100
AcDbSpline
 70
8
 71
3
 72
8
 73
4
 74
0
 40
0
 40
0
 40
0
 40
0
 40
1
 40
1
 40
1
 40
1
 10
216.162432
 20
56.881522
 30
0.0
 10
215.787145
 20
57.256809
 30
0.0
 10
215.278146
 20
57.467644
 30
0.0
 10
214.747410
 20
57.467644
 30
0.0
  0
LWPOLYLINE
  5
158
100
AcDbEntity
  8
Layer_1
 62
7
100
AcDbPolyline
 90
1
 70
1
 10
230.747410
 20
57.467644
 30
0.0
  0
SPLINE
  5
159
100
AcDbEntity
  8
Layer_1
 62
7
100
AcDbSpline
 70
8
 71
3
 72
8
 73
4
 74
0
 40
0
 40
0
 40
0
 40
0
 40
1
 40
1
 40
1
 40
1
 10
198.747410
 20
57.467644
 30
0.0
 10
197.938023
 20
57.467644
 30
0.0
 10
197.208333
 20
56.980081
 30
0.0
 10
196.898594
 20
56.232304
 30
0.0
  0
SPLINE
  5
15a
100
AcDbEntity
  8
Layer_1
 62
7
100
AcDbSpline
 70
8
 71
3
 72
8
 73
4
 74
0
 40
0
 40
0
 40
0
 40
0
 40
1
 40
1
 40
1
 40
1
 10
196.898594
 20
56.232304
 30
0.0
 10
196.588855
 20
55.484528
 30
0.0
 10
196.760065
 20
54.623801
 30
0.0
 10
197.332388
 20
54.051478
 30
0.0
  0
SPLINE
  5
15b
100
AcDbEntity
  8
Layer_1
 62
7
100
AcDbSpline
 70
8
 71
3
 72
8
 73
4
 74
0
 40
0
 40
0
 40
0
 40
0
 40
1
 40
1
 40
1
 40
1
 10
197.332388
 20
54.051478
 30
0.0
 10
197.904711
 20
53.479155
 30
0.0
 10
198.765438
 20
53.307945
 30
0.0
 10
199.513214
 20
53.617684
 30
0.0
  0
SPLINE
  5
15c
100
AcDbEntity
  8
Layer_1
 62
7
100
AcDbSpline
 70
8
 71
3
 72
8
 73
4
 74
0
 40
0
 40
0
 40
0
 40
0
 40
1
 40
1
 40
1
 40
1
 10
199.513214
 20
53.617684
 30
0.0
 10
200.260991
 20
53.927423
 30
0.0
 10
200.748554
 20
54.657113
 30
0.0
 10
200.748554
 20
55.466500
 30
0.0
  0
SPLINE
  5
15d
100
AcDbEntity
  8
Layer_1
 62
7
100
AcDbSpline
 70
8
 71
3
 72
8
 73
4
 74
0
 40
0
 40
0
 40
0
 40
0
 40
1
 40
1
 40
1
 40
1
 10
200.748554
 20
55.466500
 30
0.0
 10
200.748554
 20
55.997236
 30
0.0
 10
200.537719
 20
56.506235
 30
0.0
 10
200.162432
 20
56.881522
 30
0.0
  0
SPLINE
  5
15e
100
AcDbEntity
  8
Layer_1
 62
7
100
AcDbSpline
 70
8
 71
3
 72
8
 73
4
 74
0
 40
0
 40
0
 40
0
 40
0
 40
1
 40
1
 40
1
 40
1
 10
200.162432
 20
56.881522
 30
0.0
 10
199.787145
 20
57.256809
 30
0.0
 10
199.278146
 20
57.467644
 30
0.0
 10
198.747410
 20
57.467644
 30
0.0
  0
LWPOLYLINE
  5
15f
100
AcDbEntity
  8
Layer_1
 62
7
100
AcDbPolyline
 90
1
 70
1
 10
214.747410
 20
57.467644
 30
0.0
  0
SPLINE
  5
160
100
AcDbEntity
  8
Layer_1
 62
7
100
AcDbSpline
 70
8
 71
3
 72
8
 73
4
 74
0
 40
0
 40
0
 40
0
 40
0
 40
1
 40
1
 40
1
 40
1
 10
182.747440
 20
57.467644
 30
0.0
 10
181.938053
 20
57.467644
 30
0.0
 10
181.208363
 20
56.980081
 30
0.0
 10
180.898624
 20
56.232304
 30
0.0
  0
SPLINE
  5
161
100
AcDbEntity
  8
Layer_1
 62
7
100
AcDbSpline
 70
8
 71
3
 72
8
 73
4
 74
0
 40
0
 40
0
 40
0
 40
0
 40
1
 40
1
 40
1
 40
1
 10
180.898624
 20
56.232304
 30
0.0
 10
180.588885
 20
55.484528
 30
0.0
 10
180.760095
 20
54.623801
 30
0.0
 10
181.332418
 20
54.051478
 30
0.0
  0
SPLINE
  5
162
100
AcDbEntity
  8
Layer_1
 62
7
100
AcDbSpline
 70
8
 71
3
 72
8
 73
4
 74
0
 40
0
 40
0
 40
0
 40
0
 40
1
 40
1
 40
1
 40
1
 10
181.332418
 20
54.051478
 30
0.0
 10
181.904741
 20
53.479155
 30
0.0
 10
182.765468
 20
53.307945
 30
0.0
 10
183.513244
 20
53.617684
 30
0.0
  0
SPLINE
  5
163
100
AcDbEntity
  8
Layer_1
 62
7
100
AcDbSpline
 70
8
 71
3
 72
8
 73
4
 74
0
 40
0
 40
0
 40
0
 40
0
 40
1
 40
1
 40
1
 40
1
 10
183.513244
 20
53.617684
 30
0.0
 10
184.261021
 20
53.927423
 30
0.0
 10
184.748584
 20
54.657113
 30
0.0
 10
184.748584
 20
55.466500
 30
0.0
  0
SPLINE
  5
164
100
AcDbEntity
  8
Layer_1
 62
7
100
AcDbSpline
 70
8
 71
3
 72
8
 73
4
 74
0
 40
0
 40
0
 40
0
 40
0
 40
1
 40
1
 40
1
 40
1
 10
184.748584
 20
55.466500
 30
0.0
 10
184.748584
 20
55.997236
 30
0.0
 10
184.537749
 20
56.506235
 30
0.0
 10
184.162462
 20
56.881522
 30
0.0
  0
SPLINE
  5
165
100
AcDbEntity
  8
Layer_1
 62
7
100
AcDbSpline
 70
8
 71
3
 72
8
 73
4
 74
0
 40
0
 40
0
 40
0
 40
0
 40
1
 40
1
 40
1
 40
1
 10
184.162462
 20
56.881522
 30
0.0
 10
183.787175
 20
57.256809
 30
0.0
 10
183.278176
 20
57.467644
 30
0.0
 10
182.747440
 20
57.467644
 30
0.0
  0
LWPOLYLINE
  5
166
100
AcDbEntity
  8
Layer_1
 62
7
100
AcDbPolyline
 90
1
 70
1
 10
198.747410
 20
57.467644
 30
0.0
  0
SPLINE
  5
167
100
AcDbEntity
  8
Layer_1
 62
7
100
AcDbSpline
 70
8
 71
3
 72
8
 73
4
 74
0
 40
0
 40
0
 40
0
 40
0
 40
1
 40
1
 40
1
 40
1
 10
166.747440
 20
57.467644
 30
0.0
 10
165.938053
 20
57.467644
 30
0.0
 10
165.208363
 20
56.980081
 30
0.0
 10
164.898624
 20
56.232304
 30
0.0
  0
SPLINE
  5
168
100
AcDbEntity
  8
Layer_1
 62
7
100
AcDbSpline
 70
8
 71
3
 72
8
 73
4
 74
0
 40
0
 40
0
 40
0
 40
0
 40
1
 40
1
 40
1
 40
1
 10
164.898624
 20
56.232304
 30
0.0
 10
164.588885
 20
55.484528
 30
0.0
 10
164.760095
 20
54.623801
 30
0.0
 10
165.332418
 20
54.051478
 30
0.0
  0
SPLINE
  5
169
100
AcDbEntity
  8
Layer_1
 62
7
100
AcDbSpline
 70
8
 71
3
 72
8
 73
4
 74
0
 40
0
 40
0
 40
0
 40
0
 40
1
 40
1
 40
1
 40
1
 10
165.332418
 20
54.051478
 30
0.0
 10
165.904741
 20
53.479155
 30
0.0
 10
166.765468
 20
53.307945
 30
0.0
 10
167.513244
 20
53.617684
 30
0.0
  0
SPLINE
  5
16a
100
AcDbEntity
  8
Layer_1
 62
7
100
AcDbSpline
 70
8
 71
3
 72
8
 73
4
 74
0
 40
0
 40
0
 40
0
 40
0
 40
1
 40
1
 40
1
 40
1
 10
167.513244
 20
53.617684
 30
0.0
 10
168.261021
 20
53.927423
 30
0.0
 10
168.748584
 20
54.657113
 30
0.0
 10
168.748584
 20
55.466500
 30
0.0
  0
SPLINE
  5
16b
100
AcDbEntity
  8
Layer_1
 62
7
100
AcDbSpline
 70
8
 71
3
 72
8
 73
4
 74
0
 40
0
 40
0
 40
0
 40
0
 40
1
 40
1
 40
1
 40
1
 10
168.748584
 20
55.466500
 30
0.0
 10
168.748584
 20
55.997236
 30
0.0
 10
168.537749
 20
56.506235
 30
0.0
 10
168.162462
 20
56.881522
 30
0.0
  0
SPLINE
  5
16c
100
AcDbEntity
  8
Layer_1
 62
7
100
AcDbSpline
 70
8
 71
3
 72
8
 73
4
 74
0
 40
0
 40
0
 40
0
 40
0
 40
1
 40
1
 40
1
 40
1
 10
168.162462
 20
56.881522
 30
0.0
 10
167.787175
 20
57.256809
 30
0.0
 10
167.278176
 20
57.467644
 30
0.0
 10
166.747440
 20
57.467644
 30
0.0
  0
LWPOLYLINE
  5
16d
100
AcDbEntity
  8
Layer_1
 62
7
100
AcDbPolyline
 90
1
 70
1
 10
182.747440
 20
57.467644
 30
0.0
  0
SPLINE
  5
16e
100
AcDbEntity
  8
Layer_1
 62
7
100
AcDbSpline
 70
8
 71
3
 72
8
 73
4
 74
0
 40
0
 40
0
 40
0
 40
0
 40
1
 40
1
 40
1
 40
1
 10
150.747440
 20
57.467644
 30
0.0
 10
149.938053
 20
57.467644
 30
0.0
 10
149.208363
 20
56.980081
 30
0.0
 10
148.898624
 20
56.232304
 30
0.0
  0
SPLINE
  5
16f
100
AcDbEntity
  8
Layer_1
 62
7
100
AcDbSpline
 70
8
 71
3
 72
8
 73
4
 74
0
 40
0
 40
0
 40
0
 40
0
 40
1
 40
1
 40
1
 40
1
 10
148.898624
 20
56.232304
 30
0.0
 10
148.588885
 20
55.484528
 30
0.0
 10
148.760095
 20
54.623801
 30
0.0
 10
149.332418
 20
54.051478
 30
0.0
  0
SPLINE
  5
170
100
AcDbEntity
  8
Layer_1
 62
7
100
AcDbSpline
 70
8
 71
3
 72
8
 73
4
 74
0
 40
0
 40
0
 40
0
 40
0
 40
1
 40
1
 40
1
 40
1
 10
149.332418
 20
54.051478
 30
0.0
 10
149.904741
 20
53.479155
 30
0.0
 10
150.765468
 20
53.307945
 30
0.0
 10
151.513244
 20
53.617684
 30
0.0
  0
SPLINE
  5
171
100
AcDbEntity
  8
Layer_1
 62
7
100
AcDbSpline
 70
8
 71
3
 72
8
 73
4
 74
0
 40
0
 40
0
 40
0
 40
0
 40
1
 40
1
 40
1
 40
1
 10
151.513244
 20
53.617684
 30
0.0
 10
152.261021
 20
53.927423
 30
0.0
 10
152.748584
 20
54.657113
 30
0.0
 10
152.748584
 20
55.466500
 30
0.0
  0
SPLINE
  5
172
100
AcDbEntity
  8
Layer_1
 62
7
100
AcDbSpline
 70
8
 71
3
 72
8
 73
4
 74
0
 40
0
 40
0
 40
0
 40
0
 40
1
 40
1
 40
1
 40
1
 10
152.748584
 20
55.466500
 30
0.0
 10
152.748584
 20
55.997236
 30
0.0
 10
152.537749
 20
56.506235
 30
0.0
 10
152.162462
 20
56.881522
 30
0.0
  0
SPLINE
  5
173
100
AcDbEntity
  8
Layer_1
 62
7
100
AcDbSpline
 70
8
 71
3
 72
8
 73
4
 74
0
 40
0
 40
0
 40
0
 40
0
 40
1
 40
1
 40
1
 40
1
 10
152.162462
 20
56.881522
 30
0.0
 10
151.787175
 20
57.256809
 30
0.0
 10
151.278176
 20
57.467644
 30
0.0
 10
150.747440
 20
57.467644
 30
0.0
  0
LWPOLYLINE
  5
174
100
AcDbEntity
  8
Layer_1
 62
7
100
AcDbPolyline
 90
1
 70
1
 10
166.747440
 20
57.467644
 30
0.0
  0
SPLINE
  5
175
100
AcDbEntity
  8
Layer_1
 62
7
100
AcDbSpline
 70
8
 71
3
 72
8
 73
4
 74
0
 40
0
 40
0
 40
0
 40
0
 40
1
 40
1
 40
1
 40
1
 10
134.747440
 20
57.467644
 30
0.0
 10
133.938053
 20
57.467644
 30
0.0
 10
133.208363
 20
56.980081
 30
0.0
 10
132.898624
 20
56.232304
 30
0.0
  0
SPLINE
  5
176
100
AcDbEntity
  8
Layer_1
 62
7
100
AcDbSpline
 70
8
 71
3
 72
8
 73
4
 74
0
 40
0
 40
0
 40
0
 40
0
 40
1
 40
1
 40
1
 40
1
 10
132.898624
 20
56.232304
 30
0.0
 10
132.588885
 20
55.484528
 30
0.0
 10
132.760095
 20
54.623801
 30
0.0
 10
133.332418
 20
54.051478
 30
0.0
  0
SPLINE
  5
177
100
AcDbEntity
  8
Layer_1
 62
7
100
AcDbSpline
 70
8
 71
3
 72
8
 73
4
 74
0
 40
0
 40
0
 40
0
 40
0
 40
1
 40
1
 40
1
 40
1
 10
133.332418
 20
54.051478
 30
0.0
 10
133.904741
 20
53.479155
 30
0.0
 10
134.765468
 20
53.307945
 30
0.0
 10
135.513244
 20
53.617684
 30
0.0
  0
SPLINE
  5
178
100
AcDbEntity
  8
Layer_1
 62
7
100
AcDbSpline
 70
8
 71
3
 72
8
 73
4
 74
0
 40
0
 40
0
 40
0
 40
0
 40
1
 40
1
 40
1
 40
1
 10
135.513244
 20
53.617684
 30
0.0
 10
136.261021
 20
53.927423
 30
0.0
 10
136.748583
 20
54.657113
 30
0.0
 10
136.748583
 20
55.466500
 30
0.0
  0
SPLINE
  5
179
100
AcDbEntity
  8
Layer_1
 62
7
100
AcDbSpline
 70
8
 71
3
 72
8
 73
4
 74
0
 40
0
 40
0
 40
0
 40
0
 40
1
 40
1
 40
1
 40
1
 10
136.748583
 20
55.466500
 30
0.0
 10
136.748584
 20
55.997236
 30
0.0
 10
136.537749
 20
56.506235
 30
0.0
 10
136.162462
 20
56.881522
 30
0.0
  0
SPLINE
  5
17a
100
AcDbEntity
  8
Layer_1
 62
7
100
AcDbSpline
 70
8
 71
3
 72
8
 73
4
 74
0
 40
0
 40
0
 40
0
 40
0
 40
1
 40
1
 40
1
 40
1
 10
136.162462
 20
56.881522
 30
0.0
 10
135.787175
 20
57.256809
 30
0.0
 10
135.278176
 20
57.467644
 30
0.0
 10
134.747440
 20
57.467644
 30
0.0
  0
LWPOLYLINE
  5
17b
100
AcDbEntity
  8
Layer_1
 62
7
100
AcDbPolyline
 90
1
 70
1
 10
150.747440
 20
57.467644
 30
0.0
  0
SPLINE
  5
17c
100
AcDbEntity
  8
Layer_1
 62
7
100
AcDbSpline
 70
8
 71
3
 72
8
 73
4
 74
0
 40
0
 40
0
 40
0
 40
0
 40
1
 40
1
 40
1
 40
1
 10
118.747441
 20
57.467644
 30
0.0
 10
117.938054
 20
57.467644
 30
0.0
 10
117.208364
 20
56.980081
 30
0.0
 10
116.898625
 20
56.232304
 30
0.0
  0
SPLINE
  5
17d
100
AcDbEntity
  8
Layer_1
 62
7
100
AcDbSpline
 70
8
 71
3
 72
8
 73
4
 74
0
 40
0
 40
0
 40
0
 40
0
 40
1
 40
1
 40
1
 40
1
 10
116.898625
 20
56.232304
 30
0.0
 10
116.588886
 20
55.484528
 30
0.0
 10
116.760096
 20
54.623801
 30
0.0
 10
117.332419
 20
54.051478
 30
0.0
  0
SPLINE
  5
17e
100
AcDbEntity
  8
Layer_1
 62
7
100
AcDbSpline
 70
8
 71
3
 72
8
 73
4
 74
0
 40
0
 40
0
 40
0
 40
0
 40
1
 40
1
 40
1
 40
1
 10
117.332419
 20
54.051478
 30
0.0
 10
117.904742
 20
53.479155
 30
0.0
 10
118.765469
 20
53.307945
 30
0.0
 10
119.513245
 20
53.617684
 30
0.0
  0
SPLINE
  5
17f
100
AcDbEntity
  8
Layer_1
 62
7
100
AcDbSpline
 70
8
 71
3
 72
8
 73
4
 74
0
 40
0
 40
0
 40
0
 40
0
 40
1
 40
1
 40
1
 40
1
 10
119.513245
 20
53.617684
 30
0.0
 10
120.261022
 20
53.927423
 30
0.0
 10
120.748585
 20
54.657113
 30
0.0
 10
120.748585
 20
55.466500
 30
0.0
  0
SPLINE
  5
180
100
AcDbEntity
  8
Layer_1
 62
7
100
AcDbSpline
 70
8
 71
3
 72
8
 73
4
 74
0
 40
0
 40
0
 40
0
 40
0
 40
1
 40
1
 40
1
 40
1
 10
120.748585
 20
55.466500
 30
0.0
 10
120.748585
 20
56.571701
 30
0.0
 10
119.852642
 20
57.467644
 30
0.0
 10
118.747441
 20
57.467644
 30
0.0
  0
LWPOLYLINE
  5
181
100
AcDbEntity
  8
Layer_1
 62
7
100
AcDbPolyline
 90
1
 70
1
 10
134.747440
 20
57.467644
 30
0.0
  0
SPLINE
  5
182
100
AcDbEntity
  8
Layer_1
 62
7
100
AcDbSpline
 70
8
 71
3
 72
8
 73
4
 74
0
 40
0
 40
0
 40
0
 40
0
 40
1
 40
1
 40
1
 40
1
 10
79.923343
 20
169.563960
 30
0.0
 10
79.923343
 20
170.373347
 30
0.0
 10
79.435781
 20
171.103037
 30
0.0
 10
78.688004
 20
171.412776
 30
0.0
  0
SPLINE
  5
183
100
AcDbEntity
  8
Layer_1
 62
7
100
AcDbSpline
 70
8
 71
3
 72
8
 73
4
 74
0
 40
0
 40
0
 40
0
 40
0
 40
1
 40
1
 40
1
 40
1
 10
78.688004
 20
171.412776
 30
0.0
 10
77.940228
 20
171.722515
 30
0.0
 10
77.079501
 20
171.551305
 30
0.0
 10
76.507178
 20
170.978982
 30
0.0
  0
SPLINE
  5
184
100
AcDbEntity
  8
Layer_1
 62
7
100
AcDbSpline
 70
8
 71
3
 72
8
 73
4
 74
0
 40
0
 40
0
 40
0
 40
0
 40
1
 40
1
 40
1
 40
1
 10
76.507178
 20
170.978982
 30
0.0
 10
75.934855
 20
170.406659
 30
0.0
 10
75.763645
 20
169.545932
 30
0.0
 10
76.073384
 20
168.798156
 30
0.0
  0
SPLINE
  5
185
100
AcDbEntity
  8
Layer_1
 62
7
100
AcDbSpline
 70
8
 71
3
 72
8
 73
4
 74
0
 40
0
 40
0
 40
0
 40
0
 40
1
 40
1
 40
1
 40
1
 10
76.073384
 20
168.798156
 30
0.0
 10
76.383123
 20
168.050379
 30
0.0
 10
77.112813
 20
167.562816
 30
0.0
 10
77.922200
 20
167.562816
 30
0.0
  0
SPLINE
  5
186
100
AcDbEntity
  8
Layer_1
 62
7
100
AcDbSpline
 70
8
 71
3
 72
8
 73
4
 74
0
 40
0
 40
0
 40
0
 40
0
 40
1
 40
1
 40
1
 40
1
 10
77.922200
 20
167.562816
 30
0.0
 10
78.452936
 20
167.562816
 30
0.0
 10
78.961935
 20
167.773651
 30
0.0
 10
79.337222
 20
168.148938
 30
0.0
  0
SPLINE
  5
187
100
AcDbEntity
  8
Layer_1
 62
7
100
AcDbSpline
 70
8
 71
3
 72
8
 73
4
 74
0
 40
0
 40
0
 40
0
 40
0
 40
1
 40
1
 40
1
 40
1
 10
79.337222
 20
168.148938
 30
0.0
 10
79.712509
 20
168.524225
 30
0.0
 10
79.923343
 20
169.033224
 30
0.0
 10
79.923343
 20
169.563960
 30
0.0
  0
LWPOLYLINE
  5
188
100
AcDbEntity
  8
Layer_1
 62
7
100
AcDbPolyline
 90
1
 70
1
 10
118.747441
 20
57.467644
 30
0.0
  0
SPLINE
  5
189
100
AcDbEntity
  8
Layer_1
 62
7
100
AcDbSpline
 70
8
 71
3
 72
8
 73
4
 74
0
 40
0
 40
0
 40
0
 40
0
 40
1
 40
1
 40
1
 40
1
 10
79.923343
 20
153.563960
 30
0.0
 10
79.923343
 20
154.373347
 30
0.0
 10
79.435781
 20
155.103037
 30
0.0
 10
78.688004
 20
155.412776
 30
0.0
  0
SPLINE
  5
18a
100
AcDbEntity
  8
Layer_1
 62
7
100
AcDbSpline
 70
8
 71
3
 72
8
 73
4
 74
0
 40
0
 40
0
 40
0
 40
0
 40
1
 40
1
 40
1
 40
1
 10
78.688004
 20
155.412776
 30
0.0
 10
77.940228
 20
155.722515
 30
0.0
 10
77.079501
 20
155.551305
 30
0.0
 10
76.507178
 20
154.978982
 30
0.0
  0
SPLINE
  5
18b
100
AcDbEntity
  8
Layer_1
 62
7
100
AcDbSpline
 70
8
 71
3
 72
8
 73
4
 74
0
 40
0
 40
0
 40
0
 40
0
 40
1
 40
1
 40
1
 40
1
 10
76.507178
 20
154.978982
 30
0.0
 10
75.934855
 20
154.406659
 30
0.0
 10
75.763645
 20
153.545932
 30
0.0
 10
76.073384
 20
152.798156
 30
0.0
  0
SPLINE
  5
18c
100
AcDbEntity
  8
Layer_1
 62
7
100
AcDbSpline
 70
8
 71
3
 72
8
 73
4
 74
0
 40
0
 40
0
 40
0
 40
0
 40
1
 40
1
 40
1
 40
1
 10
76.073384
 20
152.798156
 30
0.0
 10
76.383123
 20
152.050379
 30
0.0
 10
77.112813
 20
151.562816
 30
0.0
 10
77.922200
 20
151.562816
 30
0.0
  0
SPLINE
  5
18d
100
AcDbEntity
  8
Layer_1
 62
7
100
AcDbSpline
 70
8
 71
3
 72
8
 73
4
 74
0
 40
0
 40
0
 40
0
 40
0
 40
1
 40
1
 40
1
 40
1
 10
77.922200
 20
151.562816
 30
0.0
 10
78.452936
 20
151.562816
 30
0.0
 10
78.961935
 20
151.773651
 30
0.0
 10
79.337222
 20
152.148938
 30
0.0
  0
SPLINE
  5
18e
100
AcDbEntity
  8
Layer_1
 62
7
100
AcDbSpline
 70
8
 71
3
 72
8
 73
4
 74
0
 40
0
 40
0
 40
0
 40
0
 40
1
 40
1
 40
1
 40
1
 10
79.337222
 20
152.148938
 30
0.0
 10
79.712509
 20
152.524225
 30
0.0
 10
79.923343
 20
153.033224
 30
0.0
 10
79.923343
 20
153.563960
 30
0.0
  0
LWPOLYLINE
  5
18f
100
AcDbEntity
  8
Layer_1
 62
7
100
AcDbPolyline
 90
1
 70
1
 10
79.923343
 20
169.563960
 30
0.0
  0
SPLINE
  5
190
100
AcDbEntity
  8
Layer_1
 62
7
100
AcDbSpline
 70
8
 71
3
 72
8
 73
4
 74
0
 40
0
 40
0
 40
0
 40
0
 40
1
 40
1
 40
1
 40
1
 10
79.923343
 20
73.563950
 30
0.0
 10
79.923343
 20
74.669151
 30
0.0
 10
79.027401
 20
75.565093
 30
0.0
 10
77.922200
 20
75.565093
 30
0.0
  0
SPLINE
  5
191
100
AcDbEntity
  8
Layer_1
 62
7
100
AcDbSpline
 70
8
 71
3
 72
8
 73
4
 74
0
 40
0
 40
0
 40
0
 40
0
 40
1
 40
1
 40
1
 40
1
 10
77.922200
 20
75.565093
 30
0.0
 10
76.816999
 20
75.565093
 30
0.0
 10
75.921056
 20
74.669151
 30
0.0
 10
75.921056
 20
73.563950
 30
0.0
  0
SPLINE
  5
192
100
AcDbEntity
  8
Layer_1
 62
7
100
AcDbSpline
 70
8
 71
3
 72
8
 73
4
 74
0
 40
0
 40
0
 40
0
 40
0
 40
1
 40
1
 40
1
 40
1
 10
75.921056
 20
73.563950
 30
0.0
 10
75.921056
 20
72.458749
 30
0.0
 10
76.816999
 20
71.562806
 30
0.0
 10
77.922200
 20
71.562806
 30
0.0
  0
SPLINE
  5
193
100
AcDbEntity
  8
Layer_1
 62
7
100
AcDbSpline
 70
8
 71
3
 72
8
 73
4
 74
0
 40
0
 40
0
 40
0
 40
0
 40
1
 40
1
 40
1
 40
1
 10
77.922200
 20
71.562806
 30
0.0
 10
78.452936
 20
71.562806
 30
0.0
 10
78.961935
 20
71.773641
 30
0.0
 10
79.337222
 20
72.148928
 30
0.0
  0
SPLINE
  5
194
100
AcDbEntity
  8
Layer_1
 62
7
100
AcDbSpline
 70
8
 71
3
 72
8
 73
4
 74
0
 40
0
 40
0
 40
0
 40
0
 40
1
 40
1
 40
1
 40
1
 10
79.337222
 20
72.148928
 30
0.0
 10
79.712509
 20
72.524215
 30
0.0
 10
79.923343
 20
73.033214
 30
0.0
 10
79.923343
 20
73.563950
 30
0.0
  0
LWPOLYLINE
  5
195
100
AcDbEntity
  8
Layer_1
 62
7
100
AcDbPolyline
 90
1
 70
1
 10
79.923343
 20
153.563960
 30
0.0
  0
SPLINE
  5
196
100
AcDbEntity
  8
Layer_1
 62
7
100
AcDbSpline
 70
8
 71
3
 72
8
 73
4
 74
0
 40
0
 40
0
 40
0
 40
0
 40
1
 40
1
 40
1
 40
1
 10
79.923343
 20
89.563950
 30
0.0
 10
79.923343
 20
90.669151
 30
0.0
 10
79.027401
 20
91.565093
 30
0.0
 10
77.922200
 20
91.565093
 30
0.0
  0
SPLINE
  5
197
100
AcDbEntity
  8
Layer_1
 62
7
100
AcDbSpline
 70
8
 71
3
 72
8
 73
4
 74
0
 40
0
 40
0
 40
0
 40
0
 40
1
 40
1
 40
1
 40
1
 10
77.922200
 20
91.565093
 30
0.0
 10
76.816999
 20
91.565093
 30
0.0
 10
75.921056
 20
90.669151
 30
0.0
 10
75.921056
 20
89.563950
 30
0.0
  0
SPLINE
  5
198
100
AcDbEntity
  8
Layer_1
 62
7
100
AcDbSpline
 70
8
 71
3
 72
8
 73
4
 74
0
 40
0
 40
0
 40
0
 40
0
 40
1
 40
1
 40
1
 40
1
 10
75.921056
 20
89.563950
 30
0.0
 10
75.921056
 20
88.458749
 30
0.0
 10
76.816999
 20
87.562806
 30
0.0
 10
77.922200
 20
87.562806
 30
0.0
  0
SPLINE
  5
199
100
AcDbEntity
  8
Layer_1
 62
7
100
AcDbSpline
 70
8
 71
3
 72
8
 73
4
 74
0
 40
0
 40
0
 40
0
 40
0
 40
1
 40
1
 40
1
 40
1
 10
77.922200
 20
87.562806
 30
0.0
 10
78.452936
 20
87.562806
 30
0.0
 10
78.961935
 20
87.773641
 30
0.0
 10
79.337222
 20
88.148928
 30
0.0
  0
SPLINE
  5
19a
100
AcDbEntity
  8
Layer_1
 62
7
100
AcDbSpline
 70
8
 71
3
 72
8
 73
4
 74
0
 40
0
 40
0
 40
0
 40
0
 40
1
 40
1
 40
1
 40
1
 10
79.337222
 20
88.148928
 30
0.0
 10
79.712509
 20
88.524215
 30
0.0
 10
79.923343
 20
89.033214
 30
0.0
 10
79.923343
 20
89.563950
 30
0.0
  0
LWPOLYLINE
  5
19b
100
AcDbEntity
  8
Layer_1
 62
7
100
AcDbPolyline
 90
1
 70
1
 10
79.923343
 20
73.563950
 30
0.0
  0
SPLINE
  5
19c
100
AcDbEntity
  8
Layer_1
 62
7
100
AcDbSpline
 70
8
 71
3
 72
8
 73
4
 74
0
 40
0
 40
0
 40
0
 40
0
 40
1
 40
1
 40
1
 40
1
 10
79.923343
 20
105.563950
 30
0.0
 10
79.923343
 20
106.669151
 30
0.0
 10
79.027401
 20
107.565093
 30
0.0
 10
77.922200
 20
107.565093
 30
0.0
  0
SPLINE
  5
19d
100
AcDbEntity
  8
Layer_1
 62
7
100
AcDbSpline
 70
8
 71
3
 72
8
 73
4
 74
0
 40
0
 40
0
 40
0
 40
0
 40
1
 40
1
 40
1
 40
1
 10
77.922200
 20
107.565093
 30
0.0
 10
76.816999
 20
107.565093
 30
0.0
 10
75.921056
 20
106.669151
 30
0.0
 10
75.921056
 20
105.563950
 30
0.0
  0
SPLINE
  5
19e
100
AcDbEntity
  8
Layer_1
 62
7
100
AcDbSpline
 70
8
 71
3
 72
8
 73
4
 74
0
 40
0
 40
0
 40
0
 40
0
 40
1
 40
1
 40
1
 40
1
 10
75.921056
 20
105.563950
 30
0.0
 10
75.921056
 20
104.458749
 30
0.0
 10
76.816999
 20
103.562806
 30
0.0
 10
77.922200
 20
103.562806
 30
0.0
  0
SPLINE
  5
19f
100
AcDbEntity
  8
Layer_1
 62
7
100
AcDbSpline
 70
8
 71
3
 72
8
 73
4
 74
0
 40
0
 40
0
 40
0
 40
0
 40
1
 40
1
 40
1
 40
1
 10
77.922200
 20
103.562806
 30
0.0
 10
78.452936
 20
103.562806
 30
0.0
 10
78.961935
 20
103.773641
 30
0.0
 10
79.337222
 20
104.148928
 30
0.0
  0
SPLINE
  5
1a0
100
AcDbEntity
  8
Layer_1
 62
7
100
AcDbSpline
 70
8
 71
3
 72
8
 73
4
 74
0
 40
0
 40
0
 40
0
 40
0
 40
1
 40
1
 40
1
 40
1
 10
79.337222
 20
104.148928
 30
0.0
 10
79.712509
 20
104.524215
 30
0.0
 10
79.923343
 20
105.033214
 30
0.0
 10
79.923343
 20
105.563950
 30
0.0
  0
LWPOLYLINE
  5
1a1
100
AcDbEntity
  8
Layer_1
 62
7
100
AcDbPolyline
 90
1
 70
1
 10
79.923343
 20
89.563950
 30
0.0
  0
SPLINE
  5
1a2
100
AcDbEntity
  8
Layer_1
 62
7
100
AcDbSpline
 70
8
 71
3
 72
8
 73
4
 74
0
 40
0
 40
0
 40
0
 40
0
 40
1
 40
1
 40
1
 40
1
 10
79.923343
 20
121.563960
 30
0.0
 10
79.923343
 20
122.669161
 30
0.0
 10
79.027401
 20
123.565103
 30
0.0
 10
77.922200
 20
123.565103
 30
0.0
  0
SPLINE
  5
1a3
100
AcDbEntity
  8
Layer_1
 62
7
100
AcDbSpline
 70
8
 71
3
 72
8
 73
4
 74
0
 40
0
 40
0
 40
0
 40
0
 40
1
 40
1
 40
1
 40
1
 10
77.922200
 20
123.565103
 30
0.0
 10
76.816999
 20
123.565103
 30
0.0
 10
75.921056
 20
122.669161
 30
0.0
 10
75.921056
 20
121.563960
 30
0.0
  0
SPLINE
  5
1a4
100
AcDbEntity
  8
Layer_1
 62
7
100
AcDbSpline
 70
8
 71
3
 72
8
 73
4
 74
0
 40
0
 40
0
 40
0
 40
0
 40
1
 40
1
 40
1
 40
1
 10
75.921056
 20
121.563960
 30
0.0
 10
75.921056
 20
120.458759
 30
0.0
 10
76.816999
 20
119.562816
 30
0.0
 10
77.922200
 20
119.562816
 30
0.0
  0
SPLINE
  5
1a5
100
AcDbEntity
  8
Layer_1
 62
7
100
AcDbSpline
 70
8
 71
3
 72
8
 73
4
 74
0
 40
0
 40
0
 40
0
 40
0
 40
1
 40
1
 40
1
 40
1
 10
77.922200
 20
119.562816
 30
0.0
 10
78.452936
 20
119.562816
 30
0.0
 10
78.961935
 20
119.773651
 30
0.0
 10
79.337222
 20
120.148938
 30
0.0
  0
SPLINE
  5
1a6
100
AcDbEntity
  8
Layer_1
 62
7
100
AcDbSpline
 70
8
 71
3
 72
8
 73
4
 74
0
 40
0
 40
0
 40
0
 40
0
 40
1
 40
1
 40
1
 40
1
 10
79.337222
 20
120.148938
 30
0.0
 10
79.712509
 20
120.524225
 30
0.0
 10
79.923343
 20
121.033224
 30
0.0
 10
79.923343
 20
121.563960
 30
0.0
  0
LWPOLYLINE
  5
1a7
100
AcDbEntity
  8
Layer_1
 62
7
100
AcDbPolyline
 90
1
 70
1
 10
79.923343
 20
105.563950
 30
0.0
  0
SPLINE
  5
1a8
100
AcDbEntity
  8
Layer_1
 62
7
100
AcDbSpline
 70
8
 71
3
 72
8
 73
4
 74
0
 40
0
 40
0
 40
0
 40
0
 40
1
 40
1
 40
1
 40
1
 10
79.923343
 20
137.563960
 30
0.0
 10
79.923343
 20
138.669161
 30
0.0
 10
79.027401
 20
139.565103
 30
0.0
 10
77.922200
 20
139.565103
 30
0.0
  0
SPLINE
  5
1a9
100
AcDbEntity
  8
Layer_1
 62
7
100
AcDbSpline
 70
8
 71
3
 72
8
 73
4
 74
0
 40
0
 40
0
 40
0
 40
0
 40
1
 40
1
 40
1
 40
1
 10
77.922200
 20
139.565103
 30
0.0
 10
76.816999
 20
139.565103
 30
0.0
 10
75.921056
 20
138.669161
 30
0.0
 10
75.921056
 20
137.563960
 30
0.0
  0
SPLINE
  5
1aa
100
AcDbEntity
  8
Layer_1
 62
7
100
AcDbSpline
 70
8
 71
3
 72
8
 73
4
 74
0
 40
0
 40
0
 40
0
 40
0
 40
1
 40
1
 40
1
 40
1
 10
75.921056
 20
137.563960
 30
0.0
 10
75.921056
 20
136.458759
 30
0.0
 10
76.816999
 20
135.562816
 30
0.0
 10
77.922200
 20
135.562816
 30
0.0
  0
SPLINE
  5
1ab
100
AcDbEntity
  8
Layer_1
 62
7
100
AcDbSpline
 70
8
 71
3
 72
8
 73
4
 74
0
 40
0
 40
0
 40
0
 40
0
 40
1
 40
1
 40
1
 40
1
 10
77.922200
 20
135.562816
 30
0.0
 10
78.452936
 20
135.562816
 30
0.0
 10
78.961935
 20
135.773651
 30
0.0
 10
79.337222
 20
136.148938
 30
0.0
  0
SPLINE
  5
1ac
100
AcDbEntity
  8
Layer_1
 62
7
100
AcDbSpline
 70
8
 71
3
 72
8
 73
4
 74
0
 40
0
 40
0
 40
0
 40
0
 40
1
 40
1
 40
1
 40
1
 10
79.337222
 20
136.148938
 30
0.0
 10
79.712509
 20
136.524225
 30
0.0
 10
79.923343
 20
137.033224
 30
0.0
 10
79.923343
 20
137.563960
 30
0.0
  0
LWPOLYLINE
  5
1ad
100
AcDbEntity
  8
Layer_1
 62
7
100
AcDbPolyline
 90
1
 70
1
 10
79.923343
 20
121.563960
 30
0.0
  0
SPLINE
  5
1ae
100
AcDbEntity
  8
Layer_1
 62
7
100
AcDbSpline
 70
8
 71
3
 72
8
 73
4
 74
0
 40
0
 40
0
 40
0
 40
0
 40
1
 40
1
 40
1
 40
1
 10
378.355344
 20
169.563960
 30
0.0
 10
378.355344
 20
170.373347
 30
0.0
 10
377.867781
 20
171.103037
 30
0.0
 10
377.120004
 20
171.412776
 30
0.0
  0
SPLINE
  5
1af
100
AcDbEntity
  8
Layer_1
 62
7
100
AcDbSpline
 70
8
 71
3
 72
8
 73
4
 74
0
 40
0
 40
0
 40
0
 40
0
 40
1
 40
1
 40
1
 40
1
 10
377.120004
 20
171.412776
 30
0.0
 10
376.372228
 20
171.722515
 30
0.0
 10
375.511501
 20
171.551305
 30
0.0
 10
374.939178
 20
170.978982
 30
0.0
  0
SPLINE
  5
1b0
100
AcDbEntity
  8
Layer_1
 62
7
100
AcDbSpline
 70
8
 71
3
 72
8
 73
4
 74
0
 40
0
 40
0
 40
0
 40
0
 40
1
 40
1
 40
1
 40
1
 10
374.939178
 20
170.978982
 30
0.0
 10
374.366855
 20
170.406659
 30
0.0
 10
374.195645
 20
169.545932
 30
0.0
 10
374.505384
 20
168.798156
 30
0.0
  0
SPLINE
  5
1b1
100
AcDbEntity
  8
Layer_1
 62
7
100
AcDbSpline
 70
8
 71
3
 72
8
 73
4
 74
0
 40
0
 40
0
 40
0
 40
0
 40
1
 40
1
 40
1
 40
1
 10
374.505384
 20
168.798156
 30
0.0
 10
374.815123
 20
168.050379
 30
0.0
 10
375.544813
 20
167.562816
 30
0.0
 10
376.354200
 20
167.562816
 30
0.0
  0
SPLINE
  5
1b2
100
AcDbEntity
  8
Layer_1
 62
7
100
AcDbSpline
 70
8
 71
3
 72
8
 73
4
 74
0
 40
0
 40
0
 40
0
 40
0
 40
1
 40
1
 40
1
 40
1
 10
376.354200
 20
167.562816
 30
0.0
 10
376.884936
 20
167.562816
 30
0.0
 10
377.393935
 20
167.773651
 30
0.0
 10
377.769222
 20
168.148938
 30
0.0
  0
SPLINE
  5
1b3
100
AcDbEntity
  8
Layer_1
 62
7
100
AcDbSpline
 70
8
 71
3
 72
8
 73
4
 74
0
 40
0
 40
0
 40
0
 40
0
 40
1
 40
1
 40
1
 40
1
 10
377.769222
 20
168.148938
 30
0.0
 10
378.144509
 20
168.524225
 30
0.0
 10
378.355344
 20
169.033224
 30
0.0
 10
378.355344
 20
169.563960
 30
0.0
  0
LWPOLYLINE
  5
1b4
100
AcDbEntity
  8
Layer_1
 62
7
100
AcDbPolyline
 90
1
 70
1
 10
79.923343
 20
137.563960
 30
0.0
  0
SPLINE
  5
1b5
100
AcDbEntity
  8
Layer_1
 62
7
100
AcDbSpline
 70
8
 71
3
 72
8
 73
4
 74
0
 40
0
 40
0
 40
0
 40
0
 40
1
 40
1
 40
1
 40
1
 10
378.355344
 20
153.563960
 30
0.0
 10
378.355344
 20
154.373347
 30
0.0
 10
377.867781
 20
155.103037
 30
0.0
 10
377.120004
 20
155.412776
 30
0.0
  0
SPLINE
  5
1b6
100
AcDbEntity
  8
Layer_1
 62
7
100
AcDbSpline
 70
8
 71
3
 72
8
 73
4
 74
0
 40
0
 40
0
 40
0
 40
0
 40
1
 40
1
 40
1
 40
1
 10
377.120004
 20
155.412776
 30
0.0
 10
376.372228
 20
155.722515
 30
0.0
 10
375.511501
 20
155.551305
 30
0.0
 10
374.939178
 20
154.978982
 30
0.0
  0
SPLINE
  5
1b7
100
AcDbEntity
  8
Layer_1
 62
7
100
AcDbSpline
 70
8
 71
3
 72
8
 73
4
 74
0
 40
0
 40
0
 40
0
 40
0
 40
1
 40
1
 40
1
 40
1
 10
374.939178
 20
154.978982
 30
0.0
 10
374.366855
 20
154.406659
 30
0.0
 10
374.195645
 20
153.545932
 30
0.0
 10
374.505384
 20
152.798156
 30
0.0
  0
SPLINE
  5
1b8
100
AcDbEntity
  8
Layer_1
 62
7
100
AcDbSpline
 70
8
 71
3
 72
8
 73
4
 74
0
 40
0
 40
0
 40
0
 40
0
 40
1
 40
1
 40
1
 40
1
 10
374.505384
 20
152.798156
 30
0.0
 10
374.815123
 20
152.050379
 30
0.0
 10
375.544813
 20
151.562816
 30
0.0
 10
376.354200
 20
151.562816
 30
0.0
  0
SPLINE
  5
1b9
100
AcDbEntity
  8
Layer_1
 62
7
100
AcDbSpline
 70
8
 71
3
 72
8
 73
4
 74
0
 40
0
 40
0
 40
0
 40
0
 40
1
 40
1
 40
1
 40
1
 10
376.354200
 20
151.562816
 30
0.0
 10
376.884936
 20
151.562816
 30
0.0
 10
377.393935
 20
151.773651
 30
0.0
 10
377.769222
 20
152.148938
 30
0.0
  0
SPLINE
  5
1ba
100
AcDbEntity
  8
Layer_1
 62
7
100
AcDbSpline
 70
8
 71
3
 72
8
 73
4
 74
0
 40
0
 40
0
 40
0
 40
0
 40
1
 40
1
 40
1
 40
1
 10
377.769222
 20
152.148938
 30
0.0
 10
378.144509
 20
152.524225
 30
0.0
 10
378.355344
 20
153.033224
 30
0.0
 10
378.355344
 20
153.563960
 30
0.0
  0
LWPOLYLINE
  5
1bb
100
AcDbEntity
  8
Layer_1
 62
7
100
AcDbPolyline
 90
1
 70
1
 10
378.355344
 20
169.563960
 30
0.0
  0
SPLINE
  5
1bc
100
AcDbEntity
  8
Layer_1
 62
7
100
AcDbSpline
 70
8
 71
3
 72
8
 73
4
 74
0
 40
0
 40
0
 40
0
 40
0
 40
1
 40
1
 40
1
 40
1
 10
378.355344
 20
73.563950
 30
0.0
 10
378.355344
 20
74.669151
 30
0.0
 10
377.459401
 20
75.565093
 30
0.0
 10
376.354200
 20
75.565093
 30
0.0
  0
SPLINE
  5
1bd
100
AcDbEntity
  8
Layer_1
 62
7
100
AcDbSpline
 70
8
 71
3
 72
8
 73
4
 74
0
 40
0
 40
0
 40
0
 40
0
 40
1
 40
1
 40
1
 40
1
 10
376.354200
 20
75.565093
 30
0.0
 10
375.248999
 20
75.565093
 30
0.0
 10
374.353056
 20
74.669151
 30
0.0
 10
374.353056
 20
73.563950
 30
0.0
  0
SPLINE
  5
1be
100
AcDbEntity
  8
Layer_1
 62
7
100
AcDbSpline
 70
8
 71
3
 72
8
 73
4
 74
0
 40
0
 40
0
 40
0
 40
0
 40
1
 40
1
 40
1
 40
1
 10
374.353056
 20
73.563950
 30
0.0
 10
374.353056
 20
72.458749
 30
0.0
 10
375.248999
 20
71.562806
 30
0.0
 10
376.354200
 20
71.562806
 30
0.0
  0
SPLINE
  5
1bf
100
AcDbEntity
  8
Layer_1
 62
7
100
AcDbSpline
 70
8
 71
3
 72
8
 73
4
 74
0
 40
0
 40
0
 40
0
 40
0
 40
1
 40
1
 40
1
 40
1
 10
376.354200
 20
71.562806
 30
0.0
 10
376.884936
 20
71.562806
 30
0.0
 10
377.393935
 20
71.773641
 30
0.0
 10
377.769222
 20
72.148928
 30
0.0
  0
SPLINE
  5
1c0
100
AcDbEntity
  8
Layer_1
 62
7
100
AcDbSpline
 70
8
 71
3
 72
8
 73
4
 74
0
 40
0
 40
0
 40
0
 40
0
 40
1
 40
1
 40
1
 40
1
 10
377.769222
 20
72.148928
 30
0.0
 10
378.144509
 20
72.524215
 30
0.0
 10
378.355344
 20
73.033214
 30
0.0
 10
378.355344
 20
73.563950
 30
0.0
  0
LWPOLYLINE
  5
1c1
100
AcDbEntity
  8
Layer_1
 62
7
100
AcDbPolyline
 90
1
 70
1
 10
378.355344
 20
153.563960
 30
0.0
  0
SPLINE
  5
1c2
100
AcDbEntity
  8
Layer_1
 62
7
100
AcDbSpline
 70
8
 71
3
 72
8
 73
4
 74
0
 40
0
 40
0
 40
0
 40
0
 40
1
 40
1
 40
1
 40
1
 10
378.355344
 20
89.563950
 30
0.0
 10
378.355343
 20
90.669151
 30
0.0
 10
377.459401
 20
91.565093
 30
0.0
 10
376.354200
 20
91.565093
 30
0.0
  0
SPLINE
  5
1c3
100
AcDbEntity
  8
Layer_1
 62
7
100
AcDbSpline
 70
8
 71
3
 72
8
 73
4
 74
0
 40
0
 40
0
 40
0
 40
0
 40
1
 40
1
 40
1
 40
1
 10
376.354200
 20
91.565093
 30
0.0
 10
375.248999
 20
91.565093
 30
0.0
 10
374.353056
 20
90.669151
 30
0.0
 10
374.353056
 20
89.563950
 30
0.0
  0
SPLINE
  5
1c4
100
AcDbEntity
  8
Layer_1
 62
7
100
AcDbSpline
 70
8
 71
3
 72
8
 73
4
 74
0
 40
0
 40
0
 40
0
 40
0
 40
1
 40
1
 40
1
 40
1
 10
374.353056
 20
89.563950
 30
0.0
 10
374.353056
 20
88.458749
 30
0.0
 10
375.248999
 20
87.562806
 30
0.0
 10
376.354200
 20
87.562806
 30
0.0
  0
SPLINE
  5
1c5
100
AcDbEntity
  8
Layer_1
 62
7
100
AcDbSpline
 70
8
 71
3
 72
8
 73
4
 74
0
 40
0
 40
0
 40
0
 40
0
 40
1
 40
1
 40
1
 40
1
 10
376.354200
 20
87.562806
 30
0.0
 10
376.884936
 20
87.562806
 30
0.0
 10
377.393935
 20
87.773641
 30
0.0
 10
377.769222
 20
88.148928
 30
0.0
  0
SPLINE
  5
1c6
100
AcDbEntity
  8
Layer_1
 62
7
100
AcDbSpline
 70
8
 71
3
 72
8
 73
4
 74
0
 40
0
 40
0
 40
0
 40
0
 40
1
 40
1
 40
1
 40
1
 10
377.769222
 20
88.148928
 30
0.0
 10
378.144509
 20
88.524215
 30
0.0
 10
378.355344
 20
89.033214
 30
0.0
 10
378.355344
 20
89.563950
 30
0.0
  0
LWPOLYLINE
  5
1c7
100
AcDbEntity
  8
Layer_1
 62
7
100
AcDbPolyline
 90
1
 70
1
 10
378.355344
 20
73.563950
 30
0.0
  0
SPLINE
  5
1c8
100
AcDbEntity
  8
Layer_1
 62
7
100
AcDbSpline
 70
8
 71
3
 72
8
 73
4
 74
0
 40
0
 40
0
 40
0
 40
0
 40
1
 40
1
 40
1
 40
1
 10
378.355344
 20
105.563950
 30
0.0
 10
378.355344
 20
106.669151
 30
0.0
 10
377.459401
 20
107.565093
 30
0.0
 10
376.354200
 20
107.565093
 30
0.0
  0
SPLINE
  5
1c9
100
AcDbEntity
  8
Layer_1
 62
7
100
AcDbSpline
 70
8
 71
3
 72
8
 73
4
 74
0
 40
0
 40
0
 40
0
 40
0
 40
1
 40
1
 40
1
 40
1
 10
376.354200
 20
107.565093
 30
0.0
 10
375.248999
 20
107.565093
 30
0.0
 10
374.353056
 20
106.669151
 30
0.0
 10
374.353056
 20
105.563950
 30
0.0
  0
SPLINE
  5
1ca
100
AcDbEntity
  8
Layer_1
 62
7
100
AcDbSpline
 70
8
 71
3
 72
8
 73
4
 74
0
 40
0
 40
0
 40
0
 40
0
 40
1
 40
1
 40
1
 40
1
 10
374.353056
 20
105.563950
 30
0.0
 10
374.353056
 20
104.458749
 30
0.0
 10
375.248999
 20
103.562806
 30
0.0
 10
376.354200
 20
103.562806
 30
0.0
  0
SPLINE
  5
1cb
100
AcDbEntity
  8
Layer_1
 62
7
100
AcDbSpline
 70
8
 71
3
 72
8
 73
4
 74
0
 40
0
 40
0
 40
0
 40
0
 40
1
 40
1
 40
1
 40
1
 10
376.354200
 20
103.562806
 30
0.0
 10
376.884936
 20
103.562806
 30
0.0
 10
377.393935
 20
103.773641
 30
0.0
 10
377.769222
 20
104.148928
 30
0.0
  0
SPLINE
  5
1cc
100
AcDbEntity
  8
Layer_1
 62
7
100
AcDbSpline
 70
8
 71
3
 72
8
 73
4
 74
0
 40
0
 40
0
 40
0
 40
0
 40
1
 40
1
 40
1
 40
1
 10
377.769222
 20
104.148928
 30
0.0
 10
378.144509
 20
104.524215
 30
0.0
 10
378.355344
 20
105.033214
 30
0.0
 10
378.355344
 20
105.563950
 30
0.0
  0
LWPOLYLINE
  5
1cd
100
AcDbEntity
  8
Layer_1
 62
7
100
AcDbPolyline
 90
1
 70
1
 10
378.355344
 20
89.563950
 30
0.0
  0
SPLINE
  5
1ce
100
AcDbEntity
  8
Layer_1
 62
7
100
AcDbSpline
 70
8
 71
3
 72
8
 73
4
 74
0
 40
0
 40
0
 40
0
 40
0
 40
1
 40
1
 40
1
 40
1
 10
378.355344
 20
121.563960
 30
0.0
 10
378.355344
 20
122.669161
 30
0.0
 10
377.459401
 20
123.565103
 30
0.0
 10
376.354200
 20
123.565103
 30
0.0
  0
SPLINE
  5
1cf
100
AcDbEntity
  8
Layer_1
 62
7
100
AcDbSpline
 70
8
 71
3
 72
8
 73
4
 74
0
 40
0
 40
0
 40
0
 40
0
 40
1
 40
1
 40
1
 40
1
 10
376.354200
 20
123.565103
 30
0.0
 10
375.248999
 20
123.565103
 30
0.0
 10
374.353056
 20
122.669161
 30
0.0
 10
374.353056
 20
121.563960
 30
0.0
  0
SPLINE
  5
1d0
100
AcDbEntity
  8
Layer_1
 62
7
100
AcDbSpline
 70
8
 71
3
 72
8
 73
4
 74
0
 40
0
 40
0
 40
0
 40
0
 40
1
 40
1
 40
1
 40
1
 10
374.353056
 20
121.563960
 30
0.0
 10
374.353056
 20
120.458759
 30
0.0
 10
375.248999
 20
119.562816
 30
0.0
 10
376.354200
 20
119.562816
 30
0.0
  0
SPLINE
  5
1d1
100
AcDbEntity
  8
Layer_1
 62
7
100
AcDbSpline
 70
8
 71
3
 72
8
 73
4
 74
0
 40
0
 40
0
 40
0
 40
0
 40
1
 40
1
 40
1
 40
1
 10
376.354200
 20
119.562816
 30
0.0
 10
376.884936
 20
119.562816
 30
0.0
 10
377.393935
 20
119.773651
 30
0.0
 10
377.769222
 20
120.148938
 30
0.0
  0
SPLINE
  5
1d2
100
AcDbEntity
  8
Layer_1
 62
7
100
AcDbSpline
 70
8
 71
3
 72
8
 73
4
 74
0
 40
0
 40
0
 40
0
 40
0
 40
1
 40
1
 40
1
 40
1
 10
377.769222
 20
120.148938
 30
0.0
 10
378.144509
 20
120.524225
 30
0.0
 10
378.355344
 20
121.033224
 30
0.0
 10
378.355344
 20
121.563960
 30
0.0
  0
LWPOLYLINE
  5
1d3
100
AcDbEntity
  8
Layer_1
 62
7
100
AcDbPolyline
 90
1
 70
1
 10
378.355344
 20
105.563950
 30
0.0
  0
SPLINE
  5
1d4
100
AcDbEntity
  8
Layer_1
 62
7
100
AcDbSpline
 70
8
 71
3
 72
8
 73
4
 74
0
 40
0
 40
0
 40
0
 40
0
 40
1
 40
1
 40
1
 40
1
 10
378.355344
 20
137.563960
 30
0.0
 10
378.355343
 20
138.669161
 30
0.0
 10
377.459401
 20
139.565103
 30
0.0
 10
376.354200
 20
139.565103
 30
0.0
  0
SPLINE
  5
1d5
100
AcDbEntity
  8
Layer_1
 62
7
100
AcDbSpline
 70
8
 71
3
 72
8
 73
4
 74
0
 40
0
 40
0
 40
0
 40
0
 40
1
 40
1
 40
1
 40
1
 10
376.354200
 20
139.565103
 30
0.0
 10
375.248999
 20
139.565103
 30
0.0
 10
374.353056
 20
138.669161
 30
0.0
 10
374.353056
 20
137.563960
 30
0.0
  0
SPLINE
  5
1d6
100
AcDbEntity
  8
Layer_1
 62
7
100
AcDbSpline
 70
8
 71
3
 72
8
 73
4
 74
0
 40
0
 40
0
 40
0
 40
0
 40
1
 40
1
 40
1
 40
1
 10
374.353056
 20
137.563960
 30
0.0
 10
374.353056
 20
136.458759
 30
0.0
 10
375.248999
 20
135.562816
 30
0.0
 10
376.354200
 20
135.562816
 30
0.0
  0
SPLINE
  5
1d7
100
AcDbEntity
  8
Layer_1
 62
7
100
AcDbSpline
 70
8
 71
3
 72
8
 73
4
 74
0
 40
0
 40
0
 40
0
 40
0
 40
1
 40
1
 40
1
 40
1
 10
376.354200
 20
135.562816
 30
0.0
 10
376.884936
 20
135.562816
 30
0.0
 10
377.393935
 20
135.773651
 30
0.0
 10
377.769222
 20
136.148938
 30
0.0
  0
SPLINE
  5
1d8
100
AcDbEntity
  8
Layer_1
 62
7
100
AcDbSpline
 70
8
 71
3
 72
8
 73
4
 74
0
 40
0
 40
0
 40
0
 40
0
 40
1
 40
1
 40
1
 40
1
 10
377.769222
 20
136.148938
 30
0.0
 10
378.144509
 20
136.524225
 30
0.0
 10
378.355344
 20
137.033224
 30
0.0
 10
378.355344
 20
137.563960
 30
0.0
  0
LWPOLYLINE
  5
1d9
100
AcDbEntity
  8
Layer_1
 62
7
100
AcDbPolyline
 90
1
 70
1
 10
378.355344
 20
121.563960
 30
0.0
  0
SPLINE
  5
1da
100
AcDbEntity
  8
Layer_1
 62
7
100
AcDbSpline
 70
8
 71
3
 72
8
 73
4
 74
0
 40
0
 40
0
 40
0
 40
0
 40
1
 40
1
 40
1
 40
1
 10
88.275459
 20
179.038860
 30
0.0
 10
87.604634
 20
179.038860
 30
0.0
 10
86.999863
 20
178.634765
 30
0.0
 10
86.743150
 20
178.015003
 30
0.0
  0
SPLINE
  5
1db
100
AcDbEntity
  8
Layer_1
 62
7
100
AcDbSpline
 70
8
 71
3
 72
8
 73
4
 74
0
 40
0
 40
0
 40
0
 40
0
 40
1
 40
1
 40
1
 40
1
 10
86.743150
 20
178.015003
 30
0.0
 10
86.486436
 20
177.395242
 30
0.0
 10
86.628335
 20
176.681866
 30
0.0
 10
87.102680
 20
176.207521
 30
0.0
  0
SPLINE
  5
1dc
100
AcDbEntity
  8
Layer_1
 62
7
100
AcDbSpline
 70
8
 71
3
 72
8
 73
4
 74
0
 40
0
 40
0
 40
0
 40
0
 40
1
 40
1
 40
1
 40
1
 10
87.102680
 20
176.207521
 30
0.0
 10
87.577025
 20
175.733176
 30
0.0
 10
88.290401
 20
175.591277
 30
0.0
 10
88.910162
 20
175.847991
 30
0.0
  0
SPLINE
  5
1dd
100
AcDbEntity
  8
Layer_1
 62
7
100
AcDbSpline
 70
8
 71
3
 72
8
 73
4
 74
0
 40
0
 40
0
 40
0
 40
0
 40
1
 40
1
 40
1
 40
1
 10
88.910162
 20
175.847991
 30
0.0
 10
89.529924
 20
176.104704
 30
0.0
 10
89.934019
 20
176.709475
 30
0.0
 10
89.934019
 20
177.380300
 30
0.0
  0
SPLINE
  5
1de
100
AcDbEntity
  8
Layer_1
 62
7
100
AcDbSpline
 70
8
 71
3
 72
8
 73
4
 74
0
 40
0
 40
0
 40
0
 40
0
 40
1
 40
1
 40
1
 40
1
 10
89.934019
 20
177.380300
 30
0.0
 10
89.934019
 20
177.820177
 30
0.0
 10
89.759278
 20
178.242039
 30
0.0
 10
89.448238
 20
178.553079
 30
0.0
  0
SPLINE
  5
1df
100
AcDbEntity
  8
Layer_1
 62
7
100
AcDbSpline
 70
8
 71
3
 72
8
 73
4
 74
0
 40
0
 40
0
 40
0
 40
0
 40
1
 40
1
 40
1
 40
1
 10
89.448238
 20
178.553079
 30
0.0
 10
89.137198
 20
178.864119
 30
0.0
 10
88.715336
 20
179.038860
 30
0.0
 10
88.275459
 20
179.038860
 30
0.0
  0
LWPOLYLINE
  5
1e0
100
AcDbEntity
  8
Layer_1
 62
7
100
AcDbPolyline
 90
1
 70
1
 10
378.355344
 20
137.563960
 30
0.0
  0
SPLINE
  5
1e1
100
AcDbEntity
  8
Layer_1
 62
7
100
AcDbSpline
 70
8
 71
3
 72
8
 73
4
 74
0
 40
0
 40
0
 40
0
 40
0
 40
1
 40
1
 40
1
 40
1
 10
119.247920
 20
189.515160
 30
0.0
 10
118.577095
 20
189.515160
 30
0.0
 10
117.972324
 20
189.111065
 30
0.0
 10
117.715611
 20
188.491303
 30
0.0
  0
SPLINE
  5
1e2
100
AcDbEntity
  8
Layer_1
 62
7
100
AcDbSpline
 70
8
 71
3
 72
8
 73
4
 74
0
 40
0
 40
0
 40
0
 40
0
 40
1
 40
1
 40
1
 40
1
 10
117.715611
 20
188.491303
 30
0.0
 10
117.458897
 20
187.871542
 30
0.0
 10
117.600796
 20
187.158166
 30
0.0
 10
118.075141
 20
186.683821
 30
0.0
  0
SPLINE
  5
1e3
100
AcDbEntity
  8
Layer_1
 62
7
100
AcDbSpline
 70
8
 71
3
 72
8
 73
4
 74
0
 40
0
 40
0
 40
0
 40
0
 40
1
 40
1
 40
1
 40
1
 10
118.075141
 20
186.683821
 30
0.0
 10
118.549486
 20
186.209476
 30
0.0
 10
119.262862
 20
186.067577
 30
0.0
 10
119.882623
 20
186.324291
 30
0.0
  0
SPLINE
  5
1e4
100
AcDbEntity
  8
Layer_1
 62
7
100
AcDbSpline
 70
8
 71
3
 72
8
 73
4
 74
0
 40
0
 40
0
 40
0
 40
0
 40
1
 40
1
 40
1
 40
1
 10
119.882623
 20
186.324291
 30
0.0
 10
120.502385
 20
186.581004
 30
0.0
 10
120.906480
 20
187.185775
 30
0.0
 10
120.906480
 20
187.856600
 30
0.0
  0
SPLINE
  5
1e5
100
AcDbEntity
  8
Layer_1
 62
7
100
AcDbSpline
 70
8
 71
3
 72
8
 73
4
 74
0
 40
0
 40
0
 40
0
 40
0
 40
1
 40
1
 40
1
 40
1
 10
120.906480
 20
187.856600
 30
0.0
 10
120.906480
 20
188.296477
 30
0.0
 10
120.731739
 20
188.718339
 30
0.0
 10
120.420699
 20
189.029379
 30
0.0
  0
SPLINE
  5
1e6
100
AcDbEntity
  8
Layer_1
 62
7
100
AcDbSpline
 70
8
 71
3
 72
8
 73
4
 74
0
 40
0
 40
0
 40
0
 40
0
 40
1
 40
1
 40
1
 40
1
 10
120.420699
 20
189.029379
 30
0.0
 10
120.109659
 20
189.340419
 30
0.0
 10
119.687797
 20
189.515160
 30
0.0
 10
119.247920
 20
189.515160
 30
0.0
  0
LWPOLYLINE
  5
1e7
100
AcDbEntity
  8
Layer_1
 62
7
100
AcDbPolyline
 90
1
 70
1
 10
88.275459
 20
179.038860
 30
0.0
  0
SPLINE
  5
1e8
100
AcDbEntity
  8
Layer_1
 62
7
100
AcDbSpline
 70
8
 71
3
 72
8
 73
4
 74
0
 40
0
 40
0
 40
0
 40
0
 40
1
 40
1
 40
1
 40
1
 10
207.247940
 20
189.515160
 30
0.0
 10
206.577115
 20
189.515160
 30
0.0
 10
205.972344
 20
189.111065
 30
0.0
 10
205.715631
 20
188.491303
 30
0.0
  0
SPLINE
  5
1e9
100
AcDbEntity
  8
Layer_1
 62
7
100
AcDbSpline
 70
8
 71
3
 72
8
 73
4
 74
0
 40
0
 40
0
 40
0
 40
0
 40
1
 40
1
 40
1
 40
1
 10
205.715631
 20
188.491303
 30
0.0
 10
205.458917
 20
187.871542
 30
0.0
 10
205.600816
 20
187.158166
 30
0.0
 10
206.075161
 20
186.683821
 30
0.0
  0
SPLINE
  5
1ea
100
AcDbEntity
  8
Layer_1
 62
7
100
AcDbSpline
 70
8
 71
3
 72
8
 73
4
 74
0
 40
0
 40
0
 40
0
 40
0
 40
1
 40
1
 40
1
 40
1
 10
206.075161
 20
186.683821
 30
0.0
 10
206.549506
 20
186.209476
 30
0.0
 10
207.262882
 20
186.067577
 30
0.0
 10
207.882643
 20
186.324291
 30
0.0
  0
SPLINE
  5
1eb
100
AcDbEntity
  8
Layer_1
 62
7
100
AcDbSpline
 70
8
 71
3
 72
8
 73
4
 74
0
 40
0
 40
0
 40
0
 40
0
 40
1
 40
1
 40
1
 40
1
 10
207.882643
 20
186.324291
 30
0.0
 10
208.502405
 20
186.581004
 30
0.0
 10
208.906500
 20
187.185775
 30
0.0
 10
208.906500
 20
187.856600
 30
0.0
  0
SPLINE
  5
1ec
100
AcDbEntity
  8
Layer_1
 62
7
100
AcDbSpline
 70
8
 71
3
 72
8
 73
4
 74
0
 40
0
 40
0
 40
0
 40
0
 40
1
 40
1
 40
1
 40
1
 10
208.906500
 20
187.856600
 30
0.0
 10
208.906500
 20
188.296477
 30
0.0
 10
208.731759
 20
188.718339
 30
0.0
 10
208.420719
 20
189.029379
 30
0.0
  0
SPLINE
  5
1ed
100
AcDbEntity
  8
Layer_1
 62
7
100
AcDbSpline
 70
8
 71
3
 72
8
 73
4
 74
0
 40
0
 40
0
 40
0
 40
0
 40
1
 40
1
 40
1
 40
1
 10
208.420719
 20
189.029379
 30
0.0
 10
208.109679
 20
189.340419
 30
0.0
 10
207.687817
 20
189.515160
 30
0.0
 10
207.247940
 20
189.515160
 30
0.0
  0
LWPOLYLINE
  5
1ee
100
AcDbEntity
  8
Layer_1
 62
7
100
AcDbPolyline
 90
1
 70
1
 10
119.247920
 20
189.515160
 30
0.0
  0
SPLINE
  5
1ef
100
AcDbEntity
  8
Layer_1
 62
7
100
AcDbSpline
 70
8
 71
3
 72
8
 73
4
 74
0
 40
0
 40
0
 40
0
 40
0
 40
1
 40
1
 40
1
 40
1
 10
216.275310
 20
179.038860
 30
0.0
 10
215.604485
 20
179.038860
 30
0.0
 10
214.999714
 20
178.634765
 30
0.0
 10
214.743001
 20
178.015003
 30
0.0
  0
SPLINE
  5
1f0
100
AcDbEntity
  8
Layer_1
 62
7
100
AcDbSpline
 70
8
 71
3
 72
8
 73
4
 74
0
 40
0
 40
0
 40
0
 40
0
 40
1
 40
1
 40
1
 40
1
 10
214.743001
 20
178.015003
 30
0.0
 10
214.486287
 20
177.395242
 30
0.0
 10
214.628186
 20
176.681866
 30
0.0
 10
215.102531
 20
176.207521
 30
0.0
  0
SPLINE
  5
1f1
100
AcDbEntity
  8
Layer_1
 62
7
100
AcDbSpline
 70
8
 71
3
 72
8
 73
4
 74
0
 40
0
 40
0
 40
0
 40
0
 40
1
 40
1
 40
1
 40
1
 10
215.102531
 20
176.207521
 30
0.0
 10
215.576876
 20
175.733176
 30
0.0
 10
216.290252
 20
175.591277
 30
0.0
 10
216.910013
 20
175.847991
 30
0.0
  0
SPLINE
  5
1f2
100
AcDbEntity
  8
Layer_1
 62
7
100
AcDbSpline
 70
8
 71
3
 72
8
 73
4
 74
0
 40
0
 40
0
 40
0
 40
0
 40
1
 40
1
 40
1
 40
1
 10
216.910013
 20
175.847991
 30
0.0
 10
217.529775
 20
176.104704
 30
0.0
 10
217.933870
 20
176.709475
 30
0.0
 10
217.933870
 20
177.380300
 30
0.0
  0
SPLINE
  5
1f3
100
AcDbEntity
  8
Layer_1
 62
7
100
AcDbSpline
 70
8
 71
3
 72
8
 73
4
 74
0
 40
0
 40
0
 40
0
 40
0
 40
1
 40
1
 40
1
 40
1
 10
217.933870
 20
177.380300
 30
0.0
 10
217.933870
 20
177.820177
 30
0.0
 10
217.759129
 20
178.242039
 30
0.0
 10
217.448089
 20
178.553079
 30
0.0
  0
SPLINE
  5
1f4
100
AcDbEntity
  8
Layer_1
 62
7
100
AcDbSpline
 70
8
 71
3
 72
8
 73
4
 74
0
 40
0
 40
0
 40
0
 40
0
 40
1
 40
1
 40
1
 40
1
 10
217.448089
 20
178.553079
 30
0.0
 10
217.137049
 20
178.864119
 30
0.0
 10
216.715187
 20
179.038860
 30
0.0
 10
216.275310
 20
179.038860
 30
0.0
  0
LWPOLYLINE
  5
1f5
100
AcDbEntity
  8
Layer_1
 62
7
100
AcDbPolyline
 90
1
 70
1
 10
207.247940
 20
189.515160
 30
0.0
  0
SPLINE
  5
1f6
100
AcDbEntity
  8
Layer_1
 62
7
100
AcDbSpline
 70
8
 71
3
 72
8
 73
4
 74
0
 40
0
 40
0
 40
0
 40
0
 40
1
 40
1
 40
1
 40
1
 10
237.220520
 20
179.038860
 30
0.0
 10
236.549695
 20
179.038860
 30
0.0
 10
235.944924
 20
178.634765
 30
0.0
 10
235.688211
 20
178.015003
 30
0.0
  0
SPLINE
  5
1f7
100
AcDbEntity
  8
Layer_1
 62
7
100
AcDbSpline
 70
8
 71
3
 72
8
 73
4
 74
0
 40
0
 40
0
 40
0
 40
0
 40
1
 40
1
 40
1
 40
1
 10
235.688211
 20
178.015003
 30
0.0
 10
235.431497
 20
177.395242
 30
0.0
 10
235.573396
 20
176.681866
 30
0.0
 10
236.047741
 20
176.207521
 30
0.0
  0
SPLINE
  5
1f8
100
AcDbEntity
  8
Layer_1
 62
7
100
AcDbSpline
 70
8
 71
3
 72
8
 73
4
 74
0
 40
0
 40
0
 40
0
 40
0
 40
1
 40
1
 40
1
 40
1
 10
236.047741
 20
176.207521
 30
0.0
 10
236.522086
 20
175.733176
 30
0.0
 10
237.235462
 20
175.591277
 30
0.0
 10
237.855223
 20
175.847991
 30
0.0
  0
SPLINE
  5
1f9
100
AcDbEntity
  8
Layer_1
 62
7
100
AcDbSpline
 70
8
 71
3
 72
8
 73
4
 74
0
 40
0
 40
0
 40
0
 40
0
 40
1
 40
1
 40
1
 40
1
 10
237.855223
 20
175.847991
 30
0.0
 10
238.474985
 20
176.104704
 30
0.0
 10
238.879080
 20
176.709475
 30
0.0
 10
238.879080
 20
177.380300
 30
0.0
  0
SPLINE
  5
1fa
100
AcDbEntity
  8
Layer_1
 62
7
100
AcDbSpline
 70
8
 71
3
 72
8
 73
4
 74
0
 40
0
 40
0
 40
0
 40
0
 40
1
 40
1
 40
1
 40
1
 10
238.879080
 20
177.380300
 30
0.0
 10
238.879080
 20
177.820177
 30
0.0
 10
238.704339
 20
178.242039
 30
0.0
 10
238.393299
 20
178.553079
 30
0.0
  0
SPLINE
  5
1fb
100
AcDbEntity
  8
Layer_1
 62
7
100
AcDbSpline
 70
8
 71
3
 72
8
 73
4
 74
0
 40
0
 40
0
 40
0
 40
0
 40
1
 40
1
 40
1
 40
1
 10
238.393299
 20
178.553079
 30
0.0
 10
238.082259
 20
178.864119
 30
0.0
 10
237.660397
 20
179.038860
 30
0.0
 10
237.220520
 20
179.038860
 30
0.0
  0
LWPOLYLINE
  5
1fc
100
AcDbEntity
  8
Layer_1
 62
7
100
AcDbPolyline
 90
1
 70
1
 10
216.275310
 20
179.038860
 30
0.0
  0
SPLINE
  5
1fd
100
AcDbEntity
  8
Layer_1
 62
7
100
AcDbSpline
 70
8
 71
3
 72
8
 73
4
 74
0
 40
0
 40
0
 40
0
 40
0
 40
1
 40
1
 40
1
 40
1
 10
246.247890
 20
189.515160
 30
0.0
 10
245.577065
 20
189.515160
 30
0.0
 10
244.972294
 20
189.111065
 30
0.0
 10
244.715581
 20
188.491303
 30
0.0
  0
SPLINE
  5
1fe
100
AcDbEntity
  8
Layer_1
 62
7
100
AcDbSpline
 70
8
 71
3
 72
8
 73
4
 74
0
 40
0
 40
0
 40
0
 40
0
 40
1
 40
1
 40
1
 40
1
 10
244.715581
 20
188.491303
 30
0.0
 10
244.458867
 20
187.871542
 30
0.0
 10
244.600766
 20
187.158166
 30
0.0
 10
245.075111
 20
186.683821
 30
0.0
  0
SPLINE
  5
1ff
100
AcDbEntity
  8
Layer_1
 62
7
100
AcDbSpline
 70
8
 71
3
 72
8
 73
4
 74
0
 40
0
 40
0
 40
0
 40
0
 40
1
 40
1
 40
1
 40
1
 10
245.075111
 20
186.683821
 30
0.0
 10
245.549456
 20
186.209476
 30
0.0
 10
246.262832
 20
186.067577
 30
0.0
 10
246.882593
 20
186.324291
 30
0.0
  0
SPLINE
  5
200
100
AcDbEntity
  8
Layer_1
 62
7
100
AcDbSpline
 70
8
 71
3
 72
8
 73
4
 74
0
 40
0
 40
0
 40
0
 40
0
 40
1
 40
1
 40
1
 40
1
 10
246.882593
 20
186.324291
 30
0.0
 10
247.502355
 20
186.581004
 30
0.0
 10
247.906450
 20
187.185775
 30
0.0
 10
247.906450
 20
187.856600
 30
0.0
  0
SPLINE
  5
201
100
AcDbEntity
  8
Layer_1
 62
7
100
AcDbSpline
 70
8
 71
3
 72
8
 73
4
 74
0
 40
0
 40
0
 40
0
 40
0
 40
1
 40
1
 40
1
 40
1
 10
247.906450
 20
187.856600
 30
0.0
 10
247.906450
 20
188.296477
 30
0.0
 10
247.731709
 20
188.718339
 30
0.0
 10
247.420669
 20
189.029379
 30
0.0
  0
SPLINE
  5
202
100
AcDbEntity
  8
Layer_1
 62
7
100
AcDbSpline
 70
8
 71
3
 72
8
 73
4
 74
0
 40
0
 40
0
 40
0
 40
0
 40
1
 40
1
 40
1
 40
1
 10
247.420669
 20
189.029379
 30
0.0
 10
247.109629
 20
189.340419
 30
0.0
 10
246.687767
 20
189.515160
 30
0.0
 10
246.247890
 20
189.515160
 30
0.0
  0
LWPOLYLINE
  5
203
100
AcDbEntity
  8
Layer_1
 62
7
100
AcDbPolyline
 90
1
 70
1
 10
237.220520
 20
179.038860
 30
0.0
  0
SPLINE
  5
204
100
AcDbEntity
  8
Layer_1
 62
7
100
AcDbSpline
 70
8
 71
3
 72
8
 73
4
 74
0
 40
0
 40
0
 40
0
 40
0
 40
1
 40
1
 40
1
 40
1
 10
88.275459
 20
91.041340
 30
0.0
 10
87.604634
 20
91.041340
 30
0.0
 10
86.999863
 20
90.637245
 30
0.0
 10
86.743150
 20
90.017483
 30
0.0
  0
SPLINE
  5
205
100
AcDbEntity
  8
Layer_1
 62
7
100
AcDbSpline
 70
8
 71
3
 72
8
 73
4
 74
0
 40
0
 40
0
 40
0
 40
0
 40
1
 40
1
 40
1
 40
1
 10
86.743150
 20
90.017483
 30
0.0
 10
86.486436
 20
89.397722
 30
0.0
 10
86.628335
 20
88.684346
 30
0.0
 10
87.102680
 20
88.210001
 30
0.0
  0
SPLINE
  5
206
100
AcDbEntity
  8
Layer_1
 62
7
100
AcDbSpline
 70
8
 71
3
 72
8
 73
4
 74
0
 40
0
 40
0
 40
0
 40
0
 40
1
 40
1
 40
1
 40
1
 10
87.102680
 20
88.210001
 30
0.0
 10
87.577025
 20
87.735656
 30
0.0
 10
88.290401
 20
87.593757
 30
0.0
 10
88.910162
 20
87.850471
 30
0.0
  0
SPLINE
  5
207
100
AcDbEntity
  8
Layer_1
 62
7
100
AcDbSpline
 70
8
 71
3
 72
8
 73
4
 74
0
 40
0
 40
0
 40
0
 40
0
 40
1
 40
1
 40
1
 40
1
 10
88.910162
 20
87.850471
 30
0.0
 10
89.529924
 20
88.107184
 30
0.0
 10
89.934019
 20
88.711955
 30
0.0
 10
89.934019
 20
89.382780
 30
0.0
  0
SPLINE
  5
208
100
AcDbEntity
  8
Layer_1
 62
7
100
AcDbSpline
 70
8
 71
3
 72
8
 73
4
 74
0
 40
0
 40
0
 40
0
 40
0
 40
1
 40
1
 40
1
 40
1
 10
89.934019
 20
89.382780
 30
0.0
 10
89.934019
 20
89.822657
 30
0.0
 10
89.759278
 20
90.244519
 30
0.0
 10
89.448238
 20
90.555559
 30
0.0
  0
SPLINE
  5
209
100
AcDbEntity
  8
Layer_1
 62
7
100
AcDbSpline
 70
8
 71
3
 72
8
 73
4
 74
0
 40
0
 40
0
 40
0
 40
0
 40
1
 40
1
 40
1
 40
1
 10
89.448238
 20
90.555559
 30
0.0
 10
89.137198
 20
90.866599
 30
0.0
 10
88.715336
 20
91.041340
 30
0.0
 10
88.275459
 20
91.041340
 30
0.0
  0
LWPOLYLINE
  5
20a
100
AcDbEntity
  8
Layer_1
 62
7
100
AcDbPolyline
 90
1
 70
1
 10
246.247890
 20
189.515160
 30
0.0
  0
SPLINE
  5
20b
100
AcDbEntity
  8
Layer_1
 62
7
100
AcDbSpline
 70
8
 71
3
 72
8
 73
4
 74
0
 40
0
 40
0
 40
0
 40
0
 40
1
 40
1
 40
1
 40
1
 10
119.247920
 20
61.515300
 30
0.0
 10
118.577095
 20
61.515300
 30
0.0
 10
117.972324
 20
61.111205
 30
0.0
 10
117.715611
 20
60.491443
 30
0.0
  0
SPLINE
  5
20c
100
AcDbEntity
  8
Layer_1
 62
7
100
AcDbSpline
 70
8
 71
3
 72
8
 73
4
 74
0
 40
0
 40
0
 40
0
 40
0
 40
1
 40
1
 40
1
 40
1
 10
117.715611
 20
60.491443
 30
0.0
 10
117.458897
 20
59.871682
 30
0.0
 10
117.600796
 20
59.158306
 30
0.0
 10
118.075141
 20
58.683961
 30
0.0
  0
SPLINE
  5
20d
100
AcDbEntity
  8
Layer_1
 62
7
100
AcDbSpline
 70
8
 71
3
 72
8
 73
4
 74
0
 40
0
 40
0
 40
0
 40
0
 40
1
 40
1
 40
1
 40
1
 10
118.075141
 20
58.683961
 30
0.0
 10
118.549486
 20
58.209616
 30
0.0
 10
119.262862
 20
58.067717
 30
0.0
 10
119.882623
 20
58.324431
 30
0.0
  0
SPLINE
  5
20e
100
AcDbEntity
  8
Layer_1
 62
7
100
AcDbSpline
 70
8
 71
3
 72
8
 73
4
 74
0
 40
0
 40
0
 40
0
 40
0
 40
1
 40
1
 40
1
 40
1
 10
119.882623
 20
58.324431
 30
0.0
 10
120.502385
 20
58.581144
 30
0.0
 10
120.906480
 20
59.185915
 30
0.0
 10
120.906480
 20
59.856740
 30
0.0
  0
SPLINE
  5
20f
100
AcDbEntity
  8
Layer_1
 62
7
100
AcDbSpline
 70
8
 71
3
 72
8
 73
4
 74
0
 40
0
 40
0
 40
0
 40
0
 40
1
 40
1
 40
1
 40
1
 10
120.906480
 20
59.856740
 30
0.0
 10
120.906480
 20
60.296617
 30
0.0
 10
120.731739
 20
60.718479
 30
0.0
 10
120.420699
 20
61.029519
 30
0.0
  0
SPLINE
  5
210
100
AcDbEntity
  8
Layer_1
 62
7
100
AcDbSpline
 70
8
 71
3
 72
8
 73
4
 74
0
 40
0
 40
0
 40
0
 40
0
 40
1
 40
1
 40
1
 40
1
 10
120.420699
 20
61.029519
 30
0.0
 10
120.109659
 20
61.340559
 30
0.0
 10
119.687797
 20
61.515300
 30
0.0
 10
119.247920
 20
61.515300
 30
0.0
  0
LWPOLYLINE
  5
211
100
AcDbEntity
  8
Layer_1
 62
7
100
AcDbPolyline
 90
1
 70
1
 10
88.275459
 20
91.041340
 30
0.0
  0
SPLINE
  5
212
100
AcDbEntity
  8
Layer_1
 62
7
100
AcDbSpline
 70
8
 71
3
 72
8
 73
4
 74
0
 40
0
 40
0
 40
0
 40
0
 40
1
 40
1
 40
1
 40
1
 10
207.247940
 20
61.515300
 30
0.0
 10
206.577115
 20
61.515300
 30
0.0
 10
205.972344
 20
61.111205
 30
0.0
 10
205.715631
 20
60.491443
 30
0.0
  0
SPLINE
  5
213
100
AcDbEntity
  8
Layer_1
 62
7
100
AcDbSpline
 70
8
 71
3
 72
8
 73
4
 74
0
 40
0
 40
0
 40
0
 40
0
 40
1
 40
1
 40
1
 40
1
 10
205.715631
 20
60.491443
 30
0.0
 10
205.458917
 20
59.871682
 30
0.0
 10
205.600816
 20
59.158306
 30
0.0
 10
206.075161
 20
58.683961
 30
0.0
  0
SPLINE
  5
214
100
AcDbEntity
  8
Layer_1
 62
7
100
AcDbSpline
 70
8
 71
3
 72
8
 73
4
 74
0
 40
0
 40
0
 40
0
 40
0
 40
1
 40
1
 40
1
 40
1
 10
206.075161
 20
58.683961
 30
0.0
 10
206.549506
 20
58.209616
 30
0.0
 10
207.262882
 20
58.067717
 30
0.0
 10
207.882643
 20
58.324431
 30
0.0
  0
SPLINE
  5
215
100
AcDbEntity
  8
Layer_1
 62
7
100
AcDbSpline
 70
8
 71
3
 72
8
 73
4
 74
0
 40
0
 40
0
 40
0
 40
0
 40
1
 40
1
 40
1
 40
1
 10
207.882643
 20
58.324431
 30
0.0
 10
208.502405
 20
58.581144
 30
0.0
 10
208.906500
 20
59.185915
 30
0.0
 10
208.906500
 20
59.856740
 30
0.0
  0
SPLINE
  5
216
100
AcDbEntity
  8
Layer_1
 62
7
100
AcDbSpline
 70
8
 71
3
 72
8
 73
4
 74
0
 40
0
 40
0
 40
0
 40
0
 40
1
 40
1
 40
1
 40
1
 10
208.906500
 20
59.856740
 30
0.0
 10
208.906500
 20
60.296617
 30
0.0
 10
208.731759
 20
60.718479
 30
0.0
 10
208.420719
 20
61.029519
 30
0.0
  0
SPLINE
  5
217
100
AcDbEntity
  8
Layer_1
 62
7
100
AcDbSpline
 70
8
 71
3
 72
8
 73
4
 74
0
 40
0
 40
0
 40
0
 40
0
 40
1
 40
1
 40
1
 40
1
 10
208.420719
 20
61.029519
 30
0.0
 10
208.109679
 20
61.340559
 30
0.0
 10
207.687817
 20
61.515300
 30
0.0
 10
207.247940
 20
61.515300
 30
0.0
  0
LWPOLYLINE
  5
218
100
AcDbEntity
  8
Layer_1
 62
7
100
AcDbPolyline
 90
1
 70
1
 10
119.247920
 20
61.515300
 30
0.0
  0
SPLINE
  5
219
100
AcDbEntity
  8
Layer_1
 62
7
100
AcDbSpline
 70
8
 71
3
 72
8
 73
4
 74
0
 40
0
 40
0
 40
0
 40
0
 40
1
 40
1
 40
1
 40
1
 10
216.275310
 20
91.041340
 30
0.0
 10
215.604485
 20
91.041340
 30
0.0
 10
214.999714
 20
90.637245
 30
0.0
 10
214.743001
 20
90.017483
 30
0.0
  0
SPLINE
  5
21a
100
AcDbEntity
  8
Layer_1
 62
7
100
AcDbSpline
 70
8
 71
3
 72
8
 73
4
 74
0
 40
0
 40
0
 40
0
 40
0
 40
1
 40
1
 40
1
 40
1
 10
214.743001
 20
90.017483
 30
0.0
 10
214.486287
 20
89.397722
 30
0.0
 10
214.628186
 20
88.684346
 30
0.0
 10
215.102531
 20
88.210001
 30
0.0
  0
SPLINE
  5
21b
100
AcDbEntity
  8
Layer_1
 62
7
100
AcDbSpline
 70
8
 71
3
 72
8
 73
4
 74
0
 40
0
 40
0
 40
0
 40
0
 40
1
 40
1
 40
1
 40
1
 10
215.102531
 20
88.210001
 30
0.0
 10
215.576876
 20
87.735656
 30
0.0
 10
216.290252
 20
87.593757
 30
0.0
 10
216.910013
 20
87.850471
 30
0.0
  0
SPLINE
  5
21c
100
AcDbEntity
  8
Layer_1
 62
7
100
AcDbSpline
 70
8
 71
3
 72
8
 73
4
 74
0
 40
0
 40
0
 40
0
 40
0
 40
1
 40
1
 40
1
 40
1
 10
216.910013
 20
87.850471
 30
0.0
 10
217.529775
 20
88.107184
 30
0.0
 10
217.933870
 20
88.711955
 30
0.0
 10
217.933870
 20
89.382780
 30
0.0
  0
SPLINE
  5
21d
100
AcDbEntity
  8
Layer_1
 62
7
100
AcDbSpline
 70
8
 71
3
 72
8
 73
4
 74
0
 40
0
 40
0
 40
0
 40
0
 40
1
 40
1
 40
1
 40
1
 10
217.933870
 20
89.382780
 30
0.0
 10
217.933870
 20
89.822657
 30
0.0
 10
217.759129
 20
90.244519
 30
0.0
 10
217.448089
 20
90.555559
 30
0.0
  0
SPLINE
  5
21e
100
AcDbEntity
  8
Layer_1
 62
7
100
AcDbSpline
 70
8
 71
3
 72
8
 73
4
 74
0
 40
0
 40
0
 40
0
 40
0
 40
1
 40
1
 40
1
 40
1
 10
217.448089
 20
90.555559
 30
0.0
 10
217.137049
 20
90.866599
 30
0.0
 10
216.715187
 20
91.041340
 30
0.0
 10
216.275310
 20
91.041340
 30
0.0
  0
LWPOLYLINE
  5
21f
100
AcDbEntity
  8
Layer_1
 62
7
100
AcDbPolyline
 90
1
 70
1
 10
207.247940
 20
61.515300
 30
0.0
  0
SPLINE
  5
220
100
AcDbEntity
  8
Layer_1
 62
7
100
AcDbSpline
 70
8
 71
3
 72
8
 73
4
 74
0
 40
0
 40
0
 40
0
 40
0
 40
1
 40
1
 40
1
 40
1
 10
237.220520
 20
91.041340
 30
0.0
 10
236.549695
 20
91.041340
 30
0.0
 10
235.944924
 20
90.637245
 30
0.0
 10
235.688211
 20
90.017483
 30
0.0
  0
SPLINE
  5
221
100
AcDbEntity
  8
Layer_1
 62
7
100
AcDbSpline
 70
8
 71
3
 72
8
 73
4
 74
0
 40
0
 40
0
 40
0
 40
0
 40
1
 40
1
 40
1
 40
1
 10
235.688211
 20
90.017483
 30
0.0
 10
235.431497
 20
89.397722
 30
0.0
 10
235.573396
 20
88.684346
 30
0.0
 10
236.047741
 20
88.210001
 30
0.0
  0
SPLINE
  5
222
100
AcDbEntity
  8
Layer_1
 62
7
100
AcDbSpline
 70
8
 71
3
 72
8
 73
4
 74
0
 40
0
 40
0
 40
0
 40
0
 40
1
 40
1
 40
1
 40
1
 10
236.047741
 20
88.210001
 30
0.0
 10
236.522086
 20
87.735656
 30
0.0
 10
237.235462
 20
87.593757
 30
0.0
 10
237.855223
 20
87.850471
 30
0.0
  0
SPLINE
  5
223
100
AcDbEntity
  8
Layer_1
 62
7
100
AcDbSpline
 70
8
 71
3
 72
8
 73
4
 74
0
 40
0
 40
0
 40
0
 40
0
 40
1
 40
1
 40
1
 40
1
 10
237.855223
 20
87.850471
 30
0.0
 10
238.474985
 20
88.107184
 30
0.0
 10
238.879080
 20
88.711955
 30
0.0
 10
238.879080
 20
89.382780
 30
0.0
  0
SPLINE
  5
224
100
AcDbEntity
  8
Layer_1
 62
7
100
AcDbSpline
 70
8
 71
3
 72
8
 73
4
 74
0
 40
0
 40
0
 40
0
 40
0
 40
1
 40
1
 40
1
 40
1
 10
238.879080
 20
89.382780
 30
0.0
 10
238.879080
 20
89.822657
 30
0.0
 10
238.704339
 20
90.244519
 30
0.0
 10
238.393299
 20
90.555559
 30
0.0
  0
SPLINE
  5
225
100
AcDbEntity
  8
Layer_1
 62
7
100
AcDbSpline
 70
8
 71
3
 72
8
 73
4
 74
0
 40
0
 40
0
 40
0
 40
0
 40
1
 40
1
 40
1
 40
1
 10
238.393299
 20
90.555559
 30
0.0
 10
238.082259
 20
90.866599
 30
0.0
 10
237.660397
 20
91.041340
 30
0.0
 10
237.220520
 20
91.041340
 30
0.0
  0
LWPOLYLINE
  5
226
100
AcDbEntity
  8
Layer_1
 62
7
100
AcDbPolyline
 90
1
 70
1
 10
216.275310
 20
91.041340
 30
0.0
  0
SPLINE
  5
227
100
AcDbEntity
  8
Layer_1
 62
7
100
AcDbSpline
 70
8
 71
3
 72
8
 73
4
 74
0
 40
0
 40
0
 40
0
 40
0
 40
1
 40
1
 40
1
 40
1
 10
246.247890
 20
61.515300
 30
0.0
 10
245.577065
 20
61.515300
 30
0.0
 10
244.972294
 20
61.111205
 30
0.0
 10
244.715581
 20
60.491443
 30
0.0
  0
SPLINE
  5
228
100
AcDbEntity
  8
Layer_1
 62
7
100
AcDbSpline
 70
8
 71
3
 72
8
 73
4
 74
0
 40
0
 40
0
 40
0
 40
0
 40
1
 40
1
 40
1
 40
1
 10
244.715581
 20
60.491443
 30
0.0
 10
244.458867
 20
59.871682
 30
0.0
 10
244.600766
 20
59.158306
 30
0.0
 10
245.075111
 20
58.683961
 30
0.0
  0
SPLINE
  5
229
100
AcDbEntity
  8
Layer_1
 62
7
100
AcDbSpline
 70
8
 71
3
 72
8
 73
4
 74
0
 40
0
 40
0
 40
0
 40
0
 40
1
 40
1
 40
1
 40
1
 10
245.075111
 20
58.683961
 30
0.0
 10
245.549456
 20
58.209616
 30
0.0
 10
246.262832
 20
58.067717
 30
0.0
 10
246.882593
 20
58.324431
 30
0.0
  0
SPLINE
  5
22a
100
AcDbEntity
  8
Layer_1
 62
7
100
AcDbSpline
 70
8
 71
3
 72
8
 73
4
 74
0
 40
0
 40
0
 40
0
 40
0
 40
1
 40
1
 40
1
 40
1
 10
246.882593
 20
58.324431
 30
0.0
 10
247.502355
 20
58.581144
 30
0.0
 10
247.906450
 20
59.185915
 30
0.0
 10
247.906450
 20
59.856740
 30
0.0
  0
SPLINE
  5
22b
100
AcDbEntity
  8
Layer_1
 62
7
100
AcDbSpline
 70
8
 71
3
 72
8
 73
4
 74
0
 40
0
 40
0
 40
0
 40
0
 40
1
 40
1
 40
1
 40
1
 10
247.906450
 20
59.856740
 30
0.0
 10
247.906450
 20
60.296617
 30
0.0
 10
247.731709
 20
60.718479
 30
0.0
 10
247.420669
 20
61.029519
 30
0.0
  0
SPLINE
  5
22c
100
AcDbEntity
  8
Layer_1
 62
7
100
AcDbSpline
 70
8
 71
3
 72
8
 73
4
 74
0
 40
0
 40
0
 40
0
 40
0
 40
1
 40
1
 40
1
 40
1
 10
247.420669
 20
61.029519
 30
0.0
 10
247.109629
 20
61.340559
 30
0.0
 10
246.687767
 20
61.515300
 30
0.0
 10
246.247890
 20
61.515300
 30
0.0
  0
LWPOLYLINE
  5
22d
100
AcDbEntity
  8
Layer_1
 62
7
100
AcDbPolyline
 90
1
 70
1
 10
237.220520
 20
91.041340
 30
0.0
  0
SPLINE
  5
22e
100
AcDbEntity
  8
Layer_1
 62
7
100
AcDbSpline
 70
8
 71
3
 72
8
 73
4
 74
0
 40
0
 40
0
 40
0
 40
0
 40
1
 40
1
 40
1
 40
1
 10
334.247920
 20
189.515160
 30
0.0
 10
333.577095
 20
189.515160
 30
0.0
 10
332.972324
 20
189.111065
 30
0.0
 10
332.715611
 20
188.491303
 30
0.0
  0
SPLINE
  5
22f
100
AcDbEntity
  8
Layer_1
 62
7
100
AcDbSpline
 70
8
 71
3
 72
8
 73
4
 74
0
 40
0
 40
0
 40
0
 40
0
 40
1
 40
1
 40
1
 40
1
 10
332.715611
 20
188.491303
 30
0.0
 10
332.458897
 20
187.871542
 30
0.0
 10
332.600796
 20
187.158166
 30
0.0
 10
333.075141
 20
186.683821
 30
0.0
  0
SPLINE
  5
230
100
AcDbEntity
  8
Layer_1
 62
7
100
AcDbSpline
 70
8
 71
3
 72
8
 73
4
 74
0
 40
0
 40
0
 40
0
 40
0
 40
1
 40
1
 40
1
 40
1
 10
333.075141
 20
186.683821
 30
0.0
 10
333.549486
 20
186.209476
 30
0.0
 10
334.262862
 20
186.067577
 30
0.0
 10
334.882623
 20
186.324291
 30
0.0
  0
SPLINE
  5
231
100
AcDbEntity
  8
Layer_1
 62
7
100
AcDbSpline
 70
8
 71
3
 72
8
 73
4
 74
0
 40
0
 40
0
 40
0
 40
0
 40
1
 40
1
 40
1
 40
1
 10
334.882623
 20
186.324291
 30
0.0
 10
335.502385
 20
186.581004
 30
0.0
 10
335.906480
 20
187.185775
 30
0.0
 10
335.906480
 20
187.856600
 30
0.0
  0
SPLINE
  5
232
100
AcDbEntity
  8
Layer_1
 62
7
100
AcDbSpline
 70
8
 71
3
 72
8
 73
4
 74
0
 40
0
 40
0
 40
0
 40
0
 40
1
 40
1
 40
1
 40
1
 10
335.906480
 20
187.856600
 30
0.0
 10
335.906480
 20
188.296477
 30
0.0
 10
335.731739
 20
188.718339
 30
0.0
 10
335.420699
 20
189.029379
 30
0.0
  0
SPLINE
  5
233
100
AcDbEntity
  8
Layer_1
 62
7
100
AcDbSpline
 70
8
 71
3
 72
8
 73
4
 74
0
 40
0
 40
0
 40
0
 40
0
 40
1
 40
1
 40
1
 40
1
 10
335.420699
 20
189.029379
 30
0.0
 10
335.109659
 20
189.340419
 30
0.0
 10
334.687797
 20
189.515160
 30
0.0
 10
334.247920
 20
189.515160
 30
0.0
  0
LWPOLYLINE
  5
234
100
AcDbEntity
  8
Layer_1
 62
7
100
AcDbPolyline
 90
1
 70
1
 10
246.247890
 20
61.515300
 30
0.0
  0
SPLINE
  5
235
100
AcDbEntity
  8
Layer_1
 62
7
100
AcDbSpline
 70
8
 71
3
 72
8
 73
4
 74
0
 40
0
 40
0
 40
0
 40
0
 40
1
 40
1
 40
1
 40
1
 10
365.220400
 20
179.038860
 30
0.0
 10
364.549575
 20
179.038860
 30
0.0
 10
363.944804
 20
178.634765
 30
0.0
 10
363.688091
 20
178.015003
 30
0.0
  0
SPLINE
  5
236
100
AcDbEntity
  8
Layer_1
 62
7
100
AcDbSpline
 70
8
 71
3
 72
8
 73
4
 74
0
 40
0
 40
0
 40
0
 40
0
 40
1
 40
1
 40
1
 40
1
 10
363.688091
 20
178.015003
 30
0.0
 10
363.431377
 20
177.395242
 30
0.0
 10
363.573276
 20
176.681866
 30
0.0
 10
364.047621
 20
176.207521
 30
0.0
  0
SPLINE
  5
237
100
AcDbEntity
  8
Layer_1
 62
7
100
AcDbSpline
 70
8
 71
3
 72
8
 73
4
 74
0
 40
0
 40
0
 40
0
 40
0
 40
1
 40
1
 40
1
 40
1
 10
364.047621
 20
176.207521
 30
0.0
 10
364.521966
 20
175.733176
 30
0.0
 10
365.235342
 20
175.591277
 30
0.0
 10
365.855103
 20
175.847991
 30
0.0
  0
SPLINE
  5
238
100
AcDbEntity
  8
Layer_1
 62
7
100
AcDbSpline
 70
8
 71
3
 72
8
 73
4
 74
0
 40
0
 40
0
 40
0
 40
0
 40
1
 40
1
 40
1
 40
1
 10
365.855103
 20
175.847991
 30
0.0
 10
366.474865
 20
176.104704
 30
0.0
 10
366.878960
 20
176.709475
 30
0.0
 10
366.878960
 20
177.380300
 30
0.0
  0
SPLINE
  5
239
100
AcDbEntity
  8
Layer_1
 62
7
100
AcDbSpline
 70
8
 71
3
 72
8
 73
4
 74
0
 40
0
 40
0
 40
0
 40
0
 40
1
 40
1
 40
1
 40
1
 10
366.878960
 20
177.380300
 30
0.0
 10
366.878960
 20
177.820177
 30
0.0
 10
366.704219
 20
178.242039
 30
0.0
 10
366.393179
 20
178.553079
 30
0.0
  0
SPLINE
  5
23a
100
AcDbEntity
  8
Layer_1
 62
7
100
AcDbSpline
 70
8
 71
3
 72
8
 73
4
 74
0
 40
0
 40
0
 40
0
 40
0
 40
1
 40
1
 40
1
 40
1
 10
366.393179
 20
178.553079
 30
0.0
 10
366.082139
 20
178.864119
 30
0.0
 10
365.660277
 20
179.038860
 30
0.0
 10
365.220400
 20
179.038860
 30
0.0
  0
LWPOLYLINE
  5
23b
100
AcDbEntity
  8
Layer_1
 62
7
100
AcDbPolyline
 90
1
 70
1
 10
334.247920
 20
189.515160
 30
0.0
  0
SPLINE
  5
23c
100
AcDbEntity
  8
Layer_1
 62
7
100
AcDbSpline
 70
8
 71
3
 72
8
 73
4
 74
0
 40
0
 40
0
 40
0
 40
0
 40
1
 40
1
 40
1
 40
1
 10
365.220400
 20
91.041340
 30
0.0
 10
364.549575
 20
91.041340
 30
0.0
 10
363.944804
 20
90.637245
 30
0.0
 10
363.688091
 20
90.017483
 30
0.0
  0
SPLINE
  5
23d
100
AcDbEntity
  8
Layer_1
 62
7
100
AcDbSpline
 70
8
 71
3
 72
8
 73
4
 74
0
 40
0
 40
0
 40
0
 40
0
 40
1
 40
1
 40
1
 40
1
 10
363.688091
 20
90.017483
 30
0.0
 10
363.431377
 20
89.397722
 30
0.0
 10
363.573276
 20
88.684346
 30
0.0
 10
364.047621
 20
88.210001
 30
0.0
  0
SPLINE
  5
23e
100
AcDbEntity
  8
Layer_1
 62
7
100
AcDbSpline
 70
8
 71
3
 72
8
 73
4
 74
0
 40
0
 40
0
 40
0
 40
0
 40
1
 40
1
 40
1
 40
1
 10
364.047621
 20
88.210001
 30
0.0
 10
364.521966
 20
87.735656
 30
0.0
 10
365.235342
 20
87.593757
 30
0.0
 10
365.855103
 20
87.850471
 30
0.0
  0
SPLINE
  5
23f
100
AcDbEntity
  8
Layer_1
 62
7
100
AcDbSpline
 70
8
 71
3
 72
8
 73
4
 74
0
 40
0
 40
0
 40
0
 40
0
 40
1
 40
1
 40
1
 40
1
 10
365.855103
 20
87.850471
 30
0.0
 10
366.474865
 20
88.107184
 30
0.0
 10
366.878960
 20
88.711955
 30
0.0
 10
366.878960
 20
89.382780
 30
0.0
  0
SPLINE
  5
240
100
AcDbEntity
  8
Layer_1
 62
7
100
AcDbSpline
 70
8
 71
3
 72
8
 73
4
 74
0
 40
0
 40
0
 40
0
 40
0
 40
1
 40
1
 40
1
 40
1
 10
366.878960
 20
89.382780
 30
0.0
 10
366.878960
 20
89.822657
 30
0.0
 10
366.704219
 20
90.244519
 30
0.0
 10
366.393179
 20
90.555559
 30
0.0
  0
SPLINE
  5
241
100
AcDbEntity
  8
Layer_1
 62
7
100
AcDbSpline
 70
8
 71
3
 72
8
 73
4
 74
0
 40
0
 40
0
 40
0
 40
0
 40
1
 40
1
 40
1
 40
1
 10
366.393179
 20
90.555559
 30
0.0
 10
366.082139
 20
90.866599
 30
0.0
 10
365.660277
 20
91.041340
 30
0.0
 10
365.220400
 20
91.041340
 30
0.0
  0
LWPOLYLINE
  5
242
100
AcDbEntity
  8
Layer_1
 62
7
100
AcDbPolyline
 90
1
 70
1
 10
365.220400
 20
179.038860
 30
0.0
  0
SPLINE
  5
243
100
AcDbEntity
  8
Layer_1
 62
7
100
AcDbSpline
 70
8
 71
3
 72
8
 73
4
 74
0
 40
0
 40
0
 40
0
 40
0
 40
1
 40
1
 40
1
 40
1
 10
334.247920
 20
61.515300
 30
0.0
 10
333.577095
 20
61.515300
 30
0.0
 10
332.972324
 20
61.111205
 30
0.0
 10
332.715611
 20
60.491443
 30
0.0
  0
SPLINE
  5
244
100
AcDbEntity
  8
Layer_1
 62
7
100
AcDbSpline
 70
8
 71
3
 72
8
 73
4
 74
0
 40
0
 40
0
 40
0
 40
0
 40
1
 40
1
 40
1
 40
1
 10
332.715611
 20
60.491443
 30
0.0
 10
332.458897
 20
59.871682
 30
0.0
 10
332.600796
 20
59.158306
 30
0.0
 10
333.075141
 20
58.683961
 30
0.0
  0
SPLINE
  5
245
100
AcDbEntity
  8
Layer_1
 62
7
100
AcDbSpline
 70
8
 71
3
 72
8
 73
4
 74
0
 40
0
 40
0
 40
0
 40
0
 40
1
 40
1
 40
1
 40
1
 10
333.075141
 20
58.683961
 30
0.0
 10
333.549486
 20
58.209616
 30
0.0
 10
334.262862
 20
58.067717
 30
0.0
 10
334.882623
 20
58.324431
 30
0.0
  0
SPLINE
  5
246
100
AcDbEntity
  8
Layer_1
 62
7
100
AcDbSpline
 70
8
 71
3
 72
8
 73
4
 74
0
 40
0
 40
0
 40
0
 40
0
 40
1
 40
1
 40
1
 40
1
 10
334.882623
 20
58.324431
 30
0.0
 10
335.502385
 20
58.581144
 30
0.0
 10
335.906480
 20
59.185915
 30
0.0
 10
335.906480
 20
59.856740
 30
0.0
  0
SPLINE
  5
247
100
AcDbEntity
  8
Layer_1
 62
7
100
AcDbSpline
 70
8
 71
3
 72
8
 73
4
 74
0
 40
0
 40
0
 40
0
 40
0
 40
1
 40
1
 40
1
 40
1
 10
335.906480
 20
59.856740
 30
0.0
 10
335.906480
 20
60.296617
 30
0.0
 10
335.731739
 20
60.718479
 30
0.0
 10
335.420699
 20
61.029519
 30
0.0
  0
SPLINE
  5
248
100
AcDbEntity
  8
Layer_1
 62
7
100
AcDbSpline
 70
8
 71
3
 72
8
 73
4
 74
0
 40
0
 40
0
 40
0
 40
0
 40
1
 40
1
 40
1
 40
1
 10
335.420699
 20
61.029519
 30
0.0
 10
335.109659
 20
61.340559
 30
0.0
 10
334.687797
 20
61.515300
 30
0.0
 10
334.247920
 20
61.515300
 30
0.0
  0
LWPOLYLINE
  5
249
100
AcDbEntity
  8
Layer_1
 62
7
100
AcDbPolyline
 90
1
 70
1
 10
365.220400
 20
91.041340
 30
0.0
  0
LWPOLYLINE
  5
24a
100
AcDbEntity
  8
Layer_1
 62
7
100
AcDbPolyline
 90
1
 70
1
 10
334.247920
 20
61.515300
 30
0.0
  0
ENDSEC
  0
SECTION
  2
OBJECTS
  0
DICTIONARY
  5
C
330
0
100
AcDbDictionary
  3
ACAD_GROUP
350
D
  3
ACAD_MLINESTYLE
350
17
  0
DICTIONARY
  5
D
330
C
100
AcDbDictionary
  0
DICTIONARY
  5
1A
330
C
100
AcDbDictionary
  0
DICTIONARY
  5
17
330
C
100
AcDbDictionary
  3
STANDARD
350
18
  0
DICTIONARY
  5
19
330
C
100
AcDbDictionary
  0
ENDSEC
  0
EOF
