  0
SECTION
  2
HEADER
  9
$ACADVER
  1
AC1014
  9
$HANDSEED
  5
FFFF
  9
$INSUNITS
 70
     4
  9
$MEASUREMENT
 70
     1
  0
ENDSEC
  0
SECTION
  2
TABLES
  0
TABLE
  2
VPORT
  5
8
330
0
100
AcDbSymbolTable
 70
     4
  0
VPORT
  5
2E
330
8
100
AcDbSymbolTableRecord
100
AcDbViewportTableRecord
  2
*ACTIVE
 70
     0
 10
0.0
 20
0.0
 11
1.0
 21
1.0
 12
210.0
 22
148.5
 13
0.0
 23
0.0
 14
10.0
 24
10.0
 15
10.0
 25
10.0
 16
0.0
 26
0.0
 36
1.0
 17
0.0
 27
0.0
 37
0.0
 40
341.0
 41
1.24
 42
50.0
 43
0.0
 44
0.0
 50
0.0
 51
0.0
 71
     0
 72
   100
 73
     1
 74
     3
 75
     0
 76
     0
 77
     0
 78
     0
  0
ENDTAB
  0
TABLE
  2
LTYPE
  5
5
330
0
100
AcDbSymbolTable
 70
     1
  0
LTYPE
  5
14
330
5
100
AcDbSymbolTableRecord
100
AcDbLinetypeTableRecord
  2
BYBLOCK
 70
     0
  3

 72
    65
 73
     0
 40
0.0
  0
LTYPE
  5
15
330
5
100
AcDbSymbolTableRecord
100
AcDbLinetypeTableRecord
  2
BYLAYER
 70
     0
  3

 72
    65
 73
     0
 40
0.0
  0
LTYPE
  5
16
330
5
100
AcDbSymbolTableRecord
100
AcDbLinetypeTableRecord
  2
CONTINUOUS
 70
     0
  3
Solid line
 72
    65
 73
     0
 40
0.0
  0
ENDTAB
  0
TABLE
  2
LAYER
  5
2
100
AcDbSymbolTable
 70
2
  0
LAYER
  5
50
100
AcDbSymbolTableRecord
100
AcDbLayerTableRecord
  2
0
 70
0
  6
CONTINUOUS
  0
LAYER
  5
51
100
AcDbSymbolTableRecord
100
AcDbLayerTableRecord
  2
Layer_1
 70
0
  6
CONTINUOUS
  0
ENDTAB
  0
TABLE
  2
STYLE
  5
3
330
0
100
AcDbSymbolTable
 70
     1
  0
STYLE
  5
11
330
3
100
AcDbSymbolTableRecord
100
AcDbTextStyleTableRecord
  2
STANDARD
 70
     0
 40
0.0
 41
1.0
 50
0.0
 71
     0
 42
2.5
  3
txt
  4

  0
ENDTAB
  0
TABLE
  2
VIEW
  5
6
330
0
100
AcDbSymbolTable
 70
     0
  0
ENDTAB
  0
TABLE
  2
UCS
  5
7
330
0
100
AcDbSymbolTable
 70
     0
  0
ENDTAB
  0
TABLE
  2
APPID
  5
9
330
0
100
AcDbSymbolTable
 70
     2
  0
APPID
  5
12
330
9
100
AcDbSymbolTableRecord
100
AcDbRegAppTableRecord
  2
ACAD
 70
     0
  0
ENDTAB
  0
TABLE
  2
DIMSTYLE
  5
A
330
0
100
AcDbSymbolTable
 70
     1
  0
DIMSTYLE
105
27
330
A
100
AcDbSymbolTableRecord
100
AcDbDimStyleTableRecord
  2
ISO-25
 70
     0
  3

  4

  5

  6

  7

 40
1.0
 41
2.5
 42
0.625
 43
3.75
 44
1.25
 45
0.0
 46
0.0
 47
0.0
 48
0.0
140
2.5
141
2.5
142
0.0
143
0.03937007874016
144
1.0
145
0.0
146
1.0
147
0.625
 71
     0
 72
     0
 73
     0
 74
     0
 75
     0
 76
     0
 77
     1
 78
     8
170
     0
171
     3
172
     1
173
     0
174
     0
175
     0
176
     0
177
     0
178
     0
270
     2
271
     2
272
     2
273
     2
274
     3
340
11
275
     0
280
     0
281
     0
282
     0
283
     0
284
     8
285
     0
286
     0
287
     3
288
     0
  0
ENDTAB
  0
TABLE
  2
BLOCK_RECORD
  5
1
330
0
100
AcDbSymbolTable
 70
     1
  0
BLOCK_RECORD
  5
1F
330
1
100
AcDbSymbolTableRecord
100
AcDbBlockTableRecord
  2
*MODEL_SPACE
  0
BLOCK_RECORD
  5
1B
330
1
100
AcDbSymbolTableRecord
100
AcDbBlockTableRecord
  2
*PAPER_SPACE
  0
ENDTAB
  0
ENDSEC
  0
SECTION
  2
BLOCKS
  0
BLOCK
  5
20
330
1F
100
AcDbEntity
  8
0
100
AcDbBlockBegin
  2
*MODEL_SPACE
 70
     0
 10
0.0
 20
0.0
 30
0.0
  3
*MODEL_SPACE
  1

  0
ENDBLK
  5
21
330
1F
100
AcDbEntity
  8
0
100
AcDbBlockEnd
  0
BLOCK
  5
1C
330
1B
100
AcDbEntity
 67
     1
  8
0
100
AcDbBlockBegin
  2
*PAPER_SPACE
  1

  0
ENDBLK
  5
1D
330
1B
100
AcDbEntity
 67
     1
  8
0
100
AcDbBlockEnd
  0
ENDSEC
  0
SECTION
  2
ENTITIES
  0
LWPOLYLINE
  5
100
100
AcDbEntity
  8
Layer_1
 62
7
100
AcDbPolyline
 90
4
 70
0
 10
332.990030
 20
157.179450
 30
0.0
 10
356.404070
 20
208.535080
 30
0.0
 10
356.404070
 20
350.773754
 30
0.0
 10
301.943560
 20
369.105675
 30
0.0
  0
SPLINE
  5
101
100
AcDbEntity
  8
Layer_1
 62
7
100
AcDbSpline
 70
8
 71
3
 72
8
 73
4
 74
0
 40
0
 40
0
 40
0
 40
0
 40
1
 40
1
 40
1
 40
1
 10
191.864700
 20
306.180206
 30
0.0
 10
189.733845
 20
306.180206
 30
0.0
 10
187.812808
 20
304.896610
 30
0.0
 10
186.997365
 20
302.927956
 30
0.0
  0
SPLINE
  5
102
100
AcDbEntity
  8
Layer_1
 62
7
100
AcDbSpline
 70
8
 71
3
 72
8
 73
4
 74
0
 40
0
 40
0
 40
0
 40
0
 40
1
 40
1
 40
1
 40
1
 10
186.997365
 20
302.927956
 30
0.0
 10
186.181922
 20
300.959303
 30
0.0
 10
186.632661
 20
298.693285
 30
0.0
 10
188.139403
 20
297.186543
 30
0.0
  0
SPLINE
  5
103
100
AcDbEntity
  8
Layer_1
 62
7
100
AcDbSpline
 70
8
 71
3
 72
8
 73
4
 74
0
 40
0
 40
0
 40
0
 40
0
 40
1
 40
1
 40
1
 40
1
 10
188.139403
 20
297.186543
 30
0.0
 10
189.646145
 20
295.679801
 30
0.0
 10
191.912163
 20
295.229062
 30
0.0
 10
193.880816
 20
296.044505
 30
0.0
  0
SPLINE
  5
104
100
AcDbEntity
  8
Layer_1
 62
7
100
AcDbSpline
 70
8
 71
3
 72
8
 73
4
 74
0
 40
0
 40
0
 40
0
 40
0
 40
1
 40
1
 40
1
 40
1
 10
193.880816
 20
296.044505
 30
0.0
 10
195.849470
 20
296.859948
 30
0.0
 10
197.133066
 20
298.780985
 30
0.0
 10
197.133066
 20
300.911840
 30
0.0
  0
SPLINE
  5
105
100
AcDbEntity
  8
Layer_1
 62
7
100
AcDbSpline
 70
8
 71
3
 72
8
 73
4
 74
0
 40
0
 40
0
 40
0
 40
0
 40
1
 40
1
 40
1
 40
1
 10
197.133066
 20
300.911840
 30
0.0
 10
197.133066
 20
302.309098
 30
0.0
 10
196.578008
 20
303.649127
 30
0.0
 10
195.589997
 20
304.637137
 30
0.0
  0
SPLINE
  5
106
100
AcDbEntity
  8
Layer_1
 62
7
100
AcDbSpline
 70
8
 71
3
 72
8
 73
4
 74
0
 40
0
 40
0
 40
0
 40
0
 40
1
 40
1
 40
1
 40
1
 10
195.589997
 20
304.637137
 30
0.0
 10
194.601987
 20
305.625148
 30
0.0
 10
193.261958
 20
306.180206
 30
0.0
 10
191.864700
 20
306.180206
 30
0.0
  0
LWPOLYLINE
  5
107
100
AcDbEntity
  8
Layer_1
 62
7
100
AcDbPolyline
 90
4
 70
0
 10
228.927030
 20
372.942662
 30
0.0
 10
120.375100
 20
350.773754
 30
0.0
 10
120.375100
 20
208.535080
 30
0.0
 10
191.680840
 20
146.744290
 30
0.0
  0
SPLINE
  5
108
100
AcDbEntity
  8
Layer_1
 62
7
100
AcDbSpline
 70
8
 71
3
 72
8
 73
4
 74
0
 40
0
 40
0
 40
0
 40
0
 40
1
 40
1
 40
1
 40
1
 10
202.294720
 20
292.969960
 30
0.0
 10
200.920724
 20
292.969959
 30
0.0
 10
199.806881
 20
291.856116
 30
0.0
 10
199.806881
 20
290.482120
 30
0.0
  0
SPLINE
  5
109
100
AcDbEntity
  8
Layer_1
 62
7
100
AcDbSpline
 70
8
 71
3
 72
8
 73
4
 74
0
 40
0
 40
0
 40
0
 40
0
 40
1
 40
1
 40
1
 40
1
 10
199.806881
 20
290.482120
 30
0.0
 10
199.806881
 20
289.108124
 30
0.0
 10
200.920724
 20
287.994281
 30
0.0
 10
202.294720
 20
287.994281
 30
0.0
  0
SPLINE
  5
10a
100
AcDbEntity
  8
Layer_1
 62
7
100
AcDbSpline
 70
8
 71
3
 72
8
 73
4
 74
0
 40
0
 40
0
 40
0
 40
0
 40
1
 40
1
 40
1
 40
1
 10
202.294720
 20
287.994281
 30
0.0
 10
203.668716
 20
287.994281
 30
0.0
 10
204.782560
 20
289.108124
 30
0.0
 10
204.782560
 20
290.482120
 30
0.0
  0
SPLINE
  5
10b
100
AcDbEntity
  8
Layer_1
 62
7
100
AcDbSpline
 70
8
 71
3
 72
8
 73
4
 74
0
 40
0
 40
0
 40
0
 40
0
 40
1
 40
1
 40
1
 40
1
 10
204.782560
 20
290.482120
 30
0.0
 10
204.782560
 20
291.141936
 30
0.0
 10
204.520449
 20
291.774728
 30
0.0
 10
204.053888
 20
292.241288
 30
0.0
  0
SPLINE
  5
10c
100
AcDbEntity
  8
Layer_1
 62
7
100
AcDbSpline
 70
8
 71
3
 72
8
 73
4
 74
0
 40
0
 40
0
 40
0
 40
0
 40
1
 40
1
 40
1
 40
1
 10
204.053888
 20
292.241288
 30
0.0
 10
203.587328
 20
292.707849
 30
0.0
 10
202.954536
 20
292.969960
 30
0.0
 10
202.294720
 20
292.969960
 30
0.0
  0
LWPOLYLINE
  5
10d
100
AcDbEntity
  8
Layer_1
 62
7
100
AcDbPolyline
 90
1
 70
1
 10
191.864700
 20
306.180206
 30
0.0
  0
SPLINE
  5
10e
100
AcDbEntity
  8
Layer_1
 62
7
100
AcDbSpline
 70
8
 71
3
 72
8
 73
4
 74
0
 40
0
 40
0
 40
0
 40
0
 40
1
 40
1
 40
1
 40
1
 10
313.663450
 20
292.969909
 30
0.0
 10
312.657213
 20
292.969909
 30
0.0
 10
311.750056
 20
292.363767
 30
0.0
 10
311.364986
 20
291.434125
 30
0.0
  0
SPLINE
  5
10f
100
AcDbEntity
  8
Layer_1
 62
7
100
AcDbSpline
 70
8
 71
3
 72
8
 73
4
 74
0
 40
0
 40
0
 40
0
 40
0
 40
1
 40
1
 40
1
 40
1
 10
311.364986
 20
291.434125
 30
0.0
 10
310.979916
 20
290.504483
 30
0.0
 10
311.192765
 20
289.434419
 30
0.0
 10
311.904282
 20
288.722902
 30
0.0
  0
SPLINE
  5
110
100
AcDbEntity
  8
Layer_1
 62
7
100
AcDbSpline
 70
8
 71
3
 72
8
 73
4
 74
0
 40
0
 40
0
 40
0
 40
0
 40
1
 40
1
 40
1
 40
1
 10
311.904282
 20
288.722902
 30
0.0
 10
312.615799
 20
288.011385
 30
0.0
 10
313.685863
 20
287.798536
 30
0.0
 10
314.615505
 20
288.183606
 30
0.0
  0
SPLINE
  5
111
100
AcDbEntity
  8
Layer_1
 62
7
100
AcDbSpline
 70
8
 71
3
 72
8
 73
4
 74
0
 40
0
 40
0
 40
0
 40
0
 40
1
 40
1
 40
1
 40
1
 10
314.615505
 20
288.183606
 30
0.0
 10
315.545147
 20
288.568676
 30
0.0
 10
316.151290
 20
289.475833
 30
0.0
 10
316.151290
 20
290.482070
 30
0.0
  0
SPLINE
  5
112
100
AcDbEntity
  8
Layer_1
 62
7
100
AcDbSpline
 70
8
 71
3
 72
8
 73
4
 74
0
 40
0
 40
0
 40
0
 40
0
 40
1
 40
1
 40
1
 40
1
 10
316.151290
 20
290.482070
 30
0.0
 10
316.151290
 20
291.141886
 30
0.0
 10
315.889179
 20
291.774678
 30
0.0
 10
315.422618
 20
292.241238
 30
0.0
  0
SPLINE
  5
113
100
AcDbEntity
  8
Layer_1
 62
7
100
AcDbSpline
 70
8
 71
3
 72
8
 73
4
 74
0
 40
0
 40
0
 40
0
 40
0
 40
1
 40
1
 40
1
 40
1
 10
315.422618
 20
292.241238
 30
0.0
 10
314.956058
 20
292.707799
 30
0.0
 10
314.323266
 20
292.969909
 30
0.0
 10
313.663450
 20
292.969909
 30
0.0
  0
LWPOLYLINE
  5
114
100
AcDbEntity
  8
Layer_1
 62
7
100
AcDbPolyline
 90
1
 70
1
 10
202.294720
 20
292.969960
 30
0.0
  0
SPLINE
  5
115
100
AcDbEntity
  8
Layer_1
 62
7
100
AcDbSpline
 70
8
 71
3
 72
8
 73
4
 74
0
 40
0
 40
0
 40
0
 40
0
 40
1
 40
1
 40
1
 40
1
 10
324.093290
 20
306.180366
 30
0.0
 10
321.962435
 20
306.180366
 30
0.0
 10
320.041398
 20
304.896770
 30
0.0
 10
319.225955
 20
302.928116
 30
0.0
  0
SPLINE
  5
116
100
AcDbEntity
  8
Layer_1
 62
7
100
AcDbSpline
 70
8
 71
3
 72
8
 73
4
 74
0
 40
0
 40
0
 40
0
 40
0
 40
1
 40
1
 40
1
 40
1
 10
319.225955
 20
302.928116
 30
0.0
 10
318.410512
 20
300.959463
 30
0.0
 10
318.861251
 20
298.693445
 30
0.0
 10
320.367993
 20
297.186703
 30
0.0
  0
SPLINE
  5
117
100
AcDbEntity
  8
Layer_1
 62
7
100
AcDbSpline
 70
8
 71
3
 72
8
 73
4
 74
0
 40
0
 40
0
 40
0
 40
0
 40
1
 40
1
 40
1
 40
1
 10
320.367993
 20
297.186703
 30
0.0
 10
321.874735
 20
295.679961
 30
0.0
 10
324.140753
 20
295.229222
 30
0.0
 10
326.109406
 20
296.044665
 30
0.0
  0
SPLINE
  5
118
100
AcDbEntity
  8
Layer_1
 62
7
100
AcDbSpline
 70
8
 71
3
 72
8
 73
4
 74
0
 40
0
 40
0
 40
0
 40
0
 40
1
 40
1
 40
1
 40
1
 10
326.109406
 20
296.044665
 30
0.0
 10
328.078060
 20
296.860108
 30
0.0
 10
329.361656
 20
298.781145
 30
0.0
 10
329.361656
 20
300.912000
 30
0.0
  0
SPLINE
  5
119
100
AcDbEntity
  8
Layer_1
 62
7
100
AcDbSpline
 70
8
 71
3
 72
8
 73
4
 74
0
 40
0
 40
0
 40
0
 40
0
 40
1
 40
1
 40
1
 40
1
 10
329.361656
 20
300.912000
 30
0.0
 10
329.361656
 20
302.309258
 30
0.0
 10
328.806598
 20
303.649287
 30
0.0
 10
327.818587
 20
304.637297
 30
0.0
  0
SPLINE
  5
11a
100
AcDbEntity
  8
Layer_1
 62
7
100
AcDbSpline
 70
8
 71
3
 72
8
 73
4
 74
0
 40
0
 40
0
 40
0
 40
0
 40
1
 40
1
 40
1
 40
1
 10
327.818587
 20
304.637297
 30
0.0
 10
326.830577
 20
305.625308
 30
0.0
 10
325.490548
 20
306.180366
 30
0.0
 10
324.093290
 20
306.180366
 30
0.0
  0
LWPOLYLINE
  5
11b
100
AcDbEntity
  8
Layer_1
 62
7
100
AcDbPolyline
 90
1
 70
1
 10
313.663450
 20
292.969909
 30
0.0
  0
SPLINE
  5
11c
100
AcDbEntity
  8
Layer_1
 62
7
100
AcDbSpline
 70
8
 71
3
 72
8
 73
4
 74
0
 40
0
 40
0
 40
0
 40
0
 40
1
 40
1
 40
1
 40
1
 10
313.663420
 20
181.601400
 30
0.0
 10
312.657183
 20
181.601400
 30
0.0
 10
311.750026
 20
180.995257
 30
0.0
 10
311.364956
 20
180.065615
 30
0.0
  0
SPLINE
  5
11d
100
AcDbEntity
  8
Layer_1
 62
7
100
AcDbSpline
 70
8
 71
3
 72
8
 73
4
 74
0
 40
0
 40
0
 40
0
 40
0
 40
1
 40
1
 40
1
 40
1
 10
311.364956
 20
180.065615
 30
0.0
 10
310.979886
 20
179.135973
 30
0.0
 10
311.192735
 20
178.065909
 30
0.0
 10
311.904252
 20
177.354392
 30
0.0
  0
SPLINE
  5
11e
100
AcDbEntity
  8
Layer_1
 62
7
100
AcDbSpline
 70
8
 71
3
 72
8
 73
4
 74
0
 40
0
 40
0
 40
0
 40
0
 40
1
 40
1
 40
1
 40
1
 10
311.904252
 20
177.354392
 30
0.0
 10
312.615769
 20
176.642875
 30
0.0
 10
313.685833
 20
176.430026
 30
0.0
 10
314.615475
 20
176.815096
 30
0.0
  0
SPLINE
  5
11f
100
AcDbEntity
  8
Layer_1
 62
7
100
AcDbSpline
 70
8
 71
3
 72
8
 73
4
 74
0
 40
0
 40
0
 40
0
 40
0
 40
1
 40
1
 40
1
 40
1
 10
314.615475
 20
176.815096
 30
0.0
 10
315.545117
 20
177.200166
 30
0.0
 10
316.151259
 20
178.107323
 30
0.0
 10
316.151259
 20
179.113560
 30
0.0
  0
SPLINE
  5
120
100
AcDbEntity
  8
Layer_1
 62
7
100
AcDbSpline
 70
8
 71
3
 72
8
 73
4
 74
0
 40
0
 40
0
 40
0
 40
0
 40
1
 40
1
 40
1
 40
1
 10
316.151259
 20
179.113560
 30
0.0
 10
316.151259
 20
179.773376
 30
0.0
 10
315.889149
 20
180.406168
 30
0.0
 10
315.422588
 20
180.872728
 30
0.0
  0
SPLINE
  5
121
100
AcDbEntity
  8
Layer_1
 62
7
100
AcDbSpline
 70
8
 71
3
 72
8
 73
4
 74
0
 40
0
 40
0
 40
0
 40
0
 40
1
 40
1
 40
1
 40
1
 10
315.422588
 20
180.872728
 30
0.0
 10
314.956028
 20
181.339289
 30
0.0
 10
314.323236
 20
181.601400
 30
0.0
 10
313.663420
 20
181.601400
 30
0.0
  0
LWPOLYLINE
  5
122
100
AcDbEntity
  8
Layer_1
 62
7
100
AcDbPolyline
 90
1
 70
1
 10
324.093290
 20
306.180366
 30
0.0
  0
SPLINE
  5
123
100
AcDbEntity
  8
Layer_1
 62
7
100
AcDbSpline
 70
8
 71
3
 72
8
 73
4
 74
0
 40
0
 40
0
 40
0
 40
0
 40
1
 40
1
 40
1
 40
1
 10
324.093440
 20
173.951896
 30
0.0
 10
321.962585
 20
173.951896
 30
0.0
 10
320.041548
 20
172.668300
 30
0.0
 10
319.226105
 20
170.699646
 30
0.0
  0
SPLINE
  5
124
100
AcDbEntity
  8
Layer_1
 62
7
100
AcDbSpline
 70
8
 71
3
 72
8
 73
4
 74
0
 40
0
 40
0
 40
0
 40
0
 40
1
 40
1
 40
1
 40
1
 10
319.226105
 20
170.699646
 30
0.0
 10
318.410662
 20
168.730993
 30
0.0
 10
318.861401
 20
166.464975
 30
0.0
 10
320.368143
 20
164.958233
 30
0.0
  0
SPLINE
  5
125
100
AcDbEntity
  8
Layer_1
 62
7
100
AcDbSpline
 70
8
 71
3
 72
8
 73
4
 74
0
 40
0
 40
0
 40
0
 40
0
 40
1
 40
1
 40
1
 40
1
 10
320.368143
 20
164.958233
 30
0.0
 10
321.874885
 20
163.451491
 30
0.0
 10
324.140903
 20
163.000752
 30
0.0
 10
326.109556
 20
163.816195
 30
0.0
  0
SPLINE
  5
126
100
AcDbEntity
  8
Layer_1
 62
7
100
AcDbSpline
 70
8
 71
3
 72
8
 73
4
 74
0
 40
0
 40
0
 40
0
 40
0
 40
1
 40
1
 40
1
 40
1
 10
326.109556
 20
163.816195
 30
0.0
 10
328.078210
 20
164.631638
 30
0.0
 10
329.361806
 20
166.552675
 30
0.0
 10
329.361806
 20
168.683530
 30
0.0
  0
SPLINE
  5
127
100
AcDbEntity
  8
Layer_1
 62
7
100
AcDbSpline
 70
8
 71
3
 72
8
 73
4
 74
0
 40
0
 40
0
 40
0
 40
0
 40
1
 40
1
 40
1
 40
1
 10
329.361806
 20
168.683530
 30
0.0
 10
329.361806
 20
170.080788
 30
0.0
 10
328.806748
 20
171.420817
 30
0.0
 10
327.818737
 20
172.408827
 30
0.0
  0
SPLINE
  5
128
100
AcDbEntity
  8
Layer_1
 62
7
100
AcDbSpline
 70
8
 71
3
 72
8
 73
4
 74
0
 40
0
 40
0
 40
0
 40
0
 40
1
 40
1
 40
1
 40
1
 10
327.818737
 20
172.408827
 30
0.0
 10
326.830727
 20
173.396838
 30
0.0
 10
325.490698
 20
173.951896
 30
0.0
 10
324.093440
 20
173.951896
 30
0.0
  0
LWPOLYLINE
  5
129
100
AcDbEntity
  8
Layer_1
 62
7
100
AcDbPolyline
 90
1
 70
1
 10
313.663420
 20
181.601400
 30
0.0
  0
SPLINE
  5
12a
100
AcDbEntity
  8
Layer_1
 62
7
100
AcDbSpline
 70
8
 71
3
 72
8
 73
4
 74
0
 40
0
 40
0
 40
0
 40
0
 40
1
 40
1
 40
1
 40
1
 10
202.294710
 20
181.601259
 30
0.0
 10
201.288473
 20
181.601259
 30
0.0
 10
200.381316
 20
180.995117
 30
0.0
 10
199.996246
 20
180.065475
 30
0.0
  0
SPLINE
  5
12b
100
AcDbEntity
  8
Layer_1
 62
7
100
AcDbSpline
 70
8
 71
3
 72
8
 73
4
 74
0
 40
0
 40
0
 40
0
 40
0
 40
1
 40
1
 40
1
 40
1
 10
199.996246
 20
180.065475
 30
0.0
 10
199.611176
 20
179.135833
 30
0.0
 10
199.824025
 20
178.065769
 30
0.0
 10
200.535542
 20
177.354252
 30
0.0
  0
SPLINE
  5
12c
100
AcDbEntity
  8
Layer_1
 62
7
100
AcDbSpline
 70
8
 71
3
 72
8
 73
4
 74
0
 40
0
 40
0
 40
0
 40
0
 40
1
 40
1
 40
1
 40
1
 10
200.535542
 20
177.354252
 30
0.0
 10
201.247059
 20
176.642735
 30
0.0
 10
202.317123
 20
176.429886
 30
0.0
 10
203.246765
 20
176.814956
 30
0.0
  0
SPLINE
  5
12d
100
AcDbEntity
  8
Layer_1
 62
7
100
AcDbSpline
 70
8
 71
3
 72
8
 73
4
 74
0
 40
0
 40
0
 40
0
 40
0
 40
1
 40
1
 40
1
 40
1
 10
203.246765
 20
176.814956
 30
0.0
 10
204.176407
 20
177.200026
 30
0.0
 10
204.782550
 20
178.107183
 30
0.0
 10
204.782550
 20
179.113420
 30
0.0
  0
SPLINE
  5
12e
100
AcDbEntity
  8
Layer_1
 62
7
100
AcDbSpline
 70
8
 71
3
 72
8
 73
4
 74
0
 40
0
 40
0
 40
0
 40
0
 40
1
 40
1
 40
1
 40
1
 10
204.782550
 20
179.113420
 30
0.0
 10
204.782550
 20
179.773236
 30
0.0
 10
204.520439
 20
180.406028
 30
0.0
 10
204.053878
 20
180.872588
 30
0.0
  0
SPLINE
  5
12f
100
AcDbEntity
  8
Layer_1
 62
7
100
AcDbSpline
 70
8
 71
3
 72
8
 73
4
 74
0
 40
0
 40
0
 40
0
 40
0
 40
1
 40
1
 40
1
 40
1
 10
204.053878
 20
180.872588
 30
0.0
 10
203.587318
 20
181.339149
 30
0.0
 10
202.954526
 20
181.601259
 30
0.0
 10
202.294710
 20
181.601259
 30
0.0
  0
LWPOLYLINE
  5
130
100
AcDbEntity
  8
Layer_1
 62
7
100
AcDbPolyline
 90
1
 70
1
 10
324.093440
 20
173.951896
 30
0.0
  0
SPLINE
  5
131
100
AcDbEntity
  8
Layer_1
 62
7
100
AcDbSpline
 70
8
 71
3
 72
8
 73
4
 74
0
 40
0
 40
0
 40
0
 40
0
 40
1
 40
1
 40
1
 40
1
 10
191.864850
 20
173.951896
 30
0.0
 10
189.733995
 20
173.951896
 30
0.0
 10
187.812958
 20
172.668300
 30
0.0
 10
186.997515
 20
170.699646
 30
0.0
  0
SPLINE
  5
132
100
AcDbEntity
  8
Layer_1
 62
7
100
AcDbSpline
 70
8
 71
3
 72
8
 73
4
 74
0
 40
0
 40
0
 40
0
 40
0
 40
1
 40
1
 40
1
 40
1
 10
186.997515
 20
170.699646
 30
0.0
 10
186.182072
 20
168.730993
 30
0.0
 10
186.632811
 20
166.464975
 30
0.0
 10
188.139553
 20
164.958233
 30
0.0
  0
SPLINE
  5
133
100
AcDbEntity
  8
Layer_1
 62
7
100
AcDbSpline
 70
8
 71
3
 72
8
 73
4
 74
0
 40
0
 40
0
 40
0
 40
0
 40
1
 40
1
 40
1
 40
1
 10
188.139553
 20
164.958233
 30
0.0
 10
189.646295
 20
163.451491
 30
0.0
 10
191.912313
 20
163.000752
 30
0.0
 10
193.880966
 20
163.816195
 30
0.0
  0
SPLINE
  5
134
100
AcDbEntity
  8
Layer_1
 62
7
100
AcDbSpline
 70
8
 71
3
 72
8
 73
4
 74
0
 40
0
 40
0
 40
0
 40
0
 40
1
 40
1
 40
1
 40
1
 10
193.880966
 20
163.816195
 30
0.0
 10
195.849620
 20
164.631638
 30
0.0
 10
197.133216
 20
166.552675
 30
0.0
 10
197.133216
 20
168.683530
 30
0.0
  0
SPLINE
  5
135
100
AcDbEntity
  8
Layer_1
 62
7
100
AcDbSpline
 70
8
 71
3
 72
8
 73
4
 74
0
 40
0
 40
0
 40
0
 40
0
 40
1
 40
1
 40
1
 40
1
 10
197.133216
 20
168.683530
 30
0.0
 10
197.133216
 20
170.080788
 30
0.0
 10
196.578158
 20
171.420817
 30
0.0
 10
195.590147
 20
172.408827
 30
0.0
  0
SPLINE
  5
136
100
AcDbEntity
  8
Layer_1
 62
7
100
AcDbSpline
 70
8
 71
3
 72
8
 73
4
 74
0
 40
0
 40
0
 40
0
 40
0
 40
1
 40
1
 40
1
 40
1
 10
195.590147
 20
172.408827
 30
0.0
 10
194.602137
 20
173.396838
 30
0.0
 10
193.262108
 20
173.951896
 30
0.0
 10
191.864850
 20
173.951896
 30
0.0
  0
LWPOLYLINE
  5
137
100
AcDbEntity
  8
Layer_1
 62
7
100
AcDbPolyline
 90
1
 70
1
 10
202.294710
 20
181.601259
 30
0.0
  0
SPLINE
  5
138
100
AcDbEntity
  8
Layer_1
 62
7
100
AcDbSpline
 70
8
 71
3
 72
8
 73
4
 74
0
 40
0
 40
0
 40
0
 40
0
 40
1
 40
1
 40
1
 40
1
 10
213.529210
 20
170.269936
 30
0.0
 10
212.917576
 20
170.269936
 30
0.0
 10
212.366167
 20
169.901497
 30
0.0
 10
212.132104
 20
169.336420
 30
0.0
  0
SPLINE
  5
139
100
AcDbEntity
  8
Layer_1
 62
7
100
AcDbSpline
 70
8
 71
3
 72
8
 73
4
 74
0
 40
0
 40
0
 40
0
 40
0
 40
1
 40
1
 40
1
 40
1
 10
212.132104
 20
169.336420
 30
0.0
 10
211.898042
 20
168.771344
 30
0.0
 10
212.027421
 20
168.120912
 30
0.0
 10
212.459912
 20
167.688422
 30
0.0
  0
SPLINE
  5
13a
100
AcDbEntity
  8
Layer_1
 62
7
100
AcDbSpline
 70
8
 71
3
 72
8
 73
4
 74
0
 40
0
 40
0
 40
0
 40
0
 40
1
 40
1
 40
1
 40
1
 10
212.459912
 20
167.688422
 30
0.0
 10
212.892402
 20
167.255931
 30
0.0
 10
213.542834
 20
167.126552
 30
0.0
 10
214.107910
 20
167.360614
 30
0.0
  0
SPLINE
  5
13b
100
AcDbEntity
  8
Layer_1
 62
7
100
AcDbSpline
 70
8
 71
3
 72
8
 73
4
 74
0
 40
0
 40
0
 40
0
 40
0
 40
1
 40
1
 40
1
 40
1
 10
214.107910
 20
167.360614
 30
0.0
 10
214.672987
 20
167.594677
 30
0.0
 10
215.041426
 20
168.146086
 30
0.0
 10
215.041426
 20
168.757720
 30
0.0
  0
SPLINE
  5
13c
100
AcDbEntity
  8
Layer_1
 62
7
100
AcDbSpline
 70
8
 71
3
 72
8
 73
4
 74
0
 40
0
 40
0
 40
0
 40
0
 40
1
 40
1
 40
1
 40
1
 10
215.041426
 20
168.757720
 30
0.0
 10
215.041426
 20
169.158785
 30
0.0
 10
214.882104
 20
169.543423
 30
0.0
 10
214.598508
 20
169.827018
 30
0.0
  0
SPLINE
  5
13d
100
AcDbEntity
  8
Layer_1
 62
7
100
AcDbSpline
 70
8
 71
3
 72
8
 73
4
 74
0
 40
0
 40
0
 40
0
 40
0
 40
1
 40
1
 40
1
 40
1
 10
214.598508
 20
169.827018
 30
0.0
 10
214.314913
 20
170.110614
 30
0.0
 10
213.930275
 20
170.269936
 30
0.0
 10
213.529210
 20
170.269936
 30
0.0
  0
LWPOLYLINE
  5
13e
100
AcDbEntity
  8
Layer_1
 62
7
100
AcDbPolyline
 90
1
 70
1
 10
191.864850
 20
173.951896
 30
0.0
  0
SPLINE
  5
13f
100
AcDbEntity
  8
Layer_1
 62
7
100
AcDbSpline
 70
8
 71
3
 72
8
 73
4
 74
0
 40
0
 40
0
 40
0
 40
0
 40
1
 40
1
 40
1
 40
1
 10
213.529210
 20
149.951276
 30
0.0
 10
212.917576
 20
149.951276
 30
0.0
 10
212.366167
 20
149.582837
 30
0.0
 10
212.132104
 20
149.017760
 30
0.0
  0
SPLINE
  5
140
100
AcDbEntity
  8
Layer_1
 62
7
100
AcDbSpline
 70
8
 71
3
 72
8
 73
4
 74
0
 40
0
 40
0
 40
0
 40
0
 40
1
 40
1
 40
1
 40
1
 10
212.132104
 20
149.017760
 30
0.0
 10
211.898042
 20
148.452684
 30
0.0
 10
212.027421
 20
147.802252
 30
0.0
 10
212.459912
 20
147.369762
 30
0.0
  0
SPLINE
  5
141
100
AcDbEntity
  8
Layer_1
 62
7
100
AcDbSpline
 70
8
 71
3
 72
8
 73
4
 74
0
 40
0
 40
0
 40
0
 40
0
 40
1
 40
1
 40
1
 40
1
 10
212.459912
 20
147.369762
 30
0.0
 10
212.892402
 20
146.937271
 30
0.0
 10
213.542834
 20
146.807892
 30
0.0
 10
214.107910
 20
147.041954
 30
0.0
  0
SPLINE
  5
142
100
AcDbEntity
  8
Layer_1
 62
7
100
AcDbSpline
 70
8
 71
3
 72
8
 73
4
 74
0
 40
0
 40
0
 40
0
 40
0
 40
1
 40
1
 40
1
 40
1
 10
214.107910
 20
147.041954
 30
0.0
 10
214.672987
 20
147.276017
 30
0.0
 10
215.041426
 20
147.827426
 30
0.0
 10
215.041426
 20
148.439060
 30
0.0
  0
SPLINE
  5
143
100
AcDbEntity
  8
Layer_1
 62
7
100
AcDbSpline
 70
8
 71
3
 72
8
 73
4
 74
0
 40
0
 40
0
 40
0
 40
0
 40
1
 40
1
 40
1
 40
1
 10
215.041426
 20
148.439060
 30
0.0
 10
215.041426
 20
148.840125
 30
0.0
 10
214.882104
 20
149.224763
 30
0.0
 10
214.598508
 20
149.508358
 30
0.0
  0
SPLINE
  5
144
100
AcDbEntity
  8
Layer_1
 62
7
100
AcDbSpline
 70
8
 71
3
 72
8
 73
4
 74
0
 40
0
 40
0
 40
0
 40
0
 40
1
 40
1
 40
1
 40
1
 10
214.598508
 20
149.508358
 30
0.0
 10
214.314913
 20
149.791954
 30
0.0
 10
213.930275
 20
149.951276
 30
0.0
 10
213.529210
 20
149.951276
 30
0.0
  0
LWPOLYLINE
  5
145
100
AcDbEntity
  8
Layer_1
 62
7
100
AcDbPolyline
 90
1
 70
1
 10
213.529210
 20
170.269936
 30
0.0
  0
SPLINE
  5
146
100
AcDbEntity
  8
Layer_1
 62
7
100
AcDbSpline
 70
8
 71
3
 72
8
 73
4
 74
0
 40
0
 40
0
 40
0
 40
0
 40
1
 40
1
 40
1
 40
1
 10
302.428960
 20
170.269936
 30
0.0
 10
301.817326
 20
170.269936
 30
0.0
 10
301.265917
 20
169.901497
 30
0.0
 10
301.031854
 20
169.336420
 30
0.0
  0
SPLINE
  5
147
100
AcDbEntity
  8
Layer_1
 62
7
100
AcDbSpline
 70
8
 71
3
 72
8
 73
4
 74
0
 40
0
 40
0
 40
0
 40
0
 40
1
 40
1
 40
1
 40
1
 10
301.031854
 20
169.336420
 30
0.0
 10
300.797792
 20
168.771344
 30
0.0
 10
300.927171
 20
168.120912
 30
0.0
 10
301.359662
 20
167.688422
 30
0.0
  0
SPLINE
  5
148
100
AcDbEntity
  8
Layer_1
 62
7
100
AcDbSpline
 70
8
 71
3
 72
8
 73
4
 74
0
 40
0
 40
0
 40
0
 40
0
 40
1
 40
1
 40
1
 40
1
 10
301.359662
 20
167.688422
 30
0.0
 10
301.792152
 20
167.255931
 30
0.0
 10
302.442584
 20
167.126552
 30
0.0
 10
303.007660
 20
167.360614
 30
0.0
  0
SPLINE
  5
149
100
AcDbEntity
  8
Layer_1
 62
7
100
AcDbSpline
 70
8
 71
3
 72
8
 73
4
 74
0
 40
0
 40
0
 40
0
 40
0
 40
1
 40
1
 40
1
 40
1
 10
303.007660
 20
167.360614
 30
0.0
 10
303.572737
 20
167.594677
 30
0.0
 10
303.941176
 20
168.146086
 30
0.0
 10
303.941176
 20
168.757720
 30
0.0
  0
SPLINE
  5
14a
100
AcDbEntity
  8
Layer_1
 62
7
100
AcDbSpline
 70
8
 71
3
 72
8
 73
4
 74
0
 40
0
 40
0
 40
0
 40
0
 40
1
 40
1
 40
1
 40
1
 10
303.941176
 20
168.757720
 30
0.0
 10
303.941176
 20
169.158785
 30
0.0
 10
303.781854
 20
169.543423
 30
0.0
 10
303.498258
 20
169.827018
 30
0.0
  0
SPLINE
  5
14b
100
AcDbEntity
  8
Layer_1
 62
7
100
AcDbSpline
 70
8
 71
3
 72
8
 73
4
 74
0
 40
0
 40
0
 40
0
 40
0
 40
1
 40
1
 40
1
 40
1
 10
303.498258
 20
169.827018
 30
0.0
 10
303.214663
 20
170.110614
 30
0.0
 10
302.830025
 20
170.269936
 30
0.0
 10
302.428960
 20
170.269936
 30
0.0
  0
LWPOLYLINE
  5
14c
100
AcDbEntity
  8
Layer_1
 62
7
100
AcDbPolyline
 90
1
 70
1
 10
213.529210
 20
149.951276
 30
0.0
  0
SPLINE
  5
14d
100
AcDbEntity
  8
Layer_1
 62
7
100
AcDbSpline
 70
8
 71
3
 72
8
 73
4
 74
0
 40
0
 40
0
 40
0
 40
0
 40
1
 40
1
 40
1
 40
1
 10
302.428960
 20
149.951276
 30
0.0
 10
301.817326
 20
149.951276
 30
0.0
 10
301.265917
 20
149.582837
 30
0.0
 10
301.031854
 20
149.017760
 30
0.0
  0
SPLINE
  5
14e
100
AcDbEntity
  8
Layer_1
 62
7
100
AcDbSpline
 70
8
 71
3
 72
8
 73
4
 74
0
 40
0
 40
0
 40
0
 40
0
 40
1
 40
1
 40
1
 40
1
 10
301.031854
 20
149.017760
 30
0.0
 10
300.797792
 20
148.452684
 30
0.0
 10
300.927171
 20
147.802252
 30
0.0
 10
301.359662
 20
147.369762
 30
0.0
  0
SPLINE
  5
14f
100
AcDbEntity
  8
Layer_1
 62
7
100
AcDbSpline
 70
8
 71
3
 72
8
 73
4
 74
0
 40
0
 40
0
 40
0
 40
0
 40
1
 40
1
 40
1
 40
1
 10
301.359662
 20
147.369762
 30
0.0
 10
301.792152
 20
146.937271
 30
0.0
 10
302.442584
 20
146.807892
 30
0.0
 10
303.007660
 20
147.041954
 30
0.0
  0
SPLINE
  5
150
100
AcDbEntity
  8
Layer_1
 62
7
100
AcDbSpline
 70
8
 71
3
 72
8
 73
4
 74
0
 40
0
 40
0
 40
0
 40
0
 40
1
 40
1
 40
1
 40
1
 10
303.007660
 20
147.041954
 30
0.0
 10
303.572737
 20
147.276017
 30
0.0
 10
303.941176
 20
147.827426
 30
0.0
 10
303.941176
 20
148.439060
 30
0.0
  0
SPLINE
  5
151
100
AcDbEntity
  8
Layer_1
 62
7
100
AcDbSpline
 70
8
 71
3
 72
8
 73
4
 74
0
 40
0
 40
0
 40
0
 40
0
 40
1
 40
1
 40
1
 40
1
 10
303.941176
 20
148.439060
 30
0.0
 10
303.941176
 20
148.840125
 30
0.0
 10
303.781854
 20
149.224763
 30
0.0
 10
303.498258
 20
149.508358
 30
0.0
  0
SPLINE
  5
152
100
AcDbEntity
  8
Layer_1
 62
7
100
AcDbSpline
 70
8
 71
3
 72
8
 73
4
 74
0
 40
0
 40
0
 40
0
 40
0
 40
1
 40
1
 40
1
 40
1
 10
303.498258
 20
149.508358
 30
0.0
 10
303.214663
 20
149.791954
 30
0.0
 10
302.830025
 20
149.951276
 30
0.0
 10
302.428960
 20
149.951276
 30
0.0
  0
LWPOLYLINE
  5
153
100
AcDbEntity
  8
Layer_1
 62
7
100
AcDbPolyline
 90
1
 70
1
 10
302.428960
 20
170.269936
 30
0.0
  0
SPLINE
  5
154
100
AcDbEntity
  8
Layer_1
 62
7
100
AcDbSpline
 70
8
 71
3
 72
8
 73
4
 74
0
 40
0
 40
0
 40
0
 40
0
 40
1
 40
1
 40
1
 40
1
 10
122.373426
 20
268.827640
 30
0.0
 10
122.373426
 20
268.018253
 30
0.0
 10
122.860989
 20
267.288563
 30
0.0
 10
123.608766
 20
266.978824
 30
0.0
  0
SPLINE
  5
155
100
AcDbEntity
  8
Layer_1
 62
7
100
AcDbSpline
 70
8
 71
3
 72
8
 73
4
 74
0
 40
0
 40
0
 40
0
 40
0
 40
1
 40
1
 40
1
 40
1
 10
123.608766
 20
266.978824
 30
0.0
 10
124.356542
 20
266.669085
 30
0.0
 10
125.217269
 20
266.840295
 30
0.0
 10
125.789592
 20
267.412618
 30
0.0
  0
SPLINE
  5
156
100
AcDbEntity
  8
Layer_1
 62
7
100
AcDbSpline
 70
8
 71
3
 72
8
 73
4
 74
0
 40
0
 40
0
 40
0
 40
0
 40
1
 40
1
 40
1
 40
1
 10
125.789592
 20
267.412618
 30
0.0
 10
126.361915
 20
267.984941
 30
0.0
 10
126.533125
 20
268.845668
 30
0.0
 10
126.223386
 20
269.593444
 30
0.0
  0
SPLINE
  5
157
100
AcDbEntity
  8
Layer_1
 62
7
100
AcDbSpline
 70
8
 71
3
 72
8
 73
4
 74
0
 40
0
 40
0
 40
0
 40
0
 40
1
 40
1
 40
1
 40
1
 10
126.223386
 20
269.593444
 30
0.0
 10
125.913647
 20
270.341221
 30
0.0
 10
125.183957
 20
270.828783
 30
0.0
 10
124.374570
 20
270.828783
 30
0.0
  0
SPLINE
  5
158
100
AcDbEntity
  8
Layer_1
 62
7
100
AcDbSpline
 70
8
 71
3
 72
8
 73
4
 74
0
 40
0
 40
0
 40
0
 40
0
 40
1
 40
1
 40
1
 40
1
 10
124.374570
 20
270.828783
 30
0.0
 10
123.843834
 20
270.828783
 30
0.0
 10
123.334835
 20
270.617949
 30
0.0
 10
122.959548
 20
270.242662
 30
0.0
  0
SPLINE
  5
159
100
AcDbEntity
  8
Layer_1
 62
7
100
AcDbSpline
 70
8
 71
3
 72
8
 73
4
 74
0
 40
0
 40
0
 40
0
 40
0
 40
1
 40
1
 40
1
 40
1
 10
122.959548
 20
270.242662
 30
0.0
 10
122.584261
 20
269.867375
 30
0.0
 10
122.373426
 20
269.358376
 30
0.0
 10
122.373426
 20
268.827640
 30
0.0
  0
LWPOLYLINE
  5
15a
100
AcDbEntity
  8
Layer_1
 62
7
100
AcDbPolyline
 90
1
 70
1
 10
302.428960
 20
149.951276
 30
0.0
  0
SPLINE
  5
15b
100
AcDbEntity
  8
Layer_1
 62
7
100
AcDbSpline
 70
8
 71
3
 72
8
 73
4
 74
0
 40
0
 40
0
 40
0
 40
0
 40
1
 40
1
 40
1
 40
1
 10
122.373426
 20
252.827638
 30
0.0
 10
122.373426
 20
252.018251
 30
0.0
 10
122.860989
 20
251.288561
 30
0.0
 10
123.608766
 20
250.978822
 30
0.0
  0
SPLINE
  5
15c
100
AcDbEntity
  8
Layer_1
 62
7
100
AcDbSpline
 70
8
 71
3
 72
8
 73
4
 74
0
 40
0
 40
0
 40
0
 40
0
 40
1
 40
1
 40
1
 40
1
 10
123.608766
 20
250.978822
 30
0.0
 10
124.356542
 20
250.669083
 30
0.0
 10
125.217269
 20
250.840293
 30
0.0
 10
125.789592
 20
251.412616
 30
0.0
  0
SPLINE
  5
15d
100
AcDbEntity
  8
Layer_1
 62
7
100
AcDbSpline
 70
8
 71
3
 72
8
 73
4
 74
0
 40
0
 40
0
 40
0
 40
0
 40
1
 40
1
 40
1
 40
1
 10
125.789592
 20
251.412616
 30
0.0
 10
126.361915
 20
251.984939
 30
0.0
 10
126.533125
 20
252.845666
 30
0.0
 10
126.223386
 20
253.593442
 30
0.0
  0
SPLINE
  5
15e
100
AcDbEntity
  8
Layer_1
 62
7
100
AcDbSpline
 70
8
 71
3
 72
8
 73
4
 74
0
 40
0
 40
0
 40
0
 40
0
 40
1
 40
1
 40
1
 40
1
 10
126.223386
 20
253.593442
 30
0.0
 10
125.913647
 20
254.341219
 30
0.0
 10
125.183957
 20
254.828781
 30
0.0
 10
124.374570
 20
254.828781
 30
0.0
  0
SPLINE
  5
15f
100
AcDbEntity
  8
Layer_1
 62
7
100
AcDbSpline
 70
8
 71
3
 72
8
 73
4
 74
0
 40
0
 40
0
 40
0
 40
0
 40
1
 40
1
 40
1
 40
1
 10
124.374570
 20
254.828781
 30
0.0
 10
123.843834
 20
254.828781
 30
0.0
 10
123.334835
 20
254.617947
 30
0.0
 10
122.959548
 20
254.242660
 30
0.0
  0
SPLINE
  5
160
100
AcDbEntity
  8
Layer_1
 62
7
100
AcDbSpline
 70
8
 71
3
 72
8
 73
4
 74
0
 40
0
 40
0
 40
0
 40
0
 40
1
 40
1
 40
1
 40
1
 10
122.959548
 20
254.242660
 30
0.0
 10
122.584261
 20
253.867373
 30
0.0
 10
122.373426
 20
253.358374
 30
0.0
 10
122.373426
 20
252.827638
 30
0.0
  0
LWPOLYLINE
  5
161
100
AcDbEntity
  8
Layer_1
 62
7
100
AcDbPolyline
 90
1
 70
1
 10
122.373426
 20
268.827640
 30
0.0
  0
SPLINE
  5
162
100
AcDbEntity
  8
Layer_1
 62
7
100
AcDbSpline
 70
8
 71
3
 72
8
 73
4
 74
0
 40
0
 40
0
 40
0
 40
0
 40
1
 40
1
 40
1
 40
1
 10
122.373426
 20
236.827638
 30
0.0
 10
122.373426
 20
236.018251
 30
0.0
 10
122.860989
 20
235.288561
 30
0.0
 10
123.608766
 20
234.978822
 30
0.0
  0
SPLINE
  5
163
100
AcDbEntity
  8
Layer_1
 62
7
100
AcDbSpline
 70
8
 71
3
 72
8
 73
4
 74
0
 40
0
 40
0
 40
0
 40
0
 40
1
 40
1
 40
1
 40
1
 10
123.608766
 20
234.978822
 30
0.0
 10
124.356542
 20
234.669083
 30
0.0
 10
125.217269
 20
234.840293
 30
0.0
 10
125.789592
 20
235.412616
 30
0.0
  0
SPLINE
  5
164
100
AcDbEntity
  8
Layer_1
 62
7
100
AcDbSpline
 70
8
 71
3
 72
8
 73
4
 74
0
 40
0
 40
0
 40
0
 40
0
 40
1
 40
1
 40
1
 40
1
 10
125.789592
 20
235.412616
 30
0.0
 10
126.361915
 20
235.984939
 30
0.0
 10
126.533125
 20
236.845666
 30
0.0
 10
126.223386
 20
237.593442
 30
0.0
  0
SPLINE
  5
165
100
AcDbEntity
  8
Layer_1
 62
7
100
AcDbSpline
 70
8
 71
3
 72
8
 73
4
 74
0
 40
0
 40
0
 40
0
 40
0
 40
1
 40
1
 40
1
 40
1
 10
126.223386
 20
237.593442
 30
0.0
 10
125.913647
 20
238.341219
 30
0.0
 10
125.183957
 20
238.828781
 30
0.0
 10
124.374570
 20
238.828781
 30
0.0
  0
SPLINE
  5
166
100
AcDbEntity
  8
Layer_1
 62
7
100
AcDbSpline
 70
8
 71
3
 72
8
 73
4
 74
0
 40
0
 40
0
 40
0
 40
0
 40
1
 40
1
 40
1
 40
1
 10
124.374570
 20
238.828781
 30
0.0
 10
123.843834
 20
238.828781
 30
0.0
 10
123.334835
 20
238.617947
 30
0.0
 10
122.959548
 20
238.242660
 30
0.0
  0
SPLINE
  5
167
100
AcDbEntity
  8
Layer_1
 62
7
100
AcDbSpline
 70
8
 71
3
 72
8
 73
4
 74
0
 40
0
 40
0
 40
0
 40
0
 40
1
 40
1
 40
1
 40
1
 10
122.959548
 20
238.242660
 30
0.0
 10
122.584261
 20
237.867373
 30
0.0
 10
122.373426
 20
237.358374
 30
0.0
 10
122.373426
 20
236.827638
 30
0.0
  0
LWPOLYLINE
  5
168
100
AcDbEntity
  8
Layer_1
 62
7
100
AcDbPolyline
 90
1
 70
1
 10
122.373426
 20
252.827638
 30
0.0
  0
SPLINE
  5
169
100
AcDbEntity
  8
Layer_1
 62
7
100
AcDbSpline
 70
8
 71
3
 72
8
 73
4
 74
0
 40
0
 40
0
 40
0
 40
0
 40
1
 40
1
 40
1
 40
1
 10
122.373426
 20
220.827638
 30
0.0
 10
122.373426
 20
220.018251
 30
0.0
 10
122.860989
 20
219.288561
 30
0.0
 10
123.608766
 20
218.978822
 30
0.0
  0
SPLINE
  5
16a
100
AcDbEntity
  8
Layer_1
 62
7
100
AcDbSpline
 70
8
 71
3
 72
8
 73
4
 74
0
 40
0
 40
0
 40
0
 40
0
 40
1
 40
1
 40
1
 40
1
 10
123.608766
 20
218.978822
 30
0.0
 10
124.356542
 20
218.669083
 30
0.0
 10
125.217269
 20
218.840293
 30
0.0
 10
125.789592
 20
219.412616
 30
0.0
  0
SPLINE
  5
16b
100
AcDbEntity
  8
Layer_1
 62
7
100
AcDbSpline
 70
8
 71
3
 72
8
 73
4
 74
0
 40
0
 40
0
 40
0
 40
0
 40
1
 40
1
 40
1
 40
1
 10
125.789592
 20
219.412616
 30
0.0
 10
126.361915
 20
219.984939
 30
0.0
 10
126.533125
 20
220.845666
 30
0.0
 10
126.223386
 20
221.593442
 30
0.0
  0
SPLINE
  5
16c
100
AcDbEntity
  8
Layer_1
 62
7
100
AcDbSpline
 70
8
 71
3
 72
8
 73
4
 74
0
 40
0
 40
0
 40
0
 40
0
 40
1
 40
1
 40
1
 40
1
 10
126.223386
 20
221.593442
 30
0.0
 10
125.913647
 20
222.341219
 30
0.0
 10
125.183957
 20
222.828781
 30
0.0
 10
124.374570
 20
222.828781
 30
0.0
  0
SPLINE
  5
16d
100
AcDbEntity
  8
Layer_1
 62
7
100
AcDbSpline
 70
8
 71
3
 72
8
 73
4
 74
0
 40
0
 40
0
 40
0
 40
0
 40
1
 40
1
 40
1
 40
1
 10
124.374570
 20
222.828781
 30
0.0
 10
123.843834
 20
222.828781
 30
0.0
 10
123.334835
 20
222.617947
 30
0.0
 10
122.959548
 20
222.242660
 30
0.0
  0
SPLINE
  5
16e
100
AcDbEntity
  8
Layer_1
 62
7
100
AcDbSpline
 70
8
 71
3
 72
8
 73
4
 74
0
 40
0
 40
0
 40
0
 40
0
 40
1
 40
1
 40
1
 40
1
 10
122.959548
 20
222.242660
 30
0.0
 10
122.584261
 20
221.867373
 30
0.0
 10
122.373426
 20
221.358374
 30
0.0
 10
122.373426
 20
220.827638
 30
0.0
  0
LWPOLYLINE
  5
16f
100
AcDbEntity
  8
Layer_1
 62
7
100
AcDbPolyline
 90
1
 70
1
 10
122.373426
 20
236.827638
 30
0.0
  0
SPLINE
  5
170
100
AcDbEntity
  8
Layer_1
 62
7
100
AcDbSpline
 70
8
 71
3
 72
8
 73
4
 74
0
 40
0
 40
0
 40
0
 40
0
 40
1
 40
1
 40
1
 40
1
 10
350.402407
 20
268.827570
 30
0.0
 10
350.402407
 20
268.018183
 30
0.0
 10
350.889969
 20
267.288493
 30
0.0
 10
351.637746
 20
266.978754
 30
0.0
  0
SPLINE
  5
171
100
AcDbEntity
  8
Layer_1
 62
7
100
AcDbSpline
 70
8
 71
3
 72
8
 73
4
 74
0
 40
0
 40
0
 40
0
 40
0
 40
1
 40
1
 40
1
 40
1
 10
351.637746
 20
266.978754
 30
0.0
 10
352.385522
 20
266.669015
 30
0.0
 10
353.246249
 20
266.840225
 30
0.0
 10
353.818572
 20
267.412548
 30
0.0
  0
SPLINE
  5
172
100
AcDbEntity
  8
Layer_1
 62
7
100
AcDbSpline
 70
8
 71
3
 72
8
 73
4
 74
0
 40
0
 40
0
 40
0
 40
0
 40
1
 40
1
 40
1
 40
1
 10
353.818572
 20
267.412548
 30
0.0
 10
354.390895
 20
267.984871
 30
0.0
 10
354.562105
 20
268.845598
 30
0.0
 10
354.252366
 20
269.593374
 30
0.0
  0
SPLINE
  5
173
100
AcDbEntity
  8
Layer_1
 62
7
100
AcDbSpline
 70
8
 71
3
 72
8
 73
4
 74
0
 40
0
 40
0
 40
0
 40
0
 40
1
 40
1
 40
1
 40
1
 10
354.252366
 20
269.593374
 30
0.0
 10
353.942627
 20
270.341151
 30
0.0
 10
353.212937
 20
270.828714
 30
0.0
 10
352.403550
 20
270.828714
 30
0.0
  0
SPLINE
  5
174
100
AcDbEntity
  8
Layer_1
 62
7
100
AcDbSpline
 70
8
 71
3
 72
8
 73
4
 74
0
 40
0
 40
0
 40
0
 40
0
 40
1
 40
1
 40
1
 40
1
 10
352.403550
 20
270.828714
 30
0.0
 10
351.872814
 20
270.828714
 30
0.0
 10
351.363815
 20
270.617879
 30
0.0
 10
350.988528
 20
270.242592
 30
0.0
  0
SPLINE
  5
175
100
AcDbEntity
  8
Layer_1
 62
7
100
AcDbSpline
 70
8
 71
3
 72
8
 73
4
 74
0
 40
0
 40
0
 40
0
 40
0
 40
1
 40
1
 40
1
 40
1
 10
350.988528
 20
270.242592
 30
0.0
 10
350.613241
 20
269.867305
 30
0.0
 10
350.402406
 20
269.358306
 30
0.0
 10
350.402406
 20
268.827570
 30
0.0
  0
LWPOLYLINE
  5
176
100
AcDbEntity
  8
Layer_1
 62
7
100
AcDbPolyline
 90
1
 70
1
 10
122.373426
 20
220.827638
 30
0.0
  0
SPLINE
  5
177
100
AcDbEntity
  8
Layer_1
 62
7
100
AcDbSpline
 70
8
 71
3
 72
8
 73
4
 74
0
 40
0
 40
0
 40
0
 40
0
 40
1
 40
1
 40
1
 40
1
 10
350.402407
 20
252.827570
 30
0.0
 10
350.402407
 20
252.018183
 30
0.0
 10
350.889969
 20
251.288493
 30
0.0
 10
351.637746
 20
250.978754
 30
0.0
  0
SPLINE
  5
178
100
AcDbEntity
  8
Layer_1
 62
7
100
AcDbSpline
 70
8
 71
3
 72
8
 73
4
 74
0
 40
0
 40
0
 40
0
 40
0
 40
1
 40
1
 40
1
 40
1
 10
351.637746
 20
250.978754
 30
0.0
 10
352.385522
 20
250.669015
 30
0.0
 10
353.246249
 20
250.840225
 30
0.0
 10
353.818572
 20
251.412548
 30
0.0
  0
SPLINE
  5
179
100
AcDbEntity
  8
Layer_1
 62
7
100
AcDbSpline
 70
8
 71
3
 72
8
 73
4
 74
0
 40
0
 40
0
 40
0
 40
0
 40
1
 40
1
 40
1
 40
1
 10
353.818572
 20
251.412548
 30
0.0
 10
354.390895
 20
251.984871
 30
0.0
 10
354.562105
 20
252.845598
 30
0.0
 10
354.252366
 20
253.593374
 30
0.0
  0
SPLINE
  5
17a
100
AcDbEntity
  8
Layer_1
 62
7
100
AcDbSpline
 70
8
 71
3
 72
8
 73
4
 74
0
 40
0
 40
0
 40
0
 40
0
 40
1
 40
1
 40
1
 40
1
 10
354.252366
 20
253.593374
 30
0.0
 10
353.942627
 20
254.341151
 30
0.0
 10
353.212937
 20
254.828714
 30
0.0
 10
352.403550
 20
254.828714
 30
0.0
  0
SPLINE
  5
17b
100
AcDbEntity
  8
Layer_1
 62
7
100
AcDbSpline
 70
8
 71
3
 72
8
 73
4
 74
0
 40
0
 40
0
 40
0
 40
0
 40
1
 40
1
 40
1
 40
1
 10
352.403550
 20
254.828714
 30
0.0
 10
351.872814
 20
254.828714
 30
0.0
 10
351.363815
 20
254.617879
 30
0.0
 10
350.988528
 20
254.242592
 30
0.0
  0
SPLINE
  5
17c
100
AcDbEntity
  8
Layer_1
 62
7
100
AcDbSpline
 70
8
 71
3
 72
8
 73
4
 74
0
 40
0
 40
0
 40
0
 40
0
 40
1
 40
1
 40
1
 40
1
 10
350.988528
 20
254.242592
 30
0.0
 10
350.613241
 20
253.867305
 30
0.0
 10
350.402406
 20
253.358306
 30
0.0
 10
350.402406
 20
252.827570
 30
0.0
  0
LWPOLYLINE
  5
17d
100
AcDbEntity
  8
Layer_1
 62
7
100
AcDbPolyline
 90
1
 70
1
 10
350.402406
 20
268.827570
 30
0.0
  0
SPLINE
  5
17e
100
AcDbEntity
  8
Layer_1
 62
7
100
AcDbSpline
 70
8
 71
3
 72
8
 73
4
 74
0
 40
0
 40
0
 40
0
 40
0
 40
1
 40
1
 40
1
 40
1
 10
350.402407
 20
236.827570
 30
0.0
 10
350.402407
 20
236.018183
 30
0.0
 10
350.889969
 20
235.288493
 30
0.0
 10
351.637746
 20
234.978754
 30
0.0
  0
SPLINE
  5
17f
100
AcDbEntity
  8
Layer_1
 62
7
100
AcDbSpline
 70
8
 71
3
 72
8
 73
4
 74
0
 40
0
 40
0
 40
0
 40
0
 40
1
 40
1
 40
1
 40
1
 10
351.637746
 20
234.978754
 30
0.0
 10
352.385522
 20
234.669015
 30
0.0
 10
353.246249
 20
234.840225
 30
0.0
 10
353.818572
 20
235.412548
 30
0.0
  0
SPLINE
  5
180
100
AcDbEntity
  8
Layer_1
 62
7
100
AcDbSpline
 70
8
 71
3
 72
8
 73
4
 74
0
 40
0
 40
0
 40
0
 40
0
 40
1
 40
1
 40
1
 40
1
 10
353.818572
 20
235.412548
 30
0.0
 10
354.390895
 20
235.984871
 30
0.0
 10
354.562105
 20
236.845598
 30
0.0
 10
354.252366
 20
237.593374
 30
0.0
  0
SPLINE
  5
181
100
AcDbEntity
  8
Layer_1
 62
7
100
AcDbSpline
 70
8
 71
3
 72
8
 73
4
 74
0
 40
0
 40
0
 40
0
 40
0
 40
1
 40
1
 40
1
 40
1
 10
354.252366
 20
237.593374
 30
0.0
 10
353.942627
 20
238.341151
 30
0.0
 10
353.212937
 20
238.828714
 30
0.0
 10
352.403550
 20
238.828714
 30
0.0
  0
SPLINE
  5
182
100
AcDbEntity
  8
Layer_1
 62
7
100
AcDbSpline
 70
8
 71
3
 72
8
 73
4
 74
0
 40
0
 40
0
 40
0
 40
0
 40
1
 40
1
 40
1
 40
1
 10
352.403550
 20
238.828714
 30
0.0
 10
351.872814
 20
238.828714
 30
0.0
 10
351.363815
 20
238.617879
 30
0.0
 10
350.988528
 20
238.242592
 30
0.0
  0
SPLINE
  5
183
100
AcDbEntity
  8
Layer_1
 62
7
100
AcDbSpline
 70
8
 71
3
 72
8
 73
4
 74
0
 40
0
 40
0
 40
0
 40
0
 40
1
 40
1
 40
1
 40
1
 10
350.988528
 20
238.242592
 30
0.0
 10
350.613241
 20
237.867305
 30
0.0
 10
350.402406
 20
237.358306
 30
0.0
 10
350.402406
 20
236.827570
 30
0.0
  0
LWPOLYLINE
  5
184
100
AcDbEntity
  8
Layer_1
 62
7
100
AcDbPolyline
 90
1
 70
1
 10
350.402406
 20
252.827570
 30
0.0
  0
SPLINE
  5
185
100
AcDbEntity
  8
Layer_1
 62
7
100
AcDbSpline
 70
8
 71
3
 72
8
 73
4
 74
0
 40
0
 40
0
 40
0
 40
0
 40
1
 40
1
 40
1
 40
1
 10
350.402407
 20
220.827570
 30
0.0
 10
350.402407
 20
220.018183
 30
0.0
 10
350.889969
 20
219.288493
 30
0.0
 10
351.637746
 20
218.978754
 30
0.0
  0
SPLINE
  5
186
100
AcDbEntity
  8
Layer_1
 62
7
100
AcDbSpline
 70
8
 71
3
 72
8
 73
4
 74
0
 40
0
 40
0
 40
0
 40
0
 40
1
 40
1
 40
1
 40
1
 10
351.637746
 20
218.978754
 30
0.0
 10
352.385522
 20
218.669015
 30
0.0
 10
353.246249
 20
218.840225
 30
0.0
 10
353.818572
 20
219.412548
 30
0.0
  0
SPLINE
  5
187
100
AcDbEntity
  8
Layer_1
 62
7
100
AcDbSpline
 70
8
 71
3
 72
8
 73
4
 74
0
 40
0
 40
0
 40
0
 40
0
 40
1
 40
1
 40
1
 40
1
 10
353.818572
 20
219.412548
 30
0.0
 10
354.390895
 20
219.984871
 30
0.0
 10
354.562105
 20
220.845598
 30
0.0
 10
354.252366
 20
221.593374
 30
0.0
  0
SPLINE
  5
188
100
AcDbEntity
  8
Layer_1
 62
7
100
AcDbSpline
 70
8
 71
3
 72
8
 73
4
 74
0
 40
0
 40
0
 40
0
 40
0
 40
1
 40
1
 40
1
 40
1
 10
354.252366
 20
221.593374
 30
0.0
 10
353.942627
 20
222.341151
 30
0.0
 10
353.212937
 20
222.828714
 30
0.0
 10
352.403550
 20
222.828714
 30
0.0
  0
SPLINE
  5
189
100
AcDbEntity
  8
Layer_1
 62
7
100
AcDbSpline
 70
8
 71
3
 72
8
 73
4
 74
0
 40
0
 40
0
 40
0
 40
0
 40
1
 40
1
 40
1
 40
1
 10
352.403550
 20
222.828714
 30
0.0
 10
351.872814
 20
222.828714
 30
0.0
 10
351.363815
 20
222.617879
 30
0.0
 10
350.988528
 20
222.242592
 30
0.0
  0
SPLINE
  5
18a
100
AcDbEntity
  8
Layer_1
 62
7
100
AcDbSpline
 70
8
 71
3
 72
8
 73
4
 74
0
 40
0
 40
0
 40
0
 40
0
 40
1
 40
1
 40
1
 40
1
 10
350.988528
 20
222.242592
 30
0.0
 10
350.613241
 20
221.867305
 30
0.0
 10
350.402406
 20
221.358306
 30
0.0
 10
350.402406
 20
220.827570
 30
0.0
  0
LWPOLYLINE
  5
18b
100
AcDbEntity
  8
Layer_1
 62
7
100
AcDbPolyline
 90
1
 70
1
 10
350.402406
 20
236.827570
 30
0.0
  0
SPLINE
  5
18c
100
AcDbEntity
  8
Layer_1
 62
7
100
AcDbSpline
 70
8
 71
3
 72
8
 73
4
 74
0
 40
0
 40
0
 40
0
 40
0
 40
1
 40
1
 40
1
 40
1
 10
349.799800
 20
287.509656
 30
0.0
 10
349.188166
 20
287.509656
 30
0.0
 10
348.636757
 20
287.141217
 30
0.0
 10
348.402694
 20
286.576140
 30
0.0
  0
SPLINE
  5
18d
100
AcDbEntity
  8
Layer_1
 62
7
100
AcDbSpline
 70
8
 71
3
 72
8
 73
4
 74
0
 40
0
 40
0
 40
0
 40
0
 40
1
 40
1
 40
1
 40
1
 10
348.402694
 20
286.576140
 30
0.0
 10
348.168632
 20
286.011064
 30
0.0
 10
348.298011
 20
285.360632
 30
0.0
 10
348.730502
 20
284.928142
 30
0.0
  0
SPLINE
  5
18e
100
AcDbEntity
  8
Layer_1
 62
7
100
AcDbSpline
 70
8
 71
3
 72
8
 73
4
 74
0
 40
0
 40
0
 40
0
 40
0
 40
1
 40
1
 40
1
 40
1
 10
348.730502
 20
284.928142
 30
0.0
 10
349.162992
 20
284.495651
 30
0.0
 10
349.813424
 20
284.366272
 30
0.0
 10
350.378500
 20
284.600334
 30
0.0
  0
SPLINE
  5
18f
100
AcDbEntity
  8
Layer_1
 62
7
100
AcDbSpline
 70
8
 71
3
 72
8
 73
4
 74
0
 40
0
 40
0
 40
0
 40
0
 40
1
 40
1
 40
1
 40
1
 10
350.378500
 20
284.600334
 30
0.0
 10
350.943577
 20
284.834397
 30
0.0
 10
351.312016
 20
285.385806
 30
0.0
 10
351.312016
 20
285.997440
 30
0.0
  0
SPLINE
  5
190
100
AcDbEntity
  8
Layer_1
 62
7
100
AcDbSpline
 70
8
 71
3
 72
8
 73
4
 74
0
 40
0
 40
0
 40
0
 40
0
 40
1
 40
1
 40
1
 40
1
 10
351.312016
 20
285.997440
 30
0.0
 10
351.312016
 20
286.398505
 30
0.0
 10
351.152694
 20
286.783143
 30
0.0
 10
350.869098
 20
287.066738
 30
0.0
  0
SPLINE
  5
191
100
AcDbEntity
  8
Layer_1
 62
7
100
AcDbSpline
 70
8
 71
3
 72
8
 73
4
 74
0
 40
0
 40
0
 40
0
 40
0
 40
1
 40
1
 40
1
 40
1
 10
350.869098
 20
287.066738
 30
0.0
 10
350.585503
 20
287.350334
 30
0.0
 10
350.200865
 20
287.509656
 30
0.0
 10
349.799800
 20
287.509656
 30
0.0
  0
LWPOLYLINE
  5
192
100
AcDbEntity
  8
Layer_1
 62
7
100
AcDbPolyline
 90
1
 70
1
 10
350.402406
 20
220.827570
 30
0.0
  0
SPLINE
  5
193
100
AcDbEntity
  8
Layer_1
 62
7
100
AcDbSpline
 70
8
 71
3
 72
8
 73
4
 74
0
 40
0
 40
0
 40
0
 40
0
 40
1
 40
1
 40
1
 40
1
 10
349.799800
 20
348.469491
 30
0.0
 10
349.188166
 20
348.469491
 30
0.0
 10
348.636757
 20
348.101052
 30
0.0
 10
348.402694
 20
347.535975
 30
0.0
  0
SPLINE
  5
194
100
AcDbEntity
  8
Layer_1
 62
7
100
AcDbSpline
 70
8
 71
3
 72
8
 73
4
 74
0
 40
0
 40
0
 40
0
 40
0
 40
1
 40
1
 40
1
 40
1
 10
348.402694
 20
347.535975
 30
0.0
 10
348.168632
 20
346.970899
 30
0.0
 10
348.298011
 20
346.320467
 30
0.0
 10
348.730502
 20
345.887977
 30
0.0
  0
SPLINE
  5
195
100
AcDbEntity
  8
Layer_1
 62
7
100
AcDbSpline
 70
8
 71
3
 72
8
 73
4
 74
0
 40
0
 40
0
 40
0
 40
0
 40
1
 40
1
 40
1
 40
1
 10
348.730502
 20
345.887977
 30
0.0
 10
349.162992
 20
345.455486
 30
0.0
 10
349.813424
 20
345.326107
 30
0.0
 10
350.378500
 20
345.560169
 30
0.0
  0
SPLINE
  5
196
100
AcDbEntity
  8
Layer_1
 62
7
100
AcDbSpline
 70
8
 71
3
 72
8
 73
4
 74
0
 40
0
 40
0
 40
0
 40
0
 40
1
 40
1
 40
1
 40
1
 10
350.378500
 20
345.560169
 30
0.0
 10
350.943577
 20
345.794232
 30
0.0
 10
351.312016
 20
346.345641
 30
0.0
 10
351.312016
 20
346.957275
 30
0.0
  0
SPLINE
  5
197
100
AcDbEntity
  8
Layer_1
 62
7
100
AcDbSpline
 70
8
 71
3
 72
8
 73
4
 74
0
 40
0
 40
0
 40
0
 40
0
 40
1
 40
1
 40
1
 40
1
 10
351.312016
 20
346.957275
 30
0.0
 10
351.312016
 20
347.358340
 30
0.0
 10
351.152694
 20
347.742978
 30
0.0
 10
350.869098
 20
348.026573
 30
0.0
  0
SPLINE
  5
198
100
AcDbEntity
  8
Layer_1
 62
7
100
AcDbSpline
 70
8
 71
3
 72
8
 73
4
 74
0
 40
0
 40
0
 40
0
 40
0
 40
1
 40
1
 40
1
 40
1
 10
350.869098
 20
348.026573
 30
0.0
 10
350.585503
 20
348.310169
 30
0.0
 10
350.200865
 20
348.469491
 30
0.0
 10
349.799800
 20
348.469491
 30
0.0
  0
LWPOLYLINE
  5
199
100
AcDbEntity
  8
Layer_1
 62
7
100
AcDbPolyline
 90
1
 70
1
 10
349.799800
 20
287.509656
 30
0.0
  0
SPLINE
  5
19a
100
AcDbEntity
  8
Layer_1
 62
7
100
AcDbSpline
 70
8
 71
3
 72
8
 73
4
 74
0
 40
0
 40
0
 40
0
 40
0
 40
1
 40
1
 40
1
 40
1
 10
349.800140
 20
339.484352
 30
0.0
 10
348.990753
 20
339.484352
 30
0.0
 10
348.261063
 20
338.996789
 30
0.0
 10
347.951324
 20
338.249012
 30
0.0
  0
SPLINE
  5
19b
100
AcDbEntity
  8
Layer_1
 62
7
100
AcDbSpline
 70
8
 71
3
 72
8
 73
4
 74
0
 40
0
 40
0
 40
0
 40
0
 40
1
 40
1
 40
1
 40
1
 10
347.951324
 20
338.249012
 30
0.0
 10
347.641585
 20
337.501236
 30
0.0
 10
347.812795
 20
336.640509
 30
0.0
 10
348.385118
 20
336.068186
 30
0.0
  0
SPLINE
  5
19c
100
AcDbEntity
  8
Layer_1
 62
7
100
AcDbSpline
 70
8
 71
3
 72
8
 73
4
 74
0
 40
0
 40
0
 40
0
 40
0
 40
1
 40
1
 40
1
 40
1
 10
348.385118
 20
336.068186
 30
0.0
 10
348.957441
 20
335.495863
 30
0.0
 10
349.818168
 20
335.324653
 30
0.0
 10
350.565944
 20
335.634392
 30
0.0
  0
SPLINE
  5
19d
100
AcDbEntity
  8
Layer_1
 62
7
100
AcDbSpline
 70
8
 71
3
 72
8
 73
4
 74
0
 40
0
 40
0
 40
0
 40
0
 40
1
 40
1
 40
1
 40
1
 10
350.565944
 20
335.634392
 30
0.0
 10
351.313721
 20
335.944131
 30
0.0
 10
351.801284
 20
336.673821
 30
0.0
 10
351.801284
 20
337.483208
 30
0.0
  0
SPLINE
  5
19e
100
AcDbEntity
  8
Layer_1
 62
7
100
AcDbSpline
 70
8
 71
3
 72
8
 73
4
 74
0
 40
0
 40
0
 40
0
 40
0
 40
1
 40
1
 40
1
 40
1
 10
351.801284
 20
337.483208
 30
0.0
 10
351.801284
 20
338.013944
 30
0.0
 10
351.590449
 20
338.522943
 30
0.0
 10
351.215162
 20
338.898230
 30
0.0
  0
SPLINE
  5
19f
100
AcDbEntity
  8
Layer_1
 62
7
100
AcDbSpline
 70
8
 71
3
 72
8
 73
4
 74
0
 40
0
 40
0
 40
0
 40
0
 40
1
 40
1
 40
1
 40
1
 10
351.215162
 20
338.898230
 30
0.0
 10
350.839875
 20
339.273517
 30
0.0
 10
350.330876
 20
339.484352
 30
0.0
 10
349.800140
 20
339.484352
 30
0.0
  0
LWPOLYLINE
  5
1a0
100
AcDbEntity
  8
Layer_1
 62
7
100
AcDbPolyline
 90
1
 70
1
 10
349.799800
 20
348.469491
 30
0.0
  0
SPLINE
  5
1a1
100
AcDbEntity
  8
Layer_1
 62
7
100
AcDbSpline
 70
8
 71
3
 72
8
 73
4
 74
0
 40
0
 40
0
 40
0
 40
0
 40
1
 40
1
 40
1
 40
1
 10
349.800140
 20
297.472824
 30
0.0
 10
348.990753
 20
297.472824
 30
0.0
 10
348.261063
 20
296.985261
 30
0.0
 10
347.951324
 20
296.237484
 30
0.0
  0
SPLINE
  5
1a2
100
AcDbEntity
  8
Layer_1
 62
7
100
AcDbSpline
 70
8
 71
3
 72
8
 73
4
 74
0
 40
0
 40
0
 40
0
 40
0
 40
1
 40
1
 40
1
 40
1
 10
347.951324
 20
296.237484
 30
0.0
 10
347.641585
 20
295.489708
 30
0.0
 10
347.812795
 20
294.628981
 30
0.0
 10
348.385118
 20
294.056658
 30
0.0
  0
SPLINE
  5
1a3
100
AcDbEntity
  8
Layer_1
 62
7
100
AcDbSpline
 70
8
 71
3
 72
8
 73
4
 74
0
 40
0
 40
0
 40
0
 40
0
 40
1
 40
1
 40
1
 40
1
 10
348.385118
 20
294.056658
 30
0.0
 10
348.957441
 20
293.484335
 30
0.0
 10
349.818168
 20
293.313125
 30
0.0
 10
350.565944
 20
293.622864
 30
0.0
  0
SPLINE
  5
1a4
100
AcDbEntity
  8
Layer_1
 62
7
100
AcDbSpline
 70
8
 71
3
 72
8
 73
4
 74
0
 40
0
 40
0
 40
0
 40
0
 40
1
 40
1
 40
1
 40
1
 10
350.565944
 20
293.622864
 30
0.0
 10
351.313721
 20
293.932603
 30
0.0
 10
351.801284
 20
294.662293
 30
0.0
 10
351.801284
 20
295.471680
 30
0.0
  0
SPLINE
  5
1a5
100
AcDbEntity
  8
Layer_1
 62
7
100
AcDbSpline
 70
8
 71
3
 72
8
 73
4
 74
0
 40
0
 40
0
 40
0
 40
0
 40
1
 40
1
 40
1
 40
1
 10
351.801284
 20
295.471680
 30
0.0
 10
351.801284
 20
296.002416
 30
0.0
 10
351.590449
 20
296.511415
 30
0.0
 10
351.215162
 20
296.886702
 30
0.0
  0
SPLINE
  5
1a6
100
AcDbEntity
  8
Layer_1
 62
7
100
AcDbSpline
 70
8
 71
3
 72
8
 73
4
 74
0
 40
0
 40
0
 40
0
 40
0
 40
1
 40
1
 40
1
 40
1
 10
351.215162
 20
296.886702
 30
0.0
 10
350.839875
 20
297.261989
 30
0.0
 10
350.330876
 20
297.472824
 30
0.0
 10
349.800140
 20
297.472824
 30
0.0
  0
LWPOLYLINE
  5
1a7
100
AcDbEntity
  8
Layer_1
 62
7
100
AcDbPolyline
 90
1
 70
1
 10
349.800140
 20
339.484352
 30
0.0
  0
SPLINE
  5
1a8
100
AcDbEntity
  8
Layer_1
 62
7
100
AcDbSpline
 70
8
 71
3
 72
8
 73
4
 74
0
 40
0
 40
0
 40
0
 40
0
 40
1
 40
1
 40
1
 40
1
 10
123.486070
 20
297.472833
 30
0.0
 10
122.676683
 20
297.472833
 30
0.0
 10
121.946993
 20
296.985271
 30
0.0
 10
121.637254
 20
296.237494
 30
0.0
  0
SPLINE
  5
1a9
100
AcDbEntity
  8
Layer_1
 62
7
100
AcDbSpline
 70
8
 71
3
 72
8
 73
4
 74
0
 40
0
 40
0
 40
0
 40
0
 40
1
 40
1
 40
1
 40
1
 10
121.637254
 20
296.237494
 30
0.0
 10
121.327515
 20
295.489718
 30
0.0
 10
121.498725
 20
294.628991
 30
0.0
 10
122.071048
 20
294.056668
 30
0.0
  0
SPLINE
  5
1aa
100
AcDbEntity
  8
Layer_1
 62
7
100
AcDbSpline
 70
8
 71
3
 72
8
 73
4
 74
0
 40
0
 40
0
 40
0
 40
0
 40
1
 40
1
 40
1
 40
1
 10
122.071048
 20
294.056668
 30
0.0
 10
122.643371
 20
293.484345
 30
0.0
 10
123.504098
 20
293.313135
 30
0.0
 10
124.251874
 20
293.622874
 30
0.0
  0
SPLINE
  5
1ab
100
AcDbEntity
  8
Layer_1
 62
7
100
AcDbSpline
 70
8
 71
3
 72
8
 73
4
 74
0
 40
0
 40
0
 40
0
 40
0
 40
1
 40
1
 40
1
 40
1
 10
124.251874
 20
293.622874
 30
0.0
 10
124.999651
 20
293.932613
 30
0.0
 10
125.487214
 20
294.662303
 30
0.0
 10
125.487214
 20
295.471690
 30
0.0
  0
SPLINE
  5
1ac
100
AcDbEntity
  8
Layer_1
 62
7
100
AcDbSpline
 70
8
 71
3
 72
8
 73
4
 74
0
 40
0
 40
0
 40
0
 40
0
 40
1
 40
1
 40
1
 40
1
 10
125.487214
 20
295.471690
 30
0.0
 10
125.487214
 20
296.002426
 30
0.0
 10
125.276379
 20
296.511425
 30
0.0
 10
124.901092
 20
296.886712
 30
0.0
  0
SPLINE
  5
1ad
100
AcDbEntity
  8
Layer_1
 62
7
100
AcDbSpline
 70
8
 71
3
 72
8
 73
4
 74
0
 40
0
 40
0
 40
0
 40
0
 40
1
 40
1
 40
1
 40
1
 10
124.901092
 20
296.886712
 30
0.0
 10
124.525805
 20
297.261999
 30
0.0
 10
124.016806
 20
297.472833
 30
0.0
 10
123.486070
 20
297.472833
 30
0.0
  0
LWPOLYLINE
  5
1ae
100
AcDbEntity
  8
Layer_1
 62
7
100
AcDbPolyline
 90
1
 70
1
 10
349.800140
 20
297.472824
 30
0.0
  0
SPLINE
  5
1af
100
AcDbEntity
  8
Layer_1
 62
7
100
AcDbSpline
 70
8
 71
3
 72
8
 73
4
 74
0
 40
0
 40
0
 40
0
 40
0
 40
1
 40
1
 40
1
 40
1
 10
123.486070
 20
339.484352
 30
0.0
 10
122.676683
 20
339.484352
 30
0.0
 10
121.946993
 20
338.996789
 30
0.0
 10
121.637254
 20
338.249012
 30
0.0
  0
SPLINE
  5
1b0
100
AcDbEntity
  8
Layer_1
 62
7
100
AcDbSpline
 70
8
 71
3
 72
8
 73
4
 74
0
 40
0
 40
0
 40
0
 40
0
 40
1
 40
1
 40
1
 40
1
 10
121.637254
 20
338.249012
 30
0.0
 10
121.327515
 20
337.501236
 30
0.0
 10
121.498725
 20
336.640509
 30
0.0
 10
122.071048
 20
336.068186
 30
0.0
  0
SPLINE
  5
1b1
100
AcDbEntity
  8
Layer_1
 62
7
100
AcDbSpline
 70
8
 71
3
 72
8
 73
4
 74
0
 40
0
 40
0
 40
0
 40
0
 40
1
 40
1
 40
1
 40
1
 10
122.071048
 20
336.068186
 30
0.0
 10
122.643371
 20
335.495863
 30
0.0
 10
123.504098
 20
335.324653
 30
0.0
 10
124.251874
 20
335.634392
 30
0.0
  0
SPLINE
  5
1b2
100
AcDbEntity
  8
Layer_1
 62
7
100
AcDbSpline
 70
8
 71
3
 72
8
 73
4
 74
0
 40
0
 40
0
 40
0
 40
0
 40
1
 40
1
 40
1
 40
1
 10
124.251874
 20
335.634392
 30
0.0
 10
124.999651
 20
335.944131
 30
0.0
 10
125.487214
 20
336.673821
 30
0.0
 10
125.487214
 20
337.483208
 30
0.0
  0
SPLINE
  5
1b3
100
AcDbEntity
  8
Layer_1
 62
7
100
AcDbSpline
 70
8
 71
3
 72
8
 73
4
 74
0
 40
0
 40
0
 40
0
 40
0
 40
1
 40
1
 40
1
 40
1
 10
125.487214
 20
337.483208
 30
0.0
 10
125.487214
 20
338.013944
 30
0.0
 10
125.276379
 20
338.522943
 30
0.0
 10
124.901092
 20
338.898230
 30
0.0
  0
SPLINE
  5
1b4
100
AcDbEntity
  8
Layer_1
 62
7
100
AcDbSpline
 70
8
 71
3
 72
8
 73
4
 74
0
 40
0
 40
0
 40
0
 40
0
 40
1
 40
1
 40
1
 40
1
 10
124.901092
 20
338.898230
 30
0.0
 10
124.525805
 20
339.273517
 30
0.0
 10
124.016806
 20
339.484352
 30
0.0
 10
123.486070
 20
339.484352
 30
0.0
  0
LWPOLYLINE
  5
1b5
100
AcDbEntity
  8
Layer_1
 62
7
100
AcDbPolyline
 90
1
 70
1
 10
123.486070
 20
297.472833
 30
0.0
  0
SPLINE
  5
1b6
100
AcDbEntity
  8
Layer_1
 62
7
100
AcDbSpline
 70
8
 71
3
 72
8
 73
4
 74
0
 40
0
 40
0
 40
0
 40
0
 40
1
 40
1
 40
1
 40
1
 10
123.486020
 20
348.469491
 30
0.0
 10
122.874386
 20
348.469491
 30
0.0
 10
122.322977
 20
348.101052
 30
0.0
 10
122.088914
 20
347.535975
 30
0.0
  0
SPLINE
  5
1b7
100
AcDbEntity
  8
Layer_1
 62
7
100
AcDbSpline
 70
8
 71
3
 72
8
 73
4
 74
0
 40
0
 40
0
 40
0
 40
0
 40
1
 40
1
 40
1
 40
1
 10
122.088914
 20
347.535975
 30
0.0
 10
121.854852
 20
346.970899
 30
0.0
 10
121.984231
 20
346.320467
 30
0.0
 10
122.416722
 20
345.887977
 30
0.0
  0
SPLINE
  5
1b8
100
AcDbEntity
  8
Layer_1
 62
7
100
AcDbSpline
 70
8
 71
3
 72
8
 73
4
 74
0
 40
0
 40
0
 40
0
 40
0
 40
1
 40
1
 40
1
 40
1
 10
122.416722
 20
345.887977
 30
0.0
 10
122.849212
 20
345.455486
 30
0.0
 10
123.499644
 20
345.326107
 30
0.0
 10
124.064720
 20
345.560169
 30
0.0
  0
SPLINE
  5
1b9
100
AcDbEntity
  8
Layer_1
 62
7
100
AcDbSpline
 70
8
 71
3
 72
8
 73
4
 74
0
 40
0
 40
0
 40
0
 40
0
 40
1
 40
1
 40
1
 40
1
 10
124.064720
 20
345.560169
 30
0.0
 10
124.629797
 20
345.794232
 30
0.0
 10
124.998236
 20
346.345641
 30
0.0
 10
124.998236
 20
346.957275
 30
0.0
  0
SPLINE
  5
1ba
100
AcDbEntity
  8
Layer_1
 62
7
100
AcDbSpline
 70
8
 71
3
 72
8
 73
4
 74
0
 40
0
 40
0
 40
0
 40
0
 40
1
 40
1
 40
1
 40
1
 10
124.998236
 20
346.957275
 30
0.0
 10
124.998236
 20
347.358340
 30
0.0
 10
124.838914
 20
347.742978
 30
0.0
 10
124.555318
 20
348.026573
 30
0.0
  0
SPLINE
  5
1bb
100
AcDbEntity
  8
Layer_1
 62
7
100
AcDbSpline
 70
8
 71
3
 72
8
 73
4
 74
0
 40
0
 40
0
 40
0
 40
0
 40
1
 40
1
 40
1
 40
1
 10
124.555318
 20
348.026573
 30
0.0
 10
124.271723
 20
348.310169
 30
0.0
 10
123.887085
 20
348.469491
 30
0.0
 10
123.486020
 20
348.469491
 30
0.0
  0
LWPOLYLINE
  5
1bc
100
AcDbEntity
  8
Layer_1
 62
7
100
AcDbPolyline
 90
1
 70
1
 10
123.486070
 20
339.484352
 30
0.0
  0
SPLINE
  5
1bd
100
AcDbEntity
  8
Layer_1
 62
7
100
AcDbSpline
 70
8
 71
3
 72
8
 73
4
 74
0
 40
0
 40
0
 40
0
 40
0
 40
1
 40
1
 40
1
 40
1
 10
123.486020
 20
287.509656
 30
0.0
 10
122.874386
 20
287.509656
 30
0.0
 10
122.322977
 20
287.141217
 30
0.0
 10
122.088914
 20
286.576140
 30
0.0
  0
SPLINE
  5
1be
100
AcDbEntity
  8
Layer_1
 62
7
100
AcDbSpline
 70
8
 71
3
 72
8
 73
4
 74
0
 40
0
 40
0
 40
0
 40
0
 40
1
 40
1
 40
1
 40
1
 10
122.088914
 20
286.576140
 30
0.0
 10
121.854852
 20
286.011064
 30
0.0
 10
121.984231
 20
285.360632
 30
0.0
 10
122.416722
 20
284.928142
 30
0.0
  0
SPLINE
  5
1bf
100
AcDbEntity
  8
Layer_1
 62
7
100
AcDbSpline
 70
8
 71
3
 72
8
 73
4
 74
0
 40
0
 40
0
 40
0
 40
0
 40
1
 40
1
 40
1
 40
1
 10
122.416722
 20
284.928142
 30
0.0
 10
122.849212
 20
284.495651
 30
0.0
 10
123.499644
 20
284.366272
 30
0.0
 10
124.064720
 20
284.600334
 30
0.0
  0
SPLINE
  5
1c0
100
AcDbEntity
  8
Layer_1
 62
7
100
AcDbSpline
 70
8
 71
3
 72
8
 73
4
 74
0
 40
0
 40
0
 40
0
 40
0
 40
1
 40
1
 40
1
 40
1
 10
124.064720
 20
284.600334
 30
0.0
 10
124.629797
 20
284.834397
 30
0.0
 10
124.998236
 20
285.385806
 30
0.0
 10
124.998236
 20
285.997440
 30
0.0
  0
SPLINE
  5
1c1
100
AcDbEntity
  8
Layer_1
 62
7
100
AcDbSpline
 70
8
 71
3
 72
8
 73
4
 74
0
 40
0
 40
0
 40
0
 40
0
 40
1
 40
1
 40
1
 40
1
 10
124.998236
 20
285.997440
 30
0.0
 10
124.998236
 20
286.398505
 30
0.0
 10
124.838914
 20
286.783143
 30
0.0
 10
124.555318
 20
287.066738
 30
0.0
  0
SPLINE
  5
1c2
100
AcDbEntity
  8
Layer_1
 62
7
100
AcDbSpline
 70
8
 71
3
 72
8
 73
4
 74
0
 40
0
 40
0
 40
0
 40
0
 40
1
 40
1
 40
1
 40
1
 10
124.555318
 20
287.066738
 30
0.0
 10
124.271723
 20
287.350334
 30
0.0
 10
123.887085
 20
287.509656
 30
0.0
 10
123.486020
 20
287.509656
 30
0.0
  0
LWPOLYLINE
  5
1c3
100
AcDbEntity
  8
Layer_1
 62
7
100
AcDbPolyline
 90
1
 70
1
 10
123.486020
 20
348.469491
 30
0.0
  0
SPLINE
  5
1c4
100
AcDbEntity
  8
Layer_1
 62
7
100
AcDbSpline
 70
8
 71
3
 72
8
 73
4
 74
0
 40
0
 40
0
 40
0
 40
0
 40
1
 40
1
 40
1
 40
1
 10
257.979060
 20
308.102578
 30
0.0
 10
228.330239
 20
308.102578
 30
0.0
 10
201.600832
 20
290.242559
 30
0.0
 10
190.254719
 20
262.850620
 30
0.0
  0
SPLINE
  5
1c5
100
AcDbEntity
  8
Layer_1
 62
7
100
AcDbSpline
 70
8
 71
3
 72
8
 73
4
 74
0
 40
0
 40
0
 40
0
 40
0
 40
1
 40
1
 40
1
 40
1
 10
190.254719
 20
262.850620
 30
0.0
 10
178.908607
 20
235.458682
 30
0.0
 10
185.180211
 20
203.929196
 30
0.0
 10
206.145094
 20
182.964314
 30
0.0
  0
SPLINE
  5
1c6
100
AcDbEntity
  8
Layer_1
 62
7
100
AcDbSpline
 70
8
 71
3
 72
8
 73
4
 74
0
 40
0
 40
0
 40
0
 40
0
 40
1
 40
1
 40
1
 40
1
 10
206.145094
 20
182.964314
 30
0.0
 10
227.109976
 20
161.999431
 30
0.0
 10
258.639462
 20
155.727827
 30
0.0
 10
286.031400
 20
167.073939
 30
0.0
  0
SPLINE
  5
1c7
100
AcDbEntity
  8
Layer_1
 62
7
100
AcDbSpline
 70
8
 71
3
 72
8
 73
4
 74
0
 40
0
 40
0
 40
0
 40
0
 40
1
 40
1
 40
1
 40
1
 10
286.031400
 20
167.073939
 30
0.0
 10
313.423339
 20
178.420052
 30
0.0
 10
331.283358
 20
205.149459
 30
0.0
 10
331.283358
 20
234.798280
 30
0.0
  0
SPLINE
  5
1c8
100
AcDbEntity
  8
Layer_1
 62
7
100
AcDbSpline
 70
8
 71
3
 72
8
 73
4
 74
0
 40
0
 40
0
 40
0
 40
0
 40
1
 40
1
 40
1
 40
1
 10
331.283358
 20
234.798280
 30
0.0
 10
331.283358
 20
254.239789
 30
0.0
 10
323.560249
 20
272.885024
 30
0.0
 10
309.813026
 20
286.632246
 30
0.0
  0
SPLINE
  5
1c9
100
AcDbEntity
  8
Layer_1
 62
7
100
AcDbSpline
 70
8
 71
3
 72
8
 73
4
 74
0
 40
0
 40
0
 40
0
 40
0
 40
1
 40
1
 40
1
 40
1
 10
309.813026
 20
286.632246
 30
0.0
 10
296.065804
 20
300.379469
 30
0.0
 10
277.420569
 20
308.102578
 30
0.0
 10
257.979060
 20
308.102578
 30
0.0
  0
LWPOLYLINE
  5
1ca
100
AcDbEntity
  8
Layer_1
 62
7
100
AcDbPolyline
 90
1
 70
1
 10
123.486020
 20
287.509656
 30
0.0
  0
LWPOLYLINE
  5
1cb
100
AcDbEntity
  8
Layer_1
 62
7
100
AcDbPolyline
 90
1
 70
1
 10
257.979060
 20
308.102578
 30
0.0
  0
SPLINE
  5
1cc
100
AcDbEntity
  8
Layer_1
 62
7
100
AcDbSpline
 70
8
 71
3
 72
8
 73
4
 74
0
 40
0
 40
0
 40
0
 40
0
 40
1
 40
1
 40
1
 40
1
 10
170.479390
 20
345.578787
 30
0.0
 10
169.670003
 20
345.578787
 30
0.0
 10
168.940313
 20
345.091225
 30
0.0
 10
168.630574
 20
344.343448
 30
0.0
  0
SPLINE
  5
1cd
100
AcDbEntity
  8
Layer_1
 62
7
100
AcDbSpline
 70
8
 71
3
 72
8
 73
4
 74
0
 40
0
 40
0
 40
0
 40
0
 40
1
 40
1
 40
1
 40
1
 10
168.630574
 20
344.343448
 30
0.0
 10
168.320835
 20
343.595672
 30
0.0
 10
168.492045
 20
342.734945
 30
0.0
 10
169.064368
 20
342.162622
 30
0.0
  0
SPLINE
  5
1ce
100
AcDbEntity
  8
Layer_1
 62
7
100
AcDbSpline
 70
8
 71
3
 72
8
 73
4
 74
0
 40
0
 40
0
 40
0
 40
0
 40
1
 40
1
 40
1
 40
1
 10
169.064368
 20
342.162622
 30
0.0
 10
169.636691
 20
341.590299
 30
0.0
 10
170.497418
 20
341.419089
 30
0.0
 10
171.245194
 20
341.728828
 30
0.0
  0
SPLINE
  5
1cf
100
AcDbEntity
  8
Layer_1
 62
7
100
AcDbSpline
 70
8
 71
3
 72
8
 73
4
 74
0
 40
0
 40
0
 40
0
 40
0
 40
1
 40
1
 40
1
 40
1
 10
171.245194
 20
341.728828
 30
0.0
 10
171.992971
 20
342.038567
 30
0.0
 10
172.480534
 20
342.768257
 30
0.0
 10
172.480534
 20
343.577644
 30
0.0
  0
SPLINE
  5
1d0
100
AcDbEntity
  8
Layer_1
 62
7
100
AcDbSpline
 70
8
 71
3
 72
8
 73
4
 74
0
 40
0
 40
0
 40
0
 40
0
 40
1
 40
1
 40
1
 40
1
 10
172.480534
 20
343.577644
 30
0.0
 10
172.480534
 20
344.108380
 30
0.0
 10
172.269699
 20
344.617379
 30
0.0
 10
171.894412
 20
344.992666
 30
0.0
  0
SPLINE
  5
1d1
100
AcDbEntity
  8
Layer_1
 62
7
100
AcDbSpline
 70
8
 71
3
 72
8
 73
4
 74
0
 40
0
 40
0
 40
0
 40
0
 40
1
 40
1
 40
1
 40
1
 10
171.894412
 20
344.992666
 30
0.0
 10
171.519125
 20
345.367953
 30
0.0
 10
171.010126
 20
345.578787
 30
0.0
 10
170.479390
 20
345.578787
 30
0.0
  0
LWPOLYLINE
  5
1d2
100
AcDbEntity
  8
Layer_1
 62
7
100
AcDbPolyline
 90
4
 70
1
 10
173.837810
 20
349.519173
 30
0.0
 10
215.120571
 20
349.519173
 30
0.0
 10
215.120571
 20
327.736412
 30
0.0
 10
173.837810
 20
327.736412
 30
0.0
  0
SPLINE
  5
1d3
100
AcDbEntity
  8
Layer_1
 62
7
100
AcDbSpline
 70
8
 71
3
 72
8
 73
4
 74
0
 40
0
 40
0
 40
0
 40
0
 40
1
 40
1
 40
1
 40
1
 10
170.479390
 20
335.678688
 30
0.0
 10
169.670003
 20
335.678688
 30
0.0
 10
168.940313
 20
335.191125
 30
0.0
 10
168.630574
 20
334.443348
 30
0.0
  0
SPLINE
  5
1d4
100
AcDbEntity
  8
Layer_1
 62
7
100
AcDbSpline
 70
8
 71
3
 72
8
 73
4
 74
0
 40
0
 40
0
 40
0
 40
0
 40
1
 40
1
 40
1
 40
1
 10
168.630574
 20
334.443348
 30
0.0
 10
168.320835
 20
333.695572
 30
0.0
 10
168.492045
 20
332.834845
 30
0.0
 10
169.064368
 20
332.262522
 30
0.0
  0
SPLINE
  5
1d5
100
AcDbEntity
  8
Layer_1
 62
7
100
AcDbSpline
 70
8
 71
3
 72
8
 73
4
 74
0
 40
0
 40
0
 40
0
 40
0
 40
1
 40
1
 40
1
 40
1
 10
169.064368
 20
332.262522
 30
0.0
 10
169.636691
 20
331.690199
 30
0.0
 10
170.497418
 20
331.518989
 30
0.0
 10
171.245194
 20
331.828728
 30
0.0
  0
SPLINE
  5
1d6
100
AcDbEntity
  8
Layer_1
 62
7
100
AcDbSpline
 70
8
 71
3
 72
8
 73
4
 74
0
 40
0
 40
0
 40
0
 40
0
 40
1
 40
1
 40
1
 40
1
 10
171.245194
 20
331.828728
 30
0.0
 10
171.992971
 20
332.138467
 30
0.0
 10
172.480534
 20
332.868157
 30
0.0
 10
172.480534
 20
333.677544
 30
0.0
  0
SPLINE
  5
1d7
100
AcDbEntity
  8
Layer_1
 62
7
100
AcDbSpline
 70
8
 71
3
 72
8
 73
4
 74
0
 40
0
 40
0
 40
0
 40
0
 40
1
 40
1
 40
1
 40
1
 10
172.480534
 20
333.677544
 30
0.0
 10
172.480534
 20
334.208280
 30
0.0
 10
172.269699
 20
334.717279
 30
0.0
 10
171.894412
 20
335.092566
 30
0.0
  0
SPLINE
  5
1d8
100
AcDbEntity
  8
Layer_1
 62
7
100
AcDbSpline
 70
8
 71
3
 72
8
 73
4
 74
0
 40
0
 40
0
 40
0
 40
0
 40
1
 40
1
 40
1
 40
1
 10
171.894412
 20
335.092566
 30
0.0
 10
171.519125
 20
335.467853
 30
0.0
 10
171.010126
 20
335.678688
 30
0.0
 10
170.479390
 20
335.678688
 30
0.0
  0
LWPOLYLINE
  5
1d9
100
AcDbEntity
  8
Layer_1
 62
7
100
AcDbPolyline
 90
1
 70
1
 10
170.479390
 20
345.578787
 30
0.0
  0
SPLINE
  5
1da
100
AcDbEntity
  8
Layer_1
 62
7
100
AcDbSpline
 70
8
 71
3
 72
8
 73
4
 74
0
 40
0
 40
0
 40
0
 40
0
 40
1
 40
1
 40
1
 40
1
 10
218.479160
 20
345.578787
 30
0.0
 10
217.669773
 20
345.578787
 30
0.0
 10
216.940083
 20
345.091225
 30
0.0
 10
216.630344
 20
344.343448
 30
0.0
  0
SPLINE
  5
1db
100
AcDbEntity
  8
Layer_1
 62
7
100
AcDbSpline
 70
8
 71
3
 72
8
 73
4
 74
0
 40
0
 40
0
 40
0
 40
0
 40
1
 40
1
 40
1
 40
1
 10
216.630344
 20
344.343448
 30
0.0
 10
216.320605
 20
343.595672
 30
0.0
 10
216.491815
 20
342.734945
 30
0.0
 10
217.064138
 20
342.162622
 30
0.0
  0
SPLINE
  5
1dc
100
AcDbEntity
  8
Layer_1
 62
7
100
AcDbSpline
 70
8
 71
3
 72
8
 73
4
 74
0
 40
0
 40
0
 40
0
 40
0
 40
1
 40
1
 40
1
 40
1
 10
217.064138
 20
342.162622
 30
0.0
 10
217.636461
 20
341.590299
 30
0.0
 10
218.497188
 20
341.419089
 30
0.0
 10
219.244964
 20
341.728828
 30
0.0
  0
SPLINE
  5
1dd
100
AcDbEntity
  8
Layer_1
 62
7
100
AcDbSpline
 70
8
 71
3
 72
8
 73
4
 74
0
 40
0
 40
0
 40
0
 40
0
 40
1
 40
1
 40
1
 40
1
 10
219.244964
 20
341.728828
 30
0.0
 10
219.992741
 20
342.038567
 30
0.0
 10
220.480304
 20
342.768257
 30
0.0
 10
220.480304
 20
343.577644
 30
0.0
  0
SPLINE
  5
1de
100
AcDbEntity
  8
Layer_1
 62
7
100
AcDbSpline
 70
8
 71
3
 72
8
 73
4
 74
0
 40
0
 40
0
 40
0
 40
0
 40
1
 40
1
 40
1
 40
1
 10
220.480304
 20
343.577644
 30
0.0
 10
220.480304
 20
344.108380
 30
0.0
 10
220.269469
 20
344.617379
 30
0.0
 10
219.894182
 20
344.992666
 30
0.0
  0
SPLINE
  5
1df
100
AcDbEntity
  8
Layer_1
 62
7
100
AcDbSpline
 70
8
 71
3
 72
8
 73
4
 74
0
 40
0
 40
0
 40
0
 40
0
 40
1
 40
1
 40
1
 40
1
 10
219.894182
 20
344.992666
 30
0.0
 10
219.518895
 20
345.367953
 30
0.0
 10
219.009896
 20
345.578787
 30
0.0
 10
218.479160
 20
345.578787
 30
0.0
  0
LWPOLYLINE
  5
1e0
100
AcDbEntity
  8
Layer_1
 62
7
100
AcDbPolyline
 90
1
 70
1
 10
170.479390
 20
335.678688
 30
0.0
  0
SPLINE
  5
1e1
100
AcDbEntity
  8
Layer_1
 62
7
100
AcDbSpline
 70
8
 71
3
 72
8
 73
4
 74
0
 40
0
 40
0
 40
0
 40
0
 40
1
 40
1
 40
1
 40
1
 10
218.479160
 20
335.678688
 30
0.0
 10
217.669773
 20
335.678688
 30
0.0
 10
216.940083
 20
335.191125
 30
0.0
 10
216.630344
 20
334.443348
 30
0.0
  0
SPLINE
  5
1e2
100
AcDbEntity
  8
Layer_1
 62
7
100
AcDbSpline
 70
8
 71
3
 72
8
 73
4
 74
0
 40
0
 40
0
 40
0
 40
0
 40
1
 40
1
 40
1
 40
1
 10
216.630344
 20
334.443348
 30
0.0
 10
216.320605
 20
333.695572
 30
0.0
 10
216.491815
 20
332.834845
 30
0.0
 10
217.064138
 20
332.262522
 30
0.0
  0
SPLINE
  5
1e3
100
AcDbEntity
  8
Layer_1
 62
7
100
AcDbSpline
 70
8
 71
3
 72
8
 73
4
 74
0
 40
0
 40
0
 40
0
 40
0
 40
1
 40
1
 40
1
 40
1
 10
217.064138
 20
332.262522
 30
0.0
 10
217.636461
 20
331.690199
 30
0.0
 10
218.497188
 20
331.518989
 30
0.0
 10
219.244964
 20
331.828728
 30
0.0
  0
SPLINE
  5
1e4
100
AcDbEntity
  8
Layer_1
 62
7
100
AcDbSpline
 70
8
 71
3
 72
8
 73
4
 74
0
 40
0
 40
0
 40
0
 40
0
 40
1
 40
1
 40
1
 40
1
 10
219.244964
 20
331.828728
 30
0.0
 10
219.992741
 20
332.138467
 30
0.0
 10
220.480304
 20
332.868157
 30
0.0
 10
220.480304
 20
333.677544
 30
0.0
  0
SPLINE
  5
1e5
100
AcDbEntity
  8
Layer_1
 62
7
100
AcDbSpline
 70
8
 71
3
 72
8
 73
4
 74
0
 40
0
 40
0
 40
0
 40
0
 40
1
 40
1
 40
1
 40
1
 10
220.480304
 20
333.677544
 30
0.0
 10
220.480304
 20
334.208280
 30
0.0
 10
220.269469
 20
334.717279
 30
0.0
 10
219.894182
 20
335.092566
 30
0.0
  0
SPLINE
  5
1e6
100
AcDbEntity
  8
Layer_1
 62
7
100
AcDbSpline
 70
8
 71
3
 72
8
 73
4
 74
0
 40
0
 40
0
 40
0
 40
0
 40
1
 40
1
 40
1
 40
1
 10
219.894182
 20
335.092566
 30
0.0
 10
219.518895
 20
335.467853
 30
0.0
 10
219.009896
 20
335.678688
 30
0.0
 10
218.479160
 20
335.678688
 30
0.0
  0
LWPOLYLINE
  5
1e7
100
AcDbEntity
  8
Layer_1
 62
7
100
AcDbPolyline
 90
1
 70
1
 10
218.479160
 20
345.578787
 30
0.0
  0
SPLINE
  5
1e8
100
AcDbEntity
  8
Layer_1
 62
7
100
AcDbSpline
 70
8
 71
3
 72
8
 73
4
 74
0
 40
0
 40
0
 40
0
 40
0
 40
1
 40
1
 40
1
 40
1
 10
332.990030
 20
157.179450
 30
0.0
 10
324.860030
 20
139.591080
 30
0.0
 10
293.906000
 20
127.009130
 30
0.0
 10
258.357760
 20
127.009130
 30
0.0
  0
SPLINE
  5
1e9
100
AcDbEntity
  8
Layer_1
 62
7
100
AcDbSpline
 70
8
 71
3
 72
8
 73
4
 74
0
 40
0
 40
0
 40
0
 40
0
 40
1
 40
1
 40
1
 40
1
 10
258.357760
 20
127.009130
 30
0.0
 10
230.898990
 20
127.009130
 30
0.0
 10
205.324660
 20
134.633220
 30
0.0
 10
191.680840
 20
146.744290
 30
0.0
  0
SPLINE
  5
1ea
100
AcDbEntity
  8
Layer_1
 62
7
100
AcDbSpline
 70
8
 71
3
 72
8
 73
4
 74
0
 40
0
 40
0
 40
0
 40
0
 40
1
 40
1
 40
1
 40
1
 10
228.927030
 20
372.942662
 30
0.0
 10
238.473960
 20
374.941639
 30
0.0
 10
248.464110
 20
375.919334
 30
0.0
 10
258.455410
 20
375.919334
 30
0.0
  0
SPLINE
  5
1eb
100
AcDbEntity
  8
Layer_1
 62
7
100
AcDbSpline
 70
8
 71
3
 72
8
 73
4
 74
0
 40
0
 40
0
 40
0
 40
0
 40
1
 40
1
 40
1
 40
1
 10
258.455410
 20
375.919334
 30
0.0
 10
273.493660
 20
375.919333
 30
0.0
 10
288.399300
 20
373.538864
 30
0.0
 10
301.943560
 20
369.105675
 30
0.0
  0
LWPOLYLINE
  5
1ec
100
AcDbEntity
  8
Layer_1
 62
7
100
AcDbPolyline
 90
1
 70
1
 10
218.479160
 20
335.678688
 30
0.0
  0
LWPOLYLINE
  5
1ed
100
AcDbEntity
  8
Layer_1
 62
7
100
AcDbPolyline
 90
1
 70
1
 10
302.147880
 20
369.096502
 30
0.0
  0
SPLINE
  5
1ee
100
AcDbEntity
  8
Layer_1
 62
7
100
AcDbSpline
 70
8
 71
3
 72
8
 73
4
 74
0
 40
0
 40
0
 40
0
 40
0
 40
1
 40
1
 40
1
 40
1
 10
291.721670
 20
348.460974
 30
0.0
 10
292.478263
 20
350.193023
 30
0.0
 10
294.188883
 20
351.312493
 30
0.0
 10
296.078970
 20
351.312493
 30
0.0
  0
SPLINE
  5
1ef
100
AcDbEntity
  8
Layer_1
 62
7
100
AcDbSpline
 70
8
 71
3
 72
8
 73
4
 74
0
 40
0
 40
0
 40
0
 40
0
 40
1
 40
1
 40
1
 40
1
 10
296.078970
 20
351.312493
 30
0.0
 10
297.969078
 20
351.312491
 30
0.0
 10
299.679712
 20
350.192994
 30
0.0
 10
300.436290
 20
348.460915
 30
0.0
  0
SPLINE
  5
1f0
100
AcDbEntity
  8
Layer_1
 62
7
100
AcDbSpline
 70
8
 71
3
 72
8
 73
4
 74
0
 40
0
 40
0
 40
0
 40
0
 40
1
 40
1
 40
1
 40
1
 10
300.436290
 20
344.654324
 30
0.0
 10
299.679712
 20
342.922245
 30
0.0
 10
297.969078
 20
341.802748
 30
0.0
 10
296.078970
 20
341.802746
 30
0.0
  0
SPLINE
  5
1f1
100
AcDbEntity
  8
Layer_1
 62
7
100
AcDbSpline
 70
8
 71
3
 72
8
 73
4
 74
0
 40
0
 40
0
 40
0
 40
0
 40
1
 40
1
 40
1
 40
1
 10
296.078970
 20
341.802746
 30
0.0
 10
294.188883
 20
341.802746
 30
0.0
 10
292.478263
 20
342.922216
 30
0.0
 10
291.721670
 20
344.654265
 30
0.0
  0
LWPOLYLINE
  5
1f2
100
AcDbEntity
  8
Layer_1
 62
7
100
AcDbPolyline
 90
4
 70
1
 10
286.259950
 20
332.430473
 30
0.0
 10
296.018812
 20
332.430473
 30
0.0
 10
296.018812
 20
322.021020
 30
0.0
 10
286.259950
 20
322.021020
 30
0.0
  0
LWPOLYLINE
  5
1f3
100
AcDbEntity
  8
Layer_1
 62
7
100
AcDbPolyline
 90
2
 70
0
 10
291.721650
 20
348.460974
 30
0.0
 10
291.721650
 20
344.654265
 30
0.0
  0
LWPOLYLINE
  5
1f4
100
AcDbEntity
  8
Layer_1
 62
7
100
AcDbPolyline
 90
2
 70
0
 10
300.436290
 20
348.460916
 30
0.0
 10
300.436290
 20
344.654326
 30
0.0
  0
ENDSEC
  0
SECTION
  2
OBJECTS
  0
DICTIONARY
  5
C
330
0
100
AcDbDictionary
  3
ACAD_GROUP
350
D
  3
ACAD_MLINESTYLE
350
17
  0
DICTIONARY
  5
D
330
C
100
AcDbDictionary
  0
DICTIONARY
  5
1A
330
C
100
AcDbDictionary
  0
DICTIONARY
  5
17
330
C
100
AcDbDictionary
  3
STANDARD
350
18
  0
DICTIONARY
  5
19
330
C
100
AcDbDictionary
  0
ENDSEC
  0
EOF
