  0
SECTION
  2
HEADER
  9
$ACADVER
  1
AC1014
  9
$HANDSEED
  5
FFFF
  9
$INSUNITS
 70
     4
  9
$MEASUREMENT
 70
     1
  0
ENDSEC
  0
SECTION
  2
TABLES
  0
TABLE
  2
VPORT
  5
8
330
0
100
AcDbSymbolTable
 70
     4
  0
VPORT
  5
2E
330
8
100
AcDbSymbolTableRecord
100
AcDbViewportTableRecord
  2
*ACTIVE
 70
     0
 10
0.0
 20
0.0
 11
1.0
 21
1.0
 12
210.0
 22
148.5
 13
0.0
 23
0.0
 14
10.0
 24
10.0
 15
10.0
 25
10.0
 16
0.0
 26
0.0
 36
1.0
 17
0.0
 27
0.0
 37
0.0
 40
341.0
 41
1.24
 42
50.0
 43
0.0
 44
0.0
 50
0.0
 51
0.0
 71
     0
 72
   100
 73
     1
 74
     3
 75
     0
 76
     0
 77
     0
 78
     0
  0
ENDTAB
  0
TABLE
  2
LTYPE
  5
5
330
0
100
AcDbSymbolTable
 70
     1
  0
LTYPE
  5
14
330
5
100
AcDbSymbolTableRecord
100
AcDbLinetypeTableRecord
  2
BYBLOCK
 70
     0
  3

 72
    65
 73
     0
 40
0.0
  0
LTYPE
  5
15
330
5
100
AcDbSymbolTableRecord
100
AcDbLinetypeTableRecord
  2
BYLAYER
 70
     0
  3

 72
    65
 73
     0
 40
0.0
  0
LTYPE
  5
16
330
5
100
AcDbSymbolTableRecord
100
AcDbLinetypeTableRecord
  2
CONTINUOUS
 70
     0
  3
Solid line
 72
    65
 73
     0
 40
0.0
  0
ENDTAB
  0
TABLE
  2
LAYER
  5
2
100
AcDbSymbolTable
 70
2
  0
LAYER
  5
50
100
AcDbSymbolTableRecord
100
AcDbLayerTableRecord
  2
0
 70
0
  6
CONTINUOUS
  0
LAYER
  5
51
100
AcDbSymbolTableRecord
100
AcDbLayerTableRecord
  2
Layer_1
 70
0
  6
CONTINUOUS
  0
ENDTAB
  0
TABLE
  2
STYLE
  5
3
330
0
100
AcDbSymbolTable
 70
     1
  0
STYLE
  5
11
330
3
100
AcDbSymbolTableRecord
100
AcDbTextStyleTableRecord
  2
STANDARD
 70
     0
 40
0.0
 41
1.0
 50
0.0
 71
     0
 42
2.5
  3
txt
  4

  0
ENDTAB
  0
TABLE
  2
VIEW
  5
6
330
0
100
AcDbSymbolTable
 70
     0
  0
ENDTAB
  0
TABLE
  2
UCS
  5
7
330
0
100
AcDbSymbolTable
 70
     0
  0
ENDTAB
  0
TABLE
  2
APPID
  5
9
330
0
100
AcDbSymbolTable
 70
     2
  0
APPID
  5
12
330
9
100
AcDbSymbolTableRecord
100
AcDbRegAppTableRecord
  2
ACAD
 70
     0
  0
ENDTAB
  0
TABLE
  2
DIMSTYLE
  5
A
330
0
100
AcDbSymbolTable
 70
     1
  0
DIMSTYLE
105
27
330
A
100
AcDbSymbolTableRecord
100
AcDbDimStyleTableRecord
  2
ISO-25
 70
     0
  3

  4

  5

  6

  7

 40
1.0
 41
2.5
 42
0.625
 43
3.75
 44
1.25
 45
0.0
 46
0.0
 47
0.0
 48
0.0
140
2.5
141
2.5
142
0.0
143
0.03937007874016
144
1.0
145
0.0
146
1.0
147
0.625
 71
     0
 72
     0
 73
     0
 74
     0
 75
     0
 76
     0
 77
     1
 78
     8
170
     0
171
     3
172
     1
173
     0
174
     0
175
     0
176
     0
177
     0
178
     0
270
     2
271
     2
272
     2
273
     2
274
     3
340
11
275
     0
280
     0
281
     0
282
     0
283
     0
284
     8
285
     0
286
     0
287
     3
288
     0
  0
ENDTAB
  0
TABLE
  2
BLOCK_RECORD
  5
1
330
0
100
AcDbSymbolTable
 70
     1
  0
BLOCK_RECORD
  5
1F
330
1
100
AcDbSymbolTableRecord
100
AcDbBlockTableRecord
  2
*MODEL_SPACE
  0
BLOCK_RECORD
  5
1B
330
1
100
AcDbSymbolTableRecord
100
AcDbBlockTableRecord
  2
*PAPER_SPACE
  0
ENDTAB
  0
ENDSEC
  0
SECTION
  2
BLOCKS
  0
BLOCK
  5
20
330
1F
100
AcDbEntity
  8
0
100
AcDbBlockBegin
  2
*MODEL_SPACE
 70
     0
 10
0.0
 20
0.0
 30
0.0
  3
*MODEL_SPACE
  1

  0
ENDBLK
  5
21
330
1F
100
AcDbEntity
  8
0
100
AcDbBlockEnd
  0
BLOCK
  5
1C
330
1B
100
AcDbEntity
 67
     1
  8
0
100
AcDbBlockBegin
  2
*PAPER_SPACE
  1

  0
ENDBLK
  5
1D
330
1B
100
AcDbEntity
 67
     1
  8
0
100
AcDbBlockEnd
  0
ENDSEC
  0
SECTION
  2
ENTITIES
  0
LWPOLYLINE
  5
100
100
AcDbEntity
  8
Layer_1
 62
7
100
AcDbPolyline
 90
2
 70
0
 10
428.889580
 20
253.642230
 30
0.0
 10
428.889580
 20
324.417628
 30
0.0
  0
LWPOLYLINE
  5
101
100
AcDbEntity
  8
Layer_1
 62
7
100
AcDbPolyline
 90
3
 70
0
 10
428.889580
 20
325.859930
 30
0.0
 10
295.539580
 20
325.859930
 30
0.0
 10
295.539580
 20
253.642230
 30
0.0
  0
LWPOLYLINE
  5
102
100
AcDbEntity
  8
Layer_1
 62
7
100
AcDbPolyline
 90
2
 70
0
 10
368.098330
 20
180.619560
 30
0.0
 10
393.104680
 20
193.113180
 30
0.0
  0
SPLINE
  5
103
100
AcDbEntity
  8
Layer_1
 62
7
100
AcDbSpline
 70
8
 71
3
 72
8
 73
4
 74
0
 40
0
 40
0
 40
0
 40
0
 40
1
 40
1
 40
1
 40
1
 10
362.214570
 20
193.877254
 30
0.0
 10
361.405183
 20
193.877254
 30
0.0
 10
360.675493
 20
193.389691
 30
0.0
 10
360.365754
 20
192.641914
 30
0.0
  0
SPLINE
  5
104
100
AcDbEntity
  8
Layer_1
 62
7
100
AcDbSpline
 70
8
 71
3
 72
8
 73
4
 74
0
 40
0
 40
0
 40
0
 40
0
 40
1
 40
1
 40
1
 40
1
 10
360.365754
 20
192.641914
 30
0.0
 10
360.056015
 20
191.894138
 30
0.0
 10
360.227225
 20
191.033411
 30
0.0
 10
360.799548
 20
190.461088
 30
0.0
  0
SPLINE
  5
105
100
AcDbEntity
  8
Layer_1
 62
7
100
AcDbSpline
 70
8
 71
3
 72
8
 73
4
 74
0
 40
0
 40
0
 40
0
 40
0
 40
1
 40
1
 40
1
 40
1
 10
360.799548
 20
190.461088
 30
0.0
 10
361.371871
 20
189.888765
 30
0.0
 10
362.232598
 20
189.717555
 30
0.0
 10
362.980374
 20
190.027294
 30
0.0
  0
SPLINE
  5
106
100
AcDbEntity
  8
Layer_1
 62
7
100
AcDbSpline
 70
8
 71
3
 72
8
 73
4
 74
0
 40
0
 40
0
 40
0
 40
0
 40
1
 40
1
 40
1
 40
1
 10
362.980374
 20
190.027294
 30
0.0
 10
363.728151
 20
190.337033
 30
0.0
 10
364.215713
 20
191.066723
 30
0.0
 10
364.215713
 20
191.876110
 30
0.0
  0
SPLINE
  5
107
100
AcDbEntity
  8
Layer_1
 62
7
100
AcDbSpline
 70
8
 71
3
 72
8
 73
4
 74
0
 40
0
 40
0
 40
0
 40
0
 40
1
 40
1
 40
1
 40
1
 10
364.215713
 20
191.876110
 30
0.0
 10
364.215713
 20
192.406846
 30
0.0
 10
364.004879
 20
192.915845
 30
0.0
 10
363.629592
 20
193.291132
 30
0.0
  0
SPLINE
  5
108
100
AcDbEntity
  8
Layer_1
 62
7
100
AcDbSpline
 70
8
 71
3
 72
8
 73
4
 74
0
 40
0
 40
0
 40
0
 40
0
 40
1
 40
1
 40
1
 40
1
 10
363.629592
 20
193.291132
 30
0.0
 10
363.254305
 20
193.666419
 30
0.0
 10
362.745306
 20
193.877254
 30
0.0
 10
362.214570
 20
193.877254
 30
0.0
  0
LWPOLYLINE
  5
109
100
AcDbEntity
  8
Layer_1
 62
7
100
AcDbPolyline
 90
2
 70
0
 10
331.324480
 20
193.113180
 30
0.0
 10
356.330830
 20
180.619560
 30
0.0
  0
SPLINE
  5
10a
100
AcDbEntity
  8
Layer_1
 62
7
100
AcDbSpline
 70
8
 71
3
 72
8
 73
4
 74
0
 40
0
 40
0
 40
0
 40
0
 40
1
 40
1
 40
1
 40
1
 10
362.214570
 20
303.876594
 30
0.0
 10
361.405183
 20
303.876594
 30
0.0
 10
360.675493
 20
303.389031
 30
0.0
 10
360.365754
 20
302.641254
 30
0.0
  0
SPLINE
  5
10b
100
AcDbEntity
  8
Layer_1
 62
7
100
AcDbSpline
 70
8
 71
3
 72
8
 73
4
 74
0
 40
0
 40
0
 40
0
 40
0
 40
1
 40
1
 40
1
 40
1
 10
360.365754
 20
302.641254
 30
0.0
 10
360.056015
 20
301.893478
 30
0.0
 10
360.227225
 20
301.032751
 30
0.0
 10
360.799548
 20
300.460428
 30
0.0
  0
SPLINE
  5
10c
100
AcDbEntity
  8
Layer_1
 62
7
100
AcDbSpline
 70
8
 71
3
 72
8
 73
4
 74
0
 40
0
 40
0
 40
0
 40
0
 40
1
 40
1
 40
1
 40
1
 10
360.799548
 20
300.460428
 30
0.0
 10
361.371871
 20
299.888105
 30
0.0
 10
362.232598
 20
299.716895
 30
0.0
 10
362.980374
 20
300.026634
 30
0.0
  0
SPLINE
  5
10d
100
AcDbEntity
  8
Layer_1
 62
7
100
AcDbSpline
 70
8
 71
3
 72
8
 73
4
 74
0
 40
0
 40
0
 40
0
 40
0
 40
1
 40
1
 40
1
 40
1
 10
362.980374
 20
300.026634
 30
0.0
 10
363.728151
 20
300.336373
 30
0.0
 10
364.215713
 20
301.066063
 30
0.0
 10
364.215713
 20
301.875450
 30
0.0
  0
SPLINE
  5
10e
100
AcDbEntity
  8
Layer_1
 62
7
100
AcDbSpline
 70
8
 71
3
 72
8
 73
4
 74
0
 40
0
 40
0
 40
0
 40
0
 40
1
 40
1
 40
1
 40
1
 10
364.215713
 20
301.875450
 30
0.0
 10
364.215713
 20
302.406186
 30
0.0
 10
364.004879
 20
302.915185
 30
0.0
 10
363.629592
 20
303.290472
 30
0.0
  0
SPLINE
  5
10f
100
AcDbEntity
  8
Layer_1
 62
7
100
AcDbSpline
 70
8
 71
3
 72
8
 73
4
 74
0
 40
0
 40
0
 40
0
 40
0
 40
1
 40
1
 40
1
 40
1
 10
363.629592
 20
303.290472
 30
0.0
 10
363.254305
 20
303.665759
 30
0.0
 10
362.745306
 20
303.876594
 30
0.0
 10
362.214570
 20
303.876594
 30
0.0
  0
LWPOLYLINE
  5
110
100
AcDbEntity
  8
Layer_1
 62
7
100
AcDbPolyline
 90
1
 70
1
 10
362.214570
 20
193.877254
 30
0.0
  0
SPLINE
  5
111
100
AcDbEntity
  8
Layer_1
 62
7
100
AcDbSpline
 70
8
 71
3
 72
8
 73
4
 74
0
 40
0
 40
0
 40
0
 40
0
 40
1
 40
1
 40
1
 40
1
 10
297.538706
 20
307.699760
 30
0.0
 10
297.538707
 20
306.890373
 30
0.0
 10
298.026269
 20
306.160683
 30
0.0
 10
298.774046
 20
305.850944
 30
0.0
  0
SPLINE
  5
112
100
AcDbEntity
  8
Layer_1
 62
7
100
AcDbSpline
 70
8
 71
3
 72
8
 73
4
 74
0
 40
0
 40
0
 40
0
 40
0
 40
1
 40
1
 40
1
 40
1
 10
298.774046
 20
305.850944
 30
0.0
 10
299.521822
 20
305.541205
 30
0.0
 10
300.382549
 20
305.712415
 30
0.0
 10
300.954872
 20
306.284738
 30
0.0
  0
SPLINE
  5
113
100
AcDbEntity
  8
Layer_1
 62
7
100
AcDbSpline
 70
8
 71
3
 72
8
 73
4
 74
0
 40
0
 40
0
 40
0
 40
0
 40
1
 40
1
 40
1
 40
1
 10
300.954872
 20
306.284738
 30
0.0
 10
301.527195
 20
306.857061
 30
0.0
 10
301.698405
 20
307.717788
 30
0.0
 10
301.388666
 20
308.465564
 30
0.0
  0
SPLINE
  5
114
100
AcDbEntity
  8
Layer_1
 62
7
100
AcDbSpline
 70
8
 71
3
 72
8
 73
4
 74
0
 40
0
 40
0
 40
0
 40
0
 40
1
 40
1
 40
1
 40
1
 10
301.388666
 20
308.465564
 30
0.0
 10
301.078927
 20
309.213341
 30
0.0
 10
300.349237
 20
309.700903
 30
0.0
 10
299.539850
 20
309.700903
 30
0.0
  0
SPLINE
  5
115
100
AcDbEntity
  8
Layer_1
 62
7
100
AcDbSpline
 70
8
 71
3
 72
8
 73
4
 74
0
 40
0
 40
0
 40
0
 40
0
 40
1
 40
1
 40
1
 40
1
 10
299.539850
 20
309.700903
 30
0.0
 10
299.009114
 20
309.700903
 30
0.0
 10
298.500115
 20
309.490069
 30
0.0
 10
298.124828
 20
309.114782
 30
0.0
  0
SPLINE
  5
116
100
AcDbEntity
  8
Layer_1
 62
7
100
AcDbSpline
 70
8
 71
3
 72
8
 73
4
 74
0
 40
0
 40
0
 40
0
 40
0
 40
1
 40
1
 40
1
 40
1
 10
298.124828
 20
309.114782
 30
0.0
 10
297.749541
 20
308.739495
 30
0.0
 10
297.538707
 20
308.230496
 30
0.0
 10
297.538707
 20
307.699760
 30
0.0
  0
LWPOLYLINE
  5
117
100
AcDbEntity
  8
Layer_1
 62
7
100
AcDbPolyline
 90
1
 70
1
 10
362.214570
 20
303.876594
 30
0.0
  0
SPLINE
  5
118
100
AcDbEntity
  8
Layer_1
 62
7
100
AcDbSpline
 70
8
 71
3
 72
8
 73
4
 74
0
 40
0
 40
0
 40
0
 40
0
 40
1
 40
1
 40
1
 40
1
 10
297.538706
 20
291.699760
 30
0.0
 10
297.538707
 20
290.890373
 30
0.0
 10
298.026269
 20
290.160683
 30
0.0
 10
298.774046
 20
289.850944
 30
0.0
  0
SPLINE
  5
119
100
AcDbEntity
  8
Layer_1
 62
7
100
AcDbSpline
 70
8
 71
3
 72
8
 73
4
 74
0
 40
0
 40
0
 40
0
 40
0
 40
1
 40
1
 40
1
 40
1
 10
298.774046
 20
289.850944
 30
0.0
 10
299.521822
 20
289.541205
 30
0.0
 10
300.382549
 20
289.712415
 30
0.0
 10
300.954872
 20
290.284738
 30
0.0
  0
SPLINE
  5
11a
100
AcDbEntity
  8
Layer_1
 62
7
100
AcDbSpline
 70
8
 71
3
 72
8
 73
4
 74
0
 40
0
 40
0
 40
0
 40
0
 40
1
 40
1
 40
1
 40
1
 10
300.954872
 20
290.284738
 30
0.0
 10
301.527195
 20
290.857061
 30
0.0
 10
301.698405
 20
291.717788
 30
0.0
 10
301.388666
 20
292.465564
 30
0.0
  0
SPLINE
  5
11b
100
AcDbEntity
  8
Layer_1
 62
7
100
AcDbSpline
 70
8
 71
3
 72
8
 73
4
 74
0
 40
0
 40
0
 40
0
 40
0
 40
1
 40
1
 40
1
 40
1
 10
301.388666
 20
292.465564
 30
0.0
 10
301.078927
 20
293.213341
 30
0.0
 10
300.349237
 20
293.700903
 30
0.0
 10
299.539850
 20
293.700903
 30
0.0
  0
SPLINE
  5
11c
100
AcDbEntity
  8
Layer_1
 62
7
100
AcDbSpline
 70
8
 71
3
 72
8
 73
4
 74
0
 40
0
 40
0
 40
0
 40
0
 40
1
 40
1
 40
1
 40
1
 10
299.539850
 20
293.700903
 30
0.0
 10
299.009114
 20
293.700903
 30
0.0
 10
298.500115
 20
293.490069
 30
0.0
 10
298.124828
 20
293.114782
 30
0.0
  0
SPLINE
  5
11d
100
AcDbEntity
  8
Layer_1
 62
7
100
AcDbSpline
 70
8
 71
3
 72
8
 73
4
 74
0
 40
0
 40
0
 40
0
 40
0
 40
1
 40
1
 40
1
 40
1
 10
298.124828
 20
293.114782
 30
0.0
 10
297.749541
 20
292.739495
 30
0.0
 10
297.538707
 20
292.230496
 30
0.0
 10
297.538707
 20
291.699760
 30
0.0
  0
LWPOLYLINE
  5
11e
100
AcDbEntity
  8
Layer_1
 62
7
100
AcDbPolyline
 90
1
 70
1
 10
297.538707
 20
307.699760
 30
0.0
  0
SPLINE
  5
11f
100
AcDbEntity
  8
Layer_1
 62
7
100
AcDbSpline
 70
8
 71
3
 72
8
 73
4
 74
0
 40
0
 40
0
 40
0
 40
0
 40
1
 40
1
 40
1
 40
1
 10
297.538706
 20
275.699760
 30
0.0
 10
297.538707
 20
274.890373
 30
0.0
 10
298.026269
 20
274.160683
 30
0.0
 10
298.774046
 20
273.850944
 30
0.0
  0
SPLINE
  5
120
100
AcDbEntity
  8
Layer_1
 62
7
100
AcDbSpline
 70
8
 71
3
 72
8
 73
4
 74
0
 40
0
 40
0
 40
0
 40
0
 40
1
 40
1
 40
1
 40
1
 10
298.774046
 20
273.850944
 30
0.0
 10
299.521822
 20
273.541205
 30
0.0
 10
300.382549
 20
273.712415
 30
0.0
 10
300.954872
 20
274.284738
 30
0.0
  0
SPLINE
  5
121
100
AcDbEntity
  8
Layer_1
 62
7
100
AcDbSpline
 70
8
 71
3
 72
8
 73
4
 74
0
 40
0
 40
0
 40
0
 40
0
 40
1
 40
1
 40
1
 40
1
 10
300.954872
 20
274.284738
 30
0.0
 10
301.527195
 20
274.857061
 30
0.0
 10
301.698405
 20
275.717788
 30
0.0
 10
301.388666
 20
276.465564
 30
0.0
  0
SPLINE
  5
122
100
AcDbEntity
  8
Layer_1
 62
7
100
AcDbSpline
 70
8
 71
3
 72
8
 73
4
 74
0
 40
0
 40
0
 40
0
 40
0
 40
1
 40
1
 40
1
 40
1
 10
301.388666
 20
276.465564
 30
0.0
 10
301.078927
 20
277.213341
 30
0.0
 10
300.349237
 20
277.700903
 30
0.0
 10
299.539850
 20
277.700903
 30
0.0
  0
SPLINE
  5
123
100
AcDbEntity
  8
Layer_1
 62
7
100
AcDbSpline
 70
8
 71
3
 72
8
 73
4
 74
0
 40
0
 40
0
 40
0
 40
0
 40
1
 40
1
 40
1
 40
1
 10
299.539850
 20
277.700903
 30
0.0
 10
299.009114
 20
277.700903
 30
0.0
 10
298.500115
 20
277.490069
 30
0.0
 10
298.124828
 20
277.114782
 30
0.0
  0
SPLINE
  5
124
100
AcDbEntity
  8
Layer_1
 62
7
100
AcDbSpline
 70
8
 71
3
 72
8
 73
4
 74
0
 40
0
 40
0
 40
0
 40
0
 40
1
 40
1
 40
1
 40
1
 10
298.124828
 20
277.114782
 30
0.0
 10
297.749541
 20
276.739495
 30
0.0
 10
297.538707
 20
276.230496
 30
0.0
 10
297.538707
 20
275.699760
 30
0.0
  0
LWPOLYLINE
  5
125
100
AcDbEntity
  8
Layer_1
 62
7
100
AcDbPolyline
 90
1
 70
1
 10
297.538707
 20
291.699760
 30
0.0
  0
SPLINE
  5
126
100
AcDbEntity
  8
Layer_1
 62
7
100
AcDbSpline
 70
8
 71
3
 72
8
 73
4
 74
0
 40
0
 40
0
 40
0
 40
0
 40
1
 40
1
 40
1
 40
1
 10
297.538706
 20
259.699760
 30
0.0
 10
297.538707
 20
258.890373
 30
0.0
 10
298.026269
 20
258.160683
 30
0.0
 10
298.774046
 20
257.850944
 30
0.0
  0
SPLINE
  5
127
100
AcDbEntity
  8
Layer_1
 62
7
100
AcDbSpline
 70
8
 71
3
 72
8
 73
4
 74
0
 40
0
 40
0
 40
0
 40
0
 40
1
 40
1
 40
1
 40
1
 10
298.774046
 20
257.850944
 30
0.0
 10
299.521822
 20
257.541205
 30
0.0
 10
300.382549
 20
257.712415
 30
0.0
 10
300.954872
 20
258.284738
 30
0.0
  0
SPLINE
  5
128
100
AcDbEntity
  8
Layer_1
 62
7
100
AcDbSpline
 70
8
 71
3
 72
8
 73
4
 74
0
 40
0
 40
0
 40
0
 40
0
 40
1
 40
1
 40
1
 40
1
 10
300.954872
 20
258.284738
 30
0.0
 10
301.527195
 20
258.857061
 30
0.0
 10
301.698405
 20
259.717788
 30
0.0
 10
301.388666
 20
260.465564
 30
0.0
  0
SPLINE
  5
129
100
AcDbEntity
  8
Layer_1
 62
7
100
AcDbSpline
 70
8
 71
3
 72
8
 73
4
 74
0
 40
0
 40
0
 40
0
 40
0
 40
1
 40
1
 40
1
 40
1
 10
301.388666
 20
260.465564
 30
0.0
 10
301.078927
 20
261.213341
 30
0.0
 10
300.349237
 20
261.700903
 30
0.0
 10
299.539850
 20
261.700903
 30
0.0
  0
SPLINE
  5
12a
100
AcDbEntity
  8
Layer_1
 62
7
100
AcDbSpline
 70
8
 71
3
 72
8
 73
4
 74
0
 40
0
 40
0
 40
0
 40
0
 40
1
 40
1
 40
1
 40
1
 10
299.539850
 20
261.700903
 30
0.0
 10
299.009114
 20
261.700903
 30
0.0
 10
298.500115
 20
261.490069
 30
0.0
 10
298.124828
 20
261.114782
 30
0.0
  0
SPLINE
  5
12b
100
AcDbEntity
  8
Layer_1
 62
7
100
AcDbSpline
 70
8
 71
3
 72
8
 73
4
 74
0
 40
0
 40
0
 40
0
 40
0
 40
1
 40
1
 40
1
 40
1
 10
298.124828
 20
261.114782
 30
0.0
 10
297.749541
 20
260.739495
 30
0.0
 10
297.538707
 20
260.230496
 30
0.0
 10
297.538707
 20
259.699760
 30
0.0
  0
LWPOLYLINE
  5
12c
100
AcDbEntity
  8
Layer_1
 62
7
100
AcDbPolyline
 90
1
 70
1
 10
297.538707
 20
275.699760
 30
0.0
  0
SPLINE
  5
12d
100
AcDbEntity
  8
Layer_1
 62
7
100
AcDbSpline
 70
8
 71
3
 72
8
 73
4
 74
0
 40
0
 40
0
 40
0
 40
0
 40
1
 40
1
 40
1
 40
1
 10
422.887906
 20
307.699760
 30
0.0
 10
422.887907
 20
306.890373
 30
0.0
 10
423.375469
 20
306.160683
 30
0.0
 10
424.123246
 20
305.850944
 30
0.0
  0
SPLINE
  5
12e
100
AcDbEntity
  8
Layer_1
 62
7
100
AcDbSpline
 70
8
 71
3
 72
8
 73
4
 74
0
 40
0
 40
0
 40
0
 40
0
 40
1
 40
1
 40
1
 40
1
 10
424.123246
 20
305.850944
 30
0.0
 10
424.871022
 20
305.541205
 30
0.0
 10
425.731749
 20
305.712415
 30
0.0
 10
426.304072
 20
306.284738
 30
0.0
  0
SPLINE
  5
12f
100
AcDbEntity
  8
Layer_1
 62
7
100
AcDbSpline
 70
8
 71
3
 72
8
 73
4
 74
0
 40
0
 40
0
 40
0
 40
0
 40
1
 40
1
 40
1
 40
1
 10
426.304072
 20
306.284738
 30
0.0
 10
426.876395
 20
306.857061
 30
0.0
 10
427.047605
 20
307.717788
 30
0.0
 10
426.737866
 20
308.465564
 30
0.0
  0
SPLINE
  5
130
100
AcDbEntity
  8
Layer_1
 62
7
100
AcDbSpline
 70
8
 71
3
 72
8
 73
4
 74
0
 40
0
 40
0
 40
0
 40
0
 40
1
 40
1
 40
1
 40
1
 10
426.737866
 20
308.465564
 30
0.0
 10
426.428127
 20
309.213341
 30
0.0
 10
425.698437
 20
309.700903
 30
0.0
 10
424.889050
 20
309.700903
 30
0.0
  0
SPLINE
  5
131
100
AcDbEntity
  8
Layer_1
 62
7
100
AcDbSpline
 70
8
 71
3
 72
8
 73
4
 74
0
 40
0
 40
0
 40
0
 40
0
 40
1
 40
1
 40
1
 40
1
 10
424.889050
 20
309.700903
 30
0.0
 10
424.358314
 20
309.700903
 30
0.0
 10
423.849315
 20
309.490069
 30
0.0
 10
423.474028
 20
309.114782
 30
0.0
  0
SPLINE
  5
132
100
AcDbEntity
  8
Layer_1
 62
7
100
AcDbSpline
 70
8
 71
3
 72
8
 73
4
 74
0
 40
0
 40
0
 40
0
 40
0
 40
1
 40
1
 40
1
 40
1
 10
423.474028
 20
309.114782
 30
0.0
 10
423.098741
 20
308.739495
 30
0.0
 10
422.887907
 20
308.230496
 30
0.0
 10
422.887907
 20
307.699760
 30
0.0
  0
LWPOLYLINE
  5
133
100
AcDbEntity
  8
Layer_1
 62
7
100
AcDbPolyline
 90
1
 70
1
 10
297.538707
 20
259.699760
 30
0.0
  0
SPLINE
  5
134
100
AcDbEntity
  8
Layer_1
 62
7
100
AcDbSpline
 70
8
 71
3
 72
8
 73
4
 74
0
 40
0
 40
0
 40
0
 40
0
 40
1
 40
1
 40
1
 40
1
 10
422.887906
 20
291.699760
 30
0.0
 10
422.887907
 20
290.890373
 30
0.0
 10
423.375469
 20
290.160683
 30
0.0
 10
424.123246
 20
289.850944
 30
0.0
  0
SPLINE
  5
135
100
AcDbEntity
  8
Layer_1
 62
7
100
AcDbSpline
 70
8
 71
3
 72
8
 73
4
 74
0
 40
0
 40
0
 40
0
 40
0
 40
1
 40
1
 40
1
 40
1
 10
424.123246
 20
289.850944
 30
0.0
 10
424.871022
 20
289.541205
 30
0.0
 10
425.731749
 20
289.712415
 30
0.0
 10
426.304072
 20
290.284738
 30
0.0
  0
SPLINE
  5
136
100
AcDbEntity
  8
Layer_1
 62
7
100
AcDbSpline
 70
8
 71
3
 72
8
 73
4
 74
0
 40
0
 40
0
 40
0
 40
0
 40
1
 40
1
 40
1
 40
1
 10
426.304072
 20
290.284738
 30
0.0
 10
426.876395
 20
290.857061
 30
0.0
 10
427.047605
 20
291.717788
 30
0.0
 10
426.737866
 20
292.465564
 30
0.0
  0
SPLINE
  5
137
100
AcDbEntity
  8
Layer_1
 62
7
100
AcDbSpline
 70
8
 71
3
 72
8
 73
4
 74
0
 40
0
 40
0
 40
0
 40
0
 40
1
 40
1
 40
1
 40
1
 10
426.737866
 20
292.465564
 30
0.0
 10
426.428127
 20
293.213341
 30
0.0
 10
425.698437
 20
293.700903
 30
0.0
 10
424.889050
 20
293.700903
 30
0.0
  0
SPLINE
  5
138
100
AcDbEntity
  8
Layer_1
 62
7
100
AcDbSpline
 70
8
 71
3
 72
8
 73
4
 74
0
 40
0
 40
0
 40
0
 40
0
 40
1
 40
1
 40
1
 40
1
 10
424.889050
 20
293.700903
 30
0.0
 10
424.358314
 20
293.700903
 30
0.0
 10
423.849315
 20
293.490069
 30
0.0
 10
423.474028
 20
293.114782
 30
0.0
  0
SPLINE
  5
139
100
AcDbEntity
  8
Layer_1
 62
7
100
AcDbSpline
 70
8
 71
3
 72
8
 73
4
 74
0
 40
0
 40
0
 40
0
 40
0
 40
1
 40
1
 40
1
 40
1
 10
423.474028
 20
293.114782
 30
0.0
 10
423.098741
 20
292.739495
 30
0.0
 10
422.887907
 20
292.230496
 30
0.0
 10
422.887907
 20
291.699760
 30
0.0
  0
LWPOLYLINE
  5
13a
100
AcDbEntity
  8
Layer_1
 62
7
100
AcDbPolyline
 90
1
 70
1
 10
422.887907
 20
307.699760
 30
0.0
  0
SPLINE
  5
13b
100
AcDbEntity
  8
Layer_1
 62
7
100
AcDbSpline
 70
8
 71
3
 72
8
 73
4
 74
0
 40
0
 40
0
 40
0
 40
0
 40
1
 40
1
 40
1
 40
1
 10
422.887906
 20
275.699760
 30
0.0
 10
422.887907
 20
274.890373
 30
0.0
 10
423.375469
 20
274.160683
 30
0.0
 10
424.123246
 20
273.850944
 30
0.0
  0
SPLINE
  5
13c
100
AcDbEntity
  8
Layer_1
 62
7
100
AcDbSpline
 70
8
 71
3
 72
8
 73
4
 74
0
 40
0
 40
0
 40
0
 40
0
 40
1
 40
1
 40
1
 40
1
 10
424.123246
 20
273.850944
 30
0.0
 10
424.871022
 20
273.541205
 30
0.0
 10
425.731749
 20
273.712415
 30
0.0
 10
426.304072
 20
274.284738
 30
0.0
  0
SPLINE
  5
13d
100
AcDbEntity
  8
Layer_1
 62
7
100
AcDbSpline
 70
8
 71
3
 72
8
 73
4
 74
0
 40
0
 40
0
 40
0
 40
0
 40
1
 40
1
 40
1
 40
1
 10
426.304072
 20
274.284738
 30
0.0
 10
426.876395
 20
274.857061
 30
0.0
 10
427.047605
 20
275.717788
 30
0.0
 10
426.737866
 20
276.465564
 30
0.0
  0
SPLINE
  5
13e
100
AcDbEntity
  8
Layer_1
 62
7
100
AcDbSpline
 70
8
 71
3
 72
8
 73
4
 74
0
 40
0
 40
0
 40
0
 40
0
 40
1
 40
1
 40
1
 40
1
 10
426.737866
 20
276.465564
 30
0.0
 10
426.428127
 20
277.213341
 30
0.0
 10
425.698437
 20
277.700903
 30
0.0
 10
424.889050
 20
277.700903
 30
0.0
  0
SPLINE
  5
13f
100
AcDbEntity
  8
Layer_1
 62
7
100
AcDbSpline
 70
8
 71
3
 72
8
 73
4
 74
0
 40
0
 40
0
 40
0
 40
0
 40
1
 40
1
 40
1
 40
1
 10
424.889050
 20
277.700903
 30
0.0
 10
424.358314
 20
277.700903
 30
0.0
 10
423.849315
 20
277.490069
 30
0.0
 10
423.474028
 20
277.114782
 30
0.0
  0
SPLINE
  5
140
100
AcDbEntity
  8
Layer_1
 62
7
100
AcDbSpline
 70
8
 71
3
 72
8
 73
4
 74
0
 40
0
 40
0
 40
0
 40
0
 40
1
 40
1
 40
1
 40
1
 10
423.474028
 20
277.114782
 30
0.0
 10
423.098741
 20
276.739495
 30
0.0
 10
422.887907
 20
276.230496
 30
0.0
 10
422.887907
 20
275.699760
 30
0.0
  0
LWPOLYLINE
  5
141
100
AcDbEntity
  8
Layer_1
 62
7
100
AcDbPolyline
 90
1
 70
1
 10
422.887907
 20
291.699760
 30
0.0
  0
SPLINE
  5
142
100
AcDbEntity
  8
Layer_1
 62
7
100
AcDbSpline
 70
8
 71
3
 72
8
 73
4
 74
0
 40
0
 40
0
 40
0
 40
0
 40
1
 40
1
 40
1
 40
1
 10
422.887906
 20
259.699760
 30
0.0
 10
422.887907
 20
258.890373
 30
0.0
 10
423.375469
 20
258.160683
 30
0.0
 10
424.123246
 20
257.850944
 30
0.0
  0
SPLINE
  5
143
100
AcDbEntity
  8
Layer_1
 62
7
100
AcDbSpline
 70
8
 71
3
 72
8
 73
4
 74
0
 40
0
 40
0
 40
0
 40
0
 40
1
 40
1
 40
1
 40
1
 10
424.123246
 20
257.850944
 30
0.0
 10
424.871022
 20
257.541205
 30
0.0
 10
425.731749
 20
257.712415
 30
0.0
 10
426.304072
 20
258.284738
 30
0.0
  0
SPLINE
  5
144
100
AcDbEntity
  8
Layer_1
 62
7
100
AcDbSpline
 70
8
 71
3
 72
8
 73
4
 74
0
 40
0
 40
0
 40
0
 40
0
 40
1
 40
1
 40
1
 40
1
 10
426.304072
 20
258.284738
 30
0.0
 10
426.876395
 20
258.857061
 30
0.0
 10
427.047605
 20
259.717788
 30
0.0
 10
426.737866
 20
260.465564
 30
0.0
  0
SPLINE
  5
145
100
AcDbEntity
  8
Layer_1
 62
7
100
AcDbSpline
 70
8
 71
3
 72
8
 73
4
 74
0
 40
0
 40
0
 40
0
 40
0
 40
1
 40
1
 40
1
 40
1
 10
426.737866
 20
260.465564
 30
0.0
 10
426.428127
 20
261.213341
 30
0.0
 10
425.698437
 20
261.700903
 30
0.0
 10
424.889050
 20
261.700903
 30
0.0
  0
SPLINE
  5
146
100
AcDbEntity
  8
Layer_1
 62
7
100
AcDbSpline
 70
8
 71
3
 72
8
 73
4
 74
0
 40
0
 40
0
 40
0
 40
0
 40
1
 40
1
 40
1
 40
1
 10
424.889050
 20
261.700903
 30
0.0
 10
424.358314
 20
261.700903
 30
0.0
 10
423.849315
 20
261.490069
 30
0.0
 10
423.474028
 20
261.114782
 30
0.0
  0
SPLINE
  5
147
100
AcDbEntity
  8
Layer_1
 62
7
100
AcDbSpline
 70
8
 71
3
 72
8
 73
4
 74
0
 40
0
 40
0
 40
0
 40
0
 40
1
 40
1
 40
1
 40
1
 10
423.474028
 20
261.114782
 30
0.0
 10
423.098741
 20
260.739495
 30
0.0
 10
422.887907
 20
260.230496
 30
0.0
 10
422.887907
 20
259.699760
 30
0.0
  0
LWPOLYLINE
  5
148
100
AcDbEntity
  8
Layer_1
 62
7
100
AcDbPolyline
 90
1
 70
1
 10
422.887907
 20
275.699760
 30
0.0
  0
SPLINE
  5
149
100
AcDbEntity
  8
Layer_1
 62
7
100
AcDbSpline
 70
8
 71
3
 72
8
 73
4
 74
0
 40
0
 40
0
 40
0
 40
0
 40
1
 40
1
 40
1
 40
1
 10
331.388030
 20
193.081390
 30
0.0
 10
309.385566
 20
204.564859
 30
0.0
 10
295.590000
 20
227.326488
 30
0.0
 10
295.590000
 20
252.145401
 30
0.0
  0
SPLINE
  5
14a
100
AcDbEntity
  8
Layer_1
 62
7
100
AcDbSpline
 70
8
 71
3
 72
8
 73
4
 74
0
 40
0
 40
0
 40
0
 40
0
 40
1
 40
1
 40
1
 40
1
 10
295.590000
 20
252.145401
 30
0.0
 10
295.590003
 20
252.644008
 30
0.0
 10
295.595603
 20
253.142600
 30
0.0
 10
295.606800
 20
253.641081
 30
0.0
  0
SPLINE
  5
14b
100
AcDbEntity
  8
Layer_1
 62
7
100
AcDbSpline
 70
8
 71
3
 72
8
 73
4
 74
0
 40
0
 40
0
 40
0
 40
0
 40
1
 40
1
 40
1
 40
1
 10
428.822340
 20
253.641080
 30
0.0
 10
428.833537
 20
253.142599
 30
0.0
 10
428.839137
 20
252.644007
 30
0.0
 10
428.839140
 20
252.145400
 30
0.0
  0
LWPOLYLINE
  5
14c
100
AcDbEntity
  8
Layer_1
 62
7
100
AcDbPolyline
 90
1
 70
1
 10
422.887907
 20
259.699760
 30
0.0
  0
SPLINE
  5
14d
100
AcDbEntity
  8
Layer_1
 62
7
100
AcDbSpline
 70
8
 71
3
 72
8
 73
4
 74
0
 40
0
 40
0
 40
0
 40
0
 40
1
 40
1
 40
1
 40
1
 10
428.839140
 20
252.145400
 30
0.0
 10
428.839140
 20
227.326511
 30
0.0
 10
415.043600
 20
204.564900
 30
0.0
 10
393.041170
 20
193.081420
 30
0.0
  0
SPLINE
  5
14e
100
AcDbEntity
  8
Layer_1
 62
7
100
AcDbSpline
 70
8
 71
3
 72
8
 73
4
 74
0
 40
0
 40
0
 40
0
 40
0
 40
1
 40
1
 40
1
 40
1
 10
368.116590
 20
180.619570
 30
0.0
 10
366.389392
 20
179.691172
 30
0.0
 10
364.327844
 20
179.192812
 30
0.0
 10
362.214570
 20
179.192810
 30
0.0
  0
SPLINE
  5
14f
100
AcDbEntity
  8
Layer_1
 62
7
100
AcDbSpline
 70
8
 71
3
 72
8
 73
4
 74
0
 40
0
 40
0
 40
0
 40
0
 40
1
 40
1
 40
1
 40
1
 10
362.214570
 20
179.192810
 30
0.0
 10
360.101314
 20
179.192809
 30
0.0
 10
358.039782
 20
179.691159
 30
0.0
 10
356.312590
 20
180.619540
 30
0.0
  0
LWPOLYLINE
  5
150
100
AcDbEntity
  8
Layer_1
 62
7
100
AcDbPolyline
 90
1
 70
1
 10
428.839140
 20
252.145400
 30
0.0
  0
ENDSEC
  0
SECTION
  2
OBJECTS
  0
DICTIONARY
  5
C
330
0
100
AcDbDictionary
  3
ACAD_GROUP
350
D
  3
ACAD_MLINESTYLE
350
17
  0
DICTIONARY
  5
D
330
C
100
AcDbDictionary
  0
DICTIONARY
  5
1A
330
C
100
AcDbDictionary
  0
DICTIONARY
  5
17
330
C
100
AcDbDictionary
  3
STANDARD
350
18
  0
DICTIONARY
  5
19
330
C
100
AcDbDictionary
  0
ENDSEC
  0
EOF
