  0
SECTION
  2
HEADER
  9
$ACADVER
  1
AC1014
  9
$HANDSEED
  5
FFFF
  9
$INSUNITS
 70
     4
  9
$MEASUREMENT
 70
     1
  0
ENDSEC
  0
SECTION
  2
TABLES
  0
TABLE
  2
VPORT
  5
8
330
0
100
AcDbSymbolTable
 70
     4
  0
VPORT
  5
2E
330
8
100
AcDbSymbolTableRecord
100
AcDbViewportTableRecord
  2
*ACTIVE
 70
     0
 10
0.0
 20
0.0
 11
1.0
 21
1.0
 12
210.0
 22
148.5
 13
0.0
 23
0.0
 14
10.0
 24
10.0
 15
10.0
 25
10.0
 16
0.0
 26
0.0
 36
1.0
 17
0.0
 27
0.0
 37
0.0
 40
341.0
 41
1.24
 42
50.0
 43
0.0
 44
0.0
 50
0.0
 51
0.0
 71
     0
 72
   100
 73
     1
 74
     3
 75
     0
 76
     0
 77
     0
 78
     0
  0
ENDTAB
  0
TABLE
  2
LTYPE
  5
5
330
0
100
AcDbSymbolTable
 70
     1
  0
LTYPE
  5
14
330
5
100
AcDbSymbolTableRecord
100
AcDbLinetypeTableRecord
  2
BYBLOCK
 70
     0
  3

 72
    65
 73
     0
 40
0.0
  0
LTYPE
  5
15
330
5
100
AcDbSymbolTableRecord
100
AcDbLinetypeTableRecord
  2
BYLAYER
 70
     0
  3

 72
    65
 73
     0
 40
0.0
  0
LTYPE
  5
16
330
5
100
AcDbSymbolTableRecord
100
AcDbLinetypeTableRecord
  2
CONTINUOUS
 70
     0
  3
Solid line
 72
    65
 73
     0
 40
0.0
  0
ENDTAB
  0
TABLE
  2
LAYER
  5
2
100
AcDbSymbolTable
 70
2
  0
LAYER
  5
50
100
AcDbSymbolTableRecord
100
AcDbLayerTableRecord
  2
0
 70
0
  6
CONTINUOUS
  0
LAYER
  5
51
100
AcDbSymbolTableRecord
100
AcDbLayerTableRecord
  2
Layer_1
 70
0
  6
CONTINUOUS
  0
ENDTAB
  0
TABLE
  2
STYLE
  5
3
330
0
100
AcDbSymbolTable
 70
     1
  0
STYLE
  5
11
330
3
100
AcDbSymbolTableRecord
100
AcDbTextStyleTableRecord
  2
STANDARD
 70
     0
 40
0.0
 41
1.0
 50
0.0
 71
     0
 42
2.5
  3
txt
  4

  0
ENDTAB
  0
TABLE
  2
VIEW
  5
6
330
0
100
AcDbSymbolTable
 70
     0
  0
ENDTAB
  0
TABLE
  2
UCS
  5
7
330
0
100
AcDbSymbolTable
 70
     0
  0
ENDTAB
  0
TABLE
  2
APPID
  5
9
330
0
100
AcDbSymbolTable
 70
     2
  0
APPID
  5
12
330
9
100
AcDbSymbolTableRecord
100
AcDbRegAppTableRecord
  2
ACAD
 70
     0
  0
ENDTAB
  0
TABLE
  2
DIMSTYLE
  5
A
330
0
100
AcDbSymbolTable
 70
     1
  0
DIMSTYLE
105
27
330
A
100
AcDbSymbolTableRecord
100
AcDbDimStyleTableRecord
  2
ISO-25
 70
     0
  3

  4

  5

  6

  7

 40
1.0
 41
2.5
 42
0.625
 43
3.75
 44
1.25
 45
0.0
 46
0.0
 47
0.0
 48
0.0
140
2.5
141
2.5
142
0.0
143
0.03937007874016
144
1.0
145
0.0
146
1.0
147
0.625
 71
     0
 72
     0
 73
     0
 74
     0
 75
     0
 76
     0
 77
     1
 78
     8
170
     0
171
     3
172
     1
173
     0
174
     0
175
     0
176
     0
177
     0
178
     0
270
     2
271
     2
272
     2
273
     2
274
     3
340
11
275
     0
280
     0
281
     0
282
     0
283
     0
284
     8
285
     0
286
     0
287
     3
288
     0
  0
ENDTAB
  0
TABLE
  2
BLOCK_RECORD
  5
1
330
0
100
AcDbSymbolTable
 70
     1
  0
BLOCK_RECORD
  5
1F
330
1
100
AcDbSymbolTableRecord
100
AcDbBlockTableRecord
  2
*MODEL_SPACE
  0
BLOCK_RECORD
  5
1B
330
1
100
AcDbSymbolTableRecord
100
AcDbBlockTableRecord
  2
*PAPER_SPACE
  0
ENDTAB
  0
ENDSEC
  0
SECTION
  2
BLOCKS
  0
BLOCK
  5
20
330
1F
100
AcDbEntity
  8
0
100
AcDbBlockBegin
  2
*MODEL_SPACE
 70
     0
 10
0.0
 20
0.0
 30
0.0
  3
*MODEL_SPACE
  1

  0
ENDBLK
  5
21
330
1F
100
AcDbEntity
  8
0
100
AcDbBlockEnd
  0
BLOCK
  5
1C
330
1B
100
AcDbEntity
 67
     1
  8
0
100
AcDbBlockBegin
  2
*PAPER_SPACE
  1

  0
ENDBLK
  5
1D
330
1B
100
AcDbEntity
 67
     1
  8
0
100
AcDbBlockEnd
  0
ENDSEC
  0
SECTION
  2
ENTITIES
  0
LWPOLYLINE
  5
100
100
AcDbEntity
  8
Layer_1
 62
7
100
AcDbPolyline
 90
2
 70
0
 10
261.368680
 20
181.947770
 30
0.0
 10
293.854190
 20
253.207990
 30
0.0
  0
LWPOLYLINE
  5
101
100
AcDbEntity
  8
Layer_1
 62
7
100
AcDbPolyline
 90
6
 70
0
 10
297.350660
 20
264.788810
 30
0.0
 10
306.789670
 20
320.843430
 30
0.0
 10
306.789670
 20
321.097430
 30
0.0
 10
192.743670
 20
321.097430
 30
0.0
 10
192.743670
 20
320.843430
 30
0.0
 10
202.182680
 20
264.788810
 30
0.0
  0
SPLINE
  5
102
100
AcDbEntity
  8
Layer_1
 62
7
100
AcDbSpline
 70
8
 71
3
 72
8
 73
4
 74
0
 40
0
 40
0
 40
0
 40
0
 40
1
 40
1
 40
1
 40
1
 10
290.945286
 20
310.938080
 30
0.0
 10
290.945286
 20
310.128693
 30
0.0
 10
291.432849
 20
309.399003
 30
0.0
 10
292.180626
 20
309.089264
 30
0.0
  0
SPLINE
  5
103
100
AcDbEntity
  8
Layer_1
 62
7
100
AcDbSpline
 70
8
 71
3
 72
8
 73
4
 74
0
 40
0
 40
0
 40
0
 40
0
 40
1
 40
1
 40
1
 40
1
 10
292.180626
 20
309.089264
 30
0.0
 10
292.928402
 20
308.779525
 30
0.0
 10
293.789129
 20
308.950735
 30
0.0
 10
294.361452
 20
309.523058
 30
0.0
  0
SPLINE
  5
104
100
AcDbEntity
  8
Layer_1
 62
7
100
AcDbSpline
 70
8
 71
3
 72
8
 73
4
 74
0
 40
0
 40
0
 40
0
 40
0
 40
1
 40
1
 40
1
 40
1
 10
294.361452
 20
309.523058
 30
0.0
 10
294.933775
 20
310.095381
 30
0.0
 10
295.104985
 20
310.956108
 30
0.0
 10
294.795246
 20
311.703884
 30
0.0
  0
SPLINE
  5
105
100
AcDbEntity
  8
Layer_1
 62
7
100
AcDbSpline
 70
8
 71
3
 72
8
 73
4
 74
0
 40
0
 40
0
 40
0
 40
0
 40
1
 40
1
 40
1
 40
1
 10
294.795246
 20
311.703884
 30
0.0
 10
294.485507
 20
312.451661
 30
0.0
 10
293.755817
 20
312.939223
 30
0.0
 10
292.946430
 20
312.939223
 30
0.0
  0
SPLINE
  5
106
100
AcDbEntity
  8
Layer_1
 62
7
100
AcDbSpline
 70
8
 71
3
 72
8
 73
4
 74
0
 40
0
 40
0
 40
0
 40
0
 40
1
 40
1
 40
1
 40
1
 10
292.946430
 20
312.939223
 30
0.0
 10
292.415694
 20
312.939223
 30
0.0
 10
291.906695
 20
312.728389
 30
0.0
 10
291.531408
 20
312.353102
 30
0.0
  0
SPLINE
  5
107
100
AcDbEntity
  8
Layer_1
 62
7
100
AcDbSpline
 70
8
 71
3
 72
8
 73
4
 74
0
 40
0
 40
0
 40
0
 40
0
 40
1
 40
1
 40
1
 40
1
 10
291.531408
 20
312.353102
 30
0.0
 10
291.156121
 20
311.977815
 30
0.0
 10
290.945286
 20
311.468816
 30
0.0
 10
290.945286
 20
310.938080
 30
0.0
  0
LWPOLYLINE
  5
108
100
AcDbEntity
  8
Layer_1
 62
7
100
AcDbPolyline
 90
2
 70
0
 10
205.679150
 20
253.207990
 30
0.0
 10
238.164660
 20
181.947770
 30
0.0
  0
SPLINE
  5
109
100
AcDbEntity
  8
Layer_1
 62
7
100
AcDbSpline
 70
8
 71
3
 72
8
 73
4
 74
0
 40
0
 40
0
 40
0
 40
0
 40
1
 40
1
 40
1
 40
1
 10
290.945286
 20
294.938080
 30
0.0
 10
290.945287
 20
293.832879
 30
0.0
 10
291.841229
 20
292.936937
 30
0.0
 10
292.946430
 20
292.936937
 30
0.0
  0
SPLINE
  5
10a
100
AcDbEntity
  8
Layer_1
 62
7
100
AcDbSpline
 70
8
 71
3
 72
8
 73
4
 74
0
 40
0
 40
0
 40
0
 40
0
 40
1
 40
1
 40
1
 40
1
 10
292.946430
 20
292.936937
 30
0.0
 10
294.051631
 20
292.936937
 30
0.0
 10
294.947573
 20
293.832879
 30
0.0
 10
294.947573
 20
294.938080
 30
0.0
  0
SPLINE
  5
10b
100
AcDbEntity
  8
Layer_1
 62
7
100
AcDbSpline
 70
8
 71
3
 72
8
 73
4
 74
0
 40
0
 40
0
 40
0
 40
0
 40
1
 40
1
 40
1
 40
1
 10
294.947573
 20
294.938080
 30
0.0
 10
294.947573
 20
296.043281
 30
0.0
 10
294.051631
 20
296.939224
 30
0.0
 10
292.946430
 20
296.939224
 30
0.0
  0
SPLINE
  5
10c
100
AcDbEntity
  8
Layer_1
 62
7
100
AcDbSpline
 70
8
 71
3
 72
8
 73
4
 74
0
 40
0
 40
0
 40
0
 40
0
 40
1
 40
1
 40
1
 40
1
 10
292.946430
 20
296.939224
 30
0.0
 10
292.415694
 20
296.939224
 30
0.0
 10
291.906695
 20
296.728389
 30
0.0
 10
291.531408
 20
296.353102
 30
0.0
  0
SPLINE
  5
10d
100
AcDbEntity
  8
Layer_1
 62
7
100
AcDbSpline
 70
8
 71
3
 72
8
 73
4
 74
0
 40
0
 40
0
 40
0
 40
0
 40
1
 40
1
 40
1
 40
1
 10
291.531408
 20
296.353102
 30
0.0
 10
291.156121
 20
295.977815
 30
0.0
 10
290.945286
 20
295.468816
 30
0.0
 10
290.945286
 20
294.938080
 30
0.0
  0
LWPOLYLINE
  5
10e
100
AcDbEntity
  8
Layer_1
 62
7
100
AcDbPolyline
 90
1
 70
1
 10
290.945286
 20
310.938080
 30
0.0
  0
SPLINE
  5
10f
100
AcDbEntity
  8
Layer_1
 62
7
100
AcDbSpline
 70
8
 71
3
 72
8
 73
4
 74
0
 40
0
 40
0
 40
0
 40
0
 40
1
 40
1
 40
1
 40
1
 10
290.945286
 20
278.938080
 30
0.0
 10
290.945286
 20
277.832879
 30
0.0
 10
291.841229
 20
276.936937
 30
0.0
 10
292.946430
 20
276.936937
 30
0.0
  0
SPLINE
  5
110
100
AcDbEntity
  8
Layer_1
 62
7
100
AcDbSpline
 70
8
 71
3
 72
8
 73
4
 74
0
 40
0
 40
0
 40
0
 40
0
 40
1
 40
1
 40
1
 40
1
 10
292.946430
 20
276.936937
 30
0.0
 10
294.051631
 20
276.936937
 30
0.0
 10
294.947573
 20
277.832879
 30
0.0
 10
294.947573
 20
278.938080
 30
0.0
  0
SPLINE
  5
111
100
AcDbEntity
  8
Layer_1
 62
7
100
AcDbSpline
 70
8
 71
3
 72
8
 73
4
 74
0
 40
0
 40
0
 40
0
 40
0
 40
1
 40
1
 40
1
 40
1
 10
294.947573
 20
278.938080
 30
0.0
 10
294.947573
 20
280.043281
 30
0.0
 10
294.051631
 20
280.939224
 30
0.0
 10
292.946430
 20
280.939224
 30
0.0
  0
SPLINE
  5
112
100
AcDbEntity
  8
Layer_1
 62
7
100
AcDbSpline
 70
8
 71
3
 72
8
 73
4
 74
0
 40
0
 40
0
 40
0
 40
0
 40
1
 40
1
 40
1
 40
1
 10
292.946430
 20
280.939224
 30
0.0
 10
292.415694
 20
280.939224
 30
0.0
 10
291.906695
 20
280.728389
 30
0.0
 10
291.531408
 20
280.353102
 30
0.0
  0
SPLINE
  5
113
100
AcDbEntity
  8
Layer_1
 62
7
100
AcDbSpline
 70
8
 71
3
 72
8
 73
4
 74
0
 40
0
 40
0
 40
0
 40
0
 40
1
 40
1
 40
1
 40
1
 10
291.531408
 20
280.353102
 30
0.0
 10
291.156121
 20
279.977815
 30
0.0
 10
290.945286
 20
279.468816
 30
0.0
 10
290.945286
 20
278.938080
 30
0.0
  0
LWPOLYLINE
  5
114
100
AcDbEntity
  8
Layer_1
 62
7
100
AcDbPolyline
 90
1
 70
1
 10
290.945286
 20
294.938080
 30
0.0
  0
SPLINE
  5
115
100
AcDbEntity
  8
Layer_1
 62
7
100
AcDbSpline
 70
8
 71
3
 72
8
 73
4
 74
0
 40
0
 40
0
 40
0
 40
0
 40
1
 40
1
 40
1
 40
1
 10
204.585286
 20
310.938080
 30
0.0
 10
204.585286
 20
310.128693
 30
0.0
 10
205.072849
 20
309.399003
 30
0.0
 10
205.820626
 20
309.089264
 30
0.0
  0
SPLINE
  5
116
100
AcDbEntity
  8
Layer_1
 62
7
100
AcDbSpline
 70
8
 71
3
 72
8
 73
4
 74
0
 40
0
 40
0
 40
0
 40
0
 40
1
 40
1
 40
1
 40
1
 10
205.820626
 20
309.089264
 30
0.0
 10
206.568402
 20
308.779525
 30
0.0
 10
207.429129
 20
308.950735
 30
0.0
 10
208.001452
 20
309.523058
 30
0.0
  0
SPLINE
  5
117
100
AcDbEntity
  8
Layer_1
 62
7
100
AcDbSpline
 70
8
 71
3
 72
8
 73
4
 74
0
 40
0
 40
0
 40
0
 40
0
 40
1
 40
1
 40
1
 40
1
 10
208.001452
 20
309.523058
 30
0.0
 10
208.573775
 20
310.095381
 30
0.0
 10
208.744985
 20
310.956108
 30
0.0
 10
208.435246
 20
311.703884
 30
0.0
  0
SPLINE
  5
118
100
AcDbEntity
  8
Layer_1
 62
7
100
AcDbSpline
 70
8
 71
3
 72
8
 73
4
 74
0
 40
0
 40
0
 40
0
 40
0
 40
1
 40
1
 40
1
 40
1
 10
208.435246
 20
311.703884
 30
0.0
 10
208.125507
 20
312.451661
 30
0.0
 10
207.395817
 20
312.939223
 30
0.0
 10
206.586430
 20
312.939223
 30
0.0
  0
SPLINE
  5
119
100
AcDbEntity
  8
Layer_1
 62
7
100
AcDbSpline
 70
8
 71
3
 72
8
 73
4
 74
0
 40
0
 40
0
 40
0
 40
0
 40
1
 40
1
 40
1
 40
1
 10
206.586430
 20
312.939223
 30
0.0
 10
206.055694
 20
312.939223
 30
0.0
 10
205.546695
 20
312.728389
 30
0.0
 10
205.171408
 20
312.353102
 30
0.0
  0
SPLINE
  5
11a
100
AcDbEntity
  8
Layer_1
 62
7
100
AcDbSpline
 70
8
 71
3
 72
8
 73
4
 74
0
 40
0
 40
0
 40
0
 40
0
 40
1
 40
1
 40
1
 40
1
 10
205.171408
 20
312.353102
 30
0.0
 10
204.796121
 20
311.977815
 30
0.0
 10
204.585286
 20
311.468816
 30
0.0
 10
204.585286
 20
310.938080
 30
0.0
  0
LWPOLYLINE
  5
11b
100
AcDbEntity
  8
Layer_1
 62
7
100
AcDbPolyline
 90
1
 70
1
 10
290.945286
 20
278.938080
 30
0.0
  0
SPLINE
  5
11c
100
AcDbEntity
  8
Layer_1
 62
7
100
AcDbSpline
 70
8
 71
3
 72
8
 73
4
 74
0
 40
0
 40
0
 40
0
 40
0
 40
1
 40
1
 40
1
 40
1
 10
204.585286
 20
294.938080
 30
0.0
 10
204.585287
 20
293.832879
 30
0.0
 10
205.481229
 20
292.936937
 30
0.0
 10
206.586430
 20
292.936937
 30
0.0
  0
SPLINE
  5
11d
100
AcDbEntity
  8
Layer_1
 62
7
100
AcDbSpline
 70
8
 71
3
 72
8
 73
4
 74
0
 40
0
 40
0
 40
0
 40
0
 40
1
 40
1
 40
1
 40
1
 10
206.586430
 20
292.936937
 30
0.0
 10
207.691631
 20
292.936937
 30
0.0
 10
208.587573
 20
293.832879
 30
0.0
 10
208.587573
 20
294.938080
 30
0.0
  0
SPLINE
  5
11e
100
AcDbEntity
  8
Layer_1
 62
7
100
AcDbSpline
 70
8
 71
3
 72
8
 73
4
 74
0
 40
0
 40
0
 40
0
 40
0
 40
1
 40
1
 40
1
 40
1
 10
208.587573
 20
294.938080
 30
0.0
 10
208.587573
 20
296.043281
 30
0.0
 10
207.691631
 20
296.939224
 30
0.0
 10
206.586430
 20
296.939224
 30
0.0
  0
SPLINE
  5
11f
100
AcDbEntity
  8
Layer_1
 62
7
100
AcDbSpline
 70
8
 71
3
 72
8
 73
4
 74
0
 40
0
 40
0
 40
0
 40
0
 40
1
 40
1
 40
1
 40
1
 10
206.586430
 20
296.939224
 30
0.0
 10
206.055694
 20
296.939224
 30
0.0
 10
205.546695
 20
296.728389
 30
0.0
 10
205.171408
 20
296.353102
 30
0.0
  0
SPLINE
  5
120
100
AcDbEntity
  8
Layer_1
 62
7
100
AcDbSpline
 70
8
 71
3
 72
8
 73
4
 74
0
 40
0
 40
0
 40
0
 40
0
 40
1
 40
1
 40
1
 40
1
 10
205.171408
 20
296.353102
 30
0.0
 10
204.796121
 20
295.977815
 30
0.0
 10
204.585286
 20
295.468816
 30
0.0
 10
204.585286
 20
294.938080
 30
0.0
  0
LWPOLYLINE
  5
121
100
AcDbEntity
  8
Layer_1
 62
7
100
AcDbPolyline
 90
1
 70
1
 10
204.585286
 20
310.938080
 30
0.0
  0
SPLINE
  5
122
100
AcDbEntity
  8
Layer_1
 62
7
100
AcDbSpline
 70
8
 71
3
 72
8
 73
4
 74
0
 40
0
 40
0
 40
0
 40
0
 40
1
 40
1
 40
1
 40
1
 10
204.585286
 20
278.938080
 30
0.0
 10
204.585286
 20
277.832879
 30
0.0
 10
205.481229
 20
276.936937
 30
0.0
 10
206.586430
 20
276.936937
 30
0.0
  0
SPLINE
  5
123
100
AcDbEntity
  8
Layer_1
 62
7
100
AcDbSpline
 70
8
 71
3
 72
8
 73
4
 74
0
 40
0
 40
0
 40
0
 40
0
 40
1
 40
1
 40
1
 40
1
 10
206.586430
 20
276.936937
 30
0.0
 10
207.691631
 20
276.936937
 30
0.0
 10
208.587573
 20
277.832879
 30
0.0
 10
208.587573
 20
278.938080
 30
0.0
  0
SPLINE
  5
124
100
AcDbEntity
  8
Layer_1
 62
7
100
AcDbSpline
 70
8
 71
3
 72
8
 73
4
 74
0
 40
0
 40
0
 40
0
 40
0
 40
1
 40
1
 40
1
 40
1
 10
208.587573
 20
278.938080
 30
0.0
 10
208.587573
 20
280.043281
 30
0.0
 10
207.691631
 20
280.939224
 30
0.0
 10
206.586430
 20
280.939224
 30
0.0
  0
SPLINE
  5
125
100
AcDbEntity
  8
Layer_1
 62
7
100
AcDbSpline
 70
8
 71
3
 72
8
 73
4
 74
0
 40
0
 40
0
 40
0
 40
0
 40
1
 40
1
 40
1
 40
1
 10
206.586430
 20
280.939224
 30
0.0
 10
206.055694
 20
280.939224
 30
0.0
 10
205.546695
 20
280.728389
 30
0.0
 10
205.171408
 20
280.353102
 30
0.0
  0
SPLINE
  5
126
100
AcDbEntity
  8
Layer_1
 62
7
100
AcDbSpline
 70
8
 71
3
 72
8
 73
4
 74
0
 40
0
 40
0
 40
0
 40
0
 40
1
 40
1
 40
1
 40
1
 10
205.171408
 20
280.353102
 30
0.0
 10
204.796121
 20
279.977815
 30
0.0
 10
204.585286
 20
279.468816
 30
0.0
 10
204.585286
 20
278.938080
 30
0.0
  0
LWPOLYLINE
  5
127
100
AcDbEntity
  8
Layer_1
 62
7
100
AcDbPolyline
 90
1
 70
1
 10
204.585286
 20
294.938080
 30
0.0
  0
SPLINE
  5
128
100
AcDbEntity
  8
Layer_1
 62
7
100
AcDbSpline
 70
8
 71
3
 72
8
 73
4
 74
0
 40
0
 40
0
 40
0
 40
0
 40
1
 40
1
 40
1
 40
1
 10
249.766660
 20
299.114093
 30
0.0
 10
248.661459
 20
299.114093
 30
0.0
 10
247.765517
 20
298.218151
 30
0.0
 10
247.765517
 20
297.112950
 30
0.0
  0
SPLINE
  5
129
100
AcDbEntity
  8
Layer_1
 62
7
100
AcDbSpline
 70
8
 71
3
 72
8
 73
4
 74
0
 40
0
 40
0
 40
0
 40
0
 40
1
 40
1
 40
1
 40
1
 10
247.765517
 20
297.112950
 30
0.0
 10
247.765517
 20
296.007749
 30
0.0
 10
248.661459
 20
295.111806
 30
0.0
 10
249.766660
 20
295.111807
 30
0.0
  0
SPLINE
  5
12a
100
AcDbEntity
  8
Layer_1
 62
7
100
AcDbSpline
 70
8
 71
3
 72
8
 73
4
 74
0
 40
0
 40
0
 40
0
 40
0
 40
1
 40
1
 40
1
 40
1
 10
249.766660
 20
295.111807
 30
0.0
 10
250.871861
 20
295.111807
 30
0.0
 10
251.767804
 20
296.007749
 30
0.0
 10
251.767804
 20
297.112950
 30
0.0
  0
SPLINE
  5
12b
100
AcDbEntity
  8
Layer_1
 62
7
100
AcDbSpline
 70
8
 71
3
 72
8
 73
4
 74
0
 40
0
 40
0
 40
0
 40
0
 40
1
 40
1
 40
1
 40
1
 10
251.767804
 20
297.112950
 30
0.0
 10
251.767804
 20
297.643686
 30
0.0
 10
251.556969
 20
298.152685
 30
0.0
 10
251.181682
 20
298.527972
 30
0.0
  0
SPLINE
  5
12c
100
AcDbEntity
  8
Layer_1
 62
7
100
AcDbSpline
 70
8
 71
3
 72
8
 73
4
 74
0
 40
0
 40
0
 40
0
 40
0
 40
1
 40
1
 40
1
 40
1
 10
251.181682
 20
298.527972
 30
0.0
 10
250.806395
 20
298.903259
 30
0.0
 10
250.297396
 20
299.114093
 30
0.0
 10
249.766660
 20
299.114093
 30
0.0
  0
LWPOLYLINE
  5
12d
100
AcDbEntity
  8
Layer_1
 62
7
100
AcDbPolyline
 90
1
 70
1
 10
204.585286
 20
278.938080
 30
0.0
  0
SPLINE
  5
12e
100
AcDbEntity
  8
Layer_1
 62
7
100
AcDbSpline
 70
8
 71
3
 72
8
 73
4
 74
0
 40
0
 40
0
 40
0
 40
0
 40
1
 40
1
 40
1
 40
1
 10
205.684290
 20
253.205280
 30
0.0
 10
203.935038
 20
256.876337
 30
0.0
 10
202.758973
 20
260.774614
 30
0.0
 10
202.193970
 20
264.774570
 30
0.0
  0
SPLINE
  5
12f
100
AcDbEntity
  8
Layer_1
 62
7
100
AcDbSpline
 70
8
 71
3
 72
8
 73
4
 74
0
 40
0
 40
0
 40
0
 40
0
 40
1
 40
1
 40
1
 40
1
 10
297.346110
 20
264.773110
 30
0.0
 10
296.780535
 20
260.774164
 30
0.0
 10
295.603281
 20
256.876870
 30
0.0
 10
293.852260
 20
253.206740
 30
0.0
  0
SPLINE
  5
130
100
AcDbEntity
  8
Layer_1
 62
7
100
AcDbSpline
 70
8
 71
3
 72
8
 73
4
 74
0
 40
0
 40
0
 40
0
 40
0
 40
1
 40
1
 40
1
 40
1
 10
261.369800
 20
181.954120
 30
0.0
 10
259.331169
 20
177.369471
 30
0.0
 10
254.784152
 20
174.415081
 30
0.0
 10
249.766680
 20
174.415080
 30
0.0
  0
SPLINE
  5
131
100
AcDbEntity
  8
Layer_1
 62
7
100
AcDbSpline
 70
8
 71
3
 72
8
 73
4
 74
0
 40
0
 40
0
 40
0
 40
0
 40
1
 40
1
 40
1
 40
1
 10
249.766680
 20
174.415080
 30
0.0
 10
244.749208
 20
174.415081
 30
0.0
 10
240.202191
 20
177.369471
 30
0.0
 10
238.163560
 20
181.954120
 30
0.0
  0
SPLINE
  5
132
100
AcDbEntity
  8
Layer_1
 62
7
100
AcDbSpline
 70
8
 71
3
 72
8
 73
4
 74
0
 40
0
 40
0
 40
0
 40
0
 40
1
 40
1
 40
1
 40
1
 10
249.766680
 20
189.114764
 30
0.0
 10
248.957293
 20
189.114764
 30
0.0
 10
248.227603
 20
188.627201
 30
0.0
 10
247.917864
 20
187.879424
 30
0.0
  0
SPLINE
  5
133
100
AcDbEntity
  8
Layer_1
 62
7
100
AcDbSpline
 70
8
 71
3
 72
8
 73
4
 74
0
 40
0
 40
0
 40
0
 40
0
 40
1
 40
1
 40
1
 40
1
 10
247.917864
 20
187.879424
 30
0.0
 10
247.608125
 20
187.131648
 30
0.0
 10
247.779335
 20
186.270921
 30
0.0
 10
248.351658
 20
185.698598
 30
0.0
  0
SPLINE
  5
134
100
AcDbEntity
  8
Layer_1
 62
7
100
AcDbSpline
 70
8
 71
3
 72
8
 73
4
 74
0
 40
0
 40
0
 40
0
 40
0
 40
1
 40
1
 40
1
 40
1
 10
248.351658
 20
185.698598
 30
0.0
 10
248.923981
 20
185.126275
 30
0.0
 10
249.784708
 20
184.955065
 30
0.0
 10
250.532484
 20
185.264804
 30
0.0
  0
SPLINE
  5
135
100
AcDbEntity
  8
Layer_1
 62
7
100
AcDbSpline
 70
8
 71
3
 72
8
 73
4
 74
0
 40
0
 40
0
 40
0
 40
0
 40
1
 40
1
 40
1
 40
1
 10
250.532484
 20
185.264804
 30
0.0
 10
251.280261
 20
185.574543
 30
0.0
 10
251.767824
 20
186.304233
 30
0.0
 10
251.767824
 20
187.113620
 30
0.0
  0
SPLINE
  5
136
100
AcDbEntity
  8
Layer_1
 62
7
100
AcDbSpline
 70
8
 71
3
 72
8
 73
4
 74
0
 40
0
 40
0
 40
0
 40
0
 40
1
 40
1
 40
1
 40
1
 10
251.767824
 20
187.113620
 30
0.0
 10
251.767824
 20
187.644356
 30
0.0
 10
251.556989
 20
188.153355
 30
0.0
 10
251.181702
 20
188.528642
 30
0.0
  0
SPLINE
  5
137
100
AcDbEntity
  8
Layer_1
 62
7
100
AcDbSpline
 70
8
 71
3
 72
8
 73
4
 74
0
 40
0
 40
0
 40
0
 40
0
 40
1
 40
1
 40
1
 40
1
 10
251.181702
 20
188.528642
 30
0.0
 10
250.806415
 20
188.903929
 30
0.0
 10
250.297416
 20
189.114764
 30
0.0
 10
249.766680
 20
189.114764
 30
0.0
  0
LWPOLYLINE
  5
138
100
AcDbEntity
  8
Layer_1
 62
7
100
AcDbPolyline
 90
1
 70
1
 10
249.766660
 20
299.114093
 30
0.0
  0
LWPOLYLINE
  5
139
100
AcDbEntity
  8
Layer_1
 62
7
100
AcDbPolyline
 90
1
 70
1
 10
249.766680
 20
189.114764
 30
0.0
  0
ENDSEC
  0
SECTION
  2
OBJECTS
  0
DICTIONARY
  5
C
330
0
100
AcDbDictionary
  3
ACAD_GROUP
350
D
  3
ACAD_MLINESTYLE
350
17
  0
DICTIONARY
  5
D
330
C
100
AcDbDictionary
  0
DICTIONARY
  5
1A
330
C
100
AcDbDictionary
  0
DICTIONARY
  5
17
330
C
100
AcDbDictionary
  3
STANDARD
350
18
  0
DICTIONARY
  5
19
330
C
100
AcDbDictionary
  0
ENDSEC
  0
EOF
