  0
SECTION
  2
HEADER
  9
$ACADVER
  1
AC1014
  9
$HANDSEED
  5
FFFF
  9
$INSUNITS
 70
     4
  9
$MEASUREMENT
 70
     1
  0
ENDSEC
  0
SECTION
  2
TABLES
  0
TABLE
  2
VPORT
  5
8
330
0
100
AcDbSymbolTable
 70
     4
  0
VPORT
  5
2E
330
8
100
AcDbSymbolTableRecord
100
AcDbViewportTableRecord
  2
*ACTIVE
 70
     0
 10
0.0
 20
0.0
 11
1.0
 21
1.0
 12
210.0
 22
148.5
 13
0.0
 23
0.0
 14
10.0
 24
10.0
 15
10.0
 25
10.0
 16
0.0
 26
0.0
 36
1.0
 17
0.0
 27
0.0
 37
0.0
 40
341.0
 41
1.24
 42
50.0
 43
0.0
 44
0.0
 50
0.0
 51
0.0
 71
     0
 72
   100
 73
     1
 74
     3
 75
     0
 76
     0
 77
     0
 78
     0
  0
ENDTAB
  0
TABLE
  2
LTYPE
  5
5
330
0
100
AcDbSymbolTable
 70
     1
  0
LTYPE
  5
14
330
5
100
AcDbSymbolTableRecord
100
AcDbLinetypeTableRecord
  2
BYBLOCK
 70
     0
  3

 72
    65
 73
     0
 40
0.0
  0
LTYPE
  5
15
330
5
100
AcDbSymbolTableRecord
100
AcDbLinetypeTableRecord
  2
BYLAYER
 70
     0
  3

 72
    65
 73
     0
 40
0.0
  0
LTYPE
  5
16
330
5
100
AcDbSymbolTableRecord
100
AcDbLinetypeTableRecord
  2
CONTINUOUS
 70
     0
  3
Solid line
 72
    65
 73
     0
 40
0.0
  0
ENDTAB
  0
TABLE
  2
LAYER
  5
2
100
AcDbSymbolTable
 70
2
  0
LAYER
  5
50
100
AcDbSymbolTableRecord
100
AcDbLayerTableRecord
  2
0
 70
0
  6
CONTINUOUS
  0
LAYER
  5
51
100
AcDbSymbolTableRecord
100
AcDbLayerTableRecord
  2
Layer_1
 70
0
  6
CONTINUOUS
  0
ENDTAB
  0
TABLE
  2
STYLE
  5
3
330
0
100
AcDbSymbolTable
 70
     1
  0
STYLE
  5
11
330
3
100
AcDbSymbolTableRecord
100
AcDbTextStyleTableRecord
  2
STANDARD
 70
     0
 40
0.0
 41
1.0
 50
0.0
 71
     0
 42
2.5
  3
txt
  4

  0
ENDTAB
  0
TABLE
  2
VIEW
  5
6
330
0
100
AcDbSymbolTable
 70
     0
  0
ENDTAB
  0
TABLE
  2
UCS
  5
7
330
0
100
AcDbSymbolTable
 70
     0
  0
ENDTAB
  0
TABLE
  2
APPID
  5
9
330
0
100
AcDbSymbolTable
 70
     2
  0
APPID
  5
12
330
9
100
AcDbSymbolTableRecord
100
AcDbRegAppTableRecord
  2
ACAD
 70
     0
  0
ENDTAB
  0
TABLE
  2
DIMSTYLE
  5
A
330
0
100
AcDbSymbolTable
 70
     1
  0
DIMSTYLE
105
27
330
A
100
AcDbSymbolTableRecord
100
AcDbDimStyleTableRecord
  2
ISO-25
 70
     0
  3

  4

  5

  6

  7

 40
1.0
 41
2.5
 42
0.625
 43
3.75
 44
1.25
 45
0.0
 46
0.0
 47
0.0
 48
0.0
140
2.5
141
2.5
142
0.0
143
0.03937007874016
144
1.0
145
0.0
146
1.0
147
0.625
 71
     0
 72
     0
 73
     0
 74
     0
 75
     0
 76
     0
 77
     1
 78
     8
170
     0
171
     3
172
     1
173
     0
174
     0
175
     0
176
     0
177
     0
178
     0
270
     2
271
     2
272
     2
273
     2
274
     3
340
11
275
     0
280
     0
281
     0
282
     0
283
     0
284
     8
285
     0
286
     0
287
     3
288
     0
  0
ENDTAB
  0
TABLE
  2
BLOCK_RECORD
  5
1
330
0
100
AcDbSymbolTable
 70
     1
  0
BLOCK_RECORD
  5
1F
330
1
100
AcDbSymbolTableRecord
100
AcDbBlockTableRecord
  2
*MODEL_SPACE
  0
BLOCK_RECORD
  5
1B
330
1
100
AcDbSymbolTableRecord
100
AcDbBlockTableRecord
  2
*PAPER_SPACE
  0
ENDTAB
  0
ENDSEC
  0
SECTION
  2
BLOCKS
  0
BLOCK
  5
20
330
1F
100
AcDbEntity
  8
0
100
AcDbBlockBegin
  2
*MODEL_SPACE
 70
     0
 10
0.0
 20
0.0
 30
0.0
  3
*MODEL_SPACE
  1

  0
ENDBLK
  5
21
330
1F
100
AcDbEntity
  8
0
100
AcDbBlockEnd
  0
BLOCK
  5
1C
330
1B
100
AcDbEntity
 67
     1
  8
0
100
AcDbBlockBegin
  2
*PAPER_SPACE
  1

  0
ENDBLK
  5
1D
330
1B
100
AcDbEntity
 67
     1
  8
0
100
AcDbBlockEnd
  0
ENDSEC
  0
SECTION
  2
ENTITIES
  0
LWPOLYLINE
  5
100
100
AcDbEntity
  8
Layer_1
 62
7
100
AcDbPolyline
 90
3
 70
0
 10
407.511140
 20
139.123500
 30
0.0
 10
407.511140
 20
180.763620
 30
0.0
 10
447.285020
 20
180.763620
 30
0.0
  0
LWPOLYLINE
  5
101
100
AcDbEntity
  8
Layer_1
 62
7
100
AcDbPolyline
 90
2
 70
0
 10
450.056250
 20
199.051620
 30
0.0
 10
450.056250
 20
269.663620
 30
0.0
  0
LWPOLYLINE
  5
102
100
AcDbEntity
  8
Layer_1
 62
7
100
AcDbPolyline
 90
24
 70
0
 10
448.674600
 20
272.597850
 30
0.0
 10
420.088220
 20
296.199210
 30
0.0
 10
418.525320
 20
297.438260
 30
0.0
 10
416.911370
 20
298.610620
 30
0.0
 10
415.249860
 20
299.714730
 30
0.0
 10
413.543750
 20
300.748190
 30
0.0
 10
411.795460
 20
301.708890
 30
0.0
 10
410.008650
 20
302.596040
 30
0.0
 10
408.186360
 20
303.407260
 30
0.0
 10
406.331740
 20
304.141740
 30
0.0
 10
404.448140
 20
304.797380
 30
0.0
 10
402.538250
 20
305.374170
 30
0.0
 10
400.606150
 20
305.870260
 30
0.0
 10
398.655120
 20
306.285130
 30
0.0
 10
396.688180
 20
306.617440
 30
0.0
 10
394.709250
 20
306.867480
 30
0.0
 10
392.721390
 20
307.034430
 30
0.0
 10
390.728480
 20
307.118330
 30
0.0
 10
388.734020
 20
307.118300
 30
0.0
 10
386.741110
 20
307.034400
 30
0.0
 10
384.753250
 20
306.867480
 30
0.0
 10
382.774320
 20
306.617440
 30
0.0
 10
380.807380
 20
306.285130
 30
0.0
 10
378.856350
 20
305.870260
 30
0.0
  0
LWPOLYLINE
  5
103
100
AcDbEntity
  8
Layer_1
 62
7
100
AcDbPolyline
 90
2
 70
0
 10
227.806820
 20
269.729660
 30
0.0
 10
227.806820
 20
252.998690
 30
0.0
  0
SPLINE
  5
104
100
AcDbEntity
  8
Layer_1
 62
7
100
AcDbSpline
 70
8
 71
3
 72
8
 73
4
 74
0
 40
0
 40
0
 40
0
 40
0
 40
1
 40
1
 40
1
 40
1
 10
232.886250
 20
261.504764
 30
0.0
 10
232.076863
 20
261.504764
 30
0.0
 10
231.347173
 20
261.017201
 30
0.0
 10
231.037434
 20
260.269424
 30
0.0
  0
SPLINE
  5
105
100
AcDbEntity
  8
Layer_1
 62
7
100
AcDbSpline
 70
8
 71
3
 72
8
 73
4
 74
0
 40
0
 40
0
 40
0
 40
0
 40
1
 40
1
 40
1
 40
1
 10
231.037434
 20
260.269424
 30
0.0
 10
230.727695
 20
259.521648
 30
0.0
 10
230.898905
 20
258.660921
 30
0.0
 10
231.471228
 20
258.088598
 30
0.0
  0
SPLINE
  5
106
100
AcDbEntity
  8
Layer_1
 62
7
100
AcDbSpline
 70
8
 71
3
 72
8
 73
4
 74
0
 40
0
 40
0
 40
0
 40
0
 40
1
 40
1
 40
1
 40
1
 10
231.471228
 20
258.088598
 30
0.0
 10
232.043551
 20
257.516275
 30
0.0
 10
232.904278
 20
257.345065
 30
0.0
 10
233.652054
 20
257.654804
 30
0.0
  0
SPLINE
  5
107
100
AcDbEntity
  8
Layer_1
 62
7
100
AcDbSpline
 70
8
 71
3
 72
8
 73
4
 74
0
 40
0
 40
0
 40
0
 40
0
 40
1
 40
1
 40
1
 40
1
 10
233.652054
 20
257.654804
 30
0.0
 10
234.399831
 20
257.964543
 30
0.0
 10
234.887394
 20
258.694233
 30
0.0
 10
234.887394
 20
259.503620
 30
0.0
  0
SPLINE
  5
108
100
AcDbEntity
  8
Layer_1
 62
7
100
AcDbSpline
 70
8
 71
3
 72
8
 73
4
 74
0
 40
0
 40
0
 40
0
 40
0
 40
1
 40
1
 40
1
 40
1
 10
234.887394
 20
259.503620
 30
0.0
 10
234.887394
 20
260.034356
 30
0.0
 10
234.676559
 20
260.543355
 30
0.0
 10
234.301272
 20
260.918642
 30
0.0
  0
SPLINE
  5
109
100
AcDbEntity
  8
Layer_1
 62
7
100
AcDbSpline
 70
8
 71
3
 72
8
 73
4
 74
0
 40
0
 40
0
 40
0
 40
0
 40
1
 40
1
 40
1
 40
1
 10
234.301272
 20
260.918642
 30
0.0
 10
233.925985
 20
261.293929
 30
0.0
 10
233.416986
 20
261.504764
 30
0.0
 10
232.886250
 20
261.504764
 30
0.0
  0
LWPOLYLINE
  5
10a
100
AcDbEntity
  8
Layer_1
 62
7
100
AcDbPolyline
 90
2
 70
0
 10
285.607730
 20
135.477540
 30
0.0
 10
388.215170
 20
135.564840
 30
0.0
  0
SPLINE
  5
10b
100
AcDbEntity
  8
Layer_1
 62
7
100
AcDbSpline
 70
8
 71
3
 72
8
 73
4
 74
0
 40
0
 40
0
 40
0
 40
0
 40
1
 40
1
 40
1
 40
1
 10
236.313660
 20
228.896054
 30
0.0
 10
235.504273
 20
228.896054
 30
0.0
 10
234.774583
 20
228.408491
 30
0.0
 10
234.464844
 20
227.660714
 30
0.0
  0
SPLINE
  5
10c
100
AcDbEntity
  8
Layer_1
 62
7
100
AcDbSpline
 70
8
 71
3
 72
8
 73
4
 74
0
 40
0
 40
0
 40
0
 40
0
 40
1
 40
1
 40
1
 40
1
 10
234.464844
 20
227.660714
 30
0.0
 10
234.155105
 20
226.912938
 30
0.0
 10
234.326315
 20
226.052211
 30
0.0
 10
234.898638
 20
225.479888
 30
0.0
  0
SPLINE
  5
10d
100
AcDbEntity
  8
Layer_1
 62
7
100
AcDbSpline
 70
8
 71
3
 72
8
 73
4
 74
0
 40
0
 40
0
 40
0
 40
0
 40
1
 40
1
 40
1
 40
1
 10
234.898638
 20
225.479888
 30
0.0
 10
235.470961
 20
224.907565
 30
0.0
 10
236.331688
 20
224.736355
 30
0.0
 10
237.079464
 20
225.046094
 30
0.0
  0
SPLINE
  5
10e
100
AcDbEntity
  8
Layer_1
 62
7
100
AcDbSpline
 70
8
 71
3
 72
8
 73
4
 74
0
 40
0
 40
0
 40
0
 40
0
 40
1
 40
1
 40
1
 40
1
 10
237.079464
 20
225.046094
 30
0.0
 10
237.827241
 20
225.355833
 30
0.0
 10
238.314804
 20
226.085523
 30
0.0
 10
238.314804
 20
226.894910
 30
0.0
  0
SPLINE
  5
10f
100
AcDbEntity
  8
Layer_1
 62
7
100
AcDbSpline
 70
8
 71
3
 72
8
 73
4
 74
0
 40
0
 40
0
 40
0
 40
0
 40
1
 40
1
 40
1
 40
1
 10
238.314804
 20
226.894910
 30
0.0
 10
238.314804
 20
227.425646
 30
0.0
 10
238.103969
 20
227.934645
 30
0.0
 10
237.728682
 20
228.309932
 30
0.0
  0
SPLINE
  5
110
100
AcDbEntity
  8
Layer_1
 62
7
100
AcDbSpline
 70
8
 71
3
 72
8
 73
4
 74
0
 40
0
 40
0
 40
0
 40
0
 40
1
 40
1
 40
1
 40
1
 10
237.728682
 20
228.309932
 30
0.0
 10
237.353395
 20
228.685219
 30
0.0
 10
236.844396
 20
228.896054
 30
0.0
 10
236.313660
 20
228.896054
 30
0.0
  0
LWPOLYLINE
  5
111
100
AcDbEntity
  8
Layer_1
 62
7
100
AcDbPolyline
 90
1
 70
1
 10
232.886250
 20
261.504764
 30
0.0
  0
SPLINE
  5
112
100
AcDbEntity
  8
Layer_1
 62
7
100
AcDbSpline
 70
8
 71
3
 72
8
 73
4
 74
0
 40
0
 40
0
 40
0
 40
0
 40
1
 40
1
 40
1
 40
1
 10
246.446230
 20
197.709744
 30
0.0
 10
245.341029
 20
197.709743
 30
0.0
 10
244.445087
 20
196.813801
 30
0.0
 10
244.445087
 20
195.708600
 30
0.0
  0
SPLINE
  5
113
100
AcDbEntity
  8
Layer_1
 62
7
100
AcDbSpline
 70
8
 71
3
 72
8
 73
4
 74
0
 40
0
 40
0
 40
0
 40
0
 40
1
 40
1
 40
1
 40
1
 10
244.445087
 20
195.708600
 30
0.0
 10
244.445087
 20
194.603399
 30
0.0
 10
245.341029
 20
193.707456
 30
0.0
 10
246.446230
 20
193.707456
 30
0.0
  0
SPLINE
  5
114
100
AcDbEntity
  8
Layer_1
 62
7
100
AcDbSpline
 70
8
 71
3
 72
8
 73
4
 74
0
 40
0
 40
0
 40
0
 40
0
 40
1
 40
1
 40
1
 40
1
 10
246.446230
 20
193.707456
 30
0.0
 10
247.551431
 20
193.707456
 30
0.0
 10
248.447374
 20
194.603399
 30
0.0
 10
248.447374
 20
195.708600
 30
0.0
  0
SPLINE
  5
115
100
AcDbEntity
  8
Layer_1
 62
7
100
AcDbSpline
 70
8
 71
3
 72
8
 73
4
 74
0
 40
0
 40
0
 40
0
 40
0
 40
1
 40
1
 40
1
 40
1
 10
248.447374
 20
195.708600
 30
0.0
 10
248.447374
 20
196.239336
 30
0.0
 10
248.236539
 20
196.748335
 30
0.0
 10
247.861252
 20
197.123622
 30
0.0
  0
SPLINE
  5
116
100
AcDbEntity
  8
Layer_1
 62
7
100
AcDbSpline
 70
8
 71
3
 72
8
 73
4
 74
0
 40
0
 40
0
 40
0
 40
0
 40
1
 40
1
 40
1
 40
1
 10
247.861252
 20
197.123622
 30
0.0
 10
247.485965
 20
197.498909
 30
0.0
 10
246.976966
 20
197.709744
 30
0.0
 10
246.446230
 20
197.709744
 30
0.0
  0
LWPOLYLINE
  5
117
100
AcDbEntity
  8
Layer_1
 62
7
100
AcDbPolyline
 90
1
 70
1
 10
236.313660
 20
228.896054
 30
0.0
  0
SPLINE
  5
118
100
AcDbEntity
  8
Layer_1
 62
7
100
AcDbSpline
 70
8
 71
3
 72
8
 73
4
 74
0
 40
0
 40
0
 40
0
 40
0
 40
1
 40
1
 40
1
 40
1
 10
262.841250
 20
169.314684
 30
0.0
 10
262.031863
 20
169.314683
 30
0.0
 10
261.302173
 20
168.827121
 30
0.0
 10
260.992434
 20
168.079344
 30
0.0
  0
SPLINE
  5
119
100
AcDbEntity
  8
Layer_1
 62
7
100
AcDbSpline
 70
8
 71
3
 72
8
 73
4
 74
0
 40
0
 40
0
 40
0
 40
0
 40
1
 40
1
 40
1
 40
1
 10
260.992434
 20
168.079344
 30
0.0
 10
260.682695
 20
167.331568
 30
0.0
 10
260.853905
 20
166.470841
 30
0.0
 10
261.426228
 20
165.898518
 30
0.0
  0
SPLINE
  5
11a
100
AcDbEntity
  8
Layer_1
 62
7
100
AcDbSpline
 70
8
 71
3
 72
8
 73
4
 74
0
 40
0
 40
0
 40
0
 40
0
 40
1
 40
1
 40
1
 40
1
 10
261.426228
 20
165.898518
 30
0.0
 10
261.998551
 20
165.326195
 30
0.0
 10
262.859278
 20
165.154985
 30
0.0
 10
263.607054
 20
165.464724
 30
0.0
  0
SPLINE
  5
11b
100
AcDbEntity
  8
Layer_1
 62
7
100
AcDbSpline
 70
8
 71
3
 72
8
 73
4
 74
0
 40
0
 40
0
 40
0
 40
0
 40
1
 40
1
 40
1
 40
1
 10
263.607054
 20
165.464724
 30
0.0
 10
264.354831
 20
165.774463
 30
0.0
 10
264.842394
 20
166.504153
 30
0.0
 10
264.842394
 20
167.313540
 30
0.0
  0
SPLINE
  5
11c
100
AcDbEntity
  8
Layer_1
 62
7
100
AcDbSpline
 70
8
 71
3
 72
8
 73
4
 74
0
 40
0
 40
0
 40
0
 40
0
 40
1
 40
1
 40
1
 40
1
 10
264.842394
 20
167.313540
 30
0.0
 10
264.842394
 20
167.844276
 30
0.0
 10
264.631559
 20
168.353275
 30
0.0
 10
264.256272
 20
168.728562
 30
0.0
  0
SPLINE
  5
11d
100
AcDbEntity
  8
Layer_1
 62
7
100
AcDbSpline
 70
8
 71
3
 72
8
 73
4
 74
0
 40
0
 40
0
 40
0
 40
0
 40
1
 40
1
 40
1
 40
1
 10
264.256272
 20
168.728562
 30
0.0
 10
263.880985
 20
169.103849
 30
0.0
 10
263.371986
 20
169.314683
 30
0.0
 10
262.841250
 20
169.314683
 30
0.0
  0
LWPOLYLINE
  5
11e
100
AcDbEntity
  8
Layer_1
 62
7
100
AcDbPolyline
 90
1
 70
1
 10
246.446230
 20
197.709744
 30
0.0
  0
SPLINE
  5
11f
100
AcDbEntity
  8
Layer_1
 62
7
100
AcDbSpline
 70
8
 71
3
 72
8
 73
4
 74
0
 40
0
 40
0
 40
0
 40
0
 40
1
 40
1
 40
1
 40
1
 10
284.781310
 20
144.946544
 30
0.0
 10
283.971923
 20
144.946544
 30
0.0
 10
283.242233
 20
144.458981
 30
0.0
 10
282.932494
 20
143.711204
 30
0.0
  0
SPLINE
  5
120
100
AcDbEntity
  8
Layer_1
 62
7
100
AcDbSpline
 70
8
 71
3
 72
8
 73
4
 74
0
 40
0
 40
0
 40
0
 40
0
 40
1
 40
1
 40
1
 40
1
 10
282.932494
 20
143.711204
 30
0.0
 10
282.622755
 20
142.963428
 30
0.0
 10
282.793965
 20
142.102701
 30
0.0
 10
283.366288
 20
141.530378
 30
0.0
  0
SPLINE
  5
121
100
AcDbEntity
  8
Layer_1
 62
7
100
AcDbSpline
 70
8
 71
3
 72
8
 73
4
 74
0
 40
0
 40
0
 40
0
 40
0
 40
1
 40
1
 40
1
 40
1
 10
283.366288
 20
141.530378
 30
0.0
 10
283.938611
 20
140.958055
 30
0.0
 10
284.799338
 20
140.786845
 30
0.0
 10
285.547114
 20
141.096584
 30
0.0
  0
SPLINE
  5
122
100
AcDbEntity
  8
Layer_1
 62
7
100
AcDbSpline
 70
8
 71
3
 72
8
 73
4
 74
0
 40
0
 40
0
 40
0
 40
0
 40
1
 40
1
 40
1
 40
1
 10
285.547114
 20
141.096584
 30
0.0
 10
286.294891
 20
141.406323
 30
0.0
 10
286.782454
 20
142.136013
 30
0.0
 10
286.782454
 20
142.945400
 30
0.0
  0
SPLINE
  5
123
100
AcDbEntity
  8
Layer_1
 62
7
100
AcDbSpline
 70
8
 71
3
 72
8
 73
4
 74
0
 40
0
 40
0
 40
0
 40
0
 40
1
 40
1
 40
1
 40
1
 10
286.782454
 20
142.945400
 30
0.0
 10
286.782454
 20
143.476136
 30
0.0
 10
286.571619
 20
143.985135
 30
0.0
 10
286.196332
 20
144.360422
 30
0.0
  0
SPLINE
  5
124
100
AcDbEntity
  8
Layer_1
 62
7
100
AcDbSpline
 70
8
 71
3
 72
8
 73
4
 74
0
 40
0
 40
0
 40
0
 40
0
 40
1
 40
1
 40
1
 40
1
 10
286.196332
 20
144.360422
 30
0.0
 10
285.821045
 20
144.735709
 30
0.0
 10
285.312046
 20
144.946544
 30
0.0
 10
284.781310
 20
144.946544
 30
0.0
  0
LWPOLYLINE
  5
125
100
AcDbEntity
  8
Layer_1
 62
7
100
AcDbPolyline
 90
1
 70
1
 10
262.841250
 20
169.314683
 30
0.0
  0
SPLINE
  5
126
100
AcDbEntity
  8
Layer_1
 62
7
100
AcDbSpline
 70
8
 71
3
 72
8
 73
4
 74
0
 40
0
 40
0
 40
0
 40
0
 40
1
 40
1
 40
1
 40
1
 10
316.071500
 20
277.504123
 30
0.0
 10
315.262113
 20
277.504123
 30
0.0
 10
314.532423
 20
277.016561
 30
0.0
 10
314.222684
 20
276.268784
 30
0.0
  0
SPLINE
  5
127
100
AcDbEntity
  8
Layer_1
 62
7
100
AcDbSpline
 70
8
 71
3
 72
8
 73
4
 74
0
 40
0
 40
0
 40
0
 40
0
 40
1
 40
1
 40
1
 40
1
 10
314.222684
 20
276.268784
 30
0.0
 10
313.912945
 20
275.521008
 30
0.0
 10
314.084155
 20
274.660281
 30
0.0
 10
314.656478
 20
274.087958
 30
0.0
  0
SPLINE
  5
128
100
AcDbEntity
  8
Layer_1
 62
7
100
AcDbSpline
 70
8
 71
3
 72
8
 73
4
 74
0
 40
0
 40
0
 40
0
 40
0
 40
1
 40
1
 40
1
 40
1
 10
314.656478
 20
274.087958
 30
0.0
 10
315.228801
 20
273.515635
 30
0.0
 10
316.089528
 20
273.344425
 30
0.0
 10
316.837304
 20
273.654164
 30
0.0
  0
SPLINE
  5
129
100
AcDbEntity
  8
Layer_1
 62
7
100
AcDbSpline
 70
8
 71
3
 72
8
 73
4
 74
0
 40
0
 40
0
 40
0
 40
0
 40
1
 40
1
 40
1
 40
1
 10
316.837304
 20
273.654164
 30
0.0
 10
317.585081
 20
273.963903
 30
0.0
 10
318.072644
 20
274.693593
 30
0.0
 10
318.072644
 20
275.502980
 30
0.0
  0
SPLINE
  5
12a
100
AcDbEntity
  8
Layer_1
 62
7
100
AcDbSpline
 70
8
 71
3
 72
8
 73
4
 74
0
 40
0
 40
0
 40
0
 40
0
 40
1
 40
1
 40
1
 40
1
 10
318.072644
 20
275.502980
 30
0.0
 10
318.072644
 20
276.033716
 30
0.0
 10
317.861809
 20
276.542715
 30
0.0
 10
317.486522
 20
276.918002
 30
0.0
  0
SPLINE
  5
12b
100
AcDbEntity
  8
Layer_1
 62
7
100
AcDbSpline
 70
8
 71
3
 72
8
 73
4
 74
0
 40
0
 40
0
 40
0
 40
0
 40
1
 40
1
 40
1
 40
1
 10
317.486522
 20
276.918002
 30
0.0
 10
317.111235
 20
277.293289
 30
0.0
 10
316.602236
 20
277.504124
 30
0.0
 10
316.071500
 20
277.504124
 30
0.0
  0
LWPOLYLINE
  5
12c
100
AcDbEntity
  8
Layer_1
 62
7
100
AcDbPolyline
 90
1
 70
1
 10
284.781310
 20
144.946544
 30
0.0
  0
SPLINE
  5
12d
100
AcDbEntity
  8
Layer_1
 62
7
100
AcDbSpline
 70
8
 71
3
 72
8
 73
4
 74
0
 40
0
 40
0
 40
0
 40
0
 40
1
 40
1
 40
1
 40
1
 10
341.471530
 20
277.504123
 30
0.0
 10
340.366329
 20
277.504123
 30
0.0
 10
339.470387
 20
276.608181
 30
0.0
 10
339.470387
 20
275.502980
 30
0.0
  0
SPLINE
  5
12e
100
AcDbEntity
  8
Layer_1
 62
7
100
AcDbSpline
 70
8
 71
3
 72
8
 73
4
 74
0
 40
0
 40
0
 40
0
 40
0
 40
1
 40
1
 40
1
 40
1
 10
339.470387
 20
275.502980
 30
0.0
 10
339.470387
 20
274.397779
 30
0.0
 10
340.366329
 20
273.501836
 30
0.0
 10
341.471530
 20
273.501836
 30
0.0
  0
SPLINE
  5
12f
100
AcDbEntity
  8
Layer_1
 62
7
100
AcDbSpline
 70
8
 71
3
 72
8
 73
4
 74
0
 40
0
 40
0
 40
0
 40
0
 40
1
 40
1
 40
1
 40
1
 10
341.471530
 20
273.501836
 30
0.0
 10
342.576731
 20
273.501836
 30
0.0
 10
343.472674
 20
274.397779
 30
0.0
 10
343.472674
 20
275.502980
 30
0.0
  0
SPLINE
  5
130
100
AcDbEntity
  8
Layer_1
 62
7
100
AcDbSpline
 70
8
 71
3
 72
8
 73
4
 74
0
 40
0
 40
0
 40
0
 40
0
 40
1
 40
1
 40
1
 40
1
 10
343.472674
 20
275.502980
 30
0.0
 10
343.472674
 20
276.033716
 30
0.0
 10
343.261839
 20
276.542715
 30
0.0
 10
342.886552
 20
276.918002
 30
0.0
  0
SPLINE
  5
131
100
AcDbEntity
  8
Layer_1
 62
7
100
AcDbSpline
 70
8
 71
3
 72
8
 73
4
 74
0
 40
0
 40
0
 40
0
 40
0
 40
1
 40
1
 40
1
 40
1
 10
342.886552
 20
276.918002
 30
0.0
 10
342.511265
 20
277.293289
 30
0.0
 10
342.002266
 20
277.504123
 30
0.0
 10
341.471530
 20
277.504123
 30
0.0
  0
LWPOLYLINE
  5
132
100
AcDbEntity
  8
Layer_1
 62
7
100
AcDbPolyline
 90
1
 70
1
 10
316.071500
 20
277.504124
 30
0.0
  0
SPLINE
  5
133
100
AcDbEntity
  8
Layer_1
 62
7
100
AcDbSpline
 70
8
 71
3
 72
8
 73
4
 74
0
 40
0
 40
0
 40
0
 40
0
 40
1
 40
1
 40
1
 40
1
 10
366.871400
 20
277.504123
 30
0.0
 10
366.062013
 20
277.504123
 30
0.0
 10
365.332323
 20
277.016561
 30
0.0
 10
365.022584
 20
276.268784
 30
0.0
  0
SPLINE
  5
134
100
AcDbEntity
  8
Layer_1
 62
7
100
AcDbSpline
 70
8
 71
3
 72
8
 73
4
 74
0
 40
0
 40
0
 40
0
 40
0
 40
1
 40
1
 40
1
 40
1
 10
365.022584
 20
276.268784
 30
0.0
 10
364.712845
 20
275.521008
 30
0.0
 10
364.884055
 20
274.660281
 30
0.0
 10
365.456378
 20
274.087958
 30
0.0
  0
SPLINE
  5
135
100
AcDbEntity
  8
Layer_1
 62
7
100
AcDbSpline
 70
8
 71
3
 72
8
 73
4
 74
0
 40
0
 40
0
 40
0
 40
0
 40
1
 40
1
 40
1
 40
1
 10
365.456378
 20
274.087958
 30
0.0
 10
366.028701
 20
273.515635
 30
0.0
 10
366.889428
 20
273.344425
 30
0.0
 10
367.637204
 20
273.654164
 30
0.0
  0
SPLINE
  5
136
100
AcDbEntity
  8
Layer_1
 62
7
100
AcDbSpline
 70
8
 71
3
 72
8
 73
4
 74
0
 40
0
 40
0
 40
0
 40
0
 40
1
 40
1
 40
1
 40
1
 10
367.637204
 20
273.654164
 30
0.0
 10
368.384981
 20
273.963903
 30
0.0
 10
368.872544
 20
274.693593
 30
0.0
 10
368.872544
 20
275.502980
 30
0.0
  0
SPLINE
  5
137
100
AcDbEntity
  8
Layer_1
 62
7
100
AcDbSpline
 70
8
 71
3
 72
8
 73
4
 74
0
 40
0
 40
0
 40
0
 40
0
 40
1
 40
1
 40
1
 40
1
 10
368.872544
 20
275.502980
 30
0.0
 10
368.872544
 20
276.033716
 30
0.0
 10
368.661709
 20
276.542715
 30
0.0
 10
368.286422
 20
276.918002
 30
0.0
  0
SPLINE
  5
138
100
AcDbEntity
  8
Layer_1
 62
7
100
AcDbSpline
 70
8
 71
3
 72
8
 73
4
 74
0
 40
0
 40
0
 40
0
 40
0
 40
1
 40
1
 40
1
 40
1
 10
368.286422
 20
276.918002
 30
0.0
 10
367.911135
 20
277.293289
 30
0.0
 10
367.402136
 20
277.504124
 30
0.0
 10
366.871400
 20
277.504124
 30
0.0
  0
LWPOLYLINE
  5
139
100
AcDbEntity
  8
Layer_1
 62
7
100
AcDbPolyline
 90
1
 70
1
 10
341.471530
 20
277.504123
 30
0.0
  0
SPLINE
  5
13a
100
AcDbEntity
  8
Layer_1
 62
7
100
AcDbSpline
 70
8
 71
3
 72
8
 73
4
 74
0
 40
0
 40
0
 40
0
 40
0
 40
1
 40
1
 40
1
 40
1
 10
316.071500
 20
245.505403
 30
0.0
 10
315.262113
 20
245.505403
 30
0.0
 10
314.532423
 20
245.017841
 30
0.0
 10
314.222684
 20
244.270064
 30
0.0
  0
SPLINE
  5
13b
100
AcDbEntity
  8
Layer_1
 62
7
100
AcDbSpline
 70
8
 71
3
 72
8
 73
4
 74
0
 40
0
 40
0
 40
0
 40
0
 40
1
 40
1
 40
1
 40
1
 10
314.222684
 20
244.270064
 30
0.0
 10
313.912945
 20
243.522288
 30
0.0
 10
314.084155
 20
242.661561
 30
0.0
 10
314.656478
 20
242.089238
 30
0.0
  0
SPLINE
  5
13c
100
AcDbEntity
  8
Layer_1
 62
7
100
AcDbSpline
 70
8
 71
3
 72
8
 73
4
 74
0
 40
0
 40
0
 40
0
 40
0
 40
1
 40
1
 40
1
 40
1
 10
314.656478
 20
242.089238
 30
0.0
 10
315.228801
 20
241.516915
 30
0.0
 10
316.089528
 20
241.345705
 30
0.0
 10
316.837304
 20
241.655444
 30
0.0
  0
SPLINE
  5
13d
100
AcDbEntity
  8
Layer_1
 62
7
100
AcDbSpline
 70
8
 71
3
 72
8
 73
4
 74
0
 40
0
 40
0
 40
0
 40
0
 40
1
 40
1
 40
1
 40
1
 10
316.837304
 20
241.655444
 30
0.0
 10
317.585081
 20
241.965183
 30
0.0
 10
318.072644
 20
242.694873
 30
0.0
 10
318.072644
 20
243.504260
 30
0.0
  0
SPLINE
  5
13e
100
AcDbEntity
  8
Layer_1
 62
7
100
AcDbSpline
 70
8
 71
3
 72
8
 73
4
 74
0
 40
0
 40
0
 40
0
 40
0
 40
1
 40
1
 40
1
 40
1
 10
318.072644
 20
243.504260
 30
0.0
 10
318.072644
 20
244.034996
 30
0.0
 10
317.861809
 20
244.543995
 30
0.0
 10
317.486522
 20
244.919282
 30
0.0
  0
SPLINE
  5
13f
100
AcDbEntity
  8
Layer_1
 62
7
100
AcDbSpline
 70
8
 71
3
 72
8
 73
4
 74
0
 40
0
 40
0
 40
0
 40
0
 40
1
 40
1
 40
1
 40
1
 10
317.486522
 20
244.919282
 30
0.0
 10
317.111235
 20
245.294569
 30
0.0
 10
316.602236
 20
245.505403
 30
0.0
 10
316.071500
 20
245.505403
 30
0.0
  0
LWPOLYLINE
  5
140
100
AcDbEntity
  8
Layer_1
 62
7
100
AcDbPolyline
 90
1
 70
1
 10
366.871400
 20
277.504124
 30
0.0
  0
SPLINE
  5
141
100
AcDbEntity
  8
Layer_1
 62
7
100
AcDbSpline
 70
8
 71
3
 72
8
 73
4
 74
0
 40
0
 40
0
 40
0
 40
0
 40
1
 40
1
 40
1
 40
1
 10
341.471530
 20
245.505403
 30
0.0
 10
340.366329
 20
245.505403
 30
0.0
 10
339.470387
 20
244.609461
 30
0.0
 10
339.470387
 20
243.504260
 30
0.0
  0
SPLINE
  5
142
100
AcDbEntity
  8
Layer_1
 62
7
100
AcDbSpline
 70
8
 71
3
 72
8
 73
4
 74
0
 40
0
 40
0
 40
0
 40
0
 40
1
 40
1
 40
1
 40
1
 10
339.470387
 20
243.504260
 30
0.0
 10
339.470387
 20
242.399059
 30
0.0
 10
340.366329
 20
241.503116
 30
0.0
 10
341.471530
 20
241.503116
 30
0.0
  0
SPLINE
  5
143
100
AcDbEntity
  8
Layer_1
 62
7
100
AcDbSpline
 70
8
 71
3
 72
8
 73
4
 74
0
 40
0
 40
0
 40
0
 40
0
 40
1
 40
1
 40
1
 40
1
 10
341.471530
 20
241.503116
 30
0.0
 10
342.576731
 20
241.503116
 30
0.0
 10
343.472674
 20
242.399059
 30
0.0
 10
343.472674
 20
243.504260
 30
0.0
  0
SPLINE
  5
144
100
AcDbEntity
  8
Layer_1
 62
7
100
AcDbSpline
 70
8
 71
3
 72
8
 73
4
 74
0
 40
0
 40
0
 40
0
 40
0
 40
1
 40
1
 40
1
 40
1
 10
343.472674
 20
243.504260
 30
0.0
 10
343.472674
 20
244.034996
 30
0.0
 10
343.261839
 20
244.543995
 30
0.0
 10
342.886552
 20
244.919282
 30
0.0
  0
SPLINE
  5
145
100
AcDbEntity
  8
Layer_1
 62
7
100
AcDbSpline
 70
8
 71
3
 72
8
 73
4
 74
0
 40
0
 40
0
 40
0
 40
0
 40
1
 40
1
 40
1
 40
1
 10
342.886552
 20
244.919282
 30
0.0
 10
342.511265
 20
245.294569
 30
0.0
 10
342.002266
 20
245.505403
 30
0.0
 10
341.471530
 20
245.505403
 30
0.0
  0
LWPOLYLINE
  5
146
100
AcDbEntity
  8
Layer_1
 62
7
100
AcDbPolyline
 90
1
 70
1
 10
316.071500
 20
245.505403
 30
0.0
  0
SPLINE
  5
147
100
AcDbEntity
  8
Layer_1
 62
7
100
AcDbSpline
 70
8
 71
3
 72
8
 73
4
 74
0
 40
0
 40
0
 40
0
 40
0
 40
1
 40
1
 40
1
 40
1
 10
366.871400
 20
245.505403
 30
0.0
 10
366.062013
 20
245.505403
 30
0.0
 10
365.332323
 20
245.017841
 30
0.0
 10
365.022584
 20
244.270064
 30
0.0
  0
SPLINE
  5
148
100
AcDbEntity
  8
Layer_1
 62
7
100
AcDbSpline
 70
8
 71
3
 72
8
 73
4
 74
0
 40
0
 40
0
 40
0
 40
0
 40
1
 40
1
 40
1
 40
1
 10
365.022584
 20
244.270064
 30
0.0
 10
364.712845
 20
243.522288
 30
0.0
 10
364.884055
 20
242.661561
 30
0.0
 10
365.456378
 20
242.089238
 30
0.0
  0
SPLINE
  5
149
100
AcDbEntity
  8
Layer_1
 62
7
100
AcDbSpline
 70
8
 71
3
 72
8
 73
4
 74
0
 40
0
 40
0
 40
0
 40
0
 40
1
 40
1
 40
1
 40
1
 10
365.456378
 20
242.089238
 30
0.0
 10
366.028701
 20
241.516915
 30
0.0
 10
366.889428
 20
241.345705
 30
0.0
 10
367.637204
 20
241.655444
 30
0.0
  0
SPLINE
  5
14a
100
AcDbEntity
  8
Layer_1
 62
7
100
AcDbSpline
 70
8
 71
3
 72
8
 73
4
 74
0
 40
0
 40
0
 40
0
 40
0
 40
1
 40
1
 40
1
 40
1
 10
367.637204
 20
241.655444
 30
0.0
 10
368.384981
 20
241.965183
 30
0.0
 10
368.872544
 20
242.694873
 30
0.0
 10
368.872544
 20
243.504260
 30
0.0
  0
SPLINE
  5
14b
100
AcDbEntity
  8
Layer_1
 62
7
100
AcDbSpline
 70
8
 71
3
 72
8
 73
4
 74
0
 40
0
 40
0
 40
0
 40
0
 40
1
 40
1
 40
1
 40
1
 10
368.872544
 20
243.504260
 30
0.0
 10
368.872544
 20
244.034996
 30
0.0
 10
368.661709
 20
244.543995
 30
0.0
 10
368.286422
 20
244.919282
 30
0.0
  0
SPLINE
  5
14c
100
AcDbEntity
  8
Layer_1
 62
7
100
AcDbSpline
 70
8
 71
3
 72
8
 73
4
 74
0
 40
0
 40
0
 40
0
 40
0
 40
1
 40
1
 40
1
 40
1
 10
368.286422
 20
244.919282
 30
0.0
 10
367.911135
 20
245.294569
 30
0.0
 10
367.402136
 20
245.505403
 30
0.0
 10
366.871400
 20
245.505403
 30
0.0
  0
LWPOLYLINE
  5
14d
100
AcDbEntity
  8
Layer_1
 62
7
100
AcDbPolyline
 90
1
 70
1
 10
341.471530
 20
245.505403
 30
0.0
  0
SPLINE
  5
14e
100
AcDbEntity
  8
Layer_1
 62
7
100
AcDbSpline
 70
8
 71
3
 72
8
 73
4
 74
0
 40
0
 40
0
 40
0
 40
0
 40
1
 40
1
 40
1
 40
1
 10
378.417660
 20
261.504773
 30
0.0
 10
377.608273
 20
261.504773
 30
0.0
 10
376.878583
 20
261.017211
 30
0.0
 10
376.568844
 20
260.269434
 30
0.0
  0
SPLINE
  5
14f
100
AcDbEntity
  8
Layer_1
 62
7
100
AcDbSpline
 70
8
 71
3
 72
8
 73
4
 74
0
 40
0
 40
0
 40
0
 40
0
 40
1
 40
1
 40
1
 40
1
 10
376.568844
 20
260.269434
 30
0.0
 10
376.259105
 20
259.521658
 30
0.0
 10
376.430315
 20
258.660931
 30
0.0
 10
377.002638
 20
258.088608
 30
0.0
  0
SPLINE
  5
150
100
AcDbEntity
  8
Layer_1
 62
7
100
AcDbSpline
 70
8
 71
3
 72
8
 73
4
 74
0
 40
0
 40
0
 40
0
 40
0
 40
1
 40
1
 40
1
 40
1
 10
377.002638
 20
258.088608
 30
0.0
 10
377.574961
 20
257.516285
 30
0.0
 10
378.435688
 20
257.345075
 30
0.0
 10
379.183464
 20
257.654814
 30
0.0
  0
SPLINE
  5
151
100
AcDbEntity
  8
Layer_1
 62
7
100
AcDbSpline
 70
8
 71
3
 72
8
 73
4
 74
0
 40
0
 40
0
 40
0
 40
0
 40
1
 40
1
 40
1
 40
1
 10
379.183464
 20
257.654814
 30
0.0
 10
379.931241
 20
257.964553
 30
0.0
 10
380.418804
 20
258.694243
 30
0.0
 10
380.418804
 20
259.503630
 30
0.0
  0
SPLINE
  5
152
100
AcDbEntity
  8
Layer_1
 62
7
100
AcDbSpline
 70
8
 71
3
 72
8
 73
4
 74
0
 40
0
 40
0
 40
0
 40
0
 40
1
 40
1
 40
1
 40
1
 10
380.418804
 20
259.503630
 30
0.0
 10
380.418804
 20
260.034366
 30
0.0
 10
380.207969
 20
260.543365
 30
0.0
 10
379.832682
 20
260.918652
 30
0.0
  0
SPLINE
  5
153
100
AcDbEntity
  8
Layer_1
 62
7
100
AcDbSpline
 70
8
 71
3
 72
8
 73
4
 74
0
 40
0
 40
0
 40
0
 40
0
 40
1
 40
1
 40
1
 40
1
 10
379.832682
 20
260.918652
 30
0.0
 10
379.457395
 20
261.293939
 30
0.0
 10
378.948396
 20
261.504773
 30
0.0
 10
378.417660
 20
261.504773
 30
0.0
  0
LWPOLYLINE
  5
154
100
AcDbEntity
  8
Layer_1
 62
7
100
AcDbPolyline
 90
1
 70
1
 10
366.871400
 20
245.505403
 30
0.0
  0
SPLINE
  5
155
100
AcDbEntity
  8
Layer_1
 62
7
100
AcDbSpline
 70
8
 71
3
 72
8
 73
4
 74
0
 40
0
 40
0
 40
0
 40
0
 40
1
 40
1
 40
1
 40
1
 10
389.731260
 20
272.818344
 30
0.0
 10
388.626059
 20
272.818343
 30
0.0
 10
387.730117
 20
271.922401
 30
0.0
 10
387.730117
 20
270.817200
 30
0.0
  0
SPLINE
  5
156
100
AcDbEntity
  8
Layer_1
 62
7
100
AcDbSpline
 70
8
 71
3
 72
8
 73
4
 74
0
 40
0
 40
0
 40
0
 40
0
 40
1
 40
1
 40
1
 40
1
 10
387.730117
 20
270.817200
 30
0.0
 10
387.730117
 20
269.711999
 30
0.0
 10
388.626059
 20
268.816057
 30
0.0
 10
389.731260
 20
268.816057
 30
0.0
  0
SPLINE
  5
157
100
AcDbEntity
  8
Layer_1
 62
7
100
AcDbSpline
 70
8
 71
3
 72
8
 73
4
 74
0
 40
0
 40
0
 40
0
 40
0
 40
1
 40
1
 40
1
 40
1
 10
389.731260
 20
268.816057
 30
0.0
 10
390.836461
 20
268.816057
 30
0.0
 10
391.732404
 20
269.711999
 30
0.0
 10
391.732404
 20
270.817200
 30
0.0
  0
SPLINE
  5
158
100
AcDbEntity
  8
Layer_1
 62
7
100
AcDbSpline
 70
8
 71
3
 72
8
 73
4
 74
0
 40
0
 40
0
 40
0
 40
0
 40
1
 40
1
 40
1
 40
1
 10
391.732404
 20
270.817200
 30
0.0
 10
391.732404
 20
271.347936
 30
0.0
 10
391.521569
 20
271.856935
 30
0.0
 10
391.146282
 20
272.232222
 30
0.0
  0
SPLINE
  5
159
100
AcDbEntity
  8
Layer_1
 62
7
100
AcDbSpline
 70
8
 71
3
 72
8
 73
4
 74
0
 40
0
 40
0
 40
0
 40
0
 40
1
 40
1
 40
1
 40
1
 10
391.146282
 20
272.232222
 30
0.0
 10
390.770995
 20
272.607509
 30
0.0
 10
390.261996
 20
272.818344
 30
0.0
 10
389.731260
 20
272.818344
 30
0.0
  0
LWPOLYLINE
  5
15a
100
AcDbEntity
  8
Layer_1
 62
7
100
AcDbPolyline
 90
1
 70
1
 10
378.417660
 20
261.504773
 30
0.0
  0
SPLINE
  5
15b
100
AcDbEntity
  8
Layer_1
 62
7
100
AcDbSpline
 70
8
 71
3
 72
8
 73
4
 74
0
 40
0
 40
0
 40
0
 40
0
 40
1
 40
1
 40
1
 40
1
 10
401.044860
 20
261.504773
 30
0.0
 10
400.235473
 20
261.504773
 30
0.0
 10
399.505783
 20
261.017211
 30
0.0
 10
399.196044
 20
260.269434
 30
0.0
  0
SPLINE
  5
15c
100
AcDbEntity
  8
Layer_1
 62
7
100
AcDbSpline
 70
8
 71
3
 72
8
 73
4
 74
0
 40
0
 40
0
 40
0
 40
0
 40
1
 40
1
 40
1
 40
1
 10
399.196044
 20
260.269434
 30
0.0
 10
398.886305
 20
259.521658
 30
0.0
 10
399.057515
 20
258.660931
 30
0.0
 10
399.629838
 20
258.088608
 30
0.0
  0
SPLINE
  5
15d
100
AcDbEntity
  8
Layer_1
 62
7
100
AcDbSpline
 70
8
 71
3
 72
8
 73
4
 74
0
 40
0
 40
0
 40
0
 40
0
 40
1
 40
1
 40
1
 40
1
 10
399.629838
 20
258.088608
 30
0.0
 10
400.202161
 20
257.516285
 30
0.0
 10
401.062888
 20
257.345075
 30
0.0
 10
401.810664
 20
257.654814
 30
0.0
  0
SPLINE
  5
15e
100
AcDbEntity
  8
Layer_1
 62
7
100
AcDbSpline
 70
8
 71
3
 72
8
 73
4
 74
0
 40
0
 40
0
 40
0
 40
0
 40
1
 40
1
 40
1
 40
1
 10
401.810664
 20
257.654814
 30
0.0
 10
402.558441
 20
257.964553
 30
0.0
 10
403.046004
 20
258.694243
 30
0.0
 10
403.046004
 20
259.503630
 30
0.0
  0
SPLINE
  5
15f
100
AcDbEntity
  8
Layer_1
 62
7
100
AcDbSpline
 70
8
 71
3
 72
8
 73
4
 74
0
 40
0
 40
0
 40
0
 40
0
 40
1
 40
1
 40
1
 40
1
 10
403.046004
 20
259.503630
 30
0.0
 10
403.046004
 20
260.034366
 30
0.0
 10
402.835169
 20
260.543365
 30
0.0
 10
402.459882
 20
260.918652
 30
0.0
  0
SPLINE
  5
160
100
AcDbEntity
  8
Layer_1
 62
7
100
AcDbSpline
 70
8
 71
3
 72
8
 73
4
 74
0
 40
0
 40
0
 40
0
 40
0
 40
1
 40
1
 40
1
 40
1
 10
402.459882
 20
260.918652
 30
0.0
 10
402.084595
 20
261.293939
 30
0.0
 10
401.575596
 20
261.504773
 30
0.0
 10
401.044860
 20
261.504773
 30
0.0
  0
LWPOLYLINE
  5
161
100
AcDbEntity
  8
Layer_1
 62
7
100
AcDbPolyline
 90
1
 70
1
 10
389.731260
 20
272.818344
 30
0.0
  0
SPLINE
  5
162
100
AcDbEntity
  8
Layer_1
 62
7
100
AcDbSpline
 70
8
 71
3
 72
8
 73
4
 74
0
 40
0
 40
0
 40
0
 40
0
 40
1
 40
1
 40
1
 40
1
 10
389.731260
 20
250.191174
 30
0.0
 10
388.626059
 20
250.191173
 30
0.0
 10
387.730117
 20
249.295231
 30
0.0
 10
387.730117
 20
248.190030
 30
0.0
  0
SPLINE
  5
163
100
AcDbEntity
  8
Layer_1
 62
7
100
AcDbSpline
 70
8
 71
3
 72
8
 73
4
 74
0
 40
0
 40
0
 40
0
 40
0
 40
1
 40
1
 40
1
 40
1
 10
387.730117
 20
248.190030
 30
0.0
 10
387.730117
 20
247.084829
 30
0.0
 10
388.626059
 20
246.188887
 30
0.0
 10
389.731260
 20
246.188887
 30
0.0
  0
SPLINE
  5
164
100
AcDbEntity
  8
Layer_1
 62
7
100
AcDbSpline
 70
8
 71
3
 72
8
 73
4
 74
0
 40
0
 40
0
 40
0
 40
0
 40
1
 40
1
 40
1
 40
1
 10
389.731260
 20
246.188887
 30
0.0
 10
390.836461
 20
246.188887
 30
0.0
 10
391.732404
 20
247.084829
 30
0.0
 10
391.732404
 20
248.190030
 30
0.0
  0
SPLINE
  5
165
100
AcDbEntity
  8
Layer_1
 62
7
100
AcDbSpline
 70
8
 71
3
 72
8
 73
4
 74
0
 40
0
 40
0
 40
0
 40
0
 40
1
 40
1
 40
1
 40
1
 10
391.732404
 20
248.190030
 30
0.0
 10
391.732404
 20
248.720766
 30
0.0
 10
391.521569
 20
249.229765
 30
0.0
 10
391.146282
 20
249.605052
 30
0.0
  0
SPLINE
  5
166
100
AcDbEntity
  8
Layer_1
 62
7
100
AcDbSpline
 70
8
 71
3
 72
8
 73
4
 74
0
 40
0
 40
0
 40
0
 40
0
 40
1
 40
1
 40
1
 40
1
 10
391.146282
 20
249.605052
 30
0.0
 10
390.770995
 20
249.980339
 30
0.0
 10
390.261996
 20
250.191174
 30
0.0
 10
389.731260
 20
250.191174
 30
0.0
  0
LWPOLYLINE
  5
167
100
AcDbEntity
  8
Layer_1
 62
7
100
AcDbPolyline
 90
1
 70
1
 10
401.044860
 20
261.504773
 30
0.0
  0
SPLINE
  5
168
100
AcDbEntity
  8
Layer_1
 62
7
100
AcDbSpline
 70
8
 71
3
 72
8
 73
4
 74
0
 40
0
 40
0
 40
0
 40
0
 40
1
 40
1
 40
1
 40
1
 10
389.731260
 20
266.558352
 30
0.0
 10
386.877887
 20
266.558352
 30
0.0
 10
384.305476
 20
264.839522
 30
0.0
 10
383.213537
 20
262.203349
 30
0.0
  0
SPLINE
  5
169
100
AcDbEntity
  8
Layer_1
 62
7
100
AcDbSpline
 70
8
 71
3
 72
8
 73
4
 74
0
 40
0
 40
0
 40
0
 40
0
 40
1
 40
1
 40
1
 40
1
 10
383.213537
 20
262.203349
 30
0.0
 10
382.121599
 20
259.567176
 30
0.0
 10
382.725172
 20
256.532810
 30
0.0
 10
384.742811
 20
254.515171
 30
0.0
  0
SPLINE
  5
16a
100
AcDbEntity
  8
Layer_1
 62
7
100
AcDbSpline
 70
8
 71
3
 72
8
 73
4
 74
0
 40
0
 40
0
 40
0
 40
0
 40
1
 40
1
 40
1
 40
1
 10
384.742811
 20
254.515171
 30
0.0
 10
386.760450
 20
252.497532
 30
0.0
 10
389.794816
 20
251.893959
 30
0.0
 10
392.430989
 20
252.985897
 30
0.0
  0
SPLINE
  5
16b
100
AcDbEntity
  8
Layer_1
 62
7
100
AcDbSpline
 70
8
 71
3
 72
8
 73
4
 74
0
 40
0
 40
0
 40
0
 40
0
 40
1
 40
1
 40
1
 40
1
 10
392.430989
 20
252.985897
 30
0.0
 10
395.067162
 20
254.077836
 30
0.0
 10
396.785992
 20
256.650247
 30
0.0
 10
396.785992
 20
259.503620
 30
0.0
  0
SPLINE
  5
16c
100
AcDbEntity
  8
Layer_1
 62
7
100
AcDbSpline
 70
8
 71
3
 72
8
 73
4
 74
0
 40
0
 40
0
 40
0
 40
0
 40
1
 40
1
 40
1
 40
1
 10
396.785992
 20
259.503620
 30
0.0
 10
396.785992
 20
261.374651
 30
0.0
 10
396.042728
 20
263.169050
 30
0.0
 10
394.719709
 20
264.492069
 30
0.0
  0
SPLINE
  5
16d
100
AcDbEntity
  8
Layer_1
 62
7
100
AcDbSpline
 70
8
 71
3
 72
8
 73
4
 74
0
 40
0
 40
0
 40
0
 40
0
 40
1
 40
1
 40
1
 40
1
 10
394.719709
 20
264.492069
 30
0.0
 10
393.396690
 20
265.815088
 30
0.0
 10
391.602291
 20
266.558352
 30
0.0
 10
389.731260
 20
266.558352
 30
0.0
  0
LWPOLYLINE
  5
16e
100
AcDbEntity
  8
Layer_1
 62
7
100
AcDbPolyline
 90
1
 70
1
 10
389.731260
 20
250.191174
 30
0.0
  0
SPLINE
  5
16f
100
AcDbEntity
  8
Layer_1
 62
7
100
AcDbSpline
 70
8
 71
3
 72
8
 73
4
 74
0
 40
0
 40
0
 40
0
 40
0
 40
1
 40
1
 40
1
 40
1
 10
440.880086
 20
195.503560
 30
0.0
 10
440.880087
 20
194.694173
 30
0.0
 10
441.367649
 20
193.964483
 30
0.0
 10
442.115426
 20
193.654744
 30
0.0
  0
SPLINE
  5
170
100
AcDbEntity
  8
Layer_1
 62
7
100
AcDbSpline
 70
8
 71
3
 72
8
 73
4
 74
0
 40
0
 40
0
 40
0
 40
0
 40
1
 40
1
 40
1
 40
1
 10
442.115426
 20
193.654744
 30
0.0
 10
442.863202
 20
193.345005
 30
0.0
 10
443.723929
 20
193.516215
 30
0.0
 10
444.296252
 20
194.088538
 30
0.0
  0
SPLINE
  5
171
100
AcDbEntity
  8
Layer_1
 62
7
100
AcDbSpline
 70
8
 71
3
 72
8
 73
4
 74
0
 40
0
 40
0
 40
0
 40
0
 40
1
 40
1
 40
1
 40
1
 10
444.296252
 20
194.088538
 30
0.0
 10
444.868575
 20
194.660861
 30
0.0
 10
445.039785
 20
195.521588
 30
0.0
 10
444.730046
 20
196.269364
 30
0.0
  0
SPLINE
  5
172
100
AcDbEntity
  8
Layer_1
 62
7
100
AcDbSpline
 70
8
 71
3
 72
8
 73
4
 74
0
 40
0
 40
0
 40
0
 40
0
 40
1
 40
1
 40
1
 40
1
 10
444.730046
 20
196.269364
 30
0.0
 10
444.420307
 20
197.017141
 30
0.0
 10
443.690617
 20
197.504703
 30
0.0
 10
442.881230
 20
197.504703
 30
0.0
  0
SPLINE
  5
173
100
AcDbEntity
  8
Layer_1
 62
7
100
AcDbSpline
 70
8
 71
3
 72
8
 73
4
 74
0
 40
0
 40
0
 40
0
 40
0
 40
1
 40
1
 40
1
 40
1
 10
442.881230
 20
197.504703
 30
0.0
 10
442.350494
 20
197.504703
 30
0.0
 10
441.841495
 20
197.293869
 30
0.0
 10
441.466208
 20
196.918582
 30
0.0
  0
SPLINE
  5
174
100
AcDbEntity
  8
Layer_1
 62
7
100
AcDbSpline
 70
8
 71
3
 72
8
 73
4
 74
0
 40
0
 40
0
 40
0
 40
0
 40
1
 40
1
 40
1
 40
1
 10
441.466208
 20
196.918582
 30
0.0
 10
441.090921
 20
196.543295
 30
0.0
 10
440.880087
 20
196.034296
 30
0.0
 10
440.880087
 20
195.503560
 30
0.0
  0
LWPOLYLINE
  5
175
100
AcDbEntity
  8
Layer_1
 62
7
100
AcDbPolyline
 90
1
 70
1
 10
389.731260
 20
266.558352
 30
0.0
  0
SPLINE
  5
176
100
AcDbEntity
  8
Layer_1
 62
7
100
AcDbSpline
 70
8
 71
3
 72
8
 73
4
 74
0
 40
0
 40
0
 40
0
 40
0
 40
1
 40
1
 40
1
 40
1
 10
440.880086
 20
211.503560
 30
0.0
 10
440.880087
 20
210.694173
 30
0.0
 10
441.367649
 20
209.964483
 30
0.0
 10
442.115426
 20
209.654744
 30
0.0
  0
SPLINE
  5
177
100
AcDbEntity
  8
Layer_1
 62
7
100
AcDbSpline
 70
8
 71
3
 72
8
 73
4
 74
0
 40
0
 40
0
 40
0
 40
0
 40
1
 40
1
 40
1
 40
1
 10
442.115426
 20
209.654744
 30
0.0
 10
442.863202
 20
209.345005
 30
0.0
 10
443.723929
 20
209.516215
 30
0.0
 10
444.296252
 20
210.088538
 30
0.0
  0
SPLINE
  5
178
100
AcDbEntity
  8
Layer_1
 62
7
100
AcDbSpline
 70
8
 71
3
 72
8
 73
4
 74
0
 40
0
 40
0
 40
0
 40
0
 40
1
 40
1
 40
1
 40
1
 10
444.296252
 20
210.088538
 30
0.0
 10
444.868575
 20
210.660861
 30
0.0
 10
445.039785
 20
211.521588
 30
0.0
 10
444.730046
 20
212.269364
 30
0.0
  0
SPLINE
  5
179
100
AcDbEntity
  8
Layer_1
 62
7
100
AcDbSpline
 70
8
 71
3
 72
8
 73
4
 74
0
 40
0
 40
0
 40
0
 40
0
 40
1
 40
1
 40
1
 40
1
 10
444.730046
 20
212.269364
 30
0.0
 10
444.420307
 20
213.017141
 30
0.0
 10
443.690617
 20
213.504704
 30
0.0
 10
442.881230
 20
213.504704
 30
0.0
  0
SPLINE
  5
17a
100
AcDbEntity
  8
Layer_1
 62
7
100
AcDbSpline
 70
8
 71
3
 72
8
 73
4
 74
0
 40
0
 40
0
 40
0
 40
0
 40
1
 40
1
 40
1
 40
1
 10
442.881230
 20
213.504704
 30
0.0
 10
442.350494
 20
213.504704
 30
0.0
 10
441.841495
 20
213.293869
 30
0.0
 10
441.466208
 20
212.918582
 30
0.0
  0
SPLINE
  5
17b
100
AcDbEntity
  8
Layer_1
 62
7
100
AcDbSpline
 70
8
 71
3
 72
8
 73
4
 74
0
 40
0
 40
0
 40
0
 40
0
 40
1
 40
1
 40
1
 40
1
 10
441.466208
 20
212.918582
 30
0.0
 10
441.090921
 20
212.543295
 30
0.0
 10
440.880087
 20
212.034296
 30
0.0
 10
440.880087
 20
211.503560
 30
0.0
  0
LWPOLYLINE
  5
17c
100
AcDbEntity
  8
Layer_1
 62
7
100
AcDbPolyline
 90
1
 70
1
 10
440.880087
 20
195.503560
 30
0.0
  0
SPLINE
  5
17d
100
AcDbEntity
  8
Layer_1
 62
7
100
AcDbSpline
 70
8
 71
3
 72
8
 73
4
 74
0
 40
0
 40
0
 40
0
 40
0
 40
1
 40
1
 40
1
 40
1
 10
440.880086
 20
259.503560
 30
0.0
 10
440.880087
 20
258.694173
 30
0.0
 10
441.367649
 20
257.964483
 30
0.0
 10
442.115426
 20
257.654744
 30
0.0
  0
SPLINE
  5
17e
100
AcDbEntity
  8
Layer_1
 62
7
100
AcDbSpline
 70
8
 71
3
 72
8
 73
4
 74
0
 40
0
 40
0
 40
0
 40
0
 40
1
 40
1
 40
1
 40
1
 10
442.115426
 20
257.654744
 30
0.0
 10
442.863202
 20
257.345005
 30
0.0
 10
443.723929
 20
257.516215
 30
0.0
 10
444.296252
 20
258.088538
 30
0.0
  0
SPLINE
  5
17f
100
AcDbEntity
  8
Layer_1
 62
7
100
AcDbSpline
 70
8
 71
3
 72
8
 73
4
 74
0
 40
0
 40
0
 40
0
 40
0
 40
1
 40
1
 40
1
 40
1
 10
444.296252
 20
258.088538
 30
0.0
 10
444.868575
 20
258.660861
 30
0.0
 10
445.039785
 20
259.521588
 30
0.0
 10
444.730046
 20
260.269364
 30
0.0
  0
SPLINE
  5
180
100
AcDbEntity
  8
Layer_1
 62
7
100
AcDbSpline
 70
8
 71
3
 72
8
 73
4
 74
0
 40
0
 40
0
 40
0
 40
0
 40
1
 40
1
 40
1
 40
1
 10
444.730046
 20
260.269364
 30
0.0
 10
444.420307
 20
261.017141
 30
0.0
 10
443.690617
 20
261.504704
 30
0.0
 10
442.881230
 20
261.504704
 30
0.0
  0
SPLINE
  5
181
100
AcDbEntity
  8
Layer_1
 62
7
100
AcDbSpline
 70
8
 71
3
 72
8
 73
4
 74
0
 40
0
 40
0
 40
0
 40
0
 40
1
 40
1
 40
1
 40
1
 10
442.881230
 20
261.504704
 30
0.0
 10
442.350494
 20
261.504704
 30
0.0
 10
441.841495
 20
261.293869
 30
0.0
 10
441.466208
 20
260.918582
 30
0.0
  0
SPLINE
  5
182
100
AcDbEntity
  8
Layer_1
 62
7
100
AcDbSpline
 70
8
 71
3
 72
8
 73
4
 74
0
 40
0
 40
0
 40
0
 40
0
 40
1
 40
1
 40
1
 40
1
 10
441.466208
 20
260.918582
 30
0.0
 10
441.090921
 20
260.543295
 30
0.0
 10
440.880087
 20
260.034296
 30
0.0
 10
440.880087
 20
259.503560
 30
0.0
  0
LWPOLYLINE
  5
183
100
AcDbEntity
  8
Layer_1
 62
7
100
AcDbPolyline
 90
1
 70
1
 10
440.880087
 20
211.503560
 30
0.0
  0
SPLINE
  5
184
100
AcDbEntity
  8
Layer_1
 62
7
100
AcDbSpline
 70
8
 71
3
 72
8
 73
4
 74
0
 40
0
 40
0
 40
0
 40
0
 40
1
 40
1
 40
1
 40
1
 10
440.880086
 20
243.503560
 30
0.0
 10
440.880087
 20
242.694173
 30
0.0
 10
441.367649
 20
241.964483
 30
0.0
 10
442.115426
 20
241.654744
 30
0.0
  0
SPLINE
  5
185
100
AcDbEntity
  8
Layer_1
 62
7
100
AcDbSpline
 70
8
 71
3
 72
8
 73
4
 74
0
 40
0
 40
0
 40
0
 40
0
 40
1
 40
1
 40
1
 40
1
 10
442.115426
 20
241.654744
 30
0.0
 10
442.863202
 20
241.345005
 30
0.0
 10
443.723929
 20
241.516215
 30
0.0
 10
444.296252
 20
242.088538
 30
0.0
  0
SPLINE
  5
186
100
AcDbEntity
  8
Layer_1
 62
7
100
AcDbSpline
 70
8
 71
3
 72
8
 73
4
 74
0
 40
0
 40
0
 40
0
 40
0
 40
1
 40
1
 40
1
 40
1
 10
444.296252
 20
242.088538
 30
0.0
 10
444.868575
 20
242.660861
 30
0.0
 10
445.039785
 20
243.521588
 30
0.0
 10
444.730046
 20
244.269364
 30
0.0
  0
SPLINE
  5
187
100
AcDbEntity
  8
Layer_1
 62
7
100
AcDbSpline
 70
8
 71
3
 72
8
 73
4
 74
0
 40
0
 40
0
 40
0
 40
0
 40
1
 40
1
 40
1
 40
1
 10
444.730046
 20
244.269364
 30
0.0
 10
444.420307
 20
245.017141
 30
0.0
 10
443.690617
 20
245.504704
 30
0.0
 10
442.881230
 20
245.504704
 30
0.0
  0
SPLINE
  5
188
100
AcDbEntity
  8
Layer_1
 62
7
100
AcDbSpline
 70
8
 71
3
 72
8
 73
4
 74
0
 40
0
 40
0
 40
0
 40
0
 40
1
 40
1
 40
1
 40
1
 10
442.881230
 20
245.504704
 30
0.0
 10
442.350494
 20
245.504704
 30
0.0
 10
441.841495
 20
245.293869
 30
0.0
 10
441.466208
 20
244.918582
 30
0.0
  0
SPLINE
  5
189
100
AcDbEntity
  8
Layer_1
 62
7
100
AcDbSpline
 70
8
 71
3
 72
8
 73
4
 74
0
 40
0
 40
0
 40
0
 40
0
 40
1
 40
1
 40
1
 40
1
 10
441.466208
 20
244.918582
 30
0.0
 10
441.090921
 20
244.543295
 30
0.0
 10
440.880087
 20
244.034296
 30
0.0
 10
440.880087
 20
243.503560
 30
0.0
  0
LWPOLYLINE
  5
18a
100
AcDbEntity
  8
Layer_1
 62
7
100
AcDbPolyline
 90
1
 70
1
 10
440.880087
 20
259.503560
 30
0.0
  0
SPLINE
  5
18b
100
AcDbEntity
  8
Layer_1
 62
7
100
AcDbSpline
 70
8
 71
3
 72
8
 73
4
 74
0
 40
0
 40
0
 40
0
 40
0
 40
1
 40
1
 40
1
 40
1
 10
440.880086
 20
227.503560
 30
0.0
 10
440.880087
 20
226.694173
 30
0.0
 10
441.367649
 20
225.964483
 30
0.0
 10
442.115426
 20
225.654744
 30
0.0
  0
SPLINE
  5
18c
100
AcDbEntity
  8
Layer_1
 62
7
100
AcDbSpline
 70
8
 71
3
 72
8
 73
4
 74
0
 40
0
 40
0
 40
0
 40
0
 40
1
 40
1
 40
1
 40
1
 10
442.115426
 20
225.654744
 30
0.0
 10
442.863202
 20
225.345005
 30
0.0
 10
443.723929
 20
225.516215
 30
0.0
 10
444.296252
 20
226.088538
 30
0.0
  0
SPLINE
  5
18d
100
AcDbEntity
  8
Layer_1
 62
7
100
AcDbSpline
 70
8
 71
3
 72
8
 73
4
 74
0
 40
0
 40
0
 40
0
 40
0
 40
1
 40
1
 40
1
 40
1
 10
444.296252
 20
226.088538
 30
0.0
 10
444.868575
 20
226.660861
 30
0.0
 10
445.039785
 20
227.521588
 30
0.0
 10
444.730046
 20
228.269364
 30
0.0
  0
SPLINE
  5
18e
100
AcDbEntity
  8
Layer_1
 62
7
100
AcDbSpline
 70
8
 71
3
 72
8
 73
4
 74
0
 40
0
 40
0
 40
0
 40
0
 40
1
 40
1
 40
1
 40
1
 10
444.730046
 20
228.269364
 30
0.0
 10
444.420307
 20
229.017141
 30
0.0
 10
443.690617
 20
229.504704
 30
0.0
 10
442.881230
 20
229.504704
 30
0.0
  0
SPLINE
  5
18f
100
AcDbEntity
  8
Layer_1
 62
7
100
AcDbSpline
 70
8
 71
3
 72
8
 73
4
 74
0
 40
0
 40
0
 40
0
 40
0
 40
1
 40
1
 40
1
 40
1
 10
442.881230
 20
229.504704
 30
0.0
 10
442.350494
 20
229.504704
 30
0.0
 10
441.841495
 20
229.293869
 30
0.0
 10
441.466208
 20
228.918582
 30
0.0
  0
SPLINE
  5
190
100
AcDbEntity
  8
Layer_1
 62
7
100
AcDbSpline
 70
8
 71
3
 72
8
 73
4
 74
0
 40
0
 40
0
 40
0
 40
0
 40
1
 40
1
 40
1
 40
1
 10
441.466208
 20
228.918582
 30
0.0
 10
441.090921
 20
228.543295
 30
0.0
 10
440.880087
 20
228.034296
 30
0.0
 10
440.880087
 20
227.503560
 30
0.0
  0
LWPOLYLINE
  5
191
100
AcDbEntity
  8
Layer_1
 62
7
100
AcDbPolyline
 90
1
 70
1
 10
440.880087
 20
243.503560
 30
0.0
  0
SPLINE
  5
192
100
AcDbEntity
  8
Layer_1
 62
7
100
AcDbSpline
 70
8
 71
3
 72
8
 73
4
 74
0
 40
0
 40
0
 40
0
 40
0
 40
1
 40
1
 40
1
 40
1
 10
227.806820
 20
269.729660
 30
0.0
 10
227.836748
 20
271.450301
 30
0.0
 10
229.020106
 20
272.935692
 30
0.0
 10
230.690540
 20
273.349400
 30
0.0
  0
LWPOLYLINE
  5
193
100
AcDbEntity
  8
Layer_1
 62
7
100
AcDbPolyline
 90
1
 70
1
 10
440.880087
 20
227.503560
 30
0.0
  0
SPLINE
  5
194
100
AcDbEntity
  8
Layer_1
 62
7
100
AcDbSpline
 70
8
 71
3
 72
8
 73
4
 74
0
 40
0
 40
0
 40
0
 40
0
 40
1
 40
1
 40
1
 40
1
 10
285.644390
 20
135.484680
 30
0.0
 10
250.700575
 20
164.753526
 30
0.0
 10
229.700278
 20
207.429692
 30
0.0
 10
227.806820
 20
253.020430
 30
0.0
  0
SPLINE
  5
195
100
AcDbEntity
  8
Layer_1
 62
7
100
AcDbSpline
 70
8
 71
3
 72
8
 73
4
 74
0
 40
0
 40
0
 40
0
 40
0
 40
1
 40
1
 40
1
 40
1
 10
407.535110
 20
139.136400
 30
0.0
 10
401.985811
 20
136.942964
 30
0.0
 10
395.228448
 20
135.693796
 30
0.0
 10
388.215110
 20
135.564900
 30
0.0
  0
SPLINE
  5
196
100
AcDbEntity
  8
Layer_1
 62
7
100
AcDbSpline
 70
8
 71
3
 72
8
 73
4
 74
0
 40
0
 40
0
 40
0
 40
0
 40
1
 40
1
 40
1
 40
1
 10
450.045040
 20
199.051420
 30
0.0
 10
449.936802
 20
192.857836
 30
0.0
 10
449.017996
 20
186.710871
 30
0.0
 10
447.315330
 20
180.789210
 30
0.0
  0
SPLINE
  5
197
100
AcDbEntity
  8
Layer_1
 62
7
100
AcDbSpline
 70
8
 71
3
 72
8
 73
4
 74
0
 40
0
 40
0
 40
0
 40
0
 40
1
 40
1
 40
1
 40
1
 10
448.598010
 20
272.661080
 30
0.0
 10
449.516841
 20
271.990517
 30
0.0
 10
450.060104
 20
270.921659
 30
0.0
 10
450.060110
 20
269.784430
 30
0.0
  0
LWPOLYLINE
  5
198
100
AcDbEntity
  8
Layer_1
 62
7
100
AcDbPolyline
 90
2
 70
0
 10
230.690540
 20
273.349400
 30
0.0
 10
378.856340
 20
305.870260
 30
0.0
  0
SPLINE
  5
199
100
AcDbEntity
  8
Layer_1
 62
7
100
AcDbSpline
 70
8
 71
3
 72
8
 73
4
 74
0
 40
0
 40
0
 40
0
 40
0
 40
1
 40
1
 40
1
 40
1
 10
450.060110
 20
269.784430
 30
0.0
 10
450.060159
 20
269.743198
 30
0.0
 10
450.059493
 20
269.701969
 30
0.0
 10
450.058110
 20
269.660760
 30
0.0
  0
LWPOLYLINE
  5
19a
100
AcDbEntity
  8
Layer_1
 62
7
100
AcDbPolyline
 90
1
 70
1
 10
450.060110
 20
269.784430
 30
0.0
  0
ENDSEC
  0
SECTION
  2
OBJECTS
  0
DICTIONARY
  5
C
330
0
100
AcDbDictionary
  3
ACAD_GROUP
350
D
  3
ACAD_MLINESTYLE
350
17
  0
DICTIONARY
  5
D
330
C
100
AcDbDictionary
  0
DICTIONARY
  5
1A
330
C
100
AcDbDictionary
  0
DICTIONARY
  5
17
330
C
100
AcDbDictionary
  3
STANDARD
350
18
  0
DICTIONARY
  5
19
330
C
100
AcDbDictionary
  0
ENDSEC
  0
EOF
