  0
SECTION
  2
HEADER
  9
$ACADVER
  1
AC1014
  9
$HANDSEED
  5
FFFF
  9
$INSUNITS
 70
     4
  9
$MEASUREMENT
 70
     1
  0
ENDSEC
  0
SECTION
  2
TABLES
  0
TABLE
  2
VPORT
  5
8
330
0
100
AcDbSymbolTable
 70
     4
  0
VPORT
  5
2E
330
8
100
AcDbSymbolTableRecord
100
AcDbViewportTableRecord
  2
*ACTIVE
 70
     0
 10
0.0
 20
0.0
 11
1.0
 21
1.0
 12
210.0
 22
148.5
 13
0.0
 23
0.0
 14
10.0
 24
10.0
 15
10.0
 25
10.0
 16
0.0
 26
0.0
 36
1.0
 17
0.0
 27
0.0
 37
0.0
 40
341.0
 41
1.24
 42
50.0
 43
0.0
 44
0.0
 50
0.0
 51
0.0
 71
     0
 72
   100
 73
     1
 74
     3
 75
     0
 76
     0
 77
     0
 78
     0
  0
ENDTAB
  0
TABLE
  2
LTYPE
  5
5
330
0
100
AcDbSymbolTable
 70
     1
  0
LTYPE
  5
14
330
5
100
AcDbSymbolTableRecord
100
AcDbLinetypeTableRecord
  2
BYBLOCK
 70
     0
  3

 72
    65
 73
     0
 40
0.0
  0
LTYPE
  5
15
330
5
100
AcDbSymbolTableRecord
100
AcDbLinetypeTableRecord
  2
BYLAYER
 70
     0
  3

 72
    65
 73
     0
 40
0.0
  0
LTYPE
  5
16
330
5
100
AcDbSymbolTableRecord
100
AcDbLinetypeTableRecord
  2
CONTINUOUS
 70
     0
  3
Solid line
 72
    65
 73
     0
 40
0.0
  0
ENDTAB
  0
TABLE
  2
LAYER
  5
2
100
AcDbSymbolTable
 70
2
  0
LAYER
  5
50
100
AcDbSymbolTableRecord
100
AcDbLayerTableRecord
  2
0
 70
0
  6
CONTINUOUS
  0
LAYER
  5
51
100
AcDbSymbolTableRecord
100
AcDbLayerTableRecord
  2
Layer_1
 70
0
  6
CONTINUOUS
  0
ENDTAB
  0
TABLE
  2
STYLE
  5
3
330
0
100
AcDbSymbolTable
 70
     1
  0
STYLE
  5
11
330
3
100
AcDbSymbolTableRecord
100
AcDbTextStyleTableRecord
  2
STANDARD
 70
     0
 40
0.0
 41
1.0
 50
0.0
 71
     0
 42
2.5
  3
txt
  4

  0
ENDTAB
  0
TABLE
  2
VIEW
  5
6
330
0
100
AcDbSymbolTable
 70
     0
  0
ENDTAB
  0
TABLE
  2
UCS
  5
7
330
0
100
AcDbSymbolTable
 70
     0
  0
ENDTAB
  0
TABLE
  2
APPID
  5
9
330
0
100
AcDbSymbolTable
 70
     2
  0
APPID
  5
12
330
9
100
AcDbSymbolTableRecord
100
AcDbRegAppTableRecord
  2
ACAD
 70
     0
  0
ENDTAB
  0
TABLE
  2
DIMSTYLE
  5
A
330
0
100
AcDbSymbolTable
 70
     1
  0
DIMSTYLE
105
27
330
A
100
AcDbSymbolTableRecord
100
AcDbDimStyleTableRecord
  2
ISO-25
 70
     0
  3

  4

  5

  6

  7

 40
1.0
 41
2.5
 42
0.625
 43
3.75
 44
1.25
 45
0.0
 46
0.0
 47
0.0
 48
0.0
140
2.5
141
2.5
142
0.0
143
0.03937007874016
144
1.0
145
0.0
146
1.0
147
0.625
 71
     0
 72
     0
 73
     0
 74
     0
 75
     0
 76
     0
 77
     1
 78
     8
170
     0
171
     3
172
     1
173
     0
174
     0
175
     0
176
     0
177
     0
178
     0
270
     2
271
     2
272
     2
273
     2
274
     3
340
11
275
     0
280
     0
281
     0
282
     0
283
     0
284
     8
285
     0
286
     0
287
     3
288
     0
  0
ENDTAB
  0
TABLE
  2
BLOCK_RECORD
  5
1
330
0
100
AcDbSymbolTable
 70
     1
  0
BLOCK_RECORD
  5
1F
330
1
100
AcDbSymbolTableRecord
100
AcDbBlockTableRecord
  2
*MODEL_SPACE
  0
BLOCK_RECORD
  5
1B
330
1
100
AcDbSymbolTableRecord
100
AcDbBlockTableRecord
  2
*PAPER_SPACE
  0
ENDTAB
  0
ENDSEC
  0
SECTION
  2
BLOCKS
  0
BLOCK
  5
20
330
1F
100
AcDbEntity
  8
0
100
AcDbBlockBegin
  2
*MODEL_SPACE
 70
     0
 10
0.0
 20
0.0
 30
0.0
  3
*MODEL_SPACE
  1

  0
ENDBLK
  5
21
330
1F
100
AcDbEntity
  8
0
100
AcDbBlockEnd
  0
BLOCK
  5
1C
330
1B
100
AcDbEntity
 67
     1
  8
0
100
AcDbBlockBegin
  2
*PAPER_SPACE
  1

  0
ENDBLK
  5
1D
330
1B
100
AcDbEntity
 67
     1
  8
0
100
AcDbBlockEnd
  0
ENDSEC
  0
SECTION
  2
ENTITIES
  0
LWPOLYLINE
  5
100
100
AcDbEntity
  8
Layer_1
 62
7
100
AcDbPolyline
 90
2
 70
0
 10
380.183400
 20
235.751070
 30
0.0
 10
380.183400
 20
307.537320
 30
0.0
  0
LWPOLYLINE
  5
101
100
AcDbEntity
  8
Layer_1
 62
7
100
AcDbPolyline
 90
24
 70
0
 10
378.801700
 20
310.471550
 30
0.0
 10
350.215320
 20
334.072910
 30
0.0
 10
348.652420
 20
335.311960
 30
0.0
 10
347.038470
 20
336.484320
 30
0.0
 10
345.376960
 20
337.588430
 30
0.0
 10
343.670850
 20
338.621890
 30
0.0
 10
341.922560
 20
339.582590
 30
0.0
 10
340.135750
 20
340.469740
 30
0.0
 10
338.313460
 20
341.280960
 30
0.0
 10
336.458840
 20
342.015440
 30
0.0
 10
334.575240
 20
342.671080
 30
0.0
 10
332.665350
 20
343.247870
 30
0.0
 10
330.733250
 20
343.743960
 30
0.0
 10
328.782220
 20
344.158830
 30
0.0
 10
326.815280
 20
344.491140
 30
0.0
 10
324.836350
 20
344.741180
 30
0.0
 10
322.848490
 20
344.908130
 30
0.0
 10
320.855580
 20
344.992030
 30
0.0
 10
318.861120
 20
344.992000
 30
0.0
 10
316.868210
 20
344.908100
 30
0.0
 10
314.880350
 20
344.741180
 30
0.0
 10
312.901420
 20
344.491140
 30
0.0
 10
310.934480
 20
344.158830
 30
0.0
 10
308.983450
 20
343.743960
 30
0.0
  0
SPLINE
  5
102
100
AcDbEntity
  8
Layer_1
 62
7
100
AcDbSpline
 70
8
 71
3
 72
8
 73
4
 74
0
 40
0
 40
0
 40
0
 40
0
 40
1
 40
1
 40
1
 40
1
 10
163.013400
 20
299.378453
 30
0.0
 10
162.204013
 20
299.378453
 30
0.0
 10
161.474323
 20
298.890891
 30
0.0
 10
161.164584
 20
298.143114
 30
0.0
  0
SPLINE
  5
103
100
AcDbEntity
  8
Layer_1
 62
7
100
AcDbSpline
 70
8
 71
3
 72
8
 73
4
 74
0
 40
0
 40
0
 40
0
 40
0
 40
1
 40
1
 40
1
 40
1
 10
161.164584
 20
298.143114
 30
0.0
 10
160.854845
 20
297.395338
 30
0.0
 10
161.026055
 20
296.534611
 30
0.0
 10
161.598378
 20
295.962288
 30
0.0
  0
SPLINE
  5
104
100
AcDbEntity
  8
Layer_1
 62
7
100
AcDbSpline
 70
8
 71
3
 72
8
 73
4
 74
0
 40
0
 40
0
 40
0
 40
0
 40
1
 40
1
 40
1
 40
1
 10
161.598378
 20
295.962288
 30
0.0
 10
162.170701
 20
295.389965
 30
0.0
 10
163.031428
 20
295.218755
 30
0.0
 10
163.779204
 20
295.528494
 30
0.0
  0
SPLINE
  5
105
100
AcDbEntity
  8
Layer_1
 62
7
100
AcDbSpline
 70
8
 71
3
 72
8
 73
4
 74
0
 40
0
 40
0
 40
0
 40
0
 40
1
 40
1
 40
1
 40
1
 10
163.779204
 20
295.528494
 30
0.0
 10
164.526981
 20
295.838233
 30
0.0
 10
165.014544
 20
296.567923
 30
0.0
 10
165.014544
 20
297.377310
 30
0.0
  0
SPLINE
  5
106
100
AcDbEntity
  8
Layer_1
 62
7
100
AcDbSpline
 70
8
 71
3
 72
8
 73
4
 74
0
 40
0
 40
0
 40
0
 40
0
 40
1
 40
1
 40
1
 40
1
 10
165.014544
 20
297.377310
 30
0.0
 10
165.014544
 20
297.908046
 30
0.0
 10
164.803709
 20
298.417045
 30
0.0
 10
164.428422
 20
298.792332
 30
0.0
  0
SPLINE
  5
107
100
AcDbEntity
  8
Layer_1
 62
7
100
AcDbSpline
 70
8
 71
3
 72
8
 73
4
 74
0
 40
0
 40
0
 40
0
 40
0
 40
1
 40
1
 40
1
 40
1
 10
164.428422
 20
298.792332
 30
0.0
 10
164.053135
 20
299.167619
 30
0.0
 10
163.544136
 20
299.378453
 30
0.0
 10
163.013400
 20
299.378453
 30
0.0
  0
LWPOLYLINE
  5
108
100
AcDbEntity
  8
Layer_1
 62
7
100
AcDbPolyline
 90
2
 70
0
 10
157.933970
 20
307.603360
 30
0.0
 10
157.933970
 20
290.872390
 30
0.0
  0
SPLINE
  5
109
100
AcDbEntity
  8
Layer_1
 62
7
100
AcDbSpline
 70
8
 71
3
 72
8
 73
4
 74
0
 40
0
 40
0
 40
0
 40
0
 40
1
 40
1
 40
1
 40
1
 10
166.440810
 20
266.769774
 30
0.0
 10
165.335609
 20
266.769773
 30
0.0
 10
164.439667
 20
265.873831
 30
0.0
 10
164.439667
 20
264.768630
 30
0.0
  0
SPLINE
  5
10a
100
AcDbEntity
  8
Layer_1
 62
7
100
AcDbSpline
 70
8
 71
3
 72
8
 73
4
 74
0
 40
0
 40
0
 40
0
 40
0
 40
1
 40
1
 40
1
 40
1
 10
164.439667
 20
264.768630
 30
0.0
 10
164.439667
 20
263.663429
 30
0.0
 10
165.335609
 20
262.767487
 30
0.0
 10
166.440810
 20
262.767487
 30
0.0
  0
SPLINE
  5
10b
100
AcDbEntity
  8
Layer_1
 62
7
100
AcDbSpline
 70
8
 71
3
 72
8
 73
4
 74
0
 40
0
 40
0
 40
0
 40
0
 40
1
 40
1
 40
1
 40
1
 10
166.440810
 20
262.767487
 30
0.0
 10
167.546011
 20
262.767487
 30
0.0
 10
168.441954
 20
263.663429
 30
0.0
 10
168.441954
 20
264.768630
 30
0.0
  0
SPLINE
  5
10c
100
AcDbEntity
  8
Layer_1
 62
7
100
AcDbSpline
 70
8
 71
3
 72
8
 73
4
 74
0
 40
0
 40
0
 40
0
 40
0
 40
1
 40
1
 40
1
 40
1
 10
168.441954
 20
264.768630
 30
0.0
 10
168.441954
 20
265.299366
 30
0.0
 10
168.231119
 20
265.808365
 30
0.0
 10
167.855832
 20
266.183652
 30
0.0
  0
SPLINE
  5
10d
100
AcDbEntity
  8
Layer_1
 62
7
100
AcDbSpline
 70
8
 71
3
 72
8
 73
4
 74
0
 40
0
 40
0
 40
0
 40
0
 40
1
 40
1
 40
1
 40
1
 10
167.855832
 20
266.183652
 30
0.0
 10
167.480545
 20
266.558939
 30
0.0
 10
166.971546
 20
266.769774
 30
0.0
 10
166.440810
 20
266.769774
 30
0.0
  0
LWPOLYLINE
  5
10e
100
AcDbEntity
  8
Layer_1
 62
7
100
AcDbPolyline
 90
1
 70
1
 10
163.013400
 20
299.378453
 30
0.0
  0
SPLINE
  5
10f
100
AcDbEntity
  8
Layer_1
 62
7
100
AcDbSpline
 70
8
 71
3
 72
8
 73
4
 74
0
 40
0
 40
0
 40
0
 40
0
 40
1
 40
1
 40
1
 40
1
 10
176.573360
 20
235.583464
 30
0.0
 10
175.763973
 20
235.583464
 30
0.0
 10
175.034283
 20
235.095901
 30
0.0
 10
174.724544
 20
234.348124
 30
0.0
  0
SPLINE
  5
110
100
AcDbEntity
  8
Layer_1
 62
7
100
AcDbSpline
 70
8
 71
3
 72
8
 73
4
 74
0
 40
0
 40
0
 40
0
 40
0
 40
1
 40
1
 40
1
 40
1
 10
174.724544
 20
234.348124
 30
0.0
 10
174.414805
 20
233.600348
 30
0.0
 10
174.586015
 20
232.739621
 30
0.0
 10
175.158338
 20
232.167298
 30
0.0
  0
SPLINE
  5
111
100
AcDbEntity
  8
Layer_1
 62
7
100
AcDbSpline
 70
8
 71
3
 72
8
 73
4
 74
0
 40
0
 40
0
 40
0
 40
0
 40
1
 40
1
 40
1
 40
1
 10
175.158338
 20
232.167298
 30
0.0
 10
175.730661
 20
231.594975
 30
0.0
 10
176.591388
 20
231.423765
 30
0.0
 10
177.339164
 20
231.733504
 30
0.0
  0
SPLINE
  5
112
100
AcDbEntity
  8
Layer_1
 62
7
100
AcDbSpline
 70
8
 71
3
 72
8
 73
4
 74
0
 40
0
 40
0
 40
0
 40
0
 40
1
 40
1
 40
1
 40
1
 10
177.339164
 20
231.733504
 30
0.0
 10
178.086941
 20
232.043243
 30
0.0
 10
178.574504
 20
232.772933
 30
0.0
 10
178.574504
 20
233.582320
 30
0.0
  0
SPLINE
  5
113
100
AcDbEntity
  8
Layer_1
 62
7
100
AcDbSpline
 70
8
 71
3
 72
8
 73
4
 74
0
 40
0
 40
0
 40
0
 40
0
 40
1
 40
1
 40
1
 40
1
 10
178.574504
 20
233.582320
 30
0.0
 10
178.574504
 20
234.113056
 30
0.0
 10
178.363669
 20
234.622055
 30
0.0
 10
177.988382
 20
234.997342
 30
0.0
  0
SPLINE
  5
114
100
AcDbEntity
  8
Layer_1
 62
7
100
AcDbSpline
 70
8
 71
3
 72
8
 73
4
 74
0
 40
0
 40
0
 40
0
 40
0
 40
1
 40
1
 40
1
 40
1
 10
177.988382
 20
234.997342
 30
0.0
 10
177.613095
 20
235.372629
 30
0.0
 10
177.104096
 20
235.583464
 30
0.0
 10
176.573360
 20
235.583464
 30
0.0
  0
LWPOLYLINE
  5
115
100
AcDbEntity
  8
Layer_1
 62
7
100
AcDbPolyline
 90
1
 70
1
 10
166.440810
 20
266.769774
 30
0.0
  0
SPLINE
  5
116
100
AcDbEntity
  8
Layer_1
 62
7
100
AcDbSpline
 70
8
 71
3
 72
8
 73
4
 74
0
 40
0
 40
0
 40
0
 40
0
 40
1
 40
1
 40
1
 40
1
 10
192.968380
 20
207.188384
 30
0.0
 10
192.158993
 20
207.188384
 30
0.0
 10
191.429303
 20
206.700821
 30
0.0
 10
191.119564
 20
205.953044
 30
0.0
  0
SPLINE
  5
117
100
AcDbEntity
  8
Layer_1
 62
7
100
AcDbSpline
 70
8
 71
3
 72
8
 73
4
 74
0
 40
0
 40
0
 40
0
 40
0
 40
1
 40
1
 40
1
 40
1
 10
191.119564
 20
205.953044
 30
0.0
 10
190.809825
 20
205.205268
 30
0.0
 10
190.981035
 20
204.344541
 30
0.0
 10
191.553358
 20
203.772218
 30
0.0
  0
SPLINE
  5
118
100
AcDbEntity
  8
Layer_1
 62
7
100
AcDbSpline
 70
8
 71
3
 72
8
 73
4
 74
0
 40
0
 40
0
 40
0
 40
0
 40
1
 40
1
 40
1
 40
1
 10
191.553358
 20
203.772218
 30
0.0
 10
192.125681
 20
203.199895
 30
0.0
 10
192.986408
 20
203.028685
 30
0.0
 10
193.734184
 20
203.338424
 30
0.0
  0
SPLINE
  5
119
100
AcDbEntity
  8
Layer_1
 62
7
100
AcDbSpline
 70
8
 71
3
 72
8
 73
4
 74
0
 40
0
 40
0
 40
0
 40
0
 40
1
 40
1
 40
1
 40
1
 10
193.734184
 20
203.338424
 30
0.0
 10
194.481961
 20
203.648163
 30
0.0
 10
194.969524
 20
204.377853
 30
0.0
 10
194.969524
 20
205.187240
 30
0.0
  0
SPLINE
  5
11a
100
AcDbEntity
  8
Layer_1
 62
7
100
AcDbSpline
 70
8
 71
3
 72
8
 73
4
 74
0
 40
0
 40
0
 40
0
 40
0
 40
1
 40
1
 40
1
 40
1
 10
194.969524
 20
205.187240
 30
0.0
 10
194.969524
 20
205.717976
 30
0.0
 10
194.758689
 20
206.226975
 30
0.0
 10
194.383402
 20
206.602262
 30
0.0
  0
SPLINE
  5
11b
100
AcDbEntity
  8
Layer_1
 62
7
100
AcDbSpline
 70
8
 71
3
 72
8
 73
4
 74
0
 40
0
 40
0
 40
0
 40
0
 40
1
 40
1
 40
1
 40
1
 10
194.383402
 20
206.602262
 30
0.0
 10
194.008115
 20
206.977549
 30
0.0
 10
193.499116
 20
207.188384
 30
0.0
 10
192.968380
 20
207.188384
 30
0.0
  0
LWPOLYLINE
  5
11c
100
AcDbEntity
  8
Layer_1
 62
7
100
AcDbPolyline
 90
1
 70
1
 10
176.573360
 20
235.583464
 30
0.0
  0
SPLINE
  5
11d
100
AcDbEntity
  8
Layer_1
 62
7
100
AcDbSpline
 70
8
 71
3
 72
8
 73
4
 74
0
 40
0
 40
0
 40
0
 40
0
 40
1
 40
1
 40
1
 40
1
 10
214.908450
 20
182.820254
 30
0.0
 10
213.803249
 20
182.820253
 30
0.0
 10
212.907307
 20
181.924311
 30
0.0
 10
212.907307
 20
180.819110
 30
0.0
  0
SPLINE
  5
11e
100
AcDbEntity
  8
Layer_1
 62
7
100
AcDbSpline
 70
8
 71
3
 72
8
 73
4
 74
0
 40
0
 40
0
 40
0
 40
0
 40
1
 40
1
 40
1
 40
1
 10
212.907307
 20
180.819110
 30
0.0
 10
212.907307
 20
179.713909
 30
0.0
 10
213.803249
 20
178.817966
 30
0.0
 10
214.908450
 20
178.817966
 30
0.0
  0
SPLINE
  5
11f
100
AcDbEntity
  8
Layer_1
 62
7
100
AcDbSpline
 70
8
 71
3
 72
8
 73
4
 74
0
 40
0
 40
0
 40
0
 40
0
 40
1
 40
1
 40
1
 40
1
 10
214.908450
 20
178.817966
 30
0.0
 10
216.013651
 20
178.817966
 30
0.0
 10
216.909593
 20
179.713909
 30
0.0
 10
216.909593
 20
180.819110
 30
0.0
  0
SPLINE
  5
120
100
AcDbEntity
  8
Layer_1
 62
7
100
AcDbSpline
 70
8
 71
3
 72
8
 73
4
 74
0
 40
0
 40
0
 40
0
 40
0
 40
1
 40
1
 40
1
 40
1
 10
216.909593
 20
180.819110
 30
0.0
 10
216.909593
 20
181.349846
 30
0.0
 10
216.698759
 20
181.858845
 30
0.0
 10
216.323472
 20
182.234132
 30
0.0
  0
SPLINE
  5
121
100
AcDbEntity
  8
Layer_1
 62
7
100
AcDbSpline
 70
8
 71
3
 72
8
 73
4
 74
0
 40
0
 40
0
 40
0
 40
0
 40
1
 40
1
 40
1
 40
1
 10
216.323472
 20
182.234132
 30
0.0
 10
215.948185
 20
182.609419
 30
0.0
 10
215.439186
 20
182.820253
 30
0.0
 10
214.908450
 20
182.820253
 30
0.0
  0
LWPOLYLINE
  5
122
100
AcDbEntity
  8
Layer_1
 62
7
100
AcDbPolyline
 90
1
 70
1
 10
192.968380
 20
207.188384
 30
0.0
  0
SPLINE
  5
123
100
AcDbEntity
  8
Layer_1
 62
7
100
AcDbSpline
 70
8
 71
3
 72
8
 73
4
 74
0
 40
0
 40
0
 40
0
 40
0
 40
1
 40
1
 40
1
 40
1
 10
246.198640
 20
315.377814
 30
0.0
 10
245.093439
 20
315.377814
 30
0.0
 10
244.197497
 20
314.481871
 30
0.0
 10
244.197497
 20
313.376670
 30
0.0
  0
SPLINE
  5
124
100
AcDbEntity
  8
Layer_1
 62
7
100
AcDbSpline
 70
8
 71
3
 72
8
 73
4
 74
0
 40
0
 40
0
 40
0
 40
0
 40
1
 40
1
 40
1
 40
1
 10
244.197497
 20
313.376670
 30
0.0
 10
244.197497
 20
312.271469
 30
0.0
 10
245.093439
 20
311.375526
 30
0.0
 10
246.198640
 20
311.375526
 30
0.0
  0
SPLINE
  5
125
100
AcDbEntity
  8
Layer_1
 62
7
100
AcDbSpline
 70
8
 71
3
 72
8
 73
4
 74
0
 40
0
 40
0
 40
0
 40
0
 40
1
 40
1
 40
1
 40
1
 10
246.198640
 20
311.375526
 30
0.0
 10
247.303841
 20
311.375526
 30
0.0
 10
248.199784
 20
312.271469
 30
0.0
 10
248.199784
 20
313.376670
 30
0.0
  0
SPLINE
  5
126
100
AcDbEntity
  8
Layer_1
 62
7
100
AcDbSpline
 70
8
 71
3
 72
8
 73
4
 74
0
 40
0
 40
0
 40
0
 40
0
 40
1
 40
1
 40
1
 40
1
 10
248.199784
 20
313.376670
 30
0.0
 10
248.199784
 20
313.907406
 30
0.0
 10
247.988949
 20
314.416405
 30
0.0
 10
247.613662
 20
314.791692
 30
0.0
  0
SPLINE
  5
127
100
AcDbEntity
  8
Layer_1
 62
7
100
AcDbSpline
 70
8
 71
3
 72
8
 73
4
 74
0
 40
0
 40
0
 40
0
 40
0
 40
1
 40
1
 40
1
 40
1
 10
247.613662
 20
314.791692
 30
0.0
 10
247.238375
 20
315.166979
 30
0.0
 10
246.729376
 20
315.377814
 30
0.0
 10
246.198640
 20
315.377814
 30
0.0
  0
LWPOLYLINE
  5
128
100
AcDbEntity
  8
Layer_1
 62
7
100
AcDbPolyline
 90
1
 70
1
 10
214.908450
 20
182.820253
 30
0.0
  0
SPLINE
  5
129
100
AcDbEntity
  8
Layer_1
 62
7
100
AcDbSpline
 70
8
 71
3
 72
8
 73
4
 74
0
 40
0
 40
0
 40
0
 40
0
 40
1
 40
1
 40
1
 40
1
 10
271.598660
 20
315.377814
 30
0.0
 10
270.493459
 20
315.377814
 30
0.0
 10
269.597517
 20
314.481871
 30
0.0
 10
269.597517
 20
313.376670
 30
0.0
  0
SPLINE
  5
12a
100
AcDbEntity
  8
Layer_1
 62
7
100
AcDbSpline
 70
8
 71
3
 72
8
 73
4
 74
0
 40
0
 40
0
 40
0
 40
0
 40
1
 40
1
 40
1
 40
1
 10
269.597517
 20
313.376670
 30
0.0
 10
269.597517
 20
312.271469
 30
0.0
 10
270.493459
 20
311.375526
 30
0.0
 10
271.598660
 20
311.375526
 30
0.0
  0
SPLINE
  5
12b
100
AcDbEntity
  8
Layer_1
 62
7
100
AcDbSpline
 70
8
 71
3
 72
8
 73
4
 74
0
 40
0
 40
0
 40
0
 40
0
 40
1
 40
1
 40
1
 40
1
 10
271.598660
 20
311.375526
 30
0.0
 10
272.703861
 20
311.375527
 30
0.0
 10
273.599804
 20
312.271469
 30
0.0
 10
273.599804
 20
313.376670
 30
0.0
  0
SPLINE
  5
12c
100
AcDbEntity
  8
Layer_1
 62
7
100
AcDbSpline
 70
8
 71
3
 72
8
 73
4
 74
0
 40
0
 40
0
 40
0
 40
0
 40
1
 40
1
 40
1
 40
1
 10
273.599804
 20
313.376670
 30
0.0
 10
273.599804
 20
313.907406
 30
0.0
 10
273.388969
 20
314.416405
 30
0.0
 10
273.013682
 20
314.791692
 30
0.0
  0
SPLINE
  5
12d
100
AcDbEntity
  8
Layer_1
 62
7
100
AcDbSpline
 70
8
 71
3
 72
8
 73
4
 74
0
 40
0
 40
0
 40
0
 40
0
 40
1
 40
1
 40
1
 40
1
 10
273.013682
 20
314.791692
 30
0.0
 10
272.638395
 20
315.166979
 30
0.0
 10
272.129396
 20
315.377814
 30
0.0
 10
271.598660
 20
315.377814
 30
0.0
  0
LWPOLYLINE
  5
12e
100
AcDbEntity
  8
Layer_1
 62
7
100
AcDbPolyline
 90
1
 70
1
 10
246.198640
 20
315.377814
 30
0.0
  0
SPLINE
  5
12f
100
AcDbEntity
  8
Layer_1
 62
7
100
AcDbSpline
 70
8
 71
3
 72
8
 73
4
 74
0
 40
0
 40
0
 40
0
 40
0
 40
1
 40
1
 40
1
 40
1
 10
296.998540
 20
315.377814
 30
0.0
 10
296.189153
 20
315.377814
 30
0.0
 10
295.459463
 20
314.890251
 30
0.0
 10
295.149724
 20
314.142474
 30
0.0
  0
SPLINE
  5
130
100
AcDbEntity
  8
Layer_1
 62
7
100
AcDbSpline
 70
8
 71
3
 72
8
 73
4
 74
0
 40
0
 40
0
 40
0
 40
0
 40
1
 40
1
 40
1
 40
1
 10
295.149724
 20
314.142474
 30
0.0
 10
294.839985
 20
313.394698
 30
0.0
 10
295.011195
 20
312.533971
 30
0.0
 10
295.583518
 20
311.961648
 30
0.0
  0
SPLINE
  5
131
100
AcDbEntity
  8
Layer_1
 62
7
100
AcDbSpline
 70
8
 71
3
 72
8
 73
4
 74
0
 40
0
 40
0
 40
0
 40
0
 40
1
 40
1
 40
1
 40
1
 10
295.583518
 20
311.961648
 30
0.0
 10
296.155841
 20
311.389325
 30
0.0
 10
297.016568
 20
311.218115
 30
0.0
 10
297.764344
 20
311.527854
 30
0.0
  0
SPLINE
  5
132
100
AcDbEntity
  8
Layer_1
 62
7
100
AcDbSpline
 70
8
 71
3
 72
8
 73
4
 74
0
 40
0
 40
0
 40
0
 40
0
 40
1
 40
1
 40
1
 40
1
 10
297.764344
 20
311.527854
 30
0.0
 10
298.512121
 20
311.837593
 30
0.0
 10
298.999684
 20
312.567283
 30
0.0
 10
298.999684
 20
313.376670
 30
0.0
  0
SPLINE
  5
133
100
AcDbEntity
  8
Layer_1
 62
7
100
AcDbSpline
 70
8
 71
3
 72
8
 73
4
 74
0
 40
0
 40
0
 40
0
 40
0
 40
1
 40
1
 40
1
 40
1
 10
298.999684
 20
313.376670
 30
0.0
 10
298.999684
 20
313.907406
 30
0.0
 10
298.788849
 20
314.416405
 30
0.0
 10
298.413562
 20
314.791692
 30
0.0
  0
SPLINE
  5
134
100
AcDbEntity
  8
Layer_1
 62
7
100
AcDbSpline
 70
8
 71
3
 72
8
 73
4
 74
0
 40
0
 40
0
 40
0
 40
0
 40
1
 40
1
 40
1
 40
1
 10
298.413562
 20
314.791692
 30
0.0
 10
298.038275
 20
315.166979
 30
0.0
 10
297.529276
 20
315.377814
 30
0.0
 10
296.998540
 20
315.377814
 30
0.0
  0
LWPOLYLINE
  5
135
100
AcDbEntity
  8
Layer_1
 62
7
100
AcDbPolyline
 90
1
 70
1
 10
271.598660
 20
315.377814
 30
0.0
  0
SPLINE
  5
136
100
AcDbEntity
  8
Layer_1
 62
7
100
AcDbSpline
 70
8
 71
3
 72
8
 73
4
 74
0
 40
0
 40
0
 40
0
 40
0
 40
1
 40
1
 40
1
 40
1
 10
246.198640
 20
283.379123
 30
0.0
 10
245.093439
 20
283.379123
 30
0.0
 10
244.197497
 20
282.483181
 30
0.0
 10
244.197497
 20
281.377980
 30
0.0
  0
SPLINE
  5
137
100
AcDbEntity
  8
Layer_1
 62
7
100
AcDbSpline
 70
8
 71
3
 72
8
 73
4
 74
0
 40
0
 40
0
 40
0
 40
0
 40
1
 40
1
 40
1
 40
1
 10
244.197497
 20
281.377980
 30
0.0
 10
244.197497
 20
280.272779
 30
0.0
 10
245.093439
 20
279.376837
 30
0.0
 10
246.198640
 20
279.376837
 30
0.0
  0
SPLINE
  5
138
100
AcDbEntity
  8
Layer_1
 62
7
100
AcDbSpline
 70
8
 71
3
 72
8
 73
4
 74
0
 40
0
 40
0
 40
0
 40
0
 40
1
 40
1
 40
1
 40
1
 10
246.198640
 20
279.376837
 30
0.0
 10
247.303841
 20
279.376837
 30
0.0
 10
248.199784
 20
280.272779
 30
0.0
 10
248.199784
 20
281.377980
 30
0.0
  0
SPLINE
  5
139
100
AcDbEntity
  8
Layer_1
 62
7
100
AcDbSpline
 70
8
 71
3
 72
8
 73
4
 74
0
 40
0
 40
0
 40
0
 40
0
 40
1
 40
1
 40
1
 40
1
 10
248.199784
 20
281.377980
 30
0.0
 10
248.199784
 20
281.908716
 30
0.0
 10
247.988949
 20
282.417715
 30
0.0
 10
247.613662
 20
282.793002
 30
0.0
  0
SPLINE
  5
13a
100
AcDbEntity
  8
Layer_1
 62
7
100
AcDbSpline
 70
8
 71
3
 72
8
 73
4
 74
0
 40
0
 40
0
 40
0
 40
0
 40
1
 40
1
 40
1
 40
1
 10
247.613662
 20
282.793002
 30
0.0
 10
247.238375
 20
283.168289
 30
0.0
 10
246.729376
 20
283.379123
 30
0.0
 10
246.198640
 20
283.379123
 30
0.0
  0
LWPOLYLINE
  5
13b
100
AcDbEntity
  8
Layer_1
 62
7
100
AcDbPolyline
 90
1
 70
1
 10
296.998540
 20
315.377814
 30
0.0
  0
SPLINE
  5
13c
100
AcDbEntity
  8
Layer_1
 62
7
100
AcDbSpline
 70
8
 71
3
 72
8
 73
4
 74
0
 40
0
 40
0
 40
0
 40
0
 40
1
 40
1
 40
1
 40
1
 10
271.598660
 20
283.379123
 30
0.0
 10
270.493459
 20
283.379123
 30
0.0
 10
269.597517
 20
282.483181
 30
0.0
 10
269.597517
 20
281.377980
 30
0.0
  0
SPLINE
  5
13d
100
AcDbEntity
  8
Layer_1
 62
7
100
AcDbSpline
 70
8
 71
3
 72
8
 73
4
 74
0
 40
0
 40
0
 40
0
 40
0
 40
1
 40
1
 40
1
 40
1
 10
269.597517
 20
281.377980
 30
0.0
 10
269.597517
 20
280.272779
 30
0.0
 10
270.493459
 20
279.376837
 30
0.0
 10
271.598660
 20
279.376837
 30
0.0
  0
SPLINE
  5
13e
100
AcDbEntity
  8
Layer_1
 62
7
100
AcDbSpline
 70
8
 71
3
 72
8
 73
4
 74
0
 40
0
 40
0
 40
0
 40
0
 40
1
 40
1
 40
1
 40
1
 10
271.598660
 20
279.376837
 30
0.0
 10
272.703861
 20
279.376837
 30
0.0
 10
273.599804
 20
280.272779
 30
0.0
 10
273.599804
 20
281.377980
 30
0.0
  0
SPLINE
  5
13f
100
AcDbEntity
  8
Layer_1
 62
7
100
AcDbSpline
 70
8
 71
3
 72
8
 73
4
 74
0
 40
0
 40
0
 40
0
 40
0
 40
1
 40
1
 40
1
 40
1
 10
273.599804
 20
281.377980
 30
0.0
 10
273.599804
 20
281.908716
 30
0.0
 10
273.388969
 20
282.417715
 30
0.0
 10
273.013682
 20
282.793002
 30
0.0
  0
SPLINE
  5
140
100
AcDbEntity
  8
Layer_1
 62
7
100
AcDbSpline
 70
8
 71
3
 72
8
 73
4
 74
0
 40
0
 40
0
 40
0
 40
0
 40
1
 40
1
 40
1
 40
1
 10
273.013682
 20
282.793002
 30
0.0
 10
272.638395
 20
283.168289
 30
0.0
 10
272.129396
 20
283.379123
 30
0.0
 10
271.598660
 20
283.379123
 30
0.0
  0
LWPOLYLINE
  5
141
100
AcDbEntity
  8
Layer_1
 62
7
100
AcDbPolyline
 90
1
 70
1
 10
246.198640
 20
283.379123
 30
0.0
  0
SPLINE
  5
142
100
AcDbEntity
  8
Layer_1
 62
7
100
AcDbSpline
 70
8
 71
3
 72
8
 73
4
 74
0
 40
0
 40
0
 40
0
 40
0
 40
1
 40
1
 40
1
 40
1
 10
296.998540
 20
283.379123
 30
0.0
 10
296.189153
 20
283.379124
 30
0.0
 10
295.459463
 20
282.891561
 30
0.0
 10
295.149724
 20
282.143784
 30
0.0
  0
SPLINE
  5
143
100
AcDbEntity
  8
Layer_1
 62
7
100
AcDbSpline
 70
8
 71
3
 72
8
 73
4
 74
0
 40
0
 40
0
 40
0
 40
0
 40
1
 40
1
 40
1
 40
1
 10
295.149724
 20
282.143784
 30
0.0
 10
294.839985
 20
281.396008
 30
0.0
 10
295.011195
 20
280.535281
 30
0.0
 10
295.583518
 20
279.962958
 30
0.0
  0
SPLINE
  5
144
100
AcDbEntity
  8
Layer_1
 62
7
100
AcDbSpline
 70
8
 71
3
 72
8
 73
4
 74
0
 40
0
 40
0
 40
0
 40
0
 40
1
 40
1
 40
1
 40
1
 10
295.583518
 20
279.962958
 30
0.0
 10
296.155841
 20
279.390635
 30
0.0
 10
297.016568
 20
279.219425
 30
0.0
 10
297.764344
 20
279.529164
 30
0.0
  0
SPLINE
  5
145
100
AcDbEntity
  8
Layer_1
 62
7
100
AcDbSpline
 70
8
 71
3
 72
8
 73
4
 74
0
 40
0
 40
0
 40
0
 40
0
 40
1
 40
1
 40
1
 40
1
 10
297.764344
 20
279.529164
 30
0.0
 10
298.512121
 20
279.838903
 30
0.0
 10
298.999684
 20
280.568593
 30
0.0
 10
298.999684
 20
281.377980
 30
0.0
  0
SPLINE
  5
146
100
AcDbEntity
  8
Layer_1
 62
7
100
AcDbSpline
 70
8
 71
3
 72
8
 73
4
 74
0
 40
0
 40
0
 40
0
 40
0
 40
1
 40
1
 40
1
 40
1
 10
298.999684
 20
281.377980
 30
0.0
 10
298.999684
 20
281.908716
 30
0.0
 10
298.788849
 20
282.417715
 30
0.0
 10
298.413562
 20
282.793002
 30
0.0
  0
SPLINE
  5
147
100
AcDbEntity
  8
Layer_1
 62
7
100
AcDbSpline
 70
8
 71
3
 72
8
 73
4
 74
0
 40
0
 40
0
 40
0
 40
0
 40
1
 40
1
 40
1
 40
1
 10
298.413562
 20
282.793002
 30
0.0
 10
298.038275
 20
283.168289
 30
0.0
 10
297.529276
 20
283.379124
 30
0.0
 10
296.998540
 20
283.379124
 30
0.0
  0
LWPOLYLINE
  5
148
100
AcDbEntity
  8
Layer_1
 62
7
100
AcDbPolyline
 90
1
 70
1
 10
271.598660
 20
283.379123
 30
0.0
  0
SPLINE
  5
149
100
AcDbEntity
  8
Layer_1
 62
7
100
AcDbSpline
 70
8
 71
3
 72
8
 73
4
 74
0
 40
0
 40
0
 40
0
 40
0
 40
1
 40
1
 40
1
 40
1
 10
308.544800
 20
299.378473
 30
0.0
 10
307.735413
 20
299.378473
 30
0.0
 10
307.005723
 20
298.890911
 30
0.0
 10
306.695984
 20
298.143134
 30
0.0
  0
SPLINE
  5
14a
100
AcDbEntity
  8
Layer_1
 62
7
100
AcDbSpline
 70
8
 71
3
 72
8
 73
4
 74
0
 40
0
 40
0
 40
0
 40
0
 40
1
 40
1
 40
1
 40
1
 10
306.695984
 20
298.143134
 30
0.0
 10
306.386245
 20
297.395358
 30
0.0
 10
306.557455
 20
296.534631
 30
0.0
 10
307.129778
 20
295.962308
 30
0.0
  0
SPLINE
  5
14b
100
AcDbEntity
  8
Layer_1
 62
7
100
AcDbSpline
 70
8
 71
3
 72
8
 73
4
 74
0
 40
0
 40
0
 40
0
 40
0
 40
1
 40
1
 40
1
 40
1
 10
307.129778
 20
295.962308
 30
0.0
 10
307.702101
 20
295.389985
 30
0.0
 10
308.562828
 20
295.218775
 30
0.0
 10
309.310604
 20
295.528514
 30
0.0
  0
SPLINE
  5
14c
100
AcDbEntity
  8
Layer_1
 62
7
100
AcDbSpline
 70
8
 71
3
 72
8
 73
4
 74
0
 40
0
 40
0
 40
0
 40
0
 40
1
 40
1
 40
1
 40
1
 10
309.310604
 20
295.528514
 30
0.0
 10
310.058381
 20
295.838253
 30
0.0
 10
310.545944
 20
296.567943
 30
0.0
 10
310.545944
 20
297.377330
 30
0.0
  0
SPLINE
  5
14d
100
AcDbEntity
  8
Layer_1
 62
7
100
AcDbSpline
 70
8
 71
3
 72
8
 73
4
 74
0
 40
0
 40
0
 40
0
 40
0
 40
1
 40
1
 40
1
 40
1
 10
310.545944
 20
297.377330
 30
0.0
 10
310.545944
 20
297.908066
 30
0.0
 10
310.335109
 20
298.417065
 30
0.0
 10
309.959822
 20
298.792352
 30
0.0
  0
SPLINE
  5
14e
100
AcDbEntity
  8
Layer_1
 62
7
100
AcDbSpline
 70
8
 71
3
 72
8
 73
4
 74
0
 40
0
 40
0
 40
0
 40
0
 40
1
 40
1
 40
1
 40
1
 10
309.959822
 20
298.792352
 30
0.0
 10
309.584535
 20
299.167639
 30
0.0
 10
309.075536
 20
299.378473
 30
0.0
 10
308.544800
 20
299.378473
 30
0.0
  0
LWPOLYLINE
  5
14f
100
AcDbEntity
  8
Layer_1
 62
7
100
AcDbPolyline
 90
1
 70
1
 10
296.998540
 20
283.379124
 30
0.0
  0
SPLINE
  5
150
100
AcDbEntity
  8
Layer_1
 62
7
100
AcDbSpline
 70
8
 71
3
 72
8
 73
4
 74
0
 40
0
 40
0
 40
0
 40
0
 40
1
 40
1
 40
1
 40
1
 10
319.858400
 20
310.692044
 30
0.0
 10
318.753199
 20
310.692043
 30
0.0
 10
317.857257
 20
309.796101
 30
0.0
 10
317.857257
 20
308.690900
 30
0.0
  0
SPLINE
  5
151
100
AcDbEntity
  8
Layer_1
 62
7
100
AcDbSpline
 70
8
 71
3
 72
8
 73
4
 74
0
 40
0
 40
0
 40
0
 40
0
 40
1
 40
1
 40
1
 40
1
 10
317.857257
 20
308.690900
 30
0.0
 10
317.857257
 20
307.585699
 30
0.0
 10
318.753199
 20
306.689756
 30
0.0
 10
319.858400
 20
306.689756
 30
0.0
  0
SPLINE
  5
152
100
AcDbEntity
  8
Layer_1
 62
7
100
AcDbSpline
 70
8
 71
3
 72
8
 73
4
 74
0
 40
0
 40
0
 40
0
 40
0
 40
1
 40
1
 40
1
 40
1
 10
319.858400
 20
306.689756
 30
0.0
 10
320.963601
 20
306.689756
 30
0.0
 10
321.859544
 20
307.585699
 30
0.0
 10
321.859544
 20
308.690900
 30
0.0
  0
SPLINE
  5
153
100
AcDbEntity
  8
Layer_1
 62
7
100
AcDbSpline
 70
8
 71
3
 72
8
 73
4
 74
0
 40
0
 40
0
 40
0
 40
0
 40
1
 40
1
 40
1
 40
1
 10
321.859544
 20
308.690900
 30
0.0
 10
321.859544
 20
309.221636
 30
0.0
 10
321.648709
 20
309.730635
 30
0.0
 10
321.273422
 20
310.105922
 30
0.0
  0
SPLINE
  5
154
100
AcDbEntity
  8
Layer_1
 62
7
100
AcDbSpline
 70
8
 71
3
 72
8
 73
4
 74
0
 40
0
 40
0
 40
0
 40
0
 40
1
 40
1
 40
1
 40
1
 10
321.273422
 20
310.105922
 30
0.0
 10
320.898135
 20
310.481209
 30
0.0
 10
320.389136
 20
310.692043
 30
0.0
 10
319.858400
 20
310.692043
 30
0.0
  0
LWPOLYLINE
  5
155
100
AcDbEntity
  8
Layer_1
 62
7
100
AcDbPolyline
 90
1
 70
1
 10
308.544800
 20
299.378473
 30
0.0
  0
SPLINE
  5
156
100
AcDbEntity
  8
Layer_1
 62
7
100
AcDbSpline
 70
8
 71
3
 72
8
 73
4
 74
0
 40
0
 40
0
 40
0
 40
0
 40
1
 40
1
 40
1
 40
1
 10
331.172000
 20
299.378473
 30
0.0
 10
330.362613
 20
299.378473
 30
0.0
 10
329.632923
 20
298.890911
 30
0.0
 10
329.323184
 20
298.143134
 30
0.0
  0
SPLINE
  5
157
100
AcDbEntity
  8
Layer_1
 62
7
100
AcDbSpline
 70
8
 71
3
 72
8
 73
4
 74
0
 40
0
 40
0
 40
0
 40
0
 40
1
 40
1
 40
1
 40
1
 10
329.323184
 20
298.143134
 30
0.0
 10
329.013445
 20
297.395358
 30
0.0
 10
329.184655
 20
296.534631
 30
0.0
 10
329.756978
 20
295.962308
 30
0.0
  0
SPLINE
  5
158
100
AcDbEntity
  8
Layer_1
 62
7
100
AcDbSpline
 70
8
 71
3
 72
8
 73
4
 74
0
 40
0
 40
0
 40
0
 40
0
 40
1
 40
1
 40
1
 40
1
 10
329.756978
 20
295.962308
 30
0.0
 10
330.329301
 20
295.389985
 30
0.0
 10
331.190028
 20
295.218775
 30
0.0
 10
331.937804
 20
295.528514
 30
0.0
  0
SPLINE
  5
159
100
AcDbEntity
  8
Layer_1
 62
7
100
AcDbSpline
 70
8
 71
3
 72
8
 73
4
 74
0
 40
0
 40
0
 40
0
 40
0
 40
1
 40
1
 40
1
 40
1
 10
331.937804
 20
295.528514
 30
0.0
 10
332.685581
 20
295.838253
 30
0.0
 10
333.173144
 20
296.567943
 30
0.0
 10
333.173144
 20
297.377330
 30
0.0
  0
SPLINE
  5
15a
100
AcDbEntity
  8
Layer_1
 62
7
100
AcDbSpline
 70
8
 71
3
 72
8
 73
4
 74
0
 40
0
 40
0
 40
0
 40
0
 40
1
 40
1
 40
1
 40
1
 10
333.173144
 20
297.377330
 30
0.0
 10
333.173144
 20
297.908066
 30
0.0
 10
332.962309
 20
298.417065
 30
0.0
 10
332.587022
 20
298.792352
 30
0.0
  0
SPLINE
  5
15b
100
AcDbEntity
  8
Layer_1
 62
7
100
AcDbSpline
 70
8
 71
3
 72
8
 73
4
 74
0
 40
0
 40
0
 40
0
 40
0
 40
1
 40
1
 40
1
 40
1
 10
332.587022
 20
298.792352
 30
0.0
 10
332.211735
 20
299.167639
 30
0.0
 10
331.702736
 20
299.378473
 30
0.0
 10
331.172000
 20
299.378473
 30
0.0
  0
LWPOLYLINE
  5
15c
100
AcDbEntity
  8
Layer_1
 62
7
100
AcDbPolyline
 90
1
 70
1
 10
319.858400
 20
310.692043
 30
0.0
  0
SPLINE
  5
15d
100
AcDbEntity
  8
Layer_1
 62
7
100
AcDbSpline
 70
8
 71
3
 72
8
 73
4
 74
0
 40
0
 40
0
 40
0
 40
0
 40
1
 40
1
 40
1
 40
1
 10
319.858400
 20
288.064884
 30
0.0
 10
318.753199
 20
288.064883
 30
0.0
 10
317.857257
 20
287.168941
 30
0.0
 10
317.857257
 20
286.063740
 30
0.0
  0
SPLINE
  5
15e
100
AcDbEntity
  8
Layer_1
 62
7
100
AcDbSpline
 70
8
 71
3
 72
8
 73
4
 74
0
 40
0
 40
0
 40
0
 40
0
 40
1
 40
1
 40
1
 40
1
 10
317.857257
 20
286.063740
 30
0.0
 10
317.857257
 20
284.958539
 30
0.0
 10
318.753199
 20
284.062597
 30
0.0
 10
319.858400
 20
284.062597
 30
0.0
  0
SPLINE
  5
15f
100
AcDbEntity
  8
Layer_1
 62
7
100
AcDbSpline
 70
8
 71
3
 72
8
 73
4
 74
0
 40
0
 40
0
 40
0
 40
0
 40
1
 40
1
 40
1
 40
1
 10
319.858400
 20
284.062597
 30
0.0
 10
320.963601
 20
284.062597
 30
0.0
 10
321.859544
 20
284.958539
 30
0.0
 10
321.859544
 20
286.063740
 30
0.0
  0
SPLINE
  5
160
100
AcDbEntity
  8
Layer_1
 62
7
100
AcDbSpline
 70
8
 71
3
 72
8
 73
4
 74
0
 40
0
 40
0
 40
0
 40
0
 40
1
 40
1
 40
1
 40
1
 10
321.859544
 20
286.063740
 30
0.0
 10
321.859544
 20
286.594476
 30
0.0
 10
321.648709
 20
287.103475
 30
0.0
 10
321.273422
 20
287.478762
 30
0.0
  0
SPLINE
  5
161
100
AcDbEntity
  8
Layer_1
 62
7
100
AcDbSpline
 70
8
 71
3
 72
8
 73
4
 74
0
 40
0
 40
0
 40
0
 40
0
 40
1
 40
1
 40
1
 40
1
 10
321.273422
 20
287.478762
 30
0.0
 10
320.898135
 20
287.854049
 30
0.0
 10
320.389136
 20
288.064884
 30
0.0
 10
319.858400
 20
288.064884
 30
0.0
  0
LWPOLYLINE
  5
162
100
AcDbEntity
  8
Layer_1
 62
7
100
AcDbPolyline
 90
1
 70
1
 10
331.172000
 20
299.378473
 30
0.0
  0
SPLINE
  5
163
100
AcDbEntity
  8
Layer_1
 62
7
100
AcDbSpline
 70
8
 71
3
 72
8
 73
4
 74
0
 40
0
 40
0
 40
0
 40
0
 40
1
 40
1
 40
1
 40
1
 10
319.858400
 20
304.432042
 30
0.0
 10
317.005027
 20
304.432042
 30
0.0
 10
314.432616
 20
302.713212
 30
0.0
 10
313.340677
 20
300.077039
 30
0.0
  0
SPLINE
  5
164
100
AcDbEntity
  8
Layer_1
 62
7
100
AcDbSpline
 70
8
 71
3
 72
8
 73
4
 74
0
 40
0
 40
0
 40
0
 40
0
 40
1
 40
1
 40
1
 40
1
 10
313.340677
 20
300.077039
 30
0.0
 10
312.248739
 20
297.440866
 30
0.0
 10
312.852312
 20
294.406500
 30
0.0
 10
314.869951
 20
292.388861
 30
0.0
  0
SPLINE
  5
165
100
AcDbEntity
  8
Layer_1
 62
7
100
AcDbSpline
 70
8
 71
3
 72
8
 73
4
 74
0
 40
0
 40
0
 40
0
 40
0
 40
1
 40
1
 40
1
 40
1
 10
314.869951
 20
292.388861
 30
0.0
 10
316.887590
 20
290.371222
 30
0.0
 10
319.921956
 20
289.767649
 30
0.0
 10
322.558129
 20
290.859587
 30
0.0
  0
SPLINE
  5
166
100
AcDbEntity
  8
Layer_1
 62
7
100
AcDbSpline
 70
8
 71
3
 72
8
 73
4
 74
0
 40
0
 40
0
 40
0
 40
0
 40
1
 40
1
 40
1
 40
1
 10
322.558129
 20
290.859587
 30
0.0
 10
325.194302
 20
291.951526
 30
0.0
 10
326.913132
 20
294.523937
 30
0.0
 10
326.913132
 20
297.377310
 30
0.0
  0
SPLINE
  5
167
100
AcDbEntity
  8
Layer_1
 62
7
100
AcDbSpline
 70
8
 71
3
 72
8
 73
4
 74
0
 40
0
 40
0
 40
0
 40
0
 40
1
 40
1
 40
1
 40
1
 10
326.913132
 20
297.377310
 30
0.0
 10
326.913132
 20
299.248341
 30
0.0
 10
326.169868
 20
301.042740
 30
0.0
 10
324.846849
 20
302.365759
 30
0.0
  0
SPLINE
  5
168
100
AcDbEntity
  8
Layer_1
 62
7
100
AcDbSpline
 70
8
 71
3
 72
8
 73
4
 74
0
 40
0
 40
0
 40
0
 40
0
 40
1
 40
1
 40
1
 40
1
 10
324.846849
 20
302.365759
 30
0.0
 10
323.523830
 20
303.688778
 30
0.0
 10
321.729431
 20
304.432042
 30
0.0
 10
319.858400
 20
304.432042
 30
0.0
  0
LWPOLYLINE
  5
169
100
AcDbEntity
  8
Layer_1
 62
7
100
AcDbPolyline
 90
1
 70
1
 10
319.858400
 20
288.064884
 30
0.0
  0
SPLINE
  5
16a
100
AcDbEntity
  8
Layer_1
 62
7
100
AcDbSpline
 70
8
 71
3
 72
8
 73
4
 74
0
 40
0
 40
0
 40
0
 40
0
 40
1
 40
1
 40
1
 40
1
 10
371.006886
 20
233.377260
 30
0.0
 10
371.006887
 20
232.567873
 30
0.0
 10
371.494449
 20
231.838183
 30
0.0
 10
372.242226
 20
231.528444
 30
0.0
  0
SPLINE
  5
16b
100
AcDbEntity
  8
Layer_1
 62
7
100
AcDbSpline
 70
8
 71
3
 72
8
 73
4
 74
0
 40
0
 40
0
 40
0
 40
0
 40
1
 40
1
 40
1
 40
1
 10
372.242226
 20
231.528444
 30
0.0
 10
372.990002
 20
231.218705
 30
0.0
 10
373.850729
 20
231.389915
 30
0.0
 10
374.423052
 20
231.962238
 30
0.0
  0
SPLINE
  5
16c
100
AcDbEntity
  8
Layer_1
 62
7
100
AcDbSpline
 70
8
 71
3
 72
8
 73
4
 74
0
 40
0
 40
0
 40
0
 40
0
 40
1
 40
1
 40
1
 40
1
 10
374.423052
 20
231.962238
 30
0.0
 10
374.995375
 20
232.534561
 30
0.0
 10
375.166585
 20
233.395288
 30
0.0
 10
374.856846
 20
234.143064
 30
0.0
  0
SPLINE
  5
16d
100
AcDbEntity
  8
Layer_1
 62
7
100
AcDbSpline
 70
8
 71
3
 72
8
 73
4
 74
0
 40
0
 40
0
 40
0
 40
0
 40
1
 40
1
 40
1
 40
1
 10
374.856846
 20
234.143064
 30
0.0
 10
374.547107
 20
234.890841
 30
0.0
 10
373.817417
 20
235.378403
 30
0.0
 10
373.008030
 20
235.378403
 30
0.0
  0
SPLINE
  5
16e
100
AcDbEntity
  8
Layer_1
 62
7
100
AcDbSpline
 70
8
 71
3
 72
8
 73
4
 74
0
 40
0
 40
0
 40
0
 40
0
 40
1
 40
1
 40
1
 40
1
 10
373.008030
 20
235.378403
 30
0.0
 10
372.477294
 20
235.378403
 30
0.0
 10
371.968295
 20
235.167569
 30
0.0
 10
371.593008
 20
234.792282
 30
0.0
  0
SPLINE
  5
16f
100
AcDbEntity
  8
Layer_1
 62
7
100
AcDbSpline
 70
8
 71
3
 72
8
 73
4
 74
0
 40
0
 40
0
 40
0
 40
0
 40
1
 40
1
 40
1
 40
1
 10
371.593008
 20
234.792282
 30
0.0
 10
371.217721
 20
234.416995
 30
0.0
 10
371.006887
 20
233.907996
 30
0.0
 10
371.006887
 20
233.377260
 30
0.0
  0
LWPOLYLINE
  5
170
100
AcDbEntity
  8
Layer_1
 62
7
100
AcDbPolyline
 90
1
 70
1
 10
319.858400
 20
304.432042
 30
0.0
  0
SPLINE
  5
171
100
AcDbEntity
  8
Layer_1
 62
7
100
AcDbSpline
 70
8
 71
3
 72
8
 73
4
 74
0
 40
0
 40
0
 40
0
 40
0
 40
1
 40
1
 40
1
 40
1
 10
371.006886
 20
249.377260
 30
0.0
 10
371.006887
 20
248.567873
 30
0.0
 10
371.494449
 20
247.838183
 30
0.0
 10
372.242226
 20
247.528444
 30
0.0
  0
SPLINE
  5
172
100
AcDbEntity
  8
Layer_1
 62
7
100
AcDbSpline
 70
8
 71
3
 72
8
 73
4
 74
0
 40
0
 40
0
 40
0
 40
0
 40
1
 40
1
 40
1
 40
1
 10
372.242226
 20
247.528444
 30
0.0
 10
372.990002
 20
247.218705
 30
0.0
 10
373.850729
 20
247.389915
 30
0.0
 10
374.423052
 20
247.962238
 30
0.0
  0
SPLINE
  5
173
100
AcDbEntity
  8
Layer_1
 62
7
100
AcDbSpline
 70
8
 71
3
 72
8
 73
4
 74
0
 40
0
 40
0
 40
0
 40
0
 40
1
 40
1
 40
1
 40
1
 10
374.423052
 20
247.962238
 30
0.0
 10
374.995375
 20
248.534561
 30
0.0
 10
375.166585
 20
249.395288
 30
0.0
 10
374.856846
 20
250.143064
 30
0.0
  0
SPLINE
  5
174
100
AcDbEntity
  8
Layer_1
 62
7
100
AcDbSpline
 70
8
 71
3
 72
8
 73
4
 74
0
 40
0
 40
0
 40
0
 40
0
 40
1
 40
1
 40
1
 40
1
 10
374.856846
 20
250.143064
 30
0.0
 10
374.547107
 20
250.890841
 30
0.0
 10
373.817417
 20
251.378403
 30
0.0
 10
373.008030
 20
251.378403
 30
0.0
  0
SPLINE
  5
175
100
AcDbEntity
  8
Layer_1
 62
7
100
AcDbSpline
 70
8
 71
3
 72
8
 73
4
 74
0
 40
0
 40
0
 40
0
 40
0
 40
1
 40
1
 40
1
 40
1
 10
373.008030
 20
251.378403
 30
0.0
 10
372.477294
 20
251.378403
 30
0.0
 10
371.968295
 20
251.167569
 30
0.0
 10
371.593008
 20
250.792282
 30
0.0
  0
SPLINE
  5
176
100
AcDbEntity
  8
Layer_1
 62
7
100
AcDbSpline
 70
8
 71
3
 72
8
 73
4
 74
0
 40
0
 40
0
 40
0
 40
0
 40
1
 40
1
 40
1
 40
1
 10
371.593008
 20
250.792282
 30
0.0
 10
371.217721
 20
250.416995
 30
0.0
 10
371.006887
 20
249.907996
 30
0.0
 10
371.006887
 20
249.377260
 30
0.0
  0
LWPOLYLINE
  5
177
100
AcDbEntity
  8
Layer_1
 62
7
100
AcDbPolyline
 90
1
 70
1
 10
371.006887
 20
233.377260
 30
0.0
  0
SPLINE
  5
178
100
AcDbEntity
  8
Layer_1
 62
7
100
AcDbSpline
 70
8
 71
3
 72
8
 73
4
 74
0
 40
0
 40
0
 40
0
 40
0
 40
1
 40
1
 40
1
 40
1
 10
371.006886
 20
297.377260
 30
0.0
 10
371.006887
 20
296.567873
 30
0.0
 10
371.494449
 20
295.838183
 30
0.0
 10
372.242226
 20
295.528444
 30
0.0
  0
SPLINE
  5
179
100
AcDbEntity
  8
Layer_1
 62
7
100
AcDbSpline
 70
8
 71
3
 72
8
 73
4
 74
0
 40
0
 40
0
 40
0
 40
0
 40
1
 40
1
 40
1
 40
1
 10
372.242226
 20
295.528444
 30
0.0
 10
372.990002
 20
295.218705
 30
0.0
 10
373.850729
 20
295.389915
 30
0.0
 10
374.423052
 20
295.962238
 30
0.0
  0
SPLINE
  5
17a
100
AcDbEntity
  8
Layer_1
 62
7
100
AcDbSpline
 70
8
 71
3
 72
8
 73
4
 74
0
 40
0
 40
0
 40
0
 40
0
 40
1
 40
1
 40
1
 40
1
 10
374.423052
 20
295.962238
 30
0.0
 10
374.995375
 20
296.534561
 30
0.0
 10
375.166585
 20
297.395288
 30
0.0
 10
374.856846
 20
298.143064
 30
0.0
  0
SPLINE
  5
17b
100
AcDbEntity
  8
Layer_1
 62
7
100
AcDbSpline
 70
8
 71
3
 72
8
 73
4
 74
0
 40
0
 40
0
 40
0
 40
0
 40
1
 40
1
 40
1
 40
1
 10
374.856846
 20
298.143064
 30
0.0
 10
374.547107
 20
298.890841
 30
0.0
 10
373.817417
 20
299.378403
 30
0.0
 10
373.008030
 20
299.378403
 30
0.0
  0
SPLINE
  5
17c
100
AcDbEntity
  8
Layer_1
 62
7
100
AcDbSpline
 70
8
 71
3
 72
8
 73
4
 74
0
 40
0
 40
0
 40
0
 40
0
 40
1
 40
1
 40
1
 40
1
 10
373.008030
 20
299.378403
 30
0.0
 10
372.477294
 20
299.378403
 30
0.0
 10
371.968295
 20
299.167569
 30
0.0
 10
371.593008
 20
298.792282
 30
0.0
  0
SPLINE
  5
17d
100
AcDbEntity
  8
Layer_1
 62
7
100
AcDbSpline
 70
8
 71
3
 72
8
 73
4
 74
0
 40
0
 40
0
 40
0
 40
0
 40
1
 40
1
 40
1
 40
1
 10
371.593008
 20
298.792282
 30
0.0
 10
371.217721
 20
298.416995
 30
0.0
 10
371.006887
 20
297.907996
 30
0.0
 10
371.006887
 20
297.377260
 30
0.0
  0
LWPOLYLINE
  5
17e
100
AcDbEntity
  8
Layer_1
 62
7
100
AcDbPolyline
 90
1
 70
1
 10
371.006887
 20
249.377260
 30
0.0
  0
SPLINE
  5
17f
100
AcDbEntity
  8
Layer_1
 62
7
100
AcDbSpline
 70
8
 71
3
 72
8
 73
4
 74
0
 40
0
 40
0
 40
0
 40
0
 40
1
 40
1
 40
1
 40
1
 10
371.006886
 20
281.377260
 30
0.0
 10
371.006887
 20
280.567873
 30
0.0
 10
371.494449
 20
279.838183
 30
0.0
 10
372.242226
 20
279.528444
 30
0.0
  0
SPLINE
  5
180
100
AcDbEntity
  8
Layer_1
 62
7
100
AcDbSpline
 70
8
 71
3
 72
8
 73
4
 74
0
 40
0
 40
0
 40
0
 40
0
 40
1
 40
1
 40
1
 40
1
 10
372.242226
 20
279.528444
 30
0.0
 10
372.990002
 20
279.218705
 30
0.0
 10
373.850729
 20
279.389915
 30
0.0
 10
374.423052
 20
279.962238
 30
0.0
  0
SPLINE
  5
181
100
AcDbEntity
  8
Layer_1
 62
7
100
AcDbSpline
 70
8
 71
3
 72
8
 73
4
 74
0
 40
0
 40
0
 40
0
 40
0
 40
1
 40
1
 40
1
 40
1
 10
374.423052
 20
279.962238
 30
0.0
 10
374.995375
 20
280.534561
 30
0.0
 10
375.166585
 20
281.395288
 30
0.0
 10
374.856846
 20
282.143064
 30
0.0
  0
SPLINE
  5
182
100
AcDbEntity
  8
Layer_1
 62
7
100
AcDbSpline
 70
8
 71
3
 72
8
 73
4
 74
0
 40
0
 40
0
 40
0
 40
0
 40
1
 40
1
 40
1
 40
1
 10
374.856846
 20
282.143064
 30
0.0
 10
374.547107
 20
282.890841
 30
0.0
 10
373.817417
 20
283.378403
 30
0.0
 10
373.008030
 20
283.378403
 30
0.0
  0
SPLINE
  5
183
100
AcDbEntity
  8
Layer_1
 62
7
100
AcDbSpline
 70
8
 71
3
 72
8
 73
4
 74
0
 40
0
 40
0
 40
0
 40
0
 40
1
 40
1
 40
1
 40
1
 10
373.008030
 20
283.378403
 30
0.0
 10
372.477294
 20
283.378403
 30
0.0
 10
371.968295
 20
283.167569
 30
0.0
 10
371.593008
 20
282.792282
 30
0.0
  0
SPLINE
  5
184
100
AcDbEntity
  8
Layer_1
 62
7
100
AcDbSpline
 70
8
 71
3
 72
8
 73
4
 74
0
 40
0
 40
0
 40
0
 40
0
 40
1
 40
1
 40
1
 40
1
 10
371.593008
 20
282.792282
 30
0.0
 10
371.217721
 20
282.416995
 30
0.0
 10
371.006887
 20
281.907996
 30
0.0
 10
371.006887
 20
281.377260
 30
0.0
  0
LWPOLYLINE
  5
185
100
AcDbEntity
  8
Layer_1
 62
7
100
AcDbPolyline
 90
1
 70
1
 10
371.006887
 20
297.377260
 30
0.0
  0
SPLINE
  5
186
100
AcDbEntity
  8
Layer_1
 62
7
100
AcDbSpline
 70
8
 71
3
 72
8
 73
4
 74
0
 40
0
 40
0
 40
0
 40
0
 40
1
 40
1
 40
1
 40
1
 10
371.006886
 20
265.377260
 30
0.0
 10
371.006887
 20
264.567873
 30
0.0
 10
371.494449
 20
263.838183
 30
0.0
 10
372.242226
 20
263.528444
 30
0.0
  0
SPLINE
  5
187
100
AcDbEntity
  8
Layer_1
 62
7
100
AcDbSpline
 70
8
 71
3
 72
8
 73
4
 74
0
 40
0
 40
0
 40
0
 40
0
 40
1
 40
1
 40
1
 40
1
 10
372.242226
 20
263.528444
 30
0.0
 10
372.990002
 20
263.218705
 30
0.0
 10
373.850729
 20
263.389915
 30
0.0
 10
374.423052
 20
263.962238
 30
0.0
  0
SPLINE
  5
188
100
AcDbEntity
  8
Layer_1
 62
7
100
AcDbSpline
 70
8
 71
3
 72
8
 73
4
 74
0
 40
0
 40
0
 40
0
 40
0
 40
1
 40
1
 40
1
 40
1
 10
374.423052
 20
263.962238
 30
0.0
 10
374.995375
 20
264.534561
 30
0.0
 10
375.166585
 20
265.395288
 30
0.0
 10
374.856846
 20
266.143064
 30
0.0
  0
SPLINE
  5
189
100
AcDbEntity
  8
Layer_1
 62
7
100
AcDbSpline
 70
8
 71
3
 72
8
 73
4
 74
0
 40
0
 40
0
 40
0
 40
0
 40
1
 40
1
 40
1
 40
1
 10
374.856846
 20
266.143064
 30
0.0
 10
374.547107
 20
266.890841
 30
0.0
 10
373.817417
 20
267.378403
 30
0.0
 10
373.008030
 20
267.378403
 30
0.0
  0
SPLINE
  5
18a
100
AcDbEntity
  8
Layer_1
 62
7
100
AcDbSpline
 70
8
 71
3
 72
8
 73
4
 74
0
 40
0
 40
0
 40
0
 40
0
 40
1
 40
1
 40
1
 40
1
 10
373.008030
 20
267.378403
 30
0.0
 10
372.477294
 20
267.378403
 30
0.0
 10
371.968295
 20
267.167569
 30
0.0
 10
371.593008
 20
266.792282
 30
0.0
  0
SPLINE
  5
18b
100
AcDbEntity
  8
Layer_1
 62
7
100
AcDbSpline
 70
8
 71
3
 72
8
 73
4
 74
0
 40
0
 40
0
 40
0
 40
0
 40
1
 40
1
 40
1
 40
1
 10
371.593008
 20
266.792282
 30
0.0
 10
371.217721
 20
266.416995
 30
0.0
 10
371.006887
 20
265.907996
 30
0.0
 10
371.006887
 20
265.377260
 30
0.0
  0
LWPOLYLINE
  5
18c
100
AcDbEntity
  8
Layer_1
 62
7
100
AcDbPolyline
 90
1
 70
1
 10
371.006887
 20
281.377260
 30
0.0
  0
SPLINE
  5
18d
100
AcDbEntity
  8
Layer_1
 62
7
100
AcDbSpline
 70
8
 71
3
 72
8
 73
4
 74
0
 40
0
 40
0
 40
0
 40
0
 40
1
 40
1
 40
1
 40
1
 10
157.933970
 20
307.603360
 30
0.0
 10
157.963898
 20
309.324001
 30
0.0
 10
159.147256
 20
310.809392
 30
0.0
 10
160.817690
 20
311.223100
 30
0.0
  0
LWPOLYLINE
  5
18e
100
AcDbEntity
  8
Layer_1
 62
7
100
AcDbPolyline
 90
1
 70
1
 10
371.006887
 20
265.377260
 30
0.0
  0
SPLINE
  5
18f
100
AcDbEntity
  8
Layer_1
 62
7
100
AcDbSpline
 70
8
 71
3
 72
8
 73
4
 74
0
 40
0
 40
0
 40
0
 40
0
 40
1
 40
1
 40
1
 40
1
 10
215.771540
 20
173.358380
 30
0.0
 10
180.827725
 20
202.627226
 30
0.0
 10
159.827428
 20
245.303392
 30
0.0
 10
157.933970
 20
290.894130
 30
0.0
  0
SPLINE
  5
190
100
AcDbEntity
  8
Layer_1
 62
7
100
AcDbSpline
 70
8
 71
3
 72
8
 73
4
 74
0
 40
0
 40
0
 40
0
 40
0
 40
1
 40
1
 40
1
 40
1
 10
378.725160
 20
310.534780
 30
0.0
 10
379.643991
 20
309.864217
 30
0.0
 10
380.187254
 20
308.795359
 30
0.0
 10
380.187260
 20
307.658130
 30
0.0
  0
LWPOLYLINE
  5
191
100
AcDbEntity
  8
Layer_1
 62
7
100
AcDbPolyline
 90
2
 70
0
 10
160.817690
 20
311.223100
 30
0.0
 10
308.983490
 20
343.743960
 30
0.0
  0
SPLINE
  5
192
100
AcDbEntity
  8
Layer_1
 62
7
100
AcDbSpline
 70
8
 71
3
 72
8
 73
4
 74
0
 40
0
 40
0
 40
0
 40
0
 40
1
 40
1
 40
1
 40
1
 10
380.187260
 20
307.658130
 30
0.0
 10
380.187309
 20
307.616898
 30
0.0
 10
380.186643
 20
307.575669
 30
0.0
 10
380.185260
 20
307.534460
 30
0.0
  0
SPLINE
  5
193
100
AcDbEntity
  8
Layer_1
 62
7
100
AcDbSpline
 70
8
 71
3
 72
8
 73
4
 74
0
 40
0
 40
0
 40
0
 40
0
 40
1
 40
1
 40
1
 40
1
 10
380.197520
 20
235.750580
 30
0.0
 10
380.199661
 20
235.534547
 30
0.0
 10
380.200661
 20
235.318504
 30
0.0
 10
380.200520
 20
235.102460
 30
0.0
  0
LWPOLYLINE
  5
194
100
AcDbEntity
  8
Layer_1
 62
7
100
AcDbPolyline
 90
1
 70
1
 10
380.187260
 20
307.658130
 30
0.0
  0
SPLINE
  5
195
100
AcDbEntity
  8
Layer_1
 62
7
100
AcDbSpline
 70
8
 71
3
 72
8
 73
4
 74
0
 40
0
 40
0
 40
0
 40
0
 40
1
 40
1
 40
1
 40
1
 10
380.200520
 20
235.102460
 30
0.0
 10
380.200520
 20
201.046443
 30
0.0
 10
352.457013
 20
173.438585
 30
0.0
 10
318.233660
 20
173.438580
 30
0.0
  0
SPLINE
  5
196
100
AcDbEntity
  8
Layer_1
 62
7
100
AcDbSpline
 70
8
 71
3
 72
8
 73
4
 74
0
 40
0
 40
0
 40
0
 40
0
 40
1
 40
1
 40
1
 40
1
 10
318.233660
 20
173.438580
 30
0.0
 10
318.211493
 20
173.438581
 30
0.0
 10
318.189327
 20
173.438595
 30
0.0
 10
318.167160
 20
173.438620
 30
0.0
  0
LWPOLYLINE
  5
197
100
AcDbEntity
  8
Layer_1
 62
7
100
AcDbPolyline
 90
1
 70
1
 10
380.200520
 20
235.102460
 30
0.0
  0
LWPOLYLINE
  5
198
100
AcDbEntity
  8
Layer_1
 62
7
100
AcDbPolyline
 90
5
 70
0
 10
263.924740
 20
173.456290
 30
0.0
 10
263.924740
 20
261.880040
 30
0.0
 10
302.024850
 20
261.880040
 30
0.0
 10
302.024850
 20
173.488040
 30
0.0
 10
317.959890
 20
173.501240
 30
0.0
  0
SPLINE
  5
199
100
AcDbEntity
  8
Layer_1
 62
7
100
AcDbSpline
 70
8
 71
3
 72
8
 73
4
 74
0
 40
0
 40
0
 40
0
 40
0
 40
1
 40
1
 40
1
 40
1
 10
241.065010
 20
258.691936
 30
0.0
 10
240.453376
 20
258.691936
 30
0.0
 10
239.901967
 20
258.323497
 30
0.0
 10
239.667904
 20
257.758420
 30
0.0
  0
SPLINE
  5
19a
100
AcDbEntity
  8
Layer_1
 62
7
100
AcDbSpline
 70
8
 71
3
 72
8
 73
4
 74
0
 40
0
 40
0
 40
0
 40
0
 40
1
 40
1
 40
1
 40
1
 10
239.667904
 20
257.758420
 30
0.0
 10
239.433842
 20
257.193344
 30
0.0
 10
239.563221
 20
256.542912
 30
0.0
 10
239.995712
 20
256.110422
 30
0.0
  0
SPLINE
  5
19b
100
AcDbEntity
  8
Layer_1
 62
7
100
AcDbSpline
 70
8
 71
3
 72
8
 73
4
 74
0
 40
0
 40
0
 40
0
 40
0
 40
1
 40
1
 40
1
 40
1
 10
239.995712
 20
256.110422
 30
0.0
 10
240.428202
 20
255.677931
 30
0.0
 10
241.078634
 20
255.548552
 30
0.0
 10
241.643710
 20
255.782614
 30
0.0
  0
SPLINE
  5
19c
100
AcDbEntity
  8
Layer_1
 62
7
100
AcDbSpline
 70
8
 71
3
 72
8
 73
4
 74
0
 40
0
 40
0
 40
0
 40
0
 40
1
 40
1
 40
1
 40
1
 10
241.643710
 20
255.782614
 30
0.0
 10
242.208787
 20
256.016677
 30
0.0
 10
242.577226
 20
256.568086
 30
0.0
 10
242.577226
 20
257.179720
 30
0.0
  0
SPLINE
  5
19d
100
AcDbEntity
  8
Layer_1
 62
7
100
AcDbSpline
 70
8
 71
3
 72
8
 73
4
 74
0
 40
0
 40
0
 40
0
 40
0
 40
1
 40
1
 40
1
 40
1
 10
242.577226
 20
257.179720
 30
0.0
 10
242.577226
 20
257.580785
 30
0.0
 10
242.417904
 20
257.965423
 30
0.0
 10
242.134308
 20
258.249018
 30
0.0
  0
SPLINE
  5
19e
100
AcDbEntity
  8
Layer_1
 62
7
100
AcDbSpline
 70
8
 71
3
 72
8
 73
4
 74
0
 40
0
 40
0
 40
0
 40
0
 40
1
 40
1
 40
1
 40
1
 10
242.134308
 20
258.249018
 30
0.0
 10
241.850713
 20
258.532614
 30
0.0
 10
241.466075
 20
258.691936
 30
0.0
 10
241.065010
 20
258.691936
 30
0.0
  0
LWPOLYLINE
  5
19f
100
AcDbEntity
  8
Layer_1
 62
7
100
AcDbPolyline
 90
2
 70
0
 10
215.734860
 20
173.413960
 30
0.0
 10
263.924740
 20
173.456260
 30
0.0
  0
SPLINE
  5
1a0
100
AcDbEntity
  8
Layer_1
 62
7
100
AcDbSpline
 70
8
 71
3
 72
8
 73
4
 74
0
 40
0
 40
0
 40
0
 40
0
 40
1
 40
1
 40
1
 40
1
 10
241.065010
 20
250.692256
 30
0.0
 10
240.453376
 20
250.692256
 30
0.0
 10
239.901967
 20
250.323817
 30
0.0
 10
239.667904
 20
249.758740
 30
0.0
  0
SPLINE
  5
1a1
100
AcDbEntity
  8
Layer_1
 62
7
100
AcDbSpline
 70
8
 71
3
 72
8
 73
4
 74
0
 40
0
 40
0
 40
0
 40
0
 40
1
 40
1
 40
1
 40
1
 10
239.667904
 20
249.758740
 30
0.0
 10
239.433842
 20
249.193664
 30
0.0
 10
239.563221
 20
248.543232
 30
0.0
 10
239.995712
 20
248.110742
 30
0.0
  0
SPLINE
  5
1a2
100
AcDbEntity
  8
Layer_1
 62
7
100
AcDbSpline
 70
8
 71
3
 72
8
 73
4
 74
0
 40
0
 40
0
 40
0
 40
0
 40
1
 40
1
 40
1
 40
1
 10
239.995712
 20
248.110742
 30
0.0
 10
240.428202
 20
247.678251
 30
0.0
 10
241.078634
 20
247.548872
 30
0.0
 10
241.643710
 20
247.782934
 30
0.0
  0
SPLINE
  5
1a3
100
AcDbEntity
  8
Layer_1
 62
7
100
AcDbSpline
 70
8
 71
3
 72
8
 73
4
 74
0
 40
0
 40
0
 40
0
 40
0
 40
1
 40
1
 40
1
 40
1
 10
241.643710
 20
247.782934
 30
0.0
 10
242.208787
 20
248.016997
 30
0.0
 10
242.577226
 20
248.568406
 30
0.0
 10
242.577226
 20
249.180040
 30
0.0
  0
SPLINE
  5
1a4
100
AcDbEntity
  8
Layer_1
 62
7
100
AcDbSpline
 70
8
 71
3
 72
8
 73
4
 74
0
 40
0
 40
0
 40
0
 40
0
 40
1
 40
1
 40
1
 40
1
 10
242.577226
 20
249.180040
 30
0.0
 10
242.577226
 20
249.581105
 30
0.0
 10
242.417904
 20
249.965743
 30
0.0
 10
242.134308
 20
250.249338
 30
0.0
  0
SPLINE
  5
1a5
100
AcDbEntity
  8
Layer_1
 62
7
100
AcDbSpline
 70
8
 71
3
 72
8
 73
4
 74
0
 40
0
 40
0
 40
0
 40
0
 40
1
 40
1
 40
1
 40
1
 10
242.134308
 20
250.249338
 30
0.0
 10
241.850713
 20
250.532934
 30
0.0
 10
241.466075
 20
250.692256
 30
0.0
 10
241.065010
 20
250.692256
 30
0.0
  0
LWPOLYLINE
  5
1a6
100
AcDbEntity
  8
Layer_1
 62
7
100
AcDbPolyline
 90
1
 70
1
 10
241.065010
 20
258.691936
 30
0.0
  0
SPLINE
  5
1a7
100
AcDbEntity
  8
Layer_1
 62
7
100
AcDbSpline
 70
8
 71
3
 72
8
 73
4
 74
0
 40
0
 40
0
 40
0
 40
0
 40
1
 40
1
 40
1
 40
1
 10
241.065010
 20
242.692576
 30
0.0
 10
240.453376
 20
242.692576
 30
0.0
 10
239.901967
 20
242.324137
 30
0.0
 10
239.667904
 20
241.759060
 30
0.0
  0
SPLINE
  5
1a8
100
AcDbEntity
  8
Layer_1
 62
7
100
AcDbSpline
 70
8
 71
3
 72
8
 73
4
 74
0
 40
0
 40
0
 40
0
 40
0
 40
1
 40
1
 40
1
 40
1
 10
239.667904
 20
241.759060
 30
0.0
 10
239.433842
 20
241.193984
 30
0.0
 10
239.563221
 20
240.543552
 30
0.0
 10
239.995712
 20
240.111062
 30
0.0
  0
SPLINE
  5
1a9
100
AcDbEntity
  8
Layer_1
 62
7
100
AcDbSpline
 70
8
 71
3
 72
8
 73
4
 74
0
 40
0
 40
0
 40
0
 40
0
 40
1
 40
1
 40
1
 40
1
 10
239.995712
 20
240.111062
 30
0.0
 10
240.428202
 20
239.678571
 30
0.0
 10
241.078634
 20
239.549192
 30
0.0
 10
241.643710
 20
239.783254
 30
0.0
  0
SPLINE
  5
1aa
100
AcDbEntity
  8
Layer_1
 62
7
100
AcDbSpline
 70
8
 71
3
 72
8
 73
4
 74
0
 40
0
 40
0
 40
0
 40
0
 40
1
 40
1
 40
1
 40
1
 10
241.643710
 20
239.783254
 30
0.0
 10
242.208787
 20
240.017317
 30
0.0
 10
242.577226
 20
240.568726
 30
0.0
 10
242.577226
 20
241.180360
 30
0.0
  0
SPLINE
  5
1ab
100
AcDbEntity
  8
Layer_1
 62
7
100
AcDbSpline
 70
8
 71
3
 72
8
 73
4
 74
0
 40
0
 40
0
 40
0
 40
0
 40
1
 40
1
 40
1
 40
1
 10
242.577226
 20
241.180360
 30
0.0
 10
242.577226
 20
241.581425
 30
0.0
 10
242.417904
 20
241.966063
 30
0.0
 10
242.134308
 20
242.249658
 30
0.0
  0
SPLINE
  5
1ac
100
AcDbEntity
  8
Layer_1
 62
7
100
AcDbSpline
 70
8
 71
3
 72
8
 73
4
 74
0
 40
0
 40
0
 40
0
 40
0
 40
1
 40
1
 40
1
 40
1
 10
242.134308
 20
242.249658
 30
0.0
 10
241.850713
 20
242.533254
 30
0.0
 10
241.466075
 20
242.692576
 30
0.0
 10
241.065010
 20
242.692576
 30
0.0
  0
LWPOLYLINE
  5
1ad
100
AcDbEntity
  8
Layer_1
 62
7
100
AcDbPolyline
 90
1
 70
1
 10
241.065010
 20
250.692256
 30
0.0
  0
SPLINE
  5
1ae
100
AcDbEntity
  8
Layer_1
 62
7
100
AcDbSpline
 70
8
 71
3
 72
8
 73
4
 74
0
 40
0
 40
0
 40
0
 40
0
 40
1
 40
1
 40
1
 40
1
 10
241.065007
 20
197.731936
 30
0.0
 10
240.453373
 20
197.731936
 30
0.0
 10
239.901964
 20
197.363497
 30
0.0
 10
239.667902
 20
196.798420
 30
0.0
  0
SPLINE
  5
1af
100
AcDbEntity
  8
Layer_1
 62
7
100
AcDbSpline
 70
8
 71
3
 72
8
 73
4
 74
0
 40
0
 40
0
 40
0
 40
0
 40
1
 40
1
 40
1
 40
1
 10
239.667902
 20
196.798420
 30
0.0
 10
239.433839
 20
196.233344
 30
0.0
 10
239.563218
 20
195.582912
 30
0.0
 10
239.995709
 20
195.150422
 30
0.0
  0
SPLINE
  5
1b0
100
AcDbEntity
  8
Layer_1
 62
7
100
AcDbSpline
 70
8
 71
3
 72
8
 73
4
 74
0
 40
0
 40
0
 40
0
 40
0
 40
1
 40
1
 40
1
 40
1
 10
239.995709
 20
195.150422
 30
0.0
 10
240.428200
 20
194.717931
 30
0.0
 10
241.078631
 20
194.588552
 30
0.0
 10
241.643707
 20
194.822614
 30
0.0
  0
SPLINE
  5
1b1
100
AcDbEntity
  8
Layer_1
 62
7
100
AcDbSpline
 70
8
 71
3
 72
8
 73
4
 74
0
 40
0
 40
0
 40
0
 40
0
 40
1
 40
1
 40
1
 40
1
 10
241.643707
 20
194.822614
 30
0.0
 10
242.208784
 20
195.056677
 30
0.0
 10
242.577223
 20
195.608086
 30
0.0
 10
242.577223
 20
196.219720
 30
0.0
  0
SPLINE
  5
1b2
100
AcDbEntity
  8
Layer_1
 62
7
100
AcDbSpline
 70
8
 71
3
 72
8
 73
4
 74
0
 40
0
 40
0
 40
0
 40
0
 40
1
 40
1
 40
1
 40
1
 10
242.577223
 20
196.219720
 30
0.0
 10
242.577223
 20
196.620785
 30
0.0
 10
242.417901
 20
197.005423
 30
0.0
 10
242.134305
 20
197.289018
 30
0.0
  0
SPLINE
  5
1b3
100
AcDbEntity
  8
Layer_1
 62
7
100
AcDbSpline
 70
8
 71
3
 72
8
 73
4
 74
0
 40
0
 40
0
 40
0
 40
0
 40
1
 40
1
 40
1
 40
1
 10
242.134305
 20
197.289018
 30
0.0
 10
241.850710
 20
197.572614
 30
0.0
 10
241.466072
 20
197.731936
 30
0.0
 10
241.065007
 20
197.731936
 30
0.0
  0
LWPOLYLINE
  5
1b4
100
AcDbEntity
  8
Layer_1
 62
7
100
AcDbPolyline
 90
1
 70
1
 10
241.065010
 20
242.692576
 30
0.0
  0
SPLINE
  5
1b5
100
AcDbEntity
  8
Layer_1
 62
7
100
AcDbSpline
 70
8
 71
3
 72
8
 73
4
 74
0
 40
0
 40
0
 40
0
 40
0
 40
1
 40
1
 40
1
 40
1
 10
241.065007
 20
189.732256
 30
0.0
 10
240.453373
 20
189.732256
 30
0.0
 10
239.901964
 20
189.363817
 30
0.0
 10
239.667902
 20
188.798740
 30
0.0
  0
SPLINE
  5
1b6
100
AcDbEntity
  8
Layer_1
 62
7
100
AcDbSpline
 70
8
 71
3
 72
8
 73
4
 74
0
 40
0
 40
0
 40
0
 40
0
 40
1
 40
1
 40
1
 40
1
 10
239.667902
 20
188.798740
 30
0.0
 10
239.433839
 20
188.233664
 30
0.0
 10
239.563218
 20
187.583232
 30
0.0
 10
239.995709
 20
187.150742
 30
0.0
  0
SPLINE
  5
1b7
100
AcDbEntity
  8
Layer_1
 62
7
100
AcDbSpline
 70
8
 71
3
 72
8
 73
4
 74
0
 40
0
 40
0
 40
0
 40
0
 40
1
 40
1
 40
1
 40
1
 10
239.995709
 20
187.150742
 30
0.0
 10
240.428200
 20
186.718251
 30
0.0
 10
241.078631
 20
186.588872
 30
0.0
 10
241.643707
 20
186.822934
 30
0.0
  0
SPLINE
  5
1b8
100
AcDbEntity
  8
Layer_1
 62
7
100
AcDbSpline
 70
8
 71
3
 72
8
 73
4
 74
0
 40
0
 40
0
 40
0
 40
0
 40
1
 40
1
 40
1
 40
1
 10
241.643707
 20
186.822934
 30
0.0
 10
242.208784
 20
187.056997
 30
0.0
 10
242.577223
 20
187.608406
 30
0.0
 10
242.577223
 20
188.220040
 30
0.0
  0
SPLINE
  5
1b9
100
AcDbEntity
  8
Layer_1
 62
7
100
AcDbSpline
 70
8
 71
3
 72
8
 73
4
 74
0
 40
0
 40
0
 40
0
 40
0
 40
1
 40
1
 40
1
 40
1
 10
242.577223
 20
188.220040
 30
0.0
 10
242.577223
 20
188.621105
 30
0.0
 10
242.417901
 20
189.005743
 30
0.0
 10
242.134305
 20
189.289338
 30
0.0
  0
SPLINE
  5
1ba
100
AcDbEntity
  8
Layer_1
 62
7
100
AcDbSpline
 70
8
 71
3
 72
8
 73
4
 74
0
 40
0
 40
0
 40
0
 40
0
 40
1
 40
1
 40
1
 40
1
 10
242.134305
 20
189.289338
 30
0.0
 10
241.850710
 20
189.572934
 30
0.0
 10
241.466072
 20
189.732256
 30
0.0
 10
241.065007
 20
189.732256
 30
0.0
  0
LWPOLYLINE
  5
1bb
100
AcDbEntity
  8
Layer_1
 62
7
100
AcDbPolyline
 90
1
 70
1
 10
241.065007
 20
197.731936
 30
0.0
  0
SPLINE
  5
1bc
100
AcDbEntity
  8
Layer_1
 62
7
100
AcDbSpline
 70
8
 71
3
 72
8
 73
4
 74
0
 40
0
 40
0
 40
0
 40
0
 40
1
 40
1
 40
1
 40
1
 10
241.065007
 20
181.732576
 30
0.0
 10
240.453373
 20
181.732576
 30
0.0
 10
239.901964
 20
181.364137
 30
0.0
 10
239.667902
 20
180.799060
 30
0.0
  0
SPLINE
  5
1bd
100
AcDbEntity
  8
Layer_1
 62
7
100
AcDbSpline
 70
8
 71
3
 72
8
 73
4
 74
0
 40
0
 40
0
 40
0
 40
0
 40
1
 40
1
 40
1
 40
1
 10
239.667902
 20
180.799060
 30
0.0
 10
239.433839
 20
180.233984
 30
0.0
 10
239.563218
 20
179.583552
 30
0.0
 10
239.995709
 20
179.151062
 30
0.0
  0
SPLINE
  5
1be
100
AcDbEntity
  8
Layer_1
 62
7
100
AcDbSpline
 70
8
 71
3
 72
8
 73
4
 74
0
 40
0
 40
0
 40
0
 40
0
 40
1
 40
1
 40
1
 40
1
 10
239.995709
 20
179.151062
 30
0.0
 10
240.428200
 20
178.718571
 30
0.0
 10
241.078631
 20
178.589192
 30
0.0
 10
241.643707
 20
178.823254
 30
0.0
  0
SPLINE
  5
1bf
100
AcDbEntity
  8
Layer_1
 62
7
100
AcDbSpline
 70
8
 71
3
 72
8
 73
4
 74
0
 40
0
 40
0
 40
0
 40
0
 40
1
 40
1
 40
1
 40
1
 10
241.643707
 20
178.823254
 30
0.0
 10
242.208784
 20
179.057317
 30
0.0
 10
242.577223
 20
179.608726
 30
0.0
 10
242.577223
 20
180.220360
 30
0.0
  0
SPLINE
  5
1c0
100
AcDbEntity
  8
Layer_1
 62
7
100
AcDbSpline
 70
8
 71
3
 72
8
 73
4
 74
0
 40
0
 40
0
 40
0
 40
0
 40
1
 40
1
 40
1
 40
1
 10
242.577223
 20
180.220360
 30
0.0
 10
242.577223
 20
180.621425
 30
0.0
 10
242.417901
 20
181.006063
 30
0.0
 10
242.134305
 20
181.289658
 30
0.0
  0
SPLINE
  5
1c1
100
AcDbEntity
  8
Layer_1
 62
7
100
AcDbSpline
 70
8
 71
3
 72
8
 73
4
 74
0
 40
0
 40
0
 40
0
 40
0
 40
1
 40
1
 40
1
 40
1
 10
242.134305
 20
181.289658
 30
0.0
 10
241.850710
 20
181.573254
 30
0.0
 10
241.466072
 20
181.732576
 30
0.0
 10
241.065007
 20
181.732576
 30
0.0
  0
LWPOLYLINE
  5
1c2
100
AcDbEntity
  8
Layer_1
 62
7
100
AcDbPolyline
 90
1
 70
1
 10
241.065007
 20
189.732256
 30
0.0
  0
SPLINE
  5
1c3
100
AcDbEntity
  8
Layer_1
 62
7
100
AcDbSpline
 70
8
 71
3
 72
8
 73
4
 74
0
 40
0
 40
0
 40
0
 40
0
 40
1
 40
1
 40
1
 40
1
 10
327.424610
 20
258.691936
 30
0.0
 10
326.812976
 20
258.691936
 30
0.0
 10
326.261567
 20
258.323497
 30
0.0
 10
326.027504
 20
257.758420
 30
0.0
  0
SPLINE
  5
1c4
100
AcDbEntity
  8
Layer_1
 62
7
100
AcDbSpline
 70
8
 71
3
 72
8
 73
4
 74
0
 40
0
 40
0
 40
0
 40
0
 40
1
 40
1
 40
1
 40
1
 10
326.027504
 20
257.758420
 30
0.0
 10
325.793442
 20
257.193344
 30
0.0
 10
325.922821
 20
256.542912
 30
0.0
 10
326.355312
 20
256.110422
 30
0.0
  0
SPLINE
  5
1c5
100
AcDbEntity
  8
Layer_1
 62
7
100
AcDbSpline
 70
8
 71
3
 72
8
 73
4
 74
0
 40
0
 40
0
 40
0
 40
0
 40
1
 40
1
 40
1
 40
1
 10
326.355312
 20
256.110422
 30
0.0
 10
326.787802
 20
255.677931
 30
0.0
 10
327.438234
 20
255.548552
 30
0.0
 10
328.003310
 20
255.782614
 30
0.0
  0
SPLINE
  5
1c6
100
AcDbEntity
  8
Layer_1
 62
7
100
AcDbSpline
 70
8
 71
3
 72
8
 73
4
 74
0
 40
0
 40
0
 40
0
 40
0
 40
1
 40
1
 40
1
 40
1
 10
328.003310
 20
255.782614
 30
0.0
 10
328.568387
 20
256.016677
 30
0.0
 10
328.936826
 20
256.568086
 30
0.0
 10
328.936826
 20
257.179720
 30
0.0
  0
SPLINE
  5
1c7
100
AcDbEntity
  8
Layer_1
 62
7
100
AcDbSpline
 70
8
 71
3
 72
8
 73
4
 74
0
 40
0
 40
0
 40
0
 40
0
 40
1
 40
1
 40
1
 40
1
 10
328.936826
 20
257.179720
 30
0.0
 10
328.936826
 20
257.580785
 30
0.0
 10
328.777504
 20
257.965423
 30
0.0
 10
328.493908
 20
258.249018
 30
0.0
  0
SPLINE
  5
1c8
100
AcDbEntity
  8
Layer_1
 62
7
100
AcDbSpline
 70
8
 71
3
 72
8
 73
4
 74
0
 40
0
 40
0
 40
0
 40
0
 40
1
 40
1
 40
1
 40
1
 10
328.493908
 20
258.249018
 30
0.0
 10
328.210313
 20
258.532614
 30
0.0
 10
327.825675
 20
258.691936
 30
0.0
 10
327.424610
 20
258.691936
 30
0.0
  0
LWPOLYLINE
  5
1c9
100
AcDbEntity
  8
Layer_1
 62
7
100
AcDbPolyline
 90
1
 70
1
 10
241.065007
 20
181.732576
 30
0.0
  0
SPLINE
  5
1ca
100
AcDbEntity
  8
Layer_1
 62
7
100
AcDbSpline
 70
8
 71
3
 72
8
 73
4
 74
0
 40
0
 40
0
 40
0
 40
0
 40
1
 40
1
 40
1
 40
1
 10
327.424610
 20
250.692256
 30
0.0
 10
326.812976
 20
250.692256
 30
0.0
 10
326.261567
 20
250.323817
 30
0.0
 10
326.027504
 20
249.758740
 30
0.0
  0
SPLINE
  5
1cb
100
AcDbEntity
  8
Layer_1
 62
7
100
AcDbSpline
 70
8
 71
3
 72
8
 73
4
 74
0
 40
0
 40
0
 40
0
 40
0
 40
1
 40
1
 40
1
 40
1
 10
326.027504
 20
249.758740
 30
0.0
 10
325.793442
 20
249.193664
 30
0.0
 10
325.922821
 20
248.543232
 30
0.0
 10
326.355312
 20
248.110742
 30
0.0
  0
SPLINE
  5
1cc
100
AcDbEntity
  8
Layer_1
 62
7
100
AcDbSpline
 70
8
 71
3
 72
8
 73
4
 74
0
 40
0
 40
0
 40
0
 40
0
 40
1
 40
1
 40
1
 40
1
 10
326.355312
 20
248.110742
 30
0.0
 10
326.787802
 20
247.678251
 30
0.0
 10
327.438234
 20
247.548872
 30
0.0
 10
328.003310
 20
247.782934
 30
0.0
  0
SPLINE
  5
1cd
100
AcDbEntity
  8
Layer_1
 62
7
100
AcDbSpline
 70
8
 71
3
 72
8
 73
4
 74
0
 40
0
 40
0
 40
0
 40
0
 40
1
 40
1
 40
1
 40
1
 10
328.003310
 20
247.782934
 30
0.0
 10
328.568387
 20
248.016997
 30
0.0
 10
328.936826
 20
248.568406
 30
0.0
 10
328.936826
 20
249.180040
 30
0.0
  0
SPLINE
  5
1ce
100
AcDbEntity
  8
Layer_1
 62
7
100
AcDbSpline
 70
8
 71
3
 72
8
 73
4
 74
0
 40
0
 40
0
 40
0
 40
0
 40
1
 40
1
 40
1
 40
1
 10
328.936826
 20
249.180040
 30
0.0
 10
328.936826
 20
249.581105
 30
0.0
 10
328.777504
 20
249.965743
 30
0.0
 10
328.493908
 20
250.249338
 30
0.0
  0
SPLINE
  5
1cf
100
AcDbEntity
  8
Layer_1
 62
7
100
AcDbSpline
 70
8
 71
3
 72
8
 73
4
 74
0
 40
0
 40
0
 40
0
 40
0
 40
1
 40
1
 40
1
 40
1
 10
328.493908
 20
250.249338
 30
0.0
 10
328.210313
 20
250.532934
 30
0.0
 10
327.825675
 20
250.692256
 30
0.0
 10
327.424610
 20
250.692256
 30
0.0
  0
LWPOLYLINE
  5
1d0
100
AcDbEntity
  8
Layer_1
 62
7
100
AcDbPolyline
 90
1
 70
1
 10
327.424610
 20
258.691936
 30
0.0
  0
SPLINE
  5
1d1
100
AcDbEntity
  8
Layer_1
 62
7
100
AcDbSpline
 70
8
 71
3
 72
8
 73
4
 74
0
 40
0
 40
0
 40
0
 40
0
 40
1
 40
1
 40
1
 40
1
 10
327.424610
 20
242.692576
 30
0.0
 10
326.812976
 20
242.692576
 30
0.0
 10
326.261567
 20
242.324137
 30
0.0
 10
326.027504
 20
241.759060
 30
0.0
  0
SPLINE
  5
1d2
100
AcDbEntity
  8
Layer_1
 62
7
100
AcDbSpline
 70
8
 71
3
 72
8
 73
4
 74
0
 40
0
 40
0
 40
0
 40
0
 40
1
 40
1
 40
1
 40
1
 10
326.027504
 20
241.759060
 30
0.0
 10
325.793442
 20
241.193984
 30
0.0
 10
325.922821
 20
240.543552
 30
0.0
 10
326.355312
 20
240.111062
 30
0.0
  0
SPLINE
  5
1d3
100
AcDbEntity
  8
Layer_1
 62
7
100
AcDbSpline
 70
8
 71
3
 72
8
 73
4
 74
0
 40
0
 40
0
 40
0
 40
0
 40
1
 40
1
 40
1
 40
1
 10
326.355312
 20
240.111062
 30
0.0
 10
326.787802
 20
239.678571
 30
0.0
 10
327.438234
 20
239.549192
 30
0.0
 10
328.003310
 20
239.783254
 30
0.0
  0
SPLINE
  5
1d4
100
AcDbEntity
  8
Layer_1
 62
7
100
AcDbSpline
 70
8
 71
3
 72
8
 73
4
 74
0
 40
0
 40
0
 40
0
 40
0
 40
1
 40
1
 40
1
 40
1
 10
328.003310
 20
239.783254
 30
0.0
 10
328.568387
 20
240.017317
 30
0.0
 10
328.936826
 20
240.568726
 30
0.0
 10
328.936826
 20
241.180360
 30
0.0
  0
SPLINE
  5
1d5
100
AcDbEntity
  8
Layer_1
 62
7
100
AcDbSpline
 70
8
 71
3
 72
8
 73
4
 74
0
 40
0
 40
0
 40
0
 40
0
 40
1
 40
1
 40
1
 40
1
 10
328.936826
 20
241.180360
 30
0.0
 10
328.936826
 20
241.581425
 30
0.0
 10
328.777504
 20
241.966063
 30
0.0
 10
328.493908
 20
242.249658
 30
0.0
  0
SPLINE
  5
1d6
100
AcDbEntity
  8
Layer_1
 62
7
100
AcDbSpline
 70
8
 71
3
 72
8
 73
4
 74
0
 40
0
 40
0
 40
0
 40
0
 40
1
 40
1
 40
1
 40
1
 10
328.493908
 20
242.249658
 30
0.0
 10
328.210313
 20
242.533254
 30
0.0
 10
327.825675
 20
242.692576
 30
0.0
 10
327.424610
 20
242.692576
 30
0.0
  0
LWPOLYLINE
  5
1d7
100
AcDbEntity
  8
Layer_1
 62
7
100
AcDbPolyline
 90
1
 70
1
 10
327.424610
 20
250.692256
 30
0.0
  0
SPLINE
  5
1d8
100
AcDbEntity
  8
Layer_1
 62
7
100
AcDbSpline
 70
8
 71
3
 72
8
 73
4
 74
0
 40
0
 40
0
 40
0
 40
0
 40
1
 40
1
 40
1
 40
1
 10
327.424610
 20
197.731956
 30
0.0
 10
326.812976
 20
197.731956
 30
0.0
 10
326.261567
 20
197.363517
 30
0.0
 10
326.027504
 20
196.798440
 30
0.0
  0
SPLINE
  5
1d9
100
AcDbEntity
  8
Layer_1
 62
7
100
AcDbSpline
 70
8
 71
3
 72
8
 73
4
 74
0
 40
0
 40
0
 40
0
 40
0
 40
1
 40
1
 40
1
 40
1
 10
326.027504
 20
196.798440
 30
0.0
 10
325.793442
 20
196.233364
 30
0.0
 10
325.922821
 20
195.582932
 30
0.0
 10
326.355312
 20
195.150442
 30
0.0
  0
SPLINE
  5
1da
100
AcDbEntity
  8
Layer_1
 62
7
100
AcDbSpline
 70
8
 71
3
 72
8
 73
4
 74
0
 40
0
 40
0
 40
0
 40
0
 40
1
 40
1
 40
1
 40
1
 10
326.355312
 20
195.150442
 30
0.0
 10
326.787802
 20
194.717951
 30
0.0
 10
327.438234
 20
194.588572
 30
0.0
 10
328.003310
 20
194.822634
 30
0.0
  0
SPLINE
  5
1db
100
AcDbEntity
  8
Layer_1
 62
7
100
AcDbSpline
 70
8
 71
3
 72
8
 73
4
 74
0
 40
0
 40
0
 40
0
 40
0
 40
1
 40
1
 40
1
 40
1
 10
328.003310
 20
194.822634
 30
0.0
 10
328.568387
 20
195.056697
 30
0.0
 10
328.936826
 20
195.608106
 30
0.0
 10
328.936826
 20
196.219740
 30
0.0
  0
SPLINE
  5
1dc
100
AcDbEntity
  8
Layer_1
 62
7
100
AcDbSpline
 70
8
 71
3
 72
8
 73
4
 74
0
 40
0
 40
0
 40
0
 40
0
 40
1
 40
1
 40
1
 40
1
 10
328.936826
 20
196.219740
 30
0.0
 10
328.936826
 20
196.620805
 30
0.0
 10
328.777504
 20
197.005443
 30
0.0
 10
328.493908
 20
197.289038
 30
0.0
  0
SPLINE
  5
1dd
100
AcDbEntity
  8
Layer_1
 62
7
100
AcDbSpline
 70
8
 71
3
 72
8
 73
4
 74
0
 40
0
 40
0
 40
0
 40
0
 40
1
 40
1
 40
1
 40
1
 10
328.493908
 20
197.289038
 30
0.0
 10
328.210313
 20
197.572634
 30
0.0
 10
327.825675
 20
197.731956
 30
0.0
 10
327.424610
 20
197.731956
 30
0.0
  0
LWPOLYLINE
  5
1de
100
AcDbEntity
  8
Layer_1
 62
7
100
AcDbPolyline
 90
1
 70
1
 10
327.424610
 20
242.692576
 30
0.0
  0
SPLINE
  5
1df
100
AcDbEntity
  8
Layer_1
 62
7
100
AcDbSpline
 70
8
 71
3
 72
8
 73
4
 74
0
 40
0
 40
0
 40
0
 40
0
 40
1
 40
1
 40
1
 40
1
 10
327.424610
 20
189.732276
 30
0.0
 10
326.812976
 20
189.732276
 30
0.0
 10
326.261567
 20
189.363837
 30
0.0
 10
326.027504
 20
188.798760
 30
0.0
  0
SPLINE
  5
1e0
100
AcDbEntity
  8
Layer_1
 62
7
100
AcDbSpline
 70
8
 71
3
 72
8
 73
4
 74
0
 40
0
 40
0
 40
0
 40
0
 40
1
 40
1
 40
1
 40
1
 10
326.027504
 20
188.798760
 30
0.0
 10
325.793442
 20
188.233684
 30
0.0
 10
325.922821
 20
187.583252
 30
0.0
 10
326.355312
 20
187.150762
 30
0.0
  0
SPLINE
  5
1e1
100
AcDbEntity
  8
Layer_1
 62
7
100
AcDbSpline
 70
8
 71
3
 72
8
 73
4
 74
0
 40
0
 40
0
 40
0
 40
0
 40
1
 40
1
 40
1
 40
1
 10
326.355312
 20
187.150762
 30
0.0
 10
326.787802
 20
186.718271
 30
0.0
 10
327.438234
 20
186.588892
 30
0.0
 10
328.003310
 20
186.822954
 30
0.0
  0
SPLINE
  5
1e2
100
AcDbEntity
  8
Layer_1
 62
7
100
AcDbSpline
 70
8
 71
3
 72
8
 73
4
 74
0
 40
0
 40
0
 40
0
 40
0
 40
1
 40
1
 40
1
 40
1
 10
328.003310
 20
186.822954
 30
0.0
 10
328.568387
 20
187.057017
 30
0.0
 10
328.936826
 20
187.608426
 30
0.0
 10
328.936826
 20
188.220060
 30
0.0
  0
SPLINE
  5
1e3
100
AcDbEntity
  8
Layer_1
 62
7
100
AcDbSpline
 70
8
 71
3
 72
8
 73
4
 74
0
 40
0
 40
0
 40
0
 40
0
 40
1
 40
1
 40
1
 40
1
 10
328.936826
 20
188.220060
 30
0.0
 10
328.936826
 20
188.621125
 30
0.0
 10
328.777504
 20
189.005763
 30
0.0
 10
328.493908
 20
189.289358
 30
0.0
  0
SPLINE
  5
1e4
100
AcDbEntity
  8
Layer_1
 62
7
100
AcDbSpline
 70
8
 71
3
 72
8
 73
4
 74
0
 40
0
 40
0
 40
0
 40
0
 40
1
 40
1
 40
1
 40
1
 10
328.493908
 20
189.289358
 30
0.0
 10
328.210313
 20
189.572954
 30
0.0
 10
327.825675
 20
189.732276
 30
0.0
 10
327.424610
 20
189.732276
 30
0.0
  0
LWPOLYLINE
  5
1e5
100
AcDbEntity
  8
Layer_1
 62
7
100
AcDbPolyline
 90
1
 70
1
 10
327.424610
 20
197.731956
 30
0.0
  0
SPLINE
  5
1e6
100
AcDbEntity
  8
Layer_1
 62
7
100
AcDbSpline
 70
8
 71
3
 72
8
 73
4
 74
0
 40
0
 40
0
 40
0
 40
0
 40
1
 40
1
 40
1
 40
1
 10
327.424610
 20
181.732596
 30
0.0
 10
326.812976
 20
181.732596
 30
0.0
 10
326.261567
 20
181.364157
 30
0.0
 10
326.027504
 20
180.799080
 30
0.0
  0
SPLINE
  5
1e7
100
AcDbEntity
  8
Layer_1
 62
7
100
AcDbSpline
 70
8
 71
3
 72
8
 73
4
 74
0
 40
0
 40
0
 40
0
 40
0
 40
1
 40
1
 40
1
 40
1
 10
326.027504
 20
180.799080
 30
0.0
 10
325.793442
 20
180.234004
 30
0.0
 10
325.922821
 20
179.583572
 30
0.0
 10
326.355312
 20
179.151082
 30
0.0
  0
SPLINE
  5
1e8
100
AcDbEntity
  8
Layer_1
 62
7
100
AcDbSpline
 70
8
 71
3
 72
8
 73
4
 74
0
 40
0
 40
0
 40
0
 40
0
 40
1
 40
1
 40
1
 40
1
 10
326.355312
 20
179.151082
 30
0.0
 10
326.787802
 20
178.718591
 30
0.0
 10
327.438234
 20
178.589212
 30
0.0
 10
328.003310
 20
178.823274
 30
0.0
  0
SPLINE
  5
1e9
100
AcDbEntity
  8
Layer_1
 62
7
100
AcDbSpline
 70
8
 71
3
 72
8
 73
4
 74
0
 40
0
 40
0
 40
0
 40
0
 40
1
 40
1
 40
1
 40
1
 10
328.003310
 20
178.823274
 30
0.0
 10
328.568387
 20
179.057337
 30
0.0
 10
328.936826
 20
179.608746
 30
0.0
 10
328.936826
 20
180.220380
 30
0.0
  0
SPLINE
  5
1ea
100
AcDbEntity
  8
Layer_1
 62
7
100
AcDbSpline
 70
8
 71
3
 72
8
 73
4
 74
0
 40
0
 40
0
 40
0
 40
0
 40
1
 40
1
 40
1
 40
1
 10
328.936826
 20
180.220380
 30
0.0
 10
328.936826
 20
180.621445
 30
0.0
 10
328.777504
 20
181.006083
 30
0.0
 10
328.493908
 20
181.289678
 30
0.0
  0
SPLINE
  5
1eb
100
AcDbEntity
  8
Layer_1
 62
7
100
AcDbSpline
 70
8
 71
3
 72
8
 73
4
 74
0
 40
0
 40
0
 40
0
 40
0
 40
1
 40
1
 40
1
 40
1
 10
328.493908
 20
181.289678
 30
0.0
 10
328.210313
 20
181.573274
 30
0.0
 10
327.825675
 20
181.732596
 30
0.0
 10
327.424610
 20
181.732596
 30
0.0
  0
LWPOLYLINE
  5
1ec
100
AcDbEntity
  8
Layer_1
 62
7
100
AcDbPolyline
 90
1
 70
1
 10
327.424610
 20
189.732276
 30
0.0
  0
LWPOLYLINE
  5
1ed
100
AcDbEntity
  8
Layer_1
 62
7
100
AcDbPolyline
 90
1
 70
1
 10
327.424610
 20
181.732596
 30
0.0
  0
ENDSEC
  0
SECTION
  2
OBJECTS
  0
DICTIONARY
  5
C
330
0
100
AcDbDictionary
  3
ACAD_GROUP
350
D
  3
ACAD_MLINESTYLE
350
17
  0
DICTIONARY
  5
D
330
C
100
AcDbDictionary
  0
DICTIONARY
  5
1A
330
C
100
AcDbDictionary
  0
DICTIONARY
  5
17
330
C
100
AcDbDictionary
  3
STANDARD
350
18
  0
DICTIONARY
  5
19
330
C
100
AcDbDictionary
  0
ENDSEC
  0
EOF
