  0
SECTION
  2
HEADER
  9
$ACADVER
  1
AC1014
  9
$HANDSEED
  5
FFFF
  9
$INSUNITS
 70
     4
  9
$MEASUREMENT
 70
     1
  0
ENDSEC
  0
SECTION
  2
TABLES
  0
TABLE
  2
VPORT
  5
8
330
0
100
AcDbSymbolTable
 70
     4
  0
VPORT
  5
2E
330
8
100
AcDbSymbolTableRecord
100
AcDbViewportTableRecord
  2
*ACTIVE
 70
     0
 10
0.0
 20
0.0
 11
1.0
 21
1.0
 12
210.0
 22
148.5
 13
0.0
 23
0.0
 14
10.0
 24
10.0
 15
10.0
 25
10.0
 16
0.0
 26
0.0
 36
1.0
 17
0.0
 27
0.0
 37
0.0
 40
341.0
 41
1.24
 42
50.0
 43
0.0
 44
0.0
 50
0.0
 51
0.0
 71
     0
 72
   100
 73
     1
 74
     3
 75
     0
 76
     0
 77
     0
 78
     0
  0
ENDTAB
  0
TABLE
  2
LTYPE
  5
5
330
0
100
AcDbSymbolTable
 70
     1
  0
LTYPE
  5
14
330
5
100
AcDbSymbolTableRecord
100
AcDbLinetypeTableRecord
  2
BYBLOCK
 70
     0
  3

 72
    65
 73
     0
 40
0.0
  0
LTYPE
  5
15
330
5
100
AcDbSymbolTableRecord
100
AcDbLinetypeTableRecord
  2
BYLAYER
 70
     0
  3

 72
    65
 73
     0
 40
0.0
  0
LTYPE
  5
16
330
5
100
AcDbSymbolTableRecord
100
AcDbLinetypeTableRecord
  2
CONTINUOUS
 70
     0
  3
Solid line
 72
    65
 73
     0
 40
0.0
  0
ENDTAB
  0
TABLE
  2
LAYER
  5
2
100
AcDbSymbolTable
 70
2
  0
LAYER
  5
50
100
AcDbSymbolTableRecord
100
AcDbLayerTableRecord
  2
0
 70
0
  6
CONTINUOUS
  0
LAYER
  5
51
100
AcDbSymbolTableRecord
100
AcDbLayerTableRecord
  2
Layer_1
 70
0
  6
CONTINUOUS
  0
ENDTAB
  0
TABLE
  2
STYLE
  5
3
330
0
100
AcDbSymbolTable
 70
     1
  0
STYLE
  5
11
330
3
100
AcDbSymbolTableRecord
100
AcDbTextStyleTableRecord
  2
STANDARD
 70
     0
 40
0.0
 41
1.0
 50
0.0
 71
     0
 42
2.5
  3
txt
  4

  0
ENDTAB
  0
TABLE
  2
VIEW
  5
6
330
0
100
AcDbSymbolTable
 70
     0
  0
ENDTAB
  0
TABLE
  2
UCS
  5
7
330
0
100
AcDbSymbolTable
 70
     0
  0
ENDTAB
  0
TABLE
  2
APPID
  5
9
330
0
100
AcDbSymbolTable
 70
     2
  0
APPID
  5
12
330
9
100
AcDbSymbolTableRecord
100
AcDbRegAppTableRecord
  2
ACAD
 70
     0
  0
ENDTAB
  0
TABLE
  2
DIMSTYLE
  5
A
330
0
100
AcDbSymbolTable
 70
     1
  0
DIMSTYLE
105
27
330
A
100
AcDbSymbolTableRecord
100
AcDbDimStyleTableRecord
  2
ISO-25
 70
     0
  3

  4

  5

  6

  7

 40
1.0
 41
2.5
 42
0.625
 43
3.75
 44
1.25
 45
0.0
 46
0.0
 47
0.0
 48
0.0
140
2.5
141
2.5
142
0.0
143
0.03937007874016
144
1.0
145
0.0
146
1.0
147
0.625
 71
     0
 72
     0
 73
     0
 74
     0
 75
     0
 76
     0
 77
     1
 78
     8
170
     0
171
     3
172
     1
173
     0
174
     0
175
     0
176
     0
177
     0
178
     0
270
     2
271
     2
272
     2
273
     2
274
     3
340
11
275
     0
280
     0
281
     0
282
     0
283
     0
284
     8
285
     0
286
     0
287
     3
288
     0
  0
ENDTAB
  0
TABLE
  2
BLOCK_RECORD
  5
1
330
0
100
AcDbSymbolTable
 70
     1
  0
BLOCK_RECORD
  5
1F
330
1
100
AcDbSymbolTableRecord
100
AcDbBlockTableRecord
  2
*MODEL_SPACE
  0
BLOCK_RECORD
  5
1B
330
1
100
AcDbSymbolTableRecord
100
AcDbBlockTableRecord
  2
*PAPER_SPACE
  0
ENDTAB
  0
ENDSEC
  0
SECTION
  2
BLOCKS
  0
BLOCK
  5
20
330
1F
100
AcDbEntity
  8
0
100
AcDbBlockBegin
  2
*MODEL_SPACE
 70
     0
 10
0.0
 20
0.0
 30
0.0
  3
*MODEL_SPACE
  1

  0
ENDBLK
  5
21
330
1F
100
AcDbEntity
  8
0
100
AcDbBlockEnd
  0
BLOCK
  5
1C
330
1B
100
AcDbEntity
 67
     1
  8
0
100
AcDbBlockBegin
  2
*PAPER_SPACE
  1

  0
ENDBLK
  5
1D
330
1B
100
AcDbEntity
 67
     1
  8
0
100
AcDbBlockEnd
  0
ENDSEC
  0
SECTION
  2
ENTITIES
  0
LWPOLYLINE
  5
100
100
AcDbEntity
  8
Layer_1
 62
7
100
AcDbPolyline
 90
4
 70
0
 10
254.293190
 20
41.235360
 30
0.0
 10
417.795370
 20
107.029300
 30
0.0
 10
417.795370
 20
183.229300
 30
0.0
 10
254.293190
 20
249.023501
 30
0.0
  0
SPLINE
  5
101
100
AcDbEntity
  8
Layer_1
 62
7
100
AcDbSpline
 70
8
 71
3
 72
8
 73
4
 74
0
 40
0
 40
0
 40
0
 40
0
 40
1
 40
1
 40
1
 40
1
 10
12.619219
 20
113.129375
 30
0.0
 10
12.619220
 20
112.024174
 30
0.0
 10
13.515162
 20
111.128231
 30
0.0
 10
14.620363
 20
111.128232
 30
0.0
  0
SPLINE
  5
102
100
AcDbEntity
  8
Layer_1
 62
7
100
AcDbSpline
 70
8
 71
3
 72
8
 73
4
 74
0
 40
0
 40
0
 40
0
 40
0
 40
1
 40
1
 40
1
 40
1
 10
14.620363
 20
111.128232
 30
0.0
 10
15.725564
 20
111.128232
 30
0.0
 10
16.621506
 20
112.024174
 30
0.0
 10
16.621506
 20
113.129375
 30
0.0
  0
SPLINE
  5
103
100
AcDbEntity
  8
Layer_1
 62
7
100
AcDbSpline
 70
8
 71
3
 72
8
 73
4
 74
0
 40
0
 40
0
 40
0
 40
0
 40
1
 40
1
 40
1
 40
1
 10
16.621506
 20
113.129375
 30
0.0
 10
16.621506
 20
114.234576
 30
0.0
 10
15.725564
 20
115.130519
 30
0.0
 10
14.620363
 20
115.130519
 30
0.0
  0
SPLINE
  5
104
100
AcDbEntity
  8
Layer_1
 62
7
100
AcDbSpline
 70
8
 71
3
 72
8
 73
4
 74
0
 40
0
 40
0
 40
0
 40
0
 40
1
 40
1
 40
1
 40
1
 10
14.620363
 20
115.130519
 30
0.0
 10
14.089627
 20
115.130519
 30
0.0
 10
13.580628
 20
114.919684
 30
0.0
 10
13.205341
 20
114.544397
 30
0.0
  0
SPLINE
  5
105
100
AcDbEntity
  8
Layer_1
 62
7
100
AcDbSpline
 70
8
 71
3
 72
8
 73
4
 74
0
 40
0
 40
0
 40
0
 40
0
 40
1
 40
1
 40
1
 40
1
 10
13.205341
 20
114.544397
 30
0.0
 10
12.830054
 20
114.169110
 30
0.0
 10
12.619219
 20
113.660111
 30
0.0
 10
12.619219
 20
113.129375
 30
0.0
  0
LWPOLYLINE
  5
106
100
AcDbEntity
  8
Layer_1
 62
7
100
AcDbPolyline
 90
4
 70
0
 10
166.947350
 20
249.023501
 30
0.0
 10
3.445173
 20
183.229300
 30
0.0
 10
3.445173
 20
107.029300
 30
0.0
 10
166.992530
 20
41.266880
 30
0.0
  0
SPLINE
  5
107
100
AcDbEntity
  8
Layer_1
 62
7
100
AcDbSpline
 70
8
 71
3
 72
8
 73
4
 74
0
 40
0
 40
0
 40
0
 40
0
 40
1
 40
1
 40
1
 40
1
 10
12.619219
 20
121.129375
 30
0.0
 10
12.619219
 20
120.319988
 30
0.0
 10
13.106782
 20
119.590298
 30
0.0
 10
13.854559
 20
119.280559
 30
0.0
  0
SPLINE
  5
108
100
AcDbEntity
  8
Layer_1
 62
7
100
AcDbSpline
 70
8
 71
3
 72
8
 73
4
 74
0
 40
0
 40
0
 40
0
 40
0
 40
1
 40
1
 40
1
 40
1
 10
13.854559
 20
119.280559
 30
0.0
 10
14.602335
 20
118.970820
 30
0.0
 10
15.463062
 20
119.142030
 30
0.0
 10
16.035385
 20
119.714353
 30
0.0
  0
SPLINE
  5
109
100
AcDbEntity
  8
Layer_1
 62
7
100
AcDbSpline
 70
8
 71
3
 72
8
 73
4
 74
0
 40
0
 40
0
 40
0
 40
0
 40
1
 40
1
 40
1
 40
1
 10
16.035385
 20
119.714353
 30
0.0
 10
16.607708
 20
120.286676
 30
0.0
 10
16.778918
 20
121.147403
 30
0.0
 10
16.469179
 20
121.895179
 30
0.0
  0
SPLINE
  5
10a
100
AcDbEntity
  8
Layer_1
 62
7
100
AcDbSpline
 70
8
 71
3
 72
8
 73
4
 74
0
 40
0
 40
0
 40
0
 40
0
 40
1
 40
1
 40
1
 40
1
 10
16.469179
 20
121.895179
 30
0.0
 10
16.159440
 20
122.642956
 30
0.0
 10
15.429750
 20
123.130518
 30
0.0
 10
14.620363
 20
123.130518
 30
0.0
  0
SPLINE
  5
10b
100
AcDbEntity
  8
Layer_1
 62
7
100
AcDbSpline
 70
8
 71
3
 72
8
 73
4
 74
0
 40
0
 40
0
 40
0
 40
0
 40
1
 40
1
 40
1
 40
1
 10
14.620363
 20
123.130518
 30
0.0
 10
14.089627
 20
123.130518
 30
0.0
 10
13.580628
 20
122.919684
 30
0.0
 10
13.205341
 20
122.544397
 30
0.0
  0
SPLINE
  5
10c
100
AcDbEntity
  8
Layer_1
 62
7
100
AcDbSpline
 70
8
 71
3
 72
8
 73
4
 74
0
 40
0
 40
0
 40
0
 40
0
 40
1
 40
1
 40
1
 40
1
 10
13.205341
 20
122.544397
 30
0.0
 10
12.830054
 20
122.169110
 30
0.0
 10
12.619219
 20
121.660111
 30
0.0
 10
12.619219
 20
121.129375
 30
0.0
  0
LWPOLYLINE
  5
10d
100
AcDbEntity
  8
Layer_1
 62
7
100
AcDbPolyline
 90
1
 70
1
 10
12.619219
 20
113.129375
 30
0.0
  0
SPLINE
  5
10e
100
AcDbEntity
  8
Layer_1
 62
7
100
AcDbSpline
 70
8
 71
3
 72
8
 73
4
 74
0
 40
0
 40
0
 40
0
 40
0
 40
1
 40
1
 40
1
 40
1
 10
12.619219
 20
129.129375
 30
0.0
 10
12.619219
 20
128.024174
 30
0.0
 10
13.515162
 20
127.128231
 30
0.0
 10
14.620363
 20
127.128231
 30
0.0
  0
SPLINE
  5
10f
100
AcDbEntity
  8
Layer_1
 62
7
100
AcDbSpline
 70
8
 71
3
 72
8
 73
4
 74
0
 40
0
 40
0
 40
0
 40
0
 40
1
 40
1
 40
1
 40
1
 10
14.620363
 20
127.128231
 30
0.0
 10
15.725564
 20
127.128231
 30
0.0
 10
16.621506
 20
128.024174
 30
0.0
 10
16.621506
 20
129.129375
 30
0.0
  0
SPLINE
  5
110
100
AcDbEntity
  8
Layer_1
 62
7
100
AcDbSpline
 70
8
 71
3
 72
8
 73
4
 74
0
 40
0
 40
0
 40
0
 40
0
 40
1
 40
1
 40
1
 40
1
 10
16.621506
 20
129.129375
 30
0.0
 10
16.621506
 20
130.234576
 30
0.0
 10
15.725564
 20
131.130518
 30
0.0
 10
14.620363
 20
131.130518
 30
0.0
  0
SPLINE
  5
111
100
AcDbEntity
  8
Layer_1
 62
7
100
AcDbSpline
 70
8
 71
3
 72
8
 73
4
 74
0
 40
0
 40
0
 40
0
 40
0
 40
1
 40
1
 40
1
 40
1
 10
14.620363
 20
131.130518
 30
0.0
 10
14.089627
 20
131.130518
 30
0.0
 10
13.580628
 20
130.919684
 30
0.0
 10
13.205341
 20
130.544397
 30
0.0
  0
SPLINE
  5
112
100
AcDbEntity
  8
Layer_1
 62
7
100
AcDbSpline
 70
8
 71
3
 72
8
 73
4
 74
0
 40
0
 40
0
 40
0
 40
0
 40
1
 40
1
 40
1
 40
1
 10
13.205341
 20
130.544397
 30
0.0
 10
12.830054
 20
130.169110
 30
0.0
 10
12.619219
 20
129.660111
 30
0.0
 10
12.619219
 20
129.129375
 30
0.0
  0
LWPOLYLINE
  5
113
100
AcDbEntity
  8
Layer_1
 62
7
100
AcDbPolyline
 90
1
 70
1
 10
12.619219
 20
121.129375
 30
0.0
  0
SPLINE
  5
114
100
AcDbEntity
  8
Layer_1
 62
7
100
AcDbSpline
 70
8
 71
3
 72
8
 73
4
 74
0
 40
0
 40
0
 40
0
 40
0
 40
1
 40
1
 40
1
 40
1
 10
12.619219
 20
137.129375
 30
0.0
 10
12.619219
 20
136.319988
 30
0.0
 10
13.106782
 20
135.590298
 30
0.0
 10
13.854559
 20
135.280559
 30
0.0
  0
SPLINE
  5
115
100
AcDbEntity
  8
Layer_1
 62
7
100
AcDbSpline
 70
8
 71
3
 72
8
 73
4
 74
0
 40
0
 40
0
 40
0
 40
0
 40
1
 40
1
 40
1
 40
1
 10
13.854559
 20
135.280559
 30
0.0
 10
14.602335
 20
134.970820
 30
0.0
 10
15.463062
 20
135.142030
 30
0.0
 10
16.035385
 20
135.714353
 30
0.0
  0
SPLINE
  5
116
100
AcDbEntity
  8
Layer_1
 62
7
100
AcDbSpline
 70
8
 71
3
 72
8
 73
4
 74
0
 40
0
 40
0
 40
0
 40
0
 40
1
 40
1
 40
1
 40
1
 10
16.035385
 20
135.714353
 30
0.0
 10
16.607708
 20
136.286676
 30
0.0
 10
16.778918
 20
137.147403
 30
0.0
 10
16.469179
 20
137.895179
 30
0.0
  0
SPLINE
  5
117
100
AcDbEntity
  8
Layer_1
 62
7
100
AcDbSpline
 70
8
 71
3
 72
8
 73
4
 74
0
 40
0
 40
0
 40
0
 40
0
 40
1
 40
1
 40
1
 40
1
 10
16.469179
 20
137.895179
 30
0.0
 10
16.159440
 20
138.642956
 30
0.0
 10
15.429750
 20
139.130518
 30
0.0
 10
14.620363
 20
139.130518
 30
0.0
  0
SPLINE
  5
118
100
AcDbEntity
  8
Layer_1
 62
7
100
AcDbSpline
 70
8
 71
3
 72
8
 73
4
 74
0
 40
0
 40
0
 40
0
 40
0
 40
1
 40
1
 40
1
 40
1
 10
14.620363
 20
139.130518
 30
0.0
 10
14.089627
 20
139.130518
 30
0.0
 10
13.580628
 20
138.919684
 30
0.0
 10
13.205341
 20
138.544397
 30
0.0
  0
SPLINE
  5
119
100
AcDbEntity
  8
Layer_1
 62
7
100
AcDbSpline
 70
8
 71
3
 72
8
 73
4
 74
0
 40
0
 40
0
 40
0
 40
0
 40
1
 40
1
 40
1
 40
1
 10
13.205341
 20
138.544397
 30
0.0
 10
12.830054
 20
138.169110
 30
0.0
 10
12.619219
 20
137.660111
 30
0.0
 10
12.619219
 20
137.129375
 30
0.0
  0
LWPOLYLINE
  5
11a
100
AcDbEntity
  8
Layer_1
 62
7
100
AcDbPolyline
 90
1
 70
1
 10
12.619219
 20
129.129375
 30
0.0
  0
SPLINE
  5
11b
100
AcDbEntity
  8
Layer_1
 62
7
100
AcDbSpline
 70
8
 71
3
 72
8
 73
4
 74
0
 40
0
 40
0
 40
0
 40
0
 40
1
 40
1
 40
1
 40
1
 10
12.619219
 20
145.129375
 30
0.0
 10
12.619220
 20
144.024174
 30
0.0
 10
13.515162
 20
143.128231
 30
0.0
 10
14.620363
 20
143.128232
 30
0.0
  0
SPLINE
  5
11c
100
AcDbEntity
  8
Layer_1
 62
7
100
AcDbSpline
 70
8
 71
3
 72
8
 73
4
 74
0
 40
0
 40
0
 40
0
 40
0
 40
1
 40
1
 40
1
 40
1
 10
14.620363
 20
143.128232
 30
0.0
 10
15.725564
 20
143.128232
 30
0.0
 10
16.621506
 20
144.024174
 30
0.0
 10
16.621506
 20
145.129375
 30
0.0
  0
SPLINE
  5
11d
100
AcDbEntity
  8
Layer_1
 62
7
100
AcDbSpline
 70
8
 71
3
 72
8
 73
4
 74
0
 40
0
 40
0
 40
0
 40
0
 40
1
 40
1
 40
1
 40
1
 10
16.621506
 20
145.129375
 30
0.0
 10
16.621506
 20
146.234576
 30
0.0
 10
15.725564
 20
147.130519
 30
0.0
 10
14.620363
 20
147.130519
 30
0.0
  0
SPLINE
  5
11e
100
AcDbEntity
  8
Layer_1
 62
7
100
AcDbSpline
 70
8
 71
3
 72
8
 73
4
 74
0
 40
0
 40
0
 40
0
 40
0
 40
1
 40
1
 40
1
 40
1
 10
14.620363
 20
147.130519
 30
0.0
 10
14.089627
 20
147.130519
 30
0.0
 10
13.580628
 20
146.919684
 30
0.0
 10
13.205341
 20
146.544397
 30
0.0
  0
SPLINE
  5
11f
100
AcDbEntity
  8
Layer_1
 62
7
100
AcDbSpline
 70
8
 71
3
 72
8
 73
4
 74
0
 40
0
 40
0
 40
0
 40
0
 40
1
 40
1
 40
1
 40
1
 10
13.205341
 20
146.544397
 30
0.0
 10
12.830054
 20
146.169110
 30
0.0
 10
12.619219
 20
145.660111
 30
0.0
 10
12.619219
 20
145.129375
 30
0.0
  0
LWPOLYLINE
  5
120
100
AcDbEntity
  8
Layer_1
 62
7
100
AcDbPolyline
 90
1
 70
1
 10
12.619219
 20
137.129375
 30
0.0
  0
SPLINE
  5
121
100
AcDbEntity
  8
Layer_1
 62
7
100
AcDbSpline
 70
8
 71
3
 72
8
 73
4
 74
0
 40
0
 40
0
 40
0
 40
0
 40
1
 40
1
 40
1
 40
1
 10
12.619219
 20
153.129375
 30
0.0
 10
12.619219
 20
152.319988
 30
0.0
 10
13.106782
 20
151.590298
 30
0.0
 10
13.854559
 20
151.280559
 30
0.0
  0
SPLINE
  5
122
100
AcDbEntity
  8
Layer_1
 62
7
100
AcDbSpline
 70
8
 71
3
 72
8
 73
4
 74
0
 40
0
 40
0
 40
0
 40
0
 40
1
 40
1
 40
1
 40
1
 10
13.854559
 20
151.280559
 30
0.0
 10
14.602335
 20
150.970820
 30
0.0
 10
15.463062
 20
151.142030
 30
0.0
 10
16.035385
 20
151.714353
 30
0.0
  0
SPLINE
  5
123
100
AcDbEntity
  8
Layer_1
 62
7
100
AcDbSpline
 70
8
 71
3
 72
8
 73
4
 74
0
 40
0
 40
0
 40
0
 40
0
 40
1
 40
1
 40
1
 40
1
 10
16.035385
 20
151.714353
 30
0.0
 10
16.607708
 20
152.286676
 30
0.0
 10
16.778918
 20
153.147403
 30
0.0
 10
16.469179
 20
153.895179
 30
0.0
  0
SPLINE
  5
124
100
AcDbEntity
  8
Layer_1
 62
7
100
AcDbSpline
 70
8
 71
3
 72
8
 73
4
 74
0
 40
0
 40
0
 40
0
 40
0
 40
1
 40
1
 40
1
 40
1
 10
16.469179
 20
153.895179
 30
0.0
 10
16.159440
 20
154.642956
 30
0.0
 10
15.429750
 20
155.130518
 30
0.0
 10
14.620363
 20
155.130518
 30
0.0
  0
SPLINE
  5
125
100
AcDbEntity
  8
Layer_1
 62
7
100
AcDbSpline
 70
8
 71
3
 72
8
 73
4
 74
0
 40
0
 40
0
 40
0
 40
0
 40
1
 40
1
 40
1
 40
1
 10
14.620363
 20
155.130518
 30
0.0
 10
14.089627
 20
155.130518
 30
0.0
 10
13.580628
 20
154.919684
 30
0.0
 10
13.205341
 20
154.544397
 30
0.0
  0
SPLINE
  5
126
100
AcDbEntity
  8
Layer_1
 62
7
100
AcDbSpline
 70
8
 71
3
 72
8
 73
4
 74
0
 40
0
 40
0
 40
0
 40
0
 40
1
 40
1
 40
1
 40
1
 10
13.205341
 20
154.544397
 30
0.0
 10
12.830054
 20
154.169110
 30
0.0
 10
12.619219
 20
153.660111
 30
0.0
 10
12.619219
 20
153.129375
 30
0.0
  0
LWPOLYLINE
  5
127
100
AcDbEntity
  8
Layer_1
 62
7
100
AcDbPolyline
 90
1
 70
1
 10
12.619219
 20
145.129375
 30
0.0
  0
SPLINE
  5
128
100
AcDbEntity
  8
Layer_1
 62
7
100
AcDbSpline
 70
8
 71
3
 72
8
 73
4
 74
0
 40
0
 40
0
 40
0
 40
0
 40
1
 40
1
 40
1
 40
1
 10
12.619219
 20
161.129375
 30
0.0
 10
12.619219
 20
160.024174
 30
0.0
 10
13.515162
 20
159.128231
 30
0.0
 10
14.620363
 20
159.128231
 30
0.0
  0
SPLINE
  5
129
100
AcDbEntity
  8
Layer_1
 62
7
100
AcDbSpline
 70
8
 71
3
 72
8
 73
4
 74
0
 40
0
 40
0
 40
0
 40
0
 40
1
 40
1
 40
1
 40
1
 10
14.620363
 20
159.128231
 30
0.0
 10
15.725564
 20
159.128231
 30
0.0
 10
16.621506
 20
160.024174
 30
0.0
 10
16.621506
 20
161.129375
 30
0.0
  0
SPLINE
  5
12a
100
AcDbEntity
  8
Layer_1
 62
7
100
AcDbSpline
 70
8
 71
3
 72
8
 73
4
 74
0
 40
0
 40
0
 40
0
 40
0
 40
1
 40
1
 40
1
 40
1
 10
16.621506
 20
161.129375
 30
0.0
 10
16.621506
 20
162.234576
 30
0.0
 10
15.725564
 20
163.130518
 30
0.0
 10
14.620363
 20
163.130518
 30
0.0
  0
SPLINE
  5
12b
100
AcDbEntity
  8
Layer_1
 62
7
100
AcDbSpline
 70
8
 71
3
 72
8
 73
4
 74
0
 40
0
 40
0
 40
0
 40
0
 40
1
 40
1
 40
1
 40
1
 10
14.620363
 20
163.130518
 30
0.0
 10
14.089627
 20
163.130518
 30
0.0
 10
13.580628
 20
162.919684
 30
0.0
 10
13.205341
 20
162.544397
 30
0.0
  0
SPLINE
  5
12c
100
AcDbEntity
  8
Layer_1
 62
7
100
AcDbSpline
 70
8
 71
3
 72
8
 73
4
 74
0
 40
0
 40
0
 40
0
 40
0
 40
1
 40
1
 40
1
 40
1
 10
13.205341
 20
162.544397
 30
0.0
 10
12.830054
 20
162.169110
 30
0.0
 10
12.619219
 20
161.660111
 30
0.0
 10
12.619219
 20
161.129375
 30
0.0
  0
LWPOLYLINE
  5
12d
100
AcDbEntity
  8
Layer_1
 62
7
100
AcDbPolyline
 90
1
 70
1
 10
12.619219
 20
153.129375
 30
0.0
  0
SPLINE
  5
12e
100
AcDbEntity
  8
Layer_1
 62
7
100
AcDbSpline
 70
8
 71
3
 72
8
 73
4
 74
0
 40
0
 40
0
 40
0
 40
0
 40
1
 40
1
 40
1
 40
1
 10
12.619219
 20
169.129375
 30
0.0
 10
12.619219
 20
168.319988
 30
0.0
 10
13.106782
 20
167.590298
 30
0.0
 10
13.854559
 20
167.280559
 30
0.0
  0
SPLINE
  5
12f
100
AcDbEntity
  8
Layer_1
 62
7
100
AcDbSpline
 70
8
 71
3
 72
8
 73
4
 74
0
 40
0
 40
0
 40
0
 40
0
 40
1
 40
1
 40
1
 40
1
 10
13.854559
 20
167.280559
 30
0.0
 10
14.602335
 20
166.970820
 30
0.0
 10
15.463062
 20
167.142030
 30
0.0
 10
16.035385
 20
167.714353
 30
0.0
  0
SPLINE
  5
130
100
AcDbEntity
  8
Layer_1
 62
7
100
AcDbSpline
 70
8
 71
3
 72
8
 73
4
 74
0
 40
0
 40
0
 40
0
 40
0
 40
1
 40
1
 40
1
 40
1
 10
16.035385
 20
167.714353
 30
0.0
 10
16.607708
 20
168.286676
 30
0.0
 10
16.778918
 20
169.147403
 30
0.0
 10
16.469179
 20
169.895179
 30
0.0
  0
SPLINE
  5
131
100
AcDbEntity
  8
Layer_1
 62
7
100
AcDbSpline
 70
8
 71
3
 72
8
 73
4
 74
0
 40
0
 40
0
 40
0
 40
0
 40
1
 40
1
 40
1
 40
1
 10
16.469179
 20
169.895179
 30
0.0
 10
16.159440
 20
170.642956
 30
0.0
 10
15.429750
 20
171.130518
 30
0.0
 10
14.620363
 20
171.130518
 30
0.0
  0
SPLINE
  5
132
100
AcDbEntity
  8
Layer_1
 62
7
100
AcDbSpline
 70
8
 71
3
 72
8
 73
4
 74
0
 40
0
 40
0
 40
0
 40
0
 40
1
 40
1
 40
1
 40
1
 10
14.620363
 20
171.130518
 30
0.0
 10
14.089627
 20
171.130518
 30
0.0
 10
13.580628
 20
170.919684
 30
0.0
 10
13.205341
 20
170.544397
 30
0.0
  0
SPLINE
  5
133
100
AcDbEntity
  8
Layer_1
 62
7
100
AcDbSpline
 70
8
 71
3
 72
8
 73
4
 74
0
 40
0
 40
0
 40
0
 40
0
 40
1
 40
1
 40
1
 40
1
 10
13.205341
 20
170.544397
 30
0.0
 10
12.830054
 20
170.169110
 30
0.0
 10
12.619219
 20
169.660111
 30
0.0
 10
12.619219
 20
169.129375
 30
0.0
  0
LWPOLYLINE
  5
134
100
AcDbEntity
  8
Layer_1
 62
7
100
AcDbPolyline
 90
1
 70
1
 10
12.619219
 20
161.129375
 30
0.0
  0
SPLINE
  5
135
100
AcDbEntity
  8
Layer_1
 62
7
100
AcDbSpline
 70
8
 71
3
 72
8
 73
4
 74
0
 40
0
 40
0
 40
0
 40
0
 40
1
 40
1
 40
1
 40
1
 10
12.619219
 20
177.129375
 30
0.0
 10
12.619219
 20
176.319988
 30
0.0
 10
13.106782
 20
175.590298
 30
0.0
 10
13.854559
 20
175.280559
 30
0.0
  0
SPLINE
  5
136
100
AcDbEntity
  8
Layer_1
 62
7
100
AcDbSpline
 70
8
 71
3
 72
8
 73
4
 74
0
 40
0
 40
0
 40
0
 40
0
 40
1
 40
1
 40
1
 40
1
 10
13.854559
 20
175.280559
 30
0.0
 10
14.602335
 20
174.970820
 30
0.0
 10
15.463062
 20
175.142030
 30
0.0
 10
16.035385
 20
175.714353
 30
0.0
  0
SPLINE
  5
137
100
AcDbEntity
  8
Layer_1
 62
7
100
AcDbSpline
 70
8
 71
3
 72
8
 73
4
 74
0
 40
0
 40
0
 40
0
 40
0
 40
1
 40
1
 40
1
 40
1
 10
16.035385
 20
175.714353
 30
0.0
 10
16.607708
 20
176.286676
 30
0.0
 10
16.778918
 20
177.147403
 30
0.0
 10
16.469179
 20
177.895179
 30
0.0
  0
SPLINE
  5
138
100
AcDbEntity
  8
Layer_1
 62
7
100
AcDbSpline
 70
8
 71
3
 72
8
 73
4
 74
0
 40
0
 40
0
 40
0
 40
0
 40
1
 40
1
 40
1
 40
1
 10
16.469179
 20
177.895179
 30
0.0
 10
16.159440
 20
178.642956
 30
0.0
 10
15.429750
 20
179.130518
 30
0.0
 10
14.620363
 20
179.130518
 30
0.0
  0
SPLINE
  5
139
100
AcDbEntity
  8
Layer_1
 62
7
100
AcDbSpline
 70
8
 71
3
 72
8
 73
4
 74
0
 40
0
 40
0
 40
0
 40
0
 40
1
 40
1
 40
1
 40
1
 10
14.620363
 20
179.130518
 30
0.0
 10
14.089627
 20
179.130518
 30
0.0
 10
13.580628
 20
178.919684
 30
0.0
 10
13.205341
 20
178.544397
 30
0.0
  0
SPLINE
  5
13a
100
AcDbEntity
  8
Layer_1
 62
7
100
AcDbSpline
 70
8
 71
3
 72
8
 73
4
 74
0
 40
0
 40
0
 40
0
 40
0
 40
1
 40
1
 40
1
 40
1
 10
13.205341
 20
178.544397
 30
0.0
 10
12.830054
 20
178.169110
 30
0.0
 10
12.619219
 20
177.660111
 30
0.0
 10
12.619219
 20
177.129375
 30
0.0
  0
LWPOLYLINE
  5
13b
100
AcDbEntity
  8
Layer_1
 62
7
100
AcDbPolyline
 90
1
 70
1
 10
12.619219
 20
169.129375
 30
0.0
  0
SPLINE
  5
13c
100
AcDbEntity
  8
Layer_1
 62
7
100
AcDbSpline
 70
8
 71
3
 72
8
 73
4
 74
0
 40
0
 40
0
 40
0
 40
0
 40
1
 40
1
 40
1
 40
1
 10
44.619118
 20
113.129410
 30
0.0
 10
44.619118
 20
112.320023
 30
0.0
 10
45.106681
 20
111.590333
 30
0.0
 10
45.854458
 20
111.280594
 30
0.0
  0
SPLINE
  5
13d
100
AcDbEntity
  8
Layer_1
 62
7
100
AcDbSpline
 70
8
 71
3
 72
8
 73
4
 74
0
 40
0
 40
0
 40
0
 40
0
 40
1
 40
1
 40
1
 40
1
 10
45.854458
 20
111.280594
 30
0.0
 10
46.602234
 20
110.970855
 30
0.0
 10
47.462961
 20
111.142065
 30
0.0
 10
48.035284
 20
111.714388
 30
0.0
  0
SPLINE
  5
13e
100
AcDbEntity
  8
Layer_1
 62
7
100
AcDbSpline
 70
8
 71
3
 72
8
 73
4
 74
0
 40
0
 40
0
 40
0
 40
0
 40
1
 40
1
 40
1
 40
1
 10
48.035284
 20
111.714388
 30
0.0
 10
48.607607
 20
112.286711
 30
0.0
 10
48.778817
 20
113.147438
 30
0.0
 10
48.469078
 20
113.895214
 30
0.0
  0
SPLINE
  5
13f
100
AcDbEntity
  8
Layer_1
 62
7
100
AcDbSpline
 70
8
 71
3
 72
8
 73
4
 74
0
 40
0
 40
0
 40
0
 40
0
 40
1
 40
1
 40
1
 40
1
 10
48.469078
 20
113.895214
 30
0.0
 10
48.159339
 20
114.642991
 30
0.0
 10
47.429649
 20
115.130553
 30
0.0
 10
46.620262
 20
115.130553
 30
0.0
  0
SPLINE
  5
140
100
AcDbEntity
  8
Layer_1
 62
7
100
AcDbSpline
 70
8
 71
3
 72
8
 73
4
 74
0
 40
0
 40
0
 40
0
 40
0
 40
1
 40
1
 40
1
 40
1
 10
46.620262
 20
115.130553
 30
0.0
 10
46.089526
 20
115.130553
 30
0.0
 10
45.580527
 20
114.919719
 30
0.0
 10
45.205240
 20
114.544432
 30
0.0
  0
SPLINE
  5
141
100
AcDbEntity
  8
Layer_1
 62
7
100
AcDbSpline
 70
8
 71
3
 72
8
 73
4
 74
0
 40
0
 40
0
 40
0
 40
0
 40
1
 40
1
 40
1
 40
1
 10
45.205240
 20
114.544432
 30
0.0
 10
44.829953
 20
114.169145
 30
0.0
 10
44.619118
 20
113.660146
 30
0.0
 10
44.619118
 20
113.129410
 30
0.0
  0
LWPOLYLINE
  5
142
100
AcDbEntity
  8
Layer_1
 62
7
100
AcDbPolyline
 90
1
 70
1
 10
12.619219
 20
177.129375
 30
0.0
  0
SPLINE
  5
143
100
AcDbEntity
  8
Layer_1
 62
7
100
AcDbSpline
 70
8
 71
3
 72
8
 73
4
 74
0
 40
0
 40
0
 40
0
 40
0
 40
1
 40
1
 40
1
 40
1
 10
44.619118
 20
121.129410
 30
0.0
 10
44.619118
 20
120.320023
 30
0.0
 10
45.106681
 20
119.590333
 30
0.0
 10
45.854458
 20
119.280594
 30
0.0
  0
SPLINE
  5
144
100
AcDbEntity
  8
Layer_1
 62
7
100
AcDbSpline
 70
8
 71
3
 72
8
 73
4
 74
0
 40
0
 40
0
 40
0
 40
0
 40
1
 40
1
 40
1
 40
1
 10
45.854458
 20
119.280594
 30
0.0
 10
46.602234
 20
118.970855
 30
0.0
 10
47.462961
 20
119.142065
 30
0.0
 10
48.035284
 20
119.714388
 30
0.0
  0
SPLINE
  5
145
100
AcDbEntity
  8
Layer_1
 62
7
100
AcDbSpline
 70
8
 71
3
 72
8
 73
4
 74
0
 40
0
 40
0
 40
0
 40
0
 40
1
 40
1
 40
1
 40
1
 10
48.035284
 20
119.714388
 30
0.0
 10
48.607607
 20
120.286711
 30
0.0
 10
48.778817
 20
121.147438
 30
0.0
 10
48.469078
 20
121.895214
 30
0.0
  0
SPLINE
  5
146
100
AcDbEntity
  8
Layer_1
 62
7
100
AcDbSpline
 70
8
 71
3
 72
8
 73
4
 74
0
 40
0
 40
0
 40
0
 40
0
 40
1
 40
1
 40
1
 40
1
 10
48.469078
 20
121.895214
 30
0.0
 10
48.159339
 20
122.642991
 30
0.0
 10
47.429649
 20
123.130553
 30
0.0
 10
46.620262
 20
123.130553
 30
0.0
  0
SPLINE
  5
147
100
AcDbEntity
  8
Layer_1
 62
7
100
AcDbSpline
 70
8
 71
3
 72
8
 73
4
 74
0
 40
0
 40
0
 40
0
 40
0
 40
1
 40
1
 40
1
 40
1
 10
46.620262
 20
123.130553
 30
0.0
 10
46.089526
 20
123.130553
 30
0.0
 10
45.580527
 20
122.919719
 30
0.0
 10
45.205240
 20
122.544432
 30
0.0
  0
SPLINE
  5
148
100
AcDbEntity
  8
Layer_1
 62
7
100
AcDbSpline
 70
8
 71
3
 72
8
 73
4
 74
0
 40
0
 40
0
 40
0
 40
0
 40
1
 40
1
 40
1
 40
1
 10
45.205240
 20
122.544432
 30
0.0
 10
44.829953
 20
122.169145
 30
0.0
 10
44.619118
 20
121.660146
 30
0.0
 10
44.619118
 20
121.129410
 30
0.0
  0
LWPOLYLINE
  5
149
100
AcDbEntity
  8
Layer_1
 62
7
100
AcDbPolyline
 90
1
 70
1
 10
44.619118
 20
113.129410
 30
0.0
  0
SPLINE
  5
14a
100
AcDbEntity
  8
Layer_1
 62
7
100
AcDbSpline
 70
8
 71
3
 72
8
 73
4
 74
0
 40
0
 40
0
 40
0
 40
0
 40
1
 40
1
 40
1
 40
1
 10
44.619118
 20
129.129410
 30
0.0
 10
44.619118
 20
128.024209
 30
0.0
 10
45.515061
 20
127.128267
 30
0.0
 10
46.620262
 20
127.128267
 30
0.0
  0
SPLINE
  5
14b
100
AcDbEntity
  8
Layer_1
 62
7
100
AcDbSpline
 70
8
 71
3
 72
8
 73
4
 74
0
 40
0
 40
0
 40
0
 40
0
 40
1
 40
1
 40
1
 40
1
 10
46.620262
 20
127.128267
 30
0.0
 10
47.725463
 20
127.128267
 30
0.0
 10
48.621405
 20
128.024209
 30
0.0
 10
48.621405
 20
129.129410
 30
0.0
  0
SPLINE
  5
14c
100
AcDbEntity
  8
Layer_1
 62
7
100
AcDbSpline
 70
8
 71
3
 72
8
 73
4
 74
0
 40
0
 40
0
 40
0
 40
0
 40
1
 40
1
 40
1
 40
1
 10
48.621405
 20
129.129410
 30
0.0
 10
48.621405
 20
130.234611
 30
0.0
 10
47.725463
 20
131.130554
 30
0.0
 10
46.620262
 20
131.130554
 30
0.0
  0
SPLINE
  5
14d
100
AcDbEntity
  8
Layer_1
 62
7
100
AcDbSpline
 70
8
 71
3
 72
8
 73
4
 74
0
 40
0
 40
0
 40
0
 40
0
 40
1
 40
1
 40
1
 40
1
 10
46.620262
 20
131.130554
 30
0.0
 10
46.089526
 20
131.130554
 30
0.0
 10
45.580527
 20
130.919719
 30
0.0
 10
45.205240
 20
130.544432
 30
0.0
  0
SPLINE
  5
14e
100
AcDbEntity
  8
Layer_1
 62
7
100
AcDbSpline
 70
8
 71
3
 72
8
 73
4
 74
0
 40
0
 40
0
 40
0
 40
0
 40
1
 40
1
 40
1
 40
1
 10
45.205240
 20
130.544432
 30
0.0
 10
44.829953
 20
130.169145
 30
0.0
 10
44.619118
 20
129.660146
 30
0.0
 10
44.619118
 20
129.129410
 30
0.0
  0
LWPOLYLINE
  5
14f
100
AcDbEntity
  8
Layer_1
 62
7
100
AcDbPolyline
 90
1
 70
1
 10
44.619118
 20
121.129410
 30
0.0
  0
SPLINE
  5
150
100
AcDbEntity
  8
Layer_1
 62
7
100
AcDbSpline
 70
8
 71
3
 72
8
 73
4
 74
0
 40
0
 40
0
 40
0
 40
0
 40
1
 40
1
 40
1
 40
1
 10
44.619118
 20
137.129410
 30
0.0
 10
44.619118
 20
136.320023
 30
0.0
 10
45.106681
 20
135.590333
 30
0.0
 10
45.854458
 20
135.280594
 30
0.0
  0
SPLINE
  5
151
100
AcDbEntity
  8
Layer_1
 62
7
100
AcDbSpline
 70
8
 71
3
 72
8
 73
4
 74
0
 40
0
 40
0
 40
0
 40
0
 40
1
 40
1
 40
1
 40
1
 10
45.854458
 20
135.280594
 30
0.0
 10
46.602234
 20
134.970855
 30
0.0
 10
47.462961
 20
135.142065
 30
0.0
 10
48.035284
 20
135.714388
 30
0.0
  0
SPLINE
  5
152
100
AcDbEntity
  8
Layer_1
 62
7
100
AcDbSpline
 70
8
 71
3
 72
8
 73
4
 74
0
 40
0
 40
0
 40
0
 40
0
 40
1
 40
1
 40
1
 40
1
 10
48.035284
 20
135.714388
 30
0.0
 10
48.607607
 20
136.286711
 30
0.0
 10
48.778817
 20
137.147438
 30
0.0
 10
48.469078
 20
137.895214
 30
0.0
  0
SPLINE
  5
153
100
AcDbEntity
  8
Layer_1
 62
7
100
AcDbSpline
 70
8
 71
3
 72
8
 73
4
 74
0
 40
0
 40
0
 40
0
 40
0
 40
1
 40
1
 40
1
 40
1
 10
48.469078
 20
137.895214
 30
0.0
 10
48.159339
 20
138.642991
 30
0.0
 10
47.429649
 20
139.130553
 30
0.0
 10
46.620262
 20
139.130553
 30
0.0
  0
SPLINE
  5
154
100
AcDbEntity
  8
Layer_1
 62
7
100
AcDbSpline
 70
8
 71
3
 72
8
 73
4
 74
0
 40
0
 40
0
 40
0
 40
0
 40
1
 40
1
 40
1
 40
1
 10
46.620262
 20
139.130553
 30
0.0
 10
46.089526
 20
139.130553
 30
0.0
 10
45.580527
 20
138.919719
 30
0.0
 10
45.205240
 20
138.544432
 30
0.0
  0
SPLINE
  5
155
100
AcDbEntity
  8
Layer_1
 62
7
100
AcDbSpline
 70
8
 71
3
 72
8
 73
4
 74
0
 40
0
 40
0
 40
0
 40
0
 40
1
 40
1
 40
1
 40
1
 10
45.205240
 20
138.544432
 30
0.0
 10
44.829953
 20
138.169145
 30
0.0
 10
44.619118
 20
137.660146
 30
0.0
 10
44.619118
 20
137.129410
 30
0.0
  0
LWPOLYLINE
  5
156
100
AcDbEntity
  8
Layer_1
 62
7
100
AcDbPolyline
 90
1
 70
1
 10
44.619118
 20
129.129410
 30
0.0
  0
SPLINE
  5
157
100
AcDbEntity
  8
Layer_1
 62
7
100
AcDbSpline
 70
8
 71
3
 72
8
 73
4
 74
0
 40
0
 40
0
 40
0
 40
0
 40
1
 40
1
 40
1
 40
1
 10
44.619118
 20
145.129410
 30
0.0
 10
44.619118
 20
144.320023
 30
0.0
 10
45.106681
 20
143.590333
 30
0.0
 10
45.854458
 20
143.280594
 30
0.0
  0
SPLINE
  5
158
100
AcDbEntity
  8
Layer_1
 62
7
100
AcDbSpline
 70
8
 71
3
 72
8
 73
4
 74
0
 40
0
 40
0
 40
0
 40
0
 40
1
 40
1
 40
1
 40
1
 10
45.854458
 20
143.280594
 30
0.0
 10
46.602234
 20
142.970855
 30
0.0
 10
47.462961
 20
143.142065
 30
0.0
 10
48.035284
 20
143.714388
 30
0.0
  0
SPLINE
  5
159
100
AcDbEntity
  8
Layer_1
 62
7
100
AcDbSpline
 70
8
 71
3
 72
8
 73
4
 74
0
 40
0
 40
0
 40
0
 40
0
 40
1
 40
1
 40
1
 40
1
 10
48.035284
 20
143.714388
 30
0.0
 10
48.607607
 20
144.286711
 30
0.0
 10
48.778817
 20
145.147438
 30
0.0
 10
48.469078
 20
145.895214
 30
0.0
  0
SPLINE
  5
15a
100
AcDbEntity
  8
Layer_1
 62
7
100
AcDbSpline
 70
8
 71
3
 72
8
 73
4
 74
0
 40
0
 40
0
 40
0
 40
0
 40
1
 40
1
 40
1
 40
1
 10
48.469078
 20
145.895214
 30
0.0
 10
48.159339
 20
146.642991
 30
0.0
 10
47.429649
 20
147.130553
 30
0.0
 10
46.620262
 20
147.130553
 30
0.0
  0
SPLINE
  5
15b
100
AcDbEntity
  8
Layer_1
 62
7
100
AcDbSpline
 70
8
 71
3
 72
8
 73
4
 74
0
 40
0
 40
0
 40
0
 40
0
 40
1
 40
1
 40
1
 40
1
 10
46.620262
 20
147.130553
 30
0.0
 10
46.089526
 20
147.130553
 30
0.0
 10
45.580527
 20
146.919719
 30
0.0
 10
45.205240
 20
146.544432
 30
0.0
  0
SPLINE
  5
15c
100
AcDbEntity
  8
Layer_1
 62
7
100
AcDbSpline
 70
8
 71
3
 72
8
 73
4
 74
0
 40
0
 40
0
 40
0
 40
0
 40
1
 40
1
 40
1
 40
1
 10
45.205240
 20
146.544432
 30
0.0
 10
44.829953
 20
146.169145
 30
0.0
 10
44.619118
 20
145.660146
 30
0.0
 10
44.619118
 20
145.129410
 30
0.0
  0
LWPOLYLINE
  5
15d
100
AcDbEntity
  8
Layer_1
 62
7
100
AcDbPolyline
 90
1
 70
1
 10
44.619118
 20
137.129410
 30
0.0
  0
SPLINE
  5
15e
100
AcDbEntity
  8
Layer_1
 62
7
100
AcDbSpline
 70
8
 71
3
 72
8
 73
4
 74
0
 40
0
 40
0
 40
0
 40
0
 40
1
 40
1
 40
1
 40
1
 10
44.619118
 20
153.129410
 30
0.0
 10
44.619118
 20
152.320023
 30
0.0
 10
45.106681
 20
151.590333
 30
0.0
 10
45.854458
 20
151.280594
 30
0.0
  0
SPLINE
  5
15f
100
AcDbEntity
  8
Layer_1
 62
7
100
AcDbSpline
 70
8
 71
3
 72
8
 73
4
 74
0
 40
0
 40
0
 40
0
 40
0
 40
1
 40
1
 40
1
 40
1
 10
45.854458
 20
151.280594
 30
0.0
 10
46.602234
 20
150.970855
 30
0.0
 10
47.462961
 20
151.142065
 30
0.0
 10
48.035284
 20
151.714388
 30
0.0
  0
SPLINE
  5
160
100
AcDbEntity
  8
Layer_1
 62
7
100
AcDbSpline
 70
8
 71
3
 72
8
 73
4
 74
0
 40
0
 40
0
 40
0
 40
0
 40
1
 40
1
 40
1
 40
1
 10
48.035284
 20
151.714388
 30
0.0
 10
48.607607
 20
152.286711
 30
0.0
 10
48.778817
 20
153.147438
 30
0.0
 10
48.469078
 20
153.895214
 30
0.0
  0
SPLINE
  5
161
100
AcDbEntity
  8
Layer_1
 62
7
100
AcDbSpline
 70
8
 71
3
 72
8
 73
4
 74
0
 40
0
 40
0
 40
0
 40
0
 40
1
 40
1
 40
1
 40
1
 10
48.469078
 20
153.895214
 30
0.0
 10
48.159339
 20
154.642991
 30
0.0
 10
47.429649
 20
155.130554
 30
0.0
 10
46.620262
 20
155.130554
 30
0.0
  0
SPLINE
  5
162
100
AcDbEntity
  8
Layer_1
 62
7
100
AcDbSpline
 70
8
 71
3
 72
8
 73
4
 74
0
 40
0
 40
0
 40
0
 40
0
 40
1
 40
1
 40
1
 40
1
 10
46.620262
 20
155.130554
 30
0.0
 10
46.089526
 20
155.130554
 30
0.0
 10
45.580527
 20
154.919719
 30
0.0
 10
45.205240
 20
154.544432
 30
0.0
  0
SPLINE
  5
163
100
AcDbEntity
  8
Layer_1
 62
7
100
AcDbSpline
 70
8
 71
3
 72
8
 73
4
 74
0
 40
0
 40
0
 40
0
 40
0
 40
1
 40
1
 40
1
 40
1
 10
45.205240
 20
154.544432
 30
0.0
 10
44.829953
 20
154.169145
 30
0.0
 10
44.619118
 20
153.660146
 30
0.0
 10
44.619118
 20
153.129410
 30
0.0
  0
LWPOLYLINE
  5
164
100
AcDbEntity
  8
Layer_1
 62
7
100
AcDbPolyline
 90
1
 70
1
 10
44.619118
 20
145.129410
 30
0.0
  0
SPLINE
  5
165
100
AcDbEntity
  8
Layer_1
 62
7
100
AcDbSpline
 70
8
 71
3
 72
8
 73
4
 74
0
 40
0
 40
0
 40
0
 40
0
 40
1
 40
1
 40
1
 40
1
 10
44.619118
 20
161.129410
 30
0.0
 10
44.619118
 20
160.320023
 30
0.0
 10
45.106681
 20
159.590333
 30
0.0
 10
45.854458
 20
159.280594
 30
0.0
  0
SPLINE
  5
166
100
AcDbEntity
  8
Layer_1
 62
7
100
AcDbSpline
 70
8
 71
3
 72
8
 73
4
 74
0
 40
0
 40
0
 40
0
 40
0
 40
1
 40
1
 40
1
 40
1
 10
45.854458
 20
159.280594
 30
0.0
 10
46.602234
 20
158.970855
 30
0.0
 10
47.462961
 20
159.142065
 30
0.0
 10
48.035284
 20
159.714388
 30
0.0
  0
SPLINE
  5
167
100
AcDbEntity
  8
Layer_1
 62
7
100
AcDbSpline
 70
8
 71
3
 72
8
 73
4
 74
0
 40
0
 40
0
 40
0
 40
0
 40
1
 40
1
 40
1
 40
1
 10
48.035284
 20
159.714388
 30
0.0
 10
48.607607
 20
160.286711
 30
0.0
 10
48.778817
 20
161.147438
 30
0.0
 10
48.469078
 20
161.895214
 30
0.0
  0
SPLINE
  5
168
100
AcDbEntity
  8
Layer_1
 62
7
100
AcDbSpline
 70
8
 71
3
 72
8
 73
4
 74
0
 40
0
 40
0
 40
0
 40
0
 40
1
 40
1
 40
1
 40
1
 10
48.469078
 20
161.895214
 30
0.0
 10
48.159339
 20
162.642991
 30
0.0
 10
47.429649
 20
163.130554
 30
0.0
 10
46.620262
 20
163.130554
 30
0.0
  0
SPLINE
  5
169
100
AcDbEntity
  8
Layer_1
 62
7
100
AcDbSpline
 70
8
 71
3
 72
8
 73
4
 74
0
 40
0
 40
0
 40
0
 40
0
 40
1
 40
1
 40
1
 40
1
 10
46.620262
 20
163.130554
 30
0.0
 10
46.089526
 20
163.130554
 30
0.0
 10
45.580527
 20
162.919719
 30
0.0
 10
45.205240
 20
162.544432
 30
0.0
  0
SPLINE
  5
16a
100
AcDbEntity
  8
Layer_1
 62
7
100
AcDbSpline
 70
8
 71
3
 72
8
 73
4
 74
0
 40
0
 40
0
 40
0
 40
0
 40
1
 40
1
 40
1
 40
1
 10
45.205240
 20
162.544432
 30
0.0
 10
44.829953
 20
162.169145
 30
0.0
 10
44.619118
 20
161.660146
 30
0.0
 10
44.619118
 20
161.129410
 30
0.0
  0
LWPOLYLINE
  5
16b
100
AcDbEntity
  8
Layer_1
 62
7
100
AcDbPolyline
 90
1
 70
1
 10
44.619118
 20
153.129410
 30
0.0
  0
SPLINE
  5
16c
100
AcDbEntity
  8
Layer_1
 62
7
100
AcDbSpline
 70
8
 71
3
 72
8
 73
4
 74
0
 40
0
 40
0
 40
0
 40
0
 40
1
 40
1
 40
1
 40
1
 10
44.619118
 20
169.129410
 30
0.0
 10
44.619118
 20
168.320023
 30
0.0
 10
45.106681
 20
167.590333
 30
0.0
 10
45.854458
 20
167.280594
 30
0.0
  0
SPLINE
  5
16d
100
AcDbEntity
  8
Layer_1
 62
7
100
AcDbSpline
 70
8
 71
3
 72
8
 73
4
 74
0
 40
0
 40
0
 40
0
 40
0
 40
1
 40
1
 40
1
 40
1
 10
45.854458
 20
167.280594
 30
0.0
 10
46.602234
 20
166.970855
 30
0.0
 10
47.462961
 20
167.142065
 30
0.0
 10
48.035284
 20
167.714388
 30
0.0
  0
SPLINE
  5
16e
100
AcDbEntity
  8
Layer_1
 62
7
100
AcDbSpline
 70
8
 71
3
 72
8
 73
4
 74
0
 40
0
 40
0
 40
0
 40
0
 40
1
 40
1
 40
1
 40
1
 10
48.035284
 20
167.714388
 30
0.0
 10
48.607607
 20
168.286711
 30
0.0
 10
48.778817
 20
169.147438
 30
0.0
 10
48.469078
 20
169.895214
 30
0.0
  0
SPLINE
  5
16f
100
AcDbEntity
  8
Layer_1
 62
7
100
AcDbSpline
 70
8
 71
3
 72
8
 73
4
 74
0
 40
0
 40
0
 40
0
 40
0
 40
1
 40
1
 40
1
 40
1
 10
48.469078
 20
169.895214
 30
0.0
 10
48.159339
 20
170.642991
 30
0.0
 10
47.429649
 20
171.130554
 30
0.0
 10
46.620262
 20
171.130554
 30
0.0
  0
SPLINE
  5
170
100
AcDbEntity
  8
Layer_1
 62
7
100
AcDbSpline
 70
8
 71
3
 72
8
 73
4
 74
0
 40
0
 40
0
 40
0
 40
0
 40
1
 40
1
 40
1
 40
1
 10
46.620262
 20
171.130554
 30
0.0
 10
46.089526
 20
171.130554
 30
0.0
 10
45.580527
 20
170.919719
 30
0.0
 10
45.205240
 20
170.544432
 30
0.0
  0
SPLINE
  5
171
100
AcDbEntity
  8
Layer_1
 62
7
100
AcDbSpline
 70
8
 71
3
 72
8
 73
4
 74
0
 40
0
 40
0
 40
0
 40
0
 40
1
 40
1
 40
1
 40
1
 10
45.205240
 20
170.544432
 30
0.0
 10
44.829953
 20
170.169145
 30
0.0
 10
44.619118
 20
169.660146
 30
0.0
 10
44.619118
 20
169.129410
 30
0.0
  0
LWPOLYLINE
  5
172
100
AcDbEntity
  8
Layer_1
 62
7
100
AcDbPolyline
 90
1
 70
1
 10
44.619118
 20
161.129410
 30
0.0
  0
SPLINE
  5
173
100
AcDbEntity
  8
Layer_1
 62
7
100
AcDbSpline
 70
8
 71
3
 72
8
 73
4
 74
0
 40
0
 40
0
 40
0
 40
0
 40
1
 40
1
 40
1
 40
1
 10
44.619118
 20
177.129410
 30
0.0
 10
44.619118
 20
176.320023
 30
0.0
 10
45.106681
 20
175.590333
 30
0.0
 10
45.854458
 20
175.280594
 30
0.0
  0
SPLINE
  5
174
100
AcDbEntity
  8
Layer_1
 62
7
100
AcDbSpline
 70
8
 71
3
 72
8
 73
4
 74
0
 40
0
 40
0
 40
0
 40
0
 40
1
 40
1
 40
1
 40
1
 10
45.854458
 20
175.280594
 30
0.0
 10
46.602234
 20
174.970855
 30
0.0
 10
47.462961
 20
175.142065
 30
0.0
 10
48.035284
 20
175.714388
 30
0.0
  0
SPLINE
  5
175
100
AcDbEntity
  8
Layer_1
 62
7
100
AcDbSpline
 70
8
 71
3
 72
8
 73
4
 74
0
 40
0
 40
0
 40
0
 40
0
 40
1
 40
1
 40
1
 40
1
 10
48.035284
 20
175.714388
 30
0.0
 10
48.607607
 20
176.286711
 30
0.0
 10
48.778817
 20
177.147438
 30
0.0
 10
48.469078
 20
177.895214
 30
0.0
  0
SPLINE
  5
176
100
AcDbEntity
  8
Layer_1
 62
7
100
AcDbSpline
 70
8
 71
3
 72
8
 73
4
 74
0
 40
0
 40
0
 40
0
 40
0
 40
1
 40
1
 40
1
 40
1
 10
48.469078
 20
177.895214
 30
0.0
 10
48.159339
 20
178.642991
 30
0.0
 10
47.429649
 20
179.130554
 30
0.0
 10
46.620262
 20
179.130554
 30
0.0
  0
SPLINE
  5
177
100
AcDbEntity
  8
Layer_1
 62
7
100
AcDbSpline
 70
8
 71
3
 72
8
 73
4
 74
0
 40
0
 40
0
 40
0
 40
0
 40
1
 40
1
 40
1
 40
1
 10
46.620262
 20
179.130554
 30
0.0
 10
46.089526
 20
179.130554
 30
0.0
 10
45.580527
 20
178.919719
 30
0.0
 10
45.205240
 20
178.544432
 30
0.0
  0
SPLINE
  5
178
100
AcDbEntity
  8
Layer_1
 62
7
100
AcDbSpline
 70
8
 71
3
 72
8
 73
4
 74
0
 40
0
 40
0
 40
0
 40
0
 40
1
 40
1
 40
1
 40
1
 10
45.205240
 20
178.544432
 30
0.0
 10
44.829953
 20
178.169145
 30
0.0
 10
44.619118
 20
177.660146
 30
0.0
 10
44.619118
 20
177.129410
 30
0.0
  0
LWPOLYLINE
  5
179
100
AcDbEntity
  8
Layer_1
 62
7
100
AcDbPolyline
 90
1
 70
1
 10
44.619118
 20
169.129410
 30
0.0
  0
SPLINE
  5
17a
100
AcDbEntity
  8
Layer_1
 62
7
100
AcDbSpline
 70
8
 71
3
 72
8
 73
4
 74
0
 40
0
 40
0
 40
0
 40
0
 40
1
 40
1
 40
1
 40
1
 10
404.619077
 20
113.129370
 30
0.0
 10
404.619077
 20
112.319983
 30
0.0
 10
405.106639
 20
111.590293
 30
0.0
 10
405.854416
 20
111.280554
 30
0.0
  0
SPLINE
  5
17b
100
AcDbEntity
  8
Layer_1
 62
7
100
AcDbSpline
 70
8
 71
3
 72
8
 73
4
 74
0
 40
0
 40
0
 40
0
 40
0
 40
1
 40
1
 40
1
 40
1
 10
405.854416
 20
111.280554
 30
0.0
 10
406.602192
 20
110.970815
 30
0.0
 10
407.462919
 20
111.142025
 30
0.0
 10
408.035242
 20
111.714348
 30
0.0
  0
SPLINE
  5
17c
100
AcDbEntity
  8
Layer_1
 62
7
100
AcDbSpline
 70
8
 71
3
 72
8
 73
4
 74
0
 40
0
 40
0
 40
0
 40
0
 40
1
 40
1
 40
1
 40
1
 10
408.035242
 20
111.714348
 30
0.0
 10
408.607565
 20
112.286671
 30
0.0
 10
408.778775
 20
113.147398
 30
0.0
 10
408.469036
 20
113.895174
 30
0.0
  0
SPLINE
  5
17d
100
AcDbEntity
  8
Layer_1
 62
7
100
AcDbSpline
 70
8
 71
3
 72
8
 73
4
 74
0
 40
0
 40
0
 40
0
 40
0
 40
1
 40
1
 40
1
 40
1
 10
408.469036
 20
113.895174
 30
0.0
 10
408.159297
 20
114.642951
 30
0.0
 10
407.429607
 20
115.130513
 30
0.0
 10
406.620220
 20
115.130513
 30
0.0
  0
SPLINE
  5
17e
100
AcDbEntity
  8
Layer_1
 62
7
100
AcDbSpline
 70
8
 71
3
 72
8
 73
4
 74
0
 40
0
 40
0
 40
0
 40
0
 40
1
 40
1
 40
1
 40
1
 10
406.620220
 20
115.130513
 30
0.0
 10
406.089484
 20
115.130513
 30
0.0
 10
405.580485
 20
114.919679
 30
0.0
 10
405.205198
 20
114.544392
 30
0.0
  0
SPLINE
  5
17f
100
AcDbEntity
  8
Layer_1
 62
7
100
AcDbSpline
 70
8
 71
3
 72
8
 73
4
 74
0
 40
0
 40
0
 40
0
 40
0
 40
1
 40
1
 40
1
 40
1
 10
405.205198
 20
114.544392
 30
0.0
 10
404.829911
 20
114.169105
 30
0.0
 10
404.619077
 20
113.660106
 30
0.0
 10
404.619077
 20
113.129370
 30
0.0
  0
LWPOLYLINE
  5
180
100
AcDbEntity
  8
Layer_1
 62
7
100
AcDbPolyline
 90
1
 70
1
 10
44.619118
 20
177.129410
 30
0.0
  0
SPLINE
  5
181
100
AcDbEntity
  8
Layer_1
 62
7
100
AcDbSpline
 70
8
 71
3
 72
8
 73
4
 74
0
 40
0
 40
0
 40
0
 40
0
 40
1
 40
1
 40
1
 40
1
 10
404.619077
 20
121.129370
 30
0.0
 10
404.619077
 20
120.024169
 30
0.0
 10
405.515019
 20
119.128226
 30
0.0
 10
406.620220
 20
119.128226
 30
0.0
  0
SPLINE
  5
182
100
AcDbEntity
  8
Layer_1
 62
7
100
AcDbSpline
 70
8
 71
3
 72
8
 73
4
 74
0
 40
0
 40
0
 40
0
 40
0
 40
1
 40
1
 40
1
 40
1
 10
406.620220
 20
119.128226
 30
0.0
 10
407.725421
 20
119.128226
 30
0.0
 10
408.621364
 20
120.024169
 30
0.0
 10
408.621364
 20
121.129370
 30
0.0
  0
SPLINE
  5
183
100
AcDbEntity
  8
Layer_1
 62
7
100
AcDbSpline
 70
8
 71
3
 72
8
 73
4
 74
0
 40
0
 40
0
 40
0
 40
0
 40
1
 40
1
 40
1
 40
1
 10
408.621364
 20
121.129370
 30
0.0
 10
408.621364
 20
122.234571
 30
0.0
 10
407.725421
 20
123.130513
 30
0.0
 10
406.620220
 20
123.130513
 30
0.0
  0
SPLINE
  5
184
100
AcDbEntity
  8
Layer_1
 62
7
100
AcDbSpline
 70
8
 71
3
 72
8
 73
4
 74
0
 40
0
 40
0
 40
0
 40
0
 40
1
 40
1
 40
1
 40
1
 10
406.620220
 20
123.130513
 30
0.0
 10
406.089484
 20
123.130513
 30
0.0
 10
405.580485
 20
122.919679
 30
0.0
 10
405.205198
 20
122.544392
 30
0.0
  0
SPLINE
  5
185
100
AcDbEntity
  8
Layer_1
 62
7
100
AcDbSpline
 70
8
 71
3
 72
8
 73
4
 74
0
 40
0
 40
0
 40
0
 40
0
 40
1
 40
1
 40
1
 40
1
 10
405.205198
 20
122.544392
 30
0.0
 10
404.829911
 20
122.169105
 30
0.0
 10
404.619077
 20
121.660106
 30
0.0
 10
404.619077
 20
121.129370
 30
0.0
  0
LWPOLYLINE
  5
186
100
AcDbEntity
  8
Layer_1
 62
7
100
AcDbPolyline
 90
1
 70
1
 10
404.619077
 20
113.129370
 30
0.0
  0
SPLINE
  5
187
100
AcDbEntity
  8
Layer_1
 62
7
100
AcDbSpline
 70
8
 71
3
 72
8
 73
4
 74
0
 40
0
 40
0
 40
0
 40
0
 40
1
 40
1
 40
1
 40
1
 10
404.619077
 20
129.129370
 30
0.0
 10
404.619077
 20
128.319983
 30
0.0
 10
405.106639
 20
127.590293
 30
0.0
 10
405.854416
 20
127.280554
 30
0.0
  0
SPLINE
  5
188
100
AcDbEntity
  8
Layer_1
 62
7
100
AcDbSpline
 70
8
 71
3
 72
8
 73
4
 74
0
 40
0
 40
0
 40
0
 40
0
 40
1
 40
1
 40
1
 40
1
 10
405.854416
 20
127.280554
 30
0.0
 10
406.602192
 20
126.970815
 30
0.0
 10
407.462919
 20
127.142025
 30
0.0
 10
408.035242
 20
127.714348
 30
0.0
  0
SPLINE
  5
189
100
AcDbEntity
  8
Layer_1
 62
7
100
AcDbSpline
 70
8
 71
3
 72
8
 73
4
 74
0
 40
0
 40
0
 40
0
 40
0
 40
1
 40
1
 40
1
 40
1
 10
408.035242
 20
127.714348
 30
0.0
 10
408.607565
 20
128.286671
 30
0.0
 10
408.778775
 20
129.147398
 30
0.0
 10
408.469036
 20
129.895174
 30
0.0
  0
SPLINE
  5
18a
100
AcDbEntity
  8
Layer_1
 62
7
100
AcDbSpline
 70
8
 71
3
 72
8
 73
4
 74
0
 40
0
 40
0
 40
0
 40
0
 40
1
 40
1
 40
1
 40
1
 10
408.469036
 20
129.895174
 30
0.0
 10
408.159297
 20
130.642951
 30
0.0
 10
407.429607
 20
131.130513
 30
0.0
 10
406.620220
 20
131.130513
 30
0.0
  0
SPLINE
  5
18b
100
AcDbEntity
  8
Layer_1
 62
7
100
AcDbSpline
 70
8
 71
3
 72
8
 73
4
 74
0
 40
0
 40
0
 40
0
 40
0
 40
1
 40
1
 40
1
 40
1
 10
406.620220
 20
131.130513
 30
0.0
 10
406.089484
 20
131.130513
 30
0.0
 10
405.580485
 20
130.919679
 30
0.0
 10
405.205198
 20
130.544392
 30
0.0
  0
SPLINE
  5
18c
100
AcDbEntity
  8
Layer_1
 62
7
100
AcDbSpline
 70
8
 71
3
 72
8
 73
4
 74
0
 40
0
 40
0
 40
0
 40
0
 40
1
 40
1
 40
1
 40
1
 10
405.205198
 20
130.544392
 30
0.0
 10
404.829911
 20
130.169105
 30
0.0
 10
404.619077
 20
129.660106
 30
0.0
 10
404.619077
 20
129.129370
 30
0.0
  0
LWPOLYLINE
  5
18d
100
AcDbEntity
  8
Layer_1
 62
7
100
AcDbPolyline
 90
1
 70
1
 10
404.619077
 20
121.129370
 30
0.0
  0
SPLINE
  5
18e
100
AcDbEntity
  8
Layer_1
 62
7
100
AcDbSpline
 70
8
 71
3
 72
8
 73
4
 74
0
 40
0
 40
0
 40
0
 40
0
 40
1
 40
1
 40
1
 40
1
 10
404.619077
 20
137.129370
 30
0.0
 10
404.619077
 20
136.024169
 30
0.0
 10
405.515019
 20
135.128226
 30
0.0
 10
406.620220
 20
135.128227
 30
0.0
  0
SPLINE
  5
18f
100
AcDbEntity
  8
Layer_1
 62
7
100
AcDbSpline
 70
8
 71
3
 72
8
 73
4
 74
0
 40
0
 40
0
 40
0
 40
0
 40
1
 40
1
 40
1
 40
1
 10
406.620220
 20
135.128227
 30
0.0
 10
407.725421
 20
135.128227
 30
0.0
 10
408.621364
 20
136.024169
 30
0.0
 10
408.621364
 20
137.129370
 30
0.0
  0
SPLINE
  5
190
100
AcDbEntity
  8
Layer_1
 62
7
100
AcDbSpline
 70
8
 71
3
 72
8
 73
4
 74
0
 40
0
 40
0
 40
0
 40
0
 40
1
 40
1
 40
1
 40
1
 10
408.621364
 20
137.129370
 30
0.0
 10
408.621364
 20
138.234571
 30
0.0
 10
407.725421
 20
139.130514
 30
0.0
 10
406.620220
 20
139.130514
 30
0.0
  0
SPLINE
  5
191
100
AcDbEntity
  8
Layer_1
 62
7
100
AcDbSpline
 70
8
 71
3
 72
8
 73
4
 74
0
 40
0
 40
0
 40
0
 40
0
 40
1
 40
1
 40
1
 40
1
 10
406.620220
 20
139.130514
 30
0.0
 10
406.089484
 20
139.130514
 30
0.0
 10
405.580485
 20
138.919679
 30
0.0
 10
405.205198
 20
138.544392
 30
0.0
  0
SPLINE
  5
192
100
AcDbEntity
  8
Layer_1
 62
7
100
AcDbSpline
 70
8
 71
3
 72
8
 73
4
 74
0
 40
0
 40
0
 40
0
 40
0
 40
1
 40
1
 40
1
 40
1
 10
405.205198
 20
138.544392
 30
0.0
 10
404.829911
 20
138.169105
 30
0.0
 10
404.619077
 20
137.660106
 30
0.0
 10
404.619077
 20
137.129370
 30
0.0
  0
LWPOLYLINE
  5
193
100
AcDbEntity
  8
Layer_1
 62
7
100
AcDbPolyline
 90
1
 70
1
 10
404.619077
 20
129.129370
 30
0.0
  0
SPLINE
  5
194
100
AcDbEntity
  8
Layer_1
 62
7
100
AcDbSpline
 70
8
 71
3
 72
8
 73
4
 74
0
 40
0
 40
0
 40
0
 40
0
 40
1
 40
1
 40
1
 40
1
 10
404.619077
 20
145.129370
 30
0.0
 10
404.619077
 20
144.319983
 30
0.0
 10
405.106639
 20
143.590293
 30
0.0
 10
405.854416
 20
143.280554
 30
0.0
  0
SPLINE
  5
195
100
AcDbEntity
  8
Layer_1
 62
7
100
AcDbSpline
 70
8
 71
3
 72
8
 73
4
 74
0
 40
0
 40
0
 40
0
 40
0
 40
1
 40
1
 40
1
 40
1
 10
405.854416
 20
143.280554
 30
0.0
 10
406.602192
 20
142.970815
 30
0.0
 10
407.462919
 20
143.142025
 30
0.0
 10
408.035242
 20
143.714348
 30
0.0
  0
SPLINE
  5
196
100
AcDbEntity
  8
Layer_1
 62
7
100
AcDbSpline
 70
8
 71
3
 72
8
 73
4
 74
0
 40
0
 40
0
 40
0
 40
0
 40
1
 40
1
 40
1
 40
1
 10
408.035242
 20
143.714348
 30
0.0
 10
408.607565
 20
144.286671
 30
0.0
 10
408.778775
 20
145.147398
 30
0.0
 10
408.469036
 20
145.895174
 30
0.0
  0
SPLINE
  5
197
100
AcDbEntity
  8
Layer_1
 62
7
100
AcDbSpline
 70
8
 71
3
 72
8
 73
4
 74
0
 40
0
 40
0
 40
0
 40
0
 40
1
 40
1
 40
1
 40
1
 10
408.469036
 20
145.895174
 30
0.0
 10
408.159297
 20
146.642951
 30
0.0
 10
407.429607
 20
147.130513
 30
0.0
 10
406.620220
 20
147.130513
 30
0.0
  0
SPLINE
  5
198
100
AcDbEntity
  8
Layer_1
 62
7
100
AcDbSpline
 70
8
 71
3
 72
8
 73
4
 74
0
 40
0
 40
0
 40
0
 40
0
 40
1
 40
1
 40
1
 40
1
 10
406.620220
 20
147.130513
 30
0.0
 10
406.089484
 20
147.130513
 30
0.0
 10
405.580485
 20
146.919679
 30
0.0
 10
405.205198
 20
146.544392
 30
0.0
  0
SPLINE
  5
199
100
AcDbEntity
  8
Layer_1
 62
7
100
AcDbSpline
 70
8
 71
3
 72
8
 73
4
 74
0
 40
0
 40
0
 40
0
 40
0
 40
1
 40
1
 40
1
 40
1
 10
405.205198
 20
146.544392
 30
0.0
 10
404.829911
 20
146.169105
 30
0.0
 10
404.619077
 20
145.660106
 30
0.0
 10
404.619077
 20
145.129370
 30
0.0
  0
LWPOLYLINE
  5
19a
100
AcDbEntity
  8
Layer_1
 62
7
100
AcDbPolyline
 90
1
 70
1
 10
404.619077
 20
137.129370
 30
0.0
  0
SPLINE
  5
19b
100
AcDbEntity
  8
Layer_1
 62
7
100
AcDbSpline
 70
8
 71
3
 72
8
 73
4
 74
0
 40
0
 40
0
 40
0
 40
0
 40
1
 40
1
 40
1
 40
1
 10
404.619077
 20
153.129370
 30
0.0
 10
404.619077
 20
152.024169
 30
0.0
 10
405.515019
 20
151.128226
 30
0.0
 10
406.620220
 20
151.128226
 30
0.0
  0
SPLINE
  5
19c
100
AcDbEntity
  8
Layer_1
 62
7
100
AcDbSpline
 70
8
 71
3
 72
8
 73
4
 74
0
 40
0
 40
0
 40
0
 40
0
 40
1
 40
1
 40
1
 40
1
 10
406.620220
 20
151.128226
 30
0.0
 10
407.725421
 20
151.128226
 30
0.0
 10
408.621364
 20
152.024169
 30
0.0
 10
408.621364
 20
153.129370
 30
0.0
  0
SPLINE
  5
19d
100
AcDbEntity
  8
Layer_1
 62
7
100
AcDbSpline
 70
8
 71
3
 72
8
 73
4
 74
0
 40
0
 40
0
 40
0
 40
0
 40
1
 40
1
 40
1
 40
1
 10
408.621364
 20
153.129370
 30
0.0
 10
408.621364
 20
154.234571
 30
0.0
 10
407.725421
 20
155.130513
 30
0.0
 10
406.620220
 20
155.130513
 30
0.0
  0
SPLINE
  5
19e
100
AcDbEntity
  8
Layer_1
 62
7
100
AcDbSpline
 70
8
 71
3
 72
8
 73
4
 74
0
 40
0
 40
0
 40
0
 40
0
 40
1
 40
1
 40
1
 40
1
 10
406.620220
 20
155.130513
 30
0.0
 10
406.089484
 20
155.130513
 30
0.0
 10
405.580485
 20
154.919679
 30
0.0
 10
405.205198
 20
154.544392
 30
0.0
  0
SPLINE
  5
19f
100
AcDbEntity
  8
Layer_1
 62
7
100
AcDbSpline
 70
8
 71
3
 72
8
 73
4
 74
0
 40
0
 40
0
 40
0
 40
0
 40
1
 40
1
 40
1
 40
1
 10
405.205198
 20
154.544392
 30
0.0
 10
404.829911
 20
154.169105
 30
0.0
 10
404.619077
 20
153.660106
 30
0.0
 10
404.619077
 20
153.129370
 30
0.0
  0
LWPOLYLINE
  5
1a0
100
AcDbEntity
  8
Layer_1
 62
7
100
AcDbPolyline
 90
1
 70
1
 10
404.619077
 20
145.129370
 30
0.0
  0
SPLINE
  5
1a1
100
AcDbEntity
  8
Layer_1
 62
7
100
AcDbSpline
 70
8
 71
3
 72
8
 73
4
 74
0
 40
0
 40
0
 40
0
 40
0
 40
1
 40
1
 40
1
 40
1
 10
404.619077
 20
161.129370
 30
0.0
 10
404.619077
 20
160.319983
 30
0.0
 10
405.106639
 20
159.590293
 30
0.0
 10
405.854416
 20
159.280554
 30
0.0
  0
SPLINE
  5
1a2
100
AcDbEntity
  8
Layer_1
 62
7
100
AcDbSpline
 70
8
 71
3
 72
8
 73
4
 74
0
 40
0
 40
0
 40
0
 40
0
 40
1
 40
1
 40
1
 40
1
 10
405.854416
 20
159.280554
 30
0.0
 10
406.602192
 20
158.970815
 30
0.0
 10
407.462919
 20
159.142025
 30
0.0
 10
408.035242
 20
159.714348
 30
0.0
  0
SPLINE
  5
1a3
100
AcDbEntity
  8
Layer_1
 62
7
100
AcDbSpline
 70
8
 71
3
 72
8
 73
4
 74
0
 40
0
 40
0
 40
0
 40
0
 40
1
 40
1
 40
1
 40
1
 10
408.035242
 20
159.714348
 30
0.0
 10
408.607565
 20
160.286671
 30
0.0
 10
408.778775
 20
161.147398
 30
0.0
 10
408.469036
 20
161.895174
 30
0.0
  0
SPLINE
  5
1a4
100
AcDbEntity
  8
Layer_1
 62
7
100
AcDbSpline
 70
8
 71
3
 72
8
 73
4
 74
0
 40
0
 40
0
 40
0
 40
0
 40
1
 40
1
 40
1
 40
1
 10
408.469036
 20
161.895174
 30
0.0
 10
408.159297
 20
162.642951
 30
0.0
 10
407.429607
 20
163.130513
 30
0.0
 10
406.620220
 20
163.130513
 30
0.0
  0
SPLINE
  5
1a5
100
AcDbEntity
  8
Layer_1
 62
7
100
AcDbSpline
 70
8
 71
3
 72
8
 73
4
 74
0
 40
0
 40
0
 40
0
 40
0
 40
1
 40
1
 40
1
 40
1
 10
406.620220
 20
163.130513
 30
0.0
 10
406.089484
 20
163.130513
 30
0.0
 10
405.580485
 20
162.919679
 30
0.0
 10
405.205198
 20
162.544392
 30
0.0
  0
SPLINE
  5
1a6
100
AcDbEntity
  8
Layer_1
 62
7
100
AcDbSpline
 70
8
 71
3
 72
8
 73
4
 74
0
 40
0
 40
0
 40
0
 40
0
 40
1
 40
1
 40
1
 40
1
 10
405.205198
 20
162.544392
 30
0.0
 10
404.829911
 20
162.169105
 30
0.0
 10
404.619077
 20
161.660106
 30
0.0
 10
404.619077
 20
161.129370
 30
0.0
  0
LWPOLYLINE
  5
1a7
100
AcDbEntity
  8
Layer_1
 62
7
100
AcDbPolyline
 90
1
 70
1
 10
404.619077
 20
153.129370
 30
0.0
  0
SPLINE
  5
1a8
100
AcDbEntity
  8
Layer_1
 62
7
100
AcDbSpline
 70
8
 71
3
 72
8
 73
4
 74
0
 40
0
 40
0
 40
0
 40
0
 40
1
 40
1
 40
1
 40
1
 10
404.619077
 20
169.129370
 30
0.0
 10
404.619077
 20
168.024169
 30
0.0
 10
405.515019
 20
167.128226
 30
0.0
 10
406.620220
 20
167.128227
 30
0.0
  0
SPLINE
  5
1a9
100
AcDbEntity
  8
Layer_1
 62
7
100
AcDbSpline
 70
8
 71
3
 72
8
 73
4
 74
0
 40
0
 40
0
 40
0
 40
0
 40
1
 40
1
 40
1
 40
1
 10
406.620220
 20
167.128227
 30
0.0
 10
407.725421
 20
167.128227
 30
0.0
 10
408.621364
 20
168.024169
 30
0.0
 10
408.621364
 20
169.129370
 30
0.0
  0
SPLINE
  5
1aa
100
AcDbEntity
  8
Layer_1
 62
7
100
AcDbSpline
 70
8
 71
3
 72
8
 73
4
 74
0
 40
0
 40
0
 40
0
 40
0
 40
1
 40
1
 40
1
 40
1
 10
408.621364
 20
169.129370
 30
0.0
 10
408.621364
 20
170.234571
 30
0.0
 10
407.725421
 20
171.130514
 30
0.0
 10
406.620220
 20
171.130514
 30
0.0
  0
SPLINE
  5
1ab
100
AcDbEntity
  8
Layer_1
 62
7
100
AcDbSpline
 70
8
 71
3
 72
8
 73
4
 74
0
 40
0
 40
0
 40
0
 40
0
 40
1
 40
1
 40
1
 40
1
 10
406.620220
 20
171.130514
 30
0.0
 10
406.089484
 20
171.130514
 30
0.0
 10
405.580485
 20
170.919679
 30
0.0
 10
405.205198
 20
170.544392
 30
0.0
  0
SPLINE
  5
1ac
100
AcDbEntity
  8
Layer_1
 62
7
100
AcDbSpline
 70
8
 71
3
 72
8
 73
4
 74
0
 40
0
 40
0
 40
0
 40
0
 40
1
 40
1
 40
1
 40
1
 10
405.205198
 20
170.544392
 30
0.0
 10
404.829911
 20
170.169105
 30
0.0
 10
404.619077
 20
169.660106
 30
0.0
 10
404.619077
 20
169.129370
 30
0.0
  0
LWPOLYLINE
  5
1ad
100
AcDbEntity
  8
Layer_1
 62
7
100
AcDbPolyline
 90
1
 70
1
 10
404.619077
 20
161.129370
 30
0.0
  0
SPLINE
  5
1ae
100
AcDbEntity
  8
Layer_1
 62
7
100
AcDbSpline
 70
8
 71
3
 72
8
 73
4
 74
0
 40
0
 40
0
 40
0
 40
0
 40
1
 40
1
 40
1
 40
1
 10
404.619077
 20
177.129370
 30
0.0
 10
404.619077
 20
176.319983
 30
0.0
 10
405.106639
 20
175.590293
 30
0.0
 10
405.854416
 20
175.280554
 30
0.0
  0
SPLINE
  5
1af
100
AcDbEntity
  8
Layer_1
 62
7
100
AcDbSpline
 70
8
 71
3
 72
8
 73
4
 74
0
 40
0
 40
0
 40
0
 40
0
 40
1
 40
1
 40
1
 40
1
 10
405.854416
 20
175.280554
 30
0.0
 10
406.602192
 20
174.970815
 30
0.0
 10
407.462919
 20
175.142025
 30
0.0
 10
408.035242
 20
175.714348
 30
0.0
  0
SPLINE
  5
1b0
100
AcDbEntity
  8
Layer_1
 62
7
100
AcDbSpline
 70
8
 71
3
 72
8
 73
4
 74
0
 40
0
 40
0
 40
0
 40
0
 40
1
 40
1
 40
1
 40
1
 10
408.035242
 20
175.714348
 30
0.0
 10
408.607565
 20
176.286671
 30
0.0
 10
408.778775
 20
177.147398
 30
0.0
 10
408.469036
 20
177.895174
 30
0.0
  0
SPLINE
  5
1b1
100
AcDbEntity
  8
Layer_1
 62
7
100
AcDbSpline
 70
8
 71
3
 72
8
 73
4
 74
0
 40
0
 40
0
 40
0
 40
0
 40
1
 40
1
 40
1
 40
1
 10
408.469036
 20
177.895174
 30
0.0
 10
408.159297
 20
178.642951
 30
0.0
 10
407.429607
 20
179.130514
 30
0.0
 10
406.620220
 20
179.130514
 30
0.0
  0
SPLINE
  5
1b2
100
AcDbEntity
  8
Layer_1
 62
7
100
AcDbSpline
 70
8
 71
3
 72
8
 73
4
 74
0
 40
0
 40
0
 40
0
 40
0
 40
1
 40
1
 40
1
 40
1
 10
406.620220
 20
179.130514
 30
0.0
 10
406.089484
 20
179.130514
 30
0.0
 10
405.580485
 20
178.919679
 30
0.0
 10
405.205198
 20
178.544392
 30
0.0
  0
SPLINE
  5
1b3
100
AcDbEntity
  8
Layer_1
 62
7
100
AcDbSpline
 70
8
 71
3
 72
8
 73
4
 74
0
 40
0
 40
0
 40
0
 40
0
 40
1
 40
1
 40
1
 40
1
 10
405.205198
 20
178.544392
 30
0.0
 10
404.829911
 20
178.169105
 30
0.0
 10
404.619077
 20
177.660106
 30
0.0
 10
404.619077
 20
177.129370
 30
0.0
  0
LWPOLYLINE
  5
1b4
100
AcDbEntity
  8
Layer_1
 62
7
100
AcDbPolyline
 90
1
 70
1
 10
404.619077
 20
169.129370
 30
0.0
  0
SPLINE
  5
1b5
100
AcDbEntity
  8
Layer_1
 62
7
100
AcDbSpline
 70
8
 71
3
 72
8
 73
4
 74
0
 40
0
 40
0
 40
0
 40
0
 40
1
 40
1
 40
1
 40
1
 10
372.619077
 20
113.129370
 30
0.0
 10
372.619077
 20
112.319983
 30
0.0
 10
373.106639
 20
111.590293
 30
0.0
 10
373.854416
 20
111.280554
 30
0.0
  0
SPLINE
  5
1b6
100
AcDbEntity
  8
Layer_1
 62
7
100
AcDbSpline
 70
8
 71
3
 72
8
 73
4
 74
0
 40
0
 40
0
 40
0
 40
0
 40
1
 40
1
 40
1
 40
1
 10
373.854416
 20
111.280554
 30
0.0
 10
374.602192
 20
110.970815
 30
0.0
 10
375.462919
 20
111.142025
 30
0.0
 10
376.035242
 20
111.714348
 30
0.0
  0
SPLINE
  5
1b7
100
AcDbEntity
  8
Layer_1
 62
7
100
AcDbSpline
 70
8
 71
3
 72
8
 73
4
 74
0
 40
0
 40
0
 40
0
 40
0
 40
1
 40
1
 40
1
 40
1
 10
376.035242
 20
111.714348
 30
0.0
 10
376.607565
 20
112.286671
 30
0.0
 10
376.778775
 20
113.147398
 30
0.0
 10
376.469036
 20
113.895174
 30
0.0
  0
SPLINE
  5
1b8
100
AcDbEntity
  8
Layer_1
 62
7
100
AcDbSpline
 70
8
 71
3
 72
8
 73
4
 74
0
 40
0
 40
0
 40
0
 40
0
 40
1
 40
1
 40
1
 40
1
 10
376.469036
 20
113.895174
 30
0.0
 10
376.159297
 20
114.642951
 30
0.0
 10
375.429607
 20
115.130513
 30
0.0
 10
374.620220
 20
115.130513
 30
0.0
  0
SPLINE
  5
1b9
100
AcDbEntity
  8
Layer_1
 62
7
100
AcDbSpline
 70
8
 71
3
 72
8
 73
4
 74
0
 40
0
 40
0
 40
0
 40
0
 40
1
 40
1
 40
1
 40
1
 10
374.620220
 20
115.130513
 30
0.0
 10
374.089484
 20
115.130513
 30
0.0
 10
373.580485
 20
114.919679
 30
0.0
 10
373.205198
 20
114.544392
 30
0.0
  0
SPLINE
  5
1ba
100
AcDbEntity
  8
Layer_1
 62
7
100
AcDbSpline
 70
8
 71
3
 72
8
 73
4
 74
0
 40
0
 40
0
 40
0
 40
0
 40
1
 40
1
 40
1
 40
1
 10
373.205198
 20
114.544392
 30
0.0
 10
372.829911
 20
114.169105
 30
0.0
 10
372.619077
 20
113.660106
 30
0.0
 10
372.619077
 20
113.129370
 30
0.0
  0
LWPOLYLINE
  5
1bb
100
AcDbEntity
  8
Layer_1
 62
7
100
AcDbPolyline
 90
1
 70
1
 10
404.619077
 20
177.129370
 30
0.0
  0
SPLINE
  5
1bc
100
AcDbEntity
  8
Layer_1
 62
7
100
AcDbSpline
 70
8
 71
3
 72
8
 73
4
 74
0
 40
0
 40
0
 40
0
 40
0
 40
1
 40
1
 40
1
 40
1
 10
372.619077
 20
121.129370
 30
0.0
 10
372.619077
 20
120.024169
 30
0.0
 10
373.515019
 20
119.128226
 30
0.0
 10
374.620220
 20
119.128226
 30
0.0
  0
SPLINE
  5
1bd
100
AcDbEntity
  8
Layer_1
 62
7
100
AcDbSpline
 70
8
 71
3
 72
8
 73
4
 74
0
 40
0
 40
0
 40
0
 40
0
 40
1
 40
1
 40
1
 40
1
 10
374.620220
 20
119.128226
 30
0.0
 10
375.725421
 20
119.128226
 30
0.0
 10
376.621364
 20
120.024169
 30
0.0
 10
376.621364
 20
121.129370
 30
0.0
  0
SPLINE
  5
1be
100
AcDbEntity
  8
Layer_1
 62
7
100
AcDbSpline
 70
8
 71
3
 72
8
 73
4
 74
0
 40
0
 40
0
 40
0
 40
0
 40
1
 40
1
 40
1
 40
1
 10
376.621364
 20
121.129370
 30
0.0
 10
376.621364
 20
122.234571
 30
0.0
 10
375.725421
 20
123.130513
 30
0.0
 10
374.620220
 20
123.130513
 30
0.0
  0
SPLINE
  5
1bf
100
AcDbEntity
  8
Layer_1
 62
7
100
AcDbSpline
 70
8
 71
3
 72
8
 73
4
 74
0
 40
0
 40
0
 40
0
 40
0
 40
1
 40
1
 40
1
 40
1
 10
374.620220
 20
123.130513
 30
0.0
 10
374.089484
 20
123.130513
 30
0.0
 10
373.580485
 20
122.919679
 30
0.0
 10
373.205198
 20
122.544392
 30
0.0
  0
SPLINE
  5
1c0
100
AcDbEntity
  8
Layer_1
 62
7
100
AcDbSpline
 70
8
 71
3
 72
8
 73
4
 74
0
 40
0
 40
0
 40
0
 40
0
 40
1
 40
1
 40
1
 40
1
 10
373.205198
 20
122.544392
 30
0.0
 10
372.829911
 20
122.169105
 30
0.0
 10
372.619077
 20
121.660106
 30
0.0
 10
372.619077
 20
121.129370
 30
0.0
  0
LWPOLYLINE
  5
1c1
100
AcDbEntity
  8
Layer_1
 62
7
100
AcDbPolyline
 90
1
 70
1
 10
372.619077
 20
113.129370
 30
0.0
  0
SPLINE
  5
1c2
100
AcDbEntity
  8
Layer_1
 62
7
100
AcDbSpline
 70
8
 71
3
 72
8
 73
4
 74
0
 40
0
 40
0
 40
0
 40
0
 40
1
 40
1
 40
1
 40
1
 10
372.619077
 20
129.129370
 30
0.0
 10
372.619077
 20
128.319983
 30
0.0
 10
373.106639
 20
127.590293
 30
0.0
 10
373.854416
 20
127.280554
 30
0.0
  0
SPLINE
  5
1c3
100
AcDbEntity
  8
Layer_1
 62
7
100
AcDbSpline
 70
8
 71
3
 72
8
 73
4
 74
0
 40
0
 40
0
 40
0
 40
0
 40
1
 40
1
 40
1
 40
1
 10
373.854416
 20
127.280554
 30
0.0
 10
374.602192
 20
126.970815
 30
0.0
 10
375.462919
 20
127.142025
 30
0.0
 10
376.035242
 20
127.714348
 30
0.0
  0
SPLINE
  5
1c4
100
AcDbEntity
  8
Layer_1
 62
7
100
AcDbSpline
 70
8
 71
3
 72
8
 73
4
 74
0
 40
0
 40
0
 40
0
 40
0
 40
1
 40
1
 40
1
 40
1
 10
376.035242
 20
127.714348
 30
0.0
 10
376.607565
 20
128.286671
 30
0.0
 10
376.778775
 20
129.147398
 30
0.0
 10
376.469036
 20
129.895174
 30
0.0
  0
SPLINE
  5
1c5
100
AcDbEntity
  8
Layer_1
 62
7
100
AcDbSpline
 70
8
 71
3
 72
8
 73
4
 74
0
 40
0
 40
0
 40
0
 40
0
 40
1
 40
1
 40
1
 40
1
 10
376.469036
 20
129.895174
 30
0.0
 10
376.159297
 20
130.642951
 30
0.0
 10
375.429607
 20
131.130513
 30
0.0
 10
374.620220
 20
131.130513
 30
0.0
  0
SPLINE
  5
1c6
100
AcDbEntity
  8
Layer_1
 62
7
100
AcDbSpline
 70
8
 71
3
 72
8
 73
4
 74
0
 40
0
 40
0
 40
0
 40
0
 40
1
 40
1
 40
1
 40
1
 10
374.620220
 20
131.130513
 30
0.0
 10
374.089484
 20
131.130513
 30
0.0
 10
373.580485
 20
130.919679
 30
0.0
 10
373.205198
 20
130.544392
 30
0.0
  0
SPLINE
  5
1c7
100
AcDbEntity
  8
Layer_1
 62
7
100
AcDbSpline
 70
8
 71
3
 72
8
 73
4
 74
0
 40
0
 40
0
 40
0
 40
0
 40
1
 40
1
 40
1
 40
1
 10
373.205198
 20
130.544392
 30
0.0
 10
372.829911
 20
130.169105
 30
0.0
 10
372.619077
 20
129.660106
 30
0.0
 10
372.619077
 20
129.129370
 30
0.0
  0
LWPOLYLINE
  5
1c8
100
AcDbEntity
  8
Layer_1
 62
7
100
AcDbPolyline
 90
1
 70
1
 10
372.619077
 20
121.129370
 30
0.0
  0
SPLINE
  5
1c9
100
AcDbEntity
  8
Layer_1
 62
7
100
AcDbSpline
 70
8
 71
3
 72
8
 73
4
 74
0
 40
0
 40
0
 40
0
 40
0
 40
1
 40
1
 40
1
 40
1
 10
372.619077
 20
137.129370
 30
0.0
 10
372.619077
 20
136.024169
 30
0.0
 10
373.515019
 20
135.128226
 30
0.0
 10
374.620220
 20
135.128227
 30
0.0
  0
SPLINE
  5
1ca
100
AcDbEntity
  8
Layer_1
 62
7
100
AcDbSpline
 70
8
 71
3
 72
8
 73
4
 74
0
 40
0
 40
0
 40
0
 40
0
 40
1
 40
1
 40
1
 40
1
 10
374.620220
 20
135.128227
 30
0.0
 10
375.725421
 20
135.128227
 30
0.0
 10
376.621364
 20
136.024169
 30
0.0
 10
376.621364
 20
137.129370
 30
0.0
  0
SPLINE
  5
1cb
100
AcDbEntity
  8
Layer_1
 62
7
100
AcDbSpline
 70
8
 71
3
 72
8
 73
4
 74
0
 40
0
 40
0
 40
0
 40
0
 40
1
 40
1
 40
1
 40
1
 10
376.621364
 20
137.129370
 30
0.0
 10
376.621364
 20
138.234571
 30
0.0
 10
375.725421
 20
139.130514
 30
0.0
 10
374.620220
 20
139.130514
 30
0.0
  0
SPLINE
  5
1cc
100
AcDbEntity
  8
Layer_1
 62
7
100
AcDbSpline
 70
8
 71
3
 72
8
 73
4
 74
0
 40
0
 40
0
 40
0
 40
0
 40
1
 40
1
 40
1
 40
1
 10
374.620220
 20
139.130514
 30
0.0
 10
374.089484
 20
139.130514
 30
0.0
 10
373.580485
 20
138.919679
 30
0.0
 10
373.205198
 20
138.544392
 30
0.0
  0
SPLINE
  5
1cd
100
AcDbEntity
  8
Layer_1
 62
7
100
AcDbSpline
 70
8
 71
3
 72
8
 73
4
 74
0
 40
0
 40
0
 40
0
 40
0
 40
1
 40
1
 40
1
 40
1
 10
373.205198
 20
138.544392
 30
0.0
 10
372.829911
 20
138.169105
 30
0.0
 10
372.619077
 20
137.660106
 30
0.0
 10
372.619077
 20
137.129370
 30
0.0
  0
LWPOLYLINE
  5
1ce
100
AcDbEntity
  8
Layer_1
 62
7
100
AcDbPolyline
 90
1
 70
1
 10
372.619077
 20
129.129370
 30
0.0
  0
SPLINE
  5
1cf
100
AcDbEntity
  8
Layer_1
 62
7
100
AcDbSpline
 70
8
 71
3
 72
8
 73
4
 74
0
 40
0
 40
0
 40
0
 40
0
 40
1
 40
1
 40
1
 40
1
 10
372.619077
 20
145.129370
 30
0.0
 10
372.619077
 20
144.319983
 30
0.0
 10
373.106639
 20
143.590293
 30
0.0
 10
373.854416
 20
143.280554
 30
0.0
  0
SPLINE
  5
1d0
100
AcDbEntity
  8
Layer_1
 62
7
100
AcDbSpline
 70
8
 71
3
 72
8
 73
4
 74
0
 40
0
 40
0
 40
0
 40
0
 40
1
 40
1
 40
1
 40
1
 10
373.854416
 20
143.280554
 30
0.0
 10
374.602192
 20
142.970815
 30
0.0
 10
375.462919
 20
143.142025
 30
0.0
 10
376.035242
 20
143.714348
 30
0.0
  0
SPLINE
  5
1d1
100
AcDbEntity
  8
Layer_1
 62
7
100
AcDbSpline
 70
8
 71
3
 72
8
 73
4
 74
0
 40
0
 40
0
 40
0
 40
0
 40
1
 40
1
 40
1
 40
1
 10
376.035242
 20
143.714348
 30
0.0
 10
376.607565
 20
144.286671
 30
0.0
 10
376.778775
 20
145.147398
 30
0.0
 10
376.469036
 20
145.895174
 30
0.0
  0
SPLINE
  5
1d2
100
AcDbEntity
  8
Layer_1
 62
7
100
AcDbSpline
 70
8
 71
3
 72
8
 73
4
 74
0
 40
0
 40
0
 40
0
 40
0
 40
1
 40
1
 40
1
 40
1
 10
376.469036
 20
145.895174
 30
0.0
 10
376.159297
 20
146.642951
 30
0.0
 10
375.429607
 20
147.130513
 30
0.0
 10
374.620220
 20
147.130513
 30
0.0
  0
SPLINE
  5
1d3
100
AcDbEntity
  8
Layer_1
 62
7
100
AcDbSpline
 70
8
 71
3
 72
8
 73
4
 74
0
 40
0
 40
0
 40
0
 40
0
 40
1
 40
1
 40
1
 40
1
 10
374.620220
 20
147.130513
 30
0.0
 10
374.089484
 20
147.130513
 30
0.0
 10
373.580485
 20
146.919679
 30
0.0
 10
373.205198
 20
146.544392
 30
0.0
  0
SPLINE
  5
1d4
100
AcDbEntity
  8
Layer_1
 62
7
100
AcDbSpline
 70
8
 71
3
 72
8
 73
4
 74
0
 40
0
 40
0
 40
0
 40
0
 40
1
 40
1
 40
1
 40
1
 10
373.205198
 20
146.544392
 30
0.0
 10
372.829911
 20
146.169105
 30
0.0
 10
372.619077
 20
145.660106
 30
0.0
 10
372.619077
 20
145.129370
 30
0.0
  0
LWPOLYLINE
  5
1d5
100
AcDbEntity
  8
Layer_1
 62
7
100
AcDbPolyline
 90
1
 70
1
 10
372.619077
 20
137.129370
 30
0.0
  0
SPLINE
  5
1d6
100
AcDbEntity
  8
Layer_1
 62
7
100
AcDbSpline
 70
8
 71
3
 72
8
 73
4
 74
0
 40
0
 40
0
 40
0
 40
0
 40
1
 40
1
 40
1
 40
1
 10
372.619077
 20
153.129370
 30
0.0
 10
372.619077
 20
152.024169
 30
0.0
 10
373.515019
 20
151.128226
 30
0.0
 10
374.620220
 20
151.128226
 30
0.0
  0
SPLINE
  5
1d7
100
AcDbEntity
  8
Layer_1
 62
7
100
AcDbSpline
 70
8
 71
3
 72
8
 73
4
 74
0
 40
0
 40
0
 40
0
 40
0
 40
1
 40
1
 40
1
 40
1
 10
374.620220
 20
151.128226
 30
0.0
 10
375.725421
 20
151.128226
 30
0.0
 10
376.621364
 20
152.024169
 30
0.0
 10
376.621364
 20
153.129370
 30
0.0
  0
SPLINE
  5
1d8
100
AcDbEntity
  8
Layer_1
 62
7
100
AcDbSpline
 70
8
 71
3
 72
8
 73
4
 74
0
 40
0
 40
0
 40
0
 40
0
 40
1
 40
1
 40
1
 40
1
 10
376.621364
 20
153.129370
 30
0.0
 10
376.621364
 20
154.234571
 30
0.0
 10
375.725421
 20
155.130513
 30
0.0
 10
374.620220
 20
155.130513
 30
0.0
  0
SPLINE
  5
1d9
100
AcDbEntity
  8
Layer_1
 62
7
100
AcDbSpline
 70
8
 71
3
 72
8
 73
4
 74
0
 40
0
 40
0
 40
0
 40
0
 40
1
 40
1
 40
1
 40
1
 10
374.620220
 20
155.130513
 30
0.0
 10
374.089484
 20
155.130513
 30
0.0
 10
373.580485
 20
154.919679
 30
0.0
 10
373.205198
 20
154.544392
 30
0.0
  0
SPLINE
  5
1da
100
AcDbEntity
  8
Layer_1
 62
7
100
AcDbSpline
 70
8
 71
3
 72
8
 73
4
 74
0
 40
0
 40
0
 40
0
 40
0
 40
1
 40
1
 40
1
 40
1
 10
373.205198
 20
154.544392
 30
0.0
 10
372.829911
 20
154.169105
 30
0.0
 10
372.619077
 20
153.660106
 30
0.0
 10
372.619077
 20
153.129370
 30
0.0
  0
LWPOLYLINE
  5
1db
100
AcDbEntity
  8
Layer_1
 62
7
100
AcDbPolyline
 90
1
 70
1
 10
372.619077
 20
145.129370
 30
0.0
  0
SPLINE
  5
1dc
100
AcDbEntity
  8
Layer_1
 62
7
100
AcDbSpline
 70
8
 71
3
 72
8
 73
4
 74
0
 40
0
 40
0
 40
0
 40
0
 40
1
 40
1
 40
1
 40
1
 10
372.619077
 20
161.129370
 30
0.0
 10
372.619077
 20
160.319983
 30
0.0
 10
373.106639
 20
159.590293
 30
0.0
 10
373.854416
 20
159.280554
 30
0.0
  0
SPLINE
  5
1dd
100
AcDbEntity
  8
Layer_1
 62
7
100
AcDbSpline
 70
8
 71
3
 72
8
 73
4
 74
0
 40
0
 40
0
 40
0
 40
0
 40
1
 40
1
 40
1
 40
1
 10
373.854416
 20
159.280554
 30
0.0
 10
374.602192
 20
158.970815
 30
0.0
 10
375.462919
 20
159.142025
 30
0.0
 10
376.035242
 20
159.714348
 30
0.0
  0
SPLINE
  5
1de
100
AcDbEntity
  8
Layer_1
 62
7
100
AcDbSpline
 70
8
 71
3
 72
8
 73
4
 74
0
 40
0
 40
0
 40
0
 40
0
 40
1
 40
1
 40
1
 40
1
 10
376.035242
 20
159.714348
 30
0.0
 10
376.607565
 20
160.286671
 30
0.0
 10
376.778775
 20
161.147398
 30
0.0
 10
376.469036
 20
161.895174
 30
0.0
  0
SPLINE
  5
1df
100
AcDbEntity
  8
Layer_1
 62
7
100
AcDbSpline
 70
8
 71
3
 72
8
 73
4
 74
0
 40
0
 40
0
 40
0
 40
0
 40
1
 40
1
 40
1
 40
1
 10
376.469036
 20
161.895174
 30
0.0
 10
376.159297
 20
162.642951
 30
0.0
 10
375.429607
 20
163.130513
 30
0.0
 10
374.620220
 20
163.130513
 30
0.0
  0
SPLINE
  5
1e0
100
AcDbEntity
  8
Layer_1
 62
7
100
AcDbSpline
 70
8
 71
3
 72
8
 73
4
 74
0
 40
0
 40
0
 40
0
 40
0
 40
1
 40
1
 40
1
 40
1
 10
374.620220
 20
163.130513
 30
0.0
 10
374.089484
 20
163.130513
 30
0.0
 10
373.580485
 20
162.919679
 30
0.0
 10
373.205198
 20
162.544392
 30
0.0
  0
SPLINE
  5
1e1
100
AcDbEntity
  8
Layer_1
 62
7
100
AcDbSpline
 70
8
 71
3
 72
8
 73
4
 74
0
 40
0
 40
0
 40
0
 40
0
 40
1
 40
1
 40
1
 40
1
 10
373.205198
 20
162.544392
 30
0.0
 10
372.829911
 20
162.169105
 30
0.0
 10
372.619077
 20
161.660106
 30
0.0
 10
372.619077
 20
161.129370
 30
0.0
  0
LWPOLYLINE
  5
1e2
100
AcDbEntity
  8
Layer_1
 62
7
100
AcDbPolyline
 90
1
 70
1
 10
372.619077
 20
153.129370
 30
0.0
  0
SPLINE
  5
1e3
100
AcDbEntity
  8
Layer_1
 62
7
100
AcDbSpline
 70
8
 71
3
 72
8
 73
4
 74
0
 40
0
 40
0
 40
0
 40
0
 40
1
 40
1
 40
1
 40
1
 10
372.619077
 20
169.129370
 30
0.0
 10
372.619077
 20
168.024169
 30
0.0
 10
373.515019
 20
167.128226
 30
0.0
 10
374.620220
 20
167.128227
 30
0.0
  0
SPLINE
  5
1e4
100
AcDbEntity
  8
Layer_1
 62
7
100
AcDbSpline
 70
8
 71
3
 72
8
 73
4
 74
0
 40
0
 40
0
 40
0
 40
0
 40
1
 40
1
 40
1
 40
1
 10
374.620220
 20
167.128227
 30
0.0
 10
375.725421
 20
167.128227
 30
0.0
 10
376.621364
 20
168.024169
 30
0.0
 10
376.621364
 20
169.129370
 30
0.0
  0
SPLINE
  5
1e5
100
AcDbEntity
  8
Layer_1
 62
7
100
AcDbSpline
 70
8
 71
3
 72
8
 73
4
 74
0
 40
0
 40
0
 40
0
 40
0
 40
1
 40
1
 40
1
 40
1
 10
376.621364
 20
169.129370
 30
0.0
 10
376.621364
 20
170.234571
 30
0.0
 10
375.725421
 20
171.130514
 30
0.0
 10
374.620220
 20
171.130514
 30
0.0
  0
SPLINE
  5
1e6
100
AcDbEntity
  8
Layer_1
 62
7
100
AcDbSpline
 70
8
 71
3
 72
8
 73
4
 74
0
 40
0
 40
0
 40
0
 40
0
 40
1
 40
1
 40
1
 40
1
 10
374.620220
 20
171.130514
 30
0.0
 10
374.089484
 20
171.130514
 30
0.0
 10
373.580485
 20
170.919679
 30
0.0
 10
373.205198
 20
170.544392
 30
0.0
  0
SPLINE
  5
1e7
100
AcDbEntity
  8
Layer_1
 62
7
100
AcDbSpline
 70
8
 71
3
 72
8
 73
4
 74
0
 40
0
 40
0
 40
0
 40
0
 40
1
 40
1
 40
1
 40
1
 10
373.205198
 20
170.544392
 30
0.0
 10
372.829911
 20
170.169105
 30
0.0
 10
372.619077
 20
169.660106
 30
0.0
 10
372.619077
 20
169.129370
 30
0.0
  0
LWPOLYLINE
  5
1e8
100
AcDbEntity
  8
Layer_1
 62
7
100
AcDbPolyline
 90
1
 70
1
 10
372.619077
 20
161.129370
 30
0.0
  0
SPLINE
  5
1e9
100
AcDbEntity
  8
Layer_1
 62
7
100
AcDbSpline
 70
8
 71
3
 72
8
 73
4
 74
0
 40
0
 40
0
 40
0
 40
0
 40
1
 40
1
 40
1
 40
1
 10
372.619077
 20
177.129370
 30
0.0
 10
372.619077
 20
176.319983
 30
0.0
 10
373.106639
 20
175.590293
 30
0.0
 10
373.854416
 20
175.280554
 30
0.0
  0
SPLINE
  5
1ea
100
AcDbEntity
  8
Layer_1
 62
7
100
AcDbSpline
 70
8
 71
3
 72
8
 73
4
 74
0
 40
0
 40
0
 40
0
 40
0
 40
1
 40
1
 40
1
 40
1
 10
373.854416
 20
175.280554
 30
0.0
 10
374.602192
 20
174.970815
 30
0.0
 10
375.462919
 20
175.142025
 30
0.0
 10
376.035242
 20
175.714348
 30
0.0
  0
SPLINE
  5
1eb
100
AcDbEntity
  8
Layer_1
 62
7
100
AcDbSpline
 70
8
 71
3
 72
8
 73
4
 74
0
 40
0
 40
0
 40
0
 40
0
 40
1
 40
1
 40
1
 40
1
 10
376.035242
 20
175.714348
 30
0.0
 10
376.607565
 20
176.286671
 30
0.0
 10
376.778775
 20
177.147398
 30
0.0
 10
376.469036
 20
177.895174
 30
0.0
  0
SPLINE
  5
1ec
100
AcDbEntity
  8
Layer_1
 62
7
100
AcDbSpline
 70
8
 71
3
 72
8
 73
4
 74
0
 40
0
 40
0
 40
0
 40
0
 40
1
 40
1
 40
1
 40
1
 10
376.469036
 20
177.895174
 30
0.0
 10
376.159297
 20
178.642951
 30
0.0
 10
375.429607
 20
179.130514
 30
0.0
 10
374.620220
 20
179.130514
 30
0.0
  0
SPLINE
  5
1ed
100
AcDbEntity
  8
Layer_1
 62
7
100
AcDbSpline
 70
8
 71
3
 72
8
 73
4
 74
0
 40
0
 40
0
 40
0
 40
0
 40
1
 40
1
 40
1
 40
1
 10
374.620220
 20
179.130514
 30
0.0
 10
374.089484
 20
179.130514
 30
0.0
 10
373.580485
 20
178.919679
 30
0.0
 10
373.205198
 20
178.544392
 30
0.0
  0
SPLINE
  5
1ee
100
AcDbEntity
  8
Layer_1
 62
7
100
AcDbSpline
 70
8
 71
3
 72
8
 73
4
 74
0
 40
0
 40
0
 40
0
 40
0
 40
1
 40
1
 40
1
 40
1
 10
373.205198
 20
178.544392
 30
0.0
 10
372.829911
 20
178.169105
 30
0.0
 10
372.619077
 20
177.660106
 30
0.0
 10
372.619077
 20
177.129370
 30
0.0
  0
LWPOLYLINE
  5
1ef
100
AcDbEntity
  8
Layer_1
 62
7
100
AcDbPolyline
 90
1
 70
1
 10
372.619077
 20
169.129370
 30
0.0
  0
SPLINE
  5
1f0
100
AcDbEntity
  8
Layer_1
 62
7
100
AcDbSpline
 70
8
 71
3
 72
8
 73
4
 74
0
 40
0
 40
0
 40
0
 40
0
 40
1
 40
1
 40
1
 40
1
 10
254.293190
 20
41.235360
 30
0.0
 10
240.868500
 20
35.589070
 30
0.0
 10
226.120100
 20
32.468500
 30
0.0
 10
210.642850
 20
32.468500
 30
0.0
  0
SPLINE
  5
1f1
100
AcDbEntity
  8
Layer_1
 62
7
100
AcDbSpline
 70
8
 71
3
 72
8
 73
4
 74
0
 40
0
 40
0
 40
0
 40
0
 40
1
 40
1
 40
1
 40
1
 10
210.642850
 20
32.468500
 30
0.0
 10
196.467860
 20
32.468500
 30
0.0
 10
182.420160
 20
35.143190
 30
0.0
 10
169.236970
 20
40.352210
 30
0.0
  0
SPLINE
  5
1f2
100
AcDbEntity
  8
Layer_1
 62
7
100
AcDbSpline
 70
8
 71
3
 72
8
 73
4
 74
0
 40
0
 40
0
 40
0
 40
0
 40
1
 40
1
 40
1
 40
1
 10
169.236970
 20
40.352210
 30
0.0
 10
168.484280
 20
40.649620
 30
0.0
 10
167.736110
 20
40.954540
 30
0.0
 10
166.992530
 20
41.266880
 30
0.0
  0
SPLINE
  5
1f3
100
AcDbEntity
  8
Layer_1
 62
7
100
AcDbSpline
 70
8
 71
3
 72
8
 73
4
 74
0
 40
0
 40
0
 40
0
 40
0
 40
1
 40
1
 40
1
 40
1
 10
166.947350
 20
249.023501
 30
0.0
 10
167.587570
 20
249.292438
 30
0.0
 10
168.276370
 20
249.524313
 30
0.0
 10
168.923360
 20
249.782196
 30
0.0
  0
SPLINE
  5
1f4
100
AcDbEntity
  8
Layer_1
 62
7
100
AcDbSpline
 70
8
 71
3
 72
8
 73
4
 74
0
 40
0
 40
0
 40
0
 40
0
 40
1
 40
1
 40
1
 40
1
 10
168.923360
 20
249.782196
 30
0.0
 10
182.196300
 20
255.072680
 30
0.0
 10
196.354380
 20
257.790360
 30
0.0
 10
210.642850
 20
257.790359
 30
0.0
  0
SPLINE
  5
1f5
100
AcDbEntity
  8
Layer_1
 62
7
100
AcDbSpline
 70
8
 71
3
 72
8
 73
4
 74
0
 40
0
 40
0
 40
0
 40
0
 40
1
 40
1
 40
1
 40
1
 10
210.642850
 20
257.790359
 30
0.0
 10
226.120100
 20
257.790359
 30
0.0
 10
240.868500
 20
254.669787
 30
0.0
 10
254.293190
 20
249.023501
 30
0.0
  0
SPLINE
  5
1f6
100
AcDbEntity
  8
Layer_1
 62
7
100
AcDbSpline
 70
8
 71
3
 72
8
 73
4
 74
0
 40
0
 40
0
 40
0
 40
0
 40
1
 40
1
 40
1
 40
1
 10
117.120569
 20
150.293414
 30
0.0
 10
115.032187
 20
150.293414
 30
0.0
 10
113.149441
 20
149.035403
 30
0.0
 10
112.350252
 20
147.105990
 30
0.0
  0
SPLINE
  5
1f7
100
AcDbEntity
  8
Layer_1
 62
7
100
AcDbSpline
 70
8
 71
3
 72
8
 73
4
 74
0
 40
0
 40
0
 40
0
 40
0
 40
1
 40
1
 40
1
 40
1
 10
112.350252
 20
147.105990
 30
0.0
 10
111.551063
 20
145.176577
 30
0.0
 10
111.992817
 20
142.955727
 30
0.0
 10
113.469526
 20
141.479018
 30
0.0
  0
SPLINE
  5
1f8
100
AcDbEntity
  8
Layer_1
 62
7
100
AcDbSpline
 70
8
 71
3
 72
8
 73
4
 74
0
 40
0
 40
0
 40
0
 40
0
 40
1
 40
1
 40
1
 40
1
 10
113.469526
 20
141.479018
 30
0.0
 10
114.946235
 20
140.002309
 30
0.0
 10
117.167085
 20
139.560554
 30
0.0
 10
119.096498
 20
140.359744
 30
0.0
  0
SPLINE
  5
1f9
100
AcDbEntity
  8
Layer_1
 62
7
100
AcDbSpline
 70
8
 71
3
 72
8
 73
4
 74
0
 40
0
 40
0
 40
0
 40
0
 40
1
 40
1
 40
1
 40
1
 10
119.096498
 20
140.359744
 30
0.0
 10
121.025912
 20
141.158933
 30
0.0
 10
122.283922
 20
143.041679
 30
0.0
 10
122.283922
 20
145.130060
 30
0.0
  0
SPLINE
  5
1fa
100
AcDbEntity
  8
Layer_1
 62
7
100
AcDbSpline
 70
8
 71
3
 72
8
 73
4
 74
0
 40
0
 40
0
 40
0
 40
0
 40
1
 40
1
 40
1
 40
1
 10
122.283922
 20
145.130060
 30
0.0
 10
122.283922
 20
146.499467
 30
0.0
 10
121.739928
 20
147.812786
 30
0.0
 10
120.771611
 20
148.781103
 30
0.0
  0
SPLINE
  5
1fb
100
AcDbEntity
  8
Layer_1
 62
7
100
AcDbSpline
 70
8
 71
3
 72
8
 73
4
 74
0
 40
0
 40
0
 40
0
 40
0
 40
1
 40
1
 40
1
 40
1
 10
120.771611
 20
148.781103
 30
0.0
 10
119.803294
 20
149.749419
 30
0.0
 10
118.489975
 20
150.293414
 30
0.0
 10
117.120569
 20
150.293414
 30
0.0
  0
LWPOLYLINE
  5
1fc
100
AcDbEntity
  8
Layer_1
 62
7
100
AcDbPolyline
 90
1
 70
1
 10
372.619077
 20
177.129370
 30
0.0
  0
SPLINE
  5
1fd
100
AcDbEntity
  8
Layer_1
 62
7
100
AcDbSpline
 70
8
 71
3
 72
8
 73
4
 74
0
 40
0
 40
0
 40
0
 40
0
 40
1
 40
1
 40
1
 40
1
 10
131.870536
 20
150.293414
 30
0.0
 10
129.782155
 20
150.293414
 30
0.0
 10
127.899409
 20
149.035403
 30
0.0
 10
127.100220
 20
147.105990
 30
0.0
  0
SPLINE
  5
1fe
100
AcDbEntity
  8
Layer_1
 62
7
100
AcDbSpline
 70
8
 71
3
 72
8
 73
4
 74
0
 40
0
 40
0
 40
0
 40
0
 40
1
 40
1
 40
1
 40
1
 10
127.100220
 20
147.105990
 30
0.0
 10
126.301031
 20
145.176577
 30
0.0
 10
126.742785
 20
142.955727
 30
0.0
 10
128.219494
 20
141.479018
 30
0.0
  0
SPLINE
  5
1ff
100
AcDbEntity
  8
Layer_1
 62
7
100
AcDbSpline
 70
8
 71
3
 72
8
 73
4
 74
0
 40
0
 40
0
 40
0
 40
0
 40
1
 40
1
 40
1
 40
1
 10
128.219494
 20
141.479018
 30
0.0
 10
129.696203
 20
140.002309
 30
0.0
 10
131.917053
 20
139.560554
 30
0.0
 10
133.846466
 20
140.359744
 30
0.0
  0
SPLINE
  5
200
100
AcDbEntity
  8
Layer_1
 62
7
100
AcDbSpline
 70
8
 71
3
 72
8
 73
4
 74
0
 40
0
 40
0
 40
0
 40
0
 40
1
 40
1
 40
1
 40
1
 10
133.846466
 20
140.359744
 30
0.0
 10
135.775879
 20
141.158933
 30
0.0
 10
137.033890
 20
143.041679
 30
0.0
 10
137.033890
 20
145.130060
 30
0.0
  0
SPLINE
  5
201
100
AcDbEntity
  8
Layer_1
 62
7
100
AcDbSpline
 70
8
 71
3
 72
8
 73
4
 74
0
 40
0
 40
0
 40
0
 40
0
 40
1
 40
1
 40
1
 40
1
 10
137.033890
 20
145.130060
 30
0.0
 10
137.033890
 20
146.499467
 30
0.0
 10
136.489895
 20
147.812786
 30
0.0
 10
135.521579
 20
148.781103
 30
0.0
  0
SPLINE
  5
202
100
AcDbEntity
  8
Layer_1
 62
7
100
AcDbSpline
 70
8
 71
3
 72
8
 73
4
 74
0
 40
0
 40
0
 40
0
 40
0
 40
1
 40
1
 40
1
 40
1
 10
135.521579
 20
148.781103
 30
0.0
 10
134.553262
 20
149.749419
 30
0.0
 10
133.239943
 20
150.293414
 30
0.0
 10
131.870536
 20
150.293414
 30
0.0
  0
LWPOLYLINE
  5
203
100
AcDbEntity
  8
Layer_1
 62
7
100
AcDbPolyline
 90
1
 70
1
 10
117.120569
 20
150.293414
 30
0.0
  0
SPLINE
  5
204
100
AcDbEntity
  8
Layer_1
 62
7
100
AcDbSpline
 70
8
 71
3
 72
8
 73
4
 74
0
 40
0
 40
0
 40
0
 40
0
 40
1
 40
1
 40
1
 40
1
 10
289.369922
 20
150.293409
 30
0.0
 10
287.281541
 20
150.293409
 30
0.0
 10
285.398795
 20
149.035398
 30
0.0
 10
284.599606
 20
147.105985
 30
0.0
  0
SPLINE
  5
205
100
AcDbEntity
  8
Layer_1
 62
7
100
AcDbSpline
 70
8
 71
3
 72
8
 73
4
 74
0
 40
0
 40
0
 40
0
 40
0
 40
1
 40
1
 40
1
 40
1
 10
284.599606
 20
147.105985
 30
0.0
 10
283.800417
 20
145.176572
 30
0.0
 10
284.242171
 20
142.955722
 30
0.0
 10
285.718880
 20
141.479013
 30
0.0
  0
SPLINE
  5
206
100
AcDbEntity
  8
Layer_1
 62
7
100
AcDbSpline
 70
8
 71
3
 72
8
 73
4
 74
0
 40
0
 40
0
 40
0
 40
0
 40
1
 40
1
 40
1
 40
1
 10
285.718880
 20
141.479013
 30
0.0
 10
287.195589
 20
140.002304
 30
0.0
 10
289.416439
 20
139.560550
 30
0.0
 10
291.345852
 20
140.359739
 30
0.0
  0
SPLINE
  5
207
100
AcDbEntity
  8
Layer_1
 62
7
100
AcDbSpline
 70
8
 71
3
 72
8
 73
4
 74
0
 40
0
 40
0
 40
0
 40
0
 40
1
 40
1
 40
1
 40
1
 10
291.345852
 20
140.359739
 30
0.0
 10
293.275265
 20
141.158928
 30
0.0
 10
294.533276
 20
143.041674
 30
0.0
 10
294.533276
 20
145.130056
 30
0.0
  0
SPLINE
  5
208
100
AcDbEntity
  8
Layer_1
 62
7
100
AcDbSpline
 70
8
 71
3
 72
8
 73
4
 74
0
 40
0
 40
0
 40
0
 40
0
 40
1
 40
1
 40
1
 40
1
 10
294.533276
 20
145.130056
 30
0.0
 10
294.533276
 20
146.499462
 30
0.0
 10
293.989281
 20
147.812781
 30
0.0
 10
293.020965
 20
148.781098
 30
0.0
  0
SPLINE
  5
209
100
AcDbEntity
  8
Layer_1
 62
7
100
AcDbSpline
 70
8
 71
3
 72
8
 73
4
 74
0
 40
0
 40
0
 40
0
 40
0
 40
1
 40
1
 40
1
 40
1
 10
293.020965
 20
148.781098
 30
0.0
 10
292.052648
 20
149.749415
 30
0.0
 10
290.739329
 20
150.293409
 30
0.0
 10
289.369922
 20
150.293409
 30
0.0
  0
LWPOLYLINE
  5
20a
100
AcDbEntity
  8
Layer_1
 62
7
100
AcDbPolyline
 90
1
 70
1
 10
131.870536
 20
150.293414
 30
0.0
  0
SPLINE
  5
20b
100
AcDbEntity
  8
Layer_1
 62
7
100
AcDbSpline
 70
8
 71
3
 72
8
 73
4
 74
0
 40
0
 40
0
 40
0
 40
0
 40
1
 40
1
 40
1
 40
1
 10
304.119890
 20
150.293409
 30
0.0
 10
302.031509
 20
150.293409
 30
0.0
 10
300.148763
 20
149.035398
 30
0.0
 10
299.349573
 20
147.105985
 30
0.0
  0
SPLINE
  5
20c
100
AcDbEntity
  8
Layer_1
 62
7
100
AcDbSpline
 70
8
 71
3
 72
8
 73
4
 74
0
 40
0
 40
0
 40
0
 40
0
 40
1
 40
1
 40
1
 40
1
 10
299.349573
 20
147.105985
 30
0.0
 10
298.550384
 20
145.176572
 30
0.0
 10
298.992139
 20
142.955722
 30
0.0
 10
300.468848
 20
141.479013
 30
0.0
  0
SPLINE
  5
20d
100
AcDbEntity
  8
Layer_1
 62
7
100
AcDbSpline
 70
8
 71
3
 72
8
 73
4
 74
0
 40
0
 40
0
 40
0
 40
0
 40
1
 40
1
 40
1
 40
1
 10
300.468848
 20
141.479013
 30
0.0
 10
301.945557
 20
140.002304
 30
0.0
 10
304.166407
 20
139.560550
 30
0.0
 10
306.095820
 20
140.359739
 30
0.0
  0
SPLINE
  5
20e
100
AcDbEntity
  8
Layer_1
 62
7
100
AcDbSpline
 70
8
 71
3
 72
8
 73
4
 74
0
 40
0
 40
0
 40
0
 40
0
 40
1
 40
1
 40
1
 40
1
 10
306.095820
 20
140.359739
 30
0.0
 10
308.025233
 20
141.158928
 30
0.0
 10
309.283244
 20
143.041674
 30
0.0
 10
309.283244
 20
145.130056
 30
0.0
  0
SPLINE
  5
20f
100
AcDbEntity
  8
Layer_1
 62
7
100
AcDbSpline
 70
8
 71
3
 72
8
 73
4
 74
0
 40
0
 40
0
 40
0
 40
0
 40
1
 40
1
 40
1
 40
1
 10
309.283244
 20
145.130056
 30
0.0
 10
309.283244
 20
146.499462
 30
0.0
 10
308.739249
 20
147.812781
 30
0.0
 10
307.770933
 20
148.781098
 30
0.0
  0
SPLINE
  5
210
100
AcDbEntity
  8
Layer_1
 62
7
100
AcDbSpline
 70
8
 71
3
 72
8
 73
4
 74
0
 40
0
 40
0
 40
0
 40
0
 40
1
 40
1
 40
1
 40
1
 10
307.770933
 20
148.781098
 30
0.0
 10
306.802616
 20
149.749415
 30
0.0
 10
305.489297
 20
150.293409
 30
0.0
 10
304.119890
 20
150.293409
 30
0.0
  0
LWPOLYLINE
  5
211
100
AcDbEntity
  8
Layer_1
 62
7
100
AcDbPolyline
 90
1
 70
1
 10
289.369922
 20
150.293409
 30
0.0
  0
SPLINE
  5
212
100
AcDbEntity
  8
Layer_1
 62
7
100
AcDbSpline
 70
8
 71
3
 72
8
 73
4
 74
0
 40
0
 40
0
 40
0
 40
0
 40
1
 40
1
 40
1
 40
1
 10
215.783430
 20
238.629885
 30
0.0
 10
215.783430
 20
240.718267
 30
0.0
 10
214.525419
 20
242.601013
 30
0.0
 10
212.596006
 20
243.400202
 30
0.0
  0
SPLINE
  5
213
100
AcDbEntity
  8
Layer_1
 62
7
100
AcDbSpline
 70
8
 71
3
 72
8
 73
4
 74
0
 40
0
 40
0
 40
0
 40
0
 40
1
 40
1
 40
1
 40
1
 10
212.596006
 20
243.400202
 30
0.0
 10
210.666593
 20
244.199391
 30
0.0
 10
208.445742
 20
243.757636
 30
0.0
 10
206.969034
 20
242.280928
 30
0.0
  0
SPLINE
  5
214
100
AcDbEntity
  8
Layer_1
 62
7
100
AcDbSpline
 70
8
 71
3
 72
8
 73
4
 74
0
 40
0
 40
0
 40
0
 40
0
 40
1
 40
1
 40
1
 40
1
 10
206.969034
 20
242.280928
 30
0.0
 10
205.492325
 20
240.804219
 30
0.0
 10
205.050570
 20
238.583368
 30
0.0
 10
205.849759
 20
236.653955
 30
0.0
  0
SPLINE
  5
215
100
AcDbEntity
  8
Layer_1
 62
7
100
AcDbSpline
 70
8
 71
3
 72
8
 73
4
 74
0
 40
0
 40
0
 40
0
 40
0
 40
1
 40
1
 40
1
 40
1
 10
205.849759
 20
236.653955
 30
0.0
 10
206.648948
 20
234.724542
 30
0.0
 10
208.531694
 20
233.466531
 30
0.0
 10
210.620076
 20
233.466531
 30
0.0
  0
SPLINE
  5
216
100
AcDbEntity
  8
Layer_1
 62
7
100
AcDbSpline
 70
8
 71
3
 72
8
 73
4
 74
0
 40
0
 40
0
 40
0
 40
0
 40
1
 40
1
 40
1
 40
1
 10
210.620076
 20
233.466531
 30
0.0
 10
211.989482
 20
233.466531
 30
0.0
 10
213.302802
 20
234.010526
 30
0.0
 10
214.271118
 20
234.978843
 30
0.0
  0
SPLINE
  5
217
100
AcDbEntity
  8
Layer_1
 62
7
100
AcDbSpline
 70
8
 71
3
 72
8
 73
4
 74
0
 40
0
 40
0
 40
0
 40
0
 40
1
 40
1
 40
1
 40
1
 10
214.271118
 20
234.978843
 30
0.0
 10
215.239435
 20
235.947159
 30
0.0
 10
215.783430
 20
237.260479
 30
0.0
 10
215.783430
 20
238.629885
 30
0.0
  0
LWPOLYLINE
  5
218
100
AcDbEntity
  8
Layer_1
 62
7
100
AcDbPolyline
 90
1
 70
1
 10
304.119890
 20
150.293409
 30
0.0
  0
SPLINE
  5
219
100
AcDbEntity
  8
Layer_1
 62
7
100
AcDbSpline
 70
8
 71
3
 72
8
 73
4
 74
0
 40
0
 40
0
 40
0
 40
0
 40
1
 40
1
 40
1
 40
1
 10
215.783430
 20
223.879917
 30
0.0
 10
215.783430
 20
225.968299
 30
0.0
 10
214.525419
 20
227.851045
 30
0.0
 10
212.596006
 20
228.650234
 30
0.0
  0
SPLINE
  5
21a
100
AcDbEntity
  8
Layer_1
 62
7
100
AcDbSpline
 70
8
 71
3
 72
8
 73
4
 74
0
 40
0
 40
0
 40
0
 40
0
 40
1
 40
1
 40
1
 40
1
 10
212.596006
 20
228.650234
 30
0.0
 10
210.666593
 20
229.449423
 30
0.0
 10
208.445742
 20
229.007669
 30
0.0
 10
206.969034
 20
227.530960
 30
0.0
  0
SPLINE
  5
21b
100
AcDbEntity
  8
Layer_1
 62
7
100
AcDbSpline
 70
8
 71
3
 72
8
 73
4
 74
0
 40
0
 40
0
 40
0
 40
0
 40
1
 40
1
 40
1
 40
1
 10
206.969034
 20
227.530960
 30
0.0
 10
205.492325
 20
226.054251
 30
0.0
 10
205.050570
 20
223.833400
 30
0.0
 10
205.849759
 20
221.903987
 30
0.0
  0
SPLINE
  5
21c
100
AcDbEntity
  8
Layer_1
 62
7
100
AcDbSpline
 70
8
 71
3
 72
8
 73
4
 74
0
 40
0
 40
0
 40
0
 40
0
 40
1
 40
1
 40
1
 40
1
 10
205.849759
 20
221.903987
 30
0.0
 10
206.648948
 20
219.974574
 30
0.0
 10
208.531694
 20
218.716564
 30
0.0
 10
210.620076
 20
218.716564
 30
0.0
  0
SPLINE
  5
21d
100
AcDbEntity
  8
Layer_1
 62
7
100
AcDbSpline
 70
8
 71
3
 72
8
 73
4
 74
0
 40
0
 40
0
 40
0
 40
0
 40
1
 40
1
 40
1
 40
1
 10
210.620076
 20
218.716564
 30
0.0
 10
211.989482
 20
218.716564
 30
0.0
 10
213.302802
 20
219.260558
 30
0.0
 10
214.271118
 20
220.228875
 30
0.0
  0
SPLINE
  5
21e
100
AcDbEntity
  8
Layer_1
 62
7
100
AcDbSpline
 70
8
 71
3
 72
8
 73
4
 74
0
 40
0
 40
0
 40
0
 40
0
 40
1
 40
1
 40
1
 40
1
 10
214.271118
 20
220.228875
 30
0.0
 10
215.239435
 20
221.197192
 30
0.0
 10
215.783430
 20
222.510511
 30
0.0
 10
215.783430
 20
223.879917
 30
0.0
  0
LWPOLYLINE
  5
21f
100
AcDbEntity
  8
Layer_1
 62
7
100
AcDbPolyline
 90
1
 70
1
 10
215.783430
 20
238.629885
 30
0.0
  0
SPLINE
  5
220
100
AcDbEntity
  8
Layer_1
 62
7
100
AcDbSpline
 70
8
 71
3
 72
8
 73
4
 74
0
 40
0
 40
0
 40
0
 40
0
 40
1
 40
1
 40
1
 40
1
 10
215.783430
 20
66.380531
 30
0.0
 10
215.783430
 20
68.468913
 30
0.0
 10
214.525419
 20
70.351659
 30
0.0
 10
212.596006
 20
71.150848
 30
0.0
  0
SPLINE
  5
221
100
AcDbEntity
  8
Layer_1
 62
7
100
AcDbSpline
 70
8
 71
3
 72
8
 73
4
 74
0
 40
0
 40
0
 40
0
 40
0
 40
1
 40
1
 40
1
 40
1
 10
212.596006
 20
71.150848
 30
0.0
 10
210.666593
 20
71.950037
 30
0.0
 10
208.445742
 20
71.508282
 30
0.0
 10
206.969034
 20
70.031574
 30
0.0
  0
SPLINE
  5
222
100
AcDbEntity
  8
Layer_1
 62
7
100
AcDbSpline
 70
8
 71
3
 72
8
 73
4
 74
0
 40
0
 40
0
 40
0
 40
0
 40
1
 40
1
 40
1
 40
1
 10
206.969034
 20
70.031574
 30
0.0
 10
205.492325
 20
68.554865
 30
0.0
 10
205.050570
 20
66.334014
 30
0.0
 10
205.849759
 20
64.404601
 30
0.0
  0
SPLINE
  5
223
100
AcDbEntity
  8
Layer_1
 62
7
100
AcDbSpline
 70
8
 71
3
 72
8
 73
4
 74
0
 40
0
 40
0
 40
0
 40
0
 40
1
 40
1
 40
1
 40
1
 10
205.849759
 20
64.404601
 30
0.0
 10
206.648948
 20
62.475188
 30
0.0
 10
208.531694
 20
61.217178
 30
0.0
 10
210.620076
 20
61.217178
 30
0.0
  0
SPLINE
  5
224
100
AcDbEntity
  8
Layer_1
 62
7
100
AcDbSpline
 70
8
 71
3
 72
8
 73
4
 74
0
 40
0
 40
0
 40
0
 40
0
 40
1
 40
1
 40
1
 40
1
 10
210.620076
 20
61.217178
 30
0.0
 10
211.989482
 20
61.217178
 30
0.0
 10
213.302802
 20
61.761172
 30
0.0
 10
214.271118
 20
62.729489
 30
0.0
  0
SPLINE
  5
225
100
AcDbEntity
  8
Layer_1
 62
7
100
AcDbSpline
 70
8
 71
3
 72
8
 73
4
 74
0
 40
0
 40
0
 40
0
 40
0
 40
1
 40
1
 40
1
 40
1
 10
214.271118
 20
62.729489
 30
0.0
 10
215.239435
 20
63.697806
 30
0.0
 10
215.783430
 20
65.011125
 30
0.0
 10
215.783430
 20
66.380531
 30
0.0
  0
LWPOLYLINE
  5
226
100
AcDbEntity
  8
Layer_1
 62
7
100
AcDbPolyline
 90
1
 70
1
 10
215.783430
 20
223.879917
 30
0.0
  0
SPLINE
  5
227
100
AcDbEntity
  8
Layer_1
 62
7
100
AcDbSpline
 70
8
 71
3
 72
8
 73
4
 74
0
 40
0
 40
0
 40
0
 40
0
 40
1
 40
1
 40
1
 40
1
 10
215.783430
 20
51.630564
 30
0.0
 10
215.783430
 20
53.718945
 30
0.0
 10
214.525419
 20
55.601691
 30
0.0
 10
212.596006
 20
56.400880
 30
0.0
  0
SPLINE
  5
228
100
AcDbEntity
  8
Layer_1
 62
7
100
AcDbSpline
 70
8
 71
3
 72
8
 73
4
 74
0
 40
0
 40
0
 40
0
 40
0
 40
1
 40
1
 40
1
 40
1
 10
212.596006
 20
56.400880
 30
0.0
 10
210.666593
 20
57.200069
 30
0.0
 10
208.445742
 20
56.758315
 30
0.0
 10
206.969034
 20
55.281606
 30
0.0
  0
SPLINE
  5
229
100
AcDbEntity
  8
Layer_1
 62
7
100
AcDbSpline
 70
8
 71
3
 72
8
 73
4
 74
0
 40
0
 40
0
 40
0
 40
0
 40
1
 40
1
 40
1
 40
1
 10
206.969034
 20
55.281606
 30
0.0
 10
205.492325
 20
53.804897
 30
0.0
 10
205.050570
 20
51.584047
 30
0.0
 10
205.849759
 20
49.654634
 30
0.0
  0
SPLINE
  5
22a
100
AcDbEntity
  8
Layer_1
 62
7
100
AcDbSpline
 70
8
 71
3
 72
8
 73
4
 74
0
 40
0
 40
0
 40
0
 40
0
 40
1
 40
1
 40
1
 40
1
 10
205.849759
 20
49.654634
 30
0.0
 10
206.648948
 20
47.725221
 30
0.0
 10
208.531694
 20
46.467210
 30
0.0
 10
210.620076
 20
46.467210
 30
0.0
  0
SPLINE
  5
22b
100
AcDbEntity
  8
Layer_1
 62
7
100
AcDbSpline
 70
8
 71
3
 72
8
 73
4
 74
0
 40
0
 40
0
 40
0
 40
0
 40
1
 40
1
 40
1
 40
1
 10
210.620076
 20
46.467210
 30
0.0
 10
211.989482
 20
46.467210
 30
0.0
 10
213.302802
 20
47.011204
 30
0.0
 10
214.271118
 20
47.979521
 30
0.0
  0
SPLINE
  5
22c
100
AcDbEntity
  8
Layer_1
 62
7
100
AcDbSpline
 70
8
 71
3
 72
8
 73
4
 74
0
 40
0
 40
0
 40
0
 40
0
 40
1
 40
1
 40
1
 40
1
 10
214.271118
 20
47.979521
 30
0.0
 10
215.239435
 20
48.947838
 30
0.0
 10
215.783430
 20
50.261157
 30
0.0
 10
215.783430
 20
51.630564
 30
0.0
  0
LWPOLYLINE
  5
22d
100
AcDbEntity
  8
Layer_1
 62
7
100
AcDbPolyline
 90
1
 70
1
 10
215.783430
 20
66.380531
 30
0.0
  0
SPLINE
  5
22e
100
AcDbEntity
  8
Layer_1
 62
7
100
AcDbSpline
 70
8
 71
3
 72
8
 73
4
 74
0
 40
0
 40
0
 40
0
 40
0
 40
1
 40
1
 40
1
 40
1
 10
144.506216
 20
213.866478
 30
0.0
 10
143.445599
 20
213.866478
 30
0.0
 10
142.489418
 20
213.227578
 30
0.0
 10
142.083537
 20
212.247696
 30
0.0
  0
SPLINE
  5
22f
100
AcDbEntity
  8
Layer_1
 62
7
100
AcDbSpline
 70
8
 71
3
 72
8
 73
4
 74
0
 40
0
 40
0
 40
0
 40
0
 40
1
 40
1
 40
1
 40
1
 10
142.083537
 20
212.247696
 30
0.0
 10
141.677657
 20
211.267814
 30
0.0
 10
141.902009
 20
210.139921
 30
0.0
 10
142.651978
 20
209.389952
 30
0.0
  0
SPLINE
  5
230
100
AcDbEntity
  8
Layer_1
 62
7
100
AcDbSpline
 70
8
 71
3
 72
8
 73
4
 74
0
 40
0
 40
0
 40
0
 40
0
 40
1
 40
1
 40
1
 40
1
 10
142.651978
 20
209.389952
 30
0.0
 10
143.401947
 20
208.639983
 30
0.0
 10
144.529840
 20
208.415631
 30
0.0
 10
145.509722
 20
208.821511
 30
0.0
  0
SPLINE
  5
231
100
AcDbEntity
  8
Layer_1
 62
7
100
AcDbSpline
 70
8
 71
3
 72
8
 73
4
 74
0
 40
0
 40
0
 40
0
 40
0
 40
1
 40
1
 40
1
 40
1
 10
145.509722
 20
208.821511
 30
0.0
 10
146.489605
 20
209.227392
 30
0.0
 10
147.128505
 20
210.183573
 30
0.0
 10
147.128505
 20
211.244190
 30
0.0
  0
SPLINE
  5
232
100
AcDbEntity
  8
Layer_1
 62
7
100
AcDbSpline
 70
8
 71
3
 72
8
 73
4
 74
0
 40
0
 40
0
 40
0
 40
0
 40
1
 40
1
 40
1
 40
1
 10
147.128505
 20
211.244190
 30
0.0
 10
147.128505
 20
211.939664
 30
0.0
 10
146.852229
 20
212.606653
 30
0.0
 10
146.360454
 20
213.098428
 30
0.0
  0
SPLINE
  5
233
100
AcDbEntity
  8
Layer_1
 62
7
100
AcDbSpline
 70
8
 71
3
 72
8
 73
4
 74
0
 40
0
 40
0
 40
0
 40
0
 40
1
 40
1
 40
1
 40
1
 10
146.360454
 20
213.098428
 30
0.0
 10
145.868680
 20
213.590202
 30
0.0
 10
145.201690
 20
213.866478
 30
0.0
 10
144.506216
 20
213.866478
 30
0.0
  0
LWPOLYLINE
  5
234
100
AcDbEntity
  8
Layer_1
 62
7
100
AcDbPolyline
 90
1
 70
1
 10
215.783430
 20
51.630564
 30
0.0
  0
SPLINE
  5
235
100
AcDbEntity
  8
Layer_1
 62
7
100
AcDbSpline
 70
8
 71
3
 72
8
 73
4
 74
0
 40
0
 40
0
 40
0
 40
0
 40
1
 40
1
 40
1
 40
1
 10
154.935686
 20
203.436879
 30
0.0
 10
153.875070
 20
203.436879
 30
0.0
 10
152.918888
 20
202.797978
 30
0.0
 10
152.513008
 20
201.818096
 30
0.0
  0
SPLINE
  5
236
100
AcDbEntity
  8
Layer_1
 62
7
100
AcDbSpline
 70
8
 71
3
 72
8
 73
4
 74
0
 40
0
 40
0
 40
0
 40
0
 40
1
 40
1
 40
1
 40
1
 10
152.513008
 20
201.818096
 30
0.0
 10
152.107127
 20
200.838214
 30
0.0
 10
152.331479
 20
199.710321
 30
0.0
 10
153.081448
 20
198.960352
 30
0.0
  0
SPLINE
  5
237
100
AcDbEntity
  8
Layer_1
 62
7
100
AcDbSpline
 70
8
 71
3
 72
8
 73
4
 74
0
 40
0
 40
0
 40
0
 40
0
 40
1
 40
1
 40
1
 40
1
 10
153.081448
 20
198.960352
 30
0.0
 10
153.831418
 20
198.210383
 30
0.0
 10
154.959311
 20
197.986031
 30
0.0
 10
155.939193
 20
198.391911
 30
0.0
  0
SPLINE
  5
238
100
AcDbEntity
  8
Layer_1
 62
7
100
AcDbSpline
 70
8
 71
3
 72
8
 73
4
 74
0
 40
0
 40
0
 40
0
 40
0
 40
1
 40
1
 40
1
 40
1
 10
155.939193
 20
198.391911
 30
0.0
 10
156.919075
 20
198.797792
 30
0.0
 10
157.557975
 20
199.753973
 30
0.0
 10
157.557975
 20
200.814590
 30
0.0
  0
SPLINE
  5
239
100
AcDbEntity
  8
Layer_1
 62
7
100
AcDbSpline
 70
8
 71
3
 72
8
 73
4
 74
0
 40
0
 40
0
 40
0
 40
0
 40
1
 40
1
 40
1
 40
1
 10
157.557975
 20
200.814590
 30
0.0
 10
157.557975
 20
201.510064
 30
0.0
 10
157.281699
 20
202.177054
 30
0.0
 10
156.789924
 20
202.668828
 30
0.0
  0
SPLINE
  5
23a
100
AcDbEntity
  8
Layer_1
 62
7
100
AcDbSpline
 70
8
 71
3
 72
8
 73
4
 74
0
 40
0
 40
0
 40
0
 40
0
 40
1
 40
1
 40
1
 40
1
 10
156.789924
 20
202.668828
 30
0.0
 10
156.298150
 20
203.160603
 30
0.0
 10
155.631161
 20
203.436879
 30
0.0
 10
154.935686
 20
203.436879
 30
0.0
  0
LWPOLYLINE
  5
23b
100
AcDbEntity
  8
Layer_1
 62
7
100
AcDbPolyline
 90
1
 70
1
 10
144.506216
 20
213.866478
 30
0.0
  0
SPLINE
  5
23c
100
AcDbEntity
  8
Layer_1
 62
7
100
AcDbSpline
 70
8
 71
3
 72
8
 73
4
 74
0
 40
0
 40
0
 40
0
 40
0
 40
1
 40
1
 40
1
 40
1
 10
276.733573
 20
213.866478
 30
0.0
 10
275.672957
 20
213.866478
 30
0.0
 10
274.716775
 20
213.227578
 30
0.0
 10
274.310895
 20
212.247696
 30
0.0
  0
SPLINE
  5
23d
100
AcDbEntity
  8
Layer_1
 62
7
100
AcDbSpline
 70
8
 71
3
 72
8
 73
4
 74
0
 40
0
 40
0
 40
0
 40
0
 40
1
 40
1
 40
1
 40
1
 10
274.310895
 20
212.247696
 30
0.0
 10
273.905014
 20
211.267814
 30
0.0
 10
274.129366
 20
210.139921
 30
0.0
 10
274.879335
 20
209.389952
 30
0.0
  0
SPLINE
  5
23e
100
AcDbEntity
  8
Layer_1
 62
7
100
AcDbSpline
 70
8
 71
3
 72
8
 73
4
 74
0
 40
0
 40
0
 40
0
 40
0
 40
1
 40
1
 40
1
 40
1
 10
274.879335
 20
209.389952
 30
0.0
 10
275.629305
 20
208.639983
 30
0.0
 10
276.757198
 20
208.415631
 30
0.0
 10
277.737080
 20
208.821511
 30
0.0
  0
SPLINE
  5
23f
100
AcDbEntity
  8
Layer_1
 62
7
100
AcDbSpline
 70
8
 71
3
 72
8
 73
4
 74
0
 40
0
 40
0
 40
0
 40
0
 40
1
 40
1
 40
1
 40
1
 10
277.737080
 20
208.821511
 30
0.0
 10
278.716962
 20
209.227392
 30
0.0
 10
279.355862
 20
210.183573
 30
0.0
 10
279.355862
 20
211.244190
 30
0.0
  0
SPLINE
  5
240
100
AcDbEntity
  8
Layer_1
 62
7
100
AcDbSpline
 70
8
 71
3
 72
8
 73
4
 74
0
 40
0
 40
0
 40
0
 40
0
 40
1
 40
1
 40
1
 40
1
 10
279.355862
 20
211.244190
 30
0.0
 10
279.355862
 20
211.939664
 30
0.0
 10
279.079586
 20
212.606653
 30
0.0
 10
278.587811
 20
213.098428
 30
0.0
  0
SPLINE
  5
241
100
AcDbEntity
  8
Layer_1
 62
7
100
AcDbSpline
 70
8
 71
3
 72
8
 73
4
 74
0
 40
0
 40
0
 40
0
 40
0
 40
1
 40
1
 40
1
 40
1
 10
278.587811
 20
213.098428
 30
0.0
 10
278.096037
 20
213.590202
 30
0.0
 10
277.429047
 20
213.866478
 30
0.0
 10
276.733573
 20
213.866478
 30
0.0
  0
LWPOLYLINE
  5
242
100
AcDbEntity
  8
Layer_1
 62
7
100
AcDbPolyline
 90
1
 70
1
 10
154.935686
 20
203.436879
 30
0.0
  0
SPLINE
  5
243
100
AcDbEntity
  8
Layer_1
 62
7
100
AcDbSpline
 70
8
 71
3
 72
8
 73
4
 74
0
 40
0
 40
0
 40
0
 40
0
 40
1
 40
1
 40
1
 40
1
 10
266.304770
 20
203.436879
 30
0.0
 10
265.244153
 20
203.436879
 30
0.0
 10
264.287972
 20
202.797978
 30
0.0
 10
263.882091
 20
201.818096
 30
0.0
  0
SPLINE
  5
244
100
AcDbEntity
  8
Layer_1
 62
7
100
AcDbSpline
 70
8
 71
3
 72
8
 73
4
 74
0
 40
0
 40
0
 40
0
 40
0
 40
1
 40
1
 40
1
 40
1
 10
263.882091
 20
201.818096
 30
0.0
 10
263.476211
 20
200.838214
 30
0.0
 10
263.700563
 20
199.710321
 30
0.0
 10
264.450532
 20
198.960352
 30
0.0
  0
SPLINE
  5
245
100
AcDbEntity
  8
Layer_1
 62
7
100
AcDbSpline
 70
8
 71
3
 72
8
 73
4
 74
0
 40
0
 40
0
 40
0
 40
0
 40
1
 40
1
 40
1
 40
1
 10
264.450532
 20
198.960352
 30
0.0
 10
265.200501
 20
198.210383
 30
0.0
 10
266.328394
 20
197.986031
 30
0.0
 10
267.308276
 20
198.391911
 30
0.0
  0
SPLINE
  5
246
100
AcDbEntity
  8
Layer_1
 62
7
100
AcDbSpline
 70
8
 71
3
 72
8
 73
4
 74
0
 40
0
 40
0
 40
0
 40
0
 40
1
 40
1
 40
1
 40
1
 10
267.308276
 20
198.391911
 30
0.0
 10
268.288158
 20
198.797792
 30
0.0
 10
268.927058
 20
199.753973
 30
0.0
 10
268.927058
 20
200.814590
 30
0.0
  0
SPLINE
  5
247
100
AcDbEntity
  8
Layer_1
 62
7
100
AcDbSpline
 70
8
 71
3
 72
8
 73
4
 74
0
 40
0
 40
0
 40
0
 40
0
 40
1
 40
1
 40
1
 40
1
 10
268.927058
 20
200.814590
 30
0.0
 10
268.927058
 20
201.510064
 30
0.0
 10
268.650782
 20
202.177054
 30
0.0
 10
268.159008
 20
202.668828
 30
0.0
  0
SPLINE
  5
248
100
AcDbEntity
  8
Layer_1
 62
7
100
AcDbSpline
 70
8
 71
3
 72
8
 73
4
 74
0
 40
0
 40
0
 40
0
 40
0
 40
1
 40
1
 40
1
 40
1
 10
268.159008
 20
202.668828
 30
0.0
 10
267.667233
 20
203.160603
 30
0.0
 10
267.000244
 20
203.436879
 30
0.0
 10
266.304770
 20
203.436879
 30
0.0
  0
LWPOLYLINE
  5
249
100
AcDbEntity
  8
Layer_1
 62
7
100
AcDbPolyline
 90
1
 70
1
 10
276.733573
 20
213.866478
 30
0.0
  0
SPLINE
  5
24a
100
AcDbEntity
  8
Layer_1
 62
7
100
AcDbSpline
 70
8
 71
3
 72
8
 73
4
 74
0
 40
0
 40
0
 40
0
 40
0
 40
1
 40
1
 40
1
 40
1
 10
266.304770
 20
92.068211
 30
0.0
 10
265.244153
 20
92.068211
 30
0.0
 10
264.287972
 20
91.429311
 30
0.0
 10
263.882091
 20
90.449428
 30
0.0
  0
SPLINE
  5
24b
100
AcDbEntity
  8
Layer_1
 62
7
100
AcDbSpline
 70
8
 71
3
 72
8
 73
4
 74
0
 40
0
 40
0
 40
0
 40
0
 40
1
 40
1
 40
1
 40
1
 10
263.882091
 20
90.449428
 30
0.0
 10
263.476211
 20
89.469546
 30
0.0
 10
263.700563
 20
88.341653
 30
0.0
 10
264.450532
 20
87.591684
 30
0.0
  0
SPLINE
  5
24c
100
AcDbEntity
  8
Layer_1
 62
7
100
AcDbSpline
 70
8
 71
3
 72
8
 73
4
 74
0
 40
0
 40
0
 40
0
 40
0
 40
1
 40
1
 40
1
 40
1
 10
264.450532
 20
87.591684
 30
0.0
 10
265.200501
 20
86.841715
 30
0.0
 10
266.328394
 20
86.617363
 30
0.0
 10
267.308276
 20
87.023243
 30
0.0
  0
SPLINE
  5
24d
100
AcDbEntity
  8
Layer_1
 62
7
100
AcDbSpline
 70
8
 71
3
 72
8
 73
4
 74
0
 40
0
 40
0
 40
0
 40
0
 40
1
 40
1
 40
1
 40
1
 10
267.308276
 20
87.023243
 30
0.0
 10
268.288158
 20
87.429124
 30
0.0
 10
268.927058
 20
88.385305
 30
0.0
 10
268.927058
 20
89.445922
 30
0.0
  0
SPLINE
  5
24e
100
AcDbEntity
  8
Layer_1
 62
7
100
AcDbSpline
 70
8
 71
3
 72
8
 73
4
 74
0
 40
0
 40
0
 40
0
 40
0
 40
1
 40
1
 40
1
 40
1
 10
268.927058
 20
89.445922
 30
0.0
 10
268.927058
 20
90.141396
 30
0.0
 10
268.650782
 20
90.808386
 30
0.0
 10
268.159008
 20
91.300160
 30
0.0
  0
SPLINE
  5
24f
100
AcDbEntity
  8
Layer_1
 62
7
100
AcDbSpline
 70
8
 71
3
 72
8
 73
4
 74
0
 40
0
 40
0
 40
0
 40
0
 40
1
 40
1
 40
1
 40
1
 10
268.159008
 20
91.300160
 30
0.0
 10
267.667233
 20
91.791935
 30
0.0
 10
267.000244
 20
92.068211
 30
0.0
 10
266.304770
 20
92.068211
 30
0.0
  0
LWPOLYLINE
  5
250
100
AcDbEntity
  8
Layer_1
 62
7
100
AcDbPolyline
 90
1
 70
1
 10
266.304770
 20
203.436879
 30
0.0
  0
SPLINE
  5
251
100
AcDbEntity
  8
Layer_1
 62
7
100
AcDbSpline
 70
8
 71
3
 72
8
 73
4
 74
0
 40
0
 40
0
 40
0
 40
0
 40
1
 40
1
 40
1
 40
1
 10
276.734261
 20
81.638375
 30
0.0
 10
275.673645
 20
81.638375
 30
0.0
 10
274.717463
 20
80.999475
 30
0.0
 10
274.311583
 20
80.019593
 30
0.0
  0
SPLINE
  5
252
100
AcDbEntity
  8
Layer_1
 62
7
100
AcDbSpline
 70
8
 71
3
 72
8
 73
4
 74
0
 40
0
 40
0
 40
0
 40
0
 40
1
 40
1
 40
1
 40
1
 10
274.311583
 20
80.019593
 30
0.0
 10
273.905702
 20
79.039711
 30
0.0
 10
274.130054
 20
77.911818
 30
0.0
 10
274.880023
 20
77.161849
 30
0.0
  0
SPLINE
  5
253
100
AcDbEntity
  8
Layer_1
 62
7
100
AcDbSpline
 70
8
 71
3
 72
8
 73
4
 74
0
 40
0
 40
0
 40
0
 40
0
 40
1
 40
1
 40
1
 40
1
 10
274.880023
 20
77.161849
 30
0.0
 10
275.629992
 20
76.411879
 30
0.0
 10
276.757886
 20
76.187528
 30
0.0
 10
277.737768
 20
76.593408
 30
0.0
  0
SPLINE
  5
254
100
AcDbEntity
  8
Layer_1
 62
7
100
AcDbSpline
 70
8
 71
3
 72
8
 73
4
 74
0
 40
0
 40
0
 40
0
 40
0
 40
1
 40
1
 40
1
 40
1
 10
277.737768
 20
76.593408
 30
0.0
 10
278.717650
 20
76.999288
 30
0.0
 10
279.356550
 20
77.955470
 30
0.0
 10
279.356550
 20
79.016087
 30
0.0
  0
SPLINE
  5
255
100
AcDbEntity
  8
Layer_1
 62
7
100
AcDbSpline
 70
8
 71
3
 72
8
 73
4
 74
0
 40
0
 40
0
 40
0
 40
0
 40
1
 40
1
 40
1
 40
1
 10
279.356550
 20
79.016087
 30
0.0
 10
279.356550
 20
79.711561
 30
0.0
 10
279.080274
 20
80.378550
 30
0.0
 10
278.588499
 20
80.870325
 30
0.0
  0
SPLINE
  5
256
100
AcDbEntity
  8
Layer_1
 62
7
100
AcDbSpline
 70
8
 71
3
 72
8
 73
4
 74
0
 40
0
 40
0
 40
0
 40
0
 40
1
 40
1
 40
1
 40
1
 10
278.588499
 20
80.870325
 30
0.0
 10
278.096725
 20
81.362099
 30
0.0
 10
277.429735
 20
81.638375
 30
0.0
 10
276.734261
 20
81.638375
 30
0.0
  0
LWPOLYLINE
  5
257
100
AcDbEntity
  8
Layer_1
 62
7
100
AcDbPolyline
 90
1
 70
1
 10
266.304770
 20
92.068211
 30
0.0
  0
SPLINE
  5
258
100
AcDbEntity
  8
Layer_1
 62
7
100
AcDbSpline
 70
8
 71
3
 72
8
 73
4
 74
0
 40
0
 40
0
 40
0
 40
0
 40
1
 40
1
 40
1
 40
1
 10
154.935686
 20
92.068211
 30
0.0
 10
153.875070
 20
92.068211
 30
0.0
 10
152.918888
 20
91.429311
 30
0.0
 10
152.513008
 20
90.449428
 30
0.0
  0
SPLINE
  5
259
100
AcDbEntity
  8
Layer_1
 62
7
100
AcDbSpline
 70
8
 71
3
 72
8
 73
4
 74
0
 40
0
 40
0
 40
0
 40
0
 40
1
 40
1
 40
1
 40
1
 10
152.513008
 20
90.449428
 30
0.0
 10
152.107127
 20
89.469546
 30
0.0
 10
152.331479
 20
88.341653
 30
0.0
 10
153.081448
 20
87.591684
 30
0.0
  0
SPLINE
  5
25a
100
AcDbEntity
  8
Layer_1
 62
7
100
AcDbSpline
 70
8
 71
3
 72
8
 73
4
 74
0
 40
0
 40
0
 40
0
 40
0
 40
1
 40
1
 40
1
 40
1
 10
153.081448
 20
87.591684
 30
0.0
 10
153.831418
 20
86.841715
 30
0.0
 10
154.959311
 20
86.617363
 30
0.0
 10
155.939193
 20
87.023243
 30
0.0
  0
SPLINE
  5
25b
100
AcDbEntity
  8
Layer_1
 62
7
100
AcDbSpline
 70
8
 71
3
 72
8
 73
4
 74
0
 40
0
 40
0
 40
0
 40
0
 40
1
 40
1
 40
1
 40
1
 10
155.939193
 20
87.023243
 30
0.0
 10
156.919075
 20
87.429124
 30
0.0
 10
157.557975
 20
88.385305
 30
0.0
 10
157.557975
 20
89.445922
 30
0.0
  0
SPLINE
  5
25c
100
AcDbEntity
  8
Layer_1
 62
7
100
AcDbSpline
 70
8
 71
3
 72
8
 73
4
 74
0
 40
0
 40
0
 40
0
 40
0
 40
1
 40
1
 40
1
 40
1
 10
157.557975
 20
89.445922
 30
0.0
 10
157.557975
 20
90.141396
 30
0.0
 10
157.281699
 20
90.808386
 30
0.0
 10
156.789924
 20
91.300160
 30
0.0
  0
SPLINE
  5
25d
100
AcDbEntity
  8
Layer_1
 62
7
100
AcDbSpline
 70
8
 71
3
 72
8
 73
4
 74
0
 40
0
 40
0
 40
0
 40
0
 40
1
 40
1
 40
1
 40
1
 10
156.789924
 20
91.300160
 30
0.0
 10
156.298150
 20
91.791935
 30
0.0
 10
155.631161
 20
92.068211
 30
0.0
 10
154.935686
 20
92.068211
 30
0.0
  0
LWPOLYLINE
  5
25e
100
AcDbEntity
  8
Layer_1
 62
7
100
AcDbPolyline
 90
1
 70
1
 10
276.734261
 20
81.638375
 30
0.0
  0
SPLINE
  5
25f
100
AcDbEntity
  8
Layer_1
 62
7
100
AcDbSpline
 70
8
 71
3
 72
8
 73
4
 74
0
 40
0
 40
0
 40
0
 40
0
 40
1
 40
1
 40
1
 40
1
 10
144.506216
 20
81.638375
 30
0.0
 10
143.445599
 20
81.638375
 30
0.0
 10
142.489418
 20
80.999475
 30
0.0
 10
142.083537
 20
80.019593
 30
0.0
  0
SPLINE
  5
260
100
AcDbEntity
  8
Layer_1
 62
7
100
AcDbSpline
 70
8
 71
3
 72
8
 73
4
 74
0
 40
0
 40
0
 40
0
 40
0
 40
1
 40
1
 40
1
 40
1
 10
142.083537
 20
80.019593
 30
0.0
 10
141.677657
 20
79.039711
 30
0.0
 10
141.902009
 20
77.911818
 30
0.0
 10
142.651978
 20
77.161849
 30
0.0
  0
SPLINE
  5
261
100
AcDbEntity
  8
Layer_1
 62
7
100
AcDbSpline
 70
8
 71
3
 72
8
 73
4
 74
0
 40
0
 40
0
 40
0
 40
0
 40
1
 40
1
 40
1
 40
1
 10
142.651978
 20
77.161849
 30
0.0
 10
143.401947
 20
76.411879
 30
0.0
 10
144.529840
 20
76.187528
 30
0.0
 10
145.509722
 20
76.593408
 30
0.0
  0
SPLINE
  5
262
100
AcDbEntity
  8
Layer_1
 62
7
100
AcDbSpline
 70
8
 71
3
 72
8
 73
4
 74
0
 40
0
 40
0
 40
0
 40
0
 40
1
 40
1
 40
1
 40
1
 10
145.509722
 20
76.593408
 30
0.0
 10
146.489605
 20
76.999288
 30
0.0
 10
147.128505
 20
77.955470
 30
0.0
 10
147.128505
 20
79.016087
 30
0.0
  0
SPLINE
  5
263
100
AcDbEntity
  8
Layer_1
 62
7
100
AcDbSpline
 70
8
 71
3
 72
8
 73
4
 74
0
 40
0
 40
0
 40
0
 40
0
 40
1
 40
1
 40
1
 40
1
 10
147.128505
 20
79.016087
 30
0.0
 10
147.128505
 20
79.711561
 30
0.0
 10
146.852229
 20
80.378550
 30
0.0
 10
146.360454
 20
80.870325
 30
0.0
  0
SPLINE
  5
264
100
AcDbEntity
  8
Layer_1
 62
7
100
AcDbSpline
 70
8
 71
3
 72
8
 73
4
 74
0
 40
0
 40
0
 40
0
 40
0
 40
1
 40
1
 40
1
 40
1
 10
146.360454
 20
80.870325
 30
0.0
 10
145.868680
 20
81.362099
 30
0.0
 10
145.201690
 20
81.638375
 30
0.0
 10
144.506216
 20
81.638375
 30
0.0
  0
LWPOLYLINE
  5
265
100
AcDbEntity
  8
Layer_1
 62
7
100
AcDbPolyline
 90
1
 70
1
 10
154.935686
 20
92.068211
 30
0.0
  0
SPLINE
  5
266
100
AcDbEntity
  8
Layer_1
 62
7
100
AcDbSpline
 70
8
 71
3
 72
8
 73
4
 74
0
 40
0
 40
0
 40
0
 40
0
 40
1
 40
1
 40
1
 40
1
 10
78.922464
 20
183.456256
 30
0.0
 10
78.059823
 20
183.456256
 30
0.0
 10
77.282123
 20
182.936613
 30
0.0
 10
76.952005
 20
182.139637
 30
0.0
  0
SPLINE
  5
267
100
AcDbEntity
  8
Layer_1
 62
7
100
AcDbSpline
 70
8
 71
3
 72
8
 73
4
 74
0
 40
0
 40
0
 40
0
 40
0
 40
1
 40
1
 40
1
 40
1
 10
76.952005
 20
182.139637
 30
0.0
 10
76.621886
 20
181.342660
 30
0.0
 10
76.804361
 20
180.425301
 30
0.0
 10
77.414340
 20
179.815321
 30
0.0
  0
SPLINE
  5
268
100
AcDbEntity
  8
Layer_1
 62
7
100
AcDbSpline
 70
8
 71
3
 72
8
 73
4
 74
0
 40
0
 40
0
 40
0
 40
0
 40
1
 40
1
 40
1
 40
1
 10
77.414340
 20
179.815321
 30
0.0
 10
78.024319
 20
179.205342
 30
0.0
 10
78.941679
 20
179.022868
 30
0.0
 10
79.738655
 20
179.352986
 30
0.0
  0
SPLINE
  5
269
100
AcDbEntity
  8
Layer_1
 62
7
100
AcDbSpline
 70
8
 71
3
 72
8
 73
4
 74
0
 40
0
 40
0
 40
0
 40
0
 40
1
 40
1
 40
1
 40
1
 10
79.738655
 20
179.352986
 30
0.0
 10
80.535632
 20
179.683105
 30
0.0
 10
81.055274
 20
180.460805
 30
0.0
 10
81.055274
 20
181.323446
 30
0.0
  0
SPLINE
  5
26a
100
AcDbEntity
  8
Layer_1
 62
7
100
AcDbSpline
 70
8
 71
3
 72
8
 73
4
 74
0
 40
0
 40
0
 40
0
 40
0
 40
1
 40
1
 40
1
 40
1
 10
81.055274
 20
181.323446
 30
0.0
 10
81.055274
 20
182.501364
 30
0.0
 10
80.100383
 20
183.456256
 30
0.0
 10
78.922464
 20
183.456256
 30
0.0
  0
LWPOLYLINE
  5
26b
100
AcDbEntity
  8
Layer_1
 62
7
100
AcDbPolyline
 90
1
 70
1
 10
144.506216
 20
81.638375
 30
0.0
  0
SPLINE
  5
26c
100
AcDbEntity
  8
Layer_1
 62
7
100
AcDbSpline
 70
8
 71
3
 72
8
 73
4
 74
0
 40
0
 40
0
 40
0
 40
0
 40
1
 40
1
 40
1
 40
1
 10
94.922322
 20
183.456256
 30
0.0
 10
94.059681
 20
183.456256
 30
0.0
 10
93.281981
 20
182.936613
 30
0.0
 10
92.951863
 20
182.139637
 30
0.0
  0
SPLINE
  5
26d
100
AcDbEntity
  8
Layer_1
 62
7
100
AcDbSpline
 70
8
 71
3
 72
8
 73
4
 74
0
 40
0
 40
0
 40
0
 40
0
 40
1
 40
1
 40
1
 40
1
 10
92.951863
 20
182.139637
 30
0.0
 10
92.621744
 20
181.342660
 30
0.0
 10
92.804218
 20
180.425301
 30
0.0
 10
93.414198
 20
179.815321
 30
0.0
  0
SPLINE
  5
26e
100
AcDbEntity
  8
Layer_1
 62
7
100
AcDbSpline
 70
8
 71
3
 72
8
 73
4
 74
0
 40
0
 40
0
 40
0
 40
0
 40
1
 40
1
 40
1
 40
1
 10
93.414198
 20
179.815321
 30
0.0
 10
94.024177
 20
179.205342
 30
0.0
 10
94.941537
 20
179.022868
 30
0.0
 10
95.738513
 20
179.352986
 30
0.0
  0
SPLINE
  5
26f
100
AcDbEntity
  8
Layer_1
 62
7
100
AcDbSpline
 70
8
 71
3
 72
8
 73
4
 74
0
 40
0
 40
0
 40
0
 40
0
 40
1
 40
1
 40
1
 40
1
 10
95.738513
 20
179.352986
 30
0.0
 10
96.535490
 20
179.683105
 30
0.0
 10
97.055132
 20
180.460805
 30
0.0
 10
97.055132
 20
181.323446
 30
0.0
  0
SPLINE
  5
270
100
AcDbEntity
  8
Layer_1
 62
7
100
AcDbSpline
 70
8
 71
3
 72
8
 73
4
 74
0
 40
0
 40
0
 40
0
 40
0
 40
1
 40
1
 40
1
 40
1
 10
97.055132
 20
181.323446
 30
0.0
 10
97.055132
 20
181.889102
 30
0.0
 10
96.830426
 20
182.431591
 30
0.0
 10
96.430446
 20
182.831570
 30
0.0
  0
SPLINE
  5
271
100
AcDbEntity
  8
Layer_1
 62
7
100
AcDbSpline
 70
8
 71
3
 72
8
 73
4
 74
0
 40
0
 40
0
 40
0
 40
0
 40
1
 40
1
 40
1
 40
1
 10
96.430446
 20
182.831570
 30
0.0
 10
96.030467
 20
183.231549
 30
0.0
 10
95.487978
 20
183.456256
 30
0.0
 10
94.922322
 20
183.456256
 30
0.0
  0
LWPOLYLINE
  5
272
100
AcDbEntity
  8
Layer_1
 62
7
100
AcDbPolyline
 90
1
 70
1
 10
78.922464
 20
183.456256
 30
0.0
  0
SPLINE
  5
273
100
AcDbEntity
  8
Layer_1
 62
7
100
AcDbSpline
 70
8
 71
3
 72
8
 73
4
 74
0
 40
0
 40
0
 40
0
 40
0
 40
1
 40
1
 40
1
 40
1
 10
94.922322
 20
167.456670
 30
0.0
 10
94.059681
 20
167.456670
 30
0.0
 10
93.281981
 20
166.937028
 30
0.0
 10
92.951863
 20
166.140051
 30
0.0
  0
SPLINE
  5
274
100
AcDbEntity
  8
Layer_1
 62
7
100
AcDbSpline
 70
8
 71
3
 72
8
 73
4
 74
0
 40
0
 40
0
 40
0
 40
0
 40
1
 40
1
 40
1
 40
1
 10
92.951863
 20
166.140051
 30
0.0
 10
92.621744
 20
165.343075
 30
0.0
 10
92.804218
 20
164.425715
 30
0.0
 10
93.414198
 20
163.815736
 30
0.0
  0
SPLINE
  5
275
100
AcDbEntity
  8
Layer_1
 62
7
100
AcDbSpline
 70
8
 71
3
 72
8
 73
4
 74
0
 40
0
 40
0
 40
0
 40
0
 40
1
 40
1
 40
1
 40
1
 10
93.414198
 20
163.815736
 30
0.0
 10
94.024177
 20
163.205757
 30
0.0
 10
94.941537
 20
163.023283
 30
0.0
 10
95.738513
 20
163.353401
 30
0.0
  0
SPLINE
  5
276
100
AcDbEntity
  8
Layer_1
 62
7
100
AcDbSpline
 70
8
 71
3
 72
8
 73
4
 74
0
 40
0
 40
0
 40
0
 40
0
 40
1
 40
1
 40
1
 40
1
 10
95.738513
 20
163.353401
 30
0.0
 10
96.535490
 20
163.683519
 30
0.0
 10
97.055132
 20
164.461219
 30
0.0
 10
97.055132
 20
165.323860
 30
0.0
  0
SPLINE
  5
277
100
AcDbEntity
  8
Layer_1
 62
7
100
AcDbSpline
 70
8
 71
3
 72
8
 73
4
 74
0
 40
0
 40
0
 40
0
 40
0
 40
1
 40
1
 40
1
 40
1
 10
97.055132
 20
165.323860
 30
0.0
 10
97.055132
 20
165.889517
 30
0.0
 10
96.830426
 20
166.432005
 30
0.0
 10
96.430446
 20
166.831985
 30
0.0
  0
SPLINE
  5
278
100
AcDbEntity
  8
Layer_1
 62
7
100
AcDbSpline
 70
8
 71
3
 72
8
 73
4
 74
0
 40
0
 40
0
 40
0
 40
0
 40
1
 40
1
 40
1
 40
1
 10
96.430446
 20
166.831985
 30
0.0
 10
96.030467
 20
167.231964
 30
0.0
 10
95.487978
 20
167.456670
 30
0.0
 10
94.922322
 20
167.456670
 30
0.0
  0
LWPOLYLINE
  5
279
100
AcDbEntity
  8
Layer_1
 62
7
100
AcDbPolyline
 90
1
 70
1
 10
94.922322
 20
183.456256
 30
0.0
  0
SPLINE
  5
27a
100
AcDbEntity
  8
Layer_1
 62
7
100
AcDbSpline
 70
8
 71
3
 72
8
 73
4
 74
0
 40
0
 40
0
 40
0
 40
0
 40
1
 40
1
 40
1
 40
1
 10
78.922464
 20
167.456670
 30
0.0
 10
78.059823
 20
167.456670
 30
0.0
 10
77.282123
 20
166.937028
 30
0.0
 10
76.952005
 20
166.140051
 30
0.0
  0
SPLINE
  5
27b
100
AcDbEntity
  8
Layer_1
 62
7
100
AcDbSpline
 70
8
 71
3
 72
8
 73
4
 74
0
 40
0
 40
0
 40
0
 40
0
 40
1
 40
1
 40
1
 40
1
 10
76.952005
 20
166.140051
 30
0.0
 10
76.621886
 20
165.343075
 30
0.0
 10
76.804361
 20
164.425715
 30
0.0
 10
77.414340
 20
163.815736
 30
0.0
  0
SPLINE
  5
27c
100
AcDbEntity
  8
Layer_1
 62
7
100
AcDbSpline
 70
8
 71
3
 72
8
 73
4
 74
0
 40
0
 40
0
 40
0
 40
0
 40
1
 40
1
 40
1
 40
1
 10
77.414340
 20
163.815736
 30
0.0
 10
78.024319
 20
163.205757
 30
0.0
 10
78.941679
 20
163.023283
 30
0.0
 10
79.738655
 20
163.353401
 30
0.0
  0
SPLINE
  5
27d
100
AcDbEntity
  8
Layer_1
 62
7
100
AcDbSpline
 70
8
 71
3
 72
8
 73
4
 74
0
 40
0
 40
0
 40
0
 40
0
 40
1
 40
1
 40
1
 40
1
 10
79.738655
 20
163.353401
 30
0.0
 10
80.535632
 20
163.683519
 30
0.0
 10
81.055274
 20
164.461219
 30
0.0
 10
81.055274
 20
165.323860
 30
0.0
  0
SPLINE
  5
27e
100
AcDbEntity
  8
Layer_1
 62
7
100
AcDbSpline
 70
8
 71
3
 72
8
 73
4
 74
0
 40
0
 40
0
 40
0
 40
0
 40
1
 40
1
 40
1
 40
1
 10
81.055274
 20
165.323860
 30
0.0
 10
81.055274
 20
166.501779
 30
0.0
 10
80.100383
 20
167.456670
 30
0.0
 10
78.922464
 20
167.456670
 30
0.0
  0
LWPOLYLINE
  5
27f
100
AcDbEntity
  8
Layer_1
 62
7
100
AcDbPolyline
 90
1
 70
1
 10
94.922322
 20
167.456670
 30
0.0
  0
SPLINE
  5
280
100
AcDbEntity
  8
Layer_1
 62
7
100
AcDbSpline
 70
8
 71
3
 72
8
 73
4
 74
0
 40
0
 40
0
 40
0
 40
0
 40
1
 40
1
 40
1
 40
1
 10
86.922385
 20
180.549428
 30
0.0
 10
83.999728
 20
180.549428
 30
0.0
 10
81.364854
 20
178.788861
 30
0.0
 10
80.246402
 20
176.088678
 30
0.0
  0
SPLINE
  5
281
100
AcDbEntity
  8
Layer_1
 62
7
100
AcDbSpline
 70
8
 71
3
 72
8
 73
4
 74
0
 40
0
 40
0
 40
0
 40
0
 40
1
 40
1
 40
1
 40
1
 10
80.246402
 20
176.088678
 30
0.0
 10
79.127949
 20
173.388495
 30
0.0
 10
79.746178
 20
170.280449
 30
0.0
 10
81.812809
 20
168.213818
 30
0.0
  0
SPLINE
  5
282
100
AcDbEntity
  8
Layer_1
 62
7
100
AcDbSpline
 70
8
 71
3
 72
8
 73
4
 74
0
 40
0
 40
0
 40
0
 40
0
 40
1
 40
1
 40
1
 40
1
 10
81.812809
 20
168.213818
 30
0.0
 10
83.879439
 20
166.147188
 30
0.0
 10
86.987485
 20
165.528959
 30
0.0
 10
89.687668
 20
166.647411
 30
0.0
  0
SPLINE
  5
283
100
AcDbEntity
  8
Layer_1
 62
7
100
AcDbSpline
 70
8
 71
3
 72
8
 73
4
 74
0
 40
0
 40
0
 40
0
 40
0
 40
1
 40
1
 40
1
 40
1
 10
89.687668
 20
166.647411
 30
0.0
 10
92.387852
 20
167.765864
 30
0.0
 10
94.148418
 20
170.400738
 30
0.0
 10
94.148418
 20
173.323395
 30
0.0
  0
SPLINE
  5
284
100
AcDbEntity
  8
Layer_1
 62
7
100
AcDbSpline
 70
8
 71
3
 72
8
 73
4
 74
0
 40
0
 40
0
 40
0
 40
0
 40
1
 40
1
 40
1
 40
1
 10
94.148418
 20
173.323395
 30
0.0
 10
94.148418
 20
175.239858
 30
0.0
 10
93.387106
 20
177.077828
 30
0.0
 10
92.031962
 20
178.432972
 30
0.0
  0
SPLINE
  5
285
100
AcDbEntity
  8
Layer_1
 62
7
100
AcDbSpline
 70
8
 71
3
 72
8
 73
4
 74
0
 40
0
 40
0
 40
0
 40
0
 40
1
 40
1
 40
1
 40
1
 10
92.031962
 20
178.432972
 30
0.0
 10
90.676818
 20
179.788116
 30
0.0
 10
88.838848
 20
180.549428
 30
0.0
 10
86.922385
 20
180.549428
 30
0.0
  0
LWPOLYLINE
  5
286
100
AcDbEntity
  8
Layer_1
 62
7
100
AcDbPolyline
 90
1
 70
1
 10
78.922464
 20
167.456670
 30
0.0
  0
SPLINE
  5
287
100
AcDbEntity
  8
Layer_1
 62
7
100
AcDbSpline
 70
8
 71
3
 72
8
 73
4
 74
0
 40
0
 40
0
 40
0
 40
0
 40
1
 40
1
 40
1
 40
1
 10
210.620208
 20
217.824240
 30
0.0
 10
181.218223
 20
217.824240
 30
0.0
 10
154.711346
 20
200.112911
 30
0.0
 10
143.459693
 20
172.949018
 30
0.0
  0
SPLINE
  5
288
100
AcDbEntity
  8
Layer_1
 62
7
100
AcDbSpline
 70
8
 71
3
 72
8
 73
4
 74
0
 40
0
 40
0
 40
0
 40
0
 40
1
 40
1
 40
1
 40
1
 10
143.459693
 20
172.949018
 30
0.0
 10
132.208040
 20
145.785125
 30
0.0
 10
138.427432
 20
114.518132
 30
0.0
 10
159.217775
 20
93.727789
 30
0.0
  0
SPLINE
  5
289
100
AcDbEntity
  8
Layer_1
 62
7
100
AcDbSpline
 70
8
 71
3
 72
8
 73
4
 74
0
 40
0
 40
0
 40
0
 40
0
 40
1
 40
1
 40
1
 40
1
 10
159.217775
 20
93.727789
 30
0.0
 10
180.008119
 20
72.937445
 30
0.0
 10
211.275112
 20
66.718054
 30
0.0
 10
238.439005
 20
77.969707
 30
0.0
  0
SPLINE
  5
28a
100
AcDbEntity
  8
Layer_1
 62
7
100
AcDbSpline
 70
8
 71
3
 72
8
 73
4
 74
0
 40
0
 40
0
 40
0
 40
0
 40
1
 40
1
 40
1
 40
1
 10
238.439005
 20
77.969707
 30
0.0
 10
265.602897
 20
89.221359
 30
0.0
 10
283.314226
 20
115.728236
 30
0.0
 10
283.314226
 20
145.130222
 30
0.0
  0
SPLINE
  5
28b
100
AcDbEntity
  8
Layer_1
 62
7
100
AcDbSpline
 70
8
 71
3
 72
8
 73
4
 74
0
 40
0
 40
0
 40
0
 40
0
 40
1
 40
1
 40
1
 40
1
 10
283.314226
 20
145.130222
 30
0.0
 10
283.314226
 20
164.409874
 30
0.0
 10
275.655414
 20
182.899882
 30
0.0
 10
262.022641
 20
196.532655
 30
0.0
  0
SPLINE
  5
28c
100
AcDbEntity
  8
Layer_1
 62
7
100
AcDbSpline
 70
8
 71
3
 72
8
 73
4
 74
0
 40
0
 40
0
 40
0
 40
0
 40
1
 40
1
 40
1
 40
1
 10
262.022641
 20
196.532655
 30
0.0
 10
248.389868
 20
210.165428
 30
0.0
 10
229.899860
 20
217.824240
 30
0.0
 10
210.620208
 20
217.824240
 30
0.0
  0
LWPOLYLINE
  5
28d
100
AcDbEntity
  8
Layer_1
 62
7
100
AcDbPolyline
 90
1
 70
1
 10
86.922385
 20
180.549428
 30
0.0
  0
SPLINE
  5
28e
100
AcDbEntity
  8
Layer_1
 62
7
100
AcDbSpline
 70
8
 71
3
 72
8
 73
4
 74
0
 40
0
 40
0
 40
0
 40
0
 40
1
 40
1
 40
1
 40
1
 10
107.203309
 20
212.183608
 30
0.0
 10
107.959902
 20
213.915656
 30
0.0
 10
109.670521
 20
215.035126
 30
0.0
 10
111.560607
 20
215.035126
 30
0.0
  0
SPLINE
  5
28f
100
AcDbEntity
  8
Layer_1
 62
7
100
AcDbSpline
 70
8
 71
3
 72
8
 73
4
 74
0
 40
0
 40
0
 40
0
 40
0
 40
1
 40
1
 40
1
 40
1
 10
111.560607
 20
215.035126
 30
0.0
 10
113.450713
 20
215.035123
 30
0.0
 10
115.161346
 20
213.915627
 30
0.0
 10
115.917924
 20
212.183549
 30
0.0
  0
SPLINE
  5
290
100
AcDbEntity
  8
Layer_1
 62
7
100
AcDbSpline
 70
8
 71
3
 72
8
 73
4
 74
0
 40
0
 40
0
 40
0
 40
0
 40
1
 40
1
 40
1
 40
1
 10
115.917924
 20
208.376961
 30
0.0
 10
115.161346
 20
206.644883
 30
0.0
 10
113.450713
 20
205.525387
 30
0.0
 10
111.560607
 20
205.525384
 30
0.0
  0
SPLINE
  5
291
100
AcDbEntity
  8
Layer_1
 62
7
100
AcDbSpline
 70
8
 71
3
 72
8
 73
4
 74
0
 40
0
 40
0
 40
0
 40
0
 40
1
 40
1
 40
1
 40
1
 10
111.560607
 20
205.525384
 30
0.0
 10
109.670521
 20
205.525384
 30
0.0
 10
107.959902
 20
206.644854
 30
0.0
 10
107.203309
 20
208.376902
 30
0.0
  0
LWPOLYLINE
  5
292
100
AcDbEntity
  8
Layer_1
 62
7
100
AcDbPolyline
 90
1
 70
1
 10
210.620208
 20
217.824240
 30
0.0
  0
LWPOLYLINE
  5
293
100
AcDbEntity
  8
Layer_1
 62
7
100
AcDbPolyline
 90
2
 70
0
 10
107.203289
 20
212.183608
 30
0.0
 10
107.203289
 20
208.376902
 30
0.0
  0
LWPOLYLINE
  5
294
100
AcDbEntity
  8
Layer_1
 62
7
100
AcDbPolyline
 90
2
 70
0
 10
115.917924
 20
212.183550
 30
0.0
 10
115.917924
 20
208.376963
 30
0.0
  0
ENDSEC
  0
SECTION
  2
OBJECTS
  0
DICTIONARY
  5
C
330
0
100
AcDbDictionary
  3
ACAD_GROUP
350
D
  3
ACAD_MLINESTYLE
350
17
  0
DICTIONARY
  5
D
330
C
100
AcDbDictionary
  0
DICTIONARY
  5
1A
330
C
100
AcDbDictionary
  0
DICTIONARY
  5
17
330
C
100
AcDbDictionary
  3
STANDARD
350
18
  0
DICTIONARY
  5
19
330
C
100
AcDbDictionary
  0
ENDSEC
  0
EOF
