  0
SECTION
  2
HEADER
  9
$ACADVER
  1
AC1014
  9
$HANDSEED
  5
FFFF
  9
$INSUNITS
 70
     4
  9
$MEASUREMENT
 70
     1
  0
ENDSEC
  0
SECTION
  2
TABLES
  0
TABLE
  2
VPORT
  5
8
330
0
100
AcDbSymbolTable
 70
     4
  0
VPORT
  5
2E
330
8
100
AcDbSymbolTableRecord
100
AcDbViewportTableRecord
  2
*ACTIVE
 70
     0
 10
0.0
 20
0.0
 11
1.0
 21
1.0
 12
210.0
 22
148.5
 13
0.0
 23
0.0
 14
10.0
 24
10.0
 15
10.0
 25
10.0
 16
0.0
 26
0.0
 36
1.0
 17
0.0
 27
0.0
 37
0.0
 40
341.0
 41
1.24
 42
50.0
 43
0.0
 44
0.0
 50
0.0
 51
0.0
 71
     0
 72
   100
 73
     1
 74
     3
 75
     0
 76
     0
 77
     0
 78
     0
  0
ENDTAB
  0
TABLE
  2
LTYPE
  5
5
330
0
100
AcDbSymbolTable
 70
     1
  0
LTYPE
  5
14
330
5
100
AcDbSymbolTableRecord
100
AcDbLinetypeTableRecord
  2
BYBLOCK
 70
     0
  3

 72
    65
 73
     0
 40
0.0
  0
LTYPE
  5
15
330
5
100
AcDbSymbolTableRecord
100
AcDbLinetypeTableRecord
  2
BYLAYER
 70
     0
  3

 72
    65
 73
     0
 40
0.0
  0
LTYPE
  5
16
330
5
100
AcDbSymbolTableRecord
100
AcDbLinetypeTableRecord
  2
CONTINUOUS
 70
     0
  3
Solid line
 72
    65
 73
     0
 40
0.0
  0
ENDTAB
  0
TABLE
  2
LAYER
  5
2
100
AcDbSymbolTable
 70
2
  0
LAYER
  5
50
100
AcDbSymbolTableRecord
100
AcDbLayerTableRecord
  2
0
 70
0
  6
CONTINUOUS
  0
LAYER
  5
51
100
AcDbSymbolTableRecord
100
AcDbLayerTableRecord
  2
Layer_1
 70
0
  6
CONTINUOUS
  0
ENDTAB
  0
TABLE
  2
STYLE
  5
3
330
0
100
AcDbSymbolTable
 70
     1
  0
STYLE
  5
11
330
3
100
AcDbSymbolTableRecord
100
AcDbTextStyleTableRecord
  2
STANDARD
 70
     0
 40
0.0
 41
1.0
 50
0.0
 71
     0
 42
2.5
  3
txt
  4

  0
ENDTAB
  0
TABLE
  2
VIEW
  5
6
330
0
100
AcDbSymbolTable
 70
     0
  0
ENDTAB
  0
TABLE
  2
UCS
  5
7
330
0
100
AcDbSymbolTable
 70
     0
  0
ENDTAB
  0
TABLE
  2
APPID
  5
9
330
0
100
AcDbSymbolTable
 70
     2
  0
APPID
  5
12
330
9
100
AcDbSymbolTableRecord
100
AcDbRegAppTableRecord
  2
ACAD
 70
     0
  0
ENDTAB
  0
TABLE
  2
DIMSTYLE
  5
A
330
0
100
AcDbSymbolTable
 70
     1
  0
DIMSTYLE
105
27
330
A
100
AcDbSymbolTableRecord
100
AcDbDimStyleTableRecord
  2
ISO-25
 70
     0
  3

  4

  5

  6

  7

 40
1.0
 41
2.5
 42
0.625
 43
3.75
 44
1.25
 45
0.0
 46
0.0
 47
0.0
 48
0.0
140
2.5
141
2.5
142
0.0
143
0.03937007874016
144
1.0
145
0.0
146
1.0
147
0.625
 71
     0
 72
     0
 73
     0
 74
     0
 75
     0
 76
     0
 77
     1
 78
     8
170
     0
171
     3
172
     1
173
     0
174
     0
175
     0
176
     0
177
     0
178
     0
270
     2
271
     2
272
     2
273
     2
274
     3
340
11
275
     0
280
     0
281
     0
282
     0
283
     0
284
     8
285
     0
286
     0
287
     3
288
     0
  0
ENDTAB
  0
TABLE
  2
BLOCK_RECORD
  5
1
330
0
100
AcDbSymbolTable
 70
     1
  0
BLOCK_RECORD
  5
1F
330
1
100
AcDbSymbolTableRecord
100
AcDbBlockTableRecord
  2
*MODEL_SPACE
  0
BLOCK_RECORD
  5
1B
330
1
100
AcDbSymbolTableRecord
100
AcDbBlockTableRecord
  2
*PAPER_SPACE
  0
ENDTAB
  0
ENDSEC
  0
SECTION
  2
BLOCKS
  0
BLOCK
  5
20
330
1F
100
AcDbEntity
  8
0
100
AcDbBlockBegin
  2
*MODEL_SPACE
 70
     0
 10
0.0
 20
0.0
 30
0.0
  3
*MODEL_SPACE
  1

  0
ENDBLK
  5
21
330
1F
100
AcDbEntity
  8
0
100
AcDbBlockEnd
  0
BLOCK
  5
1C
330
1B
100
AcDbEntity
 67
     1
  8
0
100
AcDbBlockBegin
  2
*PAPER_SPACE
  1

  0
ENDBLK
  5
1D
330
1B
100
AcDbEntity
 67
     1
  8
0
100
AcDbBlockEnd
  0
ENDSEC
  0
SECTION
  2
ENTITIES
  0
LWPOLYLINE
  5
100
100
AcDbEntity
  8
Layer_1
 62
7
100
AcDbPolyline
 90
4
 70
0
 10
254.293190
 20
41.235360
 30
0.0
 10
417.795370
 20
107.029300
 30
0.0
 10
417.795370
 20
183.229300
 30
0.0
 10
254.293190
 20
249.023501
 30
0.0
  0
LWPOLYLINE
  5
101
100
AcDbEntity
  8
Layer_1
 62
7
100
AcDbPolyline
 90
4
 70
0
 10
166.947350
 20
249.023501
 30
0.0
 10
3.445173
 20
183.229300
 30
0.0
 10
3.445173
 20
107.029300
 30
0.0
 10
166.947350
 20
41.235360
 30
0.0
  0
LWPOLYLINE
  5
102
100
AcDbEntity
  8
Layer_1
 62
7
100
AcDbPolyline
 90
9
 70
0
 10
217.696580
 20
32.652280
 30
0.0
 10
222.400580
 20
33.046510
 30
0.0
 10
227.083570
 20
33.639180
 30
0.0
 10
231.737960
 20
34.424990
 30
0.0
 10
236.355180
 20
35.406590
 30
0.0
 10
240.927500
 20
36.581340
 30
0.0
 10
245.446580
 20
37.946590
 30
0.0
 10
249.904280
 20
39.497050
 30
0.0
 10
254.293190
 20
41.235360
 30
0.0
  0
LWPOLYLINE
  5
103
100
AcDbEntity
  8
Layer_1
 62
7
100
AcDbPolyline
 90
20
 70
0
 10
254.293190
 20
249.023501
 30
0.0
 10
249.904280
 20
250.761284
 30
0.0
 10
245.446580
 20
252.313330
 30
0.0
 10
240.927500
 20
253.677257
 30
0.0
 10
236.355180
 20
254.851478
 30
0.0
 10
231.737960
 20
255.833347
 30
0.0
 10
227.083570
 20
256.620482
 30
0.0
 10
222.400580
 20
257.211297
 30
0.0
 10
217.696580
 20
257.606320
 30
0.0
 10
212.980200
 20
257.804493
 30
0.0
 10
208.260340
 20
257.804493
 30
0.0
 10
203.543960
 20
257.606320
 30
0.0
 10
198.839960
 20
257.211297
 30
0.0
 10
194.156970
 20
256.620482
 30
0.0
 10
189.502580
 20
255.833347
 30
0.0
 10
184.885360
 20
254.851478
 30
0.0
 10
180.313040
 20
253.677257
 30
0.0
 10
175.793960
 20
252.313330
 30
0.0
 10
171.336260
 20
250.761284
 30
0.0
 10
166.947350
 20
249.023501
 30
0.0
  0
SPLINE
  5
104
100
AcDbEntity
  8
Layer_1
 62
7
100
AcDbSpline
 70
8
 71
3
 72
8
 73
4
 74
0
 40
0
 40
0
 40
0
 40
0
 40
1
 40
1
 40
1
 40
1
 10
144.506160
 20
213.731385
 30
0.0
 10
143.499923
 20
213.731385
 30
0.0
 10
142.592766
 20
213.125243
 30
0.0
 10
142.207696
 20
212.195601
 30
0.0
  0
SPLINE
  5
105
100
AcDbEntity
  8
Layer_1
 62
7
100
AcDbSpline
 70
8
 71
3
 72
8
 73
4
 74
0
 40
0
 40
0
 40
0
 40
0
 40
1
 40
1
 40
1
 40
1
 10
142.207696
 20
212.195601
 30
0.0
 10
141.822626
 20
211.265959
 30
0.0
 10
142.035475
 20
210.195895
 30
0.0
 10
142.746992
 20
209.484378
 30
0.0
  0
SPLINE
  5
106
100
AcDbEntity
  8
Layer_1
 62
7
100
AcDbSpline
 70
8
 71
3
 72
8
 73
4
 74
0
 40
0
 40
0
 40
0
 40
0
 40
1
 40
1
 40
1
 40
1
 10
142.746992
 20
209.484378
 30
0.0
 10
143.458509
 20
208.772861
 30
0.0
 10
144.528573
 20
208.560012
 30
0.0
 10
145.458215
 20
208.945082
 30
0.0
  0
SPLINE
  5
107
100
AcDbEntity
  8
Layer_1
 62
7
100
AcDbSpline
 70
8
 71
3
 72
8
 73
4
 74
0
 40
0
 40
0
 40
0
 40
0
 40
1
 40
1
 40
1
 40
1
 10
145.458215
 20
208.945082
 30
0.0
 10
146.387857
 20
209.330152
 30
0.0
 10
146.994000
 20
210.237309
 30
0.0
 10
146.994000
 20
211.243546
 30
0.0
  0
SPLINE
  5
108
100
AcDbEntity
  8
Layer_1
 62
7
100
AcDbSpline
 70
8
 71
3
 72
8
 73
4
 74
0
 40
0
 40
0
 40
0
 40
0
 40
1
 40
1
 40
1
 40
1
 10
146.994000
 20
211.243546
 30
0.0
 10
146.994000
 20
211.903362
 30
0.0
 10
146.731889
 20
212.536154
 30
0.0
 10
146.265328
 20
213.002714
 30
0.0
  0
SPLINE
  5
109
100
AcDbEntity
  8
Layer_1
 62
7
100
AcDbSpline
 70
8
 71
3
 72
8
 73
4
 74
0
 40
0
 40
0
 40
0
 40
0
 40
1
 40
1
 40
1
 40
1
 10
146.265328
 20
213.002714
 30
0.0
 10
145.798768
 20
213.469275
 30
0.0
 10
145.165976
 20
213.731385
 30
0.0
 10
144.506160
 20
213.731385
 30
0.0
  0
LWPOLYLINE
  5
10a
100
AcDbEntity
  8
Layer_1
 62
7
100
AcDbPolyline
 90
12
 70
0
 10
166.947350
 20
41.235360
 30
0.0
 10
171.336260
 20
39.497050
 30
0.0
 10
175.793960
 20
37.946590
 30
0.0
 10
180.313040
 20
36.581340
 30
0.0
 10
184.885360
 20
35.406590
 30
0.0
 10
189.502580
 20
34.424990
 30
0.0
 10
194.156970
 20
33.639180
 30
0.0
 10
198.839960
 20
33.046510
 30
0.0
 10
203.543960
 20
32.652280
 30
0.0
 10
208.260340
 20
32.453840
 30
0.0
 10
212.980200
 20
32.453840
 30
0.0
 10
217.696580
 20
32.652280
 30
0.0
  0
SPLINE
  5
10b
100
AcDbEntity
  8
Layer_1
 62
7
100
AcDbSpline
 70
8
 71
3
 72
8
 73
4
 74
0
 40
0
 40
0
 40
0
 40
0
 40
1
 40
1
 40
1
 40
1
 10
276.734340
 20
213.731355
 30
0.0
 10
275.728103
 20
213.731355
 30
0.0
 10
274.820946
 20
213.125212
 30
0.0
 10
274.435876
 20
212.195570
 30
0.0
  0
SPLINE
  5
10c
100
AcDbEntity
  8
Layer_1
 62
7
100
AcDbSpline
 70
8
 71
3
 72
8
 73
4
 74
0
 40
0
 40
0
 40
0
 40
0
 40
1
 40
1
 40
1
 40
1
 10
274.435876
 20
212.195570
 30
0.0
 10
274.050806
 20
211.265928
 30
0.0
 10
274.263655
 20
210.195864
 30
0.0
 10
274.975172
 20
209.484347
 30
0.0
  0
SPLINE
  5
10d
100
AcDbEntity
  8
Layer_1
 62
7
100
AcDbSpline
 70
8
 71
3
 72
8
 73
4
 74
0
 40
0
 40
0
 40
0
 40
0
 40
1
 40
1
 40
1
 40
1
 10
274.975172
 20
209.484347
 30
0.0
 10
275.686689
 20
208.772830
 30
0.0
 10
276.756753
 20
208.559981
 30
0.0
 10
277.686395
 20
208.945051
 30
0.0
  0
SPLINE
  5
10e
100
AcDbEntity
  8
Layer_1
 62
7
100
AcDbSpline
 70
8
 71
3
 72
8
 73
4
 74
0
 40
0
 40
0
 40
0
 40
0
 40
1
 40
1
 40
1
 40
1
 10
277.686395
 20
208.945051
 30
0.0
 10
278.616037
 20
209.330121
 30
0.0
 10
279.222179
 20
210.237278
 30
0.0
 10
279.222179
 20
211.243515
 30
0.0
  0
SPLINE
  5
10f
100
AcDbEntity
  8
Layer_1
 62
7
100
AcDbSpline
 70
8
 71
3
 72
8
 73
4
 74
0
 40
0
 40
0
 40
0
 40
0
 40
1
 40
1
 40
1
 40
1
 10
279.222179
 20
211.243515
 30
0.0
 10
279.222179
 20
211.903331
 30
0.0
 10
278.960069
 20
212.536123
 30
0.0
 10
278.493508
 20
213.002683
 30
0.0
  0
SPLINE
  5
110
100
AcDbEntity
  8
Layer_1
 62
7
100
AcDbSpline
 70
8
 71
3
 72
8
 73
4
 74
0
 40
0
 40
0
 40
0
 40
0
 40
1
 40
1
 40
1
 40
1
 10
278.493508
 20
213.002683
 30
0.0
 10
278.026948
 20
213.469244
 30
0.0
 10
277.394156
 20
213.731355
 30
0.0
 10
276.734340
 20
213.731355
 30
0.0
  0
LWPOLYLINE
  5
111
100
AcDbEntity
  8
Layer_1
 62
7
100
AcDbPolyline
 90
1
 70
1
 10
144.506160
 20
213.731385
 30
0.0
  0
SPLINE
  5
112
100
AcDbEntity
  8
Layer_1
 62
7
100
AcDbSpline
 70
8
 71
3
 72
8
 73
4
 74
0
 40
0
 40
0
 40
0
 40
0
 40
1
 40
1
 40
1
 40
1
 10
144.506200
 20
81.502890
 30
0.0
 10
143.499963
 20
81.502890
 30
0.0
 10
142.592806
 20
80.896747
 30
0.0
 10
142.207736
 20
79.967105
 30
0.0
  0
SPLINE
  5
113
100
AcDbEntity
  8
Layer_1
 62
7
100
AcDbSpline
 70
8
 71
3
 72
8
 73
4
 74
0
 40
0
 40
0
 40
0
 40
0
 40
1
 40
1
 40
1
 40
1
 10
142.207736
 20
79.967105
 30
0.0
 10
141.822666
 20
79.037463
 30
0.0
 10
142.035515
 20
77.967399
 30
0.0
 10
142.747032
 20
77.255882
 30
0.0
  0
SPLINE
  5
114
100
AcDbEntity
  8
Layer_1
 62
7
100
AcDbSpline
 70
8
 71
3
 72
8
 73
4
 74
0
 40
0
 40
0
 40
0
 40
0
 40
1
 40
1
 40
1
 40
1
 10
142.747032
 20
77.255882
 30
0.0
 10
143.458549
 20
76.544365
 30
0.0
 10
144.528613
 20
76.331516
 30
0.0
 10
145.458255
 20
76.716586
 30
0.0
  0
SPLINE
  5
115
100
AcDbEntity
  8
Layer_1
 62
7
100
AcDbSpline
 70
8
 71
3
 72
8
 73
4
 74
0
 40
0
 40
0
 40
0
 40
0
 40
1
 40
1
 40
1
 40
1
 10
145.458255
 20
76.716586
 30
0.0
 10
146.387897
 20
77.101656
 30
0.0
 10
146.994040
 20
78.008813
 30
0.0
 10
146.994040
 20
79.015050
 30
0.0
  0
SPLINE
  5
116
100
AcDbEntity
  8
Layer_1
 62
7
100
AcDbSpline
 70
8
 71
3
 72
8
 73
4
 74
0
 40
0
 40
0
 40
0
 40
0
 40
1
 40
1
 40
1
 40
1
 10
146.994040
 20
79.015050
 30
0.0
 10
146.994040
 20
79.674866
 30
0.0
 10
146.731929
 20
80.307658
 30
0.0
 10
146.265368
 20
80.774218
 30
0.0
  0
SPLINE
  5
117
100
AcDbEntity
  8
Layer_1
 62
7
100
AcDbSpline
 70
8
 71
3
 72
8
 73
4
 74
0
 40
0
 40
0
 40
0
 40
0
 40
1
 40
1
 40
1
 40
1
 10
146.265368
 20
80.774218
 30
0.0
 10
145.798808
 20
81.240779
 30
0.0
 10
145.166016
 20
81.502890
 30
0.0
 10
144.506200
 20
81.502890
 30
0.0
  0
LWPOLYLINE
  5
118
100
AcDbEntity
  8
Layer_1
 62
7
100
AcDbPolyline
 90
1
 70
1
 10
276.734340
 20
213.731355
 30
0.0
  0
SPLINE
  5
119
100
AcDbEntity
  8
Layer_1
 62
7
100
AcDbSpline
 70
8
 71
3
 72
8
 73
4
 74
0
 40
0
 40
0
 40
0
 40
0
 40
1
 40
1
 40
1
 40
1
 10
276.734380
 20
81.503050
 30
0.0
 10
275.728143
 20
81.503050
 30
0.0
 10
274.820986
 20
80.896907
 30
0.0
 10
274.435916
 20
79.967265
 30
0.0
  0
SPLINE
  5
11a
100
AcDbEntity
  8
Layer_1
 62
7
100
AcDbSpline
 70
8
 71
3
 72
8
 73
4
 74
0
 40
0
 40
0
 40
0
 40
0
 40
1
 40
1
 40
1
 40
1
 10
274.435916
 20
79.967265
 30
0.0
 10
274.050846
 20
79.037623
 30
0.0
 10
274.263695
 20
77.967559
 30
0.0
 10
274.975212
 20
77.256042
 30
0.0
  0
SPLINE
  5
11b
100
AcDbEntity
  8
Layer_1
 62
7
100
AcDbSpline
 70
8
 71
3
 72
8
 73
4
 74
0
 40
0
 40
0
 40
0
 40
0
 40
1
 40
1
 40
1
 40
1
 10
274.975212
 20
77.256042
 30
0.0
 10
275.686729
 20
76.544525
 30
0.0
 10
276.756793
 20
76.331676
 30
0.0
 10
277.686435
 20
76.716746
 30
0.0
  0
SPLINE
  5
11c
100
AcDbEntity
  8
Layer_1
 62
7
100
AcDbSpline
 70
8
 71
3
 72
8
 73
4
 74
0
 40
0
 40
0
 40
0
 40
0
 40
1
 40
1
 40
1
 40
1
 10
277.686435
 20
76.716746
 30
0.0
 10
278.616077
 20
77.101816
 30
0.0
 10
279.222219
 20
78.008973
 30
0.0
 10
279.222219
 20
79.015210
 30
0.0
  0
SPLINE
  5
11d
100
AcDbEntity
  8
Layer_1
 62
7
100
AcDbSpline
 70
8
 71
3
 72
8
 73
4
 74
0
 40
0
 40
0
 40
0
 40
0
 40
1
 40
1
 40
1
 40
1
 10
279.222219
 20
79.015210
 30
0.0
 10
279.222219
 20
79.675026
 30
0.0
 10
278.960109
 20
80.307818
 30
0.0
 10
278.493548
 20
80.774378
 30
0.0
  0
SPLINE
  5
11e
100
AcDbEntity
  8
Layer_1
 62
7
100
AcDbSpline
 70
8
 71
3
 72
8
 73
4
 74
0
 40
0
 40
0
 40
0
 40
0
 40
1
 40
1
 40
1
 40
1
 10
278.493548
 20
80.774378
 30
0.0
 10
278.026988
 20
81.240939
 30
0.0
 10
277.394196
 20
81.503050
 30
0.0
 10
276.734380
 20
81.503050
 30
0.0
  0
LWPOLYLINE
  5
11f
100
AcDbEntity
  8
Layer_1
 62
7
100
AcDbPolyline
 90
1
 70
1
 10
144.506200
 20
81.502890
 30
0.0
  0
SPLINE
  5
120
100
AcDbEntity
  8
Layer_1
 62
7
100
AcDbSpline
 70
8
 71
3
 72
8
 73
4
 74
0
 40
0
 40
0
 40
0
 40
0
 40
1
 40
1
 40
1
 40
1
 10
210.620270
 20
217.824067
 30
0.0
 10
181.218248
 20
217.824067
 30
0.0
 10
154.711339
 20
200.112716
 30
0.0
 10
143.459672
 20
172.948790
 30
0.0
  0
SPLINE
  5
121
100
AcDbEntity
  8
Layer_1
 62
7
100
AcDbSpline
 70
8
 71
3
 72
8
 73
4
 74
0
 40
0
 40
0
 40
0
 40
0
 40
1
 40
1
 40
1
 40
1
 10
143.459672
 20
172.948790
 30
0.0
 10
132.208006
 20
145.784864
 30
0.0
 10
138.427405
 20
114.517833
 30
0.0
 10
159.217774
 20
93.727464
 30
0.0
  0
SPLINE
  5
122
100
AcDbEntity
  8
Layer_1
 62
7
100
AcDbSpline
 70
8
 71
3
 72
8
 73
4
 74
0
 40
0
 40
0
 40
0
 40
0
 40
1
 40
1
 40
1
 40
1
 10
159.217774
 20
93.727464
 30
0.0
 10
180.008143
 20
72.937095
 30
0.0
 10
211.275174
 20
66.717696
 30
0.0
 10
238.439100
 20
77.969362
 30
0.0
  0
SPLINE
  5
123
100
AcDbEntity
  8
Layer_1
 62
7
100
AcDbSpline
 70
8
 71
3
 72
8
 73
4
 74
0
 40
0
 40
0
 40
0
 40
0
 40
1
 40
1
 40
1
 40
1
 10
238.439100
 20
77.969362
 30
0.0
 10
265.603026
 20
89.221029
 30
0.0
 10
283.314377
 20
115.727938
 30
0.0
 10
283.314377
 20
145.129960
 30
0.0
  0
SPLINE
  5
124
100
AcDbEntity
  8
Layer_1
 62
7
100
AcDbSpline
 70
8
 71
3
 72
8
 73
4
 74
0
 40
0
 40
0
 40
0
 40
0
 40
1
 40
1
 40
1
 40
1
 10
283.314377
 20
145.129960
 30
0.0
 10
283.314377
 20
164.409636
 30
0.0
 10
275.655556
 20
182.899666
 30
0.0
 10
262.022766
 20
196.532456
 30
0.0
  0
SPLINE
  5
125
100
AcDbEntity
  8
Layer_1
 62
7
100
AcDbSpline
 70
8
 71
3
 72
8
 73
4
 74
0
 40
0
 40
0
 40
0
 40
0
 40
1
 40
1
 40
1
 40
1
 10
262.022766
 20
196.532456
 30
0.0
 10
248.389976
 20
210.165246
 30
0.0
 10
229.899946
 20
217.824067
 30
0.0
 10
210.620270
 20
217.824067
 30
0.0
  0
LWPOLYLINE
  5
126
100
AcDbEntity
  8
Layer_1
 62
7
100
AcDbPolyline
 90
1
 70
1
 10
276.734380
 20
81.503050
 30
0.0
  0
SPLINE
  5
127
100
AcDbEntity
  8
Layer_1
 62
7
100
AcDbSpline
 70
8
 71
3
 72
8
 73
4
 74
0
 40
0
 40
0
 40
0
 40
0
 40
1
 40
1
 40
1
 40
1
 10
12.619219
 20
113.129375
 30
0.0
 10
12.619220
 20
112.024174
 30
0.0
 10
13.515162
 20
111.128231
 30
0.0
 10
14.620363
 20
111.128232
 30
0.0
  0
SPLINE
  5
128
100
AcDbEntity
  8
Layer_1
 62
7
100
AcDbSpline
 70
8
 71
3
 72
8
 73
4
 74
0
 40
0
 40
0
 40
0
 40
0
 40
1
 40
1
 40
1
 40
1
 10
14.620363
 20
111.128232
 30
0.0
 10
15.725564
 20
111.128232
 30
0.0
 10
16.621506
 20
112.024174
 30
0.0
 10
16.621506
 20
113.129375
 30
0.0
  0
SPLINE
  5
129
100
AcDbEntity
  8
Layer_1
 62
7
100
AcDbSpline
 70
8
 71
3
 72
8
 73
4
 74
0
 40
0
 40
0
 40
0
 40
0
 40
1
 40
1
 40
1
 40
1
 10
16.621506
 20
113.129375
 30
0.0
 10
16.621506
 20
114.234576
 30
0.0
 10
15.725564
 20
115.130519
 30
0.0
 10
14.620363
 20
115.130519
 30
0.0
  0
SPLINE
  5
12a
100
AcDbEntity
  8
Layer_1
 62
7
100
AcDbSpline
 70
8
 71
3
 72
8
 73
4
 74
0
 40
0
 40
0
 40
0
 40
0
 40
1
 40
1
 40
1
 40
1
 10
14.620363
 20
115.130519
 30
0.0
 10
14.089627
 20
115.130519
 30
0.0
 10
13.580628
 20
114.919684
 30
0.0
 10
13.205341
 20
114.544397
 30
0.0
  0
SPLINE
  5
12b
100
AcDbEntity
  8
Layer_1
 62
7
100
AcDbSpline
 70
8
 71
3
 72
8
 73
4
 74
0
 40
0
 40
0
 40
0
 40
0
 40
1
 40
1
 40
1
 40
1
 10
13.205341
 20
114.544397
 30
0.0
 10
12.830054
 20
114.169110
 30
0.0
 10
12.619219
 20
113.660111
 30
0.0
 10
12.619219
 20
113.129375
 30
0.0
  0
LWPOLYLINE
  5
12c
100
AcDbEntity
  8
Layer_1
 62
7
100
AcDbPolyline
 90
1
 70
1
 10
210.620270
 20
217.824067
 30
0.0
  0
SPLINE
  5
12d
100
AcDbEntity
  8
Layer_1
 62
7
100
AcDbSpline
 70
8
 71
3
 72
8
 73
4
 74
0
 40
0
 40
0
 40
0
 40
0
 40
1
 40
1
 40
1
 40
1
 10
12.619219
 20
121.129375
 30
0.0
 10
12.619219
 20
120.319988
 30
0.0
 10
13.106782
 20
119.590298
 30
0.0
 10
13.854559
 20
119.280559
 30
0.0
  0
SPLINE
  5
12e
100
AcDbEntity
  8
Layer_1
 62
7
100
AcDbSpline
 70
8
 71
3
 72
8
 73
4
 74
0
 40
0
 40
0
 40
0
 40
0
 40
1
 40
1
 40
1
 40
1
 10
13.854559
 20
119.280559
 30
0.0
 10
14.602335
 20
118.970820
 30
0.0
 10
15.463062
 20
119.142030
 30
0.0
 10
16.035385
 20
119.714353
 30
0.0
  0
SPLINE
  5
12f
100
AcDbEntity
  8
Layer_1
 62
7
100
AcDbSpline
 70
8
 71
3
 72
8
 73
4
 74
0
 40
0
 40
0
 40
0
 40
0
 40
1
 40
1
 40
1
 40
1
 10
16.035385
 20
119.714353
 30
0.0
 10
16.607708
 20
120.286676
 30
0.0
 10
16.778918
 20
121.147403
 30
0.0
 10
16.469179
 20
121.895179
 30
0.0
  0
SPLINE
  5
130
100
AcDbEntity
  8
Layer_1
 62
7
100
AcDbSpline
 70
8
 71
3
 72
8
 73
4
 74
0
 40
0
 40
0
 40
0
 40
0
 40
1
 40
1
 40
1
 40
1
 10
16.469179
 20
121.895179
 30
0.0
 10
16.159440
 20
122.642956
 30
0.0
 10
15.429750
 20
123.130518
 30
0.0
 10
14.620363
 20
123.130518
 30
0.0
  0
SPLINE
  5
131
100
AcDbEntity
  8
Layer_1
 62
7
100
AcDbSpline
 70
8
 71
3
 72
8
 73
4
 74
0
 40
0
 40
0
 40
0
 40
0
 40
1
 40
1
 40
1
 40
1
 10
14.620363
 20
123.130518
 30
0.0
 10
14.089627
 20
123.130518
 30
0.0
 10
13.580628
 20
122.919684
 30
0.0
 10
13.205341
 20
122.544397
 30
0.0
  0
SPLINE
  5
132
100
AcDbEntity
  8
Layer_1
 62
7
100
AcDbSpline
 70
8
 71
3
 72
8
 73
4
 74
0
 40
0
 40
0
 40
0
 40
0
 40
1
 40
1
 40
1
 40
1
 10
13.205341
 20
122.544397
 30
0.0
 10
12.830054
 20
122.169110
 30
0.0
 10
12.619219
 20
121.660111
 30
0.0
 10
12.619219
 20
121.129375
 30
0.0
  0
LWPOLYLINE
  5
133
100
AcDbEntity
  8
Layer_1
 62
7
100
AcDbPolyline
 90
1
 70
1
 10
12.619219
 20
113.129375
 30
0.0
  0
SPLINE
  5
134
100
AcDbEntity
  8
Layer_1
 62
7
100
AcDbSpline
 70
8
 71
3
 72
8
 73
4
 74
0
 40
0
 40
0
 40
0
 40
0
 40
1
 40
1
 40
1
 40
1
 10
12.619219
 20
129.129375
 30
0.0
 10
12.619219
 20
128.024174
 30
0.0
 10
13.515162
 20
127.128231
 30
0.0
 10
14.620363
 20
127.128231
 30
0.0
  0
SPLINE
  5
135
100
AcDbEntity
  8
Layer_1
 62
7
100
AcDbSpline
 70
8
 71
3
 72
8
 73
4
 74
0
 40
0
 40
0
 40
0
 40
0
 40
1
 40
1
 40
1
 40
1
 10
14.620363
 20
127.128231
 30
0.0
 10
15.725564
 20
127.128231
 30
0.0
 10
16.621506
 20
128.024174
 30
0.0
 10
16.621506
 20
129.129375
 30
0.0
  0
SPLINE
  5
136
100
AcDbEntity
  8
Layer_1
 62
7
100
AcDbSpline
 70
8
 71
3
 72
8
 73
4
 74
0
 40
0
 40
0
 40
0
 40
0
 40
1
 40
1
 40
1
 40
1
 10
16.621506
 20
129.129375
 30
0.0
 10
16.621506
 20
130.234576
 30
0.0
 10
15.725564
 20
131.130518
 30
0.0
 10
14.620363
 20
131.130518
 30
0.0
  0
SPLINE
  5
137
100
AcDbEntity
  8
Layer_1
 62
7
100
AcDbSpline
 70
8
 71
3
 72
8
 73
4
 74
0
 40
0
 40
0
 40
0
 40
0
 40
1
 40
1
 40
1
 40
1
 10
14.620363
 20
131.130518
 30
0.0
 10
14.089627
 20
131.130518
 30
0.0
 10
13.580628
 20
130.919684
 30
0.0
 10
13.205341
 20
130.544397
 30
0.0
  0
SPLINE
  5
138
100
AcDbEntity
  8
Layer_1
 62
7
100
AcDbSpline
 70
8
 71
3
 72
8
 73
4
 74
0
 40
0
 40
0
 40
0
 40
0
 40
1
 40
1
 40
1
 40
1
 10
13.205341
 20
130.544397
 30
0.0
 10
12.830054
 20
130.169110
 30
0.0
 10
12.619219
 20
129.660111
 30
0.0
 10
12.619219
 20
129.129375
 30
0.0
  0
LWPOLYLINE
  5
139
100
AcDbEntity
  8
Layer_1
 62
7
100
AcDbPolyline
 90
1
 70
1
 10
12.619219
 20
121.129375
 30
0.0
  0
SPLINE
  5
13a
100
AcDbEntity
  8
Layer_1
 62
7
100
AcDbSpline
 70
8
 71
3
 72
8
 73
4
 74
0
 40
0
 40
0
 40
0
 40
0
 40
1
 40
1
 40
1
 40
1
 10
12.619219
 20
137.129375
 30
0.0
 10
12.619219
 20
136.319988
 30
0.0
 10
13.106782
 20
135.590298
 30
0.0
 10
13.854559
 20
135.280559
 30
0.0
  0
SPLINE
  5
13b
100
AcDbEntity
  8
Layer_1
 62
7
100
AcDbSpline
 70
8
 71
3
 72
8
 73
4
 74
0
 40
0
 40
0
 40
0
 40
0
 40
1
 40
1
 40
1
 40
1
 10
13.854559
 20
135.280559
 30
0.0
 10
14.602335
 20
134.970820
 30
0.0
 10
15.463062
 20
135.142030
 30
0.0
 10
16.035385
 20
135.714353
 30
0.0
  0
SPLINE
  5
13c
100
AcDbEntity
  8
Layer_1
 62
7
100
AcDbSpline
 70
8
 71
3
 72
8
 73
4
 74
0
 40
0
 40
0
 40
0
 40
0
 40
1
 40
1
 40
1
 40
1
 10
16.035385
 20
135.714353
 30
0.0
 10
16.607708
 20
136.286676
 30
0.0
 10
16.778918
 20
137.147403
 30
0.0
 10
16.469179
 20
137.895179
 30
0.0
  0
SPLINE
  5
13d
100
AcDbEntity
  8
Layer_1
 62
7
100
AcDbSpline
 70
8
 71
3
 72
8
 73
4
 74
0
 40
0
 40
0
 40
0
 40
0
 40
1
 40
1
 40
1
 40
1
 10
16.469179
 20
137.895179
 30
0.0
 10
16.159440
 20
138.642956
 30
0.0
 10
15.429750
 20
139.130518
 30
0.0
 10
14.620363
 20
139.130518
 30
0.0
  0
SPLINE
  5
13e
100
AcDbEntity
  8
Layer_1
 62
7
100
AcDbSpline
 70
8
 71
3
 72
8
 73
4
 74
0
 40
0
 40
0
 40
0
 40
0
 40
1
 40
1
 40
1
 40
1
 10
14.620363
 20
139.130518
 30
0.0
 10
14.089627
 20
139.130518
 30
0.0
 10
13.580628
 20
138.919684
 30
0.0
 10
13.205341
 20
138.544397
 30
0.0
  0
SPLINE
  5
13f
100
AcDbEntity
  8
Layer_1
 62
7
100
AcDbSpline
 70
8
 71
3
 72
8
 73
4
 74
0
 40
0
 40
0
 40
0
 40
0
 40
1
 40
1
 40
1
 40
1
 10
13.205341
 20
138.544397
 30
0.0
 10
12.830054
 20
138.169110
 30
0.0
 10
12.619219
 20
137.660111
 30
0.0
 10
12.619219
 20
137.129375
 30
0.0
  0
LWPOLYLINE
  5
140
100
AcDbEntity
  8
Layer_1
 62
7
100
AcDbPolyline
 90
1
 70
1
 10
12.619219
 20
129.129375
 30
0.0
  0
SPLINE
  5
141
100
AcDbEntity
  8
Layer_1
 62
7
100
AcDbSpline
 70
8
 71
3
 72
8
 73
4
 74
0
 40
0
 40
0
 40
0
 40
0
 40
1
 40
1
 40
1
 40
1
 10
12.619219
 20
145.129375
 30
0.0
 10
12.619220
 20
144.024174
 30
0.0
 10
13.515162
 20
143.128231
 30
0.0
 10
14.620363
 20
143.128232
 30
0.0
  0
SPLINE
  5
142
100
AcDbEntity
  8
Layer_1
 62
7
100
AcDbSpline
 70
8
 71
3
 72
8
 73
4
 74
0
 40
0
 40
0
 40
0
 40
0
 40
1
 40
1
 40
1
 40
1
 10
14.620363
 20
143.128232
 30
0.0
 10
15.725564
 20
143.128232
 30
0.0
 10
16.621506
 20
144.024174
 30
0.0
 10
16.621506
 20
145.129375
 30
0.0
  0
SPLINE
  5
143
100
AcDbEntity
  8
Layer_1
 62
7
100
AcDbSpline
 70
8
 71
3
 72
8
 73
4
 74
0
 40
0
 40
0
 40
0
 40
0
 40
1
 40
1
 40
1
 40
1
 10
16.621506
 20
145.129375
 30
0.0
 10
16.621506
 20
146.234576
 30
0.0
 10
15.725564
 20
147.130519
 30
0.0
 10
14.620363
 20
147.130519
 30
0.0
  0
SPLINE
  5
144
100
AcDbEntity
  8
Layer_1
 62
7
100
AcDbSpline
 70
8
 71
3
 72
8
 73
4
 74
0
 40
0
 40
0
 40
0
 40
0
 40
1
 40
1
 40
1
 40
1
 10
14.620363
 20
147.130519
 30
0.0
 10
14.089627
 20
147.130519
 30
0.0
 10
13.580628
 20
146.919684
 30
0.0
 10
13.205341
 20
146.544397
 30
0.0
  0
SPLINE
  5
145
100
AcDbEntity
  8
Layer_1
 62
7
100
AcDbSpline
 70
8
 71
3
 72
8
 73
4
 74
0
 40
0
 40
0
 40
0
 40
0
 40
1
 40
1
 40
1
 40
1
 10
13.205341
 20
146.544397
 30
0.0
 10
12.830054
 20
146.169110
 30
0.0
 10
12.619219
 20
145.660111
 30
0.0
 10
12.619219
 20
145.129375
 30
0.0
  0
LWPOLYLINE
  5
146
100
AcDbEntity
  8
Layer_1
 62
7
100
AcDbPolyline
 90
1
 70
1
 10
12.619219
 20
137.129375
 30
0.0
  0
SPLINE
  5
147
100
AcDbEntity
  8
Layer_1
 62
7
100
AcDbSpline
 70
8
 71
3
 72
8
 73
4
 74
0
 40
0
 40
0
 40
0
 40
0
 40
1
 40
1
 40
1
 40
1
 10
12.619219
 20
153.129375
 30
0.0
 10
12.619219
 20
152.319988
 30
0.0
 10
13.106782
 20
151.590298
 30
0.0
 10
13.854559
 20
151.280559
 30
0.0
  0
SPLINE
  5
148
100
AcDbEntity
  8
Layer_1
 62
7
100
AcDbSpline
 70
8
 71
3
 72
8
 73
4
 74
0
 40
0
 40
0
 40
0
 40
0
 40
1
 40
1
 40
1
 40
1
 10
13.854559
 20
151.280559
 30
0.0
 10
14.602335
 20
150.970820
 30
0.0
 10
15.463062
 20
151.142030
 30
0.0
 10
16.035385
 20
151.714353
 30
0.0
  0
SPLINE
  5
149
100
AcDbEntity
  8
Layer_1
 62
7
100
AcDbSpline
 70
8
 71
3
 72
8
 73
4
 74
0
 40
0
 40
0
 40
0
 40
0
 40
1
 40
1
 40
1
 40
1
 10
16.035385
 20
151.714353
 30
0.0
 10
16.607708
 20
152.286676
 30
0.0
 10
16.778918
 20
153.147403
 30
0.0
 10
16.469179
 20
153.895179
 30
0.0
  0
SPLINE
  5
14a
100
AcDbEntity
  8
Layer_1
 62
7
100
AcDbSpline
 70
8
 71
3
 72
8
 73
4
 74
0
 40
0
 40
0
 40
0
 40
0
 40
1
 40
1
 40
1
 40
1
 10
16.469179
 20
153.895179
 30
0.0
 10
16.159440
 20
154.642956
 30
0.0
 10
15.429750
 20
155.130518
 30
0.0
 10
14.620363
 20
155.130518
 30
0.0
  0
SPLINE
  5
14b
100
AcDbEntity
  8
Layer_1
 62
7
100
AcDbSpline
 70
8
 71
3
 72
8
 73
4
 74
0
 40
0
 40
0
 40
0
 40
0
 40
1
 40
1
 40
1
 40
1
 10
14.620363
 20
155.130518
 30
0.0
 10
14.089627
 20
155.130518
 30
0.0
 10
13.580628
 20
154.919684
 30
0.0
 10
13.205341
 20
154.544397
 30
0.0
  0
SPLINE
  5
14c
100
AcDbEntity
  8
Layer_1
 62
7
100
AcDbSpline
 70
8
 71
3
 72
8
 73
4
 74
0
 40
0
 40
0
 40
0
 40
0
 40
1
 40
1
 40
1
 40
1
 10
13.205341
 20
154.544397
 30
0.0
 10
12.830054
 20
154.169110
 30
0.0
 10
12.619219
 20
153.660111
 30
0.0
 10
12.619219
 20
153.129375
 30
0.0
  0
LWPOLYLINE
  5
14d
100
AcDbEntity
  8
Layer_1
 62
7
100
AcDbPolyline
 90
1
 70
1
 10
12.619219
 20
145.129375
 30
0.0
  0
SPLINE
  5
14e
100
AcDbEntity
  8
Layer_1
 62
7
100
AcDbSpline
 70
8
 71
3
 72
8
 73
4
 74
0
 40
0
 40
0
 40
0
 40
0
 40
1
 40
1
 40
1
 40
1
 10
12.619219
 20
161.129375
 30
0.0
 10
12.619219
 20
160.024174
 30
0.0
 10
13.515162
 20
159.128231
 30
0.0
 10
14.620363
 20
159.128231
 30
0.0
  0
SPLINE
  5
14f
100
AcDbEntity
  8
Layer_1
 62
7
100
AcDbSpline
 70
8
 71
3
 72
8
 73
4
 74
0
 40
0
 40
0
 40
0
 40
0
 40
1
 40
1
 40
1
 40
1
 10
14.620363
 20
159.128231
 30
0.0
 10
15.725564
 20
159.128231
 30
0.0
 10
16.621506
 20
160.024174
 30
0.0
 10
16.621506
 20
161.129375
 30
0.0
  0
SPLINE
  5
150
100
AcDbEntity
  8
Layer_1
 62
7
100
AcDbSpline
 70
8
 71
3
 72
8
 73
4
 74
0
 40
0
 40
0
 40
0
 40
0
 40
1
 40
1
 40
1
 40
1
 10
16.621506
 20
161.129375
 30
0.0
 10
16.621506
 20
162.234576
 30
0.0
 10
15.725564
 20
163.130518
 30
0.0
 10
14.620363
 20
163.130518
 30
0.0
  0
SPLINE
  5
151
100
AcDbEntity
  8
Layer_1
 62
7
100
AcDbSpline
 70
8
 71
3
 72
8
 73
4
 74
0
 40
0
 40
0
 40
0
 40
0
 40
1
 40
1
 40
1
 40
1
 10
14.620363
 20
163.130518
 30
0.0
 10
14.089627
 20
163.130518
 30
0.0
 10
13.580628
 20
162.919684
 30
0.0
 10
13.205341
 20
162.544397
 30
0.0
  0
SPLINE
  5
152
100
AcDbEntity
  8
Layer_1
 62
7
100
AcDbSpline
 70
8
 71
3
 72
8
 73
4
 74
0
 40
0
 40
0
 40
0
 40
0
 40
1
 40
1
 40
1
 40
1
 10
13.205341
 20
162.544397
 30
0.0
 10
12.830054
 20
162.169110
 30
0.0
 10
12.619219
 20
161.660111
 30
0.0
 10
12.619219
 20
161.129375
 30
0.0
  0
LWPOLYLINE
  5
153
100
AcDbEntity
  8
Layer_1
 62
7
100
AcDbPolyline
 90
1
 70
1
 10
12.619219
 20
153.129375
 30
0.0
  0
SPLINE
  5
154
100
AcDbEntity
  8
Layer_1
 62
7
100
AcDbSpline
 70
8
 71
3
 72
8
 73
4
 74
0
 40
0
 40
0
 40
0
 40
0
 40
1
 40
1
 40
1
 40
1
 10
12.619219
 20
169.129375
 30
0.0
 10
12.619219
 20
168.319988
 30
0.0
 10
13.106782
 20
167.590298
 30
0.0
 10
13.854559
 20
167.280559
 30
0.0
  0
SPLINE
  5
155
100
AcDbEntity
  8
Layer_1
 62
7
100
AcDbSpline
 70
8
 71
3
 72
8
 73
4
 74
0
 40
0
 40
0
 40
0
 40
0
 40
1
 40
1
 40
1
 40
1
 10
13.854559
 20
167.280559
 30
0.0
 10
14.602335
 20
166.970820
 30
0.0
 10
15.463062
 20
167.142030
 30
0.0
 10
16.035385
 20
167.714353
 30
0.0
  0
SPLINE
  5
156
100
AcDbEntity
  8
Layer_1
 62
7
100
AcDbSpline
 70
8
 71
3
 72
8
 73
4
 74
0
 40
0
 40
0
 40
0
 40
0
 40
1
 40
1
 40
1
 40
1
 10
16.035385
 20
167.714353
 30
0.0
 10
16.607708
 20
168.286676
 30
0.0
 10
16.778918
 20
169.147403
 30
0.0
 10
16.469179
 20
169.895179
 30
0.0
  0
SPLINE
  5
157
100
AcDbEntity
  8
Layer_1
 62
7
100
AcDbSpline
 70
8
 71
3
 72
8
 73
4
 74
0
 40
0
 40
0
 40
0
 40
0
 40
1
 40
1
 40
1
 40
1
 10
16.469179
 20
169.895179
 30
0.0
 10
16.159440
 20
170.642956
 30
0.0
 10
15.429750
 20
171.130518
 30
0.0
 10
14.620363
 20
171.130518
 30
0.0
  0
SPLINE
  5
158
100
AcDbEntity
  8
Layer_1
 62
7
100
AcDbSpline
 70
8
 71
3
 72
8
 73
4
 74
0
 40
0
 40
0
 40
0
 40
0
 40
1
 40
1
 40
1
 40
1
 10
14.620363
 20
171.130518
 30
0.0
 10
14.089627
 20
171.130518
 30
0.0
 10
13.580628
 20
170.919684
 30
0.0
 10
13.205341
 20
170.544397
 30
0.0
  0
SPLINE
  5
159
100
AcDbEntity
  8
Layer_1
 62
7
100
AcDbSpline
 70
8
 71
3
 72
8
 73
4
 74
0
 40
0
 40
0
 40
0
 40
0
 40
1
 40
1
 40
1
 40
1
 10
13.205341
 20
170.544397
 30
0.0
 10
12.830054
 20
170.169110
 30
0.0
 10
12.619219
 20
169.660111
 30
0.0
 10
12.619219
 20
169.129375
 30
0.0
  0
LWPOLYLINE
  5
15a
100
AcDbEntity
  8
Layer_1
 62
7
100
AcDbPolyline
 90
1
 70
1
 10
12.619219
 20
161.129375
 30
0.0
  0
SPLINE
  5
15b
100
AcDbEntity
  8
Layer_1
 62
7
100
AcDbSpline
 70
8
 71
3
 72
8
 73
4
 74
0
 40
0
 40
0
 40
0
 40
0
 40
1
 40
1
 40
1
 40
1
 10
12.619219
 20
177.129375
 30
0.0
 10
12.619219
 20
176.319988
 30
0.0
 10
13.106782
 20
175.590298
 30
0.0
 10
13.854559
 20
175.280559
 30
0.0
  0
SPLINE
  5
15c
100
AcDbEntity
  8
Layer_1
 62
7
100
AcDbSpline
 70
8
 71
3
 72
8
 73
4
 74
0
 40
0
 40
0
 40
0
 40
0
 40
1
 40
1
 40
1
 40
1
 10
13.854559
 20
175.280559
 30
0.0
 10
14.602335
 20
174.970820
 30
0.0
 10
15.463062
 20
175.142030
 30
0.0
 10
16.035385
 20
175.714353
 30
0.0
  0
SPLINE
  5
15d
100
AcDbEntity
  8
Layer_1
 62
7
100
AcDbSpline
 70
8
 71
3
 72
8
 73
4
 74
0
 40
0
 40
0
 40
0
 40
0
 40
1
 40
1
 40
1
 40
1
 10
16.035385
 20
175.714353
 30
0.0
 10
16.607708
 20
176.286676
 30
0.0
 10
16.778918
 20
177.147403
 30
0.0
 10
16.469179
 20
177.895179
 30
0.0
  0
SPLINE
  5
15e
100
AcDbEntity
  8
Layer_1
 62
7
100
AcDbSpline
 70
8
 71
3
 72
8
 73
4
 74
0
 40
0
 40
0
 40
0
 40
0
 40
1
 40
1
 40
1
 40
1
 10
16.469179
 20
177.895179
 30
0.0
 10
16.159440
 20
178.642956
 30
0.0
 10
15.429750
 20
179.130518
 30
0.0
 10
14.620363
 20
179.130518
 30
0.0
  0
SPLINE
  5
15f
100
AcDbEntity
  8
Layer_1
 62
7
100
AcDbSpline
 70
8
 71
3
 72
8
 73
4
 74
0
 40
0
 40
0
 40
0
 40
0
 40
1
 40
1
 40
1
 40
1
 10
14.620363
 20
179.130518
 30
0.0
 10
14.089627
 20
179.130518
 30
0.0
 10
13.580628
 20
178.919684
 30
0.0
 10
13.205341
 20
178.544397
 30
0.0
  0
SPLINE
  5
160
100
AcDbEntity
  8
Layer_1
 62
7
100
AcDbSpline
 70
8
 71
3
 72
8
 73
4
 74
0
 40
0
 40
0
 40
0
 40
0
 40
1
 40
1
 40
1
 40
1
 10
13.205341
 20
178.544397
 30
0.0
 10
12.830054
 20
178.169110
 30
0.0
 10
12.619219
 20
177.660111
 30
0.0
 10
12.619219
 20
177.129375
 30
0.0
  0
LWPOLYLINE
  5
161
100
AcDbEntity
  8
Layer_1
 62
7
100
AcDbPolyline
 90
1
 70
1
 10
12.619219
 20
169.129375
 30
0.0
  0
SPLINE
  5
162
100
AcDbEntity
  8
Layer_1
 62
7
100
AcDbSpline
 70
8
 71
3
 72
8
 73
4
 74
0
 40
0
 40
0
 40
0
 40
0
 40
1
 40
1
 40
1
 40
1
 10
44.619118
 20
113.129410
 30
0.0
 10
44.619118
 20
112.320023
 30
0.0
 10
45.106681
 20
111.590333
 30
0.0
 10
45.854458
 20
111.280594
 30
0.0
  0
SPLINE
  5
163
100
AcDbEntity
  8
Layer_1
 62
7
100
AcDbSpline
 70
8
 71
3
 72
8
 73
4
 74
0
 40
0
 40
0
 40
0
 40
0
 40
1
 40
1
 40
1
 40
1
 10
45.854458
 20
111.280594
 30
0.0
 10
46.602234
 20
110.970855
 30
0.0
 10
47.462961
 20
111.142065
 30
0.0
 10
48.035284
 20
111.714388
 30
0.0
  0
SPLINE
  5
164
100
AcDbEntity
  8
Layer_1
 62
7
100
AcDbSpline
 70
8
 71
3
 72
8
 73
4
 74
0
 40
0
 40
0
 40
0
 40
0
 40
1
 40
1
 40
1
 40
1
 10
48.035284
 20
111.714388
 30
0.0
 10
48.607607
 20
112.286711
 30
0.0
 10
48.778817
 20
113.147438
 30
0.0
 10
48.469078
 20
113.895214
 30
0.0
  0
SPLINE
  5
165
100
AcDbEntity
  8
Layer_1
 62
7
100
AcDbSpline
 70
8
 71
3
 72
8
 73
4
 74
0
 40
0
 40
0
 40
0
 40
0
 40
1
 40
1
 40
1
 40
1
 10
48.469078
 20
113.895214
 30
0.0
 10
48.159339
 20
114.642991
 30
0.0
 10
47.429649
 20
115.130553
 30
0.0
 10
46.620262
 20
115.130553
 30
0.0
  0
SPLINE
  5
166
100
AcDbEntity
  8
Layer_1
 62
7
100
AcDbSpline
 70
8
 71
3
 72
8
 73
4
 74
0
 40
0
 40
0
 40
0
 40
0
 40
1
 40
1
 40
1
 40
1
 10
46.620262
 20
115.130553
 30
0.0
 10
46.089526
 20
115.130553
 30
0.0
 10
45.580527
 20
114.919719
 30
0.0
 10
45.205240
 20
114.544432
 30
0.0
  0
SPLINE
  5
167
100
AcDbEntity
  8
Layer_1
 62
7
100
AcDbSpline
 70
8
 71
3
 72
8
 73
4
 74
0
 40
0
 40
0
 40
0
 40
0
 40
1
 40
1
 40
1
 40
1
 10
45.205240
 20
114.544432
 30
0.0
 10
44.829953
 20
114.169145
 30
0.0
 10
44.619118
 20
113.660146
 30
0.0
 10
44.619118
 20
113.129410
 30
0.0
  0
LWPOLYLINE
  5
168
100
AcDbEntity
  8
Layer_1
 62
7
100
AcDbPolyline
 90
1
 70
1
 10
12.619219
 20
177.129375
 30
0.0
  0
SPLINE
  5
169
100
AcDbEntity
  8
Layer_1
 62
7
100
AcDbSpline
 70
8
 71
3
 72
8
 73
4
 74
0
 40
0
 40
0
 40
0
 40
0
 40
1
 40
1
 40
1
 40
1
 10
44.619118
 20
121.129410
 30
0.0
 10
44.619118
 20
120.320023
 30
0.0
 10
45.106681
 20
119.590333
 30
0.0
 10
45.854458
 20
119.280594
 30
0.0
  0
SPLINE
  5
16a
100
AcDbEntity
  8
Layer_1
 62
7
100
AcDbSpline
 70
8
 71
3
 72
8
 73
4
 74
0
 40
0
 40
0
 40
0
 40
0
 40
1
 40
1
 40
1
 40
1
 10
45.854458
 20
119.280594
 30
0.0
 10
46.602234
 20
118.970855
 30
0.0
 10
47.462961
 20
119.142065
 30
0.0
 10
48.035284
 20
119.714388
 30
0.0
  0
SPLINE
  5
16b
100
AcDbEntity
  8
Layer_1
 62
7
100
AcDbSpline
 70
8
 71
3
 72
8
 73
4
 74
0
 40
0
 40
0
 40
0
 40
0
 40
1
 40
1
 40
1
 40
1
 10
48.035284
 20
119.714388
 30
0.0
 10
48.607607
 20
120.286711
 30
0.0
 10
48.778817
 20
121.147438
 30
0.0
 10
48.469078
 20
121.895214
 30
0.0
  0
SPLINE
  5
16c
100
AcDbEntity
  8
Layer_1
 62
7
100
AcDbSpline
 70
8
 71
3
 72
8
 73
4
 74
0
 40
0
 40
0
 40
0
 40
0
 40
1
 40
1
 40
1
 40
1
 10
48.469078
 20
121.895214
 30
0.0
 10
48.159339
 20
122.642991
 30
0.0
 10
47.429649
 20
123.130553
 30
0.0
 10
46.620262
 20
123.130553
 30
0.0
  0
SPLINE
  5
16d
100
AcDbEntity
  8
Layer_1
 62
7
100
AcDbSpline
 70
8
 71
3
 72
8
 73
4
 74
0
 40
0
 40
0
 40
0
 40
0
 40
1
 40
1
 40
1
 40
1
 10
46.620262
 20
123.130553
 30
0.0
 10
46.089526
 20
123.130553
 30
0.0
 10
45.580527
 20
122.919719
 30
0.0
 10
45.205240
 20
122.544432
 30
0.0
  0
SPLINE
  5
16e
100
AcDbEntity
  8
Layer_1
 62
7
100
AcDbSpline
 70
8
 71
3
 72
8
 73
4
 74
0
 40
0
 40
0
 40
0
 40
0
 40
1
 40
1
 40
1
 40
1
 10
45.205240
 20
122.544432
 30
0.0
 10
44.829953
 20
122.169145
 30
0.0
 10
44.619118
 20
121.660146
 30
0.0
 10
44.619118
 20
121.129410
 30
0.0
  0
LWPOLYLINE
  5
16f
100
AcDbEntity
  8
Layer_1
 62
7
100
AcDbPolyline
 90
1
 70
1
 10
44.619118
 20
113.129410
 30
0.0
  0
SPLINE
  5
170
100
AcDbEntity
  8
Layer_1
 62
7
100
AcDbSpline
 70
8
 71
3
 72
8
 73
4
 74
0
 40
0
 40
0
 40
0
 40
0
 40
1
 40
1
 40
1
 40
1
 10
44.619118
 20
129.129410
 30
0.0
 10
44.619118
 20
128.024209
 30
0.0
 10
45.515061
 20
127.128267
 30
0.0
 10
46.620262
 20
127.128267
 30
0.0
  0
SPLINE
  5
171
100
AcDbEntity
  8
Layer_1
 62
7
100
AcDbSpline
 70
8
 71
3
 72
8
 73
4
 74
0
 40
0
 40
0
 40
0
 40
0
 40
1
 40
1
 40
1
 40
1
 10
46.620262
 20
127.128267
 30
0.0
 10
47.725463
 20
127.128267
 30
0.0
 10
48.621405
 20
128.024209
 30
0.0
 10
48.621405
 20
129.129410
 30
0.0
  0
SPLINE
  5
172
100
AcDbEntity
  8
Layer_1
 62
7
100
AcDbSpline
 70
8
 71
3
 72
8
 73
4
 74
0
 40
0
 40
0
 40
0
 40
0
 40
1
 40
1
 40
1
 40
1
 10
48.621405
 20
129.129410
 30
0.0
 10
48.621405
 20
130.234611
 30
0.0
 10
47.725463
 20
131.130554
 30
0.0
 10
46.620262
 20
131.130554
 30
0.0
  0
SPLINE
  5
173
100
AcDbEntity
  8
Layer_1
 62
7
100
AcDbSpline
 70
8
 71
3
 72
8
 73
4
 74
0
 40
0
 40
0
 40
0
 40
0
 40
1
 40
1
 40
1
 40
1
 10
46.620262
 20
131.130554
 30
0.0
 10
46.089526
 20
131.130554
 30
0.0
 10
45.580527
 20
130.919719
 30
0.0
 10
45.205240
 20
130.544432
 30
0.0
  0
SPLINE
  5
174
100
AcDbEntity
  8
Layer_1
 62
7
100
AcDbSpline
 70
8
 71
3
 72
8
 73
4
 74
0
 40
0
 40
0
 40
0
 40
0
 40
1
 40
1
 40
1
 40
1
 10
45.205240
 20
130.544432
 30
0.0
 10
44.829953
 20
130.169145
 30
0.0
 10
44.619118
 20
129.660146
 30
0.0
 10
44.619118
 20
129.129410
 30
0.0
  0
LWPOLYLINE
  5
175
100
AcDbEntity
  8
Layer_1
 62
7
100
AcDbPolyline
 90
1
 70
1
 10
44.619118
 20
121.129410
 30
0.0
  0
SPLINE
  5
176
100
AcDbEntity
  8
Layer_1
 62
7
100
AcDbSpline
 70
8
 71
3
 72
8
 73
4
 74
0
 40
0
 40
0
 40
0
 40
0
 40
1
 40
1
 40
1
 40
1
 10
44.619118
 20
137.129410
 30
0.0
 10
44.619118
 20
136.320023
 30
0.0
 10
45.106681
 20
135.590333
 30
0.0
 10
45.854458
 20
135.280594
 30
0.0
  0
SPLINE
  5
177
100
AcDbEntity
  8
Layer_1
 62
7
100
AcDbSpline
 70
8
 71
3
 72
8
 73
4
 74
0
 40
0
 40
0
 40
0
 40
0
 40
1
 40
1
 40
1
 40
1
 10
45.854458
 20
135.280594
 30
0.0
 10
46.602234
 20
134.970855
 30
0.0
 10
47.462961
 20
135.142065
 30
0.0
 10
48.035284
 20
135.714388
 30
0.0
  0
SPLINE
  5
178
100
AcDbEntity
  8
Layer_1
 62
7
100
AcDbSpline
 70
8
 71
3
 72
8
 73
4
 74
0
 40
0
 40
0
 40
0
 40
0
 40
1
 40
1
 40
1
 40
1
 10
48.035284
 20
135.714388
 30
0.0
 10
48.607607
 20
136.286711
 30
0.0
 10
48.778817
 20
137.147438
 30
0.0
 10
48.469078
 20
137.895214
 30
0.0
  0
SPLINE
  5
179
100
AcDbEntity
  8
Layer_1
 62
7
100
AcDbSpline
 70
8
 71
3
 72
8
 73
4
 74
0
 40
0
 40
0
 40
0
 40
0
 40
1
 40
1
 40
1
 40
1
 10
48.469078
 20
137.895214
 30
0.0
 10
48.159339
 20
138.642991
 30
0.0
 10
47.429649
 20
139.130553
 30
0.0
 10
46.620262
 20
139.130553
 30
0.0
  0
SPLINE
  5
17a
100
AcDbEntity
  8
Layer_1
 62
7
100
AcDbSpline
 70
8
 71
3
 72
8
 73
4
 74
0
 40
0
 40
0
 40
0
 40
0
 40
1
 40
1
 40
1
 40
1
 10
46.620262
 20
139.130553
 30
0.0
 10
46.089526
 20
139.130553
 30
0.0
 10
45.580527
 20
138.919719
 30
0.0
 10
45.205240
 20
138.544432
 30
0.0
  0
SPLINE
  5
17b
100
AcDbEntity
  8
Layer_1
 62
7
100
AcDbSpline
 70
8
 71
3
 72
8
 73
4
 74
0
 40
0
 40
0
 40
0
 40
0
 40
1
 40
1
 40
1
 40
1
 10
45.205240
 20
138.544432
 30
0.0
 10
44.829953
 20
138.169145
 30
0.0
 10
44.619118
 20
137.660146
 30
0.0
 10
44.619118
 20
137.129410
 30
0.0
  0
LWPOLYLINE
  5
17c
100
AcDbEntity
  8
Layer_1
 62
7
100
AcDbPolyline
 90
1
 70
1
 10
44.619118
 20
129.129410
 30
0.0
  0
SPLINE
  5
17d
100
AcDbEntity
  8
Layer_1
 62
7
100
AcDbSpline
 70
8
 71
3
 72
8
 73
4
 74
0
 40
0
 40
0
 40
0
 40
0
 40
1
 40
1
 40
1
 40
1
 10
44.619118
 20
145.129410
 30
0.0
 10
44.619118
 20
144.320023
 30
0.0
 10
45.106681
 20
143.590333
 30
0.0
 10
45.854458
 20
143.280594
 30
0.0
  0
SPLINE
  5
17e
100
AcDbEntity
  8
Layer_1
 62
7
100
AcDbSpline
 70
8
 71
3
 72
8
 73
4
 74
0
 40
0
 40
0
 40
0
 40
0
 40
1
 40
1
 40
1
 40
1
 10
45.854458
 20
143.280594
 30
0.0
 10
46.602234
 20
142.970855
 30
0.0
 10
47.462961
 20
143.142065
 30
0.0
 10
48.035284
 20
143.714388
 30
0.0
  0
SPLINE
  5
17f
100
AcDbEntity
  8
Layer_1
 62
7
100
AcDbSpline
 70
8
 71
3
 72
8
 73
4
 74
0
 40
0
 40
0
 40
0
 40
0
 40
1
 40
1
 40
1
 40
1
 10
48.035284
 20
143.714388
 30
0.0
 10
48.607607
 20
144.286711
 30
0.0
 10
48.778817
 20
145.147438
 30
0.0
 10
48.469078
 20
145.895214
 30
0.0
  0
SPLINE
  5
180
100
AcDbEntity
  8
Layer_1
 62
7
100
AcDbSpline
 70
8
 71
3
 72
8
 73
4
 74
0
 40
0
 40
0
 40
0
 40
0
 40
1
 40
1
 40
1
 40
1
 10
48.469078
 20
145.895214
 30
0.0
 10
48.159339
 20
146.642991
 30
0.0
 10
47.429649
 20
147.130553
 30
0.0
 10
46.620262
 20
147.130553
 30
0.0
  0
SPLINE
  5
181
100
AcDbEntity
  8
Layer_1
 62
7
100
AcDbSpline
 70
8
 71
3
 72
8
 73
4
 74
0
 40
0
 40
0
 40
0
 40
0
 40
1
 40
1
 40
1
 40
1
 10
46.620262
 20
147.130553
 30
0.0
 10
46.089526
 20
147.130553
 30
0.0
 10
45.580527
 20
146.919719
 30
0.0
 10
45.205240
 20
146.544432
 30
0.0
  0
SPLINE
  5
182
100
AcDbEntity
  8
Layer_1
 62
7
100
AcDbSpline
 70
8
 71
3
 72
8
 73
4
 74
0
 40
0
 40
0
 40
0
 40
0
 40
1
 40
1
 40
1
 40
1
 10
45.205240
 20
146.544432
 30
0.0
 10
44.829953
 20
146.169145
 30
0.0
 10
44.619118
 20
145.660146
 30
0.0
 10
44.619118
 20
145.129410
 30
0.0
  0
LWPOLYLINE
  5
183
100
AcDbEntity
  8
Layer_1
 62
7
100
AcDbPolyline
 90
1
 70
1
 10
44.619118
 20
137.129410
 30
0.0
  0
SPLINE
  5
184
100
AcDbEntity
  8
Layer_1
 62
7
100
AcDbSpline
 70
8
 71
3
 72
8
 73
4
 74
0
 40
0
 40
0
 40
0
 40
0
 40
1
 40
1
 40
1
 40
1
 10
44.619118
 20
153.129410
 30
0.0
 10
44.619118
 20
152.320023
 30
0.0
 10
45.106681
 20
151.590333
 30
0.0
 10
45.854458
 20
151.280594
 30
0.0
  0
SPLINE
  5
185
100
AcDbEntity
  8
Layer_1
 62
7
100
AcDbSpline
 70
8
 71
3
 72
8
 73
4
 74
0
 40
0
 40
0
 40
0
 40
0
 40
1
 40
1
 40
1
 40
1
 10
45.854458
 20
151.280594
 30
0.0
 10
46.602234
 20
150.970855
 30
0.0
 10
47.462961
 20
151.142065
 30
0.0
 10
48.035284
 20
151.714388
 30
0.0
  0
SPLINE
  5
186
100
AcDbEntity
  8
Layer_1
 62
7
100
AcDbSpline
 70
8
 71
3
 72
8
 73
4
 74
0
 40
0
 40
0
 40
0
 40
0
 40
1
 40
1
 40
1
 40
1
 10
48.035284
 20
151.714388
 30
0.0
 10
48.607607
 20
152.286711
 30
0.0
 10
48.778817
 20
153.147438
 30
0.0
 10
48.469078
 20
153.895214
 30
0.0
  0
SPLINE
  5
187
100
AcDbEntity
  8
Layer_1
 62
7
100
AcDbSpline
 70
8
 71
3
 72
8
 73
4
 74
0
 40
0
 40
0
 40
0
 40
0
 40
1
 40
1
 40
1
 40
1
 10
48.469078
 20
153.895214
 30
0.0
 10
48.159339
 20
154.642991
 30
0.0
 10
47.429649
 20
155.130554
 30
0.0
 10
46.620262
 20
155.130554
 30
0.0
  0
SPLINE
  5
188
100
AcDbEntity
  8
Layer_1
 62
7
100
AcDbSpline
 70
8
 71
3
 72
8
 73
4
 74
0
 40
0
 40
0
 40
0
 40
0
 40
1
 40
1
 40
1
 40
1
 10
46.620262
 20
155.130554
 30
0.0
 10
46.089526
 20
155.130554
 30
0.0
 10
45.580527
 20
154.919719
 30
0.0
 10
45.205240
 20
154.544432
 30
0.0
  0
SPLINE
  5
189
100
AcDbEntity
  8
Layer_1
 62
7
100
AcDbSpline
 70
8
 71
3
 72
8
 73
4
 74
0
 40
0
 40
0
 40
0
 40
0
 40
1
 40
1
 40
1
 40
1
 10
45.205240
 20
154.544432
 30
0.0
 10
44.829953
 20
154.169145
 30
0.0
 10
44.619118
 20
153.660146
 30
0.0
 10
44.619118
 20
153.129410
 30
0.0
  0
LWPOLYLINE
  5
18a
100
AcDbEntity
  8
Layer_1
 62
7
100
AcDbPolyline
 90
1
 70
1
 10
44.619118
 20
145.129410
 30
0.0
  0
SPLINE
  5
18b
100
AcDbEntity
  8
Layer_1
 62
7
100
AcDbSpline
 70
8
 71
3
 72
8
 73
4
 74
0
 40
0
 40
0
 40
0
 40
0
 40
1
 40
1
 40
1
 40
1
 10
44.619118
 20
161.129410
 30
0.0
 10
44.619118
 20
160.320023
 30
0.0
 10
45.106681
 20
159.590333
 30
0.0
 10
45.854458
 20
159.280594
 30
0.0
  0
SPLINE
  5
18c
100
AcDbEntity
  8
Layer_1
 62
7
100
AcDbSpline
 70
8
 71
3
 72
8
 73
4
 74
0
 40
0
 40
0
 40
0
 40
0
 40
1
 40
1
 40
1
 40
1
 10
45.854458
 20
159.280594
 30
0.0
 10
46.602234
 20
158.970855
 30
0.0
 10
47.462961
 20
159.142065
 30
0.0
 10
48.035284
 20
159.714388
 30
0.0
  0
SPLINE
  5
18d
100
AcDbEntity
  8
Layer_1
 62
7
100
AcDbSpline
 70
8
 71
3
 72
8
 73
4
 74
0
 40
0
 40
0
 40
0
 40
0
 40
1
 40
1
 40
1
 40
1
 10
48.035284
 20
159.714388
 30
0.0
 10
48.607607
 20
160.286711
 30
0.0
 10
48.778817
 20
161.147438
 30
0.0
 10
48.469078
 20
161.895214
 30
0.0
  0
SPLINE
  5
18e
100
AcDbEntity
  8
Layer_1
 62
7
100
AcDbSpline
 70
8
 71
3
 72
8
 73
4
 74
0
 40
0
 40
0
 40
0
 40
0
 40
1
 40
1
 40
1
 40
1
 10
48.469078
 20
161.895214
 30
0.0
 10
48.159339
 20
162.642991
 30
0.0
 10
47.429649
 20
163.130554
 30
0.0
 10
46.620262
 20
163.130554
 30
0.0
  0
SPLINE
  5
18f
100
AcDbEntity
  8
Layer_1
 62
7
100
AcDbSpline
 70
8
 71
3
 72
8
 73
4
 74
0
 40
0
 40
0
 40
0
 40
0
 40
1
 40
1
 40
1
 40
1
 10
46.620262
 20
163.130554
 30
0.0
 10
46.089526
 20
163.130554
 30
0.0
 10
45.580527
 20
162.919719
 30
0.0
 10
45.205240
 20
162.544432
 30
0.0
  0
SPLINE
  5
190
100
AcDbEntity
  8
Layer_1
 62
7
100
AcDbSpline
 70
8
 71
3
 72
8
 73
4
 74
0
 40
0
 40
0
 40
0
 40
0
 40
1
 40
1
 40
1
 40
1
 10
45.205240
 20
162.544432
 30
0.0
 10
44.829953
 20
162.169145
 30
0.0
 10
44.619118
 20
161.660146
 30
0.0
 10
44.619118
 20
161.129410
 30
0.0
  0
LWPOLYLINE
  5
191
100
AcDbEntity
  8
Layer_1
 62
7
100
AcDbPolyline
 90
1
 70
1
 10
44.619118
 20
153.129410
 30
0.0
  0
SPLINE
  5
192
100
AcDbEntity
  8
Layer_1
 62
7
100
AcDbSpline
 70
8
 71
3
 72
8
 73
4
 74
0
 40
0
 40
0
 40
0
 40
0
 40
1
 40
1
 40
1
 40
1
 10
44.619118
 20
169.129410
 30
0.0
 10
44.619118
 20
168.320023
 30
0.0
 10
45.106681
 20
167.590333
 30
0.0
 10
45.854458
 20
167.280594
 30
0.0
  0
SPLINE
  5
193
100
AcDbEntity
  8
Layer_1
 62
7
100
AcDbSpline
 70
8
 71
3
 72
8
 73
4
 74
0
 40
0
 40
0
 40
0
 40
0
 40
1
 40
1
 40
1
 40
1
 10
45.854458
 20
167.280594
 30
0.0
 10
46.602234
 20
166.970855
 30
0.0
 10
47.462961
 20
167.142065
 30
0.0
 10
48.035284
 20
167.714388
 30
0.0
  0
SPLINE
  5
194
100
AcDbEntity
  8
Layer_1
 62
7
100
AcDbSpline
 70
8
 71
3
 72
8
 73
4
 74
0
 40
0
 40
0
 40
0
 40
0
 40
1
 40
1
 40
1
 40
1
 10
48.035284
 20
167.714388
 30
0.0
 10
48.607607
 20
168.286711
 30
0.0
 10
48.778817
 20
169.147438
 30
0.0
 10
48.469078
 20
169.895214
 30
0.0
  0
SPLINE
  5
195
100
AcDbEntity
  8
Layer_1
 62
7
100
AcDbSpline
 70
8
 71
3
 72
8
 73
4
 74
0
 40
0
 40
0
 40
0
 40
0
 40
1
 40
1
 40
1
 40
1
 10
48.469078
 20
169.895214
 30
0.0
 10
48.159339
 20
170.642991
 30
0.0
 10
47.429649
 20
171.130554
 30
0.0
 10
46.620262
 20
171.130554
 30
0.0
  0
SPLINE
  5
196
100
AcDbEntity
  8
Layer_1
 62
7
100
AcDbSpline
 70
8
 71
3
 72
8
 73
4
 74
0
 40
0
 40
0
 40
0
 40
0
 40
1
 40
1
 40
1
 40
1
 10
46.620262
 20
171.130554
 30
0.0
 10
46.089526
 20
171.130554
 30
0.0
 10
45.580527
 20
170.919719
 30
0.0
 10
45.205240
 20
170.544432
 30
0.0
  0
SPLINE
  5
197
100
AcDbEntity
  8
Layer_1
 62
7
100
AcDbSpline
 70
8
 71
3
 72
8
 73
4
 74
0
 40
0
 40
0
 40
0
 40
0
 40
1
 40
1
 40
1
 40
1
 10
45.205240
 20
170.544432
 30
0.0
 10
44.829953
 20
170.169145
 30
0.0
 10
44.619118
 20
169.660146
 30
0.0
 10
44.619118
 20
169.129410
 30
0.0
  0
LWPOLYLINE
  5
198
100
AcDbEntity
  8
Layer_1
 62
7
100
AcDbPolyline
 90
1
 70
1
 10
44.619118
 20
161.129410
 30
0.0
  0
SPLINE
  5
199
100
AcDbEntity
  8
Layer_1
 62
7
100
AcDbSpline
 70
8
 71
3
 72
8
 73
4
 74
0
 40
0
 40
0
 40
0
 40
0
 40
1
 40
1
 40
1
 40
1
 10
44.619118
 20
177.129410
 30
0.0
 10
44.619118
 20
176.320023
 30
0.0
 10
45.106681
 20
175.590333
 30
0.0
 10
45.854458
 20
175.280594
 30
0.0
  0
SPLINE
  5
19a
100
AcDbEntity
  8
Layer_1
 62
7
100
AcDbSpline
 70
8
 71
3
 72
8
 73
4
 74
0
 40
0
 40
0
 40
0
 40
0
 40
1
 40
1
 40
1
 40
1
 10
45.854458
 20
175.280594
 30
0.0
 10
46.602234
 20
174.970855
 30
0.0
 10
47.462961
 20
175.142065
 30
0.0
 10
48.035284
 20
175.714388
 30
0.0
  0
SPLINE
  5
19b
100
AcDbEntity
  8
Layer_1
 62
7
100
AcDbSpline
 70
8
 71
3
 72
8
 73
4
 74
0
 40
0
 40
0
 40
0
 40
0
 40
1
 40
1
 40
1
 40
1
 10
48.035284
 20
175.714388
 30
0.0
 10
48.607607
 20
176.286711
 30
0.0
 10
48.778817
 20
177.147438
 30
0.0
 10
48.469078
 20
177.895214
 30
0.0
  0
SPLINE
  5
19c
100
AcDbEntity
  8
Layer_1
 62
7
100
AcDbSpline
 70
8
 71
3
 72
8
 73
4
 74
0
 40
0
 40
0
 40
0
 40
0
 40
1
 40
1
 40
1
 40
1
 10
48.469078
 20
177.895214
 30
0.0
 10
48.159339
 20
178.642991
 30
0.0
 10
47.429649
 20
179.130554
 30
0.0
 10
46.620262
 20
179.130554
 30
0.0
  0
SPLINE
  5
19d
100
AcDbEntity
  8
Layer_1
 62
7
100
AcDbSpline
 70
8
 71
3
 72
8
 73
4
 74
0
 40
0
 40
0
 40
0
 40
0
 40
1
 40
1
 40
1
 40
1
 10
46.620262
 20
179.130554
 30
0.0
 10
46.089526
 20
179.130554
 30
0.0
 10
45.580527
 20
178.919719
 30
0.0
 10
45.205240
 20
178.544432
 30
0.0
  0
SPLINE
  5
19e
100
AcDbEntity
  8
Layer_1
 62
7
100
AcDbSpline
 70
8
 71
3
 72
8
 73
4
 74
0
 40
0
 40
0
 40
0
 40
0
 40
1
 40
1
 40
1
 40
1
 10
45.205240
 20
178.544432
 30
0.0
 10
44.829953
 20
178.169145
 30
0.0
 10
44.619118
 20
177.660146
 30
0.0
 10
44.619118
 20
177.129410
 30
0.0
  0
LWPOLYLINE
  5
19f
100
AcDbEntity
  8
Layer_1
 62
7
100
AcDbPolyline
 90
1
 70
1
 10
44.619118
 20
169.129410
 30
0.0
  0
SPLINE
  5
1a0
100
AcDbEntity
  8
Layer_1
 62
7
100
AcDbSpline
 70
8
 71
3
 72
8
 73
4
 74
0
 40
0
 40
0
 40
0
 40
0
 40
1
 40
1
 40
1
 40
1
 10
404.619077
 20
113.129370
 30
0.0
 10
404.619077
 20
112.319983
 30
0.0
 10
405.106639
 20
111.590293
 30
0.0
 10
405.854416
 20
111.280554
 30
0.0
  0
SPLINE
  5
1a1
100
AcDbEntity
  8
Layer_1
 62
7
100
AcDbSpline
 70
8
 71
3
 72
8
 73
4
 74
0
 40
0
 40
0
 40
0
 40
0
 40
1
 40
1
 40
1
 40
1
 10
405.854416
 20
111.280554
 30
0.0
 10
406.602192
 20
110.970815
 30
0.0
 10
407.462919
 20
111.142025
 30
0.0
 10
408.035242
 20
111.714348
 30
0.0
  0
SPLINE
  5
1a2
100
AcDbEntity
  8
Layer_1
 62
7
100
AcDbSpline
 70
8
 71
3
 72
8
 73
4
 74
0
 40
0
 40
0
 40
0
 40
0
 40
1
 40
1
 40
1
 40
1
 10
408.035242
 20
111.714348
 30
0.0
 10
408.607565
 20
112.286671
 30
0.0
 10
408.778775
 20
113.147398
 30
0.0
 10
408.469036
 20
113.895174
 30
0.0
  0
SPLINE
  5
1a3
100
AcDbEntity
  8
Layer_1
 62
7
100
AcDbSpline
 70
8
 71
3
 72
8
 73
4
 74
0
 40
0
 40
0
 40
0
 40
0
 40
1
 40
1
 40
1
 40
1
 10
408.469036
 20
113.895174
 30
0.0
 10
408.159297
 20
114.642951
 30
0.0
 10
407.429607
 20
115.130513
 30
0.0
 10
406.620220
 20
115.130513
 30
0.0
  0
SPLINE
  5
1a4
100
AcDbEntity
  8
Layer_1
 62
7
100
AcDbSpline
 70
8
 71
3
 72
8
 73
4
 74
0
 40
0
 40
0
 40
0
 40
0
 40
1
 40
1
 40
1
 40
1
 10
406.620220
 20
115.130513
 30
0.0
 10
406.089484
 20
115.130513
 30
0.0
 10
405.580485
 20
114.919679
 30
0.0
 10
405.205198
 20
114.544392
 30
0.0
  0
SPLINE
  5
1a5
100
AcDbEntity
  8
Layer_1
 62
7
100
AcDbSpline
 70
8
 71
3
 72
8
 73
4
 74
0
 40
0
 40
0
 40
0
 40
0
 40
1
 40
1
 40
1
 40
1
 10
405.205198
 20
114.544392
 30
0.0
 10
404.829911
 20
114.169105
 30
0.0
 10
404.619077
 20
113.660106
 30
0.0
 10
404.619077
 20
113.129370
 30
0.0
  0
LWPOLYLINE
  5
1a6
100
AcDbEntity
  8
Layer_1
 62
7
100
AcDbPolyline
 90
1
 70
1
 10
44.619118
 20
177.129410
 30
0.0
  0
SPLINE
  5
1a7
100
AcDbEntity
  8
Layer_1
 62
7
100
AcDbSpline
 70
8
 71
3
 72
8
 73
4
 74
0
 40
0
 40
0
 40
0
 40
0
 40
1
 40
1
 40
1
 40
1
 10
404.619077
 20
121.129370
 30
0.0
 10
404.619077
 20
120.024169
 30
0.0
 10
405.515019
 20
119.128226
 30
0.0
 10
406.620220
 20
119.128226
 30
0.0
  0
SPLINE
  5
1a8
100
AcDbEntity
  8
Layer_1
 62
7
100
AcDbSpline
 70
8
 71
3
 72
8
 73
4
 74
0
 40
0
 40
0
 40
0
 40
0
 40
1
 40
1
 40
1
 40
1
 10
406.620220
 20
119.128226
 30
0.0
 10
407.725421
 20
119.128226
 30
0.0
 10
408.621364
 20
120.024169
 30
0.0
 10
408.621364
 20
121.129370
 30
0.0
  0
SPLINE
  5
1a9
100
AcDbEntity
  8
Layer_1
 62
7
100
AcDbSpline
 70
8
 71
3
 72
8
 73
4
 74
0
 40
0
 40
0
 40
0
 40
0
 40
1
 40
1
 40
1
 40
1
 10
408.621364
 20
121.129370
 30
0.0
 10
408.621364
 20
122.234571
 30
0.0
 10
407.725421
 20
123.130513
 30
0.0
 10
406.620220
 20
123.130513
 30
0.0
  0
SPLINE
  5
1aa
100
AcDbEntity
  8
Layer_1
 62
7
100
AcDbSpline
 70
8
 71
3
 72
8
 73
4
 74
0
 40
0
 40
0
 40
0
 40
0
 40
1
 40
1
 40
1
 40
1
 10
406.620220
 20
123.130513
 30
0.0
 10
406.089484
 20
123.130513
 30
0.0
 10
405.580485
 20
122.919679
 30
0.0
 10
405.205198
 20
122.544392
 30
0.0
  0
SPLINE
  5
1ab
100
AcDbEntity
  8
Layer_1
 62
7
100
AcDbSpline
 70
8
 71
3
 72
8
 73
4
 74
0
 40
0
 40
0
 40
0
 40
0
 40
1
 40
1
 40
1
 40
1
 10
405.205198
 20
122.544392
 30
0.0
 10
404.829911
 20
122.169105
 30
0.0
 10
404.619077
 20
121.660106
 30
0.0
 10
404.619077
 20
121.129370
 30
0.0
  0
LWPOLYLINE
  5
1ac
100
AcDbEntity
  8
Layer_1
 62
7
100
AcDbPolyline
 90
1
 70
1
 10
404.619077
 20
113.129370
 30
0.0
  0
SPLINE
  5
1ad
100
AcDbEntity
  8
Layer_1
 62
7
100
AcDbSpline
 70
8
 71
3
 72
8
 73
4
 74
0
 40
0
 40
0
 40
0
 40
0
 40
1
 40
1
 40
1
 40
1
 10
404.619077
 20
129.129370
 30
0.0
 10
404.619077
 20
128.319983
 30
0.0
 10
405.106639
 20
127.590293
 30
0.0
 10
405.854416
 20
127.280554
 30
0.0
  0
SPLINE
  5
1ae
100
AcDbEntity
  8
Layer_1
 62
7
100
AcDbSpline
 70
8
 71
3
 72
8
 73
4
 74
0
 40
0
 40
0
 40
0
 40
0
 40
1
 40
1
 40
1
 40
1
 10
405.854416
 20
127.280554
 30
0.0
 10
406.602192
 20
126.970815
 30
0.0
 10
407.462919
 20
127.142025
 30
0.0
 10
408.035242
 20
127.714348
 30
0.0
  0
SPLINE
  5
1af
100
AcDbEntity
  8
Layer_1
 62
7
100
AcDbSpline
 70
8
 71
3
 72
8
 73
4
 74
0
 40
0
 40
0
 40
0
 40
0
 40
1
 40
1
 40
1
 40
1
 10
408.035242
 20
127.714348
 30
0.0
 10
408.607565
 20
128.286671
 30
0.0
 10
408.778775
 20
129.147398
 30
0.0
 10
408.469036
 20
129.895174
 30
0.0
  0
SPLINE
  5
1b0
100
AcDbEntity
  8
Layer_1
 62
7
100
AcDbSpline
 70
8
 71
3
 72
8
 73
4
 74
0
 40
0
 40
0
 40
0
 40
0
 40
1
 40
1
 40
1
 40
1
 10
408.469036
 20
129.895174
 30
0.0
 10
408.159297
 20
130.642951
 30
0.0
 10
407.429607
 20
131.130513
 30
0.0
 10
406.620220
 20
131.130513
 30
0.0
  0
SPLINE
  5
1b1
100
AcDbEntity
  8
Layer_1
 62
7
100
AcDbSpline
 70
8
 71
3
 72
8
 73
4
 74
0
 40
0
 40
0
 40
0
 40
0
 40
1
 40
1
 40
1
 40
1
 10
406.620220
 20
131.130513
 30
0.0
 10
406.089484
 20
131.130513
 30
0.0
 10
405.580485
 20
130.919679
 30
0.0
 10
405.205198
 20
130.544392
 30
0.0
  0
SPLINE
  5
1b2
100
AcDbEntity
  8
Layer_1
 62
7
100
AcDbSpline
 70
8
 71
3
 72
8
 73
4
 74
0
 40
0
 40
0
 40
0
 40
0
 40
1
 40
1
 40
1
 40
1
 10
405.205198
 20
130.544392
 30
0.0
 10
404.829911
 20
130.169105
 30
0.0
 10
404.619077
 20
129.660106
 30
0.0
 10
404.619077
 20
129.129370
 30
0.0
  0
LWPOLYLINE
  5
1b3
100
AcDbEntity
  8
Layer_1
 62
7
100
AcDbPolyline
 90
1
 70
1
 10
404.619077
 20
121.129370
 30
0.0
  0
SPLINE
  5
1b4
100
AcDbEntity
  8
Layer_1
 62
7
100
AcDbSpline
 70
8
 71
3
 72
8
 73
4
 74
0
 40
0
 40
0
 40
0
 40
0
 40
1
 40
1
 40
1
 40
1
 10
404.619077
 20
137.129370
 30
0.0
 10
404.619077
 20
136.024169
 30
0.0
 10
405.515019
 20
135.128226
 30
0.0
 10
406.620220
 20
135.128227
 30
0.0
  0
SPLINE
  5
1b5
100
AcDbEntity
  8
Layer_1
 62
7
100
AcDbSpline
 70
8
 71
3
 72
8
 73
4
 74
0
 40
0
 40
0
 40
0
 40
0
 40
1
 40
1
 40
1
 40
1
 10
406.620220
 20
135.128227
 30
0.0
 10
407.725421
 20
135.128227
 30
0.0
 10
408.621364
 20
136.024169
 30
0.0
 10
408.621364
 20
137.129370
 30
0.0
  0
SPLINE
  5
1b6
100
AcDbEntity
  8
Layer_1
 62
7
100
AcDbSpline
 70
8
 71
3
 72
8
 73
4
 74
0
 40
0
 40
0
 40
0
 40
0
 40
1
 40
1
 40
1
 40
1
 10
408.621364
 20
137.129370
 30
0.0
 10
408.621364
 20
138.234571
 30
0.0
 10
407.725421
 20
139.130514
 30
0.0
 10
406.620220
 20
139.130514
 30
0.0
  0
SPLINE
  5
1b7
100
AcDbEntity
  8
Layer_1
 62
7
100
AcDbSpline
 70
8
 71
3
 72
8
 73
4
 74
0
 40
0
 40
0
 40
0
 40
0
 40
1
 40
1
 40
1
 40
1
 10
406.620220
 20
139.130514
 30
0.0
 10
406.089484
 20
139.130514
 30
0.0
 10
405.580485
 20
138.919679
 30
0.0
 10
405.205198
 20
138.544392
 30
0.0
  0
SPLINE
  5
1b8
100
AcDbEntity
  8
Layer_1
 62
7
100
AcDbSpline
 70
8
 71
3
 72
8
 73
4
 74
0
 40
0
 40
0
 40
0
 40
0
 40
1
 40
1
 40
1
 40
1
 10
405.205198
 20
138.544392
 30
0.0
 10
404.829911
 20
138.169105
 30
0.0
 10
404.619077
 20
137.660106
 30
0.0
 10
404.619077
 20
137.129370
 30
0.0
  0
LWPOLYLINE
  5
1b9
100
AcDbEntity
  8
Layer_1
 62
7
100
AcDbPolyline
 90
1
 70
1
 10
404.619077
 20
129.129370
 30
0.0
  0
SPLINE
  5
1ba
100
AcDbEntity
  8
Layer_1
 62
7
100
AcDbSpline
 70
8
 71
3
 72
8
 73
4
 74
0
 40
0
 40
0
 40
0
 40
0
 40
1
 40
1
 40
1
 40
1
 10
404.619077
 20
145.129370
 30
0.0
 10
404.619077
 20
144.319983
 30
0.0
 10
405.106639
 20
143.590293
 30
0.0
 10
405.854416
 20
143.280554
 30
0.0
  0
SPLINE
  5
1bb
100
AcDbEntity
  8
Layer_1
 62
7
100
AcDbSpline
 70
8
 71
3
 72
8
 73
4
 74
0
 40
0
 40
0
 40
0
 40
0
 40
1
 40
1
 40
1
 40
1
 10
405.854416
 20
143.280554
 30
0.0
 10
406.602192
 20
142.970815
 30
0.0
 10
407.462919
 20
143.142025
 30
0.0
 10
408.035242
 20
143.714348
 30
0.0
  0
SPLINE
  5
1bc
100
AcDbEntity
  8
Layer_1
 62
7
100
AcDbSpline
 70
8
 71
3
 72
8
 73
4
 74
0
 40
0
 40
0
 40
0
 40
0
 40
1
 40
1
 40
1
 40
1
 10
408.035242
 20
143.714348
 30
0.0
 10
408.607565
 20
144.286671
 30
0.0
 10
408.778775
 20
145.147398
 30
0.0
 10
408.469036
 20
145.895174
 30
0.0
  0
SPLINE
  5
1bd
100
AcDbEntity
  8
Layer_1
 62
7
100
AcDbSpline
 70
8
 71
3
 72
8
 73
4
 74
0
 40
0
 40
0
 40
0
 40
0
 40
1
 40
1
 40
1
 40
1
 10
408.469036
 20
145.895174
 30
0.0
 10
408.159297
 20
146.642951
 30
0.0
 10
407.429607
 20
147.130513
 30
0.0
 10
406.620220
 20
147.130513
 30
0.0
  0
SPLINE
  5
1be
100
AcDbEntity
  8
Layer_1
 62
7
100
AcDbSpline
 70
8
 71
3
 72
8
 73
4
 74
0
 40
0
 40
0
 40
0
 40
0
 40
1
 40
1
 40
1
 40
1
 10
406.620220
 20
147.130513
 30
0.0
 10
406.089484
 20
147.130513
 30
0.0
 10
405.580485
 20
146.919679
 30
0.0
 10
405.205198
 20
146.544392
 30
0.0
  0
SPLINE
  5
1bf
100
AcDbEntity
  8
Layer_1
 62
7
100
AcDbSpline
 70
8
 71
3
 72
8
 73
4
 74
0
 40
0
 40
0
 40
0
 40
0
 40
1
 40
1
 40
1
 40
1
 10
405.205198
 20
146.544392
 30
0.0
 10
404.829911
 20
146.169105
 30
0.0
 10
404.619077
 20
145.660106
 30
0.0
 10
404.619077
 20
145.129370
 30
0.0
  0
LWPOLYLINE
  5
1c0
100
AcDbEntity
  8
Layer_1
 62
7
100
AcDbPolyline
 90
1
 70
1
 10
404.619077
 20
137.129370
 30
0.0
  0
SPLINE
  5
1c1
100
AcDbEntity
  8
Layer_1
 62
7
100
AcDbSpline
 70
8
 71
3
 72
8
 73
4
 74
0
 40
0
 40
0
 40
0
 40
0
 40
1
 40
1
 40
1
 40
1
 10
404.619077
 20
153.129370
 30
0.0
 10
404.619077
 20
152.024169
 30
0.0
 10
405.515019
 20
151.128226
 30
0.0
 10
406.620220
 20
151.128226
 30
0.0
  0
SPLINE
  5
1c2
100
AcDbEntity
  8
Layer_1
 62
7
100
AcDbSpline
 70
8
 71
3
 72
8
 73
4
 74
0
 40
0
 40
0
 40
0
 40
0
 40
1
 40
1
 40
1
 40
1
 10
406.620220
 20
151.128226
 30
0.0
 10
407.725421
 20
151.128226
 30
0.0
 10
408.621364
 20
152.024169
 30
0.0
 10
408.621364
 20
153.129370
 30
0.0
  0
SPLINE
  5
1c3
100
AcDbEntity
  8
Layer_1
 62
7
100
AcDbSpline
 70
8
 71
3
 72
8
 73
4
 74
0
 40
0
 40
0
 40
0
 40
0
 40
1
 40
1
 40
1
 40
1
 10
408.621364
 20
153.129370
 30
0.0
 10
408.621364
 20
154.234571
 30
0.0
 10
407.725421
 20
155.130513
 30
0.0
 10
406.620220
 20
155.130513
 30
0.0
  0
SPLINE
  5
1c4
100
AcDbEntity
  8
Layer_1
 62
7
100
AcDbSpline
 70
8
 71
3
 72
8
 73
4
 74
0
 40
0
 40
0
 40
0
 40
0
 40
1
 40
1
 40
1
 40
1
 10
406.620220
 20
155.130513
 30
0.0
 10
406.089484
 20
155.130513
 30
0.0
 10
405.580485
 20
154.919679
 30
0.0
 10
405.205198
 20
154.544392
 30
0.0
  0
SPLINE
  5
1c5
100
AcDbEntity
  8
Layer_1
 62
7
100
AcDbSpline
 70
8
 71
3
 72
8
 73
4
 74
0
 40
0
 40
0
 40
0
 40
0
 40
1
 40
1
 40
1
 40
1
 10
405.205198
 20
154.544392
 30
0.0
 10
404.829911
 20
154.169105
 30
0.0
 10
404.619077
 20
153.660106
 30
0.0
 10
404.619077
 20
153.129370
 30
0.0
  0
LWPOLYLINE
  5
1c6
100
AcDbEntity
  8
Layer_1
 62
7
100
AcDbPolyline
 90
1
 70
1
 10
404.619077
 20
145.129370
 30
0.0
  0
SPLINE
  5
1c7
100
AcDbEntity
  8
Layer_1
 62
7
100
AcDbSpline
 70
8
 71
3
 72
8
 73
4
 74
0
 40
0
 40
0
 40
0
 40
0
 40
1
 40
1
 40
1
 40
1
 10
404.619077
 20
161.129370
 30
0.0
 10
404.619077
 20
160.319983
 30
0.0
 10
405.106639
 20
159.590293
 30
0.0
 10
405.854416
 20
159.280554
 30
0.0
  0
SPLINE
  5
1c8
100
AcDbEntity
  8
Layer_1
 62
7
100
AcDbSpline
 70
8
 71
3
 72
8
 73
4
 74
0
 40
0
 40
0
 40
0
 40
0
 40
1
 40
1
 40
1
 40
1
 10
405.854416
 20
159.280554
 30
0.0
 10
406.602192
 20
158.970815
 30
0.0
 10
407.462919
 20
159.142025
 30
0.0
 10
408.035242
 20
159.714348
 30
0.0
  0
SPLINE
  5
1c9
100
AcDbEntity
  8
Layer_1
 62
7
100
AcDbSpline
 70
8
 71
3
 72
8
 73
4
 74
0
 40
0
 40
0
 40
0
 40
0
 40
1
 40
1
 40
1
 40
1
 10
408.035242
 20
159.714348
 30
0.0
 10
408.607565
 20
160.286671
 30
0.0
 10
408.778775
 20
161.147398
 30
0.0
 10
408.469036
 20
161.895174
 30
0.0
  0
SPLINE
  5
1ca
100
AcDbEntity
  8
Layer_1
 62
7
100
AcDbSpline
 70
8
 71
3
 72
8
 73
4
 74
0
 40
0
 40
0
 40
0
 40
0
 40
1
 40
1
 40
1
 40
1
 10
408.469036
 20
161.895174
 30
0.0
 10
408.159297
 20
162.642951
 30
0.0
 10
407.429607
 20
163.130513
 30
0.0
 10
406.620220
 20
163.130513
 30
0.0
  0
SPLINE
  5
1cb
100
AcDbEntity
  8
Layer_1
 62
7
100
AcDbSpline
 70
8
 71
3
 72
8
 73
4
 74
0
 40
0
 40
0
 40
0
 40
0
 40
1
 40
1
 40
1
 40
1
 10
406.620220
 20
163.130513
 30
0.0
 10
406.089484
 20
163.130513
 30
0.0
 10
405.580485
 20
162.919679
 30
0.0
 10
405.205198
 20
162.544392
 30
0.0
  0
SPLINE
  5
1cc
100
AcDbEntity
  8
Layer_1
 62
7
100
AcDbSpline
 70
8
 71
3
 72
8
 73
4
 74
0
 40
0
 40
0
 40
0
 40
0
 40
1
 40
1
 40
1
 40
1
 10
405.205198
 20
162.544392
 30
0.0
 10
404.829911
 20
162.169105
 30
0.0
 10
404.619077
 20
161.660106
 30
0.0
 10
404.619077
 20
161.129370
 30
0.0
  0
LWPOLYLINE
  5
1cd
100
AcDbEntity
  8
Layer_1
 62
7
100
AcDbPolyline
 90
1
 70
1
 10
404.619077
 20
153.129370
 30
0.0
  0
SPLINE
  5
1ce
100
AcDbEntity
  8
Layer_1
 62
7
100
AcDbSpline
 70
8
 71
3
 72
8
 73
4
 74
0
 40
0
 40
0
 40
0
 40
0
 40
1
 40
1
 40
1
 40
1
 10
404.619077
 20
169.129370
 30
0.0
 10
404.619077
 20
168.024169
 30
0.0
 10
405.515019
 20
167.128226
 30
0.0
 10
406.620220
 20
167.128227
 30
0.0
  0
SPLINE
  5
1cf
100
AcDbEntity
  8
Layer_1
 62
7
100
AcDbSpline
 70
8
 71
3
 72
8
 73
4
 74
0
 40
0
 40
0
 40
0
 40
0
 40
1
 40
1
 40
1
 40
1
 10
406.620220
 20
167.128227
 30
0.0
 10
407.725421
 20
167.128227
 30
0.0
 10
408.621364
 20
168.024169
 30
0.0
 10
408.621364
 20
169.129370
 30
0.0
  0
SPLINE
  5
1d0
100
AcDbEntity
  8
Layer_1
 62
7
100
AcDbSpline
 70
8
 71
3
 72
8
 73
4
 74
0
 40
0
 40
0
 40
0
 40
0
 40
1
 40
1
 40
1
 40
1
 10
408.621364
 20
169.129370
 30
0.0
 10
408.621364
 20
170.234571
 30
0.0
 10
407.725421
 20
171.130514
 30
0.0
 10
406.620220
 20
171.130514
 30
0.0
  0
SPLINE
  5
1d1
100
AcDbEntity
  8
Layer_1
 62
7
100
AcDbSpline
 70
8
 71
3
 72
8
 73
4
 74
0
 40
0
 40
0
 40
0
 40
0
 40
1
 40
1
 40
1
 40
1
 10
406.620220
 20
171.130514
 30
0.0
 10
406.089484
 20
171.130514
 30
0.0
 10
405.580485
 20
170.919679
 30
0.0
 10
405.205198
 20
170.544392
 30
0.0
  0
SPLINE
  5
1d2
100
AcDbEntity
  8
Layer_1
 62
7
100
AcDbSpline
 70
8
 71
3
 72
8
 73
4
 74
0
 40
0
 40
0
 40
0
 40
0
 40
1
 40
1
 40
1
 40
1
 10
405.205198
 20
170.544392
 30
0.0
 10
404.829911
 20
170.169105
 30
0.0
 10
404.619077
 20
169.660106
 30
0.0
 10
404.619077
 20
169.129370
 30
0.0
  0
LWPOLYLINE
  5
1d3
100
AcDbEntity
  8
Layer_1
 62
7
100
AcDbPolyline
 90
1
 70
1
 10
404.619077
 20
161.129370
 30
0.0
  0
SPLINE
  5
1d4
100
AcDbEntity
  8
Layer_1
 62
7
100
AcDbSpline
 70
8
 71
3
 72
8
 73
4
 74
0
 40
0
 40
0
 40
0
 40
0
 40
1
 40
1
 40
1
 40
1
 10
404.619077
 20
177.129370
 30
0.0
 10
404.619077
 20
176.319983
 30
0.0
 10
405.106639
 20
175.590293
 30
0.0
 10
405.854416
 20
175.280554
 30
0.0
  0
SPLINE
  5
1d5
100
AcDbEntity
  8
Layer_1
 62
7
100
AcDbSpline
 70
8
 71
3
 72
8
 73
4
 74
0
 40
0
 40
0
 40
0
 40
0
 40
1
 40
1
 40
1
 40
1
 10
405.854416
 20
175.280554
 30
0.0
 10
406.602192
 20
174.970815
 30
0.0
 10
407.462919
 20
175.142025
 30
0.0
 10
408.035242
 20
175.714348
 30
0.0
  0
SPLINE
  5
1d6
100
AcDbEntity
  8
Layer_1
 62
7
100
AcDbSpline
 70
8
 71
3
 72
8
 73
4
 74
0
 40
0
 40
0
 40
0
 40
0
 40
1
 40
1
 40
1
 40
1
 10
408.035242
 20
175.714348
 30
0.0
 10
408.607565
 20
176.286671
 30
0.0
 10
408.778775
 20
177.147398
 30
0.0
 10
408.469036
 20
177.895174
 30
0.0
  0
SPLINE
  5
1d7
100
AcDbEntity
  8
Layer_1
 62
7
100
AcDbSpline
 70
8
 71
3
 72
8
 73
4
 74
0
 40
0
 40
0
 40
0
 40
0
 40
1
 40
1
 40
1
 40
1
 10
408.469036
 20
177.895174
 30
0.0
 10
408.159297
 20
178.642951
 30
0.0
 10
407.429607
 20
179.130514
 30
0.0
 10
406.620220
 20
179.130514
 30
0.0
  0
SPLINE
  5
1d8
100
AcDbEntity
  8
Layer_1
 62
7
100
AcDbSpline
 70
8
 71
3
 72
8
 73
4
 74
0
 40
0
 40
0
 40
0
 40
0
 40
1
 40
1
 40
1
 40
1
 10
406.620220
 20
179.130514
 30
0.0
 10
406.089484
 20
179.130514
 30
0.0
 10
405.580485
 20
178.919679
 30
0.0
 10
405.205198
 20
178.544392
 30
0.0
  0
SPLINE
  5
1d9
100
AcDbEntity
  8
Layer_1
 62
7
100
AcDbSpline
 70
8
 71
3
 72
8
 73
4
 74
0
 40
0
 40
0
 40
0
 40
0
 40
1
 40
1
 40
1
 40
1
 10
405.205198
 20
178.544392
 30
0.0
 10
404.829911
 20
178.169105
 30
0.0
 10
404.619077
 20
177.660106
 30
0.0
 10
404.619077
 20
177.129370
 30
0.0
  0
LWPOLYLINE
  5
1da
100
AcDbEntity
  8
Layer_1
 62
7
100
AcDbPolyline
 90
1
 70
1
 10
404.619077
 20
169.129370
 30
0.0
  0
SPLINE
  5
1db
100
AcDbEntity
  8
Layer_1
 62
7
100
AcDbSpline
 70
8
 71
3
 72
8
 73
4
 74
0
 40
0
 40
0
 40
0
 40
0
 40
1
 40
1
 40
1
 40
1
 10
372.619077
 20
113.129370
 30
0.0
 10
372.619077
 20
112.319983
 30
0.0
 10
373.106639
 20
111.590293
 30
0.0
 10
373.854416
 20
111.280554
 30
0.0
  0
SPLINE
  5
1dc
100
AcDbEntity
  8
Layer_1
 62
7
100
AcDbSpline
 70
8
 71
3
 72
8
 73
4
 74
0
 40
0
 40
0
 40
0
 40
0
 40
1
 40
1
 40
1
 40
1
 10
373.854416
 20
111.280554
 30
0.0
 10
374.602192
 20
110.970815
 30
0.0
 10
375.462919
 20
111.142025
 30
0.0
 10
376.035242
 20
111.714348
 30
0.0
  0
SPLINE
  5
1dd
100
AcDbEntity
  8
Layer_1
 62
7
100
AcDbSpline
 70
8
 71
3
 72
8
 73
4
 74
0
 40
0
 40
0
 40
0
 40
0
 40
1
 40
1
 40
1
 40
1
 10
376.035242
 20
111.714348
 30
0.0
 10
376.607565
 20
112.286671
 30
0.0
 10
376.778775
 20
113.147398
 30
0.0
 10
376.469036
 20
113.895174
 30
0.0
  0
SPLINE
  5
1de
100
AcDbEntity
  8
Layer_1
 62
7
100
AcDbSpline
 70
8
 71
3
 72
8
 73
4
 74
0
 40
0
 40
0
 40
0
 40
0
 40
1
 40
1
 40
1
 40
1
 10
376.469036
 20
113.895174
 30
0.0
 10
376.159297
 20
114.642951
 30
0.0
 10
375.429607
 20
115.130513
 30
0.0
 10
374.620220
 20
115.130513
 30
0.0
  0
SPLINE
  5
1df
100
AcDbEntity
  8
Layer_1
 62
7
100
AcDbSpline
 70
8
 71
3
 72
8
 73
4
 74
0
 40
0
 40
0
 40
0
 40
0
 40
1
 40
1
 40
1
 40
1
 10
374.620220
 20
115.130513
 30
0.0
 10
374.089484
 20
115.130513
 30
0.0
 10
373.580485
 20
114.919679
 30
0.0
 10
373.205198
 20
114.544392
 30
0.0
  0
SPLINE
  5
1e0
100
AcDbEntity
  8
Layer_1
 62
7
100
AcDbSpline
 70
8
 71
3
 72
8
 73
4
 74
0
 40
0
 40
0
 40
0
 40
0
 40
1
 40
1
 40
1
 40
1
 10
373.205198
 20
114.544392
 30
0.0
 10
372.829911
 20
114.169105
 30
0.0
 10
372.619077
 20
113.660106
 30
0.0
 10
372.619077
 20
113.129370
 30
0.0
  0
LWPOLYLINE
  5
1e1
100
AcDbEntity
  8
Layer_1
 62
7
100
AcDbPolyline
 90
1
 70
1
 10
404.619077
 20
177.129370
 30
0.0
  0
SPLINE
  5
1e2
100
AcDbEntity
  8
Layer_1
 62
7
100
AcDbSpline
 70
8
 71
3
 72
8
 73
4
 74
0
 40
0
 40
0
 40
0
 40
0
 40
1
 40
1
 40
1
 40
1
 10
372.619077
 20
121.129370
 30
0.0
 10
372.619077
 20
120.024169
 30
0.0
 10
373.515019
 20
119.128226
 30
0.0
 10
374.620220
 20
119.128226
 30
0.0
  0
SPLINE
  5
1e3
100
AcDbEntity
  8
Layer_1
 62
7
100
AcDbSpline
 70
8
 71
3
 72
8
 73
4
 74
0
 40
0
 40
0
 40
0
 40
0
 40
1
 40
1
 40
1
 40
1
 10
374.620220
 20
119.128226
 30
0.0
 10
375.725421
 20
119.128226
 30
0.0
 10
376.621364
 20
120.024169
 30
0.0
 10
376.621364
 20
121.129370
 30
0.0
  0
SPLINE
  5
1e4
100
AcDbEntity
  8
Layer_1
 62
7
100
AcDbSpline
 70
8
 71
3
 72
8
 73
4
 74
0
 40
0
 40
0
 40
0
 40
0
 40
1
 40
1
 40
1
 40
1
 10
376.621364
 20
121.129370
 30
0.0
 10
376.621364
 20
122.234571
 30
0.0
 10
375.725421
 20
123.130513
 30
0.0
 10
374.620220
 20
123.130513
 30
0.0
  0
SPLINE
  5
1e5
100
AcDbEntity
  8
Layer_1
 62
7
100
AcDbSpline
 70
8
 71
3
 72
8
 73
4
 74
0
 40
0
 40
0
 40
0
 40
0
 40
1
 40
1
 40
1
 40
1
 10
374.620220
 20
123.130513
 30
0.0
 10
374.089484
 20
123.130513
 30
0.0
 10
373.580485
 20
122.919679
 30
0.0
 10
373.205198
 20
122.544392
 30
0.0
  0
SPLINE
  5
1e6
100
AcDbEntity
  8
Layer_1
 62
7
100
AcDbSpline
 70
8
 71
3
 72
8
 73
4
 74
0
 40
0
 40
0
 40
0
 40
0
 40
1
 40
1
 40
1
 40
1
 10
373.205198
 20
122.544392
 30
0.0
 10
372.829911
 20
122.169105
 30
0.0
 10
372.619077
 20
121.660106
 30
0.0
 10
372.619077
 20
121.129370
 30
0.0
  0
LWPOLYLINE
  5
1e7
100
AcDbEntity
  8
Layer_1
 62
7
100
AcDbPolyline
 90
1
 70
1
 10
372.619077
 20
113.129370
 30
0.0
  0
SPLINE
  5
1e8
100
AcDbEntity
  8
Layer_1
 62
7
100
AcDbSpline
 70
8
 71
3
 72
8
 73
4
 74
0
 40
0
 40
0
 40
0
 40
0
 40
1
 40
1
 40
1
 40
1
 10
372.619077
 20
129.129370
 30
0.0
 10
372.619077
 20
128.319983
 30
0.0
 10
373.106639
 20
127.590293
 30
0.0
 10
373.854416
 20
127.280554
 30
0.0
  0
SPLINE
  5
1e9
100
AcDbEntity
  8
Layer_1
 62
7
100
AcDbSpline
 70
8
 71
3
 72
8
 73
4
 74
0
 40
0
 40
0
 40
0
 40
0
 40
1
 40
1
 40
1
 40
1
 10
373.854416
 20
127.280554
 30
0.0
 10
374.602192
 20
126.970815
 30
0.0
 10
375.462919
 20
127.142025
 30
0.0
 10
376.035242
 20
127.714348
 30
0.0
  0
SPLINE
  5
1ea
100
AcDbEntity
  8
Layer_1
 62
7
100
AcDbSpline
 70
8
 71
3
 72
8
 73
4
 74
0
 40
0
 40
0
 40
0
 40
0
 40
1
 40
1
 40
1
 40
1
 10
376.035242
 20
127.714348
 30
0.0
 10
376.607565
 20
128.286671
 30
0.0
 10
376.778775
 20
129.147398
 30
0.0
 10
376.469036
 20
129.895174
 30
0.0
  0
SPLINE
  5
1eb
100
AcDbEntity
  8
Layer_1
 62
7
100
AcDbSpline
 70
8
 71
3
 72
8
 73
4
 74
0
 40
0
 40
0
 40
0
 40
0
 40
1
 40
1
 40
1
 40
1
 10
376.469036
 20
129.895174
 30
0.0
 10
376.159297
 20
130.642951
 30
0.0
 10
375.429607
 20
131.130513
 30
0.0
 10
374.620220
 20
131.130513
 30
0.0
  0
SPLINE
  5
1ec
100
AcDbEntity
  8
Layer_1
 62
7
100
AcDbSpline
 70
8
 71
3
 72
8
 73
4
 74
0
 40
0
 40
0
 40
0
 40
0
 40
1
 40
1
 40
1
 40
1
 10
374.620220
 20
131.130513
 30
0.0
 10
374.089484
 20
131.130513
 30
0.0
 10
373.580485
 20
130.919679
 30
0.0
 10
373.205198
 20
130.544392
 30
0.0
  0
SPLINE
  5
1ed
100
AcDbEntity
  8
Layer_1
 62
7
100
AcDbSpline
 70
8
 71
3
 72
8
 73
4
 74
0
 40
0
 40
0
 40
0
 40
0
 40
1
 40
1
 40
1
 40
1
 10
373.205198
 20
130.544392
 30
0.0
 10
372.829911
 20
130.169105
 30
0.0
 10
372.619077
 20
129.660106
 30
0.0
 10
372.619077
 20
129.129370
 30
0.0
  0
LWPOLYLINE
  5
1ee
100
AcDbEntity
  8
Layer_1
 62
7
100
AcDbPolyline
 90
1
 70
1
 10
372.619077
 20
121.129370
 30
0.0
  0
SPLINE
  5
1ef
100
AcDbEntity
  8
Layer_1
 62
7
100
AcDbSpline
 70
8
 71
3
 72
8
 73
4
 74
0
 40
0
 40
0
 40
0
 40
0
 40
1
 40
1
 40
1
 40
1
 10
372.619077
 20
137.129370
 30
0.0
 10
372.619077
 20
136.024169
 30
0.0
 10
373.515019
 20
135.128226
 30
0.0
 10
374.620220
 20
135.128227
 30
0.0
  0
SPLINE
  5
1f0
100
AcDbEntity
  8
Layer_1
 62
7
100
AcDbSpline
 70
8
 71
3
 72
8
 73
4
 74
0
 40
0
 40
0
 40
0
 40
0
 40
1
 40
1
 40
1
 40
1
 10
374.620220
 20
135.128227
 30
0.0
 10
375.725421
 20
135.128227
 30
0.0
 10
376.621364
 20
136.024169
 30
0.0
 10
376.621364
 20
137.129370
 30
0.0
  0
SPLINE
  5
1f1
100
AcDbEntity
  8
Layer_1
 62
7
100
AcDbSpline
 70
8
 71
3
 72
8
 73
4
 74
0
 40
0
 40
0
 40
0
 40
0
 40
1
 40
1
 40
1
 40
1
 10
376.621364
 20
137.129370
 30
0.0
 10
376.621364
 20
138.234571
 30
0.0
 10
375.725421
 20
139.130514
 30
0.0
 10
374.620220
 20
139.130514
 30
0.0
  0
SPLINE
  5
1f2
100
AcDbEntity
  8
Layer_1
 62
7
100
AcDbSpline
 70
8
 71
3
 72
8
 73
4
 74
0
 40
0
 40
0
 40
0
 40
0
 40
1
 40
1
 40
1
 40
1
 10
374.620220
 20
139.130514
 30
0.0
 10
374.089484
 20
139.130514
 30
0.0
 10
373.580485
 20
138.919679
 30
0.0
 10
373.205198
 20
138.544392
 30
0.0
  0
SPLINE
  5
1f3
100
AcDbEntity
  8
Layer_1
 62
7
100
AcDbSpline
 70
8
 71
3
 72
8
 73
4
 74
0
 40
0
 40
0
 40
0
 40
0
 40
1
 40
1
 40
1
 40
1
 10
373.205198
 20
138.544392
 30
0.0
 10
372.829911
 20
138.169105
 30
0.0
 10
372.619077
 20
137.660106
 30
0.0
 10
372.619077
 20
137.129370
 30
0.0
  0
LWPOLYLINE
  5
1f4
100
AcDbEntity
  8
Layer_1
 62
7
100
AcDbPolyline
 90
1
 70
1
 10
372.619077
 20
129.129370
 30
0.0
  0
SPLINE
  5
1f5
100
AcDbEntity
  8
Layer_1
 62
7
100
AcDbSpline
 70
8
 71
3
 72
8
 73
4
 74
0
 40
0
 40
0
 40
0
 40
0
 40
1
 40
1
 40
1
 40
1
 10
372.619077
 20
145.129370
 30
0.0
 10
372.619077
 20
144.319983
 30
0.0
 10
373.106639
 20
143.590293
 30
0.0
 10
373.854416
 20
143.280554
 30
0.0
  0
SPLINE
  5
1f6
100
AcDbEntity
  8
Layer_1
 62
7
100
AcDbSpline
 70
8
 71
3
 72
8
 73
4
 74
0
 40
0
 40
0
 40
0
 40
0
 40
1
 40
1
 40
1
 40
1
 10
373.854416
 20
143.280554
 30
0.0
 10
374.602192
 20
142.970815
 30
0.0
 10
375.462919
 20
143.142025
 30
0.0
 10
376.035242
 20
143.714348
 30
0.0
  0
SPLINE
  5
1f7
100
AcDbEntity
  8
Layer_1
 62
7
100
AcDbSpline
 70
8
 71
3
 72
8
 73
4
 74
0
 40
0
 40
0
 40
0
 40
0
 40
1
 40
1
 40
1
 40
1
 10
376.035242
 20
143.714348
 30
0.0
 10
376.607565
 20
144.286671
 30
0.0
 10
376.778775
 20
145.147398
 30
0.0
 10
376.469036
 20
145.895174
 30
0.0
  0
SPLINE
  5
1f8
100
AcDbEntity
  8
Layer_1
 62
7
100
AcDbSpline
 70
8
 71
3
 72
8
 73
4
 74
0
 40
0
 40
0
 40
0
 40
0
 40
1
 40
1
 40
1
 40
1
 10
376.469036
 20
145.895174
 30
0.0
 10
376.159297
 20
146.642951
 30
0.0
 10
375.429607
 20
147.130513
 30
0.0
 10
374.620220
 20
147.130513
 30
0.0
  0
SPLINE
  5
1f9
100
AcDbEntity
  8
Layer_1
 62
7
100
AcDbSpline
 70
8
 71
3
 72
8
 73
4
 74
0
 40
0
 40
0
 40
0
 40
0
 40
1
 40
1
 40
1
 40
1
 10
374.620220
 20
147.130513
 30
0.0
 10
374.089484
 20
147.130513
 30
0.0
 10
373.580485
 20
146.919679
 30
0.0
 10
373.205198
 20
146.544392
 30
0.0
  0
SPLINE
  5
1fa
100
AcDbEntity
  8
Layer_1
 62
7
100
AcDbSpline
 70
8
 71
3
 72
8
 73
4
 74
0
 40
0
 40
0
 40
0
 40
0
 40
1
 40
1
 40
1
 40
1
 10
373.205198
 20
146.544392
 30
0.0
 10
372.829911
 20
146.169105
 30
0.0
 10
372.619077
 20
145.660106
 30
0.0
 10
372.619077
 20
145.129370
 30
0.0
  0
LWPOLYLINE
  5
1fb
100
AcDbEntity
  8
Layer_1
 62
7
100
AcDbPolyline
 90
1
 70
1
 10
372.619077
 20
137.129370
 30
0.0
  0
SPLINE
  5
1fc
100
AcDbEntity
  8
Layer_1
 62
7
100
AcDbSpline
 70
8
 71
3
 72
8
 73
4
 74
0
 40
0
 40
0
 40
0
 40
0
 40
1
 40
1
 40
1
 40
1
 10
372.619077
 20
153.129370
 30
0.0
 10
372.619077
 20
152.024169
 30
0.0
 10
373.515019
 20
151.128226
 30
0.0
 10
374.620220
 20
151.128226
 30
0.0
  0
SPLINE
  5
1fd
100
AcDbEntity
  8
Layer_1
 62
7
100
AcDbSpline
 70
8
 71
3
 72
8
 73
4
 74
0
 40
0
 40
0
 40
0
 40
0
 40
1
 40
1
 40
1
 40
1
 10
374.620220
 20
151.128226
 30
0.0
 10
375.725421
 20
151.128226
 30
0.0
 10
376.621364
 20
152.024169
 30
0.0
 10
376.621364
 20
153.129370
 30
0.0
  0
SPLINE
  5
1fe
100
AcDbEntity
  8
Layer_1
 62
7
100
AcDbSpline
 70
8
 71
3
 72
8
 73
4
 74
0
 40
0
 40
0
 40
0
 40
0
 40
1
 40
1
 40
1
 40
1
 10
376.621364
 20
153.129370
 30
0.0
 10
376.621364
 20
154.234571
 30
0.0
 10
375.725421
 20
155.130513
 30
0.0
 10
374.620220
 20
155.130513
 30
0.0
  0
SPLINE
  5
1ff
100
AcDbEntity
  8
Layer_1
 62
7
100
AcDbSpline
 70
8
 71
3
 72
8
 73
4
 74
0
 40
0
 40
0
 40
0
 40
0
 40
1
 40
1
 40
1
 40
1
 10
374.620220
 20
155.130513
 30
0.0
 10
374.089484
 20
155.130513
 30
0.0
 10
373.580485
 20
154.919679
 30
0.0
 10
373.205198
 20
154.544392
 30
0.0
  0
SPLINE
  5
200
100
AcDbEntity
  8
Layer_1
 62
7
100
AcDbSpline
 70
8
 71
3
 72
8
 73
4
 74
0
 40
0
 40
0
 40
0
 40
0
 40
1
 40
1
 40
1
 40
1
 10
373.205198
 20
154.544392
 30
0.0
 10
372.829911
 20
154.169105
 30
0.0
 10
372.619077
 20
153.660106
 30
0.0
 10
372.619077
 20
153.129370
 30
0.0
  0
LWPOLYLINE
  5
201
100
AcDbEntity
  8
Layer_1
 62
7
100
AcDbPolyline
 90
1
 70
1
 10
372.619077
 20
145.129370
 30
0.0
  0
SPLINE
  5
202
100
AcDbEntity
  8
Layer_1
 62
7
100
AcDbSpline
 70
8
 71
3
 72
8
 73
4
 74
0
 40
0
 40
0
 40
0
 40
0
 40
1
 40
1
 40
1
 40
1
 10
372.619077
 20
161.129370
 30
0.0
 10
372.619077
 20
160.319983
 30
0.0
 10
373.106639
 20
159.590293
 30
0.0
 10
373.854416
 20
159.280554
 30
0.0
  0
SPLINE
  5
203
100
AcDbEntity
  8
Layer_1
 62
7
100
AcDbSpline
 70
8
 71
3
 72
8
 73
4
 74
0
 40
0
 40
0
 40
0
 40
0
 40
1
 40
1
 40
1
 40
1
 10
373.854416
 20
159.280554
 30
0.0
 10
374.602192
 20
158.970815
 30
0.0
 10
375.462919
 20
159.142025
 30
0.0
 10
376.035242
 20
159.714348
 30
0.0
  0
SPLINE
  5
204
100
AcDbEntity
  8
Layer_1
 62
7
100
AcDbSpline
 70
8
 71
3
 72
8
 73
4
 74
0
 40
0
 40
0
 40
0
 40
0
 40
1
 40
1
 40
1
 40
1
 10
376.035242
 20
159.714348
 30
0.0
 10
376.607565
 20
160.286671
 30
0.0
 10
376.778775
 20
161.147398
 30
0.0
 10
376.469036
 20
161.895174
 30
0.0
  0
SPLINE
  5
205
100
AcDbEntity
  8
Layer_1
 62
7
100
AcDbSpline
 70
8
 71
3
 72
8
 73
4
 74
0
 40
0
 40
0
 40
0
 40
0
 40
1
 40
1
 40
1
 40
1
 10
376.469036
 20
161.895174
 30
0.0
 10
376.159297
 20
162.642951
 30
0.0
 10
375.429607
 20
163.130513
 30
0.0
 10
374.620220
 20
163.130513
 30
0.0
  0
SPLINE
  5
206
100
AcDbEntity
  8
Layer_1
 62
7
100
AcDbSpline
 70
8
 71
3
 72
8
 73
4
 74
0
 40
0
 40
0
 40
0
 40
0
 40
1
 40
1
 40
1
 40
1
 10
374.620220
 20
163.130513
 30
0.0
 10
374.089484
 20
163.130513
 30
0.0
 10
373.580485
 20
162.919679
 30
0.0
 10
373.205198
 20
162.544392
 30
0.0
  0
SPLINE
  5
207
100
AcDbEntity
  8
Layer_1
 62
7
100
AcDbSpline
 70
8
 71
3
 72
8
 73
4
 74
0
 40
0
 40
0
 40
0
 40
0
 40
1
 40
1
 40
1
 40
1
 10
373.205198
 20
162.544392
 30
0.0
 10
372.829911
 20
162.169105
 30
0.0
 10
372.619077
 20
161.660106
 30
0.0
 10
372.619077
 20
161.129370
 30
0.0
  0
LWPOLYLINE
  5
208
100
AcDbEntity
  8
Layer_1
 62
7
100
AcDbPolyline
 90
1
 70
1
 10
372.619077
 20
153.129370
 30
0.0
  0
SPLINE
  5
209
100
AcDbEntity
  8
Layer_1
 62
7
100
AcDbSpline
 70
8
 71
3
 72
8
 73
4
 74
0
 40
0
 40
0
 40
0
 40
0
 40
1
 40
1
 40
1
 40
1
 10
372.619077
 20
169.129370
 30
0.0
 10
372.619077
 20
168.024169
 30
0.0
 10
373.515019
 20
167.128226
 30
0.0
 10
374.620220
 20
167.128227
 30
0.0
  0
SPLINE
  5
20a
100
AcDbEntity
  8
Layer_1
 62
7
100
AcDbSpline
 70
8
 71
3
 72
8
 73
4
 74
0
 40
0
 40
0
 40
0
 40
0
 40
1
 40
1
 40
1
 40
1
 10
374.620220
 20
167.128227
 30
0.0
 10
375.725421
 20
167.128227
 30
0.0
 10
376.621364
 20
168.024169
 30
0.0
 10
376.621364
 20
169.129370
 30
0.0
  0
SPLINE
  5
20b
100
AcDbEntity
  8
Layer_1
 62
7
100
AcDbSpline
 70
8
 71
3
 72
8
 73
4
 74
0
 40
0
 40
0
 40
0
 40
0
 40
1
 40
1
 40
1
 40
1
 10
376.621364
 20
169.129370
 30
0.0
 10
376.621364
 20
170.234571
 30
0.0
 10
375.725421
 20
171.130514
 30
0.0
 10
374.620220
 20
171.130514
 30
0.0
  0
SPLINE
  5
20c
100
AcDbEntity
  8
Layer_1
 62
7
100
AcDbSpline
 70
8
 71
3
 72
8
 73
4
 74
0
 40
0
 40
0
 40
0
 40
0
 40
1
 40
1
 40
1
 40
1
 10
374.620220
 20
171.130514
 30
0.0
 10
374.089484
 20
171.130514
 30
0.0
 10
373.580485
 20
170.919679
 30
0.0
 10
373.205198
 20
170.544392
 30
0.0
  0
SPLINE
  5
20d
100
AcDbEntity
  8
Layer_1
 62
7
100
AcDbSpline
 70
8
 71
3
 72
8
 73
4
 74
0
 40
0
 40
0
 40
0
 40
0
 40
1
 40
1
 40
1
 40
1
 10
373.205198
 20
170.544392
 30
0.0
 10
372.829911
 20
170.169105
 30
0.0
 10
372.619077
 20
169.660106
 30
0.0
 10
372.619077
 20
169.129370
 30
0.0
  0
LWPOLYLINE
  5
20e
100
AcDbEntity
  8
Layer_1
 62
7
100
AcDbPolyline
 90
1
 70
1
 10
372.619077
 20
161.129370
 30
0.0
  0
SPLINE
  5
20f
100
AcDbEntity
  8
Layer_1
 62
7
100
AcDbSpline
 70
8
 71
3
 72
8
 73
4
 74
0
 40
0
 40
0
 40
0
 40
0
 40
1
 40
1
 40
1
 40
1
 10
372.619077
 20
177.129370
 30
0.0
 10
372.619077
 20
176.319983
 30
0.0
 10
373.106639
 20
175.590293
 30
0.0
 10
373.854416
 20
175.280554
 30
0.0
  0
SPLINE
  5
210
100
AcDbEntity
  8
Layer_1
 62
7
100
AcDbSpline
 70
8
 71
3
 72
8
 73
4
 74
0
 40
0
 40
0
 40
0
 40
0
 40
1
 40
1
 40
1
 40
1
 10
373.854416
 20
175.280554
 30
0.0
 10
374.602192
 20
174.970815
 30
0.0
 10
375.462919
 20
175.142025
 30
0.0
 10
376.035242
 20
175.714348
 30
0.0
  0
SPLINE
  5
211
100
AcDbEntity
  8
Layer_1
 62
7
100
AcDbSpline
 70
8
 71
3
 72
8
 73
4
 74
0
 40
0
 40
0
 40
0
 40
0
 40
1
 40
1
 40
1
 40
1
 10
376.035242
 20
175.714348
 30
0.0
 10
376.607565
 20
176.286671
 30
0.0
 10
376.778775
 20
177.147398
 30
0.0
 10
376.469036
 20
177.895174
 30
0.0
  0
SPLINE
  5
212
100
AcDbEntity
  8
Layer_1
 62
7
100
AcDbSpline
 70
8
 71
3
 72
8
 73
4
 74
0
 40
0
 40
0
 40
0
 40
0
 40
1
 40
1
 40
1
 40
1
 10
376.469036
 20
177.895174
 30
0.0
 10
376.159297
 20
178.642951
 30
0.0
 10
375.429607
 20
179.130514
 30
0.0
 10
374.620220
 20
179.130514
 30
0.0
  0
SPLINE
  5
213
100
AcDbEntity
  8
Layer_1
 62
7
100
AcDbSpline
 70
8
 71
3
 72
8
 73
4
 74
0
 40
0
 40
0
 40
0
 40
0
 40
1
 40
1
 40
1
 40
1
 10
374.620220
 20
179.130514
 30
0.0
 10
374.089484
 20
179.130514
 30
0.0
 10
373.580485
 20
178.919679
 30
0.0
 10
373.205198
 20
178.544392
 30
0.0
  0
SPLINE
  5
214
100
AcDbEntity
  8
Layer_1
 62
7
100
AcDbSpline
 70
8
 71
3
 72
8
 73
4
 74
0
 40
0
 40
0
 40
0
 40
0
 40
1
 40
1
 40
1
 40
1
 10
373.205198
 20
178.544392
 30
0.0
 10
372.829911
 20
178.169105
 30
0.0
 10
372.619077
 20
177.660106
 30
0.0
 10
372.619077
 20
177.129370
 30
0.0
  0
LWPOLYLINE
  5
215
100
AcDbEntity
  8
Layer_1
 62
7
100
AcDbPolyline
 90
1
 70
1
 10
372.619077
 20
169.129370
 30
0.0
  0
SPLINE
  5
216
100
AcDbEntity
  8
Layer_1
 62
7
100
AcDbSpline
 70
8
 71
3
 72
8
 73
4
 74
0
 40
0
 40
0
 40
0
 40
0
 40
1
 40
1
 40
1
 40
1
 10
101.083570
 20
119.753430
 30
0.0
 10
99.187420
 20
127.959930
 30
0.0
 10
98.194893
 20
136.462080
 30
0.0
 10
98.194893
 20
145.129170
 30
0.0
  0
SPLINE
  5
217
100
AcDbEntity
  8
Layer_1
 62
7
100
AcDbSpline
 70
8
 71
3
 72
8
 73
4
 74
0
 40
0
 40
0
 40
0
 40
0
 40
1
 40
1
 40
1
 40
1
 10
98.194893
 20
145.129170
 30
0.0
 10
98.194893
 20
150.337760
 30
0.0
 10
98.553376
 20
155.486960
 30
0.0
 10
99.251080
 20
160.548350
 30
0.0
  0
SPLINE
  5
218
100
AcDbEntity
  8
Layer_1
 62
7
100
AcDbSpline
 70
8
 71
3
 72
8
 73
4
 74
0
 40
0
 40
0
 40
0
 40
0
 40
1
 40
1
 40
1
 40
1
 10
99.251080
 20
160.548350
 30
0.0
 10
104.731720
 20
200.306860
 30
0.0
 10
131.143920
 20
234.647172
 30
0.0
 10
169.150800
 20
249.796395
 30
0.0
  0
SPLINE
  5
219
100
AcDbEntity
  8
Layer_1
 62
7
100
AcDbSpline
 70
8
 71
3
 72
8
 73
4
 74
0
 40
0
 40
0
 40
0
 40
0
 40
1
 40
1
 40
1
 40
1
 10
169.150800
 20
249.796395
 30
0.0
 10
182.423740
 20
255.086879
 30
0.0
 10
196.581820
 20
257.804559
 30
0.0
 10
210.870290
 20
257.804558
 30
0.0
  0
SPLINE
  5
21a
100
AcDbEntity
  8
Layer_1
 62
7
100
AcDbSpline
 70
8
 71
3
 72
8
 73
4
 74
0
 40
0
 40
0
 40
0
 40
0
 40
1
 40
1
 40
1
 40
1
 10
210.870290
 20
257.804558
 30
0.0
 10
273.099190
 20
257.804558
 30
0.0
 10
323.545680
 20
207.358069
 30
0.0
 10
323.545680
 20
145.129170
 30
0.0
  0
LWPOLYLINE
  5
21b
100
AcDbEntity
  8
Layer_1
 62
7
100
AcDbPolyline
 90
1
 70
1
 10
372.619077
 20
177.129370
 30
0.0
  0
SPLINE
  5
21c
100
AcDbEntity
  8
Layer_1
 62
7
100
AcDbSpline
 70
8
 71
3
 72
8
 73
4
 74
0
 40
0
 40
0
 40
0
 40
0
 40
1
 40
1
 40
1
 40
1
 10
323.545680
 20
145.129170
 30
0.0
 10
323.545690
 20
82.900270
 30
0.0
 10
273.099190
 20
32.453770
 30
0.0
 10
210.870290
 20
32.453770
 30
0.0
  0
SPLINE
  5
21d
100
AcDbEntity
  8
Layer_1
 62
7
100
AcDbSpline
 70
8
 71
3
 72
8
 73
4
 74
0
 40
0
 40
0
 40
0
 40
0
 40
1
 40
1
 40
1
 40
1
 10
210.870290
 20
32.453770
 30
0.0
 10
196.695300
 20
32.453770
 30
0.0
 10
182.647600
 20
35.128460
 30
0.0
 10
169.464410
 20
40.337480
 30
0.0
  0
SPLINE
  5
21e
100
AcDbEntity
  8
Layer_1
 62
7
100
AcDbSpline
 70
8
 71
3
 72
8
 73
4
 74
0
 40
0
 40
0
 40
0
 40
0
 40
1
 40
1
 40
1
 40
1
 10
169.464410
 20
40.337480
 30
0.0
 10
134.514370
 20
54.147130
 30
0.0
 10
109.305030
 20
84.171100
 30
0.0
 10
101.083570
 20
119.753430
 30
0.0
  0
LWPOLYLINE
  5
21f
100
AcDbEntity
  8
Layer_1
 62
7
100
AcDbPolyline
 90
1
 70
1
 10
323.545680
 20
145.129170
 30
0.0
  0
ENDSEC
  0
SECTION
  2
OBJECTS
  0
DICTIONARY
  5
C
330
0
100
AcDbDictionary
  3
ACAD_GROUP
350
D
  3
ACAD_MLINESTYLE
350
17
  0
DICTIONARY
  5
D
330
C
100
AcDbDictionary
  0
DICTIONARY
  5
1A
330
C
100
AcDbDictionary
  0
DICTIONARY
  5
17
330
C
100
AcDbDictionary
  3
STANDARD
350
18
  0
DICTIONARY
  5
19
330
C
100
AcDbDictionary
  0
ENDSEC
  0
EOF
