  0
SECTION
  2
HEADER
  9
$ACADVER
  1
AC1014
  9
$HANDSEED
  5
FFFF
  9
$INSUNITS
 70
     4
  9
$MEASUREMENT
 70
     1
  0
ENDSEC
  0
SECTION
  2
TABLES
  0
TABLE
  2
VPORT
  5
8
330
0
100
AcDbSymbolTable
 70
     4
  0
VPORT
  5
2E
330
8
100
AcDbSymbolTableRecord
100
AcDbViewportTableRecord
  2
*ACTIVE
 70
     0
 10
0.0
 20
0.0
 11
1.0
 21
1.0
 12
210.0
 22
148.5
 13
0.0
 23
0.0
 14
10.0
 24
10.0
 15
10.0
 25
10.0
 16
0.0
 26
0.0
 36
1.0
 17
0.0
 27
0.0
 37
0.0
 40
341.0
 41
1.24
 42
50.0
 43
0.0
 44
0.0
 50
0.0
 51
0.0
 71
     0
 72
   100
 73
     1
 74
     3
 75
     0
 76
     0
 77
     0
 78
     0
  0
ENDTAB
  0
TABLE
  2
LTYPE
  5
5
330
0
100
AcDbSymbolTable
 70
     1
  0
LTYPE
  5
14
330
5
100
AcDbSymbolTableRecord
100
AcDbLinetypeTableRecord
  2
BYBLOCK
 70
     0
  3

 72
    65
 73
     0
 40
0.0
  0
LTYPE
  5
15
330
5
100
AcDbSymbolTableRecord
100
AcDbLinetypeTableRecord
  2
BYLAYER
 70
     0
  3

 72
    65
 73
     0
 40
0.0
  0
LTYPE
  5
16
330
5
100
AcDbSymbolTableRecord
100
AcDbLinetypeTableRecord
  2
CONTINUOUS
 70
     0
  3
Solid line
 72
    65
 73
     0
 40
0.0
  0
ENDTAB
  0
TABLE
  2
LAYER
  5
2
100
AcDbSymbolTable
 70
2
  0
LAYER
  5
50
100
AcDbSymbolTableRecord
100
AcDbLayerTableRecord
  2
0
 70
0
  6
CONTINUOUS
  0
LAYER
  5
51
100
AcDbSymbolTableRecord
100
AcDbLayerTableRecord
  2
Layer_1
 70
0
  6
CONTINUOUS
  0
ENDTAB
  0
TABLE
  2
STYLE
  5
3
330
0
100
AcDbSymbolTable
 70
     1
  0
STYLE
  5
11
330
3
100
AcDbSymbolTableRecord
100
AcDbTextStyleTableRecord
  2
STANDARD
 70
     0
 40
0.0
 41
1.0
 50
0.0
 71
     0
 42
2.5
  3
txt
  4

  0
ENDTAB
  0
TABLE
  2
VIEW
  5
6
330
0
100
AcDbSymbolTable
 70
     0
  0
ENDTAB
  0
TABLE
  2
UCS
  5
7
330
0
100
AcDbSymbolTable
 70
     0
  0
ENDTAB
  0
TABLE
  2
APPID
  5
9
330
0
100
AcDbSymbolTable
 70
     2
  0
APPID
  5
12
330
9
100
AcDbSymbolTableRecord
100
AcDbRegAppTableRecord
  2
ACAD
 70
     0
  0
ENDTAB
  0
TABLE
  2
DIMSTYLE
  5
A
330
0
100
AcDbSymbolTable
 70
     1
  0
DIMSTYLE
105
27
330
A
100
AcDbSymbolTableRecord
100
AcDbDimStyleTableRecord
  2
ISO-25
 70
     0
  3

  4

  5

  6

  7

 40
1.0
 41
2.5
 42
0.625
 43
3.75
 44
1.25
 45
0.0
 46
0.0
 47
0.0
 48
0.0
140
2.5
141
2.5
142
0.0
143
0.03937007874016
144
1.0
145
0.0
146
1.0
147
0.625
 71
     0
 72
     0
 73
     0
 74
     0
 75
     0
 76
     0
 77
     1
 78
     8
170
     0
171
     3
172
     1
173
     0
174
     0
175
     0
176
     0
177
     0
178
     0
270
     2
271
     2
272
     2
273
     2
274
     3
340
11
275
     0
280
     0
281
     0
282
     0
283
     0
284
     8
285
     0
286
     0
287
     3
288
     0
  0
ENDTAB
  0
TABLE
  2
BLOCK_RECORD
  5
1
330
0
100
AcDbSymbolTable
 70
     1
  0
BLOCK_RECORD
  5
1F
330
1
100
AcDbSymbolTableRecord
100
AcDbBlockTableRecord
  2
*MODEL_SPACE
  0
BLOCK_RECORD
  5
1B
330
1
100
AcDbSymbolTableRecord
100
AcDbBlockTableRecord
  2
*PAPER_SPACE
  0
ENDTAB
  0
ENDSEC
  0
SECTION
  2
BLOCKS
  0
BLOCK
  5
20
330
1F
100
AcDbEntity
  8
0
100
AcDbBlockBegin
  2
*MODEL_SPACE
 70
     0
 10
0.0
 20
0.0
 30
0.0
  3
*MODEL_SPACE
  1

  0
ENDBLK
  5
21
330
1F
100
AcDbEntity
  8
0
100
AcDbBlockEnd
  0
BLOCK
  5
1C
330
1B
100
AcDbEntity
 67
     1
  8
0
100
AcDbBlockBegin
  2
*PAPER_SPACE
  1

  0
ENDBLK
  5
1D
330
1B
100
AcDbEntity
 67
     1
  8
0
100
AcDbBlockEnd
  0
ENDSEC
  0
SECTION
  2
ENTITIES
  0
LWPOLYLINE
  5
100
100
AcDbEntity
  8
Layer_1
 62
7
100
AcDbPolyline
 90
2
 70
0
 10
222.352710
 20
116.229023
 30
0.0
 10
76.155532
 20
116.229023
 30
0.0
  0
SPLINE
  5
101
100
AcDbEntity
  8
Layer_1
 62
7
100
AcDbSpline
 70
8
 71
3
 72
8
 73
4
 74
0
 40
0
 40
0
 40
0
 40
0
 40
1
 40
1
 40
1
 40
1
 10
76.341568
 20
108.853886
 30
0.0
 10
75.729934
 20
108.853886
 30
0.0
 10
75.178525
 20
108.485447
 30
0.0
 10
74.944462
 20
107.920370
 30
0.0
  0
SPLINE
  5
102
100
AcDbEntity
  8
Layer_1
 62
7
100
AcDbSpline
 70
8
 71
3
 72
8
 73
4
 74
0
 40
0
 40
0
 40
0
 40
0
 40
1
 40
1
 40
1
 40
1
 10
74.944462
 20
107.920370
 30
0.0
 10
74.710400
 20
107.355294
 30
0.0
 10
74.839779
 20
106.704862
 30
0.0
 10
75.272270
 20
106.272372
 30
0.0
  0
SPLINE
  5
103
100
AcDbEntity
  8
Layer_1
 62
7
100
AcDbSpline
 70
8
 71
3
 72
8
 73
4
 74
0
 40
0
 40
0
 40
0
 40
0
 40
1
 40
1
 40
1
 40
1
 10
75.272270
 20
106.272372
 30
0.0
 10
75.704760
 20
105.839881
 30
0.0
 10
76.355192
 20
105.710502
 30
0.0
 10
76.920268
 20
105.944564
 30
0.0
  0
SPLINE
  5
104
100
AcDbEntity
  8
Layer_1
 62
7
100
AcDbSpline
 70
8
 71
3
 72
8
 73
4
 74
0
 40
0
 40
0
 40
0
 40
0
 40
1
 40
1
 40
1
 40
1
 10
76.920268
 20
105.944564
 30
0.0
 10
77.485345
 20
106.178627
 30
0.0
 10
77.853784
 20
106.730036
 30
0.0
 10
77.853784
 20
107.341670
 30
0.0
  0
SPLINE
  5
105
100
AcDbEntity
  8
Layer_1
 62
7
100
AcDbSpline
 70
8
 71
3
 72
8
 73
4
 74
0
 40
0
 40
0
 40
0
 40
0
 40
1
 40
1
 40
1
 40
1
 10
77.853784
 20
107.341670
 30
0.0
 10
77.853784
 20
107.742735
 30
0.0
 10
77.694462
 20
108.127373
 30
0.0
 10
77.410866
 20
108.410968
 30
0.0
  0
SPLINE
  5
106
100
AcDbEntity
  8
Layer_1
 62
7
100
AcDbSpline
 70
8
 71
3
 72
8
 73
4
 74
0
 40
0
 40
0
 40
0
 40
0
 40
1
 40
1
 40
1
 40
1
 10
77.410866
 20
108.410968
 30
0.0
 10
77.127271
 20
108.694564
 30
0.0
 10
76.742633
 20
108.853886
 30
0.0
 10
76.341568
 20
108.853886
 30
0.0
  0
LWPOLYLINE
  5
107
100
AcDbEntity
  8
Layer_1
 62
7
100
AcDbPolyline
 90
2
 70
0
 10
76.155532
 20
98.452150
 30
0.0
 10
222.352710
 20
98.452150
 30
0.0
  0
SPLINE
  5
108
100
AcDbEntity
  8
Layer_1
 62
7
100
AcDbSpline
 70
8
 71
3
 72
8
 73
4
 74
0
 40
0
 40
0
 40
0
 40
0
 40
1
 40
1
 40
1
 40
1
 10
222.352890
 20
116.228506
 30
0.0
 10
227.248601
 20
116.211073
 30
0.0
 10
231.208138
 20
112.237412
 30
0.0
 10
231.208140
 20
107.341670
 30
0.0
  0
LWPOLYLINE
  5
109
100
AcDbEntity
  8
Layer_1
 62
7
100
AcDbPolyline
 90
1
 70
1
 10
76.341568
 20
108.853886
 30
0.0
  0
SPLINE
  5
10a
100
AcDbEntity
  8
Layer_1
 62
7
100
AcDbSpline
 70
8
 71
3
 72
8
 73
4
 74
0
 40
0
 40
0
 40
0
 40
0
 40
1
 40
1
 40
1
 40
1
 10
231.208140
 20
107.341670
 30
0.0
 10
231.208141
 20
102.445927
 30
0.0
 10
227.248602
 20
98.472263
 30
0.0
 10
222.352890
 20
98.454830
 30
0.0
  0
SPLINE
  5
10b
100
AcDbEntity
  8
Layer_1
 62
7
100
AcDbSpline
 70
8
 71
3
 72
8
 73
4
 74
0
 40
0
 40
0
 40
0
 40
0
 40
1
 40
1
 40
1
 40
1
 10
76.225350
 20
116.228497
 30
0.0
 10
71.329639
 20
116.211064
 30
0.0
 10
67.370101
 20
112.237402
 30
0.0
 10
67.370100
 20
107.341660
 30
0.0
  0
LWPOLYLINE
  5
10c
100
AcDbEntity
  8
Layer_1
 62
7
100
AcDbPolyline
 90
1
 70
1
 10
231.208140
 20
107.341670
 30
0.0
  0
SPLINE
  5
10d
100
AcDbEntity
  8
Layer_1
 62
7
100
AcDbSpline
 70
8
 71
3
 72
8
 73
4
 74
0
 40
0
 40
0
 40
0
 40
0
 40
1
 40
1
 40
1
 40
1
 10
67.370100
 20
107.341660
 30
0.0
 10
67.370099
 20
102.445917
 30
0.0
 10
71.329638
 20
98.472253
 30
0.0
 10
76.225350
 20
98.454820
 30
0.0
  0
SPLINE
  5
10e
100
AcDbEntity
  8
Layer_1
 62
7
100
AcDbSpline
 70
8
 71
3
 72
8
 73
4
 74
0
 40
0
 40
0
 40
0
 40
0
 40
1
 40
1
 40
1
 40
1
 10
86.321238
 20
109.342843
 30
0.0
 10
85.511851
 20
109.342843
 30
0.0
 10
84.782161
 20
108.855281
 30
0.0
 10
84.472422
 20
108.107504
 30
0.0
  0
SPLINE
  5
10f
100
AcDbEntity
  8
Layer_1
 62
7
100
AcDbSpline
 70
8
 71
3
 72
8
 73
4
 74
0
 40
0
 40
0
 40
0
 40
0
 40
1
 40
1
 40
1
 40
1
 10
84.472422
 20
108.107504
 30
0.0
 10
84.162683
 20
107.359728
 30
0.0
 10
84.333893
 20
106.499001
 30
0.0
 10
84.906216
 20
105.926678
 30
0.0
  0
SPLINE
  5
110
100
AcDbEntity
  8
Layer_1
 62
7
100
AcDbSpline
 70
8
 71
3
 72
8
 73
4
 74
0
 40
0
 40
0
 40
0
 40
0
 40
1
 40
1
 40
1
 40
1
 10
84.906216
 20
105.926678
 30
0.0
 10
85.478539
 20
105.354355
 30
0.0
 10
86.339266
 20
105.183145
 30
0.0
 10
87.087042
 20
105.492884
 30
0.0
  0
SPLINE
  5
111
100
AcDbEntity
  8
Layer_1
 62
7
100
AcDbSpline
 70
8
 71
3
 72
8
 73
4
 74
0
 40
0
 40
0
 40
0
 40
0
 40
1
 40
1
 40
1
 40
1
 10
87.087042
 20
105.492884
 30
0.0
 10
87.834819
 20
105.802623
 30
0.0
 10
88.322382
 20
106.532313
 30
0.0
 10
88.322382
 20
107.341700
 30
0.0
  0
SPLINE
  5
112
100
AcDbEntity
  8
Layer_1
 62
7
100
AcDbSpline
 70
8
 71
3
 72
8
 73
4
 74
0
 40
0
 40
0
 40
0
 40
0
 40
1
 40
1
 40
1
 40
1
 10
88.322382
 20
107.341700
 30
0.0
 10
88.322382
 20
107.872436
 30
0.0
 10
88.111547
 20
108.381435
 30
0.0
 10
87.736260
 20
108.756722
 30
0.0
  0
SPLINE
  5
113
100
AcDbEntity
  8
Layer_1
 62
7
100
AcDbSpline
 70
8
 71
3
 72
8
 73
4
 74
0
 40
0
 40
0
 40
0
 40
0
 40
1
 40
1
 40
1
 40
1
 10
87.736260
 20
108.756722
 30
0.0
 10
87.360973
 20
109.132009
 30
0.0
 10
86.851974
 20
109.342843
 30
0.0
 10
86.321238
 20
109.342843
 30
0.0
  0
LWPOLYLINE
  5
114
100
AcDbEntity
  8
Layer_1
 62
7
100
AcDbPolyline
 90
1
 70
1
 10
67.370100
 20
107.341660
 30
0.0
  0
SPLINE
  5
115
100
AcDbEntity
  8
Layer_1
 62
7
100
AcDbSpline
 70
8
 71
3
 72
8
 73
4
 74
0
 40
0
 40
0
 40
0
 40
0
 40
1
 40
1
 40
1
 40
1
 10
94.321231
 20
109.342843
 30
0.0
 10
93.511844
 20
109.342843
 30
0.0
 10
92.782154
 20
108.855281
 30
0.0
 10
92.472415
 20
108.107504
 30
0.0
  0
SPLINE
  5
116
100
AcDbEntity
  8
Layer_1
 62
7
100
AcDbSpline
 70
8
 71
3
 72
8
 73
4
 74
0
 40
0
 40
0
 40
0
 40
0
 40
1
 40
1
 40
1
 40
1
 10
92.472415
 20
108.107504
 30
0.0
 10
92.162676
 20
107.359728
 30
0.0
 10
92.333886
 20
106.499001
 30
0.0
 10
92.906209
 20
105.926678
 30
0.0
  0
SPLINE
  5
117
100
AcDbEntity
  8
Layer_1
 62
7
100
AcDbSpline
 70
8
 71
3
 72
8
 73
4
 74
0
 40
0
 40
0
 40
0
 40
0
 40
1
 40
1
 40
1
 40
1
 10
92.906209
 20
105.926678
 30
0.0
 10
93.478532
 20
105.354355
 30
0.0
 10
94.339259
 20
105.183145
 30
0.0
 10
95.087035
 20
105.492884
 30
0.0
  0
SPLINE
  5
118
100
AcDbEntity
  8
Layer_1
 62
7
100
AcDbSpline
 70
8
 71
3
 72
8
 73
4
 74
0
 40
0
 40
0
 40
0
 40
0
 40
1
 40
1
 40
1
 40
1
 10
95.087035
 20
105.492884
 30
0.0
 10
95.834812
 20
105.802623
 30
0.0
 10
96.322374
 20
106.532313
 30
0.0
 10
96.322374
 20
107.341700
 30
0.0
  0
SPLINE
  5
119
100
AcDbEntity
  8
Layer_1
 62
7
100
AcDbSpline
 70
8
 71
3
 72
8
 73
4
 74
0
 40
0
 40
0
 40
0
 40
0
 40
1
 40
1
 40
1
 40
1
 10
96.322374
 20
107.341700
 30
0.0
 10
96.322374
 20
107.872436
 30
0.0
 10
96.111540
 20
108.381435
 30
0.0
 10
95.736253
 20
108.756722
 30
0.0
  0
SPLINE
  5
11a
100
AcDbEntity
  8
Layer_1
 62
7
100
AcDbSpline
 70
8
 71
3
 72
8
 73
4
 74
0
 40
0
 40
0
 40
0
 40
0
 40
1
 40
1
 40
1
 40
1
 10
95.736253
 20
108.756722
 30
0.0
 10
95.360966
 20
109.132009
 30
0.0
 10
94.851967
 20
109.342843
 30
0.0
 10
94.321231
 20
109.342843
 30
0.0
  0
LWPOLYLINE
  5
11b
100
AcDbEntity
  8
Layer_1
 62
7
100
AcDbPolyline
 90
1
 70
1
 10
86.321238
 20
109.342843
 30
0.0
  0
SPLINE
  5
11c
100
AcDbEntity
  8
Layer_1
 62
7
100
AcDbSpline
 70
8
 71
3
 72
8
 73
4
 74
0
 40
0
 40
0
 40
0
 40
0
 40
1
 40
1
 40
1
 40
1
 10
102.321231
 20
109.342843
 30
0.0
 10
101.511844
 20
109.342843
 30
0.0
 10
100.782154
 20
108.855281
 30
0.0
 10
100.472415
 20
108.107504
 30
0.0
  0
SPLINE
  5
11d
100
AcDbEntity
  8
Layer_1
 62
7
100
AcDbSpline
 70
8
 71
3
 72
8
 73
4
 74
0
 40
0
 40
0
 40
0
 40
0
 40
1
 40
1
 40
1
 40
1
 10
100.472415
 20
108.107504
 30
0.0
 10
100.162676
 20
107.359728
 30
0.0
 10
100.333886
 20
106.499001
 30
0.0
 10
100.906209
 20
105.926678
 30
0.0
  0
SPLINE
  5
11e
100
AcDbEntity
  8
Layer_1
 62
7
100
AcDbSpline
 70
8
 71
3
 72
8
 73
4
 74
0
 40
0
 40
0
 40
0
 40
0
 40
1
 40
1
 40
1
 40
1
 10
100.906209
 20
105.926678
 30
0.0
 10
101.478532
 20
105.354355
 30
0.0
 10
102.339259
 20
105.183145
 30
0.0
 10
103.087035
 20
105.492884
 30
0.0
  0
SPLINE
  5
11f
100
AcDbEntity
  8
Layer_1
 62
7
100
AcDbSpline
 70
8
 71
3
 72
8
 73
4
 74
0
 40
0
 40
0
 40
0
 40
0
 40
1
 40
1
 40
1
 40
1
 10
103.087035
 20
105.492884
 30
0.0
 10
103.834812
 20
105.802623
 30
0.0
 10
104.322374
 20
106.532313
 30
0.0
 10
104.322374
 20
107.341700
 30
0.0
  0
SPLINE
  5
120
100
AcDbEntity
  8
Layer_1
 62
7
100
AcDbSpline
 70
8
 71
3
 72
8
 73
4
 74
0
 40
0
 40
0
 40
0
 40
0
 40
1
 40
1
 40
1
 40
1
 10
104.322374
 20
107.341700
 30
0.0
 10
104.322374
 20
107.872436
 30
0.0
 10
104.111540
 20
108.381435
 30
0.0
 10
103.736253
 20
108.756722
 30
0.0
  0
SPLINE
  5
121
100
AcDbEntity
  8
Layer_1
 62
7
100
AcDbSpline
 70
8
 71
3
 72
8
 73
4
 74
0
 40
0
 40
0
 40
0
 40
0
 40
1
 40
1
 40
1
 40
1
 10
103.736253
 20
108.756722
 30
0.0
 10
103.360966
 20
109.132009
 30
0.0
 10
102.851967
 20
109.342843
 30
0.0
 10
102.321231
 20
109.342843
 30
0.0
  0
LWPOLYLINE
  5
122
100
AcDbEntity
  8
Layer_1
 62
7
100
AcDbPolyline
 90
1
 70
1
 10
94.321231
 20
109.342843
 30
0.0
  0
SPLINE
  5
123
100
AcDbEntity
  8
Layer_1
 62
7
100
AcDbSpline
 70
8
 71
3
 72
8
 73
4
 74
0
 40
0
 40
0
 40
0
 40
0
 40
1
 40
1
 40
1
 40
1
 10
110.321231
 20
109.342843
 30
0.0
 10
109.511844
 20
109.342843
 30
0.0
 10
108.782154
 20
108.855281
 30
0.0
 10
108.472415
 20
108.107504
 30
0.0
  0
SPLINE
  5
124
100
AcDbEntity
  8
Layer_1
 62
7
100
AcDbSpline
 70
8
 71
3
 72
8
 73
4
 74
0
 40
0
 40
0
 40
0
 40
0
 40
1
 40
1
 40
1
 40
1
 10
108.472415
 20
108.107504
 30
0.0
 10
108.162676
 20
107.359728
 30
0.0
 10
108.333886
 20
106.499001
 30
0.0
 10
108.906209
 20
105.926678
 30
0.0
  0
SPLINE
  5
125
100
AcDbEntity
  8
Layer_1
 62
7
100
AcDbSpline
 70
8
 71
3
 72
8
 73
4
 74
0
 40
0
 40
0
 40
0
 40
0
 40
1
 40
1
 40
1
 40
1
 10
108.906209
 20
105.926678
 30
0.0
 10
109.478532
 20
105.354355
 30
0.0
 10
110.339259
 20
105.183145
 30
0.0
 10
111.087035
 20
105.492884
 30
0.0
  0
SPLINE
  5
126
100
AcDbEntity
  8
Layer_1
 62
7
100
AcDbSpline
 70
8
 71
3
 72
8
 73
4
 74
0
 40
0
 40
0
 40
0
 40
0
 40
1
 40
1
 40
1
 40
1
 10
111.087035
 20
105.492884
 30
0.0
 10
111.834812
 20
105.802623
 30
0.0
 10
112.322374
 20
106.532313
 30
0.0
 10
112.322374
 20
107.341700
 30
0.0
  0
SPLINE
  5
127
100
AcDbEntity
  8
Layer_1
 62
7
100
AcDbSpline
 70
8
 71
3
 72
8
 73
4
 74
0
 40
0
 40
0
 40
0
 40
0
 40
1
 40
1
 40
1
 40
1
 10
112.322374
 20
107.341700
 30
0.0
 10
112.322374
 20
107.872436
 30
0.0
 10
112.111540
 20
108.381435
 30
0.0
 10
111.736253
 20
108.756722
 30
0.0
  0
SPLINE
  5
128
100
AcDbEntity
  8
Layer_1
 62
7
100
AcDbSpline
 70
8
 71
3
 72
8
 73
4
 74
0
 40
0
 40
0
 40
0
 40
0
 40
1
 40
1
 40
1
 40
1
 10
111.736253
 20
108.756722
 30
0.0
 10
111.360966
 20
109.132009
 30
0.0
 10
110.851967
 20
109.342843
 30
0.0
 10
110.321231
 20
109.342843
 30
0.0
  0
LWPOLYLINE
  5
129
100
AcDbEntity
  8
Layer_1
 62
7
100
AcDbPolyline
 90
1
 70
1
 10
102.321231
 20
109.342843
 30
0.0
  0
SPLINE
  5
12a
100
AcDbEntity
  8
Layer_1
 62
7
100
AcDbSpline
 70
8
 71
3
 72
8
 73
4
 74
0
 40
0
 40
0
 40
0
 40
0
 40
1
 40
1
 40
1
 40
1
 10
118.321231
 20
109.342843
 30
0.0
 10
117.511844
 20
109.342843
 30
0.0
 10
116.782154
 20
108.855281
 30
0.0
 10
116.472415
 20
108.107504
 30
0.0
  0
SPLINE
  5
12b
100
AcDbEntity
  8
Layer_1
 62
7
100
AcDbSpline
 70
8
 71
3
 72
8
 73
4
 74
0
 40
0
 40
0
 40
0
 40
0
 40
1
 40
1
 40
1
 40
1
 10
116.472415
 20
108.107504
 30
0.0
 10
116.162676
 20
107.359728
 30
0.0
 10
116.333886
 20
106.499001
 30
0.0
 10
116.906209
 20
105.926678
 30
0.0
  0
SPLINE
  5
12c
100
AcDbEntity
  8
Layer_1
 62
7
100
AcDbSpline
 70
8
 71
3
 72
8
 73
4
 74
0
 40
0
 40
0
 40
0
 40
0
 40
1
 40
1
 40
1
 40
1
 10
116.906209
 20
105.926678
 30
0.0
 10
117.478532
 20
105.354355
 30
0.0
 10
118.339259
 20
105.183145
 30
0.0
 10
119.087035
 20
105.492884
 30
0.0
  0
SPLINE
  5
12d
100
AcDbEntity
  8
Layer_1
 62
7
100
AcDbSpline
 70
8
 71
3
 72
8
 73
4
 74
0
 40
0
 40
0
 40
0
 40
0
 40
1
 40
1
 40
1
 40
1
 10
119.087035
 20
105.492884
 30
0.0
 10
119.834812
 20
105.802623
 30
0.0
 10
120.322374
 20
106.532313
 30
0.0
 10
120.322374
 20
107.341700
 30
0.0
  0
SPLINE
  5
12e
100
AcDbEntity
  8
Layer_1
 62
7
100
AcDbSpline
 70
8
 71
3
 72
8
 73
4
 74
0
 40
0
 40
0
 40
0
 40
0
 40
1
 40
1
 40
1
 40
1
 10
120.322374
 20
107.341700
 30
0.0
 10
120.322374
 20
107.872436
 30
0.0
 10
120.111540
 20
108.381435
 30
0.0
 10
119.736253
 20
108.756722
 30
0.0
  0
SPLINE
  5
12f
100
AcDbEntity
  8
Layer_1
 62
7
100
AcDbSpline
 70
8
 71
3
 72
8
 73
4
 74
0
 40
0
 40
0
 40
0
 40
0
 40
1
 40
1
 40
1
 40
1
 10
119.736253
 20
108.756722
 30
0.0
 10
119.360966
 20
109.132009
 30
0.0
 10
118.851967
 20
109.342843
 30
0.0
 10
118.321231
 20
109.342843
 30
0.0
  0
LWPOLYLINE
  5
130
100
AcDbEntity
  8
Layer_1
 62
7
100
AcDbPolyline
 90
1
 70
1
 10
110.321231
 20
109.342843
 30
0.0
  0
SPLINE
  5
131
100
AcDbEntity
  8
Layer_1
 62
7
100
AcDbSpline
 70
8
 71
3
 72
8
 73
4
 74
0
 40
0
 40
0
 40
0
 40
0
 40
1
 40
1
 40
1
 40
1
 10
126.321241
 20
109.342843
 30
0.0
 10
125.511854
 20
109.342843
 30
0.0
 10
124.782164
 20
108.855281
 30
0.0
 10
124.472425
 20
108.107504
 30
0.0
  0
SPLINE
  5
132
100
AcDbEntity
  8
Layer_1
 62
7
100
AcDbSpline
 70
8
 71
3
 72
8
 73
4
 74
0
 40
0
 40
0
 40
0
 40
0
 40
1
 40
1
 40
1
 40
1
 10
124.472425
 20
108.107504
 30
0.0
 10
124.162686
 20
107.359728
 30
0.0
 10
124.333896
 20
106.499001
 30
0.0
 10
124.906219
 20
105.926678
 30
0.0
  0
SPLINE
  5
133
100
AcDbEntity
  8
Layer_1
 62
7
100
AcDbSpline
 70
8
 71
3
 72
8
 73
4
 74
0
 40
0
 40
0
 40
0
 40
0
 40
1
 40
1
 40
1
 40
1
 10
124.906219
 20
105.926678
 30
0.0
 10
125.478542
 20
105.354355
 30
0.0
 10
126.339269
 20
105.183145
 30
0.0
 10
127.087045
 20
105.492884
 30
0.0
  0
SPLINE
  5
134
100
AcDbEntity
  8
Layer_1
 62
7
100
AcDbSpline
 70
8
 71
3
 72
8
 73
4
 74
0
 40
0
 40
0
 40
0
 40
0
 40
1
 40
1
 40
1
 40
1
 10
127.087045
 20
105.492884
 30
0.0
 10
127.834822
 20
105.802623
 30
0.0
 10
128.322384
 20
106.532313
 30
0.0
 10
128.322384
 20
107.341700
 30
0.0
  0
SPLINE
  5
135
100
AcDbEntity
  8
Layer_1
 62
7
100
AcDbSpline
 70
8
 71
3
 72
8
 73
4
 74
0
 40
0
 40
0
 40
0
 40
0
 40
1
 40
1
 40
1
 40
1
 10
128.322384
 20
107.341700
 30
0.0
 10
128.322384
 20
108.446901
 30
0.0
 10
127.426442
 20
109.342843
 30
0.0
 10
126.321241
 20
109.342843
 30
0.0
  0
LWPOLYLINE
  5
136
100
AcDbEntity
  8
Layer_1
 62
7
100
AcDbPolyline
 90
1
 70
1
 10
118.321231
 20
109.342843
 30
0.0
  0
SPLINE
  5
137
100
AcDbEntity
  8
Layer_1
 62
7
100
AcDbSpline
 70
8
 71
3
 72
8
 73
4
 74
0
 40
0
 40
0
 40
0
 40
0
 40
1
 40
1
 40
1
 40
1
 10
134.321241
 20
109.342843
 30
0.0
 10
133.216040
 20
109.342843
 30
0.0
 10
132.320098
 20
108.446901
 30
0.0
 10
132.320098
 20
107.341700
 30
0.0
  0
SPLINE
  5
138
100
AcDbEntity
  8
Layer_1
 62
7
100
AcDbSpline
 70
8
 71
3
 72
8
 73
4
 74
0
 40
0
 40
0
 40
0
 40
0
 40
1
 40
1
 40
1
 40
1
 10
132.320098
 20
107.341700
 30
0.0
 10
132.320098
 20
106.236499
 30
0.0
 10
133.216040
 20
105.340556
 30
0.0
 10
134.321241
 20
105.340556
 30
0.0
  0
SPLINE
  5
139
100
AcDbEntity
  8
Layer_1
 62
7
100
AcDbSpline
 70
8
 71
3
 72
8
 73
4
 74
0
 40
0
 40
0
 40
0
 40
0
 40
1
 40
1
 40
1
 40
1
 10
134.321241
 20
105.340556
 30
0.0
 10
135.426442
 20
105.340556
 30
0.0
 10
136.322384
 20
106.236499
 30
0.0
 10
136.322384
 20
107.341700
 30
0.0
  0
SPLINE
  5
13a
100
AcDbEntity
  8
Layer_1
 62
7
100
AcDbSpline
 70
8
 71
3
 72
8
 73
4
 74
0
 40
0
 40
0
 40
0
 40
0
 40
1
 40
1
 40
1
 40
1
 10
136.322384
 20
107.341700
 30
0.0
 10
136.322384
 20
107.872436
 30
0.0
 10
136.111550
 20
108.381435
 30
0.0
 10
135.736263
 20
108.756722
 30
0.0
  0
SPLINE
  5
13b
100
AcDbEntity
  8
Layer_1
 62
7
100
AcDbSpline
 70
8
 71
3
 72
8
 73
4
 74
0
 40
0
 40
0
 40
0
 40
0
 40
1
 40
1
 40
1
 40
1
 10
135.736263
 20
108.756722
 30
0.0
 10
135.360976
 20
109.132009
 30
0.0
 10
134.851977
 20
109.342844
 30
0.0
 10
134.321241
 20
109.342843
 30
0.0
  0
LWPOLYLINE
  5
13c
100
AcDbEntity
  8
Layer_1
 62
7
100
AcDbPolyline
 90
1
 70
1
 10
126.321241
 20
109.342843
 30
0.0
  0
SPLINE
  5
13d
100
AcDbEntity
  8
Layer_1
 62
7
100
AcDbSpline
 70
8
 71
3
 72
8
 73
4
 74
0
 40
0
 40
0
 40
0
 40
0
 40
1
 40
1
 40
1
 40
1
 10
142.321241
 20
109.342843
 30
0.0
 10
141.511854
 20
109.342843
 30
0.0
 10
140.782164
 20
108.855281
 30
0.0
 10
140.472425
 20
108.107504
 30
0.0
  0
SPLINE
  5
13e
100
AcDbEntity
  8
Layer_1
 62
7
100
AcDbSpline
 70
8
 71
3
 72
8
 73
4
 74
0
 40
0
 40
0
 40
0
 40
0
 40
1
 40
1
 40
1
 40
1
 10
140.472425
 20
108.107504
 30
0.0
 10
140.162686
 20
107.359728
 30
0.0
 10
140.333896
 20
106.499001
 30
0.0
 10
140.906219
 20
105.926678
 30
0.0
  0
SPLINE
  5
13f
100
AcDbEntity
  8
Layer_1
 62
7
100
AcDbSpline
 70
8
 71
3
 72
8
 73
4
 74
0
 40
0
 40
0
 40
0
 40
0
 40
1
 40
1
 40
1
 40
1
 10
140.906219
 20
105.926678
 30
0.0
 10
141.478542
 20
105.354355
 30
0.0
 10
142.339269
 20
105.183145
 30
0.0
 10
143.087045
 20
105.492884
 30
0.0
  0
SPLINE
  5
140
100
AcDbEntity
  8
Layer_1
 62
7
100
AcDbSpline
 70
8
 71
3
 72
8
 73
4
 74
0
 40
0
 40
0
 40
0
 40
0
 40
1
 40
1
 40
1
 40
1
 10
143.087045
 20
105.492884
 30
0.0
 10
143.834822
 20
105.802623
 30
0.0
 10
144.322384
 20
106.532313
 30
0.0
 10
144.322384
 20
107.341700
 30
0.0
  0
SPLINE
  5
141
100
AcDbEntity
  8
Layer_1
 62
7
100
AcDbSpline
 70
8
 71
3
 72
8
 73
4
 74
0
 40
0
 40
0
 40
0
 40
0
 40
1
 40
1
 40
1
 40
1
 10
144.322384
 20
107.341700
 30
0.0
 10
144.322384
 20
107.872436
 30
0.0
 10
144.111550
 20
108.381435
 30
0.0
 10
143.736263
 20
108.756722
 30
0.0
  0
SPLINE
  5
142
100
AcDbEntity
  8
Layer_1
 62
7
100
AcDbSpline
 70
8
 71
3
 72
8
 73
4
 74
0
 40
0
 40
0
 40
0
 40
0
 40
1
 40
1
 40
1
 40
1
 10
143.736263
 20
108.756722
 30
0.0
 10
143.360976
 20
109.132009
 30
0.0
 10
142.851977
 20
109.342843
 30
0.0
 10
142.321241
 20
109.342843
 30
0.0
  0
LWPOLYLINE
  5
143
100
AcDbEntity
  8
Layer_1
 62
7
100
AcDbPolyline
 90
1
 70
1
 10
134.321241
 20
109.342843
 30
0.0
  0
SPLINE
  5
144
100
AcDbEntity
  8
Layer_1
 62
7
100
AcDbSpline
 70
8
 71
3
 72
8
 73
4
 74
0
 40
0
 40
0
 40
0
 40
0
 40
1
 40
1
 40
1
 40
1
 10
150.321241
 20
109.342843
 30
0.0
 10
149.216040
 20
109.342843
 30
0.0
 10
148.320098
 20
108.446901
 30
0.0
 10
148.320098
 20
107.341700
 30
0.0
  0
SPLINE
  5
145
100
AcDbEntity
  8
Layer_1
 62
7
100
AcDbSpline
 70
8
 71
3
 72
8
 73
4
 74
0
 40
0
 40
0
 40
0
 40
0
 40
1
 40
1
 40
1
 40
1
 10
148.320098
 20
107.341700
 30
0.0
 10
148.320098
 20
106.236499
 30
0.0
 10
149.216040
 20
105.340556
 30
0.0
 10
150.321241
 20
105.340556
 30
0.0
  0
SPLINE
  5
146
100
AcDbEntity
  8
Layer_1
 62
7
100
AcDbSpline
 70
8
 71
3
 72
8
 73
4
 74
0
 40
0
 40
0
 40
0
 40
0
 40
1
 40
1
 40
1
 40
1
 10
150.321241
 20
105.340556
 30
0.0
 10
151.426442
 20
105.340556
 30
0.0
 10
152.322385
 20
106.236499
 30
0.0
 10
152.322385
 20
107.341700
 30
0.0
  0
SPLINE
  5
147
100
AcDbEntity
  8
Layer_1
 62
7
100
AcDbSpline
 70
8
 71
3
 72
8
 73
4
 74
0
 40
0
 40
0
 40
0
 40
0
 40
1
 40
1
 40
1
 40
1
 10
152.322385
 20
107.341700
 30
0.0
 10
152.322385
 20
107.872436
 30
0.0
 10
152.111550
 20
108.381435
 30
0.0
 10
151.736263
 20
108.756722
 30
0.0
  0
SPLINE
  5
148
100
AcDbEntity
  8
Layer_1
 62
7
100
AcDbSpline
 70
8
 71
3
 72
8
 73
4
 74
0
 40
0
 40
0
 40
0
 40
0
 40
1
 40
1
 40
1
 40
1
 10
151.736263
 20
108.756722
 30
0.0
 10
151.360976
 20
109.132009
 30
0.0
 10
150.851977
 20
109.342844
 30
0.0
 10
150.321241
 20
109.342843
 30
0.0
  0
LWPOLYLINE
  5
149
100
AcDbEntity
  8
Layer_1
 62
7
100
AcDbPolyline
 90
1
 70
1
 10
142.321241
 20
109.342843
 30
0.0
  0
SPLINE
  5
14a
100
AcDbEntity
  8
Layer_1
 62
7
100
AcDbSpline
 70
8
 71
3
 72
8
 73
4
 74
0
 40
0
 40
0
 40
0
 40
0
 40
1
 40
1
 40
1
 40
1
 10
158.321241
 20
109.342843
 30
0.0
 10
157.511854
 20
109.342843
 30
0.0
 10
156.782164
 20
108.855281
 30
0.0
 10
156.472425
 20
108.107504
 30
0.0
  0
SPLINE
  5
14b
100
AcDbEntity
  8
Layer_1
 62
7
100
AcDbSpline
 70
8
 71
3
 72
8
 73
4
 74
0
 40
0
 40
0
 40
0
 40
0
 40
1
 40
1
 40
1
 40
1
 10
156.472425
 20
108.107504
 30
0.0
 10
156.162686
 20
107.359728
 30
0.0
 10
156.333896
 20
106.499001
 30
0.0
 10
156.906219
 20
105.926678
 30
0.0
  0
SPLINE
  5
14c
100
AcDbEntity
  8
Layer_1
 62
7
100
AcDbSpline
 70
8
 71
3
 72
8
 73
4
 74
0
 40
0
 40
0
 40
0
 40
0
 40
1
 40
1
 40
1
 40
1
 10
156.906219
 20
105.926678
 30
0.0
 10
157.478542
 20
105.354355
 30
0.0
 10
158.339269
 20
105.183145
 30
0.0
 10
159.087045
 20
105.492884
 30
0.0
  0
SPLINE
  5
14d
100
AcDbEntity
  8
Layer_1
 62
7
100
AcDbSpline
 70
8
 71
3
 72
8
 73
4
 74
0
 40
0
 40
0
 40
0
 40
0
 40
1
 40
1
 40
1
 40
1
 10
159.087045
 20
105.492884
 30
0.0
 10
159.834822
 20
105.802623
 30
0.0
 10
160.322384
 20
106.532313
 30
0.0
 10
160.322384
 20
107.341700
 30
0.0
  0
SPLINE
  5
14e
100
AcDbEntity
  8
Layer_1
 62
7
100
AcDbSpline
 70
8
 71
3
 72
8
 73
4
 74
0
 40
0
 40
0
 40
0
 40
0
 40
1
 40
1
 40
1
 40
1
 10
160.322384
 20
107.341700
 30
0.0
 10
160.322384
 20
107.872436
 30
0.0
 10
160.111550
 20
108.381435
 30
0.0
 10
159.736263
 20
108.756722
 30
0.0
  0
SPLINE
  5
14f
100
AcDbEntity
  8
Layer_1
 62
7
100
AcDbSpline
 70
8
 71
3
 72
8
 73
4
 74
0
 40
0
 40
0
 40
0
 40
0
 40
1
 40
1
 40
1
 40
1
 10
159.736263
 20
108.756722
 30
0.0
 10
159.360976
 20
109.132009
 30
0.0
 10
158.851977
 20
109.342843
 30
0.0
 10
158.321241
 20
109.342843
 30
0.0
  0
LWPOLYLINE
  5
150
100
AcDbEntity
  8
Layer_1
 62
7
100
AcDbPolyline
 90
1
 70
1
 10
150.321241
 20
109.342843
 30
0.0
  0
SPLINE
  5
151
100
AcDbEntity
  8
Layer_1
 62
7
100
AcDbSpline
 70
8
 71
3
 72
8
 73
4
 74
0
 40
0
 40
0
 40
0
 40
0
 40
1
 40
1
 40
1
 40
1
 10
166.321241
 20
109.342843
 30
0.0
 10
165.216040
 20
109.342843
 30
0.0
 10
164.320098
 20
108.446901
 30
0.0
 10
164.320098
 20
107.341700
 30
0.0
  0
SPLINE
  5
152
100
AcDbEntity
  8
Layer_1
 62
7
100
AcDbSpline
 70
8
 71
3
 72
8
 73
4
 74
0
 40
0
 40
0
 40
0
 40
0
 40
1
 40
1
 40
1
 40
1
 10
164.320098
 20
107.341700
 30
0.0
 10
164.320098
 20
106.236499
 30
0.0
 10
165.216040
 20
105.340556
 30
0.0
 10
166.321241
 20
105.340556
 30
0.0
  0
SPLINE
  5
153
100
AcDbEntity
  8
Layer_1
 62
7
100
AcDbSpline
 70
8
 71
3
 72
8
 73
4
 74
0
 40
0
 40
0
 40
0
 40
0
 40
1
 40
1
 40
1
 40
1
 10
166.321241
 20
105.340556
 30
0.0
 10
167.426442
 20
105.340556
 30
0.0
 10
168.322384
 20
106.236499
 30
0.0
 10
168.322384
 20
107.341700
 30
0.0
  0
SPLINE
  5
154
100
AcDbEntity
  8
Layer_1
 62
7
100
AcDbSpline
 70
8
 71
3
 72
8
 73
4
 74
0
 40
0
 40
0
 40
0
 40
0
 40
1
 40
1
 40
1
 40
1
 10
168.322384
 20
107.341700
 30
0.0
 10
168.322384
 20
107.872436
 30
0.0
 10
168.111550
 20
108.381435
 30
0.0
 10
167.736263
 20
108.756722
 30
0.0
  0
SPLINE
  5
155
100
AcDbEntity
  8
Layer_1
 62
7
100
AcDbSpline
 70
8
 71
3
 72
8
 73
4
 74
0
 40
0
 40
0
 40
0
 40
0
 40
1
 40
1
 40
1
 40
1
 10
167.736263
 20
108.756722
 30
0.0
 10
167.360976
 20
109.132009
 30
0.0
 10
166.851977
 20
109.342844
 30
0.0
 10
166.321241
 20
109.342843
 30
0.0
  0
LWPOLYLINE
  5
156
100
AcDbEntity
  8
Layer_1
 62
7
100
AcDbPolyline
 90
1
 70
1
 10
158.321241
 20
109.342843
 30
0.0
  0
SPLINE
  5
157
100
AcDbEntity
  8
Layer_1
 62
7
100
AcDbSpline
 70
8
 71
3
 72
8
 73
4
 74
0
 40
0
 40
0
 40
0
 40
0
 40
1
 40
1
 40
1
 40
1
 10
174.321241
 20
109.342843
 30
0.0
 10
173.511854
 20
109.342843
 30
0.0
 10
172.782164
 20
108.855281
 30
0.0
 10
172.472425
 20
108.107504
 30
0.0
  0
SPLINE
  5
158
100
AcDbEntity
  8
Layer_1
 62
7
100
AcDbSpline
 70
8
 71
3
 72
8
 73
4
 74
0
 40
0
 40
0
 40
0
 40
0
 40
1
 40
1
 40
1
 40
1
 10
172.472425
 20
108.107504
 30
0.0
 10
172.162686
 20
107.359728
 30
0.0
 10
172.333896
 20
106.499001
 30
0.0
 10
172.906219
 20
105.926678
 30
0.0
  0
SPLINE
  5
159
100
AcDbEntity
  8
Layer_1
 62
7
100
AcDbSpline
 70
8
 71
3
 72
8
 73
4
 74
0
 40
0
 40
0
 40
0
 40
0
 40
1
 40
1
 40
1
 40
1
 10
172.906219
 20
105.926678
 30
0.0
 10
173.478542
 20
105.354355
 30
0.0
 10
174.339269
 20
105.183145
 30
0.0
 10
175.087045
 20
105.492884
 30
0.0
  0
SPLINE
  5
15a
100
AcDbEntity
  8
Layer_1
 62
7
100
AcDbSpline
 70
8
 71
3
 72
8
 73
4
 74
0
 40
0
 40
0
 40
0
 40
0
 40
1
 40
1
 40
1
 40
1
 10
175.087045
 20
105.492884
 30
0.0
 10
175.834822
 20
105.802623
 30
0.0
 10
176.322384
 20
106.532313
 30
0.0
 10
176.322384
 20
107.341700
 30
0.0
  0
SPLINE
  5
15b
100
AcDbEntity
  8
Layer_1
 62
7
100
AcDbSpline
 70
8
 71
3
 72
8
 73
4
 74
0
 40
0
 40
0
 40
0
 40
0
 40
1
 40
1
 40
1
 40
1
 10
176.322384
 20
107.341700
 30
0.0
 10
176.322384
 20
107.872436
 30
0.0
 10
176.111550
 20
108.381435
 30
0.0
 10
175.736263
 20
108.756722
 30
0.0
  0
SPLINE
  5
15c
100
AcDbEntity
  8
Layer_1
 62
7
100
AcDbSpline
 70
8
 71
3
 72
8
 73
4
 74
0
 40
0
 40
0
 40
0
 40
0
 40
1
 40
1
 40
1
 40
1
 10
175.736263
 20
108.756722
 30
0.0
 10
175.360976
 20
109.132009
 30
0.0
 10
174.851977
 20
109.342843
 30
0.0
 10
174.321241
 20
109.342843
 30
0.0
  0
LWPOLYLINE
  5
15d
100
AcDbEntity
  8
Layer_1
 62
7
100
AcDbPolyline
 90
1
 70
1
 10
166.321241
 20
109.342843
 30
0.0
  0
SPLINE
  5
15e
100
AcDbEntity
  8
Layer_1
 62
7
100
AcDbSpline
 70
8
 71
3
 72
8
 73
4
 74
0
 40
0
 40
0
 40
0
 40
0
 40
1
 40
1
 40
1
 40
1
 10
182.321241
 20
109.342843
 30
0.0
 10
181.216040
 20
109.342843
 30
0.0
 10
180.320098
 20
108.446901
 30
0.0
 10
180.320098
 20
107.341700
 30
0.0
  0
SPLINE
  5
15f
100
AcDbEntity
  8
Layer_1
 62
7
100
AcDbSpline
 70
8
 71
3
 72
8
 73
4
 74
0
 40
0
 40
0
 40
0
 40
0
 40
1
 40
1
 40
1
 40
1
 10
180.320098
 20
107.341700
 30
0.0
 10
180.320098
 20
106.236499
 30
0.0
 10
181.216040
 20
105.340556
 30
0.0
 10
182.321241
 20
105.340556
 30
0.0
  0
SPLINE
  5
160
100
AcDbEntity
  8
Layer_1
 62
7
100
AcDbSpline
 70
8
 71
3
 72
8
 73
4
 74
0
 40
0
 40
0
 40
0
 40
0
 40
1
 40
1
 40
1
 40
1
 10
182.321241
 20
105.340556
 30
0.0
 10
183.426442
 20
105.340556
 30
0.0
 10
184.322385
 20
106.236499
 30
0.0
 10
184.322385
 20
107.341700
 30
0.0
  0
SPLINE
  5
161
100
AcDbEntity
  8
Layer_1
 62
7
100
AcDbSpline
 70
8
 71
3
 72
8
 73
4
 74
0
 40
0
 40
0
 40
0
 40
0
 40
1
 40
1
 40
1
 40
1
 10
184.322385
 20
107.341700
 30
0.0
 10
184.322385
 20
107.872436
 30
0.0
 10
184.111550
 20
108.381435
 30
0.0
 10
183.736263
 20
108.756722
 30
0.0
  0
SPLINE
  5
162
100
AcDbEntity
  8
Layer_1
 62
7
100
AcDbSpline
 70
8
 71
3
 72
8
 73
4
 74
0
 40
0
 40
0
 40
0
 40
0
 40
1
 40
1
 40
1
 40
1
 10
183.736263
 20
108.756722
 30
0.0
 10
183.360976
 20
109.132009
 30
0.0
 10
182.851977
 20
109.342844
 30
0.0
 10
182.321241
 20
109.342843
 30
0.0
  0
LWPOLYLINE
  5
163
100
AcDbEntity
  8
Layer_1
 62
7
100
AcDbPolyline
 90
1
 70
1
 10
174.321241
 20
109.342843
 30
0.0
  0
SPLINE
  5
164
100
AcDbEntity
  8
Layer_1
 62
7
100
AcDbSpline
 70
8
 71
3
 72
8
 73
4
 74
0
 40
0
 40
0
 40
0
 40
0
 40
1
 40
1
 40
1
 40
1
 10
190.321241
 20
109.342843
 30
0.0
 10
189.511854
 20
109.342843
 30
0.0
 10
188.782164
 20
108.855281
 30
0.0
 10
188.472425
 20
108.107504
 30
0.0
  0
SPLINE
  5
165
100
AcDbEntity
  8
Layer_1
 62
7
100
AcDbSpline
 70
8
 71
3
 72
8
 73
4
 74
0
 40
0
 40
0
 40
0
 40
0
 40
1
 40
1
 40
1
 40
1
 10
188.472425
 20
108.107504
 30
0.0
 10
188.162686
 20
107.359728
 30
0.0
 10
188.333896
 20
106.499001
 30
0.0
 10
188.906219
 20
105.926678
 30
0.0
  0
SPLINE
  5
166
100
AcDbEntity
  8
Layer_1
 62
7
100
AcDbSpline
 70
8
 71
3
 72
8
 73
4
 74
0
 40
0
 40
0
 40
0
 40
0
 40
1
 40
1
 40
1
 40
1
 10
188.906219
 20
105.926678
 30
0.0
 10
189.478542
 20
105.354355
 30
0.0
 10
190.339269
 20
105.183145
 30
0.0
 10
191.087045
 20
105.492884
 30
0.0
  0
SPLINE
  5
167
100
AcDbEntity
  8
Layer_1
 62
7
100
AcDbSpline
 70
8
 71
3
 72
8
 73
4
 74
0
 40
0
 40
0
 40
0
 40
0
 40
1
 40
1
 40
1
 40
1
 10
191.087045
 20
105.492884
 30
0.0
 10
191.834822
 20
105.802623
 30
0.0
 10
192.322384
 20
106.532313
 30
0.0
 10
192.322384
 20
107.341700
 30
0.0
  0
SPLINE
  5
168
100
AcDbEntity
  8
Layer_1
 62
7
100
AcDbSpline
 70
8
 71
3
 72
8
 73
4
 74
0
 40
0
 40
0
 40
0
 40
0
 40
1
 40
1
 40
1
 40
1
 10
192.322384
 20
107.341700
 30
0.0
 10
192.322384
 20
107.872436
 30
0.0
 10
192.111550
 20
108.381435
 30
0.0
 10
191.736263
 20
108.756722
 30
0.0
  0
SPLINE
  5
169
100
AcDbEntity
  8
Layer_1
 62
7
100
AcDbSpline
 70
8
 71
3
 72
8
 73
4
 74
0
 40
0
 40
0
 40
0
 40
0
 40
1
 40
1
 40
1
 40
1
 10
191.736263
 20
108.756722
 30
0.0
 10
191.360976
 20
109.132009
 30
0.0
 10
190.851977
 20
109.342843
 30
0.0
 10
190.321241
 20
109.342843
 30
0.0
  0
LWPOLYLINE
  5
16a
100
AcDbEntity
  8
Layer_1
 62
7
100
AcDbPolyline
 90
1
 70
1
 10
182.321241
 20
109.342843
 30
0.0
  0
SPLINE
  5
16b
100
AcDbEntity
  8
Layer_1
 62
7
100
AcDbSpline
 70
8
 71
3
 72
8
 73
4
 74
0
 40
0
 40
0
 40
0
 40
0
 40
1
 40
1
 40
1
 40
1
 10
198.321241
 20
109.342843
 30
0.0
 10
197.216040
 20
109.342843
 30
0.0
 10
196.320098
 20
108.446901
 30
0.0
 10
196.320098
 20
107.341700
 30
0.0
  0
SPLINE
  5
16c
100
AcDbEntity
  8
Layer_1
 62
7
100
AcDbSpline
 70
8
 71
3
 72
8
 73
4
 74
0
 40
0
 40
0
 40
0
 40
0
 40
1
 40
1
 40
1
 40
1
 10
196.320098
 20
107.341700
 30
0.0
 10
196.320098
 20
106.236499
 30
0.0
 10
197.216040
 20
105.340556
 30
0.0
 10
198.321241
 20
105.340556
 30
0.0
  0
SPLINE
  5
16d
100
AcDbEntity
  8
Layer_1
 62
7
100
AcDbSpline
 70
8
 71
3
 72
8
 73
4
 74
0
 40
0
 40
0
 40
0
 40
0
 40
1
 40
1
 40
1
 40
1
 10
198.321241
 20
105.340556
 30
0.0
 10
199.426442
 20
105.340556
 30
0.0
 10
200.322384
 20
106.236499
 30
0.0
 10
200.322384
 20
107.341700
 30
0.0
  0
SPLINE
  5
16e
100
AcDbEntity
  8
Layer_1
 62
7
100
AcDbSpline
 70
8
 71
3
 72
8
 73
4
 74
0
 40
0
 40
0
 40
0
 40
0
 40
1
 40
1
 40
1
 40
1
 10
200.322384
 20
107.341700
 30
0.0
 10
200.322384
 20
107.872436
 30
0.0
 10
200.111550
 20
108.381435
 30
0.0
 10
199.736263
 20
108.756722
 30
0.0
  0
SPLINE
  5
16f
100
AcDbEntity
  8
Layer_1
 62
7
100
AcDbSpline
 70
8
 71
3
 72
8
 73
4
 74
0
 40
0
 40
0
 40
0
 40
0
 40
1
 40
1
 40
1
 40
1
 10
199.736263
 20
108.756722
 30
0.0
 10
199.360976
 20
109.132009
 30
0.0
 10
198.851977
 20
109.342844
 30
0.0
 10
198.321241
 20
109.342843
 30
0.0
  0
LWPOLYLINE
  5
170
100
AcDbEntity
  8
Layer_1
 62
7
100
AcDbPolyline
 90
1
 70
1
 10
190.321241
 20
109.342843
 30
0.0
  0
SPLINE
  5
171
100
AcDbEntity
  8
Layer_1
 62
7
100
AcDbSpline
 70
8
 71
3
 72
8
 73
4
 74
0
 40
0
 40
0
 40
0
 40
0
 40
1
 40
1
 40
1
 40
1
 10
206.321241
 20
109.342843
 30
0.0
 10
205.511854
 20
109.342843
 30
0.0
 10
204.782164
 20
108.855281
 30
0.0
 10
204.472425
 20
108.107504
 30
0.0
  0
SPLINE
  5
172
100
AcDbEntity
  8
Layer_1
 62
7
100
AcDbSpline
 70
8
 71
3
 72
8
 73
4
 74
0
 40
0
 40
0
 40
0
 40
0
 40
1
 40
1
 40
1
 40
1
 10
204.472425
 20
108.107504
 30
0.0
 10
204.162686
 20
107.359728
 30
0.0
 10
204.333896
 20
106.499001
 30
0.0
 10
204.906219
 20
105.926678
 30
0.0
  0
SPLINE
  5
173
100
AcDbEntity
  8
Layer_1
 62
7
100
AcDbSpline
 70
8
 71
3
 72
8
 73
4
 74
0
 40
0
 40
0
 40
0
 40
0
 40
1
 40
1
 40
1
 40
1
 10
204.906219
 20
105.926678
 30
0.0
 10
205.478542
 20
105.354355
 30
0.0
 10
206.339269
 20
105.183145
 30
0.0
 10
207.087045
 20
105.492884
 30
0.0
  0
SPLINE
  5
174
100
AcDbEntity
  8
Layer_1
 62
7
100
AcDbSpline
 70
8
 71
3
 72
8
 73
4
 74
0
 40
0
 40
0
 40
0
 40
0
 40
1
 40
1
 40
1
 40
1
 10
207.087045
 20
105.492884
 30
0.0
 10
207.834822
 20
105.802623
 30
0.0
 10
208.322384
 20
106.532313
 30
0.0
 10
208.322384
 20
107.341700
 30
0.0
  0
SPLINE
  5
175
100
AcDbEntity
  8
Layer_1
 62
7
100
AcDbSpline
 70
8
 71
3
 72
8
 73
4
 74
0
 40
0
 40
0
 40
0
 40
0
 40
1
 40
1
 40
1
 40
1
 10
208.322384
 20
107.341700
 30
0.0
 10
208.322384
 20
107.872436
 30
0.0
 10
208.111550
 20
108.381435
 30
0.0
 10
207.736263
 20
108.756722
 30
0.0
  0
SPLINE
  5
176
100
AcDbEntity
  8
Layer_1
 62
7
100
AcDbSpline
 70
8
 71
3
 72
8
 73
4
 74
0
 40
0
 40
0
 40
0
 40
0
 40
1
 40
1
 40
1
 40
1
 10
207.736263
 20
108.756722
 30
0.0
 10
207.360976
 20
109.132009
 30
0.0
 10
206.851977
 20
109.342843
 30
0.0
 10
206.321241
 20
109.342843
 30
0.0
  0
LWPOLYLINE
  5
177
100
AcDbEntity
  8
Layer_1
 62
7
100
AcDbPolyline
 90
1
 70
1
 10
198.321241
 20
109.342843
 30
0.0
  0
SPLINE
  5
178
100
AcDbEntity
  8
Layer_1
 62
7
100
AcDbSpline
 70
8
 71
3
 72
8
 73
4
 74
0
 40
0
 40
0
 40
0
 40
0
 40
1
 40
1
 40
1
 40
1
 10
214.321241
 20
109.342843
 30
0.0
 10
213.216040
 20
109.342843
 30
0.0
 10
212.320098
 20
108.446901
 30
0.0
 10
212.320098
 20
107.341700
 30
0.0
  0
SPLINE
  5
179
100
AcDbEntity
  8
Layer_1
 62
7
100
AcDbSpline
 70
8
 71
3
 72
8
 73
4
 74
0
 40
0
 40
0
 40
0
 40
0
 40
1
 40
1
 40
1
 40
1
 10
212.320098
 20
107.341700
 30
0.0
 10
212.320098
 20
106.236499
 30
0.0
 10
213.216040
 20
105.340556
 30
0.0
 10
214.321241
 20
105.340556
 30
0.0
  0
SPLINE
  5
17a
100
AcDbEntity
  8
Layer_1
 62
7
100
AcDbSpline
 70
8
 71
3
 72
8
 73
4
 74
0
 40
0
 40
0
 40
0
 40
0
 40
1
 40
1
 40
1
 40
1
 10
214.321241
 20
105.340556
 30
0.0
 10
215.426442
 20
105.340556
 30
0.0
 10
216.322385
 20
106.236499
 30
0.0
 10
216.322385
 20
107.341700
 30
0.0
  0
SPLINE
  5
17b
100
AcDbEntity
  8
Layer_1
 62
7
100
AcDbSpline
 70
8
 71
3
 72
8
 73
4
 74
0
 40
0
 40
0
 40
0
 40
0
 40
1
 40
1
 40
1
 40
1
 10
216.322385
 20
107.341700
 30
0.0
 10
216.322385
 20
107.872436
 30
0.0
 10
216.111550
 20
108.381435
 30
0.0
 10
215.736263
 20
108.756722
 30
0.0
  0
SPLINE
  5
17c
100
AcDbEntity
  8
Layer_1
 62
7
100
AcDbSpline
 70
8
 71
3
 72
8
 73
4
 74
0
 40
0
 40
0
 40
0
 40
0
 40
1
 40
1
 40
1
 40
1
 10
215.736263
 20
108.756722
 30
0.0
 10
215.360976
 20
109.132009
 30
0.0
 10
214.851977
 20
109.342844
 30
0.0
 10
214.321241
 20
109.342843
 30
0.0
  0
LWPOLYLINE
  5
17d
100
AcDbEntity
  8
Layer_1
 62
7
100
AcDbPolyline
 90
1
 70
1
 10
206.321241
 20
109.342843
 30
0.0
  0
SPLINE
  5
17e
100
AcDbEntity
  8
Layer_1
 62
7
100
AcDbSpline
 70
8
 71
3
 72
8
 73
4
 74
0
 40
0
 40
0
 40
0
 40
0
 40
1
 40
1
 40
1
 40
1
 10
222.321241
 20
109.342843
 30
0.0
 10
221.511854
 20
109.342843
 30
0.0
 10
220.782164
 20
108.855281
 30
0.0
 10
220.472425
 20
108.107504
 30
0.0
  0
SPLINE
  5
17f
100
AcDbEntity
  8
Layer_1
 62
7
100
AcDbSpline
 70
8
 71
3
 72
8
 73
4
 74
0
 40
0
 40
0
 40
0
 40
0
 40
1
 40
1
 40
1
 40
1
 10
220.472425
 20
108.107504
 30
0.0
 10
220.162686
 20
107.359728
 30
0.0
 10
220.333896
 20
106.499001
 30
0.0
 10
220.906219
 20
105.926678
 30
0.0
  0
SPLINE
  5
180
100
AcDbEntity
  8
Layer_1
 62
7
100
AcDbSpline
 70
8
 71
3
 72
8
 73
4
 74
0
 40
0
 40
0
 40
0
 40
0
 40
1
 40
1
 40
1
 40
1
 10
220.906219
 20
105.926678
 30
0.0
 10
221.478542
 20
105.354355
 30
0.0
 10
222.339269
 20
105.183145
 30
0.0
 10
223.087045
 20
105.492884
 30
0.0
  0
SPLINE
  5
181
100
AcDbEntity
  8
Layer_1
 62
7
100
AcDbSpline
 70
8
 71
3
 72
8
 73
4
 74
0
 40
0
 40
0
 40
0
 40
0
 40
1
 40
1
 40
1
 40
1
 10
223.087045
 20
105.492884
 30
0.0
 10
223.834822
 20
105.802623
 30
0.0
 10
224.322384
 20
106.532313
 30
0.0
 10
224.322384
 20
107.341700
 30
0.0
  0
SPLINE
  5
182
100
AcDbEntity
  8
Layer_1
 62
7
100
AcDbSpline
 70
8
 71
3
 72
8
 73
4
 74
0
 40
0
 40
0
 40
0
 40
0
 40
1
 40
1
 40
1
 40
1
 10
224.322384
 20
107.341700
 30
0.0
 10
224.322384
 20
107.872436
 30
0.0
 10
224.111550
 20
108.381435
 30
0.0
 10
223.736263
 20
108.756722
 30
0.0
  0
SPLINE
  5
183
100
AcDbEntity
  8
Layer_1
 62
7
100
AcDbSpline
 70
8
 71
3
 72
8
 73
4
 74
0
 40
0
 40
0
 40
0
 40
0
 40
1
 40
1
 40
1
 40
1
 10
223.736263
 20
108.756722
 30
0.0
 10
223.360976
 20
109.132009
 30
0.0
 10
222.851977
 20
109.342843
 30
0.0
 10
222.321241
 20
109.342843
 30
0.0
  0
LWPOLYLINE
  5
184
100
AcDbEntity
  8
Layer_1
 62
7
100
AcDbPolyline
 90
1
 70
1
 10
214.321241
 20
109.342843
 30
0.0
  0
LWPOLYLINE
  5
185
100
AcDbEntity
  8
Layer_1
 62
7
100
AcDbPolyline
 90
1
 70
1
 10
222.321241
 20
109.342843
 30
0.0
  0
ENDSEC
  0
SECTION
  2
OBJECTS
  0
DICTIONARY
  5
C
330
0
100
AcDbDictionary
  3
ACAD_GROUP
350
D
  3
ACAD_MLINESTYLE
350
17
  0
DICTIONARY
  5
D
330
C
100
AcDbDictionary
  0
DICTIONARY
  5
1A
330
C
100
AcDbDictionary
  0
DICTIONARY
  5
17
330
C
100
AcDbDictionary
  3
STANDARD
350
18
  0
DICTIONARY
  5
19
330
C
100
AcDbDictionary
  0
ENDSEC
  0
EOF
