  0
SECTION
  2
HEADER
  9
$ACADVER
  1
AC1014
  9
$HANDSEED
  5
FFFF
  9
$INSUNITS
 70
     4
  9
$MEASUREMENT
 70
     1
  0
ENDSEC
  0
SECTION
  2
TABLES
  0
TABLE
  2
VPORT
  5
8
330
0
100
AcDbSymbolTable
 70
     4
  0
VPORT
  5
2E
330
8
100
AcDbSymbolTableRecord
100
AcDbViewportTableRecord
  2
*ACTIVE
 70
     0
 10
0.0
 20
0.0
 11
1.0
 21
1.0
 12
210.0
 22
148.5
 13
0.0
 23
0.0
 14
10.0
 24
10.0
 15
10.0
 25
10.0
 16
0.0
 26
0.0
 36
1.0
 17
0.0
 27
0.0
 37
0.0
 40
341.0
 41
1.24
 42
50.0
 43
0.0
 44
0.0
 50
0.0
 51
0.0
 71
     0
 72
   100
 73
     1
 74
     3
 75
     0
 76
     0
 77
     0
 78
     0
  0
ENDTAB
  0
TABLE
  2
LTYPE
  5
5
330
0
100
AcDbSymbolTable
 70
     1
  0
LTYPE
  5
14
330
5
100
AcDbSymbolTableRecord
100
AcDbLinetypeTableRecord
  2
BYBLOCK
 70
     0
  3

 72
    65
 73
     0
 40
0.0
  0
LTYPE
  5
15
330
5
100
AcDbSymbolTableRecord
100
AcDbLinetypeTableRecord
  2
BYLAYER
 70
     0
  3

 72
    65
 73
     0
 40
0.0
  0
LTYPE
  5
16
330
5
100
AcDbSymbolTableRecord
100
AcDbLinetypeTableRecord
  2
CONTINUOUS
 70
     0
  3
Solid line
 72
    65
 73
     0
 40
0.0
  0
ENDTAB
  0
TABLE
  2
LAYER
  5
2
100
AcDbSymbolTable
 70
2
  0
LAYER
  5
50
100
AcDbSymbolTableRecord
100
AcDbLayerTableRecord
  2
0
 70
0
  6
CONTINUOUS
  0
LAYER
  5
51
100
AcDbSymbolTableRecord
100
AcDbLayerTableRecord
  2
Layer_1
 70
0
  6
CONTINUOUS
  0
ENDTAB
  0
TABLE
  2
STYLE
  5
3
330
0
100
AcDbSymbolTable
 70
     1
  0
STYLE
  5
11
330
3
100
AcDbSymbolTableRecord
100
AcDbTextStyleTableRecord
  2
STANDARD
 70
     0
 40
0.0
 41
1.0
 50
0.0
 71
     0
 42
2.5
  3
txt
  4

  0
ENDTAB
  0
TABLE
  2
VIEW
  5
6
330
0
100
AcDbSymbolTable
 70
     0
  0
ENDTAB
  0
TABLE
  2
UCS
  5
7
330
0
100
AcDbSymbolTable
 70
     0
  0
ENDTAB
  0
TABLE
  2
APPID
  5
9
330
0
100
AcDbSymbolTable
 70
     2
  0
APPID
  5
12
330
9
100
AcDbSymbolTableRecord
100
AcDbRegAppTableRecord
  2
ACAD
 70
     0
  0
ENDTAB
  0
TABLE
  2
DIMSTYLE
  5
A
330
0
100
AcDbSymbolTable
 70
     1
  0
DIMSTYLE
105
27
330
A
100
AcDbSymbolTableRecord
100
AcDbDimStyleTableRecord
  2
ISO-25
 70
     0
  3

  4

  5

  6

  7

 40
1.0
 41
2.5
 42
0.625
 43
3.75
 44
1.25
 45
0.0
 46
0.0
 47
0.0
 48
0.0
140
2.5
141
2.5
142
0.0
143
0.03937007874016
144
1.0
145
0.0
146
1.0
147
0.625
 71
     0
 72
     0
 73
     0
 74
     0
 75
     0
 76
     0
 77
     1
 78
     8
170
     0
171
     3
172
     1
173
     0
174
     0
175
     0
176
     0
177
     0
178
     0
270
     2
271
     2
272
     2
273
     2
274
     3
340
11
275
     0
280
     0
281
     0
282
     0
283
     0
284
     8
285
     0
286
     0
287
     3
288
     0
  0
ENDTAB
  0
TABLE
  2
BLOCK_RECORD
  5
1
330
0
100
AcDbSymbolTable
 70
     1
  0
BLOCK_RECORD
  5
1F
330
1
100
AcDbSymbolTableRecord
100
AcDbBlockTableRecord
  2
*MODEL_SPACE
  0
BLOCK_RECORD
  5
1B
330
1
100
AcDbSymbolTableRecord
100
AcDbBlockTableRecord
  2
*PAPER_SPACE
  0
ENDTAB
  0
ENDSEC
  0
SECTION
  2
BLOCKS
  0
BLOCK
  5
20
330
1F
100
AcDbEntity
  8
0
100
AcDbBlockBegin
  2
*MODEL_SPACE
 70
     0
 10
0.0
 20
0.0
 30
0.0
  3
*MODEL_SPACE
  1

  0
ENDBLK
  5
21
330
1F
100
AcDbEntity
  8
0
100
AcDbBlockEnd
  0
BLOCK
  5
1C
330
1B
100
AcDbEntity
 67
     1
  8
0
100
AcDbBlockBegin
  2
*PAPER_SPACE
  1

  0
ENDBLK
  5
1D
330
1B
100
AcDbEntity
 67
     1
  8
0
100
AcDbBlockEnd
  0
ENDSEC
  0
SECTION
  2
ENTITIES
  0
SPLINE
  5
100
100
AcDbEntity
  8
Layer_1
 62
7
100
AcDbSpline
 70
8
 71
3
 72
8
 73
4
 74
0
 40
0
 40
0
 40
0
 40
0
 40
1
 40
1
 40
1
 40
1
 10
175.070560
 20
226.912202
 30
0.0
 10
174.261173
 20
226.912202
 30
0.0
 10
173.531483
 20
226.424640
 30
0.0
 10
173.221744
 20
225.676863
 30
0.0
  0
SPLINE
  5
101
100
AcDbEntity
  8
Layer_1
 62
7
100
AcDbSpline
 70
8
 71
3
 72
8
 73
4
 74
0
 40
0
 40
0
 40
0
 40
0
 40
1
 40
1
 40
1
 40
1
 10
173.221744
 20
225.676863
 30
0.0
 10
172.912005
 20
224.929087
 30
0.0
 10
173.083215
 20
224.068360
 30
0.0
 10
173.655538
 20
223.496037
 30
0.0
  0
SPLINE
  5
102
100
AcDbEntity
  8
Layer_1
 62
7
100
AcDbSpline
 70
8
 71
3
 72
8
 73
4
 74
0
 40
0
 40
0
 40
0
 40
0
 40
1
 40
1
 40
1
 40
1
 10
173.655538
 20
223.496037
 30
0.0
 10
174.227861
 20
222.923714
 30
0.0
 10
175.088588
 20
222.752504
 30
0.0
 10
175.836364
 20
223.062243
 30
0.0
  0
SPLINE
  5
103
100
AcDbEntity
  8
Layer_1
 62
7
100
AcDbSpline
 70
8
 71
3
 72
8
 73
4
 74
0
 40
0
 40
0
 40
0
 40
0
 40
1
 40
1
 40
1
 40
1
 10
175.836364
 20
223.062243
 30
0.0
 10
176.584141
 20
223.371982
 30
0.0
 10
177.071704
 20
224.101672
 30
0.0
 10
177.071704
 20
224.911059
 30
0.0
  0
SPLINE
  5
104
100
AcDbEntity
  8
Layer_1
 62
7
100
AcDbSpline
 70
8
 71
3
 72
8
 73
4
 74
0
 40
0
 40
0
 40
0
 40
0
 40
1
 40
1
 40
1
 40
1
 10
177.071704
 20
224.911059
 30
0.0
 10
177.071704
 20
225.441795
 30
0.0
 10
176.860869
 20
225.950794
 30
0.0
 10
176.485582
 20
226.326081
 30
0.0
  0
SPLINE
  5
105
100
AcDbEntity
  8
Layer_1
 62
7
100
AcDbSpline
 70
8
 71
3
 72
8
 73
4
 74
0
 40
0
 40
0
 40
0
 40
0
 40
1
 40
1
 40
1
 40
1
 10
176.485582
 20
226.326081
 30
0.0
 10
176.110295
 20
226.701368
 30
0.0
 10
175.601296
 20
226.912202
 30
0.0
 10
175.070560
 20
226.912202
 30
0.0
  0
SPLINE
  5
106
100
AcDbEntity
  8
Layer_1
 62
7
100
AcDbSpline
 70
8
 71
3
 72
8
 73
4
 74
0
 40
0
 40
0
 40
0
 40
0
 40
1
 40
1
 40
1
 40
1
 10
183.070560
 20
226.912202
 30
0.0
 10
181.965359
 20
226.912202
 30
0.0
 10
181.069417
 20
226.016260
 30
0.0
 10
181.069417
 20
224.911059
 30
0.0
  0
SPLINE
  5
107
100
AcDbEntity
  8
Layer_1
 62
7
100
AcDbSpline
 70
8
 71
3
 72
8
 73
4
 74
0
 40
0
 40
0
 40
0
 40
0
 40
1
 40
1
 40
1
 40
1
 10
181.069417
 20
224.911059
 30
0.0
 10
181.069417
 20
223.805858
 30
0.0
 10
181.965359
 20
222.909915
 30
0.0
 10
183.070560
 20
222.909915
 30
0.0
  0
SPLINE
  5
108
100
AcDbEntity
  8
Layer_1
 62
7
100
AcDbSpline
 70
8
 71
3
 72
8
 73
4
 74
0
 40
0
 40
0
 40
0
 40
0
 40
1
 40
1
 40
1
 40
1
 10
183.070560
 20
222.909915
 30
0.0
 10
184.175761
 20
222.909915
 30
0.0
 10
185.071704
 20
223.805858
 30
0.0
 10
185.071704
 20
224.911059
 30
0.0
  0
SPLINE
  5
109
100
AcDbEntity
  8
Layer_1
 62
7
100
AcDbSpline
 70
8
 71
3
 72
8
 73
4
 74
0
 40
0
 40
0
 40
0
 40
0
 40
1
 40
1
 40
1
 40
1
 10
185.071704
 20
224.911059
 30
0.0
 10
185.071704
 20
225.441795
 30
0.0
 10
184.860869
 20
225.950794
 30
0.0
 10
184.485582
 20
226.326081
 30
0.0
  0
SPLINE
  5
10a
100
AcDbEntity
  8
Layer_1
 62
7
100
AcDbSpline
 70
8
 71
3
 72
8
 73
4
 74
0
 40
0
 40
0
 40
0
 40
0
 40
1
 40
1
 40
1
 40
1
 10
184.485582
 20
226.326081
 30
0.0
 10
184.110295
 20
226.701368
 30
0.0
 10
183.601296
 20
226.912203
 30
0.0
 10
183.070560
 20
226.912202
 30
0.0
  0
LWPOLYLINE
  5
10b
100
AcDbEntity
  8
Layer_1
 62
7
100
AcDbPolyline
 90
1
 70
1
 10
175.070560
 20
226.912202
 30
0.0
  0
SPLINE
  5
10c
100
AcDbEntity
  8
Layer_1
 62
7
100
AcDbSpline
 70
8
 71
3
 72
8
 73
4
 74
0
 40
0
 40
0
 40
0
 40
0
 40
1
 40
1
 40
1
 40
1
 10
191.070560
 20
226.912202
 30
0.0
 10
190.261173
 20
226.912202
 30
0.0
 10
189.531483
 20
226.424640
 30
0.0
 10
189.221744
 20
225.676863
 30
0.0
  0
SPLINE
  5
10d
100
AcDbEntity
  8
Layer_1
 62
7
100
AcDbSpline
 70
8
 71
3
 72
8
 73
4
 74
0
 40
0
 40
0
 40
0
 40
0
 40
1
 40
1
 40
1
 40
1
 10
189.221744
 20
225.676863
 30
0.0
 10
188.912005
 20
224.929087
 30
0.0
 10
189.083215
 20
224.068360
 30
0.0
 10
189.655538
 20
223.496037
 30
0.0
  0
SPLINE
  5
10e
100
AcDbEntity
  8
Layer_1
 62
7
100
AcDbSpline
 70
8
 71
3
 72
8
 73
4
 74
0
 40
0
 40
0
 40
0
 40
0
 40
1
 40
1
 40
1
 40
1
 10
189.655538
 20
223.496037
 30
0.0
 10
190.227861
 20
222.923714
 30
0.0
 10
191.088588
 20
222.752504
 30
0.0
 10
191.836364
 20
223.062243
 30
0.0
  0
SPLINE
  5
10f
100
AcDbEntity
  8
Layer_1
 62
7
100
AcDbSpline
 70
8
 71
3
 72
8
 73
4
 74
0
 40
0
 40
0
 40
0
 40
0
 40
1
 40
1
 40
1
 40
1
 10
191.836364
 20
223.062243
 30
0.0
 10
192.584141
 20
223.371982
 30
0.0
 10
193.071704
 20
224.101672
 30
0.0
 10
193.071704
 20
224.911059
 30
0.0
  0
SPLINE
  5
110
100
AcDbEntity
  8
Layer_1
 62
7
100
AcDbSpline
 70
8
 71
3
 72
8
 73
4
 74
0
 40
0
 40
0
 40
0
 40
0
 40
1
 40
1
 40
1
 40
1
 10
193.071704
 20
224.911059
 30
0.0
 10
193.071704
 20
225.441795
 30
0.0
 10
192.860869
 20
225.950794
 30
0.0
 10
192.485582
 20
226.326081
 30
0.0
  0
SPLINE
  5
111
100
AcDbEntity
  8
Layer_1
 62
7
100
AcDbSpline
 70
8
 71
3
 72
8
 73
4
 74
0
 40
0
 40
0
 40
0
 40
0
 40
1
 40
1
 40
1
 40
1
 10
192.485582
 20
226.326081
 30
0.0
 10
192.110295
 20
226.701368
 30
0.0
 10
191.601296
 20
226.912202
 30
0.0
 10
191.070560
 20
226.912202
 30
0.0
  0
LWPOLYLINE
  5
112
100
AcDbEntity
  8
Layer_1
 62
7
100
AcDbPolyline
 90
1
 70
1
 10
183.070560
 20
226.912202
 30
0.0
  0
SPLINE
  5
113
100
AcDbEntity
  8
Layer_1
 62
7
100
AcDbSpline
 70
8
 71
3
 72
8
 73
4
 74
0
 40
0
 40
0
 40
0
 40
0
 40
1
 40
1
 40
1
 40
1
 10
199.070560
 20
226.912202
 30
0.0
 10
197.965359
 20
226.912202
 30
0.0
 10
197.069417
 20
226.016260
 30
0.0
 10
197.069417
 20
224.911059
 30
0.0
  0
SPLINE
  5
114
100
AcDbEntity
  8
Layer_1
 62
7
100
AcDbSpline
 70
8
 71
3
 72
8
 73
4
 74
0
 40
0
 40
0
 40
0
 40
0
 40
1
 40
1
 40
1
 40
1
 10
197.069417
 20
224.911059
 30
0.0
 10
197.069417
 20
223.805858
 30
0.0
 10
197.965359
 20
222.909915
 30
0.0
 10
199.070560
 20
222.909915
 30
0.0
  0
SPLINE
  5
115
100
AcDbEntity
  8
Layer_1
 62
7
100
AcDbSpline
 70
8
 71
3
 72
8
 73
4
 74
0
 40
0
 40
0
 40
0
 40
0
 40
1
 40
1
 40
1
 40
1
 10
199.070560
 20
222.909915
 30
0.0
 10
200.175761
 20
222.909915
 30
0.0
 10
201.071704
 20
223.805858
 30
0.0
 10
201.071704
 20
224.911059
 30
0.0
  0
SPLINE
  5
116
100
AcDbEntity
  8
Layer_1
 62
7
100
AcDbSpline
 70
8
 71
3
 72
8
 73
4
 74
0
 40
0
 40
0
 40
0
 40
0
 40
1
 40
1
 40
1
 40
1
 10
201.071704
 20
224.911059
 30
0.0
 10
201.071704
 20
225.441795
 30
0.0
 10
200.860869
 20
225.950794
 30
0.0
 10
200.485582
 20
226.326081
 30
0.0
  0
SPLINE
  5
117
100
AcDbEntity
  8
Layer_1
 62
7
100
AcDbSpline
 70
8
 71
3
 72
8
 73
4
 74
0
 40
0
 40
0
 40
0
 40
0
 40
1
 40
1
 40
1
 40
1
 10
200.485582
 20
226.326081
 30
0.0
 10
200.110295
 20
226.701368
 30
0.0
 10
199.601296
 20
226.912203
 30
0.0
 10
199.070560
 20
226.912202
 30
0.0
  0
LWPOLYLINE
  5
118
100
AcDbEntity
  8
Layer_1
 62
7
100
AcDbPolyline
 90
1
 70
1
 10
191.070560
 20
226.912202
 30
0.0
  0
SPLINE
  5
119
100
AcDbEntity
  8
Layer_1
 62
7
100
AcDbSpline
 70
8
 71
3
 72
8
 73
4
 74
0
 40
0
 40
0
 40
0
 40
0
 40
1
 40
1
 40
1
 40
1
 10
207.070560
 20
226.912202
 30
0.0
 10
206.261173
 20
226.912202
 30
0.0
 10
205.531483
 20
226.424640
 30
0.0
 10
205.221744
 20
225.676863
 30
0.0
  0
SPLINE
  5
11a
100
AcDbEntity
  8
Layer_1
 62
7
100
AcDbSpline
 70
8
 71
3
 72
8
 73
4
 74
0
 40
0
 40
0
 40
0
 40
0
 40
1
 40
1
 40
1
 40
1
 10
205.221744
 20
225.676863
 30
0.0
 10
204.912005
 20
224.929087
 30
0.0
 10
205.083215
 20
224.068360
 30
0.0
 10
205.655538
 20
223.496037
 30
0.0
  0
SPLINE
  5
11b
100
AcDbEntity
  8
Layer_1
 62
7
100
AcDbSpline
 70
8
 71
3
 72
8
 73
4
 74
0
 40
0
 40
0
 40
0
 40
0
 40
1
 40
1
 40
1
 40
1
 10
205.655538
 20
223.496037
 30
0.0
 10
206.227861
 20
222.923714
 30
0.0
 10
207.088588
 20
222.752504
 30
0.0
 10
207.836364
 20
223.062243
 30
0.0
  0
SPLINE
  5
11c
100
AcDbEntity
  8
Layer_1
 62
7
100
AcDbSpline
 70
8
 71
3
 72
8
 73
4
 74
0
 40
0
 40
0
 40
0
 40
0
 40
1
 40
1
 40
1
 40
1
 10
207.836364
 20
223.062243
 30
0.0
 10
208.584141
 20
223.371982
 30
0.0
 10
209.071704
 20
224.101672
 30
0.0
 10
209.071704
 20
224.911059
 30
0.0
  0
SPLINE
  5
11d
100
AcDbEntity
  8
Layer_1
 62
7
100
AcDbSpline
 70
8
 71
3
 72
8
 73
4
 74
0
 40
0
 40
0
 40
0
 40
0
 40
1
 40
1
 40
1
 40
1
 10
209.071704
 20
224.911059
 30
0.0
 10
209.071704
 20
225.441795
 30
0.0
 10
208.860869
 20
225.950794
 30
0.0
 10
208.485582
 20
226.326081
 30
0.0
  0
SPLINE
  5
11e
100
AcDbEntity
  8
Layer_1
 62
7
100
AcDbSpline
 70
8
 71
3
 72
8
 73
4
 74
0
 40
0
 40
0
 40
0
 40
0
 40
1
 40
1
 40
1
 40
1
 10
208.485582
 20
226.326081
 30
0.0
 10
208.110295
 20
226.701368
 30
0.0
 10
207.601296
 20
226.912202
 30
0.0
 10
207.070560
 20
226.912202
 30
0.0
  0
LWPOLYLINE
  5
11f
100
AcDbEntity
  8
Layer_1
 62
7
100
AcDbPolyline
 90
1
 70
1
 10
199.070560
 20
226.912202
 30
0.0
  0
SPLINE
  5
120
100
AcDbEntity
  8
Layer_1
 62
7
100
AcDbSpline
 70
8
 71
3
 72
8
 73
4
 74
0
 40
0
 40
0
 40
0
 40
0
 40
1
 40
1
 40
1
 40
1
 10
215.070560
 20
226.912202
 30
0.0
 10
213.965359
 20
226.912202
 30
0.0
 10
213.069417
 20
226.016260
 30
0.0
 10
213.069417
 20
224.911059
 30
0.0
  0
SPLINE
  5
121
100
AcDbEntity
  8
Layer_1
 62
7
100
AcDbSpline
 70
8
 71
3
 72
8
 73
4
 74
0
 40
0
 40
0
 40
0
 40
0
 40
1
 40
1
 40
1
 40
1
 10
213.069417
 20
224.911059
 30
0.0
 10
213.069417
 20
223.805858
 30
0.0
 10
213.965359
 20
222.909915
 30
0.0
 10
215.070560
 20
222.909915
 30
0.0
  0
SPLINE
  5
122
100
AcDbEntity
  8
Layer_1
 62
7
100
AcDbSpline
 70
8
 71
3
 72
8
 73
4
 74
0
 40
0
 40
0
 40
0
 40
0
 40
1
 40
1
 40
1
 40
1
 10
215.070560
 20
222.909915
 30
0.0
 10
216.175761
 20
222.909915
 30
0.0
 10
217.071704
 20
223.805858
 30
0.0
 10
217.071704
 20
224.911059
 30
0.0
  0
SPLINE
  5
123
100
AcDbEntity
  8
Layer_1
 62
7
100
AcDbSpline
 70
8
 71
3
 72
8
 73
4
 74
0
 40
0
 40
0
 40
0
 40
0
 40
1
 40
1
 40
1
 40
1
 10
217.071704
 20
224.911059
 30
0.0
 10
217.071704
 20
225.441795
 30
0.0
 10
216.860869
 20
225.950794
 30
0.0
 10
216.485582
 20
226.326081
 30
0.0
  0
SPLINE
  5
124
100
AcDbEntity
  8
Layer_1
 62
7
100
AcDbSpline
 70
8
 71
3
 72
8
 73
4
 74
0
 40
0
 40
0
 40
0
 40
0
 40
1
 40
1
 40
1
 40
1
 10
216.485582
 20
226.326081
 30
0.0
 10
216.110295
 20
226.701368
 30
0.0
 10
215.601296
 20
226.912203
 30
0.0
 10
215.070560
 20
226.912202
 30
0.0
  0
LWPOLYLINE
  5
125
100
AcDbEntity
  8
Layer_1
 62
7
100
AcDbPolyline
 90
1
 70
1
 10
207.070560
 20
226.912202
 30
0.0
  0
SPLINE
  5
126
100
AcDbEntity
  8
Layer_1
 62
7
100
AcDbSpline
 70
8
 71
3
 72
8
 73
4
 74
0
 40
0
 40
0
 40
0
 40
0
 40
1
 40
1
 40
1
 40
1
 10
223.070560
 20
226.912202
 30
0.0
 10
222.261173
 20
226.912202
 30
0.0
 10
221.531483
 20
226.424640
 30
0.0
 10
221.221744
 20
225.676863
 30
0.0
  0
SPLINE
  5
127
100
AcDbEntity
  8
Layer_1
 62
7
100
AcDbSpline
 70
8
 71
3
 72
8
 73
4
 74
0
 40
0
 40
0
 40
0
 40
0
 40
1
 40
1
 40
1
 40
1
 10
221.221744
 20
225.676863
 30
0.0
 10
220.912005
 20
224.929087
 30
0.0
 10
221.083215
 20
224.068360
 30
0.0
 10
221.655538
 20
223.496037
 30
0.0
  0
SPLINE
  5
128
100
AcDbEntity
  8
Layer_1
 62
7
100
AcDbSpline
 70
8
 71
3
 72
8
 73
4
 74
0
 40
0
 40
0
 40
0
 40
0
 40
1
 40
1
 40
1
 40
1
 10
221.655538
 20
223.496037
 30
0.0
 10
222.227861
 20
222.923714
 30
0.0
 10
223.088588
 20
222.752504
 30
0.0
 10
223.836364
 20
223.062243
 30
0.0
  0
SPLINE
  5
129
100
AcDbEntity
  8
Layer_1
 62
7
100
AcDbSpline
 70
8
 71
3
 72
8
 73
4
 74
0
 40
0
 40
0
 40
0
 40
0
 40
1
 40
1
 40
1
 40
1
 10
223.836364
 20
223.062243
 30
0.0
 10
224.584141
 20
223.371982
 30
0.0
 10
225.071704
 20
224.101672
 30
0.0
 10
225.071704
 20
224.911059
 30
0.0
  0
SPLINE
  5
12a
100
AcDbEntity
  8
Layer_1
 62
7
100
AcDbSpline
 70
8
 71
3
 72
8
 73
4
 74
0
 40
0
 40
0
 40
0
 40
0
 40
1
 40
1
 40
1
 40
1
 10
225.071704
 20
224.911059
 30
0.0
 10
225.071704
 20
225.441795
 30
0.0
 10
224.860869
 20
225.950794
 30
0.0
 10
224.485582
 20
226.326081
 30
0.0
  0
SPLINE
  5
12b
100
AcDbEntity
  8
Layer_1
 62
7
100
AcDbSpline
 70
8
 71
3
 72
8
 73
4
 74
0
 40
0
 40
0
 40
0
 40
0
 40
1
 40
1
 40
1
 40
1
 10
224.485582
 20
226.326081
 30
0.0
 10
224.110295
 20
226.701368
 30
0.0
 10
223.601296
 20
226.912202
 30
0.0
 10
223.070560
 20
226.912202
 30
0.0
  0
LWPOLYLINE
  5
12c
100
AcDbEntity
  8
Layer_1
 62
7
100
AcDbPolyline
 90
1
 70
1
 10
215.070560
 20
226.912202
 30
0.0
  0
SPLINE
  5
12d
100
AcDbEntity
  8
Layer_1
 62
7
100
AcDbSpline
 70
8
 71
3
 72
8
 73
4
 74
0
 40
0
 40
0
 40
0
 40
0
 40
1
 40
1
 40
1
 40
1
 10
231.070560
 20
226.912202
 30
0.0
 10
229.965359
 20
226.912202
 30
0.0
 10
229.069417
 20
226.016260
 30
0.0
 10
229.069417
 20
224.911059
 30
0.0
  0
SPLINE
  5
12e
100
AcDbEntity
  8
Layer_1
 62
7
100
AcDbSpline
 70
8
 71
3
 72
8
 73
4
 74
0
 40
0
 40
0
 40
0
 40
0
 40
1
 40
1
 40
1
 40
1
 10
229.069417
 20
224.911059
 30
0.0
 10
229.069417
 20
223.805858
 30
0.0
 10
229.965359
 20
222.909915
 30
0.0
 10
231.070560
 20
222.909915
 30
0.0
  0
SPLINE
  5
12f
100
AcDbEntity
  8
Layer_1
 62
7
100
AcDbSpline
 70
8
 71
3
 72
8
 73
4
 74
0
 40
0
 40
0
 40
0
 40
0
 40
1
 40
1
 40
1
 40
1
 10
231.070560
 20
222.909915
 30
0.0
 10
232.175761
 20
222.909915
 30
0.0
 10
233.071704
 20
223.805858
 30
0.0
 10
233.071704
 20
224.911059
 30
0.0
  0
SPLINE
  5
130
100
AcDbEntity
  8
Layer_1
 62
7
100
AcDbSpline
 70
8
 71
3
 72
8
 73
4
 74
0
 40
0
 40
0
 40
0
 40
0
 40
1
 40
1
 40
1
 40
1
 10
233.071704
 20
224.911059
 30
0.0
 10
233.071704
 20
225.441795
 30
0.0
 10
232.860869
 20
225.950794
 30
0.0
 10
232.485582
 20
226.326081
 30
0.0
  0
SPLINE
  5
131
100
AcDbEntity
  8
Layer_1
 62
7
100
AcDbSpline
 70
8
 71
3
 72
8
 73
4
 74
0
 40
0
 40
0
 40
0
 40
0
 40
1
 40
1
 40
1
 40
1
 10
232.485582
 20
226.326081
 30
0.0
 10
232.110295
 20
226.701368
 30
0.0
 10
231.601296
 20
226.912203
 30
0.0
 10
231.070560
 20
226.912202
 30
0.0
  0
LWPOLYLINE
  5
132
100
AcDbEntity
  8
Layer_1
 62
7
100
AcDbPolyline
 90
1
 70
1
 10
223.070560
 20
226.912202
 30
0.0
  0
SPLINE
  5
133
100
AcDbEntity
  8
Layer_1
 62
7
100
AcDbSpline
 70
8
 71
3
 72
8
 73
4
 74
0
 40
0
 40
0
 40
0
 40
0
 40
1
 40
1
 40
1
 40
1
 10
239.070560
 20
226.912202
 30
0.0
 10
238.261173
 20
226.912202
 30
0.0
 10
237.531483
 20
226.424640
 30
0.0
 10
237.221744
 20
225.676863
 30
0.0
  0
SPLINE
  5
134
100
AcDbEntity
  8
Layer_1
 62
7
100
AcDbSpline
 70
8
 71
3
 72
8
 73
4
 74
0
 40
0
 40
0
 40
0
 40
0
 40
1
 40
1
 40
1
 40
1
 10
237.221744
 20
225.676863
 30
0.0
 10
236.912005
 20
224.929087
 30
0.0
 10
237.083215
 20
224.068360
 30
0.0
 10
237.655538
 20
223.496037
 30
0.0
  0
SPLINE
  5
135
100
AcDbEntity
  8
Layer_1
 62
7
100
AcDbSpline
 70
8
 71
3
 72
8
 73
4
 74
0
 40
0
 40
0
 40
0
 40
0
 40
1
 40
1
 40
1
 40
1
 10
237.655538
 20
223.496037
 30
0.0
 10
238.227861
 20
222.923714
 30
0.0
 10
239.088588
 20
222.752504
 30
0.0
 10
239.836364
 20
223.062243
 30
0.0
  0
SPLINE
  5
136
100
AcDbEntity
  8
Layer_1
 62
7
100
AcDbSpline
 70
8
 71
3
 72
8
 73
4
 74
0
 40
0
 40
0
 40
0
 40
0
 40
1
 40
1
 40
1
 40
1
 10
239.836364
 20
223.062243
 30
0.0
 10
240.584141
 20
223.371982
 30
0.0
 10
241.071704
 20
224.101672
 30
0.0
 10
241.071704
 20
224.911059
 30
0.0
  0
SPLINE
  5
137
100
AcDbEntity
  8
Layer_1
 62
7
100
AcDbSpline
 70
8
 71
3
 72
8
 73
4
 74
0
 40
0
 40
0
 40
0
 40
0
 40
1
 40
1
 40
1
 40
1
 10
241.071704
 20
224.911059
 30
0.0
 10
241.071704
 20
225.441795
 30
0.0
 10
240.860869
 20
225.950794
 30
0.0
 10
240.485582
 20
226.326081
 30
0.0
  0
SPLINE
  5
138
100
AcDbEntity
  8
Layer_1
 62
7
100
AcDbSpline
 70
8
 71
3
 72
8
 73
4
 74
0
 40
0
 40
0
 40
0
 40
0
 40
1
 40
1
 40
1
 40
1
 10
240.485582
 20
226.326081
 30
0.0
 10
240.110295
 20
226.701368
 30
0.0
 10
239.601296
 20
226.912202
 30
0.0
 10
239.070560
 20
226.912202
 30
0.0
  0
LWPOLYLINE
  5
139
100
AcDbEntity
  8
Layer_1
 62
7
100
AcDbPolyline
 90
1
 70
1
 10
231.070560
 20
226.912202
 30
0.0
  0
SPLINE
  5
13a
100
AcDbEntity
  8
Layer_1
 62
7
100
AcDbSpline
 70
8
 71
3
 72
8
 73
4
 74
0
 40
0
 40
0
 40
0
 40
0
 40
1
 40
1
 40
1
 40
1
 10
235.031410
 20
182.590802
 30
0.0
 10
233.926209
 20
182.590802
 30
0.0
 10
233.030267
 20
181.694860
 30
0.0
 10
233.030267
 20
180.589659
 30
0.0
  0
SPLINE
  5
13b
100
AcDbEntity
  8
Layer_1
 62
7
100
AcDbSpline
 70
8
 71
3
 72
8
 73
4
 74
0
 40
0
 40
0
 40
0
 40
0
 40
1
 40
1
 40
1
 40
1
 10
233.030267
 20
180.589659
 30
0.0
 10
233.030267
 20
179.484458
 30
0.0
 10
233.926209
 20
178.588515
 30
0.0
 10
235.031410
 20
178.588515
 30
0.0
  0
SPLINE
  5
13c
100
AcDbEntity
  8
Layer_1
 62
7
100
AcDbSpline
 70
8
 71
3
 72
8
 73
4
 74
0
 40
0
 40
0
 40
0
 40
0
 40
1
 40
1
 40
1
 40
1
 10
235.031410
 20
178.588515
 30
0.0
 10
236.136611
 20
178.588515
 30
0.0
 10
237.032554
 20
179.484458
 30
0.0
 10
237.032554
 20
180.589659
 30
0.0
  0
SPLINE
  5
13d
100
AcDbEntity
  8
Layer_1
 62
7
100
AcDbSpline
 70
8
 71
3
 72
8
 73
4
 74
0
 40
0
 40
0
 40
0
 40
0
 40
1
 40
1
 40
1
 40
1
 10
237.032554
 20
180.589659
 30
0.0
 10
237.032554
 20
181.120395
 30
0.0
 10
236.821719
 20
181.629394
 30
0.0
 10
236.446432
 20
182.004681
 30
0.0
  0
SPLINE
  5
13e
100
AcDbEntity
  8
Layer_1
 62
7
100
AcDbSpline
 70
8
 71
3
 72
8
 73
4
 74
0
 40
0
 40
0
 40
0
 40
0
 40
1
 40
1
 40
1
 40
1
 10
236.446432
 20
182.004681
 30
0.0
 10
236.071145
 20
182.379968
 30
0.0
 10
235.562146
 20
182.590802
 30
0.0
 10
235.031410
 20
182.590802
 30
0.0
  0
LWPOLYLINE
  5
13f
100
AcDbEntity
  8
Layer_1
 62
7
100
AcDbPolyline
 90
1
 70
1
 10
239.070560
 20
226.912202
 30
0.0
  0
SPLINE
  5
140
100
AcDbEntity
  8
Layer_1
 62
7
100
AcDbSpline
 70
8
 71
3
 72
8
 73
4
 74
0
 40
0
 40
0
 40
0
 40
0
 40
1
 40
1
 40
1
 40
1
 10
243.031410
 20
182.590802
 30
0.0
 10
242.222023
 20
182.590802
 30
0.0
 10
241.492333
 20
182.103240
 30
0.0
 10
241.182594
 20
181.355463
 30
0.0
  0
SPLINE
  5
141
100
AcDbEntity
  8
Layer_1
 62
7
100
AcDbSpline
 70
8
 71
3
 72
8
 73
4
 74
0
 40
0
 40
0
 40
0
 40
0
 40
1
 40
1
 40
1
 40
1
 10
241.182594
 20
181.355463
 30
0.0
 10
240.872855
 20
180.607687
 30
0.0
 10
241.044065
 20
179.746960
 30
0.0
 10
241.616388
 20
179.174637
 30
0.0
  0
SPLINE
  5
142
100
AcDbEntity
  8
Layer_1
 62
7
100
AcDbSpline
 70
8
 71
3
 72
8
 73
4
 74
0
 40
0
 40
0
 40
0
 40
0
 40
1
 40
1
 40
1
 40
1
 10
241.616388
 20
179.174637
 30
0.0
 10
242.188711
 20
178.602314
 30
0.0
 10
243.049438
 20
178.431104
 30
0.0
 10
243.797214
 20
178.740843
 30
0.0
  0
SPLINE
  5
143
100
AcDbEntity
  8
Layer_1
 62
7
100
AcDbSpline
 70
8
 71
3
 72
8
 73
4
 74
0
 40
0
 40
0
 40
0
 40
0
 40
1
 40
1
 40
1
 40
1
 10
243.797214
 20
178.740843
 30
0.0
 10
244.544991
 20
179.050582
 30
0.0
 10
245.032554
 20
179.780272
 30
0.0
 10
245.032554
 20
180.589659
 30
0.0
  0
SPLINE
  5
144
100
AcDbEntity
  8
Layer_1
 62
7
100
AcDbSpline
 70
8
 71
3
 72
8
 73
4
 74
0
 40
0
 40
0
 40
0
 40
0
 40
1
 40
1
 40
1
 40
1
 10
245.032554
 20
180.589659
 30
0.0
 10
245.032554
 20
181.120395
 30
0.0
 10
244.821719
 20
181.629394
 30
0.0
 10
244.446432
 20
182.004681
 30
0.0
  0
SPLINE
  5
145
100
AcDbEntity
  8
Layer_1
 62
7
100
AcDbSpline
 70
8
 71
3
 72
8
 73
4
 74
0
 40
0
 40
0
 40
0
 40
0
 40
1
 40
1
 40
1
 40
1
 10
244.446432
 20
182.004681
 30
0.0
 10
244.071145
 20
182.379968
 30
0.0
 10
243.562146
 20
182.590802
 30
0.0
 10
243.031410
 20
182.590802
 30
0.0
  0
LWPOLYLINE
  5
146
100
AcDbEntity
  8
Layer_1
 62
7
100
AcDbPolyline
 90
1
 70
1
 10
235.031410
 20
182.590802
 30
0.0
  0
SPLINE
  5
147
100
AcDbEntity
  8
Layer_1
 62
7
100
AcDbSpline
 70
8
 71
3
 72
8
 73
4
 74
0
 40
0
 40
0
 40
0
 40
0
 40
1
 40
1
 40
1
 40
1
 10
251.031410
 20
182.590802
 30
0.0
 10
249.926209
 20
182.590802
 30
0.0
 10
249.030267
 20
181.694860
 30
0.0
 10
249.030267
 20
180.589659
 30
0.0
  0
SPLINE
  5
148
100
AcDbEntity
  8
Layer_1
 62
7
100
AcDbSpline
 70
8
 71
3
 72
8
 73
4
 74
0
 40
0
 40
0
 40
0
 40
0
 40
1
 40
1
 40
1
 40
1
 10
249.030267
 20
180.589659
 30
0.0
 10
249.030267
 20
179.484458
 30
0.0
 10
249.926209
 20
178.588515
 30
0.0
 10
251.031410
 20
178.588515
 30
0.0
  0
SPLINE
  5
149
100
AcDbEntity
  8
Layer_1
 62
7
100
AcDbSpline
 70
8
 71
3
 72
8
 73
4
 74
0
 40
0
 40
0
 40
0
 40
0
 40
1
 40
1
 40
1
 40
1
 10
251.031410
 20
178.588515
 30
0.0
 10
252.136611
 20
178.588515
 30
0.0
 10
253.032554
 20
179.484458
 30
0.0
 10
253.032554
 20
180.589659
 30
0.0
  0
SPLINE
  5
14a
100
AcDbEntity
  8
Layer_1
 62
7
100
AcDbSpline
 70
8
 71
3
 72
8
 73
4
 74
0
 40
0
 40
0
 40
0
 40
0
 40
1
 40
1
 40
1
 40
1
 10
253.032554
 20
180.589659
 30
0.0
 10
253.032554
 20
181.120395
 30
0.0
 10
252.821719
 20
181.629394
 30
0.0
 10
252.446432
 20
182.004681
 30
0.0
  0
SPLINE
  5
14b
100
AcDbEntity
  8
Layer_1
 62
7
100
AcDbSpline
 70
8
 71
3
 72
8
 73
4
 74
0
 40
0
 40
0
 40
0
 40
0
 40
1
 40
1
 40
1
 40
1
 10
252.446432
 20
182.004681
 30
0.0
 10
252.071145
 20
182.379968
 30
0.0
 10
251.562146
 20
182.590802
 30
0.0
 10
251.031410
 20
182.590802
 30
0.0
  0
LWPOLYLINE
  5
14c
100
AcDbEntity
  8
Layer_1
 62
7
100
AcDbPolyline
 90
1
 70
1
 10
243.031410
 20
182.590802
 30
0.0
  0
SPLINE
  5
14d
100
AcDbEntity
  8
Layer_1
 62
7
100
AcDbSpline
 70
8
 71
3
 72
8
 73
4
 74
0
 40
0
 40
0
 40
0
 40
0
 40
1
 40
1
 40
1
 40
1
 10
259.031410
 20
182.590802
 30
0.0
 10
258.222023
 20
182.590802
 30
0.0
 10
257.492333
 20
182.103240
 30
0.0
 10
257.182594
 20
181.355463
 30
0.0
  0
SPLINE
  5
14e
100
AcDbEntity
  8
Layer_1
 62
7
100
AcDbSpline
 70
8
 71
3
 72
8
 73
4
 74
0
 40
0
 40
0
 40
0
 40
0
 40
1
 40
1
 40
1
 40
1
 10
257.182594
 20
181.355463
 30
0.0
 10
256.872855
 20
180.607687
 30
0.0
 10
257.044065
 20
179.746960
 30
0.0
 10
257.616388
 20
179.174637
 30
0.0
  0
SPLINE
  5
14f
100
AcDbEntity
  8
Layer_1
 62
7
100
AcDbSpline
 70
8
 71
3
 72
8
 73
4
 74
0
 40
0
 40
0
 40
0
 40
0
 40
1
 40
1
 40
1
 40
1
 10
257.616388
 20
179.174637
 30
0.0
 10
258.188711
 20
178.602314
 30
0.0
 10
259.049438
 20
178.431104
 30
0.0
 10
259.797214
 20
178.740843
 30
0.0
  0
SPLINE
  5
150
100
AcDbEntity
  8
Layer_1
 62
7
100
AcDbSpline
 70
8
 71
3
 72
8
 73
4
 74
0
 40
0
 40
0
 40
0
 40
0
 40
1
 40
1
 40
1
 40
1
 10
259.797214
 20
178.740843
 30
0.0
 10
260.544991
 20
179.050582
 30
0.0
 10
261.032554
 20
179.780272
 30
0.0
 10
261.032554
 20
180.589659
 30
0.0
  0
SPLINE
  5
151
100
AcDbEntity
  8
Layer_1
 62
7
100
AcDbSpline
 70
8
 71
3
 72
8
 73
4
 74
0
 40
0
 40
0
 40
0
 40
0
 40
1
 40
1
 40
1
 40
1
 10
261.032554
 20
180.589659
 30
0.0
 10
261.032554
 20
181.120395
 30
0.0
 10
260.821719
 20
181.629394
 30
0.0
 10
260.446432
 20
182.004681
 30
0.0
  0
SPLINE
  5
152
100
AcDbEntity
  8
Layer_1
 62
7
100
AcDbSpline
 70
8
 71
3
 72
8
 73
4
 74
0
 40
0
 40
0
 40
0
 40
0
 40
1
 40
1
 40
1
 40
1
 10
260.446432
 20
182.004681
 30
0.0
 10
260.071145
 20
182.379968
 30
0.0
 10
259.562146
 20
182.590802
 30
0.0
 10
259.031410
 20
182.590802
 30
0.0
  0
LWPOLYLINE
  5
153
100
AcDbEntity
  8
Layer_1
 62
7
100
AcDbPolyline
 90
1
 70
1
 10
251.031410
 20
182.590802
 30
0.0
  0
SPLINE
  5
154
100
AcDbEntity
  8
Layer_1
 62
7
100
AcDbSpline
 70
8
 71
3
 72
8
 73
4
 74
0
 40
0
 40
0
 40
0
 40
0
 40
1
 40
1
 40
1
 40
1
 10
267.031410
 20
182.590802
 30
0.0
 10
265.926209
 20
182.590802
 30
0.0
 10
265.030267
 20
181.694860
 30
0.0
 10
265.030267
 20
180.589659
 30
0.0
  0
SPLINE
  5
155
100
AcDbEntity
  8
Layer_1
 62
7
100
AcDbSpline
 70
8
 71
3
 72
8
 73
4
 74
0
 40
0
 40
0
 40
0
 40
0
 40
1
 40
1
 40
1
 40
1
 10
265.030267
 20
180.589659
 30
0.0
 10
265.030267
 20
179.484458
 30
0.0
 10
265.926209
 20
178.588515
 30
0.0
 10
267.031410
 20
178.588515
 30
0.0
  0
SPLINE
  5
156
100
AcDbEntity
  8
Layer_1
 62
7
100
AcDbSpline
 70
8
 71
3
 72
8
 73
4
 74
0
 40
0
 40
0
 40
0
 40
0
 40
1
 40
1
 40
1
 40
1
 10
267.031410
 20
178.588515
 30
0.0
 10
268.136611
 20
178.588515
 30
0.0
 10
269.032554
 20
179.484458
 30
0.0
 10
269.032554
 20
180.589659
 30
0.0
  0
SPLINE
  5
157
100
AcDbEntity
  8
Layer_1
 62
7
100
AcDbSpline
 70
8
 71
3
 72
8
 73
4
 74
0
 40
0
 40
0
 40
0
 40
0
 40
1
 40
1
 40
1
 40
1
 10
269.032554
 20
180.589659
 30
0.0
 10
269.032554
 20
181.120395
 30
0.0
 10
268.821719
 20
181.629394
 30
0.0
 10
268.446432
 20
182.004681
 30
0.0
  0
SPLINE
  5
158
100
AcDbEntity
  8
Layer_1
 62
7
100
AcDbSpline
 70
8
 71
3
 72
8
 73
4
 74
0
 40
0
 40
0
 40
0
 40
0
 40
1
 40
1
 40
1
 40
1
 10
268.446432
 20
182.004681
 30
0.0
 10
268.071145
 20
182.379968
 30
0.0
 10
267.562146
 20
182.590802
 30
0.0
 10
267.031410
 20
182.590802
 30
0.0
  0
LWPOLYLINE
  5
159
100
AcDbEntity
  8
Layer_1
 62
7
100
AcDbPolyline
 90
1
 70
1
 10
259.031410
 20
182.590802
 30
0.0
  0
SPLINE
  5
15a
100
AcDbEntity
  8
Layer_1
 62
7
100
AcDbSpline
 70
8
 71
3
 72
8
 73
4
 74
0
 40
0
 40
0
 40
0
 40
0
 40
1
 40
1
 40
1
 40
1
 10
275.031410
 20
182.590802
 30
0.0
 10
274.222023
 20
182.590802
 30
0.0
 10
273.492333
 20
182.103240
 30
0.0
 10
273.182594
 20
181.355463
 30
0.0
  0
SPLINE
  5
15b
100
AcDbEntity
  8
Layer_1
 62
7
100
AcDbSpline
 70
8
 71
3
 72
8
 73
4
 74
0
 40
0
 40
0
 40
0
 40
0
 40
1
 40
1
 40
1
 40
1
 10
273.182594
 20
181.355463
 30
0.0
 10
272.872855
 20
180.607687
 30
0.0
 10
273.044065
 20
179.746960
 30
0.0
 10
273.616388
 20
179.174637
 30
0.0
  0
SPLINE
  5
15c
100
AcDbEntity
  8
Layer_1
 62
7
100
AcDbSpline
 70
8
 71
3
 72
8
 73
4
 74
0
 40
0
 40
0
 40
0
 40
0
 40
1
 40
1
 40
1
 40
1
 10
273.616388
 20
179.174637
 30
0.0
 10
274.188711
 20
178.602314
 30
0.0
 10
275.049438
 20
178.431104
 30
0.0
 10
275.797214
 20
178.740843
 30
0.0
  0
SPLINE
  5
15d
100
AcDbEntity
  8
Layer_1
 62
7
100
AcDbSpline
 70
8
 71
3
 72
8
 73
4
 74
0
 40
0
 40
0
 40
0
 40
0
 40
1
 40
1
 40
1
 40
1
 10
275.797214
 20
178.740843
 30
0.0
 10
276.544991
 20
179.050582
 30
0.0
 10
277.032554
 20
179.780272
 30
0.0
 10
277.032554
 20
180.589659
 30
0.0
  0
SPLINE
  5
15e
100
AcDbEntity
  8
Layer_1
 62
7
100
AcDbSpline
 70
8
 71
3
 72
8
 73
4
 74
0
 40
0
 40
0
 40
0
 40
0
 40
1
 40
1
 40
1
 40
1
 10
277.032554
 20
180.589659
 30
0.0
 10
277.032554
 20
181.120395
 30
0.0
 10
276.821719
 20
181.629394
 30
0.0
 10
276.446432
 20
182.004681
 30
0.0
  0
SPLINE
  5
15f
100
AcDbEntity
  8
Layer_1
 62
7
100
AcDbSpline
 70
8
 71
3
 72
8
 73
4
 74
0
 40
0
 40
0
 40
0
 40
0
 40
1
 40
1
 40
1
 40
1
 10
276.446432
 20
182.004681
 30
0.0
 10
276.071145
 20
182.379968
 30
0.0
 10
275.562146
 20
182.590802
 30
0.0
 10
275.031410
 20
182.590802
 30
0.0
  0
LWPOLYLINE
  5
160
100
AcDbEntity
  8
Layer_1
 62
7
100
AcDbPolyline
 90
1
 70
1
 10
267.031410
 20
182.590802
 30
0.0
  0
SPLINE
  5
161
100
AcDbEntity
  8
Layer_1
 62
7
100
AcDbSpline
 70
8
 71
3
 72
8
 73
4
 74
0
 40
0
 40
0
 40
0
 40
0
 40
1
 40
1
 40
1
 40
1
 10
39.107800
 20
173.690044
 30
0.0
 10
38.298413
 20
173.690044
 30
0.0
 10
37.568723
 20
173.202481
 30
0.0
 10
37.258984
 20
172.454704
 30
0.0
  0
SPLINE
  5
162
100
AcDbEntity
  8
Layer_1
 62
7
100
AcDbSpline
 70
8
 71
3
 72
8
 73
4
 74
0
 40
0
 40
0
 40
0
 40
0
 40
1
 40
1
 40
1
 40
1
 10
37.258984
 20
172.454704
 30
0.0
 10
36.949245
 20
171.706928
 30
0.0
 10
37.120455
 20
170.846201
 30
0.0
 10
37.692778
 20
170.273878
 30
0.0
  0
SPLINE
  5
163
100
AcDbEntity
  8
Layer_1
 62
7
100
AcDbSpline
 70
8
 71
3
 72
8
 73
4
 74
0
 40
0
 40
0
 40
0
 40
0
 40
1
 40
1
 40
1
 40
1
 10
37.692778
 20
170.273878
 30
0.0
 10
38.265101
 20
169.701555
 30
0.0
 10
39.125828
 20
169.530345
 30
0.0
 10
39.873604
 20
169.840084
 30
0.0
  0
SPLINE
  5
164
100
AcDbEntity
  8
Layer_1
 62
7
100
AcDbSpline
 70
8
 71
3
 72
8
 73
4
 74
0
 40
0
 40
0
 40
0
 40
0
 40
1
 40
1
 40
1
 40
1
 10
39.873604
 20
169.840084
 30
0.0
 10
40.621381
 20
170.149823
 30
0.0
 10
41.108944
 20
170.879513
 30
0.0
 10
41.108944
 20
171.688900
 30
0.0
  0
SPLINE
  5
165
100
AcDbEntity
  8
Layer_1
 62
7
100
AcDbSpline
 70
8
 71
3
 72
8
 73
4
 74
0
 40
0
 40
0
 40
0
 40
0
 40
1
 40
1
 40
1
 40
1
 10
41.108944
 20
171.688900
 30
0.0
 10
41.108944
 20
172.219636
 30
0.0
 10
40.898109
 20
172.728635
 30
0.0
 10
40.522822
 20
173.103922
 30
0.0
  0
SPLINE
  5
166
100
AcDbEntity
  8
Layer_1
 62
7
100
AcDbSpline
 70
8
 71
3
 72
8
 73
4
 74
0
 40
0
 40
0
 40
0
 40
0
 40
1
 40
1
 40
1
 40
1
 10
40.522822
 20
173.103922
 30
0.0
 10
40.147535
 20
173.479209
 30
0.0
 10
39.638536
 20
173.690044
 30
0.0
 10
39.107800
 20
173.690044
 30
0.0
  0
LWPOLYLINE
  5
167
100
AcDbEntity
  8
Layer_1
 62
7
100
AcDbPolyline
 90
1
 70
1
 10
275.031410
 20
182.590802
 30
0.0
  0
SPLINE
  5
168
100
AcDbEntity
  8
Layer_1
 62
7
100
AcDbSpline
 70
8
 71
3
 72
8
 73
4
 74
0
 40
0
 40
0
 40
0
 40
0
 40
1
 40
1
 40
1
 40
1
 10
63.107796
 20
173.690044
 30
0.0
 10
62.298409
 20
173.690044
 30
0.0
 10
61.568719
 20
173.202481
 30
0.0
 10
61.258980
 20
172.454704
 30
0.0
  0
SPLINE
  5
169
100
AcDbEntity
  8
Layer_1
 62
7
100
AcDbSpline
 70
8
 71
3
 72
8
 73
4
 74
0
 40
0
 40
0
 40
0
 40
0
 40
1
 40
1
 40
1
 40
1
 10
61.258980
 20
172.454704
 30
0.0
 10
60.949241
 20
171.706928
 30
0.0
 10
61.120451
 20
170.846201
 30
0.0
 10
61.692774
 20
170.273878
 30
0.0
  0
SPLINE
  5
16a
100
AcDbEntity
  8
Layer_1
 62
7
100
AcDbSpline
 70
8
 71
3
 72
8
 73
4
 74
0
 40
0
 40
0
 40
0
 40
0
 40
1
 40
1
 40
1
 40
1
 10
61.692774
 20
170.273878
 30
0.0
 10
62.265097
 20
169.701555
 30
0.0
 10
63.125824
 20
169.530345
 30
0.0
 10
63.873600
 20
169.840084
 30
0.0
  0
SPLINE
  5
16b
100
AcDbEntity
  8
Layer_1
 62
7
100
AcDbSpline
 70
8
 71
3
 72
8
 73
4
 74
0
 40
0
 40
0
 40
0
 40
0
 40
1
 40
1
 40
1
 40
1
 10
63.873600
 20
169.840084
 30
0.0
 10
64.621377
 20
170.149823
 30
0.0
 10
65.108940
 20
170.879513
 30
0.0
 10
65.108940
 20
171.688900
 30
0.0
  0
SPLINE
  5
16c
100
AcDbEntity
  8
Layer_1
 62
7
100
AcDbSpline
 70
8
 71
3
 72
8
 73
4
 74
0
 40
0
 40
0
 40
0
 40
0
 40
1
 40
1
 40
1
 40
1
 10
65.108940
 20
171.688900
 30
0.0
 10
65.108940
 20
172.794101
 30
0.0
 10
64.212997
 20
173.690044
 30
0.0
 10
63.107796
 20
173.690044
 30
0.0
  0
LWPOLYLINE
  5
16d
100
AcDbEntity
  8
Layer_1
 62
7
100
AcDbPolyline
 90
1
 70
1
 10
39.107800
 20
173.690044
 30
0.0
  0
SPLINE
  5
16e
100
AcDbEntity
  8
Layer_1
 62
7
100
AcDbSpline
 70
8
 71
3
 72
8
 73
4
 74
0
 40
0
 40
0
 40
0
 40
0
 40
1
 40
1
 40
1
 40
1
 10
87.107788
 20
173.690044
 30
0.0
 10
86.298401
 20
173.690044
 30
0.0
 10
85.568711
 20
173.202481
 30
0.0
 10
85.258972
 20
172.454704
 30
0.0
  0
SPLINE
  5
16f
100
AcDbEntity
  8
Layer_1
 62
7
100
AcDbSpline
 70
8
 71
3
 72
8
 73
4
 74
0
 40
0
 40
0
 40
0
 40
0
 40
1
 40
1
 40
1
 40
1
 10
85.258972
 20
172.454704
 30
0.0
 10
84.949233
 20
171.706928
 30
0.0
 10
85.120443
 20
170.846201
 30
0.0
 10
85.692766
 20
170.273878
 30
0.0
  0
SPLINE
  5
170
100
AcDbEntity
  8
Layer_1
 62
7
100
AcDbSpline
 70
8
 71
3
 72
8
 73
4
 74
0
 40
0
 40
0
 40
0
 40
0
 40
1
 40
1
 40
1
 40
1
 10
85.692766
 20
170.273878
 30
0.0
 10
86.265089
 20
169.701555
 30
0.0
 10
87.125816
 20
169.530345
 30
0.0
 10
87.873592
 20
169.840084
 30
0.0
  0
SPLINE
  5
171
100
AcDbEntity
  8
Layer_1
 62
7
100
AcDbSpline
 70
8
 71
3
 72
8
 73
4
 74
0
 40
0
 40
0
 40
0
 40
0
 40
1
 40
1
 40
1
 40
1
 10
87.873592
 20
169.840084
 30
0.0
 10
88.621369
 20
170.149823
 30
0.0
 10
89.108931
 20
170.879513
 30
0.0
 10
89.108931
 20
171.688900
 30
0.0
  0
SPLINE
  5
172
100
AcDbEntity
  8
Layer_1
 62
7
100
AcDbSpline
 70
8
 71
3
 72
8
 73
4
 74
0
 40
0
 40
0
 40
0
 40
0
 40
1
 40
1
 40
1
 40
1
 10
89.108931
 20
171.688900
 30
0.0
 10
89.108931
 20
172.219636
 30
0.0
 10
88.898097
 20
172.728635
 30
0.0
 10
88.522810
 20
173.103922
 30
0.0
  0
SPLINE
  5
173
100
AcDbEntity
  8
Layer_1
 62
7
100
AcDbSpline
 70
8
 71
3
 72
8
 73
4
 74
0
 40
0
 40
0
 40
0
 40
0
 40
1
 40
1
 40
1
 40
1
 10
88.522810
 20
173.103922
 30
0.0
 10
88.147523
 20
173.479209
 30
0.0
 10
87.638524
 20
173.690044
 30
0.0
 10
87.107788
 20
173.690044
 30
0.0
  0
LWPOLYLINE
  5
174
100
AcDbEntity
  8
Layer_1
 62
7
100
AcDbPolyline
 90
1
 70
1
 10
63.107796
 20
173.690044
 30
0.0
  0
SPLINE
  5
175
100
AcDbEntity
  8
Layer_1
 62
7
100
AcDbSpline
 70
8
 71
3
 72
8
 73
4
 74
0
 40
0
 40
0
 40
0
 40
0
 40
1
 40
1
 40
1
 40
1
 10
111.107800
 20
173.690044
 30
0.0
 10
110.298413
 20
173.690044
 30
0.0
 10
109.568723
 20
173.202481
 30
0.0
 10
109.258984
 20
172.454704
 30
0.0
  0
SPLINE
  5
176
100
AcDbEntity
  8
Layer_1
 62
7
100
AcDbSpline
 70
8
 71
3
 72
8
 73
4
 74
0
 40
0
 40
0
 40
0
 40
0
 40
1
 40
1
 40
1
 40
1
 10
109.258984
 20
172.454704
 30
0.0
 10
108.949245
 20
171.706928
 30
0.0
 10
109.120455
 20
170.846201
 30
0.0
 10
109.692778
 20
170.273878
 30
0.0
  0
SPLINE
  5
177
100
AcDbEntity
  8
Layer_1
 62
7
100
AcDbSpline
 70
8
 71
3
 72
8
 73
4
 74
0
 40
0
 40
0
 40
0
 40
0
 40
1
 40
1
 40
1
 40
1
 10
109.692778
 20
170.273878
 30
0.0
 10
110.265101
 20
169.701555
 30
0.0
 10
111.125828
 20
169.530345
 30
0.0
 10
111.873604
 20
169.840084
 30
0.0
  0
SPLINE
  5
178
100
AcDbEntity
  8
Layer_1
 62
7
100
AcDbSpline
 70
8
 71
3
 72
8
 73
4
 74
0
 40
0
 40
0
 40
0
 40
0
 40
1
 40
1
 40
1
 40
1
 10
111.873604
 20
169.840084
 30
0.0
 10
112.621381
 20
170.149823
 30
0.0
 10
113.108943
 20
170.879513
 30
0.0
 10
113.108943
 20
171.688900
 30
0.0
  0
SPLINE
  5
179
100
AcDbEntity
  8
Layer_1
 62
7
100
AcDbSpline
 70
8
 71
3
 72
8
 73
4
 74
0
 40
0
 40
0
 40
0
 40
0
 40
1
 40
1
 40
1
 40
1
 10
113.108943
 20
171.688900
 30
0.0
 10
113.108943
 20
172.219636
 30
0.0
 10
112.898109
 20
172.728635
 30
0.0
 10
112.522822
 20
173.103922
 30
0.0
  0
SPLINE
  5
17a
100
AcDbEntity
  8
Layer_1
 62
7
100
AcDbSpline
 70
8
 71
3
 72
8
 73
4
 74
0
 40
0
 40
0
 40
0
 40
0
 40
1
 40
1
 40
1
 40
1
 10
112.522822
 20
173.103922
 30
0.0
 10
112.147535
 20
173.479209
 30
0.0
 10
111.638536
 20
173.690044
 30
0.0
 10
111.107800
 20
173.690044
 30
0.0
  0
LWPOLYLINE
  5
17b
100
AcDbEntity
  8
Layer_1
 62
7
100
AcDbPolyline
 90
1
 70
1
 10
87.107788
 20
173.690044
 30
0.0
  0
SPLINE
  5
17c
100
AcDbEntity
  8
Layer_1
 62
7
100
AcDbSpline
 70
8
 71
3
 72
8
 73
4
 74
0
 40
0
 40
0
 40
0
 40
0
 40
1
 40
1
 40
1
 40
1
 10
135.107790
 20
173.690044
 30
0.0
 10
134.002589
 20
173.690043
 30
0.0
 10
133.106647
 20
172.794101
 30
0.0
 10
133.106647
 20
171.688900
 30
0.0
  0
SPLINE
  5
17d
100
AcDbEntity
  8
Layer_1
 62
7
100
AcDbSpline
 70
8
 71
3
 72
8
 73
4
 74
0
 40
0
 40
0
 40
0
 40
0
 40
1
 40
1
 40
1
 40
1
 10
133.106647
 20
171.688900
 30
0.0
 10
133.106647
 20
170.583699
 30
0.0
 10
134.002589
 20
169.687756
 30
0.0
 10
135.107790
 20
169.687756
 30
0.0
  0
SPLINE
  5
17e
100
AcDbEntity
  8
Layer_1
 62
7
100
AcDbSpline
 70
8
 71
3
 72
8
 73
4
 74
0
 40
0
 40
0
 40
0
 40
0
 40
1
 40
1
 40
1
 40
1
 10
135.107790
 20
169.687756
 30
0.0
 10
136.212991
 20
169.687756
 30
0.0
 10
137.108934
 20
170.583699
 30
0.0
 10
137.108934
 20
171.688900
 30
0.0
  0
SPLINE
  5
17f
100
AcDbEntity
  8
Layer_1
 62
7
100
AcDbSpline
 70
8
 71
3
 72
8
 73
4
 74
0
 40
0
 40
0
 40
0
 40
0
 40
1
 40
1
 40
1
 40
1
 10
137.108934
 20
171.688900
 30
0.0
 10
137.108934
 20
172.219636
 30
0.0
 10
136.898099
 20
172.728635
 30
0.0
 10
136.522812
 20
173.103922
 30
0.0
  0
SPLINE
  5
180
100
AcDbEntity
  8
Layer_1
 62
7
100
AcDbSpline
 70
8
 71
3
 72
8
 73
4
 74
0
 40
0
 40
0
 40
0
 40
0
 40
1
 40
1
 40
1
 40
1
 10
136.522812
 20
173.103922
 30
0.0
 10
136.147525
 20
173.479209
 30
0.0
 10
135.638526
 20
173.690044
 30
0.0
 10
135.107790
 20
173.690044
 30
0.0
  0
LWPOLYLINE
  5
181
100
AcDbEntity
  8
Layer_1
 62
7
100
AcDbPolyline
 90
1
 70
1
 10
111.107800
 20
173.690044
 30
0.0
  0
SPLINE
  5
182
100
AcDbEntity
  8
Layer_1
 62
7
100
AcDbSpline
 70
8
 71
3
 72
8
 73
4
 74
0
 40
0
 40
0
 40
0
 40
0
 40
1
 40
1
 40
1
 40
1
 10
159.107790
 20
173.690044
 30
0.0
 10
158.298403
 20
173.690044
 30
0.0
 10
157.568713
 20
173.202481
 30
0.0
 10
157.258974
 20
172.454704
 30
0.0
  0
SPLINE
  5
183
100
AcDbEntity
  8
Layer_1
 62
7
100
AcDbSpline
 70
8
 71
3
 72
8
 73
4
 74
0
 40
0
 40
0
 40
0
 40
0
 40
1
 40
1
 40
1
 40
1
 10
157.258974
 20
172.454704
 30
0.0
 10
156.949235
 20
171.706928
 30
0.0
 10
157.120445
 20
170.846201
 30
0.0
 10
157.692768
 20
170.273878
 30
0.0
  0
SPLINE
  5
184
100
AcDbEntity
  8
Layer_1
 62
7
100
AcDbSpline
 70
8
 71
3
 72
8
 73
4
 74
0
 40
0
 40
0
 40
0
 40
0
 40
1
 40
1
 40
1
 40
1
 10
157.692768
 20
170.273878
 30
0.0
 10
158.265091
 20
169.701555
 30
0.0
 10
159.125818
 20
169.530345
 30
0.0
 10
159.873594
 20
169.840084
 30
0.0
  0
SPLINE
  5
185
100
AcDbEntity
  8
Layer_1
 62
7
100
AcDbSpline
 70
8
 71
3
 72
8
 73
4
 74
0
 40
0
 40
0
 40
0
 40
0
 40
1
 40
1
 40
1
 40
1
 10
159.873594
 20
169.840084
 30
0.0
 10
160.621371
 20
170.149823
 30
0.0
 10
161.108934
 20
170.879513
 30
0.0
 10
161.108934
 20
171.688900
 30
0.0
  0
SPLINE
  5
186
100
AcDbEntity
  8
Layer_1
 62
7
100
AcDbSpline
 70
8
 71
3
 72
8
 73
4
 74
0
 40
0
 40
0
 40
0
 40
0
 40
1
 40
1
 40
1
 40
1
 10
161.108934
 20
171.688900
 30
0.0
 10
161.108934
 20
172.219636
 30
0.0
 10
160.898099
 20
172.728635
 30
0.0
 10
160.522812
 20
173.103922
 30
0.0
  0
SPLINE
  5
187
100
AcDbEntity
  8
Layer_1
 62
7
100
AcDbSpline
 70
8
 71
3
 72
8
 73
4
 74
0
 40
0
 40
0
 40
0
 40
0
 40
1
 40
1
 40
1
 40
1
 10
160.522812
 20
173.103922
 30
0.0
 10
160.147525
 20
173.479209
 30
0.0
 10
159.638526
 20
173.690044
 30
0.0
 10
159.107790
 20
173.690044
 30
0.0
  0
LWPOLYLINE
  5
188
100
AcDbEntity
  8
Layer_1
 62
7
100
AcDbPolyline
 90
1
 70
1
 10
135.107790
 20
173.690044
 30
0.0
  0
SPLINE
  5
189
100
AcDbEntity
  8
Layer_1
 62
7
100
AcDbSpline
 70
8
 71
3
 72
8
 73
4
 74
0
 40
0
 40
0
 40
0
 40
0
 40
1
 40
1
 40
1
 40
1
 10
183.107800
 20
173.690044
 30
0.0
 10
182.002599
 20
173.690043
 30
0.0
 10
181.106657
 20
172.794101
 30
0.0
 10
181.106657
 20
171.688900
 30
0.0
  0
SPLINE
  5
18a
100
AcDbEntity
  8
Layer_1
 62
7
100
AcDbSpline
 70
8
 71
3
 72
8
 73
4
 74
0
 40
0
 40
0
 40
0
 40
0
 40
1
 40
1
 40
1
 40
1
 10
181.106657
 20
171.688900
 30
0.0
 10
181.106657
 20
170.583699
 30
0.0
 10
182.002599
 20
169.687756
 30
0.0
 10
183.107800
 20
169.687756
 30
0.0
  0
SPLINE
  5
18b
100
AcDbEntity
  8
Layer_1
 62
7
100
AcDbSpline
 70
8
 71
3
 72
8
 73
4
 74
0
 40
0
 40
0
 40
0
 40
0
 40
1
 40
1
 40
1
 40
1
 10
183.107800
 20
169.687756
 30
0.0
 10
184.213001
 20
169.687756
 30
0.0
 10
185.108944
 20
170.583699
 30
0.0
 10
185.108944
 20
171.688900
 30
0.0
  0
SPLINE
  5
18c
100
AcDbEntity
  8
Layer_1
 62
7
100
AcDbSpline
 70
8
 71
3
 72
8
 73
4
 74
0
 40
0
 40
0
 40
0
 40
0
 40
1
 40
1
 40
1
 40
1
 10
185.108944
 20
171.688900
 30
0.0
 10
185.108944
 20
172.219636
 30
0.0
 10
184.898109
 20
172.728635
 30
0.0
 10
184.522822
 20
173.103922
 30
0.0
  0
SPLINE
  5
18d
100
AcDbEntity
  8
Layer_1
 62
7
100
AcDbSpline
 70
8
 71
3
 72
8
 73
4
 74
0
 40
0
 40
0
 40
0
 40
0
 40
1
 40
1
 40
1
 40
1
 10
184.522822
 20
173.103922
 30
0.0
 10
184.147535
 20
173.479209
 30
0.0
 10
183.638536
 20
173.690044
 30
0.0
 10
183.107800
 20
173.690044
 30
0.0
  0
LWPOLYLINE
  5
18e
100
AcDbEntity
  8
Layer_1
 62
7
100
AcDbPolyline
 90
1
 70
1
 10
159.107790
 20
173.690044
 30
0.0
  0
SPLINE
  5
18f
100
AcDbEntity
  8
Layer_1
 62
7
100
AcDbSpline
 70
8
 71
3
 72
8
 73
4
 74
0
 40
0
 40
0
 40
0
 40
0
 40
1
 40
1
 40
1
 40
1
 10
207.107800
 20
173.690044
 30
0.0
 10
206.298413
 20
173.690044
 30
0.0
 10
205.568723
 20
173.202481
 30
0.0
 10
205.258984
 20
172.454704
 30
0.0
  0
SPLINE
  5
190
100
AcDbEntity
  8
Layer_1
 62
7
100
AcDbSpline
 70
8
 71
3
 72
8
 73
4
 74
0
 40
0
 40
0
 40
0
 40
0
 40
1
 40
1
 40
1
 40
1
 10
205.258984
 20
172.454704
 30
0.0
 10
204.949245
 20
171.706928
 30
0.0
 10
205.120455
 20
170.846201
 30
0.0
 10
205.692778
 20
170.273878
 30
0.0
  0
SPLINE
  5
191
100
AcDbEntity
  8
Layer_1
 62
7
100
AcDbSpline
 70
8
 71
3
 72
8
 73
4
 74
0
 40
0
 40
0
 40
0
 40
0
 40
1
 40
1
 40
1
 40
1
 10
205.692778
 20
170.273878
 30
0.0
 10
206.265101
 20
169.701555
 30
0.0
 10
207.125828
 20
169.530345
 30
0.0
 10
207.873604
 20
169.840084
 30
0.0
  0
SPLINE
  5
192
100
AcDbEntity
  8
Layer_1
 62
7
100
AcDbSpline
 70
8
 71
3
 72
8
 73
4
 74
0
 40
0
 40
0
 40
0
 40
0
 40
1
 40
1
 40
1
 40
1
 10
207.873604
 20
169.840084
 30
0.0
 10
208.621381
 20
170.149823
 30
0.0
 10
209.108944
 20
170.879513
 30
0.0
 10
209.108944
 20
171.688900
 30
0.0
  0
SPLINE
  5
193
100
AcDbEntity
  8
Layer_1
 62
7
100
AcDbSpline
 70
8
 71
3
 72
8
 73
4
 74
0
 40
0
 40
0
 40
0
 40
0
 40
1
 40
1
 40
1
 40
1
 10
209.108944
 20
171.688900
 30
0.0
 10
209.108944
 20
172.219636
 30
0.0
 10
208.898109
 20
172.728635
 30
0.0
 10
208.522822
 20
173.103922
 30
0.0
  0
SPLINE
  5
194
100
AcDbEntity
  8
Layer_1
 62
7
100
AcDbSpline
 70
8
 71
3
 72
8
 73
4
 74
0
 40
0
 40
0
 40
0
 40
0
 40
1
 40
1
 40
1
 40
1
 10
208.522822
 20
173.103922
 30
0.0
 10
208.147535
 20
173.479209
 30
0.0
 10
207.638536
 20
173.690044
 30
0.0
 10
207.107800
 20
173.690044
 30
0.0
  0
LWPOLYLINE
  5
195
100
AcDbEntity
  8
Layer_1
 62
7
100
AcDbPolyline
 90
1
 70
1
 10
183.107800
 20
173.690044
 30
0.0
  0
SPLINE
  5
196
100
AcDbEntity
  8
Layer_1
 62
7
100
AcDbSpline
 70
8
 71
3
 72
8
 73
4
 74
0
 40
0
 40
0
 40
0
 40
0
 40
1
 40
1
 40
1
 40
1
 10
231.107800
 20
173.690044
 30
0.0
 10
230.298413
 20
173.690044
 30
0.0
 10
229.568723
 20
173.202481
 30
0.0
 10
229.258984
 20
172.454704
 30
0.0
  0
SPLINE
  5
197
100
AcDbEntity
  8
Layer_1
 62
7
100
AcDbSpline
 70
8
 71
3
 72
8
 73
4
 74
0
 40
0
 40
0
 40
0
 40
0
 40
1
 40
1
 40
1
 40
1
 10
229.258984
 20
172.454704
 30
0.0
 10
228.949245
 20
171.706928
 30
0.0
 10
229.120455
 20
170.846201
 30
0.0
 10
229.692778
 20
170.273878
 30
0.0
  0
SPLINE
  5
198
100
AcDbEntity
  8
Layer_1
 62
7
100
AcDbSpline
 70
8
 71
3
 72
8
 73
4
 74
0
 40
0
 40
0
 40
0
 40
0
 40
1
 40
1
 40
1
 40
1
 10
229.692778
 20
170.273878
 30
0.0
 10
230.265101
 20
169.701555
 30
0.0
 10
231.125828
 20
169.530345
 30
0.0
 10
231.873604
 20
169.840084
 30
0.0
  0
SPLINE
  5
199
100
AcDbEntity
  8
Layer_1
 62
7
100
AcDbSpline
 70
8
 71
3
 72
8
 73
4
 74
0
 40
0
 40
0
 40
0
 40
0
 40
1
 40
1
 40
1
 40
1
 10
231.873604
 20
169.840084
 30
0.0
 10
232.621381
 20
170.149823
 30
0.0
 10
233.108943
 20
170.879513
 30
0.0
 10
233.108943
 20
171.688900
 30
0.0
  0
SPLINE
  5
19a
100
AcDbEntity
  8
Layer_1
 62
7
100
AcDbSpline
 70
8
 71
3
 72
8
 73
4
 74
0
 40
0
 40
0
 40
0
 40
0
 40
1
 40
1
 40
1
 40
1
 10
233.108943
 20
171.688900
 30
0.0
 10
233.108943
 20
172.219636
 30
0.0
 10
232.898109
 20
172.728635
 30
0.0
 10
232.522822
 20
173.103922
 30
0.0
  0
SPLINE
  5
19b
100
AcDbEntity
  8
Layer_1
 62
7
100
AcDbSpline
 70
8
 71
3
 72
8
 73
4
 74
0
 40
0
 40
0
 40
0
 40
0
 40
1
 40
1
 40
1
 40
1
 10
232.522822
 20
173.103922
 30
0.0
 10
232.147535
 20
173.479209
 30
0.0
 10
231.638536
 20
173.690044
 30
0.0
 10
231.107800
 20
173.690044
 30
0.0
  0
LWPOLYLINE
  5
19c
100
AcDbEntity
  8
Layer_1
 62
7
100
AcDbPolyline
 90
1
 70
1
 10
207.107800
 20
173.690044
 30
0.0
  0
SPLINE
  5
19d
100
AcDbEntity
  8
Layer_1
 62
7
100
AcDbSpline
 70
8
 71
3
 72
8
 73
4
 74
0
 40
0
 40
0
 40
0
 40
0
 40
1
 40
1
 40
1
 40
1
 10
255.107800
 20
173.690044
 30
0.0
 10
254.002599
 20
173.690043
 30
0.0
 10
253.106657
 20
172.794101
 30
0.0
 10
253.106657
 20
171.688900
 30
0.0
  0
SPLINE
  5
19e
100
AcDbEntity
  8
Layer_1
 62
7
100
AcDbSpline
 70
8
 71
3
 72
8
 73
4
 74
0
 40
0
 40
0
 40
0
 40
0
 40
1
 40
1
 40
1
 40
1
 10
253.106657
 20
171.688900
 30
0.0
 10
253.106657
 20
170.583699
 30
0.0
 10
254.002599
 20
169.687756
 30
0.0
 10
255.107800
 20
169.687756
 30
0.0
  0
SPLINE
  5
19f
100
AcDbEntity
  8
Layer_1
 62
7
100
AcDbSpline
 70
8
 71
3
 72
8
 73
4
 74
0
 40
0
 40
0
 40
0
 40
0
 40
1
 40
1
 40
1
 40
1
 10
255.107800
 20
169.687756
 30
0.0
 10
256.213001
 20
169.687756
 30
0.0
 10
257.108944
 20
170.583699
 30
0.0
 10
257.108944
 20
171.688900
 30
0.0
  0
SPLINE
  5
1a0
100
AcDbEntity
  8
Layer_1
 62
7
100
AcDbSpline
 70
8
 71
3
 72
8
 73
4
 74
0
 40
0
 40
0
 40
0
 40
0
 40
1
 40
1
 40
1
 40
1
 10
257.108944
 20
171.688900
 30
0.0
 10
257.108944
 20
172.219636
 30
0.0
 10
256.898109
 20
172.728635
 30
0.0
 10
256.522822
 20
173.103922
 30
0.0
  0
SPLINE
  5
1a1
100
AcDbEntity
  8
Layer_1
 62
7
100
AcDbSpline
 70
8
 71
3
 72
8
 73
4
 74
0
 40
0
 40
0
 40
0
 40
0
 40
1
 40
1
 40
1
 40
1
 10
256.522822
 20
173.103922
 30
0.0
 10
256.147535
 20
173.479209
 30
0.0
 10
255.638536
 20
173.690044
 30
0.0
 10
255.107800
 20
173.690044
 30
0.0
  0
LWPOLYLINE
  5
1a2
100
AcDbEntity
  8
Layer_1
 62
7
100
AcDbPolyline
 90
1
 70
1
 10
231.107800
 20
173.690044
 30
0.0
  0
SPLINE
  5
1a3
100
AcDbEntity
  8
Layer_1
 62
7
100
AcDbSpline
 70
8
 71
3
 72
8
 73
4
 74
0
 40
0
 40
0
 40
0
 40
0
 40
1
 40
1
 40
1
 40
1
 10
279.107790
 20
173.690044
 30
0.0
 10
278.298403
 20
173.690044
 30
0.0
 10
277.568713
 20
173.202481
 30
0.0
 10
277.258974
 20
172.454704
 30
0.0
  0
SPLINE
  5
1a4
100
AcDbEntity
  8
Layer_1
 62
7
100
AcDbSpline
 70
8
 71
3
 72
8
 73
4
 74
0
 40
0
 40
0
 40
0
 40
0
 40
1
 40
1
 40
1
 40
1
 10
277.258974
 20
172.454704
 30
0.0
 10
276.949235
 20
171.706928
 30
0.0
 10
277.120445
 20
170.846201
 30
0.0
 10
277.692768
 20
170.273878
 30
0.0
  0
SPLINE
  5
1a5
100
AcDbEntity
  8
Layer_1
 62
7
100
AcDbSpline
 70
8
 71
3
 72
8
 73
4
 74
0
 40
0
 40
0
 40
0
 40
0
 40
1
 40
1
 40
1
 40
1
 10
277.692768
 20
170.273878
 30
0.0
 10
278.265091
 20
169.701555
 30
0.0
 10
279.125818
 20
169.530345
 30
0.0
 10
279.873594
 20
169.840084
 30
0.0
  0
SPLINE
  5
1a6
100
AcDbEntity
  8
Layer_1
 62
7
100
AcDbSpline
 70
8
 71
3
 72
8
 73
4
 74
0
 40
0
 40
0
 40
0
 40
0
 40
1
 40
1
 40
1
 40
1
 10
279.873594
 20
169.840084
 30
0.0
 10
280.621371
 20
170.149823
 30
0.0
 10
281.108934
 20
170.879513
 30
0.0
 10
281.108934
 20
171.688900
 30
0.0
  0
SPLINE
  5
1a7
100
AcDbEntity
  8
Layer_1
 62
7
100
AcDbSpline
 70
8
 71
3
 72
8
 73
4
 74
0
 40
0
 40
0
 40
0
 40
0
 40
1
 40
1
 40
1
 40
1
 10
281.108934
 20
171.688900
 30
0.0
 10
281.108934
 20
172.219636
 30
0.0
 10
280.898099
 20
172.728635
 30
0.0
 10
280.522812
 20
173.103922
 30
0.0
  0
SPLINE
  5
1a8
100
AcDbEntity
  8
Layer_1
 62
7
100
AcDbSpline
 70
8
 71
3
 72
8
 73
4
 74
0
 40
0
 40
0
 40
0
 40
0
 40
1
 40
1
 40
1
 40
1
 10
280.522812
 20
173.103922
 30
0.0
 10
280.147525
 20
173.479209
 30
0.0
 10
279.638526
 20
173.690044
 30
0.0
 10
279.107790
 20
173.690044
 30
0.0
  0
LWPOLYLINE
  5
1a9
100
AcDbEntity
  8
Layer_1
 62
7
100
AcDbPolyline
 90
1
 70
1
 10
255.107800
 20
173.690044
 30
0.0
  0
SPLINE
  5
1aa
100
AcDbEntity
  8
Layer_1
 62
7
100
AcDbSpline
 70
8
 71
3
 72
8
 73
4
 74
0
 40
0
 40
0
 40
0
 40
0
 40
1
 40
1
 40
1
 40
1
 10
303.107760
 20
173.690044
 30
0.0
 10
302.002559
 20
173.690043
 30
0.0
 10
301.106617
 20
172.794101
 30
0.0
 10
301.106617
 20
171.688900
 30
0.0
  0
SPLINE
  5
1ab
100
AcDbEntity
  8
Layer_1
 62
7
100
AcDbSpline
 70
8
 71
3
 72
8
 73
4
 74
0
 40
0
 40
0
 40
0
 40
0
 40
1
 40
1
 40
1
 40
1
 10
301.106617
 20
171.688900
 30
0.0
 10
301.106617
 20
170.583699
 30
0.0
 10
302.002559
 20
169.687756
 30
0.0
 10
303.107760
 20
169.687756
 30
0.0
  0
SPLINE
  5
1ac
100
AcDbEntity
  8
Layer_1
 62
7
100
AcDbSpline
 70
8
 71
3
 72
8
 73
4
 74
0
 40
0
 40
0
 40
0
 40
0
 40
1
 40
1
 40
1
 40
1
 10
303.107760
 20
169.687756
 30
0.0
 10
304.212961
 20
169.687757
 30
0.0
 10
305.108904
 20
170.583699
 30
0.0
 10
305.108904
 20
171.688900
 30
0.0
  0
SPLINE
  5
1ad
100
AcDbEntity
  8
Layer_1
 62
7
100
AcDbSpline
 70
8
 71
3
 72
8
 73
4
 74
0
 40
0
 40
0
 40
0
 40
0
 40
1
 40
1
 40
1
 40
1
 10
305.108904
 20
171.688900
 30
0.0
 10
305.108904
 20
172.219636
 30
0.0
 10
304.898069
 20
172.728635
 30
0.0
 10
304.522782
 20
173.103922
 30
0.0
  0
SPLINE
  5
1ae
100
AcDbEntity
  8
Layer_1
 62
7
100
AcDbSpline
 70
8
 71
3
 72
8
 73
4
 74
0
 40
0
 40
0
 40
0
 40
0
 40
1
 40
1
 40
1
 40
1
 10
304.522782
 20
173.103922
 30
0.0
 10
304.147495
 20
173.479209
 30
0.0
 10
303.638496
 20
173.690044
 30
0.0
 10
303.107760
 20
173.690044
 30
0.0
  0
LWPOLYLINE
  5
1af
100
AcDbEntity
  8
Layer_1
 62
7
100
AcDbPolyline
 90
1
 70
1
 10
279.107790
 20
173.690044
 30
0.0
  0
SPLINE
  5
1b0
100
AcDbEntity
  8
Layer_1
 62
7
100
AcDbSpline
 70
8
 71
3
 72
8
 73
4
 74
0
 40
0
 40
0
 40
0
 40
0
 40
1
 40
1
 40
1
 40
1
 10
327.107790
 20
173.690044
 30
0.0
 10
326.298403
 20
173.690044
 30
0.0
 10
325.568713
 20
173.202481
 30
0.0
 10
325.258974
 20
172.454704
 30
0.0
  0
SPLINE
  5
1b1
100
AcDbEntity
  8
Layer_1
 62
7
100
AcDbSpline
 70
8
 71
3
 72
8
 73
4
 74
0
 40
0
 40
0
 40
0
 40
0
 40
1
 40
1
 40
1
 40
1
 10
325.258974
 20
172.454704
 30
0.0
 10
324.949235
 20
171.706928
 30
0.0
 10
325.120445
 20
170.846201
 30
0.0
 10
325.692768
 20
170.273878
 30
0.0
  0
SPLINE
  5
1b2
100
AcDbEntity
  8
Layer_1
 62
7
100
AcDbSpline
 70
8
 71
3
 72
8
 73
4
 74
0
 40
0
 40
0
 40
0
 40
0
 40
1
 40
1
 40
1
 40
1
 10
325.692768
 20
170.273878
 30
0.0
 10
326.265091
 20
169.701555
 30
0.0
 10
327.125818
 20
169.530345
 30
0.0
 10
327.873594
 20
169.840084
 30
0.0
  0
SPLINE
  5
1b3
100
AcDbEntity
  8
Layer_1
 62
7
100
AcDbSpline
 70
8
 71
3
 72
8
 73
4
 74
0
 40
0
 40
0
 40
0
 40
0
 40
1
 40
1
 40
1
 40
1
 10
327.873594
 20
169.840084
 30
0.0
 10
328.621371
 20
170.149823
 30
0.0
 10
329.108934
 20
170.879513
 30
0.0
 10
329.108934
 20
171.688900
 30
0.0
  0
SPLINE
  5
1b4
100
AcDbEntity
  8
Layer_1
 62
7
100
AcDbSpline
 70
8
 71
3
 72
8
 73
4
 74
0
 40
0
 40
0
 40
0
 40
0
 40
1
 40
1
 40
1
 40
1
 10
329.108934
 20
171.688900
 30
0.0
 10
329.108934
 20
172.219636
 30
0.0
 10
328.898099
 20
172.728635
 30
0.0
 10
328.522812
 20
173.103922
 30
0.0
  0
SPLINE
  5
1b5
100
AcDbEntity
  8
Layer_1
 62
7
100
AcDbSpline
 70
8
 71
3
 72
8
 73
4
 74
0
 40
0
 40
0
 40
0
 40
0
 40
1
 40
1
 40
1
 40
1
 10
328.522812
 20
173.103922
 30
0.0
 10
328.147525
 20
173.479209
 30
0.0
 10
327.638526
 20
173.690044
 30
0.0
 10
327.107790
 20
173.690044
 30
0.0
  0
LWPOLYLINE
  5
1b6
100
AcDbEntity
  8
Layer_1
 62
7
100
AcDbPolyline
 90
1
 70
1
 10
303.107760
 20
173.690044
 30
0.0
  0
SPLINE
  5
1b7
100
AcDbEntity
  8
Layer_1
 62
7
100
AcDbSpline
 70
8
 71
3
 72
8
 73
4
 74
0
 40
0
 40
0
 40
0
 40
0
 40
1
 40
1
 40
1
 40
1
 10
351.107790
 20
173.690044
 30
0.0
 10
350.298403
 20
173.690044
 30
0.0
 10
349.568713
 20
173.202481
 30
0.0
 10
349.258974
 20
172.454704
 30
0.0
  0
SPLINE
  5
1b8
100
AcDbEntity
  8
Layer_1
 62
7
100
AcDbSpline
 70
8
 71
3
 72
8
 73
4
 74
0
 40
0
 40
0
 40
0
 40
0
 40
1
 40
1
 40
1
 40
1
 10
349.258974
 20
172.454704
 30
0.0
 10
348.949235
 20
171.706928
 30
0.0
 10
349.120445
 20
170.846201
 30
0.0
 10
349.692768
 20
170.273878
 30
0.0
  0
SPLINE
  5
1b9
100
AcDbEntity
  8
Layer_1
 62
7
100
AcDbSpline
 70
8
 71
3
 72
8
 73
4
 74
0
 40
0
 40
0
 40
0
 40
0
 40
1
 40
1
 40
1
 40
1
 10
349.692768
 20
170.273878
 30
0.0
 10
350.265091
 20
169.701555
 30
0.0
 10
351.125818
 20
169.530345
 30
0.0
 10
351.873594
 20
169.840084
 30
0.0
  0
SPLINE
  5
1ba
100
AcDbEntity
  8
Layer_1
 62
7
100
AcDbSpline
 70
8
 71
3
 72
8
 73
4
 74
0
 40
0
 40
0
 40
0
 40
0
 40
1
 40
1
 40
1
 40
1
 10
351.873594
 20
169.840084
 30
0.0
 10
352.621371
 20
170.149823
 30
0.0
 10
353.108934
 20
170.879513
 30
0.0
 10
353.108934
 20
171.688900
 30
0.0
  0
SPLINE
  5
1bb
100
AcDbEntity
  8
Layer_1
 62
7
100
AcDbSpline
 70
8
 71
3
 72
8
 73
4
 74
0
 40
0
 40
0
 40
0
 40
0
 40
1
 40
1
 40
1
 40
1
 10
353.108934
 20
171.688900
 30
0.0
 10
353.108934
 20
172.219636
 30
0.0
 10
352.898099
 20
172.728635
 30
0.0
 10
352.522812
 20
173.103922
 30
0.0
  0
SPLINE
  5
1bc
100
AcDbEntity
  8
Layer_1
 62
7
100
AcDbSpline
 70
8
 71
3
 72
8
 73
4
 74
0
 40
0
 40
0
 40
0
 40
0
 40
1
 40
1
 40
1
 40
1
 10
352.522812
 20
173.103922
 30
0.0
 10
352.147525
 20
173.479209
 30
0.0
 10
351.638526
 20
173.690044
 30
0.0
 10
351.107790
 20
173.690044
 30
0.0
  0
LWPOLYLINE
  5
1bd
100
AcDbEntity
  8
Layer_1
 62
7
100
AcDbPolyline
 90
1
 70
1
 10
327.107790
 20
173.690044
 30
0.0
  0
SPLINE
  5
1be
100
AcDbEntity
  8
Layer_1
 62
7
100
AcDbSpline
 70
8
 71
3
 72
8
 73
4
 74
0
 40
0
 40
0
 40
0
 40
0
 40
1
 40
1
 40
1
 40
1
 10
375.103090
 20
173.708134
 30
0.0
 10
374.293703
 20
173.708134
 30
0.0
 10
373.564013
 20
173.220571
 30
0.0
 10
373.254274
 20
172.472794
 30
0.0
  0
SPLINE
  5
1bf
100
AcDbEntity
  8
Layer_1
 62
7
100
AcDbSpline
 70
8
 71
3
 72
8
 73
4
 74
0
 40
0
 40
0
 40
0
 40
0
 40
1
 40
1
 40
1
 40
1
 10
373.254274
 20
172.472794
 30
0.0
 10
372.944535
 20
171.725018
 30
0.0
 10
373.115745
 20
170.864291
 30
0.0
 10
373.688068
 20
170.291968
 30
0.0
  0
SPLINE
  5
1c0
100
AcDbEntity
  8
Layer_1
 62
7
100
AcDbSpline
 70
8
 71
3
 72
8
 73
4
 74
0
 40
0
 40
0
 40
0
 40
0
 40
1
 40
1
 40
1
 40
1
 10
373.688068
 20
170.291968
 30
0.0
 10
374.260391
 20
169.719645
 30
0.0
 10
375.121118
 20
169.548435
 30
0.0
 10
375.868894
 20
169.858174
 30
0.0
  0
SPLINE
  5
1c1
100
AcDbEntity
  8
Layer_1
 62
7
100
AcDbSpline
 70
8
 71
3
 72
8
 73
4
 74
0
 40
0
 40
0
 40
0
 40
0
 40
1
 40
1
 40
1
 40
1
 10
375.868894
 20
169.858174
 30
0.0
 10
376.616671
 20
170.167913
 30
0.0
 10
377.104234
 20
170.897603
 30
0.0
 10
377.104234
 20
171.706990
 30
0.0
  0
SPLINE
  5
1c2
100
AcDbEntity
  8
Layer_1
 62
7
100
AcDbSpline
 70
8
 71
3
 72
8
 73
4
 74
0
 40
0
 40
0
 40
0
 40
0
 40
1
 40
1
 40
1
 40
1
 10
377.104234
 20
171.706990
 30
0.0
 10
377.104234
 20
172.237726
 30
0.0
 10
376.893399
 20
172.746725
 30
0.0
 10
376.518112
 20
173.122012
 30
0.0
  0
SPLINE
  5
1c3
100
AcDbEntity
  8
Layer_1
 62
7
100
AcDbSpline
 70
8
 71
3
 72
8
 73
4
 74
0
 40
0
 40
0
 40
0
 40
0
 40
1
 40
1
 40
1
 40
1
 10
376.518112
 20
173.122012
 30
0.0
 10
376.142825
 20
173.497299
 30
0.0
 10
375.633826
 20
173.708134
 30
0.0
 10
375.103090
 20
173.708134
 30
0.0
  0
LWPOLYLINE
  5
1c4
100
AcDbEntity
  8
Layer_1
 62
7
100
AcDbPolyline
 90
1
 70
1
 10
351.107790
 20
173.690044
 30
0.0
  0
SPLINE
  5
1c5
100
AcDbEntity
  8
Layer_1
 62
7
100
AcDbSpline
 70
8
 71
3
 72
8
 73
4
 74
0
 40
0
 40
0
 40
0
 40
0
 40
1
 40
1
 40
1
 40
1
 10
374.187334
 20
199.131710
 30
0.0
 10
374.187334
 20
199.941097
 30
0.0
 10
373.699771
 20
200.670787
 30
0.0
 10
372.951994
 20
200.980526
 30
0.0
  0
SPLINE
  5
1c6
100
AcDbEntity
  8
Layer_1
 62
7
100
AcDbSpline
 70
8
 71
3
 72
8
 73
4
 74
0
 40
0
 40
0
 40
0
 40
0
 40
1
 40
1
 40
1
 40
1
 10
372.951994
 20
200.980526
 30
0.0
 10
372.204218
 20
201.290265
 30
0.0
 10
371.343491
 20
201.119055
 30
0.0
 10
370.771168
 20
200.546732
 30
0.0
  0
SPLINE
  5
1c7
100
AcDbEntity
  8
Layer_1
 62
7
100
AcDbSpline
 70
8
 71
3
 72
8
 73
4
 74
0
 40
0
 40
0
 40
0
 40
0
 40
1
 40
1
 40
1
 40
1
 10
370.771168
 20
200.546732
 30
0.0
 10
370.198845
 20
199.974409
 30
0.0
 10
370.027635
 20
199.113682
 30
0.0
 10
370.337374
 20
198.365906
 30
0.0
  0
SPLINE
  5
1c8
100
AcDbEntity
  8
Layer_1
 62
7
100
AcDbSpline
 70
8
 71
3
 72
8
 73
4
 74
0
 40
0
 40
0
 40
0
 40
0
 40
1
 40
1
 40
1
 40
1
 10
370.337374
 20
198.365906
 30
0.0
 10
370.647113
 20
197.618129
 30
0.0
 10
371.376803
 20
197.130566
 30
0.0
 10
372.186190
 20
197.130566
 30
0.0
  0
SPLINE
  5
1c9
100
AcDbEntity
  8
Layer_1
 62
7
100
AcDbSpline
 70
8
 71
3
 72
8
 73
4
 74
0
 40
0
 40
0
 40
0
 40
0
 40
1
 40
1
 40
1
 40
1
 10
372.186190
 20
197.130566
 30
0.0
 10
372.716926
 20
197.130566
 30
0.0
 10
373.225925
 20
197.341401
 30
0.0
 10
373.601212
 20
197.716688
 30
0.0
  0
SPLINE
  5
1ca
100
AcDbEntity
  8
Layer_1
 62
7
100
AcDbSpline
 70
8
 71
3
 72
8
 73
4
 74
0
 40
0
 40
0
 40
0
 40
0
 40
1
 40
1
 40
1
 40
1
 10
373.601212
 20
197.716688
 30
0.0
 10
373.976499
 20
198.091975
 30
0.0
 10
374.187334
 20
198.600974
 30
0.0
 10
374.187334
 20
199.131710
 30
0.0
  0
LWPOLYLINE
  5
1cb
100
AcDbEntity
  8
Layer_1
 62
7
100
AcDbPolyline
 90
1
 70
1
 10
375.103090
 20
173.708134
 30
0.0
  0
SPLINE
  5
1cc
100
AcDbEntity
  8
Layer_1
 62
7
100
AcDbSpline
 70
8
 71
3
 72
8
 73
4
 74
0
 40
0
 40
0
 40
0
 40
0
 40
1
 40
1
 40
1
 40
1
 10
374.187334
 20
191.131710
 30
0.0
 10
374.187334
 20
191.941097
 30
0.0
 10
373.699771
 20
192.670787
 30
0.0
 10
372.951994
 20
192.980526
 30
0.0
  0
SPLINE
  5
1cd
100
AcDbEntity
  8
Layer_1
 62
7
100
AcDbSpline
 70
8
 71
3
 72
8
 73
4
 74
0
 40
0
 40
0
 40
0
 40
0
 40
1
 40
1
 40
1
 40
1
 10
372.951994
 20
192.980526
 30
0.0
 10
372.204218
 20
193.290265
 30
0.0
 10
371.343491
 20
193.119055
 30
0.0
 10
370.771168
 20
192.546732
 30
0.0
  0
SPLINE
  5
1ce
100
AcDbEntity
  8
Layer_1
 62
7
100
AcDbSpline
 70
8
 71
3
 72
8
 73
4
 74
0
 40
0
 40
0
 40
0
 40
0
 40
1
 40
1
 40
1
 40
1
 10
370.771168
 20
192.546732
 30
0.0
 10
370.198845
 20
191.974409
 30
0.0
 10
370.027635
 20
191.113682
 30
0.0
 10
370.337374
 20
190.365906
 30
0.0
  0
SPLINE
  5
1cf
100
AcDbEntity
  8
Layer_1
 62
7
100
AcDbSpline
 70
8
 71
3
 72
8
 73
4
 74
0
 40
0
 40
0
 40
0
 40
0
 40
1
 40
1
 40
1
 40
1
 10
370.337374
 20
190.365906
 30
0.0
 10
370.647113
 20
189.618129
 30
0.0
 10
371.376803
 20
189.130566
 30
0.0
 10
372.186190
 20
189.130566
 30
0.0
  0
SPLINE
  5
1d0
100
AcDbEntity
  8
Layer_1
 62
7
100
AcDbSpline
 70
8
 71
3
 72
8
 73
4
 74
0
 40
0
 40
0
 40
0
 40
0
 40
1
 40
1
 40
1
 40
1
 10
372.186190
 20
189.130566
 30
0.0
 10
372.716926
 20
189.130566
 30
0.0
 10
373.225925
 20
189.341401
 30
0.0
 10
373.601212
 20
189.716688
 30
0.0
  0
SPLINE
  5
1d1
100
AcDbEntity
  8
Layer_1
 62
7
100
AcDbSpline
 70
8
 71
3
 72
8
 73
4
 74
0
 40
0
 40
0
 40
0
 40
0
 40
1
 40
1
 40
1
 40
1
 10
373.601212
 20
189.716688
 30
0.0
 10
373.976499
 20
190.091975
 30
0.0
 10
374.187334
 20
190.600974
 30
0.0
 10
374.187334
 20
191.131710
 30
0.0
  0
LWPOLYLINE
  5
1d2
100
AcDbEntity
  8
Layer_1
 62
7
100
AcDbPolyline
 90
1
 70
1
 10
374.187334
 20
199.131710
 30
0.0
  0
SPLINE
  5
1d3
100
AcDbEntity
  8
Layer_1
 62
7
100
AcDbSpline
 70
8
 71
3
 72
8
 73
4
 74
0
 40
0
 40
0
 40
0
 40
0
 40
1
 40
1
 40
1
 40
1
 10
374.187334
 20
183.131710
 30
0.0
 10
374.187334
 20
184.236911
 30
0.0
 10
373.291391
 20
185.132853
 30
0.0
 10
372.186190
 20
185.132853
 30
0.0
  0
SPLINE
  5
1d4
100
AcDbEntity
  8
Layer_1
 62
7
100
AcDbSpline
 70
8
 71
3
 72
8
 73
4
 74
0
 40
0
 40
0
 40
0
 40
0
 40
1
 40
1
 40
1
 40
1
 10
372.186190
 20
185.132853
 30
0.0
 10
371.080989
 20
185.132853
 30
0.0
 10
370.185046
 20
184.236911
 30
0.0
 10
370.185046
 20
183.131710
 30
0.0
  0
SPLINE
  5
1d5
100
AcDbEntity
  8
Layer_1
 62
7
100
AcDbSpline
 70
8
 71
3
 72
8
 73
4
 74
0
 40
0
 40
0
 40
0
 40
0
 40
1
 40
1
 40
1
 40
1
 10
370.185046
 20
183.131710
 30
0.0
 10
370.185047
 20
182.026509
 30
0.0
 10
371.080989
 20
181.130566
 30
0.0
 10
372.186190
 20
181.130566
 30
0.0
  0
SPLINE
  5
1d6
100
AcDbEntity
  8
Layer_1
 62
7
100
AcDbSpline
 70
8
 71
3
 72
8
 73
4
 74
0
 40
0
 40
0
 40
0
 40
0
 40
1
 40
1
 40
1
 40
1
 10
372.186190
 20
181.130566
 30
0.0
 10
372.716926
 20
181.130566
 30
0.0
 10
373.225925
 20
181.341401
 30
0.0
 10
373.601212
 20
181.716688
 30
0.0
  0
SPLINE
  5
1d7
100
AcDbEntity
  8
Layer_1
 62
7
100
AcDbSpline
 70
8
 71
3
 72
8
 73
4
 74
0
 40
0
 40
0
 40
0
 40
0
 40
1
 40
1
 40
1
 40
1
 10
373.601212
 20
181.716688
 30
0.0
 10
373.976499
 20
182.091975
 30
0.0
 10
374.187334
 20
182.600974
 30
0.0
 10
374.187334
 20
183.131710
 30
0.0
  0
LWPOLYLINE
  5
1d8
100
AcDbEntity
  8
Layer_1
 62
7
100
AcDbPolyline
 90
1
 70
1
 10
374.187334
 20
191.131710
 30
0.0
  0
SPLINE
  5
1d9
100
AcDbEntity
  8
Layer_1
 62
7
100
AcDbSpline
 70
8
 71
3
 72
8
 73
4
 74
0
 40
0
 40
0
 40
0
 40
0
 40
1
 40
1
 40
1
 40
1
 10
395.088424
 20
98.032770
 30
0.0
 10
395.088424
 20
98.842157
 30
0.0
 10
394.600861
 20
99.571847
 30
0.0
 10
393.853084
 20
99.881586
 30
0.0
  0
SPLINE
  5
1da
100
AcDbEntity
  8
Layer_1
 62
7
100
AcDbSpline
 70
8
 71
3
 72
8
 73
4
 74
0
 40
0
 40
0
 40
0
 40
0
 40
1
 40
1
 40
1
 40
1
 10
393.853084
 20
99.881586
 30
0.0
 10
393.105308
 20
100.191325
 30
0.0
 10
392.244581
 20
100.020115
 30
0.0
 10
391.672258
 20
99.447792
 30
0.0
  0
SPLINE
  5
1db
100
AcDbEntity
  8
Layer_1
 62
7
100
AcDbSpline
 70
8
 71
3
 72
8
 73
4
 74
0
 40
0
 40
0
 40
0
 40
0
 40
1
 40
1
 40
1
 40
1
 10
391.672258
 20
99.447792
 30
0.0
 10
391.099935
 20
98.875469
 30
0.0
 10
390.928725
 20
98.014742
 30
0.0
 10
391.238464
 20
97.266966
 30
0.0
  0
SPLINE
  5
1dc
100
AcDbEntity
  8
Layer_1
 62
7
100
AcDbSpline
 70
8
 71
3
 72
8
 73
4
 74
0
 40
0
 40
0
 40
0
 40
0
 40
1
 40
1
 40
1
 40
1
 10
391.238464
 20
97.266966
 30
0.0
 10
391.548203
 20
96.519189
 30
0.0
 10
392.277893
 20
96.031626
 30
0.0
 10
393.087280
 20
96.031626
 30
0.0
  0
SPLINE
  5
1dd
100
AcDbEntity
  8
Layer_1
 62
7
100
AcDbSpline
 70
8
 71
3
 72
8
 73
4
 74
0
 40
0
 40
0
 40
0
 40
0
 40
1
 40
1
 40
1
 40
1
 10
393.087280
 20
96.031626
 30
0.0
 10
393.618016
 20
96.031626
 30
0.0
 10
394.127015
 20
96.242461
 30
0.0
 10
394.502302
 20
96.617748
 30
0.0
  0
SPLINE
  5
1de
100
AcDbEntity
  8
Layer_1
 62
7
100
AcDbSpline
 70
8
 71
3
 72
8
 73
4
 74
0
 40
0
 40
0
 40
0
 40
0
 40
1
 40
1
 40
1
 40
1
 10
394.502302
 20
96.617748
 30
0.0
 10
394.877589
 20
96.993035
 30
0.0
 10
395.088424
 20
97.502034
 30
0.0
 10
395.088424
 20
98.032770
 30
0.0
  0
LWPOLYLINE
  5
1df
100
AcDbEntity
  8
Layer_1
 62
7
100
AcDbPolyline
 90
1
 70
1
 10
374.187334
 20
183.131710
 30
0.0
  0
SPLINE
  5
1e0
100
AcDbEntity
  8
Layer_1
 62
7
100
AcDbSpline
 70
8
 71
3
 72
8
 73
4
 74
0
 40
0
 40
0
 40
0
 40
0
 40
1
 40
1
 40
1
 40
1
 10
395.088424
 20
114.032770
 30
0.0
 10
395.088424
 20
114.842157
 30
0.0
 10
394.600861
 20
115.571847
 30
0.0
 10
393.853084
 20
115.881586
 30
0.0
  0
SPLINE
  5
1e1
100
AcDbEntity
  8
Layer_1
 62
7
100
AcDbSpline
 70
8
 71
3
 72
8
 73
4
 74
0
 40
0
 40
0
 40
0
 40
0
 40
1
 40
1
 40
1
 40
1
 10
393.853084
 20
115.881586
 30
0.0
 10
393.105308
 20
116.191325
 30
0.0
 10
392.244581
 20
116.020115
 30
0.0
 10
391.672258
 20
115.447792
 30
0.0
  0
SPLINE
  5
1e2
100
AcDbEntity
  8
Layer_1
 62
7
100
AcDbSpline
 70
8
 71
3
 72
8
 73
4
 74
0
 40
0
 40
0
 40
0
 40
0
 40
1
 40
1
 40
1
 40
1
 10
391.672258
 20
115.447792
 30
0.0
 10
391.099935
 20
114.875469
 30
0.0
 10
390.928725
 20
114.014742
 30
0.0
 10
391.238464
 20
113.266966
 30
0.0
  0
SPLINE
  5
1e3
100
AcDbEntity
  8
Layer_1
 62
7
100
AcDbSpline
 70
8
 71
3
 72
8
 73
4
 74
0
 40
0
 40
0
 40
0
 40
0
 40
1
 40
1
 40
1
 40
1
 10
391.238464
 20
113.266966
 30
0.0
 10
391.548203
 20
112.519189
 30
0.0
 10
392.277893
 20
112.031627
 30
0.0
 10
393.087280
 20
112.031627
 30
0.0
  0
SPLINE
  5
1e4
100
AcDbEntity
  8
Layer_1
 62
7
100
AcDbSpline
 70
8
 71
3
 72
8
 73
4
 74
0
 40
0
 40
0
 40
0
 40
0
 40
1
 40
1
 40
1
 40
1
 10
393.087280
 20
112.031627
 30
0.0
 10
393.618016
 20
112.031627
 30
0.0
 10
394.127015
 20
112.242461
 30
0.0
 10
394.502302
 20
112.617748
 30
0.0
  0
SPLINE
  5
1e5
100
AcDbEntity
  8
Layer_1
 62
7
100
AcDbSpline
 70
8
 71
3
 72
8
 73
4
 74
0
 40
0
 40
0
 40
0
 40
0
 40
1
 40
1
 40
1
 40
1
 10
394.502302
 20
112.617748
 30
0.0
 10
394.877589
 20
112.993035
 30
0.0
 10
395.088424
 20
113.502034
 30
0.0
 10
395.088424
 20
114.032770
 30
0.0
  0
LWPOLYLINE
  5
1e6
100
AcDbEntity
  8
Layer_1
 62
7
100
AcDbPolyline
 90
1
 70
1
 10
395.088424
 20
98.032770
 30
0.0
  0
SPLINE
  5
1e7
100
AcDbEntity
  8
Layer_1
 62
7
100
AcDbSpline
 70
8
 71
3
 72
8
 73
4
 74
0
 40
0
 40
0
 40
0
 40
0
 40
1
 40
1
 40
1
 40
1
 10
395.088424
 20
130.032770
 30
0.0
 10
395.088424
 20
130.842157
 30
0.0
 10
394.600861
 20
131.571847
 30
0.0
 10
393.853084
 20
131.881586
 30
0.0
  0
SPLINE
  5
1e8
100
AcDbEntity
  8
Layer_1
 62
7
100
AcDbSpline
 70
8
 71
3
 72
8
 73
4
 74
0
 40
0
 40
0
 40
0
 40
0
 40
1
 40
1
 40
1
 40
1
 10
393.853084
 20
131.881586
 30
0.0
 10
393.105308
 20
132.191325
 30
0.0
 10
392.244581
 20
132.020115
 30
0.0
 10
391.672258
 20
131.447792
 30
0.0
  0
SPLINE
  5
1e9
100
AcDbEntity
  8
Layer_1
 62
7
100
AcDbSpline
 70
8
 71
3
 72
8
 73
4
 74
0
 40
0
 40
0
 40
0
 40
0
 40
1
 40
1
 40
1
 40
1
 10
391.672258
 20
131.447792
 30
0.0
 10
391.099935
 20
130.875469
 30
0.0
 10
390.928725
 20
130.014742
 30
0.0
 10
391.238464
 20
129.266966
 30
0.0
  0
SPLINE
  5
1ea
100
AcDbEntity
  8
Layer_1
 62
7
100
AcDbSpline
 70
8
 71
3
 72
8
 73
4
 74
0
 40
0
 40
0
 40
0
 40
0
 40
1
 40
1
 40
1
 40
1
 10
391.238464
 20
129.266966
 30
0.0
 10
391.548203
 20
128.519189
 30
0.0
 10
392.277893
 20
128.031627
 30
0.0
 10
393.087280
 20
128.031627
 30
0.0
  0
SPLINE
  5
1eb
100
AcDbEntity
  8
Layer_1
 62
7
100
AcDbSpline
 70
8
 71
3
 72
8
 73
4
 74
0
 40
0
 40
0
 40
0
 40
0
 40
1
 40
1
 40
1
 40
1
 10
393.087280
 20
128.031627
 30
0.0
 10
393.618016
 20
128.031627
 30
0.0
 10
394.127015
 20
128.242461
 30
0.0
 10
394.502302
 20
128.617748
 30
0.0
  0
SPLINE
  5
1ec
100
AcDbEntity
  8
Layer_1
 62
7
100
AcDbSpline
 70
8
 71
3
 72
8
 73
4
 74
0
 40
0
 40
0
 40
0
 40
0
 40
1
 40
1
 40
1
 40
1
 10
394.502302
 20
128.617748
 30
0.0
 10
394.877589
 20
128.993035
 30
0.0
 10
395.088424
 20
129.502034
 30
0.0
 10
395.088424
 20
130.032770
 30
0.0
  0
LWPOLYLINE
  5
1ed
100
AcDbEntity
  8
Layer_1
 62
7
100
AcDbPolyline
 90
1
 70
1
 10
395.088424
 20
114.032770
 30
0.0
  0
SPLINE
  5
1ee
100
AcDbEntity
  8
Layer_1
 62
7
100
AcDbSpline
 70
8
 71
3
 72
8
 73
4
 74
0
 40
0
 40
0
 40
0
 40
0
 40
1
 40
1
 40
1
 40
1
 10
395.088424
 20
146.032770
 30
0.0
 10
395.088424
 20
146.842157
 30
0.0
 10
394.600861
 20
147.571847
 30
0.0
 10
393.853084
 20
147.881586
 30
0.0
  0
SPLINE
  5
1ef
100
AcDbEntity
  8
Layer_1
 62
7
100
AcDbSpline
 70
8
 71
3
 72
8
 73
4
 74
0
 40
0
 40
0
 40
0
 40
0
 40
1
 40
1
 40
1
 40
1
 10
393.853084
 20
147.881586
 30
0.0
 10
393.105308
 20
148.191325
 30
0.0
 10
392.244581
 20
148.020115
 30
0.0
 10
391.672258
 20
147.447792
 30
0.0
  0
SPLINE
  5
1f0
100
AcDbEntity
  8
Layer_1
 62
7
100
AcDbSpline
 70
8
 71
3
 72
8
 73
4
 74
0
 40
0
 40
0
 40
0
 40
0
 40
1
 40
1
 40
1
 40
1
 10
391.672258
 20
147.447792
 30
0.0
 10
391.099935
 20
146.875469
 30
0.0
 10
390.928725
 20
146.014742
 30
0.0
 10
391.238464
 20
145.266966
 30
0.0
  0
SPLINE
  5
1f1
100
AcDbEntity
  8
Layer_1
 62
7
100
AcDbSpline
 70
8
 71
3
 72
8
 73
4
 74
0
 40
0
 40
0
 40
0
 40
0
 40
1
 40
1
 40
1
 40
1
 10
391.238464
 20
145.266966
 30
0.0
 10
391.548203
 20
144.519189
 30
0.0
 10
392.277893
 20
144.031627
 30
0.0
 10
393.087280
 20
144.031627
 30
0.0
  0
SPLINE
  5
1f2
100
AcDbEntity
  8
Layer_1
 62
7
100
AcDbSpline
 70
8
 71
3
 72
8
 73
4
 74
0
 40
0
 40
0
 40
0
 40
0
 40
1
 40
1
 40
1
 40
1
 10
393.087280
 20
144.031627
 30
0.0
 10
393.618016
 20
144.031627
 30
0.0
 10
394.127015
 20
144.242461
 30
0.0
 10
394.502302
 20
144.617748
 30
0.0
  0
SPLINE
  5
1f3
100
AcDbEntity
  8
Layer_1
 62
7
100
AcDbSpline
 70
8
 71
3
 72
8
 73
4
 74
0
 40
0
 40
0
 40
0
 40
0
 40
1
 40
1
 40
1
 40
1
 10
394.502302
 20
144.617748
 30
0.0
 10
394.877589
 20
144.993035
 30
0.0
 10
395.088424
 20
145.502034
 30
0.0
 10
395.088424
 20
146.032770
 30
0.0
  0
LWPOLYLINE
  5
1f4
100
AcDbEntity
  8
Layer_1
 62
7
100
AcDbPolyline
 90
1
 70
1
 10
395.088424
 20
130.032770
 30
0.0
  0
SPLINE
  5
1f5
100
AcDbEntity
  8
Layer_1
 62
7
100
AcDbSpline
 70
8
 71
3
 72
8
 73
4
 74
0
 40
0
 40
0
 40
0
 40
0
 40
1
 40
1
 40
1
 40
1
 10
23.089424
 20
98.028770
 30
0.0
 10
23.089424
 20
98.838157
 30
0.0
 10
22.601861
 20
99.567847
 30
0.0
 10
21.854084
 20
99.877586
 30
0.0
  0
SPLINE
  5
1f6
100
AcDbEntity
  8
Layer_1
 62
7
100
AcDbSpline
 70
8
 71
3
 72
8
 73
4
 74
0
 40
0
 40
0
 40
0
 40
0
 40
1
 40
1
 40
1
 40
1
 10
21.854084
 20
99.877586
 30
0.0
 10
21.106308
 20
100.187325
 30
0.0
 10
20.245581
 20
100.016115
 30
0.0
 10
19.673258
 20
99.443792
 30
0.0
  0
SPLINE
  5
1f7
100
AcDbEntity
  8
Layer_1
 62
7
100
AcDbSpline
 70
8
 71
3
 72
8
 73
4
 74
0
 40
0
 40
0
 40
0
 40
0
 40
1
 40
1
 40
1
 40
1
 10
19.673258
 20
99.443792
 30
0.0
 10
19.100935
 20
98.871469
 30
0.0
 10
18.929725
 20
98.010742
 30
0.0
 10
19.239464
 20
97.262966
 30
0.0
  0
SPLINE
  5
1f8
100
AcDbEntity
  8
Layer_1
 62
7
100
AcDbSpline
 70
8
 71
3
 72
8
 73
4
 74
0
 40
0
 40
0
 40
0
 40
0
 40
1
 40
1
 40
1
 40
1
 10
19.239464
 20
97.262966
 30
0.0
 10
19.549203
 20
96.515189
 30
0.0
 10
20.278893
 20
96.027626
 30
0.0
 10
21.088280
 20
96.027626
 30
0.0
  0
SPLINE
  5
1f9
100
AcDbEntity
  8
Layer_1
 62
7
100
AcDbSpline
 70
8
 71
3
 72
8
 73
4
 74
0
 40
0
 40
0
 40
0
 40
0
 40
1
 40
1
 40
1
 40
1
 10
21.088280
 20
96.027626
 30
0.0
 10
21.619016
 20
96.027626
 30
0.0
 10
22.128015
 20
96.238461
 30
0.0
 10
22.503302
 20
96.613748
 30
0.0
  0
SPLINE
  5
1fa
100
AcDbEntity
  8
Layer_1
 62
7
100
AcDbSpline
 70
8
 71
3
 72
8
 73
4
 74
0
 40
0
 40
0
 40
0
 40
0
 40
1
 40
1
 40
1
 40
1
 10
22.503302
 20
96.613748
 30
0.0
 10
22.878589
 20
96.989035
 30
0.0
 10
23.089424
 20
97.498034
 30
0.0
 10
23.089424
 20
98.028770
 30
0.0
  0
LWPOLYLINE
  5
1fb
100
AcDbEntity
  8
Layer_1
 62
7
100
AcDbPolyline
 90
1
 70
1
 10
395.088424
 20
146.032770
 30
0.0
  0
SPLINE
  5
1fc
100
AcDbEntity
  8
Layer_1
 62
7
100
AcDbSpline
 70
8
 71
3
 72
8
 73
4
 74
0
 40
0
 40
0
 40
0
 40
0
 40
1
 40
1
 40
1
 40
1
 10
23.089424
 20
114.028770
 30
0.0
 10
23.089424
 20
114.838157
 30
0.0
 10
22.601861
 20
115.567847
 30
0.0
 10
21.854084
 20
115.877586
 30
0.0
  0
SPLINE
  5
1fd
100
AcDbEntity
  8
Layer_1
 62
7
100
AcDbSpline
 70
8
 71
3
 72
8
 73
4
 74
0
 40
0
 40
0
 40
0
 40
0
 40
1
 40
1
 40
1
 40
1
 10
21.854084
 20
115.877586
 30
0.0
 10
21.106308
 20
116.187325
 30
0.0
 10
20.245581
 20
116.016115
 30
0.0
 10
19.673258
 20
115.443792
 30
0.0
  0
SPLINE
  5
1fe
100
AcDbEntity
  8
Layer_1
 62
7
100
AcDbSpline
 70
8
 71
3
 72
8
 73
4
 74
0
 40
0
 40
0
 40
0
 40
0
 40
1
 40
1
 40
1
 40
1
 10
19.673258
 20
115.443792
 30
0.0
 10
19.100935
 20
114.871469
 30
0.0
 10
18.929725
 20
114.010742
 30
0.0
 10
19.239464
 20
113.262966
 30
0.0
  0
SPLINE
  5
1ff
100
AcDbEntity
  8
Layer_1
 62
7
100
AcDbSpline
 70
8
 71
3
 72
8
 73
4
 74
0
 40
0
 40
0
 40
0
 40
0
 40
1
 40
1
 40
1
 40
1
 10
19.239464
 20
113.262966
 30
0.0
 10
19.549203
 20
112.515189
 30
0.0
 10
20.278893
 20
112.027626
 30
0.0
 10
21.088280
 20
112.027626
 30
0.0
  0
SPLINE
  5
200
100
AcDbEntity
  8
Layer_1
 62
7
100
AcDbSpline
 70
8
 71
3
 72
8
 73
4
 74
0
 40
0
 40
0
 40
0
 40
0
 40
1
 40
1
 40
1
 40
1
 10
21.088280
 20
112.027626
 30
0.0
 10
21.619016
 20
112.027626
 30
0.0
 10
22.128015
 20
112.238461
 30
0.0
 10
22.503302
 20
112.613748
 30
0.0
  0
SPLINE
  5
201
100
AcDbEntity
  8
Layer_1
 62
7
100
AcDbSpline
 70
8
 71
3
 72
8
 73
4
 74
0
 40
0
 40
0
 40
0
 40
0
 40
1
 40
1
 40
1
 40
1
 10
22.503302
 20
112.613748
 30
0.0
 10
22.878589
 20
112.989035
 30
0.0
 10
23.089424
 20
113.498034
 30
0.0
 10
23.089424
 20
114.028770
 30
0.0
  0
LWPOLYLINE
  5
202
100
AcDbEntity
  8
Layer_1
 62
7
100
AcDbPolyline
 90
1
 70
1
 10
23.089424
 20
98.028770
 30
0.0
  0
SPLINE
  5
203
100
AcDbEntity
  8
Layer_1
 62
7
100
AcDbSpline
 70
8
 71
3
 72
8
 73
4
 74
0
 40
0
 40
0
 40
0
 40
0
 40
1
 40
1
 40
1
 40
1
 10
23.089424
 20
130.028770
 30
0.0
 10
23.089424
 20
130.838157
 30
0.0
 10
22.601861
 20
131.567847
 30
0.0
 10
21.854084
 20
131.877586
 30
0.0
  0
SPLINE
  5
204
100
AcDbEntity
  8
Layer_1
 62
7
100
AcDbSpline
 70
8
 71
3
 72
8
 73
4
 74
0
 40
0
 40
0
 40
0
 40
0
 40
1
 40
1
 40
1
 40
1
 10
21.854084
 20
131.877586
 30
0.0
 10
21.106308
 20
132.187325
 30
0.0
 10
20.245581
 20
132.016115
 30
0.0
 10
19.673258
 20
131.443792
 30
0.0
  0
SPLINE
  5
205
100
AcDbEntity
  8
Layer_1
 62
7
100
AcDbSpline
 70
8
 71
3
 72
8
 73
4
 74
0
 40
0
 40
0
 40
0
 40
0
 40
1
 40
1
 40
1
 40
1
 10
19.673258
 20
131.443792
 30
0.0
 10
19.100935
 20
130.871469
 30
0.0
 10
18.929725
 20
130.010742
 30
0.0
 10
19.239464
 20
129.262966
 30
0.0
  0
SPLINE
  5
206
100
AcDbEntity
  8
Layer_1
 62
7
100
AcDbSpline
 70
8
 71
3
 72
8
 73
4
 74
0
 40
0
 40
0
 40
0
 40
0
 40
1
 40
1
 40
1
 40
1
 10
19.239464
 20
129.262966
 30
0.0
 10
19.549203
 20
128.515189
 30
0.0
 10
20.278893
 20
128.027626
 30
0.0
 10
21.088280
 20
128.027626
 30
0.0
  0
SPLINE
  5
207
100
AcDbEntity
  8
Layer_1
 62
7
100
AcDbSpline
 70
8
 71
3
 72
8
 73
4
 74
0
 40
0
 40
0
 40
0
 40
0
 40
1
 40
1
 40
1
 40
1
 10
21.088280
 20
128.027626
 30
0.0
 10
21.619016
 20
128.027626
 30
0.0
 10
22.128015
 20
128.238461
 30
0.0
 10
22.503302
 20
128.613748
 30
0.0
  0
SPLINE
  5
208
100
AcDbEntity
  8
Layer_1
 62
7
100
AcDbSpline
 70
8
 71
3
 72
8
 73
4
 74
0
 40
0
 40
0
 40
0
 40
0
 40
1
 40
1
 40
1
 40
1
 10
22.503302
 20
128.613748
 30
0.0
 10
22.878589
 20
128.989035
 30
0.0
 10
23.089424
 20
129.498034
 30
0.0
 10
23.089424
 20
130.028770
 30
0.0
  0
LWPOLYLINE
  5
209
100
AcDbEntity
  8
Layer_1
 62
7
100
AcDbPolyline
 90
1
 70
1
 10
23.089424
 20
114.028770
 30
0.0
  0
SPLINE
  5
20a
100
AcDbEntity
  8
Layer_1
 62
7
100
AcDbSpline
 70
8
 71
3
 72
8
 73
4
 74
0
 40
0
 40
0
 40
0
 40
0
 40
1
 40
1
 40
1
 40
1
 10
23.089424
 20
146.028770
 30
0.0
 10
23.089424
 20
146.838157
 30
0.0
 10
22.601861
 20
147.567847
 30
0.0
 10
21.854084
 20
147.877586
 30
0.0
  0
SPLINE
  5
20b
100
AcDbEntity
  8
Layer_1
 62
7
100
AcDbSpline
 70
8
 71
3
 72
8
 73
4
 74
0
 40
0
 40
0
 40
0
 40
0
 40
1
 40
1
 40
1
 40
1
 10
21.854084
 20
147.877586
 30
0.0
 10
21.106308
 20
148.187325
 30
0.0
 10
20.245581
 20
148.016115
 30
0.0
 10
19.673258
 20
147.443792
 30
0.0
  0
SPLINE
  5
20c
100
AcDbEntity
  8
Layer_1
 62
7
100
AcDbSpline
 70
8
 71
3
 72
8
 73
4
 74
0
 40
0
 40
0
 40
0
 40
0
 40
1
 40
1
 40
1
 40
1
 10
19.673258
 20
147.443792
 30
0.0
 10
19.100935
 20
146.871469
 30
0.0
 10
18.929725
 20
146.010742
 30
0.0
 10
19.239464
 20
145.262966
 30
0.0
  0
SPLINE
  5
20d
100
AcDbEntity
  8
Layer_1
 62
7
100
AcDbSpline
 70
8
 71
3
 72
8
 73
4
 74
0
 40
0
 40
0
 40
0
 40
0
 40
1
 40
1
 40
1
 40
1
 10
19.239464
 20
145.262966
 30
0.0
 10
19.549203
 20
144.515189
 30
0.0
 10
20.278893
 20
144.027626
 30
0.0
 10
21.088280
 20
144.027626
 30
0.0
  0
SPLINE
  5
20e
100
AcDbEntity
  8
Layer_1
 62
7
100
AcDbSpline
 70
8
 71
3
 72
8
 73
4
 74
0
 40
0
 40
0
 40
0
 40
0
 40
1
 40
1
 40
1
 40
1
 10
21.088280
 20
144.027626
 30
0.0
 10
21.619016
 20
144.027626
 30
0.0
 10
22.128015
 20
144.238461
 30
0.0
 10
22.503302
 20
144.613748
 30
0.0
  0
SPLINE
  5
20f
100
AcDbEntity
  8
Layer_1
 62
7
100
AcDbSpline
 70
8
 71
3
 72
8
 73
4
 74
0
 40
0
 40
0
 40
0
 40
0
 40
1
 40
1
 40
1
 40
1
 10
22.503302
 20
144.613748
 30
0.0
 10
22.878589
 20
144.989035
 30
0.0
 10
23.089424
 20
145.498034
 30
0.0
 10
23.089424
 20
146.028770
 30
0.0
  0
LWPOLYLINE
  5
210
100
AcDbEntity
  8
Layer_1
 62
7
100
AcDbPolyline
 90
1
 70
1
 10
23.089424
 20
130.028770
 30
0.0
  0
SPLINE
  5
211
100
AcDbEntity
  8
Layer_1
 62
7
100
AcDbSpline
 70
8
 71
3
 72
8
 73
4
 74
0
 40
0
 40
0
 40
0
 40
0
 40
1
 40
1
 40
1
 40
1
 10
321.707730
 20
129.809964
 30
0.0
 10
320.898343
 20
129.809964
 30
0.0
 10
320.168653
 20
129.322401
 30
0.0
 10
319.858914
 20
128.574624
 30
0.0
  0
SPLINE
  5
212
100
AcDbEntity
  8
Layer_1
 62
7
100
AcDbSpline
 70
8
 71
3
 72
8
 73
4
 74
0
 40
0
 40
0
 40
0
 40
0
 40
1
 40
1
 40
1
 40
1
 10
319.858914
 20
128.574624
 30
0.0
 10
319.549175
 20
127.826848
 30
0.0
 10
319.720385
 20
126.966121
 30
0.0
 10
320.292708
 20
126.393798
 30
0.0
  0
SPLINE
  5
213
100
AcDbEntity
  8
Layer_1
 62
7
100
AcDbSpline
 70
8
 71
3
 72
8
 73
4
 74
0
 40
0
 40
0
 40
0
 40
0
 40
1
 40
1
 40
1
 40
1
 10
320.292708
 20
126.393798
 30
0.0
 10
320.865031
 20
125.821475
 30
0.0
 10
321.725758
 20
125.650265
 30
0.0
 10
322.473534
 20
125.960004
 30
0.0
  0
SPLINE
  5
214
100
AcDbEntity
  8
Layer_1
 62
7
100
AcDbSpline
 70
8
 71
3
 72
8
 73
4
 74
0
 40
0
 40
0
 40
0
 40
0
 40
1
 40
1
 40
1
 40
1
 10
322.473534
 20
125.960004
 30
0.0
 10
323.221311
 20
126.269743
 30
0.0
 10
323.708874
 20
126.999433
 30
0.0
 10
323.708874
 20
127.808820
 30
0.0
  0
SPLINE
  5
215
100
AcDbEntity
  8
Layer_1
 62
7
100
AcDbSpline
 70
8
 71
3
 72
8
 73
4
 74
0
 40
0
 40
0
 40
0
 40
0
 40
1
 40
1
 40
1
 40
1
 10
323.708874
 20
127.808820
 30
0.0
 10
323.708874
 20
128.339556
 30
0.0
 10
323.498039
 20
128.848555
 30
0.0
 10
323.122752
 20
129.223842
 30
0.0
  0
SPLINE
  5
216
100
AcDbEntity
  8
Layer_1
 62
7
100
AcDbSpline
 70
8
 71
3
 72
8
 73
4
 74
0
 40
0
 40
0
 40
0
 40
0
 40
1
 40
1
 40
1
 40
1
 10
323.122752
 20
129.223842
 30
0.0
 10
322.747465
 20
129.599129
 30
0.0
 10
322.238466
 20
129.809964
 30
0.0
 10
321.707730
 20
129.809964
 30
0.0
  0
LWPOLYLINE
  5
217
100
AcDbEntity
  8
Layer_1
 62
7
100
AcDbPolyline
 90
1
 70
1
 10
23.089424
 20
146.028770
 30
0.0
  0
SPLINE
  5
218
100
AcDbEntity
  8
Layer_1
 62
7
100
AcDbSpline
 70
8
 71
3
 72
8
 73
4
 74
0
 40
0
 40
0
 40
0
 40
0
 40
1
 40
1
 40
1
 40
1
 10
361.707460
 20
129.809964
 30
0.0
 10
360.898073
 20
129.809964
 30
0.0
 10
360.168383
 20
129.322401
 30
0.0
 10
359.858644
 20
128.574624
 30
0.0
  0
SPLINE
  5
219
100
AcDbEntity
  8
Layer_1
 62
7
100
AcDbSpline
 70
8
 71
3
 72
8
 73
4
 74
0
 40
0
 40
0
 40
0
 40
0
 40
1
 40
1
 40
1
 40
1
 10
359.858644
 20
128.574624
 30
0.0
 10
359.548905
 20
127.826848
 30
0.0
 10
359.720115
 20
126.966121
 30
0.0
 10
360.292438
 20
126.393798
 30
0.0
  0
SPLINE
  5
21a
100
AcDbEntity
  8
Layer_1
 62
7
100
AcDbSpline
 70
8
 71
3
 72
8
 73
4
 74
0
 40
0
 40
0
 40
0
 40
0
 40
1
 40
1
 40
1
 40
1
 10
360.292438
 20
126.393798
 30
0.0
 10
360.864761
 20
125.821475
 30
0.0
 10
361.725488
 20
125.650265
 30
0.0
 10
362.473264
 20
125.960004
 30
0.0
  0
SPLINE
  5
21b
100
AcDbEntity
  8
Layer_1
 62
7
100
AcDbSpline
 70
8
 71
3
 72
8
 73
4
 74
0
 40
0
 40
0
 40
0
 40
0
 40
1
 40
1
 40
1
 40
1
 10
362.473264
 20
125.960004
 30
0.0
 10
363.221041
 20
126.269743
 30
0.0
 10
363.708604
 20
126.999433
 30
0.0
 10
363.708604
 20
127.808820
 30
0.0
  0
SPLINE
  5
21c
100
AcDbEntity
  8
Layer_1
 62
7
100
AcDbSpline
 70
8
 71
3
 72
8
 73
4
 74
0
 40
0
 40
0
 40
0
 40
0
 40
1
 40
1
 40
1
 40
1
 10
363.708604
 20
127.808820
 30
0.0
 10
363.708604
 20
128.339556
 30
0.0
 10
363.497769
 20
128.848555
 30
0.0
 10
363.122482
 20
129.223842
 30
0.0
  0
SPLINE
  5
21d
100
AcDbEntity
  8
Layer_1
 62
7
100
AcDbSpline
 70
8
 71
3
 72
8
 73
4
 74
0
 40
0
 40
0
 40
0
 40
0
 40
1
 40
1
 40
1
 40
1
 10
363.122482
 20
129.223842
 30
0.0
 10
362.747195
 20
129.599129
 30
0.0
 10
362.238196
 20
129.809964
 30
0.0
 10
361.707460
 20
129.809964
 30
0.0
  0
LWPOLYLINE
  5
21e
100
AcDbEntity
  8
Layer_1
 62
7
100
AcDbPolyline
 90
1
 70
1
 10
321.707730
 20
129.809964
 30
0.0
  0
SPLINE
  5
21f
100
AcDbEntity
  8
Layer_1
 62
7
100
AcDbSpline
 70
8
 71
3
 72
8
 73
4
 74
0
 40
0
 40
0
 40
0
 40
0
 40
1
 40
1
 40
1
 40
1
 10
361.707460
 20
105.809864
 30
0.0
 10
360.898073
 20
105.809864
 30
0.0
 10
360.168383
 20
105.322301
 30
0.0
 10
359.858644
 20
104.574524
 30
0.0
  0
SPLINE
  5
220
100
AcDbEntity
  8
Layer_1
 62
7
100
AcDbSpline
 70
8
 71
3
 72
8
 73
4
 74
0
 40
0
 40
0
 40
0
 40
0
 40
1
 40
1
 40
1
 40
1
 10
359.858644
 20
104.574524
 30
0.0
 10
359.548905
 20
103.826748
 30
0.0
 10
359.720115
 20
102.966021
 30
0.0
 10
360.292438
 20
102.393698
 30
0.0
  0
SPLINE
  5
221
100
AcDbEntity
  8
Layer_1
 62
7
100
AcDbSpline
 70
8
 71
3
 72
8
 73
4
 74
0
 40
0
 40
0
 40
0
 40
0
 40
1
 40
1
 40
1
 40
1
 10
360.292438
 20
102.393698
 30
0.0
 10
360.864761
 20
101.821375
 30
0.0
 10
361.725488
 20
101.650165
 30
0.0
 10
362.473264
 20
101.959904
 30
0.0
  0
SPLINE
  5
222
100
AcDbEntity
  8
Layer_1
 62
7
100
AcDbSpline
 70
8
 71
3
 72
8
 73
4
 74
0
 40
0
 40
0
 40
0
 40
0
 40
1
 40
1
 40
1
 40
1
 10
362.473264
 20
101.959904
 30
0.0
 10
363.221041
 20
102.269643
 30
0.0
 10
363.708604
 20
102.999333
 30
0.0
 10
363.708604
 20
103.808720
 30
0.0
  0
SPLINE
  5
223
100
AcDbEntity
  8
Layer_1
 62
7
100
AcDbSpline
 70
8
 71
3
 72
8
 73
4
 74
0
 40
0
 40
0
 40
0
 40
0
 40
1
 40
1
 40
1
 40
1
 10
363.708604
 20
103.808720
 30
0.0
 10
363.708604
 20
104.339456
 30
0.0
 10
363.497769
 20
104.848455
 30
0.0
 10
363.122482
 20
105.223742
 30
0.0
  0
SPLINE
  5
224
100
AcDbEntity
  8
Layer_1
 62
7
100
AcDbSpline
 70
8
 71
3
 72
8
 73
4
 74
0
 40
0
 40
0
 40
0
 40
0
 40
1
 40
1
 40
1
 40
1
 10
363.122482
 20
105.223742
 30
0.0
 10
362.747195
 20
105.599029
 30
0.0
 10
362.238196
 20
105.809864
 30
0.0
 10
361.707460
 20
105.809864
 30
0.0
  0
LWPOLYLINE
  5
225
100
AcDbEntity
  8
Layer_1
 62
7
100
AcDbPolyline
 90
1
 70
1
 10
361.707460
 20
129.809964
 30
0.0
  0
SPLINE
  5
226
100
AcDbEntity
  8
Layer_1
 62
7
100
AcDbSpline
 70
8
 71
3
 72
8
 73
4
 74
0
 40
0
 40
0
 40
0
 40
0
 40
1
 40
1
 40
1
 40
1
 10
321.707730
 20
105.809864
 30
0.0
 10
320.898343
 20
105.809864
 30
0.0
 10
320.168653
 20
105.322301
 30
0.0
 10
319.858914
 20
104.574524
 30
0.0
  0
SPLINE
  5
227
100
AcDbEntity
  8
Layer_1
 62
7
100
AcDbSpline
 70
8
 71
3
 72
8
 73
4
 74
0
 40
0
 40
0
 40
0
 40
0
 40
1
 40
1
 40
1
 40
1
 10
319.858914
 20
104.574524
 30
0.0
 10
319.549175
 20
103.826748
 30
0.0
 10
319.720385
 20
102.966021
 30
0.0
 10
320.292708
 20
102.393698
 30
0.0
  0
SPLINE
  5
228
100
AcDbEntity
  8
Layer_1
 62
7
100
AcDbSpline
 70
8
 71
3
 72
8
 73
4
 74
0
 40
0
 40
0
 40
0
 40
0
 40
1
 40
1
 40
1
 40
1
 10
320.292708
 20
102.393698
 30
0.0
 10
320.865031
 20
101.821375
 30
0.0
 10
321.725758
 20
101.650165
 30
0.0
 10
322.473534
 20
101.959904
 30
0.0
  0
SPLINE
  5
229
100
AcDbEntity
  8
Layer_1
 62
7
100
AcDbSpline
 70
8
 71
3
 72
8
 73
4
 74
0
 40
0
 40
0
 40
0
 40
0
 40
1
 40
1
 40
1
 40
1
 10
322.473534
 20
101.959904
 30
0.0
 10
323.221311
 20
102.269643
 30
0.0
 10
323.708874
 20
102.999333
 30
0.0
 10
323.708874
 20
103.808720
 30
0.0
  0
SPLINE
  5
22a
100
AcDbEntity
  8
Layer_1
 62
7
100
AcDbSpline
 70
8
 71
3
 72
8
 73
4
 74
0
 40
0
 40
0
 40
0
 40
0
 40
1
 40
1
 40
1
 40
1
 10
323.708874
 20
103.808720
 30
0.0
 10
323.708874
 20
104.339456
 30
0.0
 10
323.498039
 20
104.848455
 30
0.0
 10
323.122752
 20
105.223742
 30
0.0
  0
SPLINE
  5
22b
100
AcDbEntity
  8
Layer_1
 62
7
100
AcDbSpline
 70
8
 71
3
 72
8
 73
4
 74
0
 40
0
 40
0
 40
0
 40
0
 40
1
 40
1
 40
1
 40
1
 10
323.122752
 20
105.223742
 30
0.0
 10
322.747465
 20
105.599029
 30
0.0
 10
322.238466
 20
105.809864
 30
0.0
 10
321.707730
 20
105.809864
 30
0.0
  0
LWPOLYLINE
  5
22c
100
AcDbEntity
  8
Layer_1
 62
7
100
AcDbPolyline
 90
1
 70
1
 10
361.707460
 20
105.809864
 30
0.0
  0
SPLINE
  5
22d
100
AcDbEntity
  8
Layer_1
 62
7
100
AcDbSpline
 70
8
 71
3
 72
8
 73
4
 74
0
 40
0
 40
0
 40
0
 40
0
 40
1
 40
1
 40
1
 40
1
 10
52.467730
 20
129.810024
 30
0.0
 10
51.658343
 20
129.810024
 30
0.0
 10
50.928653
 20
129.322461
 30
0.0
 10
50.618914
 20
128.574685
 30
0.0
  0
SPLINE
  5
22e
100
AcDbEntity
  8
Layer_1
 62
7
100
AcDbSpline
 70
8
 71
3
 72
8
 73
4
 74
0
 40
0
 40
0
 40
0
 40
0
 40
1
 40
1
 40
1
 40
1
 10
50.618914
 20
128.574685
 30
0.0
 10
50.309175
 20
127.826909
 30
0.0
 10
50.480385
 20
126.966182
 30
0.0
 10
51.052708
 20
126.393859
 30
0.0
  0
SPLINE
  5
22f
100
AcDbEntity
  8
Layer_1
 62
7
100
AcDbSpline
 70
8
 71
3
 72
8
 73
4
 74
0
 40
0
 40
0
 40
0
 40
0
 40
1
 40
1
 40
1
 40
1
 10
51.052708
 20
126.393859
 30
0.0
 10
51.625031
 20
125.821536
 30
0.0
 10
52.485758
 20
125.650326
 30
0.0
 10
53.233534
 20
125.960065
 30
0.0
  0
SPLINE
  5
230
100
AcDbEntity
  8
Layer_1
 62
7
100
AcDbSpline
 70
8
 71
3
 72
8
 73
4
 74
0
 40
0
 40
0
 40
0
 40
0
 40
1
 40
1
 40
1
 40
1
 10
53.233534
 20
125.960065
 30
0.0
 10
53.981311
 20
126.269804
 30
0.0
 10
54.468874
 20
126.999494
 30
0.0
 10
54.468874
 20
127.808881
 30
0.0
  0
SPLINE
  5
231
100
AcDbEntity
  8
Layer_1
 62
7
100
AcDbSpline
 70
8
 71
3
 72
8
 73
4
 74
0
 40
0
 40
0
 40
0
 40
0
 40
1
 40
1
 40
1
 40
1
 10
54.468874
 20
127.808881
 30
0.0
 10
54.468874
 20
128.339617
 30
0.0
 10
54.258039
 20
128.848616
 30
0.0
 10
53.882752
 20
129.223903
 30
0.0
  0
SPLINE
  5
232
100
AcDbEntity
  8
Layer_1
 62
7
100
AcDbSpline
 70
8
 71
3
 72
8
 73
4
 74
0
 40
0
 40
0
 40
0
 40
0
 40
1
 40
1
 40
1
 40
1
 10
53.882752
 20
129.223903
 30
0.0
 10
53.507465
 20
129.599190
 30
0.0
 10
52.998466
 20
129.810024
 30
0.0
 10
52.467730
 20
129.810024
 30
0.0
  0
LWPOLYLINE
  5
233
100
AcDbEntity
  8
Layer_1
 62
7
100
AcDbPolyline
 90
1
 70
1
 10
321.707730
 20
105.809864
 30
0.0
  0
SPLINE
  5
234
100
AcDbEntity
  8
Layer_1
 62
7
100
AcDbSpline
 70
8
 71
3
 72
8
 73
4
 74
0
 40
0
 40
0
 40
0
 40
0
 40
1
 40
1
 40
1
 40
1
 10
92.467460
 20
129.810024
 30
0.0
 10
91.658073
 20
129.810024
 30
0.0
 10
90.928383
 20
129.322461
 30
0.0
 10
90.618644
 20
128.574685
 30
0.0
  0
SPLINE
  5
235
100
AcDbEntity
  8
Layer_1
 62
7
100
AcDbSpline
 70
8
 71
3
 72
8
 73
4
 74
0
 40
0
 40
0
 40
0
 40
0
 40
1
 40
1
 40
1
 40
1
 10
90.618644
 20
128.574685
 30
0.0
 10
90.308905
 20
127.826909
 30
0.0
 10
90.480115
 20
126.966182
 30
0.0
 10
91.052438
 20
126.393859
 30
0.0
  0
SPLINE
  5
236
100
AcDbEntity
  8
Layer_1
 62
7
100
AcDbSpline
 70
8
 71
3
 72
8
 73
4
 74
0
 40
0
 40
0
 40
0
 40
0
 40
1
 40
1
 40
1
 40
1
 10
91.052438
 20
126.393859
 30
0.0
 10
91.624761
 20
125.821536
 30
0.0
 10
92.485488
 20
125.650326
 30
0.0
 10
93.233264
 20
125.960065
 30
0.0
  0
SPLINE
  5
237
100
AcDbEntity
  8
Layer_1
 62
7
100
AcDbSpline
 70
8
 71
3
 72
8
 73
4
 74
0
 40
0
 40
0
 40
0
 40
0
 40
1
 40
1
 40
1
 40
1
 10
93.233264
 20
125.960065
 30
0.0
 10
93.981041
 20
126.269804
 30
0.0
 10
94.468604
 20
126.999494
 30
0.0
 10
94.468604
 20
127.808881
 30
0.0
  0
SPLINE
  5
238
100
AcDbEntity
  8
Layer_1
 62
7
100
AcDbSpline
 70
8
 71
3
 72
8
 73
4
 74
0
 40
0
 40
0
 40
0
 40
0
 40
1
 40
1
 40
1
 40
1
 10
94.468604
 20
127.808881
 30
0.0
 10
94.468604
 20
128.339617
 30
0.0
 10
94.257769
 20
128.848616
 30
0.0
 10
93.882482
 20
129.223903
 30
0.0
  0
SPLINE
  5
239
100
AcDbEntity
  8
Layer_1
 62
7
100
AcDbSpline
 70
8
 71
3
 72
8
 73
4
 74
0
 40
0
 40
0
 40
0
 40
0
 40
1
 40
1
 40
1
 40
1
 10
93.882482
 20
129.223903
 30
0.0
 10
93.507195
 20
129.599190
 30
0.0
 10
92.998196
 20
129.810024
 30
0.0
 10
92.467460
 20
129.810024
 30
0.0
  0
LWPOLYLINE
  5
23a
100
AcDbEntity
  8
Layer_1
 62
7
100
AcDbPolyline
 90
1
 70
1
 10
52.467730
 20
129.810024
 30
0.0
  0
SPLINE
  5
23b
100
AcDbEntity
  8
Layer_1
 62
7
100
AcDbSpline
 70
8
 71
3
 72
8
 73
4
 74
0
 40
0
 40
0
 40
0
 40
0
 40
1
 40
1
 40
1
 40
1
 10
92.467460
 20
105.809924
 30
0.0
 10
91.658073
 20
105.809924
 30
0.0
 10
90.928383
 20
105.322361
 30
0.0
 10
90.618644
 20
104.574585
 30
0.0
  0
SPLINE
  5
23c
100
AcDbEntity
  8
Layer_1
 62
7
100
AcDbSpline
 70
8
 71
3
 72
8
 73
4
 74
0
 40
0
 40
0
 40
0
 40
0
 40
1
 40
1
 40
1
 40
1
 10
90.618644
 20
104.574585
 30
0.0
 10
90.308905
 20
103.826809
 30
0.0
 10
90.480115
 20
102.966082
 30
0.0
 10
91.052438
 20
102.393759
 30
0.0
  0
SPLINE
  5
23d
100
AcDbEntity
  8
Layer_1
 62
7
100
AcDbSpline
 70
8
 71
3
 72
8
 73
4
 74
0
 40
0
 40
0
 40
0
 40
0
 40
1
 40
1
 40
1
 40
1
 10
91.052438
 20
102.393759
 30
0.0
 10
91.624761
 20
101.821436
 30
0.0
 10
92.485488
 20
101.650226
 30
0.0
 10
93.233264
 20
101.959965
 30
0.0
  0
SPLINE
  5
23e
100
AcDbEntity
  8
Layer_1
 62
7
100
AcDbSpline
 70
8
 71
3
 72
8
 73
4
 74
0
 40
0
 40
0
 40
0
 40
0
 40
1
 40
1
 40
1
 40
1
 10
93.233264
 20
101.959965
 30
0.0
 10
93.981041
 20
102.269704
 30
0.0
 10
94.468604
 20
102.999394
 30
0.0
 10
94.468604
 20
103.808781
 30
0.0
  0
SPLINE
  5
23f
100
AcDbEntity
  8
Layer_1
 62
7
100
AcDbSpline
 70
8
 71
3
 72
8
 73
4
 74
0
 40
0
 40
0
 40
0
 40
0
 40
1
 40
1
 40
1
 40
1
 10
94.468604
 20
103.808781
 30
0.0
 10
94.468604
 20
104.339517
 30
0.0
 10
94.257769
 20
104.848516
 30
0.0
 10
93.882482
 20
105.223803
 30
0.0
  0
SPLINE
  5
240
100
AcDbEntity
  8
Layer_1
 62
7
100
AcDbSpline
 70
8
 71
3
 72
8
 73
4
 74
0
 40
0
 40
0
 40
0
 40
0
 40
1
 40
1
 40
1
 40
1
 10
93.882482
 20
105.223803
 30
0.0
 10
93.507195
 20
105.599090
 30
0.0
 10
92.998196
 20
105.809924
 30
0.0
 10
92.467460
 20
105.809924
 30
0.0
  0
LWPOLYLINE
  5
241
100
AcDbEntity
  8
Layer_1
 62
7
100
AcDbPolyline
 90
1
 70
1
 10
92.467460
 20
129.810024
 30
0.0
  0
SPLINE
  5
242
100
AcDbEntity
  8
Layer_1
 62
7
100
AcDbSpline
 70
8
 71
3
 72
8
 73
4
 74
0
 40
0
 40
0
 40
0
 40
0
 40
1
 40
1
 40
1
 40
1
 10
52.467730
 20
105.809924
 30
0.0
 10
51.658343
 20
105.809924
 30
0.0
 10
50.928653
 20
105.322361
 30
0.0
 10
50.618914
 20
104.574585
 30
0.0
  0
SPLINE
  5
243
100
AcDbEntity
  8
Layer_1
 62
7
100
AcDbSpline
 70
8
 71
3
 72
8
 73
4
 74
0
 40
0
 40
0
 40
0
 40
0
 40
1
 40
1
 40
1
 40
1
 10
50.618914
 20
104.574585
 30
0.0
 10
50.309175
 20
103.826809
 30
0.0
 10
50.480385
 20
102.966082
 30
0.0
 10
51.052708
 20
102.393759
 30
0.0
  0
SPLINE
  5
244
100
AcDbEntity
  8
Layer_1
 62
7
100
AcDbSpline
 70
8
 71
3
 72
8
 73
4
 74
0
 40
0
 40
0
 40
0
 40
0
 40
1
 40
1
 40
1
 40
1
 10
51.052708
 20
102.393759
 30
0.0
 10
51.625031
 20
101.821436
 30
0.0
 10
52.485758
 20
101.650226
 30
0.0
 10
53.233534
 20
101.959965
 30
0.0
  0
SPLINE
  5
245
100
AcDbEntity
  8
Layer_1
 62
7
100
AcDbSpline
 70
8
 71
3
 72
8
 73
4
 74
0
 40
0
 40
0
 40
0
 40
0
 40
1
 40
1
 40
1
 40
1
 10
53.233534
 20
101.959965
 30
0.0
 10
53.981311
 20
102.269704
 30
0.0
 10
54.468874
 20
102.999394
 30
0.0
 10
54.468874
 20
103.808781
 30
0.0
  0
SPLINE
  5
246
100
AcDbEntity
  8
Layer_1
 62
7
100
AcDbSpline
 70
8
 71
3
 72
8
 73
4
 74
0
 40
0
 40
0
 40
0
 40
0
 40
1
 40
1
 40
1
 40
1
 10
54.468874
 20
103.808781
 30
0.0
 10
54.468874
 20
104.339517
 30
0.0
 10
54.258039
 20
104.848516
 30
0.0
 10
53.882752
 20
105.223803
 30
0.0
  0
SPLINE
  5
247
100
AcDbEntity
  8
Layer_1
 62
7
100
AcDbSpline
 70
8
 71
3
 72
8
 73
4
 74
0
 40
0
 40
0
 40
0
 40
0
 40
1
 40
1
 40
1
 40
1
 10
53.882752
 20
105.223803
 30
0.0
 10
53.507465
 20
105.599090
 30
0.0
 10
52.998466
 20
105.809924
 30
0.0
 10
52.467730
 20
105.809924
 30
0.0
  0
LWPOLYLINE
  5
248
100
AcDbEntity
  8
Layer_1
 62
7
100
AcDbPolyline
 90
1
 70
1
 10
92.467460
 20
105.809924
 30
0.0
  0
SPLINE
  5
249
100
AcDbEntity
  8
Layer_1
 62
7
100
AcDbSpline
 70
8
 71
3
 72
8
 73
4
 74
0
 40
0
 40
0
 40
0
 40
0
 40
1
 40
1
 40
1
 40
1
 10
303.087618
 20
96.599914
 30
0.0
 10
302.278231
 20
96.599914
 30
0.0
 10
301.548541
 20
96.112351
 30
0.0
 10
301.238802
 20
95.364574
 30
0.0
  0
SPLINE
  5
24a
100
AcDbEntity
  8
Layer_1
 62
7
100
AcDbSpline
 70
8
 71
3
 72
8
 73
4
 74
0
 40
0
 40
0
 40
0
 40
0
 40
1
 40
1
 40
1
 40
1
 10
301.238802
 20
95.364574
 30
0.0
 10
300.929063
 20
94.616798
 30
0.0
 10
301.100273
 20
93.756071
 30
0.0
 10
301.672596
 20
93.183748
 30
0.0
  0
SPLINE
  5
24b
100
AcDbEntity
  8
Layer_1
 62
7
100
AcDbSpline
 70
8
 71
3
 72
8
 73
4
 74
0
 40
0
 40
0
 40
0
 40
0
 40
1
 40
1
 40
1
 40
1
 10
301.672596
 20
93.183748
 30
0.0
 10
302.244919
 20
92.611425
 30
0.0
 10
303.105646
 20
92.440215
 30
0.0
 10
303.853422
 20
92.749954
 30
0.0
  0
SPLINE
  5
24c
100
AcDbEntity
  8
Layer_1
 62
7
100
AcDbSpline
 70
8
 71
3
 72
8
 73
4
 74
0
 40
0
 40
0
 40
0
 40
0
 40
1
 40
1
 40
1
 40
1
 10
303.853422
 20
92.749954
 30
0.0
 10
304.601199
 20
93.059693
 30
0.0
 10
305.088761
 20
93.789383
 30
0.0
 10
305.088761
 20
94.598770
 30
0.0
  0
SPLINE
  5
24d
100
AcDbEntity
  8
Layer_1
 62
7
100
AcDbSpline
 70
8
 71
3
 72
8
 73
4
 74
0
 40
0
 40
0
 40
0
 40
0
 40
1
 40
1
 40
1
 40
1
 10
305.088761
 20
94.598770
 30
0.0
 10
305.088761
 20
95.129506
 30
0.0
 10
304.877927
 20
95.638505
 30
0.0
 10
304.502640
 20
96.013792
 30
0.0
  0
SPLINE
  5
24e
100
AcDbEntity
  8
Layer_1
 62
7
100
AcDbSpline
 70
8
 71
3
 72
8
 73
4
 74
0
 40
0
 40
0
 40
0
 40
0
 40
1
 40
1
 40
1
 40
1
 10
304.502640
 20
96.013792
 30
0.0
 10
304.127353
 20
96.389079
 30
0.0
 10
303.618354
 20
96.599914
 30
0.0
 10
303.087618
 20
96.599914
 30
0.0
  0
LWPOLYLINE
  5
24f
100
AcDbEntity
  8
Layer_1
 62
7
100
AcDbPolyline
 90
1
 70
1
 10
52.467730
 20
105.809924
 30
0.0
  0
SPLINE
  5
250
100
AcDbEntity
  8
Layer_1
 62
7
100
AcDbSpline
 70
8
 71
3
 72
8
 73
4
 74
0
 40
0
 40
0
 40
0
 40
0
 40
1
 40
1
 40
1
 40
1
 10
287.087618
 20
96.599914
 30
0.0
 10
286.278231
 20
96.599914
 30
0.0
 10
285.548541
 20
96.112351
 30
0.0
 10
285.238802
 20
95.364574
 30
0.0
  0
SPLINE
  5
251
100
AcDbEntity
  8
Layer_1
 62
7
100
AcDbSpline
 70
8
 71
3
 72
8
 73
4
 74
0
 40
0
 40
0
 40
0
 40
0
 40
1
 40
1
 40
1
 40
1
 10
285.238802
 20
95.364574
 30
0.0
 10
284.929063
 20
94.616798
 30
0.0
 10
285.100273
 20
93.756071
 30
0.0
 10
285.672596
 20
93.183748
 30
0.0
  0
SPLINE
  5
252
100
AcDbEntity
  8
Layer_1
 62
7
100
AcDbSpline
 70
8
 71
3
 72
8
 73
4
 74
0
 40
0
 40
0
 40
0
 40
0
 40
1
 40
1
 40
1
 40
1
 10
285.672596
 20
93.183748
 30
0.0
 10
286.244919
 20
92.611425
 30
0.0
 10
287.105646
 20
92.440215
 30
0.0
 10
287.853422
 20
92.749954
 30
0.0
  0
SPLINE
  5
253
100
AcDbEntity
  8
Layer_1
 62
7
100
AcDbSpline
 70
8
 71
3
 72
8
 73
4
 74
0
 40
0
 40
0
 40
0
 40
0
 40
1
 40
1
 40
1
 40
1
 10
287.853422
 20
92.749954
 30
0.0
 10
288.601199
 20
93.059693
 30
0.0
 10
289.088761
 20
93.789383
 30
0.0
 10
289.088761
 20
94.598770
 30
0.0
  0
SPLINE
  5
254
100
AcDbEntity
  8
Layer_1
 62
7
100
AcDbSpline
 70
8
 71
3
 72
8
 73
4
 74
0
 40
0
 40
0
 40
0
 40
0
 40
1
 40
1
 40
1
 40
1
 10
289.088761
 20
94.598770
 30
0.0
 10
289.088761
 20
95.129506
 30
0.0
 10
288.877927
 20
95.638505
 30
0.0
 10
288.502640
 20
96.013792
 30
0.0
  0
SPLINE
  5
255
100
AcDbEntity
  8
Layer_1
 62
7
100
AcDbSpline
 70
8
 71
3
 72
8
 73
4
 74
0
 40
0
 40
0
 40
0
 40
0
 40
1
 40
1
 40
1
 40
1
 10
288.502640
 20
96.013792
 30
0.0
 10
288.127353
 20
96.389079
 30
0.0
 10
287.618354
 20
96.599914
 30
0.0
 10
287.087618
 20
96.599914
 30
0.0
  0
LWPOLYLINE
  5
256
100
AcDbEntity
  8
Layer_1
 62
7
100
AcDbPolyline
 90
1
 70
1
 10
303.087618
 20
96.599914
 30
0.0
  0
SPLINE
  5
257
100
AcDbEntity
  8
Layer_1
 62
7
100
AcDbSpline
 70
8
 71
3
 72
8
 73
4
 74
0
 40
0
 40
0
 40
0
 40
0
 40
1
 40
1
 40
1
 40
1
 10
271.087618
 20
96.599914
 30
0.0
 10
270.278231
 20
96.599914
 30
0.0
 10
269.548541
 20
96.112351
 30
0.0
 10
269.238802
 20
95.364574
 30
0.0
  0
SPLINE
  5
258
100
AcDbEntity
  8
Layer_1
 62
7
100
AcDbSpline
 70
8
 71
3
 72
8
 73
4
 74
0
 40
0
 40
0
 40
0
 40
0
 40
1
 40
1
 40
1
 40
1
 10
269.238802
 20
95.364574
 30
0.0
 10
268.929063
 20
94.616798
 30
0.0
 10
269.100273
 20
93.756071
 30
0.0
 10
269.672596
 20
93.183748
 30
0.0
  0
SPLINE
  5
259
100
AcDbEntity
  8
Layer_1
 62
7
100
AcDbSpline
 70
8
 71
3
 72
8
 73
4
 74
0
 40
0
 40
0
 40
0
 40
0
 40
1
 40
1
 40
1
 40
1
 10
269.672596
 20
93.183748
 30
0.0
 10
270.244919
 20
92.611425
 30
0.0
 10
271.105646
 20
92.440215
 30
0.0
 10
271.853422
 20
92.749954
 30
0.0
  0
SPLINE
  5
25a
100
AcDbEntity
  8
Layer_1
 62
7
100
AcDbSpline
 70
8
 71
3
 72
8
 73
4
 74
0
 40
0
 40
0
 40
0
 40
0
 40
1
 40
1
 40
1
 40
1
 10
271.853422
 20
92.749954
 30
0.0
 10
272.601199
 20
93.059693
 30
0.0
 10
273.088761
 20
93.789383
 30
0.0
 10
273.088761
 20
94.598770
 30
0.0
  0
SPLINE
  5
25b
100
AcDbEntity
  8
Layer_1
 62
7
100
AcDbSpline
 70
8
 71
3
 72
8
 73
4
 74
0
 40
0
 40
0
 40
0
 40
0
 40
1
 40
1
 40
1
 40
1
 10
273.088761
 20
94.598770
 30
0.0
 10
273.088761
 20
95.129506
 30
0.0
 10
272.877927
 20
95.638505
 30
0.0
 10
272.502640
 20
96.013792
 30
0.0
  0
SPLINE
  5
25c
100
AcDbEntity
  8
Layer_1
 62
7
100
AcDbSpline
 70
8
 71
3
 72
8
 73
4
 74
0
 40
0
 40
0
 40
0
 40
0
 40
1
 40
1
 40
1
 40
1
 10
272.502640
 20
96.013792
 30
0.0
 10
272.127353
 20
96.389079
 30
0.0
 10
271.618354
 20
96.599914
 30
0.0
 10
271.087618
 20
96.599914
 30
0.0
  0
LWPOLYLINE
  5
25d
100
AcDbEntity
  8
Layer_1
 62
7
100
AcDbPolyline
 90
1
 70
1
 10
287.087618
 20
96.599914
 30
0.0
  0
SPLINE
  5
25e
100
AcDbEntity
  8
Layer_1
 62
7
100
AcDbSpline
 70
8
 71
3
 72
8
 73
4
 74
0
 40
0
 40
0
 40
0
 40
0
 40
1
 40
1
 40
1
 40
1
 10
255.087618
 20
96.599914
 30
0.0
 10
253.982417
 20
96.599913
 30
0.0
 10
253.086475
 20
95.703971
 30
0.0
 10
253.086475
 20
94.598770
 30
0.0
  0
SPLINE
  5
25f
100
AcDbEntity
  8
Layer_1
 62
7
100
AcDbSpline
 70
8
 71
3
 72
8
 73
4
 74
0
 40
0
 40
0
 40
0
 40
0
 40
1
 40
1
 40
1
 40
1
 10
253.086475
 20
94.598770
 30
0.0
 10
253.086475
 20
93.493569
 30
0.0
 10
253.982417
 20
92.597627
 30
0.0
 10
255.087618
 20
92.597627
 30
0.0
  0
SPLINE
  5
260
100
AcDbEntity
  8
Layer_1
 62
7
100
AcDbSpline
 70
8
 71
3
 72
8
 73
4
 74
0
 40
0
 40
0
 40
0
 40
0
 40
1
 40
1
 40
1
 40
1
 10
255.087618
 20
92.597627
 30
0.0
 10
256.192819
 20
92.597627
 30
0.0
 10
257.088762
 20
93.493569
 30
0.0
 10
257.088762
 20
94.598770
 30
0.0
  0
SPLINE
  5
261
100
AcDbEntity
  8
Layer_1
 62
7
100
AcDbSpline
 70
8
 71
3
 72
8
 73
4
 74
0
 40
0
 40
0
 40
0
 40
0
 40
1
 40
1
 40
1
 40
1
 10
257.088762
 20
94.598770
 30
0.0
 10
257.088762
 20
95.129506
 30
0.0
 10
256.877927
 20
95.638505
 30
0.0
 10
256.502640
 20
96.013792
 30
0.0
  0
SPLINE
  5
262
100
AcDbEntity
  8
Layer_1
 62
7
100
AcDbSpline
 70
8
 71
3
 72
8
 73
4
 74
0
 40
0
 40
0
 40
0
 40
0
 40
1
 40
1
 40
1
 40
1
 10
256.502640
 20
96.013792
 30
0.0
 10
256.127353
 20
96.389079
 30
0.0
 10
255.618354
 20
96.599914
 30
0.0
 10
255.087618
 20
96.599914
 30
0.0
  0
LWPOLYLINE
  5
263
100
AcDbEntity
  8
Layer_1
 62
7
100
AcDbPolyline
 90
1
 70
1
 10
271.087618
 20
96.599914
 30
0.0
  0
SPLINE
  5
264
100
AcDbEntity
  8
Layer_1
 62
7
100
AcDbSpline
 70
8
 71
3
 72
8
 73
4
 74
0
 40
0
 40
0
 40
0
 40
0
 40
1
 40
1
 40
1
 40
1
 10
239.087618
 20
96.599914
 30
0.0
 10
238.278231
 20
96.599914
 30
0.0
 10
237.548541
 20
96.112351
 30
0.0
 10
237.238802
 20
95.364574
 30
0.0
  0
SPLINE
  5
265
100
AcDbEntity
  8
Layer_1
 62
7
100
AcDbSpline
 70
8
 71
3
 72
8
 73
4
 74
0
 40
0
 40
0
 40
0
 40
0
 40
1
 40
1
 40
1
 40
1
 10
237.238802
 20
95.364574
 30
0.0
 10
236.929063
 20
94.616798
 30
0.0
 10
237.100273
 20
93.756071
 30
0.0
 10
237.672596
 20
93.183748
 30
0.0
  0
SPLINE
  5
266
100
AcDbEntity
  8
Layer_1
 62
7
100
AcDbSpline
 70
8
 71
3
 72
8
 73
4
 74
0
 40
0
 40
0
 40
0
 40
0
 40
1
 40
1
 40
1
 40
1
 10
237.672596
 20
93.183748
 30
0.0
 10
238.244919
 20
92.611425
 30
0.0
 10
239.105646
 20
92.440215
 30
0.0
 10
239.853422
 20
92.749954
 30
0.0
  0
SPLINE
  5
267
100
AcDbEntity
  8
Layer_1
 62
7
100
AcDbSpline
 70
8
 71
3
 72
8
 73
4
 74
0
 40
0
 40
0
 40
0
 40
0
 40
1
 40
1
 40
1
 40
1
 10
239.853422
 20
92.749954
 30
0.0
 10
240.601199
 20
93.059693
 30
0.0
 10
241.088762
 20
93.789383
 30
0.0
 10
241.088762
 20
94.598770
 30
0.0
  0
SPLINE
  5
268
100
AcDbEntity
  8
Layer_1
 62
7
100
AcDbSpline
 70
8
 71
3
 72
8
 73
4
 74
0
 40
0
 40
0
 40
0
 40
0
 40
1
 40
1
 40
1
 40
1
 10
241.088762
 20
94.598770
 30
0.0
 10
241.088762
 20
95.129506
 30
0.0
 10
240.877927
 20
95.638505
 30
0.0
 10
240.502640
 20
96.013792
 30
0.0
  0
SPLINE
  5
269
100
AcDbEntity
  8
Layer_1
 62
7
100
AcDbSpline
 70
8
 71
3
 72
8
 73
4
 74
0
 40
0
 40
0
 40
0
 40
0
 40
1
 40
1
 40
1
 40
1
 10
240.502640
 20
96.013792
 30
0.0
 10
240.127353
 20
96.389079
 30
0.0
 10
239.618354
 20
96.599914
 30
0.0
 10
239.087618
 20
96.599914
 30
0.0
  0
LWPOLYLINE
  5
26a
100
AcDbEntity
  8
Layer_1
 62
7
100
AcDbPolyline
 90
1
 70
1
 10
255.087618
 20
96.599914
 30
0.0
  0
SPLINE
  5
26b
100
AcDbEntity
  8
Layer_1
 62
7
100
AcDbSpline
 70
8
 71
3
 72
8
 73
4
 74
0
 40
0
 40
0
 40
0
 40
0
 40
1
 40
1
 40
1
 40
1
 10
223.087618
 20
96.599914
 30
0.0
 10
222.278231
 20
96.599914
 30
0.0
 10
221.548541
 20
96.112351
 30
0.0
 10
221.238802
 20
95.364574
 30
0.0
  0
SPLINE
  5
26c
100
AcDbEntity
  8
Layer_1
 62
7
100
AcDbSpline
 70
8
 71
3
 72
8
 73
4
 74
0
 40
0
 40
0
 40
0
 40
0
 40
1
 40
1
 40
1
 40
1
 10
221.238802
 20
95.364574
 30
0.0
 10
220.929063
 20
94.616798
 30
0.0
 10
221.100273
 20
93.756071
 30
0.0
 10
221.672596
 20
93.183748
 30
0.0
  0
SPLINE
  5
26d
100
AcDbEntity
  8
Layer_1
 62
7
100
AcDbSpline
 70
8
 71
3
 72
8
 73
4
 74
0
 40
0
 40
0
 40
0
 40
0
 40
1
 40
1
 40
1
 40
1
 10
221.672596
 20
93.183748
 30
0.0
 10
222.244919
 20
92.611425
 30
0.0
 10
223.105646
 20
92.440215
 30
0.0
 10
223.853422
 20
92.749954
 30
0.0
  0
SPLINE
  5
26e
100
AcDbEntity
  8
Layer_1
 62
7
100
AcDbSpline
 70
8
 71
3
 72
8
 73
4
 74
0
 40
0
 40
0
 40
0
 40
0
 40
1
 40
1
 40
1
 40
1
 10
223.853422
 20
92.749954
 30
0.0
 10
224.601199
 20
93.059693
 30
0.0
 10
225.088762
 20
93.789383
 30
0.0
 10
225.088762
 20
94.598770
 30
0.0
  0
SPLINE
  5
26f
100
AcDbEntity
  8
Layer_1
 62
7
100
AcDbSpline
 70
8
 71
3
 72
8
 73
4
 74
0
 40
0
 40
0
 40
0
 40
0
 40
1
 40
1
 40
1
 40
1
 10
225.088762
 20
94.598770
 30
0.0
 10
225.088762
 20
95.129506
 30
0.0
 10
224.877927
 20
95.638505
 30
0.0
 10
224.502640
 20
96.013792
 30
0.0
  0
SPLINE
  5
270
100
AcDbEntity
  8
Layer_1
 62
7
100
AcDbSpline
 70
8
 71
3
 72
8
 73
4
 74
0
 40
0
 40
0
 40
0
 40
0
 40
1
 40
1
 40
1
 40
1
 10
224.502640
 20
96.013792
 30
0.0
 10
224.127353
 20
96.389079
 30
0.0
 10
223.618354
 20
96.599914
 30
0.0
 10
223.087618
 20
96.599914
 30
0.0
  0
LWPOLYLINE
  5
271
100
AcDbEntity
  8
Layer_1
 62
7
100
AcDbPolyline
 90
1
 70
1
 10
239.087618
 20
96.599914
 30
0.0
  0
SPLINE
  5
272
100
AcDbEntity
  8
Layer_1
 62
7
100
AcDbSpline
 70
8
 71
3
 72
8
 73
4
 74
0
 40
0
 40
0
 40
0
 40
0
 40
1
 40
1
 40
1
 40
1
 10
207.087618
 20
96.599914
 30
0.0
 10
206.278231
 20
96.599914
 30
0.0
 10
205.548541
 20
96.112351
 30
0.0
 10
205.238802
 20
95.364574
 30
0.0
  0
SPLINE
  5
273
100
AcDbEntity
  8
Layer_1
 62
7
100
AcDbSpline
 70
8
 71
3
 72
8
 73
4
 74
0
 40
0
 40
0
 40
0
 40
0
 40
1
 40
1
 40
1
 40
1
 10
205.238802
 20
95.364574
 30
0.0
 10
204.929063
 20
94.616798
 30
0.0
 10
205.100273
 20
93.756071
 30
0.0
 10
205.672596
 20
93.183748
 30
0.0
  0
SPLINE
  5
274
100
AcDbEntity
  8
Layer_1
 62
7
100
AcDbSpline
 70
8
 71
3
 72
8
 73
4
 74
0
 40
0
 40
0
 40
0
 40
0
 40
1
 40
1
 40
1
 40
1
 10
205.672596
 20
93.183748
 30
0.0
 10
206.244919
 20
92.611425
 30
0.0
 10
207.105646
 20
92.440215
 30
0.0
 10
207.853422
 20
92.749954
 30
0.0
  0
SPLINE
  5
275
100
AcDbEntity
  8
Layer_1
 62
7
100
AcDbSpline
 70
8
 71
3
 72
8
 73
4
 74
0
 40
0
 40
0
 40
0
 40
0
 40
1
 40
1
 40
1
 40
1
 10
207.853422
 20
92.749954
 30
0.0
 10
208.601199
 20
93.059693
 30
0.0
 10
209.088762
 20
93.789383
 30
0.0
 10
209.088762
 20
94.598770
 30
0.0
  0
SPLINE
  5
276
100
AcDbEntity
  8
Layer_1
 62
7
100
AcDbSpline
 70
8
 71
3
 72
8
 73
4
 74
0
 40
0
 40
0
 40
0
 40
0
 40
1
 40
1
 40
1
 40
1
 10
209.088762
 20
94.598770
 30
0.0
 10
209.088762
 20
95.129506
 30
0.0
 10
208.877927
 20
95.638505
 30
0.0
 10
208.502640
 20
96.013792
 30
0.0
  0
SPLINE
  5
277
100
AcDbEntity
  8
Layer_1
 62
7
100
AcDbSpline
 70
8
 71
3
 72
8
 73
4
 74
0
 40
0
 40
0
 40
0
 40
0
 40
1
 40
1
 40
1
 40
1
 10
208.502640
 20
96.013792
 30
0.0
 10
208.127353
 20
96.389079
 30
0.0
 10
207.618354
 20
96.599914
 30
0.0
 10
207.087618
 20
96.599914
 30
0.0
  0
LWPOLYLINE
  5
278
100
AcDbEntity
  8
Layer_1
 62
7
100
AcDbPolyline
 90
1
 70
1
 10
223.087618
 20
96.599914
 30
0.0
  0
SPLINE
  5
279
100
AcDbEntity
  8
Layer_1
 62
7
100
AcDbSpline
 70
8
 71
3
 72
8
 73
4
 74
0
 40
0
 40
0
 40
0
 40
0
 40
1
 40
1
 40
1
 40
1
 10
191.087618
 20
96.599914
 30
0.0
 10
190.278231
 20
96.599914
 30
0.0
 10
189.548541
 20
96.112351
 30
0.0
 10
189.238802
 20
95.364574
 30
0.0
  0
SPLINE
  5
27a
100
AcDbEntity
  8
Layer_1
 62
7
100
AcDbSpline
 70
8
 71
3
 72
8
 73
4
 74
0
 40
0
 40
0
 40
0
 40
0
 40
1
 40
1
 40
1
 40
1
 10
189.238802
 20
95.364574
 30
0.0
 10
188.929063
 20
94.616798
 30
0.0
 10
189.100273
 20
93.756071
 30
0.0
 10
189.672596
 20
93.183748
 30
0.0
  0
SPLINE
  5
27b
100
AcDbEntity
  8
Layer_1
 62
7
100
AcDbSpline
 70
8
 71
3
 72
8
 73
4
 74
0
 40
0
 40
0
 40
0
 40
0
 40
1
 40
1
 40
1
 40
1
 10
189.672596
 20
93.183748
 30
0.0
 10
190.244919
 20
92.611425
 30
0.0
 10
191.105646
 20
92.440215
 30
0.0
 10
191.853422
 20
92.749954
 30
0.0
  0
SPLINE
  5
27c
100
AcDbEntity
  8
Layer_1
 62
7
100
AcDbSpline
 70
8
 71
3
 72
8
 73
4
 74
0
 40
0
 40
0
 40
0
 40
0
 40
1
 40
1
 40
1
 40
1
 10
191.853422
 20
92.749954
 30
0.0
 10
192.601199
 20
93.059693
 30
0.0
 10
193.088762
 20
93.789383
 30
0.0
 10
193.088762
 20
94.598770
 30
0.0
  0
SPLINE
  5
27d
100
AcDbEntity
  8
Layer_1
 62
7
100
AcDbSpline
 70
8
 71
3
 72
8
 73
4
 74
0
 40
0
 40
0
 40
0
 40
0
 40
1
 40
1
 40
1
 40
1
 10
193.088762
 20
94.598770
 30
0.0
 10
193.088762
 20
95.129506
 30
0.0
 10
192.877927
 20
95.638505
 30
0.0
 10
192.502640
 20
96.013792
 30
0.0
  0
SPLINE
  5
27e
100
AcDbEntity
  8
Layer_1
 62
7
100
AcDbSpline
 70
8
 71
3
 72
8
 73
4
 74
0
 40
0
 40
0
 40
0
 40
0
 40
1
 40
1
 40
1
 40
1
 10
192.502640
 20
96.013792
 30
0.0
 10
192.127353
 20
96.389079
 30
0.0
 10
191.618354
 20
96.599914
 30
0.0
 10
191.087618
 20
96.599914
 30
0.0
  0
LWPOLYLINE
  5
27f
100
AcDbEntity
  8
Layer_1
 62
7
100
AcDbPolyline
 90
1
 70
1
 10
207.087618
 20
96.599914
 30
0.0
  0
SPLINE
  5
280
100
AcDbEntity
  8
Layer_1
 62
7
100
AcDbSpline
 70
8
 71
3
 72
8
 73
4
 74
0
 40
0
 40
0
 40
0
 40
0
 40
1
 40
1
 40
1
 40
1
 10
175.087618
 20
96.599914
 30
0.0
 10
174.278231
 20
96.599914
 30
0.0
 10
173.548541
 20
96.112351
 30
0.0
 10
173.238802
 20
95.364574
 30
0.0
  0
SPLINE
  5
281
100
AcDbEntity
  8
Layer_1
 62
7
100
AcDbSpline
 70
8
 71
3
 72
8
 73
4
 74
0
 40
0
 40
0
 40
0
 40
0
 40
1
 40
1
 40
1
 40
1
 10
173.238802
 20
95.364574
 30
0.0
 10
172.929063
 20
94.616798
 30
0.0
 10
173.100273
 20
93.756071
 30
0.0
 10
173.672596
 20
93.183748
 30
0.0
  0
SPLINE
  5
282
100
AcDbEntity
  8
Layer_1
 62
7
100
AcDbSpline
 70
8
 71
3
 72
8
 73
4
 74
0
 40
0
 40
0
 40
0
 40
0
 40
1
 40
1
 40
1
 40
1
 10
173.672596
 20
93.183748
 30
0.0
 10
174.244919
 20
92.611425
 30
0.0
 10
175.105646
 20
92.440215
 30
0.0
 10
175.853422
 20
92.749954
 30
0.0
  0
SPLINE
  5
283
100
AcDbEntity
  8
Layer_1
 62
7
100
AcDbSpline
 70
8
 71
3
 72
8
 73
4
 74
0
 40
0
 40
0
 40
0
 40
0
 40
1
 40
1
 40
1
 40
1
 10
175.853422
 20
92.749954
 30
0.0
 10
176.601199
 20
93.059693
 30
0.0
 10
177.088762
 20
93.789383
 30
0.0
 10
177.088762
 20
94.598770
 30
0.0
  0
SPLINE
  5
284
100
AcDbEntity
  8
Layer_1
 62
7
100
AcDbSpline
 70
8
 71
3
 72
8
 73
4
 74
0
 40
0
 40
0
 40
0
 40
0
 40
1
 40
1
 40
1
 40
1
 10
177.088762
 20
94.598770
 30
0.0
 10
177.088762
 20
95.129506
 30
0.0
 10
176.877927
 20
95.638505
 30
0.0
 10
176.502640
 20
96.013792
 30
0.0
  0
SPLINE
  5
285
100
AcDbEntity
  8
Layer_1
 62
7
100
AcDbSpline
 70
8
 71
3
 72
8
 73
4
 74
0
 40
0
 40
0
 40
0
 40
0
 40
1
 40
1
 40
1
 40
1
 10
176.502640
 20
96.013792
 30
0.0
 10
176.127353
 20
96.389079
 30
0.0
 10
175.618354
 20
96.599914
 30
0.0
 10
175.087618
 20
96.599914
 30
0.0
  0
LWPOLYLINE
  5
286
100
AcDbEntity
  8
Layer_1
 62
7
100
AcDbPolyline
 90
1
 70
1
 10
191.087618
 20
96.599914
 30
0.0
  0
SPLINE
  5
287
100
AcDbEntity
  8
Layer_1
 62
7
100
AcDbSpline
 70
8
 71
3
 72
8
 73
4
 74
0
 40
0
 40
0
 40
0
 40
0
 40
1
 40
1
 40
1
 40
1
 10
159.087618
 20
96.599914
 30
0.0
 10
158.278231
 20
96.599914
 30
0.0
 10
157.548541
 20
96.112351
 30
0.0
 10
157.238802
 20
95.364574
 30
0.0
  0
SPLINE
  5
288
100
AcDbEntity
  8
Layer_1
 62
7
100
AcDbSpline
 70
8
 71
3
 72
8
 73
4
 74
0
 40
0
 40
0
 40
0
 40
0
 40
1
 40
1
 40
1
 40
1
 10
157.238802
 20
95.364574
 30
0.0
 10
156.929063
 20
94.616798
 30
0.0
 10
157.100273
 20
93.756071
 30
0.0
 10
157.672596
 20
93.183748
 30
0.0
  0
SPLINE
  5
289
100
AcDbEntity
  8
Layer_1
 62
7
100
AcDbSpline
 70
8
 71
3
 72
8
 73
4
 74
0
 40
0
 40
0
 40
0
 40
0
 40
1
 40
1
 40
1
 40
1
 10
157.672596
 20
93.183748
 30
0.0
 10
158.244919
 20
92.611425
 30
0.0
 10
159.105646
 20
92.440215
 30
0.0
 10
159.853422
 20
92.749954
 30
0.0
  0
SPLINE
  5
28a
100
AcDbEntity
  8
Layer_1
 62
7
100
AcDbSpline
 70
8
 71
3
 72
8
 73
4
 74
0
 40
0
 40
0
 40
0
 40
0
 40
1
 40
1
 40
1
 40
1
 10
159.853422
 20
92.749954
 30
0.0
 10
160.601199
 20
93.059693
 30
0.0
 10
161.088762
 20
93.789383
 30
0.0
 10
161.088762
 20
94.598770
 30
0.0
  0
SPLINE
  5
28b
100
AcDbEntity
  8
Layer_1
 62
7
100
AcDbSpline
 70
8
 71
3
 72
8
 73
4
 74
0
 40
0
 40
0
 40
0
 40
0
 40
1
 40
1
 40
1
 40
1
 10
161.088762
 20
94.598770
 30
0.0
 10
161.088762
 20
95.129506
 30
0.0
 10
160.877927
 20
95.638505
 30
0.0
 10
160.502640
 20
96.013792
 30
0.0
  0
SPLINE
  5
28c
100
AcDbEntity
  8
Layer_1
 62
7
100
AcDbSpline
 70
8
 71
3
 72
8
 73
4
 74
0
 40
0
 40
0
 40
0
 40
0
 40
1
 40
1
 40
1
 40
1
 10
160.502640
 20
96.013792
 30
0.0
 10
160.127353
 20
96.389079
 30
0.0
 10
159.618354
 20
96.599914
 30
0.0
 10
159.087618
 20
96.599914
 30
0.0
  0
LWPOLYLINE
  5
28d
100
AcDbEntity
  8
Layer_1
 62
7
100
AcDbPolyline
 90
1
 70
1
 10
175.087618
 20
96.599914
 30
0.0
  0
SPLINE
  5
28e
100
AcDbEntity
  8
Layer_1
 62
7
100
AcDbSpline
 70
8
 71
3
 72
8
 73
4
 74
0
 40
0
 40
0
 40
0
 40
0
 40
1
 40
1
 40
1
 40
1
 10
143.087618
 20
96.599914
 30
0.0
 10
142.278231
 20
96.599914
 30
0.0
 10
141.548541
 20
96.112351
 30
0.0
 10
141.238802
 20
95.364574
 30
0.0
  0
SPLINE
  5
28f
100
AcDbEntity
  8
Layer_1
 62
7
100
AcDbSpline
 70
8
 71
3
 72
8
 73
4
 74
0
 40
0
 40
0
 40
0
 40
0
 40
1
 40
1
 40
1
 40
1
 10
141.238802
 20
95.364574
 30
0.0
 10
140.929063
 20
94.616798
 30
0.0
 10
141.100273
 20
93.756071
 30
0.0
 10
141.672596
 20
93.183748
 30
0.0
  0
SPLINE
  5
290
100
AcDbEntity
  8
Layer_1
 62
7
100
AcDbSpline
 70
8
 71
3
 72
8
 73
4
 74
0
 40
0
 40
0
 40
0
 40
0
 40
1
 40
1
 40
1
 40
1
 10
141.672596
 20
93.183748
 30
0.0
 10
142.244919
 20
92.611425
 30
0.0
 10
143.105646
 20
92.440215
 30
0.0
 10
143.853422
 20
92.749954
 30
0.0
  0
SPLINE
  5
291
100
AcDbEntity
  8
Layer_1
 62
7
100
AcDbSpline
 70
8
 71
3
 72
8
 73
4
 74
0
 40
0
 40
0
 40
0
 40
0
 40
1
 40
1
 40
1
 40
1
 10
143.853422
 20
92.749954
 30
0.0
 10
144.601199
 20
93.059693
 30
0.0
 10
145.088762
 20
93.789383
 30
0.0
 10
145.088762
 20
94.598770
 30
0.0
  0
SPLINE
  5
292
100
AcDbEntity
  8
Layer_1
 62
7
100
AcDbSpline
 70
8
 71
3
 72
8
 73
4
 74
0
 40
0
 40
0
 40
0
 40
0
 40
1
 40
1
 40
1
 40
1
 10
145.088762
 20
94.598770
 30
0.0
 10
145.088762
 20
95.129506
 30
0.0
 10
144.877927
 20
95.638505
 30
0.0
 10
144.502640
 20
96.013792
 30
0.0
  0
SPLINE
  5
293
100
AcDbEntity
  8
Layer_1
 62
7
100
AcDbSpline
 70
8
 71
3
 72
8
 73
4
 74
0
 40
0
 40
0
 40
0
 40
0
 40
1
 40
1
 40
1
 40
1
 10
144.502640
 20
96.013792
 30
0.0
 10
144.127353
 20
96.389079
 30
0.0
 10
143.618354
 20
96.599914
 30
0.0
 10
143.087618
 20
96.599914
 30
0.0
  0
LWPOLYLINE
  5
294
100
AcDbEntity
  8
Layer_1
 62
7
100
AcDbPolyline
 90
1
 70
1
 10
159.087618
 20
96.599914
 30
0.0
  0
SPLINE
  5
295
100
AcDbEntity
  8
Layer_1
 62
7
100
AcDbSpline
 70
8
 71
3
 72
8
 73
4
 74
0
 40
0
 40
0
 40
0
 40
0
 40
1
 40
1
 40
1
 40
1
 10
127.087618
 20
96.599914
 30
0.0
 10
126.278231
 20
96.599914
 30
0.0
 10
125.548541
 20
96.112351
 30
0.0
 10
125.238802
 20
95.364574
 30
0.0
  0
SPLINE
  5
296
100
AcDbEntity
  8
Layer_1
 62
7
100
AcDbSpline
 70
8
 71
3
 72
8
 73
4
 74
0
 40
0
 40
0
 40
0
 40
0
 40
1
 40
1
 40
1
 40
1
 10
125.238802
 20
95.364574
 30
0.0
 10
124.929063
 20
94.616798
 30
0.0
 10
125.100273
 20
93.756071
 30
0.0
 10
125.672596
 20
93.183748
 30
0.0
  0
SPLINE
  5
297
100
AcDbEntity
  8
Layer_1
 62
7
100
AcDbSpline
 70
8
 71
3
 72
8
 73
4
 74
0
 40
0
 40
0
 40
0
 40
0
 40
1
 40
1
 40
1
 40
1
 10
125.672596
 20
93.183748
 30
0.0
 10
126.244919
 20
92.611425
 30
0.0
 10
127.105646
 20
92.440215
 30
0.0
 10
127.853422
 20
92.749954
 30
0.0
  0
SPLINE
  5
298
100
AcDbEntity
  8
Layer_1
 62
7
100
AcDbSpline
 70
8
 71
3
 72
8
 73
4
 74
0
 40
0
 40
0
 40
0
 40
0
 40
1
 40
1
 40
1
 40
1
 10
127.853422
 20
92.749954
 30
0.0
 10
128.601199
 20
93.059693
 30
0.0
 10
129.088762
 20
93.789383
 30
0.0
 10
129.088762
 20
94.598770
 30
0.0
  0
SPLINE
  5
299
100
AcDbEntity
  8
Layer_1
 62
7
100
AcDbSpline
 70
8
 71
3
 72
8
 73
4
 74
0
 40
0
 40
0
 40
0
 40
0
 40
1
 40
1
 40
1
 40
1
 10
129.088762
 20
94.598770
 30
0.0
 10
129.088762
 20
95.703971
 30
0.0
 10
128.192819
 20
96.599914
 30
0.0
 10
127.087618
 20
96.599914
 30
0.0
  0
LWPOLYLINE
  5
29a
100
AcDbEntity
  8
Layer_1
 62
7
100
AcDbPolyline
 90
1
 70
1
 10
143.087618
 20
96.599914
 30
0.0
  0
SPLINE
  5
29b
100
AcDbEntity
  8
Layer_1
 62
7
100
AcDbSpline
 70
8
 71
3
 72
8
 73
4
 74
0
 40
0
 40
0
 40
0
 40
0
 40
1
 40
1
 40
1
 40
1
 10
111.087618
 20
96.599914
 30
0.0
 10
110.278231
 20
96.599914
 30
0.0
 10
109.548541
 20
96.112351
 30
0.0
 10
109.238802
 20
95.364574
 30
0.0
  0
SPLINE
  5
29c
100
AcDbEntity
  8
Layer_1
 62
7
100
AcDbSpline
 70
8
 71
3
 72
8
 73
4
 74
0
 40
0
 40
0
 40
0
 40
0
 40
1
 40
1
 40
1
 40
1
 10
109.238802
 20
95.364574
 30
0.0
 10
108.929063
 20
94.616798
 30
0.0
 10
109.100273
 20
93.756071
 30
0.0
 10
109.672596
 20
93.183748
 30
0.0
  0
SPLINE
  5
29d
100
AcDbEntity
  8
Layer_1
 62
7
100
AcDbSpline
 70
8
 71
3
 72
8
 73
4
 74
0
 40
0
 40
0
 40
0
 40
0
 40
1
 40
1
 40
1
 40
1
 10
109.672596
 20
93.183748
 30
0.0
 10
110.244919
 20
92.611425
 30
0.0
 10
111.105646
 20
92.440215
 30
0.0
 10
111.853422
 20
92.749954
 30
0.0
  0
SPLINE
  5
29e
100
AcDbEntity
  8
Layer_1
 62
7
100
AcDbSpline
 70
8
 71
3
 72
8
 73
4
 74
0
 40
0
 40
0
 40
0
 40
0
 40
1
 40
1
 40
1
 40
1
 10
111.853422
 20
92.749954
 30
0.0
 10
112.601199
 20
93.059693
 30
0.0
 10
113.088762
 20
93.789383
 30
0.0
 10
113.088762
 20
94.598770
 30
0.0
  0
SPLINE
  5
29f
100
AcDbEntity
  8
Layer_1
 62
7
100
AcDbSpline
 70
8
 71
3
 72
8
 73
4
 74
0
 40
0
 40
0
 40
0
 40
0
 40
1
 40
1
 40
1
 40
1
 10
113.088762
 20
94.598770
 30
0.0
 10
113.088762
 20
95.129506
 30
0.0
 10
112.877927
 20
95.638505
 30
0.0
 10
112.502640
 20
96.013792
 30
0.0
  0
SPLINE
  5
2a0
100
AcDbEntity
  8
Layer_1
 62
7
100
AcDbSpline
 70
8
 71
3
 72
8
 73
4
 74
0
 40
0
 40
0
 40
0
 40
0
 40
1
 40
1
 40
1
 40
1
 10
112.502640
 20
96.013792
 30
0.0
 10
112.127353
 20
96.389079
 30
0.0
 10
111.618354
 20
96.599914
 30
0.0
 10
111.087618
 20
96.599914
 30
0.0
  0
LWPOLYLINE
  5
2a1
100
AcDbEntity
  8
Layer_1
 62
7
100
AcDbPolyline
 90
1
 70
1
 10
127.087618
 20
96.599914
 30
0.0
  0
SPLINE
  5
2a2
100
AcDbEntity
  8
Layer_1
 62
7
100
AcDbSpline
 70
8
 71
3
 72
8
 73
4
 74
0
 40
0
 40
0
 40
0
 40
0
 40
1
 40
1
 40
1
 40
1
 10
147.087770
 20
141.629953
 30
0.0
 10
146.278383
 20
141.629953
 30
0.0
 10
145.548693
 20
141.142391
 30
0.0
 10
145.238954
 20
140.394614
 30
0.0
  0
SPLINE
  5
2a3
100
AcDbEntity
  8
Layer_1
 62
7
100
AcDbSpline
 70
8
 71
3
 72
8
 73
4
 74
0
 40
0
 40
0
 40
0
 40
0
 40
1
 40
1
 40
1
 40
1
 10
145.238954
 20
140.394614
 30
0.0
 10
144.929215
 20
139.646838
 30
0.0
 10
145.100425
 20
138.786111
 30
0.0
 10
145.672748
 20
138.213788
 30
0.0
  0
SPLINE
  5
2a4
100
AcDbEntity
  8
Layer_1
 62
7
100
AcDbSpline
 70
8
 71
3
 72
8
 73
4
 74
0
 40
0
 40
0
 40
0
 40
0
 40
1
 40
1
 40
1
 40
1
 10
145.672748
 20
138.213788
 30
0.0
 10
146.245071
 20
137.641465
 30
0.0
 10
147.105798
 20
137.470255
 30
0.0
 10
147.853574
 20
137.779994
 30
0.0
  0
SPLINE
  5
2a5
100
AcDbEntity
  8
Layer_1
 62
7
100
AcDbSpline
 70
8
 71
3
 72
8
 73
4
 74
0
 40
0
 40
0
 40
0
 40
0
 40
1
 40
1
 40
1
 40
1
 10
147.853574
 20
137.779994
 30
0.0
 10
148.601351
 20
138.089733
 30
0.0
 10
149.088914
 20
138.819423
 30
0.0
 10
149.088914
 20
139.628810
 30
0.0
  0
SPLINE
  5
2a6
100
AcDbEntity
  8
Layer_1
 62
7
100
AcDbSpline
 70
8
 71
3
 72
8
 73
4
 74
0
 40
0
 40
0
 40
0
 40
0
 40
1
 40
1
 40
1
 40
1
 10
149.088914
 20
139.628810
 30
0.0
 10
149.088914
 20
140.159546
 30
0.0
 10
148.878079
 20
140.668545
 30
0.0
 10
148.502792
 20
141.043832
 30
0.0
  0
SPLINE
  5
2a7
100
AcDbEntity
  8
Layer_1
 62
7
100
AcDbSpline
 70
8
 71
3
 72
8
 73
4
 74
0
 40
0
 40
0
 40
0
 40
0
 40
1
 40
1
 40
1
 40
1
 10
148.502792
 20
141.043832
 30
0.0
 10
148.127505
 20
141.419119
 30
0.0
 10
147.618506
 20
141.629953
 30
0.0
 10
147.087770
 20
141.629953
 30
0.0
  0
LWPOLYLINE
  5
2a8
100
AcDbEntity
  8
Layer_1
 62
7
100
AcDbPolyline
 90
1
 70
1
 10
111.087618
 20
96.599914
 30
0.0
  0
SPLINE
  5
2a9
100
AcDbEntity
  8
Layer_1
 62
7
100
AcDbSpline
 70
8
 71
3
 72
8
 73
4
 74
0
 40
0
 40
0
 40
0
 40
0
 40
1
 40
1
 40
1
 40
1
 10
197.087660
 20
141.629953
 30
0.0
 10
196.278273
 20
141.629953
 30
0.0
 10
195.548583
 20
141.142391
 30
0.0
 10
195.238844
 20
140.394614
 30
0.0
  0
SPLINE
  5
2aa
100
AcDbEntity
  8
Layer_1
 62
7
100
AcDbSpline
 70
8
 71
3
 72
8
 73
4
 74
0
 40
0
 40
0
 40
0
 40
0
 40
1
 40
1
 40
1
 40
1
 10
195.238844
 20
140.394614
 30
0.0
 10
194.929105
 20
139.646838
 30
0.0
 10
195.100315
 20
138.786111
 30
0.0
 10
195.672638
 20
138.213788
 30
0.0
  0
SPLINE
  5
2ab
100
AcDbEntity
  8
Layer_1
 62
7
100
AcDbSpline
 70
8
 71
3
 72
8
 73
4
 74
0
 40
0
 40
0
 40
0
 40
0
 40
1
 40
1
 40
1
 40
1
 10
195.672638
 20
138.213788
 30
0.0
 10
196.244961
 20
137.641465
 30
0.0
 10
197.105688
 20
137.470255
 30
0.0
 10
197.853464
 20
137.779994
 30
0.0
  0
SPLINE
  5
2ac
100
AcDbEntity
  8
Layer_1
 62
7
100
AcDbSpline
 70
8
 71
3
 72
8
 73
4
 74
0
 40
0
 40
0
 40
0
 40
0
 40
1
 40
1
 40
1
 40
1
 10
197.853464
 20
137.779994
 30
0.0
 10
198.601241
 20
138.089733
 30
0.0
 10
199.088804
 20
138.819423
 30
0.0
 10
199.088804
 20
139.628810
 30
0.0
  0
SPLINE
  5
2ad
100
AcDbEntity
  8
Layer_1
 62
7
100
AcDbSpline
 70
8
 71
3
 72
8
 73
4
 74
0
 40
0
 40
0
 40
0
 40
0
 40
1
 40
1
 40
1
 40
1
 10
199.088804
 20
139.628810
 30
0.0
 10
199.088804
 20
140.159546
 30
0.0
 10
198.877969
 20
140.668545
 30
0.0
 10
198.502682
 20
141.043832
 30
0.0
  0
SPLINE
  5
2ae
100
AcDbEntity
  8
Layer_1
 62
7
100
AcDbSpline
 70
8
 71
3
 72
8
 73
4
 74
0
 40
0
 40
0
 40
0
 40
0
 40
1
 40
1
 40
1
 40
1
 10
198.502682
 20
141.043832
 30
0.0
 10
198.127395
 20
141.419119
 30
0.0
 10
197.618396
 20
141.629953
 30
0.0
 10
197.087660
 20
141.629953
 30
0.0
  0
LWPOLYLINE
  5
2af
100
AcDbEntity
  8
Layer_1
 62
7
100
AcDbPolyline
 90
1
 70
1
 10
147.087770
 20
141.629953
 30
0.0
  0
SPLINE
  5
2b0
100
AcDbEntity
  8
Layer_1
 62
7
100
AcDbSpline
 70
8
 71
3
 72
8
 73
4
 74
0
 40
0
 40
0
 40
0
 40
0
 40
1
 40
1
 40
1
 40
1
 10
197.087660
 20
109.629994
 30
0.0
 10
196.278273
 20
109.629993
 30
0.0
 10
195.548583
 20
109.142431
 30
0.0
 10
195.238844
 20
108.394654
 30
0.0
  0
SPLINE
  5
2b1
100
AcDbEntity
  8
Layer_1
 62
7
100
AcDbSpline
 70
8
 71
3
 72
8
 73
4
 74
0
 40
0
 40
0
 40
0
 40
0
 40
1
 40
1
 40
1
 40
1
 10
195.238844
 20
108.394654
 30
0.0
 10
194.929105
 20
107.646878
 30
0.0
 10
195.100315
 20
106.786151
 30
0.0
 10
195.672638
 20
106.213828
 30
0.0
  0
SPLINE
  5
2b2
100
AcDbEntity
  8
Layer_1
 62
7
100
AcDbSpline
 70
8
 71
3
 72
8
 73
4
 74
0
 40
0
 40
0
 40
0
 40
0
 40
1
 40
1
 40
1
 40
1
 10
195.672638
 20
106.213828
 30
0.0
 10
196.244961
 20
105.641505
 30
0.0
 10
197.105688
 20
105.470295
 30
0.0
 10
197.853464
 20
105.780034
 30
0.0
  0
SPLINE
  5
2b3
100
AcDbEntity
  8
Layer_1
 62
7
100
AcDbSpline
 70
8
 71
3
 72
8
 73
4
 74
0
 40
0
 40
0
 40
0
 40
0
 40
1
 40
1
 40
1
 40
1
 10
197.853464
 20
105.780034
 30
0.0
 10
198.601241
 20
106.089773
 30
0.0
 10
199.088804
 20
106.819463
 30
0.0
 10
199.088804
 20
107.628850
 30
0.0
  0
SPLINE
  5
2b4
100
AcDbEntity
  8
Layer_1
 62
7
100
AcDbSpline
 70
8
 71
3
 72
8
 73
4
 74
0
 40
0
 40
0
 40
0
 40
0
 40
1
 40
1
 40
1
 40
1
 10
199.088804
 20
107.628850
 30
0.0
 10
199.088804
 20
108.159586
 30
0.0
 10
198.877969
 20
108.668585
 30
0.0
 10
198.502682
 20
109.043872
 30
0.0
  0
SPLINE
  5
2b5
100
AcDbEntity
  8
Layer_1
 62
7
100
AcDbSpline
 70
8
 71
3
 72
8
 73
4
 74
0
 40
0
 40
0
 40
0
 40
0
 40
1
 40
1
 40
1
 40
1
 10
198.502682
 20
109.043872
 30
0.0
 10
198.127395
 20
109.419159
 30
0.0
 10
197.618396
 20
109.629993
 30
0.0
 10
197.087660
 20
109.629993
 30
0.0
  0
LWPOLYLINE
  5
2b6
100
AcDbEntity
  8
Layer_1
 62
7
100
AcDbPolyline
 90
1
 70
1
 10
197.087660
 20
141.629953
 30
0.0
  0
SPLINE
  5
2b7
100
AcDbEntity
  8
Layer_1
 62
7
100
AcDbSpline
 70
8
 71
3
 72
8
 73
4
 74
0
 40
0
 40
0
 40
0
 40
0
 40
1
 40
1
 40
1
 40
1
 10
147.087770
 20
109.629994
 30
0.0
 10
146.278383
 20
109.629993
 30
0.0
 10
145.548693
 20
109.142431
 30
0.0
 10
145.238954
 20
108.394654
 30
0.0
  0
SPLINE
  5
2b8
100
AcDbEntity
  8
Layer_1
 62
7
100
AcDbSpline
 70
8
 71
3
 72
8
 73
4
 74
0
 40
0
 40
0
 40
0
 40
0
 40
1
 40
1
 40
1
 40
1
 10
145.238954
 20
108.394654
 30
0.0
 10
144.929215
 20
107.646878
 30
0.0
 10
145.100425
 20
106.786151
 30
0.0
 10
145.672748
 20
106.213828
 30
0.0
  0
SPLINE
  5
2b9
100
AcDbEntity
  8
Layer_1
 62
7
100
AcDbSpline
 70
8
 71
3
 72
8
 73
4
 74
0
 40
0
 40
0
 40
0
 40
0
 40
1
 40
1
 40
1
 40
1
 10
145.672748
 20
106.213828
 30
0.0
 10
146.245071
 20
105.641505
 30
0.0
 10
147.105798
 20
105.470295
 30
0.0
 10
147.853574
 20
105.780034
 30
0.0
  0
SPLINE
  5
2ba
100
AcDbEntity
  8
Layer_1
 62
7
100
AcDbSpline
 70
8
 71
3
 72
8
 73
4
 74
0
 40
0
 40
0
 40
0
 40
0
 40
1
 40
1
 40
1
 40
1
 10
147.853574
 20
105.780034
 30
0.0
 10
148.601351
 20
106.089773
 30
0.0
 10
149.088914
 20
106.819463
 30
0.0
 10
149.088914
 20
107.628850
 30
0.0
  0
SPLINE
  5
2bb
100
AcDbEntity
  8
Layer_1
 62
7
100
AcDbSpline
 70
8
 71
3
 72
8
 73
4
 74
0
 40
0
 40
0
 40
0
 40
0
 40
1
 40
1
 40
1
 40
1
 10
149.088914
 20
107.628850
 30
0.0
 10
149.088914
 20
108.159586
 30
0.0
 10
148.878079
 20
108.668585
 30
0.0
 10
148.502792
 20
109.043872
 30
0.0
  0
SPLINE
  5
2bc
100
AcDbEntity
  8
Layer_1
 62
7
100
AcDbSpline
 70
8
 71
3
 72
8
 73
4
 74
0
 40
0
 40
0
 40
0
 40
0
 40
1
 40
1
 40
1
 40
1
 10
148.502792
 20
109.043872
 30
0.0
 10
148.127505
 20
109.419159
 30
0.0
 10
147.618506
 20
109.629993
 30
0.0
 10
147.087770
 20
109.629993
 30
0.0
  0
LWPOLYLINE
  5
2bd
100
AcDbEntity
  8
Layer_1
 62
7
100
AcDbPolyline
 90
1
 70
1
 10
197.087660
 20
109.629993
 30
0.0
  0
SPLINE
  5
2be
100
AcDbEntity
  8
Layer_1
 62
7
100
AcDbSpline
 70
8
 71
3
 72
8
 73
4
 74
0
 40
0
 40
0
 40
0
 40
0
 40
1
 40
1
 40
1
 40
1
 10
333.953290
 20
232.614196
 30
0.0
 10
369.126154
 20
232.473414
 30
0.0
 10
397.564958
 20
203.920556
 30
0.0
 10
397.564960
 20
168.747410
 30
0.0
  0
LWPOLYLINE
  5
2bf
100
AcDbEntity
  8
Layer_1
 62
7
100
AcDbPolyline
 90
1
 70
1
 10
147.087770
 20
109.629993
 30
0.0
  0
SPLINE
  5
2c0
100
AcDbEntity
  8
Layer_1
 62
7
100
AcDbSpline
 70
8
 71
3
 72
8
 73
4
 74
0
 40
0
 40
0
 40
0
 40
0
 40
1
 40
1
 40
1
 40
1
 10
397.564960
 20
168.747410
 30
0.0
 10
397.564971
 20
168.279398
 30
0.0
 10
397.559837
 20
167.811399
 30
0.0
 10
397.549560
 20
167.343500
 30
0.0
  0
SPLINE
  5
2c1
100
AcDbEntity
  8
Layer_1
 62
7
100
AcDbSpline
 70
8
 71
3
 72
8
 73
4
 74
0
 40
0
 40
0
 40
0
 40
0
 40
1
 40
1
 40
1
 40
1
 10
16.598466
 20
157.871700
 30
0.0
 10
16.598466
 20
149.158860
 30
0.0
 10
16.592666
 20
108.150490
 30
0.0
 10
16.590466
 20
92.598730
 30
0.0
  0
SPLINE
  5
2c2
100
AcDbEntity
  8
Layer_1
 62
7
100
AcDbSpline
 70
8
 71
3
 72
8
 73
4
 74
0
 40
0
 40
0
 40
0
 40
0
 40
1
 40
1
 40
1
 40
1
 10
16.590466
 20
92.598730
 30
0.0
 10
16.589988
 20
89.285020
 30
0.0
 10
19.275885
 20
86.598720
 30
0.0
 10
22.589594
 20
86.598700
 30
0.0
  0
LWPOLYLINE
  5
2c3
100
AcDbEntity
  8
Layer_1
 62
7
100
AcDbPolyline
 90
1
 70
1
 10
397.564960
 20
168.747410
 30
0.0
  0
SPLINE
  5
2c4
100
AcDbEntity
  8
Layer_1
 62
7
100
AcDbSpline
 70
8
 71
3
 72
8
 73
4
 74
0
 40
0
 40
0
 40
0
 40
0
 40
1
 40
1
 40
1
 40
1
 10
391.584880
 20
86.596700
 30
0.0
 10
393.295650
 20
86.596690
 30
0.0
 10
394.839180
 20
87.312730
 30
0.0
 10
395.932110
 20
88.461460
 30
0.0
  0
SPLINE
  5
2c5
100
AcDbEntity
  8
Layer_1
 62
7
100
AcDbSpline
 70
8
 71
3
 72
8
 73
4
 74
0
 40
0
 40
0
 40
0
 40
0
 40
1
 40
1
 40
1
 40
1
 10
395.932110
 20
88.461460
 30
0.0
 10
396.956110
 20
89.537720
 30
0.0
 10
397.584570
 20
90.993810
 30
0.0
 10
397.584450
 20
92.596670
 30
0.0
  0
LWPOLYLINE
  5
2c6
100
AcDbEntity
  8
Layer_1
 62
7
100
AcDbPolyline
 90
2
 70
0
 10
22.589594
 20
86.598700
 30
0.0
 10
391.584880
 20
86.596700
 30
0.0
  0
LWPOLYLINE
  5
2c7
100
AcDbEntity
  8
Layer_1
 62
7
100
AcDbPolyline
 90
2
 70
0
 10
397.584450
 20
92.596670
 30
0.0
 10
397.549550
 20
167.343500
 30
0.0
  0
LWPOLYLINE
  5
2c8
100
AcDbEntity
  8
Layer_1
 62
7
100
AcDbPolyline
 90
2
 70
0
 10
168.987590
 20
232.903038
 30
0.0
 10
58.103074
 20
208.937002
 30
0.0
  0
LWPOLYLINE
  5
2c9
100
AcDbEntity
  8
Layer_1
 62
7
100
AcDbPolyline
 90
2
 70
0
 10
245.187590
 20
232.903038
 30
0.0
 10
168.987590
 20
232.903038
 30
0.0
  0
SPLINE
  5
2ca
100
AcDbEntity
  8
Layer_1
 62
7
100
AcDbSpline
 70
8
 71
3
 72
8
 73
4
 74
0
 40
0
 40
0
 40
0
 40
0
 40
1
 40
1
 40
1
 40
1
 10
16.598441
 20
157.838830
 30
0.0
 10
16.597816
 20
157.942300
 30
0.0
 10
16.604741
 20
158.368240
 30
0.0
 10
16.604741
 20
158.471710
 30
0.0
  0
SPLINE
  5
2cb
100
AcDbEntity
  8
Layer_1
 62
7
100
AcDbSpline
 70
8
 71
3
 72
8
 73
4
 74
0
 40
0
 40
0
 40
0
 40
0
 40
1
 40
1
 40
1
 40
1
 10
16.604741
 20
158.471710
 30
0.0
 10
16.604741
 20
183.047370
 30
0.0
 10
33.990314
 20
204.189614
 30
0.0
 10
58.103074
 20
208.937002
 30
0.0
  0
LWPOLYLINE
  5
2cc
100
AcDbEntity
  8
Layer_1
 62
7
100
AcDbPolyline
 90
2
 70
0
 10
333.953290
 20
232.614196
 30
0.0
 10
244.412540
 20
232.866894
 30
0.0
  0
ENDSEC
  0
SECTION
  2
OBJECTS
  0
DICTIONARY
  5
C
330
0
100
AcDbDictionary
  3
ACAD_GROUP
350
D
  3
ACAD_MLINESTYLE
350
17
  0
DICTIONARY
  5
D
330
C
100
AcDbDictionary
  0
DICTIONARY
  5
1A
330
C
100
AcDbDictionary
  0
DICTIONARY
  5
17
330
C
100
AcDbDictionary
  3
STANDARD
350
18
  0
DICTIONARY
  5
19
330
C
100
AcDbDictionary
  0
ENDSEC
  0
EOF
