  0
SECTION
  2
HEADER
  9
$ACADVER
  1
AC1014
  9
$HANDSEED
  5
FFFF
  9
$INSUNITS
 70
     4
  9
$MEASUREMENT
 70
     1
  0
ENDSEC
  0
SECTION
  2
TABLES
  0
TABLE
  2
VPORT
  5
8
330
0
100
AcDbSymbolTable
 70
     4
  0
VPORT
  5
2E
330
8
100
AcDbSymbolTableRecord
100
AcDbViewportTableRecord
  2
*ACTIVE
 70
     0
 10
0.0
 20
0.0
 11
1.0
 21
1.0
 12
210.0
 22
148.5
 13
0.0
 23
0.0
 14
10.0
 24
10.0
 15
10.0
 25
10.0
 16
0.0
 26
0.0
 36
1.0
 17
0.0
 27
0.0
 37
0.0
 40
341.0
 41
1.24
 42
50.0
 43
0.0
 44
0.0
 50
0.0
 51
0.0
 71
     0
 72
   100
 73
     1
 74
     3
 75
     0
 76
     0
 77
     0
 78
     0
  0
ENDTAB
  0
TABLE
  2
LTYPE
  5
5
330
0
100
AcDbSymbolTable
 70
     1
  0
LTYPE
  5
14
330
5
100
AcDbSymbolTableRecord
100
AcDbLinetypeTableRecord
  2
BYBLOCK
 70
     0
  3

 72
    65
 73
     0
 40
0.0
  0
LTYPE
  5
15
330
5
100
AcDbSymbolTableRecord
100
AcDbLinetypeTableRecord
  2
BYLAYER
 70
     0
  3

 72
    65
 73
     0
 40
0.0
  0
LTYPE
  5
16
330
5
100
AcDbSymbolTableRecord
100
AcDbLinetypeTableRecord
  2
CONTINUOUS
 70
     0
  3
Solid line
 72
    65
 73
     0
 40
0.0
  0
ENDTAB
  0
TABLE
  2
LAYER
  5
2
100
AcDbSymbolTable
 70
2
  0
LAYER
  5
50
100
AcDbSymbolTableRecord
100
AcDbLayerTableRecord
  2
0
 70
0
  6
CONTINUOUS
  0
LAYER
  5
51
100
AcDbSymbolTableRecord
100
AcDbLayerTableRecord
  2
Layer_1
 70
0
  6
CONTINUOUS
  0
ENDTAB
  0
TABLE
  2
STYLE
  5
3
330
0
100
AcDbSymbolTable
 70
     1
  0
STYLE
  5
11
330
3
100
AcDbSymbolTableRecord
100
AcDbTextStyleTableRecord
  2
STANDARD
 70
     0
 40
0.0
 41
1.0
 50
0.0
 71
     0
 42
2.5
  3
txt
  4

  0
ENDTAB
  0
TABLE
  2
VIEW
  5
6
330
0
100
AcDbSymbolTable
 70
     0
  0
ENDTAB
  0
TABLE
  2
UCS
  5
7
330
0
100
AcDbSymbolTable
 70
     0
  0
ENDTAB
  0
TABLE
  2
APPID
  5
9
330
0
100
AcDbSymbolTable
 70
     2
  0
APPID
  5
12
330
9
100
AcDbSymbolTableRecord
100
AcDbRegAppTableRecord
  2
ACAD
 70
     0
  0
ENDTAB
  0
TABLE
  2
DIMSTYLE
  5
A
330
0
100
AcDbSymbolTable
 70
     1
  0
DIMSTYLE
105
27
330
A
100
AcDbSymbolTableRecord
100
AcDbDimStyleTableRecord
  2
ISO-25
 70
     0
  3

  4

  5

  6

  7

 40
1.0
 41
2.5
 42
0.625
 43
3.75
 44
1.25
 45
0.0
 46
0.0
 47
0.0
 48
0.0
140
2.5
141
2.5
142
0.0
143
0.03937007874016
144
1.0
145
0.0
146
1.0
147
0.625
 71
     0
 72
     0
 73
     0
 74
     0
 75
     0
 76
     0
 77
     1
 78
     8
170
     0
171
     3
172
     1
173
     0
174
     0
175
     0
176
     0
177
     0
178
     0
270
     2
271
     2
272
     2
273
     2
274
     3
340
11
275
     0
280
     0
281
     0
282
     0
283
     0
284
     8
285
     0
286
     0
287
     3
288
     0
  0
ENDTAB
  0
TABLE
  2
BLOCK_RECORD
  5
1
330
0
100
AcDbSymbolTable
 70
     1
  0
BLOCK_RECORD
  5
1F
330
1
100
AcDbSymbolTableRecord
100
AcDbBlockTableRecord
  2
*MODEL_SPACE
  0
BLOCK_RECORD
  5
1B
330
1
100
AcDbSymbolTableRecord
100
AcDbBlockTableRecord
  2
*PAPER_SPACE
  0
ENDTAB
  0
ENDSEC
  0
SECTION
  2
BLOCKS
  0
BLOCK
  5
20
330
1F
100
AcDbEntity
  8
0
100
AcDbBlockBegin
  2
*MODEL_SPACE
 70
     0
 10
0.0
 20
0.0
 30
0.0
  3
*MODEL_SPACE
  1

  0
ENDBLK
  5
21
330
1F
100
AcDbEntity
  8
0
100
AcDbBlockEnd
  0
BLOCK
  5
1C
330
1B
100
AcDbEntity
 67
     1
  8
0
100
AcDbBlockBegin
  2
*PAPER_SPACE
  1

  0
ENDBLK
  5
1D
330
1B
100
AcDbEntity
 67
     1
  8
0
100
AcDbBlockEnd
  0
ENDSEC
  0
SECTION
  2
ENTITIES
  0
SPLINE
  5
100
100
AcDbEntity
  8
Layer_1
 62
7
100
AcDbSpline
 70
8
 71
3
 72
8
 73
4
 74
0
 40
0
 40
0
 40
0
 40
0
 40
1
 40
1
 40
1
 40
1
 10
178.916100
 20
224.103502
 30
0.0
 10
178.106713
 20
224.103502
 30
0.0
 10
177.377023
 20
223.615940
 30
0.0
 10
177.067284
 20
222.868163
 30
0.0
  0
SPLINE
  5
101
100
AcDbEntity
  8
Layer_1
 62
7
100
AcDbSpline
 70
8
 71
3
 72
8
 73
4
 74
0
 40
0
 40
0
 40
0
 40
0
 40
1
 40
1
 40
1
 40
1
 10
177.067284
 20
222.868163
 30
0.0
 10
176.757545
 20
222.120387
 30
0.0
 10
176.928755
 20
221.259660
 30
0.0
 10
177.501078
 20
220.687337
 30
0.0
  0
SPLINE
  5
102
100
AcDbEntity
  8
Layer_1
 62
7
100
AcDbSpline
 70
8
 71
3
 72
8
 73
4
 74
0
 40
0
 40
0
 40
0
 40
0
 40
1
 40
1
 40
1
 40
1
 10
177.501078
 20
220.687337
 30
0.0
 10
178.073401
 20
220.115014
 30
0.0
 10
178.934128
 20
219.943804
 30
0.0
 10
179.681904
 20
220.253543
 30
0.0
  0
SPLINE
  5
103
100
AcDbEntity
  8
Layer_1
 62
7
100
AcDbSpline
 70
8
 71
3
 72
8
 73
4
 74
0
 40
0
 40
0
 40
0
 40
0
 40
1
 40
1
 40
1
 40
1
 10
179.681904
 20
220.253543
 30
0.0
 10
180.429681
 20
220.563282
 30
0.0
 10
180.917244
 20
221.292972
 30
0.0
 10
180.917244
 20
222.102359
 30
0.0
  0
SPLINE
  5
104
100
AcDbEntity
  8
Layer_1
 62
7
100
AcDbSpline
 70
8
 71
3
 72
8
 73
4
 74
0
 40
0
 40
0
 40
0
 40
0
 40
1
 40
1
 40
1
 40
1
 10
180.917244
 20
222.102359
 30
0.0
 10
180.917244
 20
222.633095
 30
0.0
 10
180.706409
 20
223.142094
 30
0.0
 10
180.331122
 20
223.517381
 30
0.0
  0
SPLINE
  5
105
100
AcDbEntity
  8
Layer_1
 62
7
100
AcDbSpline
 70
8
 71
3
 72
8
 73
4
 74
0
 40
0
 40
0
 40
0
 40
0
 40
1
 40
1
 40
1
 40
1
 10
180.331122
 20
223.517381
 30
0.0
 10
179.955835
 20
223.892668
 30
0.0
 10
179.446836
 20
224.103502
 30
0.0
 10
178.916100
 20
224.103502
 30
0.0
  0
SPLINE
  5
106
100
AcDbEntity
  8
Layer_1
 62
7
100
AcDbSpline
 70
8
 71
3
 72
8
 73
4
 74
0
 40
0
 40
0
 40
0
 40
0
 40
1
 40
1
 40
1
 40
1
 10
186.916100
 20
224.103502
 30
0.0
 10
185.810899
 20
224.103502
 30
0.0
 10
184.914957
 20
223.207560
 30
0.0
 10
184.914957
 20
222.102359
 30
0.0
  0
SPLINE
  5
107
100
AcDbEntity
  8
Layer_1
 62
7
100
AcDbSpline
 70
8
 71
3
 72
8
 73
4
 74
0
 40
0
 40
0
 40
0
 40
0
 40
1
 40
1
 40
1
 40
1
 10
184.914957
 20
222.102359
 30
0.0
 10
184.914957
 20
220.997158
 30
0.0
 10
185.810899
 20
220.101215
 30
0.0
 10
186.916100
 20
220.101215
 30
0.0
  0
SPLINE
  5
108
100
AcDbEntity
  8
Layer_1
 62
7
100
AcDbSpline
 70
8
 71
3
 72
8
 73
4
 74
0
 40
0
 40
0
 40
0
 40
0
 40
1
 40
1
 40
1
 40
1
 10
186.916100
 20
220.101215
 30
0.0
 10
188.021301
 20
220.101215
 30
0.0
 10
188.917244
 20
220.997158
 30
0.0
 10
188.917244
 20
222.102359
 30
0.0
  0
SPLINE
  5
109
100
AcDbEntity
  8
Layer_1
 62
7
100
AcDbSpline
 70
8
 71
3
 72
8
 73
4
 74
0
 40
0
 40
0
 40
0
 40
0
 40
1
 40
1
 40
1
 40
1
 10
188.917244
 20
222.102359
 30
0.0
 10
188.917244
 20
222.633095
 30
0.0
 10
188.706409
 20
223.142094
 30
0.0
 10
188.331122
 20
223.517381
 30
0.0
  0
SPLINE
  5
10a
100
AcDbEntity
  8
Layer_1
 62
7
100
AcDbSpline
 70
8
 71
3
 72
8
 73
4
 74
0
 40
0
 40
0
 40
0
 40
0
 40
1
 40
1
 40
1
 40
1
 10
188.331122
 20
223.517381
 30
0.0
 10
187.955835
 20
223.892668
 30
0.0
 10
187.446836
 20
224.103503
 30
0.0
 10
186.916100
 20
224.103502
 30
0.0
  0
LWPOLYLINE
  5
10b
100
AcDbEntity
  8
Layer_1
 62
7
100
AcDbPolyline
 90
1
 70
1
 10
178.916100
 20
224.103502
 30
0.0
  0
SPLINE
  5
10c
100
AcDbEntity
  8
Layer_1
 62
7
100
AcDbSpline
 70
8
 71
3
 72
8
 73
4
 74
0
 40
0
 40
0
 40
0
 40
0
 40
1
 40
1
 40
1
 40
1
 10
194.916100
 20
224.103502
 30
0.0
 10
194.106713
 20
224.103502
 30
0.0
 10
193.377023
 20
223.615940
 30
0.0
 10
193.067284
 20
222.868163
 30
0.0
  0
SPLINE
  5
10d
100
AcDbEntity
  8
Layer_1
 62
7
100
AcDbSpline
 70
8
 71
3
 72
8
 73
4
 74
0
 40
0
 40
0
 40
0
 40
0
 40
1
 40
1
 40
1
 40
1
 10
193.067284
 20
222.868163
 30
0.0
 10
192.757545
 20
222.120387
 30
0.0
 10
192.928755
 20
221.259660
 30
0.0
 10
193.501078
 20
220.687337
 30
0.0
  0
SPLINE
  5
10e
100
AcDbEntity
  8
Layer_1
 62
7
100
AcDbSpline
 70
8
 71
3
 72
8
 73
4
 74
0
 40
0
 40
0
 40
0
 40
0
 40
1
 40
1
 40
1
 40
1
 10
193.501078
 20
220.687337
 30
0.0
 10
194.073401
 20
220.115014
 30
0.0
 10
194.934128
 20
219.943804
 30
0.0
 10
195.681904
 20
220.253543
 30
0.0
  0
SPLINE
  5
10f
100
AcDbEntity
  8
Layer_1
 62
7
100
AcDbSpline
 70
8
 71
3
 72
8
 73
4
 74
0
 40
0
 40
0
 40
0
 40
0
 40
1
 40
1
 40
1
 40
1
 10
195.681904
 20
220.253543
 30
0.0
 10
196.429681
 20
220.563282
 30
0.0
 10
196.917244
 20
221.292972
 30
0.0
 10
196.917244
 20
222.102359
 30
0.0
  0
SPLINE
  5
110
100
AcDbEntity
  8
Layer_1
 62
7
100
AcDbSpline
 70
8
 71
3
 72
8
 73
4
 74
0
 40
0
 40
0
 40
0
 40
0
 40
1
 40
1
 40
1
 40
1
 10
196.917244
 20
222.102359
 30
0.0
 10
196.917244
 20
222.633095
 30
0.0
 10
196.706409
 20
223.142094
 30
0.0
 10
196.331122
 20
223.517381
 30
0.0
  0
SPLINE
  5
111
100
AcDbEntity
  8
Layer_1
 62
7
100
AcDbSpline
 70
8
 71
3
 72
8
 73
4
 74
0
 40
0
 40
0
 40
0
 40
0
 40
1
 40
1
 40
1
 40
1
 10
196.331122
 20
223.517381
 30
0.0
 10
195.955835
 20
223.892668
 30
0.0
 10
195.446836
 20
224.103502
 30
0.0
 10
194.916100
 20
224.103502
 30
0.0
  0
LWPOLYLINE
  5
112
100
AcDbEntity
  8
Layer_1
 62
7
100
AcDbPolyline
 90
1
 70
1
 10
186.916100
 20
224.103502
 30
0.0
  0
SPLINE
  5
113
100
AcDbEntity
  8
Layer_1
 62
7
100
AcDbSpline
 70
8
 71
3
 72
8
 73
4
 74
0
 40
0
 40
0
 40
0
 40
0
 40
1
 40
1
 40
1
 40
1
 10
202.916100
 20
224.103502
 30
0.0
 10
201.810899
 20
224.103502
 30
0.0
 10
200.914957
 20
223.207560
 30
0.0
 10
200.914957
 20
222.102359
 30
0.0
  0
SPLINE
  5
114
100
AcDbEntity
  8
Layer_1
 62
7
100
AcDbSpline
 70
8
 71
3
 72
8
 73
4
 74
0
 40
0
 40
0
 40
0
 40
0
 40
1
 40
1
 40
1
 40
1
 10
200.914957
 20
222.102359
 30
0.0
 10
200.914957
 20
220.997158
 30
0.0
 10
201.810899
 20
220.101215
 30
0.0
 10
202.916100
 20
220.101215
 30
0.0
  0
SPLINE
  5
115
100
AcDbEntity
  8
Layer_1
 62
7
100
AcDbSpline
 70
8
 71
3
 72
8
 73
4
 74
0
 40
0
 40
0
 40
0
 40
0
 40
1
 40
1
 40
1
 40
1
 10
202.916100
 20
220.101215
 30
0.0
 10
204.021301
 20
220.101215
 30
0.0
 10
204.917244
 20
220.997158
 30
0.0
 10
204.917244
 20
222.102359
 30
0.0
  0
SPLINE
  5
116
100
AcDbEntity
  8
Layer_1
 62
7
100
AcDbSpline
 70
8
 71
3
 72
8
 73
4
 74
0
 40
0
 40
0
 40
0
 40
0
 40
1
 40
1
 40
1
 40
1
 10
204.917244
 20
222.102359
 30
0.0
 10
204.917244
 20
222.633095
 30
0.0
 10
204.706409
 20
223.142094
 30
0.0
 10
204.331122
 20
223.517381
 30
0.0
  0
SPLINE
  5
117
100
AcDbEntity
  8
Layer_1
 62
7
100
AcDbSpline
 70
8
 71
3
 72
8
 73
4
 74
0
 40
0
 40
0
 40
0
 40
0
 40
1
 40
1
 40
1
 40
1
 10
204.331122
 20
223.517381
 30
0.0
 10
203.955835
 20
223.892668
 30
0.0
 10
203.446836
 20
224.103503
 30
0.0
 10
202.916100
 20
224.103502
 30
0.0
  0
LWPOLYLINE
  5
118
100
AcDbEntity
  8
Layer_1
 62
7
100
AcDbPolyline
 90
1
 70
1
 10
194.916100
 20
224.103502
 30
0.0
  0
SPLINE
  5
119
100
AcDbEntity
  8
Layer_1
 62
7
100
AcDbSpline
 70
8
 71
3
 72
8
 73
4
 74
0
 40
0
 40
0
 40
0
 40
0
 40
1
 40
1
 40
1
 40
1
 10
210.916100
 20
224.103502
 30
0.0
 10
210.106713
 20
224.103502
 30
0.0
 10
209.377023
 20
223.615940
 30
0.0
 10
209.067284
 20
222.868163
 30
0.0
  0
SPLINE
  5
11a
100
AcDbEntity
  8
Layer_1
 62
7
100
AcDbSpline
 70
8
 71
3
 72
8
 73
4
 74
0
 40
0
 40
0
 40
0
 40
0
 40
1
 40
1
 40
1
 40
1
 10
209.067284
 20
222.868163
 30
0.0
 10
208.757545
 20
222.120387
 30
0.0
 10
208.928755
 20
221.259660
 30
0.0
 10
209.501078
 20
220.687337
 30
0.0
  0
SPLINE
  5
11b
100
AcDbEntity
  8
Layer_1
 62
7
100
AcDbSpline
 70
8
 71
3
 72
8
 73
4
 74
0
 40
0
 40
0
 40
0
 40
0
 40
1
 40
1
 40
1
 40
1
 10
209.501078
 20
220.687337
 30
0.0
 10
210.073401
 20
220.115014
 30
0.0
 10
210.934128
 20
219.943804
 30
0.0
 10
211.681904
 20
220.253543
 30
0.0
  0
SPLINE
  5
11c
100
AcDbEntity
  8
Layer_1
 62
7
100
AcDbSpline
 70
8
 71
3
 72
8
 73
4
 74
0
 40
0
 40
0
 40
0
 40
0
 40
1
 40
1
 40
1
 40
1
 10
211.681904
 20
220.253543
 30
0.0
 10
212.429681
 20
220.563282
 30
0.0
 10
212.917244
 20
221.292972
 30
0.0
 10
212.917244
 20
222.102359
 30
0.0
  0
SPLINE
  5
11d
100
AcDbEntity
  8
Layer_1
 62
7
100
AcDbSpline
 70
8
 71
3
 72
8
 73
4
 74
0
 40
0
 40
0
 40
0
 40
0
 40
1
 40
1
 40
1
 40
1
 10
212.917244
 20
222.102359
 30
0.0
 10
212.917244
 20
222.633095
 30
0.0
 10
212.706409
 20
223.142094
 30
0.0
 10
212.331122
 20
223.517381
 30
0.0
  0
SPLINE
  5
11e
100
AcDbEntity
  8
Layer_1
 62
7
100
AcDbSpline
 70
8
 71
3
 72
8
 73
4
 74
0
 40
0
 40
0
 40
0
 40
0
 40
1
 40
1
 40
1
 40
1
 10
212.331122
 20
223.517381
 30
0.0
 10
211.955835
 20
223.892668
 30
0.0
 10
211.446836
 20
224.103502
 30
0.0
 10
210.916100
 20
224.103502
 30
0.0
  0
LWPOLYLINE
  5
11f
100
AcDbEntity
  8
Layer_1
 62
7
100
AcDbPolyline
 90
1
 70
1
 10
202.916100
 20
224.103502
 30
0.0
  0
SPLINE
  5
120
100
AcDbEntity
  8
Layer_1
 62
7
100
AcDbSpline
 70
8
 71
3
 72
8
 73
4
 74
0
 40
0
 40
0
 40
0
 40
0
 40
1
 40
1
 40
1
 40
1
 10
218.916100
 20
224.103502
 30
0.0
 10
217.810899
 20
224.103502
 30
0.0
 10
216.914957
 20
223.207560
 30
0.0
 10
216.914957
 20
222.102359
 30
0.0
  0
SPLINE
  5
121
100
AcDbEntity
  8
Layer_1
 62
7
100
AcDbSpline
 70
8
 71
3
 72
8
 73
4
 74
0
 40
0
 40
0
 40
0
 40
0
 40
1
 40
1
 40
1
 40
1
 10
216.914957
 20
222.102359
 30
0.0
 10
216.914957
 20
220.997158
 30
0.0
 10
217.810899
 20
220.101215
 30
0.0
 10
218.916100
 20
220.101215
 30
0.0
  0
SPLINE
  5
122
100
AcDbEntity
  8
Layer_1
 62
7
100
AcDbSpline
 70
8
 71
3
 72
8
 73
4
 74
0
 40
0
 40
0
 40
0
 40
0
 40
1
 40
1
 40
1
 40
1
 10
218.916100
 20
220.101215
 30
0.0
 10
220.021301
 20
220.101215
 30
0.0
 10
220.917244
 20
220.997158
 30
0.0
 10
220.917244
 20
222.102359
 30
0.0
  0
SPLINE
  5
123
100
AcDbEntity
  8
Layer_1
 62
7
100
AcDbSpline
 70
8
 71
3
 72
8
 73
4
 74
0
 40
0
 40
0
 40
0
 40
0
 40
1
 40
1
 40
1
 40
1
 10
220.917244
 20
222.102359
 30
0.0
 10
220.917244
 20
222.633095
 30
0.0
 10
220.706409
 20
223.142094
 30
0.0
 10
220.331122
 20
223.517381
 30
0.0
  0
SPLINE
  5
124
100
AcDbEntity
  8
Layer_1
 62
7
100
AcDbSpline
 70
8
 71
3
 72
8
 73
4
 74
0
 40
0
 40
0
 40
0
 40
0
 40
1
 40
1
 40
1
 40
1
 10
220.331122
 20
223.517381
 30
0.0
 10
219.955835
 20
223.892668
 30
0.0
 10
219.446836
 20
224.103503
 30
0.0
 10
218.916100
 20
224.103502
 30
0.0
  0
LWPOLYLINE
  5
125
100
AcDbEntity
  8
Layer_1
 62
7
100
AcDbPolyline
 90
1
 70
1
 10
210.916100
 20
224.103502
 30
0.0
  0
SPLINE
  5
126
100
AcDbEntity
  8
Layer_1
 62
7
100
AcDbSpline
 70
8
 71
3
 72
8
 73
4
 74
0
 40
0
 40
0
 40
0
 40
0
 40
1
 40
1
 40
1
 40
1
 10
226.916100
 20
224.103502
 30
0.0
 10
226.106713
 20
224.103502
 30
0.0
 10
225.377023
 20
223.615940
 30
0.0
 10
225.067284
 20
222.868163
 30
0.0
  0
SPLINE
  5
127
100
AcDbEntity
  8
Layer_1
 62
7
100
AcDbSpline
 70
8
 71
3
 72
8
 73
4
 74
0
 40
0
 40
0
 40
0
 40
0
 40
1
 40
1
 40
1
 40
1
 10
225.067284
 20
222.868163
 30
0.0
 10
224.757545
 20
222.120387
 30
0.0
 10
224.928755
 20
221.259660
 30
0.0
 10
225.501078
 20
220.687337
 30
0.0
  0
SPLINE
  5
128
100
AcDbEntity
  8
Layer_1
 62
7
100
AcDbSpline
 70
8
 71
3
 72
8
 73
4
 74
0
 40
0
 40
0
 40
0
 40
0
 40
1
 40
1
 40
1
 40
1
 10
225.501078
 20
220.687337
 30
0.0
 10
226.073401
 20
220.115014
 30
0.0
 10
226.934128
 20
219.943804
 30
0.0
 10
227.681904
 20
220.253543
 30
0.0
  0
SPLINE
  5
129
100
AcDbEntity
  8
Layer_1
 62
7
100
AcDbSpline
 70
8
 71
3
 72
8
 73
4
 74
0
 40
0
 40
0
 40
0
 40
0
 40
1
 40
1
 40
1
 40
1
 10
227.681904
 20
220.253543
 30
0.0
 10
228.429681
 20
220.563282
 30
0.0
 10
228.917244
 20
221.292972
 30
0.0
 10
228.917244
 20
222.102359
 30
0.0
  0
SPLINE
  5
12a
100
AcDbEntity
  8
Layer_1
 62
7
100
AcDbSpline
 70
8
 71
3
 72
8
 73
4
 74
0
 40
0
 40
0
 40
0
 40
0
 40
1
 40
1
 40
1
 40
1
 10
228.917244
 20
222.102359
 30
0.0
 10
228.917244
 20
222.633095
 30
0.0
 10
228.706409
 20
223.142094
 30
0.0
 10
228.331122
 20
223.517381
 30
0.0
  0
SPLINE
  5
12b
100
AcDbEntity
  8
Layer_1
 62
7
100
AcDbSpline
 70
8
 71
3
 72
8
 73
4
 74
0
 40
0
 40
0
 40
0
 40
0
 40
1
 40
1
 40
1
 40
1
 10
228.331122
 20
223.517381
 30
0.0
 10
227.955835
 20
223.892668
 30
0.0
 10
227.446836
 20
224.103502
 30
0.0
 10
226.916100
 20
224.103502
 30
0.0
  0
LWPOLYLINE
  5
12c
100
AcDbEntity
  8
Layer_1
 62
7
100
AcDbPolyline
 90
1
 70
1
 10
218.916100
 20
224.103502
 30
0.0
  0
SPLINE
  5
12d
100
AcDbEntity
  8
Layer_1
 62
7
100
AcDbSpline
 70
8
 71
3
 72
8
 73
4
 74
0
 40
0
 40
0
 40
0
 40
0
 40
1
 40
1
 40
1
 40
1
 10
234.916100
 20
224.103502
 30
0.0
 10
233.810899
 20
224.103502
 30
0.0
 10
232.914957
 20
223.207560
 30
0.0
 10
232.914957
 20
222.102359
 30
0.0
  0
SPLINE
  5
12e
100
AcDbEntity
  8
Layer_1
 62
7
100
AcDbSpline
 70
8
 71
3
 72
8
 73
4
 74
0
 40
0
 40
0
 40
0
 40
0
 40
1
 40
1
 40
1
 40
1
 10
232.914957
 20
222.102359
 30
0.0
 10
232.914957
 20
220.997158
 30
0.0
 10
233.810899
 20
220.101215
 30
0.0
 10
234.916100
 20
220.101215
 30
0.0
  0
SPLINE
  5
12f
100
AcDbEntity
  8
Layer_1
 62
7
100
AcDbSpline
 70
8
 71
3
 72
8
 73
4
 74
0
 40
0
 40
0
 40
0
 40
0
 40
1
 40
1
 40
1
 40
1
 10
234.916100
 20
220.101215
 30
0.0
 10
236.021301
 20
220.101215
 30
0.0
 10
236.917244
 20
220.997158
 30
0.0
 10
236.917244
 20
222.102359
 30
0.0
  0
SPLINE
  5
130
100
AcDbEntity
  8
Layer_1
 62
7
100
AcDbSpline
 70
8
 71
3
 72
8
 73
4
 74
0
 40
0
 40
0
 40
0
 40
0
 40
1
 40
1
 40
1
 40
1
 10
236.917244
 20
222.102359
 30
0.0
 10
236.917244
 20
222.633095
 30
0.0
 10
236.706409
 20
223.142094
 30
0.0
 10
236.331122
 20
223.517381
 30
0.0
  0
SPLINE
  5
131
100
AcDbEntity
  8
Layer_1
 62
7
100
AcDbSpline
 70
8
 71
3
 72
8
 73
4
 74
0
 40
0
 40
0
 40
0
 40
0
 40
1
 40
1
 40
1
 40
1
 10
236.331122
 20
223.517381
 30
0.0
 10
235.955835
 20
223.892668
 30
0.0
 10
235.446836
 20
224.103503
 30
0.0
 10
234.916100
 20
224.103502
 30
0.0
  0
LWPOLYLINE
  5
132
100
AcDbEntity
  8
Layer_1
 62
7
100
AcDbPolyline
 90
1
 70
1
 10
226.916100
 20
224.103502
 30
0.0
  0
SPLINE
  5
133
100
AcDbEntity
  8
Layer_1
 62
7
100
AcDbSpline
 70
8
 71
3
 72
8
 73
4
 74
0
 40
0
 40
0
 40
0
 40
0
 40
1
 40
1
 40
1
 40
1
 10
242.916100
 20
224.103502
 30
0.0
 10
242.106713
 20
224.103502
 30
0.0
 10
241.377023
 20
223.615940
 30
0.0
 10
241.067284
 20
222.868163
 30
0.0
  0
SPLINE
  5
134
100
AcDbEntity
  8
Layer_1
 62
7
100
AcDbSpline
 70
8
 71
3
 72
8
 73
4
 74
0
 40
0
 40
0
 40
0
 40
0
 40
1
 40
1
 40
1
 40
1
 10
241.067284
 20
222.868163
 30
0.0
 10
240.757545
 20
222.120387
 30
0.0
 10
240.928755
 20
221.259660
 30
0.0
 10
241.501078
 20
220.687337
 30
0.0
  0
SPLINE
  5
135
100
AcDbEntity
  8
Layer_1
 62
7
100
AcDbSpline
 70
8
 71
3
 72
8
 73
4
 74
0
 40
0
 40
0
 40
0
 40
0
 40
1
 40
1
 40
1
 40
1
 10
241.501078
 20
220.687337
 30
0.0
 10
242.073401
 20
220.115014
 30
0.0
 10
242.934128
 20
219.943804
 30
0.0
 10
243.681904
 20
220.253543
 30
0.0
  0
SPLINE
  5
136
100
AcDbEntity
  8
Layer_1
 62
7
100
AcDbSpline
 70
8
 71
3
 72
8
 73
4
 74
0
 40
0
 40
0
 40
0
 40
0
 40
1
 40
1
 40
1
 40
1
 10
243.681904
 20
220.253543
 30
0.0
 10
244.429681
 20
220.563282
 30
0.0
 10
244.917244
 20
221.292972
 30
0.0
 10
244.917244
 20
222.102359
 30
0.0
  0
SPLINE
  5
137
100
AcDbEntity
  8
Layer_1
 62
7
100
AcDbSpline
 70
8
 71
3
 72
8
 73
4
 74
0
 40
0
 40
0
 40
0
 40
0
 40
1
 40
1
 40
1
 40
1
 10
244.917244
 20
222.102359
 30
0.0
 10
244.917244
 20
222.633095
 30
0.0
 10
244.706409
 20
223.142094
 30
0.0
 10
244.331122
 20
223.517381
 30
0.0
  0
SPLINE
  5
138
100
AcDbEntity
  8
Layer_1
 62
7
100
AcDbSpline
 70
8
 71
3
 72
8
 73
4
 74
0
 40
0
 40
0
 40
0
 40
0
 40
1
 40
1
 40
1
 40
1
 10
244.331122
 20
223.517381
 30
0.0
 10
243.955835
 20
223.892668
 30
0.0
 10
243.446836
 20
224.103502
 30
0.0
 10
242.916100
 20
224.103502
 30
0.0
  0
LWPOLYLINE
  5
139
100
AcDbEntity
  8
Layer_1
 62
7
100
AcDbPolyline
 90
1
 70
1
 10
234.916100
 20
224.103502
 30
0.0
  0
SPLINE
  5
13a
100
AcDbEntity
  8
Layer_1
 62
7
100
AcDbSpline
 70
8
 71
3
 72
8
 73
4
 74
0
 40
0
 40
0
 40
0
 40
0
 40
1
 40
1
 40
1
 40
1
 10
238.877010
 20
179.782103
 30
0.0
 10
237.771809
 20
179.782102
 30
0.0
 10
236.875867
 20
178.886160
 30
0.0
 10
236.875867
 20
177.780959
 30
0.0
  0
SPLINE
  5
13b
100
AcDbEntity
  8
Layer_1
 62
7
100
AcDbSpline
 70
8
 71
3
 72
8
 73
4
 74
0
 40
0
 40
0
 40
0
 40
0
 40
1
 40
1
 40
1
 40
1
 10
236.875867
 20
177.780959
 30
0.0
 10
236.875867
 20
176.675758
 30
0.0
 10
237.771809
 20
175.779815
 30
0.0
 10
238.877010
 20
175.779815
 30
0.0
  0
SPLINE
  5
13c
100
AcDbEntity
  8
Layer_1
 62
7
100
AcDbSpline
 70
8
 71
3
 72
8
 73
4
 74
0
 40
0
 40
0
 40
0
 40
0
 40
1
 40
1
 40
1
 40
1
 10
238.877010
 20
175.779815
 30
0.0
 10
239.982211
 20
175.779815
 30
0.0
 10
240.878154
 20
176.675758
 30
0.0
 10
240.878154
 20
177.780959
 30
0.0
  0
SPLINE
  5
13d
100
AcDbEntity
  8
Layer_1
 62
7
100
AcDbSpline
 70
8
 71
3
 72
8
 73
4
 74
0
 40
0
 40
0
 40
0
 40
0
 40
1
 40
1
 40
1
 40
1
 10
240.878154
 20
177.780959
 30
0.0
 10
240.878154
 20
178.311695
 30
0.0
 10
240.667319
 20
178.820694
 30
0.0
 10
240.292032
 20
179.195981
 30
0.0
  0
SPLINE
  5
13e
100
AcDbEntity
  8
Layer_1
 62
7
100
AcDbSpline
 70
8
 71
3
 72
8
 73
4
 74
0
 40
0
 40
0
 40
0
 40
0
 40
1
 40
1
 40
1
 40
1
 10
240.292032
 20
179.195981
 30
0.0
 10
239.916745
 20
179.571268
 30
0.0
 10
239.407746
 20
179.782103
 30
0.0
 10
238.877010
 20
179.782103
 30
0.0
  0
LWPOLYLINE
  5
13f
100
AcDbEntity
  8
Layer_1
 62
7
100
AcDbPolyline
 90
1
 70
1
 10
242.916100
 20
224.103502
 30
0.0
  0
SPLINE
  5
140
100
AcDbEntity
  8
Layer_1
 62
7
100
AcDbSpline
 70
8
 71
3
 72
8
 73
4
 74
0
 40
0
 40
0
 40
0
 40
0
 40
1
 40
1
 40
1
 40
1
 10
246.877010
 20
179.782103
 30
0.0
 10
246.067623
 20
179.782103
 30
0.0
 10
245.337933
 20
179.294540
 30
0.0
 10
245.028194
 20
178.546763
 30
0.0
  0
SPLINE
  5
141
100
AcDbEntity
  8
Layer_1
 62
7
100
AcDbSpline
 70
8
 71
3
 72
8
 73
4
 74
0
 40
0
 40
0
 40
0
 40
0
 40
1
 40
1
 40
1
 40
1
 10
245.028194
 20
178.546763
 30
0.0
 10
244.718455
 20
177.798987
 30
0.0
 10
244.889665
 20
176.938260
 30
0.0
 10
245.461988
 20
176.365937
 30
0.0
  0
SPLINE
  5
142
100
AcDbEntity
  8
Layer_1
 62
7
100
AcDbSpline
 70
8
 71
3
 72
8
 73
4
 74
0
 40
0
 40
0
 40
0
 40
0
 40
1
 40
1
 40
1
 40
1
 10
245.461988
 20
176.365937
 30
0.0
 10
246.034311
 20
175.793614
 30
0.0
 10
246.895038
 20
175.622404
 30
0.0
 10
247.642814
 20
175.932143
 30
0.0
  0
SPLINE
  5
143
100
AcDbEntity
  8
Layer_1
 62
7
100
AcDbSpline
 70
8
 71
3
 72
8
 73
4
 74
0
 40
0
 40
0
 40
0
 40
0
 40
1
 40
1
 40
1
 40
1
 10
247.642814
 20
175.932143
 30
0.0
 10
248.390591
 20
176.241882
 30
0.0
 10
248.878153
 20
176.971572
 30
0.0
 10
248.878153
 20
177.780959
 30
0.0
  0
SPLINE
  5
144
100
AcDbEntity
  8
Layer_1
 62
7
100
AcDbSpline
 70
8
 71
3
 72
8
 73
4
 74
0
 40
0
 40
0
 40
0
 40
0
 40
1
 40
1
 40
1
 40
1
 10
248.878153
 20
177.780959
 30
0.0
 10
248.878153
 20
178.311695
 30
0.0
 10
248.667319
 20
178.820694
 30
0.0
 10
248.292032
 20
179.195981
 30
0.0
  0
SPLINE
  5
145
100
AcDbEntity
  8
Layer_1
 62
7
100
AcDbSpline
 70
8
 71
3
 72
8
 73
4
 74
0
 40
0
 40
0
 40
0
 40
0
 40
1
 40
1
 40
1
 40
1
 10
248.292032
 20
179.195981
 30
0.0
 10
247.916745
 20
179.571268
 30
0.0
 10
247.407746
 20
179.782103
 30
0.0
 10
246.877010
 20
179.782103
 30
0.0
  0
LWPOLYLINE
  5
146
100
AcDbEntity
  8
Layer_1
 62
7
100
AcDbPolyline
 90
1
 70
1
 10
238.877010
 20
179.782103
 30
0.0
  0
SPLINE
  5
147
100
AcDbEntity
  8
Layer_1
 62
7
100
AcDbSpline
 70
8
 71
3
 72
8
 73
4
 74
0
 40
0
 40
0
 40
0
 40
0
 40
1
 40
1
 40
1
 40
1
 10
254.877010
 20
179.782103
 30
0.0
 10
253.771809
 20
179.782102
 30
0.0
 10
252.875867
 20
178.886160
 30
0.0
 10
252.875867
 20
177.780959
 30
0.0
  0
SPLINE
  5
148
100
AcDbEntity
  8
Layer_1
 62
7
100
AcDbSpline
 70
8
 71
3
 72
8
 73
4
 74
0
 40
0
 40
0
 40
0
 40
0
 40
1
 40
1
 40
1
 40
1
 10
252.875867
 20
177.780959
 30
0.0
 10
252.875867
 20
176.675758
 30
0.0
 10
253.771809
 20
175.779815
 30
0.0
 10
254.877010
 20
175.779815
 30
0.0
  0
SPLINE
  5
149
100
AcDbEntity
  8
Layer_1
 62
7
100
AcDbSpline
 70
8
 71
3
 72
8
 73
4
 74
0
 40
0
 40
0
 40
0
 40
0
 40
1
 40
1
 40
1
 40
1
 10
254.877010
 20
175.779815
 30
0.0
 10
255.982211
 20
175.779816
 30
0.0
 10
256.878154
 20
176.675758
 30
0.0
 10
256.878154
 20
177.780959
 30
0.0
  0
SPLINE
  5
14a
100
AcDbEntity
  8
Layer_1
 62
7
100
AcDbSpline
 70
8
 71
3
 72
8
 73
4
 74
0
 40
0
 40
0
 40
0
 40
0
 40
1
 40
1
 40
1
 40
1
 10
256.878154
 20
177.780959
 30
0.0
 10
256.878154
 20
178.311695
 30
0.0
 10
256.667319
 20
178.820694
 30
0.0
 10
256.292032
 20
179.195981
 30
0.0
  0
SPLINE
  5
14b
100
AcDbEntity
  8
Layer_1
 62
7
100
AcDbSpline
 70
8
 71
3
 72
8
 73
4
 74
0
 40
0
 40
0
 40
0
 40
0
 40
1
 40
1
 40
1
 40
1
 10
256.292032
 20
179.195981
 30
0.0
 10
255.916745
 20
179.571268
 30
0.0
 10
255.407746
 20
179.782103
 30
0.0
 10
254.877010
 20
179.782103
 30
0.0
  0
LWPOLYLINE
  5
14c
100
AcDbEntity
  8
Layer_1
 62
7
100
AcDbPolyline
 90
1
 70
1
 10
246.877010
 20
179.782103
 30
0.0
  0
SPLINE
  5
14d
100
AcDbEntity
  8
Layer_1
 62
7
100
AcDbSpline
 70
8
 71
3
 72
8
 73
4
 74
0
 40
0
 40
0
 40
0
 40
0
 40
1
 40
1
 40
1
 40
1
 10
262.877010
 20
179.782103
 30
0.0
 10
262.067623
 20
179.782103
 30
0.0
 10
261.337933
 20
179.294540
 30
0.0
 10
261.028194
 20
178.546763
 30
0.0
  0
SPLINE
  5
14e
100
AcDbEntity
  8
Layer_1
 62
7
100
AcDbSpline
 70
8
 71
3
 72
8
 73
4
 74
0
 40
0
 40
0
 40
0
 40
0
 40
1
 40
1
 40
1
 40
1
 10
261.028194
 20
178.546763
 30
0.0
 10
260.718455
 20
177.798987
 30
0.0
 10
260.889665
 20
176.938260
 30
0.0
 10
261.461988
 20
176.365937
 30
0.0
  0
SPLINE
  5
14f
100
AcDbEntity
  8
Layer_1
 62
7
100
AcDbSpline
 70
8
 71
3
 72
8
 73
4
 74
0
 40
0
 40
0
 40
0
 40
0
 40
1
 40
1
 40
1
 40
1
 10
261.461988
 20
176.365937
 30
0.0
 10
262.034311
 20
175.793614
 30
0.0
 10
262.895038
 20
175.622404
 30
0.0
 10
263.642814
 20
175.932143
 30
0.0
  0
SPLINE
  5
150
100
AcDbEntity
  8
Layer_1
 62
7
100
AcDbSpline
 70
8
 71
3
 72
8
 73
4
 74
0
 40
0
 40
0
 40
0
 40
0
 40
1
 40
1
 40
1
 40
1
 10
263.642814
 20
175.932143
 30
0.0
 10
264.390591
 20
176.241882
 30
0.0
 10
264.878153
 20
176.971572
 30
0.0
 10
264.878153
 20
177.780959
 30
0.0
  0
SPLINE
  5
151
100
AcDbEntity
  8
Layer_1
 62
7
100
AcDbSpline
 70
8
 71
3
 72
8
 73
4
 74
0
 40
0
 40
0
 40
0
 40
0
 40
1
 40
1
 40
1
 40
1
 10
264.878153
 20
177.780959
 30
0.0
 10
264.878153
 20
178.311695
 30
0.0
 10
264.667319
 20
178.820694
 30
0.0
 10
264.292032
 20
179.195981
 30
0.0
  0
SPLINE
  5
152
100
AcDbEntity
  8
Layer_1
 62
7
100
AcDbSpline
 70
8
 71
3
 72
8
 73
4
 74
0
 40
0
 40
0
 40
0
 40
0
 40
1
 40
1
 40
1
 40
1
 10
264.292032
 20
179.195981
 30
0.0
 10
263.916745
 20
179.571268
 30
0.0
 10
263.407746
 20
179.782103
 30
0.0
 10
262.877010
 20
179.782103
 30
0.0
  0
LWPOLYLINE
  5
153
100
AcDbEntity
  8
Layer_1
 62
7
100
AcDbPolyline
 90
1
 70
1
 10
254.877010
 20
179.782103
 30
0.0
  0
SPLINE
  5
154
100
AcDbEntity
  8
Layer_1
 62
7
100
AcDbSpline
 70
8
 71
3
 72
8
 73
4
 74
0
 40
0
 40
0
 40
0
 40
0
 40
1
 40
1
 40
1
 40
1
 10
270.877010
 20
179.782103
 30
0.0
 10
269.771809
 20
179.782102
 30
0.0
 10
268.875867
 20
178.886160
 30
0.0
 10
268.875867
 20
177.780959
 30
0.0
  0
SPLINE
  5
155
100
AcDbEntity
  8
Layer_1
 62
7
100
AcDbSpline
 70
8
 71
3
 72
8
 73
4
 74
0
 40
0
 40
0
 40
0
 40
0
 40
1
 40
1
 40
1
 40
1
 10
268.875867
 20
177.780959
 30
0.0
 10
268.875867
 20
176.675758
 30
0.0
 10
269.771809
 20
175.779815
 30
0.0
 10
270.877010
 20
175.779815
 30
0.0
  0
SPLINE
  5
156
100
AcDbEntity
  8
Layer_1
 62
7
100
AcDbSpline
 70
8
 71
3
 72
8
 73
4
 74
0
 40
0
 40
0
 40
0
 40
0
 40
1
 40
1
 40
1
 40
1
 10
270.877010
 20
175.779815
 30
0.0
 10
271.982211
 20
175.779815
 30
0.0
 10
272.878154
 20
176.675758
 30
0.0
 10
272.878154
 20
177.780959
 30
0.0
  0
SPLINE
  5
157
100
AcDbEntity
  8
Layer_1
 62
7
100
AcDbSpline
 70
8
 71
3
 72
8
 73
4
 74
0
 40
0
 40
0
 40
0
 40
0
 40
1
 40
1
 40
1
 40
1
 10
272.878154
 20
177.780959
 30
0.0
 10
272.878154
 20
178.311695
 30
0.0
 10
272.667319
 20
178.820694
 30
0.0
 10
272.292032
 20
179.195981
 30
0.0
  0
SPLINE
  5
158
100
AcDbEntity
  8
Layer_1
 62
7
100
AcDbSpline
 70
8
 71
3
 72
8
 73
4
 74
0
 40
0
 40
0
 40
0
 40
0
 40
1
 40
1
 40
1
 40
1
 10
272.292032
 20
179.195981
 30
0.0
 10
271.916745
 20
179.571268
 30
0.0
 10
271.407746
 20
179.782103
 30
0.0
 10
270.877010
 20
179.782103
 30
0.0
  0
LWPOLYLINE
  5
159
100
AcDbEntity
  8
Layer_1
 62
7
100
AcDbPolyline
 90
1
 70
1
 10
262.877010
 20
179.782103
 30
0.0
  0
SPLINE
  5
15a
100
AcDbEntity
  8
Layer_1
 62
7
100
AcDbSpline
 70
8
 71
3
 72
8
 73
4
 74
0
 40
0
 40
0
 40
0
 40
0
 40
1
 40
1
 40
1
 40
1
 10
278.877010
 20
179.782103
 30
0.0
 10
278.067623
 20
179.782103
 30
0.0
 10
277.337933
 20
179.294540
 30
0.0
 10
277.028194
 20
178.546763
 30
0.0
  0
SPLINE
  5
15b
100
AcDbEntity
  8
Layer_1
 62
7
100
AcDbSpline
 70
8
 71
3
 72
8
 73
4
 74
0
 40
0
 40
0
 40
0
 40
0
 40
1
 40
1
 40
1
 40
1
 10
277.028194
 20
178.546763
 30
0.0
 10
276.718455
 20
177.798987
 30
0.0
 10
276.889665
 20
176.938260
 30
0.0
 10
277.461988
 20
176.365937
 30
0.0
  0
SPLINE
  5
15c
100
AcDbEntity
  8
Layer_1
 62
7
100
AcDbSpline
 70
8
 71
3
 72
8
 73
4
 74
0
 40
0
 40
0
 40
0
 40
0
 40
1
 40
1
 40
1
 40
1
 10
277.461988
 20
176.365937
 30
0.0
 10
278.034311
 20
175.793614
 30
0.0
 10
278.895038
 20
175.622404
 30
0.0
 10
279.642814
 20
175.932143
 30
0.0
  0
SPLINE
  5
15d
100
AcDbEntity
  8
Layer_1
 62
7
100
AcDbSpline
 70
8
 71
3
 72
8
 73
4
 74
0
 40
0
 40
0
 40
0
 40
0
 40
1
 40
1
 40
1
 40
1
 10
279.642814
 20
175.932143
 30
0.0
 10
280.390591
 20
176.241882
 30
0.0
 10
280.878153
 20
176.971572
 30
0.0
 10
280.878153
 20
177.780959
 30
0.0
  0
SPLINE
  5
15e
100
AcDbEntity
  8
Layer_1
 62
7
100
AcDbSpline
 70
8
 71
3
 72
8
 73
4
 74
0
 40
0
 40
0
 40
0
 40
0
 40
1
 40
1
 40
1
 40
1
 10
280.878153
 20
177.780959
 30
0.0
 10
280.878153
 20
178.311695
 30
0.0
 10
280.667319
 20
178.820694
 30
0.0
 10
280.292032
 20
179.195981
 30
0.0
  0
SPLINE
  5
15f
100
AcDbEntity
  8
Layer_1
 62
7
100
AcDbSpline
 70
8
 71
3
 72
8
 73
4
 74
0
 40
0
 40
0
 40
0
 40
0
 40
1
 40
1
 40
1
 40
1
 10
280.292032
 20
179.195981
 30
0.0
 10
279.916745
 20
179.571268
 30
0.0
 10
279.407746
 20
179.782103
 30
0.0
 10
278.877010
 20
179.782103
 30
0.0
  0
LWPOLYLINE
  5
160
100
AcDbEntity
  8
Layer_1
 62
7
100
AcDbPolyline
 90
1
 70
1
 10
270.877010
 20
179.782103
 30
0.0
  0
SPLINE
  5
161
100
AcDbEntity
  8
Layer_1
 62
7
100
AcDbSpline
 70
8
 71
3
 72
8
 73
4
 74
0
 40
0
 40
0
 40
0
 40
0
 40
1
 40
1
 40
1
 40
1
 10
42.953340
 20
170.881353
 30
0.0
 10
42.143953
 20
170.881353
 30
0.0
 10
41.414263
 20
170.393791
 30
0.0
 10
41.104524
 20
169.646014
 30
0.0
  0
SPLINE
  5
162
100
AcDbEntity
  8
Layer_1
 62
7
100
AcDbSpline
 70
8
 71
3
 72
8
 73
4
 74
0
 40
0
 40
0
 40
0
 40
0
 40
1
 40
1
 40
1
 40
1
 10
41.104524
 20
169.646014
 30
0.0
 10
40.794785
 20
168.898238
 30
0.0
 10
40.965995
 20
168.037511
 30
0.0
 10
41.538318
 20
167.465188
 30
0.0
  0
SPLINE
  5
163
100
AcDbEntity
  8
Layer_1
 62
7
100
AcDbSpline
 70
8
 71
3
 72
8
 73
4
 74
0
 40
0
 40
0
 40
0
 40
0
 40
1
 40
1
 40
1
 40
1
 10
41.538318
 20
167.465188
 30
0.0
 10
42.110641
 20
166.892865
 30
0.0
 10
42.971368
 20
166.721655
 30
0.0
 10
43.719144
 20
167.031394
 30
0.0
  0
SPLINE
  5
164
100
AcDbEntity
  8
Layer_1
 62
7
100
AcDbSpline
 70
8
 71
3
 72
8
 73
4
 74
0
 40
0
 40
0
 40
0
 40
0
 40
1
 40
1
 40
1
 40
1
 10
43.719144
 20
167.031394
 30
0.0
 10
44.466921
 20
167.341133
 30
0.0
 10
44.954484
 20
168.070823
 30
0.0
 10
44.954484
 20
168.880210
 30
0.0
  0
SPLINE
  5
165
100
AcDbEntity
  8
Layer_1
 62
7
100
AcDbSpline
 70
8
 71
3
 72
8
 73
4
 74
0
 40
0
 40
0
 40
0
 40
0
 40
1
 40
1
 40
1
 40
1
 10
44.954484
 20
168.880210
 30
0.0
 10
44.954484
 20
169.410946
 30
0.0
 10
44.743649
 20
169.919945
 30
0.0
 10
44.368362
 20
170.295232
 30
0.0
  0
SPLINE
  5
166
100
AcDbEntity
  8
Layer_1
 62
7
100
AcDbSpline
 70
8
 71
3
 72
8
 73
4
 74
0
 40
0
 40
0
 40
0
 40
0
 40
1
 40
1
 40
1
 40
1
 10
44.368362
 20
170.295232
 30
0.0
 10
43.993075
 20
170.670519
 30
0.0
 10
43.484076
 20
170.881353
 30
0.0
 10
42.953340
 20
170.881353
 30
0.0
  0
LWPOLYLINE
  5
167
100
AcDbEntity
  8
Layer_1
 62
7
100
AcDbPolyline
 90
1
 70
1
 10
278.877010
 20
179.782103
 30
0.0
  0
SPLINE
  5
168
100
AcDbEntity
  8
Layer_1
 62
7
100
AcDbSpline
 70
8
 71
3
 72
8
 73
4
 74
0
 40
0
 40
0
 40
0
 40
0
 40
1
 40
1
 40
1
 40
1
 10
66.953336
 20
170.881353
 30
0.0
 10
66.143949
 20
170.881353
 30
0.0
 10
65.414259
 20
170.393791
 30
0.0
 10
65.104520
 20
169.646014
 30
0.0
  0
SPLINE
  5
169
100
AcDbEntity
  8
Layer_1
 62
7
100
AcDbSpline
 70
8
 71
3
 72
8
 73
4
 74
0
 40
0
 40
0
 40
0
 40
0
 40
1
 40
1
 40
1
 40
1
 10
65.104520
 20
169.646014
 30
0.0
 10
64.794781
 20
168.898238
 30
0.0
 10
64.965991
 20
168.037511
 30
0.0
 10
65.538314
 20
167.465188
 30
0.0
  0
SPLINE
  5
16a
100
AcDbEntity
  8
Layer_1
 62
7
100
AcDbSpline
 70
8
 71
3
 72
8
 73
4
 74
0
 40
0
 40
0
 40
0
 40
0
 40
1
 40
1
 40
1
 40
1
 10
65.538314
 20
167.465188
 30
0.0
 10
66.110637
 20
166.892865
 30
0.0
 10
66.971364
 20
166.721655
 30
0.0
 10
67.719140
 20
167.031394
 30
0.0
  0
SPLINE
  5
16b
100
AcDbEntity
  8
Layer_1
 62
7
100
AcDbSpline
 70
8
 71
3
 72
8
 73
4
 74
0
 40
0
 40
0
 40
0
 40
0
 40
1
 40
1
 40
1
 40
1
 10
67.719140
 20
167.031394
 30
0.0
 10
68.466917
 20
167.341133
 30
0.0
 10
68.954480
 20
168.070823
 30
0.0
 10
68.954480
 20
168.880210
 30
0.0
  0
SPLINE
  5
16c
100
AcDbEntity
  8
Layer_1
 62
7
100
AcDbSpline
 70
8
 71
3
 72
8
 73
4
 74
0
 40
0
 40
0
 40
0
 40
0
 40
1
 40
1
 40
1
 40
1
 10
68.954480
 20
168.880210
 30
0.0
 10
68.954480
 20
169.985411
 30
0.0
 10
68.058537
 20
170.881353
 30
0.0
 10
66.953336
 20
170.881353
 30
0.0
  0
LWPOLYLINE
  5
16d
100
AcDbEntity
  8
Layer_1
 62
7
100
AcDbPolyline
 90
1
 70
1
 10
42.953340
 20
170.881353
 30
0.0
  0
SPLINE
  5
16e
100
AcDbEntity
  8
Layer_1
 62
7
100
AcDbSpline
 70
8
 71
3
 72
8
 73
4
 74
0
 40
0
 40
0
 40
0
 40
0
 40
1
 40
1
 40
1
 40
1
 10
90.953328
 20
170.881353
 30
0.0
 10
90.143941
 20
170.881353
 30
0.0
 10
89.414251
 20
170.393791
 30
0.0
 10
89.104512
 20
169.646014
 30
0.0
  0
SPLINE
  5
16f
100
AcDbEntity
  8
Layer_1
 62
7
100
AcDbSpline
 70
8
 71
3
 72
8
 73
4
 74
0
 40
0
 40
0
 40
0
 40
0
 40
1
 40
1
 40
1
 40
1
 10
89.104512
 20
169.646014
 30
0.0
 10
88.794773
 20
168.898238
 30
0.0
 10
88.965983
 20
168.037511
 30
0.0
 10
89.538306
 20
167.465188
 30
0.0
  0
SPLINE
  5
170
100
AcDbEntity
  8
Layer_1
 62
7
100
AcDbSpline
 70
8
 71
3
 72
8
 73
4
 74
0
 40
0
 40
0
 40
0
 40
0
 40
1
 40
1
 40
1
 40
1
 10
89.538306
 20
167.465188
 30
0.0
 10
90.110629
 20
166.892865
 30
0.0
 10
90.971356
 20
166.721655
 30
0.0
 10
91.719132
 20
167.031394
 30
0.0
  0
SPLINE
  5
171
100
AcDbEntity
  8
Layer_1
 62
7
100
AcDbSpline
 70
8
 71
3
 72
8
 73
4
 74
0
 40
0
 40
0
 40
0
 40
0
 40
1
 40
1
 40
1
 40
1
 10
91.719132
 20
167.031394
 30
0.0
 10
92.466909
 20
167.341133
 30
0.0
 10
92.954471
 20
168.070823
 30
0.0
 10
92.954471
 20
168.880210
 30
0.0
  0
SPLINE
  5
172
100
AcDbEntity
  8
Layer_1
 62
7
100
AcDbSpline
 70
8
 71
3
 72
8
 73
4
 74
0
 40
0
 40
0
 40
0
 40
0
 40
1
 40
1
 40
1
 40
1
 10
92.954471
 20
168.880210
 30
0.0
 10
92.954471
 20
169.410946
 30
0.0
 10
92.743637
 20
169.919945
 30
0.0
 10
92.368350
 20
170.295232
 30
0.0
  0
SPLINE
  5
173
100
AcDbEntity
  8
Layer_1
 62
7
100
AcDbSpline
 70
8
 71
3
 72
8
 73
4
 74
0
 40
0
 40
0
 40
0
 40
0
 40
1
 40
1
 40
1
 40
1
 10
92.368350
 20
170.295232
 30
0.0
 10
91.993063
 20
170.670519
 30
0.0
 10
91.484064
 20
170.881353
 30
0.0
 10
90.953328
 20
170.881353
 30
0.0
  0
LWPOLYLINE
  5
174
100
AcDbEntity
  8
Layer_1
 62
7
100
AcDbPolyline
 90
1
 70
1
 10
66.953336
 20
170.881353
 30
0.0
  0
SPLINE
  5
175
100
AcDbEntity
  8
Layer_1
 62
7
100
AcDbSpline
 70
8
 71
3
 72
8
 73
4
 74
0
 40
0
 40
0
 40
0
 40
0
 40
1
 40
1
 40
1
 40
1
 10
114.953340
 20
170.881353
 30
0.0
 10
114.143953
 20
170.881353
 30
0.0
 10
113.414263
 20
170.393791
 30
0.0
 10
113.104524
 20
169.646014
 30
0.0
  0
SPLINE
  5
176
100
AcDbEntity
  8
Layer_1
 62
7
100
AcDbSpline
 70
8
 71
3
 72
8
 73
4
 74
0
 40
0
 40
0
 40
0
 40
0
 40
1
 40
1
 40
1
 40
1
 10
113.104524
 20
169.646014
 30
0.0
 10
112.794785
 20
168.898238
 30
0.0
 10
112.965995
 20
168.037511
 30
0.0
 10
113.538318
 20
167.465188
 30
0.0
  0
SPLINE
  5
177
100
AcDbEntity
  8
Layer_1
 62
7
100
AcDbSpline
 70
8
 71
3
 72
8
 73
4
 74
0
 40
0
 40
0
 40
0
 40
0
 40
1
 40
1
 40
1
 40
1
 10
113.538318
 20
167.465188
 30
0.0
 10
114.110641
 20
166.892865
 30
0.0
 10
114.971368
 20
166.721655
 30
0.0
 10
115.719144
 20
167.031394
 30
0.0
  0
SPLINE
  5
178
100
AcDbEntity
  8
Layer_1
 62
7
100
AcDbSpline
 70
8
 71
3
 72
8
 73
4
 74
0
 40
0
 40
0
 40
0
 40
0
 40
1
 40
1
 40
1
 40
1
 10
115.719144
 20
167.031394
 30
0.0
 10
116.466921
 20
167.341133
 30
0.0
 10
116.954483
 20
168.070823
 30
0.0
 10
116.954483
 20
168.880210
 30
0.0
  0
SPLINE
  5
179
100
AcDbEntity
  8
Layer_1
 62
7
100
AcDbSpline
 70
8
 71
3
 72
8
 73
4
 74
0
 40
0
 40
0
 40
0
 40
0
 40
1
 40
1
 40
1
 40
1
 10
116.954483
 20
168.880210
 30
0.0
 10
116.954483
 20
169.410946
 30
0.0
 10
116.743649
 20
169.919945
 30
0.0
 10
116.368362
 20
170.295232
 30
0.0
  0
SPLINE
  5
17a
100
AcDbEntity
  8
Layer_1
 62
7
100
AcDbSpline
 70
8
 71
3
 72
8
 73
4
 74
0
 40
0
 40
0
 40
0
 40
0
 40
1
 40
1
 40
1
 40
1
 10
116.368362
 20
170.295232
 30
0.0
 10
115.993075
 20
170.670519
 30
0.0
 10
115.484076
 20
170.881353
 30
0.0
 10
114.953340
 20
170.881353
 30
0.0
  0
LWPOLYLINE
  5
17b
100
AcDbEntity
  8
Layer_1
 62
7
100
AcDbPolyline
 90
1
 70
1
 10
90.953328
 20
170.881353
 30
0.0
  0
SPLINE
  5
17c
100
AcDbEntity
  8
Layer_1
 62
7
100
AcDbSpline
 70
8
 71
3
 72
8
 73
4
 74
0
 40
0
 40
0
 40
0
 40
0
 40
1
 40
1
 40
1
 40
1
 10
138.953330
 20
170.881353
 30
0.0
 10
137.848129
 20
170.881353
 30
0.0
 10
136.952187
 20
169.985411
 30
0.0
 10
136.952187
 20
168.880210
 30
0.0
  0
SPLINE
  5
17d
100
AcDbEntity
  8
Layer_1
 62
7
100
AcDbSpline
 70
8
 71
3
 72
8
 73
4
 74
0
 40
0
 40
0
 40
0
 40
0
 40
1
 40
1
 40
1
 40
1
 10
136.952187
 20
168.880210
 30
0.0
 10
136.952187
 20
167.775009
 30
0.0
 10
137.848129
 20
166.879066
 30
0.0
 10
138.953330
 20
166.879066
 30
0.0
  0
SPLINE
  5
17e
100
AcDbEntity
  8
Layer_1
 62
7
100
AcDbSpline
 70
8
 71
3
 72
8
 73
4
 74
0
 40
0
 40
0
 40
0
 40
0
 40
1
 40
1
 40
1
 40
1
 10
138.953330
 20
166.879066
 30
0.0
 10
140.058531
 20
166.879066
 30
0.0
 10
140.954474
 20
167.775009
 30
0.0
 10
140.954474
 20
168.880210
 30
0.0
  0
SPLINE
  5
17f
100
AcDbEntity
  8
Layer_1
 62
7
100
AcDbSpline
 70
8
 71
3
 72
8
 73
4
 74
0
 40
0
 40
0
 40
0
 40
0
 40
1
 40
1
 40
1
 40
1
 10
140.954474
 20
168.880210
 30
0.0
 10
140.954474
 20
169.410946
 30
0.0
 10
140.743639
 20
169.919945
 30
0.0
 10
140.368352
 20
170.295232
 30
0.0
  0
SPLINE
  5
180
100
AcDbEntity
  8
Layer_1
 62
7
100
AcDbSpline
 70
8
 71
3
 72
8
 73
4
 74
0
 40
0
 40
0
 40
0
 40
0
 40
1
 40
1
 40
1
 40
1
 10
140.368352
 20
170.295232
 30
0.0
 10
139.993065
 20
170.670519
 30
0.0
 10
139.484066
 20
170.881353
 30
0.0
 10
138.953330
 20
170.881353
 30
0.0
  0
LWPOLYLINE
  5
181
100
AcDbEntity
  8
Layer_1
 62
7
100
AcDbPolyline
 90
1
 70
1
 10
114.953340
 20
170.881353
 30
0.0
  0
SPLINE
  5
182
100
AcDbEntity
  8
Layer_1
 62
7
100
AcDbSpline
 70
8
 71
3
 72
8
 73
4
 74
0
 40
0
 40
0
 40
0
 40
0
 40
1
 40
1
 40
1
 40
1
 10
162.953330
 20
170.881353
 30
0.0
 10
162.143943
 20
170.881353
 30
0.0
 10
161.414253
 20
170.393791
 30
0.0
 10
161.104514
 20
169.646014
 30
0.0
  0
SPLINE
  5
183
100
AcDbEntity
  8
Layer_1
 62
7
100
AcDbSpline
 70
8
 71
3
 72
8
 73
4
 74
0
 40
0
 40
0
 40
0
 40
0
 40
1
 40
1
 40
1
 40
1
 10
161.104514
 20
169.646014
 30
0.0
 10
160.794775
 20
168.898238
 30
0.0
 10
160.965985
 20
168.037511
 30
0.0
 10
161.538308
 20
167.465188
 30
0.0
  0
SPLINE
  5
184
100
AcDbEntity
  8
Layer_1
 62
7
100
AcDbSpline
 70
8
 71
3
 72
8
 73
4
 74
0
 40
0
 40
0
 40
0
 40
0
 40
1
 40
1
 40
1
 40
1
 10
161.538308
 20
167.465188
 30
0.0
 10
162.110631
 20
166.892865
 30
0.0
 10
162.971358
 20
166.721655
 30
0.0
 10
163.719134
 20
167.031394
 30
0.0
  0
SPLINE
  5
185
100
AcDbEntity
  8
Layer_1
 62
7
100
AcDbSpline
 70
8
 71
3
 72
8
 73
4
 74
0
 40
0
 40
0
 40
0
 40
0
 40
1
 40
1
 40
1
 40
1
 10
163.719134
 20
167.031394
 30
0.0
 10
164.466911
 20
167.341133
 30
0.0
 10
164.954474
 20
168.070823
 30
0.0
 10
164.954474
 20
168.880210
 30
0.0
  0
SPLINE
  5
186
100
AcDbEntity
  8
Layer_1
 62
7
100
AcDbSpline
 70
8
 71
3
 72
8
 73
4
 74
0
 40
0
 40
0
 40
0
 40
0
 40
1
 40
1
 40
1
 40
1
 10
164.954474
 20
168.880210
 30
0.0
 10
164.954474
 20
169.410946
 30
0.0
 10
164.743639
 20
169.919945
 30
0.0
 10
164.368352
 20
170.295232
 30
0.0
  0
SPLINE
  5
187
100
AcDbEntity
  8
Layer_1
 62
7
100
AcDbSpline
 70
8
 71
3
 72
8
 73
4
 74
0
 40
0
 40
0
 40
0
 40
0
 40
1
 40
1
 40
1
 40
1
 10
164.368352
 20
170.295232
 30
0.0
 10
163.993065
 20
170.670519
 30
0.0
 10
163.484066
 20
170.881353
 30
0.0
 10
162.953330
 20
170.881353
 30
0.0
  0
LWPOLYLINE
  5
188
100
AcDbEntity
  8
Layer_1
 62
7
100
AcDbPolyline
 90
1
 70
1
 10
138.953330
 20
170.881353
 30
0.0
  0
SPLINE
  5
189
100
AcDbEntity
  8
Layer_1
 62
7
100
AcDbSpline
 70
8
 71
3
 72
8
 73
4
 74
0
 40
0
 40
0
 40
0
 40
0
 40
1
 40
1
 40
1
 40
1
 10
186.953340
 20
170.881353
 30
0.0
 10
185.848139
 20
170.881353
 30
0.0
 10
184.952197
 20
169.985411
 30
0.0
 10
184.952197
 20
168.880210
 30
0.0
  0
SPLINE
  5
18a
100
AcDbEntity
  8
Layer_1
 62
7
100
AcDbSpline
 70
8
 71
3
 72
8
 73
4
 74
0
 40
0
 40
0
 40
0
 40
0
 40
1
 40
1
 40
1
 40
1
 10
184.952197
 20
168.880210
 30
0.0
 10
184.952197
 20
167.775009
 30
0.0
 10
185.848139
 20
166.879066
 30
0.0
 10
186.953340
 20
166.879066
 30
0.0
  0
SPLINE
  5
18b
100
AcDbEntity
  8
Layer_1
 62
7
100
AcDbSpline
 70
8
 71
3
 72
8
 73
4
 74
0
 40
0
 40
0
 40
0
 40
0
 40
1
 40
1
 40
1
 40
1
 10
186.953340
 20
166.879066
 30
0.0
 10
188.058541
 20
166.879066
 30
0.0
 10
188.954484
 20
167.775009
 30
0.0
 10
188.954484
 20
168.880210
 30
0.0
  0
SPLINE
  5
18c
100
AcDbEntity
  8
Layer_1
 62
7
100
AcDbSpline
 70
8
 71
3
 72
8
 73
4
 74
0
 40
0
 40
0
 40
0
 40
0
 40
1
 40
1
 40
1
 40
1
 10
188.954484
 20
168.880210
 30
0.0
 10
188.954484
 20
169.410946
 30
0.0
 10
188.743649
 20
169.919945
 30
0.0
 10
188.368362
 20
170.295232
 30
0.0
  0
SPLINE
  5
18d
100
AcDbEntity
  8
Layer_1
 62
7
100
AcDbSpline
 70
8
 71
3
 72
8
 73
4
 74
0
 40
0
 40
0
 40
0
 40
0
 40
1
 40
1
 40
1
 40
1
 10
188.368362
 20
170.295232
 30
0.0
 10
187.993075
 20
170.670519
 30
0.0
 10
187.484076
 20
170.881353
 30
0.0
 10
186.953340
 20
170.881353
 30
0.0
  0
LWPOLYLINE
  5
18e
100
AcDbEntity
  8
Layer_1
 62
7
100
AcDbPolyline
 90
1
 70
1
 10
162.953330
 20
170.881353
 30
0.0
  0
SPLINE
  5
18f
100
AcDbEntity
  8
Layer_1
 62
7
100
AcDbSpline
 70
8
 71
3
 72
8
 73
4
 74
0
 40
0
 40
0
 40
0
 40
0
 40
1
 40
1
 40
1
 40
1
 10
210.953340
 20
170.881353
 30
0.0
 10
210.143953
 20
170.881353
 30
0.0
 10
209.414263
 20
170.393791
 30
0.0
 10
209.104524
 20
169.646014
 30
0.0
  0
SPLINE
  5
190
100
AcDbEntity
  8
Layer_1
 62
7
100
AcDbSpline
 70
8
 71
3
 72
8
 73
4
 74
0
 40
0
 40
0
 40
0
 40
0
 40
1
 40
1
 40
1
 40
1
 10
209.104524
 20
169.646014
 30
0.0
 10
208.794785
 20
168.898238
 30
0.0
 10
208.965995
 20
168.037511
 30
0.0
 10
209.538318
 20
167.465188
 30
0.0
  0
SPLINE
  5
191
100
AcDbEntity
  8
Layer_1
 62
7
100
AcDbSpline
 70
8
 71
3
 72
8
 73
4
 74
0
 40
0
 40
0
 40
0
 40
0
 40
1
 40
1
 40
1
 40
1
 10
209.538318
 20
167.465188
 30
0.0
 10
210.110641
 20
166.892865
 30
0.0
 10
210.971368
 20
166.721655
 30
0.0
 10
211.719144
 20
167.031394
 30
0.0
  0
SPLINE
  5
192
100
AcDbEntity
  8
Layer_1
 62
7
100
AcDbSpline
 70
8
 71
3
 72
8
 73
4
 74
0
 40
0
 40
0
 40
0
 40
0
 40
1
 40
1
 40
1
 40
1
 10
211.719144
 20
167.031394
 30
0.0
 10
212.466921
 20
167.341133
 30
0.0
 10
212.954484
 20
168.070823
 30
0.0
 10
212.954484
 20
168.880210
 30
0.0
  0
SPLINE
  5
193
100
AcDbEntity
  8
Layer_1
 62
7
100
AcDbSpline
 70
8
 71
3
 72
8
 73
4
 74
0
 40
0
 40
0
 40
0
 40
0
 40
1
 40
1
 40
1
 40
1
 10
212.954484
 20
168.880210
 30
0.0
 10
212.954484
 20
169.410946
 30
0.0
 10
212.743649
 20
169.919945
 30
0.0
 10
212.368362
 20
170.295232
 30
0.0
  0
SPLINE
  5
194
100
AcDbEntity
  8
Layer_1
 62
7
100
AcDbSpline
 70
8
 71
3
 72
8
 73
4
 74
0
 40
0
 40
0
 40
0
 40
0
 40
1
 40
1
 40
1
 40
1
 10
212.368362
 20
170.295232
 30
0.0
 10
211.993075
 20
170.670519
 30
0.0
 10
211.484076
 20
170.881353
 30
0.0
 10
210.953340
 20
170.881353
 30
0.0
  0
LWPOLYLINE
  5
195
100
AcDbEntity
  8
Layer_1
 62
7
100
AcDbPolyline
 90
1
 70
1
 10
186.953340
 20
170.881353
 30
0.0
  0
SPLINE
  5
196
100
AcDbEntity
  8
Layer_1
 62
7
100
AcDbSpline
 70
8
 71
3
 72
8
 73
4
 74
0
 40
0
 40
0
 40
0
 40
0
 40
1
 40
1
 40
1
 40
1
 10
234.953340
 20
170.881353
 30
0.0
 10
234.143953
 20
170.881353
 30
0.0
 10
233.414263
 20
170.393791
 30
0.0
 10
233.104524
 20
169.646014
 30
0.0
  0
SPLINE
  5
197
100
AcDbEntity
  8
Layer_1
 62
7
100
AcDbSpline
 70
8
 71
3
 72
8
 73
4
 74
0
 40
0
 40
0
 40
0
 40
0
 40
1
 40
1
 40
1
 40
1
 10
233.104524
 20
169.646014
 30
0.0
 10
232.794785
 20
168.898238
 30
0.0
 10
232.965995
 20
168.037511
 30
0.0
 10
233.538318
 20
167.465188
 30
0.0
  0
SPLINE
  5
198
100
AcDbEntity
  8
Layer_1
 62
7
100
AcDbSpline
 70
8
 71
3
 72
8
 73
4
 74
0
 40
0
 40
0
 40
0
 40
0
 40
1
 40
1
 40
1
 40
1
 10
233.538318
 20
167.465188
 30
0.0
 10
234.110641
 20
166.892865
 30
0.0
 10
234.971368
 20
166.721655
 30
0.0
 10
235.719144
 20
167.031394
 30
0.0
  0
SPLINE
  5
199
100
AcDbEntity
  8
Layer_1
 62
7
100
AcDbSpline
 70
8
 71
3
 72
8
 73
4
 74
0
 40
0
 40
0
 40
0
 40
0
 40
1
 40
1
 40
1
 40
1
 10
235.719144
 20
167.031394
 30
0.0
 10
236.466921
 20
167.341133
 30
0.0
 10
236.954483
 20
168.070823
 30
0.0
 10
236.954483
 20
168.880210
 30
0.0
  0
SPLINE
  5
19a
100
AcDbEntity
  8
Layer_1
 62
7
100
AcDbSpline
 70
8
 71
3
 72
8
 73
4
 74
0
 40
0
 40
0
 40
0
 40
0
 40
1
 40
1
 40
1
 40
1
 10
236.954483
 20
168.880210
 30
0.0
 10
236.954483
 20
169.410946
 30
0.0
 10
236.743649
 20
169.919945
 30
0.0
 10
236.368362
 20
170.295232
 30
0.0
  0
SPLINE
  5
19b
100
AcDbEntity
  8
Layer_1
 62
7
100
AcDbSpline
 70
8
 71
3
 72
8
 73
4
 74
0
 40
0
 40
0
 40
0
 40
0
 40
1
 40
1
 40
1
 40
1
 10
236.368362
 20
170.295232
 30
0.0
 10
235.993075
 20
170.670519
 30
0.0
 10
235.484076
 20
170.881353
 30
0.0
 10
234.953340
 20
170.881353
 30
0.0
  0
LWPOLYLINE
  5
19c
100
AcDbEntity
  8
Layer_1
 62
7
100
AcDbPolyline
 90
1
 70
1
 10
210.953340
 20
170.881353
 30
0.0
  0
SPLINE
  5
19d
100
AcDbEntity
  8
Layer_1
 62
7
100
AcDbSpline
 70
8
 71
3
 72
8
 73
4
 74
0
 40
0
 40
0
 40
0
 40
0
 40
1
 40
1
 40
1
 40
1
 10
258.953340
 20
170.881353
 30
0.0
 10
257.848139
 20
170.881353
 30
0.0
 10
256.952197
 20
169.985411
 30
0.0
 10
256.952197
 20
168.880210
 30
0.0
  0
SPLINE
  5
19e
100
AcDbEntity
  8
Layer_1
 62
7
100
AcDbSpline
 70
8
 71
3
 72
8
 73
4
 74
0
 40
0
 40
0
 40
0
 40
0
 40
1
 40
1
 40
1
 40
1
 10
256.952197
 20
168.880210
 30
0.0
 10
256.952197
 20
167.775009
 30
0.0
 10
257.848139
 20
166.879066
 30
0.0
 10
258.953340
 20
166.879066
 30
0.0
  0
SPLINE
  5
19f
100
AcDbEntity
  8
Layer_1
 62
7
100
AcDbSpline
 70
8
 71
3
 72
8
 73
4
 74
0
 40
0
 40
0
 40
0
 40
0
 40
1
 40
1
 40
1
 40
1
 10
258.953340
 20
166.879066
 30
0.0
 10
260.058541
 20
166.879066
 30
0.0
 10
260.954484
 20
167.775009
 30
0.0
 10
260.954484
 20
168.880210
 30
0.0
  0
SPLINE
  5
1a0
100
AcDbEntity
  8
Layer_1
 62
7
100
AcDbSpline
 70
8
 71
3
 72
8
 73
4
 74
0
 40
0
 40
0
 40
0
 40
0
 40
1
 40
1
 40
1
 40
1
 10
260.954484
 20
168.880210
 30
0.0
 10
260.954484
 20
169.410946
 30
0.0
 10
260.743649
 20
169.919945
 30
0.0
 10
260.368362
 20
170.295232
 30
0.0
  0
SPLINE
  5
1a1
100
AcDbEntity
  8
Layer_1
 62
7
100
AcDbSpline
 70
8
 71
3
 72
8
 73
4
 74
0
 40
0
 40
0
 40
0
 40
0
 40
1
 40
1
 40
1
 40
1
 10
260.368362
 20
170.295232
 30
0.0
 10
259.993075
 20
170.670519
 30
0.0
 10
259.484076
 20
170.881353
 30
0.0
 10
258.953340
 20
170.881353
 30
0.0
  0
LWPOLYLINE
  5
1a2
100
AcDbEntity
  8
Layer_1
 62
7
100
AcDbPolyline
 90
1
 70
1
 10
234.953340
 20
170.881353
 30
0.0
  0
SPLINE
  5
1a3
100
AcDbEntity
  8
Layer_1
 62
7
100
AcDbSpline
 70
8
 71
3
 72
8
 73
4
 74
0
 40
0
 40
0
 40
0
 40
0
 40
1
 40
1
 40
1
 40
1
 10
282.953330
 20
170.881353
 30
0.0
 10
282.143943
 20
170.881353
 30
0.0
 10
281.414253
 20
170.393791
 30
0.0
 10
281.104514
 20
169.646014
 30
0.0
  0
SPLINE
  5
1a4
100
AcDbEntity
  8
Layer_1
 62
7
100
AcDbSpline
 70
8
 71
3
 72
8
 73
4
 74
0
 40
0
 40
0
 40
0
 40
0
 40
1
 40
1
 40
1
 40
1
 10
281.104514
 20
169.646014
 30
0.0
 10
280.794775
 20
168.898238
 30
0.0
 10
280.965985
 20
168.037511
 30
0.0
 10
281.538308
 20
167.465188
 30
0.0
  0
SPLINE
  5
1a5
100
AcDbEntity
  8
Layer_1
 62
7
100
AcDbSpline
 70
8
 71
3
 72
8
 73
4
 74
0
 40
0
 40
0
 40
0
 40
0
 40
1
 40
1
 40
1
 40
1
 10
281.538308
 20
167.465188
 30
0.0
 10
282.110631
 20
166.892865
 30
0.0
 10
282.971358
 20
166.721655
 30
0.0
 10
283.719134
 20
167.031394
 30
0.0
  0
SPLINE
  5
1a6
100
AcDbEntity
  8
Layer_1
 62
7
100
AcDbSpline
 70
8
 71
3
 72
8
 73
4
 74
0
 40
0
 40
0
 40
0
 40
0
 40
1
 40
1
 40
1
 40
1
 10
283.719134
 20
167.031394
 30
0.0
 10
284.466911
 20
167.341133
 30
0.0
 10
284.954474
 20
168.070823
 30
0.0
 10
284.954474
 20
168.880210
 30
0.0
  0
SPLINE
  5
1a7
100
AcDbEntity
  8
Layer_1
 62
7
100
AcDbSpline
 70
8
 71
3
 72
8
 73
4
 74
0
 40
0
 40
0
 40
0
 40
0
 40
1
 40
1
 40
1
 40
1
 10
284.954474
 20
168.880210
 30
0.0
 10
284.954474
 20
169.410946
 30
0.0
 10
284.743639
 20
169.919945
 30
0.0
 10
284.368352
 20
170.295232
 30
0.0
  0
SPLINE
  5
1a8
100
AcDbEntity
  8
Layer_1
 62
7
100
AcDbSpline
 70
8
 71
3
 72
8
 73
4
 74
0
 40
0
 40
0
 40
0
 40
0
 40
1
 40
1
 40
1
 40
1
 10
284.368352
 20
170.295232
 30
0.0
 10
283.993065
 20
170.670519
 30
0.0
 10
283.484066
 20
170.881353
 30
0.0
 10
282.953330
 20
170.881353
 30
0.0
  0
LWPOLYLINE
  5
1a9
100
AcDbEntity
  8
Layer_1
 62
7
100
AcDbPolyline
 90
1
 70
1
 10
258.953340
 20
170.881353
 30
0.0
  0
SPLINE
  5
1aa
100
AcDbEntity
  8
Layer_1
 62
7
100
AcDbSpline
 70
8
 71
3
 72
8
 73
4
 74
0
 40
0
 40
0
 40
0
 40
0
 40
1
 40
1
 40
1
 40
1
 10
306.953300
 20
170.881353
 30
0.0
 10
305.848099
 20
170.881353
 30
0.0
 10
304.952157
 20
169.985411
 30
0.0
 10
304.952157
 20
168.880210
 30
0.0
  0
SPLINE
  5
1ab
100
AcDbEntity
  8
Layer_1
 62
7
100
AcDbSpline
 70
8
 71
3
 72
8
 73
4
 74
0
 40
0
 40
0
 40
0
 40
0
 40
1
 40
1
 40
1
 40
1
 10
304.952157
 20
168.880210
 30
0.0
 10
304.952157
 20
167.775009
 30
0.0
 10
305.848099
 20
166.879066
 30
0.0
 10
306.953300
 20
166.879066
 30
0.0
  0
SPLINE
  5
1ac
100
AcDbEntity
  8
Layer_1
 62
7
100
AcDbSpline
 70
8
 71
3
 72
8
 73
4
 74
0
 40
0
 40
0
 40
0
 40
0
 40
1
 40
1
 40
1
 40
1
 10
306.953300
 20
166.879066
 30
0.0
 10
308.058501
 20
166.879066
 30
0.0
 10
308.954444
 20
167.775009
 30
0.0
 10
308.954444
 20
168.880210
 30
0.0
  0
SPLINE
  5
1ad
100
AcDbEntity
  8
Layer_1
 62
7
100
AcDbSpline
 70
8
 71
3
 72
8
 73
4
 74
0
 40
0
 40
0
 40
0
 40
0
 40
1
 40
1
 40
1
 40
1
 10
308.954444
 20
168.880210
 30
0.0
 10
308.954444
 20
169.410946
 30
0.0
 10
308.743609
 20
169.919945
 30
0.0
 10
308.368322
 20
170.295232
 30
0.0
  0
SPLINE
  5
1ae
100
AcDbEntity
  8
Layer_1
 62
7
100
AcDbSpline
 70
8
 71
3
 72
8
 73
4
 74
0
 40
0
 40
0
 40
0
 40
0
 40
1
 40
1
 40
1
 40
1
 10
308.368322
 20
170.295232
 30
0.0
 10
307.993035
 20
170.670519
 30
0.0
 10
307.484036
 20
170.881353
 30
0.0
 10
306.953300
 20
170.881353
 30
0.0
  0
LWPOLYLINE
  5
1af
100
AcDbEntity
  8
Layer_1
 62
7
100
AcDbPolyline
 90
1
 70
1
 10
282.953330
 20
170.881353
 30
0.0
  0
SPLINE
  5
1b0
100
AcDbEntity
  8
Layer_1
 62
7
100
AcDbSpline
 70
8
 71
3
 72
8
 73
4
 74
0
 40
0
 40
0
 40
0
 40
0
 40
1
 40
1
 40
1
 40
1
 10
330.953330
 20
170.881353
 30
0.0
 10
330.143943
 20
170.881353
 30
0.0
 10
329.414253
 20
170.393791
 30
0.0
 10
329.104514
 20
169.646014
 30
0.0
  0
SPLINE
  5
1b1
100
AcDbEntity
  8
Layer_1
 62
7
100
AcDbSpline
 70
8
 71
3
 72
8
 73
4
 74
0
 40
0
 40
0
 40
0
 40
0
 40
1
 40
1
 40
1
 40
1
 10
329.104514
 20
169.646014
 30
0.0
 10
328.794775
 20
168.898238
 30
0.0
 10
328.965985
 20
168.037511
 30
0.0
 10
329.538308
 20
167.465188
 30
0.0
  0
SPLINE
  5
1b2
100
AcDbEntity
  8
Layer_1
 62
7
100
AcDbSpline
 70
8
 71
3
 72
8
 73
4
 74
0
 40
0
 40
0
 40
0
 40
0
 40
1
 40
1
 40
1
 40
1
 10
329.538308
 20
167.465188
 30
0.0
 10
330.110631
 20
166.892865
 30
0.0
 10
330.971358
 20
166.721655
 30
0.0
 10
331.719134
 20
167.031394
 30
0.0
  0
SPLINE
  5
1b3
100
AcDbEntity
  8
Layer_1
 62
7
100
AcDbSpline
 70
8
 71
3
 72
8
 73
4
 74
0
 40
0
 40
0
 40
0
 40
0
 40
1
 40
1
 40
1
 40
1
 10
331.719134
 20
167.031394
 30
0.0
 10
332.466911
 20
167.341133
 30
0.0
 10
332.954474
 20
168.070823
 30
0.0
 10
332.954474
 20
168.880210
 30
0.0
  0
SPLINE
  5
1b4
100
AcDbEntity
  8
Layer_1
 62
7
100
AcDbSpline
 70
8
 71
3
 72
8
 73
4
 74
0
 40
0
 40
0
 40
0
 40
0
 40
1
 40
1
 40
1
 40
1
 10
332.954474
 20
168.880210
 30
0.0
 10
332.954474
 20
169.410946
 30
0.0
 10
332.743639
 20
169.919945
 30
0.0
 10
332.368352
 20
170.295232
 30
0.0
  0
SPLINE
  5
1b5
100
AcDbEntity
  8
Layer_1
 62
7
100
AcDbSpline
 70
8
 71
3
 72
8
 73
4
 74
0
 40
0
 40
0
 40
0
 40
0
 40
1
 40
1
 40
1
 40
1
 10
332.368352
 20
170.295232
 30
0.0
 10
331.993065
 20
170.670519
 30
0.0
 10
331.484066
 20
170.881353
 30
0.0
 10
330.953330
 20
170.881353
 30
0.0
  0
LWPOLYLINE
  5
1b6
100
AcDbEntity
  8
Layer_1
 62
7
100
AcDbPolyline
 90
1
 70
1
 10
306.953300
 20
170.881353
 30
0.0
  0
SPLINE
  5
1b7
100
AcDbEntity
  8
Layer_1
 62
7
100
AcDbSpline
 70
8
 71
3
 72
8
 73
4
 74
0
 40
0
 40
0
 40
0
 40
0
 40
1
 40
1
 40
1
 40
1
 10
354.953330
 20
170.881353
 30
0.0
 10
354.143943
 20
170.881353
 30
0.0
 10
353.414253
 20
170.393791
 30
0.0
 10
353.104514
 20
169.646014
 30
0.0
  0
SPLINE
  5
1b8
100
AcDbEntity
  8
Layer_1
 62
7
100
AcDbSpline
 70
8
 71
3
 72
8
 73
4
 74
0
 40
0
 40
0
 40
0
 40
0
 40
1
 40
1
 40
1
 40
1
 10
353.104514
 20
169.646014
 30
0.0
 10
352.794775
 20
168.898238
 30
0.0
 10
352.965985
 20
168.037511
 30
0.0
 10
353.538308
 20
167.465188
 30
0.0
  0
SPLINE
  5
1b9
100
AcDbEntity
  8
Layer_1
 62
7
100
AcDbSpline
 70
8
 71
3
 72
8
 73
4
 74
0
 40
0
 40
0
 40
0
 40
0
 40
1
 40
1
 40
1
 40
1
 10
353.538308
 20
167.465188
 30
0.0
 10
354.110631
 20
166.892865
 30
0.0
 10
354.971358
 20
166.721655
 30
0.0
 10
355.719134
 20
167.031394
 30
0.0
  0
SPLINE
  5
1ba
100
AcDbEntity
  8
Layer_1
 62
7
100
AcDbSpline
 70
8
 71
3
 72
8
 73
4
 74
0
 40
0
 40
0
 40
0
 40
0
 40
1
 40
1
 40
1
 40
1
 10
355.719134
 20
167.031394
 30
0.0
 10
356.466911
 20
167.341133
 30
0.0
 10
356.954474
 20
168.070823
 30
0.0
 10
356.954474
 20
168.880210
 30
0.0
  0
SPLINE
  5
1bb
100
AcDbEntity
  8
Layer_1
 62
7
100
AcDbSpline
 70
8
 71
3
 72
8
 73
4
 74
0
 40
0
 40
0
 40
0
 40
0
 40
1
 40
1
 40
1
 40
1
 10
356.954474
 20
168.880210
 30
0.0
 10
356.954474
 20
169.410946
 30
0.0
 10
356.743639
 20
169.919945
 30
0.0
 10
356.368352
 20
170.295232
 30
0.0
  0
SPLINE
  5
1bc
100
AcDbEntity
  8
Layer_1
 62
7
100
AcDbSpline
 70
8
 71
3
 72
8
 73
4
 74
0
 40
0
 40
0
 40
0
 40
0
 40
1
 40
1
 40
1
 40
1
 10
356.368352
 20
170.295232
 30
0.0
 10
355.993065
 20
170.670519
 30
0.0
 10
355.484066
 20
170.881353
 30
0.0
 10
354.953330
 20
170.881353
 30
0.0
  0
LWPOLYLINE
  5
1bd
100
AcDbEntity
  8
Layer_1
 62
7
100
AcDbPolyline
 90
1
 70
1
 10
330.953330
 20
170.881353
 30
0.0
  0
SPLINE
  5
1be
100
AcDbEntity
  8
Layer_1
 62
7
100
AcDbSpline
 70
8
 71
3
 72
8
 73
4
 74
0
 40
0
 40
0
 40
0
 40
0
 40
1
 40
1
 40
1
 40
1
 10
378.948630
 20
170.899443
 30
0.0
 10
378.139243
 20
170.899443
 30
0.0
 10
377.409553
 20
170.411881
 30
0.0
 10
377.099814
 20
169.664104
 30
0.0
  0
SPLINE
  5
1bf
100
AcDbEntity
  8
Layer_1
 62
7
100
AcDbSpline
 70
8
 71
3
 72
8
 73
4
 74
0
 40
0
 40
0
 40
0
 40
0
 40
1
 40
1
 40
1
 40
1
 10
377.099814
 20
169.664104
 30
0.0
 10
376.790075
 20
168.916328
 30
0.0
 10
376.961285
 20
168.055601
 30
0.0
 10
377.533608
 20
167.483278
 30
0.0
  0
SPLINE
  5
1c0
100
AcDbEntity
  8
Layer_1
 62
7
100
AcDbSpline
 70
8
 71
3
 72
8
 73
4
 74
0
 40
0
 40
0
 40
0
 40
0
 40
1
 40
1
 40
1
 40
1
 10
377.533608
 20
167.483278
 30
0.0
 10
378.105931
 20
166.910955
 30
0.0
 10
378.966658
 20
166.739745
 30
0.0
 10
379.714434
 20
167.049484
 30
0.0
  0
SPLINE
  5
1c1
100
AcDbEntity
  8
Layer_1
 62
7
100
AcDbSpline
 70
8
 71
3
 72
8
 73
4
 74
0
 40
0
 40
0
 40
0
 40
0
 40
1
 40
1
 40
1
 40
1
 10
379.714434
 20
167.049484
 30
0.0
 10
380.462211
 20
167.359223
 30
0.0
 10
380.949774
 20
168.088913
 30
0.0
 10
380.949774
 20
168.898300
 30
0.0
  0
SPLINE
  5
1c2
100
AcDbEntity
  8
Layer_1
 62
7
100
AcDbSpline
 70
8
 71
3
 72
8
 73
4
 74
0
 40
0
 40
0
 40
0
 40
0
 40
1
 40
1
 40
1
 40
1
 10
380.949774
 20
168.898300
 30
0.0
 10
380.949774
 20
169.429036
 30
0.0
 10
380.738939
 20
169.938035
 30
0.0
 10
380.363652
 20
170.313322
 30
0.0
  0
SPLINE
  5
1c3
100
AcDbEntity
  8
Layer_1
 62
7
100
AcDbSpline
 70
8
 71
3
 72
8
 73
4
 74
0
 40
0
 40
0
 40
0
 40
0
 40
1
 40
1
 40
1
 40
1
 10
380.363652
 20
170.313322
 30
0.0
 10
379.988365
 20
170.688609
 30
0.0
 10
379.479366
 20
170.899443
 30
0.0
 10
378.948630
 20
170.899443
 30
0.0
  0
LWPOLYLINE
  5
1c4
100
AcDbEntity
  8
Layer_1
 62
7
100
AcDbPolyline
 90
1
 70
1
 10
354.953330
 20
170.881353
 30
0.0
  0
SPLINE
  5
1c5
100
AcDbEntity
  8
Layer_1
 62
7
100
AcDbSpline
 70
8
 71
3
 72
8
 73
4
 74
0
 40
0
 40
0
 40
0
 40
0
 40
1
 40
1
 40
1
 40
1
 10
378.033334
 20
196.322710
 30
0.0
 10
378.033334
 20
197.132097
 30
0.0
 10
377.545771
 20
197.861787
 30
0.0
 10
376.797994
 20
198.171526
 30
0.0
  0
SPLINE
  5
1c6
100
AcDbEntity
  8
Layer_1
 62
7
100
AcDbSpline
 70
8
 71
3
 72
8
 73
4
 74
0
 40
0
 40
0
 40
0
 40
0
 40
1
 40
1
 40
1
 40
1
 10
376.797994
 20
198.171526
 30
0.0
 10
376.050218
 20
198.481265
 30
0.0
 10
375.189491
 20
198.310055
 30
0.0
 10
374.617168
 20
197.737732
 30
0.0
  0
SPLINE
  5
1c7
100
AcDbEntity
  8
Layer_1
 62
7
100
AcDbSpline
 70
8
 71
3
 72
8
 73
4
 74
0
 40
0
 40
0
 40
0
 40
0
 40
1
 40
1
 40
1
 40
1
 10
374.617168
 20
197.737732
 30
0.0
 10
374.044845
 20
197.165409
 30
0.0
 10
373.873635
 20
196.304682
 30
0.0
 10
374.183374
 20
195.556906
 30
0.0
  0
SPLINE
  5
1c8
100
AcDbEntity
  8
Layer_1
 62
7
100
AcDbSpline
 70
8
 71
3
 72
8
 73
4
 74
0
 40
0
 40
0
 40
0
 40
0
 40
1
 40
1
 40
1
 40
1
 10
374.183374
 20
195.556906
 30
0.0
 10
374.493113
 20
194.809129
 30
0.0
 10
375.222803
 20
194.321567
 30
0.0
 10
376.032190
 20
194.321567
 30
0.0
  0
SPLINE
  5
1c9
100
AcDbEntity
  8
Layer_1
 62
7
100
AcDbSpline
 70
8
 71
3
 72
8
 73
4
 74
0
 40
0
 40
0
 40
0
 40
0
 40
1
 40
1
 40
1
 40
1
 10
376.032190
 20
194.321567
 30
0.0
 10
376.562926
 20
194.321567
 30
0.0
 10
377.071925
 20
194.532401
 30
0.0
 10
377.447212
 20
194.907688
 30
0.0
  0
SPLINE
  5
1ca
100
AcDbEntity
  8
Layer_1
 62
7
100
AcDbSpline
 70
8
 71
3
 72
8
 73
4
 74
0
 40
0
 40
0
 40
0
 40
0
 40
1
 40
1
 40
1
 40
1
 10
377.447212
 20
194.907688
 30
0.0
 10
377.822499
 20
195.282975
 30
0.0
 10
378.033334
 20
195.791974
 30
0.0
 10
378.033334
 20
196.322710
 30
0.0
  0
LWPOLYLINE
  5
1cb
100
AcDbEntity
  8
Layer_1
 62
7
100
AcDbPolyline
 90
1
 70
1
 10
378.948630
 20
170.899443
 30
0.0
  0
SPLINE
  5
1cc
100
AcDbEntity
  8
Layer_1
 62
7
100
AcDbSpline
 70
8
 71
3
 72
8
 73
4
 74
0
 40
0
 40
0
 40
0
 40
0
 40
1
 40
1
 40
1
 40
1
 10
378.033334
 20
188.322710
 30
0.0
 10
378.033334
 20
189.132097
 30
0.0
 10
377.545771
 20
189.861787
 30
0.0
 10
376.797994
 20
190.171526
 30
0.0
  0
SPLINE
  5
1cd
100
AcDbEntity
  8
Layer_1
 62
7
100
AcDbSpline
 70
8
 71
3
 72
8
 73
4
 74
0
 40
0
 40
0
 40
0
 40
0
 40
1
 40
1
 40
1
 40
1
 10
376.797994
 20
190.171526
 30
0.0
 10
376.050218
 20
190.481265
 30
0.0
 10
375.189491
 20
190.310055
 30
0.0
 10
374.617168
 20
189.737732
 30
0.0
  0
SPLINE
  5
1ce
100
AcDbEntity
  8
Layer_1
 62
7
100
AcDbSpline
 70
8
 71
3
 72
8
 73
4
 74
0
 40
0
 40
0
 40
0
 40
0
 40
1
 40
1
 40
1
 40
1
 10
374.617168
 20
189.737732
 30
0.0
 10
374.044845
 20
189.165409
 30
0.0
 10
373.873635
 20
188.304682
 30
0.0
 10
374.183374
 20
187.556906
 30
0.0
  0
SPLINE
  5
1cf
100
AcDbEntity
  8
Layer_1
 62
7
100
AcDbSpline
 70
8
 71
3
 72
8
 73
4
 74
0
 40
0
 40
0
 40
0
 40
0
 40
1
 40
1
 40
1
 40
1
 10
374.183374
 20
187.556906
 30
0.0
 10
374.493113
 20
186.809129
 30
0.0
 10
375.222803
 20
186.321567
 30
0.0
 10
376.032190
 20
186.321567
 30
0.0
  0
SPLINE
  5
1d0
100
AcDbEntity
  8
Layer_1
 62
7
100
AcDbSpline
 70
8
 71
3
 72
8
 73
4
 74
0
 40
0
 40
0
 40
0
 40
0
 40
1
 40
1
 40
1
 40
1
 10
376.032190
 20
186.321567
 30
0.0
 10
376.562926
 20
186.321567
 30
0.0
 10
377.071925
 20
186.532401
 30
0.0
 10
377.447212
 20
186.907688
 30
0.0
  0
SPLINE
  5
1d1
100
AcDbEntity
  8
Layer_1
 62
7
100
AcDbSpline
 70
8
 71
3
 72
8
 73
4
 74
0
 40
0
 40
0
 40
0
 40
0
 40
1
 40
1
 40
1
 40
1
 10
377.447212
 20
186.907688
 30
0.0
 10
377.822499
 20
187.282975
 30
0.0
 10
378.033334
 20
187.791974
 30
0.0
 10
378.033334
 20
188.322710
 30
0.0
  0
LWPOLYLINE
  5
1d2
100
AcDbEntity
  8
Layer_1
 62
7
100
AcDbPolyline
 90
1
 70
1
 10
378.033334
 20
196.322710
 30
0.0
  0
SPLINE
  5
1d3
100
AcDbEntity
  8
Layer_1
 62
7
100
AcDbSpline
 70
8
 71
3
 72
8
 73
4
 74
0
 40
0
 40
0
 40
0
 40
0
 40
1
 40
1
 40
1
 40
1
 10
378.033334
 20
180.322710
 30
0.0
 10
378.033334
 20
181.427911
 30
0.0
 10
377.137391
 20
182.323853
 30
0.0
 10
376.032190
 20
182.323853
 30
0.0
  0
SPLINE
  5
1d4
100
AcDbEntity
  8
Layer_1
 62
7
100
AcDbSpline
 70
8
 71
3
 72
8
 73
4
 74
0
 40
0
 40
0
 40
0
 40
0
 40
1
 40
1
 40
1
 40
1
 10
376.032190
 20
182.323853
 30
0.0
 10
374.926989
 20
182.323853
 30
0.0
 10
374.031047
 20
181.427911
 30
0.0
 10
374.031047
 20
180.322710
 30
0.0
  0
SPLINE
  5
1d5
100
AcDbEntity
  8
Layer_1
 62
7
100
AcDbSpline
 70
8
 71
3
 72
8
 73
4
 74
0
 40
0
 40
0
 40
0
 40
0
 40
1
 40
1
 40
1
 40
1
 10
374.031047
 20
180.322710
 30
0.0
 10
374.031047
 20
179.217509
 30
0.0
 10
374.926989
 20
178.321566
 30
0.0
 10
376.032190
 20
178.321566
 30
0.0
  0
SPLINE
  5
1d6
100
AcDbEntity
  8
Layer_1
 62
7
100
AcDbSpline
 70
8
 71
3
 72
8
 73
4
 74
0
 40
0
 40
0
 40
0
 40
0
 40
1
 40
1
 40
1
 40
1
 10
376.032190
 20
178.321566
 30
0.0
 10
376.562926
 20
178.321566
 30
0.0
 10
377.071925
 20
178.532401
 30
0.0
 10
377.447212
 20
178.907688
 30
0.0
  0
SPLINE
  5
1d7
100
AcDbEntity
  8
Layer_1
 62
7
100
AcDbSpline
 70
8
 71
3
 72
8
 73
4
 74
0
 40
0
 40
0
 40
0
 40
0
 40
1
 40
1
 40
1
 40
1
 10
377.447212
 20
178.907688
 30
0.0
 10
377.822499
 20
179.282975
 30
0.0
 10
378.033334
 20
179.791974
 30
0.0
 10
378.033334
 20
180.322710
 30
0.0
  0
LWPOLYLINE
  5
1d8
100
AcDbEntity
  8
Layer_1
 62
7
100
AcDbPolyline
 90
1
 70
1
 10
378.033334
 20
188.322710
 30
0.0
  0
SPLINE
  5
1d9
100
AcDbEntity
  8
Layer_1
 62
7
100
AcDbSpline
 70
8
 71
3
 72
8
 73
4
 74
0
 40
0
 40
0
 40
0
 40
0
 40
1
 40
1
 40
1
 40
1
 10
398.933424
 20
95.224770
 30
0.0
 10
398.933424
 20
96.034157
 30
0.0
 10
398.445861
 20
96.763847
 30
0.0
 10
397.698084
 20
97.073586
 30
0.0
  0
SPLINE
  5
1da
100
AcDbEntity
  8
Layer_1
 62
7
100
AcDbSpline
 70
8
 71
3
 72
8
 73
4
 74
0
 40
0
 40
0
 40
0
 40
0
 40
1
 40
1
 40
1
 40
1
 10
397.698084
 20
97.073586
 30
0.0
 10
396.950308
 20
97.383325
 30
0.0
 10
396.089581
 20
97.212115
 30
0.0
 10
395.517258
 20
96.639792
 30
0.0
  0
SPLINE
  5
1db
100
AcDbEntity
  8
Layer_1
 62
7
100
AcDbSpline
 70
8
 71
3
 72
8
 73
4
 74
0
 40
0
 40
0
 40
0
 40
0
 40
1
 40
1
 40
1
 40
1
 10
395.517258
 20
96.639792
 30
0.0
 10
394.944935
 20
96.067469
 30
0.0
 10
394.773725
 20
95.206742
 30
0.0
 10
395.083464
 20
94.458966
 30
0.0
  0
SPLINE
  5
1dc
100
AcDbEntity
  8
Layer_1
 62
7
100
AcDbSpline
 70
8
 71
3
 72
8
 73
4
 74
0
 40
0
 40
0
 40
0
 40
0
 40
1
 40
1
 40
1
 40
1
 10
395.083464
 20
94.458966
 30
0.0
 10
395.393203
 20
93.711189
 30
0.0
 10
396.122893
 20
93.223626
 30
0.0
 10
396.932280
 20
93.223626
 30
0.0
  0
SPLINE
  5
1dd
100
AcDbEntity
  8
Layer_1
 62
7
100
AcDbSpline
 70
8
 71
3
 72
8
 73
4
 74
0
 40
0
 40
0
 40
0
 40
0
 40
1
 40
1
 40
1
 40
1
 10
396.932280
 20
93.223626
 30
0.0
 10
397.463016
 20
93.223626
 30
0.0
 10
397.972015
 20
93.434461
 30
0.0
 10
398.347302
 20
93.809748
 30
0.0
  0
SPLINE
  5
1de
100
AcDbEntity
  8
Layer_1
 62
7
100
AcDbSpline
 70
8
 71
3
 72
8
 73
4
 74
0
 40
0
 40
0
 40
0
 40
0
 40
1
 40
1
 40
1
 40
1
 10
398.347302
 20
93.809748
 30
0.0
 10
398.722589
 20
94.185035
 30
0.0
 10
398.933424
 20
94.694034
 30
0.0
 10
398.933424
 20
95.224770
 30
0.0
  0
LWPOLYLINE
  5
1df
100
AcDbEntity
  8
Layer_1
 62
7
100
AcDbPolyline
 90
1
 70
1
 10
378.033334
 20
180.322710
 30
0.0
  0
SPLINE
  5
1e0
100
AcDbEntity
  8
Layer_1
 62
7
100
AcDbSpline
 70
8
 71
3
 72
8
 73
4
 74
0
 40
0
 40
0
 40
0
 40
0
 40
1
 40
1
 40
1
 40
1
 10
398.933424
 20
111.224770
 30
0.0
 10
398.933424
 20
112.034157
 30
0.0
 10
398.445861
 20
112.763847
 30
0.0
 10
397.698084
 20
113.073586
 30
0.0
  0
SPLINE
  5
1e1
100
AcDbEntity
  8
Layer_1
 62
7
100
AcDbSpline
 70
8
 71
3
 72
8
 73
4
 74
0
 40
0
 40
0
 40
0
 40
0
 40
1
 40
1
 40
1
 40
1
 10
397.698084
 20
113.073586
 30
0.0
 10
396.950308
 20
113.383325
 30
0.0
 10
396.089581
 20
113.212115
 30
0.0
 10
395.517258
 20
112.639792
 30
0.0
  0
SPLINE
  5
1e2
100
AcDbEntity
  8
Layer_1
 62
7
100
AcDbSpline
 70
8
 71
3
 72
8
 73
4
 74
0
 40
0
 40
0
 40
0
 40
0
 40
1
 40
1
 40
1
 40
1
 10
395.517258
 20
112.639792
 30
0.0
 10
394.944935
 20
112.067469
 30
0.0
 10
394.773725
 20
111.206742
 30
0.0
 10
395.083464
 20
110.458966
 30
0.0
  0
SPLINE
  5
1e3
100
AcDbEntity
  8
Layer_1
 62
7
100
AcDbSpline
 70
8
 71
3
 72
8
 73
4
 74
0
 40
0
 40
0
 40
0
 40
0
 40
1
 40
1
 40
1
 40
1
 10
395.083464
 20
110.458966
 30
0.0
 10
395.393203
 20
109.711189
 30
0.0
 10
396.122893
 20
109.223626
 30
0.0
 10
396.932280
 20
109.223626
 30
0.0
  0
SPLINE
  5
1e4
100
AcDbEntity
  8
Layer_1
 62
7
100
AcDbSpline
 70
8
 71
3
 72
8
 73
4
 74
0
 40
0
 40
0
 40
0
 40
0
 40
1
 40
1
 40
1
 40
1
 10
396.932280
 20
109.223626
 30
0.0
 10
397.463016
 20
109.223626
 30
0.0
 10
397.972015
 20
109.434461
 30
0.0
 10
398.347302
 20
109.809748
 30
0.0
  0
SPLINE
  5
1e5
100
AcDbEntity
  8
Layer_1
 62
7
100
AcDbSpline
 70
8
 71
3
 72
8
 73
4
 74
0
 40
0
 40
0
 40
0
 40
0
 40
1
 40
1
 40
1
 40
1
 10
398.347302
 20
109.809748
 30
0.0
 10
398.722589
 20
110.185035
 30
0.0
 10
398.933424
 20
110.694034
 30
0.0
 10
398.933424
 20
111.224770
 30
0.0
  0
LWPOLYLINE
  5
1e6
100
AcDbEntity
  8
Layer_1
 62
7
100
AcDbPolyline
 90
1
 70
1
 10
398.933424
 20
95.224770
 30
0.0
  0
SPLINE
  5
1e7
100
AcDbEntity
  8
Layer_1
 62
7
100
AcDbSpline
 70
8
 71
3
 72
8
 73
4
 74
0
 40
0
 40
0
 40
0
 40
0
 40
1
 40
1
 40
1
 40
1
 10
398.933424
 20
127.224770
 30
0.0
 10
398.933424
 20
128.034157
 30
0.0
 10
398.445861
 20
128.763847
 30
0.0
 10
397.698084
 20
129.073586
 30
0.0
  0
SPLINE
  5
1e8
100
AcDbEntity
  8
Layer_1
 62
7
100
AcDbSpline
 70
8
 71
3
 72
8
 73
4
 74
0
 40
0
 40
0
 40
0
 40
0
 40
1
 40
1
 40
1
 40
1
 10
397.698084
 20
129.073586
 30
0.0
 10
396.950308
 20
129.383325
 30
0.0
 10
396.089581
 20
129.212115
 30
0.0
 10
395.517258
 20
128.639792
 30
0.0
  0
SPLINE
  5
1e9
100
AcDbEntity
  8
Layer_1
 62
7
100
AcDbSpline
 70
8
 71
3
 72
8
 73
4
 74
0
 40
0
 40
0
 40
0
 40
0
 40
1
 40
1
 40
1
 40
1
 10
395.517258
 20
128.639792
 30
0.0
 10
394.944935
 20
128.067469
 30
0.0
 10
394.773725
 20
127.206742
 30
0.0
 10
395.083464
 20
126.458966
 30
0.0
  0
SPLINE
  5
1ea
100
AcDbEntity
  8
Layer_1
 62
7
100
AcDbSpline
 70
8
 71
3
 72
8
 73
4
 74
0
 40
0
 40
0
 40
0
 40
0
 40
1
 40
1
 40
1
 40
1
 10
395.083464
 20
126.458966
 30
0.0
 10
395.393203
 20
125.711189
 30
0.0
 10
396.122893
 20
125.223626
 30
0.0
 10
396.932280
 20
125.223626
 30
0.0
  0
SPLINE
  5
1eb
100
AcDbEntity
  8
Layer_1
 62
7
100
AcDbSpline
 70
8
 71
3
 72
8
 73
4
 74
0
 40
0
 40
0
 40
0
 40
0
 40
1
 40
1
 40
1
 40
1
 10
396.932280
 20
125.223626
 30
0.0
 10
397.463016
 20
125.223626
 30
0.0
 10
397.972015
 20
125.434461
 30
0.0
 10
398.347302
 20
125.809748
 30
0.0
  0
SPLINE
  5
1ec
100
AcDbEntity
  8
Layer_1
 62
7
100
AcDbSpline
 70
8
 71
3
 72
8
 73
4
 74
0
 40
0
 40
0
 40
0
 40
0
 40
1
 40
1
 40
1
 40
1
 10
398.347302
 20
125.809748
 30
0.0
 10
398.722589
 20
126.185035
 30
0.0
 10
398.933424
 20
126.694034
 30
0.0
 10
398.933424
 20
127.224770
 30
0.0
  0
LWPOLYLINE
  5
1ed
100
AcDbEntity
  8
Layer_1
 62
7
100
AcDbPolyline
 90
1
 70
1
 10
398.933424
 20
111.224770
 30
0.0
  0
SPLINE
  5
1ee
100
AcDbEntity
  8
Layer_1
 62
7
100
AcDbSpline
 70
8
 71
3
 72
8
 73
4
 74
0
 40
0
 40
0
 40
0
 40
0
 40
1
 40
1
 40
1
 40
1
 10
398.933424
 20
143.224770
 30
0.0
 10
398.933424
 20
144.034157
 30
0.0
 10
398.445861
 20
144.763847
 30
0.0
 10
397.698084
 20
145.073586
 30
0.0
  0
SPLINE
  5
1ef
100
AcDbEntity
  8
Layer_1
 62
7
100
AcDbSpline
 70
8
 71
3
 72
8
 73
4
 74
0
 40
0
 40
0
 40
0
 40
0
 40
1
 40
1
 40
1
 40
1
 10
397.698084
 20
145.073586
 30
0.0
 10
396.950308
 20
145.383325
 30
0.0
 10
396.089581
 20
145.212115
 30
0.0
 10
395.517258
 20
144.639792
 30
0.0
  0
SPLINE
  5
1f0
100
AcDbEntity
  8
Layer_1
 62
7
100
AcDbSpline
 70
8
 71
3
 72
8
 73
4
 74
0
 40
0
 40
0
 40
0
 40
0
 40
1
 40
1
 40
1
 40
1
 10
395.517258
 20
144.639792
 30
0.0
 10
394.944935
 20
144.067469
 30
0.0
 10
394.773725
 20
143.206742
 30
0.0
 10
395.083464
 20
142.458966
 30
0.0
  0
SPLINE
  5
1f1
100
AcDbEntity
  8
Layer_1
 62
7
100
AcDbSpline
 70
8
 71
3
 72
8
 73
4
 74
0
 40
0
 40
0
 40
0
 40
0
 40
1
 40
1
 40
1
 40
1
 10
395.083464
 20
142.458966
 30
0.0
 10
395.393203
 20
141.711189
 30
0.0
 10
396.122893
 20
141.223626
 30
0.0
 10
396.932280
 20
141.223626
 30
0.0
  0
SPLINE
  5
1f2
100
AcDbEntity
  8
Layer_1
 62
7
100
AcDbSpline
 70
8
 71
3
 72
8
 73
4
 74
0
 40
0
 40
0
 40
0
 40
0
 40
1
 40
1
 40
1
 40
1
 10
396.932280
 20
141.223626
 30
0.0
 10
397.463016
 20
141.223626
 30
0.0
 10
397.972015
 20
141.434461
 30
0.0
 10
398.347302
 20
141.809748
 30
0.0
  0
SPLINE
  5
1f3
100
AcDbEntity
  8
Layer_1
 62
7
100
AcDbSpline
 70
8
 71
3
 72
8
 73
4
 74
0
 40
0
 40
0
 40
0
 40
0
 40
1
 40
1
 40
1
 40
1
 10
398.347302
 20
141.809748
 30
0.0
 10
398.722589
 20
142.185035
 30
0.0
 10
398.933424
 20
142.694034
 30
0.0
 10
398.933424
 20
143.224770
 30
0.0
  0
LWPOLYLINE
  5
1f4
100
AcDbEntity
  8
Layer_1
 62
7
100
AcDbPolyline
 90
1
 70
1
 10
398.933424
 20
127.224770
 30
0.0
  0
SPLINE
  5
1f5
100
AcDbEntity
  8
Layer_1
 62
7
100
AcDbSpline
 70
8
 71
3
 72
8
 73
4
 74
0
 40
0
 40
0
 40
0
 40
0
 40
1
 40
1
 40
1
 40
1
 10
26.934424
 20
95.219770
 30
0.0
 10
26.934424
 20
96.029157
 30
0.0
 10
26.446861
 20
96.758847
 30
0.0
 10
25.699084
 20
97.068586
 30
0.0
  0
SPLINE
  5
1f6
100
AcDbEntity
  8
Layer_1
 62
7
100
AcDbSpline
 70
8
 71
3
 72
8
 73
4
 74
0
 40
0
 40
0
 40
0
 40
0
 40
1
 40
1
 40
1
 40
1
 10
25.699084
 20
97.068586
 30
0.0
 10
24.951308
 20
97.378325
 30
0.0
 10
24.090581
 20
97.207115
 30
0.0
 10
23.518258
 20
96.634792
 30
0.0
  0
SPLINE
  5
1f7
100
AcDbEntity
  8
Layer_1
 62
7
100
AcDbSpline
 70
8
 71
3
 72
8
 73
4
 74
0
 40
0
 40
0
 40
0
 40
0
 40
1
 40
1
 40
1
 40
1
 10
23.518258
 20
96.634792
 30
0.0
 10
22.945935
 20
96.062469
 30
0.0
 10
22.774725
 20
95.201742
 30
0.0
 10
23.084464
 20
94.453966
 30
0.0
  0
SPLINE
  5
1f8
100
AcDbEntity
  8
Layer_1
 62
7
100
AcDbSpline
 70
8
 71
3
 72
8
 73
4
 74
0
 40
0
 40
0
 40
0
 40
0
 40
1
 40
1
 40
1
 40
1
 10
23.084464
 20
94.453966
 30
0.0
 10
23.394203
 20
93.706189
 30
0.0
 10
24.123893
 20
93.218626
 30
0.0
 10
24.933280
 20
93.218626
 30
0.0
  0
SPLINE
  5
1f9
100
AcDbEntity
  8
Layer_1
 62
7
100
AcDbSpline
 70
8
 71
3
 72
8
 73
4
 74
0
 40
0
 40
0
 40
0
 40
0
 40
1
 40
1
 40
1
 40
1
 10
24.933280
 20
93.218626
 30
0.0
 10
25.464016
 20
93.218626
 30
0.0
 10
25.973015
 20
93.429461
 30
0.0
 10
26.348302
 20
93.804748
 30
0.0
  0
SPLINE
  5
1fa
100
AcDbEntity
  8
Layer_1
 62
7
100
AcDbSpline
 70
8
 71
3
 72
8
 73
4
 74
0
 40
0
 40
0
 40
0
 40
0
 40
1
 40
1
 40
1
 40
1
 10
26.348302
 20
93.804748
 30
0.0
 10
26.723589
 20
94.180035
 30
0.0
 10
26.934424
 20
94.689034
 30
0.0
 10
26.934424
 20
95.219770
 30
0.0
  0
LWPOLYLINE
  5
1fb
100
AcDbEntity
  8
Layer_1
 62
7
100
AcDbPolyline
 90
1
 70
1
 10
398.933424
 20
143.224770
 30
0.0
  0
SPLINE
  5
1fc
100
AcDbEntity
  8
Layer_1
 62
7
100
AcDbSpline
 70
8
 71
3
 72
8
 73
4
 74
0
 40
0
 40
0
 40
0
 40
0
 40
1
 40
1
 40
1
 40
1
 10
26.934424
 20
111.219770
 30
0.0
 10
26.934424
 20
112.029157
 30
0.0
 10
26.446861
 20
112.758847
 30
0.0
 10
25.699084
 20
113.068586
 30
0.0
  0
SPLINE
  5
1fd
100
AcDbEntity
  8
Layer_1
 62
7
100
AcDbSpline
 70
8
 71
3
 72
8
 73
4
 74
0
 40
0
 40
0
 40
0
 40
0
 40
1
 40
1
 40
1
 40
1
 10
25.699084
 20
113.068586
 30
0.0
 10
24.951308
 20
113.378325
 30
0.0
 10
24.090581
 20
113.207115
 30
0.0
 10
23.518258
 20
112.634792
 30
0.0
  0
SPLINE
  5
1fe
100
AcDbEntity
  8
Layer_1
 62
7
100
AcDbSpline
 70
8
 71
3
 72
8
 73
4
 74
0
 40
0
 40
0
 40
0
 40
0
 40
1
 40
1
 40
1
 40
1
 10
23.518258
 20
112.634792
 30
0.0
 10
22.945935
 20
112.062469
 30
0.0
 10
22.774725
 20
111.201742
 30
0.0
 10
23.084464
 20
110.453966
 30
0.0
  0
SPLINE
  5
1ff
100
AcDbEntity
  8
Layer_1
 62
7
100
AcDbSpline
 70
8
 71
3
 72
8
 73
4
 74
0
 40
0
 40
0
 40
0
 40
0
 40
1
 40
1
 40
1
 40
1
 10
23.084464
 20
110.453966
 30
0.0
 10
23.394203
 20
109.706189
 30
0.0
 10
24.123893
 20
109.218627
 30
0.0
 10
24.933280
 20
109.218627
 30
0.0
  0
SPLINE
  5
200
100
AcDbEntity
  8
Layer_1
 62
7
100
AcDbSpline
 70
8
 71
3
 72
8
 73
4
 74
0
 40
0
 40
0
 40
0
 40
0
 40
1
 40
1
 40
1
 40
1
 10
24.933280
 20
109.218627
 30
0.0
 10
25.464016
 20
109.218627
 30
0.0
 10
25.973015
 20
109.429461
 30
0.0
 10
26.348302
 20
109.804748
 30
0.0
  0
SPLINE
  5
201
100
AcDbEntity
  8
Layer_1
 62
7
100
AcDbSpline
 70
8
 71
3
 72
8
 73
4
 74
0
 40
0
 40
0
 40
0
 40
0
 40
1
 40
1
 40
1
 40
1
 10
26.348302
 20
109.804748
 30
0.0
 10
26.723589
 20
110.180035
 30
0.0
 10
26.934424
 20
110.689034
 30
0.0
 10
26.934424
 20
111.219770
 30
0.0
  0
LWPOLYLINE
  5
202
100
AcDbEntity
  8
Layer_1
 62
7
100
AcDbPolyline
 90
1
 70
1
 10
26.934424
 20
95.219770
 30
0.0
  0
SPLINE
  5
203
100
AcDbEntity
  8
Layer_1
 62
7
100
AcDbSpline
 70
8
 71
3
 72
8
 73
4
 74
0
 40
0
 40
0
 40
0
 40
0
 40
1
 40
1
 40
1
 40
1
 10
26.934424
 20
127.219770
 30
0.0
 10
26.934424
 20
128.029157
 30
0.0
 10
26.446861
 20
128.758847
 30
0.0
 10
25.699084
 20
129.068586
 30
0.0
  0
SPLINE
  5
204
100
AcDbEntity
  8
Layer_1
 62
7
100
AcDbSpline
 70
8
 71
3
 72
8
 73
4
 74
0
 40
0
 40
0
 40
0
 40
0
 40
1
 40
1
 40
1
 40
1
 10
25.699084
 20
129.068586
 30
0.0
 10
24.951308
 20
129.378325
 30
0.0
 10
24.090581
 20
129.207115
 30
0.0
 10
23.518258
 20
128.634792
 30
0.0
  0
SPLINE
  5
205
100
AcDbEntity
  8
Layer_1
 62
7
100
AcDbSpline
 70
8
 71
3
 72
8
 73
4
 74
0
 40
0
 40
0
 40
0
 40
0
 40
1
 40
1
 40
1
 40
1
 10
23.518258
 20
128.634792
 30
0.0
 10
22.945935
 20
128.062469
 30
0.0
 10
22.774725
 20
127.201742
 30
0.0
 10
23.084464
 20
126.453966
 30
0.0
  0
SPLINE
  5
206
100
AcDbEntity
  8
Layer_1
 62
7
100
AcDbSpline
 70
8
 71
3
 72
8
 73
4
 74
0
 40
0
 40
0
 40
0
 40
0
 40
1
 40
1
 40
1
 40
1
 10
23.084464
 20
126.453966
 30
0.0
 10
23.394203
 20
125.706189
 30
0.0
 10
24.123893
 20
125.218627
 30
0.0
 10
24.933280
 20
125.218627
 30
0.0
  0
SPLINE
  5
207
100
AcDbEntity
  8
Layer_1
 62
7
100
AcDbSpline
 70
8
 71
3
 72
8
 73
4
 74
0
 40
0
 40
0
 40
0
 40
0
 40
1
 40
1
 40
1
 40
1
 10
24.933280
 20
125.218627
 30
0.0
 10
25.464016
 20
125.218627
 30
0.0
 10
25.973015
 20
125.429461
 30
0.0
 10
26.348302
 20
125.804748
 30
0.0
  0
SPLINE
  5
208
100
AcDbEntity
  8
Layer_1
 62
7
100
AcDbSpline
 70
8
 71
3
 72
8
 73
4
 74
0
 40
0
 40
0
 40
0
 40
0
 40
1
 40
1
 40
1
 40
1
 10
26.348302
 20
125.804748
 30
0.0
 10
26.723589
 20
126.180035
 30
0.0
 10
26.934424
 20
126.689034
 30
0.0
 10
26.934424
 20
127.219770
 30
0.0
  0
LWPOLYLINE
  5
209
100
AcDbEntity
  8
Layer_1
 62
7
100
AcDbPolyline
 90
1
 70
1
 10
26.934424
 20
111.219770
 30
0.0
  0
SPLINE
  5
20a
100
AcDbEntity
  8
Layer_1
 62
7
100
AcDbSpline
 70
8
 71
3
 72
8
 73
4
 74
0
 40
0
 40
0
 40
0
 40
0
 40
1
 40
1
 40
1
 40
1
 10
26.934424
 20
143.219770
 30
0.0
 10
26.934424
 20
144.029157
 30
0.0
 10
26.446861
 20
144.758847
 30
0.0
 10
25.699084
 20
145.068586
 30
0.0
  0
SPLINE
  5
20b
100
AcDbEntity
  8
Layer_1
 62
7
100
AcDbSpline
 70
8
 71
3
 72
8
 73
4
 74
0
 40
0
 40
0
 40
0
 40
0
 40
1
 40
1
 40
1
 40
1
 10
25.699084
 20
145.068586
 30
0.0
 10
24.951308
 20
145.378325
 30
0.0
 10
24.090581
 20
145.207115
 30
0.0
 10
23.518258
 20
144.634792
 30
0.0
  0
SPLINE
  5
20c
100
AcDbEntity
  8
Layer_1
 62
7
100
AcDbSpline
 70
8
 71
3
 72
8
 73
4
 74
0
 40
0
 40
0
 40
0
 40
0
 40
1
 40
1
 40
1
 40
1
 10
23.518258
 20
144.634792
 30
0.0
 10
22.945935
 20
144.062469
 30
0.0
 10
22.774725
 20
143.201742
 30
0.0
 10
23.084464
 20
142.453966
 30
0.0
  0
SPLINE
  5
20d
100
AcDbEntity
  8
Layer_1
 62
7
100
AcDbSpline
 70
8
 71
3
 72
8
 73
4
 74
0
 40
0
 40
0
 40
0
 40
0
 40
1
 40
1
 40
1
 40
1
 10
23.084464
 20
142.453966
 30
0.0
 10
23.394203
 20
141.706189
 30
0.0
 10
24.123893
 20
141.218627
 30
0.0
 10
24.933280
 20
141.218627
 30
0.0
  0
SPLINE
  5
20e
100
AcDbEntity
  8
Layer_1
 62
7
100
AcDbSpline
 70
8
 71
3
 72
8
 73
4
 74
0
 40
0
 40
0
 40
0
 40
0
 40
1
 40
1
 40
1
 40
1
 10
24.933280
 20
141.218627
 30
0.0
 10
25.464016
 20
141.218627
 30
0.0
 10
25.973015
 20
141.429461
 30
0.0
 10
26.348302
 20
141.804748
 30
0.0
  0
SPLINE
  5
20f
100
AcDbEntity
  8
Layer_1
 62
7
100
AcDbSpline
 70
8
 71
3
 72
8
 73
4
 74
0
 40
0
 40
0
 40
0
 40
0
 40
1
 40
1
 40
1
 40
1
 10
26.348302
 20
141.804748
 30
0.0
 10
26.723589
 20
142.180035
 30
0.0
 10
26.934424
 20
142.689034
 30
0.0
 10
26.934424
 20
143.219770
 30
0.0
  0
LWPOLYLINE
  5
210
100
AcDbEntity
  8
Layer_1
 62
7
100
AcDbPolyline
 90
1
 70
1
 10
26.934424
 20
127.219770
 30
0.0
  0
SPLINE
  5
211
100
AcDbEntity
  8
Layer_1
 62
7
100
AcDbSpline
 70
8
 71
3
 72
8
 73
4
 74
0
 40
0
 40
0
 40
0
 40
0
 40
1
 40
1
 40
1
 40
1
 10
306.933160
 20
93.791314
 30
0.0
 10
306.123773
 20
93.791314
 30
0.0
 10
305.394083
 20
93.303751
 30
0.0
 10
305.084344
 20
92.555974
 30
0.0
  0
SPLINE
  5
212
100
AcDbEntity
  8
Layer_1
 62
7
100
AcDbSpline
 70
8
 71
3
 72
8
 73
4
 74
0
 40
0
 40
0
 40
0
 40
0
 40
1
 40
1
 40
1
 40
1
 10
305.084344
 20
92.555974
 30
0.0
 10
304.774605
 20
91.808198
 30
0.0
 10
304.945815
 20
90.947471
 30
0.0
 10
305.518138
 20
90.375148
 30
0.0
  0
SPLINE
  5
213
100
AcDbEntity
  8
Layer_1
 62
7
100
AcDbSpline
 70
8
 71
3
 72
8
 73
4
 74
0
 40
0
 40
0
 40
0
 40
0
 40
1
 40
1
 40
1
 40
1
 10
305.518138
 20
90.375148
 30
0.0
 10
306.090461
 20
89.802825
 30
0.0
 10
306.951188
 20
89.631615
 30
0.0
 10
307.698964
 20
89.941354
 30
0.0
  0
SPLINE
  5
214
100
AcDbEntity
  8
Layer_1
 62
7
100
AcDbSpline
 70
8
 71
3
 72
8
 73
4
 74
0
 40
0
 40
0
 40
0
 40
0
 40
1
 40
1
 40
1
 40
1
 10
307.698964
 20
89.941354
 30
0.0
 10
308.446741
 20
90.251093
 30
0.0
 10
308.934303
 20
90.980783
 30
0.0
 10
308.934303
 20
91.790170
 30
0.0
  0
SPLINE
  5
215
100
AcDbEntity
  8
Layer_1
 62
7
100
AcDbSpline
 70
8
 71
3
 72
8
 73
4
 74
0
 40
0
 40
0
 40
0
 40
0
 40
1
 40
1
 40
1
 40
1
 10
308.934303
 20
91.790170
 30
0.0
 10
308.934303
 20
92.320906
 30
0.0
 10
308.723469
 20
92.829905
 30
0.0
 10
308.348182
 20
93.205192
 30
0.0
  0
SPLINE
  5
216
100
AcDbEntity
  8
Layer_1
 62
7
100
AcDbSpline
 70
8
 71
3
 72
8
 73
4
 74
0
 40
0
 40
0
 40
0
 40
0
 40
1
 40
1
 40
1
 40
1
 10
308.348182
 20
93.205192
 30
0.0
 10
307.972895
 20
93.580479
 30
0.0
 10
307.463896
 20
93.791314
 30
0.0
 10
306.933160
 20
93.791314
 30
0.0
  0
LWPOLYLINE
  5
217
100
AcDbEntity
  8
Layer_1
 62
7
100
AcDbPolyline
 90
1
 70
1
 10
26.934424
 20
143.219770
 30
0.0
  0
SPLINE
  5
218
100
AcDbEntity
  8
Layer_1
 62
7
100
AcDbSpline
 70
8
 71
3
 72
8
 73
4
 74
0
 40
0
 40
0
 40
0
 40
0
 40
1
 40
1
 40
1
 40
1
 10
290.933160
 20
93.791314
 30
0.0
 10
290.123773
 20
93.791314
 30
0.0
 10
289.394083
 20
93.303751
 30
0.0
 10
289.084344
 20
92.555974
 30
0.0
  0
SPLINE
  5
219
100
AcDbEntity
  8
Layer_1
 62
7
100
AcDbSpline
 70
8
 71
3
 72
8
 73
4
 74
0
 40
0
 40
0
 40
0
 40
0
 40
1
 40
1
 40
1
 40
1
 10
289.084344
 20
92.555974
 30
0.0
 10
288.774605
 20
91.808198
 30
0.0
 10
288.945815
 20
90.947471
 30
0.0
 10
289.518138
 20
90.375148
 30
0.0
  0
SPLINE
  5
21a
100
AcDbEntity
  8
Layer_1
 62
7
100
AcDbSpline
 70
8
 71
3
 72
8
 73
4
 74
0
 40
0
 40
0
 40
0
 40
0
 40
1
 40
1
 40
1
 40
1
 10
289.518138
 20
90.375148
 30
0.0
 10
290.090461
 20
89.802825
 30
0.0
 10
290.951188
 20
89.631615
 30
0.0
 10
291.698964
 20
89.941354
 30
0.0
  0
SPLINE
  5
21b
100
AcDbEntity
  8
Layer_1
 62
7
100
AcDbSpline
 70
8
 71
3
 72
8
 73
4
 74
0
 40
0
 40
0
 40
0
 40
0
 40
1
 40
1
 40
1
 40
1
 10
291.698964
 20
89.941354
 30
0.0
 10
292.446741
 20
90.251093
 30
0.0
 10
292.934303
 20
90.980783
 30
0.0
 10
292.934303
 20
91.790170
 30
0.0
  0
SPLINE
  5
21c
100
AcDbEntity
  8
Layer_1
 62
7
100
AcDbSpline
 70
8
 71
3
 72
8
 73
4
 74
0
 40
0
 40
0
 40
0
 40
0
 40
1
 40
1
 40
1
 40
1
 10
292.934303
 20
91.790170
 30
0.0
 10
292.934303
 20
92.320906
 30
0.0
 10
292.723469
 20
92.829905
 30
0.0
 10
292.348182
 20
93.205192
 30
0.0
  0
SPLINE
  5
21d
100
AcDbEntity
  8
Layer_1
 62
7
100
AcDbSpline
 70
8
 71
3
 72
8
 73
4
 74
0
 40
0
 40
0
 40
0
 40
0
 40
1
 40
1
 40
1
 40
1
 10
292.348182
 20
93.205192
 30
0.0
 10
291.972895
 20
93.580479
 30
0.0
 10
291.463896
 20
93.791314
 30
0.0
 10
290.933160
 20
93.791314
 30
0.0
  0
LWPOLYLINE
  5
21e
100
AcDbEntity
  8
Layer_1
 62
7
100
AcDbPolyline
 90
1
 70
1
 10
306.933160
 20
93.791314
 30
0.0
  0
SPLINE
  5
21f
100
AcDbEntity
  8
Layer_1
 62
7
100
AcDbSpline
 70
8
 71
3
 72
8
 73
4
 74
0
 40
0
 40
0
 40
0
 40
0
 40
1
 40
1
 40
1
 40
1
 10
274.933160
 20
93.791314
 30
0.0
 10
274.123773
 20
93.791314
 30
0.0
 10
273.394083
 20
93.303751
 30
0.0
 10
273.084344
 20
92.555974
 30
0.0
  0
SPLINE
  5
220
100
AcDbEntity
  8
Layer_1
 62
7
100
AcDbSpline
 70
8
 71
3
 72
8
 73
4
 74
0
 40
0
 40
0
 40
0
 40
0
 40
1
 40
1
 40
1
 40
1
 10
273.084344
 20
92.555974
 30
0.0
 10
272.774605
 20
91.808198
 30
0.0
 10
272.945815
 20
90.947471
 30
0.0
 10
273.518138
 20
90.375148
 30
0.0
  0
SPLINE
  5
221
100
AcDbEntity
  8
Layer_1
 62
7
100
AcDbSpline
 70
8
 71
3
 72
8
 73
4
 74
0
 40
0
 40
0
 40
0
 40
0
 40
1
 40
1
 40
1
 40
1
 10
273.518138
 20
90.375148
 30
0.0
 10
274.090461
 20
89.802825
 30
0.0
 10
274.951188
 20
89.631615
 30
0.0
 10
275.698964
 20
89.941354
 30
0.0
  0
SPLINE
  5
222
100
AcDbEntity
  8
Layer_1
 62
7
100
AcDbSpline
 70
8
 71
3
 72
8
 73
4
 74
0
 40
0
 40
0
 40
0
 40
0
 40
1
 40
1
 40
1
 40
1
 10
275.698964
 20
89.941354
 30
0.0
 10
276.446741
 20
90.251093
 30
0.0
 10
276.934303
 20
90.980783
 30
0.0
 10
276.934303
 20
91.790170
 30
0.0
  0
SPLINE
  5
223
100
AcDbEntity
  8
Layer_1
 62
7
100
AcDbSpline
 70
8
 71
3
 72
8
 73
4
 74
0
 40
0
 40
0
 40
0
 40
0
 40
1
 40
1
 40
1
 40
1
 10
276.934303
 20
91.790170
 30
0.0
 10
276.934303
 20
92.320906
 30
0.0
 10
276.723469
 20
92.829905
 30
0.0
 10
276.348182
 20
93.205192
 30
0.0
  0
SPLINE
  5
224
100
AcDbEntity
  8
Layer_1
 62
7
100
AcDbSpline
 70
8
 71
3
 72
8
 73
4
 74
0
 40
0
 40
0
 40
0
 40
0
 40
1
 40
1
 40
1
 40
1
 10
276.348182
 20
93.205192
 30
0.0
 10
275.972895
 20
93.580479
 30
0.0
 10
275.463896
 20
93.791314
 30
0.0
 10
274.933160
 20
93.791314
 30
0.0
  0
LWPOLYLINE
  5
225
100
AcDbEntity
  8
Layer_1
 62
7
100
AcDbPolyline
 90
1
 70
1
 10
290.933160
 20
93.791314
 30
0.0
  0
SPLINE
  5
226
100
AcDbEntity
  8
Layer_1
 62
7
100
AcDbSpline
 70
8
 71
3
 72
8
 73
4
 74
0
 40
0
 40
0
 40
0
 40
0
 40
1
 40
1
 40
1
 40
1
 10
258.933160
 20
93.791314
 30
0.0
 10
257.827959
 20
93.791313
 30
0.0
 10
256.932017
 20
92.895371
 30
0.0
 10
256.932017
 20
91.790170
 30
0.0
  0
SPLINE
  5
227
100
AcDbEntity
  8
Layer_1
 62
7
100
AcDbSpline
 70
8
 71
3
 72
8
 73
4
 74
0
 40
0
 40
0
 40
0
 40
0
 40
1
 40
1
 40
1
 40
1
 10
256.932017
 20
91.790170
 30
0.0
 10
256.932017
 20
90.684969
 30
0.0
 10
257.827959
 20
89.789027
 30
0.0
 10
258.933160
 20
89.789027
 30
0.0
  0
SPLINE
  5
228
100
AcDbEntity
  8
Layer_1
 62
7
100
AcDbSpline
 70
8
 71
3
 72
8
 73
4
 74
0
 40
0
 40
0
 40
0
 40
0
 40
1
 40
1
 40
1
 40
1
 10
258.933160
 20
89.789027
 30
0.0
 10
260.038361
 20
89.789027
 30
0.0
 10
260.934304
 20
90.684969
 30
0.0
 10
260.934304
 20
91.790170
 30
0.0
  0
SPLINE
  5
229
100
AcDbEntity
  8
Layer_1
 62
7
100
AcDbSpline
 70
8
 71
3
 72
8
 73
4
 74
0
 40
0
 40
0
 40
0
 40
0
 40
1
 40
1
 40
1
 40
1
 10
260.934304
 20
91.790170
 30
0.0
 10
260.934304
 20
92.320906
 30
0.0
 10
260.723469
 20
92.829905
 30
0.0
 10
260.348182
 20
93.205192
 30
0.0
  0
SPLINE
  5
22a
100
AcDbEntity
  8
Layer_1
 62
7
100
AcDbSpline
 70
8
 71
3
 72
8
 73
4
 74
0
 40
0
 40
0
 40
0
 40
0
 40
1
 40
1
 40
1
 40
1
 10
260.348182
 20
93.205192
 30
0.0
 10
259.972895
 20
93.580479
 30
0.0
 10
259.463896
 20
93.791314
 30
0.0
 10
258.933160
 20
93.791314
 30
0.0
  0
LWPOLYLINE
  5
22b
100
AcDbEntity
  8
Layer_1
 62
7
100
AcDbPolyline
 90
1
 70
1
 10
274.933160
 20
93.791314
 30
0.0
  0
SPLINE
  5
22c
100
AcDbEntity
  8
Layer_1
 62
7
100
AcDbSpline
 70
8
 71
3
 72
8
 73
4
 74
0
 40
0
 40
0
 40
0
 40
0
 40
1
 40
1
 40
1
 40
1
 10
242.933160
 20
93.791314
 30
0.0
 10
242.123773
 20
93.791314
 30
0.0
 10
241.394083
 20
93.303751
 30
0.0
 10
241.084344
 20
92.555974
 30
0.0
  0
SPLINE
  5
22d
100
AcDbEntity
  8
Layer_1
 62
7
100
AcDbSpline
 70
8
 71
3
 72
8
 73
4
 74
0
 40
0
 40
0
 40
0
 40
0
 40
1
 40
1
 40
1
 40
1
 10
241.084344
 20
92.555974
 30
0.0
 10
240.774605
 20
91.808198
 30
0.0
 10
240.945815
 20
90.947471
 30
0.0
 10
241.518138
 20
90.375148
 30
0.0
  0
SPLINE
  5
22e
100
AcDbEntity
  8
Layer_1
 62
7
100
AcDbSpline
 70
8
 71
3
 72
8
 73
4
 74
0
 40
0
 40
0
 40
0
 40
0
 40
1
 40
1
 40
1
 40
1
 10
241.518138
 20
90.375148
 30
0.0
 10
242.090461
 20
89.802825
 30
0.0
 10
242.951188
 20
89.631615
 30
0.0
 10
243.698964
 20
89.941354
 30
0.0
  0
SPLINE
  5
22f
100
AcDbEntity
  8
Layer_1
 62
7
100
AcDbSpline
 70
8
 71
3
 72
8
 73
4
 74
0
 40
0
 40
0
 40
0
 40
0
 40
1
 40
1
 40
1
 40
1
 10
243.698964
 20
89.941354
 30
0.0
 10
244.446741
 20
90.251093
 30
0.0
 10
244.934303
 20
90.980783
 30
0.0
 10
244.934303
 20
91.790170
 30
0.0
  0
SPLINE
  5
230
100
AcDbEntity
  8
Layer_1
 62
7
100
AcDbSpline
 70
8
 71
3
 72
8
 73
4
 74
0
 40
0
 40
0
 40
0
 40
0
 40
1
 40
1
 40
1
 40
1
 10
244.934303
 20
91.790170
 30
0.0
 10
244.934303
 20
92.320906
 30
0.0
 10
244.723469
 20
92.829905
 30
0.0
 10
244.348182
 20
93.205192
 30
0.0
  0
SPLINE
  5
231
100
AcDbEntity
  8
Layer_1
 62
7
100
AcDbSpline
 70
8
 71
3
 72
8
 73
4
 74
0
 40
0
 40
0
 40
0
 40
0
 40
1
 40
1
 40
1
 40
1
 10
244.348182
 20
93.205192
 30
0.0
 10
243.972895
 20
93.580479
 30
0.0
 10
243.463896
 20
93.791314
 30
0.0
 10
242.933160
 20
93.791314
 30
0.0
  0
LWPOLYLINE
  5
232
100
AcDbEntity
  8
Layer_1
 62
7
100
AcDbPolyline
 90
1
 70
1
 10
258.933160
 20
93.791314
 30
0.0
  0
SPLINE
  5
233
100
AcDbEntity
  8
Layer_1
 62
7
100
AcDbSpline
 70
8
 71
3
 72
8
 73
4
 74
0
 40
0
 40
0
 40
0
 40
0
 40
1
 40
1
 40
1
 40
1
 10
226.933160
 20
93.791314
 30
0.0
 10
226.123773
 20
93.791314
 30
0.0
 10
225.394083
 20
93.303751
 30
0.0
 10
225.084344
 20
92.555974
 30
0.0
  0
SPLINE
  5
234
100
AcDbEntity
  8
Layer_1
 62
7
100
AcDbSpline
 70
8
 71
3
 72
8
 73
4
 74
0
 40
0
 40
0
 40
0
 40
0
 40
1
 40
1
 40
1
 40
1
 10
225.084344
 20
92.555974
 30
0.0
 10
224.774605
 20
91.808198
 30
0.0
 10
224.945815
 20
90.947471
 30
0.0
 10
225.518138
 20
90.375148
 30
0.0
  0
SPLINE
  5
235
100
AcDbEntity
  8
Layer_1
 62
7
100
AcDbSpline
 70
8
 71
3
 72
8
 73
4
 74
0
 40
0
 40
0
 40
0
 40
0
 40
1
 40
1
 40
1
 40
1
 10
225.518138
 20
90.375148
 30
0.0
 10
226.090461
 20
89.802825
 30
0.0
 10
226.951188
 20
89.631615
 30
0.0
 10
227.698964
 20
89.941354
 30
0.0
  0
SPLINE
  5
236
100
AcDbEntity
  8
Layer_1
 62
7
100
AcDbSpline
 70
8
 71
3
 72
8
 73
4
 74
0
 40
0
 40
0
 40
0
 40
0
 40
1
 40
1
 40
1
 40
1
 10
227.698964
 20
89.941354
 30
0.0
 10
228.446741
 20
90.251093
 30
0.0
 10
228.934303
 20
90.980783
 30
0.0
 10
228.934303
 20
91.790170
 30
0.0
  0
SPLINE
  5
237
100
AcDbEntity
  8
Layer_1
 62
7
100
AcDbSpline
 70
8
 71
3
 72
8
 73
4
 74
0
 40
0
 40
0
 40
0
 40
0
 40
1
 40
1
 40
1
 40
1
 10
228.934303
 20
91.790170
 30
0.0
 10
228.934303
 20
92.320906
 30
0.0
 10
228.723469
 20
92.829905
 30
0.0
 10
228.348182
 20
93.205192
 30
0.0
  0
SPLINE
  5
238
100
AcDbEntity
  8
Layer_1
 62
7
100
AcDbSpline
 70
8
 71
3
 72
8
 73
4
 74
0
 40
0
 40
0
 40
0
 40
0
 40
1
 40
1
 40
1
 40
1
 10
228.348182
 20
93.205192
 30
0.0
 10
227.972895
 20
93.580479
 30
0.0
 10
227.463896
 20
93.791314
 30
0.0
 10
226.933160
 20
93.791314
 30
0.0
  0
LWPOLYLINE
  5
239
100
AcDbEntity
  8
Layer_1
 62
7
100
AcDbPolyline
 90
1
 70
1
 10
242.933160
 20
93.791314
 30
0.0
  0
SPLINE
  5
23a
100
AcDbEntity
  8
Layer_1
 62
7
100
AcDbSpline
 70
8
 71
3
 72
8
 73
4
 74
0
 40
0
 40
0
 40
0
 40
0
 40
1
 40
1
 40
1
 40
1
 10
210.933160
 20
93.791314
 30
0.0
 10
210.123773
 20
93.791314
 30
0.0
 10
209.394083
 20
93.303751
 30
0.0
 10
209.084344
 20
92.555974
 30
0.0
  0
SPLINE
  5
23b
100
AcDbEntity
  8
Layer_1
 62
7
100
AcDbSpline
 70
8
 71
3
 72
8
 73
4
 74
0
 40
0
 40
0
 40
0
 40
0
 40
1
 40
1
 40
1
 40
1
 10
209.084344
 20
92.555974
 30
0.0
 10
208.774605
 20
91.808198
 30
0.0
 10
208.945815
 20
90.947471
 30
0.0
 10
209.518138
 20
90.375148
 30
0.0
  0
SPLINE
  5
23c
100
AcDbEntity
  8
Layer_1
 62
7
100
AcDbSpline
 70
8
 71
3
 72
8
 73
4
 74
0
 40
0
 40
0
 40
0
 40
0
 40
1
 40
1
 40
1
 40
1
 10
209.518138
 20
90.375148
 30
0.0
 10
210.090461
 20
89.802825
 30
0.0
 10
210.951188
 20
89.631615
 30
0.0
 10
211.698964
 20
89.941354
 30
0.0
  0
SPLINE
  5
23d
100
AcDbEntity
  8
Layer_1
 62
7
100
AcDbSpline
 70
8
 71
3
 72
8
 73
4
 74
0
 40
0
 40
0
 40
0
 40
0
 40
1
 40
1
 40
1
 40
1
 10
211.698964
 20
89.941354
 30
0.0
 10
212.446741
 20
90.251093
 30
0.0
 10
212.934303
 20
90.980783
 30
0.0
 10
212.934303
 20
91.790170
 30
0.0
  0
SPLINE
  5
23e
100
AcDbEntity
  8
Layer_1
 62
7
100
AcDbSpline
 70
8
 71
3
 72
8
 73
4
 74
0
 40
0
 40
0
 40
0
 40
0
 40
1
 40
1
 40
1
 40
1
 10
212.934303
 20
91.790170
 30
0.0
 10
212.934303
 20
92.320906
 30
0.0
 10
212.723469
 20
92.829905
 30
0.0
 10
212.348182
 20
93.205192
 30
0.0
  0
SPLINE
  5
23f
100
AcDbEntity
  8
Layer_1
 62
7
100
AcDbSpline
 70
8
 71
3
 72
8
 73
4
 74
0
 40
0
 40
0
 40
0
 40
0
 40
1
 40
1
 40
1
 40
1
 10
212.348182
 20
93.205192
 30
0.0
 10
211.972895
 20
93.580479
 30
0.0
 10
211.463896
 20
93.791314
 30
0.0
 10
210.933160
 20
93.791314
 30
0.0
  0
LWPOLYLINE
  5
240
100
AcDbEntity
  8
Layer_1
 62
7
100
AcDbPolyline
 90
1
 70
1
 10
226.933160
 20
93.791314
 30
0.0
  0
SPLINE
  5
241
100
AcDbEntity
  8
Layer_1
 62
7
100
AcDbSpline
 70
8
 71
3
 72
8
 73
4
 74
0
 40
0
 40
0
 40
0
 40
0
 40
1
 40
1
 40
1
 40
1
 10
194.933160
 20
93.791314
 30
0.0
 10
194.123773
 20
93.791314
 30
0.0
 10
193.394083
 20
93.303751
 30
0.0
 10
193.084344
 20
92.555974
 30
0.0
  0
SPLINE
  5
242
100
AcDbEntity
  8
Layer_1
 62
7
100
AcDbSpline
 70
8
 71
3
 72
8
 73
4
 74
0
 40
0
 40
0
 40
0
 40
0
 40
1
 40
1
 40
1
 40
1
 10
193.084344
 20
92.555974
 30
0.0
 10
192.774605
 20
91.808198
 30
0.0
 10
192.945815
 20
90.947471
 30
0.0
 10
193.518138
 20
90.375148
 30
0.0
  0
SPLINE
  5
243
100
AcDbEntity
  8
Layer_1
 62
7
100
AcDbSpline
 70
8
 71
3
 72
8
 73
4
 74
0
 40
0
 40
0
 40
0
 40
0
 40
1
 40
1
 40
1
 40
1
 10
193.518138
 20
90.375148
 30
0.0
 10
194.090461
 20
89.802825
 30
0.0
 10
194.951188
 20
89.631615
 30
0.0
 10
195.698964
 20
89.941354
 30
0.0
  0
SPLINE
  5
244
100
AcDbEntity
  8
Layer_1
 62
7
100
AcDbSpline
 70
8
 71
3
 72
8
 73
4
 74
0
 40
0
 40
0
 40
0
 40
0
 40
1
 40
1
 40
1
 40
1
 10
195.698964
 20
89.941354
 30
0.0
 10
196.446741
 20
90.251093
 30
0.0
 10
196.934303
 20
90.980783
 30
0.0
 10
196.934303
 20
91.790170
 30
0.0
  0
SPLINE
  5
245
100
AcDbEntity
  8
Layer_1
 62
7
100
AcDbSpline
 70
8
 71
3
 72
8
 73
4
 74
0
 40
0
 40
0
 40
0
 40
0
 40
1
 40
1
 40
1
 40
1
 10
196.934303
 20
91.790170
 30
0.0
 10
196.934303
 20
92.320906
 30
0.0
 10
196.723469
 20
92.829905
 30
0.0
 10
196.348182
 20
93.205192
 30
0.0
  0
SPLINE
  5
246
100
AcDbEntity
  8
Layer_1
 62
7
100
AcDbSpline
 70
8
 71
3
 72
8
 73
4
 74
0
 40
0
 40
0
 40
0
 40
0
 40
1
 40
1
 40
1
 40
1
 10
196.348182
 20
93.205192
 30
0.0
 10
195.972895
 20
93.580479
 30
0.0
 10
195.463896
 20
93.791314
 30
0.0
 10
194.933160
 20
93.791314
 30
0.0
  0
LWPOLYLINE
  5
247
100
AcDbEntity
  8
Layer_1
 62
7
100
AcDbPolyline
 90
1
 70
1
 10
210.933160
 20
93.791314
 30
0.0
  0
SPLINE
  5
248
100
AcDbEntity
  8
Layer_1
 62
7
100
AcDbSpline
 70
8
 71
3
 72
8
 73
4
 74
0
 40
0
 40
0
 40
0
 40
0
 40
1
 40
1
 40
1
 40
1
 10
178.933160
 20
93.791314
 30
0.0
 10
178.123773
 20
93.791314
 30
0.0
 10
177.394083
 20
93.303751
 30
0.0
 10
177.084344
 20
92.555974
 30
0.0
  0
SPLINE
  5
249
100
AcDbEntity
  8
Layer_1
 62
7
100
AcDbSpline
 70
8
 71
3
 72
8
 73
4
 74
0
 40
0
 40
0
 40
0
 40
0
 40
1
 40
1
 40
1
 40
1
 10
177.084344
 20
92.555974
 30
0.0
 10
176.774605
 20
91.808198
 30
0.0
 10
176.945815
 20
90.947471
 30
0.0
 10
177.518138
 20
90.375148
 30
0.0
  0
SPLINE
  5
24a
100
AcDbEntity
  8
Layer_1
 62
7
100
AcDbSpline
 70
8
 71
3
 72
8
 73
4
 74
0
 40
0
 40
0
 40
0
 40
0
 40
1
 40
1
 40
1
 40
1
 10
177.518138
 20
90.375148
 30
0.0
 10
178.090461
 20
89.802825
 30
0.0
 10
178.951188
 20
89.631615
 30
0.0
 10
179.698964
 20
89.941354
 30
0.0
  0
SPLINE
  5
24b
100
AcDbEntity
  8
Layer_1
 62
7
100
AcDbSpline
 70
8
 71
3
 72
8
 73
4
 74
0
 40
0
 40
0
 40
0
 40
0
 40
1
 40
1
 40
1
 40
1
 10
179.698964
 20
89.941354
 30
0.0
 10
180.446741
 20
90.251093
 30
0.0
 10
180.934303
 20
90.980783
 30
0.0
 10
180.934303
 20
91.790170
 30
0.0
  0
SPLINE
  5
24c
100
AcDbEntity
  8
Layer_1
 62
7
100
AcDbSpline
 70
8
 71
3
 72
8
 73
4
 74
0
 40
0
 40
0
 40
0
 40
0
 40
1
 40
1
 40
1
 40
1
 10
180.934303
 20
91.790170
 30
0.0
 10
180.934303
 20
92.320906
 30
0.0
 10
180.723469
 20
92.829905
 30
0.0
 10
180.348182
 20
93.205192
 30
0.0
  0
SPLINE
  5
24d
100
AcDbEntity
  8
Layer_1
 62
7
100
AcDbSpline
 70
8
 71
3
 72
8
 73
4
 74
0
 40
0
 40
0
 40
0
 40
0
 40
1
 40
1
 40
1
 40
1
 10
180.348182
 20
93.205192
 30
0.0
 10
179.972895
 20
93.580479
 30
0.0
 10
179.463896
 20
93.791314
 30
0.0
 10
178.933160
 20
93.791314
 30
0.0
  0
LWPOLYLINE
  5
24e
100
AcDbEntity
  8
Layer_1
 62
7
100
AcDbPolyline
 90
1
 70
1
 10
194.933160
 20
93.791314
 30
0.0
  0
SPLINE
  5
24f
100
AcDbEntity
  8
Layer_1
 62
7
100
AcDbSpline
 70
8
 71
3
 72
8
 73
4
 74
0
 40
0
 40
0
 40
0
 40
0
 40
1
 40
1
 40
1
 40
1
 10
162.933160
 20
93.791314
 30
0.0
 10
162.123773
 20
93.791314
 30
0.0
 10
161.394083
 20
93.303751
 30
0.0
 10
161.084344
 20
92.555974
 30
0.0
  0
SPLINE
  5
250
100
AcDbEntity
  8
Layer_1
 62
7
100
AcDbSpline
 70
8
 71
3
 72
8
 73
4
 74
0
 40
0
 40
0
 40
0
 40
0
 40
1
 40
1
 40
1
 40
1
 10
161.084344
 20
92.555974
 30
0.0
 10
160.774605
 20
91.808198
 30
0.0
 10
160.945815
 20
90.947471
 30
0.0
 10
161.518138
 20
90.375148
 30
0.0
  0
SPLINE
  5
251
100
AcDbEntity
  8
Layer_1
 62
7
100
AcDbSpline
 70
8
 71
3
 72
8
 73
4
 74
0
 40
0
 40
0
 40
0
 40
0
 40
1
 40
1
 40
1
 40
1
 10
161.518138
 20
90.375148
 30
0.0
 10
162.090461
 20
89.802825
 30
0.0
 10
162.951188
 20
89.631615
 30
0.0
 10
163.698964
 20
89.941354
 30
0.0
  0
SPLINE
  5
252
100
AcDbEntity
  8
Layer_1
 62
7
100
AcDbSpline
 70
8
 71
3
 72
8
 73
4
 74
0
 40
0
 40
0
 40
0
 40
0
 40
1
 40
1
 40
1
 40
1
 10
163.698964
 20
89.941354
 30
0.0
 10
164.446741
 20
90.251093
 30
0.0
 10
164.934303
 20
90.980783
 30
0.0
 10
164.934303
 20
91.790170
 30
0.0
  0
SPLINE
  5
253
100
AcDbEntity
  8
Layer_1
 62
7
100
AcDbSpline
 70
8
 71
3
 72
8
 73
4
 74
0
 40
0
 40
0
 40
0
 40
0
 40
1
 40
1
 40
1
 40
1
 10
164.934303
 20
91.790170
 30
0.0
 10
164.934303
 20
92.320906
 30
0.0
 10
164.723469
 20
92.829905
 30
0.0
 10
164.348182
 20
93.205192
 30
0.0
  0
SPLINE
  5
254
100
AcDbEntity
  8
Layer_1
 62
7
100
AcDbSpline
 70
8
 71
3
 72
8
 73
4
 74
0
 40
0
 40
0
 40
0
 40
0
 40
1
 40
1
 40
1
 40
1
 10
164.348182
 20
93.205192
 30
0.0
 10
163.972895
 20
93.580479
 30
0.0
 10
163.463896
 20
93.791314
 30
0.0
 10
162.933160
 20
93.791314
 30
0.0
  0
LWPOLYLINE
  5
255
100
AcDbEntity
  8
Layer_1
 62
7
100
AcDbPolyline
 90
1
 70
1
 10
178.933160
 20
93.791314
 30
0.0
  0
SPLINE
  5
256
100
AcDbEntity
  8
Layer_1
 62
7
100
AcDbSpline
 70
8
 71
3
 72
8
 73
4
 74
0
 40
0
 40
0
 40
0
 40
0
 40
1
 40
1
 40
1
 40
1
 10
146.933160
 20
93.791314
 30
0.0
 10
146.123773
 20
93.791314
 30
0.0
 10
145.394083
 20
93.303751
 30
0.0
 10
145.084344
 20
92.555974
 30
0.0
  0
SPLINE
  5
257
100
AcDbEntity
  8
Layer_1
 62
7
100
AcDbSpline
 70
8
 71
3
 72
8
 73
4
 74
0
 40
0
 40
0
 40
0
 40
0
 40
1
 40
1
 40
1
 40
1
 10
145.084344
 20
92.555974
 30
0.0
 10
144.774605
 20
91.808198
 30
0.0
 10
144.945815
 20
90.947471
 30
0.0
 10
145.518138
 20
90.375148
 30
0.0
  0
SPLINE
  5
258
100
AcDbEntity
  8
Layer_1
 62
7
100
AcDbSpline
 70
8
 71
3
 72
8
 73
4
 74
0
 40
0
 40
0
 40
0
 40
0
 40
1
 40
1
 40
1
 40
1
 10
145.518138
 20
90.375148
 30
0.0
 10
146.090461
 20
89.802825
 30
0.0
 10
146.951188
 20
89.631615
 30
0.0
 10
147.698964
 20
89.941354
 30
0.0
  0
SPLINE
  5
259
100
AcDbEntity
  8
Layer_1
 62
7
100
AcDbSpline
 70
8
 71
3
 72
8
 73
4
 74
0
 40
0
 40
0
 40
0
 40
0
 40
1
 40
1
 40
1
 40
1
 10
147.698964
 20
89.941354
 30
0.0
 10
148.446741
 20
90.251093
 30
0.0
 10
148.934303
 20
90.980783
 30
0.0
 10
148.934303
 20
91.790170
 30
0.0
  0
SPLINE
  5
25a
100
AcDbEntity
  8
Layer_1
 62
7
100
AcDbSpline
 70
8
 71
3
 72
8
 73
4
 74
0
 40
0
 40
0
 40
0
 40
0
 40
1
 40
1
 40
1
 40
1
 10
148.934303
 20
91.790170
 30
0.0
 10
148.934303
 20
92.320906
 30
0.0
 10
148.723469
 20
92.829905
 30
0.0
 10
148.348182
 20
93.205192
 30
0.0
  0
SPLINE
  5
25b
100
AcDbEntity
  8
Layer_1
 62
7
100
AcDbSpline
 70
8
 71
3
 72
8
 73
4
 74
0
 40
0
 40
0
 40
0
 40
0
 40
1
 40
1
 40
1
 40
1
 10
148.348182
 20
93.205192
 30
0.0
 10
147.972895
 20
93.580479
 30
0.0
 10
147.463896
 20
93.791314
 30
0.0
 10
146.933160
 20
93.791314
 30
0.0
  0
LWPOLYLINE
  5
25c
100
AcDbEntity
  8
Layer_1
 62
7
100
AcDbPolyline
 90
1
 70
1
 10
162.933160
 20
93.791314
 30
0.0
  0
SPLINE
  5
25d
100
AcDbEntity
  8
Layer_1
 62
7
100
AcDbSpline
 70
8
 71
3
 72
8
 73
4
 74
0
 40
0
 40
0
 40
0
 40
0
 40
1
 40
1
 40
1
 40
1
 10
130.933160
 20
93.791314
 30
0.0
 10
130.123773
 20
93.791314
 30
0.0
 10
129.394083
 20
93.303751
 30
0.0
 10
129.084344
 20
92.555974
 30
0.0
  0
SPLINE
  5
25e
100
AcDbEntity
  8
Layer_1
 62
7
100
AcDbSpline
 70
8
 71
3
 72
8
 73
4
 74
0
 40
0
 40
0
 40
0
 40
0
 40
1
 40
1
 40
1
 40
1
 10
129.084344
 20
92.555974
 30
0.0
 10
128.774605
 20
91.808198
 30
0.0
 10
128.945815
 20
90.947471
 30
0.0
 10
129.518138
 20
90.375148
 30
0.0
  0
SPLINE
  5
25f
100
AcDbEntity
  8
Layer_1
 62
7
100
AcDbSpline
 70
8
 71
3
 72
8
 73
4
 74
0
 40
0
 40
0
 40
0
 40
0
 40
1
 40
1
 40
1
 40
1
 10
129.518138
 20
90.375148
 30
0.0
 10
130.090461
 20
89.802825
 30
0.0
 10
130.951188
 20
89.631615
 30
0.0
 10
131.698964
 20
89.941354
 30
0.0
  0
SPLINE
  5
260
100
AcDbEntity
  8
Layer_1
 62
7
100
AcDbSpline
 70
8
 71
3
 72
8
 73
4
 74
0
 40
0
 40
0
 40
0
 40
0
 40
1
 40
1
 40
1
 40
1
 10
131.698964
 20
89.941354
 30
0.0
 10
132.446741
 20
90.251093
 30
0.0
 10
132.934303
 20
90.980783
 30
0.0
 10
132.934303
 20
91.790170
 30
0.0
  0
SPLINE
  5
261
100
AcDbEntity
  8
Layer_1
 62
7
100
AcDbSpline
 70
8
 71
3
 72
8
 73
4
 74
0
 40
0
 40
0
 40
0
 40
0
 40
1
 40
1
 40
1
 40
1
 10
132.934303
 20
91.790170
 30
0.0
 10
132.934303
 20
92.895371
 30
0.0
 10
132.038361
 20
93.791314
 30
0.0
 10
130.933160
 20
93.791314
 30
0.0
  0
LWPOLYLINE
  5
262
100
AcDbEntity
  8
Layer_1
 62
7
100
AcDbPolyline
 90
1
 70
1
 10
146.933160
 20
93.791314
 30
0.0
  0
SPLINE
  5
263
100
AcDbEntity
  8
Layer_1
 62
7
100
AcDbSpline
 70
8
 71
3
 72
8
 73
4
 74
0
 40
0
 40
0
 40
0
 40
0
 40
1
 40
1
 40
1
 40
1
 10
114.933160
 20
93.791314
 30
0.0
 10
114.123773
 20
93.791314
 30
0.0
 10
113.394083
 20
93.303751
 30
0.0
 10
113.084344
 20
92.555974
 30
0.0
  0
SPLINE
  5
264
100
AcDbEntity
  8
Layer_1
 62
7
100
AcDbSpline
 70
8
 71
3
 72
8
 73
4
 74
0
 40
0
 40
0
 40
0
 40
0
 40
1
 40
1
 40
1
 40
1
 10
113.084344
 20
92.555974
 30
0.0
 10
112.774605
 20
91.808198
 30
0.0
 10
112.945815
 20
90.947471
 30
0.0
 10
113.518138
 20
90.375148
 30
0.0
  0
SPLINE
  5
265
100
AcDbEntity
  8
Layer_1
 62
7
100
AcDbSpline
 70
8
 71
3
 72
8
 73
4
 74
0
 40
0
 40
0
 40
0
 40
0
 40
1
 40
1
 40
1
 40
1
 10
113.518138
 20
90.375148
 30
0.0
 10
114.090461
 20
89.802825
 30
0.0
 10
114.951188
 20
89.631615
 30
0.0
 10
115.698964
 20
89.941354
 30
0.0
  0
SPLINE
  5
266
100
AcDbEntity
  8
Layer_1
 62
7
100
AcDbSpline
 70
8
 71
3
 72
8
 73
4
 74
0
 40
0
 40
0
 40
0
 40
0
 40
1
 40
1
 40
1
 40
1
 10
115.698964
 20
89.941354
 30
0.0
 10
116.446741
 20
90.251093
 30
0.0
 10
116.934303
 20
90.980783
 30
0.0
 10
116.934303
 20
91.790170
 30
0.0
  0
SPLINE
  5
267
100
AcDbEntity
  8
Layer_1
 62
7
100
AcDbSpline
 70
8
 71
3
 72
8
 73
4
 74
0
 40
0
 40
0
 40
0
 40
0
 40
1
 40
1
 40
1
 40
1
 10
116.934303
 20
91.790170
 30
0.0
 10
116.934303
 20
92.320906
 30
0.0
 10
116.723469
 20
92.829905
 30
0.0
 10
116.348182
 20
93.205192
 30
0.0
  0
SPLINE
  5
268
100
AcDbEntity
  8
Layer_1
 62
7
100
AcDbSpline
 70
8
 71
3
 72
8
 73
4
 74
0
 40
0
 40
0
 40
0
 40
0
 40
1
 40
1
 40
1
 40
1
 10
116.348182
 20
93.205192
 30
0.0
 10
115.972895
 20
93.580479
 30
0.0
 10
115.463896
 20
93.791314
 30
0.0
 10
114.933160
 20
93.791314
 30
0.0
  0
LWPOLYLINE
  5
269
100
AcDbEntity
  8
Layer_1
 62
7
100
AcDbPolyline
 90
1
 70
1
 10
130.933160
 20
93.791314
 30
0.0
  0
SPLINE
  5
26a
100
AcDbEntity
  8
Layer_1
 62
7
100
AcDbSpline
 70
8
 71
3
 72
8
 73
4
 74
0
 40
0
 40
0
 40
0
 40
0
 40
1
 40
1
 40
1
 40
1
 10
150.933310
 20
138.821263
 30
0.0
 10
150.123923
 20
138.821263
 30
0.0
 10
149.394233
 20
138.333701
 30
0.0
 10
149.084494
 20
137.585924
 30
0.0
  0
SPLINE
  5
26b
100
AcDbEntity
  8
Layer_1
 62
7
100
AcDbSpline
 70
8
 71
3
 72
8
 73
4
 74
0
 40
0
 40
0
 40
0
 40
0
 40
1
 40
1
 40
1
 40
1
 10
149.084494
 20
137.585924
 30
0.0
 10
148.774755
 20
136.838148
 30
0.0
 10
148.945965
 20
135.977421
 30
0.0
 10
149.518288
 20
135.405098
 30
0.0
  0
SPLINE
  5
26c
100
AcDbEntity
  8
Layer_1
 62
7
100
AcDbSpline
 70
8
 71
3
 72
8
 73
4
 74
0
 40
0
 40
0
 40
0
 40
0
 40
1
 40
1
 40
1
 40
1
 10
149.518288
 20
135.405098
 30
0.0
 10
150.090611
 20
134.832775
 30
0.0
 10
150.951338
 20
134.661565
 30
0.0
 10
151.699114
 20
134.971304
 30
0.0
  0
SPLINE
  5
26d
100
AcDbEntity
  8
Layer_1
 62
7
100
AcDbSpline
 70
8
 71
3
 72
8
 73
4
 74
0
 40
0
 40
0
 40
0
 40
0
 40
1
 40
1
 40
1
 40
1
 10
151.699114
 20
134.971304
 30
0.0
 10
152.446891
 20
135.281043
 30
0.0
 10
152.934454
 20
136.010733
 30
0.0
 10
152.934454
 20
136.820120
 30
0.0
  0
SPLINE
  5
26e
100
AcDbEntity
  8
Layer_1
 62
7
100
AcDbSpline
 70
8
 71
3
 72
8
 73
4
 74
0
 40
0
 40
0
 40
0
 40
0
 40
1
 40
1
 40
1
 40
1
 10
152.934454
 20
136.820120
 30
0.0
 10
152.934454
 20
137.350856
 30
0.0
 10
152.723619
 20
137.859855
 30
0.0
 10
152.348332
 20
138.235142
 30
0.0
  0
SPLINE
  5
26f
100
AcDbEntity
  8
Layer_1
 62
7
100
AcDbSpline
 70
8
 71
3
 72
8
 73
4
 74
0
 40
0
 40
0
 40
0
 40
0
 40
1
 40
1
 40
1
 40
1
 10
152.348332
 20
138.235142
 30
0.0
 10
151.973045
 20
138.610429
 30
0.0
 10
151.464046
 20
138.821263
 30
0.0
 10
150.933310
 20
138.821263
 30
0.0
  0
LWPOLYLINE
  5
270
100
AcDbEntity
  8
Layer_1
 62
7
100
AcDbPolyline
 90
1
 70
1
 10
114.933160
 20
93.791314
 30
0.0
  0
SPLINE
  5
271
100
AcDbEntity
  8
Layer_1
 62
7
100
AcDbSpline
 70
8
 71
3
 72
8
 73
4
 74
0
 40
0
 40
0
 40
0
 40
0
 40
1
 40
1
 40
1
 40
1
 10
200.933200
 20
138.821263
 30
0.0
 10
200.123813
 20
138.821263
 30
0.0
 10
199.394123
 20
138.333701
 30
0.0
 10
199.084384
 20
137.585924
 30
0.0
  0
SPLINE
  5
272
100
AcDbEntity
  8
Layer_1
 62
7
100
AcDbSpline
 70
8
 71
3
 72
8
 73
4
 74
0
 40
0
 40
0
 40
0
 40
0
 40
1
 40
1
 40
1
 40
1
 10
199.084384
 20
137.585924
 30
0.0
 10
198.774645
 20
136.838148
 30
0.0
 10
198.945855
 20
135.977421
 30
0.0
 10
199.518178
 20
135.405098
 30
0.0
  0
SPLINE
  5
273
100
AcDbEntity
  8
Layer_1
 62
7
100
AcDbSpline
 70
8
 71
3
 72
8
 73
4
 74
0
 40
0
 40
0
 40
0
 40
0
 40
1
 40
1
 40
1
 40
1
 10
199.518178
 20
135.405098
 30
0.0
 10
200.090501
 20
134.832775
 30
0.0
 10
200.951228
 20
134.661565
 30
0.0
 10
201.699004
 20
134.971304
 30
0.0
  0
SPLINE
  5
274
100
AcDbEntity
  8
Layer_1
 62
7
100
AcDbSpline
 70
8
 71
3
 72
8
 73
4
 74
0
 40
0
 40
0
 40
0
 40
0
 40
1
 40
1
 40
1
 40
1
 10
201.699004
 20
134.971304
 30
0.0
 10
202.446781
 20
135.281043
 30
0.0
 10
202.934344
 20
136.010733
 30
0.0
 10
202.934344
 20
136.820120
 30
0.0
  0
SPLINE
  5
275
100
AcDbEntity
  8
Layer_1
 62
7
100
AcDbSpline
 70
8
 71
3
 72
8
 73
4
 74
0
 40
0
 40
0
 40
0
 40
0
 40
1
 40
1
 40
1
 40
1
 10
202.934344
 20
136.820120
 30
0.0
 10
202.934344
 20
137.350856
 30
0.0
 10
202.723509
 20
137.859855
 30
0.0
 10
202.348222
 20
138.235142
 30
0.0
  0
SPLINE
  5
276
100
AcDbEntity
  8
Layer_1
 62
7
100
AcDbSpline
 70
8
 71
3
 72
8
 73
4
 74
0
 40
0
 40
0
 40
0
 40
0
 40
1
 40
1
 40
1
 40
1
 10
202.348222
 20
138.235142
 30
0.0
 10
201.972935
 20
138.610429
 30
0.0
 10
201.463936
 20
138.821263
 30
0.0
 10
200.933200
 20
138.821263
 30
0.0
  0
LWPOLYLINE
  5
277
100
AcDbEntity
  8
Layer_1
 62
7
100
AcDbPolyline
 90
1
 70
1
 10
150.933310
 20
138.821263
 30
0.0
  0
SPLINE
  5
278
100
AcDbEntity
  8
Layer_1
 62
7
100
AcDbSpline
 70
8
 71
3
 72
8
 73
4
 74
0
 40
0
 40
0
 40
0
 40
0
 40
1
 40
1
 40
1
 40
1
 10
200.933200
 20
106.821303
 30
0.0
 10
200.123813
 20
106.821303
 30
0.0
 10
199.394123
 20
106.333741
 30
0.0
 10
199.084384
 20
105.585964
 30
0.0
  0
SPLINE
  5
279
100
AcDbEntity
  8
Layer_1
 62
7
100
AcDbSpline
 70
8
 71
3
 72
8
 73
4
 74
0
 40
0
 40
0
 40
0
 40
0
 40
1
 40
1
 40
1
 40
1
 10
199.084384
 20
105.585964
 30
0.0
 10
198.774645
 20
104.838188
 30
0.0
 10
198.945855
 20
103.977461
 30
0.0
 10
199.518178
 20
103.405138
 30
0.0
  0
SPLINE
  5
27a
100
AcDbEntity
  8
Layer_1
 62
7
100
AcDbSpline
 70
8
 71
3
 72
8
 73
4
 74
0
 40
0
 40
0
 40
0
 40
0
 40
1
 40
1
 40
1
 40
1
 10
199.518178
 20
103.405138
 30
0.0
 10
200.090501
 20
102.832815
 30
0.0
 10
200.951228
 20
102.661605
 30
0.0
 10
201.699004
 20
102.971344
 30
0.0
  0
SPLINE
  5
27b
100
AcDbEntity
  8
Layer_1
 62
7
100
AcDbSpline
 70
8
 71
3
 72
8
 73
4
 74
0
 40
0
 40
0
 40
0
 40
0
 40
1
 40
1
 40
1
 40
1
 10
201.699004
 20
102.971344
 30
0.0
 10
202.446781
 20
103.281083
 30
0.0
 10
202.934344
 20
104.010773
 30
0.0
 10
202.934344
 20
104.820160
 30
0.0
  0
SPLINE
  5
27c
100
AcDbEntity
  8
Layer_1
 62
7
100
AcDbSpline
 70
8
 71
3
 72
8
 73
4
 74
0
 40
0
 40
0
 40
0
 40
0
 40
1
 40
1
 40
1
 40
1
 10
202.934344
 20
104.820160
 30
0.0
 10
202.934344
 20
105.350896
 30
0.0
 10
202.723509
 20
105.859895
 30
0.0
 10
202.348222
 20
106.235182
 30
0.0
  0
SPLINE
  5
27d
100
AcDbEntity
  8
Layer_1
 62
7
100
AcDbSpline
 70
8
 71
3
 72
8
 73
4
 74
0
 40
0
 40
0
 40
0
 40
0
 40
1
 40
1
 40
1
 40
1
 10
202.348222
 20
106.235182
 30
0.0
 10
201.972935
 20
106.610469
 30
0.0
 10
201.463936
 20
106.821303
 30
0.0
 10
200.933200
 20
106.821303
 30
0.0
  0
LWPOLYLINE
  5
27e
100
AcDbEntity
  8
Layer_1
 62
7
100
AcDbPolyline
 90
1
 70
1
 10
200.933200
 20
138.821263
 30
0.0
  0
SPLINE
  5
27f
100
AcDbEntity
  8
Layer_1
 62
7
100
AcDbSpline
 70
8
 71
3
 72
8
 73
4
 74
0
 40
0
 40
0
 40
0
 40
0
 40
1
 40
1
 40
1
 40
1
 10
150.933310
 20
106.821303
 30
0.0
 10
150.123923
 20
106.821303
 30
0.0
 10
149.394233
 20
106.333741
 30
0.0
 10
149.084494
 20
105.585964
 30
0.0
  0
SPLINE
  5
280
100
AcDbEntity
  8
Layer_1
 62
7
100
AcDbSpline
 70
8
 71
3
 72
8
 73
4
 74
0
 40
0
 40
0
 40
0
 40
0
 40
1
 40
1
 40
1
 40
1
 10
149.084494
 20
105.585964
 30
0.0
 10
148.774755
 20
104.838188
 30
0.0
 10
148.945965
 20
103.977461
 30
0.0
 10
149.518288
 20
103.405138
 30
0.0
  0
SPLINE
  5
281
100
AcDbEntity
  8
Layer_1
 62
7
100
AcDbSpline
 70
8
 71
3
 72
8
 73
4
 74
0
 40
0
 40
0
 40
0
 40
0
 40
1
 40
1
 40
1
 40
1
 10
149.518288
 20
103.405138
 30
0.0
 10
150.090611
 20
102.832815
 30
0.0
 10
150.951338
 20
102.661605
 30
0.0
 10
151.699114
 20
102.971344
 30
0.0
  0
SPLINE
  5
282
100
AcDbEntity
  8
Layer_1
 62
7
100
AcDbSpline
 70
8
 71
3
 72
8
 73
4
 74
0
 40
0
 40
0
 40
0
 40
0
 40
1
 40
1
 40
1
 40
1
 10
151.699114
 20
102.971344
 30
0.0
 10
152.446891
 20
103.281083
 30
0.0
 10
152.934454
 20
104.010773
 30
0.0
 10
152.934454
 20
104.820160
 30
0.0
  0
SPLINE
  5
283
100
AcDbEntity
  8
Layer_1
 62
7
100
AcDbSpline
 70
8
 71
3
 72
8
 73
4
 74
0
 40
0
 40
0
 40
0
 40
0
 40
1
 40
1
 40
1
 40
1
 10
152.934454
 20
104.820160
 30
0.0
 10
152.934454
 20
105.350896
 30
0.0
 10
152.723619
 20
105.859895
 30
0.0
 10
152.348332
 20
106.235182
 30
0.0
  0
SPLINE
  5
284
100
AcDbEntity
  8
Layer_1
 62
7
100
AcDbSpline
 70
8
 71
3
 72
8
 73
4
 74
0
 40
0
 40
0
 40
0
 40
0
 40
1
 40
1
 40
1
 40
1
 10
152.348332
 20
106.235182
 30
0.0
 10
151.973045
 20
106.610469
 30
0.0
 10
151.464046
 20
106.821303
 30
0.0
 10
150.933310
 20
106.821303
 30
0.0
  0
LWPOLYLINE
  5
285
100
AcDbEntity
  8
Layer_1
 62
7
100
AcDbPolyline
 90
1
 70
1
 10
200.933200
 20
106.821303
 30
0.0
  0
SPLINE
  5
286
100
AcDbEntity
  8
Layer_1
 62
7
100
AcDbSpline
 70
8
 71
3
 72
8
 73
4
 74
0
 40
0
 40
0
 40
0
 40
0
 40
1
 40
1
 40
1
 40
1
 10
337.798830
 20
229.805505
 30
0.0
 10
372.971690
 20
229.664723
 30
0.0
 10
401.410500
 20
201.111865
 30
0.0
 10
401.410500
 20
165.938720
 30
0.0
  0
LWPOLYLINE
  5
287
100
AcDbEntity
  8
Layer_1
 62
7
100
AcDbPolyline
 90
1
 70
1
 10
150.933310
 20
106.821303
 30
0.0
  0
SPLINE
  5
288
100
AcDbEntity
  8
Layer_1
 62
7
100
AcDbSpline
 70
8
 71
3
 72
8
 73
4
 74
0
 40
0
 40
0
 40
0
 40
0
 40
1
 40
1
 40
1
 40
1
 10
401.410500
 20
165.938720
 30
0.0
 10
401.410510
 20
165.470710
 30
0.0
 10
401.405500
 20
165.002710
 30
0.0
 10
401.395100
 20
164.534810
 30
0.0
  0
SPLINE
  5
289
100
AcDbEntity
  8
Layer_1
 62
7
100
AcDbSpline
 70
8
 71
3
 72
8
 73
4
 74
0
 40
0
 40
0
 40
0
 40
0
 40
1
 40
1
 40
1
 40
1
 10
20.444004
 20
155.063020
 30
0.0
 10
20.444004
 20
146.350170
 30
0.0
 10
20.438204
 20
105.341810
 30
0.0
 10
20.436004
 20
89.790050
 30
0.0
  0
SPLINE
  5
28a
100
AcDbEntity
  8
Layer_1
 62
7
100
AcDbSpline
 70
8
 71
3
 72
8
 73
4
 74
0
 40
0
 40
0
 40
0
 40
0
 40
1
 40
1
 40
1
 40
1
 10
20.436004
 20
89.790050
 30
0.0
 10
20.435526
 20
86.476340
 30
0.0
 10
23.121423
 20
83.790040
 30
0.0
 10
26.435132
 20
83.790020
 30
0.0
  0
LWPOLYLINE
  5
28b
100
AcDbEntity
  8
Layer_1
 62
7
100
AcDbPolyline
 90
1
 70
1
 10
401.410500
 20
165.938720
 30
0.0
  0
LWPOLYLINE
  5
28c
100
AcDbEntity
  8
Layer_1
 62
7
100
AcDbPolyline
 90
2
 70
0
 10
26.435132
 20
83.790020
 30
0.0
 10
56.870947
 20
83.789850
 30
0.0
  0
LWPOLYLINE
  5
28d
100
AcDbEntity
  8
Layer_1
 62
7
100
AcDbPolyline
 90
2
 70
0
 10
95.872492
 20
83.789640
 30
0.0
 10
326.112710
 20
83.787640
 30
0.0
  0
SPLINE
  5
28e
100
AcDbEntity
  8
Layer_1
 62
7
100
AcDbSpline
 70
8
 71
3
 72
8
 73
4
 74
0
 40
0
 40
0
 40
0
 40
0
 40
1
 40
1
 40
1
 40
1
 10
395.430420
 20
83.787180
 30
0.0
 10
397.141190
 20
83.787170
 30
0.0
 10
398.684720
 20
84.503210
 30
0.0
 10
399.777650
 20
85.651940
 30
0.0
  0
SPLINE
  5
28f
100
AcDbEntity
  8
Layer_1
 62
7
100
AcDbSpline
 70
8
 71
3
 72
8
 73
4
 74
0
 40
0
 40
0
 40
0
 40
0
 40
1
 40
1
 40
1
 40
1
 10
399.777650
 20
85.651940
 30
0.0
 10
400.801650
 20
86.728200
 30
0.0
 10
401.430110
 20
88.184290
 30
0.0
 10
401.429990
 20
89.787150
 30
0.0
  0
LWPOLYLINE
  5
290
100
AcDbEntity
  8
Layer_1
 62
7
100
AcDbPolyline
 90
2
 70
0
 10
365.112560
 20
83.787380
 30
0.0
 10
395.430420
 20
83.787180
 30
0.0
  0
LWPOLYLINE
  5
291
100
AcDbEntity
  8
Layer_1
 62
7
100
AcDbPolyline
 90
2
 70
0
 10
401.429990
 20
89.787150
 30
0.0
 10
401.395090
 20
164.533970
 30
0.0
  0
LWPOLYLINE
  5
292
100
AcDbEntity
  8
Layer_1
 62
7
100
AcDbPolyline
 90
2
 70
0
 10
172.833130
 20
230.094345
 30
0.0
 10
61.948612
 20
206.128315
 30
0.0
  0
LWPOLYLINE
  5
293
100
AcDbEntity
  8
Layer_1
 62
7
100
AcDbPolyline
 90
2
 70
0
 10
249.033130
 20
230.094345
 30
0.0
 10
172.833130
 20
230.094345
 30
0.0
  0
SPLINE
  5
294
100
AcDbEntity
  8
Layer_1
 62
7
100
AcDbSpline
 70
8
 71
3
 72
8
 73
4
 74
0
 40
0
 40
0
 40
0
 40
0
 40
1
 40
1
 40
1
 40
1
 10
20.443979
 20
155.030150
 30
0.0
 10
20.443355
 20
155.133610
 30
0.0
 10
20.450279
 20
155.559560
 30
0.0
 10
20.450279
 20
155.663030
 30
0.0
  0
SPLINE
  5
295
100
AcDbEntity
  8
Layer_1
 62
7
100
AcDbSpline
 70
8
 71
3
 72
8
 73
4
 74
0
 40
0
 40
0
 40
0
 40
0
 40
1
 40
1
 40
1
 40
1
 10
20.450279
 20
155.663030
 30
0.0
 10
20.450279
 20
180.238680
 30
0.0
 10
37.835853
 20
201.380925
 30
0.0
 10
61.948612
 20
206.128315
 30
0.0
  0
SPLINE
  5
296
100
AcDbEntity
  8
Layer_1
 62
7
100
AcDbSpline
 70
8
 71
3
 72
8
 73
4
 74
0
 40
0
 40
0
 40
0
 40
0
 40
1
 40
1
 40
1
 40
1
 10
47.672562
 20
183.505324
 30
0.0
 10
46.863175
 20
183.505324
 30
0.0
 10
46.133485
 20
183.017761
 30
0.0
 10
45.823746
 20
182.269984
 30
0.0
  0
SPLINE
  5
297
100
AcDbEntity
  8
Layer_1
 62
7
100
AcDbSpline
 70
8
 71
3
 72
8
 73
4
 74
0
 40
0
 40
0
 40
0
 40
0
 40
1
 40
1
 40
1
 40
1
 10
45.823746
 20
182.269984
 30
0.0
 10
45.514007
 20
181.522208
 30
0.0
 10
45.685217
 20
180.661481
 30
0.0
 10
46.257540
 20
180.089158
 30
0.0
  0
SPLINE
  5
298
100
AcDbEntity
  8
Layer_1
 62
7
100
AcDbSpline
 70
8
 71
3
 72
8
 73
4
 74
0
 40
0
 40
0
 40
0
 40
0
 40
1
 40
1
 40
1
 40
1
 10
46.257540
 20
180.089158
 30
0.0
 10
46.829863
 20
179.516835
 30
0.0
 10
47.690590
 20
179.345625
 30
0.0
 10
48.438366
 20
179.655364
 30
0.0
  0
SPLINE
  5
299
100
AcDbEntity
  8
Layer_1
 62
7
100
AcDbSpline
 70
8
 71
3
 72
8
 73
4
 74
0
 40
0
 40
0
 40
0
 40
0
 40
1
 40
1
 40
1
 40
1
 10
48.438366
 20
179.655364
 30
0.0
 10
49.186143
 20
179.965103
 30
0.0
 10
49.673706
 20
180.694793
 30
0.0
 10
49.673706
 20
181.504180
 30
0.0
  0
SPLINE
  5
29a
100
AcDbEntity
  8
Layer_1
 62
7
100
AcDbSpline
 70
8
 71
3
 72
8
 73
4
 74
0
 40
0
 40
0
 40
0
 40
0
 40
1
 40
1
 40
1
 40
1
 10
49.673706
 20
181.504180
 30
0.0
 10
49.673706
 20
182.034916
 30
0.0
 10
49.462871
 20
182.543915
 30
0.0
 10
49.087584
 20
182.919202
 30
0.0
  0
SPLINE
  5
29b
100
AcDbEntity
  8
Layer_1
 62
7
100
AcDbSpline
 70
8
 71
3
 72
8
 73
4
 74
0
 40
0
 40
0
 40
0
 40
0
 40
1
 40
1
 40
1
 40
1
 10
49.087584
 20
182.919202
 30
0.0
 10
48.712297
 20
183.294489
 30
0.0
 10
48.203298
 20
183.505324
 30
0.0
 10
47.672562
 20
183.505324
 30
0.0
  0
LWPOLYLINE
  5
29c
100
AcDbEntity
  8
Layer_1
 62
7
100
AcDbPolyline
 90
2
 70
0
 10
337.798830
 20
229.805505
 30
0.0
 10
248.258080
 20
230.058205
 30
0.0
  0
SPLINE
  5
29d
100
AcDbEntity
  8
Layer_1
 62
7
100
AcDbSpline
 70
8
 71
3
 72
8
 73
4
 74
0
 40
0
 40
0
 40
0
 40
0
 40
1
 40
1
 40
1
 40
1
 10
55.672559
 20
183.505324
 30
0.0
 10
54.863172
 20
183.505324
 30
0.0
 10
54.133482
 20
183.017761
 30
0.0
 10
53.823743
 20
182.269984
 30
0.0
  0
SPLINE
  5
29e
100
AcDbEntity
  8
Layer_1
 62
7
100
AcDbSpline
 70
8
 71
3
 72
8
 73
4
 74
0
 40
0
 40
0
 40
0
 40
0
 40
1
 40
1
 40
1
 40
1
 10
53.823743
 20
182.269984
 30
0.0
 10
53.514004
 20
181.522208
 30
0.0
 10
53.685214
 20
180.661481
 30
0.0
 10
54.257537
 20
180.089158
 30
0.0
  0
SPLINE
  5
29f
100
AcDbEntity
  8
Layer_1
 62
7
100
AcDbSpline
 70
8
 71
3
 72
8
 73
4
 74
0
 40
0
 40
0
 40
0
 40
0
 40
1
 40
1
 40
1
 40
1
 10
54.257537
 20
180.089158
 30
0.0
 10
54.829860
 20
179.516835
 30
0.0
 10
55.690587
 20
179.345625
 30
0.0
 10
56.438363
 20
179.655364
 30
0.0
  0
SPLINE
  5
2a0
100
AcDbEntity
  8
Layer_1
 62
7
100
AcDbSpline
 70
8
 71
3
 72
8
 73
4
 74
0
 40
0
 40
0
 40
0
 40
0
 40
1
 40
1
 40
1
 40
1
 10
56.438363
 20
179.655364
 30
0.0
 10
57.186140
 20
179.965103
 30
0.0
 10
57.673703
 20
180.694793
 30
0.0
 10
57.673703
 20
181.504180
 30
0.0
  0
SPLINE
  5
2a1
100
AcDbEntity
  8
Layer_1
 62
7
100
AcDbSpline
 70
8
 71
3
 72
8
 73
4
 74
0
 40
0
 40
0
 40
0
 40
0
 40
1
 40
1
 40
1
 40
1
 10
57.673703
 20
181.504180
 30
0.0
 10
57.673703
 20
182.034916
 30
0.0
 10
57.462868
 20
182.543915
 30
0.0
 10
57.087581
 20
182.919202
 30
0.0
  0
SPLINE
  5
2a2
100
AcDbEntity
  8
Layer_1
 62
7
100
AcDbSpline
 70
8
 71
3
 72
8
 73
4
 74
0
 40
0
 40
0
 40
0
 40
0
 40
1
 40
1
 40
1
 40
1
 10
57.087581
 20
182.919202
 30
0.0
 10
56.712294
 20
183.294489
 30
0.0
 10
56.203295
 20
183.505324
 30
0.0
 10
55.672559
 20
183.505324
 30
0.0
  0
LWPOLYLINE
  5
2a3
100
AcDbEntity
  8
Layer_1
 62
7
100
AcDbPolyline
 90
1
 70
1
 10
47.672562
 20
183.505324
 30
0.0
  0
SPLINE
  5
2a4
100
AcDbEntity
  8
Layer_1
 62
7
100
AcDbSpline
 70
8
 71
3
 72
8
 73
4
 74
0
 40
0
 40
0
 40
0
 40
0
 40
1
 40
1
 40
1
 40
1
 10
63.672559
 20
183.505324
 30
0.0
 10
62.863172
 20
183.505324
 30
0.0
 10
62.133482
 20
183.017761
 30
0.0
 10
61.823743
 20
182.269984
 30
0.0
  0
SPLINE
  5
2a5
100
AcDbEntity
  8
Layer_1
 62
7
100
AcDbSpline
 70
8
 71
3
 72
8
 73
4
 74
0
 40
0
 40
0
 40
0
 40
0
 40
1
 40
1
 40
1
 40
1
 10
61.823743
 20
182.269984
 30
0.0
 10
61.514004
 20
181.522208
 30
0.0
 10
61.685214
 20
180.661481
 30
0.0
 10
62.257537
 20
180.089158
 30
0.0
  0
SPLINE
  5
2a6
100
AcDbEntity
  8
Layer_1
 62
7
100
AcDbSpline
 70
8
 71
3
 72
8
 73
4
 74
0
 40
0
 40
0
 40
0
 40
0
 40
1
 40
1
 40
1
 40
1
 10
62.257537
 20
180.089158
 30
0.0
 10
62.829860
 20
179.516835
 30
0.0
 10
63.690587
 20
179.345625
 30
0.0
 10
64.438363
 20
179.655364
 30
0.0
  0
SPLINE
  5
2a7
100
AcDbEntity
  8
Layer_1
 62
7
100
AcDbSpline
 70
8
 71
3
 72
8
 73
4
 74
0
 40
0
 40
0
 40
0
 40
0
 40
1
 40
1
 40
1
 40
1
 10
64.438363
 20
179.655364
 30
0.0
 10
65.186140
 20
179.965103
 30
0.0
 10
65.673703
 20
180.694793
 30
0.0
 10
65.673703
 20
181.504180
 30
0.0
  0
SPLINE
  5
2a8
100
AcDbEntity
  8
Layer_1
 62
7
100
AcDbSpline
 70
8
 71
3
 72
8
 73
4
 74
0
 40
0
 40
0
 40
0
 40
0
 40
1
 40
1
 40
1
 40
1
 10
65.673703
 20
181.504180
 30
0.0
 10
65.673703
 20
182.034916
 30
0.0
 10
65.462868
 20
182.543915
 30
0.0
 10
65.087581
 20
182.919202
 30
0.0
  0
SPLINE
  5
2a9
100
AcDbEntity
  8
Layer_1
 62
7
100
AcDbSpline
 70
8
 71
3
 72
8
 73
4
 74
0
 40
0
 40
0
 40
0
 40
0
 40
1
 40
1
 40
1
 40
1
 10
65.087581
 20
182.919202
 30
0.0
 10
64.712294
 20
183.294489
 30
0.0
 10
64.203295
 20
183.505324
 30
0.0
 10
63.672559
 20
183.505324
 30
0.0
  0
LWPOLYLINE
  5
2aa
100
AcDbEntity
  8
Layer_1
 62
7
100
AcDbPolyline
 90
1
 70
1
 10
55.672559
 20
183.505324
 30
0.0
  0
SPLINE
  5
2ab
100
AcDbEntity
  8
Layer_1
 62
7
100
AcDbSpline
 70
8
 71
3
 72
8
 73
4
 74
0
 40
0
 40
0
 40
0
 40
0
 40
1
 40
1
 40
1
 40
1
 10
71.672559
 20
183.505324
 30
0.0
 10
70.863172
 20
183.505324
 30
0.0
 10
70.133482
 20
183.017761
 30
0.0
 10
69.823743
 20
182.269984
 30
0.0
  0
SPLINE
  5
2ac
100
AcDbEntity
  8
Layer_1
 62
7
100
AcDbSpline
 70
8
 71
3
 72
8
 73
4
 74
0
 40
0
 40
0
 40
0
 40
0
 40
1
 40
1
 40
1
 40
1
 10
69.823743
 20
182.269984
 30
0.0
 10
69.514004
 20
181.522208
 30
0.0
 10
69.685214
 20
180.661481
 30
0.0
 10
70.257537
 20
180.089158
 30
0.0
  0
SPLINE
  5
2ad
100
AcDbEntity
  8
Layer_1
 62
7
100
AcDbSpline
 70
8
 71
3
 72
8
 73
4
 74
0
 40
0
 40
0
 40
0
 40
0
 40
1
 40
1
 40
1
 40
1
 10
70.257537
 20
180.089158
 30
0.0
 10
70.829860
 20
179.516835
 30
0.0
 10
71.690587
 20
179.345625
 30
0.0
 10
72.438363
 20
179.655364
 30
0.0
  0
SPLINE
  5
2ae
100
AcDbEntity
  8
Layer_1
 62
7
100
AcDbSpline
 70
8
 71
3
 72
8
 73
4
 74
0
 40
0
 40
0
 40
0
 40
0
 40
1
 40
1
 40
1
 40
1
 10
72.438363
 20
179.655364
 30
0.0
 10
73.186140
 20
179.965103
 30
0.0
 10
73.673703
 20
180.694793
 30
0.0
 10
73.673703
 20
181.504180
 30
0.0
  0
SPLINE
  5
2af
100
AcDbEntity
  8
Layer_1
 62
7
100
AcDbSpline
 70
8
 71
3
 72
8
 73
4
 74
0
 40
0
 40
0
 40
0
 40
0
 40
1
 40
1
 40
1
 40
1
 10
73.673703
 20
181.504180
 30
0.0
 10
73.673703
 20
182.034916
 30
0.0
 10
73.462868
 20
182.543915
 30
0.0
 10
73.087581
 20
182.919202
 30
0.0
  0
SPLINE
  5
2b0
100
AcDbEntity
  8
Layer_1
 62
7
100
AcDbSpline
 70
8
 71
3
 72
8
 73
4
 74
0
 40
0
 40
0
 40
0
 40
0
 40
1
 40
1
 40
1
 40
1
 10
73.087581
 20
182.919202
 30
0.0
 10
72.712294
 20
183.294489
 30
0.0
 10
72.203295
 20
183.505324
 30
0.0
 10
71.672559
 20
183.505324
 30
0.0
  0
LWPOLYLINE
  5
2b1
100
AcDbEntity
  8
Layer_1
 62
7
100
AcDbPolyline
 90
1
 70
1
 10
63.672559
 20
183.505324
 30
0.0
  0
SPLINE
  5
2b2
100
AcDbEntity
  8
Layer_1
 62
7
100
AcDbSpline
 70
8
 71
3
 72
8
 73
4
 74
0
 40
0
 40
0
 40
0
 40
0
 40
1
 40
1
 40
1
 40
1
 10
79.672559
 20
183.505324
 30
0.0
 10
78.863172
 20
183.505324
 30
0.0
 10
78.133482
 20
183.017761
 30
0.0
 10
77.823743
 20
182.269984
 30
0.0
  0
SPLINE
  5
2b3
100
AcDbEntity
  8
Layer_1
 62
7
100
AcDbSpline
 70
8
 71
3
 72
8
 73
4
 74
0
 40
0
 40
0
 40
0
 40
0
 40
1
 40
1
 40
1
 40
1
 10
77.823743
 20
182.269984
 30
0.0
 10
77.514004
 20
181.522208
 30
0.0
 10
77.685214
 20
180.661481
 30
0.0
 10
78.257537
 20
180.089158
 30
0.0
  0
SPLINE
  5
2b4
100
AcDbEntity
  8
Layer_1
 62
7
100
AcDbSpline
 70
8
 71
3
 72
8
 73
4
 74
0
 40
0
 40
0
 40
0
 40
0
 40
1
 40
1
 40
1
 40
1
 10
78.257537
 20
180.089158
 30
0.0
 10
78.829860
 20
179.516835
 30
0.0
 10
79.690587
 20
179.345625
 30
0.0
 10
80.438363
 20
179.655364
 30
0.0
  0
SPLINE
  5
2b5
100
AcDbEntity
  8
Layer_1
 62
7
100
AcDbSpline
 70
8
 71
3
 72
8
 73
4
 74
0
 40
0
 40
0
 40
0
 40
0
 40
1
 40
1
 40
1
 40
1
 10
80.438363
 20
179.655364
 30
0.0
 10
81.186140
 20
179.965103
 30
0.0
 10
81.673703
 20
180.694793
 30
0.0
 10
81.673703
 20
181.504180
 30
0.0
  0
SPLINE
  5
2b6
100
AcDbEntity
  8
Layer_1
 62
7
100
AcDbSpline
 70
8
 71
3
 72
8
 73
4
 74
0
 40
0
 40
0
 40
0
 40
0
 40
1
 40
1
 40
1
 40
1
 10
81.673703
 20
181.504180
 30
0.0
 10
81.673703
 20
182.034916
 30
0.0
 10
81.462868
 20
182.543915
 30
0.0
 10
81.087581
 20
182.919202
 30
0.0
  0
SPLINE
  5
2b7
100
AcDbEntity
  8
Layer_1
 62
7
100
AcDbSpline
 70
8
 71
3
 72
8
 73
4
 74
0
 40
0
 40
0
 40
0
 40
0
 40
1
 40
1
 40
1
 40
1
 10
81.087581
 20
182.919202
 30
0.0
 10
80.712294
 20
183.294489
 30
0.0
 10
80.203295
 20
183.505324
 30
0.0
 10
79.672559
 20
183.505324
 30
0.0
  0
LWPOLYLINE
  5
2b8
100
AcDbEntity
  8
Layer_1
 62
7
100
AcDbPolyline
 90
1
 70
1
 10
71.672559
 20
183.505324
 30
0.0
  0
LWPOLYLINE
  5
2b9
100
AcDbEntity
  8
Layer_1
 62
7
100
AcDbPolyline
 90
1
 70
1
 10
79.672559
 20
183.505324
 30
0.0
  0
LWPOLYLINE
  5
2ba
100
AcDbEntity
  8
Layer_1
 62
7
100
AcDbPolyline
 90
2
 70
0
 10
56.872644
 20
83.789850
 30
0.0
 10
56.872644
 20
112.924580
 30
0.0
  0
SPLINE
  5
2bb
100
AcDbEntity
  8
Layer_1
 62
7
100
AcDbSpline
 70
8
 71
3
 72
8
 73
4
 74
0
 40
0
 40
0
 40
0
 40
0
 40
1
 40
1
 40
1
 40
1
 10
54.372581
 20
114.436536
 30
0.0
 10
53.760947
 20
114.436536
 30
0.0
 10
53.209538
 20
114.068097
 30
0.0
 10
52.975475
 20
113.503020
 30
0.0
  0
SPLINE
  5
2bc
100
AcDbEntity
  8
Layer_1
 62
7
100
AcDbSpline
 70
8
 71
3
 72
8
 73
4
 74
0
 40
0
 40
0
 40
0
 40
0
 40
1
 40
1
 40
1
 40
1
 10
52.975475
 20
113.503020
 30
0.0
 10
52.741413
 20
112.937944
 30
0.0
 10
52.870792
 20
112.287512
 30
0.0
 10
53.303283
 20
111.855022
 30
0.0
  0
SPLINE
  5
2bd
100
AcDbEntity
  8
Layer_1
 62
7
100
AcDbSpline
 70
8
 71
3
 72
8
 73
4
 74
0
 40
0
 40
0
 40
0
 40
0
 40
1
 40
1
 40
1
 40
1
 10
53.303283
 20
111.855022
 30
0.0
 10
53.735773
 20
111.422531
 30
0.0
 10
54.386205
 20
111.293152
 30
0.0
 10
54.951281
 20
111.527214
 30
0.0
  0
SPLINE
  5
2be
100
AcDbEntity
  8
Layer_1
 62
7
100
AcDbSpline
 70
8
 71
3
 72
8
 73
4
 74
0
 40
0
 40
0
 40
0
 40
0
 40
1
 40
1
 40
1
 40
1
 10
54.951281
 20
111.527214
 30
0.0
 10
55.516358
 20
111.761277
 30
0.0
 10
55.884797
 20
112.312686
 30
0.0
 10
55.884797
 20
112.924320
 30
0.0
  0
SPLINE
  5
2bf
100
AcDbEntity
  8
Layer_1
 62
7
100
AcDbSpline
 70
8
 71
3
 72
8
 73
4
 74
0
 40
0
 40
0
 40
0
 40
0
 40
1
 40
1
 40
1
 40
1
 10
55.884797
 20
112.924320
 30
0.0
 10
55.884797
 20
113.325385
 30
0.0
 10
55.725475
 20
113.710023
 30
0.0
 10
55.441879
 20
113.993618
 30
0.0
  0
SPLINE
  5
2c0
100
AcDbEntity
  8
Layer_1
 62
7
100
AcDbSpline
 70
8
 71
3
 72
8
 73
4
 74
0
 40
0
 40
0
 40
0
 40
0
 40
1
 40
1
 40
1
 40
1
 10
55.441879
 20
113.993618
 30
0.0
 10
55.158284
 20
114.277214
 30
0.0
 10
54.773646
 20
114.436536
 30
0.0
 10
54.372581
 20
114.436536
 30
0.0
  0
LWPOLYLINE
  5
2c1
100
AcDbEntity
  8
Layer_1
 62
7
100
AcDbPolyline
 90
2
 70
0
 10
95.872492
 20
112.924580
 30
0.0
 10
95.872492
 20
83.789640
 30
0.0
  0
SPLINE
  5
2c2
100
AcDbEntity
  8
Layer_1
 62
7
100
AcDbSpline
 70
8
 71
3
 72
8
 73
4
 74
0
 40
0
 40
0
 40
0
 40
0
 40
1
 40
1
 40
1
 40
1
 10
76.372566
 20
136.436506
 30
0.0
 10
75.760932
 20
136.436506
 30
0.0
 10
75.209523
 20
136.068067
 30
0.0
 10
74.975460
 20
135.502990
 30
0.0
  0
SPLINE
  5
2c3
100
AcDbEntity
  8
Layer_1
 62
7
100
AcDbSpline
 70
8
 71
3
 72
8
 73
4
 74
0
 40
0
 40
0
 40
0
 40
0
 40
1
 40
1
 40
1
 40
1
 10
74.975460
 20
135.502990
 30
0.0
 10
74.741398
 20
134.937914
 30
0.0
 10
74.870777
 20
134.287482
 30
0.0
 10
75.303268
 20
133.854992
 30
0.0
  0
SPLINE
  5
2c4
100
AcDbEntity
  8
Layer_1
 62
7
100
AcDbSpline
 70
8
 71
3
 72
8
 73
4
 74
0
 40
0
 40
0
 40
0
 40
0
 40
1
 40
1
 40
1
 40
1
 10
75.303268
 20
133.854992
 30
0.0
 10
75.735758
 20
133.422501
 30
0.0
 10
76.386190
 20
133.293122
 30
0.0
 10
76.951266
 20
133.527184
 30
0.0
  0
SPLINE
  5
2c5
100
AcDbEntity
  8
Layer_1
 62
7
100
AcDbSpline
 70
8
 71
3
 72
8
 73
4
 74
0
 40
0
 40
0
 40
0
 40
0
 40
1
 40
1
 40
1
 40
1
 10
76.951266
 20
133.527184
 30
0.0
 10
77.516343
 20
133.761247
 30
0.0
 10
77.884782
 20
134.312656
 30
0.0
 10
77.884782
 20
134.924290
 30
0.0
  0
SPLINE
  5
2c6
100
AcDbEntity
  8
Layer_1
 62
7
100
AcDbSpline
 70
8
 71
3
 72
8
 73
4
 74
0
 40
0
 40
0
 40
0
 40
0
 40
1
 40
1
 40
1
 40
1
 10
77.884782
 20
134.924290
 30
0.0
 10
77.884782
 20
135.325355
 30
0.0
 10
77.725460
 20
135.709993
 30
0.0
 10
77.441864
 20
135.993588
 30
0.0
  0
SPLINE
  5
2c7
100
AcDbEntity
  8
Layer_1
 62
7
100
AcDbSpline
 70
8
 71
3
 72
8
 73
4
 74
0
 40
0
 40
0
 40
0
 40
0
 40
1
 40
1
 40
1
 40
1
 10
77.441864
 20
135.993588
 30
0.0
 10
77.158269
 20
136.277184
 30
0.0
 10
76.773631
 20
136.436506
 30
0.0
 10
76.372566
 20
136.436506
 30
0.0
  0
LWPOLYLINE
  5
2c8
100
AcDbEntity
  8
Layer_1
 62
7
100
AcDbPolyline
 90
1
 70
1
 10
54.372581
 20
114.436536
 30
0.0
  0
SPLINE
  5
2c9
100
AcDbEntity
  8
Layer_1
 62
7
100
AcDbSpline
 70
8
 71
3
 72
8
 73
4
 74
0
 40
0
 40
0
 40
0
 40
0
 40
1
 40
1
 40
1
 40
1
 10
98.372673
 20
114.436536
 30
0.0
 10
97.761039
 20
114.436536
 30
0.0
 10
97.209630
 20
114.068097
 30
0.0
 10
96.975567
 20
113.503020
 30
0.0
  0
SPLINE
  5
2ca
100
AcDbEntity
  8
Layer_1
 62
7
100
AcDbSpline
 70
8
 71
3
 72
8
 73
4
 74
0
 40
0
 40
0
 40
0
 40
0
 40
1
 40
1
 40
1
 40
1
 10
96.975567
 20
113.503020
 30
0.0
 10
96.741505
 20
112.937944
 30
0.0
 10
96.870884
 20
112.287512
 30
0.0
 10
97.303375
 20
111.855022
 30
0.0
  0
SPLINE
  5
2cb
100
AcDbEntity
  8
Layer_1
 62
7
100
AcDbSpline
 70
8
 71
3
 72
8
 73
4
 74
0
 40
0
 40
0
 40
0
 40
0
 40
1
 40
1
 40
1
 40
1
 10
97.303375
 20
111.855022
 30
0.0
 10
97.735865
 20
111.422531
 30
0.0
 10
98.386297
 20
111.293152
 30
0.0
 10
98.951373
 20
111.527214
 30
0.0
  0
SPLINE
  5
2cc
100
AcDbEntity
  8
Layer_1
 62
7
100
AcDbSpline
 70
8
 71
3
 72
8
 73
4
 74
0
 40
0
 40
0
 40
0
 40
0
 40
1
 40
1
 40
1
 40
1
 10
98.951373
 20
111.527214
 30
0.0
 10
99.516450
 20
111.761277
 30
0.0
 10
99.884889
 20
112.312686
 30
0.0
 10
99.884889
 20
112.924320
 30
0.0
  0
SPLINE
  5
2cd
100
AcDbEntity
  8
Layer_1
 62
7
100
AcDbSpline
 70
8
 71
3
 72
8
 73
4
 74
0
 40
0
 40
0
 40
0
 40
0
 40
1
 40
1
 40
1
 40
1
 10
99.884889
 20
112.924320
 30
0.0
 10
99.884889
 20
113.325385
 30
0.0
 10
99.725567
 20
113.710023
 30
0.0
 10
99.441971
 20
113.993618
 30
0.0
  0
SPLINE
  5
2ce
100
AcDbEntity
  8
Layer_1
 62
7
100
AcDbSpline
 70
8
 71
3
 72
8
 73
4
 74
0
 40
0
 40
0
 40
0
 40
0
 40
1
 40
1
 40
1
 40
1
 10
99.441971
 20
113.993618
 30
0.0
 10
99.158376
 20
114.277214
 30
0.0
 10
98.773738
 20
114.436536
 30
0.0
 10
98.372673
 20
114.436536
 30
0.0
  0
LWPOLYLINE
  5
2cf
100
AcDbEntity
  8
Layer_1
 62
7
100
AcDbPolyline
 90
1
 70
1
 10
76.372566
 20
136.436506
 30
0.0
  0
SPLINE
  5
2d0
100
AcDbEntity
  8
Layer_1
 62
7
100
AcDbSpline
 70
8
 71
3
 72
8
 73
4
 74
0
 40
0
 40
0
 40
0
 40
0
 40
1
 40
1
 40
1
 40
1
 10
56.880961
 20
112.881620
 30
0.0
 10
56.880939
 20
112.893553
 30
0.0
 10
56.880928
 20
112.905487
 30
0.0
 10
56.880928
 20
112.917420
 30
0.0
  0
SPLINE
  5
2d1
100
AcDbEntity
  8
Layer_1
 62
7
100
AcDbSpline
 70
8
 71
3
 72
8
 73
4
 74
0
 40
0
 40
0
 40
0
 40
0
 40
1
 40
1
 40
1
 40
1
 10
56.880928
 20
112.917420
 30
0.0
 10
56.880925
 20
118.086926
 30
0.0
 10
58.934501
 20
123.044703
 30
0.0
 10
62.589892
 20
126.700097
 30
0.0
  0
SPLINE
  5
2d2
100
AcDbEntity
  8
Layer_1
 62
7
100
AcDbSpline
 70
8
 71
3
 72
8
 73
4
 74
0
 40
0
 40
0
 40
0
 40
0
 40
1
 40
1
 40
1
 40
1
 10
62.589892
 20
126.700097
 30
0.0
 10
66.245284
 20
130.355491
 30
0.0
 10
71.203060
 20
132.409070
 30
0.0
 10
76.372566
 20
132.409070
 30
0.0
  0
SPLINE
  5
2d3
100
AcDbEntity
  8
Layer_1
 62
7
100
AcDbSpline
 70
8
 71
3
 72
8
 73
4
 74
0
 40
0
 40
0
 40
0
 40
0
 40
1
 40
1
 40
1
 40
1
 10
76.372566
 20
132.409070
 30
0.0
 10
81.542072
 20
132.409070
 30
0.0
 10
86.499848
 20
130.355491
 30
0.0
 10
90.155240
 20
126.700097
 30
0.0
  0
SPLINE
  5
2d4
100
AcDbEntity
  8
Layer_1
 62
7
100
AcDbSpline
 70
8
 71
3
 72
8
 73
4
 74
0
 40
0
 40
0
 40
0
 40
0
 40
1
 40
1
 40
1
 40
1
 10
90.155240
 20
126.700097
 30
0.0
 10
93.810631
 20
123.044703
 30
0.0
 10
95.864207
 20
118.086926
 30
0.0
 10
95.864204
 20
112.917420
 30
0.0
  0
LWPOLYLINE
  5
2d5
100
AcDbEntity
  8
Layer_1
 62
7
100
AcDbPolyline
 90
1
 70
1
 10
98.372673
 20
114.436536
 30
0.0
  0
SPLINE
  5
2d6
100
AcDbEntity
  8
Layer_1
 62
7
100
AcDbSpline
 70
8
 71
3
 72
8
 73
4
 74
0
 40
0
 40
0
 40
0
 40
0
 40
1
 40
1
 40
1
 40
1
 10
95.864204
 20
112.917420
 30
0.0
 10
95.864204
 20
112.905487
 30
0.0
 10
95.864194
 20
112.893553
 30
0.0
 10
95.864172
 20
112.881620
 30
0.0
  0
LWPOLYLINE
  5
2d7
100
AcDbEntity
  8
Layer_1
 62
7
100
AcDbPolyline
 90
1
 70
1
 10
95.864204
 20
112.917420
 30
0.0
  0
LWPOLYLINE
  5
2d8
100
AcDbEntity
  8
Layer_1
 62
7
100
AcDbPolyline
 90
2
 70
0
 10
326.112644
 20
83.787610
 30
0.0
 10
326.112644
 20
112.924560
 30
0.0
  0
SPLINE
  5
2d9
100
AcDbEntity
  8
Layer_1
 62
7
100
AcDbSpline
 70
8
 71
3
 72
8
 73
4
 74
0
 40
0
 40
0
 40
0
 40
0
 40
1
 40
1
 40
1
 40
1
 10
323.612581
 20
114.436506
 30
0.0
 10
323.000947
 20
114.436506
 30
0.0
 10
322.449538
 20
114.068067
 30
0.0
 10
322.215475
 20
113.502990
 30
0.0
  0
SPLINE
  5
2da
100
AcDbEntity
  8
Layer_1
 62
7
100
AcDbSpline
 70
8
 71
3
 72
8
 73
4
 74
0
 40
0
 40
0
 40
0
 40
0
 40
1
 40
1
 40
1
 40
1
 10
322.215475
 20
113.502990
 30
0.0
 10
321.981413
 20
112.937914
 30
0.0
 10
322.110792
 20
112.287482
 30
0.0
 10
322.543283
 20
111.854992
 30
0.0
  0
SPLINE
  5
2db
100
AcDbEntity
  8
Layer_1
 62
7
100
AcDbSpline
 70
8
 71
3
 72
8
 73
4
 74
0
 40
0
 40
0
 40
0
 40
0
 40
1
 40
1
 40
1
 40
1
 10
322.543283
 20
111.854992
 30
0.0
 10
322.975773
 20
111.422501
 30
0.0
 10
323.626205
 20
111.293122
 30
0.0
 10
324.191281
 20
111.527184
 30
0.0
  0
SPLINE
  5
2dc
100
AcDbEntity
  8
Layer_1
 62
7
100
AcDbSpline
 70
8
 71
3
 72
8
 73
4
 74
0
 40
0
 40
0
 40
0
 40
0
 40
1
 40
1
 40
1
 40
1
 10
324.191281
 20
111.527184
 30
0.0
 10
324.756358
 20
111.761247
 30
0.0
 10
325.124797
 20
112.312656
 30
0.0
 10
325.124797
 20
112.924290
 30
0.0
  0
SPLINE
  5
2dd
100
AcDbEntity
  8
Layer_1
 62
7
100
AcDbSpline
 70
8
 71
3
 72
8
 73
4
 74
0
 40
0
 40
0
 40
0
 40
0
 40
1
 40
1
 40
1
 40
1
 10
325.124797
 20
112.924290
 30
0.0
 10
325.124797
 20
113.325355
 30
0.0
 10
324.965475
 20
113.709993
 30
0.0
 10
324.681879
 20
113.993588
 30
0.0
  0
SPLINE
  5
2de
100
AcDbEntity
  8
Layer_1
 62
7
100
AcDbSpline
 70
8
 71
3
 72
8
 73
4
 74
0
 40
0
 40
0
 40
0
 40
0
 40
1
 40
1
 40
1
 40
1
 10
324.681879
 20
113.993588
 30
0.0
 10
324.398284
 20
114.277184
 30
0.0
 10
324.013646
 20
114.436506
 30
0.0
 10
323.612581
 20
114.436506
 30
0.0
  0
LWPOLYLINE
  5
2df
100
AcDbEntity
  8
Layer_1
 62
7
100
AcDbPolyline
 90
2
 70
0
 10
365.112492
 20
112.924560
 30
0.0
 10
365.112492
 20
83.787350
 30
0.0
  0
SPLINE
  5
2e0
100
AcDbEntity
  8
Layer_1
 62
7
100
AcDbSpline
 70
8
 71
3
 72
8
 73
4
 74
0
 40
0
 40
0
 40
0
 40
0
 40
1
 40
1
 40
1
 40
1
 10
345.612566
 20
136.436480
 30
0.0
 10
345.000932
 20
136.436480
 30
0.0
 10
344.449523
 20
136.068041
 30
0.0
 10
344.215460
 20
135.502964
 30
0.0
  0
SPLINE
  5
2e1
100
AcDbEntity
  8
Layer_1
 62
7
100
AcDbSpline
 70
8
 71
3
 72
8
 73
4
 74
0
 40
0
 40
0
 40
0
 40
0
 40
1
 40
1
 40
1
 40
1
 10
344.215460
 20
135.502964
 30
0.0
 10
343.981398
 20
134.937888
 30
0.0
 10
344.110777
 20
134.287456
 30
0.0
 10
344.543268
 20
133.854966
 30
0.0
  0
SPLINE
  5
2e2
100
AcDbEntity
  8
Layer_1
 62
7
100
AcDbSpline
 70
8
 71
3
 72
8
 73
4
 74
0
 40
0
 40
0
 40
0
 40
0
 40
1
 40
1
 40
1
 40
1
 10
344.543268
 20
133.854966
 30
0.0
 10
344.975758
 20
133.422475
 30
0.0
 10
345.626190
 20
133.293096
 30
0.0
 10
346.191266
 20
133.527158
 30
0.0
  0
SPLINE
  5
2e3
100
AcDbEntity
  8
Layer_1
 62
7
100
AcDbSpline
 70
8
 71
3
 72
8
 73
4
 74
0
 40
0
 40
0
 40
0
 40
0
 40
1
 40
1
 40
1
 40
1
 10
346.191266
 20
133.527158
 30
0.0
 10
346.756343
 20
133.761221
 30
0.0
 10
347.124782
 20
134.312630
 30
0.0
 10
347.124782
 20
134.924264
 30
0.0
  0
SPLINE
  5
2e4
100
AcDbEntity
  8
Layer_1
 62
7
100
AcDbSpline
 70
8
 71
3
 72
8
 73
4
 74
0
 40
0
 40
0
 40
0
 40
0
 40
1
 40
1
 40
1
 40
1
 10
347.124782
 20
134.924264
 30
0.0
 10
347.124782
 20
135.325329
 30
0.0
 10
346.965460
 20
135.709967
 30
0.0
 10
346.681864
 20
135.993562
 30
0.0
  0
SPLINE
  5
2e5
100
AcDbEntity
  8
Layer_1
 62
7
100
AcDbSpline
 70
8
 71
3
 72
8
 73
4
 74
0
 40
0
 40
0
 40
0
 40
0
 40
1
 40
1
 40
1
 40
1
 10
346.681864
 20
135.993562
 30
0.0
 10
346.398269
 20
136.277158
 30
0.0
 10
346.013631
 20
136.436480
 30
0.0
 10
345.612566
 20
136.436480
 30
0.0
  0
LWPOLYLINE
  5
2e6
100
AcDbEntity
  8
Layer_1
 62
7
100
AcDbPolyline
 90
1
 70
1
 10
323.612581
 20
114.436506
 30
0.0
  0
SPLINE
  5
2e7
100
AcDbEntity
  8
Layer_1
 62
7
100
AcDbSpline
 70
8
 71
3
 72
8
 73
4
 74
0
 40
0
 40
0
 40
0
 40
0
 40
1
 40
1
 40
1
 40
1
 10
367.612673
 20
114.436506
 30
0.0
 10
367.001039
 20
114.436506
 30
0.0
 10
366.449630
 20
114.068067
 30
0.0
 10
366.215567
 20
113.502990
 30
0.0
  0
SPLINE
  5
2e8
100
AcDbEntity
  8
Layer_1
 62
7
100
AcDbSpline
 70
8
 71
3
 72
8
 73
4
 74
0
 40
0
 40
0
 40
0
 40
0
 40
1
 40
1
 40
1
 40
1
 10
366.215567
 20
113.502990
 30
0.0
 10
365.981505
 20
112.937914
 30
0.0
 10
366.110884
 20
112.287482
 30
0.0
 10
366.543375
 20
111.854992
 30
0.0
  0
SPLINE
  5
2e9
100
AcDbEntity
  8
Layer_1
 62
7
100
AcDbSpline
 70
8
 71
3
 72
8
 73
4
 74
0
 40
0
 40
0
 40
0
 40
0
 40
1
 40
1
 40
1
 40
1
 10
366.543375
 20
111.854992
 30
0.0
 10
366.975865
 20
111.422501
 30
0.0
 10
367.626297
 20
111.293122
 30
0.0
 10
368.191373
 20
111.527184
 30
0.0
  0
SPLINE
  5
2ea
100
AcDbEntity
  8
Layer_1
 62
7
100
AcDbSpline
 70
8
 71
3
 72
8
 73
4
 74
0
 40
0
 40
0
 40
0
 40
0
 40
1
 40
1
 40
1
 40
1
 10
368.191373
 20
111.527184
 30
0.0
 10
368.756450
 20
111.761247
 30
0.0
 10
369.124889
 20
112.312656
 30
0.0
 10
369.124889
 20
112.924290
 30
0.0
  0
SPLINE
  5
2eb
100
AcDbEntity
  8
Layer_1
 62
7
100
AcDbSpline
 70
8
 71
3
 72
8
 73
4
 74
0
 40
0
 40
0
 40
0
 40
0
 40
1
 40
1
 40
1
 40
1
 10
369.124889
 20
112.924290
 30
0.0
 10
369.124889
 20
113.325355
 30
0.0
 10
368.965567
 20
113.709993
 30
0.0
 10
368.681971
 20
113.993588
 30
0.0
  0
SPLINE
  5
2ec
100
AcDbEntity
  8
Layer_1
 62
7
100
AcDbSpline
 70
8
 71
3
 72
8
 73
4
 74
0
 40
0
 40
0
 40
0
 40
0
 40
1
 40
1
 40
1
 40
1
 10
368.681971
 20
113.993588
 30
0.0
 10
368.398376
 20
114.277184
 30
0.0
 10
368.013738
 20
114.436506
 30
0.0
 10
367.612673
 20
114.436506
 30
0.0
  0
LWPOLYLINE
  5
2ed
100
AcDbEntity
  8
Layer_1
 62
7
100
AcDbPolyline
 90
1
 70
1
 10
345.612566
 20
136.436480
 30
0.0
  0
SPLINE
  5
2ee
100
AcDbEntity
  8
Layer_1
 62
7
100
AcDbSpline
 70
8
 71
3
 72
8
 73
4
 74
0
 40
0
 40
0
 40
0
 40
0
 40
1
 40
1
 40
1
 40
1
 10
326.120961
 20
112.881600
 30
0.0
 10
326.120939
 20
112.893533
 30
0.0
 10
326.120928
 20
112.905467
 30
0.0
 10
326.120928
 20
112.917400
 30
0.0
  0
SPLINE
  5
2ef
100
AcDbEntity
  8
Layer_1
 62
7
100
AcDbSpline
 70
8
 71
3
 72
8
 73
4
 74
0
 40
0
 40
0
 40
0
 40
0
 40
1
 40
1
 40
1
 40
1
 10
326.120928
 20
112.917400
 30
0.0
 10
326.120927
 20
118.086904
 30
0.0
 10
328.174505
 20
123.044679
 30
0.0
 10
331.829896
 20
126.700071
 30
0.0
  0
SPLINE
  5
2f0
100
AcDbEntity
  8
Layer_1
 62
7
100
AcDbSpline
 70
8
 71
3
 72
8
 73
4
 74
0
 40
0
 40
0
 40
0
 40
0
 40
1
 40
1
 40
1
 40
1
 10
331.829896
 20
126.700071
 30
0.0
 10
335.485287
 20
130.355462
 30
0.0
 10
340.443062
 20
132.409040
 30
0.0
 10
345.612566
 20
132.409040
 30
0.0
  0
SPLINE
  5
2f1
100
AcDbEntity
  8
Layer_1
 62
7
100
AcDbSpline
 70
8
 71
3
 72
8
 73
4
 74
0
 40
0
 40
0
 40
0
 40
0
 40
1
 40
1
 40
1
 40
1
 10
345.612566
 20
132.409040
 30
0.0
 10
350.782070
 20
132.409040
 30
0.0
 10
355.739845
 20
130.355462
 30
0.0
 10
359.395236
 20
126.700071
 30
0.0
  0
SPLINE
  5
2f2
100
AcDbEntity
  8
Layer_1
 62
7
100
AcDbSpline
 70
8
 71
3
 72
8
 73
4
 74
0
 40
0
 40
0
 40
0
 40
0
 40
1
 40
1
 40
1
 40
1
 10
359.395236
 20
126.700071
 30
0.0
 10
363.050627
 20
123.044679
 30
0.0
 10
365.104205
 20
118.086904
 30
0.0
 10
365.104204
 20
112.917400
 30
0.0
  0
LWPOLYLINE
  5
2f3
100
AcDbEntity
  8
Layer_1
 62
7
100
AcDbPolyline
 90
1
 70
1
 10
367.612673
 20
114.436506
 30
0.0
  0
SPLINE
  5
2f4
100
AcDbEntity
  8
Layer_1
 62
7
100
AcDbSpline
 70
8
 71
3
 72
8
 73
4
 74
0
 40
0
 40
0
 40
0
 40
0
 40
1
 40
1
 40
1
 40
1
 10
365.104204
 20
112.917400
 30
0.0
 10
365.104204
 20
112.905467
 30
0.0
 10
365.104194
 20
112.893533
 30
0.0
 10
365.104172
 20
112.881600
 30
0.0
  0
LWPOLYLINE
  5
2f5
100
AcDbEntity
  8
Layer_1
 62
7
100
AcDbPolyline
 90
1
 70
1
 10
365.104204
 20
112.917400
 30
0.0
  0
ENDSEC
  0
SECTION
  2
OBJECTS
  0
DICTIONARY
  5
C
330
0
100
AcDbDictionary
  3
ACAD_GROUP
350
D
  3
ACAD_MLINESTYLE
350
17
  0
DICTIONARY
  5
D
330
C
100
AcDbDictionary
  0
DICTIONARY
  5
1A
330
C
100
AcDbDictionary
  0
DICTIONARY
  5
17
330
C
100
AcDbDictionary
  3
STANDARD
350
18
  0
DICTIONARY
  5
19
330
C
100
AcDbDictionary
  0
ENDSEC
  0
EOF
