  0
SECTION
  2
HEADER
  9
$ACADVER
  1
AC1014
  9
$HANDSEED
  5
FFFF
  9
$INSUNITS
 70
     4
  9
$MEASUREMENT
 70
     1
  0
ENDSEC
  0
SECTION
  2
TABLES
  0
TABLE
  2
VPORT
  5
8
330
0
100
AcDbSymbolTable
 70
     4
  0
VPORT
  5
2E
330
8
100
AcDbSymbolTableRecord
100
AcDbViewportTableRecord
  2
*ACTIVE
 70
     0
 10
0.0
 20
0.0
 11
1.0
 21
1.0
 12
210.0
 22
148.5
 13
0.0
 23
0.0
 14
10.0
 24
10.0
 15
10.0
 25
10.0
 16
0.0
 26
0.0
 36
1.0
 17
0.0
 27
0.0
 37
0.0
 40
341.0
 41
1.24
 42
50.0
 43
0.0
 44
0.0
 50
0.0
 51
0.0
 71
     0
 72
   100
 73
     1
 74
     3
 75
     0
 76
     0
 77
     0
 78
     0
  0
ENDTAB
  0
TABLE
  2
LTYPE
  5
5
330
0
100
AcDbSymbolTable
 70
     1
  0
LTYPE
  5
14
330
5
100
AcDbSymbolTableRecord
100
AcDbLinetypeTableRecord
  2
BYBLOCK
 70
     0
  3

 72
    65
 73
     0
 40
0.0
  0
LTYPE
  5
15
330
5
100
AcDbSymbolTableRecord
100
AcDbLinetypeTableRecord
  2
BYLAYER
 70
     0
  3

 72
    65
 73
     0
 40
0.0
  0
LTYPE
  5
16
330
5
100
AcDbSymbolTableRecord
100
AcDbLinetypeTableRecord
  2
CONTINUOUS
 70
     0
  3
Solid line
 72
    65
 73
     0
 40
0.0
  0
ENDTAB
  0
TABLE
  2
LAYER
  5
2
100
AcDbSymbolTable
 70
2
  0
LAYER
  5
50
100
AcDbSymbolTableRecord
100
AcDbLayerTableRecord
  2
0
 70
0
  6
CONTINUOUS
  0
LAYER
  5
51
100
AcDbSymbolTableRecord
100
AcDbLayerTableRecord
  2
Layer_1
 70
0
  6
CONTINUOUS
  0
ENDTAB
  0
TABLE
  2
STYLE
  5
3
330
0
100
AcDbSymbolTable
 70
     1
  0
STYLE
  5
11
330
3
100
AcDbSymbolTableRecord
100
AcDbTextStyleTableRecord
  2
STANDARD
 70
     0
 40
0.0
 41
1.0
 50
0.0
 71
     0
 42
2.5
  3
txt
  4

  0
ENDTAB
  0
TABLE
  2
VIEW
  5
6
330
0
100
AcDbSymbolTable
 70
     0
  0
ENDTAB
  0
TABLE
  2
UCS
  5
7
330
0
100
AcDbSymbolTable
 70
     0
  0
ENDTAB
  0
TABLE
  2
APPID
  5
9
330
0
100
AcDbSymbolTable
 70
     2
  0
APPID
  5
12
330
9
100
AcDbSymbolTableRecord
100
AcDbRegAppTableRecord
  2
ACAD
 70
     0
  0
ENDTAB
  0
TABLE
  2
DIMSTYLE
  5
A
330
0
100
AcDbSymbolTable
 70
     1
  0
DIMSTYLE
105
27
330
A
100
AcDbSymbolTableRecord
100
AcDbDimStyleTableRecord
  2
ISO-25
 70
     0
  3

  4

  5

  6

  7

 40
1.0
 41
2.5
 42
0.625
 43
3.75
 44
1.25
 45
0.0
 46
0.0
 47
0.0
 48
0.0
140
2.5
141
2.5
142
0.0
143
0.03937007874016
144
1.0
145
0.0
146
1.0
147
0.625
 71
     0
 72
     0
 73
     0
 74
     0
 75
     0
 76
     0
 77
     1
 78
     8
170
     0
171
     3
172
     1
173
     0
174
     0
175
     0
176
     0
177
     0
178
     0
270
     2
271
     2
272
     2
273
     2
274
     3
340
11
275
     0
280
     0
281
     0
282
     0
283
     0
284
     8
285
     0
286
     0
287
     3
288
     0
  0
ENDTAB
  0
TABLE
  2
BLOCK_RECORD
  5
1
330
0
100
AcDbSymbolTable
 70
     1
  0
BLOCK_RECORD
  5
1F
330
1
100
AcDbSymbolTableRecord
100
AcDbBlockTableRecord
  2
*MODEL_SPACE
  0
BLOCK_RECORD
  5
1B
330
1
100
AcDbSymbolTableRecord
100
AcDbBlockTableRecord
  2
*PAPER_SPACE
  0
ENDTAB
  0
ENDSEC
  0
SECTION
  2
BLOCKS
  0
BLOCK
  5
20
330
1F
100
AcDbEntity
  8
0
100
AcDbBlockBegin
  2
*MODEL_SPACE
 70
     0
 10
0.0
 20
0.0
 30
0.0
  3
*MODEL_SPACE
  1

  0
ENDBLK
  5
21
330
1F
100
AcDbEntity
  8
0
100
AcDbBlockEnd
  0
BLOCK
  5
1C
330
1B
100
AcDbEntity
 67
     1
  8
0
100
AcDbBlockBegin
  2
*PAPER_SPACE
  1

  0
ENDBLK
  5
1D
330
1B
100
AcDbEntity
 67
     1
  8
0
100
AcDbBlockEnd
  0
ENDSEC
  0
SECTION
  2
ENTITIES
  0
LWPOLYLINE
  5
100
100
AcDbEntity
  8
Layer_1
 62
7
100
AcDbPolyline
 90
32
 70
1
 10
417.221940
 20
77.057050
 30
0.0
 10
365.022030
 20
77.057050
 30
0.0
 10
365.022030
 20
127.857040
 30
0.0
 10
417.221940
 20
127.857040
 30
0.0
 10
417.221940
 20
145.637040
 30
0.0
 10
465.222120
 20
145.637040
 30
0.0
 10
465.222120
 20
204.416880
 30
0.0
 10
416.722140
 20
204.416880
 30
0.0
 10
416.722140
 20
249.417210
 30
0.0
 10
465.222120
 20
249.417210
 30
0.0
 10
465.222120
 20
328.517045
 30
0.0
 10
417.221940
 20
328.517045
 30
0.0
 10
417.221940
 20
346.297044
 30
0.0
 10
365.022030
 20
346.297044
 30
0.0
 10
365.022030
 20
383.127044
 30
0.0
 10
157.422010
 20
383.127044
 30
0.0
 10
157.422010
 20
346.297044
 30
0.0
 10
105.222100
 20
346.297044
 30
0.0
 10
105.222100
 20
328.517045
 30
0.0
 10
57.221924
 20
328.517045
 30
0.0
 10
57.221924
 20
249.417210
 30
0.0
 10
105.721900
 20
249.417210
 30
0.0
 10
105.721900
 20
204.416880
 30
0.0
 10
57.221924
 20
204.416880
 30
0.0
 10
57.221924
 20
145.637040
 30
0.0
 10
105.222100
 20
145.637040
 30
0.0
 10
105.222100
 20
127.857040
 30
0.0
 10
157.422010
 20
127.857040
 30
0.0
 10
157.422010
 20
77.057050
 30
0.0
 10
105.222100
 20
77.057050
 30
0.0
 10
105.222100
 20
47.847050
 30
0.0
 10
417.221940
 20
47.847050
 30
0.0
  0
LWPOLYLINE
  5
101
100
AcDbEntity
  8
Layer_1
 62
7
100
AcDbPolyline
 90
4
 70
1
 10
289.161760
 20
90.392050
 30
0.0
 10
289.161760
 20
91.662050
 30
0.0
 10
309.481750
 20
91.662050
 30
0.0
 10
309.481750
 20
90.392050
 30
0.0
  0
LWPOLYLINE
  5
102
100
AcDbEntity
  8
Layer_1
 62
7
100
AcDbPolyline
 90
4
 70
1
 10
212.962290
 20
90.392050
 30
0.0
 10
212.962290
 20
91.662050
 30
0.0
 10
233.282280
 20
91.662050
 30
0.0
 10
233.282280
 20
90.392050
 30
0.0
  0
LWPOLYLINE
  5
103
100
AcDbEntity
  8
Layer_1
 62
7
100
AcDbPolyline
 90
4
 70
1
 10
174.862290
 20
90.392050
 30
0.0
 10
174.862290
 20
91.662050
 30
0.0
 10
195.182290
 20
91.662050
 30
0.0
 10
195.182290
 20
90.392050
 30
0.0
  0
LWPOLYLINE
  5
104
100
AcDbEntity
  8
Layer_1
 62
7
100
AcDbPolyline
 90
4
 70
1
 10
251.062230
 20
90.392050
 30
0.0
 10
251.062230
 20
91.662050
 30
0.0
 10
271.381810
 20
91.662050
 30
0.0
 10
271.381810
 20
90.392050
 30
0.0
  0
SPLINE
  5
105
100
AcDbEntity
  8
Layer_1
 62
7
100
AcDbSpline
 70
8
 71
3
 72
8
 73
4
 74
0
 40
0
 40
0
 40
0
 40
0
 40
1
 40
1
 40
1
 40
1
 10
105.206360
 20
311.078463
 30
0.0
 10
104.396973
 20
311.078463
 30
0.0
 10
103.667283
 20
310.590901
 30
0.0
 10
103.357544
 20
309.843124
 30
0.0
  0
SPLINE
  5
106
100
AcDbEntity
  8
Layer_1
 62
7
100
AcDbSpline
 70
8
 71
3
 72
8
 73
4
 74
0
 40
0
 40
0
 40
0
 40
0
 40
1
 40
1
 40
1
 40
1
 10
103.357544
 20
309.843124
 30
0.0
 10
103.047805
 20
309.095348
 30
0.0
 10
103.219015
 20
308.234621
 30
0.0
 10
103.791338
 20
307.662298
 30
0.0
  0
SPLINE
  5
107
100
AcDbEntity
  8
Layer_1
 62
7
100
AcDbSpline
 70
8
 71
3
 72
8
 73
4
 74
0
 40
0
 40
0
 40
0
 40
0
 40
1
 40
1
 40
1
 40
1
 10
103.791338
 20
307.662298
 30
0.0
 10
104.363661
 20
307.089975
 30
0.0
 10
105.224388
 20
306.918765
 30
0.0
 10
105.972164
 20
307.228504
 30
0.0
  0
SPLINE
  5
108
100
AcDbEntity
  8
Layer_1
 62
7
100
AcDbSpline
 70
8
 71
3
 72
8
 73
4
 74
0
 40
0
 40
0
 40
0
 40
0
 40
1
 40
1
 40
1
 40
1
 10
105.972164
 20
307.228504
 30
0.0
 10
106.719941
 20
307.538243
 30
0.0
 10
107.207504
 20
308.267933
 30
0.0
 10
107.207504
 20
309.077320
 30
0.0
  0
SPLINE
  5
109
100
AcDbEntity
  8
Layer_1
 62
7
100
AcDbSpline
 70
8
 71
3
 72
8
 73
4
 74
0
 40
0
 40
0
 40
0
 40
0
 40
1
 40
1
 40
1
 40
1
 10
107.207504
 20
309.077320
 30
0.0
 10
107.207504
 20
309.608056
 30
0.0
 10
106.996669
 20
310.117055
 30
0.0
 10
106.621382
 20
310.492342
 30
0.0
  0
SPLINE
  5
10a
100
AcDbEntity
  8
Layer_1
 62
7
100
AcDbSpline
 70
8
 71
3
 72
8
 73
4
 74
0
 40
0
 40
0
 40
0
 40
0
 40
1
 40
1
 40
1
 40
1
 10
106.621382
 20
310.492342
 30
0.0
 10
106.246095
 20
310.867629
 30
0.0
 10
105.737096
 20
311.078464
 30
0.0
 10
105.206360
 20
311.078464
 30
0.0
  0
LWPOLYLINE
  5
10b
100
AcDbEntity
  8
Layer_1
 62
7
100
AcDbPolyline
 90
4
 70
1
 10
327.261750
 20
90.392050
 30
0.0
 10
327.261750
 20
91.662050
 30
0.0
 10
347.581750
 20
91.662050
 30
0.0
 10
347.581750
 20
90.392050
 30
0.0
  0
SPLINE
  5
10c
100
AcDbEntity
  8
Layer_1
 62
7
100
AcDbSpline
 70
8
 71
3
 72
8
 73
4
 74
0
 40
0
 40
0
 40
0
 40
0
 40
1
 40
1
 40
1
 40
1
 10
409.206330
 20
311.078463
 30
0.0
 10
408.396943
 20
311.078463
 30
0.0
 10
407.667253
 20
310.590901
 30
0.0
 10
407.357514
 20
309.843124
 30
0.0
  0
SPLINE
  5
10d
100
AcDbEntity
  8
Layer_1
 62
7
100
AcDbSpline
 70
8
 71
3
 72
8
 73
4
 74
0
 40
0
 40
0
 40
0
 40
0
 40
1
 40
1
 40
1
 40
1
 10
407.357514
 20
309.843124
 30
0.0
 10
407.047775
 20
309.095348
 30
0.0
 10
407.218985
 20
308.234621
 30
0.0
 10
407.791308
 20
307.662298
 30
0.0
  0
SPLINE
  5
10e
100
AcDbEntity
  8
Layer_1
 62
7
100
AcDbSpline
 70
8
 71
3
 72
8
 73
4
 74
0
 40
0
 40
0
 40
0
 40
0
 40
1
 40
1
 40
1
 40
1
 10
407.791308
 20
307.662298
 30
0.0
 10
408.363631
 20
307.089975
 30
0.0
 10
409.224358
 20
306.918765
 30
0.0
 10
409.972134
 20
307.228504
 30
0.0
  0
SPLINE
  5
10f
100
AcDbEntity
  8
Layer_1
 62
7
100
AcDbSpline
 70
8
 71
3
 72
8
 73
4
 74
0
 40
0
 40
0
 40
0
 40
0
 40
1
 40
1
 40
1
 40
1
 10
409.972134
 20
307.228504
 30
0.0
 10
410.719911
 20
307.538243
 30
0.0
 10
411.207474
 20
308.267933
 30
0.0
 10
411.207474
 20
309.077320
 30
0.0
  0
SPLINE
  5
110
100
AcDbEntity
  8
Layer_1
 62
7
100
AcDbSpline
 70
8
 71
3
 72
8
 73
4
 74
0
 40
0
 40
0
 40
0
 40
0
 40
1
 40
1
 40
1
 40
1
 10
411.207474
 20
309.077320
 30
0.0
 10
411.207474
 20
309.608056
 30
0.0
 10
410.996639
 20
310.117055
 30
0.0
 10
410.621352
 20
310.492342
 30
0.0
  0
SPLINE
  5
111
100
AcDbEntity
  8
Layer_1
 62
7
100
AcDbSpline
 70
8
 71
3
 72
8
 73
4
 74
0
 40
0
 40
0
 40
0
 40
0
 40
1
 40
1
 40
1
 40
1
 10
410.621352
 20
310.492342
 30
0.0
 10
410.246065
 20
310.867629
 30
0.0
 10
409.737066
 20
311.078464
 30
0.0
 10
409.206330
 20
311.078464
 30
0.0
  0
LWPOLYLINE
  5
112
100
AcDbEntity
  8
Layer_1
 62
7
100
AcDbPolyline
 90
1
 70
1
 10
105.206360
 20
311.078464
 30
0.0
  0
SPLINE
  5
113
100
AcDbEntity
  8
Layer_1
 62
7
100
AcDbSpline
 70
8
 71
3
 72
8
 73
4
 74
0
 40
0
 40
0
 40
0
 40
0
 40
1
 40
1
 40
1
 40
1
 10
393.206330
 20
311.078463
 30
0.0
 10
392.396943
 20
311.078463
 30
0.0
 10
391.667253
 20
310.590901
 30
0.0
 10
391.357514
 20
309.843124
 30
0.0
  0
SPLINE
  5
114
100
AcDbEntity
  8
Layer_1
 62
7
100
AcDbSpline
 70
8
 71
3
 72
8
 73
4
 74
0
 40
0
 40
0
 40
0
 40
0
 40
1
 40
1
 40
1
 40
1
 10
391.357514
 20
309.843124
 30
0.0
 10
391.047775
 20
309.095348
 30
0.0
 10
391.218985
 20
308.234621
 30
0.0
 10
391.791308
 20
307.662298
 30
0.0
  0
SPLINE
  5
115
100
AcDbEntity
  8
Layer_1
 62
7
100
AcDbSpline
 70
8
 71
3
 72
8
 73
4
 74
0
 40
0
 40
0
 40
0
 40
0
 40
1
 40
1
 40
1
 40
1
 10
391.791308
 20
307.662298
 30
0.0
 10
392.363631
 20
307.089975
 30
0.0
 10
393.224358
 20
306.918765
 30
0.0
 10
393.972134
 20
307.228504
 30
0.0
  0
SPLINE
  5
116
100
AcDbEntity
  8
Layer_1
 62
7
100
AcDbSpline
 70
8
 71
3
 72
8
 73
4
 74
0
 40
0
 40
0
 40
0
 40
0
 40
1
 40
1
 40
1
 40
1
 10
393.972134
 20
307.228504
 30
0.0
 10
394.719911
 20
307.538243
 30
0.0
 10
395.207474
 20
308.267933
 30
0.0
 10
395.207474
 20
309.077320
 30
0.0
  0
SPLINE
  5
117
100
AcDbEntity
  8
Layer_1
 62
7
100
AcDbSpline
 70
8
 71
3
 72
8
 73
4
 74
0
 40
0
 40
0
 40
0
 40
0
 40
1
 40
1
 40
1
 40
1
 10
395.207474
 20
309.077320
 30
0.0
 10
395.207474
 20
309.608056
 30
0.0
 10
394.996639
 20
310.117055
 30
0.0
 10
394.621352
 20
310.492342
 30
0.0
  0
SPLINE
  5
118
100
AcDbEntity
  8
Layer_1
 62
7
100
AcDbSpline
 70
8
 71
3
 72
8
 73
4
 74
0
 40
0
 40
0
 40
0
 40
0
 40
1
 40
1
 40
1
 40
1
 10
394.621352
 20
310.492342
 30
0.0
 10
394.246065
 20
310.867629
 30
0.0
 10
393.737066
 20
311.078464
 30
0.0
 10
393.206330
 20
311.078464
 30
0.0
  0
LWPOLYLINE
  5
119
100
AcDbEntity
  8
Layer_1
 62
7
100
AcDbPolyline
 90
1
 70
1
 10
409.206330
 20
311.078464
 30
0.0
  0
SPLINE
  5
11a
100
AcDbEntity
  8
Layer_1
 62
7
100
AcDbSpline
 70
8
 71
3
 72
8
 73
4
 74
0
 40
0
 40
0
 40
0
 40
0
 40
1
 40
1
 40
1
 40
1
 10
377.206330
 20
311.078463
 30
0.0
 10
376.396943
 20
311.078463
 30
0.0
 10
375.667253
 20
310.590901
 30
0.0
 10
375.357514
 20
309.843124
 30
0.0
  0
SPLINE
  5
11b
100
AcDbEntity
  8
Layer_1
 62
7
100
AcDbSpline
 70
8
 71
3
 72
8
 73
4
 74
0
 40
0
 40
0
 40
0
 40
0
 40
1
 40
1
 40
1
 40
1
 10
375.357514
 20
309.843124
 30
0.0
 10
375.047775
 20
309.095348
 30
0.0
 10
375.218985
 20
308.234621
 30
0.0
 10
375.791308
 20
307.662298
 30
0.0
  0
SPLINE
  5
11c
100
AcDbEntity
  8
Layer_1
 62
7
100
AcDbSpline
 70
8
 71
3
 72
8
 73
4
 74
0
 40
0
 40
0
 40
0
 40
0
 40
1
 40
1
 40
1
 40
1
 10
375.791308
 20
307.662298
 30
0.0
 10
376.363631
 20
307.089975
 30
0.0
 10
377.224358
 20
306.918765
 30
0.0
 10
377.972134
 20
307.228504
 30
0.0
  0
SPLINE
  5
11d
100
AcDbEntity
  8
Layer_1
 62
7
100
AcDbSpline
 70
8
 71
3
 72
8
 73
4
 74
0
 40
0
 40
0
 40
0
 40
0
 40
1
 40
1
 40
1
 40
1
 10
377.972134
 20
307.228504
 30
0.0
 10
378.719911
 20
307.538243
 30
0.0
 10
379.207474
 20
308.267933
 30
0.0
 10
379.207474
 20
309.077320
 30
0.0
  0
SPLINE
  5
11e
100
AcDbEntity
  8
Layer_1
 62
7
100
AcDbSpline
 70
8
 71
3
 72
8
 73
4
 74
0
 40
0
 40
0
 40
0
 40
0
 40
1
 40
1
 40
1
 40
1
 10
379.207474
 20
309.077320
 30
0.0
 10
379.207474
 20
309.608056
 30
0.0
 10
378.996639
 20
310.117055
 30
0.0
 10
378.621352
 20
310.492342
 30
0.0
  0
SPLINE
  5
11f
100
AcDbEntity
  8
Layer_1
 62
7
100
AcDbSpline
 70
8
 71
3
 72
8
 73
4
 74
0
 40
0
 40
0
 40
0
 40
0
 40
1
 40
1
 40
1
 40
1
 10
378.621352
 20
310.492342
 30
0.0
 10
378.246065
 20
310.867629
 30
0.0
 10
377.737066
 20
311.078464
 30
0.0
 10
377.206330
 20
311.078464
 30
0.0
  0
LWPOLYLINE
  5
120
100
AcDbEntity
  8
Layer_1
 62
7
100
AcDbPolyline
 90
1
 70
1
 10
393.206330
 20
311.078464
 30
0.0
  0
SPLINE
  5
121
100
AcDbEntity
  8
Layer_1
 62
7
100
AcDbSpline
 70
8
 71
3
 72
8
 73
4
 74
0
 40
0
 40
0
 40
0
 40
0
 40
1
 40
1
 40
1
 40
1
 10
361.206330
 20
311.078463
 30
0.0
 10
360.396943
 20
311.078463
 30
0.0
 10
359.667253
 20
310.590901
 30
0.0
 10
359.357514
 20
309.843124
 30
0.0
  0
SPLINE
  5
122
100
AcDbEntity
  8
Layer_1
 62
7
100
AcDbSpline
 70
8
 71
3
 72
8
 73
4
 74
0
 40
0
 40
0
 40
0
 40
0
 40
1
 40
1
 40
1
 40
1
 10
359.357514
 20
309.843124
 30
0.0
 10
359.047775
 20
309.095348
 30
0.0
 10
359.218985
 20
308.234621
 30
0.0
 10
359.791308
 20
307.662298
 30
0.0
  0
SPLINE
  5
123
100
AcDbEntity
  8
Layer_1
 62
7
100
AcDbSpline
 70
8
 71
3
 72
8
 73
4
 74
0
 40
0
 40
0
 40
0
 40
0
 40
1
 40
1
 40
1
 40
1
 10
359.791308
 20
307.662298
 30
0.0
 10
360.363631
 20
307.089975
 30
0.0
 10
361.224358
 20
306.918765
 30
0.0
 10
361.972134
 20
307.228504
 30
0.0
  0
SPLINE
  5
124
100
AcDbEntity
  8
Layer_1
 62
7
100
AcDbSpline
 70
8
 71
3
 72
8
 73
4
 74
0
 40
0
 40
0
 40
0
 40
0
 40
1
 40
1
 40
1
 40
1
 10
361.972134
 20
307.228504
 30
0.0
 10
362.719911
 20
307.538243
 30
0.0
 10
363.207474
 20
308.267933
 30
0.0
 10
363.207474
 20
309.077320
 30
0.0
  0
SPLINE
  5
125
100
AcDbEntity
  8
Layer_1
 62
7
100
AcDbSpline
 70
8
 71
3
 72
8
 73
4
 74
0
 40
0
 40
0
 40
0
 40
0
 40
1
 40
1
 40
1
 40
1
 10
363.207474
 20
309.077320
 30
0.0
 10
363.207474
 20
309.608056
 30
0.0
 10
362.996639
 20
310.117055
 30
0.0
 10
362.621352
 20
310.492342
 30
0.0
  0
SPLINE
  5
126
100
AcDbEntity
  8
Layer_1
 62
7
100
AcDbSpline
 70
8
 71
3
 72
8
 73
4
 74
0
 40
0
 40
0
 40
0
 40
0
 40
1
 40
1
 40
1
 40
1
 10
362.621352
 20
310.492342
 30
0.0
 10
362.246065
 20
310.867629
 30
0.0
 10
361.737066
 20
311.078464
 30
0.0
 10
361.206330
 20
311.078464
 30
0.0
  0
LWPOLYLINE
  5
127
100
AcDbEntity
  8
Layer_1
 62
7
100
AcDbPolyline
 90
1
 70
1
 10
377.206330
 20
311.078464
 30
0.0
  0
SPLINE
  5
128
100
AcDbEntity
  8
Layer_1
 62
7
100
AcDbSpline
 70
8
 71
3
 72
8
 73
4
 74
0
 40
0
 40
0
 40
0
 40
0
 40
1
 40
1
 40
1
 40
1
 10
345.206330
 20
311.078463
 30
0.0
 10
344.396943
 20
311.078463
 30
0.0
 10
343.667253
 20
310.590901
 30
0.0
 10
343.357514
 20
309.843124
 30
0.0
  0
SPLINE
  5
129
100
AcDbEntity
  8
Layer_1
 62
7
100
AcDbSpline
 70
8
 71
3
 72
8
 73
4
 74
0
 40
0
 40
0
 40
0
 40
0
 40
1
 40
1
 40
1
 40
1
 10
343.357514
 20
309.843124
 30
0.0
 10
343.047775
 20
309.095348
 30
0.0
 10
343.218985
 20
308.234621
 30
0.0
 10
343.791308
 20
307.662298
 30
0.0
  0
SPLINE
  5
12a
100
AcDbEntity
  8
Layer_1
 62
7
100
AcDbSpline
 70
8
 71
3
 72
8
 73
4
 74
0
 40
0
 40
0
 40
0
 40
0
 40
1
 40
1
 40
1
 40
1
 10
343.791308
 20
307.662298
 30
0.0
 10
344.363631
 20
307.089975
 30
0.0
 10
345.224358
 20
306.918765
 30
0.0
 10
345.972134
 20
307.228504
 30
0.0
  0
SPLINE
  5
12b
100
AcDbEntity
  8
Layer_1
 62
7
100
AcDbSpline
 70
8
 71
3
 72
8
 73
4
 74
0
 40
0
 40
0
 40
0
 40
0
 40
1
 40
1
 40
1
 40
1
 10
345.972134
 20
307.228504
 30
0.0
 10
346.719911
 20
307.538243
 30
0.0
 10
347.207474
 20
308.267933
 30
0.0
 10
347.207474
 20
309.077320
 30
0.0
  0
SPLINE
  5
12c
100
AcDbEntity
  8
Layer_1
 62
7
100
AcDbSpline
 70
8
 71
3
 72
8
 73
4
 74
0
 40
0
 40
0
 40
0
 40
0
 40
1
 40
1
 40
1
 40
1
 10
347.207474
 20
309.077320
 30
0.0
 10
347.207474
 20
309.608056
 30
0.0
 10
346.996639
 20
310.117055
 30
0.0
 10
346.621352
 20
310.492342
 30
0.0
  0
SPLINE
  5
12d
100
AcDbEntity
  8
Layer_1
 62
7
100
AcDbSpline
 70
8
 71
3
 72
8
 73
4
 74
0
 40
0
 40
0
 40
0
 40
0
 40
1
 40
1
 40
1
 40
1
 10
346.621352
 20
310.492342
 30
0.0
 10
346.246065
 20
310.867629
 30
0.0
 10
345.737066
 20
311.078464
 30
0.0
 10
345.206330
 20
311.078464
 30
0.0
  0
LWPOLYLINE
  5
12e
100
AcDbEntity
  8
Layer_1
 62
7
100
AcDbPolyline
 90
1
 70
1
 10
361.206330
 20
311.078464
 30
0.0
  0
SPLINE
  5
12f
100
AcDbEntity
  8
Layer_1
 62
7
100
AcDbSpline
 70
8
 71
3
 72
8
 73
4
 74
0
 40
0
 40
0
 40
0
 40
0
 40
1
 40
1
 40
1
 40
1
 10
329.206330
 20
311.078463
 30
0.0
 10
328.396943
 20
311.078463
 30
0.0
 10
327.667253
 20
310.590901
 30
0.0
 10
327.357514
 20
309.843124
 30
0.0
  0
SPLINE
  5
130
100
AcDbEntity
  8
Layer_1
 62
7
100
AcDbSpline
 70
8
 71
3
 72
8
 73
4
 74
0
 40
0
 40
0
 40
0
 40
0
 40
1
 40
1
 40
1
 40
1
 10
327.357514
 20
309.843124
 30
0.0
 10
327.047775
 20
309.095348
 30
0.0
 10
327.218985
 20
308.234621
 30
0.0
 10
327.791308
 20
307.662298
 30
0.0
  0
SPLINE
  5
131
100
AcDbEntity
  8
Layer_1
 62
7
100
AcDbSpline
 70
8
 71
3
 72
8
 73
4
 74
0
 40
0
 40
0
 40
0
 40
0
 40
1
 40
1
 40
1
 40
1
 10
327.791308
 20
307.662298
 30
0.0
 10
328.363631
 20
307.089975
 30
0.0
 10
329.224358
 20
306.918765
 30
0.0
 10
329.972134
 20
307.228504
 30
0.0
  0
SPLINE
  5
132
100
AcDbEntity
  8
Layer_1
 62
7
100
AcDbSpline
 70
8
 71
3
 72
8
 73
4
 74
0
 40
0
 40
0
 40
0
 40
0
 40
1
 40
1
 40
1
 40
1
 10
329.972134
 20
307.228504
 30
0.0
 10
330.719911
 20
307.538243
 30
0.0
 10
331.207474
 20
308.267933
 30
0.0
 10
331.207474
 20
309.077320
 30
0.0
  0
SPLINE
  5
133
100
AcDbEntity
  8
Layer_1
 62
7
100
AcDbSpline
 70
8
 71
3
 72
8
 73
4
 74
0
 40
0
 40
0
 40
0
 40
0
 40
1
 40
1
 40
1
 40
1
 10
331.207474
 20
309.077320
 30
0.0
 10
331.207474
 20
309.608056
 30
0.0
 10
330.996639
 20
310.117055
 30
0.0
 10
330.621352
 20
310.492342
 30
0.0
  0
SPLINE
  5
134
100
AcDbEntity
  8
Layer_1
 62
7
100
AcDbSpline
 70
8
 71
3
 72
8
 73
4
 74
0
 40
0
 40
0
 40
0
 40
0
 40
1
 40
1
 40
1
 40
1
 10
330.621352
 20
310.492342
 30
0.0
 10
330.246065
 20
310.867629
 30
0.0
 10
329.737066
 20
311.078464
 30
0.0
 10
329.206330
 20
311.078464
 30
0.0
  0
LWPOLYLINE
  5
135
100
AcDbEntity
  8
Layer_1
 62
7
100
AcDbPolyline
 90
1
 70
1
 10
345.206330
 20
311.078464
 30
0.0
  0
SPLINE
  5
136
100
AcDbEntity
  8
Layer_1
 62
7
100
AcDbSpline
 70
8
 71
3
 72
8
 73
4
 74
0
 40
0
 40
0
 40
0
 40
0
 40
1
 40
1
 40
1
 40
1
 10
313.206330
 20
311.078463
 30
0.0
 10
312.396943
 20
311.078463
 30
0.0
 10
311.667253
 20
310.590901
 30
0.0
 10
311.357514
 20
309.843124
 30
0.0
  0
SPLINE
  5
137
100
AcDbEntity
  8
Layer_1
 62
7
100
AcDbSpline
 70
8
 71
3
 72
8
 73
4
 74
0
 40
0
 40
0
 40
0
 40
0
 40
1
 40
1
 40
1
 40
1
 10
311.357514
 20
309.843124
 30
0.0
 10
311.047775
 20
309.095348
 30
0.0
 10
311.218985
 20
308.234621
 30
0.0
 10
311.791308
 20
307.662298
 30
0.0
  0
SPLINE
  5
138
100
AcDbEntity
  8
Layer_1
 62
7
100
AcDbSpline
 70
8
 71
3
 72
8
 73
4
 74
0
 40
0
 40
0
 40
0
 40
0
 40
1
 40
1
 40
1
 40
1
 10
311.791308
 20
307.662298
 30
0.0
 10
312.363631
 20
307.089975
 30
0.0
 10
313.224358
 20
306.918765
 30
0.0
 10
313.972134
 20
307.228504
 30
0.0
  0
SPLINE
  5
139
100
AcDbEntity
  8
Layer_1
 62
7
100
AcDbSpline
 70
8
 71
3
 72
8
 73
4
 74
0
 40
0
 40
0
 40
0
 40
0
 40
1
 40
1
 40
1
 40
1
 10
313.972134
 20
307.228504
 30
0.0
 10
314.719911
 20
307.538243
 30
0.0
 10
315.207474
 20
308.267933
 30
0.0
 10
315.207474
 20
309.077320
 30
0.0
  0
SPLINE
  5
13a
100
AcDbEntity
  8
Layer_1
 62
7
100
AcDbSpline
 70
8
 71
3
 72
8
 73
4
 74
0
 40
0
 40
0
 40
0
 40
0
 40
1
 40
1
 40
1
 40
1
 10
315.207474
 20
309.077320
 30
0.0
 10
315.207474
 20
309.608056
 30
0.0
 10
314.996639
 20
310.117055
 30
0.0
 10
314.621352
 20
310.492342
 30
0.0
  0
SPLINE
  5
13b
100
AcDbEntity
  8
Layer_1
 62
7
100
AcDbSpline
 70
8
 71
3
 72
8
 73
4
 74
0
 40
0
 40
0
 40
0
 40
0
 40
1
 40
1
 40
1
 40
1
 10
314.621352
 20
310.492342
 30
0.0
 10
314.246065
 20
310.867629
 30
0.0
 10
313.737066
 20
311.078464
 30
0.0
 10
313.206330
 20
311.078464
 30
0.0
  0
LWPOLYLINE
  5
13c
100
AcDbEntity
  8
Layer_1
 62
7
100
AcDbPolyline
 90
1
 70
1
 10
329.206330
 20
311.078464
 30
0.0
  0
SPLINE
  5
13d
100
AcDbEntity
  8
Layer_1
 62
7
100
AcDbSpline
 70
8
 71
3
 72
8
 73
4
 74
0
 40
0
 40
0
 40
0
 40
0
 40
1
 40
1
 40
1
 40
1
 10
297.206330
 20
311.078463
 30
0.0
 10
296.396943
 20
311.078463
 30
0.0
 10
295.667253
 20
310.590901
 30
0.0
 10
295.357514
 20
309.843124
 30
0.0
  0
SPLINE
  5
13e
100
AcDbEntity
  8
Layer_1
 62
7
100
AcDbSpline
 70
8
 71
3
 72
8
 73
4
 74
0
 40
0
 40
0
 40
0
 40
0
 40
1
 40
1
 40
1
 40
1
 10
295.357514
 20
309.843124
 30
0.0
 10
295.047775
 20
309.095348
 30
0.0
 10
295.218985
 20
308.234621
 30
0.0
 10
295.791308
 20
307.662298
 30
0.0
  0
SPLINE
  5
13f
100
AcDbEntity
  8
Layer_1
 62
7
100
AcDbSpline
 70
8
 71
3
 72
8
 73
4
 74
0
 40
0
 40
0
 40
0
 40
0
 40
1
 40
1
 40
1
 40
1
 10
295.791308
 20
307.662298
 30
0.0
 10
296.363631
 20
307.089975
 30
0.0
 10
297.224358
 20
306.918765
 30
0.0
 10
297.972134
 20
307.228504
 30
0.0
  0
SPLINE
  5
140
100
AcDbEntity
  8
Layer_1
 62
7
100
AcDbSpline
 70
8
 71
3
 72
8
 73
4
 74
0
 40
0
 40
0
 40
0
 40
0
 40
1
 40
1
 40
1
 40
1
 10
297.972134
 20
307.228504
 30
0.0
 10
298.719911
 20
307.538243
 30
0.0
 10
299.207474
 20
308.267933
 30
0.0
 10
299.207474
 20
309.077320
 30
0.0
  0
SPLINE
  5
141
100
AcDbEntity
  8
Layer_1
 62
7
100
AcDbSpline
 70
8
 71
3
 72
8
 73
4
 74
0
 40
0
 40
0
 40
0
 40
0
 40
1
 40
1
 40
1
 40
1
 10
299.207474
 20
309.077320
 30
0.0
 10
299.207474
 20
309.608056
 30
0.0
 10
298.996639
 20
310.117055
 30
0.0
 10
298.621352
 20
310.492342
 30
0.0
  0
SPLINE
  5
142
100
AcDbEntity
  8
Layer_1
 62
7
100
AcDbSpline
 70
8
 71
3
 72
8
 73
4
 74
0
 40
0
 40
0
 40
0
 40
0
 40
1
 40
1
 40
1
 40
1
 10
298.621352
 20
310.492342
 30
0.0
 10
298.246065
 20
310.867629
 30
0.0
 10
297.737066
 20
311.078464
 30
0.0
 10
297.206330
 20
311.078464
 30
0.0
  0
LWPOLYLINE
  5
143
100
AcDbEntity
  8
Layer_1
 62
7
100
AcDbPolyline
 90
1
 70
1
 10
313.206330
 20
311.078464
 30
0.0
  0
SPLINE
  5
144
100
AcDbEntity
  8
Layer_1
 62
7
100
AcDbSpline
 70
8
 71
3
 72
8
 73
4
 74
0
 40
0
 40
0
 40
0
 40
0
 40
1
 40
1
 40
1
 40
1
 10
121.206360
 20
311.078463
 30
0.0
 10
120.396973
 20
311.078463
 30
0.0
 10
119.667283
 20
310.590901
 30
0.0
 10
119.357544
 20
309.843124
 30
0.0
  0
SPLINE
  5
145
100
AcDbEntity
  8
Layer_1
 62
7
100
AcDbSpline
 70
8
 71
3
 72
8
 73
4
 74
0
 40
0
 40
0
 40
0
 40
0
 40
1
 40
1
 40
1
 40
1
 10
119.357544
 20
309.843124
 30
0.0
 10
119.047805
 20
309.095348
 30
0.0
 10
119.219015
 20
308.234621
 30
0.0
 10
119.791338
 20
307.662298
 30
0.0
  0
SPLINE
  5
146
100
AcDbEntity
  8
Layer_1
 62
7
100
AcDbSpline
 70
8
 71
3
 72
8
 73
4
 74
0
 40
0
 40
0
 40
0
 40
0
 40
1
 40
1
 40
1
 40
1
 10
119.791338
 20
307.662298
 30
0.0
 10
120.363661
 20
307.089975
 30
0.0
 10
121.224388
 20
306.918765
 30
0.0
 10
121.972164
 20
307.228504
 30
0.0
  0
SPLINE
  5
147
100
AcDbEntity
  8
Layer_1
 62
7
100
AcDbSpline
 70
8
 71
3
 72
8
 73
4
 74
0
 40
0
 40
0
 40
0
 40
0
 40
1
 40
1
 40
1
 40
1
 10
121.972164
 20
307.228504
 30
0.0
 10
122.719941
 20
307.538243
 30
0.0
 10
123.207504
 20
308.267933
 30
0.0
 10
123.207504
 20
309.077320
 30
0.0
  0
SPLINE
  5
148
100
AcDbEntity
  8
Layer_1
 62
7
100
AcDbSpline
 70
8
 71
3
 72
8
 73
4
 74
0
 40
0
 40
0
 40
0
 40
0
 40
1
 40
1
 40
1
 40
1
 10
123.207504
 20
309.077320
 30
0.0
 10
123.207504
 20
309.608056
 30
0.0
 10
122.996669
 20
310.117055
 30
0.0
 10
122.621382
 20
310.492342
 30
0.0
  0
SPLINE
  5
149
100
AcDbEntity
  8
Layer_1
 62
7
100
AcDbSpline
 70
8
 71
3
 72
8
 73
4
 74
0
 40
0
 40
0
 40
0
 40
0
 40
1
 40
1
 40
1
 40
1
 10
122.621382
 20
310.492342
 30
0.0
 10
122.246095
 20
310.867629
 30
0.0
 10
121.737096
 20
311.078464
 30
0.0
 10
121.206360
 20
311.078464
 30
0.0
  0
LWPOLYLINE
  5
14a
100
AcDbEntity
  8
Layer_1
 62
7
100
AcDbPolyline
 90
1
 70
1
 10
297.206330
 20
311.078464
 30
0.0
  0
SPLINE
  5
14b
100
AcDbEntity
  8
Layer_1
 62
7
100
AcDbSpline
 70
8
 71
3
 72
8
 73
4
 74
0
 40
0
 40
0
 40
0
 40
0
 40
1
 40
1
 40
1
 40
1
 10
281.206330
 20
311.078463
 30
0.0
 10
280.396943
 20
311.078463
 30
0.0
 10
279.667253
 20
310.590901
 30
0.0
 10
279.357514
 20
309.843124
 30
0.0
  0
SPLINE
  5
14c
100
AcDbEntity
  8
Layer_1
 62
7
100
AcDbSpline
 70
8
 71
3
 72
8
 73
4
 74
0
 40
0
 40
0
 40
0
 40
0
 40
1
 40
1
 40
1
 40
1
 10
279.357514
 20
309.843124
 30
0.0
 10
279.047775
 20
309.095348
 30
0.0
 10
279.218985
 20
308.234621
 30
0.0
 10
279.791308
 20
307.662298
 30
0.0
  0
SPLINE
  5
14d
100
AcDbEntity
  8
Layer_1
 62
7
100
AcDbSpline
 70
8
 71
3
 72
8
 73
4
 74
0
 40
0
 40
0
 40
0
 40
0
 40
1
 40
1
 40
1
 40
1
 10
279.791308
 20
307.662298
 30
0.0
 10
280.363631
 20
307.089975
 30
0.0
 10
281.224358
 20
306.918765
 30
0.0
 10
281.972134
 20
307.228504
 30
0.0
  0
SPLINE
  5
14e
100
AcDbEntity
  8
Layer_1
 62
7
100
AcDbSpline
 70
8
 71
3
 72
8
 73
4
 74
0
 40
0
 40
0
 40
0
 40
0
 40
1
 40
1
 40
1
 40
1
 10
281.972134
 20
307.228504
 30
0.0
 10
282.719911
 20
307.538243
 30
0.0
 10
283.207474
 20
308.267933
 30
0.0
 10
283.207474
 20
309.077320
 30
0.0
  0
SPLINE
  5
14f
100
AcDbEntity
  8
Layer_1
 62
7
100
AcDbSpline
 70
8
 71
3
 72
8
 73
4
 74
0
 40
0
 40
0
 40
0
 40
0
 40
1
 40
1
 40
1
 40
1
 10
283.207474
 20
309.077320
 30
0.0
 10
283.207474
 20
309.608056
 30
0.0
 10
282.996639
 20
310.117055
 30
0.0
 10
282.621352
 20
310.492342
 30
0.0
  0
SPLINE
  5
150
100
AcDbEntity
  8
Layer_1
 62
7
100
AcDbSpline
 70
8
 71
3
 72
8
 73
4
 74
0
 40
0
 40
0
 40
0
 40
0
 40
1
 40
1
 40
1
 40
1
 10
282.621352
 20
310.492342
 30
0.0
 10
282.246065
 20
310.867629
 30
0.0
 10
281.737066
 20
311.078464
 30
0.0
 10
281.206330
 20
311.078464
 30
0.0
  0
LWPOLYLINE
  5
151
100
AcDbEntity
  8
Layer_1
 62
7
100
AcDbPolyline
 90
1
 70
1
 10
121.206360
 20
311.078464
 30
0.0
  0
SPLINE
  5
152
100
AcDbEntity
  8
Layer_1
 62
7
100
AcDbSpline
 70
8
 71
3
 72
8
 73
4
 74
0
 40
0
 40
0
 40
0
 40
0
 40
1
 40
1
 40
1
 40
1
 10
265.206330
 20
311.078463
 30
0.0
 10
264.396943
 20
311.078463
 30
0.0
 10
263.667253
 20
310.590901
 30
0.0
 10
263.357514
 20
309.843124
 30
0.0
  0
SPLINE
  5
153
100
AcDbEntity
  8
Layer_1
 62
7
100
AcDbSpline
 70
8
 71
3
 72
8
 73
4
 74
0
 40
0
 40
0
 40
0
 40
0
 40
1
 40
1
 40
1
 40
1
 10
263.357514
 20
309.843124
 30
0.0
 10
263.047775
 20
309.095348
 30
0.0
 10
263.218985
 20
308.234621
 30
0.0
 10
263.791308
 20
307.662298
 30
0.0
  0
SPLINE
  5
154
100
AcDbEntity
  8
Layer_1
 62
7
100
AcDbSpline
 70
8
 71
3
 72
8
 73
4
 74
0
 40
0
 40
0
 40
0
 40
0
 40
1
 40
1
 40
1
 40
1
 10
263.791308
 20
307.662298
 30
0.0
 10
264.363631
 20
307.089975
 30
0.0
 10
265.224358
 20
306.918765
 30
0.0
 10
265.972134
 20
307.228504
 30
0.0
  0
SPLINE
  5
155
100
AcDbEntity
  8
Layer_1
 62
7
100
AcDbSpline
 70
8
 71
3
 72
8
 73
4
 74
0
 40
0
 40
0
 40
0
 40
0
 40
1
 40
1
 40
1
 40
1
 10
265.972134
 20
307.228504
 30
0.0
 10
266.719911
 20
307.538243
 30
0.0
 10
267.207474
 20
308.267933
 30
0.0
 10
267.207474
 20
309.077320
 30
0.0
  0
SPLINE
  5
156
100
AcDbEntity
  8
Layer_1
 62
7
100
AcDbSpline
 70
8
 71
3
 72
8
 73
4
 74
0
 40
0
 40
0
 40
0
 40
0
 40
1
 40
1
 40
1
 40
1
 10
267.207474
 20
309.077320
 30
0.0
 10
267.207474
 20
309.608056
 30
0.0
 10
266.996639
 20
310.117055
 30
0.0
 10
266.621352
 20
310.492342
 30
0.0
  0
SPLINE
  5
157
100
AcDbEntity
  8
Layer_1
 62
7
100
AcDbSpline
 70
8
 71
3
 72
8
 73
4
 74
0
 40
0
 40
0
 40
0
 40
0
 40
1
 40
1
 40
1
 40
1
 10
266.621352
 20
310.492342
 30
0.0
 10
266.246065
 20
310.867629
 30
0.0
 10
265.737066
 20
311.078464
 30
0.0
 10
265.206330
 20
311.078464
 30
0.0
  0
LWPOLYLINE
  5
158
100
AcDbEntity
  8
Layer_1
 62
7
100
AcDbPolyline
 90
1
 70
1
 10
281.206330
 20
311.078464
 30
0.0
  0
SPLINE
  5
159
100
AcDbEntity
  8
Layer_1
 62
7
100
AcDbSpline
 70
8
 71
3
 72
8
 73
4
 74
0
 40
0
 40
0
 40
0
 40
0
 40
1
 40
1
 40
1
 40
1
 10
249.206330
 20
311.078463
 30
0.0
 10
248.396943
 20
311.078463
 30
0.0
 10
247.667253
 20
310.590901
 30
0.0
 10
247.357514
 20
309.843124
 30
0.0
  0
SPLINE
  5
15a
100
AcDbEntity
  8
Layer_1
 62
7
100
AcDbSpline
 70
8
 71
3
 72
8
 73
4
 74
0
 40
0
 40
0
 40
0
 40
0
 40
1
 40
1
 40
1
 40
1
 10
247.357514
 20
309.843124
 30
0.0
 10
247.047775
 20
309.095348
 30
0.0
 10
247.218985
 20
308.234621
 30
0.0
 10
247.791308
 20
307.662298
 30
0.0
  0
SPLINE
  5
15b
100
AcDbEntity
  8
Layer_1
 62
7
100
AcDbSpline
 70
8
 71
3
 72
8
 73
4
 74
0
 40
0
 40
0
 40
0
 40
0
 40
1
 40
1
 40
1
 40
1
 10
247.791308
 20
307.662298
 30
0.0
 10
248.363631
 20
307.089975
 30
0.0
 10
249.224358
 20
306.918765
 30
0.0
 10
249.972134
 20
307.228504
 30
0.0
  0
SPLINE
  5
15c
100
AcDbEntity
  8
Layer_1
 62
7
100
AcDbSpline
 70
8
 71
3
 72
8
 73
4
 74
0
 40
0
 40
0
 40
0
 40
0
 40
1
 40
1
 40
1
 40
1
 10
249.972134
 20
307.228504
 30
0.0
 10
250.719911
 20
307.538243
 30
0.0
 10
251.207474
 20
308.267933
 30
0.0
 10
251.207474
 20
309.077320
 30
0.0
  0
SPLINE
  5
15d
100
AcDbEntity
  8
Layer_1
 62
7
100
AcDbSpline
 70
8
 71
3
 72
8
 73
4
 74
0
 40
0
 40
0
 40
0
 40
0
 40
1
 40
1
 40
1
 40
1
 10
251.207474
 20
309.077320
 30
0.0
 10
251.207474
 20
309.608056
 30
0.0
 10
250.996639
 20
310.117055
 30
0.0
 10
250.621352
 20
310.492342
 30
0.0
  0
SPLINE
  5
15e
100
AcDbEntity
  8
Layer_1
 62
7
100
AcDbSpline
 70
8
 71
3
 72
8
 73
4
 74
0
 40
0
 40
0
 40
0
 40
0
 40
1
 40
1
 40
1
 40
1
 10
250.621352
 20
310.492342
 30
0.0
 10
250.246065
 20
310.867629
 30
0.0
 10
249.737066
 20
311.078464
 30
0.0
 10
249.206330
 20
311.078464
 30
0.0
  0
LWPOLYLINE
  5
15f
100
AcDbEntity
  8
Layer_1
 62
7
100
AcDbPolyline
 90
1
 70
1
 10
265.206330
 20
311.078464
 30
0.0
  0
SPLINE
  5
160
100
AcDbEntity
  8
Layer_1
 62
7
100
AcDbSpline
 70
8
 71
3
 72
8
 73
4
 74
0
 40
0
 40
0
 40
0
 40
0
 40
1
 40
1
 40
1
 40
1
 10
233.206330
 20
311.078463
 30
0.0
 10
232.396943
 20
311.078463
 30
0.0
 10
231.667253
 20
310.590901
 30
0.0
 10
231.357514
 20
309.843124
 30
0.0
  0
SPLINE
  5
161
100
AcDbEntity
  8
Layer_1
 62
7
100
AcDbSpline
 70
8
 71
3
 72
8
 73
4
 74
0
 40
0
 40
0
 40
0
 40
0
 40
1
 40
1
 40
1
 40
1
 10
231.357514
 20
309.843124
 30
0.0
 10
231.047775
 20
309.095348
 30
0.0
 10
231.218985
 20
308.234621
 30
0.0
 10
231.791308
 20
307.662298
 30
0.0
  0
SPLINE
  5
162
100
AcDbEntity
  8
Layer_1
 62
7
100
AcDbSpline
 70
8
 71
3
 72
8
 73
4
 74
0
 40
0
 40
0
 40
0
 40
0
 40
1
 40
1
 40
1
 40
1
 10
231.791308
 20
307.662298
 30
0.0
 10
232.363631
 20
307.089975
 30
0.0
 10
233.224358
 20
306.918765
 30
0.0
 10
233.972134
 20
307.228504
 30
0.0
  0
SPLINE
  5
163
100
AcDbEntity
  8
Layer_1
 62
7
100
AcDbSpline
 70
8
 71
3
 72
8
 73
4
 74
0
 40
0
 40
0
 40
0
 40
0
 40
1
 40
1
 40
1
 40
1
 10
233.972134
 20
307.228504
 30
0.0
 10
234.719911
 20
307.538243
 30
0.0
 10
235.207474
 20
308.267933
 30
0.0
 10
235.207474
 20
309.077320
 30
0.0
  0
SPLINE
  5
164
100
AcDbEntity
  8
Layer_1
 62
7
100
AcDbSpline
 70
8
 71
3
 72
8
 73
4
 74
0
 40
0
 40
0
 40
0
 40
0
 40
1
 40
1
 40
1
 40
1
 10
235.207474
 20
309.077320
 30
0.0
 10
235.207474
 20
309.608056
 30
0.0
 10
234.996639
 20
310.117055
 30
0.0
 10
234.621352
 20
310.492342
 30
0.0
  0
SPLINE
  5
165
100
AcDbEntity
  8
Layer_1
 62
7
100
AcDbSpline
 70
8
 71
3
 72
8
 73
4
 74
0
 40
0
 40
0
 40
0
 40
0
 40
1
 40
1
 40
1
 40
1
 10
234.621352
 20
310.492342
 30
0.0
 10
234.246065
 20
310.867629
 30
0.0
 10
233.737066
 20
311.078464
 30
0.0
 10
233.206330
 20
311.078464
 30
0.0
  0
LWPOLYLINE
  5
166
100
AcDbEntity
  8
Layer_1
 62
7
100
AcDbPolyline
 90
1
 70
1
 10
249.206330
 20
311.078464
 30
0.0
  0
SPLINE
  5
167
100
AcDbEntity
  8
Layer_1
 62
7
100
AcDbSpline
 70
8
 71
3
 72
8
 73
4
 74
0
 40
0
 40
0
 40
0
 40
0
 40
1
 40
1
 40
1
 40
1
 10
217.206330
 20
311.078463
 30
0.0
 10
216.396943
 20
311.078463
 30
0.0
 10
215.667253
 20
310.590901
 30
0.0
 10
215.357514
 20
309.843124
 30
0.0
  0
SPLINE
  5
168
100
AcDbEntity
  8
Layer_1
 62
7
100
AcDbSpline
 70
8
 71
3
 72
8
 73
4
 74
0
 40
0
 40
0
 40
0
 40
0
 40
1
 40
1
 40
1
 40
1
 10
215.357514
 20
309.843124
 30
0.0
 10
215.047775
 20
309.095348
 30
0.0
 10
215.218985
 20
308.234621
 30
0.0
 10
215.791308
 20
307.662298
 30
0.0
  0
SPLINE
  5
169
100
AcDbEntity
  8
Layer_1
 62
7
100
AcDbSpline
 70
8
 71
3
 72
8
 73
4
 74
0
 40
0
 40
0
 40
0
 40
0
 40
1
 40
1
 40
1
 40
1
 10
215.791308
 20
307.662298
 30
0.0
 10
216.363631
 20
307.089975
 30
0.0
 10
217.224358
 20
306.918765
 30
0.0
 10
217.972134
 20
307.228504
 30
0.0
  0
SPLINE
  5
16a
100
AcDbEntity
  8
Layer_1
 62
7
100
AcDbSpline
 70
8
 71
3
 72
8
 73
4
 74
0
 40
0
 40
0
 40
0
 40
0
 40
1
 40
1
 40
1
 40
1
 10
217.972134
 20
307.228504
 30
0.0
 10
218.719911
 20
307.538243
 30
0.0
 10
219.207474
 20
308.267933
 30
0.0
 10
219.207474
 20
309.077320
 30
0.0
  0
SPLINE
  5
16b
100
AcDbEntity
  8
Layer_1
 62
7
100
AcDbSpline
 70
8
 71
3
 72
8
 73
4
 74
0
 40
0
 40
0
 40
0
 40
0
 40
1
 40
1
 40
1
 40
1
 10
219.207474
 20
309.077320
 30
0.0
 10
219.207474
 20
309.608056
 30
0.0
 10
218.996639
 20
310.117055
 30
0.0
 10
218.621352
 20
310.492342
 30
0.0
  0
SPLINE
  5
16c
100
AcDbEntity
  8
Layer_1
 62
7
100
AcDbSpline
 70
8
 71
3
 72
8
 73
4
 74
0
 40
0
 40
0
 40
0
 40
0
 40
1
 40
1
 40
1
 40
1
 10
218.621352
 20
310.492342
 30
0.0
 10
218.246065
 20
310.867629
 30
0.0
 10
217.737066
 20
311.078464
 30
0.0
 10
217.206330
 20
311.078464
 30
0.0
  0
LWPOLYLINE
  5
16d
100
AcDbEntity
  8
Layer_1
 62
7
100
AcDbPolyline
 90
1
 70
1
 10
233.206330
 20
311.078464
 30
0.0
  0
SPLINE
  5
16e
100
AcDbEntity
  8
Layer_1
 62
7
100
AcDbSpline
 70
8
 71
3
 72
8
 73
4
 74
0
 40
0
 40
0
 40
0
 40
0
 40
1
 40
1
 40
1
 40
1
 10
201.206360
 20
311.078463
 30
0.0
 10
200.396973
 20
311.078463
 30
0.0
 10
199.667283
 20
310.590901
 30
0.0
 10
199.357544
 20
309.843124
 30
0.0
  0
SPLINE
  5
16f
100
AcDbEntity
  8
Layer_1
 62
7
100
AcDbSpline
 70
8
 71
3
 72
8
 73
4
 74
0
 40
0
 40
0
 40
0
 40
0
 40
1
 40
1
 40
1
 40
1
 10
199.357544
 20
309.843124
 30
0.0
 10
199.047805
 20
309.095348
 30
0.0
 10
199.219015
 20
308.234621
 30
0.0
 10
199.791338
 20
307.662298
 30
0.0
  0
SPLINE
  5
170
100
AcDbEntity
  8
Layer_1
 62
7
100
AcDbSpline
 70
8
 71
3
 72
8
 73
4
 74
0
 40
0
 40
0
 40
0
 40
0
 40
1
 40
1
 40
1
 40
1
 10
199.791338
 20
307.662298
 30
0.0
 10
200.363661
 20
307.089975
 30
0.0
 10
201.224388
 20
306.918765
 30
0.0
 10
201.972164
 20
307.228504
 30
0.0
  0
SPLINE
  5
171
100
AcDbEntity
  8
Layer_1
 62
7
100
AcDbSpline
 70
8
 71
3
 72
8
 73
4
 74
0
 40
0
 40
0
 40
0
 40
0
 40
1
 40
1
 40
1
 40
1
 10
201.972164
 20
307.228504
 30
0.0
 10
202.719941
 20
307.538243
 30
0.0
 10
203.207504
 20
308.267933
 30
0.0
 10
203.207504
 20
309.077320
 30
0.0
  0
SPLINE
  5
172
100
AcDbEntity
  8
Layer_1
 62
7
100
AcDbSpline
 70
8
 71
3
 72
8
 73
4
 74
0
 40
0
 40
0
 40
0
 40
0
 40
1
 40
1
 40
1
 40
1
 10
203.207504
 20
309.077320
 30
0.0
 10
203.207504
 20
309.608056
 30
0.0
 10
202.996669
 20
310.117055
 30
0.0
 10
202.621382
 20
310.492342
 30
0.0
  0
SPLINE
  5
173
100
AcDbEntity
  8
Layer_1
 62
7
100
AcDbSpline
 70
8
 71
3
 72
8
 73
4
 74
0
 40
0
 40
0
 40
0
 40
0
 40
1
 40
1
 40
1
 40
1
 10
202.621382
 20
310.492342
 30
0.0
 10
202.246095
 20
310.867629
 30
0.0
 10
201.737096
 20
311.078464
 30
0.0
 10
201.206360
 20
311.078464
 30
0.0
  0
LWPOLYLINE
  5
174
100
AcDbEntity
  8
Layer_1
 62
7
100
AcDbPolyline
 90
1
 70
1
 10
217.206330
 20
311.078464
 30
0.0
  0
SPLINE
  5
175
100
AcDbEntity
  8
Layer_1
 62
7
100
AcDbSpline
 70
8
 71
3
 72
8
 73
4
 74
0
 40
0
 40
0
 40
0
 40
0
 40
1
 40
1
 40
1
 40
1
 10
185.206360
 20
311.078463
 30
0.0
 10
184.396973
 20
311.078463
 30
0.0
 10
183.667283
 20
310.590901
 30
0.0
 10
183.357544
 20
309.843124
 30
0.0
  0
SPLINE
  5
176
100
AcDbEntity
  8
Layer_1
 62
7
100
AcDbSpline
 70
8
 71
3
 72
8
 73
4
 74
0
 40
0
 40
0
 40
0
 40
0
 40
1
 40
1
 40
1
 40
1
 10
183.357544
 20
309.843124
 30
0.0
 10
183.047805
 20
309.095348
 30
0.0
 10
183.219015
 20
308.234621
 30
0.0
 10
183.791338
 20
307.662298
 30
0.0
  0
SPLINE
  5
177
100
AcDbEntity
  8
Layer_1
 62
7
100
AcDbSpline
 70
8
 71
3
 72
8
 73
4
 74
0
 40
0
 40
0
 40
0
 40
0
 40
1
 40
1
 40
1
 40
1
 10
183.791338
 20
307.662298
 30
0.0
 10
184.363661
 20
307.089975
 30
0.0
 10
185.224388
 20
306.918765
 30
0.0
 10
185.972164
 20
307.228504
 30
0.0
  0
SPLINE
  5
178
100
AcDbEntity
  8
Layer_1
 62
7
100
AcDbSpline
 70
8
 71
3
 72
8
 73
4
 74
0
 40
0
 40
0
 40
0
 40
0
 40
1
 40
1
 40
1
 40
1
 10
185.972164
 20
307.228504
 30
0.0
 10
186.719941
 20
307.538243
 30
0.0
 10
187.207504
 20
308.267933
 30
0.0
 10
187.207504
 20
309.077320
 30
0.0
  0
SPLINE
  5
179
100
AcDbEntity
  8
Layer_1
 62
7
100
AcDbSpline
 70
8
 71
3
 72
8
 73
4
 74
0
 40
0
 40
0
 40
0
 40
0
 40
1
 40
1
 40
1
 40
1
 10
187.207504
 20
309.077320
 30
0.0
 10
187.207504
 20
309.608056
 30
0.0
 10
186.996669
 20
310.117055
 30
0.0
 10
186.621382
 20
310.492342
 30
0.0
  0
SPLINE
  5
17a
100
AcDbEntity
  8
Layer_1
 62
7
100
AcDbSpline
 70
8
 71
3
 72
8
 73
4
 74
0
 40
0
 40
0
 40
0
 40
0
 40
1
 40
1
 40
1
 40
1
 10
186.621382
 20
310.492342
 30
0.0
 10
186.246095
 20
310.867629
 30
0.0
 10
185.737096
 20
311.078464
 30
0.0
 10
185.206360
 20
311.078464
 30
0.0
  0
LWPOLYLINE
  5
17b
100
AcDbEntity
  8
Layer_1
 62
7
100
AcDbPolyline
 90
1
 70
1
 10
201.206360
 20
311.078464
 30
0.0
  0
SPLINE
  5
17c
100
AcDbEntity
  8
Layer_1
 62
7
100
AcDbSpline
 70
8
 71
3
 72
8
 73
4
 74
0
 40
0
 40
0
 40
0
 40
0
 40
1
 40
1
 40
1
 40
1
 10
169.206360
 20
311.078463
 30
0.0
 10
168.396973
 20
311.078463
 30
0.0
 10
167.667283
 20
310.590901
 30
0.0
 10
167.357544
 20
309.843124
 30
0.0
  0
SPLINE
  5
17d
100
AcDbEntity
  8
Layer_1
 62
7
100
AcDbSpline
 70
8
 71
3
 72
8
 73
4
 74
0
 40
0
 40
0
 40
0
 40
0
 40
1
 40
1
 40
1
 40
1
 10
167.357544
 20
309.843124
 30
0.0
 10
167.047805
 20
309.095348
 30
0.0
 10
167.219015
 20
308.234621
 30
0.0
 10
167.791338
 20
307.662298
 30
0.0
  0
SPLINE
  5
17e
100
AcDbEntity
  8
Layer_1
 62
7
100
AcDbSpline
 70
8
 71
3
 72
8
 73
4
 74
0
 40
0
 40
0
 40
0
 40
0
 40
1
 40
1
 40
1
 40
1
 10
167.791338
 20
307.662298
 30
0.0
 10
168.363661
 20
307.089975
 30
0.0
 10
169.224388
 20
306.918765
 30
0.0
 10
169.972164
 20
307.228504
 30
0.0
  0
SPLINE
  5
17f
100
AcDbEntity
  8
Layer_1
 62
7
100
AcDbSpline
 70
8
 71
3
 72
8
 73
4
 74
0
 40
0
 40
0
 40
0
 40
0
 40
1
 40
1
 40
1
 40
1
 10
169.972164
 20
307.228504
 30
0.0
 10
170.719941
 20
307.538243
 30
0.0
 10
171.207504
 20
308.267933
 30
0.0
 10
171.207504
 20
309.077320
 30
0.0
  0
SPLINE
  5
180
100
AcDbEntity
  8
Layer_1
 62
7
100
AcDbSpline
 70
8
 71
3
 72
8
 73
4
 74
0
 40
0
 40
0
 40
0
 40
0
 40
1
 40
1
 40
1
 40
1
 10
171.207504
 20
309.077320
 30
0.0
 10
171.207504
 20
309.608056
 30
0.0
 10
170.996669
 20
310.117055
 30
0.0
 10
170.621382
 20
310.492342
 30
0.0
  0
SPLINE
  5
181
100
AcDbEntity
  8
Layer_1
 62
7
100
AcDbSpline
 70
8
 71
3
 72
8
 73
4
 74
0
 40
0
 40
0
 40
0
 40
0
 40
1
 40
1
 40
1
 40
1
 10
170.621382
 20
310.492342
 30
0.0
 10
170.246095
 20
310.867629
 30
0.0
 10
169.737096
 20
311.078464
 30
0.0
 10
169.206360
 20
311.078464
 30
0.0
  0
LWPOLYLINE
  5
182
100
AcDbEntity
  8
Layer_1
 62
7
100
AcDbPolyline
 90
1
 70
1
 10
185.206360
 20
311.078464
 30
0.0
  0
SPLINE
  5
183
100
AcDbEntity
  8
Layer_1
 62
7
100
AcDbSpline
 70
8
 71
3
 72
8
 73
4
 74
0
 40
0
 40
0
 40
0
 40
0
 40
1
 40
1
 40
1
 40
1
 10
153.206360
 20
311.078463
 30
0.0
 10
152.396973
 20
311.078463
 30
0.0
 10
151.667283
 20
310.590901
 30
0.0
 10
151.357544
 20
309.843124
 30
0.0
  0
SPLINE
  5
184
100
AcDbEntity
  8
Layer_1
 62
7
100
AcDbSpline
 70
8
 71
3
 72
8
 73
4
 74
0
 40
0
 40
0
 40
0
 40
0
 40
1
 40
1
 40
1
 40
1
 10
151.357544
 20
309.843124
 30
0.0
 10
151.047805
 20
309.095348
 30
0.0
 10
151.219015
 20
308.234621
 30
0.0
 10
151.791338
 20
307.662298
 30
0.0
  0
SPLINE
  5
185
100
AcDbEntity
  8
Layer_1
 62
7
100
AcDbSpline
 70
8
 71
3
 72
8
 73
4
 74
0
 40
0
 40
0
 40
0
 40
0
 40
1
 40
1
 40
1
 40
1
 10
151.791338
 20
307.662298
 30
0.0
 10
152.363661
 20
307.089975
 30
0.0
 10
153.224388
 20
306.918765
 30
0.0
 10
153.972164
 20
307.228504
 30
0.0
  0
SPLINE
  5
186
100
AcDbEntity
  8
Layer_1
 62
7
100
AcDbSpline
 70
8
 71
3
 72
8
 73
4
 74
0
 40
0
 40
0
 40
0
 40
0
 40
1
 40
1
 40
1
 40
1
 10
153.972164
 20
307.228504
 30
0.0
 10
154.719941
 20
307.538243
 30
0.0
 10
155.207504
 20
308.267933
 30
0.0
 10
155.207504
 20
309.077320
 30
0.0
  0
SPLINE
  5
187
100
AcDbEntity
  8
Layer_1
 62
7
100
AcDbSpline
 70
8
 71
3
 72
8
 73
4
 74
0
 40
0
 40
0
 40
0
 40
0
 40
1
 40
1
 40
1
 40
1
 10
155.207504
 20
309.077320
 30
0.0
 10
155.207504
 20
309.608056
 30
0.0
 10
154.996669
 20
310.117055
 30
0.0
 10
154.621382
 20
310.492342
 30
0.0
  0
SPLINE
  5
188
100
AcDbEntity
  8
Layer_1
 62
7
100
AcDbSpline
 70
8
 71
3
 72
8
 73
4
 74
0
 40
0
 40
0
 40
0
 40
0
 40
1
 40
1
 40
1
 40
1
 10
154.621382
 20
310.492342
 30
0.0
 10
154.246095
 20
310.867629
 30
0.0
 10
153.737096
 20
311.078464
 30
0.0
 10
153.206360
 20
311.078464
 30
0.0
  0
LWPOLYLINE
  5
189
100
AcDbEntity
  8
Layer_1
 62
7
100
AcDbPolyline
 90
1
 70
1
 10
169.206360
 20
311.078464
 30
0.0
  0
SPLINE
  5
18a
100
AcDbEntity
  8
Layer_1
 62
7
100
AcDbSpline
 70
8
 71
3
 72
8
 73
4
 74
0
 40
0
 40
0
 40
0
 40
0
 40
1
 40
1
 40
1
 40
1
 10
137.206360
 20
311.078463
 30
0.0
 10
136.396973
 20
311.078463
 30
0.0
 10
135.667283
 20
310.590901
 30
0.0
 10
135.357544
 20
309.843124
 30
0.0
  0
SPLINE
  5
18b
100
AcDbEntity
  8
Layer_1
 62
7
100
AcDbSpline
 70
8
 71
3
 72
8
 73
4
 74
0
 40
0
 40
0
 40
0
 40
0
 40
1
 40
1
 40
1
 40
1
 10
135.357544
 20
309.843124
 30
0.0
 10
135.047805
 20
309.095348
 30
0.0
 10
135.219015
 20
308.234621
 30
0.0
 10
135.791338
 20
307.662298
 30
0.0
  0
SPLINE
  5
18c
100
AcDbEntity
  8
Layer_1
 62
7
100
AcDbSpline
 70
8
 71
3
 72
8
 73
4
 74
0
 40
0
 40
0
 40
0
 40
0
 40
1
 40
1
 40
1
 40
1
 10
135.791338
 20
307.662298
 30
0.0
 10
136.363661
 20
307.089975
 30
0.0
 10
137.224388
 20
306.918765
 30
0.0
 10
137.972164
 20
307.228504
 30
0.0
  0
SPLINE
  5
18d
100
AcDbEntity
  8
Layer_1
 62
7
100
AcDbSpline
 70
8
 71
3
 72
8
 73
4
 74
0
 40
0
 40
0
 40
0
 40
0
 40
1
 40
1
 40
1
 40
1
 10
137.972164
 20
307.228504
 30
0.0
 10
138.719941
 20
307.538243
 30
0.0
 10
139.207504
 20
308.267933
 30
0.0
 10
139.207504
 20
309.077320
 30
0.0
  0
SPLINE
  5
18e
100
AcDbEntity
  8
Layer_1
 62
7
100
AcDbSpline
 70
8
 71
3
 72
8
 73
4
 74
0
 40
0
 40
0
 40
0
 40
0
 40
1
 40
1
 40
1
 40
1
 10
139.207504
 20
309.077320
 30
0.0
 10
139.207504
 20
309.608056
 30
0.0
 10
138.996669
 20
310.117055
 30
0.0
 10
138.621382
 20
310.492342
 30
0.0
  0
SPLINE
  5
18f
100
AcDbEntity
  8
Layer_1
 62
7
100
AcDbSpline
 70
8
 71
3
 72
8
 73
4
 74
0
 40
0
 40
0
 40
0
 40
0
 40
1
 40
1
 40
1
 40
1
 10
138.621382
 20
310.492342
 30
0.0
 10
138.246095
 20
310.867629
 30
0.0
 10
137.737096
 20
311.078464
 30
0.0
 10
137.206360
 20
311.078464
 30
0.0
  0
LWPOLYLINE
  5
190
100
AcDbEntity
  8
Layer_1
 62
7
100
AcDbPolyline
 90
1
 70
1
 10
153.206360
 20
311.078464
 30
0.0
  0
SPLINE
  5
191
100
AcDbEntity
  8
Layer_1
 62
7
100
AcDbSpline
 70
8
 71
3
 72
8
 73
4
 74
0
 40
0
 40
0
 40
0
 40
0
 40
1
 40
1
 40
1
 40
1
 10
67.209643
 20
325.079200
 30
0.0
 10
67.209643
 20
325.888587
 30
0.0
 10
66.722081
 20
326.618277
 30
0.0
 10
65.974304
 20
326.928016
 30
0.0
  0
SPLINE
  5
192
100
AcDbEntity
  8
Layer_1
 62
7
100
AcDbSpline
 70
8
 71
3
 72
8
 73
4
 74
0
 40
0
 40
0
 40
0
 40
0
 40
1
 40
1
 40
1
 40
1
 10
65.974304
 20
326.928016
 30
0.0
 10
65.226528
 20
327.237755
 30
0.0
 10
64.365801
 20
327.066545
 30
0.0
 10
63.793478
 20
326.494222
 30
0.0
  0
SPLINE
  5
193
100
AcDbEntity
  8
Layer_1
 62
7
100
AcDbSpline
 70
8
 71
3
 72
8
 73
4
 74
0
 40
0
 40
0
 40
0
 40
0
 40
1
 40
1
 40
1
 40
1
 10
63.793478
 20
326.494222
 30
0.0
 10
63.221155
 20
325.921899
 30
0.0
 10
63.049945
 20
325.061172
 30
0.0
 10
63.359684
 20
324.313396
 30
0.0
  0
SPLINE
  5
194
100
AcDbEntity
  8
Layer_1
 62
7
100
AcDbSpline
 70
8
 71
3
 72
8
 73
4
 74
0
 40
0
 40
0
 40
0
 40
0
 40
1
 40
1
 40
1
 40
1
 10
63.359684
 20
324.313396
 30
0.0
 10
63.669423
 20
323.565619
 30
0.0
 10
64.399113
 20
323.078057
 30
0.0
 10
65.208500
 20
323.078057
 30
0.0
  0
SPLINE
  5
195
100
AcDbEntity
  8
Layer_1
 62
7
100
AcDbSpline
 70
8
 71
3
 72
8
 73
4
 74
0
 40
0
 40
0
 40
0
 40
0
 40
1
 40
1
 40
1
 40
1
 10
65.208500
 20
323.078057
 30
0.0
 10
65.739236
 20
323.078057
 30
0.0
 10
66.248235
 20
323.288891
 30
0.0
 10
66.623522
 20
323.664178
 30
0.0
  0
SPLINE
  5
196
100
AcDbEntity
  8
Layer_1
 62
7
100
AcDbSpline
 70
8
 71
3
 72
8
 73
4
 74
0
 40
0
 40
0
 40
0
 40
0
 40
1
 40
1
 40
1
 40
1
 10
66.623522
 20
323.664178
 30
0.0
 10
66.998809
 20
324.039465
 30
0.0
 10
67.209643
 20
324.548464
 30
0.0
 10
67.209643
 20
325.079200
 30
0.0
  0
LWPOLYLINE
  5
197
100
AcDbEntity
  8
Layer_1
 62
7
100
AcDbPolyline
 90
1
 70
1
 10
137.206360
 20
311.078464
 30
0.0
  0
SPLINE
  5
198
100
AcDbEntity
  8
Layer_1
 62
7
100
AcDbSpline
 70
8
 71
3
 72
8
 73
4
 74
0
 40
0
 40
0
 40
0
 40
0
 40
1
 40
1
 40
1
 40
1
 10
67.209643
 20
309.079200
 30
0.0
 10
67.209643
 20
309.888587
 30
0.0
 10
66.722081
 20
310.618277
 30
0.0
 10
65.974304
 20
310.928016
 30
0.0
  0
SPLINE
  5
199
100
AcDbEntity
  8
Layer_1
 62
7
100
AcDbSpline
 70
8
 71
3
 72
8
 73
4
 74
0
 40
0
 40
0
 40
0
 40
0
 40
1
 40
1
 40
1
 40
1
 10
65.974304
 20
310.928016
 30
0.0
 10
65.226528
 20
311.237755
 30
0.0
 10
64.365801
 20
311.066545
 30
0.0
 10
63.793478
 20
310.494222
 30
0.0
  0
SPLINE
  5
19a
100
AcDbEntity
  8
Layer_1
 62
7
100
AcDbSpline
 70
8
 71
3
 72
8
 73
4
 74
0
 40
0
 40
0
 40
0
 40
0
 40
1
 40
1
 40
1
 40
1
 10
63.793478
 20
310.494222
 30
0.0
 10
63.221155
 20
309.921899
 30
0.0
 10
63.049945
 20
309.061172
 30
0.0
 10
63.359684
 20
308.313396
 30
0.0
  0
SPLINE
  5
19b
100
AcDbEntity
  8
Layer_1
 62
7
100
AcDbSpline
 70
8
 71
3
 72
8
 73
4
 74
0
 40
0
 40
0
 40
0
 40
0
 40
1
 40
1
 40
1
 40
1
 10
63.359684
 20
308.313396
 30
0.0
 10
63.669423
 20
307.565619
 30
0.0
 10
64.399113
 20
307.078057
 30
0.0
 10
65.208500
 20
307.078057
 30
0.0
  0
SPLINE
  5
19c
100
AcDbEntity
  8
Layer_1
 62
7
100
AcDbSpline
 70
8
 71
3
 72
8
 73
4
 74
0
 40
0
 40
0
 40
0
 40
0
 40
1
 40
1
 40
1
 40
1
 10
65.208500
 20
307.078057
 30
0.0
 10
65.739236
 20
307.078057
 30
0.0
 10
66.248235
 20
307.288891
 30
0.0
 10
66.623522
 20
307.664178
 30
0.0
  0
SPLINE
  5
19d
100
AcDbEntity
  8
Layer_1
 62
7
100
AcDbSpline
 70
8
 71
3
 72
8
 73
4
 74
0
 40
0
 40
0
 40
0
 40
0
 40
1
 40
1
 40
1
 40
1
 10
66.623522
 20
307.664178
 30
0.0
 10
66.998809
 20
308.039465
 30
0.0
 10
67.209643
 20
308.548464
 30
0.0
 10
67.209643
 20
309.079200
 30
0.0
  0
LWPOLYLINE
  5
19e
100
AcDbEntity
  8
Layer_1
 62
7
100
AcDbPolyline
 90
1
 70
1
 10
67.209643
 20
325.079200
 30
0.0
  0
SPLINE
  5
19f
100
AcDbEntity
  8
Layer_1
 62
7
100
AcDbSpline
 70
8
 71
3
 72
8
 73
4
 74
0
 40
0
 40
0
 40
0
 40
0
 40
1
 40
1
 40
1
 40
1
 10
67.209643
 20
261.079200
 30
0.0
 10
67.209643
 20
261.888587
 30
0.0
 10
66.722081
 20
262.618277
 30
0.0
 10
65.974304
 20
262.928016
 30
0.0
  0
SPLINE
  5
1a0
100
AcDbEntity
  8
Layer_1
 62
7
100
AcDbSpline
 70
8
 71
3
 72
8
 73
4
 74
0
 40
0
 40
0
 40
0
 40
0
 40
1
 40
1
 40
1
 40
1
 10
65.974304
 20
262.928016
 30
0.0
 10
65.226528
 20
263.237755
 30
0.0
 10
64.365801
 20
263.066545
 30
0.0
 10
63.793478
 20
262.494222
 30
0.0
  0
SPLINE
  5
1a1
100
AcDbEntity
  8
Layer_1
 62
7
100
AcDbSpline
 70
8
 71
3
 72
8
 73
4
 74
0
 40
0
 40
0
 40
0
 40
0
 40
1
 40
1
 40
1
 40
1
 10
63.793478
 20
262.494222
 30
0.0
 10
63.221155
 20
261.921899
 30
0.0
 10
63.049945
 20
261.061172
 30
0.0
 10
63.359684
 20
260.313396
 30
0.0
  0
SPLINE
  5
1a2
100
AcDbEntity
  8
Layer_1
 62
7
100
AcDbSpline
 70
8
 71
3
 72
8
 73
4
 74
0
 40
0
 40
0
 40
0
 40
0
 40
1
 40
1
 40
1
 40
1
 10
63.359684
 20
260.313396
 30
0.0
 10
63.669423
 20
259.565619
 30
0.0
 10
64.399113
 20
259.078057
 30
0.0
 10
65.208500
 20
259.078057
 30
0.0
  0
SPLINE
  5
1a3
100
AcDbEntity
  8
Layer_1
 62
7
100
AcDbSpline
 70
8
 71
3
 72
8
 73
4
 74
0
 40
0
 40
0
 40
0
 40
0
 40
1
 40
1
 40
1
 40
1
 10
65.208500
 20
259.078057
 30
0.0
 10
65.739236
 20
259.078057
 30
0.0
 10
66.248235
 20
259.288891
 30
0.0
 10
66.623522
 20
259.664178
 30
0.0
  0
SPLINE
  5
1a4
100
AcDbEntity
  8
Layer_1
 62
7
100
AcDbSpline
 70
8
 71
3
 72
8
 73
4
 74
0
 40
0
 40
0
 40
0
 40
0
 40
1
 40
1
 40
1
 40
1
 10
66.623522
 20
259.664178
 30
0.0
 10
66.998809
 20
260.039465
 30
0.0
 10
67.209643
 20
260.548464
 30
0.0
 10
67.209643
 20
261.079200
 30
0.0
  0
LWPOLYLINE
  5
1a5
100
AcDbEntity
  8
Layer_1
 62
7
100
AcDbPolyline
 90
1
 70
1
 10
67.209643
 20
309.079200
 30
0.0
  0
SPLINE
  5
1a6
100
AcDbEntity
  8
Layer_1
 62
7
100
AcDbSpline
 70
8
 71
3
 72
8
 73
4
 74
0
 40
0
 40
0
 40
0
 40
0
 40
1
 40
1
 40
1
 40
1
 10
67.209643
 20
277.079200
 30
0.0
 10
67.209643
 20
278.184401
 30
0.0
 10
66.313701
 20
279.080343
 30
0.0
 10
65.208500
 20
279.080343
 30
0.0
  0
SPLINE
  5
1a7
100
AcDbEntity
  8
Layer_1
 62
7
100
AcDbSpline
 70
8
 71
3
 72
8
 73
4
 74
0
 40
0
 40
0
 40
0
 40
0
 40
1
 40
1
 40
1
 40
1
 10
65.208500
 20
279.080343
 30
0.0
 10
64.103299
 20
279.080343
 30
0.0
 10
63.207357
 20
278.184401
 30
0.0
 10
63.207357
 20
277.079200
 30
0.0
  0
SPLINE
  5
1a8
100
AcDbEntity
  8
Layer_1
 62
7
100
AcDbSpline
 70
8
 71
3
 72
8
 73
4
 74
0
 40
0
 40
0
 40
0
 40
0
 40
1
 40
1
 40
1
 40
1
 10
63.207357
 20
277.079200
 30
0.0
 10
63.207357
 20
275.973999
 30
0.0
 10
64.103299
 20
275.078056
 30
0.0
 10
65.208500
 20
275.078056
 30
0.0
  0
SPLINE
  5
1a9
100
AcDbEntity
  8
Layer_1
 62
7
100
AcDbSpline
 70
8
 71
3
 72
8
 73
4
 74
0
 40
0
 40
0
 40
0
 40
0
 40
1
 40
1
 40
1
 40
1
 10
65.208500
 20
275.078056
 30
0.0
 10
65.739236
 20
275.078056
 30
0.0
 10
66.248235
 20
275.288891
 30
0.0
 10
66.623522
 20
275.664178
 30
0.0
  0
SPLINE
  5
1aa
100
AcDbEntity
  8
Layer_1
 62
7
100
AcDbSpline
 70
8
 71
3
 72
8
 73
4
 74
0
 40
0
 40
0
 40
0
 40
0
 40
1
 40
1
 40
1
 40
1
 10
66.623522
 20
275.664178
 30
0.0
 10
66.998809
 20
276.039465
 30
0.0
 10
67.209643
 20
276.548464
 30
0.0
 10
67.209643
 20
277.079200
 30
0.0
  0
LWPOLYLINE
  5
1ab
100
AcDbEntity
  8
Layer_1
 62
7
100
AcDbPolyline
 90
1
 70
1
 10
67.209643
 20
261.079200
 30
0.0
  0
SPLINE
  5
1ac
100
AcDbEntity
  8
Layer_1
 62
7
100
AcDbSpline
 70
8
 71
3
 72
8
 73
4
 74
0
 40
0
 40
0
 40
0
 40
0
 40
1
 40
1
 40
1
 40
1
 10
67.209643
 20
293.079200
 30
0.0
 10
67.209643
 20
293.888587
 30
0.0
 10
66.722081
 20
294.618277
 30
0.0
 10
65.974304
 20
294.928016
 30
0.0
  0
SPLINE
  5
1ad
100
AcDbEntity
  8
Layer_1
 62
7
100
AcDbSpline
 70
8
 71
3
 72
8
 73
4
 74
0
 40
0
 40
0
 40
0
 40
0
 40
1
 40
1
 40
1
 40
1
 10
65.974304
 20
294.928016
 30
0.0
 10
65.226528
 20
295.237755
 30
0.0
 10
64.365801
 20
295.066545
 30
0.0
 10
63.793478
 20
294.494222
 30
0.0
  0
SPLINE
  5
1ae
100
AcDbEntity
  8
Layer_1
 62
7
100
AcDbSpline
 70
8
 71
3
 72
8
 73
4
 74
0
 40
0
 40
0
 40
0
 40
0
 40
1
 40
1
 40
1
 40
1
 10
63.793478
 20
294.494222
 30
0.0
 10
63.221155
 20
293.921899
 30
0.0
 10
63.049945
 20
293.061172
 30
0.0
 10
63.359684
 20
292.313396
 30
0.0
  0
SPLINE
  5
1af
100
AcDbEntity
  8
Layer_1
 62
7
100
AcDbSpline
 70
8
 71
3
 72
8
 73
4
 74
0
 40
0
 40
0
 40
0
 40
0
 40
1
 40
1
 40
1
 40
1
 10
63.359684
 20
292.313396
 30
0.0
 10
63.669423
 20
291.565619
 30
0.0
 10
64.399113
 20
291.078057
 30
0.0
 10
65.208500
 20
291.078057
 30
0.0
  0
SPLINE
  5
1b0
100
AcDbEntity
  8
Layer_1
 62
7
100
AcDbSpline
 70
8
 71
3
 72
8
 73
4
 74
0
 40
0
 40
0
 40
0
 40
0
 40
1
 40
1
 40
1
 40
1
 10
65.208500
 20
291.078057
 30
0.0
 10
65.739236
 20
291.078057
 30
0.0
 10
66.248235
 20
291.288891
 30
0.0
 10
66.623522
 20
291.664178
 30
0.0
  0
SPLINE
  5
1b1
100
AcDbEntity
  8
Layer_1
 62
7
100
AcDbSpline
 70
8
 71
3
 72
8
 73
4
 74
0
 40
0
 40
0
 40
0
 40
0
 40
1
 40
1
 40
1
 40
1
 10
66.623522
 20
291.664178
 30
0.0
 10
66.998809
 20
292.039465
 30
0.0
 10
67.209643
 20
292.548464
 30
0.0
 10
67.209643
 20
293.079200
 30
0.0
  0
LWPOLYLINE
  5
1b2
100
AcDbEntity
  8
Layer_1
 62
7
100
AcDbPolyline
 90
1
 70
1
 10
67.209643
 20
277.079200
 30
0.0
  0
SPLINE
  5
1b3
100
AcDbEntity
  8
Layer_1
 62
7
100
AcDbSpline
 70
8
 71
3
 72
8
 73
4
 74
0
 40
0
 40
0
 40
0
 40
0
 40
1
 40
1
 40
1
 40
1
 10
99.228644
 20
325.079200
 30
0.0
 10
99.228644
 20
325.888587
 30
0.0
 10
98.741081
 20
326.618277
 30
0.0
 10
97.993304
 20
326.928016
 30
0.0
  0
SPLINE
  5
1b4
100
AcDbEntity
  8
Layer_1
 62
7
100
AcDbSpline
 70
8
 71
3
 72
8
 73
4
 74
0
 40
0
 40
0
 40
0
 40
0
 40
1
 40
1
 40
1
 40
1
 10
97.993304
 20
326.928016
 30
0.0
 10
97.245528
 20
327.237755
 30
0.0
 10
96.384801
 20
327.066545
 30
0.0
 10
95.812478
 20
326.494222
 30
0.0
  0
SPLINE
  5
1b5
100
AcDbEntity
  8
Layer_1
 62
7
100
AcDbSpline
 70
8
 71
3
 72
8
 73
4
 74
0
 40
0
 40
0
 40
0
 40
0
 40
1
 40
1
 40
1
 40
1
 10
95.812478
 20
326.494222
 30
0.0
 10
95.240155
 20
325.921899
 30
0.0
 10
95.068945
 20
325.061172
 30
0.0
 10
95.378684
 20
324.313396
 30
0.0
  0
SPLINE
  5
1b6
100
AcDbEntity
  8
Layer_1
 62
7
100
AcDbSpline
 70
8
 71
3
 72
8
 73
4
 74
0
 40
0
 40
0
 40
0
 40
0
 40
1
 40
1
 40
1
 40
1
 10
95.378684
 20
324.313396
 30
0.0
 10
95.688423
 20
323.565619
 30
0.0
 10
96.418113
 20
323.078057
 30
0.0
 10
97.227500
 20
323.078057
 30
0.0
  0
SPLINE
  5
1b7
100
AcDbEntity
  8
Layer_1
 62
7
100
AcDbSpline
 70
8
 71
3
 72
8
 73
4
 74
0
 40
0
 40
0
 40
0
 40
0
 40
1
 40
1
 40
1
 40
1
 10
97.227500
 20
323.078057
 30
0.0
 10
97.758236
 20
323.078057
 30
0.0
 10
98.267235
 20
323.288891
 30
0.0
 10
98.642522
 20
323.664178
 30
0.0
  0
SPLINE
  5
1b8
100
AcDbEntity
  8
Layer_1
 62
7
100
AcDbSpline
 70
8
 71
3
 72
8
 73
4
 74
0
 40
0
 40
0
 40
0
 40
0
 40
1
 40
1
 40
1
 40
1
 10
98.642522
 20
323.664178
 30
0.0
 10
99.017809
 20
324.039465
 30
0.0
 10
99.228644
 20
324.548464
 30
0.0
 10
99.228644
 20
325.079200
 30
0.0
  0
LWPOLYLINE
  5
1b9
100
AcDbEntity
  8
Layer_1
 62
7
100
AcDbPolyline
 90
1
 70
1
 10
67.209643
 20
293.079200
 30
0.0
  0
SPLINE
  5
1ba
100
AcDbEntity
  8
Layer_1
 62
7
100
AcDbSpline
 70
8
 71
3
 72
8
 73
4
 74
0
 40
0
 40
0
 40
0
 40
0
 40
1
 40
1
 40
1
 40
1
 10
99.228644
 20
309.079200
 30
0.0
 10
99.228644
 20
309.888587
 30
0.0
 10
98.741081
 20
310.618277
 30
0.0
 10
97.993304
 20
310.928016
 30
0.0
  0
SPLINE
  5
1bb
100
AcDbEntity
  8
Layer_1
 62
7
100
AcDbSpline
 70
8
 71
3
 72
8
 73
4
 74
0
 40
0
 40
0
 40
0
 40
0
 40
1
 40
1
 40
1
 40
1
 10
97.993304
 20
310.928016
 30
0.0
 10
97.245528
 20
311.237755
 30
0.0
 10
96.384801
 20
311.066545
 30
0.0
 10
95.812478
 20
310.494222
 30
0.0
  0
SPLINE
  5
1bc
100
AcDbEntity
  8
Layer_1
 62
7
100
AcDbSpline
 70
8
 71
3
 72
8
 73
4
 74
0
 40
0
 40
0
 40
0
 40
0
 40
1
 40
1
 40
1
 40
1
 10
95.812478
 20
310.494222
 30
0.0
 10
95.240155
 20
309.921899
 30
0.0
 10
95.068945
 20
309.061172
 30
0.0
 10
95.378684
 20
308.313396
 30
0.0
  0
SPLINE
  5
1bd
100
AcDbEntity
  8
Layer_1
 62
7
100
AcDbSpline
 70
8
 71
3
 72
8
 73
4
 74
0
 40
0
 40
0
 40
0
 40
0
 40
1
 40
1
 40
1
 40
1
 10
95.378684
 20
308.313396
 30
0.0
 10
95.688423
 20
307.565619
 30
0.0
 10
96.418113
 20
307.078057
 30
0.0
 10
97.227500
 20
307.078057
 30
0.0
  0
SPLINE
  5
1be
100
AcDbEntity
  8
Layer_1
 62
7
100
AcDbSpline
 70
8
 71
3
 72
8
 73
4
 74
0
 40
0
 40
0
 40
0
 40
0
 40
1
 40
1
 40
1
 40
1
 10
97.227500
 20
307.078057
 30
0.0
 10
97.758236
 20
307.078057
 30
0.0
 10
98.267235
 20
307.288891
 30
0.0
 10
98.642522
 20
307.664178
 30
0.0
  0
SPLINE
  5
1bf
100
AcDbEntity
  8
Layer_1
 62
7
100
AcDbSpline
 70
8
 71
3
 72
8
 73
4
 74
0
 40
0
 40
0
 40
0
 40
0
 40
1
 40
1
 40
1
 40
1
 10
98.642522
 20
307.664178
 30
0.0
 10
99.017809
 20
308.039465
 30
0.0
 10
99.228644
 20
308.548464
 30
0.0
 10
99.228644
 20
309.079200
 30
0.0
  0
LWPOLYLINE
  5
1c0
100
AcDbEntity
  8
Layer_1
 62
7
100
AcDbPolyline
 90
1
 70
1
 10
99.228644
 20
325.079200
 30
0.0
  0
SPLINE
  5
1c1
100
AcDbEntity
  8
Layer_1
 62
7
100
AcDbSpline
 70
8
 71
3
 72
8
 73
4
 74
0
 40
0
 40
0
 40
0
 40
0
 40
1
 40
1
 40
1
 40
1
 10
99.228644
 20
261.079200
 30
0.0
 10
99.228644
 20
261.888587
 30
0.0
 10
98.741081
 20
262.618277
 30
0.0
 10
97.993304
 20
262.928016
 30
0.0
  0
SPLINE
  5
1c2
100
AcDbEntity
  8
Layer_1
 62
7
100
AcDbSpline
 70
8
 71
3
 72
8
 73
4
 74
0
 40
0
 40
0
 40
0
 40
0
 40
1
 40
1
 40
1
 40
1
 10
97.993304
 20
262.928016
 30
0.0
 10
97.245528
 20
263.237755
 30
0.0
 10
96.384801
 20
263.066545
 30
0.0
 10
95.812478
 20
262.494222
 30
0.0
  0
SPLINE
  5
1c3
100
AcDbEntity
  8
Layer_1
 62
7
100
AcDbSpline
 70
8
 71
3
 72
8
 73
4
 74
0
 40
0
 40
0
 40
0
 40
0
 40
1
 40
1
 40
1
 40
1
 10
95.812478
 20
262.494222
 30
0.0
 10
95.240155
 20
261.921899
 30
0.0
 10
95.068945
 20
261.061172
 30
0.0
 10
95.378684
 20
260.313396
 30
0.0
  0
SPLINE
  5
1c4
100
AcDbEntity
  8
Layer_1
 62
7
100
AcDbSpline
 70
8
 71
3
 72
8
 73
4
 74
0
 40
0
 40
0
 40
0
 40
0
 40
1
 40
1
 40
1
 40
1
 10
95.378684
 20
260.313396
 30
0.0
 10
95.688423
 20
259.565619
 30
0.0
 10
96.418113
 20
259.078057
 30
0.0
 10
97.227500
 20
259.078057
 30
0.0
  0
SPLINE
  5
1c5
100
AcDbEntity
  8
Layer_1
 62
7
100
AcDbSpline
 70
8
 71
3
 72
8
 73
4
 74
0
 40
0
 40
0
 40
0
 40
0
 40
1
 40
1
 40
1
 40
1
 10
97.227500
 20
259.078057
 30
0.0
 10
97.758236
 20
259.078057
 30
0.0
 10
98.267235
 20
259.288891
 30
0.0
 10
98.642522
 20
259.664178
 30
0.0
  0
SPLINE
  5
1c6
100
AcDbEntity
  8
Layer_1
 62
7
100
AcDbSpline
 70
8
 71
3
 72
8
 73
4
 74
0
 40
0
 40
0
 40
0
 40
0
 40
1
 40
1
 40
1
 40
1
 10
98.642522
 20
259.664178
 30
0.0
 10
99.017809
 20
260.039465
 30
0.0
 10
99.228644
 20
260.548464
 30
0.0
 10
99.228644
 20
261.079200
 30
0.0
  0
LWPOLYLINE
  5
1c7
100
AcDbEntity
  8
Layer_1
 62
7
100
AcDbPolyline
 90
1
 70
1
 10
99.228644
 20
309.079200
 30
0.0
  0
SPLINE
  5
1c8
100
AcDbEntity
  8
Layer_1
 62
7
100
AcDbSpline
 70
8
 71
3
 72
8
 73
4
 74
0
 40
0
 40
0
 40
0
 40
0
 40
1
 40
1
 40
1
 40
1
 10
99.228644
 20
277.079200
 30
0.0
 10
99.228643
 20
278.184401
 30
0.0
 10
98.332701
 20
279.080343
 30
0.0
 10
97.227500
 20
279.080343
 30
0.0
  0
SPLINE
  5
1c9
100
AcDbEntity
  8
Layer_1
 62
7
100
AcDbSpline
 70
8
 71
3
 72
8
 73
4
 74
0
 40
0
 40
0
 40
0
 40
0
 40
1
 40
1
 40
1
 40
1
 10
97.227500
 20
279.080343
 30
0.0
 10
96.122299
 20
279.080343
 30
0.0
 10
95.226357
 20
278.184401
 30
0.0
 10
95.226357
 20
277.079200
 30
0.0
  0
SPLINE
  5
1ca
100
AcDbEntity
  8
Layer_1
 62
7
100
AcDbSpline
 70
8
 71
3
 72
8
 73
4
 74
0
 40
0
 40
0
 40
0
 40
0
 40
1
 40
1
 40
1
 40
1
 10
95.226357
 20
277.079200
 30
0.0
 10
95.226357
 20
275.973999
 30
0.0
 10
96.122299
 20
275.078056
 30
0.0
 10
97.227500
 20
275.078056
 30
0.0
  0
SPLINE
  5
1cb
100
AcDbEntity
  8
Layer_1
 62
7
100
AcDbSpline
 70
8
 71
3
 72
8
 73
4
 74
0
 40
0
 40
0
 40
0
 40
0
 40
1
 40
1
 40
1
 40
1
 10
97.227500
 20
275.078056
 30
0.0
 10
97.758236
 20
275.078056
 30
0.0
 10
98.267235
 20
275.288891
 30
0.0
 10
98.642522
 20
275.664178
 30
0.0
  0
SPLINE
  5
1cc
100
AcDbEntity
  8
Layer_1
 62
7
100
AcDbSpline
 70
8
 71
3
 72
8
 73
4
 74
0
 40
0
 40
0
 40
0
 40
0
 40
1
 40
1
 40
1
 40
1
 10
98.642522
 20
275.664178
 30
0.0
 10
99.017809
 20
276.039465
 30
0.0
 10
99.228644
 20
276.548464
 30
0.0
 10
99.228644
 20
277.079200
 30
0.0
  0
LWPOLYLINE
  5
1cd
100
AcDbEntity
  8
Layer_1
 62
7
100
AcDbPolyline
 90
1
 70
1
 10
99.228644
 20
261.079200
 30
0.0
  0
SPLINE
  5
1ce
100
AcDbEntity
  8
Layer_1
 62
7
100
AcDbSpline
 70
8
 71
3
 72
8
 73
4
 74
0
 40
0
 40
0
 40
0
 40
0
 40
1
 40
1
 40
1
 40
1
 10
99.228644
 20
293.079200
 30
0.0
 10
99.228644
 20
293.888587
 30
0.0
 10
98.741081
 20
294.618277
 30
0.0
 10
97.993304
 20
294.928016
 30
0.0
  0
SPLINE
  5
1cf
100
AcDbEntity
  8
Layer_1
 62
7
100
AcDbSpline
 70
8
 71
3
 72
8
 73
4
 74
0
 40
0
 40
0
 40
0
 40
0
 40
1
 40
1
 40
1
 40
1
 10
97.993304
 20
294.928016
 30
0.0
 10
97.245528
 20
295.237755
 30
0.0
 10
96.384801
 20
295.066545
 30
0.0
 10
95.812478
 20
294.494222
 30
0.0
  0
SPLINE
  5
1d0
100
AcDbEntity
  8
Layer_1
 62
7
100
AcDbSpline
 70
8
 71
3
 72
8
 73
4
 74
0
 40
0
 40
0
 40
0
 40
0
 40
1
 40
1
 40
1
 40
1
 10
95.812478
 20
294.494222
 30
0.0
 10
95.240155
 20
293.921899
 30
0.0
 10
95.068945
 20
293.061172
 30
0.0
 10
95.378684
 20
292.313396
 30
0.0
  0
SPLINE
  5
1d1
100
AcDbEntity
  8
Layer_1
 62
7
100
AcDbSpline
 70
8
 71
3
 72
8
 73
4
 74
0
 40
0
 40
0
 40
0
 40
0
 40
1
 40
1
 40
1
 40
1
 10
95.378684
 20
292.313396
 30
0.0
 10
95.688423
 20
291.565619
 30
0.0
 10
96.418113
 20
291.078057
 30
0.0
 10
97.227500
 20
291.078057
 30
0.0
  0
SPLINE
  5
1d2
100
AcDbEntity
  8
Layer_1
 62
7
100
AcDbSpline
 70
8
 71
3
 72
8
 73
4
 74
0
 40
0
 40
0
 40
0
 40
0
 40
1
 40
1
 40
1
 40
1
 10
97.227500
 20
291.078057
 30
0.0
 10
97.758236
 20
291.078057
 30
0.0
 10
98.267235
 20
291.288891
 30
0.0
 10
98.642522
 20
291.664178
 30
0.0
  0
SPLINE
  5
1d3
100
AcDbEntity
  8
Layer_1
 62
7
100
AcDbSpline
 70
8
 71
3
 72
8
 73
4
 74
0
 40
0
 40
0
 40
0
 40
0
 40
1
 40
1
 40
1
 40
1
 10
98.642522
 20
291.664178
 30
0.0
 10
99.017809
 20
292.039465
 30
0.0
 10
99.228644
 20
292.548464
 30
0.0
 10
99.228644
 20
293.079200
 30
0.0
  0
LWPOLYLINE
  5
1d4
100
AcDbEntity
  8
Layer_1
 62
7
100
AcDbPolyline
 90
1
 70
1
 10
99.228644
 20
277.079200
 30
0.0
  0
SPLINE
  5
1d5
100
AcDbEntity
  8
Layer_1
 62
7
100
AcDbSpline
 70
8
 71
3
 72
8
 73
4
 74
0
 40
0
 40
0
 40
0
 40
0
 40
1
 40
1
 40
1
 40
1
 10
67.209914
 20
197.004400
 30
0.0
 10
67.209914
 20
198.109601
 30
0.0
 10
66.313971
 20
199.005543
 30
0.0
 10
65.208770
 20
199.005543
 30
0.0
  0
SPLINE
  5
1d6
100
AcDbEntity
  8
Layer_1
 62
7
100
AcDbSpline
 70
8
 71
3
 72
8
 73
4
 74
0
 40
0
 40
0
 40
0
 40
0
 40
1
 40
1
 40
1
 40
1
 10
65.208770
 20
199.005543
 30
0.0
 10
64.103569
 20
199.005543
 30
0.0
 10
63.207627
 20
198.109601
 30
0.0
 10
63.207627
 20
197.004400
 30
0.0
  0
SPLINE
  5
1d7
100
AcDbEntity
  8
Layer_1
 62
7
100
AcDbSpline
 70
8
 71
3
 72
8
 73
4
 74
0
 40
0
 40
0
 40
0
 40
0
 40
1
 40
1
 40
1
 40
1
 10
63.207627
 20
197.004400
 30
0.0
 10
63.207627
 20
195.899199
 30
0.0
 10
64.103569
 20
195.003256
 30
0.0
 10
65.208770
 20
195.003256
 30
0.0
  0
SPLINE
  5
1d8
100
AcDbEntity
  8
Layer_1
 62
7
100
AcDbSpline
 70
8
 71
3
 72
8
 73
4
 74
0
 40
0
 40
0
 40
0
 40
0
 40
1
 40
1
 40
1
 40
1
 10
65.208770
 20
195.003256
 30
0.0
 10
65.739506
 20
195.003256
 30
0.0
 10
66.248505
 20
195.214091
 30
0.0
 10
66.623792
 20
195.589378
 30
0.0
  0
SPLINE
  5
1d9
100
AcDbEntity
  8
Layer_1
 62
7
100
AcDbSpline
 70
8
 71
3
 72
8
 73
4
 74
0
 40
0
 40
0
 40
0
 40
0
 40
1
 40
1
 40
1
 40
1
 10
66.623792
 20
195.589378
 30
0.0
 10
66.999079
 20
195.964665
 30
0.0
 10
67.209914
 20
196.473664
 30
0.0
 10
67.209914
 20
197.004400
 30
0.0
  0
LWPOLYLINE
  5
1da
100
AcDbEntity
  8
Layer_1
 62
7
100
AcDbPolyline
 90
1
 70
1
 10
99.228644
 20
293.079200
 30
0.0
  0
SPLINE
  5
1db
100
AcDbEntity
  8
Layer_1
 62
7
100
AcDbSpline
 70
8
 71
3
 72
8
 73
4
 74
0
 40
0
 40
0
 40
0
 40
0
 40
1
 40
1
 40
1
 40
1
 10
67.209914
 20
181.004400
 30
0.0
 10
67.209914
 20
181.813787
 30
0.0
 10
66.722351
 20
182.543477
 30
0.0
 10
65.974574
 20
182.853216
 30
0.0
  0
SPLINE
  5
1dc
100
AcDbEntity
  8
Layer_1
 62
7
100
AcDbSpline
 70
8
 71
3
 72
8
 73
4
 74
0
 40
0
 40
0
 40
0
 40
0
 40
1
 40
1
 40
1
 40
1
 10
65.974574
 20
182.853216
 30
0.0
 10
65.226798
 20
183.162955
 30
0.0
 10
64.366071
 20
182.991745
 30
0.0
 10
63.793748
 20
182.419422
 30
0.0
  0
SPLINE
  5
1dd
100
AcDbEntity
  8
Layer_1
 62
7
100
AcDbSpline
 70
8
 71
3
 72
8
 73
4
 74
0
 40
0
 40
0
 40
0
 40
0
 40
1
 40
1
 40
1
 40
1
 10
63.793748
 20
182.419422
 30
0.0
 10
63.221425
 20
181.847099
 30
0.0
 10
63.050215
 20
180.986372
 30
0.0
 10
63.359954
 20
180.238596
 30
0.0
  0
SPLINE
  5
1de
100
AcDbEntity
  8
Layer_1
 62
7
100
AcDbSpline
 70
8
 71
3
 72
8
 73
4
 74
0
 40
0
 40
0
 40
0
 40
0
 40
1
 40
1
 40
1
 40
1
 10
63.359954
 20
180.238596
 30
0.0
 10
63.669693
 20
179.490819
 30
0.0
 10
64.399383
 20
179.003256
 30
0.0
 10
65.208770
 20
179.003256
 30
0.0
  0
SPLINE
  5
1df
100
AcDbEntity
  8
Layer_1
 62
7
100
AcDbSpline
 70
8
 71
3
 72
8
 73
4
 74
0
 40
0
 40
0
 40
0
 40
0
 40
1
 40
1
 40
1
 40
1
 10
65.208770
 20
179.003256
 30
0.0
 10
65.739506
 20
179.003256
 30
0.0
 10
66.248505
 20
179.214091
 30
0.0
 10
66.623792
 20
179.589378
 30
0.0
  0
SPLINE
  5
1e0
100
AcDbEntity
  8
Layer_1
 62
7
100
AcDbSpline
 70
8
 71
3
 72
8
 73
4
 74
0
 40
0
 40
0
 40
0
 40
0
 40
1
 40
1
 40
1
 40
1
 10
66.623792
 20
179.589378
 30
0.0
 10
66.999079
 20
179.964665
 30
0.0
 10
67.209914
 20
180.473664
 30
0.0
 10
67.209914
 20
181.004400
 30
0.0
  0
LWPOLYLINE
  5
1e1
100
AcDbEntity
  8
Layer_1
 62
7
100
AcDbPolyline
 90
1
 70
1
 10
67.209914
 20
197.004400
 30
0.0
  0
SPLINE
  5
1e2
100
AcDbEntity
  8
Layer_1
 62
7
100
AcDbSpline
 70
8
 71
3
 72
8
 73
4
 74
0
 40
0
 40
0
 40
0
 40
0
 40
1
 40
1
 40
1
 40
1
 10
67.209914
 20
149.004400
 30
0.0
 10
67.209914
 20
149.813787
 30
0.0
 10
66.722351
 20
150.543477
 30
0.0
 10
65.974574
 20
150.853216
 30
0.0
  0
SPLINE
  5
1e3
100
AcDbEntity
  8
Layer_1
 62
7
100
AcDbSpline
 70
8
 71
3
 72
8
 73
4
 74
0
 40
0
 40
0
 40
0
 40
0
 40
1
 40
1
 40
1
 40
1
 10
65.974574
 20
150.853216
 30
0.0
 10
65.226798
 20
151.162955
 30
0.0
 10
64.366071
 20
150.991745
 30
0.0
 10
63.793748
 20
150.419422
 30
0.0
  0
SPLINE
  5
1e4
100
AcDbEntity
  8
Layer_1
 62
7
100
AcDbSpline
 70
8
 71
3
 72
8
 73
4
 74
0
 40
0
 40
0
 40
0
 40
0
 40
1
 40
1
 40
1
 40
1
 10
63.793748
 20
150.419422
 30
0.0
 10
63.221425
 20
149.847099
 30
0.0
 10
63.050215
 20
148.986372
 30
0.0
 10
63.359954
 20
148.238596
 30
0.0
  0
SPLINE
  5
1e5
100
AcDbEntity
  8
Layer_1
 62
7
100
AcDbSpline
 70
8
 71
3
 72
8
 73
4
 74
0
 40
0
 40
0
 40
0
 40
0
 40
1
 40
1
 40
1
 40
1
 10
63.359954
 20
148.238596
 30
0.0
 10
63.669693
 20
147.490819
 30
0.0
 10
64.399383
 20
147.003256
 30
0.0
 10
65.208770
 20
147.003256
 30
0.0
  0
SPLINE
  5
1e6
100
AcDbEntity
  8
Layer_1
 62
7
100
AcDbSpline
 70
8
 71
3
 72
8
 73
4
 74
0
 40
0
 40
0
 40
0
 40
0
 40
1
 40
1
 40
1
 40
1
 10
65.208770
 20
147.003256
 30
0.0
 10
65.739506
 20
147.003256
 30
0.0
 10
66.248505
 20
147.214091
 30
0.0
 10
66.623792
 20
147.589378
 30
0.0
  0
SPLINE
  5
1e7
100
AcDbEntity
  8
Layer_1
 62
7
100
AcDbSpline
 70
8
 71
3
 72
8
 73
4
 74
0
 40
0
 40
0
 40
0
 40
0
 40
1
 40
1
 40
1
 40
1
 10
66.623792
 20
147.589378
 30
0.0
 10
66.999079
 20
147.964665
 30
0.0
 10
67.209914
 20
148.473664
 30
0.0
 10
67.209914
 20
149.004400
 30
0.0
  0
LWPOLYLINE
  5
1e8
100
AcDbEntity
  8
Layer_1
 62
7
100
AcDbPolyline
 90
1
 70
1
 10
67.209914
 20
181.004400
 30
0.0
  0
SPLINE
  5
1e9
100
AcDbEntity
  8
Layer_1
 62
7
100
AcDbSpline
 70
8
 71
3
 72
8
 73
4
 74
0
 40
0
 40
0
 40
0
 40
0
 40
1
 40
1
 40
1
 40
1
 10
67.209914
 20
165.004400
 30
0.0
 10
67.209914
 20
165.813787
 30
0.0
 10
66.722351
 20
166.543477
 30
0.0
 10
65.974574
 20
166.853216
 30
0.0
  0
SPLINE
  5
1ea
100
AcDbEntity
  8
Layer_1
 62
7
100
AcDbSpline
 70
8
 71
3
 72
8
 73
4
 74
0
 40
0
 40
0
 40
0
 40
0
 40
1
 40
1
 40
1
 40
1
 10
65.974574
 20
166.853216
 30
0.0
 10
65.226798
 20
167.162955
 30
0.0
 10
64.366071
 20
166.991745
 30
0.0
 10
63.793748
 20
166.419422
 30
0.0
  0
SPLINE
  5
1eb
100
AcDbEntity
  8
Layer_1
 62
7
100
AcDbSpline
 70
8
 71
3
 72
8
 73
4
 74
0
 40
0
 40
0
 40
0
 40
0
 40
1
 40
1
 40
1
 40
1
 10
63.793748
 20
166.419422
 30
0.0
 10
63.221425
 20
165.847099
 30
0.0
 10
63.050215
 20
164.986372
 30
0.0
 10
63.359954
 20
164.238596
 30
0.0
  0
SPLINE
  5
1ec
100
AcDbEntity
  8
Layer_1
 62
7
100
AcDbSpline
 70
8
 71
3
 72
8
 73
4
 74
0
 40
0
 40
0
 40
0
 40
0
 40
1
 40
1
 40
1
 40
1
 10
63.359954
 20
164.238596
 30
0.0
 10
63.669693
 20
163.490819
 30
0.0
 10
64.399383
 20
163.003256
 30
0.0
 10
65.208770
 20
163.003256
 30
0.0
  0
SPLINE
  5
1ed
100
AcDbEntity
  8
Layer_1
 62
7
100
AcDbSpline
 70
8
 71
3
 72
8
 73
4
 74
0
 40
0
 40
0
 40
0
 40
0
 40
1
 40
1
 40
1
 40
1
 10
65.208770
 20
163.003256
 30
0.0
 10
65.739506
 20
163.003256
 30
0.0
 10
66.248505
 20
163.214091
 30
0.0
 10
66.623792
 20
163.589378
 30
0.0
  0
SPLINE
  5
1ee
100
AcDbEntity
  8
Layer_1
 62
7
100
AcDbSpline
 70
8
 71
3
 72
8
 73
4
 74
0
 40
0
 40
0
 40
0
 40
0
 40
1
 40
1
 40
1
 40
1
 10
66.623792
 20
163.589378
 30
0.0
 10
66.999079
 20
163.964665
 30
0.0
 10
67.209914
 20
164.473664
 30
0.0
 10
67.209914
 20
165.004400
 30
0.0
  0
LWPOLYLINE
  5
1ef
100
AcDbEntity
  8
Layer_1
 62
7
100
AcDbPolyline
 90
1
 70
1
 10
67.209914
 20
149.004400
 30
0.0
  0
SPLINE
  5
1f0
100
AcDbEntity
  8
Layer_1
 62
7
100
AcDbSpline
 70
8
 71
3
 72
8
 73
4
 74
0
 40
0
 40
0
 40
0
 40
0
 40
1
 40
1
 40
1
 40
1
 10
99.228494
 20
197.004400
 30
0.0
 10
99.228493
 20
198.109601
 30
0.0
 10
98.332551
 20
199.005543
 30
0.0
 10
97.227350
 20
199.005543
 30
0.0
  0
SPLINE
  5
1f1
100
AcDbEntity
  8
Layer_1
 62
7
100
AcDbSpline
 70
8
 71
3
 72
8
 73
4
 74
0
 40
0
 40
0
 40
0
 40
0
 40
1
 40
1
 40
1
 40
1
 10
97.227350
 20
199.005543
 30
0.0
 10
96.122149
 20
199.005543
 30
0.0
 10
95.226207
 20
198.109601
 30
0.0
 10
95.226207
 20
197.004400
 30
0.0
  0
SPLINE
  5
1f2
100
AcDbEntity
  8
Layer_1
 62
7
100
AcDbSpline
 70
8
 71
3
 72
8
 73
4
 74
0
 40
0
 40
0
 40
0
 40
0
 40
1
 40
1
 40
1
 40
1
 10
95.226207
 20
197.004400
 30
0.0
 10
95.226207
 20
195.899199
 30
0.0
 10
96.122149
 20
195.003256
 30
0.0
 10
97.227350
 20
195.003256
 30
0.0
  0
SPLINE
  5
1f3
100
AcDbEntity
  8
Layer_1
 62
7
100
AcDbSpline
 70
8
 71
3
 72
8
 73
4
 74
0
 40
0
 40
0
 40
0
 40
0
 40
1
 40
1
 40
1
 40
1
 10
97.227350
 20
195.003256
 30
0.0
 10
97.758086
 20
195.003256
 30
0.0
 10
98.267085
 20
195.214091
 30
0.0
 10
98.642372
 20
195.589378
 30
0.0
  0
SPLINE
  5
1f4
100
AcDbEntity
  8
Layer_1
 62
7
100
AcDbSpline
 70
8
 71
3
 72
8
 73
4
 74
0
 40
0
 40
0
 40
0
 40
0
 40
1
 40
1
 40
1
 40
1
 10
98.642372
 20
195.589378
 30
0.0
 10
99.017659
 20
195.964665
 30
0.0
 10
99.228494
 20
196.473664
 30
0.0
 10
99.228494
 20
197.004400
 30
0.0
  0
LWPOLYLINE
  5
1f5
100
AcDbEntity
  8
Layer_1
 62
7
100
AcDbPolyline
 90
1
 70
1
 10
67.209914
 20
165.004400
 30
0.0
  0
SPLINE
  5
1f6
100
AcDbEntity
  8
Layer_1
 62
7
100
AcDbSpline
 70
8
 71
3
 72
8
 73
4
 74
0
 40
0
 40
0
 40
0
 40
0
 40
1
 40
1
 40
1
 40
1
 10
99.228494
 20
181.004400
 30
0.0
 10
99.228494
 20
181.813787
 30
0.0
 10
98.740931
 20
182.543477
 30
0.0
 10
97.993154
 20
182.853216
 30
0.0
  0
SPLINE
  5
1f7
100
AcDbEntity
  8
Layer_1
 62
7
100
AcDbSpline
 70
8
 71
3
 72
8
 73
4
 74
0
 40
0
 40
0
 40
0
 40
0
 40
1
 40
1
 40
1
 40
1
 10
97.993154
 20
182.853216
 30
0.0
 10
97.245378
 20
183.162955
 30
0.0
 10
96.384651
 20
182.991745
 30
0.0
 10
95.812328
 20
182.419422
 30
0.0
  0
SPLINE
  5
1f8
100
AcDbEntity
  8
Layer_1
 62
7
100
AcDbSpline
 70
8
 71
3
 72
8
 73
4
 74
0
 40
0
 40
0
 40
0
 40
0
 40
1
 40
1
 40
1
 40
1
 10
95.812328
 20
182.419422
 30
0.0
 10
95.240005
 20
181.847099
 30
0.0
 10
95.068795
 20
180.986372
 30
0.0
 10
95.378534
 20
180.238596
 30
0.0
  0
SPLINE
  5
1f9
100
AcDbEntity
  8
Layer_1
 62
7
100
AcDbSpline
 70
8
 71
3
 72
8
 73
4
 74
0
 40
0
 40
0
 40
0
 40
0
 40
1
 40
1
 40
1
 40
1
 10
95.378534
 20
180.238596
 30
0.0
 10
95.688273
 20
179.490819
 30
0.0
 10
96.417963
 20
179.003256
 30
0.0
 10
97.227350
 20
179.003256
 30
0.0
  0
SPLINE
  5
1fa
100
AcDbEntity
  8
Layer_1
 62
7
100
AcDbSpline
 70
8
 71
3
 72
8
 73
4
 74
0
 40
0
 40
0
 40
0
 40
0
 40
1
 40
1
 40
1
 40
1
 10
97.227350
 20
179.003256
 30
0.0
 10
97.758086
 20
179.003256
 30
0.0
 10
98.267085
 20
179.214091
 30
0.0
 10
98.642372
 20
179.589378
 30
0.0
  0
SPLINE
  5
1fb
100
AcDbEntity
  8
Layer_1
 62
7
100
AcDbSpline
 70
8
 71
3
 72
8
 73
4
 74
0
 40
0
 40
0
 40
0
 40
0
 40
1
 40
1
 40
1
 40
1
 10
98.642372
 20
179.589378
 30
0.0
 10
99.017659
 20
179.964665
 30
0.0
 10
99.228494
 20
180.473664
 30
0.0
 10
99.228494
 20
181.004400
 30
0.0
  0
LWPOLYLINE
  5
1fc
100
AcDbEntity
  8
Layer_1
 62
7
100
AcDbPolyline
 90
1
 70
1
 10
99.228494
 20
197.004400
 30
0.0
  0
SPLINE
  5
1fd
100
AcDbEntity
  8
Layer_1
 62
7
100
AcDbSpline
 70
8
 71
3
 72
8
 73
4
 74
0
 40
0
 40
0
 40
0
 40
0
 40
1
 40
1
 40
1
 40
1
 10
99.228494
 20
149.004400
 30
0.0
 10
99.228494
 20
149.813787
 30
0.0
 10
98.740931
 20
150.543477
 30
0.0
 10
97.993154
 20
150.853216
 30
0.0
  0
SPLINE
  5
1fe
100
AcDbEntity
  8
Layer_1
 62
7
100
AcDbSpline
 70
8
 71
3
 72
8
 73
4
 74
0
 40
0
 40
0
 40
0
 40
0
 40
1
 40
1
 40
1
 40
1
 10
97.993154
 20
150.853216
 30
0.0
 10
97.245378
 20
151.162955
 30
0.0
 10
96.384651
 20
150.991745
 30
0.0
 10
95.812328
 20
150.419422
 30
0.0
  0
SPLINE
  5
1ff
100
AcDbEntity
  8
Layer_1
 62
7
100
AcDbSpline
 70
8
 71
3
 72
8
 73
4
 74
0
 40
0
 40
0
 40
0
 40
0
 40
1
 40
1
 40
1
 40
1
 10
95.812328
 20
150.419422
 30
0.0
 10
95.240005
 20
149.847099
 30
0.0
 10
95.068795
 20
148.986372
 30
0.0
 10
95.378534
 20
148.238596
 30
0.0
  0
SPLINE
  5
200
100
AcDbEntity
  8
Layer_1
 62
7
100
AcDbSpline
 70
8
 71
3
 72
8
 73
4
 74
0
 40
0
 40
0
 40
0
 40
0
 40
1
 40
1
 40
1
 40
1
 10
95.378534
 20
148.238596
 30
0.0
 10
95.688273
 20
147.490819
 30
0.0
 10
96.417963
 20
147.003256
 30
0.0
 10
97.227350
 20
147.003256
 30
0.0
  0
SPLINE
  5
201
100
AcDbEntity
  8
Layer_1
 62
7
100
AcDbSpline
 70
8
 71
3
 72
8
 73
4
 74
0
 40
0
 40
0
 40
0
 40
0
 40
1
 40
1
 40
1
 40
1
 10
97.227350
 20
147.003256
 30
0.0
 10
97.758086
 20
147.003256
 30
0.0
 10
98.267085
 20
147.214091
 30
0.0
 10
98.642372
 20
147.589378
 30
0.0
  0
SPLINE
  5
202
100
AcDbEntity
  8
Layer_1
 62
7
100
AcDbSpline
 70
8
 71
3
 72
8
 73
4
 74
0
 40
0
 40
0
 40
0
 40
0
 40
1
 40
1
 40
1
 40
1
 10
98.642372
 20
147.589378
 30
0.0
 10
99.017659
 20
147.964665
 30
0.0
 10
99.228494
 20
148.473664
 30
0.0
 10
99.228494
 20
149.004400
 30
0.0
  0
LWPOLYLINE
  5
203
100
AcDbEntity
  8
Layer_1
 62
7
100
AcDbPolyline
 90
1
 70
1
 10
99.228494
 20
181.004400
 30
0.0
  0
SPLINE
  5
204
100
AcDbEntity
  8
Layer_1
 62
7
100
AcDbSpline
 70
8
 71
3
 72
8
 73
4
 74
0
 40
0
 40
0
 40
0
 40
0
 40
1
 40
1
 40
1
 40
1
 10
99.228494
 20
165.004400
 30
0.0
 10
99.228494
 20
165.813787
 30
0.0
 10
98.740931
 20
166.543477
 30
0.0
 10
97.993154
 20
166.853216
 30
0.0
  0
SPLINE
  5
205
100
AcDbEntity
  8
Layer_1
 62
7
100
AcDbSpline
 70
8
 71
3
 72
8
 73
4
 74
0
 40
0
 40
0
 40
0
 40
0
 40
1
 40
1
 40
1
 40
1
 10
97.993154
 20
166.853216
 30
0.0
 10
97.245378
 20
167.162955
 30
0.0
 10
96.384651
 20
166.991745
 30
0.0
 10
95.812328
 20
166.419422
 30
0.0
  0
SPLINE
  5
206
100
AcDbEntity
  8
Layer_1
 62
7
100
AcDbSpline
 70
8
 71
3
 72
8
 73
4
 74
0
 40
0
 40
0
 40
0
 40
0
 40
1
 40
1
 40
1
 40
1
 10
95.812328
 20
166.419422
 30
0.0
 10
95.240005
 20
165.847099
 30
0.0
 10
95.068795
 20
164.986372
 30
0.0
 10
95.378534
 20
164.238596
 30
0.0
  0
SPLINE
  5
207
100
AcDbEntity
  8
Layer_1
 62
7
100
AcDbSpline
 70
8
 71
3
 72
8
 73
4
 74
0
 40
0
 40
0
 40
0
 40
0
 40
1
 40
1
 40
1
 40
1
 10
95.378534
 20
164.238596
 30
0.0
 10
95.688273
 20
163.490819
 30
0.0
 10
96.417963
 20
163.003256
 30
0.0
 10
97.227350
 20
163.003256
 30
0.0
  0
SPLINE
  5
208
100
AcDbEntity
  8
Layer_1
 62
7
100
AcDbSpline
 70
8
 71
3
 72
8
 73
4
 74
0
 40
0
 40
0
 40
0
 40
0
 40
1
 40
1
 40
1
 40
1
 10
97.227350
 20
163.003256
 30
0.0
 10
97.758086
 20
163.003256
 30
0.0
 10
98.267085
 20
163.214091
 30
0.0
 10
98.642372
 20
163.589378
 30
0.0
  0
SPLINE
  5
209
100
AcDbEntity
  8
Layer_1
 62
7
100
AcDbSpline
 70
8
 71
3
 72
8
 73
4
 74
0
 40
0
 40
0
 40
0
 40
0
 40
1
 40
1
 40
1
 40
1
 10
98.642372
 20
163.589378
 30
0.0
 10
99.017659
 20
163.964665
 30
0.0
 10
99.228494
 20
164.473664
 30
0.0
 10
99.228494
 20
165.004400
 30
0.0
  0
LWPOLYLINE
  5
20a
100
AcDbEntity
  8
Layer_1
 62
7
100
AcDbPolyline
 90
1
 70
1
 10
99.228494
 20
149.004400
 30
0.0
  0
SPLINE
  5
20b
100
AcDbEntity
  8
Layer_1
 62
7
100
AcDbSpline
 70
8
 71
3
 72
8
 73
4
 74
0
 40
0
 40
0
 40
0
 40
0
 40
1
 40
1
 40
1
 40
1
 10
427.142744
 20
325.079200
 30
0.0
 10
427.142744
 20
325.888587
 30
0.0
 10
426.655181
 20
326.618277
 30
0.0
 10
425.907404
 20
326.928016
 30
0.0
  0
SPLINE
  5
20c
100
AcDbEntity
  8
Layer_1
 62
7
100
AcDbSpline
 70
8
 71
3
 72
8
 73
4
 74
0
 40
0
 40
0
 40
0
 40
0
 40
1
 40
1
 40
1
 40
1
 10
425.907404
 20
326.928016
 30
0.0
 10
425.159628
 20
327.237755
 30
0.0
 10
424.298901
 20
327.066545
 30
0.0
 10
423.726578
 20
326.494222
 30
0.0
  0
SPLINE
  5
20d
100
AcDbEntity
  8
Layer_1
 62
7
100
AcDbSpline
 70
8
 71
3
 72
8
 73
4
 74
0
 40
0
 40
0
 40
0
 40
0
 40
1
 40
1
 40
1
 40
1
 10
423.726578
 20
326.494222
 30
0.0
 10
423.154255
 20
325.921899
 30
0.0
 10
422.983045
 20
325.061172
 30
0.0
 10
423.292784
 20
324.313396
 30
0.0
  0
SPLINE
  5
20e
100
AcDbEntity
  8
Layer_1
 62
7
100
AcDbSpline
 70
8
 71
3
 72
8
 73
4
 74
0
 40
0
 40
0
 40
0
 40
0
 40
1
 40
1
 40
1
 40
1
 10
423.292784
 20
324.313396
 30
0.0
 10
423.602523
 20
323.565619
 30
0.0
 10
424.332213
 20
323.078057
 30
0.0
 10
425.141600
 20
323.078057
 30
0.0
  0
SPLINE
  5
20f
100
AcDbEntity
  8
Layer_1
 62
7
100
AcDbSpline
 70
8
 71
3
 72
8
 73
4
 74
0
 40
0
 40
0
 40
0
 40
0
 40
1
 40
1
 40
1
 40
1
 10
425.141600
 20
323.078057
 30
0.0
 10
425.672336
 20
323.078057
 30
0.0
 10
426.181335
 20
323.288891
 30
0.0
 10
426.556622
 20
323.664178
 30
0.0
  0
SPLINE
  5
210
100
AcDbEntity
  8
Layer_1
 62
7
100
AcDbSpline
 70
8
 71
3
 72
8
 73
4
 74
0
 40
0
 40
0
 40
0
 40
0
 40
1
 40
1
 40
1
 40
1
 10
426.556622
 20
323.664178
 30
0.0
 10
426.931909
 20
324.039465
 30
0.0
 10
427.142744
 20
324.548464
 30
0.0
 10
427.142744
 20
325.079200
 30
0.0
  0
LWPOLYLINE
  5
211
100
AcDbEntity
  8
Layer_1
 62
7
100
AcDbPolyline
 90
1
 70
1
 10
99.228494
 20
165.004400
 30
0.0
  0
SPLINE
  5
212
100
AcDbEntity
  8
Layer_1
 62
7
100
AcDbSpline
 70
8
 71
3
 72
8
 73
4
 74
0
 40
0
 40
0
 40
0
 40
0
 40
1
 40
1
 40
1
 40
1
 10
427.142744
 20
309.079200
 30
0.0
 10
427.142744
 20
309.888587
 30
0.0
 10
426.655181
 20
310.618277
 30
0.0
 10
425.907404
 20
310.928016
 30
0.0
  0
SPLINE
  5
213
100
AcDbEntity
  8
Layer_1
 62
7
100
AcDbSpline
 70
8
 71
3
 72
8
 73
4
 74
0
 40
0
 40
0
 40
0
 40
0
 40
1
 40
1
 40
1
 40
1
 10
425.907404
 20
310.928016
 30
0.0
 10
425.159628
 20
311.237755
 30
0.0
 10
424.298901
 20
311.066545
 30
0.0
 10
423.726578
 20
310.494222
 30
0.0
  0
SPLINE
  5
214
100
AcDbEntity
  8
Layer_1
 62
7
100
AcDbSpline
 70
8
 71
3
 72
8
 73
4
 74
0
 40
0
 40
0
 40
0
 40
0
 40
1
 40
1
 40
1
 40
1
 10
423.726578
 20
310.494222
 30
0.0
 10
423.154255
 20
309.921899
 30
0.0
 10
422.983045
 20
309.061172
 30
0.0
 10
423.292784
 20
308.313396
 30
0.0
  0
SPLINE
  5
215
100
AcDbEntity
  8
Layer_1
 62
7
100
AcDbSpline
 70
8
 71
3
 72
8
 73
4
 74
0
 40
0
 40
0
 40
0
 40
0
 40
1
 40
1
 40
1
 40
1
 10
423.292784
 20
308.313396
 30
0.0
 10
423.602523
 20
307.565619
 30
0.0
 10
424.332213
 20
307.078057
 30
0.0
 10
425.141600
 20
307.078057
 30
0.0
  0
SPLINE
  5
216
100
AcDbEntity
  8
Layer_1
 62
7
100
AcDbSpline
 70
8
 71
3
 72
8
 73
4
 74
0
 40
0
 40
0
 40
0
 40
0
 40
1
 40
1
 40
1
 40
1
 10
425.141600
 20
307.078057
 30
0.0
 10
425.672336
 20
307.078057
 30
0.0
 10
426.181335
 20
307.288891
 30
0.0
 10
426.556622
 20
307.664178
 30
0.0
  0
SPLINE
  5
217
100
AcDbEntity
  8
Layer_1
 62
7
100
AcDbSpline
 70
8
 71
3
 72
8
 73
4
 74
0
 40
0
 40
0
 40
0
 40
0
 40
1
 40
1
 40
1
 40
1
 10
426.556622
 20
307.664178
 30
0.0
 10
426.931909
 20
308.039465
 30
0.0
 10
427.142744
 20
308.548464
 30
0.0
 10
427.142744
 20
309.079200
 30
0.0
  0
LWPOLYLINE
  5
218
100
AcDbEntity
  8
Layer_1
 62
7
100
AcDbPolyline
 90
1
 70
1
 10
427.142744
 20
325.079200
 30
0.0
  0
SPLINE
  5
219
100
AcDbEntity
  8
Layer_1
 62
7
100
AcDbSpline
 70
8
 71
3
 72
8
 73
4
 74
0
 40
0
 40
0
 40
0
 40
0
 40
1
 40
1
 40
1
 40
1
 10
427.142744
 20
261.079200
 30
0.0
 10
427.142744
 20
261.888587
 30
0.0
 10
426.655181
 20
262.618277
 30
0.0
 10
425.907404
 20
262.928016
 30
0.0
  0
SPLINE
  5
21a
100
AcDbEntity
  8
Layer_1
 62
7
100
AcDbSpline
 70
8
 71
3
 72
8
 73
4
 74
0
 40
0
 40
0
 40
0
 40
0
 40
1
 40
1
 40
1
 40
1
 10
425.907404
 20
262.928016
 30
0.0
 10
425.159628
 20
263.237755
 30
0.0
 10
424.298901
 20
263.066545
 30
0.0
 10
423.726578
 20
262.494222
 30
0.0
  0
SPLINE
  5
21b
100
AcDbEntity
  8
Layer_1
 62
7
100
AcDbSpline
 70
8
 71
3
 72
8
 73
4
 74
0
 40
0
 40
0
 40
0
 40
0
 40
1
 40
1
 40
1
 40
1
 10
423.726578
 20
262.494222
 30
0.0
 10
423.154255
 20
261.921899
 30
0.0
 10
422.983045
 20
261.061172
 30
0.0
 10
423.292784
 20
260.313396
 30
0.0
  0
SPLINE
  5
21c
100
AcDbEntity
  8
Layer_1
 62
7
100
AcDbSpline
 70
8
 71
3
 72
8
 73
4
 74
0
 40
0
 40
0
 40
0
 40
0
 40
1
 40
1
 40
1
 40
1
 10
423.292784
 20
260.313396
 30
0.0
 10
423.602523
 20
259.565619
 30
0.0
 10
424.332213
 20
259.078057
 30
0.0
 10
425.141600
 20
259.078057
 30
0.0
  0
SPLINE
  5
21d
100
AcDbEntity
  8
Layer_1
 62
7
100
AcDbSpline
 70
8
 71
3
 72
8
 73
4
 74
0
 40
0
 40
0
 40
0
 40
0
 40
1
 40
1
 40
1
 40
1
 10
425.141600
 20
259.078057
 30
0.0
 10
425.672336
 20
259.078057
 30
0.0
 10
426.181335
 20
259.288891
 30
0.0
 10
426.556622
 20
259.664178
 30
0.0
  0
SPLINE
  5
21e
100
AcDbEntity
  8
Layer_1
 62
7
100
AcDbSpline
 70
8
 71
3
 72
8
 73
4
 74
0
 40
0
 40
0
 40
0
 40
0
 40
1
 40
1
 40
1
 40
1
 10
426.556622
 20
259.664178
 30
0.0
 10
426.931909
 20
260.039465
 30
0.0
 10
427.142744
 20
260.548464
 30
0.0
 10
427.142744
 20
261.079200
 30
0.0
  0
LWPOLYLINE
  5
21f
100
AcDbEntity
  8
Layer_1
 62
7
100
AcDbPolyline
 90
1
 70
1
 10
427.142744
 20
309.079200
 30
0.0
  0
SPLINE
  5
220
100
AcDbEntity
  8
Layer_1
 62
7
100
AcDbSpline
 70
8
 71
3
 72
8
 73
4
 74
0
 40
0
 40
0
 40
0
 40
0
 40
1
 40
1
 40
1
 40
1
 10
427.142744
 20
277.079200
 30
0.0
 10
427.142743
 20
278.184401
 30
0.0
 10
426.246801
 20
279.080343
 30
0.0
 10
425.141600
 20
279.080343
 30
0.0
  0
SPLINE
  5
221
100
AcDbEntity
  8
Layer_1
 62
7
100
AcDbSpline
 70
8
 71
3
 72
8
 73
4
 74
0
 40
0
 40
0
 40
0
 40
0
 40
1
 40
1
 40
1
 40
1
 10
425.141600
 20
279.080343
 30
0.0
 10
424.036399
 20
279.080343
 30
0.0
 10
423.140457
 20
278.184401
 30
0.0
 10
423.140457
 20
277.079200
 30
0.0
  0
SPLINE
  5
222
100
AcDbEntity
  8
Layer_1
 62
7
100
AcDbSpline
 70
8
 71
3
 72
8
 73
4
 74
0
 40
0
 40
0
 40
0
 40
0
 40
1
 40
1
 40
1
 40
1
 10
423.140457
 20
277.079200
 30
0.0
 10
423.140457
 20
275.973999
 30
0.0
 10
424.036399
 20
275.078056
 30
0.0
 10
425.141600
 20
275.078056
 30
0.0
  0
SPLINE
  5
223
100
AcDbEntity
  8
Layer_1
 62
7
100
AcDbSpline
 70
8
 71
3
 72
8
 73
4
 74
0
 40
0
 40
0
 40
0
 40
0
 40
1
 40
1
 40
1
 40
1
 10
425.141600
 20
275.078056
 30
0.0
 10
425.672336
 20
275.078056
 30
0.0
 10
426.181335
 20
275.288891
 30
0.0
 10
426.556622
 20
275.664178
 30
0.0
  0
SPLINE
  5
224
100
AcDbEntity
  8
Layer_1
 62
7
100
AcDbSpline
 70
8
 71
3
 72
8
 73
4
 74
0
 40
0
 40
0
 40
0
 40
0
 40
1
 40
1
 40
1
 40
1
 10
426.556622
 20
275.664178
 30
0.0
 10
426.931909
 20
276.039465
 30
0.0
 10
427.142744
 20
276.548464
 30
0.0
 10
427.142744
 20
277.079200
 30
0.0
  0
LWPOLYLINE
  5
225
100
AcDbEntity
  8
Layer_1
 62
7
100
AcDbPolyline
 90
1
 70
1
 10
427.142744
 20
261.079200
 30
0.0
  0
SPLINE
  5
226
100
AcDbEntity
  8
Layer_1
 62
7
100
AcDbSpline
 70
8
 71
3
 72
8
 73
4
 74
0
 40
0
 40
0
 40
0
 40
0
 40
1
 40
1
 40
1
 40
1
 10
427.142744
 20
293.079200
 30
0.0
 10
427.142744
 20
293.888587
 30
0.0
 10
426.655181
 20
294.618277
 30
0.0
 10
425.907404
 20
294.928016
 30
0.0
  0
SPLINE
  5
227
100
AcDbEntity
  8
Layer_1
 62
7
100
AcDbSpline
 70
8
 71
3
 72
8
 73
4
 74
0
 40
0
 40
0
 40
0
 40
0
 40
1
 40
1
 40
1
 40
1
 10
425.907404
 20
294.928016
 30
0.0
 10
425.159628
 20
295.237755
 30
0.0
 10
424.298901
 20
295.066545
 30
0.0
 10
423.726578
 20
294.494222
 30
0.0
  0
SPLINE
  5
228
100
AcDbEntity
  8
Layer_1
 62
7
100
AcDbSpline
 70
8
 71
3
 72
8
 73
4
 74
0
 40
0
 40
0
 40
0
 40
0
 40
1
 40
1
 40
1
 40
1
 10
423.726578
 20
294.494222
 30
0.0
 10
423.154255
 20
293.921899
 30
0.0
 10
422.983045
 20
293.061172
 30
0.0
 10
423.292784
 20
292.313396
 30
0.0
  0
SPLINE
  5
229
100
AcDbEntity
  8
Layer_1
 62
7
100
AcDbSpline
 70
8
 71
3
 72
8
 73
4
 74
0
 40
0
 40
0
 40
0
 40
0
 40
1
 40
1
 40
1
 40
1
 10
423.292784
 20
292.313396
 30
0.0
 10
423.602523
 20
291.565619
 30
0.0
 10
424.332213
 20
291.078057
 30
0.0
 10
425.141600
 20
291.078057
 30
0.0
  0
SPLINE
  5
22a
100
AcDbEntity
  8
Layer_1
 62
7
100
AcDbSpline
 70
8
 71
3
 72
8
 73
4
 74
0
 40
0
 40
0
 40
0
 40
0
 40
1
 40
1
 40
1
 40
1
 10
425.141600
 20
291.078057
 30
0.0
 10
425.672336
 20
291.078057
 30
0.0
 10
426.181335
 20
291.288891
 30
0.0
 10
426.556622
 20
291.664178
 30
0.0
  0
SPLINE
  5
22b
100
AcDbEntity
  8
Layer_1
 62
7
100
AcDbSpline
 70
8
 71
3
 72
8
 73
4
 74
0
 40
0
 40
0
 40
0
 40
0
 40
1
 40
1
 40
1
 40
1
 10
426.556622
 20
291.664178
 30
0.0
 10
426.931909
 20
292.039465
 30
0.0
 10
427.142744
 20
292.548464
 30
0.0
 10
427.142744
 20
293.079200
 30
0.0
  0
LWPOLYLINE
  5
22c
100
AcDbEntity
  8
Layer_1
 62
7
100
AcDbPolyline
 90
1
 70
1
 10
427.142744
 20
277.079200
 30
0.0
  0
SPLINE
  5
22d
100
AcDbEntity
  8
Layer_1
 62
7
100
AcDbSpline
 70
8
 71
3
 72
8
 73
4
 74
0
 40
0
 40
0
 40
0
 40
0
 40
1
 40
1
 40
1
 40
1
 10
459.161744
 20
325.079200
 30
0.0
 10
459.161744
 20
325.888587
 30
0.0
 10
458.674181
 20
326.618277
 30
0.0
 10
457.926404
 20
326.928016
 30
0.0
  0
SPLINE
  5
22e
100
AcDbEntity
  8
Layer_1
 62
7
100
AcDbSpline
 70
8
 71
3
 72
8
 73
4
 74
0
 40
0
 40
0
 40
0
 40
0
 40
1
 40
1
 40
1
 40
1
 10
457.926404
 20
326.928016
 30
0.0
 10
457.178628
 20
327.237755
 30
0.0
 10
456.317901
 20
327.066545
 30
0.0
 10
455.745578
 20
326.494222
 30
0.0
  0
SPLINE
  5
22f
100
AcDbEntity
  8
Layer_1
 62
7
100
AcDbSpline
 70
8
 71
3
 72
8
 73
4
 74
0
 40
0
 40
0
 40
0
 40
0
 40
1
 40
1
 40
1
 40
1
 10
455.745578
 20
326.494222
 30
0.0
 10
455.173255
 20
325.921899
 30
0.0
 10
455.002045
 20
325.061172
 30
0.0
 10
455.311784
 20
324.313396
 30
0.0
  0
SPLINE
  5
230
100
AcDbEntity
  8
Layer_1
 62
7
100
AcDbSpline
 70
8
 71
3
 72
8
 73
4
 74
0
 40
0
 40
0
 40
0
 40
0
 40
1
 40
1
 40
1
 40
1
 10
455.311784
 20
324.313396
 30
0.0
 10
455.621523
 20
323.565619
 30
0.0
 10
456.351213
 20
323.078057
 30
0.0
 10
457.160600
 20
323.078057
 30
0.0
  0
SPLINE
  5
231
100
AcDbEntity
  8
Layer_1
 62
7
100
AcDbSpline
 70
8
 71
3
 72
8
 73
4
 74
0
 40
0
 40
0
 40
0
 40
0
 40
1
 40
1
 40
1
 40
1
 10
457.160600
 20
323.078057
 30
0.0
 10
457.691336
 20
323.078057
 30
0.0
 10
458.200335
 20
323.288891
 30
0.0
 10
458.575622
 20
323.664178
 30
0.0
  0
SPLINE
  5
232
100
AcDbEntity
  8
Layer_1
 62
7
100
AcDbSpline
 70
8
 71
3
 72
8
 73
4
 74
0
 40
0
 40
0
 40
0
 40
0
 40
1
 40
1
 40
1
 40
1
 10
458.575622
 20
323.664178
 30
0.0
 10
458.950909
 20
324.039465
 30
0.0
 10
459.161744
 20
324.548464
 30
0.0
 10
459.161744
 20
325.079200
 30
0.0
  0
LWPOLYLINE
  5
233
100
AcDbEntity
  8
Layer_1
 62
7
100
AcDbPolyline
 90
1
 70
1
 10
427.142744
 20
293.079200
 30
0.0
  0
SPLINE
  5
234
100
AcDbEntity
  8
Layer_1
 62
7
100
AcDbSpline
 70
8
 71
3
 72
8
 73
4
 74
0
 40
0
 40
0
 40
0
 40
0
 40
1
 40
1
 40
1
 40
1
 10
459.161744
 20
309.079200
 30
0.0
 10
459.161744
 20
309.888587
 30
0.0
 10
458.674181
 20
310.618277
 30
0.0
 10
457.926404
 20
310.928016
 30
0.0
  0
SPLINE
  5
235
100
AcDbEntity
  8
Layer_1
 62
7
100
AcDbSpline
 70
8
 71
3
 72
8
 73
4
 74
0
 40
0
 40
0
 40
0
 40
0
 40
1
 40
1
 40
1
 40
1
 10
457.926404
 20
310.928016
 30
0.0
 10
457.178628
 20
311.237755
 30
0.0
 10
456.317901
 20
311.066545
 30
0.0
 10
455.745578
 20
310.494222
 30
0.0
  0
SPLINE
  5
236
100
AcDbEntity
  8
Layer_1
 62
7
100
AcDbSpline
 70
8
 71
3
 72
8
 73
4
 74
0
 40
0
 40
0
 40
0
 40
0
 40
1
 40
1
 40
1
 40
1
 10
455.745578
 20
310.494222
 30
0.0
 10
455.173255
 20
309.921899
 30
0.0
 10
455.002045
 20
309.061172
 30
0.0
 10
455.311784
 20
308.313396
 30
0.0
  0
SPLINE
  5
237
100
AcDbEntity
  8
Layer_1
 62
7
100
AcDbSpline
 70
8
 71
3
 72
8
 73
4
 74
0
 40
0
 40
0
 40
0
 40
0
 40
1
 40
1
 40
1
 40
1
 10
455.311784
 20
308.313396
 30
0.0
 10
455.621523
 20
307.565619
 30
0.0
 10
456.351213
 20
307.078057
 30
0.0
 10
457.160600
 20
307.078057
 30
0.0
  0
SPLINE
  5
238
100
AcDbEntity
  8
Layer_1
 62
7
100
AcDbSpline
 70
8
 71
3
 72
8
 73
4
 74
0
 40
0
 40
0
 40
0
 40
0
 40
1
 40
1
 40
1
 40
1
 10
457.160600
 20
307.078057
 30
0.0
 10
457.691336
 20
307.078057
 30
0.0
 10
458.200335
 20
307.288891
 30
0.0
 10
458.575622
 20
307.664178
 30
0.0
  0
SPLINE
  5
239
100
AcDbEntity
  8
Layer_1
 62
7
100
AcDbSpline
 70
8
 71
3
 72
8
 73
4
 74
0
 40
0
 40
0
 40
0
 40
0
 40
1
 40
1
 40
1
 40
1
 10
458.575622
 20
307.664178
 30
0.0
 10
458.950909
 20
308.039465
 30
0.0
 10
459.161744
 20
308.548464
 30
0.0
 10
459.161744
 20
309.079200
 30
0.0
  0
LWPOLYLINE
  5
23a
100
AcDbEntity
  8
Layer_1
 62
7
100
AcDbPolyline
 90
1
 70
1
 10
459.161744
 20
325.079200
 30
0.0
  0
SPLINE
  5
23b
100
AcDbEntity
  8
Layer_1
 62
7
100
AcDbSpline
 70
8
 71
3
 72
8
 73
4
 74
0
 40
0
 40
0
 40
0
 40
0
 40
1
 40
1
 40
1
 40
1
 10
459.161744
 20
261.079200
 30
0.0
 10
459.161744
 20
261.888587
 30
0.0
 10
458.674181
 20
262.618277
 30
0.0
 10
457.926404
 20
262.928016
 30
0.0
  0
SPLINE
  5
23c
100
AcDbEntity
  8
Layer_1
 62
7
100
AcDbSpline
 70
8
 71
3
 72
8
 73
4
 74
0
 40
0
 40
0
 40
0
 40
0
 40
1
 40
1
 40
1
 40
1
 10
457.926404
 20
262.928016
 30
0.0
 10
457.178628
 20
263.237755
 30
0.0
 10
456.317901
 20
263.066545
 30
0.0
 10
455.745578
 20
262.494222
 30
0.0
  0
SPLINE
  5
23d
100
AcDbEntity
  8
Layer_1
 62
7
100
AcDbSpline
 70
8
 71
3
 72
8
 73
4
 74
0
 40
0
 40
0
 40
0
 40
0
 40
1
 40
1
 40
1
 40
1
 10
455.745578
 20
262.494222
 30
0.0
 10
455.173255
 20
261.921899
 30
0.0
 10
455.002045
 20
261.061172
 30
0.0
 10
455.311784
 20
260.313396
 30
0.0
  0
SPLINE
  5
23e
100
AcDbEntity
  8
Layer_1
 62
7
100
AcDbSpline
 70
8
 71
3
 72
8
 73
4
 74
0
 40
0
 40
0
 40
0
 40
0
 40
1
 40
1
 40
1
 40
1
 10
455.311784
 20
260.313396
 30
0.0
 10
455.621523
 20
259.565619
 30
0.0
 10
456.351213
 20
259.078057
 30
0.0
 10
457.160600
 20
259.078057
 30
0.0
  0
SPLINE
  5
23f
100
AcDbEntity
  8
Layer_1
 62
7
100
AcDbSpline
 70
8
 71
3
 72
8
 73
4
 74
0
 40
0
 40
0
 40
0
 40
0
 40
1
 40
1
 40
1
 40
1
 10
457.160600
 20
259.078057
 30
0.0
 10
457.691336
 20
259.078057
 30
0.0
 10
458.200335
 20
259.288891
 30
0.0
 10
458.575622
 20
259.664178
 30
0.0
  0
SPLINE
  5
240
100
AcDbEntity
  8
Layer_1
 62
7
100
AcDbSpline
 70
8
 71
3
 72
8
 73
4
 74
0
 40
0
 40
0
 40
0
 40
0
 40
1
 40
1
 40
1
 40
1
 10
458.575622
 20
259.664178
 30
0.0
 10
458.950909
 20
260.039465
 30
0.0
 10
459.161744
 20
260.548464
 30
0.0
 10
459.161744
 20
261.079200
 30
0.0
  0
LWPOLYLINE
  5
241
100
AcDbEntity
  8
Layer_1
 62
7
100
AcDbPolyline
 90
1
 70
1
 10
459.161744
 20
309.079200
 30
0.0
  0
SPLINE
  5
242
100
AcDbEntity
  8
Layer_1
 62
7
100
AcDbSpline
 70
8
 71
3
 72
8
 73
4
 74
0
 40
0
 40
0
 40
0
 40
0
 40
1
 40
1
 40
1
 40
1
 10
459.161744
 20
277.079200
 30
0.0
 10
459.161744
 20
278.184401
 30
0.0
 10
458.265801
 20
279.080343
 30
0.0
 10
457.160600
 20
279.080343
 30
0.0
  0
SPLINE
  5
243
100
AcDbEntity
  8
Layer_1
 62
7
100
AcDbSpline
 70
8
 71
3
 72
8
 73
4
 74
0
 40
0
 40
0
 40
0
 40
0
 40
1
 40
1
 40
1
 40
1
 10
457.160600
 20
279.080343
 30
0.0
 10
456.055399
 20
279.080343
 30
0.0
 10
455.159457
 20
278.184401
 30
0.0
 10
455.159457
 20
277.079200
 30
0.0
  0
SPLINE
  5
244
100
AcDbEntity
  8
Layer_1
 62
7
100
AcDbSpline
 70
8
 71
3
 72
8
 73
4
 74
0
 40
0
 40
0
 40
0
 40
0
 40
1
 40
1
 40
1
 40
1
 10
455.159457
 20
277.079200
 30
0.0
 10
455.159457
 20
275.973999
 30
0.0
 10
456.055399
 20
275.078056
 30
0.0
 10
457.160600
 20
275.078056
 30
0.0
  0
SPLINE
  5
245
100
AcDbEntity
  8
Layer_1
 62
7
100
AcDbSpline
 70
8
 71
3
 72
8
 73
4
 74
0
 40
0
 40
0
 40
0
 40
0
 40
1
 40
1
 40
1
 40
1
 10
457.160600
 20
275.078056
 30
0.0
 10
457.691336
 20
275.078056
 30
0.0
 10
458.200335
 20
275.288891
 30
0.0
 10
458.575622
 20
275.664178
 30
0.0
  0
SPLINE
  5
246
100
AcDbEntity
  8
Layer_1
 62
7
100
AcDbSpline
 70
8
 71
3
 72
8
 73
4
 74
0
 40
0
 40
0
 40
0
 40
0
 40
1
 40
1
 40
1
 40
1
 10
458.575622
 20
275.664178
 30
0.0
 10
458.950909
 20
276.039465
 30
0.0
 10
459.161744
 20
276.548464
 30
0.0
 10
459.161744
 20
277.079200
 30
0.0
  0
LWPOLYLINE
  5
247
100
AcDbEntity
  8
Layer_1
 62
7
100
AcDbPolyline
 90
1
 70
1
 10
459.161744
 20
261.079200
 30
0.0
  0
SPLINE
  5
248
100
AcDbEntity
  8
Layer_1
 62
7
100
AcDbSpline
 70
8
 71
3
 72
8
 73
4
 74
0
 40
0
 40
0
 40
0
 40
0
 40
1
 40
1
 40
1
 40
1
 10
459.161744
 20
293.079200
 30
0.0
 10
459.161744
 20
293.888587
 30
0.0
 10
458.674181
 20
294.618277
 30
0.0
 10
457.926404
 20
294.928016
 30
0.0
  0
SPLINE
  5
249
100
AcDbEntity
  8
Layer_1
 62
7
100
AcDbSpline
 70
8
 71
3
 72
8
 73
4
 74
0
 40
0
 40
0
 40
0
 40
0
 40
1
 40
1
 40
1
 40
1
 10
457.926404
 20
294.928016
 30
0.0
 10
457.178628
 20
295.237755
 30
0.0
 10
456.317901
 20
295.066545
 30
0.0
 10
455.745578
 20
294.494222
 30
0.0
  0
SPLINE
  5
24a
100
AcDbEntity
  8
Layer_1
 62
7
100
AcDbSpline
 70
8
 71
3
 72
8
 73
4
 74
0
 40
0
 40
0
 40
0
 40
0
 40
1
 40
1
 40
1
 40
1
 10
455.745578
 20
294.494222
 30
0.0
 10
455.173255
 20
293.921899
 30
0.0
 10
455.002045
 20
293.061172
 30
0.0
 10
455.311784
 20
292.313396
 30
0.0
  0
SPLINE
  5
24b
100
AcDbEntity
  8
Layer_1
 62
7
100
AcDbSpline
 70
8
 71
3
 72
8
 73
4
 74
0
 40
0
 40
0
 40
0
 40
0
 40
1
 40
1
 40
1
 40
1
 10
455.311784
 20
292.313396
 30
0.0
 10
455.621523
 20
291.565619
 30
0.0
 10
456.351213
 20
291.078057
 30
0.0
 10
457.160600
 20
291.078057
 30
0.0
  0
SPLINE
  5
24c
100
AcDbEntity
  8
Layer_1
 62
7
100
AcDbSpline
 70
8
 71
3
 72
8
 73
4
 74
0
 40
0
 40
0
 40
0
 40
0
 40
1
 40
1
 40
1
 40
1
 10
457.160600
 20
291.078057
 30
0.0
 10
457.691336
 20
291.078057
 30
0.0
 10
458.200335
 20
291.288891
 30
0.0
 10
458.575622
 20
291.664178
 30
0.0
  0
SPLINE
  5
24d
100
AcDbEntity
  8
Layer_1
 62
7
100
AcDbSpline
 70
8
 71
3
 72
8
 73
4
 74
0
 40
0
 40
0
 40
0
 40
0
 40
1
 40
1
 40
1
 40
1
 10
458.575622
 20
291.664178
 30
0.0
 10
458.950909
 20
292.039465
 30
0.0
 10
459.161744
 20
292.548464
 30
0.0
 10
459.161744
 20
293.079200
 30
0.0
  0
LWPOLYLINE
  5
24e
100
AcDbEntity
  8
Layer_1
 62
7
100
AcDbPolyline
 90
1
 70
1
 10
459.161744
 20
277.079200
 30
0.0
  0
SPLINE
  5
24f
100
AcDbEntity
  8
Layer_1
 62
7
100
AcDbSpline
 70
8
 71
3
 72
8
 73
4
 74
0
 40
0
 40
0
 40
0
 40
0
 40
1
 40
1
 40
1
 40
1
 10
427.143014
 20
197.004400
 30
0.0
 10
427.143014
 20
198.109601
 30
0.0
 10
426.247071
 20
199.005543
 30
0.0
 10
425.141870
 20
199.005543
 30
0.0
  0
SPLINE
  5
250
100
AcDbEntity
  8
Layer_1
 62
7
100
AcDbSpline
 70
8
 71
3
 72
8
 73
4
 74
0
 40
0
 40
0
 40
0
 40
0
 40
1
 40
1
 40
1
 40
1
 10
425.141870
 20
199.005543
 30
0.0
 10
424.036669
 20
199.005543
 30
0.0
 10
423.140727
 20
198.109601
 30
0.0
 10
423.140727
 20
197.004400
 30
0.0
  0
SPLINE
  5
251
100
AcDbEntity
  8
Layer_1
 62
7
100
AcDbSpline
 70
8
 71
3
 72
8
 73
4
 74
0
 40
0
 40
0
 40
0
 40
0
 40
1
 40
1
 40
1
 40
1
 10
423.140727
 20
197.004400
 30
0.0
 10
423.140727
 20
195.899199
 30
0.0
 10
424.036669
 20
195.003256
 30
0.0
 10
425.141870
 20
195.003256
 30
0.0
  0
SPLINE
  5
252
100
AcDbEntity
  8
Layer_1
 62
7
100
AcDbSpline
 70
8
 71
3
 72
8
 73
4
 74
0
 40
0
 40
0
 40
0
 40
0
 40
1
 40
1
 40
1
 40
1
 10
425.141870
 20
195.003256
 30
0.0
 10
425.672606
 20
195.003256
 30
0.0
 10
426.181605
 20
195.214091
 30
0.0
 10
426.556892
 20
195.589378
 30
0.0
  0
SPLINE
  5
253
100
AcDbEntity
  8
Layer_1
 62
7
100
AcDbSpline
 70
8
 71
3
 72
8
 73
4
 74
0
 40
0
 40
0
 40
0
 40
0
 40
1
 40
1
 40
1
 40
1
 10
426.556892
 20
195.589378
 30
0.0
 10
426.932179
 20
195.964665
 30
0.0
 10
427.143014
 20
196.473664
 30
0.0
 10
427.143014
 20
197.004400
 30
0.0
  0
LWPOLYLINE
  5
254
100
AcDbEntity
  8
Layer_1
 62
7
100
AcDbPolyline
 90
1
 70
1
 10
459.161744
 20
293.079200
 30
0.0
  0
SPLINE
  5
255
100
AcDbEntity
  8
Layer_1
 62
7
100
AcDbSpline
 70
8
 71
3
 72
8
 73
4
 74
0
 40
0
 40
0
 40
0
 40
0
 40
1
 40
1
 40
1
 40
1
 10
427.143014
 20
181.004400
 30
0.0
 10
427.143014
 20
181.813787
 30
0.0
 10
426.655451
 20
182.543477
 30
0.0
 10
425.907674
 20
182.853216
 30
0.0
  0
SPLINE
  5
256
100
AcDbEntity
  8
Layer_1
 62
7
100
AcDbSpline
 70
8
 71
3
 72
8
 73
4
 74
0
 40
0
 40
0
 40
0
 40
0
 40
1
 40
1
 40
1
 40
1
 10
425.907674
 20
182.853216
 30
0.0
 10
425.159898
 20
183.162955
 30
0.0
 10
424.299171
 20
182.991745
 30
0.0
 10
423.726848
 20
182.419422
 30
0.0
  0
SPLINE
  5
257
100
AcDbEntity
  8
Layer_1
 62
7
100
AcDbSpline
 70
8
 71
3
 72
8
 73
4
 74
0
 40
0
 40
0
 40
0
 40
0
 40
1
 40
1
 40
1
 40
1
 10
423.726848
 20
182.419422
 30
0.0
 10
423.154525
 20
181.847099
 30
0.0
 10
422.983315
 20
180.986372
 30
0.0
 10
423.293054
 20
180.238596
 30
0.0
  0
SPLINE
  5
258
100
AcDbEntity
  8
Layer_1
 62
7
100
AcDbSpline
 70
8
 71
3
 72
8
 73
4
 74
0
 40
0
 40
0
 40
0
 40
0
 40
1
 40
1
 40
1
 40
1
 10
423.293054
 20
180.238596
 30
0.0
 10
423.602793
 20
179.490819
 30
0.0
 10
424.332483
 20
179.003256
 30
0.0
 10
425.141870
 20
179.003256
 30
0.0
  0
SPLINE
  5
259
100
AcDbEntity
  8
Layer_1
 62
7
100
AcDbSpline
 70
8
 71
3
 72
8
 73
4
 74
0
 40
0
 40
0
 40
0
 40
0
 40
1
 40
1
 40
1
 40
1
 10
425.141870
 20
179.003256
 30
0.0
 10
425.672606
 20
179.003256
 30
0.0
 10
426.181605
 20
179.214091
 30
0.0
 10
426.556892
 20
179.589378
 30
0.0
  0
SPLINE
  5
25a
100
AcDbEntity
  8
Layer_1
 62
7
100
AcDbSpline
 70
8
 71
3
 72
8
 73
4
 74
0
 40
0
 40
0
 40
0
 40
0
 40
1
 40
1
 40
1
 40
1
 10
426.556892
 20
179.589378
 30
0.0
 10
426.932179
 20
179.964665
 30
0.0
 10
427.143014
 20
180.473664
 30
0.0
 10
427.143014
 20
181.004400
 30
0.0
  0
LWPOLYLINE
  5
25b
100
AcDbEntity
  8
Layer_1
 62
7
100
AcDbPolyline
 90
1
 70
1
 10
427.143014
 20
197.004400
 30
0.0
  0
SPLINE
  5
25c
100
AcDbEntity
  8
Layer_1
 62
7
100
AcDbSpline
 70
8
 71
3
 72
8
 73
4
 74
0
 40
0
 40
0
 40
0
 40
0
 40
1
 40
1
 40
1
 40
1
 10
427.143014
 20
149.004400
 30
0.0
 10
427.143014
 20
149.813787
 30
0.0
 10
426.655451
 20
150.543477
 30
0.0
 10
425.907674
 20
150.853216
 30
0.0
  0
SPLINE
  5
25d
100
AcDbEntity
  8
Layer_1
 62
7
100
AcDbSpline
 70
8
 71
3
 72
8
 73
4
 74
0
 40
0
 40
0
 40
0
 40
0
 40
1
 40
1
 40
1
 40
1
 10
425.907674
 20
150.853216
 30
0.0
 10
425.159898
 20
151.162955
 30
0.0
 10
424.299171
 20
150.991745
 30
0.0
 10
423.726848
 20
150.419422
 30
0.0
  0
SPLINE
  5
25e
100
AcDbEntity
  8
Layer_1
 62
7
100
AcDbSpline
 70
8
 71
3
 72
8
 73
4
 74
0
 40
0
 40
0
 40
0
 40
0
 40
1
 40
1
 40
1
 40
1
 10
423.726848
 20
150.419422
 30
0.0
 10
423.154525
 20
149.847099
 30
0.0
 10
422.983315
 20
148.986372
 30
0.0
 10
423.293054
 20
148.238596
 30
0.0
  0
SPLINE
  5
25f
100
AcDbEntity
  8
Layer_1
 62
7
100
AcDbSpline
 70
8
 71
3
 72
8
 73
4
 74
0
 40
0
 40
0
 40
0
 40
0
 40
1
 40
1
 40
1
 40
1
 10
423.293054
 20
148.238596
 30
0.0
 10
423.602793
 20
147.490819
 30
0.0
 10
424.332483
 20
147.003256
 30
0.0
 10
425.141870
 20
147.003256
 30
0.0
  0
SPLINE
  5
260
100
AcDbEntity
  8
Layer_1
 62
7
100
AcDbSpline
 70
8
 71
3
 72
8
 73
4
 74
0
 40
0
 40
0
 40
0
 40
0
 40
1
 40
1
 40
1
 40
1
 10
425.141870
 20
147.003256
 30
0.0
 10
425.672606
 20
147.003256
 30
0.0
 10
426.181605
 20
147.214091
 30
0.0
 10
426.556892
 20
147.589378
 30
0.0
  0
SPLINE
  5
261
100
AcDbEntity
  8
Layer_1
 62
7
100
AcDbSpline
 70
8
 71
3
 72
8
 73
4
 74
0
 40
0
 40
0
 40
0
 40
0
 40
1
 40
1
 40
1
 40
1
 10
426.556892
 20
147.589378
 30
0.0
 10
426.932179
 20
147.964665
 30
0.0
 10
427.143014
 20
148.473664
 30
0.0
 10
427.143014
 20
149.004400
 30
0.0
  0
LWPOLYLINE
  5
262
100
AcDbEntity
  8
Layer_1
 62
7
100
AcDbPolyline
 90
1
 70
1
 10
427.143014
 20
181.004400
 30
0.0
  0
SPLINE
  5
263
100
AcDbEntity
  8
Layer_1
 62
7
100
AcDbSpline
 70
8
 71
3
 72
8
 73
4
 74
0
 40
0
 40
0
 40
0
 40
0
 40
1
 40
1
 40
1
 40
1
 10
427.143014
 20
165.004400
 30
0.0
 10
427.143014
 20
165.813787
 30
0.0
 10
426.655451
 20
166.543477
 30
0.0
 10
425.907674
 20
166.853216
 30
0.0
  0
SPLINE
  5
264
100
AcDbEntity
  8
Layer_1
 62
7
100
AcDbSpline
 70
8
 71
3
 72
8
 73
4
 74
0
 40
0
 40
0
 40
0
 40
0
 40
1
 40
1
 40
1
 40
1
 10
425.907674
 20
166.853216
 30
0.0
 10
425.159898
 20
167.162955
 30
0.0
 10
424.299171
 20
166.991745
 30
0.0
 10
423.726848
 20
166.419422
 30
0.0
  0
SPLINE
  5
265
100
AcDbEntity
  8
Layer_1
 62
7
100
AcDbSpline
 70
8
 71
3
 72
8
 73
4
 74
0
 40
0
 40
0
 40
0
 40
0
 40
1
 40
1
 40
1
 40
1
 10
423.726848
 20
166.419422
 30
0.0
 10
423.154525
 20
165.847099
 30
0.0
 10
422.983315
 20
164.986372
 30
0.0
 10
423.293054
 20
164.238596
 30
0.0
  0
SPLINE
  5
266
100
AcDbEntity
  8
Layer_1
 62
7
100
AcDbSpline
 70
8
 71
3
 72
8
 73
4
 74
0
 40
0
 40
0
 40
0
 40
0
 40
1
 40
1
 40
1
 40
1
 10
423.293054
 20
164.238596
 30
0.0
 10
423.602793
 20
163.490819
 30
0.0
 10
424.332483
 20
163.003256
 30
0.0
 10
425.141870
 20
163.003256
 30
0.0
  0
SPLINE
  5
267
100
AcDbEntity
  8
Layer_1
 62
7
100
AcDbSpline
 70
8
 71
3
 72
8
 73
4
 74
0
 40
0
 40
0
 40
0
 40
0
 40
1
 40
1
 40
1
 40
1
 10
425.141870
 20
163.003256
 30
0.0
 10
425.672606
 20
163.003256
 30
0.0
 10
426.181605
 20
163.214091
 30
0.0
 10
426.556892
 20
163.589378
 30
0.0
  0
SPLINE
  5
268
100
AcDbEntity
  8
Layer_1
 62
7
100
AcDbSpline
 70
8
 71
3
 72
8
 73
4
 74
0
 40
0
 40
0
 40
0
 40
0
 40
1
 40
1
 40
1
 40
1
 10
426.556892
 20
163.589378
 30
0.0
 10
426.932179
 20
163.964665
 30
0.0
 10
427.143014
 20
164.473664
 30
0.0
 10
427.143014
 20
165.004400
 30
0.0
  0
LWPOLYLINE
  5
269
100
AcDbEntity
  8
Layer_1
 62
7
100
AcDbPolyline
 90
1
 70
1
 10
427.143014
 20
149.004400
 30
0.0
  0
SPLINE
  5
26a
100
AcDbEntity
  8
Layer_1
 62
7
100
AcDbSpline
 70
8
 71
3
 72
8
 73
4
 74
0
 40
0
 40
0
 40
0
 40
0
 40
1
 40
1
 40
1
 40
1
 10
459.161594
 20
197.004400
 30
0.0
 10
459.161593
 20
198.109601
 30
0.0
 10
458.265651
 20
199.005543
 30
0.0
 10
457.160450
 20
199.005543
 30
0.0
  0
SPLINE
  5
26b
100
AcDbEntity
  8
Layer_1
 62
7
100
AcDbSpline
 70
8
 71
3
 72
8
 73
4
 74
0
 40
0
 40
0
 40
0
 40
0
 40
1
 40
1
 40
1
 40
1
 10
457.160450
 20
199.005543
 30
0.0
 10
456.055249
 20
199.005543
 30
0.0
 10
455.159307
 20
198.109601
 30
0.0
 10
455.159307
 20
197.004400
 30
0.0
  0
SPLINE
  5
26c
100
AcDbEntity
  8
Layer_1
 62
7
100
AcDbSpline
 70
8
 71
3
 72
8
 73
4
 74
0
 40
0
 40
0
 40
0
 40
0
 40
1
 40
1
 40
1
 40
1
 10
455.159307
 20
197.004400
 30
0.0
 10
455.159307
 20
195.899199
 30
0.0
 10
456.055249
 20
195.003256
 30
0.0
 10
457.160450
 20
195.003256
 30
0.0
  0
SPLINE
  5
26d
100
AcDbEntity
  8
Layer_1
 62
7
100
AcDbSpline
 70
8
 71
3
 72
8
 73
4
 74
0
 40
0
 40
0
 40
0
 40
0
 40
1
 40
1
 40
1
 40
1
 10
457.160450
 20
195.003256
 30
0.0
 10
457.691186
 20
195.003256
 30
0.0
 10
458.200185
 20
195.214091
 30
0.0
 10
458.575472
 20
195.589378
 30
0.0
  0
SPLINE
  5
26e
100
AcDbEntity
  8
Layer_1
 62
7
100
AcDbSpline
 70
8
 71
3
 72
8
 73
4
 74
0
 40
0
 40
0
 40
0
 40
0
 40
1
 40
1
 40
1
 40
1
 10
458.575472
 20
195.589378
 30
0.0
 10
458.950759
 20
195.964665
 30
0.0
 10
459.161594
 20
196.473664
 30
0.0
 10
459.161594
 20
197.004400
 30
0.0
  0
LWPOLYLINE
  5
26f
100
AcDbEntity
  8
Layer_1
 62
7
100
AcDbPolyline
 90
1
 70
1
 10
427.143014
 20
165.004400
 30
0.0
  0
SPLINE
  5
270
100
AcDbEntity
  8
Layer_1
 62
7
100
AcDbSpline
 70
8
 71
3
 72
8
 73
4
 74
0
 40
0
 40
0
 40
0
 40
0
 40
1
 40
1
 40
1
 40
1
 10
459.161594
 20
181.004400
 30
0.0
 10
459.161594
 20
181.813787
 30
0.0
 10
458.674031
 20
182.543477
 30
0.0
 10
457.926254
 20
182.853216
 30
0.0
  0
SPLINE
  5
271
100
AcDbEntity
  8
Layer_1
 62
7
100
AcDbSpline
 70
8
 71
3
 72
8
 73
4
 74
0
 40
0
 40
0
 40
0
 40
0
 40
1
 40
1
 40
1
 40
1
 10
457.926254
 20
182.853216
 30
0.0
 10
457.178478
 20
183.162955
 30
0.0
 10
456.317751
 20
182.991745
 30
0.0
 10
455.745428
 20
182.419422
 30
0.0
  0
SPLINE
  5
272
100
AcDbEntity
  8
Layer_1
 62
7
100
AcDbSpline
 70
8
 71
3
 72
8
 73
4
 74
0
 40
0
 40
0
 40
0
 40
0
 40
1
 40
1
 40
1
 40
1
 10
455.745428
 20
182.419422
 30
0.0
 10
455.173105
 20
181.847099
 30
0.0
 10
455.001895
 20
180.986372
 30
0.0
 10
455.311634
 20
180.238596
 30
0.0
  0
SPLINE
  5
273
100
AcDbEntity
  8
Layer_1
 62
7
100
AcDbSpline
 70
8
 71
3
 72
8
 73
4
 74
0
 40
0
 40
0
 40
0
 40
0
 40
1
 40
1
 40
1
 40
1
 10
455.311634
 20
180.238596
 30
0.0
 10
455.621373
 20
179.490819
 30
0.0
 10
456.351063
 20
179.003256
 30
0.0
 10
457.160450
 20
179.003256
 30
0.0
  0
SPLINE
  5
274
100
AcDbEntity
  8
Layer_1
 62
7
100
AcDbSpline
 70
8
 71
3
 72
8
 73
4
 74
0
 40
0
 40
0
 40
0
 40
0
 40
1
 40
1
 40
1
 40
1
 10
457.160450
 20
179.003256
 30
0.0
 10
457.691186
 20
179.003256
 30
0.0
 10
458.200185
 20
179.214091
 30
0.0
 10
458.575472
 20
179.589378
 30
0.0
  0
SPLINE
  5
275
100
AcDbEntity
  8
Layer_1
 62
7
100
AcDbSpline
 70
8
 71
3
 72
8
 73
4
 74
0
 40
0
 40
0
 40
0
 40
0
 40
1
 40
1
 40
1
 40
1
 10
458.575472
 20
179.589378
 30
0.0
 10
458.950759
 20
179.964665
 30
0.0
 10
459.161594
 20
180.473664
 30
0.0
 10
459.161594
 20
181.004400
 30
0.0
  0
LWPOLYLINE
  5
276
100
AcDbEntity
  8
Layer_1
 62
7
100
AcDbPolyline
 90
1
 70
1
 10
459.161594
 20
197.004400
 30
0.0
  0
SPLINE
  5
277
100
AcDbEntity
  8
Layer_1
 62
7
100
AcDbSpline
 70
8
 71
3
 72
8
 73
4
 74
0
 40
0
 40
0
 40
0
 40
0
 40
1
 40
1
 40
1
 40
1
 10
459.161594
 20
149.004400
 30
0.0
 10
459.161594
 20
149.813787
 30
0.0
 10
458.674031
 20
150.543477
 30
0.0
 10
457.926254
 20
150.853216
 30
0.0
  0
SPLINE
  5
278
100
AcDbEntity
  8
Layer_1
 62
7
100
AcDbSpline
 70
8
 71
3
 72
8
 73
4
 74
0
 40
0
 40
0
 40
0
 40
0
 40
1
 40
1
 40
1
 40
1
 10
457.926254
 20
150.853216
 30
0.0
 10
457.178478
 20
151.162955
 30
0.0
 10
456.317751
 20
150.991745
 30
0.0
 10
455.745428
 20
150.419422
 30
0.0
  0
SPLINE
  5
279
100
AcDbEntity
  8
Layer_1
 62
7
100
AcDbSpline
 70
8
 71
3
 72
8
 73
4
 74
0
 40
0
 40
0
 40
0
 40
0
 40
1
 40
1
 40
1
 40
1
 10
455.745428
 20
150.419422
 30
0.0
 10
455.173105
 20
149.847099
 30
0.0
 10
455.001895
 20
148.986372
 30
0.0
 10
455.311634
 20
148.238596
 30
0.0
  0
SPLINE
  5
27a
100
AcDbEntity
  8
Layer_1
 62
7
100
AcDbSpline
 70
8
 71
3
 72
8
 73
4
 74
0
 40
0
 40
0
 40
0
 40
0
 40
1
 40
1
 40
1
 40
1
 10
455.311634
 20
148.238596
 30
0.0
 10
455.621373
 20
147.490819
 30
0.0
 10
456.351063
 20
147.003256
 30
0.0
 10
457.160450
 20
147.003256
 30
0.0
  0
SPLINE
  5
27b
100
AcDbEntity
  8
Layer_1
 62
7
100
AcDbSpline
 70
8
 71
3
 72
8
 73
4
 74
0
 40
0
 40
0
 40
0
 40
0
 40
1
 40
1
 40
1
 40
1
 10
457.160450
 20
147.003256
 30
0.0
 10
457.691186
 20
147.003256
 30
0.0
 10
458.200185
 20
147.214091
 30
0.0
 10
458.575472
 20
147.589378
 30
0.0
  0
SPLINE
  5
27c
100
AcDbEntity
  8
Layer_1
 62
7
100
AcDbSpline
 70
8
 71
3
 72
8
 73
4
 74
0
 40
0
 40
0
 40
0
 40
0
 40
1
 40
1
 40
1
 40
1
 10
458.575472
 20
147.589378
 30
0.0
 10
458.950759
 20
147.964665
 30
0.0
 10
459.161594
 20
148.473664
 30
0.0
 10
459.161594
 20
149.004400
 30
0.0
  0
LWPOLYLINE
  5
27d
100
AcDbEntity
  8
Layer_1
 62
7
100
AcDbPolyline
 90
1
 70
1
 10
459.161594
 20
181.004400
 30
0.0
  0
SPLINE
  5
27e
100
AcDbEntity
  8
Layer_1
 62
7
100
AcDbSpline
 70
8
 71
3
 72
8
 73
4
 74
0
 40
0
 40
0
 40
0
 40
0
 40
1
 40
1
 40
1
 40
1
 10
459.161594
 20
165.004400
 30
0.0
 10
459.161594
 20
165.813787
 30
0.0
 10
458.674031
 20
166.543477
 30
0.0
 10
457.926254
 20
166.853216
 30
0.0
  0
SPLINE
  5
27f
100
AcDbEntity
  8
Layer_1
 62
7
100
AcDbSpline
 70
8
 71
3
 72
8
 73
4
 74
0
 40
0
 40
0
 40
0
 40
0
 40
1
 40
1
 40
1
 40
1
 10
457.926254
 20
166.853216
 30
0.0
 10
457.178478
 20
167.162955
 30
0.0
 10
456.317751
 20
166.991745
 30
0.0
 10
455.745428
 20
166.419422
 30
0.0
  0
SPLINE
  5
280
100
AcDbEntity
  8
Layer_1
 62
7
100
AcDbSpline
 70
8
 71
3
 72
8
 73
4
 74
0
 40
0
 40
0
 40
0
 40
0
 40
1
 40
1
 40
1
 40
1
 10
455.745428
 20
166.419422
 30
0.0
 10
455.173105
 20
165.847099
 30
0.0
 10
455.001895
 20
164.986372
 30
0.0
 10
455.311634
 20
164.238596
 30
0.0
  0
SPLINE
  5
281
100
AcDbEntity
  8
Layer_1
 62
7
100
AcDbSpline
 70
8
 71
3
 72
8
 73
4
 74
0
 40
0
 40
0
 40
0
 40
0
 40
1
 40
1
 40
1
 40
1
 10
455.311634
 20
164.238596
 30
0.0
 10
455.621373
 20
163.490819
 30
0.0
 10
456.351063
 20
163.003256
 30
0.0
 10
457.160450
 20
163.003256
 30
0.0
  0
SPLINE
  5
282
100
AcDbEntity
  8
Layer_1
 62
7
100
AcDbSpline
 70
8
 71
3
 72
8
 73
4
 74
0
 40
0
 40
0
 40
0
 40
0
 40
1
 40
1
 40
1
 40
1
 10
457.160450
 20
163.003256
 30
0.0
 10
457.691186
 20
163.003256
 30
0.0
 10
458.200185
 20
163.214091
 30
0.0
 10
458.575472
 20
163.589378
 30
0.0
  0
SPLINE
  5
283
100
AcDbEntity
  8
Layer_1
 62
7
100
AcDbSpline
 70
8
 71
3
 72
8
 73
4
 74
0
 40
0
 40
0
 40
0
 40
0
 40
1
 40
1
 40
1
 40
1
 10
458.575472
 20
163.589378
 30
0.0
 10
458.950759
 20
163.964665
 30
0.0
 10
459.161594
 20
164.473664
 30
0.0
 10
459.161594
 20
165.004400
 30
0.0
  0
LWPOLYLINE
  5
284
100
AcDbEntity
  8
Layer_1
 62
7
100
AcDbPolyline
 90
1
 70
1
 10
459.161594
 20
149.004400
 30
0.0
  0
LWPOLYLINE
  5
285
100
AcDbEntity
  8
Layer_1
 62
7
100
AcDbPolyline
 90
1
 70
1
 10
459.161594
 20
165.004400
 30
0.0
  0
ENDSEC
  0
SECTION
  2
OBJECTS
  0
DICTIONARY
  5
C
330
0
100
AcDbDictionary
  3
ACAD_GROUP
350
D
  3
ACAD_MLINESTYLE
350
17
  0
DICTIONARY
  5
D
330
C
100
AcDbDictionary
  0
DICTIONARY
  5
1A
330
C
100
AcDbDictionary
  0
DICTIONARY
  5
17
330
C
100
AcDbDictionary
  3
STANDARD
350
18
  0
DICTIONARY
  5
19
330
C
100
AcDbDictionary
  0
ENDSEC
  0
EOF
