  0
SECTION
  2
HEADER
  9
$ACADVER
  1
AC1014
  9
$HANDSEED
  5
FFFF
  9
$INSUNITS
 70
     4
  9
$MEASUREMENT
 70
     1
  0
ENDSEC
  0
SECTION
  2
TABLES
  0
TABLE
  2
VPORT
  5
8
330
0
100
AcDbSymbolTable
 70
     4
  0
VPORT
  5
2E
330
8
100
AcDbSymbolTableRecord
100
AcDbViewportTableRecord
  2
*ACTIVE
 70
     0
 10
0.0
 20
0.0
 11
1.0
 21
1.0
 12
210.0
 22
148.5
 13
0.0
 23
0.0
 14
10.0
 24
10.0
 15
10.0
 25
10.0
 16
0.0
 26
0.0
 36
1.0
 17
0.0
 27
0.0
 37
0.0
 40
341.0
 41
1.24
 42
50.0
 43
0.0
 44
0.0
 50
0.0
 51
0.0
 71
     0
 72
   100
 73
     1
 74
     3
 75
     0
 76
     0
 77
     0
 78
     0
  0
ENDTAB
  0
TABLE
  2
LTYPE
  5
5
330
0
100
AcDbSymbolTable
 70
     1
  0
LTYPE
  5
14
330
5
100
AcDbSymbolTableRecord
100
AcDbLinetypeTableRecord
  2
BYBLOCK
 70
     0
  3

 72
    65
 73
     0
 40
0.0
  0
LTYPE
  5
15
330
5
100
AcDbSymbolTableRecord
100
AcDbLinetypeTableRecord
  2
BYLAYER
 70
     0
  3

 72
    65
 73
     0
 40
0.0
  0
LTYPE
  5
16
330
5
100
AcDbSymbolTableRecord
100
AcDbLinetypeTableRecord
  2
CONTINUOUS
 70
     0
  3
Solid line
 72
    65
 73
     0
 40
0.0
  0
ENDTAB
  0
TABLE
  2
LAYER
  5
2
100
AcDbSymbolTable
 70
2
  0
LAYER
  5
50
100
AcDbSymbolTableRecord
100
AcDbLayerTableRecord
  2
0
 70
0
  6
CONTINUOUS
  0
LAYER
  5
51
100
AcDbSymbolTableRecord
100
AcDbLayerTableRecord
  2
Layer_1
 70
0
  6
CONTINUOUS
  0
ENDTAB
  0
TABLE
  2
STYLE
  5
3
330
0
100
AcDbSymbolTable
 70
     1
  0
STYLE
  5
11
330
3
100
AcDbSymbolTableRecord
100
AcDbTextStyleTableRecord
  2
STANDARD
 70
     0
 40
0.0
 41
1.0
 50
0.0
 71
     0
 42
2.5
  3
txt
  4

  0
ENDTAB
  0
TABLE
  2
VIEW
  5
6
330
0
100
AcDbSymbolTable
 70
     0
  0
ENDTAB
  0
TABLE
  2
UCS
  5
7
330
0
100
AcDbSymbolTable
 70
     0
  0
ENDTAB
  0
TABLE
  2
APPID
  5
9
330
0
100
AcDbSymbolTable
 70
     2
  0
APPID
  5
12
330
9
100
AcDbSymbolTableRecord
100
AcDbRegAppTableRecord
  2
ACAD
 70
     0
  0
ENDTAB
  0
TABLE
  2
DIMSTYLE
  5
A
330
0
100
AcDbSymbolTable
 70
     1
  0
DIMSTYLE
105
27
330
A
100
AcDbSymbolTableRecord
100
AcDbDimStyleTableRecord
  2
ISO-25
 70
     0
  3

  4

  5

  6

  7

 40
1.0
 41
2.5
 42
0.625
 43
3.75
 44
1.25
 45
0.0
 46
0.0
 47
0.0
 48
0.0
140
2.5
141
2.5
142
0.0
143
0.03937007874016
144
1.0
145
0.0
146
1.0
147
0.625
 71
     0
 72
     0
 73
     0
 74
     0
 75
     0
 76
     0
 77
     1
 78
     8
170
     0
171
     3
172
     1
173
     0
174
     0
175
     0
176
     0
177
     0
178
     0
270
     2
271
     2
272
     2
273
     2
274
     3
340
11
275
     0
280
     0
281
     0
282
     0
283
     0
284
     8
285
     0
286
     0
287
     3
288
     0
  0
ENDTAB
  0
TABLE
  2
BLOCK_RECORD
  5
1
330
0
100
AcDbSymbolTable
 70
     1
  0
BLOCK_RECORD
  5
1F
330
1
100
AcDbSymbolTableRecord
100
AcDbBlockTableRecord
  2
*MODEL_SPACE
  0
BLOCK_RECORD
  5
1B
330
1
100
AcDbSymbolTableRecord
100
AcDbBlockTableRecord
  2
*PAPER_SPACE
  0
ENDTAB
  0
ENDSEC
  0
SECTION
  2
BLOCKS
  0
BLOCK
  5
20
330
1F
100
AcDbEntity
  8
0
100
AcDbBlockBegin
  2
*MODEL_SPACE
 70
     0
 10
0.0
 20
0.0
 30
0.0
  3
*MODEL_SPACE
  1

  0
ENDBLK
  5
21
330
1F
100
AcDbEntity
  8
0
100
AcDbBlockEnd
  0
BLOCK
  5
1C
330
1B
100
AcDbEntity
 67
     1
  8
0
100
AcDbBlockBegin
  2
*PAPER_SPACE
  1

  0
ENDBLK
  5
1D
330
1B
100
AcDbEntity
 67
     1
  8
0
100
AcDbBlockEnd
  0
ENDSEC
  0
SECTION
  2
ENTITIES
  0
LWPOLYLINE
  5
100
100
AcDbEntity
  8
Layer_1
 62
7
100
AcDbPolyline
 90
2
 70
0
 10
169.260180
 20
276.377350
 30
0.0
 10
169.260180
 20
332.376410
 30
0.0
  0
LWPOLYLINE
  5
101
100
AcDbEntity
  8
Layer_1
 62
7
100
AcDbPolyline
 90
2
 70
0
 10
164.260190
 20
337.377035
 30
0.0
 10
108.260070
 20
337.377035
 30
0.0
  0
SPLINE
  5
102
100
AcDbEntity
  8
Layer_1
 62
7
100
AcDbSpline
 70
8
 71
3
 72
8
 73
4
 74
0
 40
0
 40
0
 40
0
 40
0
 40
1
 40
1
 40
1
 40
1
 10
162.259046
 20
276.376890
 30
0.0
 10
162.259047
 20
275.567503
 30
0.0
 10
162.746609
 20
274.837813
 30
0.0
 10
163.494386
 20
274.528074
 30
0.0
  0
SPLINE
  5
103
100
AcDbEntity
  8
Layer_1
 62
7
100
AcDbSpline
 70
8
 71
3
 72
8
 73
4
 74
0
 40
0
 40
0
 40
0
 40
0
 40
1
 40
1
 40
1
 40
1
 10
163.494386
 20
274.528074
 30
0.0
 10
164.242162
 20
274.218335
 30
0.0
 10
165.102889
 20
274.389545
 30
0.0
 10
165.675212
 20
274.961868
 30
0.0
  0
SPLINE
  5
104
100
AcDbEntity
  8
Layer_1
 62
7
100
AcDbSpline
 70
8
 71
3
 72
8
 73
4
 74
0
 40
0
 40
0
 40
0
 40
0
 40
1
 40
1
 40
1
 40
1
 10
165.675212
 20
274.961868
 30
0.0
 10
166.247535
 20
275.534191
 30
0.0
 10
166.418745
 20
276.394918
 30
0.0
 10
166.109006
 20
277.142694
 30
0.0
  0
SPLINE
  5
105
100
AcDbEntity
  8
Layer_1
 62
7
100
AcDbSpline
 70
8
 71
3
 72
8
 73
4
 74
0
 40
0
 40
0
 40
0
 40
0
 40
1
 40
1
 40
1
 40
1
 10
166.109006
 20
277.142694
 30
0.0
 10
165.799267
 20
277.890471
 30
0.0
 10
165.069577
 20
278.378034
 30
0.0
 10
164.260190
 20
278.378034
 30
0.0
  0
SPLINE
  5
106
100
AcDbEntity
  8
Layer_1
 62
7
100
AcDbSpline
 70
8
 71
3
 72
8
 73
4
 74
0
 40
0
 40
0
 40
0
 40
0
 40
1
 40
1
 40
1
 40
1
 10
164.260190
 20
278.378034
 30
0.0
 10
163.729454
 20
278.378034
 30
0.0
 10
163.220455
 20
278.167199
 30
0.0
 10
162.845168
 20
277.791912
 30
0.0
  0
SPLINE
  5
107
100
AcDbEntity
  8
Layer_1
 62
7
100
AcDbSpline
 70
8
 71
3
 72
8
 73
4
 74
0
 40
0
 40
0
 40
0
 40
0
 40
1
 40
1
 40
1
 40
1
 10
162.845168
 20
277.791912
 30
0.0
 10
162.469881
 20
277.416625
 30
0.0
 10
162.259047
 20
276.907626
 30
0.0
 10
162.259047
 20
276.376890
 30
0.0
  0
LWPOLYLINE
  5
108
100
AcDbEntity
  8
Layer_1
 62
7
100
AcDbPolyline
 90
2
 70
0
 10
104.724710
 20
328.841577
 30
0.0
 10
160.724670
 20
272.839870
 30
0.0
  0
SPLINE
  5
109
100
AcDbEntity
  8
Layer_1
 62
7
100
AcDbSpline
 70
8
 71
3
 72
8
 73
4
 74
0
 40
0
 40
0
 40
0
 40
0
 40
1
 40
1
 40
1
 40
1
 10
162.259046
 20
284.376890
 30
0.0
 10
162.259046
 20
283.567503
 30
0.0
 10
162.746609
 20
282.837813
 30
0.0
 10
163.494386
 20
282.528074
 30
0.0
  0
SPLINE
  5
10a
100
AcDbEntity
  8
Layer_1
 62
7
100
AcDbSpline
 70
8
 71
3
 72
8
 73
4
 74
0
 40
0
 40
0
 40
0
 40
0
 40
1
 40
1
 40
1
 40
1
 10
163.494386
 20
282.528074
 30
0.0
 10
164.242162
 20
282.218335
 30
0.0
 10
165.102889
 20
282.389545
 30
0.0
 10
165.675212
 20
282.961868
 30
0.0
  0
SPLINE
  5
10b
100
AcDbEntity
  8
Layer_1
 62
7
100
AcDbSpline
 70
8
 71
3
 72
8
 73
4
 74
0
 40
0
 40
0
 40
0
 40
0
 40
1
 40
1
 40
1
 40
1
 10
165.675212
 20
282.961868
 30
0.0
 10
166.247535
 20
283.534191
 30
0.0
 10
166.418745
 20
284.394918
 30
0.0
 10
166.109006
 20
285.142694
 30
0.0
  0
SPLINE
  5
10c
100
AcDbEntity
  8
Layer_1
 62
7
100
AcDbSpline
 70
8
 71
3
 72
8
 73
4
 74
0
 40
0
 40
0
 40
0
 40
0
 40
1
 40
1
 40
1
 40
1
 10
166.109006
 20
285.142694
 30
0.0
 10
165.799267
 20
285.890471
 30
0.0
 10
165.069577
 20
286.378034
 30
0.0
 10
164.260190
 20
286.378034
 30
0.0
  0
SPLINE
  5
10d
100
AcDbEntity
  8
Layer_1
 62
7
100
AcDbSpline
 70
8
 71
3
 72
8
 73
4
 74
0
 40
0
 40
0
 40
0
 40
0
 40
1
 40
1
 40
1
 40
1
 10
164.260190
 20
286.378034
 30
0.0
 10
163.729454
 20
286.378034
 30
0.0
 10
163.220455
 20
286.167199
 30
0.0
 10
162.845168
 20
285.791912
 30
0.0
  0
SPLINE
  5
10e
100
AcDbEntity
  8
Layer_1
 62
7
100
AcDbSpline
 70
8
 71
3
 72
8
 73
4
 74
0
 40
0
 40
0
 40
0
 40
0
 40
1
 40
1
 40
1
 40
1
 10
162.845168
 20
285.791912
 30
0.0
 10
162.469881
 20
285.416625
 30
0.0
 10
162.259046
 20
284.907626
 30
0.0
 10
162.259046
 20
284.376890
 30
0.0
  0
LWPOLYLINE
  5
10f
100
AcDbEntity
  8
Layer_1
 62
7
100
AcDbPolyline
 90
1
 70
1
 10
162.259047
 20
276.376890
 30
0.0
  0
SPLINE
  5
110
100
AcDbEntity
  8
Layer_1
 62
7
100
AcDbSpline
 70
8
 71
3
 72
8
 73
4
 74
0
 40
0
 40
0
 40
0
 40
0
 40
1
 40
1
 40
1
 40
1
 10
162.259046
 20
292.376880
 30
0.0
 10
162.259046
 20
291.567493
 30
0.0
 10
162.746609
 20
290.837803
 30
0.0
 10
163.494386
 20
290.528064
 30
0.0
  0
SPLINE
  5
111
100
AcDbEntity
  8
Layer_1
 62
7
100
AcDbSpline
 70
8
 71
3
 72
8
 73
4
 74
0
 40
0
 40
0
 40
0
 40
0
 40
1
 40
1
 40
1
 40
1
 10
163.494386
 20
290.528064
 30
0.0
 10
164.242162
 20
290.218325
 30
0.0
 10
165.102889
 20
290.389535
 30
0.0
 10
165.675212
 20
290.961858
 30
0.0
  0
SPLINE
  5
112
100
AcDbEntity
  8
Layer_1
 62
7
100
AcDbSpline
 70
8
 71
3
 72
8
 73
4
 74
0
 40
0
 40
0
 40
0
 40
0
 40
1
 40
1
 40
1
 40
1
 10
165.675212
 20
290.961858
 30
0.0
 10
166.247535
 20
291.534181
 30
0.0
 10
166.418745
 20
292.394908
 30
0.0
 10
166.109006
 20
293.142684
 30
0.0
  0
SPLINE
  5
113
100
AcDbEntity
  8
Layer_1
 62
7
100
AcDbSpline
 70
8
 71
3
 72
8
 73
4
 74
0
 40
0
 40
0
 40
0
 40
0
 40
1
 40
1
 40
1
 40
1
 10
166.109006
 20
293.142684
 30
0.0
 10
165.799267
 20
293.890461
 30
0.0
 10
165.069577
 20
294.378023
 30
0.0
 10
164.260190
 20
294.378023
 30
0.0
  0
SPLINE
  5
114
100
AcDbEntity
  8
Layer_1
 62
7
100
AcDbSpline
 70
8
 71
3
 72
8
 73
4
 74
0
 40
0
 40
0
 40
0
 40
0
 40
1
 40
1
 40
1
 40
1
 10
164.260190
 20
294.378023
 30
0.0
 10
163.729454
 20
294.378023
 30
0.0
 10
163.220455
 20
294.167189
 30
0.0
 10
162.845168
 20
293.791902
 30
0.0
  0
SPLINE
  5
115
100
AcDbEntity
  8
Layer_1
 62
7
100
AcDbSpline
 70
8
 71
3
 72
8
 73
4
 74
0
 40
0
 40
0
 40
0
 40
0
 40
1
 40
1
 40
1
 40
1
 10
162.845168
 20
293.791902
 30
0.0
 10
162.469881
 20
293.416615
 30
0.0
 10
162.259046
 20
292.907616
 30
0.0
 10
162.259046
 20
292.376880
 30
0.0
  0
LWPOLYLINE
  5
116
100
AcDbEntity
  8
Layer_1
 62
7
100
AcDbPolyline
 90
1
 70
1
 10
162.259046
 20
284.376890
 30
0.0
  0
SPLINE
  5
117
100
AcDbEntity
  8
Layer_1
 62
7
100
AcDbSpline
 70
8
 71
3
 72
8
 73
4
 74
0
 40
0
 40
0
 40
0
 40
0
 40
1
 40
1
 40
1
 40
1
 10
162.259046
 20
300.376880
 30
0.0
 10
162.259046
 20
299.567493
 30
0.0
 10
162.746609
 20
298.837803
 30
0.0
 10
163.494386
 20
298.528064
 30
0.0
  0
SPLINE
  5
118
100
AcDbEntity
  8
Layer_1
 62
7
100
AcDbSpline
 70
8
 71
3
 72
8
 73
4
 74
0
 40
0
 40
0
 40
0
 40
0
 40
1
 40
1
 40
1
 40
1
 10
163.494386
 20
298.528064
 30
0.0
 10
164.242162
 20
298.218325
 30
0.0
 10
165.102889
 20
298.389535
 30
0.0
 10
165.675212
 20
298.961858
 30
0.0
  0
SPLINE
  5
119
100
AcDbEntity
  8
Layer_1
 62
7
100
AcDbSpline
 70
8
 71
3
 72
8
 73
4
 74
0
 40
0
 40
0
 40
0
 40
0
 40
1
 40
1
 40
1
 40
1
 10
165.675212
 20
298.961858
 30
0.0
 10
166.247535
 20
299.534181
 30
0.0
 10
166.418745
 20
300.394908
 30
0.0
 10
166.109006
 20
301.142684
 30
0.0
  0
SPLINE
  5
11a
100
AcDbEntity
  8
Layer_1
 62
7
100
AcDbSpline
 70
8
 71
3
 72
8
 73
4
 74
0
 40
0
 40
0
 40
0
 40
0
 40
1
 40
1
 40
1
 40
1
 10
166.109006
 20
301.142684
 30
0.0
 10
165.799267
 20
301.890461
 30
0.0
 10
165.069577
 20
302.378023
 30
0.0
 10
164.260190
 20
302.378023
 30
0.0
  0
SPLINE
  5
11b
100
AcDbEntity
  8
Layer_1
 62
7
100
AcDbSpline
 70
8
 71
3
 72
8
 73
4
 74
0
 40
0
 40
0
 40
0
 40
0
 40
1
 40
1
 40
1
 40
1
 10
164.260190
 20
302.378023
 30
0.0
 10
163.729454
 20
302.378023
 30
0.0
 10
163.220455
 20
302.167189
 30
0.0
 10
162.845168
 20
301.791902
 30
0.0
  0
SPLINE
  5
11c
100
AcDbEntity
  8
Layer_1
 62
7
100
AcDbSpline
 70
8
 71
3
 72
8
 73
4
 74
0
 40
0
 40
0
 40
0
 40
0
 40
1
 40
1
 40
1
 40
1
 10
162.845168
 20
301.791902
 30
0.0
 10
162.469881
 20
301.416615
 30
0.0
 10
162.259046
 20
300.907616
 30
0.0
 10
162.259046
 20
300.376880
 30
0.0
  0
LWPOLYLINE
  5
11d
100
AcDbEntity
  8
Layer_1
 62
7
100
AcDbPolyline
 90
1
 70
1
 10
162.259046
 20
292.376880
 30
0.0
  0
SPLINE
  5
11e
100
AcDbEntity
  8
Layer_1
 62
7
100
AcDbSpline
 70
8
 71
3
 72
8
 73
4
 74
0
 40
0
 40
0
 40
0
 40
0
 40
1
 40
1
 40
1
 40
1
 10
162.259046
 20
308.376880
 30
0.0
 10
162.259046
 20
307.567493
 30
0.0
 10
162.746609
 20
306.837803
 30
0.0
 10
163.494386
 20
306.528064
 30
0.0
  0
SPLINE
  5
11f
100
AcDbEntity
  8
Layer_1
 62
7
100
AcDbSpline
 70
8
 71
3
 72
8
 73
4
 74
0
 40
0
 40
0
 40
0
 40
0
 40
1
 40
1
 40
1
 40
1
 10
163.494386
 20
306.528064
 30
0.0
 10
164.242162
 20
306.218325
 30
0.0
 10
165.102889
 20
306.389535
 30
0.0
 10
165.675212
 20
306.961858
 30
0.0
  0
SPLINE
  5
120
100
AcDbEntity
  8
Layer_1
 62
7
100
AcDbSpline
 70
8
 71
3
 72
8
 73
4
 74
0
 40
0
 40
0
 40
0
 40
0
 40
1
 40
1
 40
1
 40
1
 10
165.675212
 20
306.961858
 30
0.0
 10
166.247535
 20
307.534181
 30
0.0
 10
166.418745
 20
308.394908
 30
0.0
 10
166.109006
 20
309.142684
 30
0.0
  0
SPLINE
  5
121
100
AcDbEntity
  8
Layer_1
 62
7
100
AcDbSpline
 70
8
 71
3
 72
8
 73
4
 74
0
 40
0
 40
0
 40
0
 40
0
 40
1
 40
1
 40
1
 40
1
 10
166.109006
 20
309.142684
 30
0.0
 10
165.799267
 20
309.890461
 30
0.0
 10
165.069577
 20
310.378023
 30
0.0
 10
164.260190
 20
310.378023
 30
0.0
  0
SPLINE
  5
122
100
AcDbEntity
  8
Layer_1
 62
7
100
AcDbSpline
 70
8
 71
3
 72
8
 73
4
 74
0
 40
0
 40
0
 40
0
 40
0
 40
1
 40
1
 40
1
 40
1
 10
164.260190
 20
310.378023
 30
0.0
 10
163.729454
 20
310.378023
 30
0.0
 10
163.220455
 20
310.167189
 30
0.0
 10
162.845168
 20
309.791902
 30
0.0
  0
SPLINE
  5
123
100
AcDbEntity
  8
Layer_1
 62
7
100
AcDbSpline
 70
8
 71
3
 72
8
 73
4
 74
0
 40
0
 40
0
 40
0
 40
0
 40
1
 40
1
 40
1
 40
1
 10
162.845168
 20
309.791902
 30
0.0
 10
162.469881
 20
309.416615
 30
0.0
 10
162.259046
 20
308.907616
 30
0.0
 10
162.259046
 20
308.376880
 30
0.0
  0
LWPOLYLINE
  5
124
100
AcDbEntity
  8
Layer_1
 62
7
100
AcDbPolyline
 90
1
 70
1
 10
162.259046
 20
300.376880
 30
0.0
  0
SPLINE
  5
125
100
AcDbEntity
  8
Layer_1
 62
7
100
AcDbSpline
 70
8
 71
3
 72
8
 73
4
 74
0
 40
0
 40
0
 40
0
 40
0
 40
1
 40
1
 40
1
 40
1
 10
162.259046
 20
316.376880
 30
0.0
 10
162.259046
 20
315.567493
 30
0.0
 10
162.746609
 20
314.837803
 30
0.0
 10
163.494386
 20
314.528064
 30
0.0
  0
SPLINE
  5
126
100
AcDbEntity
  8
Layer_1
 62
7
100
AcDbSpline
 70
8
 71
3
 72
8
 73
4
 74
0
 40
0
 40
0
 40
0
 40
0
 40
1
 40
1
 40
1
 40
1
 10
163.494386
 20
314.528064
 30
0.0
 10
164.242162
 20
314.218325
 30
0.0
 10
165.102889
 20
314.389535
 30
0.0
 10
165.675212
 20
314.961858
 30
0.0
  0
SPLINE
  5
127
100
AcDbEntity
  8
Layer_1
 62
7
100
AcDbSpline
 70
8
 71
3
 72
8
 73
4
 74
0
 40
0
 40
0
 40
0
 40
0
 40
1
 40
1
 40
1
 40
1
 10
165.675212
 20
314.961858
 30
0.0
 10
166.247535
 20
315.534181
 30
0.0
 10
166.418745
 20
316.394908
 30
0.0
 10
166.109006
 20
317.142684
 30
0.0
  0
SPLINE
  5
128
100
AcDbEntity
  8
Layer_1
 62
7
100
AcDbSpline
 70
8
 71
3
 72
8
 73
4
 74
0
 40
0
 40
0
 40
0
 40
0
 40
1
 40
1
 40
1
 40
1
 10
166.109006
 20
317.142684
 30
0.0
 10
165.799267
 20
317.890461
 30
0.0
 10
165.069577
 20
318.378023
 30
0.0
 10
164.260190
 20
318.378023
 30
0.0
  0
SPLINE
  5
129
100
AcDbEntity
  8
Layer_1
 62
7
100
AcDbSpline
 70
8
 71
3
 72
8
 73
4
 74
0
 40
0
 40
0
 40
0
 40
0
 40
1
 40
1
 40
1
 40
1
 10
164.260190
 20
318.378023
 30
0.0
 10
163.729454
 20
318.378023
 30
0.0
 10
163.220455
 20
318.167189
 30
0.0
 10
162.845168
 20
317.791902
 30
0.0
  0
SPLINE
  5
12a
100
AcDbEntity
  8
Layer_1
 62
7
100
AcDbSpline
 70
8
 71
3
 72
8
 73
4
 74
0
 40
0
 40
0
 40
0
 40
0
 40
1
 40
1
 40
1
 40
1
 10
162.845168
 20
317.791902
 30
0.0
 10
162.469881
 20
317.416615
 30
0.0
 10
162.259046
 20
316.907616
 30
0.0
 10
162.259046
 20
316.376880
 30
0.0
  0
LWPOLYLINE
  5
12b
100
AcDbEntity
  8
Layer_1
 62
7
100
AcDbPolyline
 90
1
 70
1
 10
162.259046
 20
308.376880
 30
0.0
  0
SPLINE
  5
12c
100
AcDbEntity
  8
Layer_1
 62
7
100
AcDbSpline
 70
8
 71
3
 72
8
 73
4
 74
0
 40
0
 40
0
 40
0
 40
0
 40
1
 40
1
 40
1
 40
1
 10
162.259046
 20
324.376884
 30
0.0
 10
162.259047
 20
323.567497
 30
0.0
 10
162.746609
 20
322.837807
 30
0.0
 10
163.494386
 20
322.528068
 30
0.0
  0
SPLINE
  5
12d
100
AcDbEntity
  8
Layer_1
 62
7
100
AcDbSpline
 70
8
 71
3
 72
8
 73
4
 74
0
 40
0
 40
0
 40
0
 40
0
 40
1
 40
1
 40
1
 40
1
 10
163.494386
 20
322.528068
 30
0.0
 10
164.242162
 20
322.218329
 30
0.0
 10
165.102889
 20
322.389539
 30
0.0
 10
165.675212
 20
322.961862
 30
0.0
  0
SPLINE
  5
12e
100
AcDbEntity
  8
Layer_1
 62
7
100
AcDbSpline
 70
8
 71
3
 72
8
 73
4
 74
0
 40
0
 40
0
 40
0
 40
0
 40
1
 40
1
 40
1
 40
1
 10
165.675212
 20
322.961862
 30
0.0
 10
166.247535
 20
323.534185
 30
0.0
 10
166.418745
 20
324.394912
 30
0.0
 10
166.109006
 20
325.142688
 30
0.0
  0
SPLINE
  5
12f
100
AcDbEntity
  8
Layer_1
 62
7
100
AcDbSpline
 70
8
 71
3
 72
8
 73
4
 74
0
 40
0
 40
0
 40
0
 40
0
 40
1
 40
1
 40
1
 40
1
 10
166.109006
 20
325.142688
 30
0.0
 10
165.799267
 20
325.890465
 30
0.0
 10
165.069577
 20
326.378027
 30
0.0
 10
164.260190
 20
326.378027
 30
0.0
  0
SPLINE
  5
130
100
AcDbEntity
  8
Layer_1
 62
7
100
AcDbSpline
 70
8
 71
3
 72
8
 73
4
 74
0
 40
0
 40
0
 40
0
 40
0
 40
1
 40
1
 40
1
 40
1
 10
164.260190
 20
326.378027
 30
0.0
 10
163.729454
 20
326.378027
 30
0.0
 10
163.220455
 20
326.167193
 30
0.0
 10
162.845168
 20
325.791906
 30
0.0
  0
SPLINE
  5
131
100
AcDbEntity
  8
Layer_1
 62
7
100
AcDbSpline
 70
8
 71
3
 72
8
 73
4
 74
0
 40
0
 40
0
 40
0
 40
0
 40
1
 40
1
 40
1
 40
1
 10
162.845168
 20
325.791906
 30
0.0
 10
162.469881
 20
325.416619
 30
0.0
 10
162.259047
 20
324.907620
 30
0.0
 10
162.259047
 20
324.376884
 30
0.0
  0
LWPOLYLINE
  5
132
100
AcDbEntity
  8
Layer_1
 62
7
100
AcDbPolyline
 90
1
 70
1
 10
162.259046
 20
316.376880
 30
0.0
  0
SPLINE
  5
133
100
AcDbEntity
  8
Layer_1
 62
7
100
AcDbSpline
 70
8
 71
3
 72
8
 73
4
 74
0
 40
0
 40
0
 40
0
 40
0
 40
1
 40
1
 40
1
 40
1
 10
162.259046
 20
332.376884
 30
0.0
 10
162.259047
 20
331.567497
 30
0.0
 10
162.746609
 20
330.837807
 30
0.0
 10
163.494386
 20
330.528068
 30
0.0
  0
SPLINE
  5
134
100
AcDbEntity
  8
Layer_1
 62
7
100
AcDbSpline
 70
8
 71
3
 72
8
 73
4
 74
0
 40
0
 40
0
 40
0
 40
0
 40
1
 40
1
 40
1
 40
1
 10
163.494386
 20
330.528068
 30
0.0
 10
164.242162
 20
330.218329
 30
0.0
 10
165.102889
 20
330.389539
 30
0.0
 10
165.675212
 20
330.961862
 30
0.0
  0
SPLINE
  5
135
100
AcDbEntity
  8
Layer_1
 62
7
100
AcDbSpline
 70
8
 71
3
 72
8
 73
4
 74
0
 40
0
 40
0
 40
0
 40
0
 40
1
 40
1
 40
1
 40
1
 10
165.675212
 20
330.961862
 30
0.0
 10
166.247535
 20
331.534185
 30
0.0
 10
166.418745
 20
332.394912
 30
0.0
 10
166.109006
 20
333.142688
 30
0.0
  0
SPLINE
  5
136
100
AcDbEntity
  8
Layer_1
 62
7
100
AcDbSpline
 70
8
 71
3
 72
8
 73
4
 74
0
 40
0
 40
0
 40
0
 40
0
 40
1
 40
1
 40
1
 40
1
 10
166.109006
 20
333.142688
 30
0.0
 10
165.799267
 20
333.890465
 30
0.0
 10
165.069577
 20
334.378027
 30
0.0
 10
164.260190
 20
334.378027
 30
0.0
  0
SPLINE
  5
137
100
AcDbEntity
  8
Layer_1
 62
7
100
AcDbSpline
 70
8
 71
3
 72
8
 73
4
 74
0
 40
0
 40
0
 40
0
 40
0
 40
1
 40
1
 40
1
 40
1
 10
164.260190
 20
334.378027
 30
0.0
 10
163.729454
 20
334.378027
 30
0.0
 10
163.220455
 20
334.167193
 30
0.0
 10
162.845168
 20
333.791906
 30
0.0
  0
SPLINE
  5
138
100
AcDbEntity
  8
Layer_1
 62
7
100
AcDbSpline
 70
8
 71
3
 72
8
 73
4
 74
0
 40
0
 40
0
 40
0
 40
0
 40
1
 40
1
 40
1
 40
1
 10
162.845168
 20
333.791906
 30
0.0
 10
162.469881
 20
333.416619
 30
0.0
 10
162.259047
 20
332.907620
 30
0.0
 10
162.259047
 20
332.376884
 30
0.0
  0
LWPOLYLINE
  5
139
100
AcDbEntity
  8
Layer_1
 62
7
100
AcDbPolyline
 90
1
 70
1
 10
162.259047
 20
324.376884
 30
0.0
  0
SPLINE
  5
13a
100
AcDbEntity
  8
Layer_1
 62
7
100
AcDbSpline
 70
8
 71
3
 72
8
 73
4
 74
0
 40
0
 40
0
 40
0
 40
0
 40
1
 40
1
 40
1
 40
1
 10
108.260150
 20
334.377554
 30
0.0
 10
107.450763
 20
334.377554
 30
0.0
 10
106.721073
 20
333.889992
 30
0.0
 10
106.411334
 20
333.142215
 30
0.0
  0
SPLINE
  5
13b
100
AcDbEntity
  8
Layer_1
 62
7
100
AcDbSpline
 70
8
 71
3
 72
8
 73
4
 74
0
 40
0
 40
0
 40
0
 40
0
 40
1
 40
1
 40
1
 40
1
 10
106.411334
 20
333.142215
 30
0.0
 10
106.101595
 20
332.394439
 30
0.0
 10
106.272805
 20
331.533712
 30
0.0
 10
106.845128
 20
330.961389
 30
0.0
  0
SPLINE
  5
13c
100
AcDbEntity
  8
Layer_1
 62
7
100
AcDbSpline
 70
8
 71
3
 72
8
 73
4
 74
0
 40
0
 40
0
 40
0
 40
0
 40
1
 40
1
 40
1
 40
1
 10
106.845128
 20
330.961389
 30
0.0
 10
107.417451
 20
330.389066
 30
0.0
 10
108.278178
 20
330.217856
 30
0.0
 10
109.025954
 20
330.527595
 30
0.0
  0
SPLINE
  5
13d
100
AcDbEntity
  8
Layer_1
 62
7
100
AcDbSpline
 70
8
 71
3
 72
8
 73
4
 74
0
 40
0
 40
0
 40
0
 40
0
 40
1
 40
1
 40
1
 40
1
 10
109.025954
 20
330.527595
 30
0.0
 10
109.773731
 20
330.837334
 30
0.0
 10
110.261294
 20
331.567024
 30
0.0
 10
110.261294
 20
332.376411
 30
0.0
  0
SPLINE
  5
13e
100
AcDbEntity
  8
Layer_1
 62
7
100
AcDbSpline
 70
8
 71
3
 72
8
 73
4
 74
0
 40
0
 40
0
 40
0
 40
0
 40
1
 40
1
 40
1
 40
1
 10
110.261294
 20
332.376411
 30
0.0
 10
110.261294
 20
332.907147
 30
0.0
 10
110.050459
 20
333.416146
 30
0.0
 10
109.675172
 20
333.791433
 30
0.0
  0
SPLINE
  5
13f
100
AcDbEntity
  8
Layer_1
 62
7
100
AcDbSpline
 70
8
 71
3
 72
8
 73
4
 74
0
 40
0
 40
0
 40
0
 40
0
 40
1
 40
1
 40
1
 40
1
 10
109.675172
 20
333.791433
 30
0.0
 10
109.299885
 20
334.166720
 30
0.0
 10
108.790886
 20
334.377554
 30
0.0
 10
108.260150
 20
334.377554
 30
0.0
  0
LWPOLYLINE
  5
140
100
AcDbEntity
  8
Layer_1
 62
7
100
AcDbPolyline
 90
1
 70
1
 10
162.259047
 20
332.376884
 30
0.0
  0
SPLINE
  5
141
100
AcDbEntity
  8
Layer_1
 62
7
100
AcDbSpline
 70
8
 71
3
 72
8
 73
4
 74
0
 40
0
 40
0
 40
0
 40
0
 40
1
 40
1
 40
1
 40
1
 10
116.260150
 20
334.377554
 30
0.0
 10
115.450763
 20
334.377554
 30
0.0
 10
114.721073
 20
333.889992
 30
0.0
 10
114.411334
 20
333.142215
 30
0.0
  0
SPLINE
  5
142
100
AcDbEntity
  8
Layer_1
 62
7
100
AcDbSpline
 70
8
 71
3
 72
8
 73
4
 74
0
 40
0
 40
0
 40
0
 40
0
 40
1
 40
1
 40
1
 40
1
 10
114.411334
 20
333.142215
 30
0.0
 10
114.101595
 20
332.394439
 30
0.0
 10
114.272805
 20
331.533712
 30
0.0
 10
114.845128
 20
330.961389
 30
0.0
  0
SPLINE
  5
143
100
AcDbEntity
  8
Layer_1
 62
7
100
AcDbSpline
 70
8
 71
3
 72
8
 73
4
 74
0
 40
0
 40
0
 40
0
 40
0
 40
1
 40
1
 40
1
 40
1
 10
114.845128
 20
330.961389
 30
0.0
 10
115.417451
 20
330.389066
 30
0.0
 10
116.278178
 20
330.217856
 30
0.0
 10
117.025954
 20
330.527595
 30
0.0
  0
SPLINE
  5
144
100
AcDbEntity
  8
Layer_1
 62
7
100
AcDbSpline
 70
8
 71
3
 72
8
 73
4
 74
0
 40
0
 40
0
 40
0
 40
0
 40
1
 40
1
 40
1
 40
1
 10
117.025954
 20
330.527595
 30
0.0
 10
117.773731
 20
330.837334
 30
0.0
 10
118.261294
 20
331.567024
 30
0.0
 10
118.261294
 20
332.376411
 30
0.0
  0
SPLINE
  5
145
100
AcDbEntity
  8
Layer_1
 62
7
100
AcDbSpline
 70
8
 71
3
 72
8
 73
4
 74
0
 40
0
 40
0
 40
0
 40
0
 40
1
 40
1
 40
1
 40
1
 10
118.261294
 20
332.376411
 30
0.0
 10
118.261294
 20
332.907147
 30
0.0
 10
118.050459
 20
333.416146
 30
0.0
 10
117.675172
 20
333.791433
 30
0.0
  0
SPLINE
  5
146
100
AcDbEntity
  8
Layer_1
 62
7
100
AcDbSpline
 70
8
 71
3
 72
8
 73
4
 74
0
 40
0
 40
0
 40
0
 40
0
 40
1
 40
1
 40
1
 40
1
 10
117.675172
 20
333.791433
 30
0.0
 10
117.299885
 20
334.166720
 30
0.0
 10
116.790886
 20
334.377554
 30
0.0
 10
116.260150
 20
334.377554
 30
0.0
  0
LWPOLYLINE
  5
147
100
AcDbEntity
  8
Layer_1
 62
7
100
AcDbPolyline
 90
1
 70
1
 10
108.260150
 20
334.377554
 30
0.0
  0
SPLINE
  5
148
100
AcDbEntity
  8
Layer_1
 62
7
100
AcDbSpline
 70
8
 71
3
 72
8
 73
4
 74
0
 40
0
 40
0
 40
0
 40
0
 40
1
 40
1
 40
1
 40
1
 10
124.260150
 20
334.377554
 30
0.0
 10
123.450763
 20
334.377554
 30
0.0
 10
122.721073
 20
333.889992
 30
0.0
 10
122.411334
 20
333.142215
 30
0.0
  0
SPLINE
  5
149
100
AcDbEntity
  8
Layer_1
 62
7
100
AcDbSpline
 70
8
 71
3
 72
8
 73
4
 74
0
 40
0
 40
0
 40
0
 40
0
 40
1
 40
1
 40
1
 40
1
 10
122.411334
 20
333.142215
 30
0.0
 10
122.101595
 20
332.394439
 30
0.0
 10
122.272805
 20
331.533712
 30
0.0
 10
122.845128
 20
330.961389
 30
0.0
  0
SPLINE
  5
14a
100
AcDbEntity
  8
Layer_1
 62
7
100
AcDbSpline
 70
8
 71
3
 72
8
 73
4
 74
0
 40
0
 40
0
 40
0
 40
0
 40
1
 40
1
 40
1
 40
1
 10
122.845128
 20
330.961389
 30
0.0
 10
123.417451
 20
330.389066
 30
0.0
 10
124.278178
 20
330.217856
 30
0.0
 10
125.025954
 20
330.527595
 30
0.0
  0
SPLINE
  5
14b
100
AcDbEntity
  8
Layer_1
 62
7
100
AcDbSpline
 70
8
 71
3
 72
8
 73
4
 74
0
 40
0
 40
0
 40
0
 40
0
 40
1
 40
1
 40
1
 40
1
 10
125.025954
 20
330.527595
 30
0.0
 10
125.773731
 20
330.837334
 30
0.0
 10
126.261294
 20
331.567024
 30
0.0
 10
126.261294
 20
332.376411
 30
0.0
  0
SPLINE
  5
14c
100
AcDbEntity
  8
Layer_1
 62
7
100
AcDbSpline
 70
8
 71
3
 72
8
 73
4
 74
0
 40
0
 40
0
 40
0
 40
0
 40
1
 40
1
 40
1
 40
1
 10
126.261294
 20
332.376411
 30
0.0
 10
126.261294
 20
332.907147
 30
0.0
 10
126.050459
 20
333.416146
 30
0.0
 10
125.675172
 20
333.791433
 30
0.0
  0
SPLINE
  5
14d
100
AcDbEntity
  8
Layer_1
 62
7
100
AcDbSpline
 70
8
 71
3
 72
8
 73
4
 74
0
 40
0
 40
0
 40
0
 40
0
 40
1
 40
1
 40
1
 40
1
 10
125.675172
 20
333.791433
 30
0.0
 10
125.299885
 20
334.166720
 30
0.0
 10
124.790886
 20
334.377554
 30
0.0
 10
124.260150
 20
334.377554
 30
0.0
  0
LWPOLYLINE
  5
14e
100
AcDbEntity
  8
Layer_1
 62
7
100
AcDbPolyline
 90
1
 70
1
 10
116.260150
 20
334.377554
 30
0.0
  0
SPLINE
  5
14f
100
AcDbEntity
  8
Layer_1
 62
7
100
AcDbSpline
 70
8
 71
3
 72
8
 73
4
 74
0
 40
0
 40
0
 40
0
 40
0
 40
1
 40
1
 40
1
 40
1
 10
132.260150
 20
334.377554
 30
0.0
 10
131.154949
 20
334.377554
 30
0.0
 10
130.259007
 20
333.481612
 30
0.0
 10
130.259007
 20
332.376411
 30
0.0
  0
SPLINE
  5
150
100
AcDbEntity
  8
Layer_1
 62
7
100
AcDbSpline
 70
8
 71
3
 72
8
 73
4
 74
0
 40
0
 40
0
 40
0
 40
0
 40
1
 40
1
 40
1
 40
1
 10
130.259007
 20
332.376411
 30
0.0
 10
130.259007
 20
331.271210
 30
0.0
 10
131.154949
 20
330.375268
 30
0.0
 10
132.260150
 20
330.375268
 30
0.0
  0
SPLINE
  5
151
100
AcDbEntity
  8
Layer_1
 62
7
100
AcDbSpline
 70
8
 71
3
 72
8
 73
4
 74
0
 40
0
 40
0
 40
0
 40
0
 40
1
 40
1
 40
1
 40
1
 10
132.260150
 20
330.375268
 30
0.0
 10
133.365351
 20
330.375268
 30
0.0
 10
134.261294
 20
331.271210
 30
0.0
 10
134.261294
 20
332.376411
 30
0.0
  0
SPLINE
  5
152
100
AcDbEntity
  8
Layer_1
 62
7
100
AcDbSpline
 70
8
 71
3
 72
8
 73
4
 74
0
 40
0
 40
0
 40
0
 40
0
 40
1
 40
1
 40
1
 40
1
 10
134.261294
 20
332.376411
 30
0.0
 10
134.261294
 20
332.907147
 30
0.0
 10
134.050459
 20
333.416146
 30
0.0
 10
133.675172
 20
333.791433
 30
0.0
  0
SPLINE
  5
153
100
AcDbEntity
  8
Layer_1
 62
7
100
AcDbSpline
 70
8
 71
3
 72
8
 73
4
 74
0
 40
0
 40
0
 40
0
 40
0
 40
1
 40
1
 40
1
 40
1
 10
133.675172
 20
333.791433
 30
0.0
 10
133.299885
 20
334.166720
 30
0.0
 10
132.790886
 20
334.377555
 30
0.0
 10
132.260150
 20
334.377554
 30
0.0
  0
LWPOLYLINE
  5
154
100
AcDbEntity
  8
Layer_1
 62
7
100
AcDbPolyline
 90
1
 70
1
 10
124.260150
 20
334.377554
 30
0.0
  0
SPLINE
  5
155
100
AcDbEntity
  8
Layer_1
 62
7
100
AcDbSpline
 70
8
 71
3
 72
8
 73
4
 74
0
 40
0
 40
0
 40
0
 40
0
 40
1
 40
1
 40
1
 40
1
 10
140.260160
 20
334.377554
 30
0.0
 10
139.154959
 20
334.377554
 30
0.0
 10
138.259017
 20
333.481612
 30
0.0
 10
138.259017
 20
332.376411
 30
0.0
  0
SPLINE
  5
156
100
AcDbEntity
  8
Layer_1
 62
7
100
AcDbSpline
 70
8
 71
3
 72
8
 73
4
 74
0
 40
0
 40
0
 40
0
 40
0
 40
1
 40
1
 40
1
 40
1
 10
138.259017
 20
332.376411
 30
0.0
 10
138.259017
 20
331.271210
 30
0.0
 10
139.154959
 20
330.375268
 30
0.0
 10
140.260160
 20
330.375268
 30
0.0
  0
SPLINE
  5
157
100
AcDbEntity
  8
Layer_1
 62
7
100
AcDbSpline
 70
8
 71
3
 72
8
 73
4
 74
0
 40
0
 40
0
 40
0
 40
0
 40
1
 40
1
 40
1
 40
1
 10
140.260160
 20
330.375268
 30
0.0
 10
141.365361
 20
330.375268
 30
0.0
 10
142.261304
 20
331.271210
 30
0.0
 10
142.261304
 20
332.376411
 30
0.0
  0
SPLINE
  5
158
100
AcDbEntity
  8
Layer_1
 62
7
100
AcDbSpline
 70
8
 71
3
 72
8
 73
4
 74
0
 40
0
 40
0
 40
0
 40
0
 40
1
 40
1
 40
1
 40
1
 10
142.261304
 20
332.376411
 30
0.0
 10
142.261304
 20
332.907147
 30
0.0
 10
142.050469
 20
333.416146
 30
0.0
 10
141.675182
 20
333.791433
 30
0.0
  0
SPLINE
  5
159
100
AcDbEntity
  8
Layer_1
 62
7
100
AcDbSpline
 70
8
 71
3
 72
8
 73
4
 74
0
 40
0
 40
0
 40
0
 40
0
 40
1
 40
1
 40
1
 40
1
 10
141.675182
 20
333.791433
 30
0.0
 10
141.299895
 20
334.166720
 30
0.0
 10
140.790896
 20
334.377555
 30
0.0
 10
140.260160
 20
334.377554
 30
0.0
  0
LWPOLYLINE
  5
15a
100
AcDbEntity
  8
Layer_1
 62
7
100
AcDbPolyline
 90
1
 70
1
 10
132.260150
 20
334.377554
 30
0.0
  0
SPLINE
  5
15b
100
AcDbEntity
  8
Layer_1
 62
7
100
AcDbSpline
 70
8
 71
3
 72
8
 73
4
 74
0
 40
0
 40
0
 40
0
 40
0
 40
1
 40
1
 40
1
 40
1
 10
148.260160
 20
334.377554
 30
0.0
 10
147.450773
 20
334.377554
 30
0.0
 10
146.721083
 20
333.889992
 30
0.0
 10
146.411344
 20
333.142215
 30
0.0
  0
SPLINE
  5
15c
100
AcDbEntity
  8
Layer_1
 62
7
100
AcDbSpline
 70
8
 71
3
 72
8
 73
4
 74
0
 40
0
 40
0
 40
0
 40
0
 40
1
 40
1
 40
1
 40
1
 10
146.411344
 20
333.142215
 30
0.0
 10
146.101605
 20
332.394439
 30
0.0
 10
146.272815
 20
331.533712
 30
0.0
 10
146.845138
 20
330.961389
 30
0.0
  0
SPLINE
  5
15d
100
AcDbEntity
  8
Layer_1
 62
7
100
AcDbSpline
 70
8
 71
3
 72
8
 73
4
 74
0
 40
0
 40
0
 40
0
 40
0
 40
1
 40
1
 40
1
 40
1
 10
146.845138
 20
330.961389
 30
0.0
 10
147.417461
 20
330.389066
 30
0.0
 10
148.278188
 20
330.217856
 30
0.0
 10
149.025964
 20
330.527595
 30
0.0
  0
SPLINE
  5
15e
100
AcDbEntity
  8
Layer_1
 62
7
100
AcDbSpline
 70
8
 71
3
 72
8
 73
4
 74
0
 40
0
 40
0
 40
0
 40
0
 40
1
 40
1
 40
1
 40
1
 10
149.025964
 20
330.527595
 30
0.0
 10
149.773741
 20
330.837334
 30
0.0
 10
150.261304
 20
331.567024
 30
0.0
 10
150.261304
 20
332.376411
 30
0.0
  0
SPLINE
  5
15f
100
AcDbEntity
  8
Layer_1
 62
7
100
AcDbSpline
 70
8
 71
3
 72
8
 73
4
 74
0
 40
0
 40
0
 40
0
 40
0
 40
1
 40
1
 40
1
 40
1
 10
150.261304
 20
332.376411
 30
0.0
 10
150.261304
 20
332.907147
 30
0.0
 10
150.050469
 20
333.416146
 30
0.0
 10
149.675182
 20
333.791433
 30
0.0
  0
SPLINE
  5
160
100
AcDbEntity
  8
Layer_1
 62
7
100
AcDbSpline
 70
8
 71
3
 72
8
 73
4
 74
0
 40
0
 40
0
 40
0
 40
0
 40
1
 40
1
 40
1
 40
1
 10
149.675182
 20
333.791433
 30
0.0
 10
149.299895
 20
334.166720
 30
0.0
 10
148.790896
 20
334.377554
 30
0.0
 10
148.260160
 20
334.377554
 30
0.0
  0
LWPOLYLINE
  5
161
100
AcDbEntity
  8
Layer_1
 62
7
100
AcDbPolyline
 90
1
 70
1
 10
140.260160
 20
334.377554
 30
0.0
  0
SPLINE
  5
162
100
AcDbEntity
  8
Layer_1
 62
7
100
AcDbSpline
 70
8
 71
3
 72
8
 73
4
 74
0
 40
0
 40
0
 40
0
 40
0
 40
1
 40
1
 40
1
 40
1
 10
156.260160
 20
334.377554
 30
0.0
 10
155.154959
 20
334.377554
 30
0.0
 10
154.259017
 20
333.481612
 30
0.0
 10
154.259017
 20
332.376411
 30
0.0
  0
SPLINE
  5
163
100
AcDbEntity
  8
Layer_1
 62
7
100
AcDbSpline
 70
8
 71
3
 72
8
 73
4
 74
0
 40
0
 40
0
 40
0
 40
0
 40
1
 40
1
 40
1
 40
1
 10
154.259017
 20
332.376411
 30
0.0
 10
154.259017
 20
331.271210
 30
0.0
 10
155.154959
 20
330.375268
 30
0.0
 10
156.260160
 20
330.375268
 30
0.0
  0
SPLINE
  5
164
100
AcDbEntity
  8
Layer_1
 62
7
100
AcDbSpline
 70
8
 71
3
 72
8
 73
4
 74
0
 40
0
 40
0
 40
0
 40
0
 40
1
 40
1
 40
1
 40
1
 10
156.260160
 20
330.375268
 30
0.0
 10
157.365361
 20
330.375268
 30
0.0
 10
158.261304
 20
331.271210
 30
0.0
 10
158.261304
 20
332.376411
 30
0.0
  0
SPLINE
  5
165
100
AcDbEntity
  8
Layer_1
 62
7
100
AcDbSpline
 70
8
 71
3
 72
8
 73
4
 74
0
 40
0
 40
0
 40
0
 40
0
 40
1
 40
1
 40
1
 40
1
 10
158.261304
 20
332.376411
 30
0.0
 10
158.261304
 20
332.907147
 30
0.0
 10
158.050469
 20
333.416146
 30
0.0
 10
157.675182
 20
333.791433
 30
0.0
  0
SPLINE
  5
166
100
AcDbEntity
  8
Layer_1
 62
7
100
AcDbSpline
 70
8
 71
3
 72
8
 73
4
 74
0
 40
0
 40
0
 40
0
 40
0
 40
1
 40
1
 40
1
 40
1
 10
157.675182
 20
333.791433
 30
0.0
 10
157.299895
 20
334.166720
 30
0.0
 10
156.790896
 20
334.377555
 30
0.0
 10
156.260160
 20
334.377554
 30
0.0
  0
LWPOLYLINE
  5
167
100
AcDbEntity
  8
Layer_1
 62
7
100
AcDbPolyline
 90
1
 70
1
 10
148.260160
 20
334.377554
 30
0.0
  0
SPLINE
  5
168
100
AcDbEntity
  8
Layer_1
 62
7
100
AcDbSpline
 70
8
 71
3
 72
8
 73
4
 74
0
 40
0
 40
0
 40
0
 40
0
 40
1
 40
1
 40
1
 40
1
 10
116.260280
 20
326.377876
 30
0.0
 10
115.450893
 20
326.377876
 30
0.0
 10
114.721203
 20
325.890313
 30
0.0
 10
114.411464
 20
325.142536
 30
0.0
  0
SPLINE
  5
169
100
AcDbEntity
  8
Layer_1
 62
7
100
AcDbSpline
 70
8
 71
3
 72
8
 73
4
 74
0
 40
0
 40
0
 40
0
 40
0
 40
1
 40
1
 40
1
 40
1
 10
114.411464
 20
325.142536
 30
0.0
 10
114.101725
 20
324.394760
 30
0.0
 10
114.272935
 20
323.534033
 30
0.0
 10
114.845258
 20
322.961710
 30
0.0
  0
SPLINE
  5
16a
100
AcDbEntity
  8
Layer_1
 62
7
100
AcDbSpline
 70
8
 71
3
 72
8
 73
4
 74
0
 40
0
 40
0
 40
0
 40
0
 40
1
 40
1
 40
1
 40
1
 10
114.845258
 20
322.961710
 30
0.0
 10
115.417581
 20
322.389387
 30
0.0
 10
116.278308
 20
322.218177
 30
0.0
 10
117.026084
 20
322.527916
 30
0.0
  0
SPLINE
  5
16b
100
AcDbEntity
  8
Layer_1
 62
7
100
AcDbSpline
 70
8
 71
3
 72
8
 73
4
 74
0
 40
0
 40
0
 40
0
 40
0
 40
1
 40
1
 40
1
 40
1
 10
117.026084
 20
322.527916
 30
0.0
 10
117.773861
 20
322.837655
 30
0.0
 10
118.261424
 20
323.567345
 30
0.0
 10
118.261424
 20
324.376732
 30
0.0
  0
SPLINE
  5
16c
100
AcDbEntity
  8
Layer_1
 62
7
100
AcDbSpline
 70
8
 71
3
 72
8
 73
4
 74
0
 40
0
 40
0
 40
0
 40
0
 40
1
 40
1
 40
1
 40
1
 10
118.261424
 20
324.376732
 30
0.0
 10
118.261424
 20
324.907468
 30
0.0
 10
118.050589
 20
325.416467
 30
0.0
 10
117.675302
 20
325.791754
 30
0.0
  0
SPLINE
  5
16d
100
AcDbEntity
  8
Layer_1
 62
7
100
AcDbSpline
 70
8
 71
3
 72
8
 73
4
 74
0
 40
0
 40
0
 40
0
 40
0
 40
1
 40
1
 40
1
 40
1
 10
117.675302
 20
325.791754
 30
0.0
 10
117.300015
 20
326.167041
 30
0.0
 10
116.791016
 20
326.377876
 30
0.0
 10
116.260280
 20
326.377876
 30
0.0
  0
LWPOLYLINE
  5
16e
100
AcDbEntity
  8
Layer_1
 62
7
100
AcDbPolyline
 90
1
 70
1
 10
156.260160
 20
334.377554
 30
0.0
  0
SPLINE
  5
16f
100
AcDbEntity
  8
Layer_1
 62
7
100
AcDbSpline
 70
8
 71
3
 72
8
 73
4
 74
0
 40
0
 40
0
 40
0
 40
0
 40
1
 40
1
 40
1
 40
1
 10
124.260220
 20
318.376873
 30
0.0
 10
123.450833
 20
318.376873
 30
0.0
 10
122.721143
 20
317.889311
 30
0.0
 10
122.411404
 20
317.141534
 30
0.0
  0
SPLINE
  5
170
100
AcDbEntity
  8
Layer_1
 62
7
100
AcDbSpline
 70
8
 71
3
 72
8
 73
4
 74
0
 40
0
 40
0
 40
0
 40
0
 40
1
 40
1
 40
1
 40
1
 10
122.411404
 20
317.141534
 30
0.0
 10
122.101665
 20
316.393758
 30
0.0
 10
122.272875
 20
315.533031
 30
0.0
 10
122.845198
 20
314.960708
 30
0.0
  0
SPLINE
  5
171
100
AcDbEntity
  8
Layer_1
 62
7
100
AcDbSpline
 70
8
 71
3
 72
8
 73
4
 74
0
 40
0
 40
0
 40
0
 40
0
 40
1
 40
1
 40
1
 40
1
 10
122.845198
 20
314.960708
 30
0.0
 10
123.417521
 20
314.388385
 30
0.0
 10
124.278248
 20
314.217175
 30
0.0
 10
125.026024
 20
314.526914
 30
0.0
  0
SPLINE
  5
172
100
AcDbEntity
  8
Layer_1
 62
7
100
AcDbSpline
 70
8
 71
3
 72
8
 73
4
 74
0
 40
0
 40
0
 40
0
 40
0
 40
1
 40
1
 40
1
 40
1
 10
125.026024
 20
314.526914
 30
0.0
 10
125.773801
 20
314.836653
 30
0.0
 10
126.261364
 20
315.566343
 30
0.0
 10
126.261364
 20
316.375730
 30
0.0
  0
SPLINE
  5
173
100
AcDbEntity
  8
Layer_1
 62
7
100
AcDbSpline
 70
8
 71
3
 72
8
 73
4
 74
0
 40
0
 40
0
 40
0
 40
0
 40
1
 40
1
 40
1
 40
1
 10
126.261364
 20
316.375730
 30
0.0
 10
126.261364
 20
316.906466
 30
0.0
 10
126.050529
 20
317.415465
 30
0.0
 10
125.675242
 20
317.790752
 30
0.0
  0
SPLINE
  5
174
100
AcDbEntity
  8
Layer_1
 62
7
100
AcDbSpline
 70
8
 71
3
 72
8
 73
4
 74
0
 40
0
 40
0
 40
0
 40
0
 40
1
 40
1
 40
1
 40
1
 10
125.675242
 20
317.790752
 30
0.0
 10
125.299955
 20
318.166039
 30
0.0
 10
124.790956
 20
318.376873
 30
0.0
 10
124.260220
 20
318.376873
 30
0.0
  0
LWPOLYLINE
  5
175
100
AcDbEntity
  8
Layer_1
 62
7
100
AcDbPolyline
 90
1
 70
1
 10
116.260280
 20
326.377876
 30
0.0
  0
SPLINE
  5
176
100
AcDbEntity
  8
Layer_1
 62
7
100
AcDbSpline
 70
8
 71
3
 72
8
 73
4
 74
0
 40
0
 40
0
 40
0
 40
0
 40
1
 40
1
 40
1
 40
1
 10
132.260180
 20
310.378524
 30
0.0
 10
131.154979
 20
310.378523
 30
0.0
 10
130.259037
 20
309.482581
 30
0.0
 10
130.259037
 20
308.377380
 30
0.0
  0
SPLINE
  5
177
100
AcDbEntity
  8
Layer_1
 62
7
100
AcDbSpline
 70
8
 71
3
 72
8
 73
4
 74
0
 40
0
 40
0
 40
0
 40
0
 40
1
 40
1
 40
1
 40
1
 10
130.259037
 20
308.377380
 30
0.0
 10
130.259037
 20
307.272179
 30
0.0
 10
131.154979
 20
306.376237
 30
0.0
 10
132.260180
 20
306.376237
 30
0.0
  0
SPLINE
  5
178
100
AcDbEntity
  8
Layer_1
 62
7
100
AcDbSpline
 70
8
 71
3
 72
8
 73
4
 74
0
 40
0
 40
0
 40
0
 40
0
 40
1
 40
1
 40
1
 40
1
 10
132.260180
 20
306.376237
 30
0.0
 10
133.365381
 20
306.376237
 30
0.0
 10
134.261324
 20
307.272179
 30
0.0
 10
134.261324
 20
308.377380
 30
0.0
  0
SPLINE
  5
179
100
AcDbEntity
  8
Layer_1
 62
7
100
AcDbSpline
 70
8
 71
3
 72
8
 73
4
 74
0
 40
0
 40
0
 40
0
 40
0
 40
1
 40
1
 40
1
 40
1
 10
134.261324
 20
308.377380
 30
0.0
 10
134.261324
 20
308.908116
 30
0.0
 10
134.050489
 20
309.417115
 30
0.0
 10
133.675202
 20
309.792402
 30
0.0
  0
SPLINE
  5
17a
100
AcDbEntity
  8
Layer_1
 62
7
100
AcDbSpline
 70
8
 71
3
 72
8
 73
4
 74
0
 40
0
 40
0
 40
0
 40
0
 40
1
 40
1
 40
1
 40
1
 10
133.675202
 20
309.792402
 30
0.0
 10
133.299915
 20
310.167689
 30
0.0
 10
132.790916
 20
310.378523
 30
0.0
 10
132.260180
 20
310.378523
 30
0.0
  0
LWPOLYLINE
  5
17b
100
AcDbEntity
  8
Layer_1
 62
7
100
AcDbPolyline
 90
1
 70
1
 10
124.260220
 20
318.376873
 30
0.0
  0
SPLINE
  5
17c
100
AcDbEntity
  8
Layer_1
 62
7
100
AcDbSpline
 70
8
 71
3
 72
8
 73
4
 74
0
 40
0
 40
0
 40
0
 40
0
 40
1
 40
1
 40
1
 40
1
 10
140.260190
 20
302.377523
 30
0.0
 10
139.154989
 20
302.377523
 30
0.0
 10
138.259047
 20
301.481581
 30
0.0
 10
138.259047
 20
300.376380
 30
0.0
  0
SPLINE
  5
17d
100
AcDbEntity
  8
Layer_1
 62
7
100
AcDbSpline
 70
8
 71
3
 72
8
 73
4
 74
0
 40
0
 40
0
 40
0
 40
0
 40
1
 40
1
 40
1
 40
1
 10
138.259047
 20
300.376380
 30
0.0
 10
138.259047
 20
299.271179
 30
0.0
 10
139.154989
 20
298.375237
 30
0.0
 10
140.260190
 20
298.375237
 30
0.0
  0
SPLINE
  5
17e
100
AcDbEntity
  8
Layer_1
 62
7
100
AcDbSpline
 70
8
 71
3
 72
8
 73
4
 74
0
 40
0
 40
0
 40
0
 40
0
 40
1
 40
1
 40
1
 40
1
 10
140.260190
 20
298.375237
 30
0.0
 10
141.365391
 20
298.375237
 30
0.0
 10
142.261334
 20
299.271179
 30
0.0
 10
142.261334
 20
300.376380
 30
0.0
  0
SPLINE
  5
17f
100
AcDbEntity
  8
Layer_1
 62
7
100
AcDbSpline
 70
8
 71
3
 72
8
 73
4
 74
0
 40
0
 40
0
 40
0
 40
0
 40
1
 40
1
 40
1
 40
1
 10
142.261334
 20
300.376380
 30
0.0
 10
142.261334
 20
300.907116
 30
0.0
 10
142.050499
 20
301.416115
 30
0.0
 10
141.675212
 20
301.791402
 30
0.0
  0
SPLINE
  5
180
100
AcDbEntity
  8
Layer_1
 62
7
100
AcDbSpline
 70
8
 71
3
 72
8
 73
4
 74
0
 40
0
 40
0
 40
0
 40
0
 40
1
 40
1
 40
1
 40
1
 10
141.675212
 20
301.791402
 30
0.0
 10
141.299925
 20
302.166689
 30
0.0
 10
140.790926
 20
302.377523
 30
0.0
 10
140.260190
 20
302.377523
 30
0.0
  0
LWPOLYLINE
  5
181
100
AcDbEntity
  8
Layer_1
 62
7
100
AcDbPolyline
 90
1
 70
1
 10
132.260180
 20
310.378523
 30
0.0
  0
SPLINE
  5
182
100
AcDbEntity
  8
Layer_1
 62
7
100
AcDbSpline
 70
8
 71
3
 72
8
 73
4
 74
0
 40
0
 40
0
 40
0
 40
0
 40
1
 40
1
 40
1
 40
1
 10
148.260180
 20
294.377843
 30
0.0
 10
147.154979
 20
294.377843
 30
0.0
 10
146.259037
 20
293.481901
 30
0.0
 10
146.259037
 20
292.376700
 30
0.0
  0
SPLINE
  5
183
100
AcDbEntity
  8
Layer_1
 62
7
100
AcDbSpline
 70
8
 71
3
 72
8
 73
4
 74
0
 40
0
 40
0
 40
0
 40
0
 40
1
 40
1
 40
1
 40
1
 10
146.259037
 20
292.376700
 30
0.0
 10
146.259037
 20
291.271499
 30
0.0
 10
147.154979
 20
290.375557
 30
0.0
 10
148.260180
 20
290.375557
 30
0.0
  0
SPLINE
  5
184
100
AcDbEntity
  8
Layer_1
 62
7
100
AcDbSpline
 70
8
 71
3
 72
8
 73
4
 74
0
 40
0
 40
0
 40
0
 40
0
 40
1
 40
1
 40
1
 40
1
 10
148.260180
 20
290.375557
 30
0.0
 10
149.365381
 20
290.375557
 30
0.0
 10
150.261324
 20
291.271499
 30
0.0
 10
150.261324
 20
292.376700
 30
0.0
  0
SPLINE
  5
185
100
AcDbEntity
  8
Layer_1
 62
7
100
AcDbSpline
 70
8
 71
3
 72
8
 73
4
 74
0
 40
0
 40
0
 40
0
 40
0
 40
1
 40
1
 40
1
 40
1
 10
150.261324
 20
292.376700
 30
0.0
 10
150.261324
 20
292.907436
 30
0.0
 10
150.050489
 20
293.416435
 30
0.0
 10
149.675202
 20
293.791722
 30
0.0
  0
SPLINE
  5
186
100
AcDbEntity
  8
Layer_1
 62
7
100
AcDbSpline
 70
8
 71
3
 72
8
 73
4
 74
0
 40
0
 40
0
 40
0
 40
0
 40
1
 40
1
 40
1
 40
1
 10
149.675202
 20
293.791722
 30
0.0
 10
149.299915
 20
294.167009
 30
0.0
 10
148.790916
 20
294.377844
 30
0.0
 10
148.260180
 20
294.377843
 30
0.0
  0
LWPOLYLINE
  5
187
100
AcDbEntity
  8
Layer_1
 62
7
100
AcDbPolyline
 90
1
 70
1
 10
140.260190
 20
302.377523
 30
0.0
  0
SPLINE
  5
188
100
AcDbEntity
  8
Layer_1
 62
7
100
AcDbSpline
 70
8
 71
3
 72
8
 73
4
 74
0
 40
0
 40
0
 40
0
 40
0
 40
1
 40
1
 40
1
 40
1
 10
156.260210
 20
286.378183
 30
0.0
 10
155.450823
 20
286.378184
 30
0.0
 10
154.721133
 20
285.890621
 30
0.0
 10
154.411394
 20
285.142844
 30
0.0
  0
SPLINE
  5
189
100
AcDbEntity
  8
Layer_1
 62
7
100
AcDbSpline
 70
8
 71
3
 72
8
 73
4
 74
0
 40
0
 40
0
 40
0
 40
0
 40
1
 40
1
 40
1
 40
1
 10
154.411394
 20
285.142844
 30
0.0
 10
154.101655
 20
284.395068
 30
0.0
 10
154.272865
 20
283.534341
 30
0.0
 10
154.845188
 20
282.962018
 30
0.0
  0
SPLINE
  5
18a
100
AcDbEntity
  8
Layer_1
 62
7
100
AcDbSpline
 70
8
 71
3
 72
8
 73
4
 74
0
 40
0
 40
0
 40
0
 40
0
 40
1
 40
1
 40
1
 40
1
 10
154.845188
 20
282.962018
 30
0.0
 10
155.417511
 20
282.389695
 30
0.0
 10
156.278238
 20
282.218485
 30
0.0
 10
157.026014
 20
282.528224
 30
0.0
  0
SPLINE
  5
18b
100
AcDbEntity
  8
Layer_1
 62
7
100
AcDbSpline
 70
8
 71
3
 72
8
 73
4
 74
0
 40
0
 40
0
 40
0
 40
0
 40
1
 40
1
 40
1
 40
1
 10
157.026014
 20
282.528224
 30
0.0
 10
157.773791
 20
282.837963
 30
0.0
 10
158.261354
 20
283.567653
 30
0.0
 10
158.261354
 20
284.377040
 30
0.0
  0
SPLINE
  5
18c
100
AcDbEntity
  8
Layer_1
 62
7
100
AcDbSpline
 70
8
 71
3
 72
8
 73
4
 74
0
 40
0
 40
0
 40
0
 40
0
 40
1
 40
1
 40
1
 40
1
 10
158.261354
 20
284.377040
 30
0.0
 10
158.261354
 20
284.907776
 30
0.0
 10
158.050519
 20
285.416775
 30
0.0
 10
157.675232
 20
285.792062
 30
0.0
  0
SPLINE
  5
18d
100
AcDbEntity
  8
Layer_1
 62
7
100
AcDbSpline
 70
8
 71
3
 72
8
 73
4
 74
0
 40
0
 40
0
 40
0
 40
0
 40
1
 40
1
 40
1
 40
1
 10
157.675232
 20
285.792062
 30
0.0
 10
157.299945
 20
286.167349
 30
0.0
 10
156.790946
 20
286.378184
 30
0.0
 10
156.260210
 20
286.378184
 30
0.0
  0
LWPOLYLINE
  5
18e
100
AcDbEntity
  8
Layer_1
 62
7
100
AcDbPolyline
 90
1
 70
1
 10
148.260180
 20
294.377843
 30
0.0
  0
SPLINE
  5
18f
100
AcDbEntity
  8
Layer_1
 62
7
100
AcDbSpline
 70
8
 71
3
 72
8
 73
4
 74
0
 40
0
 40
0
 40
0
 40
0
 40
1
 40
1
 40
1
 40
1
 10
104.747700
 20
328.823144
 30
0.0
 10
103.798200
 20
329.761736
 30
0.0
 10
103.263850
 20
331.041306
 30
0.0
 10
103.263850
 20
332.376411
 30
0.0
  0
SPLINE
  5
190
100
AcDbEntity
  8
Layer_1
 62
7
100
AcDbSpline
 70
8
 71
3
 72
8
 73
4
 74
0
 40
0
 40
0
 40
0
 40
0
 40
1
 40
1
 40
1
 40
1
 10
103.263850
 20
332.376411
 30
0.0
 10
103.263850
 20
335.113393
 30
0.0
 10
105.465929
 20
337.340925
 30
0.0
 10
108.202730
 20
337.372378
 30
0.0
  0
SPLINE
  5
191
100
AcDbEntity
  8
Layer_1
 62
7
100
AcDbSpline
 70
8
 71
3
 72
8
 73
4
 74
0
 40
0
 40
0
 40
0
 40
0
 40
1
 40
1
 40
1
 40
1
 10
164.299930
 20
337.376719
 30
0.0
 10
167.030504
 20
337.355016
 30
0.0
 10
169.238647
 20
335.146614
 30
0.0
 10
169.260030
 20
332.416038
 30
0.0
  0
SPLINE
  5
192
100
AcDbEntity
  8
Layer_1
 62
7
100
AcDbSpline
 70
8
 71
3
 72
8
 73
4
 74
0
 40
0
 40
0
 40
0
 40
0
 40
1
 40
1
 40
1
 40
1
 10
169.260040
 20
276.337720
 30
0.0
 10
169.238527
 20
273.591664
 30
0.0
 10
167.006330
 20
271.376888
 30
0.0
 10
164.260190
 20
271.376890
 30
0.0
  0
SPLINE
  5
193
100
AcDbEntity
  8
Layer_1
 62
7
100
AcDbSpline
 70
8
 71
3
 72
8
 73
4
 74
0
 40
0
 40
0
 40
0
 40
0
 40
1
 40
1
 40
1
 40
1
 10
164.260190
 20
271.376890
 30
0.0
 10
162.916486
 20
271.376891
 30
0.0
 10
161.629334
 20
271.917728
 30
0.0
 10
160.688900
 20
272.877480
 30
0.0
  0
LWPOLYLINE
  5
194
100
AcDbEntity
  8
Layer_1
 62
7
100
AcDbPolyline
 90
1
 70
1
 10
156.260210
 20
286.378184
 30
0.0
  0
ENDSEC
  0
SECTION
  2
OBJECTS
  0
DICTIONARY
  5
C
330
0
100
AcDbDictionary
  3
ACAD_GROUP
350
D
  3
ACAD_MLINESTYLE
350
17
  0
DICTIONARY
  5
D
330
C
100
AcDbDictionary
  0
DICTIONARY
  5
1A
330
C
100
AcDbDictionary
  0
DICTIONARY
  5
17
330
C
100
AcDbDictionary
  3
STANDARD
350
18
  0
DICTIONARY
  5
19
330
C
100
AcDbDictionary
  0
ENDSEC
  0
EOF
